  0
SECTION
  2
HEADER
  9
$ACADVER
  1
AC1014
  9
$HANDSEED
  5
FFFF
  9
$MEASUREMENT
 70
     1
  0
ENDSEC
  0
SECTION
  2
TABLES
  0
TABLE
  2
VPORT
  5
8
330
0
100
AcDbSymbolTable
 70
     4
  0
VPORT
  5
2E
330
8
100
AcDbSymbolTableRecord
100
AcDbViewportTableRecord
  2
*ACTIVE
 70
     0
 10
0.0
 20
0.0
 11
1.0
 21
1.0
 12
210.0
 22
148.5
 13
0.0
 23
0.0
 14
10.0
 24
10.0
 15
10.0
 25
10.0
 16
0.0
 26
0.0
 36
1.0
 17
0.0
 27
0.0
 37
0.0
 40
341.0
 41
1.24
 42
50.0
 43
0.0
 44
0.0
 50
0.0
 51
0.0
 71
     0
 72
   100
 73
     1
 74
     3
 75
     0
 76
     0
 77
     0
 78
     0
  0
ENDTAB
  0
TABLE
  2
LTYPE
  5
5
330
0
100
AcDbSymbolTable
 70
     1
  0
LTYPE
  5
14
330
5
100
AcDbSymbolTableRecord
100
AcDbLinetypeTableRecord
  2
BYBLOCK
 70
     0
  3

 72
    65
 73
     0
 40
0.0
  0
LTYPE
  5
15
330
5
100
AcDbSymbolTableRecord
100
AcDbLinetypeTableRecord
  2
BYLAYER
 70
     0
  3

 72
    65
 73
     0
 40
0.0
  0
LTYPE
  5
16
330
5
100
AcDbSymbolTableRecord
100
AcDbLinetypeTableRecord
  2
CONTINUOUS
 70
     0
  3
Solid line
 72
    65
 73
     0
 40
0.0
  0
ENDTAB
  0
TABLE
  2
LAYER
  5
2
100
AcDbSymbolTable
 70
2
  0
LAYER
  5
50
100
AcDbSymbolTableRecord
100
AcDbLayerTableRecord
  2
0
 70
0
  6
CONTINUOUS
  0
LAYER
  5
51
100
AcDbSymbolTableRecord
100
AcDbLayerTableRecord
  2
Layer_1
 70
0
  6
CONTINUOUS
  0
ENDTAB
  0
TABLE
  2
STYLE
  5
3
330
0
100
AcDbSymbolTable
 70
     1
  0
STYLE
  5
11
330
3
100
AcDbSymbolTableRecord
100
AcDbTextStyleTableRecord
  2
STANDARD
 70
     0
 40
0.0
 41
1.0
 50
0.0
 71
     0
 42
2.5
  3
txt
  4

  0
ENDTAB
  0
TABLE
  2
VIEW
  5
6
330
0
100
AcDbSymbolTable
 70
     0
  0
ENDTAB
  0
TABLE
  2
UCS
  5
7
330
0
100
AcDbSymbolTable
 70
     0
  0
ENDTAB
  0
TABLE
  2
APPID
  5
9
330
0
100
AcDbSymbolTable
 70
     2
  0
APPID
  5
12
330
9
100
AcDbSymbolTableRecord
100
AcDbRegAppTableRecord
  2
ACAD
 70
     0
  0
ENDTAB
  0
TABLE
  2
DIMSTYLE
  5
A
330
0
100
AcDbSymbolTable
 70
     1
  0
DIMSTYLE
105
27
330
A
100
AcDbSymbolTableRecord
100
AcDbDimStyleTableRecord
  2
ISO-25
 70
     0
  3

  4

  5

  6

  7

 40
1.0
 41
2.5
 42
0.625
 43
3.75
 44
1.25
 45
0.0
 46
0.0
 47
0.0
 48
0.0
140
2.5
141
2.5
142
0.0
143
0.03937007874016
144
1.0
145
0.0
146
1.0
147
0.625
 71
     0
 72
     0
 73
     0
 74
     0
 75
     0
 76
     0
 77
     1
 78
     8
170
     0
171
     3
172
     1
173
     0
174
     0
175
     0
176
     0
177
     0
178
     0
270
     2
271
     2
272
     2
273
     2
274
     3
340
11
275
     0
280
     0
281
     0
282
     0
283
     0
284
     8
285
     0
286
     0
287
     3
288
     0
  0
ENDTAB
  0
TABLE
  2
BLOCK_RECORD
  5
1
330
0
100
AcDbSymbolTable
 70
     1
  0
BLOCK_RECORD
  5
1F
330
1
100
AcDbSymbolTableRecord
100
AcDbBlockTableRecord
  2
*MODEL_SPACE
  0
BLOCK_RECORD
  5
1B
330
1
100
AcDbSymbolTableRecord
100
AcDbBlockTableRecord
  2
*PAPER_SPACE
  0
ENDTAB
  0
ENDSEC
  0
SECTION
  2
BLOCKS
  0
BLOCK
  5
20
330
1F
100
AcDbEntity
  8
0
100
AcDbBlockBegin
  2
*MODEL_SPACE
 70
     0
 10
0.0
 20
0.0
 30
0.0
  3
*MODEL_SPACE
  1

  0
ENDBLK
  5
21
330
1F
100
AcDbEntity
  8
0
100
AcDbBlockEnd
  0
BLOCK
  5
1C
330
1B
100
AcDbEntity
 67
     1
  8
0
100
AcDbBlockBegin
  2
*PAPER_SPACE
  1

  0
ENDBLK
  5
1D
330
1B
100
AcDbEntity
 67
     1
  8
0
100
AcDbBlockEnd
  0
ENDSEC
  0
SECTION
  2
ENTITIES
  0
SPLINE
  5
100
100
AcDbEntity
  8
Layer_1
 62
7
100
AcDbSpline
 70
8
 71
3
 72
8
 73
4
 74
0
 40
0
 40
0
 40
0
 40
0
 40
1
 40
1
 40
1
 40
1
 10
-7.781821
 20
241.047870
 30
0.0
 10
-6.485651
 20
241.813540
 30
0.0
 10
-5.214281
 20
243.280100
 30
0.0
 10
-4.956581
 20
244.306880
 30
0.0
  0
SPLINE
  5
101
100
AcDbEntity
  8
Layer_1
 62
7
100
AcDbSpline
 70
8
 71
3
 72
8
 73
4
 74
0
 40
0
 40
0
 40
0
 40
0
 40
1
 40
1
 40
1
 40
1
 10
-4.956581
 20
244.306880
 30
0.0
 10
-4.698871
 20
245.333670
 30
0.0
 10
-4.825461
 20
246.511210
 30
0.0
 10
-5.237891
 20
246.923640
 30
0.0
  0
SPLINE
  5
102
100
AcDbEntity
  8
Layer_1
 62
7
100
AcDbSpline
 70
8
 71
3
 72
8
 73
4
 74
0
 40
0
 40
0
 40
0
 40
0
 40
1
 40
1
 40
1
 40
1
 10
-5.237891
 20
246.923640
 30
0.0
 10
-5.688331
 20
247.374090
 30
0.0
 10
-20.341041
 20
247.590310
 30
0.0
 10
-41.933481
 20
247.465140
 30
0.0
  0
LWPOLYLINE
  5
103
100
AcDbEntity
  8
Layer_1
 62
7
100
AcDbPolyline
 90
8
 70
1
 10
3.310189
 20
256.457950
 30
0.0
 10
3.310189
 20
262.058720
 30
0.0
 10
-41.495901
 20
262.058720
 30
0.0
 10
-86.302000
 20
262.058720
 30
0.0
 10
-86.302000
 20
256.457950
 30
0.0
 10
-86.302000
 20
250.857190
 30
0.0
 10
-41.495901
 20
250.857190
 30
0.0
 10
3.310189
 20
250.857190
 30
0.0
  0
SPLINE
  5
104
100
AcDbEntity
  8
Layer_1
 62
7
100
AcDbSpline
 70
8
 71
3
 72
8
 73
4
 74
0
 40
0
 40
0
 40
0
 40
0
 40
1
 40
1
 40
1
 40
1
 10
-78.160190
 20
245.797050
 30
0.0
 10
-78.314730
 20
244.994200
 30
0.0
 10
-77.779530
 20
243.601520
 30
0.0
 10
-76.970850
 20
242.702210
 30
0.0
  0
SPLINE
  5
105
100
AcDbEntity
  8
Layer_1
 62
7
100
AcDbSpline
 70
8
 71
3
 72
8
 73
4
 74
0
 40
0
 40
0
 40
0
 40
0
 40
1
 40
1
 40
1
 40
1
 10
-76.970850
 20
242.702210
 30
0.0
 10
-76.162170
 20
241.802890
 30
0.0
 10
-74.780430
 20
240.772350
 30
0.0
 10
-73.900310
 20
240.412130
 30
0.0
  0
SPLINE
  5
106
100
AcDbEntity
  8
Layer_1
 62
7
100
AcDbSpline
 70
8
 71
3
 72
8
 73
4
 74
0
 40
0
 40
0
 40
0
 40
0
 40
1
 40
1
 40
1
 40
1
 10
-73.900310
 20
240.412130
 30
0.0
 10
-73.020190
 20
240.051900
 30
0.0
 10
-58.313740
 20
239.734350
 30
0.0
 10
-41.219301
 20
239.706450
 30
0.0
  0
LWPOLYLINE
  5
107
100
AcDbEntity
  8
Layer_1
 62
7
100
AcDbPolyline
 90
3
 70
0
 10
-41.933481
 20
247.465140
 30
0.0
 10
-77.879210
 20
247.256770
 30
0.0
 10
-78.160190
 20
245.797050
 30
0.0
  0
SPLINE
  5
108
100
AcDbEntity
  8
Layer_1
 62
7
100
AcDbSpline
 70
8
 71
3
 72
8
 73
4
 74
0
 40
0
 40
0
 40
0
 40
0
 40
1
 40
1
 40
1
 40
1
 10
2.025599
 20
195.049680
 30
0.0
 10
6.658339
 20
200.880470
 30
0.0
 10
11.558139
 20
207.886450
 30
0.0
 10
12.914049
 20
210.618520
 30
0.0
  0
SPLINE
  5
109
100
AcDbEntity
  8
Layer_1
 62
7
100
AcDbSpline
 70
8
 71
3
 72
8
 73
4
 74
0
 40
0
 40
0
 40
0
 40
0
 40
1
 40
1
 40
1
 40
1
 10
12.914049
 20
210.618520
 30
0.0
 10
14.269959
 20
213.350600
 30
0.0
 10
15.594029
 20
217.398680
 30
0.0
 10
15.856429
 20
219.614260
 30
0.0
  0
SPLINE
  5
10a
100
AcDbEntity
  8
Layer_1
 62
7
100
AcDbSpline
 70
8
 71
3
 72
8
 73
4
 74
0
 40
0
 40
0
 40
0
 40
0
 40
1
 40
1
 40
1
 40
1
 10
15.856429
 20
219.614260
 30
0.0
 10
16.190248
 20
222.432900
 30
0.0
 10
15.931229
 20
224.696020
 30
0.0
 10
14.993809
 20
227.150580
 30
0.0
  0
SPLINE
  5
10b
100
AcDbEntity
  8
Layer_1
 62
7
100
AcDbSpline
 70
8
 71
3
 72
8
 73
4
 74
0
 40
0
 40
0
 40
0
 40
0
 40
1
 40
1
 40
1
 40
1
 10
14.993809
 20
227.150580
 30
0.0
 10
14.256959
 20
229.079980
 30
0.0
 10
12.924949
 20
231.318440
 30
0.0
 10
12.033779
 20
232.124930
 30
0.0
  0
LWPOLYLINE
  5
10c
100
AcDbEntity
  8
Layer_1
 62
7
100
AcDbPolyline
 90
3
 70
0
 10
-41.219301
 20
239.706450
 30
0.0
 10
-10.138501
 20
239.655750
 30
0.0
 10
-7.781821
 20
241.047870
 30
0.0
  0
SPLINE
  5
10d
100
AcDbEntity
  8
Layer_1
 62
7
100
AcDbSpline
 70
8
 71
3
 72
8
 73
4
 74
0
 40
0
 40
0
 40
0
 40
0
 40
1
 40
1
 40
1
 40
1
 10
9.674459
 20
232.422940
 30
0.0
 10
9.268009
 20
231.780350
 30
0.0
 10
8.929939
 20
230.329810
 30
0.0
 10
8.923199
 20
229.199520
 30
0.0
  0
SPLINE
  5
10e
100
AcDbEntity
  8
Layer_1
 62
7
100
AcDbSpline
 70
8
 71
3
 72
8
 73
4
 74
0
 40
0
 40
0
 40
0
 40
0
 40
1
 40
1
 40
1
 40
1
 10
8.923199
 20
229.199520
 30
0.0
 10
8.917199
 20
228.069220
 30
0.0
 10
8.374379
 20
225.337610
 30
0.0
 10
7.718569
 20
223.129250
 30
0.0
  0
SPLINE
  5
10f
100
AcDbEntity
  8
Layer_1
 62
7
100
AcDbSpline
 70
8
 71
3
 72
8
 73
4
 74
0
 40
0
 40
0
 40
0
 40
0
 40
1
 40
1
 40
1
 40
1
 10
7.718569
 20
223.129250
 30
0.0
 10
7.062749
 20
220.920900
 30
0.0
 10
2.523309
 20
212.142640
 30
0.0
 10
-2.369081
 20
203.621990
 30
0.0
  0
SPLINE
  5
110
100
AcDbEntity
  8
Layer_1
 62
7
100
AcDbSpline
 70
8
 71
3
 72
8
 73
4
 74
0
 40
0
 40
0
 40
0
 40
0
 40
1
 40
1
 40
1
 40
1
 10
-2.369081
 20
203.621990
 30
0.0
 10
-7.261481
 20
195.101350
 30
0.0
 10
-11.443181
 20
187.663900
 30
0.0
 10
-11.661741
 20
187.094340
 30
0.0
  0
SPLINE
  5
111
100
AcDbEntity
  8
Layer_1
 62
7
100
AcDbSpline
 70
8
 71
3
 72
8
 73
4
 74
0
 40
0
 40
0
 40
0
 40
0
 40
1
 40
1
 40
1
 40
1
 10
-11.661741
 20
187.094340
 30
0.0
 10
-11.883011
 20
186.517710
 30
0.0
 10
-11.224211
 20
185.724350
 30
0.0
 10
-10.175261
 20
185.304210
 30
0.0
  0
SPLINE
  5
112
100
AcDbEntity
  8
Layer_1
 62
7
100
AcDbSpline
 70
8
 71
3
 72
8
 73
4
 74
0
 40
0
 40
0
 40
0
 40
0
 40
1
 40
1
 40
1
 40
1
 10
-10.175261
 20
185.304210
 30
0.0
 10
-9.139131
 20
184.889210
 30
0.0
 10
-7.865281
 20
184.526840
 30
0.0
 10
-7.344481
 20
184.498950
 30
0.0
  0
SPLINE
  5
113
100
AcDbEntity
  8
Layer_1
 62
7
100
AcDbSpline
 70
8
 71
3
 72
8
 73
4
 74
0
 40
0
 40
0
 40
0
 40
0
 40
1
 40
1
 40
1
 40
1
 10
-7.344481
 20
184.498950
 30
0.0
 10
-6.823681
 20
184.471050
 30
0.0
 10
-2.607141
 20
189.218880
 30
0.0
 10
2.025599
 20
195.049680
 30
0.0
  0
LWPOLYLINE
  5
114
100
AcDbEntity
  8
Layer_1
 62
7
100
AcDbPolyline
 90
3
 70
0
 10
12.033779
 20
232.124930
 30
0.0
 10
10.413469
 20
233.591290
 30
0.0
 10
9.674459
 20
232.422940
 30
0.0
  0
LWPOLYLINE
  5
115
100
AcDbEntity
  8
Layer_1
 62
7
100
AcDbPolyline
 90
1
 70
1
 10
2.025599
 20
195.049680
 30
0.0
  0
SPLINE
  5
116
100
AcDbEntity
  8
Layer_1
 62
7
100
AcDbSpline
 70
8
 71
3
 72
8
 73
4
 74
0
 40
0
 40
0
 40
0
 40
0
 40
1
 40
1
 40
1
 40
1
 10
-73.890830
 20
192.135440
 30
0.0
 10
-75.571610
 20
195.168470
 30
0.0
 10
-79.462610
 20
201.923390
 30
0.0
 10
-82.537500
 20
207.146380
 30
0.0
  0
SPLINE
  5
117
100
AcDbEntity
  8
Layer_1
 62
7
100
AcDbSpline
 70
8
 71
3
 72
8
 73
4
 74
0
 40
0
 40
0
 40
0
 40
0
 40
1
 40
1
 40
1
 40
1
 10
-82.537500
 20
207.146380
 30
0.0
 10
-85.612380
 20
212.369370
 30
0.0
 10
-88.803110
 20
218.418950
 30
0.0
 10
-89.628010
 20
220.589890
 30
0.0
  0
SPLINE
  5
118
100
AcDbEntity
  8
Layer_1
 62
7
100
AcDbSpline
 70
8
 71
3
 72
8
 73
4
 74
0
 40
0
 40
0
 40
0
 40
0
 40
1
 40
1
 40
1
 40
1
 10
-89.628010
 20
220.589890
 30
0.0
 10
-90.452900
 20
222.760830
 30
0.0
 10
-91.392860
 20
226.378770
 30
0.0
 10
-91.716810
 20
228.629760
 30
0.0
  0
SPLINE
  5
119
100
AcDbEntity
  8
Layer_1
 62
7
100
AcDbSpline
 70
8
 71
3
 72
8
 73
4
 74
0
 40
0
 40
0
 40
0
 40
0
 40
1
 40
1
 40
1
 40
1
 10
-91.716810
 20
228.629760
 30
0.0
 10
-92.040760
 20
230.880740
 30
0.0
 10
-92.734740
 20
232.865440
 30
0.0
 10
-93.258990
 20
233.040190
 30
0.0
  0
SPLINE
  5
11a
100
AcDbEntity
  8
Layer_1
 62
7
100
AcDbSpline
 70
8
 71
3
 72
8
 73
4
 74
0
 40
0
 40
0
 40
0
 40
0
 40
1
 40
1
 40
1
 40
1
 10
-93.258990
 20
233.040190
 30
0.0
 10
-93.783250
 20
233.214940
 30
0.0
 10
-95.222770
 20
231.830710
 30
0.0
 10
-96.457930
 20
229.964120
 30
0.0
  0
LWPOLYLINE
  5
11b
100
AcDbEntity
  8
Layer_1
 62
7
100
AcDbPolyline
 90
3
 70
0
 10
-72.320490
 20
185.534540
 30
0.0
 10
-70.834870
 20
186.620860
 30
0.0
 10
-73.890830
 20
192.135440
 30
0.0
  0
SPLINE
  5
11c
100
AcDbEntity
  8
Layer_1
 62
7
100
AcDbSpline
 70
8
 71
3
 72
8
 73
4
 74
0
 40
0
 40
0
 40
0
 40
0
 40
1
 40
1
 40
1
 40
1
 10
-95.659330
 20
210.693600
 30
0.0
 10
-94.048400
 20
207.480170
 30
0.0
 10
-89.033680
 20
200.261360
 30
0.0
 10
-84.515500
 20
194.651780
 30
0.0
  0
SPLINE
  5
11d
100
AcDbEntity
  8
Layer_1
 62
7
100
AcDbSpline
 70
8
 71
3
 72
8
 73
4
 74
0
 40
0
 40
0
 40
0
 40
0
 40
1
 40
1
 40
1
 40
1
 10
-84.515500
 20
194.651780
 30
0.0
 10
-79.997320
 20
189.042200
 30
0.0
 10
-75.739350
 20
184.451580
 30
0.0
 10
-75.053360
 20
184.450390
 30
0.0
  0
SPLINE
  5
11e
100
AcDbEntity
  8
Layer_1
 62
7
100
AcDbSpline
 70
8
 71
3
 72
8
 73
4
 74
0
 40
0
 40
0
 40
0
 40
0
 40
1
 40
1
 40
1
 40
1
 10
-75.053360
 20
184.450390
 30
0.0
 10
-74.367360
 20
184.449590
 30
0.0
 10
-73.137560
 20
184.937080
 30
0.0
 10
-72.320470
 20
185.534540
 30
0.0
  0
LWPOLYLINE
  5
11f
100
AcDbEntity
  8
Layer_1
 62
7
100
AcDbPolyline
 90
5
 70
0
 10
-96.457930
 20
229.964120
 30
0.0
 10
-98.703680
 20
226.570320
 30
0.0
 10
-98.645980
 20
221.553250
 30
0.0
 10
-98.588280
 20
216.536180
 30
0.0
 10
-95.659330
 20
210.693600
 30
0.0
  0
SPLINE
  5
120
100
AcDbEntity
  8
Layer_1
 62
7
100
AcDbSpline
 70
8
 71
3
 72
8
 73
4
 74
0
 40
0
 40
0
 40
0
 40
0
 40
1
 40
1
 40
1
 40
1
 10
-27.848991
 20
185.448340
 30
0.0
 10
-27.176401
 20
187.647900
 30
0.0
 10
-26.647541
 20
196.054220
 30
0.0
 10
-26.351481
 20
209.251580
 30
0.0
  0
LWPOLYLINE
  5
121
100
AcDbEntity
  8
Layer_1
 62
7
100
AcDbPolyline
 90
1
 70
1
 10
-72.320470
 20
185.534540
 30
0.0
  0
SPLINE
  5
122
100
AcDbEntity
  8
Layer_1
 62
7
100
AcDbSpline
 70
8
 71
3
 72
8
 73
4
 74
0
 40
0
 40
0
 40
0
 40
0
 40
1
 40
1
 40
1
 40
1
 10
-23.093401
 20
216.917790
 30
0.0
 10
-22.835161
 20
208.696110
 30
0.0
 10
-22.381261
 20
204.077740
 30
0.0
 10
-21.812921
 20
203.889260
 30
0.0
  0
SPLINE
  5
123
100
AcDbEntity
  8
Layer_1
 62
7
100
AcDbSpline
 70
8
 71
3
 72
8
 73
4
 74
0
 40
0
 40
0
 40
0
 40
0
 40
1
 40
1
 40
1
 40
1
 10
-21.812921
 20
203.889260
 30
0.0
 10
-21.328691
 20
203.728660
 30
0.0
 10
-19.787091
 20
206.224310
 30
0.0
 10
-18.387141
 20
209.435140
 30
0.0
  0
LWPOLYLINE
  5
124
100
AcDbEntity
  8
Layer_1
 62
7
100
AcDbPolyline
 90
5
 70
0
 10
-26.351481
 20
209.251580
 30
0.0
 10
-25.893781
 20
229.654350
 30
0.0
 10
-24.693621
 20
229.654350
 30
0.0
 10
-23.493461
 20
229.654350
 30
0.0
 10
-23.093401
 20
216.917790
 30
0.0
  0
SPLINE
  5
125
100
AcDbEntity
  8
Layer_1
 62
7
100
AcDbSpline
 70
8
 71
3
 72
8
 73
4
 74
0
 40
0
 40
0
 40
0
 40
0
 40
1
 40
1
 40
1
 40
1
 10
-64.497420
 20
209.352870
 30
0.0
 10
-63.068110
 20
206.108140
 30
0.0
 10
-61.538630
 20
203.496380
 30
0.0
 10
-61.098570
 20
203.548960
 30
0.0
  0
SPLINE
  5
126
100
AcDbEntity
  8
Layer_1
 62
7
100
AcDbSpline
 70
8
 71
3
 72
8
 73
4
 74
0
 40
0
 40
0
 40
0
 40
0
 40
1
 40
1
 40
1
 40
1
 10
-61.098570
 20
203.548960
 30
0.0
 10
-60.620470
 20
203.606060
 30
0.0
 10
-60.137450
 20
208.878560
 30
0.0
 10
-59.898410
 20
216.649460
 30
0.0
  0
LWPOLYLINE
  5
127
100
AcDbEntity
  8
Layer_1
 62
7
100
AcDbPolyline
 90
9
 70
0
 10
-18.387141
 20
209.435140
 30
0.0
 10
-15.841781
 20
215.273020
 30
0.0
 10
-16.067131
 20
225.664120
 30
0.0
 10
-16.292481
 20
236.055220
 30
0.0
 10
-41.495901
 20
236.055220
 30
0.0
 10
-66.699330
 20
236.055220
 30
0.0
 10
-66.897750
 20
225.653800
 30
0.0
 10
-67.096170
 20
215.252390
 30
0.0
 10
-64.497420
 20
209.352870
 30
0.0
  0
SPLINE
  5
128
100
AcDbEntity
  8
Layer_1
 62
7
100
AcDbSpline
 70
8
 71
3
 72
8
 73
4
 74
0
 40
0
 40
0
 40
0
 40
0
 40
1
 40
1
 40
1
 40
1
 10
-53.552071
 20
205.073780
 30
0.0
 10
-52.041861
 20
205.196320
 30
0.0
 10
-50.341291
 20
205.682450
 30
0.0
 10
-49.773041
 20
206.154060
 30
0.0
  0
SPLINE
  5
129
100
AcDbEntity
  8
Layer_1
 62
7
100
AcDbSpline
 70
8
 71
3
 72
8
 73
4
 74
0
 40
0
 40
0
 40
0
 40
0
 40
1
 40
1
 40
1
 40
1
 10
-49.773041
 20
206.154060
 30
0.0
 10
-49.038811
 20
206.763410
 30
0.0
 10
-48.675741
 20
210.287540
 30
0.0
 10
-48.518341
 20
218.332940
 30
0.0
  0
LWPOLYLINE
  5
12a
100
AcDbEntity
  8
Layer_1
 62
7
100
AcDbPolyline
 90
7
 70
0
 10
-59.898410
 20
216.649460
 30
0.0
 10
-59.498350
 20
229.654350
 30
0.0
 10
-58.298190
 20
229.654350
 30
0.0
 10
-57.098020
 20
229.654350
 30
0.0
 10
-56.697970
 20
217.252660
 30
0.0
 10
-56.297920
 20
204.850980
 30
0.0
 10
-53.552071
 20
205.073780
 30
0.0
  0
SPLINE
  5
12b
100
AcDbEntity
  8
Layer_1
 62
7
100
AcDbSpline
 70
8
 71
3
 72
8
 73
4
 74
0
 40
0
 40
0
 40
0
 40
0
 40
1
 40
1
 40
1
 40
1
 10
-45.675431
 20
216.909230
 30
0.0
 10
-45.536061
 20
208.874290
 30
0.0
 10
-45.117831
 20
203.758620
 30
0.0
 10
-44.543751
 20
203.066900
 30
0.0
  0
SPLINE
  5
12c
100
AcDbEntity
  8
Layer_1
 62
7
100
AcDbSpline
 70
8
 71
3
 72
8
 73
4
 74
0
 40
0
 40
0
 40
0
 40
0
 40
1
 40
1
 40
1
 40
1
 10
-44.543751
 20
203.066900
 30
0.0
 10
-43.998481
 20
202.409880
 30
0.0
 10
-42.482171
 20
202.066170
 30
0.0
 10
-40.764281
 20
202.210170
 30
0.0
  0
LWPOLYLINE
  5
12d
100
AcDbEntity
  8
Layer_1
 62
7
100
AcDbPolyline
 90
5
 70
0
 10
-48.518341
 20
218.332940
 30
0.0
 10
-48.296831
 20
229.654350
 30
0.0
 10
-47.096671
 20
229.654350
 30
0.0
 10
-45.896501
 20
229.654350
 30
0.0
 10
-45.675431
 20
216.909230
 30
0.0
  0
SPLINE
  5
12e
100
AcDbEntity
  8
Layer_1
 62
7
100
AcDbSpline
 70
8
 71
3
 72
8
 73
4
 74
0
 40
0
 40
0
 40
0
 40
0
 40
1
 40
1
 40
1
 40
1
 10
-32.082571
 20
192.920400
 30
0.0
 10
-30.805321
 20
190.151050
 30
0.0
 10
-30.415351
 20
188.217530
 30
0.0
 10
-30.761681
 20
186.371420
 30
0.0
  0
SPLINE
  5
12f
100
AcDbEntity
  8
Layer_1
 62
7
100
AcDbSpline
 70
8
 71
3
 72
8
 73
4
 74
0
 40
0
 40
0
 40
0
 40
0
 40
1
 40
1
 40
1
 40
1
 10
-30.761681
 20
186.371420
 30
0.0
 10
-31.031961
 20
184.930700
 30
0.0
 10
-31.016141
 20
183.368510
 30
0.0
 10
-30.726581
 20
182.899900
 30
0.0
  0
SPLINE
  5
130
100
AcDbEntity
  8
Layer_1
 62
7
100
AcDbSpline
 70
8
 71
3
 72
8
 73
4
 74
0
 40
0
 40
0
 40
0
 40
0
 40
1
 40
1
 40
1
 40
1
 10
-30.726581
 20
182.899900
 30
0.0
 10
-30.436961
 20
182.431290
 30
0.0
 10
-29.905001
 20
182.047880
 30
0.0
 10
-29.544431
 20
182.047880
 30
0.0
  0
SPLINE
  5
131
100
AcDbEntity
  8
Layer_1
 62
7
100
AcDbSpline
 70
8
 71
3
 72
8
 73
4
 74
0
 40
0
 40
0
 40
0
 40
0
 40
1
 40
1
 40
1
 40
1
 10
-29.544431
 20
182.047880
 30
0.0
 10
-29.183871
 20
182.047880
 30
0.0
 10
-28.420951
 20
183.578090
 30
0.0
 10
-27.849051
 20
185.448340
 30
0.0
  0
LWPOLYLINE
  5
132
100
AcDbEntity
  8
Layer_1
 62
7
100
AcDbPolyline
 90
9
 70
0
 10
-40.764281
 20
202.210170
 30
0.0
 10
-37.895411
 20
202.450650
 30
0.0
 10
-37.495361
 20
216.052500
 30
0.0
 10
-37.095311
 20
229.654350
 30
0.0
 10
-35.895141
 20
229.654350
 30
0.0
 10
-34.694981
 20
229.654350
 30
0.0
 10
-34.294921
 20
213.252120
 30
0.0
 10
-33.894871
 20
196.849890
 30
0.0
 10
-32.082571
 20
192.920400
 30
0.0
  0
SPLINE
  5
133
100
AcDbEntity
  8
Layer_1
 62
7
100
AcDbSpline
 70
8
 71
3
 72
8
 73
4
 74
0
 40
0
 40
0
 40
0
 40
0
 40
1
 40
1
 40
1
 40
1
 10
-51.779631
 20
183.186810
 30
0.0
 10
-51.288871
 20
184.263920
 30
0.0
 10
-51.130011
 20
186.372500
 30
0.0
 10
-51.422281
 20
187.930370
 30
0.0
  0
SPLINE
  5
134
100
AcDbEntity
  8
Layer_1
 62
7
100
AcDbSpline
 70
8
 71
3
 72
8
 73
4
 74
0
 40
0
 40
0
 40
0
 40
0
 40
1
 40
1
 40
1
 40
1
 10
-51.422281
 20
187.930370
 30
0.0
 10
-51.711641
 20
189.472850
 30
0.0
 10
-52.631451
 20
191.570690
 30
0.0
 10
-53.466281
 20
192.592230
 30
0.0
  0
SPLINE
  5
135
100
AcDbEntity
  8
Layer_1
 62
7
100
AcDbSpline
 70
8
 71
3
 72
8
 73
4
 74
0
 40
0
 40
0
 40
0
 40
0
 40
1
 40
1
 40
1
 40
1
 10
-53.466281
 20
192.592230
 30
0.0
 10
-54.619091
 20
194.002840
 30
0.0
 10
-55.210660
 20
194.227110
 30
0.0
 10
-55.925860
 20
193.524660
 30
0.0
  0
SPLINE
  5
136
100
AcDbEntity
  8
Layer_1
 62
7
100
AcDbSpline
 70
8
 71
3
 72
8
 73
4
 74
0
 40
0
 40
0
 40
0
 40
0
 40
1
 40
1
 40
1
 40
1
 10
-55.925860
 20
193.524660
 30
0.0
 10
-56.647350
 20
192.816030
 30
0.0
 10
-56.525640
 20
191.272490
 30
0.0
 10
-55.405390
 20
186.923760
 30
0.0
  0
SPLINE
  5
137
100
AcDbEntity
  8
Layer_1
 62
7
100
AcDbSpline
 70
8
 71
3
 72
8
 73
4
 74
0
 40
0
 40
0
 40
0
 40
0
 40
1
 40
1
 40
1
 40
1
 10
-55.405390
 20
186.923760
 30
0.0
 10
-54.601191
 20
183.801960
 30
0.0
 10
-53.655201
 20
181.247770
 30
0.0
 10
-53.303161
 20
181.247770
 30
0.0
  0
SPLINE
  5
138
100
AcDbEntity
  8
Layer_1
 62
7
100
AcDbSpline
 70
8
 71
3
 72
8
 73
4
 74
0
 40
0
 40
0
 40
0
 40
0
 40
1
 40
1
 40
1
 40
1
 10
-53.303161
 20
181.247770
 30
0.0
 10
-52.951141
 20
181.247770
 30
0.0
 10
-52.265551
 20
182.120330
 30
0.0
 10
-51.779631
 20
183.186810
 30
0.0
  0
LWPOLYLINE
  5
139
100
AcDbEntity
  8
Layer_1
 62
7
100
AcDbPolyline
 90
1
 70
1
 10
-27.849051
 20
185.448340
 30
0.0
  0
SPLINE
  5
13a
100
AcDbEntity
  8
Layer_1
 62
7
100
AcDbSpline
 70
8
 71
3
 72
8
 73
4
 74
0
 40
0
 40
0
 40
0
 40
0
 40
1
 40
1
 40
1
 40
1
 10
6.567429
 20
182.087550
 30
0.0
 10
10.276699
 20
185.189790
 30
0.0
 10
14.153059
 20
188.700270
 30
0.0
 10
15.181569
 20
189.888620
 30
0.0
  0
SPLINE
  5
13b
100
AcDbEntity
  8
Layer_1
 62
7
100
AcDbSpline
 70
8
 71
3
 72
8
 73
4
 74
0
 40
0
 40
0
 40
0
 40
0
 40
1
 40
1
 40
1
 40
1
 10
15.181569
 20
189.888620
 30
0.0
 10
16.210088
 20
191.076950
 30
0.0
 10
17.732378
 20
193.489430
 30
0.0
 10
18.564458
 20
195.249670
 30
0.0
  0
SPLINE
  5
13c
100
AcDbEntity
  8
Layer_1
 62
7
100
AcDbSpline
 70
8
 71
3
 72
8
 73
4
 74
0
 40
0
 40
0
 40
0
 40
0
 40
1
 40
1
 40
1
 40
1
 10
18.564458
 20
195.249670
 30
0.0
 10
19.521428
 20
197.274130
 30
0.0
 10
20.079278
 20
200.214080
 30
0.0
 10
20.082648
 20
203.250760
 30
0.0
  0
SPLINE
  5
13d
100
AcDbEntity
  8
Layer_1
 62
7
100
AcDbSpline
 70
8
 71
3
 72
8
 73
4
 74
0
 40
0
 40
0
 40
0
 40
0
 40
1
 40
1
 40
1
 40
1
 10
20.082648
 20
203.250760
 30
0.0
 10
20.085648
 20
205.891120
 30
0.0
 10
19.753008
 20
208.581060
 30
0.0
 10
19.343618
 20
209.228410
 30
0.0
  0
SPLINE
  5
13e
100
AcDbEntity
  8
Layer_1
 62
7
100
AcDbSpline
 70
8
 71
3
 72
8
 73
4
 74
0
 40
0
 40
0
 40
0
 40
0
 40
1
 40
1
 40
1
 40
1
 10
19.343618
 20
209.228410
 30
0.0
 10
18.934218
 20
209.875750
 30
0.0
 10
18.437338
 20
210.235800
 30
0.0
 10
18.239428
 20
210.028510
 30
0.0
  0
SPLINE
  5
13f
100
AcDbEntity
  8
Layer_1
 62
7
100
AcDbSpline
 70
8
 71
3
 72
8
 73
4
 74
0
 40
0
 40
0
 40
0
 40
0
 40
1
 40
1
 40
1
 40
1
 10
18.239428
 20
210.028510
 30
0.0
 10
18.041528
 20
209.821230
 30
0.0
 10
15.617109
 20
206.591220
 30
0.0
 10
12.851839
 20
202.850710
 30
0.0
  0
SPLINE
  5
140
100
AcDbEntity
  8
Layer_1
 62
7
100
AcDbSpline
 70
8
 71
3
 72
8
 73
4
 74
0
 40
0
 40
0
 40
0
 40
0
 40
1
 40
1
 40
1
 40
1
 10
12.851839
 20
202.850710
 30
0.0
 10
10.086569
 20
199.110200
 30
0.0
 10
4.648149
 20
192.211650
 30
0.0
 10
0.766479
 20
187.520600
 30
0.0
  0
SPLINE
  5
141
100
AcDbEntity
  8
Layer_1
 62
7
100
AcDbSpline
 70
8
 71
3
 72
8
 73
4
 74
0
 40
0
 40
0
 40
0
 40
0
 40
1
 40
1
 40
1
 40
1
 10
0.766479
 20
187.520600
 30
0.0
 10
-3.115201
 20
182.829550
 30
0.0
 10
-6.291121
 20
178.767400
 30
0.0
 10
-6.291121
 20
178.493590
 30
0.0
  0
SPLINE
  5
142
100
AcDbEntity
  8
Layer_1
 62
7
100
AcDbSpline
 70
8
 71
3
 72
8
 73
4
 74
0
 40
0
 40
0
 40
0
 40
0
 40
1
 40
1
 40
1
 40
1
 10
-6.291121
 20
178.493590
 30
0.0
 10
-6.291121
 20
178.219790
 30
0.0
 10
-5.481011
 20
177.670150
 30
0.0
 10
-4.490871
 20
177.272160
 30
0.0
  0
SPLINE
  5
143
100
AcDbEntity
  8
Layer_1
 62
7
100
AcDbSpline
 70
8
 71
3
 72
8
 73
4
 74
0
 40
0
 40
0
 40
0
 40
0
 40
1
 40
1
 40
1
 40
1
 10
-4.490871
 20
177.272160
 30
0.0
 10
-3.500741
 20
176.874170
 30
0.0
 10
-2.124991
 20
176.525730
 30
0.0
 10
-1.433661
 20
176.497830
 30
0.0
  0
SPLINE
  5
144
100
AcDbEntity
  8
Layer_1
 62
7
100
AcDbSpline
 70
8
 71
3
 72
8
 73
4
 74
0
 40
0
 40
0
 40
0
 40
0
 40
1
 40
1
 40
1
 40
1
 10
-1.433661
 20
176.497830
 30
0.0
 10
-0.742331
 20
176.469930
 30
0.0
 10
2.858159
 20
178.985310
 30
0.0
 10
6.567429
 20
182.087550
 30
0.0
  0
LWPOLYLINE
  5
145
100
AcDbEntity
  8
Layer_1
 62
7
100
AcDbPolyline
 90
1
 70
1
 10
-51.779631
 20
183.186810
 30
0.0
  0
SPLINE
  5
146
100
AcDbEntity
  8
Layer_1
 62
7
100
AcDbSpline
 70
8
 71
3
 72
8
 73
4
 74
0
 40
0
 40
0
 40
0
 40
0
 40
1
 40
1
 40
1
 40
1
 10
-77.883950
 20
177.560700
 30
0.0
 10
-76.751090
 20
178.389070
 30
0.0
 10
-76.578550
 20
178.952610
 30
0.0
 10
-77.210290
 20
179.761000
 30
0.0
  0
SPLINE
  5
147
100
AcDbEntity
  8
Layer_1
 62
7
100
AcDbSpline
 70
8
 71
3
 72
8
 73
4
 74
0
 40
0
 40
0
 40
0
 40
0
 40
1
 40
1
 40
1
 40
1
 10
-77.210290
 20
179.761000
 30
0.0
 10
-77.677380
 20
180.358690
 30
0.0
 10
-81.522020
 20
185.086560
 30
0.0
 10
-85.753950
 20
190.267370
 30
0.0
  0
SPLINE
  5
148
100
AcDbEntity
  8
Layer_1
 62
7
100
AcDbSpline
 70
8
 71
3
 72
8
 73
4
 74
0
 40
0
 40
0
 40
0
 40
0
 40
1
 40
1
 40
1
 40
1
 10
-85.753950
 20
190.267370
 30
0.0
 10
-89.985870
 20
195.448180
 30
0.0
 10
-95.112470
 20
202.019080
 30
0.0
 10
-97.146390
 20
204.869360
 30
0.0
  0
SPLINE
  5
149
100
AcDbEntity
  8
Layer_1
 62
7
100
AcDbSpline
 70
8
 71
3
 72
8
 73
4
 74
0
 40
0
 40
0
 40
0
 40
0
 40
1
 40
1
 40
1
 40
1
 10
-97.146390
 20
204.869360
 30
0.0
 10
-99.180300
 20
207.719640
 30
0.0
 10
-101.134340
 20
210.051690
 30
0.0
 10
-101.488690
 20
210.051690
 30
0.0
  0
SPLINE
  5
14a
100
AcDbEntity
  8
Layer_1
 62
7
100
AcDbSpline
 70
8
 71
3
 72
8
 73
4
 74
0
 40
0
 40
0
 40
0
 40
0
 40
1
 40
1
 40
1
 40
1
 10
-101.488690
 20
210.051690
 30
0.0
 10
-101.843040
 20
210.051690
 30
0.0
 10
-102.351510
 20
209.482170
 30
0.0
 10
-102.618620
 20
208.786080
 30
0.0
  0
SPLINE
  5
14b
100
AcDbEntity
  8
Layer_1
 62
7
100
AcDbSpline
 70
8
 71
3
 72
8
 73
4
 74
0
 40
0
 40
0
 40
0
 40
0
 40
1
 40
1
 40
1
 40
1
 10
-102.618620
 20
208.786080
 30
0.0
 10
-102.885730
 20
208.090000
 30
0.0
 10
-103.100760
 20
205.659670
 30
0.0
 10
-103.096460
 20
203.385350
 30
0.0
  0
SPLINE
  5
14c
100
AcDbEntity
  8
Layer_1
 62
7
100
AcDbSpline
 70
8
 71
3
 72
8
 73
4
 74
0
 40
0
 40
0
 40
0
 40
0
 40
1
 40
1
 40
1
 40
1
 10
-103.096460
 20
203.385350
 30
0.0
 10
-103.091460
 20
200.701330
 30
0.0
 10
-102.421490
 20
197.846330
 30
0.0
 10
-101.187510
 20
195.249670
 30
0.0
  0
SPLINE
  5
14d
100
AcDbEntity
  8
Layer_1
 62
7
100
AcDbSpline
 70
8
 71
3
 72
8
 73
4
 74
0
 40
0
 40
0
 40
0
 40
0
 40
1
 40
1
 40
1
 40
1
 10
-101.187510
 20
195.249670
 30
0.0
 10
-100.141880
 20
193.049370
 30
0.0
 10
-97.355020
 20
189.420030
 30
0.0
 10
-94.994480
 20
187.184470
 30
0.0
  0
SPLINE
  5
14e
100
AcDbEntity
  8
Layer_1
 62
7
100
AcDbSpline
 70
8
 71
3
 72
8
 73
4
 74
0
 40
0
 40
0
 40
0
 40
0
 40
1
 40
1
 40
1
 40
1
 10
-94.994480
 20
187.184470
 30
0.0
 10
-92.633940
 20
184.948920
 30
0.0
 10
-88.902350
 20
181.620790
 30
0.0
 10
-86.702050
 20
179.788630
 30
0.0
  0
SPLINE
  5
14f
100
AcDbEntity
  8
Layer_1
 62
7
100
AcDbSpline
 70
8
 71
3
 72
8
 73
4
 74
0
 40
0
 40
0
 40
0
 40
0
 40
1
 40
1
 40
1
 40
1
 10
-86.702050
 20
179.788630
 30
0.0
 10
-84.501750
 20
177.956480
 30
0.0
 10
-81.960210
 20
176.455120
 30
0.0
 10
-81.054190
 20
176.452280
 30
0.0
  0
SPLINE
  5
150
100
AcDbEntity
  8
Layer_1
 62
7
100
AcDbSpline
 70
8
 71
3
 72
8
 73
4
 74
0
 40
0
 40
0
 40
0
 40
0
 40
1
 40
1
 40
1
 40
1
 10
-81.054190
 20
176.452280
 30
0.0
 10
-80.148160
 20
176.449280
 30
0.0
 10
-78.721560
 20
176.948220
 30
0.0
 10
-77.883950
 20
177.560700
 30
0.0
  0
LWPOLYLINE
  5
151
100
AcDbEntity
  8
Layer_1
 62
7
100
AcDbPolyline
 90
1
 70
1
 10
6.567429
 20
182.087550
 30
0.0
  0
SPLINE
  5
152
100
AcDbEntity
  8
Layer_1
 62
7
100
AcDbSpline
 70
8
 71
3
 72
8
 73
4
 74
0
 40
0
 40
0
 40
0
 40
0
 40
1
 40
1
 40
1
 40
1
 10
-43.134641
 20
173.408310
 30
0.0
 10
-41.914151
 20
174.170520
 30
0.0
 10
-41.159181
 20
174.136980
 30
0.0
 10
-39.495631
 20
173.246680
 30
0.0
  0
SPLINE
  5
153
100
AcDbEntity
  8
Layer_1
 62
7
100
AcDbSpline
 70
8
 71
3
 72
8
 73
4
 74
0
 40
0
 40
0
 40
0
 40
0
 40
1
 40
1
 40
1
 40
1
 10
-39.495631
 20
173.246680
 30
0.0
 10
-37.832091
 20
172.356370
 30
0.0
 10
-37.077111
 20
172.322840
 30
0.0
 10
-35.856621
 20
173.085050
 30
0.0
  0
SPLINE
  5
154
100
AcDbEntity
  8
Layer_1
 62
7
100
AcDbSpline
 70
8
 71
3
 72
8
 73
4
 74
0
 40
0
 40
0
 40
0
 40
0
 40
1
 40
1
 40
1
 40
1
 10
-35.856621
 20
173.085050
 30
0.0
 10
-35.009631
 20
173.614010
 30
0.0
 10
-33.591651
 20
174.046790
 30
0.0
 10
-32.705561
 20
174.046790
 30
0.0
  0
SPLINE
  5
155
100
AcDbEntity
  8
Layer_1
 62
7
100
AcDbSpline
 70
8
 71
3
 72
8
 73
4
 74
0
 40
0
 40
0
 40
0
 40
0
 40
1
 40
1
 40
1
 40
1
 10
-32.705561
 20
174.046790
 30
0.0
 10
-31.819481
 20
174.046790
 30
0.0
 10
-31.094491
 20
174.543350
 30
0.0
 10
-31.094491
 20
175.150270
 30
0.0
  0
SPLINE
  5
156
100
AcDbEntity
  8
Layer_1
 62
7
100
AcDbSpline
 70
8
 71
3
 72
8
 73
4
 74
0
 40
0
 40
0
 40
0
 40
0
 40
1
 40
1
 40
1
 40
1
 10
-31.094491
 20
175.150270
 30
0.0
 10
-31.094491
 20
175.757170
 30
0.0
 10
-32.049801
 20
178.340420
 30
0.0
 10
-33.217411
 20
180.890820
 30
0.0
  0
LWPOLYLINE
  5
157
100
AcDbEntity
  8
Layer_1
 62
7
100
AcDbPolyline
 90
1
 70
1
 10
-77.883950
 20
177.560700
 30
0.0
  0
SPLINE
  5
158
100
AcDbEntity
  8
Layer_1
 62
7
100
AcDbSpline
 70
8
 71
3
 72
8
 73
4
 74
0
 40
0
 40
0
 40
0
 40
0
 40
1
 40
1
 40
1
 40
1
 10
-35.591821
 20
194.085350
 30
0.0
 10
-36.722531
 20
196.162830
 30
0.0
 10
-38.477581
 20
198.240720
 30
0.0
 10
-39.491951
 20
198.702900
 30
0.0
  0
SPLINE
  5
159
100
AcDbEntity
  8
Layer_1
 62
7
100
AcDbSpline
 70
8
 71
3
 72
8
 73
4
 74
0
 40
0
 40
0
 40
0
 40
0
 40
1
 40
1
 40
1
 40
1
 10
-39.491951
 20
198.702900
 30
0.0
 10
-40.506311
 20
199.165080
 30
0.0
 10
-41.552201
 20
199.327280
 30
0.0
 10
-41.816131
 20
199.063340
 30
0.0
  0
SPLINE
  5
15a
100
AcDbEntity
  8
Layer_1
 62
7
100
AcDbSpline
 70
8
 71
3
 72
8
 73
4
 74
0
 40
0
 40
0
 40
0
 40
0
 40
1
 40
1
 40
1
 40
1
 10
-41.816131
 20
199.063340
 30
0.0
 10
-42.080061
 20
198.799410
 30
0.0
 10
-42.296011
 20
197.863460
 30
0.0
 10
-42.296011
 20
196.983460
 30
0.0
  0
LWPOLYLINE
  5
15b
100
AcDbEntity
  8
Layer_1
 62
7
100
AcDbPolyline
 90
5
 70
0
 10
-33.217411
 20
180.890820
 30
0.0
 10
-35.340331
 20
185.527890
 30
0.0
 10
-34.438171
 20
187.918000
 30
0.0
 10
-33.536001
 20
190.308130
 30
0.0
 10
-35.591821
 20
194.085350
 30
0.0
  0
SPLINE
  5
15c
100
AcDbEntity
  8
Layer_1
 62
7
100
AcDbSpline
 70
8
 71
3
 72
8
 73
4
 74
0
 40
0
 40
0
 40
0
 40
0
 40
1
 40
1
 40
1
 40
1
 10
-45.373541
 20
198.717030
 30
0.0
 10
-47.450241
 20
200.966500
 30
0.0
 10
-49.120261
 20
202.050600
 30
0.0
 10
-50.508811
 20
202.050600
 30
0.0
  0
SPLINE
  5
15d
100
AcDbEntity
  8
Layer_1
 62
7
100
AcDbSpline
 70
8
 71
3
 72
8
 73
4
 74
0
 40
0
 40
0
 40
0
 40
0
 40
1
 40
1
 40
1
 40
1
 10
-50.508811
 20
202.050600
 30
0.0
 10
-51.640561
 20
202.050600
 30
0.0
 10
-53.146071
 20
201.828210
 30
0.0
 10
-53.854381
 20
201.556410
 30
0.0
  0
SPLINE
  5
15e
100
AcDbEntity
  8
Layer_1
 62
7
100
AcDbSpline
 70
8
 71
3
 72
8
 73
4
 74
0
 40
0
 40
0
 40
0
 40
0
 40
1
 40
1
 40
1
 40
1
 10
-53.854381
 20
201.556410
 30
0.0
 10
-54.562681
 20
201.284610
 30
0.0
 10
-55.487410
 20
200.417200
 30
0.0
 10
-55.909340
 20
199.628830
 30
0.0
  0
LWPOLYLINE
  5
15f
100
AcDbEntity
  8
Layer_1
 62
7
100
AcDbPolyline
 90
3
 70
0
 10
-42.296011
 20
196.983460
 30
0.0
 10
-42.296011
 20
195.383470
 30
0.0
 10
-45.373541
 20
198.717030
 30
0.0
  0
SPLINE
  5
160
100
AcDbEntity
  8
Layer_1
 62
7
100
AcDbSpline
 70
8
 71
3
 72
8
 73
4
 74
0
 40
0
 40
0
 40
0
 40
0
 40
1
 40
1
 40
1
 40
1
 10
-53.842111
 20
196.523120
 30
0.0
 10
-52.007801
 20
195.440850
 30
0.0
 10
-50.446011
 20
193.580900
 30
0.0
 10
-49.415651
 20
191.251600
 30
0.0
  0
SPLINE
  5
161
100
AcDbEntity
  8
Layer_1
 62
7
100
AcDbSpline
 70
8
 71
3
 72
8
 73
4
 74
0
 40
0
 40
0
 40
0
 40
0
 40
1
 40
1
 40
1
 40
1
 10
-49.415651
 20
191.251600
 30
0.0
 10
-48.248441
 20
188.612910
 30
0.0
 10
-47.972321
 20
186.851190
 30
0.0
 10
-48.381011
 20
184.650110
 30
0.0
  0
SPLINE
  5
162
100
AcDbEntity
  8
Layer_1
 62
7
100
AcDbSpline
 70
8
 71
3
 72
8
 73
4
 74
0
 40
0
 40
0
 40
0
 40
0
 40
1
 40
1
 40
1
 40
1
 10
-48.381011
 20
184.650110
 30
0.0
 10
-48.687601
 20
182.998850
 30
0.0
 10
-49.597371
 20
180.103690
 30
0.0
 10
-50.402711
 20
178.216430
 30
0.0
  0
LWPOLYLINE
  5
163
100
AcDbEntity
  8
Layer_1
 62
7
100
AcDbPolyline
 90
3
 70
0
 10
-55.909340
 20
199.628830
 30
0.0
 10
-56.676470
 20
198.195430
 30
0.0
 10
-53.842111
 20
196.523120
 30
0.0
  0
SPLINE
  5
164
100
AcDbEntity
  8
Layer_1
 62
7
100
AcDbSpline
 70
8
 71
3
 72
8
 73
4
 74
0
 40
0
 40
0
 40
0
 40
0
 40
1
 40
1
 40
1
 40
1
 10
-50.481961
 20
174.349080
 30
0.0
 10
-49.720201
 20
174.109300
 30
0.0
 10
-48.376841
 20
173.607520
 30
0.0
 10
-47.496721
 20
173.234000
 30
0.0
  0
SPLINE
  5
165
100
AcDbEntity
  8
Layer_1
 62
7
100
AcDbSpline
 70
8
 71
3
 72
8
 73
4
 74
0
 40
0
 40
0
 40
0
 40
0
 40
1
 40
1
 40
1
 40
1
 10
-47.496721
 20
173.234000
 30
0.0
 10
-46.616601
 20
172.860480
 30
0.0
 10
-45.621581
 20
172.530500
 30
0.0
 10
-45.285561
 20
172.500720
 30
0.0
  0
SPLINE
  5
166
100
AcDbEntity
  8
Layer_1
 62
7
100
AcDbSpline
 70
8
 71
3
 72
8
 73
4
 74
0
 40
0
 40
0
 40
0
 40
0
 40
1
 40
1
 40
1
 40
1
 10
-45.285561
 20
172.500720
 30
0.0
 10
-44.949551
 20
172.470920
 30
0.0
 10
-43.981631
 20
172.879350
 30
0.0
 10
-43.134641
 20
173.408310
 30
0.0
  0
LWPOLYLINE
  5
167
100
AcDbEntity
  8
Layer_1
 62
7
100
AcDbPolyline
 90
3
 70
0
 10
-50.402711
 20
178.216430
 30
0.0
 10
-51.866971
 20
174.785030
 30
0.0
 10
-50.481961
 20
174.349080
 30
0.0
  0
SPLINE
  5
168
100
AcDbEntity
  8
Layer_1
 62
7
100
AcDbSpline
 70
8
 71
3
 72
8
 73
4
 74
0
 40
0
 40
0
 40
0
 40
0
 40
1
 40
1
 40
1
 40
1
 10
-21.495261
 20
175.647010
 30
0.0
 10
-20.546941
 20
178.507400
 30
0.0
 10
-18.955971
 20
182.287910
 30
0.0
 10
-17.959791
 20
184.048150
 30
0.0
  0
SPLINE
  5
169
100
AcDbEntity
  8
Layer_1
 62
7
100
AcDbSpline
 70
8
 71
3
 72
8
 73
4
 74
0
 40
0
 40
0
 40
0
 40
0
 40
1
 40
1
 40
1
 40
1
 10
-17.959791
 20
184.048150
 30
0.0
 10
-16.963621
 20
185.808390
 30
0.0
 10
-13.321121
 20
192.091190
 30
0.0
 10
-9.865361
 20
198.009940
 30
0.0
  0
SPLINE
  5
16a
100
AcDbEntity
  8
Layer_1
 62
7
100
AcDbSpline
 70
8
 71
3
 72
8
 73
4
 74
0
 40
0
 40
0
 40
0
 40
0
 40
1
 40
1
 40
1
 40
1
 10
-9.865361
 20
198.009940
 30
0.0
 10
-6.409611
 20
203.928680
 30
0.0
 10
-2.760031
 20
210.769610
 30
0.0
 10
-1.755201
 20
213.212010
 30
0.0
  0
SPLINE
  5
16b
100
AcDbEntity
  8
Layer_1
 62
7
100
AcDbSpline
 70
8
 71
3
 72
8
 73
4
 74
0
 40
0
 40
0
 40
0
 40
0
 40
1
 40
1
 40
1
 40
1
 10
-1.755201
 20
213.212010
 30
0.0
 10
-0.497751
 20
216.268390
 30
0.0
 10
0.077689
 20
219.299420
 30
0.0
 10
0.090759
 20
222.935130
 30
0.0
  0
SPLINE
  5
16c
100
AcDbEntity
  8
Layer_1
 62
7
100
AcDbSpline
 70
8
 71
3
 72
8
 73
4
 74
0
 40
0
 40
0
 40
0
 40
0
 40
1
 40
1
 40
1
 40
1
 10
0.090759
 20
222.935130
 30
0.0
 10
0.105859
 20
227.136180
 30
0.0
 10
-0.265301
 20
228.774080
 30
0.0
 10
-1.722361
 20
230.936220
 30
0.0
  0
SPLINE
  5
16d
100
AcDbEntity
  8
Layer_1
 62
7
100
AcDbSpline
 70
8
 71
3
 72
8
 73
4
 74
0
 40
0
 40
0
 40
0
 40
0
 40
1
 40
1
 40
1
 40
1
 10
-1.722361
 20
230.936220
 30
0.0
 10
-2.730021
 20
232.431490
 30
0.0
 10
-4.031121
 20
233.654890
 30
0.0
 10
-4.613701
 20
233.654890
 30
0.0
  0
SPLINE
  5
16e
100
AcDbEntity
  8
Layer_1
 62
7
100
AcDbSpline
 70
8
 71
3
 72
8
 73
4
 74
0
 40
0
 40
0
 40
0
 40
0
 40
1
 40
1
 40
1
 40
1
 10
-4.613701
 20
233.654890
 30
0.0
 10
-5.257061
 20
233.654890
 30
0.0
 10
-6.235931
 20
231.437910
 30
0.0
 10
-7.106971
 20
228.007920
 30
0.0
  0
SPLINE
  5
16f
100
AcDbEntity
  8
Layer_1
 62
7
100
AcDbSpline
 70
8
 71
3
 72
8
 73
4
 74
0
 40
0
 40
0
 40
0
 40
0
 40
1
 40
1
 40
1
 40
1
 10
-7.106971
 20
228.007920
 30
0.0
 10
-7.895711
 20
224.902090
 30
0.0
 10
-11.642401
 20
215.420590
 30
0.0
 10
-15.432971
 20
206.937910
 30
0.0
  0
SPLINE
  5
170
100
AcDbEntity
  8
Layer_1
 62
7
100
AcDbSpline
 70
8
 71
3
 72
8
 73
4
 74
0
 40
0
 40
0
 40
0
 40
0
 40
1
 40
1
 40
1
 40
1
 10
-15.432971
 20
206.937910
 30
0.0
 10
-19.223531
 20
198.455240
 30
0.0
 10
-23.037891
 20
188.941970
 30
0.0
 10
-23.909311
 20
185.797310
 30
0.0
  0
SPLINE
  5
171
100
AcDbEntity
  8
Layer_1
 62
7
100
AcDbSpline
 70
8
 71
3
 72
8
 73
4
 74
0
 40
0
 40
0
 40
0
 40
0
 40
1
 40
1
 40
1
 40
1
 10
-23.909311
 20
185.797310
 30
0.0
 10
-24.780741
 20
182.652660
 30
0.0
 10
-25.493731
 20
177.882230
 30
0.0
 10
-25.493731
 20
175.196360
 30
0.0
  0
SPLINE
  5
172
100
AcDbEntity
  8
Layer_1
 62
7
100
AcDbSpline
 70
8
 71
3
 72
8
 73
4
 74
0
 40
0
 40
0
 40
0
 40
0
 40
1
 40
1
 40
1
 40
1
 10
-25.493731
 20
175.196360
 30
0.0
 10
-25.493731
 20
172.510480
 30
0.0
 10
-25.247691
 20
170.066910
 30
0.0
 10
-24.946991
 20
169.766210
 30
0.0
  0
SPLINE
  5
173
100
AcDbEntity
  8
Layer_1
 62
7
100
AcDbSpline
 70
8
 71
3
 72
8
 73
4
 74
0
 40
0
 40
0
 40
0
 40
0
 40
1
 40
1
 40
1
 40
1
 10
-24.946991
 20
169.766210
 30
0.0
 10
-24.646281
 20
169.465500
 30
0.0
 10
-24.134581
 20
169.495510
 30
0.0
 10
-23.809871
 20
169.832810
 30
0.0
  0
SPLINE
  5
174
100
AcDbEntity
  8
Layer_1
 62
7
100
AcDbSpline
 70
8
 71
3
 72
8
 73
4
 74
0
 40
0
 40
0
 40
0
 40
0
 40
1
 40
1
 40
1
 40
1
 10
-23.809871
 20
169.832810
 30
0.0
 10
-23.485171
 20
170.170190
 30
0.0
 10
-22.443601
 20
172.786540
 30
0.0
 10
-21.495261
 20
175.646930
 30
0.0
  0
LWPOLYLINE
  5
175
100
AcDbEntity
  8
Layer_1
 62
7
100
AcDbPolyline
 90
1
 70
1
 10
-43.134641
 20
173.408310
 30
0.0
  0
SPLINE
  5
176
100
AcDbEntity
  8
Layer_1
 62
7
100
AcDbSpline
 70
8
 71
3
 72
8
 73
4
 74
0
 40
0
 40
0
 40
0
 40
0
 40
1
 40
1
 40
1
 40
1
 10
-57.498080
 20
174.931440
 30
0.0
 10
-57.498080
 20
178.058350
 30
0.0
 10
-58.039710
 20
182.706940
 30
0.0
 10
-58.701700
 20
185.261650
 30
0.0
  0
SPLINE
  5
177
100
AcDbEntity
  8
Layer_1
 62
7
100
AcDbSpline
 70
8
 71
3
 72
8
 73
4
 74
0
 40
0
 40
0
 40
0
 40
0
 40
1
 40
1
 40
1
 40
1
 10
-58.701700
 20
185.261650
 30
0.0
 10
-59.363690
 20
187.816350
 30
0.0
 10
-63.144790
 20
197.317090
 30
0.0
 10
-67.104150
 20
206.374400
 30
0.0
  0
SPLINE
  5
178
100
AcDbEntity
  8
Layer_1
 62
7
100
AcDbSpline
 70
8
 71
3
 72
8
 73
4
 74
0
 40
0
 40
0
 40
0
 40
0
 40
1
 40
1
 40
1
 40
1
 10
-67.104150
 20
206.374400
 30
0.0
 10
-71.063500
 20
215.431720
 30
0.0
 10
-74.969420
 20
225.275090
 30
0.0
 10
-75.783960
 20
228.248570
 30
0.0
  0
SPLINE
  5
179
100
AcDbEntity
  8
Layer_1
 62
7
100
AcDbSpline
 70
8
 71
3
 72
8
 73
4
 74
0
 40
0
 40
0
 40
0
 40
0
 40
1
 40
1
 40
1
 40
1
 10
-75.783960
 20
228.248570
 30
0.0
 10
-76.637060
 20
231.362780
 30
0.0
 10
-77.702370
 20
233.654890
 30
0.0
 10
-78.296660
 20
233.654890
 30
0.0
  0
SPLINE
  5
17a
100
AcDbEntity
  8
Layer_1
 62
7
100
AcDbSpline
 70
8
 71
3
 72
8
 73
4
 74
0
 40
0
 40
0
 40
0
 40
0
 40
1
 40
1
 40
1
 40
1
 10
-78.296660
 20
233.654890
 30
0.0
 10
-78.864110
 20
233.654890
 30
0.0
 10
-80.064000
 20
232.669600
 30
0.0
 10
-80.963110
 20
231.465350
 30
0.0
  0
SPLINE
  5
17b
100
AcDbEntity
  8
Layer_1
 62
7
100
AcDbSpline
 70
8
 71
3
 72
8
 73
4
 74
0
 40
0
 40
0
 40
0
 40
0
 40
1
 40
1
 40
1
 40
1
 10
-80.963110
 20
231.465350
 30
0.0
 10
-82.020930
 20
230.048500
 30
0.0
 10
-82.714580
 20
227.648420
 30
0.0
 10
-82.928640
 20
224.664420
 30
0.0
  0
SPLINE
  5
17c
100
AcDbEntity
  8
Layer_1
 62
7
100
AcDbSpline
 70
8
 71
3
 72
8
 73
4
 74
0
 40
0
 40
0
 40
0
 40
0
 40
1
 40
1
 40
1
 40
1
 10
-82.928640
 20
224.664420
 30
0.0
 10
-83.161830
 20
221.413770
 30
0.0
 10
-82.778170
 20
218.627090
 30
0.0
 10
-81.628460
 20
215.220610
 30
0.0
  0
SPLINE
  5
17d
100
AcDbEntity
  8
Layer_1
 62
7
100
AcDbSpline
 70
8
 71
3
 72
8
 73
4
 74
0
 40
0
 40
0
 40
0
 40
0
 40
1
 40
1
 40
1
 40
1
 10
-81.628460
 20
215.220610
 30
0.0
 10
-80.731420
 20
212.562770
 30
0.0
 10
-76.208150
 20
203.782040
 30
0.0
 10
-71.576750
 20
195.707880
 30
0.0
  0
SPLINE
  5
17e
100
AcDbEntity
  8
Layer_1
 62
7
100
AcDbSpline
 70
8
 71
3
 72
8
 73
4
 74
0
 40
0
 40
0
 40
0
 40
0
 40
1
 40
1
 40
1
 40
1
 10
-71.576750
 20
195.707880
 30
0.0
 10
-66.945360
 20
187.633710
 30
0.0
 10
-62.374870
 20
178.646790
 30
0.0
 10
-61.420110
 20
175.736940
 30
0.0
  0
SPLINE
  5
17f
100
AcDbEntity
  8
Layer_1
 62
7
100
AcDbSpline
 70
8
 71
3
 72
8
 73
4
 74
0
 40
0
 40
0
 40
0
 40
0
 40
1
 40
1
 40
1
 40
1
 10
-61.420110
 20
175.736940
 30
0.0
 10
-60.465340
 20
172.827090
 30
0.0
 10
-59.531110
 20
170.176260
 30
0.0
 10
-59.344020
 20
169.846220
 30
0.0
  0
SPLINE
  5
180
100
AcDbEntity
  8
Layer_1
 62
7
100
AcDbSpline
 70
8
 71
3
 72
8
 73
4
 74
0
 40
0
 40
0
 40
0
 40
0
 40
1
 40
1
 40
1
 40
1
 10
-59.344020
 20
169.846220
 30
0.0
 10
-59.156930
 20
169.516170
 30
0.0
 10
-58.665060
 20
169.246140
 30
0.0
 10
-58.250970
 20
169.246140
 30
0.0
  0
SPLINE
  5
181
100
AcDbEntity
  8
Layer_1
 62
7
100
AcDbSpline
 70
8
 71
3
 72
8
 73
4
 74
0
 40
0
 40
0
 40
0
 40
0
 40
1
 40
1
 40
1
 40
1
 10
-58.250970
 20
169.246140
 30
0.0
 10
-57.836880
 20
169.246140
 30
0.0
 10
-57.498080
 20
171.804520
 30
0.0
 10
-57.498080
 20
174.931440
 30
0.0
  0
LWPOLYLINE
  5
182
100
AcDbEntity
  8
Layer_1
 62
7
100
AcDbPolyline
 90
1
 70
1
 10
-21.495261
 20
175.646930
 30
0.0
  0
SPLINE
  5
183
100
AcDbEntity
  8
Layer_1
 62
7
100
AcDbSpline
 70
8
 71
3
 72
8
 73
4
 74
0
 40
0
 40
0
 40
0
 40
0
 40
1
 40
1
 40
1
 40
1
 10
8.757079
 20
169.766570
 30
0.0
 10
11.532839
 20
171.312030
 30
0.0
 10
15.099839
 20
173.714340
 30
0.0
 10
16.683738
 20
175.105030
 30
0.0
  0
SPLINE
  5
184
100
AcDbEntity
  8
Layer_1
 62
7
100
AcDbSpline
 70
8
 71
3
 72
8
 73
4
 74
0
 40
0
 40
0
 40
0
 40
0
 40
1
 40
1
 40
1
 40
1
 10
16.683738
 20
175.105030
 30
0.0
 10
18.267648
 20
176.495720
 30
0.0
 10
20.219238
 20
179.076830
 30
0.0
 10
21.020608
 20
180.840850
 30
0.0
  0
SPLINE
  5
185
100
AcDbEntity
  8
Layer_1
 62
7
100
AcDbSpline
 70
8
 71
3
 72
8
 73
4
 74
0
 40
0
 40
0
 40
0
 40
0
 40
1
 40
1
 40
1
 40
1
 10
21.020608
 20
180.840850
 30
0.0
 10
21.821988
 20
182.604860
 30
0.0
 10
22.480048
 20
184.768250
 30
0.0
 10
22.482978
 20
185.648370
 30
0.0
  0
SPLINE
  5
186
100
AcDbEntity
  8
Layer_1
 62
7
100
AcDbSpline
 70
8
 71
3
 72
8
 73
4
 74
0
 40
0
 40
0
 40
0
 40
0
 40
1
 40
1
 40
1
 40
1
 10
22.482978
 20
185.648370
 30
0.0
 10
22.485978
 20
186.528490
 30
0.0
 10
22.159508
 20
187.768240
 30
0.0
 10
21.757658
 20
188.403370
 30
0.0
  0
LWPOLYLINE
  5
187
100
AcDbEntity
  8
Layer_1
 62
7
100
AcDbPolyline
 90
1
 70
1
 10
-57.498080
 20
174.931440
 30
0.0
  0
SPLINE
  5
188
100
AcDbEntity
  8
Layer_1
 62
7
100
AcDbSpline
 70
8
 71
3
 72
8
 73
4
 74
0
 40
0
 40
0
 40
0
 40
0
 40
1
 40
1
 40
1
 40
1
 10
17.569338
 20
186.402400
 30
0.0
 10
15.667619
 20
184.666730
 30
0.0
 10
10.246989
 20
180.232690
 30
0.0
 10
5.523499
 20
176.548990
 30
0.0
  0
SPLINE
  5
189
100
AcDbEntity
  8
Layer_1
 62
7
100
AcDbSpline
 70
8
 71
3
 72
8
 73
4
 74
0
 40
0
 40
0
 40
0
 40
0
 40
1
 40
1
 40
1
 40
1
 10
5.523499
 20
176.548990
 30
0.0
 10
0.496749
 20
172.628770
 30
0.0
 10
-2.852501
 20
169.477000
 30
0.0
 10
-2.553041
 20
168.948660
 30
0.0
  0
SPLINE
  5
18a
100
AcDbEntity
  8
Layer_1
 62
7
100
AcDbSpline
 70
8
 71
3
 72
8
 73
4
 74
0
 40
0
 40
0
 40
0
 40
0
 40
1
 40
1
 40
1
 40
1
 10
-2.553041
 20
168.948660
 30
0.0
 10
-2.271651
 20
168.452180
 30
0.0
 10
-1.674141
 20
167.572760
 30
0.0
 10
-1.225231
 20
166.994400
 30
0.0
  0
SPLINE
  5
18b
100
AcDbEntity
  8
Layer_1
 62
7
100
AcDbSpline
 70
8
 71
3
 72
8
 73
4
 74
0
 40
0
 40
0
 40
0
 40
0
 40
1
 40
1
 40
1
 40
1
 10
-1.225231
 20
166.994400
 30
0.0
 10
-0.714261
 20
166.336080
 30
0.0
 10
0.361179
 20
166.132380
 30
0.0
 10
1.650599
 20
166.449720
 30
0.0
  0
SPLINE
  5
18c
100
AcDbEntity
  8
Layer_1
 62
7
100
AcDbSpline
 70
8
 71
3
 72
8
 73
4
 74
0
 40
0
 40
0
 40
0
 40
0
 40
1
 40
1
 40
1
 40
1
 10
1.650599
 20
166.449720
 30
0.0
 10
2.783399
 20
166.728510
 30
0.0
 10
5.981319
 20
168.221090
 30
0.0
 10
8.757079
 20
169.766570
 30
0.0
  0
LWPOLYLINE
  5
18d
100
AcDbEntity
  8
Layer_1
 62
7
100
AcDbPolyline
 90
3
 70
0
 10
21.757658
 20
188.403370
 30
0.0
 10
21.027038
 20
189.558160
 30
0.0
 10
17.569338
 20
186.402400
 30
0.0
  0
SPLINE
  5
18e
100
AcDbEntity
  8
Layer_1
 62
7
100
AcDbSpline
 70
8
 71
3
 72
8
 73
4
 74
0
 40
0
 40
0
 40
0
 40
0
 40
1
 40
1
 40
1
 40
1
 10
-81.146920
 20
167.595500
 30
0.0
 10
-80.375510
 20
168.447890
 30
0.0
 10
-79.967890
 20
169.506960
 30
0.0
 10
-80.241080
 20
169.949000
 30
0.0
  0
SPLINE
  5
18f
100
AcDbEntity
  8
Layer_1
 62
7
100
AcDbSpline
 70
8
 71
3
 72
8
 73
4
 74
0
 40
0
 40
0
 40
0
 40
0
 40
1
 40
1
 40
1
 40
1
 10
-80.241080
 20
169.949000
 30
0.0
 10
-80.514270
 20
170.391040
 30
0.0
 10
-84.420070
 20
173.612250
 30
0.0
 10
-88.920630
 20
177.107260
 30
0.0
  0
SPLINE
  5
190
100
AcDbEntity
  8
Layer_1
 62
7
100
AcDbSpline
 70
8
 71
3
 72
8
 73
4
 74
0
 40
0
 40
0
 40
0
 40
0
 40
1
 40
1
 40
1
 40
1
 10
-88.920630
 20
177.107260
 30
0.0
 10
-93.421190
 20
180.602260
 30
0.0
 10
-98.344250
 20
184.763900
 30
0.0
 10
-99.860770
 20
186.355330
 30
0.0
  0
SPLINE
  5
191
100
AcDbEntity
  8
Layer_1
 62
7
100
AcDbSpline
 70
8
 71
3
 72
8
 73
4
 74
0
 40
0
 40
0
 40
0
 40
0
 40
1
 40
1
 40
1
 40
1
 10
-99.860770
 20
186.355330
 30
0.0
 10
-101.377290
 20
187.946780
 30
0.0
 10
-103.087530
 20
189.248860
 30
0.0
 10
-103.661290
 20
189.248860
 30
0.0
  0
SPLINE
  5
192
100
AcDbEntity
  8
Layer_1
 62
7
100
AcDbSpline
 70
8
 71
3
 72
8
 73
4
 74
0
 40
0
 40
0
 40
0
 40
0
 40
1
 40
1
 40
1
 40
1
 10
-103.661290
 20
189.248860
 30
0.0
 10
-104.372830
 20
189.248860
 30
0.0
 10
-104.703550
 20
188.040560
 30
0.0
 10
-104.701510
 20
185.448340
 30
0.0
  0
SPLINE
  5
193
100
AcDbEntity
  8
Layer_1
 62
7
100
AcDbSpline
 70
8
 71
3
 72
8
 73
4
 74
0
 40
0
 40
0
 40
0
 40
0
 40
1
 40
1
 40
1
 40
1
 10
-104.701510
 20
185.448340
 30
0.0
 10
-104.699510
 20
183.115180
 30
0.0
 10
-104.106210
 20
180.676460
 30
0.0
 10
-103.164430
 20
179.131960
 30
0.0
  0
SPLINE
  5
194
100
AcDbEntity
  8
Layer_1
 62
7
100
AcDbSpline
 70
8
 71
3
 72
8
 73
4
 74
0
 40
0
 40
0
 40
0
 40
0
 40
1
 40
1
 40
1
 40
1
 10
-103.164430
 20
179.131960
 30
0.0
 10
-102.320690
 20
177.748240
 30
0.0
 10
-100.345640
 20
175.587950
 30
0.0
 10
-98.775440
 20
174.331310
 30
0.0
  0
SPLINE
  5
195
100
AcDbEntity
  8
Layer_1
 62
7
100
AcDbSpline
 70
8
 71
3
 72
8
 73
4
 74
0
 40
0
 40
0
 40
0
 40
0
 40
1
 40
1
 40
1
 40
1
 10
-98.775440
 20
174.331310
 30
0.0
 10
-97.205230
 20
173.074670
 30
0.0
 10
-93.306290
 20
170.697210
 30
0.0
 10
-90.111120
 20
169.048040
 30
0.0
  0
SPLINE
  5
196
100
AcDbEntity
  8
Layer_1
 62
7
100
AcDbSpline
 70
8
 71
3
 72
8
 73
4
 74
0
 40
0
 40
0
 40
0
 40
0
 40
1
 40
1
 40
1
 40
1
 10
-90.111120
 20
169.048040
 30
0.0
 10
-86.915950
 20
167.398880
 30
0.0
 10
-83.907470
 20
166.048690
 30
0.0
 10
-83.425600
 20
166.047630
 30
0.0
  0
SPLINE
  5
197
100
AcDbEntity
  8
Layer_1
 62
7
100
AcDbSpline
 70
8
 71
3
 72
8
 73
4
 74
0
 40
0
 40
0
 40
0
 40
0
 40
1
 40
1
 40
1
 40
1
 10
-83.425600
 20
166.047630
 30
0.0
 10
-82.943720
 20
166.046830
 30
0.0
 10
-81.918320
 20
166.743110
 30
0.0
 10
-81.146920
 20
167.595500
 30
0.0
  0
LWPOLYLINE
  5
198
100
AcDbEntity
  8
Layer_1
 62
7
100
AcDbPolyline
 90
1
 70
1
 10
8.757079
 20
169.766570
 30
0.0
  0
SPLINE
  5
199
100
AcDbEntity
  8
Layer_1
 62
7
100
AcDbSpline
 70
8
 71
3
 72
8
 73
4
 74
0
 40
0
 40
0
 40
0
 40
0
 40
1
 40
1
 40
1
 40
1
 10
13.482799
 20
158.727990
 30
0.0
 10
15.294759
 20
159.652390
 30
0.0
 10
17.549768
 20
161.493590
 30
0.0
 10
18.493938
 20
162.819550
 30
0.0
  0
SPLINE
  5
19a
100
AcDbEntity
  8
Layer_1
 62
7
100
AcDbSpline
 70
8
 71
3
 72
8
 73
4
 74
0
 40
0
 40
0
 40
0
 40
0
 40
1
 40
1
 40
1
 40
1
 10
18.493938
 20
162.819550
 30
0.0
 10
19.438108
 20
164.145510
 30
0.0
 10
20.415668
 20
166.493980
 30
0.0
 10
20.666278
 20
168.038370
 30
0.0
  0
SPLINE
  5
19b
100
AcDbEntity
  8
Layer_1
 62
7
100
AcDbSpline
 70
8
 71
3
 72
8
 73
4
 74
0
 40
0
 40
0
 40
0
 40
0
 40
1
 40
1
 40
1
 40
1
 10
20.666278
 20
168.038370
 30
0.0
 10
20.977408
 20
169.955660
 30
0.0
 10
20.814208
 20
170.846350
 30
0.0
 10
20.151768
 20
170.846350
 30
0.0
  0
SPLINE
  5
19c
100
AcDbEntity
  8
Layer_1
 62
7
100
AcDbSpline
 70
8
 71
3
 72
8
 73
4
 74
0
 40
0
 40
0
 40
0
 40
0
 40
1
 40
1
 40
1
 40
1
 10
20.151768
 20
170.846350
 30
0.0
 10
19.618158
 20
170.846350
 30
0.0
 10
17.053018
 20
169.598840
 30
0.0
 10
14.451459
 20
168.074100
 30
0.0
  0
SPLINE
  5
19d
100
AcDbEntity
  8
Layer_1
 62
7
100
AcDbSpline
 70
8
 71
3
 72
8
 73
4
 74
0
 40
0
 40
0
 40
0
 40
0
 40
1
 40
1
 40
1
 40
1
 10
14.451459
 20
168.074100
 30
0.0
 10
11.849889
 20
166.549380
 30
0.0
 10
7.028309
 20
164.345820
 30
0.0
 10
3.736829
 20
163.177320
 30
0.0
  0
SPLINE
  5
19e
100
AcDbEntity
  8
Layer_1
 62
7
100
AcDbSpline
 70
8
 71
3
 72
8
 73
4
 74
0
 40
0
 40
0
 40
0
 40
0
 40
1
 40
1
 40
1
 40
1
 10
3.736829
 20
163.177320
 30
0.0
 10
0.445359
 20
162.008820
 30
0.0
 10
-2.873821
 20
160.594930
 30
0.0
 10
-3.639111
 20
160.035330
 30
0.0
  0
LWPOLYLINE
  5
19f
100
AcDbEntity
  8
Layer_1
 62
7
100
AcDbPolyline
 90
1
 70
1
 10
-81.146920
 20
167.595500
 30
0.0
  0
SPLINE
  5
1a0
100
AcDbEntity
  8
Layer_1
 62
7
100
AcDbSpline
 70
8
 71
3
 72
8
 73
4
 74
0
 40
0
 40
0
 40
0
 40
0
 40
1
 40
1
 40
1
 40
1
 10
3.730969
 20
156.644420
 30
0.0
 10
8.061249
 20
156.914580
 30
0.0
 10
11.273539
 20
157.600910
 30
0.0
 10
13.482799
 20
158.727990
 30
0.0
  0
LWPOLYLINE
  5
1a1
100
AcDbEntity
  8
Layer_1
 62
7
100
AcDbPolyline
 90
5
 70
0
 10
-3.639111
 20
160.035330
 30
0.0
 10
-5.030551
 20
159.017890
 30
0.0
 10
-3.878481
 20
157.629720
 30
0.0
 10
-2.726411
 20
156.241560
 30
0.0
 10
3.730969
 20
156.644420
 30
0.0
  0
SPLINE
  5
1a2
100
AcDbEntity
  8
Layer_1
 62
7
100
AcDbSpline
 70
8
 71
3
 72
8
 73
4
 74
0
 40
0
 40
0
 40
0
 40
0
 40
1
 40
1
 40
1
 40
1
 10
-79.101020
 20
157.233980
 30
0.0
 10
-78.229300
 20
157.789680
 30
0.0
 10
-78.119820
 20
158.349630
 30
0.0
 10
-78.700960
 20
159.280050
 30
0.0
  0
SPLINE
  5
1a3
100
AcDbEntity
  8
Layer_1
 62
7
100
AcDbSpline
 70
8
 71
3
 72
8
 73
4
 74
0
 40
0
 40
0
 40
0
 40
0
 40
1
 40
1
 40
1
 40
1
 10
-78.700960
 20
159.280050
 30
0.0
 10
-79.141020
 20
159.984600
 30
0.0
 10
-82.668980
 20
161.752140
 30
0.0
 10
-86.540860
 20
163.207920
 30
0.0
  0
SPLINE
  5
1a4
100
AcDbEntity
  8
Layer_1
 62
7
100
AcDbSpline
 70
8
 71
3
 72
8
 73
4
 74
0
 40
0
 40
0
 40
0
 40
0
 40
1
 40
1
 40
1
 40
1
 10
-86.540860
 20
163.207920
 30
0.0
 10
-90.412740
 20
164.663700
 30
0.0
 10
-95.387340
 20
166.977890
 30
0.0
 10
-97.595520
 20
168.350570
 30
0.0
  0
SPLINE
  5
1a5
100
AcDbEntity
  8
Layer_1
 62
7
100
AcDbSpline
 70
8
 71
3
 72
8
 73
4
 74
0
 40
0
 40
0
 40
0
 40
0
 40
1
 40
1
 40
1
 40
1
 10
-97.595520
 20
168.350570
 30
0.0
 10
-99.803700
 20
169.723250
 30
0.0
 10
-102.126540
 20
170.846350
 30
0.0
 10
-102.757390
 20
170.846350
 30
0.0
  0
SPLINE
  5
1a6
100
AcDbEntity
  8
Layer_1
 62
7
100
AcDbSpline
 70
8
 71
3
 72
8
 73
4
 74
0
 40
0
 40
0
 40
0
 40
0
 40
1
 40
1
 40
1
 40
1
 10
-102.757390
 20
170.846350
 30
0.0
 10
-103.388240
 20
170.846350
 30
0.0
 10
-103.904390
 20
170.313570
 30
0.0
 10
-103.904390
 20
169.662380
 30
0.0
  0
SPLINE
  5
1a7
100
AcDbEntity
  8
Layer_1
 62
7
100
AcDbSpline
 70
8
 71
3
 72
8
 73
4
 74
0
 40
0
 40
0
 40
0
 40
0
 40
1
 40
1
 40
1
 40
1
 10
-103.904390
 20
169.662380
 30
0.0
 10
-103.904390
 20
169.011200
 30
0.0
 10
-103.323360
 20
167.026280
 30
0.0
 10
-102.613220
 20
165.251460
 30
0.0
  0
SPLINE
  5
1a8
100
AcDbEntity
  8
Layer_1
 62
7
100
AcDbSpline
 70
8
 71
3
 72
8
 73
4
 74
0
 40
0
 40
0
 40
0
 40
0
 40
1
 40
1
 40
1
 40
1
 10
-102.613220
 20
165.251460
 30
0.0
 10
-101.903080
 20
163.476650
 30
0.0
 10
-100.250550
 20
161.261540
 30
0.0
 10
-98.940930
 20
160.329000
 30
0.0
  0
SPLINE
  5
1a9
100
AcDbEntity
  8
Layer_1
 62
7
100
AcDbSpline
 70
8
 71
3
 72
8
 73
4
 74
0
 40
0
 40
0
 40
0
 40
0
 40
1
 40
1
 40
1
 40
1
 10
-98.940930
 20
160.329000
 30
0.0
 10
-97.631300
 20
159.396480
 30
0.0
 10
-95.061900
 20
158.165030
 30
0.0
 10
-93.231140
 20
157.592470
 30
0.0
  0
SPLINE
  5
1aa
100
AcDbEntity
  8
Layer_1
 62
7
100
AcDbSpline
 70
8
 71
3
 72
8
 73
4
 74
0
 40
0
 40
0
 40
0
 40
0
 40
1
 40
1
 40
1
 40
1
 10
-93.231140
 20
157.592470
 30
0.0
 10
-91.400380
 20
157.019900
 30
0.0
 10
-87.742190
 20
156.532870
 30
0.0
 10
-85.101830
 20
156.510170
 30
0.0
  0
SPLINE
  5
1ab
100
AcDbEntity
  8
Layer_1
 62
7
100
AcDbSpline
 70
8
 71
3
 72
8
 73
4
 74
0
 40
0
 40
0
 40
0
 40
0
 40
1
 40
1
 40
1
 40
1
 10
-85.101830
 20
156.510170
 30
0.0
 10
-82.461470
 20
156.487470
 30
0.0
 10
-79.761110
 20
156.813180
 30
0.0
 10
-79.101020
 20
157.233980
 30
0.0
  0
LWPOLYLINE
  5
1ac
100
AcDbEntity
  8
Layer_1
 62
7
100
AcDbPolyline
 90
1
 70
1
 10
13.482799
 20
158.727990
 30
0.0
  0
SPLINE
  5
1ad
100
AcDbEntity
  8
Layer_1
 62
7
100
AcDbSpline
 70
8
 71
3
 72
8
 73
4
 74
0
 40
0
 40
0
 40
0
 40
0
 40
1
 40
1
 40
1
 40
1
 10
-16.824761
 20
147.255070
 30
0.0
 10
-15.335151
 20
147.684860
 30
0.0
 10
-15.053551
 20
148.179910
 30
0.0
 10
-15.434741
 20
149.698700
 30
0.0
  0
LWPOLYLINE
  5
1ae
100
AcDbEntity
  8
Layer_1
 62
7
100
AcDbPolyline
 90
1
 70
1
 10
-79.101020
 20
157.233980
 30
0.0
  0
SPLINE
  5
1af
100
AcDbEntity
  8
Layer_1
 62
7
100
AcDbSpline
 70
8
 71
3
 72
8
 73
4
 74
0
 40
0
 40
0
 40
0
 40
0
 40
1
 40
1
 40
1
 40
1
 10
-8.537311
 20
157.544140
 30
0.0
 10
-8.688941
 20
158.962110
 30
0.0
 10
-8.197661
 20
160.496180
 30
0.0
 10
-7.256151
 20
161.544680
 30
0.0
  0
SPLINE
  5
1b0
100
AcDbEntity
  8
Layer_1
 62
7
100
AcDbSpline
 70
8
 71
3
 72
8
 73
4
 74
0
 40
0
 40
0
 40
0
 40
0
 40
1
 40
1
 40
1
 40
1
 10
-7.256151
 20
161.544680
 30
0.0
 10
-6.416251
 20
162.480030
 30
0.0
 10
-5.460211
 20
163.718070
 30
0.0
 10
-5.131601
 20
164.295870
 30
0.0
  0
SPLINE
  5
1b1
100
AcDbEntity
  8
Layer_1
 62
7
100
AcDbSpline
 70
8
 71
3
 72
8
 73
4
 74
0
 40
0
 40
0
 40
0
 40
0
 40
1
 40
1
 40
1
 40
1
 10
-5.131601
 20
164.295870
 30
0.0
 10
-4.785611
 20
164.904260
 30
0.0
 10
-5.141601
 20
166.017570
 30
0.0
 10
-5.977191
 20
166.940980
 30
0.0
  0
LWPOLYLINE
  5
1b2
100
AcDbEntity
  8
Layer_1
 62
7
100
AcDbPolyline
 90
5
 70
0
 10
-15.434741
 20
149.698700
 30
0.0
 10
-15.912781
 20
151.603360
 30
0.0
 10
-12.102081
 20
153.423780
 30
0.0
 10
-8.291391
 20
155.244230
 30
0.0
 10
-8.537311
 20
157.544140
 30
0.0
  0
SPLINE
  5
1b3
100
AcDbEntity
  8
Layer_1
 62
7
100
AcDbSpline
 70
8
 71
3
 72
8
 73
4
 74
0
 40
0
 40
0
 40
0
 40
0
 40
1
 40
1
 40
1
 40
1
 10
-6.455631
 20
170.080150
 30
0.0
 10
-5.925091
 20
170.929680
 30
0.0
 10
-5.491011
 20
172.178620
 30
0.0
 10
-5.491011
 20
172.855570
 30
0.0
  0
SPLINE
  5
1b4
100
AcDbEntity
  8
Layer_1
 62
7
100
AcDbSpline
 70
8
 71
3
 72
8
 73
4
 74
0
 40
0
 40
0
 40
0
 40
0
 40
1
 40
1
 40
1
 40
1
 10
-5.491011
 20
172.855570
 30
0.0
 10
-5.491011
 20
173.532530
 30
0.0
 10
-6.391131
 20
174.428620
 30
0.0
 10
-7.491281
 20
174.846900
 30
0.0
  0
SPLINE
  5
1b5
100
AcDbEntity
  8
Layer_1
 62
7
100
AcDbSpline
 70
8
 71
3
 72
8
 73
4
 74
0
 40
0
 40
0
 40
0
 40
0
 40
1
 40
1
 40
1
 40
1
 10
-7.491281
 20
174.846900
 30
0.0
 10
-8.621151
 20
175.276470
 30
0.0
 10
-9.491551
 20
176.245800
 30
0.0
 10
-9.491551
 20
177.074500
 30
0.0
  0
SPLINE
  5
1b6
100
AcDbEntity
  8
Layer_1
 62
7
100
AcDbSpline
 70
8
 71
3
 72
8
 73
4
 74
0
 40
0
 40
0
 40
0
 40
0
 40
1
 40
1
 40
1
 40
1
 10
-9.491551
 20
177.074500
 30
0.0
 10
-9.491551
 20
177.881400
 30
0.0
 10
-10.002611
 20
179.240500
 30
0.0
 10
-10.627231
 20
180.094710
 30
0.0
  0
LWPOLYLINE
  5
1b7
100
AcDbEntity
  8
Layer_1
 62
7
100
AcDbPolyline
 90
3
 70
0
 10
-5.977191
 20
166.940980
 30
0.0
 10
-7.420251
 20
168.535540
 30
0.0
 10
-6.455631
 20
170.080150
 30
0.0
  0
SPLINE
  5
1b8
100
AcDbEntity
  8
Layer_1
 62
7
100
AcDbSpline
 70
8
 71
3
 72
8
 73
4
 74
0
 40
0
 40
0
 40
0
 40
0
 40
1
 40
1
 40
1
 40
1
 10
-13.905541
 20
179.647550
 30
0.0
 10
-15.083981
 20
178.547400
 30
0.0
 10
-16.768591
 20
176.242100
 30
0.0
 10
-17.649121
 20
174.524650
 30
0.0
  0
SPLINE
  5
1b9
100
AcDbEntity
  8
Layer_1
 62
7
100
AcDbSpline
 70
8
 71
3
 72
8
 73
4
 74
0
 40
0
 40
0
 40
0
 40
0
 40
1
 40
1
 40
1
 40
1
 10
-17.649121
 20
174.524650
 30
0.0
 10
-18.529651
 20
172.807200
 30
0.0
 10
-19.772411
 20
169.926810
 30
0.0
 10
-20.410811
 20
168.123780
 30
0.0
  0
SPLINE
  5
1ba
100
AcDbEntity
  8
Layer_1
 62
7
100
AcDbSpline
 70
8
 71
3
 72
8
 73
4
 74
0
 40
0
 40
0
 40
0
 40
0
 40
1
 40
1
 40
1
 40
1
 10
-20.410811
 20
168.123780
 30
0.0
 10
-21.049201
 20
166.320750
 30
0.0
 10
-21.939521
 20
160.922040
 30
0.0
 10
-22.389271
 20
156.126670
 30
0.0
  0
LWPOLYLINE
  5
1bb
100
AcDbEntity
  8
Layer_1
 62
7
100
AcDbPolyline
 90
3
 70
0
 10
-10.627231
 20
180.094710
 30
0.0
 10
-11.762921
 20
181.647820
 30
0.0
 10
-13.905541
 20
179.647550
 30
0.0
  0
SPLINE
  5
1bc
100
AcDbEntity
  8
Layer_1
 62
7
100
AcDbSpline
 70
8
 71
3
 72
8
 73
4
 74
0
 40
0
 40
0
 40
0
 40
0
 40
1
 40
1
 40
1
 40
1
 10
-22.150071
 20
146.743650
 30
0.0
 10
-21.568751
 20
146.378380
 30
0.0
 10
-20.553061
 20
146.222750
 30
0.0
 10
-19.892971
 20
146.397810
 30
0.0
  0
SPLINE
  5
1bd
100
AcDbEntity
  8
Layer_1
 62
7
100
AcDbSpline
 70
8
 71
3
 72
8
 73
4
 74
0
 40
0
 40
0
 40
0
 40
0
 40
1
 40
1
 40
1
 40
1
 10
-19.892971
 20
146.397810
 30
0.0
 10
-19.232881
 20
146.572880
 30
0.0
 10
-17.852181
 20
146.958660
 30
0.0
 10
-16.824761
 20
147.255100
 30
0.0
  0
LWPOLYLINE
  5
1be
100
AcDbEntity
  8
Layer_1
 62
7
100
AcDbPolyline
 90
3
 70
0
 10
-22.389271
 20
156.126670
 30
0.0
 10
-23.207021
 20
147.407800
 30
0.0
 10
-22.150071
 20
146.743650
 30
0.0
  0
SPLINE
  5
1bf
100
AcDbEntity
  8
Layer_1
 62
7
100
AcDbSpline
 70
8
 71
3
 72
8
 73
4
 74
0
 40
0
 40
0
 40
0
 40
0
 40
1
 40
1
 40
1
 40
1
 10
-60.816230
 20
146.753380
 30
0.0
 10
-59.959290
 20
147.296410
 30
0.0
 10
-59.854660
 20
149.085730
 30
0.0
 10
-60.314000
 20
155.342300
 30
0.0
  0
SPLINE
  5
1c0
100
AcDbEntity
  8
Layer_1
 62
7
100
AcDbSpline
 70
8
 71
3
 72
8
 73
4
 74
0
 40
0
 40
0
 40
0
 40
0
 40
1
 40
1
 40
1
 40
1
 10
-60.314000
 20
155.342300
 30
0.0
 10
-60.633120
 20
159.688950
 30
0.0
 10
-61.528520
 20
165.302690
 30
0.0
 10
-62.303770
 20
167.817280
 30
0.0
  0
SPLINE
  5
1c1
100
AcDbEntity
  8
Layer_1
 62
7
100
AcDbSpline
 70
8
 71
3
 72
8
 73
4
 74
0
 40
0
 40
0
 40
0
 40
0
 40
1
 40
1
 40
1
 40
1
 10
-62.303770
 20
167.817280
 30
0.0
 10
-63.079020
 20
170.331860
 30
0.0
 10
-64.666500
 20
174.015740
 30
0.0
 10
-65.831510
 20
176.003670
 30
0.0
  0
SPLINE
  5
1c2
100
AcDbEntity
  8
Layer_1
 62
7
100
AcDbSpline
 70
8
 71
3
 72
8
 73
4
 74
0
 40
0
 40
0
 40
0
 40
0
 40
1
 40
1
 40
1
 40
1
 10
-65.831510
 20
176.003670
 30
0.0
 10
-66.996520
 20
177.991610
 30
0.0
 10
-68.720010
 20
180.030350
 30
0.0
 10
-69.661500
 20
180.534220
 30
0.0
  0
LWPOLYLINE
  5
1c3
100
AcDbEntity
  8
Layer_1
 62
7
100
AcDbPolyline
 90
1
 70
1
 10
-16.824761
 20
147.255100
 30
0.0
  0
SPLINE
  5
1c4
100
AcDbEntity
  8
Layer_1
 62
7
100
AcDbSpline
 70
8
 71
3
 72
8
 73
4
 74
0
 40
0
 40
0
 40
0
 40
0
 40
1
 40
1
 40
1
 40
1
 10
-72.436780
 20
179.995960
 30
0.0
 10
-73.021690
 20
179.196070
 30
0.0
 10
-73.500260
 20
177.881400
 30
0.0
 10
-73.500260
 20
177.074500
 30
0.0
  0
SPLINE
  5
1c5
100
AcDbEntity
  8
Layer_1
 62
7
100
AcDbSpline
 70
8
 71
3
 72
8
 73
4
 74
0
 40
0
 40
0
 40
0
 40
0
 40
1
 40
1
 40
1
 40
1
 10
-73.500260
 20
177.074500
 30
0.0
 10
-73.500260
 20
176.245800
 30
0.0
 10
-74.370660
 20
175.276470
 30
0.0
 10
-75.500530
 20
174.846900
 30
0.0
  0
SPLINE
  5
1c6
100
AcDbEntity
  8
Layer_1
 62
7
100
AcDbSpline
 70
8
 71
3
 72
8
 73
4
 74
0
 40
0
 40
0
 40
0
 40
0
 40
1
 40
1
 40
1
 40
1
 10
-75.500530
 20
174.846900
 30
0.0
 10
-76.600680
 20
174.428620
 30
0.0
 10
-77.500800
 20
173.617520
 30
0.0
 10
-77.500800
 20
173.044460
 30
0.0
  0
SPLINE
  5
1c7
100
AcDbEntity
  8
Layer_1
 62
7
100
AcDbSpline
 70
8
 71
3
 72
8
 73
4
 74
0
 40
0
 40
0
 40
0
 40
0
 40
1
 40
1
 40
1
 40
1
 10
-77.500800
 20
173.044460
 30
0.0
 10
-77.500800
 20
172.471390
 30
0.0
 10
-76.972150
 20
171.247770
 30
0.0
 10
-76.326030
 20
170.325300
 30
0.0
  0
LWPOLYLINE
  5
1c8
100
AcDbEntity
  8
Layer_1
 62
7
100
AcDbPolyline
 90
3
 70
0
 10
-69.661500
 20
180.534220
 30
0.0
 10
-71.373300
 20
181.450350
 30
0.0
 10
-72.436780
 20
179.995960
 30
0.0
  0
SPLINE
  5
1c9
100
AcDbEntity
  8
Layer_1
 62
7
100
AcDbSpline
 70
8
 71
3
 72
8
 73
4
 74
0
 40
0
 40
0
 40
0
 40
0
 40
1
 40
1
 40
1
 40
1
 10
-77.372240
 20
164.144750
 30
0.0
 10
-76.889790
 20
163.210000
 30
0.0
 10
-75.932820
 20
161.801160
 30
0.0
 10
-75.245630
 20
161.013990
 30
0.0
  0
SPLINE
  5
1ca
100
AcDbEntity
  8
Layer_1
 62
7
100
AcDbSpline
 70
8
 71
3
 72
8
 73
4
 74
0
 40
0
 40
0
 40
0
 40
0
 40
1
 40
1
 40
1
 40
1
 10
-75.245630
 20
161.013990
 30
0.0
 10
-74.558430
 20
160.226820
 30
0.0
 10
-73.974610
 20
158.426630
 30
0.0
 10
-73.948250
 20
157.013580
 30
0.0
  0
LWPOLYLINE
  5
1cb
100
AcDbEntity
  8
Layer_1
 62
7
100
AcDbPolyline
 90
5
 70
0
 10
-76.326030
 20
170.325300
 30
0.0
 10
-75.151260
 20
168.648080
 30
0.0
 10
-76.700340
 20
167.246180
 30
0.0
 10
-78.249420
 20
165.844290
 30
0.0
 10
-77.372240
 20
164.144750
 30
0.0
  0
SPLINE
  5
1cc
100
AcDbEntity
  8
Layer_1
 62
7
100
AcDbSpline
 70
8
 71
3
 72
8
 73
4
 74
0
 40
0
 40
0
 40
0
 40
0
 40
1
 40
1
 40
1
 40
1
 10
-67.452420
 20
150.346220
 30
0.0
 10
-67.689820
 20
149.400320
 30
0.0
 10
-67.437520
 20
148.263910
 30
0.0
 10
-66.891660
 20
147.820850
 30
0.0
  0
SPLINE
  5
1cd
100
AcDbEntity
  8
Layer_1
 62
7
100
AcDbSpline
 70
8
 71
3
 72
8
 73
4
 74
0
 40
0
 40
0
 40
0
 40
0
 40
1
 40
1
 40
1
 40
1
 10
-66.891660
 20
147.820850
 30
0.0
 10
-66.345840
 20
147.377790
 30
0.0
 10
-65.179160
 20
146.838280
 30
0.0
 10
-64.299040
 20
146.621950
 30
0.0
  0
SPLINE
  5
1ce
100
AcDbEntity
  8
Layer_1
 62
7
100
AcDbSpline
 70
8
 71
3
 72
8
 73
4
 74
0
 40
0
 40
0
 40
0
 40
0
 40
1
 40
1
 40
1
 40
1
 10
-64.299040
 20
146.621950
 30
0.0
 10
-63.418920
 20
146.405610
 30
0.0
 10
-62.518800
 20
146.192350
 30
0.0
 10
-62.298770
 20
146.148040
 30
0.0
  0
SPLINE
  5
1cf
100
AcDbEntity
  8
Layer_1
 62
7
100
AcDbSpline
 70
8
 71
3
 72
8
 73
4
 74
0
 40
0
 40
0
 40
0
 40
0
 40
1
 40
1
 40
1
 40
1
 10
-62.298770
 20
146.148040
 30
0.0
 10
-62.078740
 20
146.103740
 30
0.0
 10
-61.411620
 20
146.376150
 30
0.0
 10
-60.816270
 20
146.753400
 30
0.0
  0
LWPOLYLINE
  5
1d0
100
AcDbEntity
  8
Layer_1
 62
7
100
AcDbPolyline
 90
5
 70
0
 10
-73.948250
 20
157.013580
 30
0.0
 10
-73.900350
 20
154.444390
 30
0.0
 10
-70.460560
 20
153.255210
 30
0.0
 10
-67.020770
 20
152.066040
 30
0.0
 10
-67.452420
 20
150.346220
 30
0.0
  0
SPLINE
  5
1d1
100
AcDbEntity
  8
Layer_1
 62
7
100
AcDbSpline
 70
8
 71
3
 72
8
 73
4
 74
0
 40
0
 40
0
 40
0
 40
0
 40
1
 40
1
 40
1
 40
1
 10
9.631979
 20
146.402120
 30
0.0
 10
10.864949
 20
147.039720
 30
0.0
 10
12.467299
 20
148.467240
 30
0.0
 10
13.192729
 20
149.574400
 30
0.0
  0
SPLINE
  5
1d2
100
AcDbEntity
  8
Layer_1
 62
7
100
AcDbSpline
 70
8
 71
3
 72
8
 73
4
 74
0
 40
0
 40
0
 40
0
 40
0
 40
1
 40
1
 40
1
 40
1
 10
13.192729
 20
149.574400
 30
0.0
 10
13.918169
 20
150.681560
 30
0.0
 10
14.511709
 20
151.924310
 30
0.0
 10
14.511709
 20
152.336060
 30
0.0
  0
SPLINE
  5
1d3
100
AcDbEntity
  8
Layer_1
 62
7
100
AcDbSpline
 70
8
 71
3
 72
8
 73
4
 74
0
 40
0
 40
0
 40
0
 40
0
 40
1
 40
1
 40
1
 40
1
 10
14.511709
 20
152.336060
 30
0.0
 10
14.511709
 20
152.770020
 30
0.0
 10
10.560099
 20
152.998300
 30
0.0
 10
5.110429
 20
152.879150
 30
0.0
  0
SPLINE
  5
1d4
100
AcDbEntity
  8
Layer_1
 62
7
100
AcDbSpline
 70
8
 71
3
 72
8
 73
4
 74
0
 40
0
 40
0
 40
0
 40
0
 40
1
 40
1
 40
1
 40
1
 10
5.110429
 20
152.879150
 30
0.0
 10
-0.606181
 20
152.754160
 30
0.0
 10
-5.165441
 20
152.259080
 30
0.0
 10
-6.522341
 20
151.615960
 30
0.0
  0
SPLINE
  5
1d5
100
AcDbEntity
  8
Layer_1
 62
7
100
AcDbSpline
 70
8
 71
3
 72
8
 73
4
 74
0
 40
0
 40
0
 40
0
 40
0
 40
1
 40
1
 40
1
 40
1
 10
-6.522341
 20
151.615960
 30
0.0
 10
-7.796891
 20
151.011880
 30
0.0
 10
-8.652181
 20
150.030470
 30
0.0
 10
-8.516791
 20
149.327430
 30
0.0
  0
SPLINE
  5
1d6
100
AcDbEntity
  8
Layer_1
 62
7
100
AcDbSpline
 70
8
 71
3
 72
8
 73
4
 74
0
 40
0
 40
0
 40
0
 40
0
 40
1
 40
1
 40
1
 40
1
 10
-8.516791
 20
149.327430
 30
0.0
 10
-8.380841
 20
148.621530
 30
0.0
 10
-6.405291
 20
147.508800
 30
0.0
 10
-3.884971
 20
146.718570
 30
0.0
  0
SPLINE
  5
1d7
100
AcDbEntity
  8
Layer_1
 62
7
100
AcDbSpline
 70
8
 71
3
 72
8
 73
4
 74
0
 40
0
 40
0
 40
0
 40
0
 40
1
 40
1
 40
1
 40
1
 10
-3.884971
 20
146.718570
 30
0.0
 10
-1.467841
 20
145.960690
 30
0.0
 10
2.057899
 20
145.318610
 30
0.0
 10
3.949999
 20
145.291730
 30
0.0
  0
SPLINE
  5
1d8
100
AcDbEntity
  8
Layer_1
 62
7
100
AcDbSpline
 70
8
 71
3
 72
8
 73
4
 74
0
 40
0
 40
0
 40
0
 40
0
 40
1
 40
1
 40
1
 40
1
 10
3.949999
 20
145.291730
 30
0.0
 10
5.842109
 20
145.264830
 30
0.0
 10
8.398999
 20
145.764520
 30
0.0
 10
9.631979
 20
146.402120
 30
0.0
  0
LWPOLYLINE
  5
1d9
100
AcDbEntity
  8
Layer_1
 62
7
100
AcDbPolyline
 90
1
 70
1
 10
-60.816270
 20
146.753400
 30
0.0
  0
SPLINE
  5
1da
100
AcDbEntity
  8
Layer_1
 62
7
100
AcDbSpline
 70
8
 71
3
 72
8
 73
4
 74
0
 40
0
 40
0
 40
0
 40
0
 40
1
 40
1
 40
1
 40
1
 10
-79.342110
 20
146.445520
 30
0.0
 10
-77.114670
 20
147.107000
 30
0.0
 10
-74.876000
 20
148.149720
 30
0.0
 10
-74.367280
 20
148.762690
 30
0.0
  0
SPLINE
  5
1db
100
AcDbEntity
  8
Layer_1
 62
7
100
AcDbSpline
 70
8
 71
3
 72
8
 73
4
 74
0
 40
0
 40
0
 40
0
 40
0
 40
1
 40
1
 40
1
 40
1
 10
-74.367280
 20
148.762690
 30
0.0
 10
-73.627640
 20
149.653910
 30
0.0
 10
-73.993280
 20
150.217680
 30
0.0
 10
-76.192460
 20
151.576840
 30
0.0
  0
LWPOLYLINE
  5
1dc
100
AcDbEntity
  8
Layer_1
 62
7
100
AcDbPolyline
 90
1
 70
1
 10
9.631979
 20
146.402120
 30
0.0
  0
SPLINE
  5
1dd
100
AcDbEntity
  8
Layer_1
 62
7
100
AcDbSpline
 70
8
 71
3
 72
8
 73
4
 74
0
 40
0
 40
0
 40
0
 40
0
 40
1
 40
1
 40
1
 40
1
 10
-83.222370
 20
152.780470
 30
0.0
 10
-85.576260
 20
152.507650
 30
0.0
 10
-89.367900
 20
152.626730
 30
0.0
 10
-91.648240
 20
153.045100
 30
0.0
  0
SPLINE
  5
1de
100
AcDbEntity
  8
Layer_1
 62
7
100
AcDbSpline
 70
8
 71
3
 72
8
 73
4
 74
0
 40
0
 40
0
 40
0
 40
0
 40
1
 40
1
 40
1
 40
1
 10
-91.648240
 20
153.045100
 30
0.0
 10
-93.928590
 20
153.463470
 30
0.0
 10
-96.223560
 20
153.540490
 30
0.0
 10
-96.748180
 20
153.216250
 30
0.0
  0
SPLINE
  5
1df
100
AcDbEntity
  8
Layer_1
 62
7
100
AcDbSpline
 70
8
 71
3
 72
8
 73
4
 74
0
 40
0
 40
0
 40
0
 40
0
 40
1
 40
1
 40
1
 40
1
 10
-96.748180
 20
153.216250
 30
0.0
 10
-97.458590
 20
152.777190
 30
0.0
 10
-97.345320
 20
152.022850
 30
0.0
 10
-96.304360
 20
150.260640
 30
0.0
  0
SPLINE
  5
1e0
100
AcDbEntity
  8
Layer_1
 62
7
100
AcDbSpline
 70
8
 71
3
 72
8
 73
4
 74
0
 40
0
 40
0
 40
0
 40
0
 40
1
 40
1
 40
1
 40
1
 10
-96.304360
 20
150.260640
 30
0.0
 10
-95.535640
 20
148.959300
 30
0.0
 10
-93.960760
 20
147.307500
 30
0.0
 10
-92.804640
 20
146.589980
 30
0.0
  0
SPLINE
  5
1e1
100
AcDbEntity
  8
Layer_1
 62
7
100
AcDbSpline
 70
8
 71
3
 72
8
 73
4
 74
0
 40
0
 40
0
 40
0
 40
0
 40
1
 40
1
 40
1
 40
1
 10
-92.804640
 20
146.589980
 30
0.0
 10
-91.648510
 20
145.872470
 30
0.0
 10
-89.057710
 20
145.275830
 30
0.0
 10
-87.047300
 20
145.264120
 30
0.0
  0
SPLINE
  5
1e2
100
AcDbEntity
  8
Layer_1
 62
7
100
AcDbSpline
 70
8
 71
3
 72
8
 73
4
 74
0
 40
0
 40
0
 40
0
 40
0
 40
1
 40
1
 40
1
 40
1
 10
-87.047300
 20
145.264120
 30
0.0
 10
-85.036890
 20
145.252420
 30
0.0
 10
-81.569550
 20
145.784040
 30
0.0
 10
-79.342110
 20
146.445520
 30
0.0
  0
LWPOLYLINE
  5
1e3
100
AcDbEntity
  8
Layer_1
 62
7
100
AcDbPolyline
 90
3
 70
0
 10
-76.192460
 20
151.576840
 30
0.0
 10
-78.942590
 20
153.276520
 30
0.0
 10
-83.222370
 20
152.780470
 30
0.0
  0
SPLINE
  5
1e4
100
AcDbEntity
  8
Layer_1
 62
7
100
AcDbSpline
 70
8
 71
3
 72
8
 73
4
 74
0
 40
0
 40
0
 40
0
 40
0
 40
1
 40
1
 40
1
 40
1
 10
32.097908
 20
139.328890
 30
0.0
 10
34.145558
 20
140.148190
 30
0.0
 10
35.314538
 20
141.127140
 30
0.0
 10
35.314538
 20
142.022590
 30
0.0
  0
SPLINE
  5
1e5
100
AcDbEntity
  8
Layer_1
 62
7
100
AcDbSpline
 70
8
 71
3
 72
8
 73
4
 74
0
 40
0
 40
0
 40
0
 40
0
 40
1
 40
1
 40
1
 40
1
 10
35.314538
 20
142.022590
 30
0.0
 10
35.314538
 20
142.960390
 30
0.0
 10
33.945508
 20
143.998210
 30
0.0
 10
31.207298
 20
145.136150
 30
0.0
  0
SPLINE
  5
1e6
100
AcDbEntity
  8
Layer_1
 62
7
100
AcDbSpline
 70
8
 71
3
 72
8
 73
4
 74
0
 40
0
 40
0
 40
0
 40
0
 40
1
 40
1
 40
1
 40
1
 10
31.207298
 20
145.136150
 30
0.0
 10
28.948308
 20
146.074940
 30
0.0
 10
25.396378
 20
146.843050
 30
0.0
 10
23.314118
 20
146.843050
 30
0.0
  0
SPLINE
  5
1e7
100
AcDbEntity
  8
Layer_1
 62
7
100
AcDbSpline
 70
8
 71
3
 72
8
 73
4
 74
0
 40
0
 40
0
 40
0
 40
0
 40
1
 40
1
 40
1
 40
1
 10
23.314118
 20
146.843050
 30
0.0
 10
20.695498
 20
146.843050
 30
0.0
 10
18.878148
 20
146.331750
 30
0.0
 10
17.419988
 20
145.184760
 30
0.0
  0
SPLINE
  5
1e8
100
AcDbEntity
  8
Layer_1
 62
7
100
AcDbSpline
 70
8
 71
3
 72
8
 73
4
 74
0
 40
0
 40
0
 40
0
 40
0
 40
1
 40
1
 40
1
 40
1
 10
17.419988
 20
145.184760
 30
0.0
 10
16.260498
 20
144.272700
 30
0.0
 10
15.311819
 20
143.038660
 30
0.0
 10
15.311819
 20
142.442450
 30
0.0
  0
SPLINE
  5
1e9
100
AcDbEntity
  8
Layer_1
 62
7
100
AcDbSpline
 70
8
 71
3
 72
8
 73
4
 74
0
 40
0
 40
0
 40
0
 40
0
 40
1
 40
1
 40
1
 40
1
 10
15.311819
 20
142.442450
 30
0.0
 10
15.311819
 20
141.846240
 30
0.0
 10
16.260498
 20
140.612200
 30
0.0
 10
17.419988
 20
139.700140
 30
0.0
  0
SPLINE
  5
1ea
100
AcDbEntity
  8
Layer_1
 62
7
100
AcDbSpline
 70
8
 71
3
 72
8
 73
4
 74
0
 40
0
 40
0
 40
0
 40
0
 40
1
 40
1
 40
1
 40
1
 10
17.419988
 20
139.700140
 30
0.0
 10
19.006628
 20
138.452090
 30
0.0
 10
20.685098
 20
138.041850
 30
0.0
 10
24.204728
 20
138.041850
 30
0.0
  0
SPLINE
  5
1eb
100
AcDbEntity
  8
Layer_1
 62
7
100
AcDbSpline
 70
8
 71
3
 72
8
 73
4
 74
0
 40
0
 40
0
 40
0
 40
0
 40
1
 40
1
 40
1
 40
1
 10
24.204728
 20
138.041850
 30
0.0
 10
26.776838
 20
138.041850
 30
0.0
 10
30.328768
 20
138.621020
 30
0.0
 10
32.097908
 20
139.328890
 30
0.0
  0
LWPOLYLINE
  5
1ec
100
AcDbEntity
  8
Layer_1
 62
7
100
AcDbPolyline
 90
1
 70
1
 10
-79.342110
 20
146.445520
 30
0.0
  0
SPLINE
  5
1ed
100
AcDbEntity
  8
Layer_1
 62
7
100
AcDbSpline
 70
8
 71
3
 72
8
 73
4
 74
0
 40
0
 40
0
 40
0
 40
0
 40
1
 40
1
 40
1
 40
1
 10
-100.245990
 20
139.888970
 30
0.0
 10
-98.694430
 20
141.223580
 30
0.0
 10
-98.242300
 20
142.188920
 30
0.0
 10
-98.616540
 20
143.368050
 30
0.0
  0
SPLINE
  5
1ee
100
AcDbEntity
  8
Layer_1
 62
7
100
AcDbSpline
 70
8
 71
3
 72
8
 73
4
 74
0
 40
0
 40
0
 40
0
 40
0
 40
1
 40
1
 40
1
 40
1
 10
-98.616540
 20
143.368050
 30
0.0
 10
-98.901410
 20
144.265610
 30
0.0
 10
-100.044640
 20
145.414680
 30
0.0
 10
-101.157040
 20
145.921520
 30
0.0
  0
SPLINE
  5
1ef
100
AcDbEntity
  8
Layer_1
 62
7
100
AcDbSpline
 70
8
 71
3
 72
8
 73
4
 74
0
 40
0
 40
0
 40
0
 40
0
 40
1
 40
1
 40
1
 40
1
 10
-101.157040
 20
145.921520
 30
0.0
 10
-102.269430
 20
146.428360
 30
0.0
 10
-104.872870
 20
146.828210
 30
0.0
 10
-106.942440
 20
146.810070
 30
0.0
  0
SPLINE
  5
1f0
100
AcDbEntity
  8
Layer_1
 62
7
100
AcDbSpline
 70
8
 71
3
 72
8
 73
4
 74
0
 40
0
 40
0
 40
0
 40
0
 40
1
 40
1
 40
1
 40
1
 10
-106.942440
 20
146.810070
 30
0.0
 10
-109.143510
 20
146.790770
 30
0.0
 10
-112.199720
 20
146.043570
 30
0.0
 10
-114.305800
 20
145.009820
 30
0.0
  0
SPLINE
  5
1f1
100
AcDbEntity
  8
Layer_1
 62
7
100
AcDbSpline
 70
8
 71
3
 72
8
 73
4
 74
0
 40
0
 40
0
 40
0
 40
0
 40
1
 40
1
 40
1
 40
1
 10
-114.305800
 20
145.009820
 30
0.0
 10
-116.286070
 20
144.037830
 30
0.0
 10
-117.906290
 20
142.702490
 30
0.0
 10
-117.906290
 20
142.042400
 30
0.0
  0
SPLINE
  5
1f2
100
AcDbEntity
  8
Layer_1
 62
7
100
AcDbSpline
 70
8
 71
3
 72
8
 73
4
 74
0
 40
0
 40
0
 40
0
 40
0
 40
1
 40
1
 40
1
 40
1
 10
-117.906290
 20
142.042400
 30
0.0
 10
-117.906290
 20
141.382310
 30
0.0
 10
-116.646120
 20
140.212710
 30
0.0
 10
-115.105910
 20
139.443280
 30
0.0
  0
SPLINE
  5
1f3
100
AcDbEntity
  8
Layer_1
 62
7
100
AcDbSpline
 70
8
 71
3
 72
8
 73
4
 74
0
 40
0
 40
0
 40
0
 40
0
 40
1
 40
1
 40
1
 40
1
 10
-115.105910
 20
139.443280
 30
0.0
 10
-113.345820
 20
138.564020
 30
0.0
 10
-110.464460
 20
138.043880
 30
0.0
 10
-107.349470
 20
138.043090
 30
0.0
  0
LWPOLYLINE
  5
1f4
100
AcDbEntity
  8
Layer_1
 62
7
100
AcDbPolyline
 90
1
 70
1
 10
32.097908
 20
139.328890
 30
0.0
  0
SPLINE
  5
1f5
100
AcDbEntity
  8
Layer_1
 62
7
100
AcDbSpline
 70
8
 71
3
 72
8
 73
4
 74
0
 40
0
 40
0
 40
0
 40
0
 40
1
 40
1
 40
1
 40
1
 10
-70.441510
 20
138.005250
 30
0.0
 10
-68.240110
 20
139.745360
 30
0.0
 10
-66.208310
 20
141.542280
 30
0.0
 10
-65.926410
 20
141.998400
 30
0.0
  0
SPLINE
  5
1f6
100
AcDbEntity
  8
Layer_1
 62
7
100
AcDbSpline
 70
8
 71
3
 72
8
 73
4
 74
0
 40
0
 40
0
 40
0
 40
0
 40
1
 40
1
 40
1
 40
1
 10
-65.926410
 20
141.998400
 30
0.0
 10
-65.644510
 20
142.454520
 30
0.0
 10
-66.706180
 20
143.443980
 30
0.0
 10
-68.285680
 20
144.197190
 30
0.0
  0
LWPOLYLINE
  5
1f7
100
AcDbEntity
  8
Layer_1
 62
7
100
AcDbPolyline
 90
4
 70
0
 10
-107.349470
 20
138.043090
 30
0.0
 10
-102.393410
 20
138.041090
 30
0.0
 10
-100.245990
 20
139.888210
 30
0.0
 10
-100.245990
 20
139.888970
 30
0.0
  0
SPLINE
  5
1f8
100
AcDbEntity
  8
Layer_1
 62
7
100
AcDbSpline
 70
8
 71
3
 72
8
 73
4
 74
0
 40
0
 40
0
 40
0
 40
0
 40
1
 40
1
 40
1
 40
1
 10
-74.929230
 20
144.116490
 30
0.0
 10
-77.003680
 20
143.318900
 30
0.0
 10
-80.771240
 20
142.089440
 30
0.0
 10
-83.301590
 20
141.384380
 30
0.0
  0
SPLINE
  5
1f9
100
AcDbEntity
  8
Layer_1
 62
7
100
AcDbSpline
 70
8
 71
3
 72
8
 73
4
 74
0
 40
0
 40
0
 40
0
 40
0
 40
1
 40
1
 40
1
 40
1
 10
-83.301590
 20
141.384380
 30
0.0
 10
-86.668730
 20
140.446150
 30
0.0
 10
-87.902210
 20
139.725800
 30
0.0
 10
-87.902210
 20
138.697640
 30
0.0
  0
SPLINE
  5
1fa
100
AcDbEntity
  8
Layer_1
 62
7
100
AcDbSpline
 70
8
 71
3
 72
8
 73
4
 74
0
 40
0
 40
0
 40
0
 40
0
 40
1
 40
1
 40
1
 40
1
 10
-87.902210
 20
138.697640
 30
0.0
 10
-87.902210
 20
137.925010
 30
0.0
 10
-86.912080
 20
136.755690
 30
0.0
 10
-85.701910
 20
136.099160
 30
0.0
  0
SPLINE
  5
1fb
100
AcDbEntity
  8
Layer_1
 62
7
100
AcDbSpline
 70
8
 71
3
 72
8
 73
4
 74
0
 40
0
 40
0
 40
0
 40
0
 40
1
 40
1
 40
1
 40
1
 10
-85.701910
 20
136.099160
 30
0.0
 10
-84.491750
 20
135.442640
 30
0.0
 10
-81.463670
 20
134.891070
 30
0.0
 10
-78.972840
 20
134.873450
 30
0.0
  0
LWPOLYLINE
  5
1fc
100
AcDbEntity
  8
Layer_1
 62
7
100
AcDbPolyline
 90
3
 70
0
 10
-68.285680
 20
144.197190
 30
0.0
 10
-71.157490
 20
145.566660
 30
0.0
 10
-74.929230
 20
144.116490
 30
0.0
  0
SPLINE
  5
1fd
100
AcDbEntity
  8
Layer_1
 62
7
100
AcDbSpline
 70
8
 71
3
 72
8
 73
4
 74
0
 40
0
 40
0
 40
0
 40
0
 40
1
 40
1
 40
1
 40
1
 10
4.365319
 20
137.141170
 30
0.0
 10
5.395659
 20
138.171500
 30
0.0
 10
5.750119
 20
139.081830
 30
0.0
 10
5.279339
 20
139.488550
 30
0.0
  0
SPLINE
  5
1fe
100
AcDbEntity
  8
Layer_1
 62
7
100
AcDbSpline
 70
8
 71
3
 72
8
 73
4
 74
0
 40
0
 40
0
 40
0
 40
0
 40
1
 40
1
 40
1
 40
1
 10
5.279339
 20
139.488550
 30
0.0
 10
4.856399
 20
139.853950
 30
0.0
 10
0.843249
 20
141.351520
 30
0.0
 10
-3.638771
 20
142.816480
 30
0.0
  0
LWPOLYLINE
  5
1ff
100
AcDbEntity
  8
Layer_1
 62
7
100
AcDbPolyline
 90
4
 70
0
 10
-78.972840
 20
134.873450
 30
0.0
 10
-74.444060
 20
134.841450
 30
0.0
 10
-70.441510
 20
138.005290
 30
0.0
 10
-70.441510
 20
138.005250
 30
0.0
  0
SPLINE
  5
200
100
AcDbEntity
  8
Layer_1
 62
7
100
AcDbSpline
 70
8
 71
3
 72
8
 73
4
 74
0
 40
0
 40
0
 40
0
 40
0
 40
1
 40
1
 40
1
 40
1
 10
-14.240211
 20
144.464260
 30
0.0
 10
-15.588991
 20
143.905580
 30
0.0
 10
-16.692531
 20
143.014840
 30
0.0
 10
-16.692531
 20
142.484850
 30
0.0
  0
SPLINE
  5
201
100
AcDbEntity
  8
Layer_1
 62
7
100
AcDbSpline
 70
8
 71
3
 72
8
 73
4
 74
0
 40
0
 40
0
 40
0
 40
0
 40
1
 40
1
 40
1
 40
1
 10
-16.692531
 20
142.484850
 30
0.0
 10
-16.692531
 20
141.954860
 30
0.0
 10
-15.882421
 20
140.786020
 30
0.0
 10
-14.892291
 20
139.887430
 30
0.0
  0
SPLINE
  5
202
100
AcDbEntity
  8
Layer_1
 62
7
100
AcDbSpline
 70
8
 71
3
 72
8
 73
4
 74
0
 40
0
 40
0
 40
0
 40
0
 40
1
 40
1
 40
1
 40
1
 10
-14.892291
 20
139.887430
 30
0.0
 10
-13.902151
 20
138.988840
 30
0.0
 10
-12.092891
 20
137.618590
 30
0.0
 10
-10.871701
 20
136.842420
 30
0.0
  0
SPLINE
  5
203
100
AcDbEntity
  8
Layer_1
 62
7
100
AcDbSpline
 70
8
 71
3
 72
8
 73
4
 74
0
 40
0
 40
0
 40
0
 40
0
 40
1
 40
1
 40
1
 40
1
 10
-10.871701
 20
136.842420
 30
0.0
 10
-9.650511
 20
136.066260
 30
0.0
 10
-7.490221
 20
135.188500
 30
0.0
 10
-6.071051
 20
134.891840
 30
0.0
  0
SPLINE
  5
204
100
AcDbEntity
  8
Layer_1
 62
7
100
AcDbSpline
 70
8
 71
3
 72
8
 73
4
 74
0
 40
0
 40
0
 40
0
 40
0
 40
1
 40
1
 40
1
 40
1
 10
-6.071051
 20
134.891840
 30
0.0
 10
-4.651881
 20
134.595170
 30
0.0
 10
-2.101801
 20
134.601230
 30
0.0
 10
-0.404211
 20
134.905240
 30
0.0
  0
SPLINE
  5
205
100
AcDbEntity
  8
Layer_1
 62
7
100
AcDbSpline
 70
8
 71
3
 72
8
 73
4
 74
0
 40
0
 40
0
 40
0
 40
0
 40
1
 40
1
 40
1
 40
1
 10
-0.404211
 20
134.905240
 30
0.0
 10
1.293379
 20
135.209310
 30
0.0
 10
3.439669
 20
136.215440
 30
0.0
 10
4.365319
 20
137.141110
 30
0.0
  0
LWPOLYLINE
  5
206
100
AcDbEntity
  8
Layer_1
 62
7
100
AcDbPolyline
 90
3
 70
0
 10
-3.638771
 20
142.816480
 30
0.0
 10
-11.787891
 20
145.480040
 30
0.0
 10
-14.240211
 20
144.464260
 30
0.0
  0
SPLINE
  5
207
100
AcDbEntity
  8
Layer_1
 62
7
100
AcDbSpline
 70
8
 71
3
 72
8
 73
4
 74
0
 40
0
 40
0
 40
0
 40
0
 40
1
 40
1
 40
1
 40
1
 10
-34.951171
 20
128.970870
 30
0.0
 10
-34.149151
 20
129.174930
 30
0.0
 10
-32.721851
 20
131.629580
 30
0.0
 10
-31.411961
 20
135.057530
 30
0.0
  0
SPLINE
  5
208
100
AcDbEntity
  8
Layer_1
 62
7
100
AcDbSpline
 70
8
 71
3
 72
8
 73
4
 74
0
 40
0
 40
0
 40
0
 40
0
 40
1
 40
1
 40
1
 40
1
 10
-31.411961
 20
135.057530
 30
0.0
 10
-30.204621
 20
138.217110
 30
0.0
 10
-28.559131
 20
143.307220
 30
0.0
 10
-27.755321
 20
146.368880
 30
0.0
  0
SPLINE
  5
209
100
AcDbEntity
  8
Layer_1
 62
7
100
AcDbSpline
 70
8
 71
3
 72
8
 73
4
 74
0
 40
0
 40
0
 40
0
 40
0
 40
1
 40
1
 40
1
 40
1
 10
-27.755321
 20
146.368880
 30
0.0
 10
-26.951501
 20
149.430540
 30
0.0
 10
-26.293841
 20
154.485850
 30
0.0
 10
-26.293841
 20
157.602890
 30
0.0
  0
SPLINE
  5
20a
100
AcDbEntity
  8
Layer_1
 62
7
100
AcDbSpline
 70
8
 71
3
 72
8
 73
4
 74
0
 40
0
 40
0
 40
0
 40
0
 40
1
 40
1
 40
1
 40
1
 10
-26.293841
 20
157.602890
 30
0.0
 10
-26.293841
 20
161.590220
 30
0.0
 10
-26.734251
 20
164.096690
 30
0.0
 10
-27.779491
 20
166.058140
 30
0.0
  0
SPLINE
  5
20b
100
AcDbEntity
  8
Layer_1
 62
7
100
AcDbSpline
 70
8
 71
3
 72
8
 73
4
 74
0
 40
0
 40
0
 40
0
 40
0
 40
1
 40
1
 40
1
 40
1
 10
-27.779491
 20
166.058140
 30
0.0
 10
-28.596611
 20
167.591490
 30
0.0
 10
-30.188531
 20
169.372100
 30
0.0
 10
-31.317081
 20
170.015050
 30
0.0
  0
LWPOLYLINE
  5
20c
100
AcDbEntity
  8
Layer_1
 62
7
100
AcDbPolyline
 90
1
 70
1
 10
4.365319
 20
137.141110
 30
0.0
  0
SPLINE
  5
20d
100
AcDbEntity
  8
Layer_1
 62
7
100
AcDbSpline
 70
8
 71
3
 72
8
 73
4
 74
0
 40
0
 40
0
 40
0
 40
0
 40
1
 40
1
 40
1
 40
1
 10
-47.489891
 20
170.042550
 30
0.0
 10
-48.989851
 20
170.845310
 30
0.0
 10
-49.954871
 20
170.894550
 30
0.0
 10
-51.388201
 20
170.241480
 30
0.0
  0
SPLINE
  5
20e
100
AcDbEntity
  8
Layer_1
 62
7
100
AcDbSpline
 70
8
 71
3
 72
8
 73
4
 74
0
 40
0
 40
0
 40
0
 40
0
 40
1
 40
1
 40
1
 40
1
 10
-51.388201
 20
170.241480
 30
0.0
 10
-52.435891
 20
169.764120
 30
0.0
 10
-54.059181
 20
167.791010
 30
0.0
 10
-54.995520
 20
165.856780
 30
0.0
  0
SPLINE
  5
20f
100
AcDbEntity
  8
Layer_1
 62
7
100
AcDbSpline
 70
8
 71
3
 72
8
 73
4
 74
0
 40
0
 40
0
 40
0
 40
0
 40
1
 40
1
 40
1
 40
1
 10
-54.995520
 20
165.856780
 30
0.0
 10
-56.052310
 20
163.673750
 30
0.0
 10
-56.697970
 20
160.786700
 30
0.0
 10
-56.697970
 20
158.244320
 30
0.0
  0
SPLINE
  5
210
100
AcDbEntity
  8
Layer_1
 62
7
100
AcDbSpline
 70
8
 71
3
 72
8
 73
4
 74
0
 40
0
 40
0
 40
0
 40
0
 40
1
 40
1
 40
1
 40
1
 10
-56.697970
 20
158.244320
 30
0.0
 10
-56.697970
 20
155.991700
 30
0.0
 10
-56.174670
 20
151.694770
 30
0.0
 10
-55.535080
 20
148.695600
 30
0.0
  0
SPLINE
  5
211
100
AcDbEntity
  8
Layer_1
 62
7
100
AcDbSpline
 70
8
 71
3
 72
8
 73
4
 74
0
 40
0
 40
0
 40
0
 40
0
 40
1
 40
1
 40
1
 40
1
 10
-55.535080
 20
148.695600
 30
0.0
 10
-54.895480
 20
145.696430
 30
0.0
 10
-53.492051
 20
140.677230
 30
0.0
 10
-52.416331
 20
137.541810
 30
0.0
  0
SPLINE
  5
212
100
AcDbEntity
  8
Layer_1
 62
7
100
AcDbSpline
 70
8
 71
3
 72
8
 73
4
 74
0
 40
0
 40
0
 40
0
 40
0
 40
1
 40
1
 40
1
 40
1
 10
-52.416331
 20
137.541810
 30
0.0
 10
-51.340611
 20
134.406400
 30
0.0
 10
-50.063641
 20
131.099560
 30
0.0
 10
-49.578611
 20
130.193260
 30
0.0
  0
LWPOLYLINE
  5
213
100
AcDbEntity
  8
Layer_1
 62
7
100
AcDbPolyline
 90
9
 70
0
 10
-31.317081
 20
170.015050
 30
0.0
 10
-33.369001
 20
171.184060
 30
0.0
 10
-35.432181
 20
170.079870
 30
0.0
 10
-37.495361
 20
168.975690
 30
0.0
 10
-39.495631
 20
170.046200
 30
0.0
 10
-41.495901
 20
171.116720
 30
0.0
 10
-43.496181
 20
170.046200
 30
0.0
 10
-45.496451
 20
168.975690
 30
0.0
 10
-47.489891
 20
170.042550
 30
0.0
  0
SPLINE
  5
214
100
AcDbEntity
  8
Layer_1
 62
7
100
AcDbSpline
 70
8
 71
3
 72
8
 73
4
 74
0
 40
0
 40
0
 40
0
 40
0
 40
1
 40
1
 40
1
 40
1
 10
-42.495971
 20
128.587160
 30
0.0
 10
-39.085541
 20
128.610160
 30
0.0
 10
-35.690381
 20
128.782760
 30
0.0
 10
-34.951171
 20
128.970850
 30
0.0
  0
LWPOLYLINE
  5
215
100
AcDbEntity
  8
Layer_1
 62
7
100
AcDbPolyline
 90
3
 70
0
 10
-49.578611
 20
130.193260
 30
0.0
 10
-48.696731
 20
128.545460
 30
0.0
 10
-42.495971
 20
128.587160
 30
0.0
  0
SPLINE
  5
216
100
AcDbEntity
  8
Layer_1
 62
7
100
AcDbSpline
 70
8
 71
3
 72
8
 73
4
 74
0
 40
0
 40
0
 40
0
 40
0
 40
1
 40
1
 40
1
 40
1
 10
-9.865911
 20
126.399440
 30
0.0
 10
-8.339841
 20
127.037080
 30
0.0
 10
-7.091231
 20
128.107980
 30
0.0
 10
-7.091231
 20
128.779220
 30
0.0
  0
SPLINE
  5
217
100
AcDbEntity
  8
Layer_1
 62
7
100
AcDbSpline
 70
8
 71
3
 72
8
 73
4
 74
0
 40
0
 40
0
 40
0
 40
0
 40
1
 40
1
 40
1
 40
1
 10
-7.091231
 20
128.779220
 30
0.0
 10
-7.091231
 20
129.450470
 30
0.0
 10
-8.081361
 20
130.513330
 30
0.0
 10
-9.291521
 20
131.141150
 30
0.0
  0
SPLINE
  5
218
100
AcDbEntity
  8
Layer_1
 62
7
100
AcDbSpline
 70
8
 71
3
 72
8
 73
4
 74
0
 40
0
 40
0
 40
0
 40
0
 40
1
 40
1
 40
1
 40
1
 10
-9.291521
 20
131.141150
 30
0.0
 10
-10.501691
 20
131.768960
 30
0.0
 10
-14.012171
 20
134.296540
 30
0.0
 10
-17.092591
 20
136.758000
 30
0.0
  0
SPLINE
  5
219
100
AcDbEntity
  8
Layer_1
 62
7
100
AcDbSpline
 70
8
 71
3
 72
8
 73
4
 74
0
 40
0
 40
0
 40
0
 40
0
 40
1
 40
1
 40
1
 40
1
 10
-17.092591
 20
136.758000
 30
0.0
 10
-20.173001
 20
139.219450
 30
0.0
 10
-23.130741
 20
141.235370
 30
0.0
 10
-23.665341
 20
141.237830
 30
0.0
  0
SPLINE
  5
21a
100
AcDbEntity
  8
Layer_1
 62
7
100
AcDbSpline
 70
8
 71
3
 72
8
 73
4
 74
0
 40
0
 40
0
 40
0
 40
0
 40
1
 40
1
 40
1
 40
1
 10
-23.665341
 20
141.237830
 30
0.0
 10
-24.199931
 20
141.239830
 30
0.0
 10
-25.012491
 20
140.541270
 30
0.0
 10
-25.471031
 20
139.684480
 30
0.0
  0
SPLINE
  5
21b
100
AcDbEntity
  8
Layer_1
 62
7
100
AcDbSpline
 70
8
 71
3
 72
8
 73
4
 74
0
 40
0
 40
0
 40
0
 40
0
 40
1
 40
1
 40
1
 40
1
 10
-25.471031
 20
139.684480
 30
0.0
 10
-25.929571
 20
138.827690
 30
0.0
 10
-26.375121
 20
137.276310
 30
0.0
 10
-26.461141
 20
136.236970
 30
0.0
  0
SPLINE
  5
21c
100
AcDbEntity
  8
Layer_1
 62
7
100
AcDbSpline
 70
8
 71
3
 72
8
 73
4
 74
0
 40
0
 40
0
 40
0
 40
0
 40
1
 40
1
 40
1
 40
1
 10
-26.461141
 20
136.236970
 30
0.0
 10
-26.547141
 20
135.197620
 30
0.0
 10
-25.554571
 20
132.867470
 30
0.0
 10
-24.255381
 20
131.058840
 30
0.0
  0
SPLINE
  5
21d
100
AcDbEntity
  8
Layer_1
 62
7
100
AcDbSpline
 70
8
 71
3
 72
8
 73
4
 74
0
 40
0
 40
0
 40
0
 40
0
 40
1
 40
1
 40
1
 40
1
 10
-24.255381
 20
131.058840
 30
0.0
 10
-22.956211
 20
129.250210
 30
0.0
 10
-20.993121
 20
127.210680
 30
0.0
 10
-19.892971
 20
126.526560
 30
0.0
  0
SPLINE
  5
21e
100
AcDbEntity
  8
Layer_1
 62
7
100
AcDbSpline
 70
8
 71
3
 72
8
 73
4
 74
0
 40
0
 40
0
 40
0
 40
0
 40
1
 40
1
 40
1
 40
1
 10
-19.892971
 20
126.526560
 30
0.0
 10
-18.792821
 20
125.842430
 30
0.0
 10
-16.710971
 20
125.273110
 30
0.0
 10
-15.266641
 20
125.261400
 30
0.0
  0
SPLINE
  5
21f
100
AcDbEntity
  8
Layer_1
 62
7
100
AcDbSpline
 70
8
 71
3
 72
8
 73
4
 74
0
 40
0
 40
0
 40
0
 40
0
 40
1
 40
1
 40
1
 40
1
 10
-15.266641
 20
125.261400
 30
0.0
 10
-13.822321
 20
125.249700
 30
0.0
 10
-11.391991
 20
125.761810
 30
0.0
 10
-9.865911
 20
126.399440
 30
0.0
  0
LWPOLYLINE
  5
220
100
AcDbEntity
  8
Layer_1
 62
7
100
AcDbPolyline
 90
1
 70
1
 10
-34.951171
 20
128.970850
 30
0.0
  0
SPLINE
  5
221
100
AcDbEntity
  8
Layer_1
 62
7
100
AcDbSpline
 70
8
 71
3
 72
8
 73
4
 74
0
 40
0
 40
0
 40
0
 40
0
 40
1
 40
1
 40
1
 40
1
 10
-62.561870
 20
126.793180
 30
0.0
 10
-61.166390
 20
127.644080
 30
0.0
 10
-59.079050
 20
129.953780
 30
0.0
 10
-57.923330
 20
131.925850
 30
0.0
  0
LWPOLYLINE
  5
222
100
AcDbEntity
  8
Layer_1
 62
7
100
AcDbPolyline
 90
1
 70
1
 10
-9.865911
 20
126.399440
 30
0.0
  0
SPLINE
  5
223
100
AcDbEntity
  8
Layer_1
 62
7
100
AcDbSpline
 70
8
 71
3
 72
8
 73
4
 74
0
 40
0
 40
0
 40
0
 40
0
 40
1
 40
1
 40
1
 40
1
 10
-57.019290
 20
138.376870
 30
0.0
 10
-57.677770
 20
139.952850
 30
0.0
 10
-58.684970
 20
141.240280
 30
0.0
 10
-59.257500
 20
141.237830
 30
0.0
  0
SPLINE
  5
224
100
AcDbEntity
  8
Layer_1
 62
7
100
AcDbSpline
 70
8
 71
3
 72
8
 73
4
 74
0
 40
0
 40
0
 40
0
 40
0
 40
1
 40
1
 40
1
 40
1
 10
-59.257500
 20
141.237830
 30
0.0
 10
-59.830030
 20
141.235830
 30
0.0
 10
-62.815330
 20
139.224340
 30
0.0
 10
-65.891510
 20
136.768860
 30
0.0
  0
SPLINE
  5
225
100
AcDbEntity
  8
Layer_1
 62
7
100
AcDbSpline
 70
8
 71
3
 72
8
 73
4
 74
0
 40
0
 40
0
 40
0
 40
0
 40
1
 40
1
 40
1
 40
1
 10
-65.891510
 20
136.768860
 30
0.0
 10
-68.967690
 20
134.313380
 30
0.0
 10
-72.478170
 20
131.717420
 30
0.0
 10
-73.692570
 20
131.000050
 30
0.0
  0
SPLINE
  5
226
100
AcDbEntity
  8
Layer_1
 62
7
100
AcDbSpline
 70
8
 71
3
 72
8
 73
4
 74
0
 40
0
 40
0
 40
0
 40
0
 40
1
 40
1
 40
1
 40
1
 10
-73.692570
 20
131.000050
 30
0.0
 10
-74.906980
 20
130.282680
 30
0.0
 10
-75.900580
 20
129.215920
 30
0.0
 10
-75.900580
 20
128.629470
 30
0.0
  0
SPLINE
  5
227
100
AcDbEntity
  8
Layer_1
 62
7
100
AcDbSpline
 70
8
 71
3
 72
8
 73
4
 74
0
 40
0
 40
0
 40
0
 40
0
 40
1
 40
1
 40
1
 40
1
 10
-75.900580
 20
128.629470
 30
0.0
 10
-75.900580
 20
128.043010
 30
0.0
 10
-74.730420
 20
127.054590
 30
0.0
 10
-73.300230
 20
126.432970
 30
0.0
  0
SPLINE
  5
228
100
AcDbEntity
  8
Layer_1
 62
7
100
AcDbSpline
 70
8
 71
3
 72
8
 73
4
 74
0
 40
0
 40
0
 40
0
 40
0
 40
1
 40
1
 40
1
 40
1
 10
-73.300230
 20
126.432970
 30
0.0
 10
-71.870030
 20
125.811350
 30
0.0
 10
-69.439700
 20
125.290000
 30
0.0
 10
-67.899490
 20
125.274420
 30
0.0
  0
SPLINE
  5
229
100
AcDbEntity
  8
Layer_1
 62
7
100
AcDbSpline
 70
8
 71
3
 72
8
 73
4
 74
0
 40
0
 40
0
 40
0
 40
0
 40
1
 40
1
 40
1
 40
1
 10
-67.899490
 20
125.274420
 30
0.0
 10
-66.359280
 20
125.258820
 30
0.0
 10
-63.957350
 20
125.942280
 30
0.0
 10
-62.561870
 20
126.793180
 30
0.0
  0
LWPOLYLINE
  5
22a
100
AcDbEntity
  8
Layer_1
 62
7
100
AcDbPolyline
 90
3
 70
0
 10
-57.923330
 20
131.925850
 30
0.0
 10
-55.822040
 20
135.511440
 30
0.0
 10
-57.019290
 20
138.376870
 30
0.0
  0
SPLINE
  5
22b
100
AcDbEntity
  8
Layer_1
 62
7
100
AcDbSpline
 70
8
 71
3
 72
8
 73
4
 74
0
 40
0
 40
0
 40
0
 40
0
 40
1
 40
1
 40
1
 40
1
 10
26.845318
 20
125.724750
 30
0.0
 10
27.542848
 20
125.992420
 30
0.0
 10
28.113558
 20
126.650210
 30
0.0
 10
28.113558
 20
127.186510
 30
0.0
  0
SPLINE
  5
22c
100
AcDbEntity
  8
Layer_1
 62
7
100
AcDbSpline
 70
8
 71
3
 72
8
 73
4
 74
0
 40
0
 40
0
 40
0
 40
0
 40
1
 40
1
 40
1
 40
1
 10
28.113558
 20
127.186510
 30
0.0
 10
28.113558
 20
127.722820
 30
0.0
 10
27.303448
 20
128.903830
 30
0.0
 10
26.313318
 20
129.811000
 30
0.0
  0
SPLINE
  5
22d
100
AcDbEntity
  8
Layer_1
 62
7
100
AcDbSpline
 70
8
 71
3
 72
8
 73
4
 74
0
 40
0
 40
0
 40
0
 40
0
 40
1
 40
1
 40
1
 40
1
 10
26.313318
 20
129.811000
 30
0.0
 10
25.323178
 20
130.718170
 30
0.0
 10
22.997208
 20
132.221120
 30
0.0
 10
21.144488
 20
133.150910
 30
0.0
  0
SPLINE
  5
22e
100
AcDbEntity
  8
Layer_1
 62
7
100
AcDbSpline
 70
8
 71
3
 72
8
 73
4
 74
0
 40
0
 40
0
 40
0
 40
0
 40
1
 40
1
 40
1
 40
1
 10
21.144488
 20
133.150910
 30
0.0
 10
19.196288
 20
134.128590
 30
0.0
 10
16.244278
 20
134.841420
 30
0.0
 10
14.143529
 20
134.841420
 30
0.0
  0
SPLINE
  5
22f
100
AcDbEntity
  8
Layer_1
 62
7
100
AcDbSpline
 70
8
 71
3
 72
8
 73
4
 74
0
 40
0
 40
0
 40
0
 40
0
 40
1
 40
1
 40
1
 40
1
 10
14.143529
 20
134.841420
 30
0.0
 10
11.564259
 20
134.841420
 30
0.0
 10
10.041919
 20
134.372170
 30
0.0
 10
8.892609
 20
133.222860
 30
0.0
  0
SPLINE
  5
230
100
AcDbEntity
  8
Layer_1
 62
7
100
AcDbSpline
 70
8
 71
3
 72
8
 73
4
 74
0
 40
0
 40
0
 40
0
 40
0
 40
1
 40
1
 40
1
 40
1
 10
8.892609
 20
133.222860
 30
0.0
 10
7.672979
 20
132.003230
 30
0.0
 10
7.465019
 20
131.247500
 30
0.0
 10
8.048819
 20
130.156650
 30
0.0
  0
SPLINE
  5
231
100
AcDbEntity
  8
Layer_1
 62
7
100
AcDbSpline
 70
8
 71
3
 72
8
 73
4
 74
0
 40
0
 40
0
 40
0
 40
0
 40
1
 40
1
 40
1
 40
1
 10
8.048819
 20
130.156650
 30
0.0
 10
8.474939
 20
129.360440
 30
0.0
 10
9.379899
 20
128.247290
 30
0.0
 10
10.059849
 20
127.682990
 30
0.0
  0
SPLINE
  5
232
100
AcDbEntity
  8
Layer_1
 62
7
100
AcDbSpline
 70
8
 71
3
 72
8
 73
4
 74
0
 40
0
 40
0
 40
0
 40
0
 40
1
 40
1
 40
1
 40
1
 10
10.059849
 20
127.682990
 30
0.0
 10
10.739789
 20
127.118680
 30
0.0
 10
12.649709
 20
126.153630
 30
0.0
 10
14.304099
 20
125.538420
 30
0.0
  0
SPLINE
  5
233
100
AcDbEntity
  8
Layer_1
 62
7
100
AcDbSpline
 70
8
 71
3
 72
8
 73
4
 74
0
 40
0
 40
0
 40
0
 40
0
 40
1
 40
1
 40
1
 40
1
 10
14.304099
 20
125.538420
 30
0.0
 10
16.162878
 20
124.847200
 30
0.0
 10
18.890918
 20
124.576160
 30
0.0
 10
21.444588
 20
124.828970
 30
0.0
  0
SPLINE
  5
234
100
AcDbEntity
  8
Layer_1
 62
7
100
AcDbSpline
 70
8
 71
3
 72
8
 73
4
 74
0
 40
0
 40
0
 40
0
 40
0
 40
1
 40
1
 40
1
 40
1
 10
21.444588
 20
124.828970
 30
0.0
 10
23.717458
 20
125.053990
 30
0.0
 10
26.147788
 20
125.457090
 30
0.0
 10
26.845318
 20
125.724750
 30
0.0
  0
LWPOLYLINE
  5
235
100
AcDbEntity
  8
Layer_1
 62
7
100
AcDbPolyline
 90
1
 70
1
 10
-62.561870
 20
126.793180
 30
0.0
  0
SPLINE
  5
236
100
AcDbEntity
  8
Layer_1
 62
7
100
AcDbSpline
 70
8
 71
3
 72
8
 73
4
 74
0
 40
0
 40
0
 40
0
 40
0
 40
1
 40
1
 40
1
 40
1
 10
-97.422890
 20
125.348970
 30
0.0
 10
-95.927020
 20
125.848910
 30
0.0
 10
-93.713000
 20
127.176450
 30
0.0
 10
-92.502840
 20
128.299050
 30
0.0
  0
SPLINE
  5
237
100
AcDbEntity
  8
Layer_1
 62
7
100
AcDbSpline
 70
8
 71
3
 72
8
 73
4
 74
0
 40
0
 40
0
 40
0
 40
0
 40
1
 40
1
 40
1
 40
1
 10
-92.502840
 20
128.299050
 30
0.0
 10
-91.292670
 20
129.421660
 30
0.0
 10
-90.302540
 20
130.694500
 30
0.0
 10
-90.302540
 20
131.127590
 30
0.0
  0
SPLINE
  5
238
100
AcDbEntity
  8
Layer_1
 62
7
100
AcDbSpline
 70
8
 71
3
 72
8
 73
4
 74
0
 40
0
 40
0
 40
0
 40
0
 40
1
 40
1
 40
1
 40
1
 10
-90.302540
 20
131.127590
 30
0.0
 10
-90.302540
 20
131.560680
 30
0.0
 10
-90.898420
 20
132.573470
 30
0.0
 10
-91.626710
 20
133.378230
 30
0.0
  0
SPLINE
  5
239
100
AcDbEntity
  8
Layer_1
 62
7
100
AcDbSpline
 70
8
 71
3
 72
8
 73
4
 74
0
 40
0
 40
0
 40
0
 40
0
 40
1
 40
1
 40
1
 40
1
 10
-91.626710
 20
133.378230
 30
0.0
 10
-92.565970
 20
134.416090
 30
0.0
 10
-94.089260
 20
134.841420
 30
0.0
 10
-96.867150
 20
134.841420
 30
0.0
  0
SPLINE
  5
23a
100
AcDbEntity
  8
Layer_1
 62
7
100
AcDbSpline
 70
8
 71
3
 72
8
 73
4
 74
0
 40
0
 40
0
 40
0
 40
0
 40
1
 40
1
 40
1
 40
1
 10
-96.867150
 20
134.841420
 30
0.0
 10
-99.021100
 20
134.841420
 30
0.0
 10
-101.935700
 20
134.258840
 30
0.0
 10
-103.344040
 20
133.546800
 30
0.0
  0
SPLINE
  5
23b
100
AcDbEntity
  8
Layer_1
 62
7
100
AcDbSpline
 70
8
 71
3
 72
8
 73
4
 74
0
 40
0
 40
0
 40
0
 40
0
 40
1
 40
1
 40
1
 40
1
 10
-103.344040
 20
133.546800
 30
0.0
 10
-104.752380
 20
132.834760
 30
0.0
 10
-107.074820
 20
131.376230
 30
0.0
 10
-108.505010
 20
130.305640
 30
0.0
  0
SPLINE
  5
23c
100
AcDbEntity
  8
Layer_1
 62
7
100
AcDbSpline
 70
8
 71
3
 72
8
 73
4
 74
0
 40
0
 40
0
 40
0
 40
0
 40
1
 40
1
 40
1
 40
1
 10
-108.505010
 20
130.305640
 30
0.0
 10
-109.935210
 20
129.235050
 30
0.0
 10
-111.105370
 20
127.873120
 30
0.0
 10
-111.105370
 20
127.279150
 30
0.0
  0
SPLINE
  5
23d
100
AcDbEntity
  8
Layer_1
 62
7
100
AcDbSpline
 70
8
 71
3
 72
8
 73
4
 74
0
 40
0
 40
0
 40
0
 40
0
 40
1
 40
1
 40
1
 40
1
 10
-111.105370
 20
127.279150
 30
0.0
 10
-111.105370
 20
126.685160
 30
0.0
 10
-109.755180
 20
125.840580
 30
0.0
 10
-108.104960
 20
125.402280
 30
0.0
  0
SPLINE
  5
23e
100
AcDbEntity
  8
Layer_1
 62
7
100
AcDbSpline
 70
8
 71
3
 72
8
 73
4
 74
0
 40
0
 40
0
 40
0
 40
0
 40
1
 40
1
 40
1
 40
1
 10
-108.104960
 20
125.402280
 30
0.0
 10
-106.454740
 20
124.963990
 30
0.0
 10
-103.988120
 20
124.568180
 30
0.0
 10
-102.623590
 20
124.522690
 30
0.0
  0
SPLINE
  5
23f
100
AcDbEntity
  8
Layer_1
 62
7
100
AcDbSpline
 70
8
 71
3
 72
8
 73
4
 74
0
 40
0
 40
0
 40
0
 40
0
 40
1
 40
1
 40
1
 40
1
 10
-102.623590
 20
124.522690
 30
0.0
 10
-101.259070
 20
124.477290
 30
0.0
 10
-98.918750
 20
124.849040
 30
0.0
 10
-97.422890
 20
125.348970
 30
0.0
  0
LWPOLYLINE
  5
240
100
AcDbEntity
  8
Layer_1
 62
7
100
AcDbPolyline
 90
1
 70
1
 10
26.845318
 20
125.724750
 30
0.0
  0
LWPOLYLINE
  5
241
100
AcDbEntity
  8
Layer_1
 62
7
100
AcDbPolyline
 90
1
 70
1
 10
-97.422890
 20
125.348970
 30
0.0
  0
SPLINE
  5
242
100
AcDbEntity
  8
Layer_1
 62
7
100
AcDbSpline
 70
8
 71
3
 72
8
 73
4
 74
0
 40
0
 40
0
 40
0
 40
0
 40
1
 40
1
 40
1
 40
1
 10
-36.876631
 20
125.764390
 30
0.0
 10
-37.572531
 20
126.460300
 30
0.0
 10
-38.536511
 20
126.785800
 30
0.0
 10
-39.018801
 20
126.487730
 30
0.0
  0
SPLINE
  5
243
100
AcDbEntity
  8
Layer_1
 62
7
100
AcDbSpline
 70
8
 71
3
 72
8
 73
4
 74
0
 40
0
 40
0
 40
0
 40
0
 40
1
 40
1
 40
1
 40
1
 10
-39.018801
 20
126.487730
 30
0.0
 10
-39.501091
 20
126.189660
 30
0.0
 10
-39.895691
 20
124.706850
 30
0.0
 10
-39.895691
 20
123.192620
 30
0.0
  0
SPLINE
  5
244
100
AcDbEntity
  8
Layer_1
 62
7
100
AcDbSpline
 70
8
 71
3
 72
8
 73
4
 74
0
 40
0
 40
0
 40
0
 40
0
 40
1
 40
1
 40
1
 40
1
 10
-39.895691
 20
123.192620
 30
0.0
 10
-39.895691
 20
121.261530
 30
0.0
 10
-39.532201
 20
120.439460
 30
0.0
 10
-38.678371
 20
120.439460
 30
0.0
  0
SPLINE
  5
245
100
AcDbEntity
  8
Layer_1
 62
7
100
AcDbSpline
 70
8
 71
3
 72
8
 73
4
 74
0
 40
0
 40
0
 40
0
 40
0
 40
1
 40
1
 40
1
 40
1
 10
-38.678371
 20
120.439460
 30
0.0
 10
-38.008851
 20
120.439460
 30
0.0
 10
-37.044871
 20
121.352880
 30
0.0
 10
-36.536211
 20
122.469290
 30
0.0
  0
LWPOLYLINE
  5
246
100
AcDbEntity
  8
Layer_1
 62
7
100
AcDbPolyline
 90
3
 70
0
 10
-36.536211
 20
122.469290
 30
0.0
 10
-35.611351
 20
124.499110
 30
0.0
 10
-36.876631
 20
125.764390
 30
0.0
  0
SPLINE
  5
247
100
AcDbEntity
  8
Layer_1
 62
7
100
AcDbSpline
 70
8
 71
3
 72
8
 73
4
 74
0
 40
0
 40
0
 40
0
 40
0
 40
1
 40
1
 40
1
 40
1
 10
-42.736221
 20
122.564590
 30
0.0
 10
-42.380261
 20
123.982840
 30
0.0
 10
-42.604201
 20
125.091100
 30
0.0
 10
-43.409441
 20
125.896330
 30
0.0
  0
LWPOLYLINE
  5
248
100
AcDbEntity
  8
Layer_1
 62
7
100
AcDbPolyline
 90
1
 70
1
 10
-36.536211
 20
122.469290
 30
0.0
  0
SPLINE
  5
249
100
AcDbEntity
  8
Layer_1
 62
7
100
AcDbSpline
 70
8
 71
3
 72
8
 73
4
 74
0
 40
0
 40
0
 40
0
 40
0
 40
1
 40
1
 40
1
 40
1
 10
-45.856341
 20
126.073540
 30
0.0
 10
-46.538531
 20
125.507390
 30
0.0
 10
-47.096671
 20
124.666540
 30
0.0
 10
-47.096671
 20
124.205010
 30
0.0
  0
SPLINE
  5
24a
100
AcDbEntity
  8
Layer_1
 62
7
100
AcDbSpline
 70
8
 71
3
 72
8
 73
4
 74
0
 40
0
 40
0
 40
0
 40
0
 40
1
 40
1
 40
1
 40
1
 10
-47.096671
 20
124.205010
 30
0.0
 10
-47.096671
 20
123.743470
 30
0.0
 10
-46.500791
 20
122.707410
 30
0.0
 10
-45.772491
 20
121.902650
 30
0.0
  0
SPLINE
  5
24b
100
AcDbEntity
  8
Layer_1
 62
7
100
AcDbSpline
 70
8
 71
3
 72
8
 73
4
 74
0
 40
0
 40
0
 40
0
 40
0
 40
1
 40
1
 40
1
 40
1
 10
-45.772491
 20
121.902650
 30
0.0
 10
-45.044201
 20
121.097890
 30
0.0
 10
-44.183111
 20
120.439460
 30
0.0
 10
-43.858961
 20
120.439460
 30
0.0
  0
SPLINE
  5
24c
100
AcDbEntity
  8
Layer_1
 62
7
100
AcDbSpline
 70
8
 71
3
 72
8
 73
4
 74
0
 40
0
 40
0
 40
0
 40
0
 40
1
 40
1
 40
1
 40
1
 10
-43.858961
 20
120.439460
 30
0.0
 10
-43.534811
 20
120.439460
 30
0.0
 10
-43.029581
 20
121.395770
 30
0.0
 10
-42.736221
 20
122.564590
 30
0.0
  0
LWPOLYLINE
  5
24d
100
AcDbEntity
  8
Layer_1
 62
7
100
AcDbPolyline
 90
3
 70
0
 10
-43.409441
 20
125.896330
 30
0.0
 10
-44.616021
 20
127.102920
 30
0.0
 10
-45.856341
 20
126.073540
 30
0.0
  0
SPLINE
  5
24e
100
AcDbEntity
  8
Layer_1
 62
7
100
AcDbSpline
 70
8
 71
3
 72
8
 73
4
 74
0
 40
0
 40
0
 40
0
 40
0
 40
1
 40
1
 40
1
 40
1
 10
-30.445861
 20
123.093950
 30
0.0
 10
-30.606051
 20
124.219200
 30
0.0
 10
-31.259521
 20
124.840060
 30
0.0
 10
-32.283691
 20
124.840060
 30
0.0
  0
SPLINE
  5
24f
100
AcDbEntity
  8
Layer_1
 62
7
100
AcDbSpline
 70
8
 71
3
 72
8
 73
4
 74
0
 40
0
 40
0
 40
0
 40
0
 40
1
 40
1
 40
1
 40
1
 10
-32.283691
 20
124.840060
 30
0.0
 10
-33.180701
 20
124.840060
 30
0.0
 10
-33.994331
 20
124.209800
 30
0.0
 10
-34.151611
 20
123.393130
 30
0.0
  0
SPLINE
  5
250
100
AcDbEntity
  8
Layer_1
 62
7
100
AcDbSpline
 70
8
 71
3
 72
8
 73
4
 74
0
 40
0
 40
0
 40
0
 40
0
 40
1
 40
1
 40
1
 40
1
 10
-34.151611
 20
123.393130
 30
0.0
 10
-34.304871
 20
122.597320
 30
0.0
 10
-34.225111
 20
121.411630
 30
0.0
 10
-33.974411
 20
120.758270
 30
0.0
  0
SPLINE
  5
251
100
AcDbEntity
  8
Layer_1
 62
7
100
AcDbSpline
 70
8
 71
3
 72
8
 73
4
 74
0
 40
0
 40
0
 40
0
 40
0
 40
1
 40
1
 40
1
 40
1
 10
-33.974411
 20
120.758270
 30
0.0
 10
-33.613621
 20
119.818090
 30
0.0
 10
-33.172221
 20
119.755690
 30
0.0
 10
-31.857911
 20
120.459090
 30
0.0
  0
SPLINE
  5
252
100
AcDbEntity
  8
Layer_1
 62
7
100
AcDbSpline
 70
8
 71
3
 72
8
 73
4
 74
0
 40
0
 40
0
 40
0
 40
0
 40
1
 40
1
 40
1
 40
1
 10
-31.857911
 20
120.459090
 30
0.0
 10
-30.792461
 20
121.029300
 30
0.0
 10
-30.286361
 20
121.973670
 30
0.0
 10
-30.445861
 20
123.093950
 30
0.0
  0
LWPOLYLINE
  5
253
100
AcDbEntity
  8
Layer_1
 62
7
100
AcDbPolyline
 90
1
 70
1
 10
-42.736221
 20
122.564590
 30
0.0
  0
LWPOLYLINE
  5
254
100
AcDbEntity
  8
Layer_1
 62
7
100
AcDbPolyline
 90
1
 70
1
 10
-30.445861
 20
123.093950
 30
0.0
  0
SPLINE
  5
255
100
AcDbEntity
  8
Layer_1
 62
7
100
AcDbSpline
 70
8
 71
3
 72
8
 73
4
 74
0
 40
0
 40
0
 40
0
 40
0
 40
1
 40
1
 40
1
 40
1
 10
-50.488951
 20
125.095730
 30
0.0
 10
-51.474601
 20
124.955110
 30
0.0
 10
-52.392701
 20
124.253670
 30
0.0
 10
-52.529191
 20
123.536980
 30
0.0
  0
SPLINE
  5
256
100
AcDbEntity
  8
Layer_1
 62
7
100
AcDbSpline
 70
8
 71
3
 72
8
 73
4
 74
0
 40
0
 40
0
 40
0
 40
0
 40
1
 40
1
 40
1
 40
1
 10
-52.529191
 20
123.536980
 30
0.0
 10
-52.665681
 20
122.820290
 30
0.0
 10
-52.190271
 20
121.646820
 30
0.0
 10
-51.472721
 20
120.929280
 30
0.0
  0
SPLINE
  5
257
100
AcDbEntity
  8
Layer_1
 62
7
100
AcDbSpline
 70
8
 71
3
 72
8
 73
4
 74
0
 40
0
 40
0
 40
0
 40
0
 40
1
 40
1
 40
1
 40
1
 10
-51.472721
 20
120.929280
 30
0.0
 10
-50.755181
 20
120.211720
 30
0.0
 10
-49.837071
 20
119.829220
 30
0.0
 10
-49.432491
 20
120.079270
 30
0.0
  0
SPLINE
  5
258
100
AcDbEntity
  8
Layer_1
 62
7
100
AcDbSpline
 70
8
 71
3
 72
8
 73
4
 74
0
 40
0
 40
0
 40
0
 40
0
 40
1
 40
1
 40
1
 40
1
 10
-49.432491
 20
120.079270
 30
0.0
 10
-49.027901
 20
120.329310
 30
0.0
 10
-48.696881
 20
121.617830
 30
0.0
 10
-48.696881
 20
122.942650
 30
0.0
  0
LWPOLYLINE
  5
259
100
AcDbEntity
  8
Layer_1
 62
7
100
AcDbPolyline
 90
3
 70
0
 10
-48.696881
 20
122.942650
 30
0.0
 10
-48.696881
 20
125.351410
 30
0.0
 10
-50.488951
 20
125.095730
 30
0.0
  0
SPLINE
  5
25a
100
AcDbEntity
  8
Layer_1
 62
7
100
AcDbSpline
 70
8
 71
3
 72
8
 73
4
 74
0
 40
0
 40
0
 40
0
 40
0
 40
1
 40
1
 40
1
 40
1
 10
-25.229561
 20
120.773900
 30
0.0
 10
-25.016221
 20
121.329860
 30
0.0
 10
-25.132061
 20
122.254610
 30
0.0
 10
-25.487011
 20
122.828900
 30
0.0
  0
SPLINE
  5
25b
100
AcDbEntity
  8
Layer_1
 62
7
100
AcDbSpline
 70
8
 71
3
 72
8
 73
4
 74
0
 40
0
 40
0
 40
0
 40
0
 40
1
 40
1
 40
1
 40
1
 10
-25.487011
 20
122.828900
 30
0.0
 10
-25.841941
 20
123.403200
 30
0.0
 10
-26.708751
 20
123.651880
 30
0.0
 10
-27.413251
 20
123.381540
 30
0.0
  0
SPLINE
  5
25c
100
AcDbEntity
  8
Layer_1
 62
7
100
AcDbSpline
 70
8
 71
3
 72
8
 73
4
 74
0
 40
0
 40
0
 40
0
 40
0
 40
1
 40
1
 40
1
 40
1
 10
-27.413251
 20
123.381540
 30
0.0
 10
-28.117751
 20
123.111200
 30
0.0
 10
-28.694161
 20
122.218620
 30
0.0
 10
-28.694161
 20
121.398030
 30
0.0
  0
SPLINE
  5
25d
100
AcDbEntity
  8
Layer_1
 62
7
100
AcDbSpline
 70
8
 71
3
 72
8
 73
4
 74
0
 40
0
 40
0
 40
0
 40
0
 40
1
 40
1
 40
1
 40
1
 10
-28.694161
 20
121.398030
 30
0.0
 10
-28.694161
 20
120.577440
 30
0.0
 10
-28.478941
 20
119.690830
 30
0.0
 10
-28.215881
 20
119.427780
 30
0.0
  0
SPLINE
  5
25e
100
AcDbEntity
  8
Layer_1
 62
7
100
AcDbSpline
 70
8
 71
3
 72
8
 73
4
 74
0
 40
0
 40
0
 40
0
 40
0
 40
1
 40
1
 40
1
 40
1
 10
-28.215881
 20
119.427780
 30
0.0
 10
-27.952831
 20
119.164720
 30
0.0
 10
-27.260581
 20
119.132550
 30
0.0
 10
-26.677531
 20
119.356380
 30
0.0
  0
SPLINE
  5
25f
100
AcDbEntity
  8
Layer_1
 62
7
100
AcDbSpline
 70
8
 71
3
 72
8
 73
4
 74
0
 40
0
 40
0
 40
0
 40
0
 40
1
 40
1
 40
1
 40
1
 10
-26.677531
 20
119.356380
 30
0.0
 10
-26.094491
 20
119.580110
 30
0.0
 10
-25.442901
 20
120.218040
 30
0.0
 10
-25.229561
 20
120.773990
 30
0.0
  0
LWPOLYLINE
  5
260
100
AcDbEntity
  8
Layer_1
 62
7
100
AcDbPolyline
 90
1
 70
1
 10
-48.696881
 20
122.942650
 30
0.0
  0
SPLINE
  5
261
100
AcDbEntity
  8
Layer_1
 62
7
100
AcDbSpline
 70
8
 71
3
 72
8
 73
4
 74
0
 40
0
 40
0
 40
0
 40
0
 40
1
 40
1
 40
1
 40
1
 10
-54.422641
 20
121.688360
 30
0.0
 10
-54.573921
 20
122.468740
 30
0.0
 10
-55.147570
 20
123.257020
 30
0.0
 10
-55.697410
 20
123.440100
 30
0.0
  0
SPLINE
  5
262
100
AcDbEntity
  8
Layer_1
 62
7
100
AcDbSpline
 70
8
 71
3
 72
8
 73
4
 74
0
 40
0
 40
0
 40
0
 40
0
 40
1
 40
1
 40
1
 40
1
 10
-55.697410
 20
123.440100
 30
0.0
 10
-56.247250
 20
123.623180
 30
0.0
 10
-56.917620
 20
123.198360
 30
0.0
 10
-57.187120
 20
122.496070
 30
0.0
  0
SPLINE
  5
263
100
AcDbEntity
  8
Layer_1
 62
7
100
AcDbSpline
 70
8
 71
3
 72
8
 73
4
 74
0
 40
0
 40
0
 40
0
 40
0
 40
1
 40
1
 40
1
 40
1
 10
-57.187120
 20
122.496070
 30
0.0
 10
-57.456610
 20
121.793790
 30
0.0
 10
-57.220020
 20
120.668440
 30
0.0
 10
-56.661370
 20
119.995300
 30
0.0
  0
SPLINE
  5
264
100
AcDbEntity
  8
Layer_1
 62
7
100
AcDbSpline
 70
8
 71
3
 72
8
 73
4
 74
0
 40
0
 40
0
 40
0
 40
0
 40
1
 40
1
 40
1
 40
1
 10
-56.661370
 20
119.995300
 30
0.0
 10
-56.030390
 20
119.235020
 30
0.0
 10
-55.361910
 20
119.055150
 30
0.0
 10
-54.896610
 20
119.520450
 30
0.0
  0
SPLINE
  5
265
100
AcDbEntity
  8
Layer_1
 62
7
100
AcDbSpline
 70
8
 71
3
 72
8
 73
4
 74
0
 40
0
 40
0
 40
0
 40
0
 40
1
 40
1
 40
1
 40
1
 10
-54.896610
 20
119.520450
 30
0.0
 10
-54.484641
 20
119.932420
 30
0.0
 10
-54.271351
 20
120.907980
 30
0.0
 10
-54.422641
 20
121.688360
 30
0.0
  0
LWPOLYLINE
  5
266
100
AcDbEntity
  8
Layer_1
 62
7
100
AcDbPolyline
 90
1
 70
1
 10
-25.229561
 20
120.773990
 30
0.0
  0
SPLINE
  5
267
100
AcDbEntity
  8
Layer_1
 62
7
100
AcDbSpline
 70
8
 71
3
 72
8
 73
4
 74
0
 40
0
 40
0
 40
0
 40
0
 40
1
 40
1
 40
1
 40
1
 10
17.506808
 20
114.611380
 30
0.0
 10
17.683088
 20
115.146460
 30
0.0
 10
16.091168
 20
117.448350
 30
0.0
 10
13.969209
 20
119.726700
 30
0.0
  0
SPLINE
  5
268
100
AcDbEntity
  8
Layer_1
 62
7
100
AcDbSpline
 70
8
 71
3
 72
8
 73
4
 74
0
 40
0
 40
0
 40
0
 40
0
 40
1
 40
1
 40
1
 40
1
 10
13.969209
 20
119.726700
 30
0.0
 10
11.847259
 20
122.005050
 30
0.0
 10
8.952519
 20
124.357640
 30
0.0
 10
7.536459
 20
124.954690
 30
0.0
  0
SPLINE
  5
269
100
AcDbEntity
  8
Layer_1
 62
7
100
AcDbSpline
 70
8
 71
3
 72
8
 73
4
 74
0
 40
0
 40
0
 40
0
 40
0
 40
1
 40
1
 40
1
 40
1
 10
7.536459
 20
124.954690
 30
0.0
 10
6.120389
 20
125.551730
 30
0.0
 10
3.846419
 20
126.040220
 30
0.0
 10
2.483179
 20
126.040220
 30
0.0
  0
SPLINE
  5
26a
100
AcDbEntity
  8
Layer_1
 62
7
100
AcDbSpline
 70
8
 71
3
 72
8
 73
4
 74
0
 40
0
 40
0
 40
0
 40
0
 40
1
 40
1
 40
1
 40
1
 10
2.483179
 20
126.040220
 30
0.0
 10
1.119929
 20
126.040220
 30
0.0
 10
-0.691881
 20
125.667500
 30
0.0
 10
-1.543061
 20
125.211960
 30
0.0
  0
SPLINE
  5
26b
100
AcDbEntity
  8
Layer_1
 62
7
100
AcDbSpline
 70
8
 71
3
 72
8
 73
4
 74
0
 40
0
 40
0
 40
0
 40
0
 40
1
 40
1
 40
1
 40
1
 10
-1.543061
 20
125.211960
 30
0.0
 10
-2.394251
 20
124.756420
 30
0.0
 10
-3.090681
 20
123.620520
 30
0.0
 10
-3.090681
 20
122.687750
 30
0.0
  0
SPLINE
  5
26c
100
AcDbEntity
  8
Layer_1
 62
7
100
AcDbSpline
 70
8
 71
3
 72
8
 73
4
 74
0
 40
0
 40
0
 40
0
 40
0
 40
1
 40
1
 40
1
 40
1
 10
-3.090681
 20
122.687750
 30
0.0
 10
-3.090681
 20
121.754970
 30
0.0
 10
-1.680351
 20
119.650170
 30
0.0
 10
0.043389
 20
118.010420
 30
0.0
  0
SPLINE
  5
26d
100
AcDbEntity
  8
Layer_1
 62
7
100
AcDbSpline
 70
8
 71
3
 72
8
 73
4
 74
0
 40
0
 40
0
 40
0
 40
0
 40
1
 40
1
 40
1
 40
1
 10
0.043389
 20
118.010420
 30
0.0
 10
1.767129
 20
116.370660
 30
0.0
 10
4.557509
 20
114.655350
 30
0.0
 10
6.244239
 20
114.198610
 30
0.0
  0
SPLINE
  5
26e
100
AcDbEntity
  8
Layer_1
 62
7
100
AcDbSpline
 70
8
 71
3
 72
8
 73
4
 74
0
 40
0
 40
0
 40
0
 40
0
 40
1
 40
1
 40
1
 40
1
 10
6.244239
 20
114.198610
 30
0.0
 10
7.930959
 20
113.741860
 30
0.0
 10
11.082949
 20
113.428990
 30
0.0
 10
13.248659
 20
113.503350
 30
0.0
  0
SPLINE
  5
26f
100
AcDbEntity
  8
Layer_1
 62
7
100
AcDbSpline
 70
8
 71
3
 72
8
 73
4
 74
0
 40
0
 40
0
 40
0
 40
0
 40
1
 40
1
 40
1
 40
1
 10
13.248659
 20
113.503350
 30
0.0
 10
15.522979
 20
113.581450
 30
0.0
 10
17.321688
 20
114.049480
 30
0.0
 10
17.506808
 20
114.611380
 30
0.0
  0
LWPOLYLINE
  5
270
100
AcDbEntity
  8
Layer_1
 62
7
100
AcDbPolyline
 90
1
 70
1
 10
-54.422641
 20
121.688360
 30
0.0
  0
SPLINE
  5
271
100
AcDbEntity
  8
Layer_1
 62
7
100
AcDbSpline
 70
8
 71
3
 72
8
 73
4
 74
0
 40
0
 40
0
 40
0
 40
0
 40
1
 40
1
 40
1
 40
1
 10
-86.457320
 20
115.158430
 30
0.0
 10
-85.156550
 20
115.831090
 30
0.0
 10
-83.149270
 20
117.502140
 30
0.0
 10
-81.996700
 20
118.871890
 30
0.0
  0
SPLINE
  5
272
100
AcDbEntity
  8
Layer_1
 62
7
100
AcDbSpline
 70
8
 71
3
 72
8
 73
4
 74
0
 40
0
 40
0
 40
0
 40
0
 40
1
 40
1
 40
1
 40
1
 10
-81.996700
 20
118.871890
 30
0.0
 10
-80.844140
 20
120.241640
 30
0.0
 10
-79.901130
 20
121.982800
 30
0.0
 10
-79.901130
 20
122.741150
 30
0.0
  0
SPLINE
  5
273
100
AcDbEntity
  8
Layer_1
 62
7
100
AcDbSpline
 70
8
 71
3
 72
8
 73
4
 74
0
 40
0
 40
0
 40
0
 40
0
 40
1
 40
1
 40
1
 40
1
 10
-79.901130
 20
122.741150
 30
0.0
 10
-79.901130
 20
123.499500
 30
0.0
 10
-80.333180
 20
124.552020
 30
0.0
 10
-80.861260
 20
125.080090
 30
0.0
  0
SPLINE
  5
274
100
AcDbEntity
  8
Layer_1
 62
7
100
AcDbSpline
 70
8
 71
3
 72
8
 73
4
 74
0
 40
0
 40
0
 40
0
 40
0
 40
1
 40
1
 40
1
 40
1
 10
-80.861260
 20
125.080090
 30
0.0
 10
-81.389330
 20
125.608160
 30
0.0
 10
-83.207450
 20
126.040220
 30
0.0
 10
-84.901530
 20
126.040220
 30
0.0
  0
SPLINE
  5
275
100
AcDbEntity
  8
Layer_1
 62
7
100
AcDbSpline
 70
8
 71
3
 72
8
 73
4
 74
0
 40
0
 40
0
 40
0
 40
0
 40
1
 40
1
 40
1
 40
1
 10
-84.901530
 20
126.040220
 30
0.0
 10
-86.595610
 20
126.040220
 30
0.0
 10
-89.133960
 20
125.459840
 30
0.0
 10
-90.542300
 20
124.750480
 30
0.0
  0
SPLINE
  5
276
100
AcDbEntity
  8
Layer_1
 62
7
100
AcDbSpline
 70
8
 71
3
 72
8
 73
4
 74
0
 40
0
 40
0
 40
0
 40
0
 40
1
 40
1
 40
1
 40
1
 10
-90.542300
 20
124.750480
 30
0.0
 10
-91.950640
 20
124.041120
 30
0.0
 10
-94.303800
 20
122.330890
 30
0.0
 10
-95.771540
 20
120.949970
 30
0.0
  0
SPLINE
  5
277
100
AcDbEntity
  8
Layer_1
 62
7
100
AcDbSpline
 70
8
 71
3
 72
8
 73
4
 74
0
 40
0
 40
0
 40
0
 40
0
 40
1
 40
1
 40
1
 40
1
 10
-95.771540
 20
120.949970
 30
0.0
 10
-97.239280
 20
119.569040
 30
0.0
 10
-98.935150
 20
117.494700
 30
0.0
 10
-99.540150
 20
116.340320
 30
0.0
  0
SPLINE
  5
278
100
AcDbEntity
  8
Layer_1
 62
7
100
AcDbSpline
 70
8
 71
3
 72
8
 73
4
 74
0
 40
0
 40
0
 40
0
 40
0
 40
1
 40
1
 40
1
 40
1
 10
-99.540150
 20
116.340320
 30
0.0
 10
-100.145140
 20
115.185960
 30
0.0
 10
-100.384460
 20
113.976030
 30
0.0
 10
-100.071960
 20
113.651610
 30
0.0
  0
SPLINE
  5
279
100
AcDbEntity
  8
Layer_1
 62
7
100
AcDbSpline
 70
8
 71
3
 72
8
 73
4
 74
0
 40
0
 40
0
 40
0
 40
0
 40
1
 40
1
 40
1
 40
1
 10
-100.071960
 20
113.651610
 30
0.0
 10
-99.759470
 20
113.327190
 30
0.0
 10
-97.100470
 20
113.258340
 30
0.0
 10
-94.163080
 20
113.498590
 30
0.0
  0
SPLINE
  5
27a
100
AcDbEntity
  8
Layer_1
 62
7
100
AcDbSpline
 70
8
 71
3
 72
8
 73
4
 74
0
 40
0
 40
0
 40
0
 40
0
 40
1
 40
1
 40
1
 40
1
 10
-94.163080
 20
113.498590
 30
0.0
 10
-91.225680
 20
113.738840
 30
0.0
 10
-87.758090
 20
114.485780
 30
0.0
 10
-86.457320
 20
115.158430
 30
0.0
  0
LWPOLYLINE
  5
27b
100
AcDbEntity
  8
Layer_1
 62
7
100
AcDbPolyline
 90
1
 70
1
 10
17.506808
 20
114.611380
 30
0.0
  0
SPLINE
  5
27c
100
AcDbEntity
  8
Layer_1
 62
7
100
AcDbSpline
 70
8
 71
3
 72
8
 73
4
 74
0
 40
0
 40
0
 40
0
 40
0
 40
1
 40
1
 40
1
 40
1
 10
-17.707601
 20
108.437830
 30
0.0
 10
-17.598481
 20
109.097910
 30
0.0
 10
-18.755731
 20
111.329750
 30
0.0
 10
-20.279271
 20
113.397440
 30
0.0
  0
LWPOLYLINE
  5
27d
100
AcDbEntity
  8
Layer_1
 62
7
100
AcDbPolyline
 90
1
 70
1
 10
-86.457320
 20
115.158430
 30
0.0
  0
SPLINE
  5
27e
100
AcDbEntity
  8
Layer_1
 62
7
100
AcDbSpline
 70
8
 71
3
 72
8
 73
4
 74
0
 40
0
 40
0
 40
0
 40
0
 40
1
 40
1
 40
1
 40
1
 10
-26.671861
 20
115.922590
 30
0.0
 10
-28.664251
 20
115.243710
 30
0.0
 10
-30.294381
 20
114.230600
 30
0.0
 10
-30.294381
 20
113.671220
 30
0.0
  0
SPLINE
  5
27f
100
AcDbEntity
  8
Layer_1
 62
7
100
AcDbSpline
 70
8
 71
3
 72
8
 73
4
 74
0
 40
0
 40
0
 40
0
 40
0
 40
1
 40
1
 40
1
 40
1
 10
-30.294381
 20
113.671220
 30
0.0
 10
-30.294381
 20
113.111840
 30
0.0
 10
-29.524561
 20
111.675500
 30
0.0
 10
-28.583651
 20
110.479330
 30
0.0
  0
SPLINE
  5
280
100
AcDbEntity
  8
Layer_1
 62
7
100
AcDbSpline
 70
8
 71
3
 72
8
 73
4
 74
0
 40
0
 40
0
 40
0
 40
0
 40
1
 40
1
 40
1
 40
1
 10
-28.583651
 20
110.479330
 30
0.0
 10
-27.642761
 20
109.283170
 30
0.0
 10
-26.112551
 20
107.988620
 30
0.0
 10
-25.183191
 20
107.602540
 30
0.0
  0
SPLINE
  5
281
100
AcDbEntity
  8
Layer_1
 62
7
100
AcDbSpline
 70
8
 71
3
 72
8
 73
4
 74
0
 40
0
 40
0
 40
0
 40
0
 40
1
 40
1
 40
1
 40
1
 10
-25.183191
 20
107.602540
 30
0.0
 10
-24.253841
 20
107.216480
 30
0.0
 10
-22.236281
 20
106.976430
 30
0.0
 10
-20.699731
 20
107.069130
 30
0.0
  0
SPLINE
  5
282
100
AcDbEntity
  8
Layer_1
 62
7
100
AcDbSpline
 70
8
 71
3
 72
8
 73
4
 74
0
 40
0
 40
0
 40
0
 40
0
 40
1
 40
1
 40
1
 40
1
 10
-20.699731
 20
107.069130
 30
0.0
 10
-18.932431
 20
107.175740
 30
0.0
 10
-17.833111
 20
107.678610
 30
0.0
 10
-17.707601
 20
108.437830
 30
0.0
  0
LWPOLYLINE
  5
283
100
AcDbEntity
  8
Layer_1
 62
7
100
AcDbPolyline
 90
3
 70
0
 10
-20.279271
 20
113.397440
 30
0.0
 10
-23.049361
 20
117.156900
 30
0.0
 10
-26.671861
 20
115.922590
 30
0.0
  0
SPLINE
  5
284
100
AcDbEntity
  8
Layer_1
 62
7
100
AcDbSpline
 70
8
 71
3
 72
8
 73
4
 74
0
 40
0
 40
0
 40
0
 40
0
 40
1
 40
1
 40
1
 40
1
 10
-57.670270
 20
107.697580
 30
0.0
 10
-56.313460
 20
108.170570
 30
0.0
 10
-54.639511
 20
109.418070
 30
0.0
 10
-53.950381
 20
110.469810
 30
0.0
  0
SPLINE
  5
285
100
AcDbEntity
  8
Layer_1
 62
7
100
AcDbSpline
 70
8
 71
3
 72
8
 73
4
 74
0
 40
0
 40
0
 40
0
 40
0
 40
1
 40
1
 40
1
 40
1
 10
-53.950381
 20
110.469810
 30
0.0
 10
-53.261261
 20
111.521560
 30
0.0
 10
-52.697431
 20
112.899580
 30
0.0
 10
-52.697431
 20
113.532110
 30
0.0
  0
SPLINE
  5
286
100
AcDbEntity
  8
Layer_1
 62
7
100
AcDbSpline
 70
8
 71
3
 72
8
 73
4
 74
0
 40
0
 40
0
 40
0
 40
0
 40
1
 40
1
 40
1
 40
1
 10
-52.697431
 20
113.532110
 30
0.0
 10
-52.697431
 20
114.164640
 30
0.0
 10
-53.831301
 20
115.077420
 30
0.0
 10
-55.217150
 20
115.560530
 30
0.0
  0
SPLINE
  5
287
100
AcDbEntity
  8
Layer_1
 62
7
100
AcDbSpline
 70
8
 71
3
 72
8
 73
4
 74
0
 40
0
 40
0
 40
0
 40
0
 40
1
 40
1
 40
1
 40
1
 10
-55.217150
 20
115.560530
 30
0.0
 10
-56.603000
 20
116.043640
 30
0.0
 10
-58.402580
 20
116.438910
 30
0.0
 10
-59.216220
 20
116.438910
 30
0.0
  0
SPLINE
  5
288
100
AcDbEntity
  8
Layer_1
 62
7
100
AcDbSpline
 70
8
 71
3
 72
8
 73
4
 74
0
 40
0
 40
0
 40
0
 40
0
 40
1
 40
1
 40
1
 40
1
 10
-59.216220
 20
116.438910
 30
0.0
 10
-60.114460
 20
116.438910
 30
0.0
 10
-61.619450
 20
114.954580
 30
0.0
 10
-63.047470
 20
112.660260
 30
0.0
  0
SPLINE
  5
289
100
AcDbEntity
  8
Layer_1
 62
7
100
AcDbSpline
 70
8
 71
3
 72
8
 73
4
 74
0
 40
0
 40
0
 40
0
 40
0
 40
1
 40
1
 40
1
 40
1
 10
-63.047470
 20
112.660260
 30
0.0
 10
-64.773190
 20
109.887640
 30
0.0
 10
-65.173550
 20
108.609500
 30
0.0
 10
-64.551190
 20
107.859600
 30
0.0
  0
SPLINE
  5
28a
100
AcDbEntity
  8
Layer_1
 62
7
100
AcDbSpline
 70
8
 71
3
 72
8
 73
4
 74
0
 40
0
 40
0
 40
0
 40
0
 40
1
 40
1
 40
1
 40
1
 10
-64.551190
 20
107.859600
 30
0.0
 10
-64.084690
 20
107.297500
 30
0.0
 10
-62.900700
 20
106.837610
 30
0.0
 10
-61.920100
 20
106.837610
 30
0.0
  0
SPLINE
  5
28b
100
AcDbEntity
  8
Layer_1
 62
7
100
AcDbSpline
 70
8
 71
3
 72
8
 73
4
 74
0
 40
0
 40
0
 40
0
 40
0
 40
1
 40
1
 40
1
 40
1
 10
-61.920100
 20
106.837610
 30
0.0
 10
-60.939500
 20
106.837610
 30
0.0
 10
-59.027080
 20
107.224600
 30
0.0
 10
-57.670270
 20
107.697580
 30
0.0
  0
LWPOLYLINE
  5
28c
100
AcDbEntity
  8
Layer_1
 62
7
100
AcDbPolyline
 90
1
 70
1
 10
-17.707601
 20
108.437830
 30
0.0
  0
SPLINE
  5
28d
100
AcDbEntity
  8
Layer_1
 62
7
100
AcDbSpline
 70
8
 71
3
 72
8
 73
4
 74
0
 40
0
 40
0
 40
0
 40
0
 40
1
 40
1
 40
1
 40
1
 10
2.192379
 20
106.363650
 30
0.0
 10
2.430079
 20
106.983090
 30
0.0
 10
1.287859
 20
109.503140
 30
0.0
 10
-0.345901
 20
111.963750
 30
0.0
  0
SPLINE
  5
28e
100
AcDbEntity
  8
Layer_1
 62
7
100
AcDbSpline
 70
8
 71
3
 72
8
 73
4
 74
0
 40
0
 40
0
 40
0
 40
0
 40
1
 40
1
 40
1
 40
1
 10
-0.345901
 20
111.963750
 30
0.0
 10
-1.979661
 20
114.424380
 30
0.0
 10
-4.947541
 20
117.518040
 30
0.0
 10
-6.941191
 20
118.838580
 30
0.0
  0
SPLINE
  5
28f
100
AcDbEntity
  8
Layer_1
 62
7
100
AcDbSpline
 70
8
 71
3
 72
8
 73
4
 74
0
 40
0
 40
0
 40
0
 40
0
 40
1
 40
1
 40
1
 40
1
 10
-6.941191
 20
118.838580
 30
0.0
 10
-8.934841
 20
120.159120
 30
0.0
 10
-11.374951
 20
121.239570
 30
0.0
 10
-12.363671
 20
121.239570
 30
0.0
  0
SPLINE
  5
290
100
AcDbEntity
  8
Layer_1
 62
7
100
AcDbSpline
 70
8
 71
3
 72
8
 73
4
 74
0
 40
0
 40
0
 40
0
 40
0
 40
1
 40
1
 40
1
 40
1
 10
-12.363671
 20
121.239570
 30
0.0
 10
-13.352381
 20
121.239570
 30
0.0
 10
-14.730851
 20
121.021020
 30
0.0
 10
-15.426931
 20
120.753910
 30
0.0
  0
SPLINE
  5
291
100
AcDbEntity
  8
Layer_1
 62
7
100
AcDbSpline
 70
8
 71
3
 72
8
 73
4
 74
0
 40
0
 40
0
 40
0
 40
0
 40
1
 40
1
 40
1
 40
1
 10
-15.426931
 20
120.753910
 30
0.0
 10
-16.228941
 20
120.446150
 30
0.0
 10
-16.692531
 20
119.296310
 30
0.0
 10
-16.692531
 20
117.614870
 30
0.0
  0
SPLINE
  5
292
100
AcDbEntity
  8
Layer_1
 62
7
100
AcDbSpline
 70
8
 71
3
 72
8
 73
4
 74
0
 40
0
 40
0
 40
0
 40
0
 40
1
 40
1
 40
1
 40
1
 10
-16.692531
 20
117.614870
 30
0.0
 10
-16.692531
 20
115.918000
 30
0.0
 10
-15.935161
 20
114.061390
 30
0.0
 10
-14.591611
 20
112.464680
 30
0.0
  0
SPLINE
  5
293
100
AcDbEntity
  8
Layer_1
 62
7
100
AcDbSpline
 70
8
 71
3
 72
8
 73
4
 74
0
 40
0
 40
0
 40
0
 40
0
 40
1
 40
1
 40
1
 40
1
 10
-14.591611
 20
112.464680
 30
0.0
 10
-13.436101
 20
111.091430
 30
0.0
 10
-11.101381
 20
109.259100
 30
0.0
 10
-9.403331
 20
108.392820
 30
0.0
  0
SPLINE
  5
294
100
AcDbEntity
  8
Layer_1
 62
7
100
AcDbSpline
 70
8
 71
3
 72
8
 73
4
 74
0
 40
0
 40
0
 40
0
 40
0
 40
1
 40
1
 40
1
 40
1
 10
-9.403331
 20
108.392820
 30
0.0
 10
-7.705291
 20
107.526540
 30
0.0
 10
-4.960201
 20
106.498350
 30
0.0
 10
-3.303131
 20
106.107950
 30
0.0
  0
SPLINE
  5
295
100
AcDbEntity
  8
Layer_1
 62
7
100
AcDbSpline
 70
8
 71
3
 72
8
 73
4
 74
0
 40
0
 40
0
 40
0
 40
0
 40
1
 40
1
 40
1
 40
1
 10
-3.303131
 20
106.107950
 30
0.0
 10
-1.646081
 20
105.717550
 30
0.0
 10
0.171059
 20
105.361970
 30
0.0
 10
0.734939
 20
105.317760
 30
0.0
  0
SPLINE
  5
296
100
AcDbEntity
  8
Layer_1
 62
7
100
AcDbSpline
 70
8
 71
3
 72
8
 73
4
 74
0
 40
0
 40
0
 40
0
 40
0
 40
1
 40
1
 40
1
 40
1
 10
0.734939
 20
105.317760
 30
0.0
 10
1.298829
 20
105.273460
 30
0.0
 10
1.954679
 20
105.744200
 30
0.0
 10
2.192379
 20
106.363650
 30
0.0
  0
LWPOLYLINE
  5
297
100
AcDbEntity
  8
Layer_1
 62
7
100
AcDbPolyline
 90
1
 70
1
 10
-57.670270
 20
107.697580
 30
0.0
  0
SPLINE
  5
298
100
AcDbEntity
  8
Layer_1
 62
7
100
AcDbSpline
 70
8
 71
3
 72
8
 73
4
 74
0
 40
0
 40
0
 40
0
 40
0
 40
1
 40
1
 40
1
 40
1
 10
-75.110440
 20
107.768320
 30
0.0
 10
-73.135650
 20
108.619600
 30
0.0
 10
-70.671110
 20
110.108620
 30
0.0
 10
-69.633680
 20
111.077260
 30
0.0
  0
SPLINE
  5
299
100
AcDbEntity
  8
Layer_1
 62
7
100
AcDbSpline
 70
8
 71
3
 72
8
 73
4
 74
0
 40
0
 40
0
 40
0
 40
0
 40
1
 40
1
 40
1
 40
1
 10
-69.633680
 20
111.077260
 30
0.0
 10
-68.596260
 20
112.045900
 30
0.0
 10
-67.223040
 20
113.846550
 30
0.0
 10
-66.582080
 20
115.078710
 30
0.0
  0
SPLINE
  5
29a
100
AcDbEntity
  8
Layer_1
 62
7
100
AcDbSpline
 70
8
 71
3
 72
8
 73
4
 74
0
 40
0
 40
0
 40
0
 40
0
 40
1
 40
1
 40
1
 40
1
 10
-66.582080
 20
115.078710
 30
0.0
 10
-65.941130
 20
116.310870
 30
0.0
 10
-65.639290
 20
118.020260
 30
0.0
 10
-65.911320
 20
118.877370
 30
0.0
  0
SPLINE
  5
29b
100
AcDbEntity
  8
Layer_1
 62
7
100
AcDbSpline
 70
8
 71
3
 72
8
 73
4
 74
0
 40
0
 40
0
 40
0
 40
0
 40
1
 40
1
 40
1
 40
1
 10
-65.911320
 20
118.877370
 30
0.0
 10
-66.183360
 20
119.734470
 30
0.0
 10
-67.262930
 20
120.650830
 30
0.0
 10
-68.310380
 20
120.913730
 30
0.0
  0
SPLINE
  5
29c
100
AcDbEntity
  8
Layer_1
 62
7
100
AcDbSpline
 70
8
 71
3
 72
8
 73
4
 74
0
 40
0
 40
0
 40
0
 40
0
 40
1
 40
1
 40
1
 40
1
 10
-68.310380
 20
120.913730
 30
0.0
 10
-69.357830
 20
121.176620
 30
0.0
 10
-71.460640
 20
120.980530
 30
0.0
 10
-72.983290
 20
120.478040
 30
0.0
  0
SPLINE
  5
29d
100
AcDbEntity
  8
Layer_1
 62
7
100
AcDbSpline
 70
8
 71
3
 72
8
 73
4
 74
0
 40
0
 40
0
 40
0
 40
0
 40
1
 40
1
 40
1
 40
1
 10
-72.983290
 20
120.478040
 30
0.0
 10
-74.505930
 20
119.975520
 30
0.0
 10
-77.366930
 20
117.837600
 30
0.0
 10
-79.341060
 20
115.727100
 30
0.0
  0
SPLINE
  5
29e
100
AcDbEntity
  8
Layer_1
 62
7
100
AcDbSpline
 70
8
 71
3
 72
8
 73
4
 74
0
 40
0
 40
0
 40
0
 40
0
 40
1
 40
1
 40
1
 40
1
 10
-79.341060
 20
115.727100
 30
0.0
 10
-81.315190
 20
113.616590
 30
0.0
 10
-83.523680
 20
110.742500
 30
0.0
 10
-84.248830
 20
109.340220
 30
0.0
  0
SPLINE
  5
29f
100
AcDbEntity
  8
Layer_1
 62
7
100
AcDbSpline
 70
8
 71
3
 72
8
 73
4
 74
0
 40
0
 40
0
 40
0
 40
0
 40
1
 40
1
 40
1
 40
1
 10
-84.248830
 20
109.340220
 30
0.0
 10
-84.973980
 20
107.937930
 30
0.0
 10
-85.344470
 20
106.430090
 30
0.0
 10
-85.072140
 20
105.989450
 30
0.0
  0
SPLINE
  5
2a0
100
AcDbEntity
  8
Layer_1
 62
7
100
AcDbSpline
 70
8
 71
3
 72
8
 73
4
 74
0
 40
0
 40
0
 40
0
 40
0
 40
1
 40
1
 40
1
 40
1
 10
-85.072140
 20
105.989450
 30
0.0
 10
-84.788290
 20
105.530170
 30
0.0
 10
-83.323240
 20
105.408540
 30
0.0
 10
-81.638980
 20
105.704410
 30
0.0
  0
SPLINE
  5
2a1
100
AcDbEntity
  8
Layer_1
 62
7
100
AcDbSpline
 70
8
 71
3
 72
8
 73
4
 74
0
 40
0
 40
0
 40
0
 40
0
 40
1
 40
1
 40
1
 40
1
 10
-81.638980
 20
105.704410
 30
0.0
 10
-80.023070
 20
105.988280
 30
0.0
 10
-77.085230
 20
106.917040
 30
0.0
 10
-75.110440
 20
107.768320
 30
0.0
  0
LWPOLYLINE
  5
2a2
100
AcDbEntity
  8
Layer_1
 62
7
100
AcDbPolyline
 90
1
 70
1
 10
2.192379
 20
106.363650
 30
0.0
  0
SPLINE
  5
2a3
100
AcDbEntity
  8
Layer_1
 62
7
100
AcDbSpline
 70
8
 71
3
 72
8
 73
4
 74
0
 40
0
 40
0
 40
0
 40
0
 40
1
 40
1
 40
1
 40
1
 10
-37.014691
 20
105.359290
 30
0.0
 10
-34.999681
 20
106.306460
 30
0.0
 10
-33.150181
 20
107.604840
 30
0.0
 10
-32.904691
 20
108.244580
 30
0.0
  0
SPLINE
  5
2a4
100
AcDbEntity
  8
Layer_1
 62
7
100
AcDbSpline
 70
8
 71
3
 72
8
 73
4
 74
0
 40
0
 40
0
 40
0
 40
0
 40
1
 40
1
 40
1
 40
1
 10
-32.904691
 20
108.244580
 30
0.0
 10
-32.659201
 20
108.884320
 30
0.0
 10
-33.210831
 20
110.956580
 30
0.0
 10
-34.130531
 20
112.849610
 30
0.0
  0
SPLINE
  5
2a5
100
AcDbEntity
  8
Layer_1
 62
7
100
AcDbSpline
 70
8
 71
3
 72
8
 73
4
 74
0
 40
0
 40
0
 40
0
 40
0
 40
1
 40
1
 40
1
 40
1
 10
-34.130531
 20
112.849610
 30
0.0
 10
-35.404151
 20
115.471110
 30
0.0
 10
-36.389981
 20
116.420450
 30
0.0
 10
-38.266631
 20
116.832640
 30
0.0
  0
SPLINE
  5
2a6
100
AcDbEntity
  8
Layer_1
 62
7
100
AcDbSpline
 70
8
 71
3
 72
8
 73
4
 74
0
 40
0
 40
0
 40
0
 40
0
 40
1
 40
1
 40
1
 40
1
 10
-38.266631
 20
116.832640
 30
0.0
 10
-39.621791
 20
117.130280
 30
0.0
 10
-42.199941
 20
117.125550
 30
0.0
 10
-43.995861
 20
116.822140
 30
0.0
  0
LWPOLYLINE
  5
2a7
100
AcDbEntity
  8
Layer_1
 62
7
100
AcDbPolyline
 90
1
 70
1
 10
-75.110440
 20
107.768320
 30
0.0
  0
SPLINE
  5
2a8
100
AcDbEntity
  8
Layer_1
 62
7
100
AcDbSpline
 70
8
 71
3
 72
8
 73
4
 74
0
 40
0
 40
0
 40
0
 40
0
 40
1
 40
1
 40
1
 40
1
 10
-49.412491
 20
107.935960
 30
0.0
 10
-48.861631
 20
107.272200
 30
0.0
 10
-47.125071
 20
106.049350
 30
0.0
 10
-45.553491
 20
105.218510
 30
0.0
  0
SPLINE
  5
2a9
100
AcDbEntity
  8
Layer_1
 62
7
100
AcDbSpline
 70
8
 71
3
 72
8
 73
4
 74
0
 40
0
 40
0
 40
0
 40
0
 40
1
 40
1
 40
1
 40
1
 10
-45.553491
 20
105.218510
 30
0.0
 10
-43.981911
 20
104.387680
 30
0.0
 10
-42.242091
 20
103.691980
 30
0.0
 10
-41.687211
 20
103.672540
 30
0.0
  0
SPLINE
  5
2aa
100
AcDbEntity
  8
Layer_1
 62
7
100
AcDbSpline
 70
8
 71
3
 72
8
 73
4
 74
0
 40
0
 40
0
 40
0
 40
0
 40
1
 40
1
 40
1
 40
1
 10
-41.687211
 20
103.672540
 30
0.0
 10
-41.132341
 20
103.653140
 30
0.0
 10
-39.029701
 20
104.412130
 30
0.0
 10
-37.014691
 20
105.359300
 30
0.0
  0
LWPOLYLINE
  5
2ab
100
AcDbEntity
  8
Layer_1
 62
7
100
AcDbPolyline
 90
5
 70
0
 10
-43.995861
 20
116.822140
 30
0.0
 10
-47.261161
 20
116.270470
 30
0.0
 10
-48.837611
 20
112.706630
 30
0.0
 10
-50.414071
 20
109.142790
 30
0.0
 10
-49.412491
 20
107.935960
 30
0.0
  0
LWPOLYLINE
  5
2ac
100
AcDbEntity
  8
Layer_1
 62
7
100
AcDbPolyline
 90
1
 70
1
 10
-37.014691
 20
105.359300
 30
0.0
  0
SPLINE
  5
2ad
100
AcDbEntity
  8
Layer_1
 62
7
100
AcDbSpline
 70
8
 71
3
 72
8
 73
4
 74
0
 40
0
 40
0
 40
0
 40
0
 40
1
 40
1
 40
1
 40
1
 10
-19.292881
 20
102.191280
 30
0.0
 10
-31.724581
 20
102.326430
 30
0.0
 10
-51.797301
 20
102.256980
 30
0.0
 10
-63.898950
 20
102.036950
 30
0.0
  0
LWPOLYLINE
  5
2ae
100
AcDbEntity
  8
Layer_1
 62
7
100
AcDbPolyline
 90
3
 70
0
 10
3.310189
 20
96.390490
 30
0.0
 10
3.310189
 20
101.945550
 30
0.0
 10
-19.292881
 20
102.191280
 30
0.0
  0
LWPOLYLINE
  5
2af
100
AcDbEntity
  8
Layer_1
 62
7
100
AcDbPolyline
 90
7
 70
0
 10
-63.898950
 20
102.036950
 30
0.0
 10
-85.901940
 20
101.636900
 30
0.0
 10
-86.138530
 20
96.236170
 30
0.0
 10
-86.375110
 20
90.835430
 30
0.0
 10
-41.532461
 20
90.835430
 30
0.0
 10
3.310189
 20
90.835430
 30
0.0
 10
3.310189
 20
96.390490
 30
0.0
  0
ENDSEC
  0
SECTION
  2
OBJECTS
  0
DICTIONARY
  5
C
330
0
100
AcDbDictionary
  3
ACAD_GROUP
350
D
  3
ACAD_MLINESTYLE
350
17
  0
DICTIONARY
  5
D
330
C
100
AcDbDictionary
  0
DICTIONARY
  5
1A
330
C
100
AcDbDictionary
  0
DICTIONARY
  5
17
330
C
100
AcDbDictionary
  3
STANDARD
350
18
  0
DICTIONARY
  5
19
330
C
100
AcDbDictionary
  0
ENDSEC
  0
EOF
