<?xml version="1.0" encoding="UTF-8" standalone="no"?>
<svg
   xmlns:dc="http://purl.org/dc/elements/1.1/"
   xmlns:cc="http://creativecommons.org/ns#"
   xmlns:rdf="http://www.w3.org/1999/02/22-rdf-syntax-ns#"
   xmlns:svg="http://www.w3.org/2000/svg"
   xmlns="http://www.w3.org/2000/svg"
   xmlns:sodipodi="http://sodipodi.sourceforge.net/DTD/sodipodi-0.dtd"
   xmlns:inkscape="http://www.inkscape.org/namespaces/inkscape"
   width="210mm"
   height="297mm"
   viewBox="0 0 210 297"
   version="1.1"
   id="svg8"
   inkscape:version="1.0.1 (3bc2e813f5, 2020-09-07)"
   sodipodi:docname="AIALogo.svg">
  <defs
     id="defs2" />
  <sodipodi:namedview
     id="base"
     pagecolor="#ffffff"
     bordercolor="#666666"
     borderopacity="1.0"
     inkscape:pageopacity="0.0"
     inkscape:pageshadow="2"
     inkscape:zoom="0.98994949"
     inkscape:cx="340.94165"
     inkscape:cy="911.71445"
     inkscape:document-units="mm"
     inkscape:current-layer="layer1"
     inkscape:document-rotation="0"
     showgrid="false"
     inkscape:window-width="2922"
     inkscape:window-height="1699"
     inkscape:window-x="4663"
     inkscape:window-y="241"
     inkscape:window-maximized="0" />
  <metadata
     id="metadata5">
    <rdf:RDF>
      <cc:Work
         rdf:about="">
        <dc:format>image/svg+xml</dc:format>
        <dc:type
           rdf:resource="http://purl.org/dc/dcmitype/StillImage" />
        <dc:title></dc:title>
      </cc:Work>
    </rdf:RDF>
  </metadata>
  <g
     inkscape:label="Layer 1"
     inkscape:groupmode="layer"
     id="layer1">
    <path
       style="fill:none;stroke:#000000;stroke-width:1.65413;stroke-opacity:1"
       d="M 133.12112,46.947204 V 35.36829 H 40.489954 -52.141234 v 11.578914 11.578894 h 92.631188 92.631166 z"
       id="path1277" />
    <path
       style="fill:none;stroke:#000000;stroke-width:1.65413;stroke-opacity:1"
       d="m 110.18974,78.80568 c 2.67967,-1.58293 5.30807,-4.614865 5.84084,-6.737609 0.53278,-2.122764 0.27107,-4.557185 -0.58158,-5.409834 -0.93123,-0.931251 -31.223932,-1.37826 -75.863689,-1.119486 l -74.313446,0.43078 -0.580892,3.017794 c -0.319493,1.659795 0.786968,4.538993 2.458816,6.398207 1.671848,1.859236 4.528429,3.989752 6.34797,4.734464 1.819542,0.744732 32.2233479,1.401228 67.564032,1.458908 l 64.255789,0.104816 z"
       id="path1275" />
    <path
       style="fill:none;stroke:#000000;stroke-width:1.65413;stroke-opacity:1"
       d="m 130.46539,173.90137 c 9.57763,-12.05445 19.70737,-26.53847 22.51055,-32.18669 2.80318,-5.64825 5.54054,-14.01716 6.08302,-18.5976 0.69013,-5.8272 0.15464,-10.50593 -1.78337,-15.58043 -1.52334,-3.98881 -4.27711,-8.616551 -6.1195,-10.283871 l -3.34979,-3.031522 -1.52782,2.415422 c -0.84028,1.328477 -1.5392,4.327291 -1.55314,6.664031 -0.0124,2.33676 -1.13462,7.98403 -2.49042,12.54955 -1.35583,4.5655 -10.74057,22.71349 -20.855,40.3289 -10.11444,17.61539 -18.7596,32.99142 -19.21145,34.16892 -0.45745,1.19211 0.90454,2.83228 3.07312,3.70087 2.14207,0.85797 4.7756,1.60712 5.85229,1.66478 1.07669,0.0577 9.79388,-9.75788 19.37151,-21.81236 z"
       id="path1273" />
    <path
       style="fill:none;stroke:#000000;stroke-width:1.65413;stroke-opacity:1"
       d="m -23.236154,193.57277 3.07134,-2.24583 -6.317828,-11.40073 c -3.474809,-6.27042 -11.518981,-20.2354 -17.875944,-31.0333 -6.356942,-10.7979 -12.953391,-23.30468 -14.658772,-27.79283 -1.70536,-4.48816 -3.648614,-11.96781 -4.318341,-16.62146 -0.669727,-4.653629 -2.104447,-8.756756 -3.188271,-9.11803 -1.083844,-0.361275 -4.059877,2.500453 -6.613421,6.3594 l -4.642816,7.01627 0.119287,10.37219 0.119288,10.37218 6.05525,12.07883 c 3.330403,6.64338 13.69773,21.56739 23.03852,33.16452 9.340791,11.59713 18.143628,21.08768 19.56183,21.09014 1.418222,0.002 3.960685,-1.00617 5.649919,-2.24135 z"
       id="path1271" />
    <path
       style="fill:none;stroke:#000000;stroke-width:1.65413;stroke-opacity:1"
       d="m 68.70329,193.75098 c 1.390498,-4.54732 2.483852,-21.92637 3.09592,-49.21032 l 0.94624,-42.18026 h 2.481185 2.481186 l 0.827075,26.3313 c 0.53388,16.99733 1.472264,26.54525 2.647238,26.93491 1.001087,0.33202 4.188158,-4.82743 7.082386,-11.46544 L 93.526743,132.09206 93.06086,110.60972 92.594976,89.12738 h -52.105022 -52.10504 l -0.410209,21.50368 -0.41021,21.50365 5.3726016,12.19655 c 2.9549255,6.70808 6.11694036,12.10758 7.02671117,11.99888 0.9884139,-0.11805 1.98699933,-11.0183 2.48118563,-27.0837 L 3.272069,102.3604 h 2.4811856 2.4812063 l 0.8270549,25.639 0.827055,25.63897 5.6767102,-0.46061 c 3.122177,-0.25334 6.6379,-1.25835 7.812688,-2.23335 1.517931,-1.25976 2.268535,-8.54547 2.59394,-25.17836 l 0.457945,-23.40565 h 2.481186 2.481206 l 0.457036,26.349 c 0.28813,16.61126 1.15277,27.18729 2.339611,28.61734 1.12728,1.35831 4.262067,2.06889 7.813597,1.77119 l 5.931042,-0.49717 0.827055,-28.12018 0.827055,-28.12018 h 2.481206 2.481185 l 0.827076,33.90963 0.827055,33.90963 3.746711,8.12374 c 2.64056,5.7253 3.446776,9.72262 2.73078,13.53923 -0.558771,2.97851 -0.526065,6.20815 0.07256,7.17694 0.598755,0.9688 1.698518,1.76145 2.443952,1.76145 0.745415,0 2.322659,-3.16352 3.504993,-7.03004 z"
       id="path1269" />
    <path
       style="fill:none;stroke:#000000;stroke-width:1.65413;stroke-opacity:1"
       d="m 19.229587,198.42642 c 1.014587,-2.22679 1.34301,-6.58603 0.738778,-9.80674 -0.598217,-3.18889 -2.499813,-7.52592 -4.225723,-9.63783 -2.383295,-2.91626 -3.606293,-3.37991 -5.084882,-1.92768 -1.4915934,1.465 -1.2399727,4.65609 1.076009,13.64656 1.662584,6.45394 3.618304,11.73442 4.346104,11.73442 0.727758,0 2.145133,-1.80391 3.149714,-4.00873 z"
       id="path1267" />
    <path
       style="fill:none;stroke:#000000;stroke-width:1.65413;stroke-opacity:1"
       d="m 139.85507,200.69901 c 7.66847,-6.41351 15.68238,-13.671 17.8087,-16.12777 2.12633,-2.45673 5.27349,-7.44424 6.99371,-11.08332 1.97842,-4.18533 3.13171,-10.26332 3.13867,-16.54129 0.006,-5.45862 -0.68149,-11.01975 -1.52785,-12.35807 -0.84639,-1.33829 -1.87363,-2.08265 -2.28278,-1.65411 -0.40913,0.42853 -5.42133,7.10619 -11.13819,14.83924 -5.71686,7.73305 -16.96013,21.99497 -24.98502,31.69314 -8.0249,9.69818 -14.59073,18.09619 -14.59073,18.66226 0,0.56604 1.6748,1.70236 3.7218,2.52515 2.04697,0.8228 4.89117,1.54316 6.32041,1.60084 1.42924,0.0577 8.87282,-5.14257 16.54128,-11.55607 z"
       id="path1265" />
    <path
       style="fill:none;stroke:#000000;stroke-width:1.65413;stroke-opacity:1"
       d="m -34.737935,210.05772 c 2.342051,-1.71255 2.698757,-2.8776 1.392711,-4.54885 -0.965652,-1.23565 -8.91398,-11.00995 -17.662983,-21.72065 -8.748983,-10.7107 -19.347608,-24.29524 -23.552492,-30.18785 -4.204863,-5.89261 -8.244604,-10.71384 -8.97718,-10.71384 -0.732575,0 -1.783776,1.17742 -2.335993,2.6165 -0.552218,1.43906 -0.996766,6.46347 -0.987877,11.16535 0.01034,5.54889 1.395419,11.45126 3.946524,16.81954 2.161713,4.54885 7.923209,12.05207 12.80334,16.67382 4.880131,4.62173 12.594742,11.50224 17.143596,15.29001 4.548854,3.78775 9.80318,6.89163 11.676267,6.8975 1.873107,0.006 4.82243,-1.0253 6.554087,-2.29153 z"
       id="path1263" />
    <path
       style="fill:none;stroke:#000000;stroke-width:1.65413;stroke-opacity:1"
       d="m 37.102058,218.64229 c 2.523215,-1.57578 4.084024,-1.50644 7.523212,0.33415 3.439168,1.84061 4.999998,1.90992 7.523213,0.33415 1.75105,-1.09356 4.682552,-1.98828 6.514436,-1.98828 1.831863,0 3.330692,-1.02658 3.330692,-2.28131 0,-1.2547 -1.974988,-6.59525 -4.38888,-11.8679 l -4.388881,-9.58658 1.865107,-4.94126 1.865127,-4.94131 -4.250159,-7.80894 c -2.337606,-4.29494 -5.965959,-8.59073 -8.063047,-9.54623 -2.097066,-0.9555 -4.259317,-1.29083 -4.804961,-0.74516 -0.545643,0.54564 -0.992093,2.4806 -0.992093,4.2999 v 3.30778 l -6.362421,-6.89173 c -4.293326,-4.65051 -7.745891,-6.89175 -10.61655,-6.89175 -2.339756,0 -5.452216,0.45976 -6.916561,1.02168 -1.464324,0.56191 -3.37609,2.35517 -4.248379,3.98503 l -1.5859485,2.96339 5.8596945,3.45729 c 3.792214,2.23747 7.021026,6.08269 9.15117,10.89823 2.413066,5.45518 2.98391,9.09732 2.138993,13.64779 -0.633837,3.41378 -2.514677,9.39917 -4.17962,13.30085 l -3.02718,7.094 2.86334,0.90128 c 1.574847,0.49571 4.352081,1.53308 6.171623,2.30529 1.819542,0.77221 3.876625,1.4544 4.571306,1.51597 0.69466,0.0616 2.695717,-0.78277 4.446767,-1.87633 z"
       id="path1261" />
    <path
       style="fill:none;stroke:#000000;stroke-width:1.65413;stroke-opacity:1"
       d="m 81.838858,214.01405 c 1.960536,-5.91351 5.249674,-13.72926 7.309156,-17.36835 2.059461,-3.63908 9.589889,-16.62801 16.734256,-28.86431 7.14434,-12.23628 14.68941,-26.37907 16.76677,-31.42844 2.59963,-6.31869 3.78928,-12.58498 3.8163,-20.10137 0.0312,-8.68516 -0.73611,-12.07132 -3.7484,-16.541287 -2.08322,-3.09129 -4.77309,-5.620521 -5.9775,-5.620521 -1.33007,0 -3.35376,4.583338 -5.15453,11.674428 -1.63063,6.42093 -9.37646,26.02278 -17.213001,43.5597 -7.836525,17.53689 -15.722252,37.20442 -17.523808,43.70563 -1.801576,6.50118 -3.275596,16.36347 -3.275596,21.91618 0,5.55273 0.508658,10.60452 1.130318,11.22618 0.621682,0.62168 1.67956,0.55964 2.350858,-0.13769 0.671278,-0.69749 2.824598,-6.10648 4.785177,-12.01999 z"
       id="path1259" />
    <path
       style="fill:none;stroke:#000000;stroke-width:1.65413;stroke-opacity:1"
       d="m 7.4073852,215.4934 c 0,-6.46451 -1.1197545,-16.07491 -2.4883387,-21.35646 -1.3685842,-5.28153 -9.185551,-24.92316 -17.3710485,-43.64806 -8.185477,-18.72491 -16.260494,-39.07489 -17.944457,-45.2222 -1.763681,-6.438248 -3.966081,-11.176908 -5.194704,-11.176908 -1.173134,0 -3.653761,2.036968 -5.512562,4.526609 -2.186915,2.929169 -3.620953,7.891039 -4.063496,14.060099 -0.482092,6.72033 0.311079,12.48145 2.687965,19.52394 1.854522,5.49476 11.205835,23.64785 20.780694,40.3402 9.574839,16.69237 19.0237739,35.27174 20.99762472,41.28751 1.97387148,6.01576 3.90527898,11.49603 4.29206488,12.17835 0.3867859,0.68234 1.4036677,1.24059 2.2597486,1.24059 0.856081,0 1.556509,-5.28914 1.556509,-11.75367 z"
       id="path1257" />
    <path
       style="fill:none;stroke:#000000;stroke-width:1.65413;stroke-opacity:1"
       d="m 144.38191,226.17114 c 5.73855,-3.19505 13.11289,-8.16153 16.38741,-11.03662 3.27454,-2.87508 7.30922,-8.21121 8.96595,-11.85811 1.65676,-3.64688 3.01722,-8.11942 3.02328,-9.93897 0.006,-1.81954 -0.66874,-4.38257 -1.49952,-5.69563 l -1.51046,-2.38738 -7.14838,6.52415 c -3.93157,3.58829 -15.13807,12.75513 -24.90331,20.37073 -10.3922,8.10458 -17.31637,14.62048 -16.69727,15.71276 0.58174,1.02642 1.81702,2.84451 2.74508,4.0402 1.05637,1.361 3.27971,1.78212 5.94543,1.12606 2.34193,-0.57636 8.95324,-3.66209 14.69179,-6.85719 z"
       id="path1255" />
    <path
       style="fill:none;stroke:#000000;stroke-width:1.65413;stroke-opacity:1"
       d="m -41.48373,230.65957 c 1.594797,-1.76222 2.437502,-3.95171 1.872714,-4.86558 -0.564787,-0.91386 -8.639556,-7.57332 -17.943919,-14.79883 -9.304363,-7.22549 -19.482194,-15.82918 -22.617416,-19.11927 -3.135222,-3.29013 -6.670936,-5.98202 -7.857115,-5.98202 -1.471023,0 -2.154747,2.49801 -2.150529,7.85711 0.0041,4.82353 1.230711,9.86529 3.177727,13.05835 1.74433,2.86068 5.827507,7.32681 9.073706,9.92477 3.246219,2.59795 11.306805,7.51306 17.912433,10.92252 6.605627,3.40944 12.825296,6.20079 13.821504,6.20298 0.996228,0.002 3.116119,-1.43782 4.710895,-3.20003 z"
       id="path1253" />
    <path
       style="fill:none;stroke:#000000;stroke-width:1.65413;stroke-opacity:1"
       d="m 154.15176,248.99207 c 3.74601,-1.91108 8.40797,-5.71754 10.35993,-8.4588 1.95196,-2.74126 3.97294,-7.59644 4.49105,-10.78928 0.64322,-3.96377 0.30583,-5.80516 -1.06369,-5.80516 -1.10317,0 -6.40629,2.57908 -11.7847,5.73129 -5.37843,3.15217 -15.34646,7.70777 -22.1512,10.1235 -6.80471,2.41573 -13.66672,5.33878 -15.24886,6.49568 l -2.87664,2.10344 2.38177,2.86987 2.38176,2.86986 13.34986,-0.83287 c 8.95233,-0.55852 15.59335,-1.97743 20.16072,-4.30753 z"
       id="path1251" />
    <path
       style="fill:none;stroke:#000000;stroke-width:1.65413;stroke-opacity:1"
       d="m -37.25408,252.08076 c 1.802176,-1.14885 2.028513,-2.30647 0.827076,-4.23001 -0.909771,-1.45657 -8.203401,-5.11074 -16.208045,-8.12039 -8.004643,-3.00965 -18.289027,-7.79396 -22.854172,-10.63181 -4.565145,-2.83785 -9.367335,-5.15972 -10.671541,-5.15972 -1.304206,0 -2.371284,1.10146 -2.371284,2.44771 0,1.34624 1.201209,5.44982 2.669338,9.11905 1.468128,3.6692 4.884534,8.24867 7.592015,10.17659 2.707502,1.92787 8.019425,4.47374 11.8043,5.65744 3.784875,1.18372 11.34774,2.1906 16.806365,2.23753 5.458625,0.0469 11.041292,-0.62644 12.405948,-1.49639 z"
       id="path1249" />
    <path
       style="fill:none;stroke:#000000;stroke-width:1.65413;stroke-opacity:1"
       d="m 91.494551,272.71095 c 3.079589,-0.88854 3.661763,-1.912 2.873698,-5.05191 l -0.988289,-3.93766 7.87816,-3.7635 7.87814,-3.76356 -0.50841,-4.75478 c -0.31347,-2.93148 0.70219,-6.10299 2.64865,-8.27063 1.73639,-1.93373 3.71288,-4.49322 4.39225,-5.68776 0.71529,-1.25777 -0.0207,-3.5594 -1.74816,-5.46844 l -2.98335,-3.29656 1.99423,-3.1933 c 1.09683,-1.7563 1.99424,-4.33833 1.99424,-5.73784 0,-1.39953 -1.86089,-3.25209 -4.13532,-4.11683 -2.33587,-0.88809 -4.13531,-2.89206 -4.13531,-4.6053 0,-1.66817 -1.05656,-4.47794 -2.34789,-6.24392 l -2.3479,-3.21086 -4.429605,4.13531 c -2.436282,2.27443 -5.919009,7.04036 -7.739398,10.59098 -1.82039,3.55062 -4.389646,9.50548 -5.70946,13.23302 -1.319794,3.72755 -3.160423,14.88873 -4.090227,24.80258 l -1.690599,18.02521 2.185116,1.37305 c 1.201809,0.75515 3.301625,1.07689 4.666281,0.71498 1.364656,-0.36194 4.219087,-1.15949 6.343153,-1.77235 z"
       id="path1247" />
    <path
       style="fill:none;stroke:#000000;stroke-width:1.65413;stroke-opacity:1"
       d="M 0.54751156,273.74813 C 2.3191313,272.62548 2.5354412,268.92628 1.5858113,255.99158 0.92606933,247.0054 -0.92506184,235.39968 -2.5277974,230.20106 -4.130533,225.00247 -7.4124558,217.3865 -9.820973,213.27669 c -2.408517,-4.10982 -5.971624,-8.32467 -7.918041,-9.36636 l -3.538939,-1.89399 -2.198617,3.00678 c -1.20923,1.65367 -2.198616,4.37159 -2.198616,6.03976 0,1.71324 -1.799447,3.71721 -4.135316,4.6053 -2.274427,0.86474 -4.135316,2.54159 -4.135316,3.72632 0,1.18476 1.09292,3.71444 2.428695,5.62154 l 2.428694,3.46745 -3.202535,2.89825 -3.202536,2.89824 1.813464,3.5136 c 0.997407,1.93248 2.975827,4.84509 4.396509,6.47246 1.420703,1.62738 2.62768,5.34906 2.682176,8.27037 l 0.09903,5.31149 7.11135,2.45848 7.11135,2.45847 -0.892384,3.55552 c -0.490796,1.95553 0.0308,4.30492 1.159303,5.22089 1.128417,0.91598 3.5403866,2.03135 5.3599283,2.47859 1.8195416,0.44725 3.6804308,0.88814 4.1353162,0.97975 0.4548854,0.0916 1.83407527,-0.47159 3.06488936,-1.25151 z"
       id="path1245" />
    <path
       style="fill:none;stroke:#000000;stroke-width:1.65413;stroke-opacity:1"
       d="m 146.19066,274.47432 c 2.54902,-1.31816 5.86168,-4.26939 7.36142,-6.55831 1.49976,-2.28892 2.72683,-4.85815 2.72683,-5.7094 0,-0.89716 -8.16947,-1.3691 -19.43601,-1.12277 -11.8184,0.2584 -21.24411,1.28192 -24.04934,2.61149 -2.63498,1.24887 -4.40319,3.27781 -4.12329,4.73126 0.28106,1.45937 4.36528,3.7598 9.57573,5.3935 4.99713,1.56683 12.28617,2.89425 16.19785,2.94982 3.91171,0.0556 9.19777,-0.97743 11.74681,-2.29559 z"
       id="path1243" />
    <path
       style="fill:none;stroke:#000000;stroke-width:1.65413;stroke-opacity:1"
       d="m -37.752504,274.38459 c 4.604963,-1.36753 9.233142,-3.52322 10.284859,-4.79047 1.529116,-1.84249 0.7732,-3.00801 -3.773339,-5.81791 l -5.685561,-3.51388 -8.847927,1.02552 c -4.866383,0.56402 -12.70514,0.31784 -17.419467,-0.54709 -4.714348,-0.86493 -9.45892,-1.02416 -10.543509,-0.35383 -1.468686,0.9077 -1.234514,2.46721 0.917544,6.11036 1.589236,2.69037 4.84511,6.10526 7.235248,7.58865 2.390159,1.48336 7.746325,2.71685 11.902604,2.74105 4.156279,0.0242 11.324585,-1.07487 15.929548,-2.4424 z"
       id="path1241" />
    <path
       style="fill:none;stroke:#000000;stroke-width:1.65413;stroke-opacity:1"
       d="m 192.63625,289.09736 c 4.23327,-1.6938 6.64999,-3.71766 6.64999,-5.56889 0,-1.93879 -2.8303,-4.08436 -8.49122,-6.43691 -4.67019,-1.94084 -12.01337,-3.52881 -16.31819,-3.52881 -5.41368,0 -9.17083,1.05705 -12.1854,3.42831 -2.39711,1.88558 -4.35839,4.4368 -4.35839,5.6694 0,1.23259 1.96128,3.78382 4.35839,5.66939 3.28018,2.58019 6.75022,3.42831 14.02663,3.42831 5.31752,0 12.66071,-1.19736 16.31819,-2.6608 z"
       id="path1239" />
    <path
       style="fill:none;stroke:#000000;stroke-width:1.65413;stroke-opacity:1"
       d="m -80.968747,287.93947 c 3.207663,-2.75915 4.142387,-4.75487 3.368691,-7.19258 -0.588934,-1.8556 -2.952424,-4.23116 -5.252176,-5.27899 -2.299732,-1.04783 -7.682029,-1.87447 -11.960615,-1.83697 -4.550446,0.0399 -10.868793,1.58465 -15.222853,3.7218 -4.09397,2.00947 -7.44358,4.77012 -7.44358,6.13478 0,1.36466 2.60525,3.78266 5.78945,5.37337 3.63877,1.81776 9.59563,2.89309 16.035498,2.89472 l 10.246054,0.004 4.439531,-3.8187 z"
       id="path1237" />
    <path
       style="fill:none;stroke:#000000;stroke-width:1.65413;stroke-opacity:1"
       d="m -19.35159,291.83383 c 4.551128,-3.59747 8.751629,-7.31238 9.334423,-8.25535 0.5827938,-0.94298 -1.61208,-2.98857 -4.877506,-4.54574 l -5.937119,-2.83121 -7.797616,2.99805 c -4.288675,1.64892 -12.077649,4.19068 -17.308842,5.64831 -6.961154,1.93967 -9.511225,3.42891 -9.511225,5.55451 0,1.59732 2.046974,4.01474 4.548854,5.37204 2.501859,1.35728 8.762048,2.49758 13.911538,2.53401 l 9.362705,0.0661 8.274788,-6.54085 z"
       id="path1235" />
    <path
       style="fill:none;stroke:#000000;stroke-width:1.65413;stroke-opacity:1"
       d="m 135.30248,293.62021 c 2.1301,-2.13008 2.8629,-4.01208 1.88962,-4.85292 -0.87437,-0.75542 -9.17108,-3.85147 -18.43711,-6.8801 l -16.84732,-5.50658 -5.069874,2.1 c -2.78844,1.155 -5.069875,2.9965 -5.069875,4.09219 0,1.09569 1.674804,3.51212 3.721778,5.36985 2.046995,1.85773 5.787421,4.69055 8.312081,6.29519 2.52467,1.60462 6.9908,3.41928 9.92477,4.03259 2.93396,0.61333 8.20594,0.6008 11.7155,-0.0277 3.50956,-0.62863 7.94676,-2.70868 9.86043,-4.6224 z"
       id="path1233" />
    <path
       style="fill:none;stroke:#000000;stroke-width:1.65413;stroke-opacity:1"
       d="m 54.020392,310.51132 c 1.658079,-0.42187 4.608849,-5.49656 7.316888,-12.58344 2.496029,-6.53205 5.897881,-17.05523 7.559661,-23.38484 1.6618,-6.32961 3.021433,-16.78086 3.021433,-23.22496 0,-8.24332 -0.910494,-13.42515 -3.071402,-17.48021 -1.689296,-3.17001 -4.980398,-6.85121 -7.313539,-8.18043 l -4.242096,-2.41679 -4.265375,2.28278 -4.265375,2.28276 -4.135317,-2.21315 -4.135316,-2.21317 -4.135337,2.21317 -4.135316,2.21315 -4.121196,-2.2056 c -3.100986,-1.65961 -5.096048,-1.76141 -8.059284,-0.41127 -2.165972,0.98689 -5.521928,5.06605 -7.457696,9.06484 -2.184785,4.51315 -3.5196092,10.48178 -3.5196092,15.73784 0,4.65702 1.0818592,13.5404 2.4041342,19.74082 1.322296,6.20043 4.223715,16.57701 6.447636,23.05912 2.223921,6.48208 4.863902,13.31857 5.866643,15.19223 l 1.82318,3.40663 12.819321,-0.0862 c 7.050652,-0.0476 14.069734,-0.40438 15.597962,-0.79323 z"
       id="path1231" />
    <path
       style="fill:none;stroke:#000000;stroke-width:1.65413;stroke-opacity:1"
       d="m 105.88113,315.82744 c 3.15497,-1.31825 5.73632,-3.5322 5.73632,-4.91991 0,-1.38773 -2.04698,-3.58506 -4.54884,-4.883 -2.50188,-1.29793 -9.759369,-6.52339 -16.127765,-11.61216 -6.368375,-5.08875 -12.483144,-9.25642 -13.588365,-9.26151 -1.1052,-0.004 -2.78507,1.44006 -3.733046,3.21137 -0.947976,1.7713 -1.869097,4.9786 -2.046933,7.1273 -0.177794,2.14874 1.874224,6.96604 4.560142,10.70516 2.685877,3.73913 6.744328,7.95561 9.018755,9.36994 2.274427,1.41436 6.5784,2.59136 9.564378,2.61557 2.985957,0.0242 8.010374,-1.03454 11.165354,-2.35276 z"
       id="path1229" />
    <path
       style="fill:none;stroke:#000000;stroke-width:1.65413;stroke-opacity:1"
       d="m -3.0613879,315.01343 c 2.88498602,-1.75913 7.2003089,-6.53416 9.5896202,-10.61118 l 4.3441627,-7.41277 -2.4751694,-5.92393 c -1.3613277,-3.25815 -3.4435919,-5.91975 -4.6272284,-5.91469 -1.1836365,0.004 -7.355383,4.16265 -13.715013,9.23906 -6.3596302,5.0764 -13.6171222,10.44324 -16.1277472,11.92631 -2.510646,1.48308 -4.564794,3.68848 -4.564794,4.90089 0,1.21244 2.419164,3.25587 5.375909,4.541 2.956765,1.28512 7.981179,2.36295 11.165377,2.39516 3.184197,0.0323 8.149897,-1.38072 11.0348831,-3.13985 z"
       id="path1227" />
    <path
       style="fill:none;stroke:#000000;stroke-width:1.65413;stroke-opacity:1"
       d="m 181.77716,317.22228 c 1.44205,-0.55338 2.62193,-1.91328 2.62193,-3.02201 0,-1.10876 -1.67481,-3.55036 -3.72178,-5.42582 -2.04699,-1.87546 -6.85566,-4.98263 -10.68593,-6.90486 -4.02767,-2.02123 -10.13059,-3.49492 -14.47364,-3.49492 -5.33232,0 -8.47958,0.97011 -10.85564,3.34617 -2.52143,2.52144 -2.95137,4.08382 -1.74443,6.33902 0.88095,1.64607 2.75185,3.94737 4.15756,5.11399 1.40569,1.16665 5.35422,3.16177 8.77447,4.43364 3.8428,1.42902 9.4827,1.98936 14.7621,1.4667 4.69888,-0.4652 9.7233,-1.29856 11.16536,-1.85191 z"
       id="path1225" />
    <path
       style="fill:none;stroke:#000000;stroke-width:1.65413;stroke-opacity:1"
       d="m -75.132329,317.99916 c 3.09253,-1.03357 7.669749,-3.7781 10.171608,-6.09894 2.50188,-2.32086 4.548854,-4.9523 4.548854,-5.84766 0,-0.89536 -1.23191,-2.98918 -2.737561,-4.65293 -1.941807,-2.14565 -5.091024,-3.02496 -10.833976,-3.02496 -4.453031,0 -10.478614,1.20441 -13.390186,2.67647 -2.911573,1.47205 -7.712936,4.48739 -10.669681,6.7007 -2.956769,2.21332 -5.375929,5.02894 -5.375929,6.2569 0,1.22801 2.79135,2.97407 6.202984,3.88021 3.41163,0.90611 8.511068,1.7244 11.332069,1.81844 2.82098,0.0939 7.659308,-0.67469 10.751818,-1.70823 z"
       id="path1223" />
    <path
       style="fill:none;stroke:#000000;stroke-width:1.65413;stroke-opacity:1"
       d="m 50.743513,323.95255 1.912036,-4.19641 -2.615813,-2.61581 c -1.438689,-1.43871 -3.431601,-2.11164 -4.428677,-1.49542 -0.997076,0.61622 -1.812864,3.68175 -1.812864,6.81224 0,3.9923 0.751471,5.69183 2.516662,5.69183 1.384151,0 3.377063,-1.88839 4.428656,-4.19643 z"
       id="path1221" />
    <path
       style="fill:none;stroke:#000000;stroke-width:1.65413;stroke-opacity:1"
       d="m 37.925743,323.75553 c 0.735904,-2.93206 0.272935,-5.22326 -1.391801,-6.88797 l -2.494458,-2.49448 -2.564212,2.12812 c -1.410345,1.17044 -2.564232,2.9088 -2.564232,3.86296 0,0.95417 1.23191,3.0961 2.737582,4.75985 1.505651,1.66374 3.285851,3.02497 3.955992,3.02497 0.67014,0 1.714642,-1.97706 2.321129,-4.39345 z"
       id="path1219" />
    <path
       style="fill:none;stroke:#000000;stroke-width:1.65413;stroke-opacity:1"
       d="m 63.334575,322.66114 c -0.331173,-2.32632 -1.682144,-3.60987 -3.799491,-3.60987 -1.85446,0 -3.536541,1.30298 -3.861699,2.99135 -0.316846,1.64524 -0.151952,4.09651 0.36634,5.44725 0.745889,1.94371 1.658431,2.07272 4.375607,0.61852 2.202689,-1.17884 3.24899,-3.13121 2.919243,-5.44725 z"
       id="path1217" />
    <path
       style="fill:none;stroke:#000000;stroke-width:1.65413;stroke-opacity:1"
       d="m 25.602799,322.97393 v -4.97982 l -3.704888,0.52859 c -2.037712,0.29072 -3.935772,1.74086 -4.217949,3.22253 -0.282177,1.48167 0.700676,3.90767 2.184124,5.3911 1.483427,1.48347 3.381508,2.27424 4.217929,1.75729 0.836441,-0.51692 1.520784,-3.18078 1.520784,-5.91969 z"
       id="path1215" />
    <path
       style="fill:none;stroke:#000000;stroke-width:1.65413;stroke-opacity:1"
       d="m 74.118644,327.45756 c 0.441055,-1.14938 0.20157,-3.06119 -0.532247,-4.24846 -0.733774,-1.1873 -2.525799,-1.70141 -3.982268,-1.14252 -1.456468,0.5589 -2.648126,2.4042 -2.648126,4.10067 0,1.69647 0.444941,3.52943 0.988786,4.07325 0.543824,0.54385 1.974967,0.61035 3.180352,0.14761 1.205365,-0.46253 2.552448,-1.78138 2.993503,-2.93073 z"
       id="path1213" />
    <path
       style="fill:none;stroke:#000000;stroke-width:1.65413;stroke-opacity:1"
       d="m 13.765483,325.56703 c -0.312753,-1.61335 -1.498703,-3.24302 -2.63543,-3.62151 -1.1367281,-0.3785 -2.522637,0.49976 -3.0797956,1.95166 -0.557138,1.45188 -0.068017,3.77841 1.0869245,5.17004 1.3044751,1.57179 2.6864761,1.94365 3.6484281,0.9817 0.851696,-0.8517 1.292647,-2.86855 0.979873,-4.48189 z"
       id="path1211" />
    <path
       style="fill:none;stroke:#000000;stroke-width:1.65413;stroke-opacity:1"
       d="m 162.47092,340.19783 c 0.36443,-1.10622 -2.92667,-5.8651 -7.31356,-10.57531 -4.38688,-4.71021 -10.3714,-9.57391 -13.29893,-10.80824 -2.92756,-1.2343 -7.62871,-2.2442 -10.44705,-2.2442 -2.81835,0 -6.56405,0.77056 -8.32376,1.71233 -1.75973,0.94177 -3.19952,3.29011 -3.19952,5.2185 0,1.92841 2.91569,6.27983 6.47931,9.66981 3.56362,3.39001 9.3324,6.9362 12.81951,7.88046 3.48709,0.94427 10.00345,1.59109 14.48079,1.43736 4.70188,-0.16146 8.42049,-1.12905 8.80321,-2.29071 z"
       id="path1209" />
    <path
       style="fill:none;stroke:#000000;stroke-width:1.65413;stroke-opacity:1"
       d="m -52.46234,339.06687 c 2.689185,-1.39065 6.838993,-4.84534 9.221792,-7.67713 2.382779,-2.8318 4.332338,-6.43143 4.332338,-7.99923 0,-1.5678 -0.893211,-3.74375 -1.984953,-4.83548 -1.091721,-1.09172 -4.850464,-1.98495 -8.352769,-1.98495 -3.502306,0 -8.750037,1.19987 -11.66161,2.66638 -2.911572,1.46652 -7.776446,5.00221 -10.810821,7.8571 -3.034375,2.8549 -6.540381,7.14335 -7.791145,9.52989 -1.250743,2.3865 -1.745509,4.88788 -1.099453,5.55858 0.646036,0.6707 6.143196,0.81304 12.215895,0.31635 6.072719,-0.49668 13.241542,-2.04089 15.930726,-3.43151 z"
       id="path1207" />
    <path
       style="fill:none;stroke:#000000;stroke-width:1.65413;stroke-opacity:1"
       d="m 89.669386,352.96089 c 0.225593,-1.36463 -2.166882,-5.97869 -5.316616,-10.25339 l -5.726826,-7.77223 -7.489081,2.55179 c -4.119025,1.4035 -7.489121,3.49798 -7.489121,4.65443 0,1.15645 1.591509,4.12591 3.536727,6.59885 1.945176,2.47292 5.1087,5.14924 7.030039,5.94741 1.921319,0.79814 6.09238,1.29441 9.269012,1.10277 3.653678,-0.22041 5.92639,-1.26003 6.185866,-2.82963 z"
       id="path1205" />
    <path
       style="fill:none;stroke:#000000;stroke-width:1.65413;stroke-opacity:1"
       d="m 7.0514032,354.49127 c 2.8050405,-0.97785 6.2657278,-3.5569 7.6904208,-5.73125 1.424672,-2.17437 2.590322,-5.02325 2.590322,-6.33093 0,-1.30768 -2.344139,-3.19475 -5.209214,-4.19352 -2.8650772,-0.99877 -6.5854911,-1.81594 -8.2675934,-1.81594 -1.8570025,0 -4.9683872,3.06867 -7.9206458,7.8119 -3.5677173,5.73206 -4.3954132,8.37446 -3.1087592,9.92478 0.9644324,1.16208 3.4121884,2.11284 5.4394603,2.11284 2.02727185,0 5.9809688,-0.80005 8.7860093,-1.77788 z"
       id="path1203" />
    <path
       style="fill:none;stroke:#000000;stroke-width:1.65413;stroke-opacity:1"
       d="m 130.81019,357.24901 c 0.49141,-1.28062 -1.86999,-6.49052 -5.24759,-11.57753 -3.3776,-5.08705 -9.51333,-11.48282 -13.63496,-14.21288 -4.12163,-2.73006 -9.16627,-4.96376 -11.21032,-4.96376 -2.044043,0 -4.893863,0.45183 -6.332924,1.00405 -1.658059,0.63625 -2.616475,3.01341 -2.616475,6.48958 0,3.50808 1.565771,7.34639 4.343398,10.6474 2.388877,2.83903 7.215631,6.62715 10.726141,8.41808 3.51049,1.79093 9.18563,3.91658 12.61143,4.72369 3.42575,0.8071 7.18246,1.54222 8.34822,1.63362 1.16577,0.0916 2.52166,-0.88161 3.01308,-2.16225 z"
       id="path1201" />
    <path
       style="fill:none;stroke:#000000;stroke-width:1.65413;stroke-opacity:1"
       d="m -29.004038,354.34502 c 4.082639,-1.75991 9.177777,-4.83828 11.322538,-6.84083 2.144741,-2.00254 4.983707,-5.72517 6.308814,-8.27251 1.325087,-2.54734 1.9491045,-6.0813 1.3867154,-7.85327 -0.5624094,-1.77195 -2.7942904,-3.66642 -4.9597664,-4.20993 -2.165476,-0.54349 -6.512781,-0.1381 -9.660676,0.90074 -3.147874,1.0389 -9.062645,5.45879 -13.14392,9.82199 -4.081275,4.36322 -8.647061,10.30506 -10.146221,13.2041 -1.49916,2.89907 -2.265103,6.01634 -1.702094,6.92731 0.586826,0.94951 3.615639,1.20096 7.097643,0.58929 3.340699,-0.58687 9.414327,-2.50697 13.496967,-4.26689 z"
       id="path1199" />
    <path
       style="fill:none;stroke:#000000;stroke-width:1.65413;stroke-opacity:1"
       d="m 49.754314,359.3254 c 4.165789,-1.95816 7.989407,-4.6424 8.496927,-5.96499 0.507521,-1.32258 -0.632907,-5.60673 -2.534275,-9.52034 -2.633056,-5.41963 -4.67114,-7.38228 -8.550887,-8.23443 -2.801629,-0.61534 -8.131642,-0.60556 -11.84449,0.0217 l -6.750612,1.14051 -3.25912,7.36781 -3.25914,7.3678 2.070645,2.49498 c 1.138837,1.37224 4.728964,3.90034 7.978016,5.618 3.249051,1.71764 6.845919,3.15591 7.993066,3.1961 1.147127,0.0401 5.49408,-1.52901 9.65987,-3.48717 z"
       id="path1197" />
    <path
       style="fill:none;stroke:#000000;stroke-width:1.65413;stroke-opacity:1"
       d="M 133.12112,377.86731 V 366.3829 l -46.729108,-0.50802 c -25.701036,-0.27941 -67.198956,-0.13583 -92.2176511,0.31906 l -45.4885199,0.82705 -0.489121,11.16536 -0.4891,11.16538 h 92.706751 92.706749 z"
       id="path1195" />
  </g>
</svg>
