<?xml version="1.0" encoding="UTF-8" standalone="no"?>
<svg
   xmlns:dc="http://purl.org/dc/elements/1.1/"
   xmlns:cc="http://creativecommons.org/ns#"
   xmlns:rdf="http://www.w3.org/1999/02/22-rdf-syntax-ns#"
   xmlns:svg="http://www.w3.org/2000/svg"
   xmlns="http://www.w3.org/2000/svg"
   xmlns:sodipodi="http://sodipodi.sourceforge.net/DTD/sodipodi-0.dtd"
   xmlns:inkscape="http://www.inkscape.org/namespaces/inkscape"
   width="210mm"
   height="297mm"
   viewBox="0 0 210 297"
   version="1.1"
   id="svg3523"
   sodipodi:docname="logo..svg"
   inkscape:version="1.0.1 (3bc2e813f5, 2020-09-07)">
  <defs
     id="defs3517">
    <clipPath
       clipPathUnits="userSpaceOnUse"
       id="clipPath4150">
      <path
         d="M 0,2850.435 H 3888 V 0 H 0 Z"
         id="path4148" />
    </clipPath>
    <clipPath
       clipPathUnits="userSpaceOnUse"
       id="clipPath4290">
      <path
         d="M 0,2850.435 H 3888 V 0 H 0 Z"
         id="path4288" />
    </clipPath>
    <clipPath
       clipPathUnits="userSpaceOnUse"
       id="clipPath4326">
      <path
         d="M 0,2850.435 H 3888 V 0 H 0 Z"
         id="path4324" />
    </clipPath>
    <clipPath
       clipPathUnits="userSpaceOnUse"
       id="clipPath4342">
      <path
         d="M 0,2850.435 H 3888 V 0 H 0 Z"
         id="path4340" />
    </clipPath>
    <clipPath
       clipPathUnits="userSpaceOnUse"
       id="clipPath4382">
      <path
         d="M 0,2850.435 H 3888 V 0 H 0 Z"
         id="path4380" />
    </clipPath>
  </defs>
  <sodipodi:namedview
     id="base"
     pagecolor="#ffffff"
     bordercolor="#666666"
     borderopacity="1.0"
     inkscape:pageopacity="0.0"
     inkscape:pageshadow="2"
     inkscape:zoom="1.2239126"
     inkscape:cx="236.85111"
     inkscape:cy="760.17369"
     inkscape:document-units="mm"
     inkscape:current-layer="layer1"
     inkscape:document-rotation="0"
     showgrid="false"
     inkscape:window-width="1920"
     inkscape:window-height="1002"
     inkscape:window-x="-8"
     inkscape:window-y="-8"
     inkscape:window-maximized="1"
     showguides="true" />
  <metadata
     id="metadata3520">
    <rdf:RDF>
      <cc:Work
         rdf:about="">
        <dc:format>image/svg+xml</dc:format>
        <dc:type
           rdf:resource="http://purl.org/dc/dcmitype/StillImage" />
        <dc:title></dc:title>
      </cc:Work>
    </rdf:RDF>
  </metadata>
  <g
     inkscape:label="Layer 1"
     inkscape:groupmode="layer"
     id="layer1">
    <g
       id="g4322"
       clip-path="url(#clipPath4326)"
       style="fill:none;stroke:#231f20;stroke-width:2.88818;stroke-miterlimit:4;stroke-dasharray:none;stroke-opacity:1"
       transform="matrix(0.06924768,0,0,0.06924768,20.84743,181.94381)">
      <g
         id="g4328"
         transform="translate(604.9864,67.2374)"
         style="fill:none;stroke:#231f20;stroke-width:2.88818;stroke-miterlimit:4;stroke-dasharray:none;stroke-opacity:1" />
    </g>
    <g
       id="g6350">
      <path
         id="path5954"
         style="color:#000000;font-style:normal;font-variant:normal;font-weight:normal;font-stretch:normal;font-size:medium;line-height:normal;font-family:sans-serif;font-variant-ligatures:normal;font-variant-position:normal;font-variant-caps:normal;font-variant-numeric:normal;font-variant-alternates:normal;font-variant-east-asian:normal;font-feature-settings:normal;font-variation-settings:normal;text-indent:0;text-align:start;text-decoration:none;text-decoration-line:none;text-decoration-style:solid;text-decoration-color:#000000;letter-spacing:normal;word-spacing:normal;text-transform:none;writing-mode:lr-tb;direction:ltr;text-orientation:mixed;dominant-baseline:auto;baseline-shift:baseline;text-anchor:start;white-space:normal;shape-padding:0;shape-margin:0;inline-size:0;clip-rule:nonzero;display:inline;overflow:visible;visibility:visible;isolation:auto;mix-blend-mode:normal;color-interpolation:sRGB;color-interpolation-filters:linearRGB;solid-color:#000000;solid-opacity:1;vector-effect:none;fill:none;fill-opacity:1;fill-rule:nonzero;stroke:#231f20;stroke-width:0.0871279;stroke-linecap:round;stroke-linejoin:miter;stroke-miterlimit:4;stroke-dasharray:none;stroke-dashoffset:0;stroke-opacity:1;color-rendering:auto;image-rendering:auto;shape-rendering:auto;text-rendering:auto;enable-background:accumulate;stop-color:#000000"
         d="m 45.96514,214.53826 a 0.39207543,0.39207543 0 0 0 -0.0083,2.4e-4 0.39207543,0.39207543 0 0 0 -0.231652,0.0828 l -1.851411,1.44349 -1.360192,-1.06055 a 0.39207543,0.39207543 0 0 0 -0.5502,0.0682 0.39207543,0.39207543 0 0 0 0.06821,0.5502 l 1.204632,0.93921 -1.658029,1.29288 -1.543217,-1.20328 1.581037,-1.23277 a 0.39207543,0.39207543 0 0 0 0.06821,-0.55043 0.39207543,0.39207543 0 0 0 -0.550425,-0.068 l -1.736598,1.35389 -1.278023,-0.99639 a 0.39207543,0.39207543 0 0 0 -0.550199,0.068 0.39207543,0.39207543 0 0 0 0.06799,0.55042 l 1.122463,0.87528 -1.626513,1.26812 -1.540966,-1.18865 0.971855,-0.74966 a 0.39207543,0.39207543 0 0 0 0.07114,-0.54998 0.39207543,0.39207543 0 0 0 -0.549974,-0.0709 l -1.134846,0.8755 -1.20103,-0.9266 a 0.39207543,0.39207543 0 0 0 -0.549975,0.0709 0.39207543,0.39207543 0 0 0 0.07091,0.54998 l 1.038042,0.80076 -1.464874,1.13011 -1.652178,-1.28815 0.243134,-0.19631 a 0.39207543,0.39207543 0 0 0 0.05876,-0.55132 0.39207543,0.39207543 0 0 0 -0.551326,-0.0585 l -0.385185,0.31112 -0.199459,-0.15534 a 0.39207543,0.39207543 0 0 0 -0.550426,0.0682 0.39207543,0.39207543 0 0 0 0.06821,0.5502 l 0.05516,0.043 -1.741776,1.40702 -0.891037,-0.69473 a 0.39207543,0.39207543 0 0 0 -0.259342,-0.0826 0.39207543,0.39207543 0 0 0 -0.291083,0.15061 0.39207543,0.39207543 0 0 0 0.06799,0.54975 l 0.747409,0.58262 -1.628315,1.31516 -1.258886,-0.98153 a 0.39207543,0.39207543 0 0 0 -0.224673,-0.0824 0.39207543,0.39207543 0 0 0 -0.325979,0.15151 0.39207543,0.39207543 0 0 0 0.06821,0.54953 l 1.114583,0.86897 -1.920748,1.55155 -0.680772,-0.53084 a 0.39207543,0.39207543 0 0 0 -0.550425,0.0682 0.39207543,0.39207543 0 0 0 0.06821,0.5502 l 0.536468,0.41828 -1.741326,1.40657 -0.493919,-0.38519 a 0.39207543,0.39207543 0 0 0 -0.550201,0.068 0.39207543,0.39207543 0 0 0 0.06821,0.55042 l 0.349616,0.27263 -0.115939,0.0936 a 0.39207543,0.39207543 0 0 0 -0.05876,0.55132 0.39207543,0.39207543 0 0 0 0.306167,0.14566 0.39207543,0.39207543 0 0 0 0.245159,-0.0869 l 0.258441,-0.20869 1.414222,1.10265 -2.053121,1.58374 a 0.39207543,0.39207543 0 0 0 -0.07091,0.54998 0.39207543,0.39207543 0 0 0 0.31202,0.15263 0.39207543,0.39207543 0 0 0 0.23773,-0.0817 l 2.212733,-1.70688 1.599047,1.24673 -1.65848,1.29288 -1.164335,-0.90792 a 0.39207543,0.39207543 0 0 0 -0.550201,0.0682 0.39207543,0.39207543 0 0 0 0.06821,0.55021 l 1.008775,0.78657 -0.94394,0.73593 a 0.39207543,0.39207543 0 0 0 -0.06799,0.55043 0.39207543,0.39207543 0 0 0 0.303691,0.15083 0.39207543,0.39207543 0 0 0 0.246509,-0.0828 l 1.099501,-0.85726 1.543217,1.20328 -1.511475,1.17852 a 0.39207543,0.39207543 0 0 0 -0.06821,0.5502 0.39207543,0.39207543 0 0 0 0.303691,0.15105 0.39207543,0.39207543 0 0 0 0.246509,-0.0828 l 1.66726,-1.29986 1.88743,1.47163 -1.930878,1.50539 a 0.39207543,0.39207543 0 0 0 -0.06799,0.55043 0.39207543,0.39207543 0 0 0 0.303691,0.15083 0.39207543,0.39207543 0 0 0 0.246509,-0.0828 l 2.086439,-1.62674 1.540741,1.20125 -0.844435,0.65151 a 0.39207543,0.39207543 0 0 0 -0.07091,0.54997 0.39207543,0.39207543 0 0 0 0.312021,0.15241 0.39207543,0.39207543 0 0 0 0.237954,-0.0815 l 1.003823,-0.77442 1.659831,1.294 -0.095,0.0741 a 0.39207543,0.39207543 0 0 0 -0.06799,0.5502 0.39207543,0.39207543 0 0 0 0.303691,0.15106 0.39207543,0.39207543 0 0 0 0.24651,-0.0829 l 0.250336,-0.19518 0.579916,0.45205 a 0.39207543,0.39207543 0 0 0 0.240656,0.0828 0.39207543,0.39207543 0 0 0 0.30977,-0.15106 0.39207543,0.39207543 0 0 0 -0.06821,-0.5502 l -0.424356,-0.33093 1.658029,-1.29288 1.543217,1.20306 -1.093421,0.85254 a 0.39207543,0.39207543 0 0 0 -0.06821,0.5502 0.39207543,0.39207543 0 0 0 0.303691,0.15106 0.39207543,0.39207543 0 0 0 0.246734,-0.0828 l 1.248757,-0.97366 1.613006,1.25754 a 0.39207543,0.39207543 0 0 0 0.240656,0.0829 0.39207543,0.39207543 0 0 0 0.309543,-0.15106 0.39207543,0.39207543 0 0 0 -0.06799,-0.5502 l -1.457446,-1.1362 1.772617,-1.38203 1.88743,1.47163 -1.861541,1.45137 a 0.39207543,0.39207543 0 0 0 -0.06821,0.5502 0.39207543,0.39207543 0 0 0 0.30369,0.15106 0.39207543,0.39207543 0 0 0 0.246509,-0.0828 l 2.017327,-1.57271 1.848934,1.44169 a 0.39207543,0.39207543 0 0 0 -0.03715,0.52049 0.39207543,0.39207543 0 0 0 0.312021,0.15263 0.39207543,0.39207543 0 0 0 0.237954,-0.0817 l 0.123593,-0.0954 0.120891,0.0943 a 0.39207543,0.39207543 0 0 0 0.240657,0.0829 0.39207543,0.39207543 0 0 0 0.309769,-0.15106 0.39207543,0.39207543 0 0 0 -0.03264,-0.51868 l 1.967575,-1.51778 1.394861,1.08757 -0.855917,0.66726 a 0.39207543,0.39207543 0 0 0 -0.06821,0.5502 0.39207543,0.39207543 0 0 0 0.303692,0.15106 0.39207543,0.39207543 0 0 0 0.246734,-0.0829 l 1.011477,-0.7886 1.490539,1.16231 a 0.39207543,0.39207543 0 0 0 0.231651,0.0828 0.39207543,0.39207543 0 0 0 0.0083,2.3e-4 0.39207543,0.39207543 0 0 0 0.310445,-0.15128 0.39207543,0.39207543 0 0 0 -0.06799,-0.55042 l -1.335205,-1.04097 1.658031,-1.29288 1.772618,1.38203 -1.398464,1.09027 a 0.39207543,0.39207543 0 0 0 -0.06821,0.5502 0.39207543,0.39207543 0 0 0 0.30369,0.15106 0.39207543,0.39207543 0 0 0 0.24651,-0.0829 l 1.554024,-1.21161 0.917151,0.71521 a 0.39207543,0.39207543 0 0 0 0.549749,-0.0682 0.39207543,0.39207543 0 0 0 -0.06821,-0.55042 l -0.76114,-0.59343 1.772843,-1.38225 1.887655,1.47185 -1.665684,1.29874 a 0.39207543,0.39207543 0 0 0 -0.06799,0.5502 0.39207543,0.39207543 0 0 0 0.303467,0.15105 0.39207543,0.39207543 0 0 0 0.246734,-0.0828 l 1.821244,-1.42008 0.732099,0.57091 a 0.39207543,0.39207543 0 0 0 0.240656,0.0826 0.39207543,0.39207543 0 0 0 0.309545,-0.15083 0.39207543,0.39207543 0 0 0 -0.06799,-0.55042 l -0.576539,-0.44957 1.59612,-1.24426 1.954968,1.5081 -1.429531,1.10288 a 0.39207543,0.39207543 0 0 0 -0.07091,0.54997 0.39207543,0.39207543 0 0 0 0.312021,0.15241 0.39207543,0.39207543 0 0 0 0.237955,-0.0815 l 1.592519,-1.2285 1.59252,1.2285 a 0.39207543,0.39207543 0 0 0 0.241106,0.0815 0.39207543,0.39207543 0 0 0 0.308868,-0.15241 0.39207543,0.39207543 0 0 0 -0.07091,-0.54997 l -1.429531,-1.10288 1.49324,-1.15218 1.598824,1.24651 -0.117289,0.0914 a 0.39207543,0.39207543 0 0 0 -0.06821,0.55042 0.39207543,0.39207543 0 0 0 0.303691,0.15083 0.39207543,0.39207543 0 0 0 0.246735,-0.0826 l 0.272849,-0.21274 1.479957,1.15376 a 0.39207543,0.39207543 0 0 0 0.240882,0.0828 0.39207543,0.39207543 0 0 0 0.309544,-0.15083 0.39207543,0.39207543 0 0 0 -0.06821,-0.55042 l -1.324398,-1.03264 1.658255,-1.29288 1.772618,1.38202 -0.07272,0.0567 a 0.39207543,0.39207543 0 0 0 -0.06821,0.5502 0.39207543,0.39207543 0 0 0 0.303691,0.15105 0.39207543,0.39207543 0 0 0 0.246509,-0.0828 l 0.228275,-0.17807 1.355915,1.05717 a 0.39207543,0.39207543 0 0 0 0.240656,0.0828 0.39207543,0.39207543 0 0 0 0.309545,-0.15106 0.39207543,0.39207543 0 0 0 -0.06821,-0.5502 l -1.200355,-0.93584 1.772617,-1.3818 1.658031,1.29266 -0.646328,0.50405 a 0.39207543,0.39207543 0 0 0 -0.06799,0.5502 0.39207543,0.39207543 0 0 0 0.303467,0.15105 0.39207543,0.39207543 0 0 0 0.246734,-0.0828 l 0.801887,-0.62517 0.322826,0.25169 a 0.39207543,0.39207543 0 0 0 0.240883,0.0829 0.39207543,0.39207543 0 0 0 0.309543,-0.15106 0.39207543,0.39207543 0 0 0 -0.06821,-0.5502 l -0.167266,-0.13057 2.083512,-1.62449 1.828898,1.41084 -0.984013,0.76721 a 0.39207543,0.39207543 0 0 0 -0.06799,0.5502 0.39207543,0.39207543 0 0 0 0.303465,0.15106 0.39207543,0.39207543 0 0 0 0.246735,-0.0829 l 1.142724,-0.89103 0.260017,0.20058 a 0.39207543,0.39207543 0 0 0 0.241107,0.0817 0.39207543,0.39207543 0 0 0 0.308868,-0.15263 0.39207543,0.39207543 0 0 0 -0.07091,-0.54998 l -0.100404,-0.0774 2.118856,-1.65195 4.125377,3.26518 a 0.66357373,0.39207542 38.44676 0 0 0.370553,0.18798 0.66357373,0.39207542 38.44676 0 0 0.392389,-0.0842 0.66357373,0.39207542 38.44676 0 0 -0.278026,-0.71994 l -3.973871,-3.14519 2.30661,-1.79828 1.378202,1.07451 a 0.39207543,0.39207543 0 0 0 0.240656,0.0828 0.39207543,0.39207543 0 0 0 0.309544,-0.15105 0.39207543,0.39207543 0 0 0 -0.06799,-0.5502 l -1.222868,-0.9534 2.001793,-1.56078 1.378877,1.07497 a 0.39207543,0.39207543 0 0 0 0.240657,0.0828 0.39207543,0.39207543 0 0 0 0.309544,-0.15083 0.39207543,0.39207543 0 0 0 -0.06799,-0.55043 l -1.223317,-0.95362 1.558075,-1.21476 1.083743,0.84489 a 0.39207543,0.39207543 0 0 0 0.240656,0.0828 0.39207543,0.39207543 0 0 0 0.309543,-0.15083 0.39207543,0.39207543 0 0 0 -0.06799,-0.55043 l -0.928182,-0.72377 1.722866,-1.34308 0.205312,0.16006 a 0.39207543,0.39207543 0 0 0 0.240656,0.0829 0.39207543,0.39207543 0 0 0 0.30977,-0.15106 0.39207543,0.39207543 0 0 0 -0.06821,-0.5502 l -0.04998,-0.0389 0.660286,-0.51463 1.817416,1.41693 -0.865823,0.69675 a 0.39207544,0.1790533 51.627436 0 0 0.104459,0.41918 0.39207544,0.1790533 51.627436 0 0 0.242231,0.19743 0.39207544,0.1790533 51.627436 0 0 0.141153,-0.003 l 1.013277,-0.8154 1.189997,0.92773 -0.622462,0.49797 a 0.39207537,0.21694061 51.271406 0 0 0.07587,0.44147 0.39207537,0.21694061 51.271406 0 0 0.254389,0.18775 0.39207537,0.21694061 51.271406 0 0 0.160063,-0.0173 l 0.76789,-0.61414 2.67199,2.08329 a 0.39207543,0.39207543 0 0 0 0.24065,0.0829 0.39207543,0.39207543 0 0 0 0.30977,-0.15106 0.39207543,0.39207543 0 0 0 -0.0682,-0.5502 l -2.52453,-1.96848 1.52363,-1.21836 2.18189,1.70103 a 0.39207543,0.39207543 0 0 0 0.24043,0.0828 0.39207543,0.39207543 0 0 0 0.30977,-0.15083 0.39207543,0.39207543 0 0 0 -0.0682,-0.55043 l -2.03443,-1.58621 1.58711,-1.26924 1.87595,1.44709 a 0.39207543,0.39207543 0 0 0 0.24111,0.0817 0.39207543,0.39207543 0 0 0 0.30887,-0.15263 0.39207543,0.39207543 0 0 0 -0.0709,-0.54997 l -1.72466,-1.33048 1.35884,-1.08667 1.51598,1.22444 a 0.39207543,0.39207543 0 0 0 0.24831,0.0869 0.39207543,0.39207543 0 0 0 0.30301,-0.14565 0.39207543,0.39207543 0 0 0 -0.0585,-0.55133 l -1.38158,-1.11593 0.91152,-0.72895 a 0.39207537,0.21694061 51.271406 0 0 -0.0759,-0.44147 0.39207537,0.21694061 51.271406 0 0 -0.41468,-0.17041 l -1.0457,0.83633 -1.19112,-0.96218 0.81179,-0.6533 a 0.39207544,0.1790533 51.627436 0 0 -0.10445,-0.41918 0.39207544,0.1790533 51.627436 0 0 -0.38339,-0.19473 l -0.94822,0.76294 -1.37235,-1.10851 a 0.39207543,0.39207543 0 0 0 -0.55132,0.0585 0.39207543,0.39207543 0 0 0 0.0588,0.55156 l 1.23997,1.00157 -1.41084,1.13529 -1.74651,-1.34713 0.25192,-0.19631 a 0.39207543,0.39207543 0 0 0 0.068,-0.5502 0.39207543,0.39207543 0 0 0 -0.5502,-0.0682 l -2.631231,2.05132 -0.397567,-0.31 a 0.39207543,0.39207543 0 0 0 -0.550425,0.0682 0.39207543,0.39207543 0 0 0 0.06821,0.5502 l 0.242232,0.18888 -1.543217,1.20306 -1.695401,-1.3217 a 0.39207543,0.39207543 0 0 0 -0.550201,0.0682 0.39207543,0.39207543 0 0 0 0.06821,0.55019 l 1.539841,1.20059 -0.660286,0.51463 -1.819444,-1.41873 0.386762,-0.30144 a 0.39207543,0.39207543 0 0 0 0.06799,-0.5502 0.39207543,0.39207543 0 0 0 -0.5502,-0.0682 l -0.542097,0.42278 -0.821697,-0.6407 a 0.39207543,0.39207543 0 0 0 -0.239757,-0.0828 0.39207543,0.39207543 0 0 0 -0.310669,0.15105 0.39207543,0.39207543 0 0 0 0.06821,0.5502 l 0.666139,0.51936 -1.722866,1.34331 -2.593416,-2.02183 a 0.39207543,0.39207543 0 0 0 -0.5502,0.068 0.39207543,0.39207543 0 0 0 0.06821,0.55042 l 2.437631,1.90072 -1.558076,1.21476 -1.658029,-1.29266 1.030837,-0.80368 a 0.39207543,0.39207543 0 0 0 0.06821,-0.55021 0.39207543,0.39207543 0 0 0 -0.5502,-0.0682 l -1.186397,0.92503 -1.315844,-1.02588 a 0.39207543,0.39207543 0 0 0 -0.550426,0.068 0.39207543,0.39207543 0 0 0 0.06821,0.55043 l 1.160283,0.90454 -2.001792,1.56078 -1.772843,-1.38203 1.260013,-0.98243 a 0.39207543,0.39207543 0 0 0 0.06821,-0.55021 0.39207543,0.39207543 0 0 0 -0.550426,-0.0682 l -1.415347,1.10356 -2.299181,-1.79243 a 0.39207543,0.39207543 0 0 0 -0.550425,0.0682 0.39207543,0.39207543 0 0 0 0.04502,0.53061 l -2.2438,1.7312 -1.998867,-1.58216 1.343984,-1.04773 a 0.39207543,0.39207543 0 0 0 0.06799,-0.5502 0.39207543,0.39207543 0 0 0 -0.550199,-0.068 l -1.494592,1.16523 -1.874148,-1.48356 a 0.39207543,0.39207543 0 0 0 0.04638,-0.53196 0.39207543,0.39207543 0 0 0 -0.550201,-0.068 l -0.128095,0.1 -0.53174,-0.42098 -0.992116,0.21477 0.887434,0.70239 -2.313588,1.80345 -1.782073,-1.3746 1.699228,-1.32484 a 0.39207543,0.39207543 0 0 0 0.06821,-0.55043 0.39207543,0.39207543 0 0 0 -0.550425,-0.068 l -1.858165,1.44867 -1.311116,-1.01148 1.548845,-1.19495 a 0.39207543,0.39207543 0 0 0 0.07091,-0.54998 0.39207543,0.39207543 0 0 0 -0.549976,-0.0709 l -1.711834,1.32057 -1.961046,-1.51282 0.725347,-0.56551 a 0.39207543,0.39207543 0 0 0 0.06799,-0.55043 0.39207543,0.39207543 0 0 0 -0.5502,-0.068 l -0.884283,0.68933 -1.897785,-1.46397 0.568885,-0.4435 a 0.39207543,0.39207543 0 0 0 0.06821,-0.55042 0.39207543,0.39207543 0 0 0 -0.5502,-0.068 l -0.727822,0.56754 -1.551548,-1.19698 0.460827,-0.3593 a 0.39207543,0.39207543 0 0 0 0.06821,-0.5502 0.39207543,0.39207543 0 0 0 -0.5502,-0.068 l -0.619764,0.48311 -1.53894,-1.1873 1.124489,-0.8674 a 0.39207543,0.39207543 0 0 0 0.07091,-0.54997 0.39207543,0.39207543 0 0 0 -0.549751,-0.0709 l -1.287478,0.99325 -1.075862,-0.83003 a 0.39207543,0.39207543 0 0 0 -0.549976,0.0709 0.39207543,0.39207543 0 0 0 0.07091,0.54998 l 0.912873,0.70441 -1.952941,1.50652 -1.655779,-1.29108 1.274421,-0.99369 a 0.39207543,0.39207543 0 0 0 0.06821,-0.55043 0.39207543,0.39207543 0 0 0 -0.550199,-0.068 l -1.430207,1.11504 -1.671086,-1.30301 a 0.39207543,0.39207543 0 0 0 -0.550425,0.0682 0.39207543,0.39207543 0 0 0 0.06821,0.5502 l 1.515752,1.18167 -1.773067,1.38225 -1.887655,-1.47185 1.69585,-1.32215 a 0.39207543,0.39207543 0 0 0 0.06821,-0.5502 0.39207543,0.39207543 0 0 0 -0.310445,-0.15128 z m 7.733196,2.39284 1.542317,1.18977 -1.954292,1.52363 -1.544568,-1.20418 z m -9.824362,0.12809 1.887655,1.47163 -1.658031,1.29266 -1.887655,-1.47163 z m -13.309266,0.0198 1.637544,1.27667 -1.782748,1.37505 -1.596572,-1.24493 z m 8.832471,0.0696 1.543443,1.20328 -1.615032,1.25933 -1.551547,-1.19697 z m 9.412613,0 1.652627,1.2886 -1.782297,1.37482 -1.643172,-1.28117 z m -13.859915,0.0777 1.544568,1.19135 -1.468702,1.14498 -1.544117,-1.20373 z m 20.931701,1.38901 1.551322,1.19698 -1.965773,1.53264 -1.543218,-1.20329 z m -14.303408,0.23368 1.887655,1.47185 -1.601749,1.24876 -1.89756,-1.46398 z m -8.737694,0.005 1.547494,1.20644 -1.773067,1.38248 -1.556951,-1.21386 z m 4.294894,0.0588 1.551546,1.19676 -1.480182,1.1542 -1.543443,-1.20328 z m 13.965499,0.0227 1.547719,1.20688 -1.772618,1.38203 -1.557399,-1.21408 z m -22.904003,0.0565 1.581938,1.23344 -1.666359,1.28546 -1.543893,-1.20374 z m 18.202536,0.0365 1.63957,1.27848 -1.666809,1.2859 -1.631016,-1.27149 z m 11.674648,1.2787 1.897786,1.4642 -1.979281,1.543 -1.88788,-1.47186 z m -23.048532,0.25034 1.543442,1.20328 -1.773067,1.38248 -1.543442,-1.20328 z m 4.302324,0.0466 1.897786,1.46375 -1.493691,1.16456 -1.887655,-1.47163 z m 13.958294,0.0353 1.543443,1.20328 -1.772842,1.38203 -1.543219,-1.20329 z m -22.868883,0.0837 1.560102,1.21634 -1.65758,1.29243 -1.568882,-1.22332 z m 18.260168,0.0815 1.560776,1.21702 -1.658029,1.29266 -1.569557,-1.22377 z m -22.735611,0.009 1.529259,1.19247 -1.965548,1.51621 -1.48446,-1.15714 z m 18.161788,0.005 1.627415,1.2688 -1.598148,1.23277 -1.627639,-1.25551 z m -6.89709,1.43921 1.887656,1.47186 -1.773067,1.38225 -1.887656,-1.47163 z m 23.406252,0.008 1.95767,1.51035 -2.003369,1.54547 -1.936958,-1.51013 z m -5.145633,0.0741 1.887655,1.47163 -1.772842,1.38226 -1.887655,-1.47186 z m -22.852,0.0968 1.543443,1.2035 -1.657805,1.29243 -1.543218,-1.2035 z m -4.505609,0.0669 1.572258,1.22579 -1.955192,1.52453 -1.582614,-1.23412 z m 22.766227,0.0151 1.543443,1.20328 -1.658255,1.29288 -1.543217,-1.20328 z m -9.008967,0.0439 1.624261,1.25303 -1.513726,1.16772 -1.607603,-1.25349 z m 4.502683,0.0227 1.572933,1.22624 -1.577886,1.2303 -1.589818,-1.22625 z m -22.974692,0.28545 1.469602,1.14588 -1.782073,1.3746 -1.428854,-1.11391 z m 11.401348,1.26654 1.887431,1.47163 -1.657805,1.29243 -1.88743,-1.47162 z m 18.26062,0.0817 1.887655,1.47186 -1.658256,1.29265 -1.887655,-1.47162 z m -22.737188,0.008 1.543218,1.20328 -1.954967,1.52431 -1.543443,-1.20329 z m 9.412388,4.6e-4 1.604451,1.25078 -1.782523,1.37505 -1.594995,-1.24358 z m 23.480543,0.0444 1.314717,1.01395 -2.003368,1.5619 -1.31832,-1.02768 z m -14.632538,0.0374 1.543443,1.20305 -1.566406,1.2213 -1.551546,-1.19676 z m 9.412613,0 1.933356,1.50742 -1.782073,1.37483 -1.924126,-1.50022 z m -13.85969,0.002 1.593195,1.22894 -1.517554,1.18302 -1.592745,-1.24178 z m 56.652855,0.0986 1.75663,1.35502 -1.56911,1.26293 -1.77284,-1.38203 z m -75.2829,0.10491 1.586216,1.2366 -1.772843,1.38225 -1.595446,-1.24403 z m 79.70273,0.11323 1.18933,0.96083 -1.37348,1.09837 -1.21228,-0.93538 z m -34.670498,0.7267 1.873472,1.48266 -2.280944,1.77847 -1.897786,-1.46397 z m -5.366705,0.42571 1.781849,1.37482 -2.016201,1.57181 -1.772392,-1.38203 z m -32.668032,0.147 1.887655,1.47163 -1.955192,1.52431 -1.88743,-1.47163 z m 9.474296,0.0486 1.596122,1.24448 -1.773068,1.38225 -1.605352,-1.25168 z m 8.786322,0.0333 1.887655,1.47185 -1.553123,1.21071 -1.89756,-1.46397 z m -4.394174,0.0252 1.551547,1.19675 -1.529035,1.19226 -1.543217,-1.20329 z m -9.045437,0.0718 1.591618,1.2411 -1.666584,1.28568 -1.582839,-1.23413 z m 61.241305,0.0367 1.782973,1.38991 -1.518904,1.22219 -1.807286,-1.40904 z m -42.980463,0.0453 1.920524,1.49752 -1.66681,1.2859 -1.911969,-1.49054 z m -27.85558,0.0603 1.543443,1.20329 -1.772618,1.38203 -1.543443,-1.20329 z m 75.454216,0.009 1.21048,0.93381 -1.58396,1.26676 -1.199,-0.93493 z m -42.616441,0.057 1.321697,1.03062 -1.772618,1.38203 -1.331152,-1.03782 z m 32.062677,0.62517 1.819444,1.4185 -1.722866,1.34331 -1.819667,-1.4185 z m -14.06928,0.25191 1.52926,1.19225 -2.247402,1.75236 -1.529485,-1.21071 z m -5.516411,0.14678 1.995265,1.57924 -2.258884,1.74268 -2.009221,-1.54998 z m -5.449999,0.31135 1.897785,1.46397 -2.029482,1.58239 -1.887881,-1.47185 z m -23.383065,0.068 1.543217,1.20306 -1.773067,1.38248 -1.543218,-1.20328 z m 4.350951,0.008 1.897785,1.46375 -1.542542,1.2026 -1.887656,-1.47163 z m 13.964597,0.11639 1.772392,1.3818 -1.772617,1.38203 -1.772392,-1.3818 z m -22.972215,0.003 1.608728,1.25439 -1.657804,1.29243 -1.617509,-1.26114 z m -4.525871,0.0511 1.579237,1.23142 -1.965323,1.5162 -1.569106,-1.22332 z m -5.118168,0.0527 1.887655,1.47162 -1.772843,1.38203 -1.88743,-1.47163 z m 23.378561,0.0293 1.908592,1.48806 -1.54772,1.19405 -1.910393,-1.47387 z m 47.694764,0.05 1.19698,0.93313 -1.52364,1.21859 -1.192247,-0.92953 z m -75.664482,0.0995 1.543443,1.20328 -1.658256,1.29289 -1.543442,-1.20329 z m 32.824944,0.0561 1.334528,1.04029 -1.658255,1.29288 -1.343308,-1.04727 z m 27.633385,0.51823 1.658029,1.29266 -2.001793,1.56077 -1.658029,-1.29265 z m 4.491651,0.0779 1.819443,1.41873 -1.558076,1.21476 -1.819442,-1.41872 z m -9.541608,0.10108 1.772842,1.38203 -2.265637,1.76654 -1.75956,-1.39261 z m -34.335744,0.53692 1.887655,1.47163 -1.772842,1.38225 -1.887656,-1.47162 z m 29.281284,0.001 1.532862,1.21319 -2.219036,1.73007 -1.564604,-1.20688 z m -33.87244,0.17763 1.543217,1.20305 -1.65803,1.29266 -1.542991,-1.20328 z m 28.332167,0.0115 2.005844,1.54727 -2.054247,1.58486 -1.984457,-1.54727 z m -32.886403,0.0175 1.620885,1.26384 -1.954968,1.52408 -1.63124,-1.27172 z m 13.854513,0.0588 1.907016,1.47095 -1.564154,1.20666 -1.888781,-1.47253 z m 9.015497,0.0369 1.772392,1.3818 -1.658255,1.29288 -1.772393,-1.3818 z m 4.820331,0 1.887655,1.47185 -1.772392,1.38203 -1.887881,-1.47185 z m -37.436586,0.10671 1.88743,1.47162 -1.658255,1.29288 -1.887431,-1.47162 z m 4.935369,0.0896 1.565729,1.22062 -1.782072,1.37483 -1.556275,-1.21342 z m 23.400399,0.0466 1.346685,1.04974 -1.52881,1.19203 -1.361994,-1.05065 z m 32.237372,0.52768 1.819444,1.4185 -2.001793,1.56078 -1.819443,-1.4185 z m -4.935369,0.26812 1.65803,1.29266 -2.282971,1.78005 -1.645648,-1.30256 z m -5.299167,0.37303 1.759335,1.39261 -2.18797,1.70598 -1.782072,-1.37482 z m -33.857133,0.16389 1.887431,1.47163 -1.65803,1.29266 -1.88743,-1.47163 z m -4.476793,0.0896 1.542992,1.20306 -1.954742,1.52408 -1.543218,-1.20306 z m 9.412388,2.3e-4 1.885404,1.47005 -1.782298,1.37483 -1.876174,-1.46262 z m 8.903385,0.12449 1.772393,1.38203 -1.516203,1.1819 -1.781848,-1.37438 z m 4.705969,0.0892 1.887881,1.47186 -1.658256,1.29288 -1.887881,-1.47186 z m -27.886648,0.0358 1.634618,1.27464 -1.772619,1.38203 -1.644072,-1.28185 z m 19.009827,0.0144 1.36537,1.05335 -1.566404,1.22129 -1.366496,-1.06528 z m 19.130718,0 1.567756,1.20936 -2.055147,1.60242 -1.570231,-1.22444 z m -5.318303,0.0396 1.980856,1.54457 -1.781847,1.3746 -1.971626,-1.53714 z m -37.436811,0.10671 1.552898,1.21094 -1.667035,1.2859 -1.544118,-1.20396 z m 55.408371,0.75281 1.819444,1.4185 -2.301657,1.79446 -1.805711,-1.42909 z m -5.202815,0.47681 1.645648,1.30234 -2.158703,1.68302 -1.66681,-1.28591 z m -38.545316,0.0606 1.887655,1.47163 -1.954966,1.52408 -1.887431,-1.47163 z m 13.970902,0.11144 1.781623,1.3746 -1.579237,1.23119 -1.772394,-1.3818 z m -9.14967,0.0673 1.872797,1.46014 -1.666809,1.28591 -1.864018,-1.4534 z m 4.934244,0.0887 1.369873,1.06798 -1.772843,1.38225 -1.379328,-1.07541 z m 23.548304,0 1.782073,1.37482 -2.067979,1.61233 -1.772617,-1.38203 z m -14.758831,0.0358 1.887881,1.47185 -1.502696,1.17154 -1.897786,-1.46397 z m -23.31823,0.0178 1.542993,1.20305 -1.772617,1.38203 -1.542993,-1.20306 z m -4.695613,0.0975 1.647674,1.28455 -1.658255,1.29289 -1.656229,-1.29153 z m 32.8353,0.0637 1.968249,1.53444 -1.667035,1.28613 -1.95947,-1.52769 z m 5.029696,0.16322 1.573833,1.22692 -1.772617,1.38203 -1.58329,-1.23435 z m 12.427683,1.09725 1.805712,1.42908 -2.127187,1.65848 -1.828899,-1.41085 z m -29.060663,0.09 1.772392,1.3818 -1.772843,1.38225 -1.772392,-1.3818 z m -9.237918,0.13597 1.86064,1.45069 -1.965098,1.51598 -1.850284,-1.44259 z m 13.868471,0.0119 1.897785,1.46398 -1.59252,1.24177 -1.887879,-1.47185 z m -9.061197,0.15601 1.382705,1.07812 -1.658031,1.29265 -1.391484,-1.08487 z m 28.394525,0 1.66681,1.2859 -2.080136,1.62201 -1.658255,-1.29288 z m -14.656625,0.13575 1.956092,1.52498 -1.496842,1.15466 -1.958344,-1.5108 z m 9.537331,0.0973 1.772617,1.38203 -1.772617,1.38203 -1.772618,-1.38203 z m -4.634606,0.14498 1.586667,1.23683 -1.658255,1.29288 -1.595447,-1.24381 z" />
      <path
         d="m 49.359135,161.84174 h 3.183458 v 6.2212 h 5.515003 v -6.2212 h 3.172252 v 16.48897 h -3.172252 v -7.23004 h -5.515003 v 7.23004 h -3.183458 z"
         id="path5634"
         style="font-variant:normal;font-weight:bold;font-stretch:normal;font-size:760.989px;font-family:'Century Gothic';-inkscape-font-specification:CenturyGothic-Bold;writing-mode:lr-tb;fill:none;fill-opacity:1;fill-rule:nonzero;stroke:#231f20;stroke-width:0.030167;stroke-opacity:1" />
      <path
         d="m 73.656994,166.13493 h 3.048944 v 12.19578 h -3.048944 v -1.28907 q -0.896751,0.85191 -1.804706,1.23303 -0.896751,0.3699 -1.950432,0.3699 -2.365173,0 -4.091416,-1.82712 -1.726239,-1.83834 -1.726239,-4.56221 0,-2.82476 1.670194,-4.62947 1.670193,-1.8047 4.057789,-1.8047 1.098517,0 2.062522,0.41474 0.964005,0.41475 1.782288,1.24424 z m -3.217088,2.5109 q -1.423587,0 -2.365174,1.00884 -0.941586,0.99763 -0.941586,2.56694 0,1.58052 0.952795,2.60057 0.964005,1.02005 2.365178,1.02005 1.446005,0 2.398801,-0.99763 0.952795,-1.00884 0.952795,-2.6342 0,-1.59173 -0.952795,-2.57815 -0.952796,-0.98642 -2.410014,-0.98642 z"
         id="path5636"
         style="font-variant:normal;font-weight:bold;font-stretch:normal;font-size:760.989px;font-family:'Century Gothic';-inkscape-font-specification:CenturyGothic-Bold;writing-mode:lr-tb;fill:none;fill-opacity:1;fill-rule:nonzero;stroke:#231f20;stroke-width:0.030167;stroke-opacity:1" />
      <path
         d="m 80.166048,161.63998 h 3.048944 v 4.49495 h 1.815919 v 2.6342 h -1.815919 v 9.56158 h -3.048944 v -9.56158 h -1.569313 v -2.6342 h 1.569313 z"
         id="path5638"
         style="font-variant:normal;font-weight:bold;font-stretch:normal;font-size:760.989px;font-family:'Century Gothic';-inkscape-font-specification:CenturyGothic-Bold;writing-mode:lr-tb;fill:none;fill-opacity:1;fill-rule:nonzero;stroke:#231f20;stroke-width:0.030167;stroke-opacity:1" />
      <path
         d="m 98.621135,168.60099 -2.544526,1.40117 q -0.717398,-0.75103 -1.423587,-1.04247 -0.694979,-0.29145 -1.636566,-0.29145 -1.71503,0 -2.77992,1.03126 -1.053681,1.02006 -1.053681,2.623 0,1.5581 1.02005,2.54452 1.020054,0.98642 2.679039,0.98642 2.051312,0 3.194665,-1.40117 l 2.410014,1.64778 q -1.961636,2.54452 -5.537425,2.54452 -3.217084,0 -5.044212,-1.90559 -1.815915,-1.90559 -1.815915,-4.46132 0,-1.77108 0.885541,-3.26193 0.885538,-1.49084 2.466059,-2.34275 1.591726,-0.85191 3.553367,-0.85191 1.815919,0 3.261924,0.7286 1.446005,0.7174 2.365173,2.05132 z"
         id="path5640"
         style="font-variant:normal;font-weight:bold;font-stretch:normal;font-size:760.989px;font-family:'Century Gothic';-inkscape-font-specification:CenturyGothic-Bold;writing-mode:lr-tb;fill:none;fill-opacity:1;fill-rule:nonzero;stroke:#231f20;stroke-width:0.030167;stroke-opacity:1" />
      <path
         d="m 101.38671,161.427 h 3.03774 v 5.94096 q 0.89675,-0.77345 1.80471,-1.15457 0.90795,-0.39232 1.83833,-0.39232 1.81592,0 3.06016,1.25544 1.06489,1.08731 1.06489,3.19467 v 8.05953 h -3.01532 v -5.34686 q 0,-2.11857 -0.20177,-2.8696 -0.20177,-0.75103 -0.69498,-1.12093 -0.482,-0.36991 -1.1994,-0.36991 -0.93038,0 -1.60294,0.61651 -0.66135,0.61652 -0.91917,1.6814 -0.13451,0.54926 -0.13451,2.5109 v 4.89849 h -3.03774 z"
         id="path5642"
         style="font-variant:normal;font-weight:bold;font-stretch:normal;font-size:760.989px;font-family:'Century Gothic';-inkscape-font-specification:CenturyGothic-Bold;writing-mode:lr-tb;fill:none;fill-opacity:1;fill-rule:nonzero;stroke:#231f20;stroke-width:0.030167;stroke-opacity:1" />
      <path
         d="m 56.831306,184.6897 v 7.07356 h -0.897195 v -1.21577 q -0.572125,0.69565 -1.287283,1.04673 -0.708656,0.35108 -1.553841,0.35108 -1.501831,0 -2.568065,-1.08574 -1.059732,-1.09224 -1.059732,-2.65259 0,-1.52783 1.072735,-2.61357 1.072736,-1.08574 2.581067,-1.08574 0.871192,0 1.573346,0.37058 0.708655,0.37058 1.241773,1.11175 v -1.30029 z m -3.640798,0.69565 q -0.760667,0 -1.404308,0.37709 -0.643642,0.37058 -1.027226,1.04672 -0.377083,0.67616 -0.377083,1.43032 0,0.74766 0.383584,1.43031 0.383585,0.68266 1.027226,1.06624 0.650143,0.37708 1.391306,0.37708 0.747664,0 1.417311,-0.37708 0.669646,-0.37708 1.027227,-1.02072 0.364077,-0.64365 0.364077,-1.44983 0,-1.22876 -0.812676,-2.05444 -0.806178,-0.82569 -1.989438,-0.82569 z"
         style="font-variant:normal;font-weight:normal;font-stretch:normal;font-size:30.5641px;font-family:'Century Gothic';-inkscape-font-specification:CenturyGothic;writing-mode:lr-tb;fill:none;fill-opacity:1;fill-rule:nonzero;stroke:#231f20;stroke-width:0.030167;stroke-opacity:1"
         id="path5645" />
      <path
         d="m 58.53328,184.6897 h 0.929702 v 1.03373 q 0.416092,-0.61114 0.877696,-0.9102 0.461599,-0.30557 0.96221,-0.30557 0.377081,0 0.806177,0.24055 l -0.474603,0.76717 q -0.286063,-0.12353 -0.481107,-0.12353 -0.4551,0 -0.877692,0.37709 -0.422592,0.37058 -0.643644,1.15725 -0.169037,0.60463 -0.169037,2.44454 v 2.39253 H 58.53328 Z"
         style="font-variant:normal;font-weight:normal;font-stretch:normal;font-size:30.5641px;font-family:'Century Gothic';-inkscape-font-specification:CenturyGothic;writing-mode:lr-tb;fill:none;fill-opacity:1;fill-rule:nonzero;stroke:#231f20;stroke-width:0.030167;stroke-opacity:1"
         id="path5647" />
      <path
         d="m 69.751156,186.15902 -0.721659,0.4486 q -0.936206,-1.24177 -2.555064,-1.24177 -1.293784,0 -2.151972,0.83218 -0.851688,0.83219 -0.851688,2.02195 0,0.77367 0.390089,1.45631 0.396584,0.68266 1.079236,1.05974 0.689151,0.37708 1.540839,0.37708 1.560343,0 2.54856,-1.24177 l 0.721659,0.4746 q -0.507111,0.76067 -1.365303,1.18326 -0.851684,0.4161 -1.943923,0.4161 -1.677369,0 -2.782612,-1.06624 -1.105243,-1.06623 -1.105243,-2.59407 0,-1.02723 0.51361,-1.90492 0.520114,-0.88419 1.423813,-1.3783 0.903699,-0.49411 2.021946,-0.49411 0.702155,0 1.352295,0.21455 0.656648,0.21455 1.111747,0.55912 0.4551,0.34458 0.77367,0.87769 z"
         style="font-variant:normal;font-weight:normal;font-stretch:normal;font-size:30.5641px;font-family:'Century Gothic';-inkscape-font-specification:CenturyGothic;writing-mode:lr-tb;fill:none;fill-opacity:1;fill-rule:nonzero;stroke:#231f20;stroke-width:0.030167;stroke-opacity:1"
         id="path5649" />
      <path
         d="m 71.500409,181.9591 h 0.910199 v 3.99838 q 0.552621,-0.72816 1.215769,-1.08574 0.663143,-0.36408 1.436817,-0.36408 0.793173,0 1.404306,0.40309 0.617636,0.40309 0.910203,1.08574 0.292562,0.67614 0.292562,2.12597 v 3.6408 h -0.910199 v -3.37425 q 0,-1.22226 -0.09752,-1.63186 -0.169037,-0.70215 -0.617636,-1.05323 -0.442096,-0.35758 -1.163754,-0.35758 -0.825685,0 -1.482329,0.54613 -0.650139,0.54611 -0.858188,1.35229 -0.130029,0.52011 -0.130029,1.92442 v 2.59408 h -0.910199 z"
         style="font-variant:normal;font-weight:normal;font-stretch:normal;font-size:30.5641px;font-family:'Century Gothic';-inkscape-font-specification:CenturyGothic;writing-mode:lr-tb;fill:none;fill-opacity:1;fill-rule:nonzero;stroke:#231f20;stroke-width:0.030167;stroke-opacity:1"
         id="path5651" />
      <path
         d="m 79.941088,181.77706 q 0.312066,0 0.533114,0.22105 0.221047,0.22105 0.221047,0.53311 0,0.30557 -0.221047,0.52662 -0.221048,0.22105 -0.533114,0.22105 -0.305571,0 -0.526618,-0.22105 -0.221048,-0.22105 -0.221048,-0.52662 0,-0.31206 0.221048,-0.53311 0.221047,-0.22105 0.526618,-0.22105 z m -0.455104,2.91264 h 0.916703 v 7.07356 h -0.916703 z"
         style="font-variant:normal;font-weight:normal;font-stretch:normal;font-size:30.5641px;font-family:'Century Gothic';-inkscape-font-specification:CenturyGothic;writing-mode:lr-tb;fill:none;fill-opacity:1;fill-rule:nonzero;stroke:#231f20;stroke-width:0.030167;stroke-opacity:1"
         id="path5653" />
      <path
         d="m 83.078672,182.06312 h 0.916698 v 2.62658 h 1.443317 v 0.78017 H 83.99537 v 6.29339 h -0.916698 v -6.29339 h -1.241773 v -0.78017 h 1.241773 z"
         style="font-variant:normal;font-weight:normal;font-stretch:normal;font-size:30.5641px;font-family:'Century Gothic';-inkscape-font-specification:CenturyGothic;writing-mode:lr-tb;fill:none;fill-opacity:1;fill-rule:nonzero;stroke:#231f20;stroke-width:0.030167;stroke-opacity:1"
         id="path5655" />
      <path
         d="m 92.754567,189.41624 0.76717,0.40309 q -0.377085,0.74116 -0.871192,1.19626 -0.494111,0.4551 -1.111743,0.69565 -0.617637,0.23406 -1.39781,0.23406 -1.72938,0 -2.704593,-1.13126 -0.975214,-1.13775 -0.975214,-2.56806 0,-1.34579 0.825681,-2.39903 1.046728,-1.33929 2.802115,-1.33929 1.807398,0 2.886634,1.3718 0.767169,0.96872 0.780173,2.41853 h -6.358396 q 0.02601,1.23527 0.786673,2.02845 0.760665,0.78667 1.878913,0.78667 0.539617,0 1.046728,-0.18854 0.513614,-0.18854 0.871191,-0.50061 0.357578,-0.31207 0.77367,-1.00772 z m 0,-1.90492 q -0.182041,-0.72816 -0.533118,-1.16376 -0.344573,-0.43559 -0.916699,-0.70215 -0.572125,-0.26656 -1.202765,-0.26656 -1.040229,0 -1.787895,0.66965 -0.546117,0.48761 -0.82568,1.46282 z"
         style="font-variant:normal;font-weight:normal;font-stretch:normal;font-size:30.5641px;font-family:'Century Gothic';-inkscape-font-specification:CenturyGothic;writing-mode:lr-tb;fill:none;fill-opacity:1;fill-rule:nonzero;stroke:#231f20;stroke-width:0.030167;stroke-opacity:1"
         id="path5657" />
      <path
         d="m 102.31947,186.15902 -0.72166,0.4486 q -0.9362,-1.24177 -2.555058,-1.24177 -1.293784,0 -2.151972,0.83218 -0.851688,0.83219 -0.851688,2.02195 0,0.77367 0.390085,1.45631 0.396588,0.68266 1.079235,1.05974 0.689151,0.37708 1.540839,0.37708 1.560339,0 2.548559,-1.24177 l 0.72166,0.4746 q -0.50711,0.76067 -1.3653,1.18326 -0.85169,0.4161 -1.943926,0.4161 -1.677368,0 -2.782612,-1.06624 -1.105243,-1.06623 -1.105243,-2.59407 0,-1.02723 0.513615,-1.90492 0.520114,-0.88419 1.423813,-1.3783 0.903699,-0.49411 2.021942,-0.49411 0.702155,0 1.352301,0.21455 0.65664,0.21455 1.11174,0.55912 0.4551,0.34458 0.77367,0.87769 z"
         style="font-variant:normal;font-weight:normal;font-stretch:normal;font-size:30.5641px;font-family:'Century Gothic';-inkscape-font-specification:CenturyGothic;writing-mode:lr-tb;fill:none;fill-opacity:1;fill-rule:nonzero;stroke:#231f20;stroke-width:0.030167;stroke-opacity:1"
         id="path5659" />
      <path
         d="m 104.8619,182.06312 h 0.9167 v 2.62658 h 1.44332 v 0.78017 h -1.44332 v 6.29339 h -0.9167 v -6.29339 h -1.24178 v -0.78017 h 1.24178 z"
         style="font-variant:normal;font-weight:normal;font-stretch:normal;font-size:30.5641px;font-family:'Century Gothic';-inkscape-font-specification:CenturyGothic;writing-mode:lr-tb;fill:none;fill-opacity:1;fill-rule:nonzero;stroke:#231f20;stroke-width:0.030167;stroke-opacity:1"
         id="path5661" />
      <path
         d="m 112.13876,185.46337 -0.58513,0.60463 q -0.72816,-0.70865 -1.42381,-0.70865 -0.4421,0 -0.76067,0.29256 -0.31207,0.29257 -0.31207,0.68265 0,0.34458 0.26006,0.65664 0.26006,0.31857 1.09224,0.74767 1.01422,0.52661 1.3783,1.01422 0.35758,0.49411 0.35758,1.11175 0,0.87119 -0.61113,1.47582 -0.61114,0.60464 -1.52784,0.60464 -0.61113,0 -1.17026,-0.26656 -0.55262,-0.26656 -0.9167,-0.73467 l 0.57213,-0.65014 q 0.69565,0.78667 1.47582,0.78667 0.54612,0 0.92971,-0.35107 0.38358,-0.35108 0.38358,-0.82568 0,-0.39009 -0.25355,-0.69566 -0.25356,-0.29906 -1.14426,-0.75417 -0.95571,-0.4941 -1.30028,-0.97521 -0.34458,-0.4811 -0.34458,-1.09874 0,-0.80617 0.54612,-1.33929 0.55262,-0.53312 1.39131,-0.53312 0.97521,0 1.96343,0.95571 z"
         style="font-variant:normal;font-weight:normal;font-stretch:normal;font-size:30.5641px;font-family:'Century Gothic';-inkscape-font-specification:CenturyGothic;writing-mode:lr-tb;fill:none;fill-opacity:1;fill-rule:nonzero;stroke:#231f20;stroke-width:0.030167;stroke-opacity:1"
         id="path5663" />
      <path
         d="m 114.7499,190.33294 q 0.33157,0 0.56562,0.23405 0.23405,0.23405 0.23405,0.57213 0,0.33157 -0.23405,0.57212 -0.23405,0.23406 -0.56562,0.23406 -0.33158,0 -0.56563,-0.23406 -0.23405,-0.24055 -0.23405,-0.57212 0,-0.33808 0.23405,-0.57213 0.23405,-0.23405 0.56563,-0.23405 z"
         style="font-variant:normal;font-weight:normal;font-stretch:normal;font-size:30.5641px;font-family:'Century Gothic';-inkscape-font-specification:CenturyGothic;writing-mode:lr-tb;fill:none;fill-opacity:1;fill-rule:nonzero;stroke:#231f20;stroke-width:0.030167;stroke-opacity:1"
         id="path5665" />
      <path
         style="color:#000000;font-style:normal;font-variant:normal;font-weight:normal;font-stretch:normal;font-size:medium;line-height:normal;font-family:sans-serif;font-variant-ligatures:normal;font-variant-position:normal;font-variant-caps:normal;font-variant-numeric:normal;font-variant-alternates:normal;font-variant-east-asian:normal;font-feature-settings:normal;font-variation-settings:normal;text-indent:0;text-align:start;text-decoration:none;text-decoration-line:none;text-decoration-style:solid;text-decoration-color:#000000;letter-spacing:normal;word-spacing:normal;text-transform:none;writing-mode:lr-tb;direction:ltr;text-orientation:mixed;dominant-baseline:auto;baseline-shift:baseline;text-anchor:start;white-space:normal;shape-padding:0;shape-margin:0;inline-size:0;clip-rule:nonzero;display:inline;overflow:visible;visibility:visible;isolation:auto;mix-blend-mode:normal;color-interpolation:sRGB;color-interpolation-filters:linearRGB;solid-color:#000000;solid-opacity:1;vector-effect:none;fill:none;fill-opacity:1;fill-rule:nonzero;stroke:#231f20;stroke-width:0.0871279;stroke-linecap:round;stroke-linejoin:miter;stroke-miterlimit:4;stroke-dasharray:none;stroke-dashoffset:0;stroke-opacity:1;color-rendering:auto;image-rendering:auto;shape-rendering:auto;text-rendering:auto;enable-background:accumulate;stop-color:#000000"
         d="m 39.049663,158.32359 a 1.3069182,1.3069182 0 0 0 -1.312024,1.16822 c -2.316633,21.71874 4.173355,42.69288 17.482581,55.17305 13.309233,12.48017 33.505632,16.17386 57.58098,3.5149 a 1.3069182,1.3069182 0 0 0 0.5488,-1.76468 1.3069182,1.3069182 0 0 0 -1.76468,-0.5488 C 88.216825,228.15357 69.555514,224.52411 57.007875,212.75809 44.460238,200.99207 38.094111,180.79667 40.337011,159.76919 a 1.3069182,1.3069182 0 0 0 -1.160571,-1.43795 1.3069182,1.3069182 0 0 0 -0.126777,-0.008 z"
         id="path5710" />
    </g>
  </g>
</svg>
