<?xml version="1.0" encoding="UTF-8" standalone="no"?>
<svg
   xmlns:dc="http://purl.org/dc/elements/1.1/"
   xmlns:cc="http://creativecommons.org/ns#"
   xmlns:rdf="http://www.w3.org/1999/02/22-rdf-syntax-ns#"
   xmlns:svg="http://www.w3.org/2000/svg"
   xmlns="http://www.w3.org/2000/svg"
   xmlns:sodipodi="http://sodipodi.sourceforge.net/DTD/sodipodi-0.dtd"
   xmlns:inkscape="http://www.inkscape.org/namespaces/inkscape"
   width="210mm"
   height="297mm"
   viewBox="0 0 210 297"
   version="1.1"
   id="svg3523"
   sodipodi:docname="logo2.svg"
   inkscape:version="1.0.1 (3bc2e813f5, 2020-09-07)">
  <defs
     id="defs3517">
    <clipPath
       clipPathUnits="userSpaceOnUse"
       id="clipPath4150">
      <path
         d="M 0,2850.435 H 3888 V 0 H 0 Z"
         id="path4148" />
    </clipPath>
    <clipPath
       clipPathUnits="userSpaceOnUse"
       id="clipPath4290">
      <path
         d="M 0,2850.435 H 3888 V 0 H 0 Z"
         id="path4288" />
    </clipPath>
    <clipPath
       clipPathUnits="userSpaceOnUse"
       id="clipPath4326">
      <path
         d="M 0,2850.435 H 3888 V 0 H 0 Z"
         id="path4324" />
    </clipPath>
    <clipPath
       clipPathUnits="userSpaceOnUse"
       id="clipPath4342">
      <path
         d="M 0,2850.435 H 3888 V 0 H 0 Z"
         id="path4340" />
    </clipPath>
    <clipPath
       clipPathUnits="userSpaceOnUse"
       id="clipPath4382">
      <path
         d="M 0,2850.435 H 3888 V 0 H 0 Z"
         id="path4380" />
    </clipPath>
  </defs>
  <sodipodi:namedview
     id="base"
     pagecolor="#ffffff"
     bordercolor="#666666"
     borderopacity="1.0"
     inkscape:pageopacity="0.0"
     inkscape:pageshadow="2"
     inkscape:zoom="2.4478252"
     inkscape:cx="255.48003"
     inkscape:cy="309.7924"
     inkscape:document-units="mm"
     inkscape:current-layer="layer1"
     inkscape:document-rotation="0"
     showgrid="false"
     inkscape:window-width="1920"
     inkscape:window-height="1002"
     inkscape:window-x="-8"
     inkscape:window-y="-8"
     inkscape:window-maximized="1"
     showguides="true" />
  <metadata
     id="metadata3520">
    <rdf:RDF>
      <cc:Work
         rdf:about="">
        <dc:format>image/svg+xml</dc:format>
        <dc:type
           rdf:resource="http://purl.org/dc/dcmitype/StillImage" />
      </cc:Work>
    </rdf:RDF>
  </metadata>
  <g
     inkscape:label="Layer 1"
     inkscape:groupmode="layer"
     id="layer1">
    <path
       id="path5954"
       style="color:#000000;font-style:normal;font-variant:normal;font-weight:normal;font-stretch:normal;font-size:medium;line-height:normal;font-family:sans-serif;font-variant-ligatures:normal;font-variant-position:normal;font-variant-caps:normal;font-variant-numeric:normal;font-variant-alternates:normal;font-variant-east-asian:normal;font-feature-settings:normal;font-variation-settings:normal;text-indent:0;text-align:start;text-decoration:none;text-decoration-line:none;text-decoration-style:solid;text-decoration-color:#000000;letter-spacing:normal;word-spacing:normal;text-transform:none;writing-mode:lr-tb;direction:ltr;text-orientation:mixed;dominant-baseline:auto;baseline-shift:baseline;text-anchor:start;white-space:normal;shape-padding:0;shape-margin:0;inline-size:0;clip-rule:nonzero;display:inline;overflow:visible;visibility:visible;isolation:auto;mix-blend-mode:normal;color-interpolation:sRGB;color-interpolation-filters:linearRGB;solid-color:#000000;solid-opacity:1;vector-effect:none;fill:none;fill-opacity:1;fill-rule:nonzero;stroke:#000000;stroke-width:0.35277778;stroke-linecap:round;stroke-linejoin:miter;stroke-miterlimit:4;stroke-dasharray:none;stroke-dashoffset:0;stroke-opacity:1;color-rendering:auto;image-rendering:auto;shape-rendering:auto;text-rendering:auto;enable-background:accumulate;stop-color:#000000"
       d="m 40.639854,96.675833 a 0.31213119,0.31213119 0 0 0 -0.0066,1.79e-4 0.31213119,0.31213119 0 0 0 -0.184419,0.06595 l -1.473907,1.14916 -1.082849,-0.844306 a 0.31213119,0.31213119 0 0 0 -0.438014,0.0543 0.31213119,0.31213119 0 0 0 0.0543,0.438014 l 0.959008,0.747707 -1.319957,1.029262 -1.228555,-0.957932 1.258663,-0.981411 a 0.31213119,0.31213119 0 0 0 0.0543,-0.438194 0.31213119,0.31213119 0 0 0 -0.438193,-0.05412 l -1.382506,1.077831 -1.017433,-0.793229 a 0.31213119,0.31213119 0 0 0 -0.438014,0.05412 0.31213119,0.31213119 0 0 0 0.05412,0.438193 l 0.893592,0.696809 -1.294866,1.009547 -1.226763,-0.946283 0.773694,-0.596804 a 0.31213119,0.31213119 0 0 0 0.05663,-0.437834 0.31213119,0.31213119 0 0 0 -0.437834,-0.05645 l -0.90345,0.696988 -0.956141,-0.737671 a 0.31213119,0.31213119 0 0 0 -0.437834,0.05645 0.31213119,0.31213119 0 0 0 0.05645,0.437834 l 0.826385,0.637487 -1.166187,0.899686 -1.315298,-1.025498 0.193559,-0.156281 a 0.31213119,0.31213119 0 0 0 0.04678,-0.43891 0.31213119,0.31213119 0 0 0 -0.438911,-0.0466 l -0.306646,0.247682 -0.158789,-0.123662 a 0.31213119,0.31213119 0 0 0 -0.438194,0.0543 0.31213119,0.31213119 0 0 0 0.0543,0.438014 l 0.04391,0.03423 -1.386628,1.120126 -0.709354,-0.553073 a 0.31213119,0.31213119 0 0 0 -0.206462,-0.06577 0.31213119,0.31213119 0 0 0 -0.231732,0.119898 0.31213119,0.31213119 0 0 0 0.05412,0.437656 l 0.595011,0.463822 -1.296301,1.04701 -1.002199,-0.7814 a 0.31213119,0.31213119 0 0 0 -0.178862,-0.0656 0.31213119,0.31213119 0 0 0 -0.259511,0.12062 0.31213119,0.31213119 0 0 0 0.0543,0.43748 l 0.887319,0.69179 -1.529107,1.23518 -0.541962,-0.4226 a 0.31213119,0.31213119 0 0 0 -0.438194,0.0543 0.31213119,0.31213119 0 0 0 0.0543,0.43801 l 0.427081,0.33299 -1.386268,1.11977 -0.39321,-0.30665 a 0.31213119,0.31213119 0 0 0 -0.438014,0.0541 0.31213119,0.31213119 0 0 0 0.0543,0.43819 l 0.278329,0.21704 -0.0923,0.0746 a 0.31213119,0.31213119 0 0 0 -0.04678,0.43891 0.31213119,0.31213119 0 0 0 0.24374,0.11596 0.31213119,0.31213119 0 0 0 0.19517,-0.0692 l 0.205745,-0.16614 1.125862,0.87782 -1.634489,1.26082 a 0.31213119,0.31213119 0 0 0 -0.05645,0.43783 0.31213119,0.31213119 0 0 0 0.248399,0.12151 0.31213119,0.31213119 0 0 0 0.189257,-0.065 l 1.761556,-1.35885 1.273001,0.99252 -1.320315,1.02926 -0.926928,-0.72279 a 0.31213119,0.31213119 0 0 0 -0.438014,0.0543 0.31213119,0.31213119 0 0 0 0.0543,0.43802 l 0.803086,0.62619 -0.751471,0.58587 a 0.31213119,0.31213119 0 0 0 -0.05412,0.4382 0.31213119,0.31213119 0 0 0 0.241768,0.12007 0.31213119,0.31213119 0 0 0 0.196246,-0.066 l 0.875312,-0.68247 1.228555,0.95793 -1.203285,0.93822 a 0.31213119,0.31213119 0 0 0 -0.0543,0.43802 0.31213119,0.31213119 0 0 0 0.241769,0.12025 0.31213119,0.31213119 0 0 0 0.196246,-0.066 l 1.327305,-1.03482 1.502583,1.17156 -1.537172,1.19845 a 0.31213119,0.31213119 0 0 0 -0.05412,0.43819 0.31213119,0.31213119 0 0 0 0.241769,0.12008 0.31213119,0.31213119 0 0 0 0.196246,-0.066 l 1.661013,-1.29505 1.226584,0.95632 -0.672255,0.51867 a 0.31213119,0.31213119 0 0 0 -0.05645,0.43783 0.31213119,0.31213119 0 0 0 0.248399,0.12133 0.31213119,0.31213119 0 0 0 0.189436,-0.0649 l 0.799142,-0.61652 1.321392,1.03016 -0.07563,0.059 a 0.31213119,0.31213119 0 0 0 -0.05413,0.43801 0.31213119,0.31213119 0 0 0 0.241769,0.12026 0.31213119,0.31213119 0 0 0 0.196246,-0.066 l 0.199293,-0.15539 0.461671,0.35988 a 0.31213119,0.31213119 0 0 0 0.191586,0.066 0.31213119,0.31213119 0 0 0 0.246608,-0.12026 0.31213119,0.31213119 0 0 0 -0.0543,-0.43801 l -0.33783,-0.26345 1.319957,-1.02927 1.228555,0.95776 -0.870472,0.6787 a 0.31213119,0.31213119 0 0 0 -0.0543,0.43802 0.31213119,0.31213119 0 0 0 0.241769,0.12026 0.31213119,0.31213119 0 0 0 0.196425,-0.066 l 0.994135,-0.77513 1.284113,1.00113 a 0.31213119,0.31213119 0 0 0 0.191587,0.066 0.31213119,0.31213119 0 0 0 0.246427,-0.12025 0.31213119,0.31213119 0 0 0 -0.05412,-0.43802 l -1.160272,-0.90452 1.41118,-1.10024 1.502583,1.17157 -1.481973,1.15543 a 0.31213119,0.31213119 0 0 0 -0.0543,0.43801 0.31213119,0.31213119 0 0 0 0.241768,0.12026 0.31213119,0.31213119 0 0 0 0.196246,-0.066 l 1.605994,-1.25204 1.471935,1.14773 a 0.31213119,0.31213119 0 0 0 -0.02957,0.41436 0.31213119,0.31213119 0 0 0 0.2484,0.12151 0.31213119,0.31213119 0 0 0 0.189435,-0.0651 l 0.09839,-0.076 0.09624,0.0751 a 0.31213119,0.31213119 0 0 0 0.191587,0.066 0.31213119,0.31213119 0 0 0 0.246607,-0.12026 0.31213119,0.31213119 0 0 0 -0.02599,-0.41292 l 1.566386,-1.2083 1.110449,0.86581 -0.681396,0.53121 a 0.31213119,0.31213119 0 0 0 -0.0543,0.43801 0.31213119,0.31213119 0 0 0 0.241769,0.12026 0.31213119,0.31213119 0 0 0 0.196425,-0.066 l 0.805237,-0.62781 1.186617,0.92531 a 0.31213119,0.31213119 0 0 0 0.184418,0.066 0.31213119,0.31213119 0 0 0 0.0066,1.7e-4 0.31213119,0.31213119 0 0 0 0.247145,-0.12043 0.31213119,0.31213119 0 0 0 -0.05412,-0.4382 l -1.062957,-0.82871 1.319958,-1.02926 1.411181,1.10023 -1.113317,0.86796 a 0.31213119,0.31213119 0 0 0 -0.0543,0.43802 0.31213119,0.31213119 0 0 0 0.241768,0.12026 0.31213119,0.31213119 0 0 0 0.196246,-0.066 l 1.237158,-0.96456 0.730144,0.56938 a 0.31213119,0.31213119 0 0 0 0.437655,-0.0543 0.31213119,0.31213119 0 0 0 -0.0543,-0.43819 l -0.605943,-0.47243 1.41136,-1.10041 1.502762,1.17174 -1.326051,1.03392 a 0.31213119,0.31213119 0 0 0 -0.05412,0.43802 0.31213119,0.31213119 0 0 0 0.24159,0.12025 0.31213119,0.31213119 0 0 0 0.196425,-0.066 l 1.449892,-1.13052 0.582824,0.4545 a 0.31213119,0.31213119 0 0 0 0.191586,0.0658 0.31213119,0.31213119 0 0 0 0.246428,-0.12008 0.31213119,0.31213119 0 0 0 -0.05412,-0.4382 l -0.458983,-0.3579 1.270672,-0.99055 1.556349,1.2006 -1.138049,0.878 a 0.31213119,0.31213119 0 0 0 -0.05645,0.43783 0.31213119,0.31213119 0 0 0 0.248399,0.12134 0.31213119,0.31213119 0 0 0 0.189436,-0.0649 l 1.267804,-0.97801 1.267805,0.97801 a 0.31213119,0.31213119 0 0 0 0.191944,0.0649 0.31213119,0.31213119 0 0 0 0.245891,-0.12134 0.31213119,0.31213119 0 0 0 -0.05645,-0.43783 l -1.13805,-0.878 1.188769,-0.91725 1.272823,0.99234 -0.09337,0.0728 a 0.31213119,0.31213119 0 0 0 -0.0543,0.4382 0.31213119,0.31213119 0 0 0 0.241768,0.12008 0.31213119,0.31213119 0 0 0 0.196425,-0.0658 l 0.217215,-0.16936 1.178194,0.9185 a 0.31213119,0.31213119 0 0 0 0.191767,0.066 0.31213119,0.31213119 0 0 0 0.246427,-0.12007 0.31213119,0.31213119 0 0 0 -0.0543,-0.4382 l -1.054354,-0.82208 1.320137,-1.02926 1.411181,1.10023 -0.05789,0.0452 a 0.31213119,0.31213119 0 0 0 -0.0543,0.43801 0.31213119,0.31213119 0 0 0 0.241768,0.12026 0.31213119,0.31213119 0 0 0 0.196246,-0.066 l 0.18173,-0.14176 1.079444,0.84162 a 0.31213119,0.31213119 0 0 0 0.191586,0.066 0.31213119,0.31213119 0 0 0 0.246428,-0.12026 0.31213119,0.31213119 0 0 0 -0.0543,-0.43801 l -0.955602,-0.74502 1.41118,-1.10005 1.319958,1.02908 -0.514542,0.40127 a 0.31213119,0.31213119 0 0 0 -0.05412,0.43802 0.31213119,0.31213119 0 0 0 0.24159,0.12026 0.31213119,0.31213119 0 0 0 0.196425,-0.066 l 0.638383,-0.49769 0.257001,0.20037 a 0.31213119,0.31213119 0 0 0 0.191767,0.066 0.31213119,0.31213119 0 0 0 0.246427,-0.12026 0.31213119,0.31213119 0 0 0 -0.0543,-0.43801 l -0.133161,-0.10395 1.658684,-1.29325 1.455985,1.12317 -0.783372,0.61078 a 0.31213119,0.31213119 0 0 0 -0.05412,0.43802 0.31213119,0.31213119 0 0 0 0.241588,0.12025 0.31213119,0.31213119 0 0 0 0.196426,-0.066 l 0.909722,-0.70935 0.207,0.15968 a 0.31213119,0.31213119 0 0 0 0.191945,0.0651 0.31213119,0.31213119 0 0 0 0.24589,-0.12151 0.31213119,0.31213119 0 0 0 -0.05645,-0.43784 l -0.07993,-0.0617 1.686821,-1.31512 3.284211,2.59941 a 0.52827094,0.31213118 38.44676 0 0 0.294998,0.14965 0.52827094,0.31213118 38.44676 0 0 0.312381,-0.067 0.52827094,0.31213118 38.44676 0 0 -0.221337,-0.57314 l -3.163598,-2.50389 1.836292,-1.43161 1.097186,0.85542 a 0.31213119,0.31213119 0 0 0 0.191587,0.066 0.31213119,0.31213119 0 0 0 0.246428,-0.12026 0.31213119,0.31213119 0 0 0 -0.05412,-0.43801 l -0.973526,-0.759 1.593628,-1.24253 1.097724,0.85577 a 0.31213119,0.31213119 0 0 0 0.191586,0.066 0.31213119,0.31213119 0 0 0 0.246428,-0.12008 0.31213119,0.31213119 0 0 0 -0.05412,-0.43819 l -0.973883,-0.75918 1.240384,-0.96707 0.862767,0.67261 a 0.31213119,0.31213119 0 0 0 0.191587,0.066 0.31213119,0.31213119 0 0 0 0.246427,-0.12007 0.31213119,0.31213119 0 0 0 -0.05412,-0.4382 l -0.738926,-0.57619 1.371573,-1.06923 0.163449,0.12743 a 0.31213119,0.31213119 0 0 0 0.191587,0.066 0.31213119,0.31213119 0 0 0 0.246607,-0.12026 0.31213119,0.31213119 0 0 0 -0.0543,-0.43801 l -0.03979,-0.031 0.525654,-0.40969 1.446844,1.12801 -0.689281,0.55468 a 0.3121312,0.14254431 51.627436 0 0 0.08316,0.33371 0.3121312,0.14254431 51.627436 0 0 0.192841,0.15718 0.3121312,0.14254431 51.627436 0 0 0.112371,-0.002 l 0.80667,-0.64914 0.947359,0.73857 -0.495544,0.39643 a 0.31213114,0.17270638 51.271406 0 0 0.0604,0.35146 0.31213114,0.17270638 51.271406 0 0 0.202519,0.14947 0.31213114,0.17270638 51.271406 0 0 0.127426,-0.0138 l 0.61132,-0.48892 2.127166,1.65851 a 0.31213119,0.31213119 0 0 0 0.191587,0.066 0.31213119,0.31213119 0 0 0 0.246607,-0.12026 0.31213119,0.31213119 0 0 0 -0.0543,-0.43801 l -2.009776,-1.5671 1.212963,-0.96994 1.737002,1.35418 a 0.31213119,0.31213119 0 0 0 0.191407,0.066 0.31213119,0.31213119 0 0 0 0.246608,-0.12008 0.31213119,0.31213119 0 0 0 -0.0543,-0.43819 l -1.619614,-1.26279 1.263504,-1.01044 1.493442,1.15202 a 0.31213119,0.31213119 0 0 0 0.191945,0.0651 0.31213119,0.31213119 0 0 0 0.24589,-0.12151 0.31213119,0.31213119 0 0 0 -0.05645,-0.43783 l -1.373006,-1.0592 2.306744,-1.84471 a 0.31213114,0.17270638 51.271406 0 0 -0.0604,-0.35145 0.31213114,0.17270638 51.271406 0 0 -0.330123,-0.13567 l -2.425031,1.93952 -0.9651,-0.74466 2.255666,-1.81514 a 0.3121312,0.14254431 51.627436 0 0 -0.08316,-0.33371 0.3121312,0.14254431 51.627436 0 0 -0.305212,-0.15503 l -2.375566,1.91175 -1.39039,-1.07246 0.200547,-0.15628 a 0.31213119,0.31213119 0 0 0 0.05412,-0.43801 0.31213119,0.31213119 0 0 0 -0.438015,-0.0543 l -2.094726,1.63306 -0.316504,-0.24679 a 0.31213119,0.31213119 0 0 0 -0.438193,0.0543 0.31213119,0.31213119 0 0 0 0.0543,0.43801 l 0.192841,0.15037 -1.228555,0.95775 -1.349709,-1.0522 a 0.31213119,0.31213119 0 0 0 -0.438014,0.0543 0.31213119,0.31213119 0 0 0 0.0543,0.43801 l 1.225867,0.95579 -0.525654,0.40969 -1.448458,-1.12944 0.3079,-0.23998 a 0.31213119,0.31213119 0 0 0 0.05412,-0.43801 0.31213119,0.31213119 0 0 0 -0.438014,-0.0543 l -0.431563,0.33658 -0.654154,-0.51006 a 0.31213119,0.31213119 0 0 0 -0.19087,-0.066 0.31213119,0.31213119 0 0 0 -0.247323,0.12025 0.31213119,0.31213119 0 0 0 0.0543,0.43802 l 0.530313,0.41346 -1.371573,1.06941 -2.064618,-1.60958 a 0.31213119,0.31213119 0 0 0 -0.438014,0.0541 0.31213119,0.31213119 0 0 0 0.0543,0.4382 l 1.940598,1.51315 -1.240384,0.96708 -1.319957,-1.02909 0.82065,-0.63981 a 0.31213119,0.31213119 0 0 0 0.0543,-0.43802 0.31213119,0.31213119 0 0 0 -0.438014,-0.0543 l -0.944491,0.73641 -1.047543,-0.8167 a 0.31213119,0.31213119 0 0 0 -0.438194,0.0541 0.31213119,0.31213119 0 0 0 0.0543,0.4382 l 0.9237,0.7201 -1.593626,1.24254 -1.41136,-1.10024 1.003096,-0.78211 a 0.31213119,0.31213119 0 0 0 0.0543,-0.43802 0.31213119,0.31213119 0 0 0 -0.438194,-0.0543 l -1.126758,0.87854 -1.830377,-1.42696 a 0.31213119,0.31213119 0 0 0 -0.438193,0.0543 0.31213119,0.31213119 0 0 0 0.03584,0.42242 l -1.786289,1.3782 -1.591297,-1.25956 1.069945,-0.83409 a 0.31213119,0.31213119 0 0 0 0.05412,-0.43801 0.31213119,0.31213119 0 0 0 -0.438014,-0.0541 l -1.189844,0.92765 -1.492009,-1.18106 a 0.31213119,0.31213119 0 0 0 0.03692,-0.4235 0.31213119,0.31213119 0 0 0 -0.438015,-0.0541 l -0.101977,0.0796 -0.423318,-0.33514 -0.789824,0.17097 0.706487,0.55917 -1.841847,1.43573 -1.418708,-1.09432 1.352755,-1.05471 a 0.31213119,0.31213119 0 0 0 0.0543,-0.43819 0.31213119,0.31213119 0 0 0 -0.438194,-0.0541 l -1.479285,1.15328 -1.043779,-0.80524 1.233036,-0.9513 a 0.31213119,0.31213119 0 0 0 0.05645,-0.43784 0.31213119,0.31213119 0 0 0 -0.437836,-0.0564 l -1.362791,1.05131 -1.561188,-1.20436 0.577448,-0.45021 a 0.31213119,0.31213119 0 0 0 0.05412,-0.43819 0.31213119,0.31213119 0 0 0 -0.438014,-0.0541 l -0.703977,0.54877 -1.510827,-1.16547 0.452889,-0.35306 a 0.31213119,0.31213119 0 0 0 0.0543,-0.4382 0.31213119,0.31213119 0 0 0 -0.438014,-0.0541 l -0.579419,0.45181 -1.235187,-0.952917 0.366864,-0.286035 a 0.31213119,0.31213119 0 0 0 0.0543,-0.438015 0.31213119,0.31213119 0 0 0 -0.438013,-0.05412 l -0.493394,0.384606 -1.22515,-0.945208 0.895205,-0.690536 a 0.31213119,0.31213119 0 0 0 0.05645,-0.437834 0.31213119,0.31213119 0 0 0 -0.437656,-0.05645 l -1.024961,0.79072 -0.856494,-0.660785 a 0.31213119,0.31213119 0 0 0 -0.437835,0.05645 0.31213119,0.31213119 0 0 0 0.05645,0.437836 l 0.726738,0.56078 -1.554736,1.199342 -1.318165,-1.027828 1.014566,-0.791079 a 0.31213119,0.31213119 0 0 0 0.0543,-0.438194 0.31213119,0.31213119 0 0 0 -0.438014,-0.05412 l -1.138587,0.887678 -1.330352,-1.037327 a 0.31213119,0.31213119 0 0 0 -0.438193,0.0543 0.31213119,0.31213119 0 0 0 0.0543,0.438014 l 1.20669,0.940728 -1.411539,1.100412 -1.502762,-1.171742 1.350067,-1.052561 a 0.31213119,0.31213119 0 0 0 0.0543,-0.438015 0.31213119,0.31213119 0 0 0 -0.247145,-0.120436 z m 6.156396,1.904933 1.227838,0.947179 -1.555811,1.212965 -1.229631,-0.958651 z m -7.821173,0.101977 1.502761,1.171562 -1.319957,1.029085 -1.502762,-1.171565 z m -10.595504,0.01577 1.303648,1.016358 -1.419246,1.094679 -1.27103,-0.991089 z m 7.031528,0.05538 1.228735,0.957932 -1.285727,1.002555 -1.235186,-0.952911 z m 7.49338,0 1.315656,1.025857 -1.418887,1.0945 -1.308129,-1.019945 z m -11.033876,0.06183 1.22963,0.948435 -1.169233,0.911512 -1.229272,-0.958288 z m 16.663724,1.105791 1.235006,0.952916 -1.564951,1.22013 -1.228556,-0.95793 z m -11.386941,0.186026 1.502762,1.17175 -1.275152,0.99413 -1.510648,-1.16547 z m -6.956077,0.004 1.23196,0.96044 -1.411539,1.10059 -1.239488,-0.96635 z m 3.419164,0.0468 1.235186,0.95274 -1.178373,0.91886 -1.228735,-0.95793 z m 11.117932,0.0181 1.232139,0.9608 -1.411181,1.10023 -1.239845,-0.96654 z m -18.233874,0.045 1.259382,0.98195 -1.326589,1.02335 -1.229093,-0.9583 z m 14.491036,0.029 1.305262,1.0178 -1.326947,1.0237 -1.298451,-1.01223 z m 9.294186,1.01797 1.510827,1.16565 -1.575705,1.22838 -1.502941,-1.17174 z m -18.348932,0.1993 1.228734,0.95793 -1.411539,1.10059 -1.228734,-0.95793 z m 3.425079,0.0371 1.510827,1.16529 -1.189127,0.9271 -1.502762,-1.17156 z m 11.112196,0.0281 1.228734,0.95794 -1.411359,1.10023 -1.228556,-0.95793 z m -18.205915,0.0667 1.241997,0.96833 -1.319599,1.0289 -1.248986,-0.97388 z m 14.536917,0.0649 1.242534,0.96887 -1.319957,1.02908 -1.249524,-0.97424 z m -18.099816,0.007 1.217443,0.94933 -1.564772,1.20705 -1.181779,-0.92119 z m 14.458597,0.004 1.295584,1.01009 -1.272285,0.98141 -1.295763,-0.99951 z m -5.490773,1.14576 1.502763,1.17174 -1.411539,1.10041 -1.502762,-1.17156 z m 18.633714,0.006 1.5585,1.20239 -1.594881,1.23035 -1.542012,-1.20221 z m -4.096438,0.059 1.502762,1.17156 -1.41136,1.10041 -1.502762,-1.17174 z m -18.192473,0.0771 1.228735,0.95811 -1.319779,1.02891 -1.228555,-0.95812 z m -3.586915,0.0532 1.251674,0.97585 -1.556528,1.21368 -1.259919,-0.98248 z m 18.12419,0.012 1.228735,0.95793 -1.320137,1.02926 -1.228555,-0.95793 z m -7.172037,0.0349 1.293073,0.99754 -1.205077,0.92962 -1.279812,-0.9979 z m 3.584584,0.0181 1.252212,0.97621 -1.256154,0.97944 -1.265654,-0.97622 z m -18.290148,0.22725 1.16995,0.91223 -1.418708,1.09432 -1.137511,-0.88679 z m 9.076612,1.00829 1.502583,1.17156 -1.319778,1.02891 -1.502583,-1.17157 z m 14.537276,0.0651 1.502761,1.17174 -1.320136,1.02908 -1.502762,-1.17156 z m -18.101072,0.006 1.228556,0.95793 -1.556349,1.2135 -1.228735,-0.95793 z m 7.493201,3.6e-4 1.277303,0.99575 -1.419066,1.09467 -1.269776,-0.99001 z m 18.692856,0.0353 1.046647,0.8072 -1.594882,1.24343 -1.049514,-0.81814 z m -11.648961,0.0297 1.228735,0.95775 -1.247015,0.97227 -1.235186,-0.95274 z m 7.49338,0 1.539144,1.20006 -1.418708,1.09449 -1.531796,-1.19432 z m -11.033697,0.002 1.268342,0.97836 -1.208124,0.94181 -1.267984,-0.98858 z m 45.101325,0.0785 1.398456,1.07872 -1.249166,1.00543 -1.41136,-1.10023 z m -59.932701,0.0835 1.262786,0.98446 -1.41136,1.10041 -1.270134,-0.99037 z m 35.850153,0.66867 1.491471,1.18035 -1.81586,1.41584 -1.510827,-1.16547 z m -4.272433,0.33891 1.418529,1.0945 -1.605097,1.25132 -1.411001,-1.10024 z m -26.007015,0.11703 1.502762,1.17156 -1.556528,1.21351 -1.502583,-1.17157 z m 7.542486,0.0387 1.270672,0.99073 -1.411539,1.10042 -1.278021,-0.99647 z m 6.994789,0.0265 1.502762,1.17174 -1.236441,0.96385 -1.510648,-1.16547 z m -3.498201,0.0201 1.235186,0.95274 -1.217265,0.94915 -1.228555,-0.95794 z m -7.201072,0.0572 1.267087,0.98804 -1.326767,1.02353 -1.260098,-0.98249 z m 48.754194,0.0292 1.419424,1.10651 -1.209199,0.97299 -1.43878,-1.12174 z m -34.21674,0.036 1.528929,1.19217 -1.326948,1.02371 -1.522118,-1.18662 z m -22.175823,0.048 1.228735,0.95793 -1.411181,1.10023 -1.228735,-0.95793 z m 60.069087,0.007 0.963668,0.7434 -1.260994,1.00848 -0.954527,-0.74431 z m -33.926939,0.0453 1.052202,0.82047 -1.411181,1.10024 -1.059729,-0.82621 z m 25.525092,0.4977 1.448458,1.12926 -1.371573,1.06941 -1.448637,-1.12927 z m -11.200552,0.20054 1.217444,0.94915 -1.789157,1.39505 -1.217622,-0.96384 z m -4.391614,0.11686 1.58843,1.25723 -1.798297,1.38734 -1.599541,-1.23393 z m -4.338743,0.24786 1.510826,1.16547 -1.61567,1.25974 -1.502942,-1.17175 z m -18.615254,0.0541 1.228555,0.95775 -1.411539,1.1006 -1.228555,-0.95794 z m 3.463791,0.007 1.510826,1.16529 -1.228017,0.9574 -1.502763,-1.17157 z m 11.117213,0.0927 1.411001,1.10005 -1.41118,1.10024 -1.411001,-1.10006 z m -18.288176,0.002 1.280708,0.99861 -1.319778,1.02891 -1.287698,-1.00399 z m -3.603045,0.0407 1.25723,0.98034 -1.564593,1.20705 -1.249166,-0.97389 z m -4.074573,0.0419 1.502762,1.17156 -1.41136,1.10024 -1.502583,-1.17157 z m 18.611669,0.0233 1.519429,1.18464 -1.232139,0.95059 -1.520864,-1.17336 z m 37.969791,0.0398 0.952914,0.74286 -1.212963,0.97012 -0.949151,-0.74 z m -60.23648,0.0792 1.228735,0.95793 -1.320137,1.02927 -1.228734,-0.95794 z m 26.131933,0.0446 1.062417,0.82817 -1.320136,1.02927 -1.069407,-0.83374 z m 21.998933,0.41256 1.319957,1.02908 -1.593627,1.24254 -1.319957,-1.02908 z m 3.575803,0.062 1.448458,1.12945 -1.240383,0.96707 -1.448458,-1.12945 z m -7.596073,0.0805 1.411359,1.10024 -1.803673,1.40634 -1.400785,-1.10866 z m -27.33468,0.42744 1.502762,1.17156 -1.41136,1.10042 -1.502761,-1.17157 z m 23.310826,9e-4 1.220311,0.96582 -1.766574,1.3773 -1.245581,-0.9608 z m -26.965844,0.1414 1.228555,0.95776 -1.319958,1.02908 -1.228375,-0.95793 z m 22.555233,0.009 1.596852,1.23178 -1.635385,1.26172 -1.579827,-1.23179 z m -26.18086,0.014 1.290386,1.00614 -1.556349,1.21333 -1.29863,-1.01242 z m 11.029576,0.0468 1.518175,1.17102 -1.245223,0.96062 -1.503658,-1.17228 z m 7.177235,0.0294 1.411001,1.10006 -1.320136,1.02926 -1.411002,-1.10006 z m 3.837465,0 1.502762,1.17174 -1.411001,1.10024 -1.502942,-1.17175 z m -29.80326,0.0849 1.502583,1.17156 -1.320137,1.02927 -1.502583,-1.17157 z m 3.929047,0.0713 1.246476,0.97173 -1.418707,1.0945 -1.23895,-0.966 z m 18.629053,0.0371 1.072096,0.8357 -1.217085,0.94898 -1.084283,-0.83643 z m 25.664167,0.42009 1.448459,1.12927 -1.593627,1.24253 -1.448458,-1.12926 z m -3.929047,0.21345 1.319958,1.02909 -1.817473,1.41709 -1.3101,-1.03697 z m -4.218665,0.29697 1.400606,1.10866 -1.741843,1.35813 -1.418707,-1.0945 z m -26.953658,0.13047 1.502583,1.17157 -1.319957,1.02908 -1.502583,-1.17156 z m -3.563975,0.0713 1.228376,0.95776 -1.55617,1.21332 -1.228555,-0.95776 z m 7.493201,1.8e-4 1.50097,1.17031 -1.418887,1.0945 -1.493623,-1.16439 z m 7.087984,0.0991 1.411001,1.10024 -1.207049,0.9409 -1.418529,-1.09414 z m 3.74642,0.071 1.502942,1.17174 -1.320137,1.02927 -1.502942,-1.17174 z m -22.200555,0.0285 1.301318,1.01474 -1.411181,1.10024 -1.308845,-1.02048 z m 15.13372,0.0115 1.086971,0.83857 -1.247015,0.97227 -1.087867,-0.84807 z m 15.229961,0 1.24809,0.96277 -1.636102,1.27569 -1.250061,-0.97478 z m -4.2339,0.0315 1.576959,1.22963 -1.418528,1.09432 -1.569611,-1.22372 z m -29.803439,0.085 1.236262,0.96403 -1.327127,1.0237 -1.229272,-0.95847 z m 44.110595,0.59931 1.448459,1.12927 -1.832349,1.42857 -1.437526,-1.13769 z m -4.14196,0.37959 1.3101,1.03679 -1.718543,1.33985 -1.326947,-1.0237 z m -30.68592,0.0482 1.502762,1.17157 -1.556348,1.21332 -1.502583,-1.17156 z m 11.122233,0.0887 1.418349,1.09432 -1.25723,0.98015 -1.411002,-1.10005 z m -7.284051,0.0536 1.490933,1.16243 -1.326946,1.0237 -1.483945,-1.15704 z m 3.92815,0.0706 1.090556,0.85022 -1.41136,1.10041 -1.098083,-0.85613 z m 18.746802,0 1.418708,1.0945 -1.646318,1.28357 -1.41118,-1.10023 z m -11.749503,0.0285 1.502941,1.17175 -1.196295,0.93266 -1.510828,-1.16547 z m -18.563639,0.0142 1.228376,0.95776 -1.41118,1.10023 -1.228376,-0.95775 z m -3.738177,0.0776 1.311713,1.02264 -1.320136,1.02926 -1.318524,-1.02819 z m 26.140177,0.0507 1.566923,1.22157 -1.327127,1.02388 -1.559933,-1.21618 z m 4.00414,0.12994 1.252928,0.97675 -1.41118,1.10023 -1.260456,-0.98266 z m 9.893677,0.87352 1.437526,1.13769 -1.693453,1.32031 -1.455986,-1.12317 z m -23.13519,0.0717 1.411001,1.10005 -1.41136,1.10041 -1.411001,-1.10005 z m -7.354304,0.10825 1.481255,1.15489 -1.564414,1.20687 -1.473012,-1.14844 z m 11.040687,0.009 1.510826,1.16547 -1.267804,0.98858 -1.502941,-1.17174 z m -7.213617,0.1242 1.100771,0.85829 -1.319958,1.02908 -1.107761,-0.86366 z m 22.604876,0 1.326948,1.02371 -1.655996,1.29128 -1.320137,-1.02926 z m -11.668137,0.10807 1.557245,1.21404 -1.191636,0.91922 -1.559037,-1.20274 z m 7.592668,0.0774 1.41118,1.10023 -1.41118,1.10023 -1.411181,-1.10023 z m -3.689609,0.11541 1.263145,0.98464 -1.320137,1.02926 -1.270134,-0.99019 z" />
    <path
       style="color:#000000;font-style:normal;font-variant:normal;font-weight:normal;font-stretch:normal;font-size:medium;line-height:normal;font-family:sans-serif;font-variant-ligatures:normal;font-variant-position:normal;font-variant-caps:normal;font-variant-numeric:normal;font-variant-alternates:normal;font-variant-east-asian:normal;font-feature-settings:normal;font-variation-settings:normal;text-indent:0;text-align:start;text-decoration:none;text-decoration-line:none;text-decoration-style:solid;text-decoration-color:#000000;letter-spacing:normal;word-spacing:normal;text-transform:none;writing-mode:lr-tb;direction:ltr;text-orientation:mixed;dominant-baseline:auto;baseline-shift:baseline;text-anchor:start;white-space:normal;shape-padding:0;shape-margin:0;inline-size:0;clip-rule:nonzero;display:inline;overflow:visible;visibility:visible;isolation:auto;mix-blend-mode:normal;color-interpolation:sRGB;color-interpolation-filters:linearRGB;solid-color:#000000;solid-opacity:1;vector-effect:none;fill:none;fill-opacity:1;fill-rule:nonzero;stroke:#000000;stroke-width:0.35277778;stroke-linecap:round;stroke-linejoin:miter;stroke-miterlimit:4;stroke-dasharray:none;stroke-dashoffset:0;stroke-opacity:1;color-rendering:auto;image-rendering:auto;shape-rendering:auto;text-rendering:auto;enable-background:accumulate;stop-color:#000000"
       d="m 90.649694,106.91798 a 0.31213119,0.31213119 0 0 1 -0.197662,-0.0693 l -4.13492,-3.34 a 0.31213119,0.31213119 0 0 1 -0.04672,-0.43895 0.31213119,0.31213119 0 0 1 0.438947,-0.0467 l 4.13492,3.33995 a 0.31213119,0.31213119 0 0 1 0.04672,0.43895 0.31213119,0.31213119 0 0 1 -0.241288,0.116 z"
       id="path6050" />
    <g
       id="g4322"
       clip-path="url(#clipPath4326)"
       style="fill:none;stroke:#231f20;stroke-width:2.88818;stroke-miterlimit:4;stroke-dasharray:none;stroke-opacity:1"
       transform="matrix(0.06924768,0,0,0.06924768,20.84743,181.94381)">
      <g
         id="g4328"
         transform="translate(604.9864,67.2374)"
         style="fill:none;stroke:#231f20;stroke-width:2.88818;stroke-miterlimit:4;stroke-dasharray:none;stroke-opacity:1" />
    </g>
    <path
       d="m 43.341812,54.724141 h 2.53435 v 4.952692 h 4.390493 v -4.952692 h 2.52543 v 13.126865 h -2.52543 v -5.755831 h -4.390493 v 5.755831 h -2.53435 z"
       id="path5634"
       style="font-variant:normal;font-weight:bold;font-stretch:normal;font-size:760.989px;font-family:'Century Gothic';-inkscape-font-specification:CenturyGothic-Bold;writing-mode:lr-tb;fill:none;fill-opacity:1;fill-rule:nonzero;stroke:#000000;stroke-width:0.35277778;stroke-opacity:1;stroke-miterlimit:4;stroke-dasharray:none" />
    <path
       d="m 62.685333,58.141945 h 2.427264 v 9.709061 h -2.427264 v -1.026234 q -0.713903,0.678207 -1.436726,0.981615 -0.713903,0.294484 -1.552739,0.294484 -1.882914,0 -3.257175,-1.454574 -1.374259,-1.463498 -1.374259,-3.631974 0,-2.24879 1.329641,-3.685517 1.329641,-1.436727 3.230405,-1.436727 0.87453,0 1.641974,0.33018 0.767444,0.330179 1.418879,0.990538 z m -2.561124,1.998924 q -1.133317,0 -1.882914,0.803139 -0.749597,0.794216 -0.749597,2.043543 0,1.258252 0.758521,2.070315 0.767444,0.812063 1.882917,0.812063 1.151165,0 1.909685,-0.794215 0.75852,-0.80314 0.75852,-2.097086 0,-1.267176 -0.75852,-2.052467 -0.75852,-0.785292 -1.918612,-0.785292 z"
       id="path5636"
       style="font-variant:normal;font-weight:bold;font-stretch:normal;font-size:760.989px;font-family:'Century Gothic';-inkscape-font-specification:CenturyGothic-Bold;writing-mode:lr-tb;fill:none;fill-opacity:1;fill-rule:nonzero;stroke:#000000;stroke-width:0.35277778;stroke-opacity:1;stroke-miterlimit:4;stroke-dasharray:none" />
    <path
       d="m 67.867189,54.563513 h 2.427264 v 3.578432 h 1.445653 v 2.097086 h -1.445653 v 7.611975 H 67.867189 V 60.239031 H 66.61786 v -2.097086 h 1.249329 z"
       id="path5638"
       style="font-variant:normal;font-weight:bold;font-stretch:normal;font-size:760.989px;font-family:'Century Gothic';-inkscape-font-specification:CenturyGothic-Bold;writing-mode:lr-tb;fill:none;fill-opacity:1;fill-rule:nonzero;stroke:#000000;stroke-width:0.35277778;stroke-opacity:1;stroke-miterlimit:4;stroke-dasharray:none" />
    <path
       d="m 82.559281,60.105174 -2.025697,1.115471 q -0.57112,-0.597892 -1.133317,-0.82991 -0.553273,-0.232019 -1.30287,-0.232019 -1.365335,0 -2.213094,0.820987 -0.838835,0.812063 -0.838835,2.088163 0,1.240403 0.812061,2.025695 0.812065,0.785292 2.132783,0.785292 1.633049,0 2.543272,-1.115472 l 1.918612,1.311794 q -1.561658,2.025696 -4.408344,2.025696 -2.561119,0 -4.015696,-1.517041 -1.445649,-1.51704 -1.445649,-3.55166 0,-1.409955 0.704979,-2.596817 0.704976,-1.186861 1.963229,-1.865067 1.267173,-0.678207 2.828835,-0.678207 1.445653,0 2.596817,0.580045 1.151164,0.571122 1.882914,1.63305 z"
       id="path5640"
       style="font-variant:normal;font-weight:bold;font-stretch:normal;font-size:760.989px;font-family:'Century Gothic';-inkscape-font-specification:CenturyGothic-Bold;writing-mode:lr-tb;fill:none;fill-opacity:1;fill-rule:nonzero;stroke:#000000;stroke-width:0.35277778;stroke-opacity:1;stroke-miterlimit:4;stroke-dasharray:none" />
    <path
       d="m 84.760957,54.393961 h 2.418341 v 4.729598 q 0.7139,-0.61574 1.436729,-0.919148 0.722824,-0.312332 1.463497,-0.312332 1.44565,0 2.436191,0.999462 0.847755,0.865606 0.847755,2.543275 v 6.41619 h -2.400493 v -4.256638 q 0,-1.686593 -0.16063,-2.284485 -0.160626,-0.597893 -0.55327,-0.892377 -0.383724,-0.294485 -0.954844,-0.294485 -0.740673,0 -1.2761,0.490808 -0.526503,0.490807 -0.73175,1.338565 -0.107085,0.437265 -0.107085,1.998925 v 3.899687 h -2.418341 z"
       id="path5642"
       style="font-variant:normal;font-weight:bold;font-stretch:normal;font-size:760.989px;font-family:'Century Gothic';-inkscape-font-specification:CenturyGothic-Bold;writing-mode:lr-tb;fill:none;fill-opacity:1;fill-rule:nonzero;stroke:#000000;stroke-width:0.35277778;stroke-opacity:1;stroke-miterlimit:4;stroke-dasharray:none" />
    <path
       d="m 49.290406,72.913395 v 5.631256 h -0.714257 v -0.967874 q -0.455469,0.553811 -1.024806,0.833304 -0.56416,0.279492 -1.237013,0.279492 -1.195606,0 -2.044435,-0.864357 -0.843653,-0.869531 -0.843653,-2.11172 0,-1.216309 0.854004,-2.080667 0.854005,-0.864357 2.054787,-0.864357 0.693556,0 1.252541,0.29502 0.56416,0.295019 0.988575,0.885062 v -1.035159 z m -2.898439,0.553807 q -0.605567,0 -1.11797,0.300198 -0.512402,0.295019 -0.817774,0.8333 -0.300196,0.538284 -0.300196,1.138675 0,0.595214 0.305372,1.138672 0.305371,0.543459 0.817774,0.84883 0.517579,0.300194 1.107618,0.300194 0.595216,0 1.128322,-0.300194 0.533104,-0.300197 0.817775,-0.812598 0.289842,-0.512405 0.289842,-1.154203 0,-0.978222 -0.646972,-1.635546 -0.641798,-0.657328 -1.583791,-0.657328 z"
       style="font-variant:normal;font-weight:normal;font-stretch:normal;font-size:30.5641px;font-family:'Century Gothic';-inkscape-font-specification:CenturyGothic;writing-mode:lr-tb;fill:none;fill-opacity:1;fill-rule:nonzero;stroke:#000000;stroke-width:0.35277778;stroke-opacity:1;stroke-miterlimit:4;stroke-dasharray:none"
       id="path5645" />
    <path
       d="m 50.645347,72.913395 h 0.740136 v 0.822951 q 0.331251,-0.486526 0.698733,-0.724613 0.367479,-0.243261 0.766015,-0.243261 0.300194,0 0.641797,0.191503 l -0.377831,0.610744 q -0.227734,-0.09834 -0.383009,-0.09834 -0.362305,0 -0.69873,0.300194 -0.336426,0.295019 -0.512405,0.92129 -0.13457,0.481348 -0.13457,1.946096 v 1.904691 h -0.740136 z"
       style="font-variant:normal;font-weight:normal;font-stretch:normal;font-size:30.5641px;font-family:'Century Gothic';-inkscape-font-specification:CenturyGothic;writing-mode:lr-tb;fill:none;fill-opacity:1;fill-rule:nonzero;stroke:#000000;stroke-width:0.35277778;stroke-opacity:1;stroke-miterlimit:4;stroke-dasharray:none"
       id="path5647" />
    <path
       d="m 59.575896,74.083124 -0.574513,0.357126 q -0.745313,-0.988575 -2.034086,-0.988575 -1.029981,0 -1.713184,0.662502 -0.678029,0.662502 -0.678029,1.609671 0,0.615918 0.31055,1.159374 0.315721,0.543458 0.859179,0.843655 0.548633,0.300194 1.226662,0.300194 1.242189,0 2.028908,-0.988575 l 0.574513,0.377832 q -0.403711,0.605569 -1.086918,0.941994 -0.678025,0.331251 -1.547557,0.331251 -1.335352,0 -2.215236,-0.84883 -0.879884,-0.848827 -0.879884,-2.06514 0,-0.817773 0.408885,-1.516503 0.414063,-0.703908 1.133497,-1.097266 0.719435,-0.393362 1.609671,-0.393362 0.558986,0 1.076562,0.170802 0.522757,0.170802 0.885061,0.445116 0.362305,0.274319 0.615919,0.698734 z"
       style="font-variant:normal;font-weight:normal;font-stretch:normal;font-size:30.5641px;font-family:'Century Gothic';-inkscape-font-specification:CenturyGothic;writing-mode:lr-tb;fill:none;fill-opacity:1;fill-rule:nonzero;stroke:#000000;stroke-width:0.35277778;stroke-opacity:1;stroke-miterlimit:4;stroke-dasharray:none"
       id="path5649" />
    <path
       d="m 60.968476,70.739564 h 0.724609 v 3.18311 q 0.439942,-0.57969 0.967874,-0.864357 0.527928,-0.289845 1.14385,-0.289845 0.631444,0 1.117967,0.320899 0.4917,0.320898 0.724612,0.864357 0.232909,0.538281 0.232909,1.692483 v 2.89844 h -0.724609 v -2.686233 q 0,-0.973048 -0.07764,-1.299124 -0.13457,-0.558986 -0.491701,-0.838478 -0.351952,-0.284667 -0.926464,-0.284667 -0.657327,0 -1.180081,0.434767 -0.517576,0.434764 -0.683204,1.076561 -0.103516,0.414063 -0.103516,1.532034 v 2.06514 h -0.724609 z"
       style="font-variant:normal;font-weight:normal;font-stretch:normal;font-size:30.5641px;font-family:'Century Gothic';-inkscape-font-specification:CenturyGothic;writing-mode:lr-tb;fill:none;fill-opacity:1;fill-rule:nonzero;stroke:#000000;stroke-width:0.35277778;stroke-opacity:1;stroke-miterlimit:4;stroke-dasharray:none"
       id="path5651" />
    <path
       d="m 67.688099,70.594641 q 0.248435,0 0.424411,0.175976 0.175977,0.17598 0.175977,0.424416 0,0.243264 -0.175977,0.41924 -0.175976,0.175977 -0.424411,0.175977 -0.243265,0 -0.419241,-0.175977 -0.175976,-0.175976 -0.175976,-0.41924 0,-0.248436 0.175976,-0.424416 0.175976,-0.175976 0.419241,-0.175976 z m -0.362308,2.318754 h 0.729787 v 5.631256 h -0.729787 z"
       style="font-variant:normal;font-weight:normal;font-stretch:normal;font-size:30.5641px;font-family:'Century Gothic';-inkscape-font-specification:CenturyGothic;writing-mode:lr-tb;fill:none;fill-opacity:1;fill-rule:nonzero;stroke:#000000;stroke-width:0.35277778;stroke-opacity:1;stroke-miterlimit:4;stroke-dasharray:none"
       id="path5653" />
    <path
       d="m 70.185929,70.822376 h 0.729783 v 2.091019 h 1.149025 v 0.621096 h -1.149025 v 5.01016 h -0.729783 v -5.01016 h -0.988575 v -0.621096 h 0.988575 z"
       style="font-variant:normal;font-weight:normal;font-stretch:normal;font-size:30.5641px;font-family:'Century Gothic';-inkscape-font-specification:CenturyGothic;writing-mode:lr-tb;fill:none;fill-opacity:1;fill-rule:nonzero;stroke:#000000;stroke-width:0.35277778;stroke-opacity:1;stroke-miterlimit:4;stroke-dasharray:none"
       id="path5655" />
    <path
       d="m 77.888907,76.676192 0.610744,0.320898 q -0.300198,0.590039 -0.693556,0.952344 -0.393361,0.362305 -0.885058,0.553811 -0.491701,0.186328 -1.112797,0.186328 -1.376758,0 -2.153126,-0.900588 -0.776367,-0.905763 -0.776367,-2.044435 0,-1.071387 0.657324,-1.909865 0.8333,-1.066213 2.230763,-1.066213 1.43887,0 2.298049,1.092092 0.610744,0.771193 0.621096,1.925391 h -5.061918 q 0.0207,0.983401 0.62627,1.614846 0.605566,0.62627 1.495802,0.62627 0.42959,0 0.8333,-0.150097 0.408889,-0.150097 0.693556,-0.398536 0.284667,-0.248439 0.615918,-0.802246 z m 0,-1.516507 q -0.144922,-0.579687 -0.424415,-0.926464 -0.274315,-0.346778 -0.729784,-0.558986 -0.455469,-0.212207 -0.957521,-0.212207 -0.828126,0 -1.423343,0.533106 -0.434764,0.388184 -0.657324,1.164551 z"
       style="font-variant:normal;font-weight:normal;font-stretch:normal;font-size:30.5641px;font-family:'Century Gothic';-inkscape-font-specification:CenturyGothic;writing-mode:lr-tb;fill:none;fill-opacity:1;fill-rule:nonzero;stroke:#000000;stroke-width:0.35277778;stroke-opacity:1;stroke-miterlimit:4;stroke-dasharray:none"
       id="path5657" />
    <path
       d="m 85.503525,74.083124 -0.574513,0.357126 q -0.745313,-0.988575 -2.034082,-0.988575 -1.029981,0 -1.713184,0.662502 -0.678029,0.662502 -0.678029,1.609671 0,0.615918 0.310546,1.159374 0.315724,0.543458 0.859179,0.843655 0.548633,0.300194 1.226662,0.300194 1.242189,0 2.028908,-0.988575 l 0.574513,0.377832 q -0.403711,0.605569 -1.086914,0.941994 -0.678029,0.331251 -1.547561,0.331251 -1.335352,0 -2.215236,-0.84883 -0.879884,-0.848827 -0.879884,-2.06514 0,-0.817773 0.408888,-1.516503 0.414063,-0.703908 1.133498,-1.097266 0.719434,-0.393362 1.609667,-0.393362 0.558986,0 1.076565,0.170802 0.522754,0.170802 0.885058,0.445116 0.362305,0.274319 0.615919,0.698734 z"
       style="font-variant:normal;font-weight:normal;font-stretch:normal;font-size:30.5641px;font-family:'Century Gothic';-inkscape-font-specification:CenturyGothic;writing-mode:lr-tb;fill:none;fill-opacity:1;fill-rule:nonzero;stroke:#000000;stroke-width:0.35277778;stroke-opacity:1;stroke-miterlimit:4;stroke-dasharray:none"
       id="path5659" />
    <path
       d="m 87.52755,70.822376 h 0.729787 v 2.091019 h 1.149024 v 0.621096 h -1.149024 v 5.01016 H 87.52755 v -5.01016 h -0.988575 v -0.621096 h 0.988575 z"
       style="font-variant:normal;font-weight:normal;font-stretch:normal;font-size:30.5641px;font-family:'Century Gothic';-inkscape-font-specification:CenturyGothic;writing-mode:lr-tb;fill:none;fill-opacity:1;fill-rule:nonzero;stroke:#000000;stroke-width:0.35277778;stroke-opacity:1;stroke-miterlimit:4;stroke-dasharray:none"
       id="path5661" />
    <path
       d="m 93.32066,73.529313 -0.465821,0.481348 q -0.579687,-0.56416 -1.133498,-0.56416 -0.351952,0 -0.605566,0.232909 -0.248439,0.232912 -0.248439,0.543458 0,0.274319 0.207033,0.522754 0.20703,0.253614 0.869532,0.595217 0.807421,0.419237 1.097266,0.807421 0.284667,0.393362 0.284667,0.885062 0,0.693555 -0.486522,1.174903 -0.486526,0.481348 -1.21631,0.481348 -0.486525,0 -0.931642,-0.212207 -0.439942,-0.212208 -0.729787,-0.584865 l 0.455469,-0.517579 q 0.553811,0.62627 1.174903,0.62627 0.434768,0 0.74014,-0.279492 0.305372,-0.279493 0.305372,-0.657324 0,-0.310547 -0.201856,-0.553811 Q 92.233746,76.272481 91.52466,75.910173 90.76382,75.516815 90.489505,75.133806 90.215187,74.7508 90.215187,74.2591 q 0,-0.641797 0.434767,-1.066213 0.439942,-0.424415 1.107619,-0.424415 0.776367,0 1.563087,0.760841 z"
       style="font-variant:normal;font-weight:normal;font-stretch:normal;font-size:30.5641px;font-family:'Century Gothic';-inkscape-font-specification:CenturyGothic;writing-mode:lr-tb;fill:none;fill-opacity:1;fill-rule:nonzero;stroke:#000000;stroke-width:0.35277778;stroke-opacity:1;stroke-miterlimit:4;stroke-dasharray:none"
       id="path5663" />
    <path
       d="m 95.399384,77.405979 q 0.263966,0 0.450294,0.186325 0.186329,0.186328 0.186329,0.455472 0,0.263963 -0.186329,0.455469 -0.186328,0.186328 -0.450294,0.186328 -0.263966,0 -0.450294,-0.186328 -0.186325,-0.191506 -0.186325,-0.455469 0,-0.269144 0.186325,-0.455472 0.186328,-0.186325 0.450294,-0.186325 z"
       style="font-variant:normal;font-weight:normal;font-stretch:normal;font-size:30.5641px;font-family:'Century Gothic';-inkscape-font-specification:CenturyGothic;writing-mode:lr-tb;fill:none;fill-opacity:1;fill-rule:nonzero;stroke:#000000;stroke-width:0.35277778;stroke-opacity:1;stroke-miterlimit:4;stroke-dasharray:none"
       id="path5665" />
    <path
       style="color:#000000;font-style:normal;font-variant:normal;font-weight:normal;font-stretch:normal;font-size:medium;line-height:normal;font-family:sans-serif;font-variant-ligatures:normal;font-variant-position:normal;font-variant-caps:normal;font-variant-numeric:normal;font-variant-alternates:normal;font-variant-east-asian:normal;font-feature-settings:normal;font-variation-settings:normal;text-indent:0;text-align:start;text-decoration:none;text-decoration-line:none;text-decoration-style:solid;text-decoration-color:#000000;letter-spacing:normal;word-spacing:normal;text-transform:none;writing-mode:lr-tb;direction:ltr;text-orientation:mixed;dominant-baseline:auto;baseline-shift:baseline;text-anchor:start;white-space:normal;shape-padding:0;shape-margin:0;inline-size:0;clip-rule:nonzero;display:inline;overflow:visible;visibility:visible;opacity:1;isolation:auto;mix-blend-mode:normal;color-interpolation:sRGB;color-interpolation-filters:linearRGB;solid-color:#000000;solid-opacity:1;vector-effect:none;fill:none;fill-opacity:1;fill-rule:nonzero;stroke:#000000;stroke-width:0.35277778;stroke-linecap:round;stroke-linejoin:miter;stroke-miterlimit:4;stroke-dasharray:none;stroke-dashoffset:0;stroke-opacity:1;color-rendering:auto;image-rendering:auto;shape-rendering:auto;text-rendering:auto;enable-background:accumulate;stop-color:#000000;stop-opacity:1"
       d="m 35.134443,51.923337 a 1.0404373,1.0404373 0 0 0 -1.044502,0.930026 c -1.844271,17.29028 3.322407,33.987791 13.91788,43.923253 10.595477,9.935464 26.673827,12.876004 45.840209,2.798207 a 1.0404373,1.0404373 0 0 0 0.4369,-1.404861 1.0404373,1.0404373 0 0 0 -1.404861,-0.4369 C 74.276411,107.51497 59.420146,104.62556 49.430973,95.258635 39.441801,85.891709 34.373728,69.814154 36.159301,53.074185 a 1.0404373,1.0404373 0 0 0 -0.923931,-1.144752 1.0404373,1.0404373 0 0 0 -0.100927,-0.0061 z"
       id="path5710" />
  </g>
</svg>
