  0
SECTION
  2
HEADER
  9
$ACADVER
  1
AC1014
  9
$HANDSEED
  5
FFFF
  9
$MEASUREMENT
 70
     1
  0
ENDSEC
  0
SECTION
  2
TABLES
  0
TABLE
  2
VPORT
  5
8
330
0
100
AcDbSymbolTable
 70
     4
  0
VPORT
  5
2E
330
8
100
AcDbSymbolTableRecord
100
AcDbViewportTableRecord
  2
*ACTIVE
 70
     0
 10
0.0
 20
0.0
 11
1.0
 21
1.0
 12
210.0
 22
148.5
 13
0.0
 23
0.0
 14
10.0
 24
10.0
 15
10.0
 25
10.0
 16
0.0
 26
0.0
 36
1.0
 17
0.0
 27
0.0
 37
0.0
 40
341.0
 41
1.24
 42
50.0
 43
0.0
 44
0.0
 50
0.0
 51
0.0
 71
     0
 72
   100
 73
     1
 74
     3
 75
     0
 76
     0
 77
     0
 78
     0
  0
ENDTAB
  0
TABLE
  2
LTYPE
  5
5
330
0
100
AcDbSymbolTable
 70
     1
  0
LTYPE
  5
14
330
5
100
AcDbSymbolTableRecord
100
AcDbLinetypeTableRecord
  2
BYBLOCK
 70
     0
  3

 72
    65
 73
     0
 40
0.0
  0
LTYPE
  5
15
330
5
100
AcDbSymbolTableRecord
100
AcDbLinetypeTableRecord
  2
BYLAYER
 70
     0
  3

 72
    65
 73
     0
 40
0.0
  0
LTYPE
  5
16
330
5
100
AcDbSymbolTableRecord
100
AcDbLinetypeTableRecord
  2
CONTINUOUS
 70
     0
  3
Solid line
 72
    65
 73
     0
 40
0.0
  0
ENDTAB
  0
TABLE
  2
LAYER
  5
2
100
AcDbSymbolTable
 70
2
  0
LAYER
  5
50
100
AcDbSymbolTableRecord
100
AcDbLayerTableRecord
  2
0
 70
0
  6
CONTINUOUS
  0
LAYER
  5
51
100
AcDbSymbolTableRecord
100
AcDbLayerTableRecord
  2
Image
 70
0
  6
CONTINUOUS
  0
ENDTAB
  0
TABLE
  2
STYLE
  5
3
330
0
100
AcDbSymbolTable
 70
     1
  0
STYLE
  5
11
330
3
100
AcDbSymbolTableRecord
100
AcDbTextStyleTableRecord
  2
STANDARD
 70
     0
 40
0.0
 41
1.0
 50
0.0
 71
     0
 42
2.5
  3
txt
  4

  0
ENDTAB
  0
TABLE
  2
VIEW
  5
6
330
0
100
AcDbSymbolTable
 70
     0
  0
ENDTAB
  0
TABLE
  2
UCS
  5
7
330
0
100
AcDbSymbolTable
 70
     0
  0
ENDTAB
  0
TABLE
  2
APPID
  5
9
330
0
100
AcDbSymbolTable
 70
     2
  0
APPID
  5
12
330
9
100
AcDbSymbolTableRecord
100
AcDbRegAppTableRecord
  2
ACAD
 70
     0
  0
ENDTAB
  0
TABLE
  2
DIMSTYLE
  5
A
330
0
100
AcDbSymbolTable
 70
     1
  0
DIMSTYLE
105
27
330
A
100
AcDbSymbolTableRecord
100
AcDbDimStyleTableRecord
  2
ISO-25
 70
     0
  3

  4

  5

  6

  7

 40
1.0
 41
2.5
 42
0.625
 43
3.75
 44
1.25
 45
0.0
 46
0.0
 47
0.0
 48
0.0
140
2.5
141
2.5
142
0.0
143
0.03937007874016
144
1.0
145
0.0
146
1.0
147
0.625
 71
     0
 72
     0
 73
     0
 74
     0
 75
     0
 76
     0
 77
     1
 78
     8
170
     0
171
     3
172
     1
173
     0
174
     0
175
     0
176
     0
177
     0
178
     0
270
     2
271
     2
272
     2
273
     2
274
     3
340
11
275
     0
280
     0
281
     0
282
     0
283
     0
284
     8
285
     0
286
     0
287
     3
288
     0
  0
ENDTAB
  0
TABLE
  2
BLOCK_RECORD
  5
1
330
0
100
AcDbSymbolTable
 70
     1
  0
BLOCK_RECORD
  5
1F
330
1
100
AcDbSymbolTableRecord
100
AcDbBlockTableRecord
  2
*MODEL_SPACE
  0
BLOCK_RECORD
  5
1B
330
1
100
AcDbSymbolTableRecord
100
AcDbBlockTableRecord
  2
*PAPER_SPACE
  0
ENDTAB
  0
ENDSEC
  0
SECTION
  2
BLOCKS
  0
BLOCK
  5
20
330
1F
100
AcDbEntity
  8
0
100
AcDbBlockBegin
  2
*MODEL_SPACE
 70
     0
 10
0.0
 20
0.0
 30
0.0
  3
*MODEL_SPACE
  1

  0
ENDBLK
  5
21
330
1F
100
AcDbEntity
  8
0
100
AcDbBlockEnd
  0
BLOCK
  5
1C
330
1B
100
AcDbEntity
 67
     1
  8
0
100
AcDbBlockBegin
  2
*PAPER_SPACE
  1

  0
ENDBLK
  5
1D
330
1B
100
AcDbEntity
 67
     1
  8
0
100
AcDbBlockEnd
  0
ENDSEC
  0
SECTION
  2
ENTITIES
  0
SPLINE
  5
100
100
AcDbEntity
  8
Image
 62
7
100
AcDbSpline
 70
8
 71
3
 72
8
 73
4
 74
0
 40
0
 40
0
 40
0
 40
0
 40
1
 40
1
 40
1
 40
1
 10
53.104026
 20
106.362500
 30
0.0
 10
31.625452
 20
106.362500
 30
0.0
 10
12.261798
 20
93.409663
 30
0.0
 10
4.042303
 20
73.543876
 30
0.0
  0
SPLINE
  5
101
100
AcDbEntity
  8
Image
 62
7
100
AcDbSpline
 70
8
 71
3
 72
8
 73
4
 74
0
 40
0
 40
0
 40
0
 40
0
 40
1
 40
1
 40
1
 40
1
 10
4.042303
 20
73.543876
 30
0.0
 10
-4.177191
 20
53.678089
 30
0.0
 10
0.366164
 20
30.811580
 30
0.0
 10
15.553809
 20
15.606965
 30
0.0
  0
SPLINE
  5
102
100
AcDbEntity
  8
Image
 62
7
100
AcDbSpline
 70
8
 71
3
 72
8
 73
4
 74
0
 40
0
 40
0
 40
0
 40
0
 40
1
 40
1
 40
1
 40
1
 10
15.553809
 20
15.606965
 30
0.0
 10
30.741454
 20
0.402350
 30
0.0
 10
53.582443
 20
-4.146081
 30
0.0
 10
73.426057
 20
4.082597
 30
0.0
  0
SPLINE
  5
103
100
AcDbEntity
  8
Image
 62
7
100
AcDbSpline
 70
8
 71
3
 72
8
 73
4
 74
0
 40
0
 40
0
 40
0
 40
0
 40
1
 40
1
 40
1
 40
1
 10
73.426057
 20
4.082597
 30
0.0
 10
93.269672
 20
12.311275
 30
0.0
 10
106.208052
 20
31.696566
 30
0.0
 10
106.208052
 20
53.199138
 30
0.0
  0
SPLINE
  5
104
100
AcDbEntity
  8
Image
 62
7
100
AcDbSpline
 70
8
 71
3
 72
8
 73
4
 74
0
 40
0
 40
0
 40
0
 40
0
 40
1
 40
1
 40
1
 40
1
 10
106.208052
 20
53.199138
 30
0.0
 10
106.208052
 20
67.298939
 30
0.0
 10
100.613180
 20
80.821248
 30
0.0
 10
90.654243
 20
90.791312
 30
0.0
  0
SPLINE
  5
105
100
AcDbEntity
  8
Image
 62
7
100
AcDbSpline
 70
8
 71
3
 72
8
 73
4
 74
0
 40
0
 40
0
 40
0
 40
0
 40
1
 40
1
 40
1
 40
1
 10
90.654243
 20
90.791312
 30
0.0
 10
80.695306
 20
100.761376
 30
0.0
 10
67.188089
 20
106.362500
 30
0.0
 10
53.104026
 20
106.362500
 30
0.0
  0
LWPOLYLINE
  5
106
100
AcDbEntity
  8
Image
 62
7
100
AcDbPolyline
 90
1
 70
1
 10
53.104026
 20
106.362500
 30
0.0
  0
LWPOLYLINE
  5
107
100
AcDbEntity
  8
Image
 62
7
100
AcDbPolyline
 90
8
 70
1
 10
20.526810
 20
70.975791
 30
0.0
 10
29.644239
 20
70.950603
 30
0.0
 10
41.985512
 20
35.463149
 30
0.0
 10
32.868082
 20
35.387590
 30
0.0
 10
30.324269
 20
43.573129
 30
0.0
 10
19.368242
 20
43.648688
 30
0.0
 10
16.925174
 20
35.412778
 30
0.0
 10
8.235910
 20
35.387590
 30
0.0
  0
LWPOLYLINE
  5
108
100
AcDbEntity
  8
Image
 62
7
100
AcDbPolyline
 90
3
 70
1
 10
24.833663
 20
61.480565
 30
0.0
 10
29.669425
 20
45.991010
 30
0.0
 10
20.174202
 20
46.293246
 30
0.0
  0
LWPOLYLINE
  5
109
100
AcDbEntity
  8
Image
 62
7
100
AcDbPolyline
 90
12
 70
1
 10
43.647807
 20
70.900232
 30
0.0
 10
43.698179
 20
68.658653
 30
0.0
 10
48.634687
 20
68.759398
 30
0.0
 10
48.710247
 20
37.578795
 30
0.0
 10
43.748553
 20
37.603983
 30
0.0
 10
43.647807
 20
35.463149
 30
0.0
 10
62.310833
 20
35.387590
 30
0.0
 10
62.235273
 20
37.553609
 30
0.0
 10
57.500255
 20
37.578797
 30
0.0
 10
57.424696
 20
68.834960
 30
0.0
 10
62.260459
 20
68.683841
 30
0.0
 10
62.159716
 20
71.000980
 30
0.0
  0
LWPOLYLINE
  5
10a
100
AcDbEntity
  8
Image
 62
7
100
AcDbPolyline
 90
8
 70
1
 10
76.308212
 20
70.860163
 30
0.0
 10
85.425642
 20
70.834975
 30
0.0
 10
97.766915
 20
35.347518
 30
0.0
 10
88.649485
 20
35.271959
 30
0.0
 10
86.105672
 20
43.457498
 30
0.0
 10
75.149644
 20
43.533057
 30
0.0
 10
72.706577
 20
35.297147
 30
0.0
 10
64.017313
 20
35.271959
 30
0.0
  0
LWPOLYLINE
  5
10b
100
AcDbEntity
  8
Image
 62
7
100
AcDbPolyline
 90
3
 70
1
 10
80.615065
 20
61.364937
 30
0.0
 10
85.450828
 20
45.875382
 30
0.0
 10
75.955604
 20
46.177618
 30
0.0
  0
ENDSEC
  0
SECTION
  2
OBJECTS
  0
DICTIONARY
  5
C
330
0
100
AcDbDictionary
  3
ACAD_GROUP
350
D
  3
ACAD_MLINESTYLE
350
17
  0
DICTIONARY
  5
D
330
C
100
AcDbDictionary
  0
DICTIONARY
  5
1A
330
C
100
AcDbDictionary
  0
DICTIONARY
  5
17
330
C
100
AcDbDictionary
  3
STANDARD
350
18
  0
DICTIONARY
  5
19
330
C
100
AcDbDictionary
  0
ENDSEC
  0
EOF
