  0
SECTION
  2
HEADER
  9
$ACADVER
  1
AC1014
  9
$HANDSEED
  5
FFFF
  9
$MEASUREMENT
 70
     1
  0
ENDSEC
  0
SECTION
  2
TABLES
  0
TABLE
  2
VPORT
  5
8
330
0
100
AcDbSymbolTable
 70
     4
  0
VPORT
  5
2E
330
8
100
AcDbSymbolTableRecord
100
AcDbViewportTableRecord
  2
*ACTIVE
 70
     0
 10
0.0
 20
0.0
 11
1.0
 21
1.0
 12
210.0
 22
148.5
 13
0.0
 23
0.0
 14
10.0
 24
10.0
 15
10.0
 25
10.0
 16
0.0
 26
0.0
 36
1.0
 17
0.0
 27
0.0
 37
0.0
 40
341.0
 41
1.24
 42
50.0
 43
0.0
 44
0.0
 50
0.0
 51
0.0
 71
     0
 72
   100
 73
     1
 74
     3
 75
     0
 76
     0
 77
     0
 78
     0
  0
ENDTAB
  0
TABLE
  2
LTYPE
  5
5
330
0
100
AcDbSymbolTable
 70
     1
  0
LTYPE
  5
14
330
5
100
AcDbSymbolTableRecord
100
AcDbLinetypeTableRecord
  2
BYBLOCK
 70
     0
  3

 72
    65
 73
     0
 40
0.0
  0
LTYPE
  5
15
330
5
100
AcDbSymbolTableRecord
100
AcDbLinetypeTableRecord
  2
BYLAYER
 70
     0
  3

 72
    65
 73
     0
 40
0.0
  0
LTYPE
  5
16
330
5
100
AcDbSymbolTableRecord
100
AcDbLinetypeTableRecord
  2
CONTINUOUS
 70
     0
  3
Solid line
 72
    65
 73
     0
 40
0.0
  0
ENDTAB
  0
TABLE
  2
LAYER
  5
2
100
AcDbSymbolTable
 70
4
  0
LAYER
  5
50
100
AcDbSymbolTableRecord
100
AcDbLayerTableRecord
  2
0
 70
0
  6
CONTINUOUS
  0
LAYER
  5
51
100
AcDbSymbolTableRecord
100
AcDbLayerTableRecord
  2
Layer_1
 70
0
  6
CONTINUOUS
  0
LAYER
  5
52
100
AcDbSymbolTableRecord
100
AcDbLayerTableRecord
  2
slothtrace
 70
0
  6
CONTINUOUS
  0
LAYER
  5
53
100
AcDbSymbolTableRecord
100
AcDbLayerTableRecord
  2
background
 70
0
  6
CONTINUOUS
  0
ENDTAB
  0
TABLE
  2
STYLE
  5
3
330
0
100
AcDbSymbolTable
 70
     1
  0
STYLE
  5
11
330
3
100
AcDbSymbolTableRecord
100
AcDbTextStyleTableRecord
  2
STANDARD
 70
     0
 40
0.0
 41
1.0
 50
0.0
 71
     0
 42
2.5
  3
txt
  4

  0
ENDTAB
  0
TABLE
  2
VIEW
  5
6
330
0
100
AcDbSymbolTable
 70
     0
  0
ENDTAB
  0
TABLE
  2
UCS
  5
7
330
0
100
AcDbSymbolTable
 70
     0
  0
ENDTAB
  0
TABLE
  2
APPID
  5
9
330
0
100
AcDbSymbolTable
 70
     2
  0
APPID
  5
12
330
9
100
AcDbSymbolTableRecord
100
AcDbRegAppTableRecord
  2
ACAD
 70
     0
  0
ENDTAB
  0
TABLE
  2
DIMSTYLE
  5
A
330
0
100
AcDbSymbolTable
 70
     1
  0
DIMSTYLE
105
27
330
A
100
AcDbSymbolTableRecord
100
AcDbDimStyleTableRecord
  2
ISO-25
 70
     0
  3

  4

  5

  6

  7

 40
1.0
 41
2.5
 42
0.625
 43
3.75
 44
1.25
 45
0.0
 46
0.0
 47
0.0
 48
0.0
140
2.5
141
2.5
142
0.0
143
0.03937007874016
144
1.0
145
0.0
146
1.0
147
0.625
 71
     0
 72
     0
 73
     0
 74
     0
 75
     0
 76
     0
 77
     1
 78
     8
170
     0
171
     3
172
     1
173
     0
174
     0
175
     0
176
     0
177
     0
178
     0
270
     2
271
     2
272
     2
273
     2
274
     3
340
11
275
     0
280
     0
281
     0
282
     0
283
     0
284
     8
285
     0
286
     0
287
     3
288
     0
  0
ENDTAB
  0
TABLE
  2
BLOCK_RECORD
  5
1
330
0
100
AcDbSymbolTable
 70
     1
  0
BLOCK_RECORD
  5
1F
330
1
100
AcDbSymbolTableRecord
100
AcDbBlockTableRecord
  2
*MODEL_SPACE
  0
BLOCK_RECORD
  5
1B
330
1
100
AcDbSymbolTableRecord
100
AcDbBlockTableRecord
  2
*PAPER_SPACE
  0
ENDTAB
  0
ENDSEC
  0
SECTION
  2
BLOCKS
  0
BLOCK
  5
20
330
1F
100
AcDbEntity
  8
0
100
AcDbBlockBegin
  2
*MODEL_SPACE
 70
     0
 10
0.0
 20
0.0
 30
0.0
  3
*MODEL_SPACE
  1

  0
ENDBLK
  5
21
330
1F
100
AcDbEntity
  8
0
100
AcDbBlockEnd
  0
BLOCK
  5
1C
330
1B
100
AcDbEntity
 67
     1
  8
0
100
AcDbBlockBegin
  2
*PAPER_SPACE
  1

  0
ENDBLK
  5
1D
330
1B
100
AcDbEntity
 67
     1
  8
0
100
AcDbBlockEnd
  0
ENDSEC
  0
SECTION
  2
ENTITIES
  0
SPLINE
  5
100
100
AcDbEntity
  8
background
 62
7
100
AcDbSpline
 70
8
 71
3
 72
8
 73
4
 74
0
 40
0
 40
0
 40
0
 40
0
 40
1
 40
1
 40
1
 40
1
 10
-77.585353
 20
110.485981
 30
0.0
 10
-76.746695
 20
111.721331
 30
0.0
 10
-76.119635
 20
113.064883
 30
0.0
 10
-76.109317
 20
113.716692
 30
0.0
  0
SPLINE
  5
101
100
AcDbEntity
  8
background
 62
7
100
AcDbSpline
 70
8
 71
3
 72
8
 73
4
 74
0
 40
0
 40
0
 40
0
 40
0
 40
1
 40
1
 40
1
 40
1
 10
-76.109317
 20
113.716692
 30
0.0
 10
-76.092198
 20
114.797681
 30
0.0
 10
-76.573237
 20
114.699182
 30
0.0
 10
-78.112025
 20
113.306595
 30
0.0
  0
SPLINE
  5
102
100
AcDbEntity
  8
background
 62
7
100
AcDbSpline
 70
8
 71
3
 72
8
 73
4
 74
0
 40
0
 40
0
 40
0
 40
0
 40
1
 40
1
 40
1
 40
1
 10
-78.112025
 20
113.306595
 30
0.0
 10
-78.900957
 20
112.592620
 30
0.0
 10
-79.583209
 20
111.491678
 30
0.0
 10
-79.909723
 20
110.495527
 30
0.0
  0
SPLINE
  5
103
100
AcDbEntity
  8
background
 62
7
100
AcDbSpline
 70
8
 71
3
 72
8
 73
4
 74
0
 40
0
 40
0
 40
0
 40
0
 40
1
 40
1
 40
1
 40
1
 10
-113.782594
 20
109.359531
 30
0.0
 10
-112.083689
 20
107.073441
 30
0.0
 10
-110.264654
 20
104.893637
 30
0.0
 10
-109.756115
 20
104.763956
 30
0.0
  0
SPLINE
  5
104
100
AcDbEntity
  8
background
 62
7
100
AcDbSpline
 70
8
 71
3
 72
8
 73
4
 74
0
 40
0
 40
0
 40
0
 40
0
 40
1
 40
1
 40
1
 40
1
 10
-109.756115
 20
104.763956
 30
0.0
 10
-109.616878
 20
104.728452
 30
0.0
 10
-109.502961
 20
105.389603
 30
0.0
 10
-109.502961
 20
106.233188
 30
0.0
  0
LWPOLYLINE
  5
105
100
AcDbEntity
  8
background
 62
7
100
AcDbPolyline
 90
1
 70
1
 10
-76.109317
 20
113.716692
 30
0.0
  0
SPLINE
  5
106
100
AcDbEntity
  8
background
 62
7
100
AcDbSpline
 70
8
 71
3
 72
8
 73
4
 74
0
 40
0
 40
0
 40
0
 40
0
 40
1
 40
1
 40
1
 40
1
 10
-109.502961
 20
106.233188
 30
0.0
 10
-109.502961
 20
107.317603
 30
0.0
 10
-111.737701
 20
110.274981
 30
0.0
 10
-113.792460
 20
112.403533
 30
0.0
  0
SPLINE
  5
107
100
AcDbEntity
  8
background
 62
7
100
AcDbSpline
 70
8
 71
3
 72
8
 73
4
 74
0
 40
0
 40
0
 40
0
 40
0
 40
1
 40
1
 40
1
 40
1
 10
-114.277598
 20
112.893827
 30
0.0
 10
-115.582375
 20
114.178411
 30
0.0
 10
-116.730608
 20
115.023686
 30
0.0
 10
-117.062681
 20
114.691615
 30
0.0
  0
SPLINE
  5
108
100
AcDbEntity
  8
background
 62
7
100
AcDbSpline
 70
8
 71
3
 72
8
 73
4
 74
0
 40
0
 40
0
 40
0
 40
0
 40
1
 40
1
 40
1
 40
1
 10
-117.062681
 20
114.691615
 30
0.0
 10
-117.189406
 20
114.564890
 30
0.0
 10
-116.842818
 20
113.871494
 30
0.0
 10
-116.238983
 20
112.905003
 30
0.0
  0
SPLINE
  5
109
100
AcDbEntity
  8
background
 62
7
100
AcDbSpline
 70
8
 71
3
 72
8
 73
4
 74
0
 40
0
 40
0
 40
0
 40
0
 40
1
 40
1
 40
1
 40
1
 10
-113.792460
 20
112.403533
 30
0.0
 10
-113.955714
 20
112.572649
 30
0.0
 10
-114.117829
 20
112.736532
 30
0.0
 10
-114.277598
 20
112.893827
 30
0.0
  0
SPLINE
  5
10a
100
AcDbEntity
  8
background
 62
7
100
AcDbSpline
 70
8
 71
3
 72
8
 73
4
 74
0
 40
0
 40
0
 40
0
 40
0
 40
1
 40
1
 40
1
 40
1
 10
-144.795227
 20
105.731858
 30
0.0
 10
-144.237197
 20
107.129853
 30
0.0
 10
-144.025549
 20
109.810539
 30
0.0
 10
-144.325202
 20
111.705745
 30
0.0
  0
LWPOLYLINE
  5
10b
100
AcDbEntity
  8
background
 62
7
100
AcDbPolyline
 90
1
 70
1
 10
-109.502961
 20
106.233188
 30
0.0
  0
SPLINE
  5
10c
100
AcDbEntity
  8
background
 62
7
100
AcDbSpline
 70
8
 71
3
 72
8
 73
4
 74
0
 40
0
 40
0
 40
0
 40
0
 40
1
 40
1
 40
1
 40
1
 10
-144.325184
 20
111.705745
 30
0.0
 10
-144.935879
 20
115.568161
 30
0.0
 10
-146.769312
 20
117.264916
 30
0.0
 10
-148.647687
 20
115.706009
 30
0.0
  0
SPLINE
  5
10d
100
AcDbEntity
  8
background
 62
7
100
AcDbSpline
 70
8
 71
3
 72
8
 73
4
 74
0
 40
0
 40
0
 40
0
 40
0
 40
1
 40
1
 40
1
 40
1
 10
-148.647687
 20
115.706009
 30
0.0
 10
-149.608474
 20
114.908629
 30
0.0
 10
-149.446088
 20
113.953356
 30
0.0
 10
-147.925978
 20
111.460336
 30
0.0
  0
SPLINE
  5
10e
100
AcDbEntity
  8
background
 62
7
100
AcDbSpline
 70
8
 71
3
 72
8
 73
4
 74
0
 40
0
 40
0
 40
0
 40
0
 40
1
 40
1
 40
1
 40
1
 10
-147.925978
 20
111.460336
 30
0.0
 10
-146.852370
 20
109.699605
 30
0.0
 10
-145.942733
 20
107.129204
 30
0.0
 10
-145.897163
 20
105.732175
 30
0.0
  0
SPLINE
  5
10f
100
AcDbEntity
  8
background
 62
7
100
AcDbSpline
 70
8
 71
3
 72
8
 73
4
 74
0
 40
0
 40
0
 40
0
 40
0
 40
1
 40
1
 40
1
 40
1
 10
-114.246480
 20
104.135018
 30
0.0
 10
-113.701380
 20
103.261517
 30
0.0
 10
-113.114601
 20
102.775451
 30
0.0
 10
-112.861773
 20
103.028274
 30
0.0
  0
SPLINE
  5
110
100
AcDbEntity
  8
background
 62
7
100
AcDbSpline
 70
8
 71
3
 72
8
 73
4
 74
0
 40
0
 40
0
 40
0
 40
0
 40
1
 40
1
 40
1
 40
1
 10
-112.861773
 20
103.028274
 30
0.0
 10
-112.571617
 20
103.318426
 30
0.0
 10
-113.064213
 20
104.598031
 30
0.0
 10
-113.956425
 20
105.871841
 30
0.0
  0
LWPOLYLINE
  5
111
100
AcDbEntity
  8
background
 62
7
100
AcDbPolyline
 90
2
 70
1
 10
-144.325202
 20
111.705745
 30
0.0
 10
-144.325184
 20
111.705745
 30
0.0
  0
SPLINE
  5
112
100
AcDbEntity
  8
background
 62
7
100
AcDbSpline
 70
8
 71
3
 72
8
 73
4
 74
0
 40
0
 40
0
 40
0
 40
0
 40
1
 40
1
 40
1
 40
1
 10
-113.956425
 20
105.871841
 30
0.0
 10
-113.977777
 20
105.902329
 30
0.0
 10
-113.998933
 20
105.932346
 30
0.0
 10
-114.019883
 20
105.961894
 30
0.0
  0
SPLINE
  5
113
100
AcDbEntity
  8
background
 62
7
100
AcDbSpline
 70
8
 71
3
 72
8
 73
4
 74
0
 40
0
 40
0
 40
0
 40
0
 40
1
 40
1
 40
1
 40
1
 10
-80.506520
 20
103.448453
 30
0.0
 10
-80.677451
 20
104.385798
 30
0.0
 10
-81.150793
 20
105.691466
 30
0.0
 10
-81.796877
 20
106.909097
 30
0.0
  0
LWPOLYLINE
  5
114
100
AcDbEntity
  8
background
 62
7
100
AcDbPolyline
 90
1
 70
1
 10
-113.956425
 20
105.871841
 30
0.0
  0
SPLINE
  5
115
100
AcDbEntity
  8
background
 62
7
100
AcDbSpline
 70
8
 71
3
 72
8
 73
4
 74
0
 40
0
 40
0
 40
0
 40
0
 40
1
 40
1
 40
1
 40
1
 10
-81.796877
 20
106.909129
 30
0.0
 10
-83.154189
 20
109.467176
 30
0.0
 10
-83.669706
 20
109.846343
 30
0.0
 10
-83.957544
 20
108.498301
 30
0.0
  0
SPLINE
  5
116
100
AcDbEntity
  8
background
 62
7
100
AcDbSpline
 70
8
 71
3
 72
8
 73
4
 74
0
 40
0
 40
0
 40
0
 40
0
 40
1
 40
1
 40
1
 40
1
 10
-83.957544
 20
108.498301
 30
0.0
 10
-84.165453
 20
107.524550
 30
0.0
 10
-83.618784
 20
106.011057
 30
0.0
 10
-82.742712
 20
105.134987
 30
0.0
  0
SPLINE
  5
117
100
AcDbEntity
  8
background
 62
7
100
AcDbSpline
 70
8
 71
3
 72
8
 73
4
 74
0
 40
0
 40
0
 40
0
 40
0
 40
1
 40
1
 40
1
 40
1
 10
-82.742712
 20
105.134987
 30
0.0
 10
-82.251359
 20
104.643634
 30
0.0
 10
-81.798795
 20
104.033455
 30
0.0
 10
-81.488314
 20
103.476494
 30
0.0
  0
LWPOLYLINE
  5
118
100
AcDbEntity
  8
background
 62
7
100
AcDbPolyline
 90
2
 70
1
 10
-81.796877
 20
106.909097
 30
0.0
 10
-81.796877
 20
106.909129
 30
0.0
  0
SPLINE
  5
119
100
AcDbEntity
  8
background
 62
7
100
AcDbSpline
 70
8
 71
3
 72
8
 73
4
 74
0
 40
0
 40
0
 40
0
 40
0
 40
1
 40
1
 40
1
 40
1
 10
-138.858797
 20
105.735914
 30
0.0
 10
-137.858315
 20
108.151271
 30
0.0
 10
-137.837442
 20
109.422425
 30
0.0
 10
-138.764825
 20
111.457859
 30
0.0
  0
SPLINE
  5
11a
100
AcDbEntity
  8
background
 62
7
100
AcDbSpline
 70
8
 71
3
 72
8
 73
4
 74
0
 40
0
 40
0
 40
0
 40
0
 40
1
 40
1
 40
1
 40
1
 10
-138.764825
 20
111.457859
 30
0.0
 10
-140.297683
 20
114.822123
 30
0.0
 10
-140.497502
 20
114.493260
 30
0.0
 10
-141.188832
 20
107.468548
 30
0.0
  0
SPLINE
  5
11b
100
AcDbEntity
  8
background
 62
7
100
AcDbSpline
 70
8
 71
3
 72
8
 73
4
 74
0
 40
0
 40
0
 40
0
 40
0
 40
1
 40
1
 40
1
 40
1
 10
-141.188832
 20
107.468548
 30
0.0
 10
-141.262219
 20
106.722847
 30
0.0
 10
-141.314747
 20
106.057851
 30
0.0
 10
-141.346706
 20
105.473778
 30
0.0
  0
SPLINE
  5
11c
100
AcDbEntity
  8
background
 62
7
100
AcDbSpline
 70
8
 71
3
 72
8
 73
4
 74
0
 40
0
 40
0
 40
0
 40
0
 40
1
 40
1
 40
1
 40
1
 10
-140.133861
 20
103.088300
 30
0.0
 10
-139.781050
 20
103.655199
 30
0.0
 10
-139.355285
 20
104.537193
 30
0.0
 10
-138.858757
 20
105.735914
 30
0.0
  0
SPLINE
  5
11d
100
AcDbEntity
  8
background
 62
7
100
AcDbSpline
 70
8
 71
3
 72
8
 73
4
 74
0
 40
0
 40
0
 40
0
 40
0
 40
1
 40
1
 40
1
 40
1
 10
-141.318829
 20
103.091850
 30
0.0
 10
-141.170634
 20
102.068397
 30
0.0
 10
-140.771335
 20
102.064008
 30
0.0
 10
-140.133861
 20
103.088305
 30
0.0
  0
SPLINE
  5
11e
100
AcDbEntity
  8
background
 62
7
100
AcDbSpline
 70
8
 71
3
 72
8
 73
4
 74
0
 40
0
 40
0
 40
0
 40
0
 40
1
 40
1
 40
1
 40
1
 10
-75.908419
 20
103.426755
 30
0.0
 10
-75.827083
 20
103.543119
 30
0.0
 10
-75.743393
 20
103.664583
 30
0.0
 10
-75.657340
 20
103.791221
 30
0.0
  0
SPLINE
  5
11f
100
AcDbEntity
  8
background
 62
7
100
AcDbSpline
 70
8
 71
3
 72
8
 73
4
 74
0
 40
0
 40
0
 40
0
 40
0
 40
1
 40
1
 40
1
 40
1
 10
-75.657340
 20
103.791221
 30
0.0
 10
-74.307266
 20
105.778035
 30
0.0
 10
-72.014371
 20
108.182206
 30
0.0
 10
-70.562010
 20
109.133825
 30
0.0
  0
LWPOLYLINE
  5
120
100
AcDbEntity
  8
background
 62
7
100
AcDbPolyline
 90
3
 70
1
 10
-138.858757
 20
105.735914
 30
0.0
 10
-138.858757
 20
105.735914
 30
0.0
 10
-138.858797
 20
105.735914
 30
0.0
  0
SPLINE
  5
121
100
AcDbEntity
  8
background
 62
7
100
AcDbSpline
 70
8
 71
3
 72
8
 73
4
 74
0
 40
0
 40
0
 40
0
 40
0
 40
1
 40
1
 40
1
 40
1
 10
-70.562010
 20
109.133825
 30
0.0
 10
-67.754235
 20
110.973553
 30
0.0
 10
-67.933882
 20
112.800294
 30
0.0
 10
-70.922571
 20
112.800294
 30
0.0
  0
SPLINE
  5
122
100
AcDbEntity
  8
background
 62
7
100
AcDbSpline
 70
8
 71
3
 72
8
 73
4
 74
0
 40
0
 40
0
 40
0
 40
0
 40
1
 40
1
 40
1
 40
1
 10
-70.922571
 20
112.800294
 30
0.0
 10
-72.039858
 20
112.800294
 30
0.0
 10
-73.752498
 20
110.916297
 30
0.0
 10
-75.419559
 20
107.853353
 30
0.0
  0
SPLINE
  5
123
100
AcDbEntity
  8
background
 62
7
100
AcDbSpline
 70
8
 71
3
 72
8
 73
4
 74
0
 40
0
 40
0
 40
0
 40
0
 40
1
 40
1
 40
1
 40
1
 10
-75.419559
 20
107.853353
 30
0.0
 10
-76.399493
 20
106.052893
 30
0.0
 10
-77.107680
 20
104.546485
 30
0.0
 10
-77.538225
 20
103.434777
 30
0.0
  0
SPLINE
  5
124
100
AcDbEntity
  8
background
 62
7
100
AcDbSpline
 70
8
 71
3
 72
8
 73
4
 74
0
 40
0
 40
0
 40
0
 40
0
 40
1
 40
1
 40
1
 40
1
 10
-80.152745
 20
90.269690
 30
0.0
 10
-80.168541
 20
95.159878
 30
0.0
 10
-81.463584
 20
98.647546
 30
0.0
 10
-82.776253
 20
97.334880
 30
0.0
  0
SPLINE
  5
125
100
AcDbEntity
  8
background
 62
7
100
AcDbSpline
 70
8
 71
3
 72
8
 73
4
 74
0
 40
0
 40
0
 40
0
 40
0
 40
1
 40
1
 40
1
 40
1
 10
-82.776253
 20
97.334880
 30
0.0
 10
-83.488837
 20
96.622291
 30
0.0
 10
-81.415858
 20
85.459790
 30
0.0
 10
-80.570925
 20
85.459790
 30
0.0
  0
SPLINE
  5
126
100
AcDbEntity
  8
background
 62
7
100
AcDbSpline
 70
8
 71
3
 72
8
 73
4
 74
0
 40
0
 40
0
 40
0
 40
0
 40
1
 40
1
 40
1
 40
1
 10
-80.570925
 20
85.459790
 30
0.0
 10
-80.332403
 20
85.459790
 30
0.0
 10
-80.144223
 20
87.624245
 30
0.0
 10
-80.152745
 20
90.269690
 30
0.0
  0
LWPOLYLINE
  5
127
100
AcDbEntity
  8
background
 62
7
100
AcDbPolyline
 90
1
 70
1
 10
-70.562010
 20
109.133825
 30
0.0
  0
SPLINE
  5
128
100
AcDbEntity
  8
background
 62
7
100
AcDbSpline
 70
8
 71
3
 72
8
 73
4
 74
0
 40
0
 40
0
 40
0
 40
0
 40
1
 40
1
 40
1
 40
1
 10
-151.492633
 20
84.140537
 30
0.0
 10
-148.511210
 20
82.724649
 30
0.0
 10
-145.228265
 20
80.311699
 30
0.0
 10
-142.849325
 20
77.610970
 30
0.0
  0
SPLINE
  5
129
100
AcDbEntity
  8
background
 62
7
100
AcDbSpline
 70
8
 71
3
 72
8
 73
4
 74
0
 40
0
 40
0
 40
0
 40
0
 40
1
 40
1
 40
1
 40
1
 10
-142.849325
 20
77.610970
 30
0.0
 10
-140.938443
 20
75.441617
 30
0.0
 10
-138.805399
 20
73.862681
 30
0.0
 10
-138.109232
 20
74.102214
 30
0.0
  0
SPLINE
  5
12a
100
AcDbEntity
  8
background
 62
7
100
AcDbSpline
 70
8
 71
3
 72
8
 73
4
 74
0
 40
0
 40
0
 40
0
 40
0
 40
1
 40
1
 40
1
 40
1
 10
-138.109232
 20
74.102214
 30
0.0
 10
-137.413061
 20
74.341757
 30
0.0
 10
-136.843466
 20
74.746276
 30
0.0
 10
-136.843466
 20
75.001139
 30
0.0
  0
LWPOLYLINE
  5
12b
100
AcDbEntity
  8
background
 62
7
100
AcDbPolyline
 90
1
 70
1
 10
-80.152745
 20
90.269690
 30
0.0
  0
SPLINE
  5
12c
100
AcDbEntity
  8
background
 62
7
100
AcDbSpline
 70
8
 71
3
 72
8
 73
4
 74
0
 40
0
 40
0
 40
0
 40
0
 40
1
 40
1
 40
1
 40
1
 10
-136.843466
 20
75.001139
 30
0.0
 10
-136.843466
 20
75.256014
 30
0.0
 10
-137.762988
 20
77.602032
 30
0.0
 10
-138.886856
 20
80.214518
 30
0.0
  0
SPLINE
  5
12d
100
AcDbEntity
  8
background
 62
7
100
AcDbSpline
 70
8
 71
3
 72
8
 73
4
 74
0
 40
0
 40
0
 40
0
 40
0
 40
1
 40
1
 40
1
 40
1
 10
-138.886856
 20
80.214518
 30
0.0
 10
-140.010713
 20
82.827003
 30
0.0
 10
-141.516724
 20
88.142210
 30
0.0
 10
-142.233534
 20
92.026081
 30
0.0
  0
SPLINE
  5
12e
100
AcDbEntity
  8
background
 62
7
100
AcDbSpline
 70
8
 71
3
 72
8
 73
4
 74
0
 40
0
 40
0
 40
0
 40
0
 40
1
 40
1
 40
1
 40
1
 10
-142.233534
 20
92.026081
 30
0.0
 10
-143.420923
 20
98.459610
 30
0.0
 10
-143.755560
 20
99.089554
 30
0.0
 10
-145.995985
 20
99.108855
 30
0.0
  0
SPLINE
  5
12f
100
AcDbEntity
  8
background
 62
7
100
AcDbSpline
 70
8
 71
3
 72
8
 73
4
 74
0
 40
0
 40
0
 40
0
 40
0
 40
1
 40
1
 40
1
 40
1
 10
-145.995985
 20
99.108855
 30
0.0
 10
-147.342172
 20
99.120444
 30
0.0
 10
-147.999566
 20
99.357066
 30
0.0
 10
-148.449787
 20
100.550956
 30
0.0
  0
SPLINE
  5
130
100
AcDbEntity
  8
background
 62
7
100
AcDbSpline
 70
8
 71
3
 72
8
 73
4
 74
0
 40
0
 40
0
 40
0
 40
0
 40
1
 40
1
 40
1
 40
1
 10
-149.653461
 20
106.879938
 30
0.0
 10
-150.859818
 20
112.641025
 30
0.0
 10
-152.456031
 20
111.960985
 30
0.0
 10
-155.077750
 20
104.953811
 30
0.0
  0
SPLINE
  5
131
100
AcDbEntity
  8
background
 62
7
100
AcDbSpline
 70
8
 71
3
 72
8
 73
4
 74
0
 40
0
 40
0
 40
0
 40
0
 40
1
 40
1
 40
1
 40
1
 10
-155.077750
 20
104.953811
 30
0.0
 10
-156.275659
 20
101.752120
 30
0.0
 10
-157.513676
 20
96.056180
 30
0.0
 10
-157.828901
 20
92.296170
 30
0.0
  0
SPLINE
  5
132
100
AcDbEntity
  8
background
 62
7
100
AcDbSpline
 70
8
 71
3
 72
8
 73
4
 74
0
 40
0
 40
0
 40
0
 40
0
 40
1
 40
1
 40
1
 40
1
 10
-157.828901
 20
92.296170
 30
0.0
 10
-158.376271
 20
85.767161
 30
0.0
 10
-158.302563
 20
85.459790
 30
0.0
 10
-156.189603
 20
85.459790
 30
0.0
  0
SPLINE
  5
133
100
AcDbEntity
  8
background
 62
7
100
AcDbSpline
 70
8
 71
3
 72
8
 73
4
 74
0
 40
0
 40
0
 40
0
 40
0
 40
1
 40
1
 40
1
 40
1
 10
-156.189603
 20
85.459790
 30
0.0
 10
-156.003215
 20
85.459790
 30
0.0
 10
-155.809656
 20
85.449735
 30
0.0
 10
-155.609647
 20
85.430085
 30
0.0
  0
SPLINE
  5
134
100
AcDbEntity
  8
background
 62
7
100
AcDbSpline
 70
8
 71
3
 72
8
 73
4
 74
0
 40
0
 40
0
 40
0
 40
0
 40
1
 40
1
 40
1
 40
1
 10
-131.780407
 20
70.068760
 30
0.0
 10
-131.780407
 20
71.628545
 30
0.0
 10
-132.681895
 20
76.982733
 30
0.0
 10
-133.783718
 20
81.966946
 30
0.0
  0
SPLINE
  5
135
100
AcDbEntity
  8
background
 62
7
100
AcDbSpline
 70
8
 71
3
 72
8
 73
4
 74
0
 40
0
 40
0
 40
0
 40
0
 40
1
 40
1
 40
1
 40
1
 10
-133.783718
 20
81.966946
 30
0.0
 10
-134.885538
 20
86.951159
 30
0.0
 10
-135.796893
 20
93.492066
 30
0.0
 10
-135.808940
 20
96.502299
 30
0.0
  0
SPLINE
  5
136
100
AcDbEntity
  8
background
 62
7
100
AcDbSpline
 70
8
 71
3
 72
8
 73
4
 74
0
 40
0
 40
0
 40
0
 40
0
 40
1
 40
1
 40
1
 40
1
 10
-135.808940
 20
96.502299
 30
0.0
 10
-135.830583
 20
101.910851
 30
0.0
 10
-135.854813
 20
101.953819
 30
0.0
 10
-137.856079
 20
100.142651
 30
0.0
  0
SPLINE
  5
137
100
AcDbEntity
  8
background
 62
7
100
AcDbSpline
 70
8
 71
3
 72
8
 73
4
 74
0
 40
0
 40
0
 40
0
 40
0
 40
1
 40
1
 40
1
 40
1
 10
-137.856079
 20
100.142651
 30
0.0
 10
-141.165331
 20
97.147822
 30
0.0
 10
-140.387919
 20
89.519630
 30
0.0
 10
-135.553582
 20
77.549775
 30
0.0
  0
SPLINE
  5
138
100
AcDbEntity
  8
background
 62
7
100
AcDbSpline
 70
8
 71
3
 72
8
 73
4
 74
0
 40
0
 40
0
 40
0
 40
0
 40
1
 40
1
 40
1
 40
1
 10
-135.553582
 20
77.549775
 30
0.0
 10
-133.740012
 20
73.059367
 30
0.0
 10
-133.614623
 20
72.027111
 30
0.0
 10
-134.794143
 20
71.298131
 30
0.0
  0
SPLINE
  5
139
100
AcDbEntity
  8
background
 62
7
100
AcDbSpline
 70
8
 71
3
 72
8
 73
4
 74
0
 40
0
 40
0
 40
0
 40
0
 40
1
 40
1
 40
1
 40
1
 10
-134.794143
 20
71.298131
 30
0.0
 10
-135.962919
 20
70.575784
 30
0.0
 10
-135.978149
 20
70.149294
 30
0.0
 10
-134.882342
 20
68.828878
 30
0.0
  0
SPLINE
  5
13a
100
AcDbEntity
  8
background
 62
7
100
AcDbSpline
 70
8
 71
3
 72
8
 73
4
 74
0
 40
0
 40
0
 40
0
 40
0
 40
1
 40
1
 40
1
 40
1
 10
-134.882342
 20
68.828878
 30
0.0
 10
-132.902849
 20
66.443733
 30
0.0
 10
-131.780452
 20
66.892382
 30
0.0
 10
-131.780452
 20
70.068760
 30
0.0
  0
LWPOLYLINE
  5
13b
100
AcDbEntity
  8
background
 62
7
100
AcDbPolyline
 90
1
 70
1
 10
-136.843466
 20
75.001139
 30
0.0
  0
SPLINE
  5
13c
100
AcDbEntity
  8
background
 62
7
100
AcDbSpline
 70
8
 71
3
 72
8
 73
4
 74
0
 40
0
 40
0
 40
0
 40
0
 40
1
 40
1
 40
1
 40
1
 10
-102.032271
 20
68.783301
 30
0.0
 10
-102.100420
 20
69.879797
 30
0.0
 10
-103.397857
 20
75.466887
 30
0.0
 10
-104.915496
 20
81.199067
 30
0.0
  0
SPLINE
  5
13d
100
AcDbEntity
  8
background
 62
7
100
AcDbSpline
 70
8
 71
3
 72
8
 73
4
 74
0
 40
0
 40
0
 40
0
 40
0
 40
1
 40
1
 40
1
 40
1
 10
-104.915496
 20
81.199067
 30
0.0
 10
-106.551161
 20
87.377005
 30
0.0
 10
-107.531617
 20
93.390855
 30
0.0
 10
-107.323144
 20
95.966791
 30
0.0
  0
SPLINE
  5
13e
100
AcDbEntity
  8
background
 62
7
100
AcDbSpline
 70
8
 71
3
 72
8
 73
4
 74
0
 40
0
 40
0
 40
0
 40
0
 40
1
 40
1
 40
1
 40
1
 10
-107.323144
 20
95.966791
 30
0.0
 10
-107.081222
 20
98.955937
 30
0.0
 10
-107.366581
 20
100.312231
 30
0.0
 10
-108.237195
 20
100.311900
 30
0.0
  0
SPLINE
  5
13f
100
AcDbEntity
  8
background
 62
7
100
AcDbSpline
 70
8
 71
3
 72
8
 73
4
 74
0
 40
0
 40
0
 40
0
 40
0
 40
1
 40
1
 40
1
 40
1
 10
-108.237195
 20
100.311900
 30
0.0
 10
-108.933366
 20
100.311635
 30
0.0
 10
-109.502961
 20
99.703853
 30
0.0
 10
-109.502961
 20
98.961271
 30
0.0
  0
SPLINE
  5
140
100
AcDbEntity
  8
background
 62
7
100
AcDbSpline
 70
8
 71
3
 72
8
 73
4
 74
0
 40
0
 40
0
 40
0
 40
0
 40
1
 40
1
 40
1
 40
1
 10
-109.502961
 20
98.961271
 30
0.0
 10
-109.502961
 20
96.831057
 30
0.0
 10
-112.259390
 20
97.386114
 30
0.0
 10
-114.112582
 20
99.889498
 30
0.0
  0
SPLINE
  5
141
100
AcDbEntity
  8
background
 62
7
100
AcDbSpline
 70
8
 71
3
 72
8
 73
4
 74
0
 40
0
 40
0
 40
0
 40
0
 40
1
 40
1
 40
1
 40
1
 10
-114.112582
 20
99.889498
 30
0.0
 10
-115.749163
 20
102.100266
 30
0.0
 10
-115.781164
 20
102.022831
 30
0.0
 10
-115.191265
 20
97.279727
 30
0.0
  0
SPLINE
  5
142
100
AcDbEntity
  8
background
 62
7
100
AcDbSpline
 70
8
 71
3
 72
8
 73
4
 74
0
 40
0
 40
0
 40
0
 40
0
 40
1
 40
1
 40
1
 40
1
 10
-115.191265
 20
97.279727
 30
0.0
 10
-114.856890
 20
94.591248
 30
0.0
 10
-113.393366
 20
89.578823
 30
0.0
 10
-111.938967
 20
86.141007
 30
0.0
  0
SPLINE
  5
143
100
AcDbEntity
  8
background
 62
7
100
AcDbSpline
 70
8
 71
3
 72
8
 73
4
 74
0
 40
0
 40
0
 40
0
 40
0
 40
1
 40
1
 40
1
 40
1
 10
-111.938967
 20
86.141007
 30
0.0
 10
-110.484589
 20
82.703188
 30
0.0
 10
-108.334156
 20
76.799697
 30
0.0
 10
-107.160235
 20
73.022143
 30
0.0
  0
SPLINE
  5
144
100
AcDbEntity
  8
background
 62
7
100
AcDbSpline
 70
8
 71
3
 72
8
 73
4
 74
0
 40
0
 40
0
 40
0
 40
0
 40
1
 40
1
 40
1
 40
1
 10
-107.160235
 20
73.022143
 30
0.0
 10
-105.610858
 20
68.036379
 30
0.0
 10
-104.598610
 20
66.240988
 30
0.0
 10
-103.467120
 20
66.471763
 30
0.0
  0
SPLINE
  5
145
100
AcDbEntity
  8
background
 62
7
100
AcDbSpline
 70
8
 71
3
 72
8
 73
4
 74
0
 40
0
 40
0
 40
0
 40
0
 40
1
 40
1
 40
1
 40
1
 10
-103.467120
 20
66.471763
 30
0.0
 10
-102.609811
 20
66.646621
 30
0.0
 10
-101.964133
 20
67.686814
 30
0.0
 10
-102.032271
 20
68.783301
 30
0.0
  0
LWPOLYLINE
  5
146
100
AcDbEntity
  8
background
 62
7
100
AcDbPolyline
 90
2
 70
1
 10
-131.780452
 20
70.068760
 30
0.0
 10
-131.780407
 20
70.068760
 30
0.0
  0
SPLINE
  5
147
100
AcDbEntity
  8
background
 62
7
100
AcDbSpline
 70
8
 71
3
 72
8
 73
4
 74
0
 40
0
 40
0
 40
0
 40
0
 40
1
 40
1
 40
1
 40
1
 10
-163.822732
 20
65.726762
 30
0.0
 10
-164.639546
 20
67.855354
 30
0.0
 10
-162.375294
 20
70.270624
 30
0.0
 10
-159.562988
 20
70.270624
 30
0.0
  0
SPLINE
  5
148
100
AcDbEntity
  8
background
 62
7
100
AcDbSpline
 70
8
 71
3
 72
8
 73
4
 74
0
 40
0
 40
0
 40
0
 40
0
 40
1
 40
1
 40
1
 40
1
 10
-159.562988
 20
70.270624
 30
0.0
 10
-156.132625
 20
70.270624
 30
0.0
 10
-155.397904
 20
68.211295
 30
0.0
 10
-158.059374
 20
66.056187
 30
0.0
  0
SPLINE
  5
149
100
AcDbEntity
  8
background
 62
7
100
AcDbSpline
 70
8
 71
3
 72
8
 73
4
 74
0
 40
0
 40
0
 40
0
 40
0
 40
1
 40
1
 40
1
 40
1
 10
-158.059374
 20
66.056187
 30
0.0
 10
-160.851223
 20
63.795481
 30
0.0
 10
-163.033752
 20
63.670728
 30
0.0
 10
-163.822732
 20
65.726762
 30
0.0
  0
LWPOLYLINE
  5
14a
100
AcDbEntity
  8
background
 62
7
100
AcDbPolyline
 90
1
 70
1
 10
-102.032271
 20
68.783301
 30
0.0
  0
SPLINE
  5
14b
100
AcDbEntity
  8
background
 62
7
100
AcDbSpline
 70
8
 71
3
 72
8
 73
4
 74
0
 40
0
 40
0
 40
0
 40
0
 40
1
 40
1
 40
1
 40
1
 10
-166.462342
 20
59.719578
 30
0.0
 10
-168.001614
 20
61.264946
 30
0.0
 10
-167.141697
 20
62.169733
 30
0.0
 10
-164.133683
 20
62.169733
 30
0.0
  0
SPLINE
  5
14c
100
AcDbEntity
  8
background
 62
7
100
AcDbSpline
 70
8
 71
3
 72
8
 73
4
 74
0
 40
0
 40
0
 40
0
 40
0
 40
1
 40
1
 40
1
 40
1
 10
-164.133683
 20
62.169733
 30
0.0
 10
-160.094065
 20
62.169733
 30
0.0
 10
-155.381148
 20
64.658703
 30
0.0
 10
-154.567686
 20
67.221682
 30
0.0
  0
SPLINE
  5
14d
100
AcDbEntity
  8
background
 62
7
100
AcDbSpline
 70
8
 71
3
 72
8
 73
4
 74
0
 40
0
 40
0
 40
0
 40
0
 40
1
 40
1
 40
1
 40
1
 10
-154.567686
 20
67.221682
 30
0.0
 10
-153.919505
 20
69.263927
 30
0.0
 10
-152.897020
 20
69.784854
 30
0.0
 10
-151.762844
 20
68.650678
 30
0.0
  0
SPLINE
  5
14e
100
AcDbEntity
  8
background
 62
7
100
AcDbSpline
 70
8
 71
3
 72
8
 73
4
 74
0
 40
0
 40
0
 40
0
 40
0
 40
1
 40
1
 40
1
 40
1
 10
-151.762844
 20
68.650678
 30
0.0
 10
-150.762404
 20
67.650238
 30
0.0
 10
-153.192205
 20
63.318977
 30
0.0
 10
-155.661561
 20
61.700995
 30
0.0
  0
SPLINE
  5
14f
100
AcDbEntity
  8
background
 62
7
100
AcDbSpline
 70
8
 71
3
 72
8
 73
4
 74
0
 40
0
 40
0
 40
0
 40
0
 40
1
 40
1
 40
1
 40
1
 10
-155.661561
 20
61.700995
 30
0.0
 10
-158.388129
 20
59.914475
 30
0.0
 10
-165.379056
 20
58.631984
 30
0.0
 10
-166.462342
 20
59.719578
 30
0.0
  0
LWPOLYLINE
  5
150
100
AcDbEntity
  8
background
 62
7
100
AcDbPolyline
 90
1
 70
1
 10
-163.822732
 20
65.726762
 30
0.0
  0
SPLINE
  5
151
100
AcDbEntity
  8
background
 62
7
100
AcDbSpline
 70
8
 71
3
 72
8
 73
4
 74
0
 40
0
 40
0
 40
0
 40
0
 40
1
 40
1
 40
1
 40
1
 10
-157.170276
 20
81.334652
 30
0.0
 10
-157.222306
 20
81.335975
 30
0.0
 10
-157.274064
 20
81.337298
 30
0.0
 10
-157.325523
 20
81.338171
 30
0.0
  0
SPLINE
  5
152
100
AcDbEntity
  8
background
 62
7
100
AcDbSpline
 70
8
 71
3
 72
8
 73
4
 74
0
 40
0
 40
0
 40
0
 40
0
 40
1
 40
1
 40
1
 40
1
 10
-157.325523
 20
81.338171
 30
0.0
 10
-160.278339
 20
81.393853
 30
0.0
 10
-161.460378
 20
80.858535
 30
0.0
 10
-162.758194
 20
78.877814
 30
0.0
  0
SPLINE
  5
153
100
AcDbEntity
  8
background
 62
7
100
AcDbSpline
 70
8
 71
3
 72
8
 73
4
 74
0
 40
0
 40
0
 40
0
 40
0
 40
1
 40
1
 40
1
 40
1
 10
-162.758194
 20
78.877814
 30
0.0
 10
-163.845042
 20
77.219072
 30
0.0
 10
-165.353254
 20
76.346285
 30
0.0
 10
-167.132783
 20
76.346285
 30
0.0
  0
SPLINE
  5
154
100
AcDbEntity
  8
background
 62
7
100
AcDbSpline
 70
8
 71
3
 72
8
 73
4
 74
0
 40
0
 40
0
 40
0
 40
0
 40
1
 40
1
 40
1
 40
1
 10
-167.132783
 20
76.346285
 30
0.0
 10
-171.632089
 20
76.346285
 30
0.0
 10
-179.422380
 20
67.174613
 30
0.0
 10
-179.332625
 20
61.983146
 30
0.0
  0
SPLINE
  5
155
100
AcDbEntity
  8
background
 62
7
100
AcDbSpline
 70
8
 71
3
 72
8
 73
4
 74
0
 40
0
 40
0
 40
0
 40
0
 40
1
 40
1
 40
1
 40
1
 10
-179.332625
 20
61.983146
 30
0.0
 10
-179.293422
 20
59.714109
 30
0.0
 10
-179.243411
 20
59.727920
 30
0.0
 10
-177.788110
 20
62.410015
 30
0.0
  0
SPLINE
  5
156
100
AcDbEntity
  8
background
 62
7
100
AcDbSpline
 70
8
 71
3
 72
8
 73
4
 74
0
 40
0
 40
0
 40
0
 40
0
 40
1
 40
1
 40
1
 40
1
 10
-177.788110
 20
62.410015
 30
0.0
 10
-176.242083
 20
65.259328
 30
0.0
 10
-172.446098
 20
66.887283
 30
0.0
 10
-169.755622
 20
65.854855
 30
0.0
  0
SPLINE
  5
157
100
AcDbEntity
  8
background
 62
7
100
AcDbSpline
 70
8
 71
3
 72
8
 73
4
 74
0
 40
0
 40
0
 40
0
 40
0
 40
1
 40
1
 40
1
 40
1
 10
-169.755622
 20
65.854855
 30
0.0
 10
-167.450460
 20
64.970290
 30
0.0
 10
-167.917114
 20
60.030336
 30
0.0
 10
-170.821919
 20
54.567156
 30
0.0
  0
SPLINE
  5
158
100
AcDbEntity
  8
background
 62
7
100
AcDbSpline
 70
8
 71
3
 72
8
 73
4
 74
0
 40
0
 40
0
 40
0
 40
0
 40
1
 40
1
 40
1
 40
1
 10
-170.821919
 20
54.567156
 30
0.0
 10
-173.961957
 20
48.661558
 30
0.0
 10
-173.167675
 20
47.731302
 30
0.0
 10
-165.457320
 20
48.284177
 30
0.0
  0
SPLINE
  5
159
100
AcDbEntity
  8
background
 62
7
100
AcDbSpline
 70
8
 71
3
 72
8
 73
4
 74
0
 40
0
 40
0
 40
0
 40
0
 40
1
 40
1
 40
1
 40
1
 10
-165.457320
 20
48.284177
 30
0.0
 10
-163.123703
 20
48.451514
 30
0.0
 10
-161.403408
 20
48.800061
 30
0.0
 10
-159.399925
 20
49.713022
 30
0.0
  0
SPLINE
  5
15a
100
AcDbEntity
  8
background
 62
7
100
AcDbSpline
 70
8
 71
3
 72
8
 73
4
 74
0
 40
0
 40
0
 40
0
 40
0
 40
1
 40
1
 40
1
 40
1
 10
-150.141358
 20
55.609757
 30
0.0
 10
-143.983125
 20
60.133441
 30
0.0
 10
-142.590025
 20
62.575641
 30
0.0
 10
-142.493960
 20
67.570739
 30
0.0
  0
LWPOLYLINE
  5
15b
100
AcDbEntity
  8
background
 62
7
100
AcDbPolyline
 90
1
 70
1
 10
-166.462342
 20
59.719578
 30
0.0
  0
SPLINE
  5
15c
100
AcDbEntity
  8
background
 62
7
100
AcDbSpline
 70
8
 71
3
 72
8
 73
4
 74
0
 40
0
 40
0
 40
0
 40
0
 40
1
 40
1
 40
1
 40
1
 10
-147.784730
 20
71.458598
 30
0.0
 10
-150.952996
 20
71.263417
 30
0.0
 10
-153.756857
 20
71.625812
 30
0.0
 10
-154.619857
 20
72.342042
 30
0.0
  0
SPLINE
  5
15d
100
AcDbEntity
  8
background
 62
7
100
AcDbSpline
 70
8
 71
3
 72
8
 73
4
 74
0
 40
0
 40
0
 40
0
 40
0
 40
1
 40
1
 40
1
 40
1
 10
-154.619857
 20
72.342042
 30
0.0
 10
-157.066022
 20
74.372187
 30
0.0
 10
-156.316204
 20
77.016647
 30
0.0
 10
-152.892260
 20
78.434888
 30
0.0
  0
SPLINE
  5
15e
100
AcDbEntity
  8
background
 62
7
100
AcDbSpline
 70
8
 71
3
 72
8
 73
4
 74
0
 40
0
 40
0
 40
0
 40
0
 40
1
 40
1
 40
1
 40
1
 10
-152.892260
 20
78.434888
 30
0.0
 10
-150.091196
 20
79.595128
 30
0.0
 10
-149.936578
 20
79.848834
 30
0.0
 10
-151.626499
 20
80.511790
 30
0.0
  0
SPLINE
  5
15f
100
AcDbEntity
  8
background
 62
7
100
AcDbSpline
 70
8
 71
3
 72
8
 73
4
 74
0
 40
0
 40
0
 40
0
 40
0
 40
1
 40
1
 40
1
 40
1
 10
-151.626499
 20
80.511790
 30
0.0
 10
-151.938850
 20
80.634327
 30
0.0
 10
-152.382244
 20
80.753074
 30
0.0
 10
-152.905471
 20
80.860614
 30
0.0
  0
SPLINE
  5
160
100
AcDbEntity
  8
background
 62
7
100
AcDbSpline
 70
8
 71
3
 72
8
 73
4
 74
0
 40
0
 40
0
 40
0
 40
0
 40
1
 40
1
 40
1
 40
1
 10
-119.267698
 20
112.698123
 30
0.0
 10
-119.993005
 20
114.167830
 30
0.0
 10
-120.903180
 20
115.436142
 30
0.0
 10
-121.754736
 20
115.891879
 30
0.0
  0
SPLINE
  5
161
100
AcDbEntity
  8
background
 62
7
100
AcDbSpline
 70
8
 71
3
 72
8
 73
4
 74
0
 40
0
 40
0
 40
0
 40
0
 40
1
 40
1
 40
1
 40
1
 10
-121.754736
 20
115.891879
 30
0.0
 10
-124.557838
 20
117.392053
 30
0.0
 10
-128.609852
 20
115.136501
 30
0.0
 10
-130.918535
 20
110.790868
 30
0.0
  0
SPLINE
  5
162
100
AcDbEntity
  8
background
 62
7
100
AcDbSpline
 70
8
 71
3
 72
8
 73
4
 74
0
 40
0
 40
0
 40
0
 40
0
 40
1
 40
1
 40
1
 40
1
 10
-130.918535
 20
110.790868
 30
0.0
 10
-133.433317
 20
106.057306
 30
0.0
 10
-133.376778
 20
95.608119
 30
0.0
 10
-130.767799
 20
82.928262
 30
0.0
  0
SPLINE
  5
163
100
AcDbEntity
  8
background
 62
7
100
AcDbSpline
 70
8
 71
3
 72
8
 73
4
 74
0
 40
0
 40
0
 40
0
 40
0
 40
1
 40
1
 40
1
 40
1
 10
-130.767799
 20
82.928262
 30
0.0
 10
-129.653924
 20
77.514754
 30
0.0
 10
-128.742575
 20
71.750505
 30
0.0
 10
-128.742575
 20
70.118814
 30
0.0
  0
SPLINE
  5
164
100
AcDbEntity
  8
background
 62
7
100
AcDbSpline
 70
8
 71
3
 72
8
 73
4
 74
0
 40
0
 40
0
 40
0
 40
0
 40
1
 40
1
 40
1
 40
1
 10
-128.742575
 20
70.118814
 30
0.0
 10
-128.742575
 20
63.597536
 30
0.0
 10
-136.303398
 20
54.068842
 30
0.0
 10
-141.477915
 20
54.068842
 30
0.0
  0
SPLINE
  5
165
100
AcDbEntity
  8
background
 62
7
100
AcDbSpline
 70
8
 71
3
 72
8
 73
4
 74
0
 40
0
 40
0
 40
0
 40
0
 40
1
 40
1
 40
1
 40
1
 10
-141.477915
 20
54.068842
 30
0.0
 10
-144.826448
 20
54.068842
 30
0.0
 10
-144.557763
 20
54.792708
 30
0.0
 10
-140.594591
 20
56.448632
 30
0.0
  0
SPLINE
  5
166
100
AcDbEntity
  8
background
 62
7
100
AcDbSpline
 70
8
 71
3
 72
8
 73
4
 74
0
 40
0
 40
0
 40
0
 40
0
 40
1
 40
1
 40
1
 40
1
 10
-140.594591
 20
56.448632
 30
0.0
 10
-138.759155
 20
57.215521
 30
0.0
 10
-136.511522
 20
58.981374
 30
0.0
 10
-135.599858
 20
60.372755
 30
0.0
  0
SPLINE
  5
167
100
AcDbEntity
  8
background
 62
7
100
AcDbSpline
 70
8
 71
3
 72
8
 73
4
 74
0
 40
0
 40
0
 40
0
 40
0
 40
1
 40
1
 40
1
 40
1
 10
-135.599858
 20
60.372755
 30
0.0
 10
-133.997827
 20
62.817775
 30
0.0
 10
-134.039282
 20
62.974223
 30
0.0
 10
-136.837460
 20
65.043008
 30
0.0
  0
LWPOLYLINE
  5
168
100
AcDbEntity
  8
background
 62
7
100
AcDbPolyline
 90
3
 70
0
 10
-142.493960
 20
67.570739
 30
0.0
 10
-142.412847
 20
71.789541
 30
0.0
 10
-147.784730
 20
71.458598
 30
0.0
  0
SPLINE
  5
169
100
AcDbEntity
  8
background
 62
7
100
AcDbSpline
 70
8
 71
3
 72
8
 73
4
 74
0
 40
0
 40
0
 40
0
 40
0
 40
1
 40
1
 40
1
 40
1
 10
-141.387618
 20
62.904545
 30
0.0
 10
-142.399030
 20
60.289562
 30
0.0
 10
-144.852821
 20
57.466340
 30
0.0
 10
-147.986022
 20
54.897166
 30
0.0
  0
SPLINE
  5
16a
100
AcDbEntity
  8
background
 62
7
100
AcDbSpline
 70
8
 71
3
 72
8
 73
4
 74
0
 40
0
 40
0
 40
0
 40
0
 40
1
 40
1
 40
1
 40
1
 10
-76.698247
 20
98.071771
 30
0.0
 10
-77.484285
 20
96.326918
 30
0.0
 10
-77.338359
 20
94.906761
 30
0.0
 10
-76.816823
 20
91.535454
 30
0.0
  0
SPLINE
  5
16b
100
AcDbEntity
  8
background
 62
7
100
AcDbSpline
 70
8
 71
3
 72
8
 73
4
 74
0
 40
0
 40
0
 40
0
 40
0
 40
1
 40
1
 40
1
 40
1
 10
-76.816823
 20
91.535454
 30
0.0
 10
-76.342949
 20
88.472309
 30
0.0
 10
-76.158635
 20
84.012410
 30
0.0
 10
-76.407208
 20
81.624570
 30
0.0
  0
SPLINE
  5
16c
100
AcDbEntity
  8
background
 62
7
100
AcDbSpline
 70
8
 71
3
 72
8
 73
4
 74
0
 40
0
 40
0
 40
0
 40
0
 40
1
 40
1
 40
1
 40
1
 10
-76.407208
 20
81.624570
 30
0.0
 10
-76.794341
 20
77.905922
 30
0.0
 10
-76.219997
 20
76.162577
 30
0.0
 10
-72.403983
 20
69.473233
 30
0.0
  0
SPLINE
  5
16d
100
AcDbEntity
  8
background
 62
7
100
AcDbSpline
 70
8
 71
3
 72
8
 73
4
 74
0
 40
0
 40
0
 40
0
 40
0
 40
1
 40
1
 40
1
 40
1
 10
-72.403983
 20
69.473233
 30
0.0
 10
-67.738712
 20
61.295193
 30
0.0
 10
-65.975786
 20
56.452855
 30
0.0
 10
-65.966340
 20
51.790468
 30
0.0
  0
SPLINE
  5
16e
100
AcDbEntity
  8
background
 62
7
100
AcDbSpline
 70
8
 71
3
 72
8
 73
4
 74
0
 40
0
 40
0
 40
0
 40
0
 40
1
 40
1
 40
1
 40
1
 10
-65.966340
 20
51.790468
 30
0.0
 10
-65.958217
 20
47.689251
 30
0.0
 10
-67.630088
 20
48.403110
 30
0.0
 10
-68.338147
 20
52.803078
 30
0.0
  0
SPLINE
  5
16f
100
AcDbEntity
  8
background
 62
7
100
AcDbSpline
 70
8
 71
3
 72
8
 73
4
 74
0
 40
0
 40
0
 40
0
 40
0
 40
1
 40
1
 40
1
 40
1
 10
-68.338147
 20
52.803078
 30
0.0
 10
-68.981984
 20
56.803996
 30
0.0
 10
-69.901448
 20
58.740828
 30
0.0
 10
-77.351469
 20
71.789541
 30
0.0
  0
SPLINE
  5
170
100
AcDbEntity
  8
background
 62
7
100
AcDbSpline
 70
8
 71
3
 72
8
 73
4
 74
0
 40
0
 40
0
 40
0
 40
0
 40
1
 40
1
 40
1
 40
1
 10
-77.351469
 20
71.789541
 30
0.0
 10
-82.825585
 20
81.377438
 30
0.0
 10
-84.876457
 20
87.950217
 30
0.0
 10
-86.061590
 20
99.704411
 30
0.0
  0
SPLINE
  5
171
100
AcDbEntity
  8
background
 62
7
100
AcDbSpline
 70
8
 71
3
 72
8
 73
4
 74
0
 40
0
 40
0
 40
0
 40
0
 40
1
 40
1
 40
1
 40
1
 10
-86.061590
 20
99.704411
 30
0.0
 10
-86.985695
 20
108.869663
 30
0.0
 10
-89.160419
 20
113.812902
 30
0.0
 10
-92.268479
 20
113.812902
 30
0.0
  0
SPLINE
  5
172
100
AcDbEntity
  8
background
 62
7
100
AcDbSpline
 70
8
 71
3
 72
8
 73
4
 74
0
 40
0
 40
0
 40
0
 40
0
 40
1
 40
1
 40
1
 40
1
 10
-92.268479
 20
113.812902
 30
0.0
 10
-95.090160
 20
113.812902
 30
0.0
 10
-99.470252
 20
109.769889
 30
0.0
 10
-101.507060
 20
105.285297
 30
0.0
  0
SPLINE
  5
173
100
AcDbEntity
  8
background
 62
7
100
AcDbSpline
 70
8
 71
3
 72
8
 73
4
 74
0
 40
0
 40
0
 40
0
 40
0
 40
1
 40
1
 40
1
 40
1
 10
-101.507060
 20
105.285297
 30
0.0
 10
-104.079426
 20
99.621496
 30
0.0
 10
-103.891678
 20
92.472198
 30
0.0
 10
-100.876333
 20
81.268141
 30
0.0
  0
SPLINE
  5
174
100
AcDbEntity
  8
background
 62
7
100
AcDbSpline
 70
8
 71
3
 72
8
 73
4
 74
0
 40
0
 40
0
 40
0
 40
0
 40
1
 40
1
 40
1
 40
1
 10
-100.876333
 20
81.268141
 30
0.0
 10
-95.735487
 20
62.166423
 30
0.0
 10
-95.758108
 20
62.409104
 30
0.0
 10
-98.337444
 20
54.030708
 30
0.0
  0
SPLINE
  5
175
100
AcDbEntity
  8
background
 62
7
100
AcDbSpline
 70
8
 71
3
 72
8
 73
4
 74
0
 40
0
 40
0
 40
0
 40
0
 40
1
 40
1
 40
1
 40
1
 10
-98.337444
 20
54.030708
 30
0.0
 10
-100.867332
 20
45.812943
 30
0.0
 10
-102.240604
 20
45.878409
 30
0.0
 10
-100.470441
 20
54.132395
 30
0.0
  0
SPLINE
  5
176
100
AcDbEntity
  8
background
 62
7
100
AcDbSpline
 70
8
 71
3
 72
8
 73
4
 74
0
 40
0
 40
0
 40
0
 40
0
 40
1
 40
1
 40
1
 40
1
 10
-100.470441
 20
54.132395
 30
0.0
 10
-99.072081
 20
60.652721
 30
0.0
 10
-99.831988
 20
64.151140
 30
0.0
 10
-102.495376
 20
63.454645
 30
0.0
  0
SPLINE
  5
177
100
AcDbEntity
  8
background
 62
7
100
AcDbSpline
 70
8
 71
3
 72
8
 73
4
 74
0
 40
0
 40
0
 40
0
 40
0
 40
1
 40
1
 40
1
 40
1
 10
-102.495376
 20
63.454645
 30
0.0
 10
-103.585817
 20
63.169496
 30
0.0
 10
-104.439913
 20
62.066842
 30
0.0
 10
-104.439913
 20
60.944220
 30
0.0
  0
SPLINE
  5
178
100
AcDbEntity
  8
background
 62
7
100
AcDbSpline
 70
8
 71
3
 72
8
 73
4
 74
0
 40
0
 40
0
 40
0
 40
0
 40
1
 40
1
 40
1
 40
1
 10
-104.439913
 20
60.944220
 30
0.0
 10
-104.439913
 20
59.793905
 30
0.0
 10
-105.301436
 20
58.717003
 30
0.0
 10
-106.465127
 20
58.412692
 30
0.0
  0
SPLINE
  5
179
100
AcDbEntity
  8
background
 62
7
100
AcDbSpline
 70
8
 71
3
 72
8
 73
4
 74
0
 40
0
 40
0
 40
0
 40
0
 40
1
 40
1
 40
1
 40
1
 10
-106.465127
 20
58.412692
 30
0.0
 10
-107.601163
 20
58.115613
 30
0.0
 10
-108.490348
 20
57.031469
 30
0.0
 10
-108.490348
 20
55.943439
 30
0.0
  0
SPLINE
  5
17a
100
AcDbEntity
  8
background
 62
7
100
AcDbSpline
 70
8
 71
3
 72
8
 73
4
 74
0
 40
0
 40
0
 40
0
 40
0
 40
1
 40
1
 40
1
 40
1
 10
-108.490348
 20
55.943439
 30
0.0
 10
-108.490348
 20
53.141311
 30
0.0
 10
-111.238959
 20
46.980565
 30
0.0
 10
-112.489133
 20
46.980565
 30
0.0
  0
SPLINE
  5
17b
100
AcDbEntity
  8
background
 62
7
100
AcDbSpline
 70
8
 71
3
 72
8
 73
4
 74
0
 40
0
 40
0
 40
0
 40
0
 40
1
 40
1
 40
1
 40
1
 10
-112.489133
 20
46.980565
 30
0.0
 10
-113.074479
 20
46.980565
 30
0.0
 10
-113.553407
 20
47.600891
 30
0.0
 10
-113.553407
 20
48.359063
 30
0.0
  0
SPLINE
  5
17c
100
AcDbEntity
  8
background
 62
7
100
AcDbSpline
 70
8
 71
3
 72
8
 73
4
 74
0
 40
0
 40
0
 40
0
 40
0
 40
1
 40
1
 40
1
 40
1
 10
-113.553407
 20
48.359063
 30
0.0
 10
-113.553407
 20
49.266179
 30
0.0
 10
-114.380264
 20
49.579493
 30
0.0
 10
-115.971460
 20
49.275315
 30
0.0
  0
SPLINE
  5
17d
100
AcDbEntity
  8
background
 62
7
100
AcDbSpline
 70
8
 71
3
 72
8
 73
4
 74
0
 40
0
 40
0
 40
0
 40
0
 40
1
 40
1
 40
1
 40
1
 10
-115.971460
 20
49.275315
 30
0.0
 10
-118.659569
 20
48.761454
 30
0.0
 10
-122.666908
 20
50.505352
 30
0.0
 10
-122.666908
 20
52.189023
 30
0.0
  0
SPLINE
  5
17e
100
AcDbEntity
  8
background
 62
7
100
AcDbSpline
 70
8
 71
3
 72
8
 73
4
 74
0
 40
0
 40
0
 40
0
 40
0
 40
1
 40
1
 40
1
 40
1
 10
-122.666908
 20
52.189023
 30
0.0
 10
-122.666908
 20
52.842591
 30
0.0
 10
-121.657819
 20
53.022521
 30
0.0
 10
-120.135380
 20
52.640413
 30
0.0
  0
SPLINE
  5
17f
100
AcDbEntity
  8
background
 62
7
100
AcDbSpline
 70
8
 71
3
 72
8
 73
4
 74
0
 40
0
 40
0
 40
0
 40
0
 40
1
 40
1
 40
1
 40
1
 10
-120.135380
 20
52.640413
 30
0.0
 10
-117.948938
 20
52.091648
 30
0.0
 10
-117.603852
 20
52.344608
 30
0.0
 10
-117.603852
 20
54.496094
 30
0.0
  0
SPLINE
  5
180
100
AcDbEntity
  8
background
 62
7
100
AcDbSpline
 70
8
 71
3
 72
8
 73
4
 74
0
 40
0
 40
0
 40
0
 40
0
 40
1
 40
1
 40
1
 40
1
 10
-117.603852
 20
54.496094
 30
0.0
 10
-117.603852
 20
58.531786
 30
0.0
 10
-115.814808
 20
58.469419
 30
0.0
 10
-113.585427
 20
54.356021
 30
0.0
  0
LWPOLYLINE
  5
181
100
AcDbEntity
  8
background
 62
7
100
AcDbPolyline
 90
3
 70
0
 10
-136.837460
 20
65.043008
 30
0.0
 10
-139.732626
 20
67.183495
 30
0.0
 10
-141.387618
 20
62.904545
 30
0.0
  0
SPLINE
  5
182
100
AcDbEntity
  8
background
 62
7
100
AcDbSpline
 70
8
 71
3
 72
8
 73
4
 74
0
 40
0
 40
0
 40
0
 40
0
 40
1
 40
1
 40
1
 40
1
 10
-111.771708
 20
57.361958
 30
0.0
 10
-111.916236
 20
61.122441
 30
0.0
 10
-111.842590
 20
64.198246
 30
0.0
 10
-111.607917
 20
64.197082
 30
0.0
  0
SPLINE
  5
183
100
AcDbEntity
  8
background
 62
7
100
AcDbSpline
 70
8
 71
3
 72
8
 73
4
 74
0
 40
0
 40
0
 40
0
 40
0
 40
1
 40
1
 40
1
 40
1
 10
-111.607917
 20
64.197082
 30
0.0
 10
-111.373306
 20
64.196024
 30
0.0
 10
-110.348038
 20
63.440823
 30
0.0
 10
-109.329540
 20
62.519094
 30
0.0
  0
SPLINE
  5
184
100
AcDbEntity
  8
background
 62
7
100
AcDbSpline
 70
8
 71
3
 72
8
 73
4
 74
0
 40
0
 40
0
 40
0
 40
0
 40
1
 40
1
 40
1
 40
1
 10
-109.329540
 20
62.519094
 30
0.0
 10
-107.602168
 20
60.955846
 30
0.0
 10
-107.477740
 20
60.963035
 30
0.0
 10
-107.477740
 20
62.626087
 30
0.0
  0
SPLINE
  5
185
100
AcDbEntity
  8
background
 62
7
100
AcDbSpline
 70
8
 71
3
 72
8
 73
4
 74
0
 40
0
 40
0
 40
0
 40
0
 40
1
 40
1
 40
1
 40
1
 10
-107.477740
 20
62.626087
 30
0.0
 10
-107.477740
 20
65.815115
 30
0.0
 10
-110.448945
 20
75.976959
 30
0.0
 10
-113.457310
 20
83.076875
 30
0.0
  0
SPLINE
  5
186
100
AcDbEntity
  8
background
 62
7
100
AcDbSpline
 70
8
 71
3
 72
8
 73
4
 74
0
 40
0
 40
0
 40
0
 40
0
 40
1
 40
1
 40
1
 40
1
 10
-113.457310
 20
83.076875
 30
0.0
 10
-115.842346
 20
88.705706
 30
0.0
 10
-118.186959
 20
99.379016
 30
0.0
 10
-118.373012
 20
104.317631
 30
0.0
  0
SPLINE
  5
187
100
AcDbEntity
  8
background
 62
7
100
AcDbSpline
 70
8
 71
3
 72
8
 73
4
 74
0
 40
0
 40
0
 40
0
 40
0
 40
1
 40
1
 40
1
 40
1
 10
-159.370133
 20
48.118264
 30
0.0
 10
-162.877712
 20
46.696540
 30
0.0
 10
-166.267638
 20
45.939426
 30
0.0
 10
-168.897938
 20
46.235900
 30
0.0
  0
LWPOLYLINE
  5
188
100
AcDbEntity
  8
background
 62
7
100
AcDbPolyline
 90
3
 70
0
 10
-113.585427
 20
54.356021
 30
0.0
 10
-111.508924
 20
50.524704
 30
0.0
 10
-111.771708
 20
57.361958
 30
0.0
  0
SPLINE
  5
189
100
AcDbEntity
  8
background
 62
7
100
AcDbSpline
 70
8
 71
3
 72
8
 73
4
 74
0
 40
0
 40
0
 40
0
 40
0
 40
1
 40
1
 40
1
 40
1
 10
-169.882399
 20
42.046880
 30
0.0
 10
-162.171859
 20
31.499484
 30
0.0
 10
-147.136387
 20
22.253481
 30
0.0
 10
-132.793020
 20
19.238918
 30
0.0
  0
SPLINE
  5
18a
100
AcDbEntity
  8
background
 62
7
100
AcDbSpline
 70
8
 71
3
 72
8
 73
4
 74
0
 40
0
 40
0
 40
0
 40
0
 40
1
 40
1
 40
1
 40
1
 10
-132.793020
 20
19.238918
 30
0.0
 10
-120.761985
 20
16.710348
 30
0.0
 10
-111.773996
 20
16.240747
 30
0.0
 10
-102.121502
 20
17.636442
 30
0.0
  0
SPLINE
  5
18b
100
AcDbEntity
  8
background
 62
7
100
AcDbSpline
 70
8
 71
3
 72
8
 73
4
 74
0
 40
0
 40
0
 40
0
 40
0
 40
1
 40
1
 40
1
 40
1
 10
-102.121502
 20
17.636442
 30
0.0
 10
-92.521995
 20
19.024468
 30
0.0
 10
-79.232609
 20
23.607566
 30
0.0
 10
-75.899142
 20
26.679717
 30
0.0
  0
SPLINE
  5
18c
100
AcDbEntity
  8
background
 62
7
100
AcDbSpline
 70
8
 71
3
 72
8
 73
4
 74
0
 40
0
 40
0
 40
0
 40
0
 40
1
 40
1
 40
1
 40
1
 10
-75.899142
 20
26.679717
 30
0.0
 10
-71.685634
 20
30.562930
 30
0.0
 10
-66.210683
 20
40.430519
 30
0.0
 10
-63.230776
 20
49.512093
 30
0.0
  0
SPLINE
  5
18d
100
AcDbEntity
  8
background
 62
7
100
AcDbSpline
 70
8
 71
3
 72
8
 73
4
 74
0
 40
0
 40
0
 40
0
 40
0
 40
1
 40
1
 40
1
 40
1
 10
-63.230776
 20
49.512093
 30
0.0
 10
-60.814942
 20
56.874606
 30
0.0
 10
-60.565797
 20
59.135880
 30
0.0
 10
-60.497376
 20
74.321069
 30
0.0
  0
SPLINE
  5
18e
100
AcDbEntity
  8
background
 62
7
100
AcDbSpline
 70
8
 71
3
 72
8
 73
4
 74
0
 40
0
 40
0
 40
0
 40
0
 40
1
 40
1
 40
1
 40
1
 10
-60.497376
 20
74.321069
 30
0.0
 10
-60.431556
 20
88.923469
 30
0.0
 10
-60.705981
 20
91.922468
 30
0.0
 10
-62.674712
 20
98.117427
 30
0.0
  0
SPLINE
  5
18f
100
AcDbEntity
  8
background
 62
7
100
AcDbSpline
 70
8
 71
3
 72
8
 73
4
 74
0
 40
0
 40
0
 40
0
 40
0
 40
1
 40
1
 40
1
 40
1
 10
-62.674712
 20
98.117427
 30
0.0
 10
-63.913663
 20
102.015981
 30
0.0
 10
-65.330800
 20
105.824062
 30
0.0
 10
-65.823904
 20
106.579831
 30
0.0
  0
SPLINE
  5
190
100
AcDbEntity
  8
background
 62
7
100
AcDbSpline
 70
8
 71
3
 72
8
 73
4
 74
0
 40
0
 40
0
 40
0
 40
0
 40
1
 40
1
 40
1
 40
1
 10
-65.823904
 20
106.579831
 30
0.0
 10
-67.137174
 20
108.592641
 30
0.0
 10
-69.923509
 20
107.348959
 30
0.0
 10
-73.080211
 20
103.462730
 30
0.0
  0
SPLINE
  5
191
100
AcDbEntity
  8
background
 62
7
100
AcDbSpline
 70
8
 71
3
 72
8
 73
4
 74
0
 40
0
 40
0
 40
0
 40
0
 40
1
 40
1
 40
1
 40
1
 10
-180.815578
 20
70.750007
 30
0.0
 10
-183.956939
 20
77.521345
 30
0.0
 10
-185.890035
 20
84.852566
 30
0.0
 10
-186.487300
 20
92.472587
 30
0.0
  0
SPLINE
  5
192
100
AcDbEntity
  8
background
 62
7
100
AcDbSpline
 70
8
 71
3
 72
8
 73
4
 74
0
 40
0
 40
0
 40
0
 40
0
 40
1
 40
1
 40
1
 40
1
 10
-186.487300
 20
92.472587
 30
0.0
 10
-186.651739
 20
94.570455
 30
0.0
 10
-186.651606
 20
100.314506
 30
0.0
 10
-186.487062
 20
102.413562
 30
0.0
  0
SPLINE
  5
193
100
AcDbEntity
  8
background
 62
7
100
AcDbSpline
 70
8
 71
3
 72
8
 73
4
 74
0
 40
0
 40
0
 40
0
 40
0
 40
1
 40
1
 40
1
 40
1
 10
-186.487062
 20
102.413562
 30
0.0
 10
-185.478999
 20
115.274968
 30
0.0
 10
-180.675066
 20
127.330756
 30
0.0
 10
-172.571222
 20
137.336255
 30
0.0
  0
SPLINE
  5
194
100
AcDbEntity
  8
background
 62
7
100
AcDbSpline
 70
8
 71
3
 72
8
 73
4
 74
0
 40
0
 40
0
 40
0
 40
0
 40
1
 40
1
 40
1
 40
1
 10
-172.571222
 20
137.336255
 30
0.0
 10
-162.391167
 20
149.905196
 30
0.0
 10
-147.801714
 20
158.153576
 30
0.0
 10
-131.991595
 20
160.278591
 30
0.0
  0
SPLINE
  5
195
100
AcDbEntity
  8
background
 62
7
100
AcDbSpline
 70
8
 71
3
 72
8
 73
4
 74
0
 40
0
 40
0
 40
0
 40
0
 40
1
 40
1
 40
1
 40
1
 10
-131.991595
 20
160.278591
 30
0.0
 10
-128.781265
 20
160.710086
 30
0.0
 10
-126.997547
 20
160.820423
 30
0.0
 10
-123.232190
 20
160.820423
 30
0.0
  0
SPLINE
  5
196
100
AcDbEntity
  8
background
 62
7
100
AcDbSpline
 70
8
 71
3
 72
8
 73
4
 74
0
 40
0
 40
0
 40
0
 40
0
 40
1
 40
1
 40
1
 40
1
 10
-123.232190
 20
160.820423
 30
0.0
 10
-119.466834
 20
160.820423
 30
0.0
 10
-117.683116
 20
160.710086
 30
0.0
 10
-114.472786
 20
160.278591
 30
0.0
  0
SPLINE
  5
197
100
AcDbEntity
  8
background
 62
7
100
AcDbSpline
 70
8
 71
3
 72
8
 73
4
 74
0
 40
0
 40
0
 40
0
 40
0
 40
1
 40
1
 40
1
 40
1
 10
-114.472786
 20
160.278591
 30
0.0
 10
-103.357476
 20
158.784597
 30
0.0
 10
-92.600830
 20
154.182678
 30
0.0
 10
-83.813758
 20
147.162012
 30
0.0
  0
SPLINE
  5
198
100
AcDbEntity
  8
background
 62
7
100
AcDbSpline
 70
8
 71
3
 72
8
 73
4
 74
0
 40
0
 40
0
 40
0
 40
0
 40
1
 40
1
 40
1
 40
1
 10
-83.813758
 20
147.162012
 30
0.0
 10
-69.876757
 20
136.026676
 30
0.0
 10
-61.364241
 20
120.054822
 30
0.0
 10
-59.979293
 20
102.441915
 30
0.0
  0
SPLINE
  5
199
100
AcDbEntity
  8
background
 62
7
100
AcDbSpline
 70
8
 71
3
 72
8
 73
4
 74
0
 40
0
 40
0
 40
0
 40
0
 40
1
 40
1
 40
1
 40
1
 10
-59.979293
 20
102.441915
 30
0.0
 10
-59.954872
 20
102.131222
 30
0.0
 10
-59.934115
 20
101.733813
 30
0.0
 10
-59.917050
 20
101.275830
 30
0.0
  0
LWPOLYLINE
  5
19a
100
AcDbEntity
  8
background
 62
7
100
AcDbPolyline
 90
3
 70
0
 10
-168.897938
 20
46.235900
 30
0.0
 10
-173.308132
 20
46.732992
 30
0.0
 10
-169.882399
 20
42.046880
 30
0.0
  0
LWPOLYLINE
  5
19b
100
AcDbEntity
  8
background
 62
7
100
AcDbPolyline
 90
2
 70
0
 10
-148.449787
 20
100.550956
 30
0.0
 10
-141.318829
 20
103.091850
 30
0.0
  0
LWPOLYLINE
  5
19c
100
AcDbEntity
  8
background
 62
7
100
AcDbPolyline
 90
2
 70
0
 10
-141.346706
 20
105.473778
 30
0.0
 10
-144.795227
 20
105.731858
 30
0.0
  0
LWPOLYLINE
  5
19d
100
AcDbEntity
  8
background
 62
7
100
AcDbPolyline
 90
2
 70
0
 10
-145.897163
 20
105.732175
 30
0.0
 10
-149.653461
 20
106.879938
 30
0.0
  0
LWPOLYLINE
  5
19e
100
AcDbEntity
  8
background
 62
7
100
AcDbPolyline
 90
2
 70
0
 10
-119.267698
 20
112.698123
 30
0.0
 10
-116.238983
 20
112.905003
 30
0.0
  0
LWPOLYLINE
  5
19f
100
AcDbEntity
  8
background
 62
7
100
AcDbPolyline
 90
2
 70
0
 10
-118.373012
 20
104.317631
 30
0.0
 10
-114.246480
 20
104.135018
 30
0.0
  0
LWPOLYLINE
  5
1a0
100
AcDbEntity
  8
background
 62
7
100
AcDbPolyline
 90
2
 70
0
 10
-113.782594
 20
109.359531
 30
0.0
 10
-113.956425
 20
105.871841
 30
0.0
  0
LWPOLYLINE
  5
1a1
100
AcDbEntity
  8
background
 62
7
100
AcDbPolyline
 90
2
 70
0
 10
-76.698247
 20
98.071771
 30
0.0
 10
-81.488314
 20
103.476494
 30
0.0
  0
LWPOLYLINE
  5
1a2
100
AcDbEntity
  8
background
 62
7
100
AcDbPolyline
 90
2
 70
0
 10
-75.908419
 20
103.426755
 30
0.0
 10
-73.080211
 20
103.462730
 30
0.0
  0
LWPOLYLINE
  5
1a3
100
AcDbEntity
  8
background
 62
7
100
AcDbPolyline
 90
2
 70
0
 10
-80.506520
 20
103.448453
 30
0.0
 10
-79.909723
 20
110.495527
 30
0.0
  0
LWPOLYLINE
  5
1a4
100
AcDbEntity
  8
background
 62
7
100
AcDbPolyline
 90
2
 70
0
 10
-77.585353
 20
110.485981
 30
0.0
 10
-77.538225
 20
103.434777
 30
0.0
  0
LWPOLYLINE
  5
1a5
100
AcDbEntity
  8
background
 62
7
100
AcDbPolyline
 90
2
 70
0
 10
-156.248272
 20
85.359206
 30
0.0
 10
-157.746443
 20
81.266641
 30
0.0
  0
SPLINE
  5
1a6
100
AcDbEntity
  8
background
 62
7
100
AcDbSpline
 70
8
 71
3
 72
8
 73
4
 74
0
 40
0
 40
0
 40
0
 40
0
 40
1
 40
1
 40
1
 40
1
 10
-77.572828
 20
137.543926
 30
0.0
 10
-77.379470
 20
137.756477
 30
0.0
 10
-77.219691
 20
137.988971
 30
0.0
 10
-77.217778
 20
138.060583
 30
0.0
  0
SPLINE
  5
1a7
100
AcDbEntity
  8
background
 62
7
100
AcDbSpline
 70
8
 71
3
 72
8
 73
4
 74
0
 40
0
 40
0
 40
0
 40
0
 40
1
 40
1
 40
1
 40
1
 10
-77.217778
 20
138.060583
 30
0.0
 10
-77.209682
 20
138.361166
 30
0.0
 10
-78.220705
 20
139.685202
 30
0.0
 10
-79.419371
 20
140.943931
 30
0.0
  0
SPLINE
  5
1a8
100
AcDbEntity
  8
background
 62
7
100
AcDbSpline
 70
8
 71
3
 72
8
 73
4
 74
0
 40
0
 40
0
 40
0
 40
0
 40
1
 40
1
 40
1
 40
1
 10
-79.419371
 20
140.943931
 30
0.0
 10
-83.575525
 20
145.308328
 30
0.0
 10
-90.774060
 20
150.397001
 30
0.0
 10
-97.030627
 20
153.393394
 30
0.0
  0
SPLINE
  5
1a9
100
AcDbEntity
  8
background
 62
7
100
AcDbSpline
 70
8
 71
3
 72
8
 73
4
 74
0
 40
0
 40
0
 40
0
 40
0
 40
1
 40
1
 40
1
 40
1
 10
-97.030627
 20
153.393394
 30
0.0
 10
-101.887160
 20
155.719283
 30
0.0
 10
-107.891175
 20
157.650527
 30
0.0
 10
-112.888440
 20
158.494198
 30
0.0
  0
SPLINE
  5
1aa
100
AcDbEntity
  8
background
 62
7
100
AcDbSpline
 70
8
 71
3
 72
8
 73
4
 74
0
 40
0
 40
0
 40
0
 40
0
 40
1
 40
1
 40
1
 40
1
 10
-112.888440
 20
158.494198
 30
0.0
 10
-115.104511
 20
158.868330
 30
0.0
 10
-115.475591
 20
158.872354
 30
0.0
 10
-113.889346
 20
158.505046
 30
0.0
  0
SPLINE
  5
1ab
100
AcDbEntity
  8
background
 62
7
100
AcDbSpline
 70
8
 71
3
 72
8
 73
4
 74
0
 40
0
 40
0
 40
0
 40
0
 40
1
 40
1
 40
1
 40
1
 10
-113.889346
 20
158.505046
 30
0.0
 10
-109.590433
 20
157.509617
 30
0.0
 10
-105.551100
 20
155.621075
 30
0.0
 10
-102.259667
 20
153.067732
 30
0.0
  0
SPLINE
  5
1ac
100
AcDbEntity
  8
background
 62
7
100
AcDbSpline
 70
8
 71
3
 72
8
 73
4
 74
0
 40
0
 40
0
 40
0
 40
0
 40
1
 40
1
 40
1
 40
1
 10
-102.259667
 20
153.067732
 30
0.0
 10
-100.623354
 20
151.798356
 30
0.0
 10
-98.312933
 20
149.438294
 30
0.0
 10
-97.079903
 20
147.776679
 30
0.0
  0
LWPOLYLINE
  5
1ad
100
AcDbEntity
  8
background
 62
7
100
AcDbPolyline
 90
2
 70
0
 10
-150.949864
 20
84.299523
 30
0.0
 10
-152.192249
 20
80.791611
 30
0.0
  0
SPLINE
  5
1ae
100
AcDbEntity
  8
background
 62
7
100
AcDbSpline
 70
8
 71
3
 72
8
 73
4
 74
0
 40
0
 40
0
 40
0
 40
0
 40
1
 40
1
 40
1
 40
1
 10
-94.880083
 20
146.513386
 30
0.0
 10
-89.116429
 20
146.198254
 30
0.0
 10
-84.825239
 20
144.053499
 30
0.0
 10
-79.715289
 20
138.933965
 30
0.0
  0
SPLINE
  5
1af
100
AcDbEntity
  8
background
 62
7
100
AcDbSpline
 70
8
 71
3
 72
8
 73
4
 74
0
 40
0
 40
0
 40
0
 40
0
 40
1
 40
1
 40
1
 40
1
 10
-79.715289
 20
138.933965
 30
0.0
 10
-78.764847
 20
137.981735
 30
0.0
 10
-77.973076
 20
137.192475
 30
0.0
 10
-77.955799
 20
137.180053
 30
0.0
  0
SPLINE
  5
1b0
100
AcDbEntity
  8
background
 62
7
100
AcDbSpline
 70
8
 71
3
 72
8
 73
4
 74
0
 40
0
 40
0
 40
0
 40
0
 40
1
 40
1
 40
1
 40
1
 10
-77.955799
 20
137.180053
 30
0.0
 10
-77.938522
 20
137.167617
 30
0.0
 10
-77.766185
 20
137.331373
 30
0.0
 10
-77.572828
 20
137.543924
 30
0.0
  0
LWPOLYLINE
  5
1b1
100
AcDbEntity
  8
background
 62
7
100
AcDbPolyline
 90
3
 70
0
 10
-97.079903
 20
147.776679
 30
0.0
 10
-96.195846
 20
146.585329
 30
0.0
 10
-94.880083
 20
146.513386
 30
0.0
  0
SPLINE
  5
1b2
100
AcDbEntity
  8
background
 62
7
100
AcDbSpline
 70
8
 71
3
 72
8
 73
4
 74
0
 40
0
 40
0
 40
0
 40
0
 40
1
 40
1
 40
1
 40
1
 10
-120.735095
 20
128.631892
 30
0.0
 10
-115.070887
 20
130.801843
 30
0.0
 10
-109.226773
 20
131.965115
 30
0.0
 10
-103.172339
 20
132.127763
 30
0.0
  0
LWPOLYLINE
  5
1b3
100
AcDbEntity
  8
background
 62
7
100
AcDbPolyline
 90
2
 70
1
 10
-77.572828
 20
137.543924
 30
0.0
 10
-77.572828
 20
137.543926
 30
0.0
  0
SPLINE
  5
1b4
100
AcDbEntity
  8
background
 62
7
100
AcDbSpline
 70
8
 71
3
 72
8
 73
4
 74
0
 40
0
 40
0
 40
0
 40
0
 40
1
 40
1
 40
1
 40
1
 10
-100.065001
 20
133.518706
 30
0.0
 10
-98.418187
 20
138.166652
 30
0.0
 10
-96.834328
 20
144.049996
 30
0.0
 10
-96.834328
 20
145.519243
 30
0.0
  0
SPLINE
  5
1b5
100
AcDbEntity
  8
background
 62
7
100
AcDbSpline
 70
8
 71
3
 72
8
 73
4
 74
0
 40
0
 40
0
 40
0
 40
0
 40
1
 40
1
 40
1
 40
1
 10
-96.834328
 20
145.519243
 30
0.0
 10
-96.834328
 20
145.754482
 30
0.0
 10
-98.669771
 20
148.149244
 30
0.0
 10
-99.783424
 20
149.367026
 30
0.0
  0
SPLINE
  5
1b6
100
AcDbEntity
  8
background
 62
7
100
AcDbSpline
 70
8
 71
3
 72
8
 73
4
 74
0
 40
0
 40
0
 40
0
 40
0
 40
1
 40
1
 40
1
 40
1
 10
-99.783424
 20
149.367026
 30
0.0
 10
-102.377515
 20
152.203666
 30
0.0
 10
-106.096300
 20
154.715766
 30
0.0
 10
-109.885840
 20
156.191368
 30
0.0
  0
SPLINE
  5
1b7
100
AcDbEntity
  8
background
 62
7
100
AcDbSpline
 70
8
 71
3
 72
8
 73
4
 74
0
 40
0
 40
0
 40
0
 40
0
 40
1
 40
1
 40
1
 40
1
 10
-109.885840
 20
156.191368
 30
0.0
 10
-112.254395
 20
157.113653
 30
0.0
 10
-117.891470
 20
158.425854
 30
0.0
 10
-121.890671
 20
158.985852
 30
0.0
  0
SPLINE
  5
1b8
100
AcDbEntity
  8
background
 62
7
100
AcDbSpline
 70
8
 71
3
 72
8
 73
4
 74
0
 40
0
 40
0
 40
0
 40
0
 40
1
 40
1
 40
1
 40
1
 10
-121.890671
 20
158.985852
 30
0.0
 10
-123.732451
 20
159.243755
 30
0.0
 10
-125.654787
 20
159.166346
 30
0.0
 10
-129.415474
 20
158.682830
 30
0.0
  0
SPLINE
  5
1b9
100
AcDbEntity
  8
background
 62
7
100
AcDbSpline
 70
8
 71
3
 72
8
 73
4
 74
0
 40
0
 40
0
 40
0
 40
0
 40
1
 40
1
 40
1
 40
1
 10
-129.415474
 20
158.682830
 30
0.0
 10
-132.977726
 20
158.224831
 30
0.0
 10
-135.028982
 20
157.853380
 30
0.0
 10
-136.668941
 20
157.369330
 30
0.0
  0
SPLINE
  5
1ba
100
AcDbEntity
  8
background
 62
7
100
AcDbSpline
 70
8
 71
3
 72
8
 73
4
 74
0
 40
0
 40
0
 40
0
 40
0
 40
1
 40
1
 40
1
 40
1
 10
-136.668941
 20
157.369330
 30
0.0
 10
-138.122282
 20
156.940361
 30
0.0
 10
-139.858782
 20
156.140153
 30
0.0
 10
-139.966922
 20
155.849563
 30
0.0
  0
SPLINE
  5
1bb
100
AcDbEntity
  8
background
 62
7
100
AcDbSpline
 70
8
 71
3
 72
8
 73
4
 74
0
 40
0
 40
0
 40
0
 40
0
 40
1
 40
1
 40
1
 40
1
 10
-139.966922
 20
155.849563
 30
0.0
 10
-140.008208
 20
155.738632
 30
0.0
 10
-140.240187
 20
155.380322
 30
0.0
 10
-140.482436
 20
155.053321
 30
0.0
  0
SPLINE
  5
1bc
100
AcDbEntity
  8
background
 62
7
100
AcDbSpline
 70
8
 71
3
 72
8
 73
4
 74
0
 40
0
 40
0
 40
0
 40
0
 40
1
 40
1
 40
1
 40
1
 10
-140.482436
 20
155.053321
 30
0.0
 10
-142.140699
 20
152.814896
 30
0.0
 10
-143.249631
 20
149.058717
 30
0.0
 10
-143.852567
 20
143.638024
 30
0.0
  0
SPLINE
  5
1bd
100
AcDbEntity
  8
background
 62
7
100
AcDbSpline
 70
8
 71
3
 72
8
 73
4
 74
0
 40
0
 40
0
 40
0
 40
0
 40
1
 40
1
 40
1
 40
1
 10
-143.852567
 20
143.638024
 30
0.0
 10
-144.074713
 20
141.640835
 30
0.0
 10
-144.322498
 20
137.441982
 30
0.0
 10
-144.232114
 20
137.206445
 30
0.0
  0
SPLINE
  5
1be
100
AcDbEntity
  8
background
 62
7
100
AcDbSpline
 70
8
 71
3
 72
8
 73
4
 74
0
 40
0
 40
0
 40
0
 40
0
 40
1
 40
1
 40
1
 40
1
 10
-144.232114
 20
137.206445
 30
0.0
 10
-144.196681
 20
137.114105
 30
0.0
 10
-144.062611
 20
137.038559
 30
0.0
 10
-143.934177
 20
137.038559
 30
0.0
  0
SPLINE
  5
1bf
100
AcDbEntity
  8
background
 62
7
100
AcDbSpline
 70
8
 71
3
 72
8
 73
4
 74
0
 40
0
 40
0
 40
0
 40
0
 40
1
 40
1
 40
1
 40
1
 10
-143.934177
 20
137.038559
 30
0.0
 10
-143.441629
 20
137.038559
 30
0.0
 10
-140.882587
 20
136.303541
 30
0.0
 10
-139.381637
 20
135.730959
 30
0.0
  0
SPLINE
  5
1c0
100
AcDbEntity
  8
background
 62
7
100
AcDbSpline
 70
8
 71
3
 72
8
 73
4
 74
0
 40
0
 40
0
 40
0
 40
0
 40
1
 40
1
 40
1
 40
1
 10
-139.381637
 20
135.730959
 30
0.0
 10
-135.407040
 20
134.214740
 30
0.0
 10
-129.992990
 20
130.870732
 30
0.0
 10
-126.446349
 20
127.741434
 30
0.0
  0
LWPOLYLINE
  5
1c1
100
AcDbEntity
  8
background
 62
7
100
AcDbPolyline
 90
3
 70
0
 10
-103.172339
 20
132.127763
 30
0.0
 10
-100.532703
 20
132.198674
 30
0.0
 10
-100.065001
 20
133.518706
 30
0.0
  0
SPLINE
  5
1c2
100
AcDbEntity
  8
background
 62
7
100
AcDbSpline
 70
8
 71
3
 72
8
 73
4
 74
0
 40
0
 40
0
 40
0
 40
0
 40
1
 40
1
 40
1
 40
1
 10
-123.889799
 20
127.359632
 30
0.0
 10
-123.103013
 20
127.696082
 30
0.0
 10
-121.683396
 20
128.268598
 30
0.0
 10
-120.735095
 20
128.631892
 30
0.0
  0
LWPOLYLINE
  5
1c3
100
AcDbEntity
  8
background
 62
7
100
AcDbPolyline
 90
3
 70
0
 10
-126.446349
 20
127.741434
 30
0.0
 10
-125.320317
 20
126.747905
 30
0.0
 10
-123.889799
 20
127.359632
 30
0.0
  0
SPLINE
  5
1c4
100
AcDbEntity
  8
background
 62
7
100
AcDbSpline
 70
8
 71
3
 72
8
 73
4
 74
0
 40
0
 40
0
 40
0
 40
0
 40
1
 40
1
 40
1
 40
1
 10
-178.119932
 20
118.653332
 30
0.0
 10
-176.762381
 20
119.055954
 30
0.0
 10
-175.092463
 20
119.394727
 30
0.0
 10
-173.600531
 20
119.570172
 30
0.0
  0
SPLINE
  5
1c5
100
AcDbEntity
  8
background
 62
7
100
AcDbSpline
 70
8
 71
3
 72
8
 73
4
 74
0
 40
0
 40
0
 40
0
 40
0
 40
1
 40
1
 40
1
 40
1
 10
-173.600531
 20
119.570172
 30
0.0
 10
-172.314920
 20
119.721352
 30
0.0
 10
-166.007942
 20
119.643033
 30
0.0
 10
-164.867508
 20
119.461724
 30
0.0
  0
LWPOLYLINE
  5
1c6
100
AcDbEntity
  8
background
 62
7
100
AcDbPolyline
 90
1
 70
1
 10
-120.735095
 20
128.631892
 30
0.0
  0
SPLINE
  5
1c7
100
AcDbEntity
  8
background
 62
7
100
AcDbSpline
 70
8
 71
3
 72
8
 73
4
 74
0
 40
0
 40
0
 40
0
 40
0
 40
1
 40
1
 40
1
 40
1
 10
-164.015470
 20
119.862275
 30
0.0
 10
-162.712371
 20
122.902295
 30
0.0
 10
-158.570724
 20
128.181457
 30
0.0
 10
-154.924744
 20
131.449823
 30
0.0
  0
SPLINE
  5
1c8
100
AcDbEntity
  8
background
 62
7
100
AcDbSpline
 70
8
 71
3
 72
8
 73
4
 74
0
 40
0
 40
0
 40
0
 40
0
 40
1
 40
1
 40
1
 40
1
 10
-154.924744
 20
131.449823
 30
0.0
 10
-152.092948
 20
133.988334
 30
0.0
 10
-148.853155
 20
136.031245
 30
0.0
 10
-146.419610
 20
136.812893
 30
0.0
  0
LWPOLYLINE
  5
1c9
100
AcDbEntity
  8
background
 62
7
100
AcDbPolyline
 90
3
 70
0
 10
-164.867508
 20
119.461724
 30
0.0
 10
-164.230577
 20
119.360463
 30
0.0
 10
-164.015470
 20
119.862275
 30
0.0
  0
SPLINE
  5
1ca
100
AcDbEntity
  8
background
 62
7
100
AcDbSpline
 70
8
 71
3
 72
8
 73
4
 74
0
 40
0
 40
0
 40
0
 40
0
 40
1
 40
1
 40
1
 40
1
 10
-145.327087
 20
138.366341
 30
0.0
 10
-145.091531
 20
141.909644
 30
0.0
 10
-144.949590
 20
143.466550
 30
0.0
 10
-144.694704
 20
145.302758
 30
0.0
  0
SPLINE
  5
1cb
100
AcDbEntity
  8
background
 62
7
100
AcDbSpline
 70
8
 71
3
 72
8
 73
4
 74
0
 40
0
 40
0
 40
0
 40
0
 40
1
 40
1
 40
1
 40
1
 10
-144.694704
 20
145.302758
 30
0.0
 10
-144.161367
 20
149.144897
 30
0.0
 10
-143.579678
 20
151.377817
 30
0.0
 10
-142.545043
 20
153.554615
 30
0.0
  0
SPLINE
  5
1cc
100
AcDbEntity
  8
background
 62
7
100
AcDbSpline
 70
8
 71
3
 72
8
 73
4
 74
0
 40
0
 40
0
 40
0
 40
0
 40
1
 40
1
 40
1
 40
1
 10
-142.545043
 20
153.554615
 30
0.0
 10
-142.190793
 20
154.299933
 30
0.0
 10
-141.900950
 20
154.961616
 30
0.0
 10
-141.900950
 20
155.025029
 30
0.0
  0
SPLINE
  5
1cd
100
AcDbEntity
  8
background
 62
7
100
AcDbSpline
 70
8
 71
3
 72
8
 73
4
 74
0
 40
0
 40
0
 40
0
 40
0
 40
1
 40
1
 40
1
 40
1
 10
-141.900950
 20
155.025029
 30
0.0
 10
-141.900950
 20
155.096244
 30
0.0
 10
-142.503308
 20
155.120835
 30
0.0
 10
-143.476498
 20
155.089347
 30
0.0
  0
SPLINE
  5
1ce
100
AcDbEntity
  8
background
 62
7
100
AcDbSpline
 70
8
 71
3
 72
8
 73
4
 74
0
 40
0
 40
0
 40
0
 40
0
 40
1
 40
1
 40
1
 40
1
 10
-143.476498
 20
155.089347
 30
0.0
 10
-144.919726
 20
155.042653
 30
0.0
 10
-145.161897
 20
155.000542
 30
0.0
 10
-146.360049
 20
154.587940
 30
0.0
  0
SPLINE
  5
1cf
100
AcDbEntity
  8
background
 62
7
100
AcDbSpline
 70
8
 71
3
 72
8
 73
4
 74
0
 40
0
 40
0
 40
0
 40
0
 40
1
 40
1
 40
1
 40
1
 10
-146.360049
 20
154.587940
 30
0.0
 10
-153.493065
 20
152.131575
 30
0.0
 10
-161.055127
 20
146.874672
 30
0.0
 10
-167.157530
 20
140.130205
 30
0.0
  0
SPLINE
  5
1d0
100
AcDbEntity
  8
background
 62
7
100
AcDbSpline
 70
8
 71
3
 72
8
 73
4
 74
0
 40
0
 40
0
 40
0
 40
0
 40
1
 40
1
 40
1
 40
1
 10
-167.157530
 20
140.130205
 30
0.0
 10
-171.926300
 20
134.859681
 30
0.0
 10
-175.072593
 20
130.716367
 30
0.0
 10
-177.204023
 20
126.900091
 30
0.0
  0
SPLINE
  5
1d1
100
AcDbEntity
  8
background
 62
7
100
AcDbSpline
 70
8
 71
3
 72
8
 73
4
 74
0
 40
0
 40
0
 40
0
 40
0
 40
1
 40
1
 40
1
 40
1
 10
-177.204023
 20
126.900091
 30
0.0
 10
-178.642166
 20
124.325168
 30
0.0
 10
-179.554476
 20
121.540736
 30
0.0
 10
-179.683169
 20
119.333674
 30
0.0
  0
LWPOLYLINE
  5
1d2
100
AcDbEntity
  8
background
 62
7
100
AcDbPolyline
 90
3
 70
0
 10
-146.419610
 20
136.812893
 30
0.0
 10
-145.408774
 20
137.137569
 30
0.0
 10
-145.327087
 20
138.366341
 30
0.0
  0
SPLINE
  5
1d3
100
AcDbEntity
  8
background
 62
7
100
AcDbSpline
 70
8
 71
3
 72
8
 73
4
 74
0
 40
0
 40
0
 40
0
 40
0
 40
1
 40
1
 40
1
 40
1
 10
-179.463671
 20
118.277926
 30
0.0
 10
-179.307117
 20
118.311639
 30
0.0
 10
-178.702412
 20
118.480570
 30
0.0
 10
-178.119932
 20
118.653332
 30
0.0
  0
LWPOLYLINE
  5
1d4
100
AcDbEntity
  8
background
 62
7
100
AcDbPolyline
 90
3
 70
0
 10
-179.683169
 20
119.333674
 30
0.0
 10
-179.748310
 20
118.216630
 30
0.0
 10
-179.463671
 20
118.277926
 30
0.0
  0
SPLINE
  5
1d5
100
AcDbEntity
  8
background
 62
7
100
AcDbSpline
 70
8
 71
3
 72
8
 73
4
 74
0
 40
0
 40
0
 40
0
 40
0
 40
1
 40
1
 40
1
 40
1
 10
-62.135496
 20
106.815128
 30
0.0
 10
-62.211686
 20
107.369581
 30
0.0
 10
-62.304361
 20
107.957070
 30
0.0
 10
-62.416055
 20
108.604690
 30
0.0
  0
SPLINE
  5
1d6
100
AcDbEntity
  8
background
 62
7
100
AcDbSpline
 70
8
 71
3
 72
8
 73
4
 74
0
 40
0
 40
0
 40
0
 40
0
 40
1
 40
1
 40
1
 40
1
 10
-62.416055
 20
108.604690
 30
0.0
 10
-62.943227
 20
111.661371
 30
0.0
 10
-64.203154
 20
116.197560
 30
0.0
 10
-65.450524
 20
119.529873
 30
0.0
  0
SPLINE
  5
1d7
100
AcDbEntity
  8
background
 62
7
100
AcDbSpline
 70
8
 71
3
 72
8
 73
4
 74
0
 40
0
 40
0
 40
0
 40
0
 40
1
 40
1
 40
1
 40
1
 10
-65.450524
 20
119.529873
 30
0.0
 10
-67.890567
 20
126.048418
 30
0.0
 10
-72.008870
 20
132.993360
 30
0.0
 10
-75.257319
 20
136.067689
 30
0.0
  0
LWPOLYLINE
  5
1d8
100
AcDbEntity
  8
background
 62
7
100
AcDbPolyline
 90
1
 70
1
 10
-178.119932
 20
118.653332
 30
0.0
  0
SPLINE
  5
1d9
100
AcDbEntity
  8
background
 62
7
100
AcDbSpline
 70
8
 71
3
 72
8
 73
4
 74
0
 40
0
 40
0
 40
0
 40
0
 40
1
 40
1
 40
1
 40
1
 10
-76.623849
 20
135.597553
 30
0.0
 10
-74.060521
 20
132.433084
 30
0.0
 10
-71.850687
 20
128.070951
 30
0.0
 10
-71.089025
 20
124.671995
 30
0.0
  0
SPLINE
  5
1da
100
AcDbEntity
  8
background
 62
7
100
AcDbSpline
 70
8
 71
3
 72
8
 73
4
 74
0
 40
0
 40
0
 40
0
 40
0
 40
1
 40
1
 40
1
 40
1
 10
-71.089025
 20
124.671995
 30
0.0
 10
-70.787805
 20
123.327758
 30
0.0
 10
-70.715293
 20
119.525243
 30
0.0
 10
-70.957821
 20
117.791100
 30
0.0
  0
LWPOLYLINE
  5
1db
100
AcDbEntity
  8
background
 62
7
100
AcDbPolyline
 90
5
 70
0
 10
-75.257319
 20
136.067689
 30
0.0
 10
-76.423523
 20
137.171372
 30
0.0
 10
-76.831023
 20
136.763871
 30
0.0
 10
-77.238513
 20
136.356370
 30
0.0
 10
-76.623849
 20
135.597553
 30
0.0
  0
SPLINE
  5
1dc
100
AcDbEntity
  8
background
 62
7
100
AcDbSpline
 70
8
 71
3
 72
8
 73
4
 74
0
 40
0
 40
0
 40
0
 40
0
 40
1
 40
1
 40
1
 40
1
 10
-83.811417
 20
113.100784
 30
0.0
 10
-83.994985
 20
114.213582
 30
0.0
 10
-84.211131
 20
114.740534
 30
0.0
 10
-84.672051
 20
115.575432
 30
0.0
  0
SPLINE
  5
1dd
100
AcDbEntity
  8
background
 62
7
100
AcDbSpline
 70
8
 71
3
 72
8
 73
4
 74
0
 40
0
 40
0
 40
0
 40
0
 40
1
 40
1
 40
1
 40
1
 10
-84.672051
 20
115.575432
 30
0.0
 10
-86.361479
 20
118.635629
 30
0.0
 10
-88.741279
 20
121.698374
 30
0.0
 10
-91.836634
 20
124.796076
 30
0.0
  0
SPLINE
  5
1de
100
AcDbEntity
  8
background
 62
7
100
AcDbSpline
 70
8
 71
3
 72
8
 73
4
 74
0
 40
0
 40
0
 40
0
 40
0
 40
1
 40
1
 40
1
 40
1
 10
-91.836634
 20
124.796076
 30
0.0
 10
-94.046577
 20
127.007694
 30
0.0
 10
-95.789589
 20
128.490009
 30
0.0
 10
-98.172257
 20
130.184096
 30
0.0
  0
LWPOLYLINE
  5
1df
100
AcDbEntity
  8
background
 62
7
100
AcDbPolyline
 90
3
 70
0
 10
-70.957821
 20
117.791100
 30
0.0
 10
-71.146839
 20
116.439487
 30
0.0
 10
-70.872284
 20
116.026123
 30
0.0
  0
SPLINE
  5
1e0
100
AcDbEntity
  8
background
 62
7
100
AcDbSpline
 70
8
 71
3
 72
8
 73
4
 74
0
 40
0
 40
0
 40
0
 40
0
 40
1
 40
1
 40
1
 40
1
 10
-101.935026
 20
131.093096
 30
0.0
 10
-108.939872
 20
131.093096
 30
0.0
 10
-115.741572
 20
129.639055
 30
0.0
 10
-122.994372
 20
126.591105
 30
0.0
  0
SPLINE
  5
1e1
100
AcDbEntity
  8
background
 62
7
100
AcDbSpline
 70
8
 71
3
 72
8
 73
4
 74
0
 40
0
 40
0
 40
0
 40
0
 40
1
 40
1
 40
1
 40
1
 10
-122.994372
 20
126.591105
 30
0.0
 10
-124.269675
 20
126.055165
 30
0.0
 10
-125.370368
 20
125.578023
 30
0.0
 10
-125.440358
 20
125.530787
 30
0.0
  0
SPLINE
  5
1e2
100
AcDbEntity
  8
background
 62
7
100
AcDbSpline
 70
8
 71
3
 72
8
 73
4
 74
0
 40
0
 40
0
 40
0
 40
0
 40
1
 40
1
 40
1
 40
1
 10
-125.440358
 20
125.530787
 30
0.0
 10
-125.544829
 20
125.460284
 30
0.0
 10
-125.953073
 20
124.023932
 30
0.0
 10
-127.027231
 20
119.910627
 30
0.0
  0
SPLINE
  5
1e3
100
AcDbEntity
  8
background
 62
7
100
AcDbSpline
 70
8
 71
3
 72
8
 73
4
 74
0
 40
0
 40
0
 40
0
 40
0
 40
1
 40
1
 40
1
 40
1
 10
-160.589886
 20
102.594690
 30
0.0
 10
-161.796288
 20
104.572112
 30
0.0
 10
-162.796905
 20
106.686466
 30
0.0
 10
-163.464767
 20
108.714133
 30
0.0
  0
SPLINE
  5
1e4
100
AcDbEntity
  8
background
 62
7
100
AcDbSpline
 70
8
 71
3
 72
8
 73
4
 74
0
 40
0
 40
0
 40
0
 40
0
 40
1
 40
1
 40
1
 40
1
 10
-163.464767
 20
108.714133
 30
0.0
 10
-164.427665
 20
111.637506
 30
0.0
 10
-164.552310
 20
112.432666
 30
0.0
 10
-164.552786
 20
115.654966
 30
0.0
  0
LWPOLYLINE
  5
1e5
100
AcDbEntity
  8
background
 62
7
100
AcDbPolyline
 90
3
 70
0
 10
-98.172257
 20
130.184096
 30
0.0
 10
-99.450731
 20
131.093096
 30
0.0
 10
-101.935026
 20
131.093096
 30
0.0
  0
SPLINE
  5
1e6
100
AcDbEntity
  8
background
 62
7
100
AcDbSpline
 70
8
 71
3
 72
8
 73
4
 74
0
 40
0
 40
0
 40
0
 40
0
 40
1
 40
1
 40
1
 40
1
 10
-165.028428
 20
118.416866
 30
0.0
 10
-166.182302
 20
118.577855
 30
0.0
 10
-172.316349
 20
118.635873
 30
0.0
 10
-173.530443
 20
118.497279
 30
0.0
  0
SPLINE
  5
1e7
100
AcDbEntity
  8
background
 62
7
100
AcDbSpline
 70
8
 71
3
 72
8
 73
4
 74
0
 40
0
 40
0
 40
0
 40
0
 40
1
 40
1
 40
1
 40
1
 10
-173.530443
 20
118.497279
 30
0.0
 10
-176.341879
 20
118.176334
 30
0.0
 10
-179.729074
 20
117.235356
 30
0.0
 10
-180.495625
 20
116.562317
 30
0.0
  0
SPLINE
  5
1e8
100
AcDbEntity
  8
background
 62
7
100
AcDbSpline
 70
8
 71
3
 72
8
 73
4
 74
0
 40
0
 40
0
 40
0
 40
0
 40
1
 40
1
 40
1
 40
1
 10
-180.495625
 20
116.562317
 30
0.0
 10
-182.167130
 20
115.094700
 30
0.0
 10
-183.681023
 20
109.856148
 30
0.0
 10
-184.465883
 20
102.823899
 30
0.0
  0
SPLINE
  5
1e9
100
AcDbEntity
  8
background
 62
7
100
AcDbSpline
 70
8
 71
3
 72
8
 73
4
 74
0
 40
0
 40
0
 40
0
 40
0
 40
1
 40
1
 40
1
 40
1
 10
-184.465883
 20
102.823899
 30
0.0
 10
-185.065773
 20
97.448859
 30
0.0
 10
-184.521975
 20
90.468323
 30
0.0
 10
-182.925347
 20
83.048232
 30
0.0
  0
SPLINE
  5
1ea
100
AcDbEntity
  8
background
 62
7
100
AcDbSpline
 70
8
 71
3
 72
8
 73
4
 74
0
 40
0
 40
0
 40
0
 40
0
 40
1
 40
1
 40
1
 40
1
 10
-182.925347
 20
83.048232
 30
0.0
 10
-181.940303
 20
78.470527
 30
0.0
 10
-181.137928
 20
76.211255
 30
0.0
 10
-180.133014
 20
75.185802
 30
0.0
  0
SPLINE
  5
1eb
100
AcDbEntity
  8
background
 62
7
100
AcDbSpline
 70
8
 71
3
 72
8
 73
4
 74
0
 40
0
 40
0
 40
0
 40
0
 40
1
 40
1
 40
1
 40
1
 10
-180.133014
 20
75.185802
 30
0.0
 10
-179.841073
 20
74.887902
 30
0.0
 10
-179.511838
 20
74.622115
 30
0.0
 10
-179.141363
 20
74.386906
 30
0.0
  0
SPLINE
  5
1ec
100
AcDbEntity
  8
background
 62
7
100
AcDbSpline
 70
8
 71
3
 72
8
 73
4
 74
0
 40
0
 40
0
 40
0
 40
0
 40
1
 40
1
 40
1
 40
1
 10
-157.055307
 20
97.293589
 30
0.0
 10
-157.030251
 20
97.327839
 30
0.0
 10
-157.007941
 20
97.355570
 30
0.0
 10
-156.988600
 20
97.376364
 30
0.0
  0
SPLINE
  5
1ed
100
AcDbEntity
  8
background
 62
7
100
AcDbSpline
 70
8
 71
3
 72
8
 73
4
 74
0
 40
0
 40
0
 40
0
 40
0
 40
1
 40
1
 40
1
 40
1
 10
-156.988600
 20
97.376364
 30
0.0
 10
-156.900062
 20
97.471547
 30
0.0
 10
-156.864854
 20
97.530475
 30
0.0
 10
-156.979101
 20
97.714160
 30
0.0
  0
SPLINE
  5
1ee
100
AcDbEntity
  8
background
 62
7
100
AcDbSpline
 70
8
 71
3
 72
8
 73
4
 74
0
 40
0
 40
0
 40
0
 40
0
 40
1
 40
1
 40
1
 40
1
 10
-180.815578
 20
70.750007
 30
0.0
 10
-183.956939
 20
77.521345
 30
0.0
 10
-185.890035
 20
84.852566
 30
0.0
 10
-186.487300
 20
92.472587
 30
0.0
  0
SPLINE
  5
1ef
100
AcDbEntity
  8
background
 62
7
100
AcDbSpline
 70
8
 71
3
 72
8
 73
4
 74
0
 40
0
 40
0
 40
0
 40
0
 40
1
 40
1
 40
1
 40
1
 10
-186.487300
 20
92.472587
 30
0.0
 10
-186.651739
 20
94.570455
 30
0.0
 10
-186.651606
 20
100.314506
 30
0.0
 10
-186.487062
 20
102.413562
 30
0.0
  0
SPLINE
  5
1f0
100
AcDbEntity
  8
background
 62
7
100
AcDbSpline
 70
8
 71
3
 72
8
 73
4
 74
0
 40
0
 40
0
 40
0
 40
0
 40
1
 40
1
 40
1
 40
1
 10
-186.487062
 20
102.413562
 30
0.0
 10
-185.478999
 20
115.274968
 30
0.0
 10
-180.675066
 20
127.330756
 30
0.0
 10
-172.571222
 20
137.336255
 30
0.0
  0
SPLINE
  5
1f1
100
AcDbEntity
  8
background
 62
7
100
AcDbSpline
 70
8
 71
3
 72
8
 73
4
 74
0
 40
0
 40
0
 40
0
 40
0
 40
1
 40
1
 40
1
 40
1
 10
-172.571222
 20
137.336255
 30
0.0
 10
-162.391167
 20
149.905196
 30
0.0
 10
-147.801714
 20
158.153576
 30
0.0
 10
-131.991595
 20
160.278591
 30
0.0
  0
SPLINE
  5
1f2
100
AcDbEntity
  8
background
 62
7
100
AcDbSpline
 70
8
 71
3
 72
8
 73
4
 74
0
 40
0
 40
0
 40
0
 40
0
 40
1
 40
1
 40
1
 40
1
 10
-131.991595
 20
160.278591
 30
0.0
 10
-128.781265
 20
160.710086
 30
0.0
 10
-126.997547
 20
160.820423
 30
0.0
 10
-123.232190
 20
160.820423
 30
0.0
  0
SPLINE
  5
1f3
100
AcDbEntity
  8
background
 62
7
100
AcDbSpline
 70
8
 71
3
 72
8
 73
4
 74
0
 40
0
 40
0
 40
0
 40
0
 40
1
 40
1
 40
1
 40
1
 10
-123.232190
 20
160.820423
 30
0.0
 10
-119.466834
 20
160.820423
 30
0.0
 10
-117.683116
 20
160.710086
 30
0.0
 10
-114.472786
 20
160.278591
 30
0.0
  0
SPLINE
  5
1f4
100
AcDbEntity
  8
background
 62
7
100
AcDbSpline
 70
8
 71
3
 72
8
 73
4
 74
0
 40
0
 40
0
 40
0
 40
0
 40
1
 40
1
 40
1
 40
1
 10
-114.472786
 20
160.278591
 30
0.0
 10
-103.357476
 20
158.784597
 30
0.0
 10
-92.600830
 20
154.182678
 30
0.0
 10
-83.813758
 20
147.162012
 30
0.0
  0
SPLINE
  5
1f5
100
AcDbEntity
  8
background
 62
7
100
AcDbSpline
 70
8
 71
3
 72
8
 73
4
 74
0
 40
0
 40
0
 40
0
 40
0
 40
1
 40
1
 40
1
 40
1
 10
-83.813758
 20
147.162012
 30
0.0
 10
-69.876757
 20
136.026676
 30
0.0
 10
-61.364241
 20
120.054822
 30
0.0
 10
-59.979293
 20
102.441915
 30
0.0
  0
SPLINE
  5
1f6
100
AcDbEntity
  8
background
 62
7
100
AcDbSpline
 70
8
 71
3
 72
8
 73
4
 74
0
 40
0
 40
0
 40
0
 40
0
 40
1
 40
1
 40
1
 40
1
 10
-59.979293
 20
102.441915
 30
0.0
 10
-59.954872
 20
102.131222
 30
0.0
 10
-59.934115
 20
101.733813
 30
0.0
 10
-59.917050
 20
101.275830
 30
0.0
  0
LWPOLYLINE
  5
1f7
100
AcDbEntity
  8
background
 62
7
100
AcDbPolyline
 90
3
 70
0
 10
-164.552786
 20
115.654966
 30
0.0
 10
-164.552786
 20
118.350504
 30
0.0
 10
-165.028428
 20
118.416866
 30
0.0
  0
SPLINE
  5
1f8
100
AcDbEntity
  8
background
 62
7
100
AcDbSpline
 70
8
 71
3
 72
8
 73
4
 74
0
 40
0
 40
0
 40
0
 40
0
 40
1
 40
1
 40
1
 40
1
 10
-179.141363
 20
74.386906
 30
0.0
 10
-179.141363
 20
74.386906
 30
0.0
 10
-178.129184
 20
76.659213
 30
0.0
 10
-176.402230
 20
78.367395
 30
0.0
  0
SPLINE
  5
1f9
100
AcDbEntity
  8
background
 62
7
100
AcDbSpline
 70
8
 71
3
 72
8
 73
4
 74
0
 40
0
 40
0
 40
0
 40
0
 40
1
 40
1
 40
1
 40
1
 10
-176.402230
 20
78.367395
 30
0.0
 10
-174.675279
 20
80.075574
 30
0.0
 10
-173.361292
 20
81.558503
 30
0.0
 10
-170.414212
 20
82.778632
 30
0.0
  0
SPLINE
  5
1fa
100
AcDbEntity
  8
background
 62
7
100
AcDbSpline
 70
8
 71
3
 72
8
 73
4
 74
0
 40
0
 40
0
 40
0
 40
0
 40
1
 40
1
 40
1
 40
1
 10
-170.414212
 20
82.778632
 30
0.0
 10
-167.467129
 20
83.998760
 30
0.0
 10
-165.624190
 20
84.805549
 30
0.0
 10
-164.144621
 20
84.918550
 30
0.0
  0
SPLINE
  5
1fb
100
AcDbEntity
  8
background
 62
7
100
AcDbSpline
 70
8
 71
3
 72
8
 73
4
 74
0
 40
0
 40
0
 40
0
 40
0
 40
1
 40
1
 40
1
 40
1
 10
-164.144621
 20
84.918550
 30
0.0
 10
-162.665053
 20
85.031554
 30
0.0
 10
-162.665053
 20
85.031554
 30
0.0
 10
-162.665053
 20
85.031554
 30
0.0
  0
LWPOLYLINE
  5
1fc
100
AcDbEntity
  8
background
 62
7
100
AcDbPolyline
 90
2
 70
0
 10
-180.815578
 20
70.750007
 30
0.0
 10
-179.141363
 20
74.386906
 30
0.0
  0
SPLINE
  5
1fd
100
AcDbEntity
  8
background
 62
7
100
AcDbSpline
 70
8
 71
3
 72
8
 73
4
 74
0
 40
0
 40
0
 40
0
 40
0
 40
1
 40
1
 40
1
 40
1
 10
-160.948886
 20
101.524133
 30
0.0
 10
-160.948886
 20
101.524133
 30
0.0
 10
-159.356097
 20
107.098902
 30
0.0
 10
-158.453513
 20
108.797878
 30
0.0
  0
SPLINE
  5
1fe
100
AcDbEntity
  8
background
 62
7
100
AcDbSpline
 70
8
 71
3
 72
8
 73
4
 74
0
 40
0
 40
0
 40
0
 40
0
 40
1
 40
1
 40
1
 40
1
 10
-158.453513
 20
108.797878
 30
0.0
 10
-157.550932
 20
110.496858
 30
0.0
 10
-155.958140
 20
112.992231
 30
0.0
 10
-154.949374
 20
114.213370
 30
0.0
  0
SPLINE
  5
1ff
100
AcDbEntity
  8
background
 62
7
100
AcDbSpline
 70
8
 71
3
 72
8
 73
4
 74
0
 40
0
 40
0
 40
0
 40
0
 40
1
 40
1
 40
1
 40
1
 10
-154.949374
 20
114.213370
 30
0.0
 10
-153.940605
 20
115.434510
 30
0.0
 10
-152.613281
 20
117.398951
 30
0.0
 10
-150.277187
 20
118.248441
 30
0.0
  0
SPLINE
  5
200
100
AcDbEntity
  8
background
 62
7
100
AcDbSpline
 70
8
 71
3
 72
8
 73
4
 74
0
 40
0
 40
0
 40
0
 40
0
 40
1
 40
1
 40
1
 40
1
 10
-150.277187
 20
118.248441
 30
0.0
 10
-147.941093
 20
119.097928
 30
0.0
 10
-147.516347
 20
118.832463
 30
0.0
 10
-147.516347
 20
118.832463
 30
0.0
  0
SPLINE
  5
201
100
AcDbEntity
  8
background
 62
7
100
AcDbSpline
 70
8
 71
3
 72
8
 73
4
 74
0
 40
0
 40
0
 40
0
 40
0
 40
1
 40
1
 40
1
 40
1
 10
-147.516347
 20
118.832463
 30
0.0
 10
-147.516347
 20
118.832463
 30
0.0
 10
-146.507581
 20
119.204116
 30
0.0
 10
-142.631790
 20
117.452045
 30
0.0
  0
SPLINE
  5
202
100
AcDbEntity
  8
background
 62
7
100
AcDbSpline
 70
8
 71
3
 72
8
 73
4
 74
0
 40
0
 40
0
 40
0
 40
0
 40
1
 40
1
 40
1
 40
1
 10
-142.631790
 20
117.452045
 30
0.0
 10
-138.755998
 20
115.699974
 30
0.0
 10
-137.906509
 20
115.912347
 30
0.0
 10
-136.897740
 20
114.478835
 30
0.0
  0
SPLINE
  5
203
100
AcDbEntity
  8
background
 62
7
100
AcDbSpline
 70
8
 71
3
 72
8
 73
4
 74
0
 40
0
 40
0
 40
0
 40
0
 40
1
 40
1
 40
1
 40
1
 10
-136.897740
 20
114.478835
 30
0.0
 10
-135.888973
 20
113.045322
 30
0.0
 10
-135.942067
 20
112.992231
 30
0.0
 10
-135.942067
 20
112.992231
 30
0.0
  0
SPLINE
  5
204
100
AcDbEntity
  8
background
 62
7
100
AcDbSpline
 70
8
 71
3
 72
8
 73
4
 74
0
 40
0
 40
0
 40
0
 40
0
 40
1
 40
1
 40
1
 40
1
 10
-135.942067
 20
112.992231
 30
0.0
 10
-135.942067
 20
112.992231
 30
0.0
 10
-135.570415
 20
112.355114
 30
0.0
 10
-134.827113
 20
112.992231
 30
0.0
  0
SPLINE
  5
205
100
AcDbEntity
  8
background
 62
7
100
AcDbSpline
 70
8
 71
3
 72
8
 73
4
 74
0
 40
0
 40
0
 40
0
 40
0
 40
1
 40
1
 40
1
 40
1
 10
-134.827113
 20
112.992231
 30
0.0
 10
-134.083809
 20
113.629345
 30
0.0
 10
-130.951322
 20
116.708743
 30
0.0
 10
-130.526576
 20
117.186580
 30
0.0
  0
SPLINE
  5
206
100
AcDbEntity
  8
background
 62
7
100
AcDbSpline
 70
8
 71
3
 72
8
 73
4
 74
0
 40
0
 40
0
 40
0
 40
0
 40
1
 40
1
 40
1
 40
1
 10
-130.526576
 20
117.186580
 30
0.0
 10
-130.101832
 20
117.664418
 30
0.0
 10
-127.818832
 20
119.602314
 30
0.0
 10
-126.836609
 20
119.681953
 30
0.0
  0
SPLINE
  5
207
100
AcDbEntity
  8
background
 62
7
100
AcDbSpline
 70
8
 71
3
 72
8
 73
4
 74
0
 40
0
 40
0
 40
0
 40
0
 40
1
 40
1
 40
1
 40
1
 10
-126.836609
 20
119.681953
 30
0.0
 10
-125.854389
 20
119.761593
 30
0.0
 10
-125.588924
 20
120.027057
 30
0.0
 10
-122.828087
 20
119.257207
 30
0.0
  0
SPLINE
  5
208
100
AcDbEntity
  8
background
 62
7
100
AcDbSpline
 70
8
 71
3
 72
8
 73
4
 74
0
 40
0
 40
0
 40
0
 40
0
 40
1
 40
1
 40
1
 40
1
 10
-122.828087
 20
119.257207
 30
0.0
 10
-120.067247
 20
118.487359
 30
0.0
 10
-116.456920
 20
117.505139
 30
0.0
 10
-115.103050
 20
116.655649
 30
0.0
  0
SPLINE
  5
209
100
AcDbEntity
  8
background
 62
7
100
AcDbSpline
 70
8
 71
3
 72
8
 73
4
 74
0
 40
0
 40
0
 40
0
 40
0
 40
1
 40
1
 40
1
 40
1
 10
-115.103050
 20
116.655649
 30
0.0
 10
-113.749177
 20
115.806162
 30
0.0
 10
-110.112305
 20
113.151510
 30
0.0
 10
-109.395548
 20
111.797637
 30
0.0
  0
SPLINE
  5
20a
100
AcDbEntity
  8
background
 62
7
100
AcDbSpline
 70
8
 71
3
 72
8
 73
4
 74
0
 40
0
 40
0
 40
0
 40
0
 40
1
 40
1
 40
1
 40
1
 10
-109.395548
 20
111.797637
 30
0.0
 10
-108.678792
 20
110.443764
 30
0.0
 10
-107.298374
 20
108.665148
 30
0.0
 10
-106.820536
 20
105.798123
 30
0.0
  0
SPLINE
  5
20b
100
AcDbEntity
  8
background
 62
7
100
AcDbSpline
 70
8
 71
3
 72
8
 73
4
 74
0
 40
0
 40
0
 40
0
 40
0
 40
1
 40
1
 40
1
 40
1
 10
-106.820536
 20
105.798123
 30
0.0
 10
-106.342699
 20
102.931100
 30
0.0
 10
-106.250364
 20
103.441585
 30
0.0
 10
-106.250364
 20
103.441585
 30
0.0
  0
SPLINE
  5
20c
100
AcDbEntity
  8
background
 62
7
100
AcDbSpline
 70
8
 71
3
 72
8
 73
4
 74
0
 40
0
 40
0
 40
0
 40
0
 40
1
 40
1
 40
1
 40
1
 10
-106.250364
 20
103.441585
 30
0.0
 10
-106.250364
 20
103.441585
 30
0.0
 10
-103.953511
 20
108.505868
 30
0.0
 10
-103.449128
 20
109.275716
 30
0.0
  0
SPLINE
  5
20d
100
AcDbEntity
  8
background
 62
7
100
AcDbSpline
 70
8
 71
3
 72
8
 73
4
 74
0
 40
0
 40
0
 40
0
 40
0
 40
1
 40
1
 40
1
 40
1
 10
-103.449128
 20
109.275716
 30
0.0
 10
-102.944742
 20
110.045566
 30
0.0
 10
-100.582103
 20
113.708987
 30
0.0
 10
-98.219464
 20
114.930126
 30
0.0
  0
SPLINE
  5
20e
100
AcDbEntity
  8
background
 62
7
100
AcDbSpline
 70
8
 71
3
 72
8
 73
4
 74
0
 40
0
 40
0
 40
0
 40
0
 40
1
 40
1
 40
1
 40
1
 10
-98.219464
 20
114.930126
 30
0.0
 10
-95.856822
 20
116.151266
 30
0.0
 10
-95.086974
 20
116.576009
 30
0.0
 10
-95.086974
 20
116.576009
 30
0.0
  0
SPLINE
  5
20f
100
AcDbEntity
  8
background
 62
7
100
AcDbSpline
 70
8
 71
3
 72
8
 73
4
 74
0
 40
0
 40
0
 40
0
 40
0
 40
1
 40
1
 40
1
 40
1
 10
-95.086974
 20
116.576009
 30
0.0
 10
-95.086974
 20
116.576009
 30
0.0
 10
-94.396764
 20
116.735289
 30
0.0
 10
-94.025111
 20
116.788382
 30
0.0
  0
SPLINE
  5
210
100
AcDbEntity
  8
background
 62
7
100
AcDbSpline
 70
8
 71
3
 72
8
 73
4
 74
0
 40
0
 40
0
 40
0
 40
0
 40
1
 40
1
 40
1
 40
1
 10
-94.025111
 20
116.788382
 30
0.0
 10
-93.653462
 20
116.841474
 30
0.0
 10
-93.733101
 20
117.000753
 30
0.0
 10
-92.936706
 20
116.814928
 30
0.0
  0
SPLINE
  5
211
100
AcDbEntity
  8
background
 62
7
100
AcDbSpline
 70
8
 71
3
 72
8
 73
4
 74
0
 40
0
 40
0
 40
0
 40
0
 40
1
 40
1
 40
1
 40
1
 10
-92.936706
 20
116.814928
 30
0.0
 10
-92.140310
 20
116.629103
 30
0.0
 10
-92.113764
 20
116.788382
 30
0.0
 10
-90.998810
 20
116.390185
 30
0.0
  0
SPLINE
  5
212
100
AcDbEntity
  8
background
 62
7
100
AcDbSpline
 70
8
 71
3
 72
8
 73
4
 74
0
 40
0
 40
0
 40
0
 40
0
 40
1
 40
1
 40
1
 40
1
 10
-90.998810
 20
116.390185
 30
0.0
 10
-89.883856
 20
115.991987
 30
0.0
 10
-90.043135
 20
116.124720
 30
0.0
 10
-88.954726
 20
115.646883
 30
0.0
  0
SPLINE
  5
213
100
AcDbEntity
  8
background
 62
7
100
AcDbSpline
 70
8
 71
3
 72
8
 73
4
 74
0
 40
0
 40
0
 40
0
 40
0
 40
1
 40
1
 40
1
 40
1
 10
-88.954726
 20
115.646883
 30
0.0
 10
-87.866321
 20
115.169045
 30
0.0
 10
-87.096470
 20
114.877032
 30
0.0
 10
-86.751366
 20
114.664659
 30
0.0
  0
SPLINE
  5
214
100
AcDbEntity
  8
background
 62
7
100
AcDbSpline
 70
8
 71
3
 72
8
 73
4
 74
0
 40
0
 40
0
 40
0
 40
0
 40
1
 40
1
 40
1
 40
1
 10
-86.751366
 20
114.664659
 30
0.0
 10
-86.406262
 20
114.452289
 30
0.0
 10
-82.581181
 20
112.142937
 30
0.0
 10
-82.581181
 20
112.142937
 30
0.0
  0
SPLINE
  5
215
100
AcDbEntity
  8
background
 62
7
100
AcDbSpline
 70
8
 71
3
 72
8
 73
4
 74
0
 40
0
 40
0
 40
0
 40
0
 40
1
 40
1
 40
1
 40
1
 10
-82.581181
 20
112.142937
 30
0.0
 10
-82.581181
 20
112.142937
 30
0.0
 10
-80.539482
 20
115.275230
 30
0.0
 10
-79.743086
 20
115.912347
 30
0.0
  0
SPLINE
  5
216
100
AcDbEntity
  8
background
 62
7
100
AcDbSpline
 70
8
 71
3
 72
8
 73
4
 74
0
 40
0
 40
0
 40
0
 40
0
 40
1
 40
1
 40
1
 40
1
 10
-79.743086
 20
115.912347
 30
0.0
 10
-78.946690
 20
116.549464
 30
0.0
 10
-78.468852
 20
116.655649
 30
0.0
 10
-78.070654
 20
116.708743
 30
0.0
  0
SPLINE
  5
217
100
AcDbEntity
  8
background
 62
7
100
AcDbSpline
 70
8
 71
3
 72
8
 73
4
 74
0
 40
0
 40
0
 40
0
 40
0
 40
1
 40
1
 40
1
 40
1
 10
-78.070654
 20
116.708743
 30
0.0
 10
-77.672457
 20
116.761834
 30
0.0
 10
-77.778644
 20
116.761834
 30
0.0
 10
-77.141528
 20
116.761834
 30
0.0
  0
SPLINE
  5
218
100
AcDbEntity
  8
background
 62
7
100
AcDbSpline
 70
8
 71
3
 72
8
 73
4
 74
0
 40
0
 40
0
 40
0
 40
0
 40
1
 40
1
 40
1
 40
1
 10
-77.141528
 20
116.761834
 30
0.0
 10
-76.504411
 20
116.761834
 30
0.0
 10
-76.318584
 20
116.841474
 30
0.0
 10
-75.761107
 20
116.735289
 30
0.0
  0
SPLINE
  5
219
100
AcDbEntity
  8
background
 62
7
100
AcDbSpline
 70
8
 71
3
 72
8
 73
4
 74
0
 40
0
 40
0
 40
0
 40
0
 40
1
 40
1
 40
1
 40
1
 10
-75.761107
 20
116.735289
 30
0.0
 10
-75.203629
 20
116.629103
 30
0.0
 10
-75.150538
 20
116.602555
 30
0.0
 10
-74.725795
 20
116.602555
 30
0.0
  0
SPLINE
  5
21a
100
AcDbEntity
  8
background
 62
7
100
AcDbSpline
 70
8
 71
3
 72
8
 73
4
 74
0
 40
0
 40
0
 40
0
 40
0
 40
1
 40
1
 40
1
 40
1
 10
-74.725795
 20
116.602555
 30
0.0
 10
-74.301048
 20
116.602555
 30
0.0
 10
-72.283513
 20
116.337091
 30
0.0
 10
-72.283513
 20
116.337091
 30
0.0
  0
SPLINE
  5
21b
100
AcDbEntity
  8
background
 62
7
100
AcDbSpline
 70
8
 71
3
 72
8
 73
4
 74
0
 40
0
 40
0
 40
0
 40
0
 40
1
 40
1
 40
1
 40
1
 10
-72.283513
 20
116.337091
 30
0.0
 10
-72.283513
 20
116.337091
 30
0.0
 10
-69.496130
 20
115.753068
 30
0.0
 10
-69.018293
 20
115.540695
 30
0.0
  0
SPLINE
  5
21c
100
AcDbEntity
  8
background
 62
7
100
AcDbSpline
 70
8
 71
3
 72
8
 73
4
 74
0
 40
0
 40
0
 40
0
 40
0
 40
1
 40
1
 40
1
 40
1
 10
-69.018293
 20
115.540695
 30
0.0
 10
-68.540455
 20
115.328324
 30
0.0
 10
-67.982978
 20
115.195591
 30
0.0
 10
-67.425501
 20
114.691208
 30
0.0
  0
SPLINE
  5
21d
100
AcDbEntity
  8
background
 62
7
100
AcDbSpline
 70
8
 71
3
 72
8
 73
4
 74
0
 40
0
 40
0
 40
0
 40
0
 40
1
 40
1
 40
1
 40
1
 10
-67.425501
 20
114.691208
 30
0.0
 10
-66.868024
 20
114.186822
 30
0.0
 10
-66.576011
 20
113.974451
 30
0.0
 10
-66.151268
 20
113.443520
 30
0.0
  0
SPLINE
  5
21e
100
AcDbEntity
  8
background
 62
7
100
AcDbSpline
 70
8
 71
3
 72
8
 73
4
 74
0
 40
0
 40
0
 40
0
 40
0
 40
1
 40
1
 40
1
 40
1
 10
-66.151268
 20
113.443520
 30
0.0
 10
-65.726524
 20
112.912591
 30
0.0
 10
-65.195593
 20
112.248926
 30
0.0
 10
-64.717755
 20
111.611810
 30
0.0
  0
SPLINE
  5
21f
100
AcDbEntity
  8
background
 62
7
100
AcDbSpline
 70
8
 71
3
 72
8
 73
4
 74
0
 40
0
 40
0
 40
0
 40
0
 40
1
 40
1
 40
1
 40
1
 10
-64.717755
 20
111.611810
 30
0.0
 10
-64.239918
 20
110.974696
 30
0.0
 10
-63.708989
 20
109.965927
 30
0.0
 10
-63.257697
 20
109.142985
 30
0.0
  0
SPLINE
  5
220
100
AcDbEntity
  8
background
 62
7
100
AcDbSpline
 70
8
 71
3
 72
8
 73
4
 74
0
 40
0
 40
0
 40
0
 40
0
 40
1
 40
1
 40
1
 40
1
 10
-63.257697
 20
109.142985
 30
0.0
 10
-62.806405
 20
108.320044
 30
0.0
 10
-59.917050
 20
101.275830
 30
0.0
 10
-59.917050
 20
101.275830
 30
0.0
  0
LWPOLYLINE
  5
221
100
AcDbEntity
  8
background
 62
7
100
AcDbPolyline
 90
3
 70
0
 10
-162.665053
 20
85.031554
 30
0.0
 10
-162.061014
 20
91.788819
 30
0.0
 10
-160.948886
 20
101.524133
 30
0.0
  0
LWPOLYLINE
  5
222
100
AcDbEntity
  8
background
 62
7
100
AcDbPolyline
 90
2
 70
0
 10
-179.730633
 20
60.461426
 30
0.0
 10
-179.213867
 20
55.500489
 30
0.0
  0
LWPOLYLINE
  5
223
100
AcDbEntity
  8
background
 62
7
100
AcDbPolyline
 90
2
 70
0
 10
-177.250164
 20
51.469727
 30
0.0
 10
-179.213867
 20
55.500489
 30
0.0
  0
LWPOLYLINE
  5
224
100
AcDbEntity
  8
background
 62
7
100
AcDbPolyline
 90
2
 70
0
 10
-177.250164
 20
51.469727
 30
0.0
 10
-173.308132
 20
46.732992
 30
0.0
  0
LWPOLYLINE
  5
225
100
AcDbEntity
  8
background
 62
7
100
AcDbPolyline
 90
4
 70
0
 10
-150.481771
 20
79.891766
 30
0.0
 10
-147.484539
 20
78.134766
 30
0.0
 10
-145.004070
 20
75.137534
 30
0.0
 10
-142.412847
 20
71.789541
 30
0.0
  0
ENDSEC
  0
SECTION
  2
OBJECTS
  0
DICTIONARY
  5
C
330
0
100
AcDbDictionary
  3
ACAD_GROUP
350
D
  3
ACAD_MLINESTYLE
350
17
  0
DICTIONARY
  5
D
330
C
100
AcDbDictionary
  0
DICTIONARY
  5
1A
330
C
100
AcDbDictionary
  0
DICTIONARY
  5
17
330
C
100
AcDbDictionary
  3
STANDARD
350
18
  0
DICTIONARY
  5
19
330
C
100
AcDbDictionary
  0
ENDSEC
  0
EOF
