<?xml version="1.0" encoding="UTF-8" standalone="no"?>
<!-- Created with Inkscape (http://www.inkscape.org/) -->

<svg
   xmlns:dc="http://purl.org/dc/elements/1.1/"
   xmlns:cc="http://creativecommons.org/ns#"
   xmlns:rdf="http://www.w3.org/1999/02/22-rdf-syntax-ns#"
   xmlns:svg="http://www.w3.org/2000/svg"
   xmlns="http://www.w3.org/2000/svg"
   xmlns:sodipodi="http://sodipodi.sourceforge.net/DTD/sodipodi-0.dtd"
   xmlns:inkscape="http://www.inkscape.org/namespaces/inkscape"
   version="1.1"
   id="svg815"
   width="178"
   height="178"
   viewBox="0 0 178 178"
   sodipodi:docname="sloth_ballFG.svg"
   inkscape:version="0.92.4 (5da689c313, 2019-01-14)">
  <metadata
     id="metadata821">
    <rdf:RDF>
      <cc:Work
         rdf:about="">
        <dc:format>image/svg+xml</dc:format>
        <dc:type
           rdf:resource="http://purl.org/dc/dcmitype/StillImage" />
        <dc:title></dc:title>
      </cc:Work>
    </rdf:RDF>
  </metadata>
  <defs
     id="defs819" />
  <sodipodi:namedview
     pagecolor="#ffffff"
     bordercolor="#666666"
     borderopacity="1"
     objecttolerance="10"
     gridtolerance="10"
     guidetolerance="10"
     inkscape:pageopacity="0"
     inkscape:pageshadow="2"
     inkscape:window-width="1920"
     inkscape:window-height="1001"
     id="namedview817"
     showgrid="false"
     inkscape:zoom="1.28"
     inkscape:cx="-399.75741"
     inkscape:cy="313.75205"
     inkscape:window-x="-9"
     inkscape:window-y="-9"
     inkscape:window-maximized="1"
     inkscape:current-layer="layer4" />
  <g
     inkscape:groupmode="layer"
     id="layer1"
     inkscape:label="Layer 1"
     style="display:none" />
  <g
     inkscape:groupmode="layer"
     id="layer3"
     inkscape:label="slothtrace"
     style="display:none">
    <path
       style="display:inline;fill:none;fill-opacity:1;stroke:#000000;stroke-width:3.82719231;stroke-opacity:1"
       d="M 59.023599,156.34718 C 4.0127989,147.49178 -46.246851,125.36387 -79.733971,95.256035 -102.65105,74.651615 -130.73094,31.426296 -140.15137,2.2513825 -156.92504,-49.696285 -130.33872,-103.57883 -83.193951,-113.18447 l 12.09301,-2.46392 2.53452,-32.38359 c 2.86045,-36.54746 11.7905,-60.81677 30.01578,-81.57423 8.87457,-10.10758 15.35532,-13.95805 23.49292,-13.95805 13.2011697,0 41.01982,13.30064 43.98607,21.03059 1.48028,3.8576 6.12458,1.10636 16.44331,-9.74089 16.45509,-17.29786 22.49255,-18.14546 51.62144,-7.24695 23.206211,8.68255 38.436561,23.83119 42.483161,42.25526 l 2.64367,12.03664 6.7039,-14.97368 c 8.4056,-18.7745 28.16255,-35.72092 41.57472,-35.66048 5.62711,0.0253 17.19455,4.02885 25.70541,8.89663 l 15.4743,8.85053 7.04112,-9.33465 c 6.19173,-8.20858 9.29283,-9.11828 25.70678,-7.5411 10.8264,1.04027 22.03517,4.84079 26.68855,9.04919 28.80785,26.05306 50.93844,132.712671 41.63487,200.661807 -5.44173,39.744319 -24.42828,87.840471 -47.36468,119.982988 -14.66764,20.554865 -21.4854,26.281115 -45.22255,37.982665 -15.37312,7.57839 -38.28452,16.45889 -50.91425,19.73447 -33.65764,8.72922 -89.776751,10.42343 -130.124501,3.92842 z m 98.701481,-17.27389 c 36.2816,-5.24608 86.5092,-22.56803 99.10813,-34.17931 15.92507,-14.676715 36.6178,-51.971532 47.88044,-86.29559 9.13071,-27.8268245 10.07236,-36.373367 10.33096,-93.766209 0.24877,-55.190171 -0.78843,-66.524971 -8.2293,-89.938991 -4.68265,-14.73469 -10.03876,-29.12744 -11.90246,-31.98389 -5.5903,-8.56809 -18.24292,-1.52359 -32.00362,17.8184 -12.23022,17.19079 -12.65562,18.93082 -9.54442,39.04224 1.79102,11.57724 2.48764,28.43355 1.54815,37.45846 -1.46318,14.054731 0.70757,20.643751 15.1303,45.926311 17.63252,30.909132 24.29555,49.2108795 24.33125,66.8324975 0.0307,15.5006625 -6.28818,12.8026075 -8.96431,-3.827191 -2.4334,-15.121582 -5.90854,-22.4418905 -34.0661,-71.7598555 -20.68957,-36.237722 -28.4409,-61.079722 -32.92014,-105.505022 -3.49268,-34.64032 -11.71211,-53.32343 -23.45911,-53.32343 -10.66462,0 -27.2193,15.28068 -34.91747,32.23032 -9.72233,21.40649 -9.01273,48.42746 2.38385,90.7735 19.42997,72.195473 19.34447,71.278248 9.5958,102.9446285 -9.56178,31.0592715 -14.7521,30.8118425 -8.06172,-0.384326 5.28514,-24.6437505 2.41305,-37.8661265 -7.6533,-35.2337065 -4.12135,1.077737 -7.34943,5.245242 -7.34943,9.488221 0,4.347653 -3.25615,8.417833 -7.65435,9.567981 -4.29368,1.122822 -7.65438,5.2203675 -7.65438,9.3326095 0,10.59072 -10.38845,33.8754335 -15.11352,33.8754335 -2.21233,0 -4.02245,-2.344538 -4.02245,-5.210071 0,-3.428475 -3.12513,-4.612647 -9.1391,-3.462997 C 95.218999,21.43545 80.073149,14.844336 80.073149,8.4808635 c 0,-2.470185 3.81388,-3.150238 9.56798,-1.706046 8.26372,2.07407 9.56798,1.117998 9.56798,-7.01359904 0,-15.25300646 6.761741,-15.01729046 15.187751,0.529415 l 7.8482,14.48056454 -0.9932,-25.841585 c -0.54625,-14.212851 -0.2679,-25.837948 0.61905,-25.833547 0.88672,0.0038 4.76175,2.858301 8.61119,6.342002 6.52865,5.908344 6.99893,5.88117 6.99893,-0.404381 0,-12.053014 -11.22975,-50.459986 -22.59995,-77.294317 -11.17498,-26.37364 -22.115171,-82.0483 -17.568271,-89.4053 3.891451,-6.29652 -5.65788,-30.26663 -13.79208,-34.61991 -10.5944,-5.66995 -25.9091,2.85497 -34.63483,19.27941 -9.50469,17.89063 -9.291,57.38362 0.56971,105.30749 4.20992,20.460501 7.65439,42.24664 7.65439,48.413663 0,24.647347 -28.57634,60.6613025 -48.1335701,60.6613025 -12.6558702,0 -11.6403702,-2.735868 3.3385501,-8.994475 6.93708,-2.8984855 15.43207,-9.5725735 18.87773,-14.8313275 6.05492,-9.241023 5.89824,-9.832325 -4.67755,-17.651355 l -10.94236,-8.090033 -6.2550901,16.172413 C -2.1792213,-2.2936775 -62.987841,34.550586 -94.658301,30.98085 l -16.668449,-1.878769 12.947649,17.711289 c 29.1422,39.864165 85.96918,74.80969 140.18033,86.20332 45.47163,9.5568 79.441981,11.33167 115.923851,6.0566 z M -34.250441,2.9771325 C -2.0085713,-19.22154 4.7239989,-28.218158 5.1362589,-49.65476 l 0.30657,-15.945078 -20.3031799,1.250803 c -11.97455,0.737691 -22.57182,-0.631984 -25.83355,-3.338994 -9.24535,-7.67299 -6.41139,-17.6678 6.5295,-23.02808 10.5867,-4.38516 11.17108,-5.34405 4.78398,-7.84971 -4.00175,-1.569891 -13.69457,-2.975391 -21.53962,-3.123341 -11.16025,-0.21045 -15.6278,1.812801 -20.53293,9.298991 -4.10777,6.26926 -9.8081,9.56798 -16.53388,9.56798 -17.005249,0 -46.448869,34.664588 -46.109639,54.285876 0.14817,8.575895 0.33719,8.523693 5.83754,-1.613354 5.84325,-10.769068 20.19028,-16.921968 30.359009,-13.019878 8.71242,3.343244 6.94869,22.013933 -4.030099,42.66217246 -11.86786,22.32037354 -8.86585,25.83630054 20.275649,23.74669254 16.51407,-1.184172 24.90167,-4.76937 47.40387,-20.2621875 z m -51.20246,-22.9582175 c -5.81772,-5.840755 -2.56764,-9.260427 8.80123,-9.260427 15.26785,0 33.08045,-9.407124 36.15495,-19.093977 2.44982,-7.718719 6.31433,-9.68758 10.60098,-5.400933 3.78119,3.781189 -5.40231,20.151315 -14.73531,26.266517 -10.30514,6.7522 -36.72754,11.599417 -40.82185,7.48882 z m 9.97648,-22.70432 c -3.08717,-8.045064 5.47063,-17.173645 16.09982,-17.173645 12.96515,0 15.74205,7.783285 5.68295,15.928583 -10.55187,8.544398 -18.8008,9.015908 -21.78277,1.245062 z m -32.294999,42.65290846 c 9.468099,-15.31971346 10.077149,-21.55463146 2.10562,-21.55463146 -3.2235,0 -6.8522,-2.583354 -8.06385,-5.740789 -3.37452,-8.793853 -7.63204,-6.894112 -12.86557,5.740789 -3.78965,9.14898 -3.78965,13.8141755 0,22.9631535 6.07172,14.6584145 9.03072,14.4370105 18.8238,-1.40852204 z M 158.06233,-54.23767 c -0.25757,-4.144237 -5.16127,-25.260799 -10.89723,-46.92573 -6.18204,-23.34969 -9.8877,-46.0792 -9.09977,-55.81502 0.91435,-11.29756 -0.16417,-16.42371 -3.45468,-16.42246 -2.6312,0.001 -4.784,2.29813 -4.784,5.10474 0,8.0512 -10.418,5.95335 -17.42219,-3.50826 -6.1855,-8.35566 -6.30645,-8.06299 -4.07691,9.8637 1.26378,10.16118 6.79521,29.10578 12.29215,42.0991 5.49686,12.99333 13.62448,35.305741 18.06135,49.583111 5.85591,18.843833 9.68173,25.629559 13.95823,24.757342 3.24022,-0.660879 5.68058,-4.592324 5.42305,-8.736523 z M 45.628429,-59.096099 c 0,-5.895254 -3.4072,-26.13155 -7.57157,-44.969521 -4.16436,-18.83797 -7.60885,-43.55951 -7.65438,-54.93677 -0.0818,-20.44177 -0.17338,-20.60417 -7.73722,-13.75881 -12.50741,11.31904 -9.56916,40.15 8.70235,85.390401 6.85444,16.97162 7.32835,20.87306 2.87032,23.628259 -4.41742,2.730128 -4.47498,4.342064 -0.33335,9.332608 7.48155,9.014722 11.72368,7.319046 11.72368,-4.686167 z m -158.587719,-16.55039 c 7.87059,-8.37436 8.82892,-10.49938 3.19632,-7.08768 -6.94907,4.2091 -19.15418,19.047927 -15.66715,19.047927 0.6765,0 6.28838,-5.382107 12.47083,-11.960247 z m 103.7443187,-4.7804 c -7.0769497,-10.67729 -20.1521697,-13.92297 -14.8808197,-3.69388 1.9952,3.87165 2.93094,8.96638 2.0795,11.32164 -0.98825,2.73357 2.02175,3.59982 8.32289,2.39528 9.1251297,-1.74435 9.4635297,-2.50175 4.4784297,-10.02304 z m 35.7074303,2.68873 c 0,-0.96331 -3.47536,-9.83015 -7.72305,-19.70411 -4.24765,-9.873961 -9.9396601,-29.962931 -12.6488601,-44.642131 -4.4877702,-24.3157 -5.75254024,-26.69659 -14.2202902,-26.76954 -8.1388097,-0.0701 -9.6162597,-2.3164 -11.8830797,-18.06681 -4.79463,-33.31459 -11.0623,-34.43854 -22.4417,-4.02436 -4.52753,12.10088 -9.20665,33.62884 -10.39805,47.8399 -2.0688,24.67657 -1.79022,25.83829 6.19577,25.83829 13.2668,0 36.14781,13.46216 50.4199499,29.664831 7.2222301,8.19913 15.2841301,14.16676 17.9153101,13.26144 2.6312,-0.90536 4.784,-2.43425 4.784,-3.39751 z m -104.1554,-16.01568 c 1.91594,-5.74771 -2.72526,-5.33966 -14.48756,1.27375 l -9.567969,5.37963 11.298249,-1.13813 c 6.21405,-0.62597 11.95485,-3.10783 12.75728,-5.51525 z M 240.7566,-135.44607 c -0.0597,-18.4826 -4.95435,-31.66434 -9.91562,-26.70308 -2.69323,2.69325 5.14165,44.88223 8.3351,44.88223 0.9015,0 1.61273,-8.18062 1.58052,-18.17915 z m 36.24845,-71.29752 c 10.61206,-6.9533 9.93308,-13.85752 -1.36275,-13.85752 -4.22282,0 -10.69579,7.12062 -16.99649,18.6971 -12.7253,23.38054 -13.3259,33.64122 -0.8987,15.35294 5.10264,-7.50922 13.7687,-16.59585 19.25794,-20.19252 z m -258.129591,12.8425 c 3.78135,-9.12891 3.86024,-13.93327 0.35517,-21.62625 -5.79348,-12.71533 -6.5487,-11.47238 -9.1616,15.07771 -2.3069701,23.44176 0.8399,25.78177 8.80658,6.54854 z m 215.667101,-4.4342 c -5.13,-9.66821 -7.07841,-11.10128 -8.1663,-6.00632 -0.7858,3.68032 1.28035,9.40061 4.59149,12.71174 3.31113,3.31113 6.15623,8.05002 6.3224,10.53086 0.23078,3.44726 0.73681,3.44398 2.14603,-0.0138 1.01417,-2.4885 -1.18797,-10.23856 -4.89362,-17.22236 z m -121.5479,3.92046 c -6.9511,-9.92405 -8.24565,-6.67083 -1.9939,5.01066 2.2755,4.25181 5.03452,6.83331 6.13117,5.73668 1.09665,-1.09664 -0.76513,-5.93294 -4.13727,-10.74734 z m -114.7795613,-22.0494 c -2.30814,-14.59811 -9.2376497,-21.01104 -16.3370197,-15.11911 -3.63132,3.01372 -3.01758,6.6242 2.72772,16.04664 4.07733,6.68688 7.5289297,16.46356 7.6702297,21.72595 l 0.2568,9.56798 3.87557,-9.56798 c 2.1316,-5.26239 2.94455996,-15.45645 1.80663,-22.65348 z m 131.6115513,20.68368 c 0,-7.08357 -25.22909,-35.31192 -28.57217,-31.96886 -1.873071,1.87307 23.61252,36.50112 27.61537,37.52186 0.52625,0.13419 0.9568,-2.36465 0.9568,-5.553 z m 126.2122,-28.28411 c 0.0647,-4.08563 -1.7534,-3.71335 -7.56929,1.54997 -4.2099,3.80992 -7.61606,10.53523 -7.56926,14.94514 0.0808,7.62342 0.45341,7.54715 7.56926,-1.54997 4.1163,-5.26239 7.52247,-11.9877 7.56929,-14.94514 z"
       id="path861"
       inkscape:connector-curvature="0" />
    <path
       style="fill:none;fill-opacity:1;stroke:#000000;stroke-width:0.44942099;stroke-opacity:1"
       d="m -100.90142,-2.8218396 c -1.10326,-1.2320857 -2.19266,-2.4740401 -3.26812,-3.7256667"
       id="path1004"
       inkscape:connector-curvature="0" />
    <path
       style="display:inline;fill:none;fill-opacity:1;stroke:#000000;stroke-width:0.44942099;stroke-opacity:1"
       d="m -49.898755,-161.99309 c 0.09473,-0.12945 0.179025,-0.23426 0.252125,-0.31285 0.33463,-0.35975 0.467698,-0.58247 0.03586,-1.27671"
       id="path1128"
       inkscape:connector-curvature="0" />
    <path
       style="display:inline;fill:none;fill-opacity:1;stroke:#000000;stroke-width:0.44942099;stroke-opacity:1"
       d="m -139.70135,-61.670889 c -11.87286,-25.592465 -19.17905,-53.301011 -21.43643,-82.101091 -0.6215,-7.92895 -0.621,-29.63875 9e-4,-37.57219 3.81,-48.61004 21.9666,-94.17522 52.5953,-131.99128 38.4758,-47.50466 93.61704,-78.67964 153.37182,-86.71119 12.13353,-1.63085 18.87514,-2.04787 33.10641,-2.04787 14.23127,0 20.97288,0.41702 33.10641,2.04787 42.01062,5.64659 82.66566,23.03967 115.87664,49.57447 52.67528,42.08631 84.84857,102.45237 90.08302,169.02084 0.0923,1.17427 0.17075,2.67629 0.23525,4.40725"
       id="path1014"
       inkscape:connector-curvature="0" />
    <path
       style="display:inline;fill:none;stroke:#000000;stroke-width:1px;stroke-linecap:butt;stroke-linejoin:miter;stroke-opacity:1"
       d="m -139.70135,-61.670889 6.32774,-13.745762 c 0,0 3.82556,-8.588246 10.35263,-15.044365 6.52706,-6.456118 11.49331,-12.060884 22.63188,-16.672394 11.138583,-4.61151 18.104017,-7.66079 23.696088,-8.08788 5.592071,-0.4271 5.592071,-0.4271 5.592071,-0.4271 l 2.282975,-25.53927 4.203321,-36.79489 c 0,0 6.019998,-21.06999 9.43133,-27.49132 3.411332,-6.42134 9.43133,-15.85267 13.243995,-20.468 3.812666,-4.61533 8.829331,-12.03999 17.658661,-15.25066 8.829331,-3.21066 10.434664,-2.20733 10.434664,-2.20733 0,0 3.812665,-1.40467 18.4613268,5.21733 14.6486622,6.622 17.8593272,5.81933 21.6719932,11.23733 3.812665,5.418 3.611999,5.61866 3.611999,5.61866 0,0 1.404666,2.408 4.213998,0 2.809333,-2.40799 14.648662,-14.04666 16.253995,-15.85266 1.605333,-1.806 10.233997,-9.13033 13.946329,-9.43133 3.712332,-0.301 4.715665,-1.30433 15.150328,1.60534 10.434663,2.90966 24.079996,6.62199 29.196986,9.83266 5.117,3.21066 18.86266,13.24399 21.57166,18.36099 2.709,5.117 7.92633,11.83933 9.73233,22.67533 1.806,10.83599 2.15498,8.9066 2.15498,8.9066 0,0 8.68102,-19.1406 10.58735,-22.05026 1.90634,-2.90967 10.836,-16.75567 19.76566,-21.371 8.92967,-4.61533 11.83933,-6.22066 11.83933,-6.22066 0,0 2.60867,-0.602 4.01334,-0.80267 1.40466,-0.20066 1.10366,-0.80266 4.11366,-0.10033 3.01,0.70233 3.11033,0.10033 7.32433,1.60533 4.214,1.505 3.612,1.00333 7.72567,2.80933 4.11366,1.806 7.02333,2.90967 8.32766,3.71234 1.30433,0.80266 15.76133,9.53092 15.76133,9.53092 0,0 7.71666,-11.83859 10.72666,-14.24659 3.01,-2.408 4.816,-2.80933 6.321,-3.01 1.505,-0.20066 1.10366,-0.20066 3.51166,-0.20066 2.408,0 3.11034,-0.301 5.21734,0.10033 2.107,0.40133 2.30766,0.50167 3.91299,0.50167 1.60534,0 9.23067,1.00333 9.23067,1.00333 0,0 10.53499,2.20733 12.34099,3.01 1.806,0.80266 3.913,1.30433 6.02,3.21066 2.107,1.90634 3.21067,2.709 4.816,4.71567 1.60533,2.00666 3.612,4.515 5.418,6.923 1.806,2.40799 3.81266,6.22066 5.51833,9.33099 1.70567,3.11033 12.62607,29.73413 12.62607,29.73413"
       id="path1192"
       inkscape:connector-curvature="0" />
  </g>
  <g
     inkscape:groupmode="layer"
     id="layer4"
     inkscape:label="background"
     style="display:inline">
    <path
       style="display:inline;fill:none;fill-opacity:1;stroke:#000000;stroke-width:3.82719231;stroke-opacity:1"
       d="m -293.23598,-239.58481 c 3.16973,-4.66904 5.53972,-9.74703 5.57872,-12.21056 v 0 c 0.0647,-4.08563 -1.7534,-3.71335 -7.56929,1.54997 -2.98179,2.69849 -5.56038,6.85953 -6.79445,10.62451"
       id="path1363"
       inkscape:connector-curvature="0" />
    <path
       style="display:inline;fill:none;fill-opacity:1;stroke:#000000;stroke-width:3.82719231;stroke-opacity:1"
       d="m -430.04445,-235.32736 c 6.42106,8.64034 13.29615,16.87897 15.21819,17.3691 0.52625,0.13419 0.9568,-2.36465 0.9568,-5.553 v 0 c 0,-4.09858 -8.44626,-15.27607 -16.21228,-23.32099"
       id="path1312"
       inkscape:connector-curvature="0" />
    <path
       style="display:inline;fill:none;fill-opacity:1;stroke:#000000;stroke-width:3.82719231;stroke-opacity:1"
       d="m -431.91533,-248.68533 c -4.93144,-4.85512 -9.27122,-8.04986 -10.5263,-6.79479 -0.47896,0.47896 0.83098,3.09967 3.11319,6.75255"
       id="path1308"
       inkscape:connector-curvature="0" />
    <path
       style="display:inline;fill:none;fill-opacity:1;stroke:#000000;stroke-width:3.82719231;stroke-opacity:1"
       d="m -430.08174,-246.83225 c -0.61702,-0.63918 -1.22974,-1.25858 -1.83359,-1.85308"
       id="path1254"
       inkscape:connector-curvature="0" />
    <path
       style="display:inline;fill:none;fill-opacity:1;stroke:#000000;stroke-width:3.82719231;stroke-opacity:1"
       d="m -547.25755,-221.61647 c 2.10909,-5.28376 2.90902,-15.41549 1.77647,-22.57847 h 7e-5 v 0 c -2.30814,-14.59811 -9.23765,-21.01104 -16.33702,-15.11911 -3.63132,3.01372 -3.01758,6.6242 2.72772,16.04664 4.05773,6.65473 7.49573,16.36963 7.66796,21.64974"
       id="path1267"
       inkscape:connector-curvature="0" />
    <path
       style="display:inline;fill:none;fill-opacity:1;stroke:#000000;stroke-width:3.82719231;stroke-opacity:1"
       d="m -431.79772,-215.58117 c 2.06022,3.30142 4.27797,5.13852 5.23354,4.18297 1.09665,-1.09664 -0.76513,-5.93294 -4.13727,-10.74734 v 0 c -0.0807,-0.11523 -0.16066,-0.22868 -0.23984,-0.34036"
       id="path1315"
       inkscape:connector-curvature="0" />
    <path
       style="display:inline;fill:none;fill-opacity:1;stroke:#000000;stroke-width:3.82719231;stroke-opacity:1"
       d="m -304.27661,-212.98628 c -0.64604,-3.54272 -2.43505,-8.47753 -4.87694,-13.0796 v -1.2e-4 0 c -5.13,-9.66821 -7.07841,-11.10128 -8.1663,-6.00632 -0.7858,3.68032 1.28035,9.40061 4.59149,12.71174 1.85708,1.85708 3.56756,4.16327 4.74103,6.26832"
       id="path1349"
       inkscape:connector-curvature="0" />
    <path
       style="display:inline;fill:none;fill-opacity:1;stroke:#000000;stroke-width:3.82719231;stroke-opacity:1"
       d="m -524.8205,-221.6318 c 0,0 0,0 0,0 h -1.5e-4 v 0 c 3.78135,-9.12891 3.86024,-13.93327 0.35517,-21.62625 -5.79348,-12.71533 -6.5487,-11.47238 -9.1616,15.07771 -0.27737,2.8184 -0.4759,5.33177 -0.59669,7.53929"
       id="path1276"
       inkscape:connector-curvature="0" />
    <path
       style="display:inline;fill:none;fill-opacity:1;stroke:#000000;stroke-width:3.82719231;stroke-opacity:1"
       d="m -529.63979,-211.62507 c 1.33346,-2.14261 2.94265,-5.47613 4.81929,-10.00673"
       id="path1274"
       inkscape:connector-curvature="0" />
    <path
       style="display:inline;fill:none;fill-opacity:1;stroke:#000000;stroke-width:3.82719231;stroke-opacity:1"
       d="m -534.11841,-211.63849 c 0.56011,3.86817 2.06927,3.88476 4.47862,0.0134"
       id="path1272"
       inkscape:connector-curvature="0" />
    <path
       style="display:inline;fill:none;fill-opacity:1;stroke:#000000;stroke-width:3.82719231;stroke-opacity:1"
       d="m -286.89796,-212.90427 c 0.30741,-0.4398 0.62372,-0.89888 0.94896,-1.37751 5.10264,-7.50922 13.7687,-16.59585 19.25794,-20.19252 v 0 c 10.61206,-6.9533 9.93308,-13.85752 -1.36275,-13.85752 -4.22282,0 -10.69579,7.12062 -16.99649,18.6971 -3.70369,6.80489 -6.3803,12.4984 -8.00756,16.70013"
       id="path1346"
       inkscape:connector-curvature="0" />
    <path
       style="display:inline;fill:none;fill-opacity:1;stroke:#000000;stroke-width:3.82719231;stroke-opacity:1"
       d="m -302.93951,-163.17678 c -0.0597,-18.4826 -4.95435,-31.66434 -9.91562,-26.70308 -2.69323,2.69325 5.14165,44.88223 8.3351,44.88223 0.9015,0 1.61273,-8.18062 1.58052,-18.17915 v 0"
       id="path1242"
       inkscape:connector-curvature="0" />
    <path
       style="display:inline;fill:none;fill-opacity:1;stroke:#000000;stroke-width:3.82719231;stroke-opacity:1"
       d="m -572.57058,-140.01148 c 11.26837,5.35139 23.67635,14.4712 32.66762,24.67868 7.22223,8.19913 15.28413,14.16676 17.91531,13.26144 2.6312,-0.90536 4.784,-2.43425 4.784,-3.39751 v 0 c 0,-0.96331 -3.47536,-9.83015 -7.72305,-19.70411 -4.24765,-9.87396 -9.93966,-29.96293 -12.64886,-44.64213 -4.48777,-24.3157 -5.75254,-26.69659 -14.22029,-26.76954 -5.08795,-0.0438 -7.57259,-0.93812 -9.27421,-5.45046"
       id="path1395"
       inkscape:connector-curvature="0" />
    <path
       style="display:inline;fill:none;fill-opacity:1;stroke:#000000;stroke-width:3.82719231;stroke-opacity:1"
       d="m -565.61938,-225.95567 c -4.55946,-21.77419 -10.59239,-19.20396 -20.50125,7.27985 -4.52753,12.10088 -9.20665,33.62884 -10.39805,47.8399 -2.0688,24.67657 -1.79022,25.83829 6.19577,25.83829 0.70446,0 1.43602,0.038 2.19196,0.11227"
       id="path1261"
       inkscape:connector-curvature="0" />
    <path
       style="display:inline;fill:none;fill-opacity:1;stroke:#000000;stroke-width:3.82719231;stroke-opacity:1"
       d="m -498.06768,-86.82681 c 0,-5.89525 -3.4072,-26.13155 -7.57157,-44.96952 -4.16436,-18.83797 -7.60885,-43.55951 -7.65438,-54.93677 -0.0818,-20.44177 -0.17338,-20.60417 -7.73722,-13.75881 -12.50741,11.31904 -9.56916,40.15 8.70235,85.3904 6.85444,16.97162 7.32835,20.87306 2.87032,23.62826 -4.41742,2.73013 -4.47498,4.34206 -0.33335,9.33261 7.48155,9.01472 11.72368,7.31904 11.72368,-4.68617 h 1.7e-4 v 0"
       id="path1232"
       inkscape:connector-curvature="0" />
    <path
       style="display:inline;fill:none;fill-opacity:1;stroke:#000000;stroke-width:3.82719231;stroke-opacity:1"
       d="m -385.63378,-81.96838 c -0.25757,-4.14424 -5.16127,-25.2608 -10.89723,-46.92573 -6.18204,-23.34969 -9.8877,-46.0792 -9.09977,-55.81502 0.91435,-11.29756 -0.16417,-16.42371 -3.45468,-16.42246 -2.6312,10e-4 -4.784,2.29813 -4.784,5.10474 0,8.0512 -10.418,5.95335 -17.42219,-3.50826 -6.1855,-8.35566 -6.30645,-8.06299 -4.07691,9.8637 1.26378,10.16118 6.79521,29.10578 12.29215,42.0991 5.49686,12.99333 13.62448,35.30574 18.06135,49.58311 5.85591,18.84383 9.68173,25.62956 13.95823,24.75734 3.24022,-0.66088 5.68058,-4.59232 5.42305,-8.73652 v 0"
       id="path1230"
       inkscape:connector-curvature="0" />
    <path
       style="display:inline;fill:none;fill-opacity:1;stroke:#000000;stroke-width:3.82719231;stroke-opacity:1"
       d="m -619.17253,-70.41611 c -3.08717,-8.04507 5.47063,-17.17365 16.09982,-17.17365 12.96515,0 15.74205,7.78329 5.68295,15.92858 -10.55187,8.5444 -18.8008,9.01591 -21.78277,1.24507 v 0"
       id="path1226"
       inkscape:connector-curvature="0" />
    <path
       style="display:inline;fill:none;fill-opacity:1;stroke:#000000;stroke-width:3.82719231;stroke-opacity:1"
       d="m -629.14901,-47.71179 c -5.81772,-5.84076 -2.56764,-9.26043 8.80123,-9.26043 15.26785,0 33.08045,-9.40713 36.15495,-19.09398 2.44982,-7.71872 6.31433,-9.68758 10.60098,-5.40093 3.78119,3.78119 -5.40231,20.15131 -14.73531,26.26652 -10.30514,6.7522 -36.72754,11.59941 -40.82185,7.48882 v 0"
       id="path1224"
       inkscape:connector-curvature="0" />
    <path
       style="display:inline;fill:none;fill-opacity:1;stroke:#000000;stroke-width:3.82719231;stroke-opacity:1"
       d="m -594.02939,-129.40656 c -0.19665,-0.005 -0.39227,-0.01 -0.58676,-0.0133 -11.16025,-0.21045 -15.6278,1.8128 -20.53293,9.29899 -4.10777,6.26926 -9.8081,9.56798 -16.53388,9.56798 -17.00525,0 -46.44887,34.66459 -46.10964,54.28588 0.14817,8.57589 0.33719,8.52369 5.83754,-1.61336 5.84325,-10.76906 20.19028,-16.92196 30.35901,-13.01987 8.71242,3.34324 6.94869,22.01393 -4.0301,42.66217 -11.86786,22.3203705 -8.86585,25.8363005 20.27565,23.7466905 8.81997,-0.6324514 15.32187,-1.9497976 22.89409,-5.4003573"
       id="path1390"
       inkscape:connector-curvature="0" />
    <path
       style="display:inline;fill:none;fill-opacity:1;stroke:#000000;stroke-width:3.82719231;stroke-opacity:1"
       d="m -567.4634,-32.178609 c 23.27521,-17.097387 28.54047,-26.327751 28.90355,-45.206861 l 0.30657,-15.94508 -20.30318,1.25081 c -11.97455,0.73769 -22.57182,-0.63199 -25.83355,-3.339 -9.24535,-7.67299 -6.41139,-17.6678 6.5295,-23.02808 10.5867,-4.38516 11.17108,-5.34405 4.78398,-7.84971 -1.18054,-0.46313 -2.85636,-0.91194 -4.83391,-1.31839"
       id="path1220"
       inkscape:connector-curvature="0" />
    <path
       style="display:inline;fill:none;fill-opacity:1;stroke:#000000;stroke-width:3.82719231;stroke-opacity:1"
       d="m -450.77555,-247.94566 c -2.74132,-5.5548 -6.18135,-10.34842 -9.39983,-12.07089 -10.5944,-5.66995 -25.9091,2.85497 -34.63483,19.27941 -9.50469,17.89063 -9.291,57.38362 0.56971,105.30749 4.20992,20.4605 7.65439,42.24664 7.65439,48.41366 0,24.64735 -28.57634,60.66131 -48.13357,60.66131 -12.65587,0 -11.64037,-2.73587 3.33855,-8.99448 6.93708,-2.89848 15.43207,-9.57257 18.87773,-14.83133 6.05492,-9.24102 5.89824,-9.83232 -4.67755,-17.65135 l -10.94236,-8.09003 -6.25509,16.17241 c -3.82266,9.8834 -13.09683,20.553843 -24.93885,30.264108"
       id="path1320"
       inkscape:connector-curvature="0" />
    <path
       style="display:inline;fill:none;fill-opacity:1;stroke:#000000;stroke-width:3.82719231;stroke-opacity:1"
       d="m -289.88314,-192.66496 c -2.97085,6.59472 -2.41932,11.96224 -0.44816,24.70419 1.79102,11.57724 2.48764,28.43355 1.54815,37.45846 -1.46318,14.05473 0.70757,20.64375 15.1303,45.92631 17.63252,30.90913 24.29555,49.21088 24.33125,66.8325 0.0307,15.5006605 -6.28818,12.8026105 -8.96431,-3.82719 -2.4334,-15.12158 -5.90854,-22.44189 -34.0661,-71.75986 -20.68957,-36.23772 -28.4409,-61.07972 -32.92014,-105.50502 -3.49268,-34.64032 -11.71211,-53.32343 -23.45911,-53.32343 -10.66462,0 -27.2193,15.28068 -34.91747,32.23032 -9.72233,21.40649 -9.01273,48.42746 2.38385,90.7735 19.42997,72.19547 19.34447,71.27825 9.5958,102.94463 -9.56178,31.0592705 -14.7521,30.8118405 -8.06172,-0.38433 5.28514,-24.64375 2.41305,-37.86612 -7.6533,-35.2337 -4.12135,1.07773 -7.34943,5.24524 -7.34943,9.48822 0,4.34765 -3.25615,8.41783 -7.65435,9.56798 -4.29368,1.12282 -7.65438,5.22037 -7.65438,9.33261 0,10.59072 -10.38845,33.87543048 -15.11352,33.87543048 -2.21233,0 -4.02245,-2.34453998 -4.02245,-5.21006998 0,-3.42847 -3.12513,-4.61265 -9.1391,-3.463 -10.15978,1.94215 -25.30563,-4.6489605 -25.30563,-11.0124405 0,-2.47018 3.81388,-3.15023 9.56798,-1.70604 8.26372,2.07407 9.56798,1.118 9.56798,-7.0136 0,-15.25301 6.76174,-15.01729 15.18775,0.52941 l 7.8482,14.48057 -0.9932,-25.84159 c -0.54625,-14.21285 -0.2679,-25.83794 0.61905,-25.83354 0.88672,0.004 4.76175,2.8583 8.61119,6.342 6.52865,5.90834 6.99893,5.88117 6.99893,-0.40438 0,-12.05302 -11.22975,-50.45999 -22.59995,-77.29432 -9.01431,-21.27432 -17.87584,-61.61439 -18.57903,-80.28002"
       id="path1356"
       inkscape:connector-curvature="0" />
    <path
       style="display:inline;fill:none;fill-opacity:1;stroke:#000000;stroke-width:3.82719231;stroke-opacity:1"
       d="m -602.34381,-3.8643054 c -13.25699,5.373447 -26.06931,8.2349793 -36.0106,7.1144459 l -16.66845,-1.87877 12.94765,17.7112895 c 29.1422,39.864174 85.96918,74.809694 140.18033,86.20332 45.47163,9.5568 79.44198,11.33167 115.92385,6.0566 36.2816,-5.24608 86.5092,-22.568026 99.10813,-34.179306 15.92507,-14.67671 36.6178,-51.971534 47.88044,-86.2955935 9.13071,-27.8268205 10.07236,-36.3733705 10.33096,-93.7662105 0.24877,-55.19017 -0.78843,-66.52497 -8.2293,-89.93899 -4.68265,-14.73469 -10.03876,-29.12744 -11.90246,-31.98389 -4.96354,-7.60747 -15.49457,-2.90694 -27.42541,11.78117"
       id="path1218"
       inkscape:connector-curvature="0" />
    <path
       style="display:inline;fill:none;fill-opacity:1;stroke:#000000;stroke-width:0.44942099;stroke-opacity:1"
       d="m -683.39746,-89.4016 c -11.87286,-25.59246 -19.17905,-53.30101 -21.43643,-82.10109 -0.6215,-7.92895 -0.621,-29.63875 9e-4,-37.57219 3.81,-48.61004 21.9666,-94.17522 52.5953,-131.99128 38.4758,-47.50466 93.61704,-78.67964 153.37182,-86.71119 12.13353,-1.63085 18.87514,-2.04787 33.10641,-2.04787 14.23127,0 20.97288,0.41702 33.10641,2.04787 42.01062,5.64659 82.66566,23.03967 115.87664,49.57447 52.67528,42.08631 84.84857,102.45237 90.08302,169.02084 0.0923,1.17427 0.17075,2.67629 0.23525,4.40725"
       id="path1014-6"
       inkscape:connector-curvature="0" />
    <path
       style="display:inline;fill:none;stroke:#000000;stroke-width:1px;stroke-linecap:butt;stroke-linejoin:miter;stroke-opacity:1"
       d="m -561.07006,-202.03511 26.95165,-9.60338"
       id="path1278"
       inkscape:connector-curvature="0" />
    <path
       style="display:inline;fill:none;stroke:#000000;stroke-width:1px;stroke-linecap:butt;stroke-linejoin:miter;stroke-opacity:1"
       d="m -534.22377,-220.64105 -13.03378,-0.97542"
       id="path1280"
       inkscape:connector-curvature="0" />
    <path
       style="display:inline;fill:none;stroke:#000000;stroke-width:1px;stroke-linecap:butt;stroke-linejoin:miter;stroke-opacity:1"
       d="m -551.42235,-221.61767 -14.19703,-4.338"
       id="path1282"
       inkscape:connector-curvature="0" />
    <path
       style="display:inline;fill:none;stroke:#000000;stroke-width:1px;stroke-linecap:butt;stroke-linejoin:miter;stroke-opacity:1"
       d="m -450.77555,-247.94566 11.44711,-0.78191"
       id="path1322"
       inkscape:connector-curvature="0" />
    <path
       style="display:inline;fill:none;stroke:#000000;stroke-width:1px;stroke-linecap:butt;stroke-linejoin:miter;stroke-opacity:1"
       d="m -447.39406,-216.27136 15.59634,0.69019"
       id="path1324"
       inkscape:connector-curvature="0" />
    <path
       style="display:inline;fill:none;stroke:#000000;stroke-width:1px;stroke-linecap:butt;stroke-linejoin:miter;stroke-opacity:1"
       d="m -430.04445,-235.32736 -0.657,13.18182"
       id="path1326"
       inkscape:connector-curvature="0" />
    <path
       style="display:inline;fill:none;stroke:#000000;stroke-width:1px;stroke-linecap:butt;stroke-linejoin:miter;stroke-opacity:1"
       d="m -289.88314,-192.66496 -18.10419,-20.4273 m 21.08937,0.18799 10.68929,-0.13597"
       id="path1358"
       inkscape:connector-curvature="0" />
    <path
       style="display:inline;fill:none;stroke:#000000;stroke-width:1px;stroke-linecap:butt;stroke-linejoin:miter;stroke-opacity:1"
       d="m -304.27661,-212.98628 2.25561,-26.63461"
       id="path1365"
       inkscape:connector-curvature="0" />
    <path
       style="display:inline;fill:none;stroke:#000000;stroke-width:1px;stroke-linecap:butt;stroke-linejoin:miter;stroke-opacity:1"
       d="m -293.23598,-239.58481 0.17812,26.65022"
       id="path1367"
       inkscape:connector-curvature="0" />
    <path
       style="display:inline;fill:none;stroke:#000000;stroke-width:1px;stroke-linecap:butt;stroke-linejoin:miter;stroke-opacity:1"
       d="m -590.54465,-144.61747 -5.66238,15.46796"
       id="path1397"
       inkscape:connector-curvature="0" />
    <path
       style="display:inline;fill:none;stroke:#000000;stroke-width:1px;stroke-linecap:butt;stroke-linejoin:miter;stroke-opacity:1"
       d="m -570.51917,-140.61237 -4.69563,13.25825"
       id="path1399"
       inkscape:connector-curvature="0" />
    <path
       style="display:inline;fill:none;fill-opacity:1;stroke:#000000;stroke-width:0.44942099;stroke-opacity:1"
       d="m -293.18864,-341.85106 c 0.7308,-0.80334 1.33469,-1.68206 1.34192,-1.95272 0.0306,-1.13606 -3.79059,-6.14029 -8.32098,-10.89769 -15.7083,-16.49536 -42.91536,-35.72814 -66.56223,-47.05309 -18.3554,-8.79076 -41.04774,-16.08995 -59.93504,-19.27863 -8.3757,-1.41404 -9.77821,-1.42925 -3.78295,-0.041 16.24786,3.76225 31.51463,10.90005 43.95469,20.55048 6.18449,4.79764 14.91679,13.71756 19.57706,19.99768 l 3.34132,4.50274 4.97296,0.27191 c 21.78389,1.19105 38.00256,9.29721 57.31576,28.64663 3.59222,3.59898 6.58474,6.58201 6.65004,6.62896 0.0653,0.047 0.71665,-0.57192 1.44745,-1.37526 v -1e-5 0"
       id="path1170-7"
       inkscape:connector-curvature="0" />
    <path
       style="display:inline;fill:none;fill-opacity:1;stroke:#000000;stroke-width:0.44942099;stroke-opacity:1"
       d="m -456.32162,-308.16778 c 21.40803,-8.20139 43.49602,-12.59801 66.37892,-13.21274 l 9.97658,-0.26801 1.76769,-4.9891 c 6.22418,-17.56704 12.21042,-39.8033 12.21042,-45.35636 0,-0.88909 -6.93711,-9.94016 -11.14619,-14.5428 -9.80444,-10.72116 -23.85969,-20.21571 -38.18236,-25.79279 -8.95202,-3.4858 -30.2575,-8.4453 -45.37259,-10.56183 -6.96106,-0.97475 -14.22658,-0.68218 -28.4402,1.14528 -13.46363,1.73102 -21.21641,3.13493 -27.41468,4.96441 -5.49294,1.6213 -12.05609,4.64571 -12.46481,5.744 -0.15604,0.41927 -1.03281,1.77351 -1.9484,3.00942 -6.26745,8.46019 -10.45869,22.65677 -12.7375,43.14443 -0.83961,7.54843 -1.77612,23.41811 -1.43451,24.30833 0.13392,0.349 0.64064,0.63453 1.12606,0.63453 1.8616,0 11.53357,2.77802 17.20645,4.94211 15.0221,5.73059 35.48465,18.36936 48.88928,30.19663 l 4.25587,3.75507 5.40668,-2.31204 c 2.97368,-1.27162 8.33916,-3.43546 11.92329,-4.80854 v 0"
       id="path1168-0"
       inkscape:connector-curvature="0" />
    <path
       style="display:inline;fill:none;fill-opacity:1;stroke:#000000;stroke-width:0.44942099;stroke-opacity:1"
       d="m -673.20919,-270.45354 c 5.1309,-1.52172 11.4424,-2.80212 17.0812,-3.46522 4.859,-0.57139 28.6964,-0.27538 33.0067,0.40988 l 2.4073,0.38272 0.813,-1.89661 c 4.9251,-11.48984 20.57857,-31.44258 34.35865,-43.79546 10.70285,-9.59437 22.94774,-17.31561 32.14539,-20.26987 l 3.82048,-1.22712 0.30874,-4.64418 c 0.89029,-13.39201 1.42676,-19.27638 2.39011,-26.21638 2.01576,-14.52147 4.21427,-22.96085 8.1247,-31.18812 1.3389,-2.81695 2.43437,-5.3178 2.43437,-5.55747 0,-0.26916 -2.27663,-0.3621 -5.95483,-0.24309 -5.45472,0.17648 -6.37001,0.33564 -10.89846,1.89508 -26.95943,9.2839 -55.54045,29.15251 -78.60465,54.64341 -18.0237,19.92009 -29.9152,35.57986 -37.971,50.00358 -5.4355,9.73199 -8.8836,20.25583 -9.37,28.59748 l -0.2462,4.2219 1.0758,-0.23167 c 0.5917,-0.12742 2.8772,-0.7659 5.0787,-1.41886 v 0"
       id="path1166-8"
       inkscape:connector-curvature="0" />
    <path
       style="display:inline;fill:none;fill-opacity:1;stroke:#000000;stroke-width:0.44942099;stroke-opacity:1"
       d="m -234.84282,-225.71072 c -0.28796,-2.09557 -0.63823,-4.316 -1.06038,-6.7637 -1.99246,-11.55281 -6.75439,-28.69746 -11.46886,-41.29203 -9.22221,-24.63702 -24.78745,-50.88562 -37.06505,-62.50513 l -4.4077,-4.1714 -1.54016,1.54016 -1.54012,1.54016 2.32314,2.86797 c 9.68817,11.9602 18.0403,28.447 20.91902,41.29345 1.13847,5.08058 1.41253,19.45229 0.49589,26.00653 l -0.7144,5.10846 1.03769,1.56232"
       id="path1162-1"
       inkscape:connector-curvature="0" />
    <path
       style="display:inline;fill:none;fill-opacity:1;stroke:#000000;stroke-width:0.44942099;stroke-opacity:1"
       d="m -316.76756,-249.46753 c -0.6938,-4.20585 -1.51073,-6.19748 -3.25279,-9.353 -6.38524,-11.5661 -15.37976,-23.14183 -27.07874,-34.84968 -8.35254,-8.35887 -14.9403,-13.96132 -23.94566,-20.36417 l -4.83203,-3.43559 h -9.38946 c -26.47501,0 -52.18222,5.49559 -79.59438,17.0154 -4.82004,2.0256 -8.98014,3.82897 -9.24467,4.0075 -0.39485,0.26647 -1.93782,5.6952 -5.99763,21.24155"
       id="path1152-2"
       inkscape:connector-curvature="0" />
    <path
       style="display:inline;fill:none;fill-opacity:1;stroke:#000000;stroke-width:0.44942099;stroke-opacity:1"
       d="m -606.9539,-209.75946 c -4.55963,-7.47372 -8.34149,-15.46498 -10.86569,-23.1286 -3.6393,-11.04897 -4.1104,-14.0543 -4.1122,-26.23307 v -10.18786 l -1.7977,-0.25082 c -4.3611,-0.60846 -27.5449,-0.82774 -32.1336,-0.30392 -10.6259,1.21302 -23.4279,4.76947 -26.3251,7.31324 -6.3175,5.5469 -12.0393,25.34615 -15.0057,51.92473 -2.2673,20.31511 -0.212,46.69824 5.8225,74.74268 3.723,17.30156 6.7556,25.84054 10.5537,29.71627 1.1034,1.12592 2.34775,2.13047 3.74797,3.01945"
       id="path1132-3"
       inkscape:connector-curvature="0" />
    <path
       style="display:inline;fill:none;fill-opacity:1;stroke:#000000;stroke-width:0.44942099;stroke-opacity:1"
       d="m -593.59486,-189.7238 c 0.0947,-0.12945 0.17902,-0.23426 0.25212,-0.31285 0.33463,-0.35975 0.4677,-0.58247 0.0359,-1.27671"
       id="path1128-1"
       inkscape:connector-curvature="0" />
    <path
       style="display:inline;fill:none;fill-opacity:1;stroke:#000000;stroke-width:0.44942099;stroke-opacity:1"
       d="m -683.39746,-89.4016 c -11.87286,-25.59246 -19.17905,-53.30101 -21.43643,-82.10109 -0.6215,-7.92895 -0.621,-29.63875 9e-4,-37.57219 3.81,-48.61004 21.9666,-94.17522 52.5953,-131.99128 38.4758,-47.50466 93.61704,-78.67964 153.37182,-86.71119 12.13353,-1.63085 18.87514,-2.04787 33.10641,-2.04787 14.23127,0 20.97288,0.41702 33.10641,2.04787 42.01062,5.64659 82.66566,23.03967 115.87664,49.57447 52.67528,42.08631 84.84857,102.45237 90.08302,169.02084 0.0923,1.17427 0.17075,2.67629 0.23525,4.40725"
       id="path1014-1"
       inkscape:connector-curvature="0" />
    <path
       style="display:inline;fill:none;stroke:#000000;stroke-width:1px;stroke-linecap:butt;stroke-linejoin:miter;stroke-opacity:1"
       d="m -683.39746,-89.4016 6.32774,-13.74576 c 0,0 3.82556,-8.58825 10.35263,-15.04437 6.52706,-6.45611 11.49331,-12.06088 22.63188,-16.67239 11.13858,-4.61151 18.10402,-7.66079 23.69609,-8.08788 5.59207,-0.4271 5.59207,-0.4271 5.59207,-0.4271 l 2.28298,-25.53927 4.20332,-36.79489 c 0,0 6.01999,-21.06999 9.43133,-27.49132 3.41133,-6.42134 9.43133,-15.85267 13.24399,-20.468 3.81267,-4.61533 8.82933,-12.03999 17.65866,-15.25066 8.82933,-3.21066 10.43467,-2.20733 10.43467,-2.20733 0,0 3.81266,-1.40467 18.46132,5.21733 14.64866,6.622 17.85933,5.81933 21.672,11.23733 3.81266,5.418 3.61199,5.61866 3.61199,5.61866 0,0 1.40467,2.408 4.214,0 2.80934,-2.40799 14.64866,-14.04666 16.254,-15.85266 1.60533,-1.806 10.23399,-9.13033 13.94633,-9.43133 3.71233,-0.301 4.71566,-1.30433 15.15032,1.60534 10.43467,2.90966 24.08,6.62199 29.19699,9.83266 5.117,3.21066 18.86266,13.24399 21.57166,18.36099 2.709,5.117 7.92633,11.83933 9.73233,22.67533 1.806,10.83599 2.15498,8.9066 2.15498,8.9066 0,0 8.68102,-19.1406 10.58735,-22.05026 1.90634,-2.90967 10.836,-16.75567 19.76566,-21.371 8.92967,-4.61533 11.83933,-6.22066 11.83933,-6.22066 0,0 2.60867,-0.602 4.01334,-0.80267 1.40466,-0.20066 1.10366,-0.80266 4.11366,-0.10033 3.01,0.70233 3.11033,0.10033 7.32433,1.60533 4.214,1.505 3.612,1.00333 7.72567,2.80933 4.11366,1.806 7.02333,2.90967 8.32766,3.71234 1.30433,0.80266 15.76133,9.53092 15.76133,9.53092 0,0 7.71666,-11.83859 10.72666,-14.24659 3.01,-2.408 4.816,-2.80933 6.321,-3.01 1.505,-0.20066 1.10366,-0.20066 3.51166,-0.20066 2.408,0 3.11034,-0.301 5.21734,0.10033 2.107,0.40133 2.30766,0.50167 3.91299,0.50167 1.60534,0 9.23067,1.00333 9.23067,1.00333 0,0 10.53499,2.20733 12.34099,3.01 1.806,0.80266 3.913,1.30433 6.02,3.21066 2.107,1.90634 3.21067,2.709 4.816,4.71567 1.60533,2.00666 3.612,4.515 5.418,6.923 1.806,2.40799 3.81266,6.22066 5.51833,9.33099 1.70567,3.11033 12.62607,29.73413 12.62607,29.73413"
       id="path1192-1"
       inkscape:connector-curvature="0" />
    <path
       style="fill:none;stroke:#000000;stroke-width:1px;stroke-linecap:butt;stroke-linejoin:miter;stroke-opacity:1"
       d="m -679.29688,-50.515626 1.95313,18.75"
       id="path1553"
       inkscape:connector-curvature="0" />
    <path
       style="fill:none;stroke:#000000;stroke-width:1px;stroke-linecap:butt;stroke-linejoin:miter;stroke-opacity:1"
       d="m -669.92188,-16.531251 -7.42187,-15.234375"
       id="path1555"
       inkscape:connector-curvature="0" />
    <path
       style="fill:none;stroke:#000000;stroke-width:1px;stroke-linecap:butt;stroke-linejoin:miter;stroke-opacity:1"
       d="m -669.92188,-16.531251 14.89902,17.9026215"
       id="path1557"
       inkscape:connector-curvature="0" />
    <path
       style="fill:none;stroke:#000000;stroke-width:1px;stroke-linecap:butt;stroke-linejoin:miter;stroke-opacity:1"
       d="m -568.75,-123.95313 11.32812,6.64063 9.375,11.32812 9.7936,12.65383"
       id="path1559"
       inkscape:connector-curvature="0" />
  </g>
</svg>
