<?xml version="1.0" encoding="UTF-8" standalone="no"?>
<svg
   xmlns:dc="http://purl.org/dc/elements/1.1/"
   xmlns:cc="http://creativecommons.org/ns#"
   xmlns:rdf="http://www.w3.org/1999/02/22-rdf-syntax-ns#"
   xmlns:svg="http://www.w3.org/2000/svg"
   xmlns="http://www.w3.org/2000/svg"
   xmlns:sodipodi="http://sodipodi.sourceforge.net/DTD/sodipodi-0.dtd"
   xmlns:inkscape="http://www.inkscape.org/namespaces/inkscape"
   version="1.1"
   id="svg815"
   width="178"
   height="178"
   viewBox="0 0 178 178"
   sodipodi:docname="sloth_small.svg"
   inkscape:version="1.0.1 (3bc2e813f5, 2020-09-07)">
  <metadata
     id="metadata821">
    <rdf:RDF>
      <cc:Work
         rdf:about="">
        <dc:format>image/svg+xml</dc:format>
        <dc:type
           rdf:resource="http://purl.org/dc/dcmitype/StillImage" />
        <dc:title></dc:title>
      </cc:Work>
    </rdf:RDF>
  </metadata>
  <defs
     id="defs819" />
  <sodipodi:namedview
     pagecolor="#ffffff"
     bordercolor="#666666"
     borderopacity="1"
     objecttolerance="10"
     gridtolerance="10"
     guidetolerance="10"
     inkscape:pageopacity="0"
     inkscape:pageshadow="2"
     inkscape:window-width="1290"
     inkscape:window-height="1030"
     id="namedview817"
     showgrid="false"
     inkscape:zoom="0.45254834"
     inkscape:cx="-44.803102"
     inkscape:cy="-189.0244"
     inkscape:window-x="621"
     inkscape:window-y="0"
     inkscape:window-maximized="0"
     inkscape:current-layer="layer3"
     inkscape:document-rotation="0" />
  <g
     inkscape:groupmode="layer"
     id="layer1"
     inkscape:label="Layer 1"
     style="display:inline" />
  <g
     inkscape:groupmode="layer"
     id="layer3"
     inkscape:label="slothtrace"
     style="display:inline">
    <path
       style="display:inline;fill:none;fill-opacity:1;stroke:#000000;stroke-width:1.695;stroke-opacity:1"
       d="m -607.71347,-182.62592 c -24.36336,-3.92191 -46.62252,-13.72199 -61.4534,-27.05625 -10.14959,-9.12535 -22.58571,-28.26912 -26.75786,-41.19021 -7.42878,-23.00675 4.34586,-46.87043 25.22549,-51.1246 l 5.35579,-1.09123 1.1225,-14.34215 c 1.26684,-16.18626 5.22181,-26.93473 13.29349,-36.12787 3.93039,-4.47647 6.80061,-6.18178 10.40462,-6.18178 5.84657,0 18.16699,5.89063 19.48069,9.31409 0.65559,1.70847 2.71248,0.48999 7.28247,-4.31407 7.28768,-7.66094 9.96157,-8.03632 22.86227,-3.20956 10.27764,3.84536 17.02291,10.55444 18.81508,18.71415 l 1.17084,5.33083 2.96904,-6.63159 c 3.7227,-8.31492 12.47273,-15.8202 18.41275,-15.79343 2.49216,0.0112 7.61518,1.78431 11.3845,3.94016 l 6.85331,3.91976 3.11839,-4.13416 c 2.74222,-3.63545 4.11564,-4.03834 11.38511,-3.33983 4.79483,0.46072 9.759,2.1439 11.81991,4.00773 12.75851,11.53847 22.55978,58.77623 18.43939,88.86976 -2.41006,17.6021 -10.81888,38.90308 -20.97703,53.13846 -6.49605,9.10341 -9.51552,11.63947 -20.02831,16.82189 -6.8085,3.35634 -16.95557,7.28937 -22.54907,8.74006 -14.90641,3.86603 -39.76062,4.61637 -57.62997,1.73984 z m 43.71324,-7.65032 c 16.06851,-2.3234 38.31348,-9.995 43.89333,-15.13744 7.05295,-6.50008 16.21741,-23.01733 21.20545,-38.21888 4.04384,-12.32403 4.46088,-16.10915 4.57541,-41.52749 0.11017,-24.4428 -0.34918,-29.46279 -3.64462,-39.83247 -2.07387,-6.52575 -4.446,-12.90006 -5.2714,-14.16513 -2.47585,-3.79466 -8.07949,-0.67477 -14.17387,7.89147 -5.41656,7.61351 -5.60496,8.38414 -4.22706,17.29116 0.79321,5.12736 1.10173,12.59274 0.68565,16.58972 -0.64802,6.22461 0.31337,9.14277 6.70095,20.34 7.80915,13.68914 10.7601,21.79467 10.77591,29.59899 0.0136,6.86499 -2.78493,5.67006 -3.97015,-1.695 -1.07771,-6.69709 -2.61679,-9.93913 -15.0873,-31.78124 -9.16307,-16.04908 -12.596,-27.05118 -14.57978,-46.72641 -1.54685,-15.34162 -5.1871,-23.61605 -10.38965,-23.61605 -4.72318,0 -12.05497,6.76756 -15.46436,14.27427 -4.30586,9.48057 -3.99159,21.44771 1.05576,40.20206 8.60521,31.97417 8.56735,31.56795 4.24982,45.59246 -4.23475,13.75563 -6.53345,13.64605 -3.5704,-0.17021 2.3407,-10.91431 1.0687,-16.77028 -3.38952,-15.60442 -1.82527,0.47731 -3.25494,2.32303 -3.25494,4.20217 0,1.9255 -1.44209,3.72812 -3.38998,4.2375 -1.9016,0.49728 -3.39,2.31201 -3.39,4.13326 0,4.69045 -4.60087,15.00286 -6.69352,15.00286 -0.9798,0 -1.78148,-1.03836 -1.78148,-2.30745 0,-1.51842 -1.38406,-2.04287 -4.04755,-1.53371 -4.4996,0.86015 -11.20744,-2.05895 -11.20744,-4.87722 0,-1.09401 1.6891,-1.39519 4.2375,-0.75558 3.65986,0.91857 4.2375,0.49514 4.2375,-3.10621 0,-6.7553 2.99466,-6.6509 6.7264,0.23447 l 3.47583,6.4132 -0.43987,-11.4448 c -0.24192,-6.29464 -0.11865,-11.4432 0.27417,-11.44125 0.39271,0.002 2.1089,1.26589 3.81375,2.80877 2.89143,2.6167 3.09971,2.60467 3.09971,-0.1791 0,-5.33808 -4.97347,-22.34788 -10.00914,-34.23236 -4.94921,-11.68044 -9.79444,-36.33782 -7.78069,-39.59611 1.72345,-2.78862 -2.50578,-13.40458 -6.10829,-15.33258 -4.69208,-2.51113 -11.4747,1.26442 -15.33918,8.53853 -4.20947,7.92346 -4.11483,25.41424 0.25231,46.63893 1.86451,9.06161 3.39,18.71033 3.39,21.4416 0,10.9159 -12.65598,26.86587 -21.31755,26.86587 -5.60507,0 -5.15533,-1.21167 1.47859,-3.9835 3.07231,-1.28369 6.8346,-4.23953 8.36063,-6.56855 2.68162,-4.09269 2.61223,-4.35457 -2.07161,-7.81749 l -4.84619,-3.58294 -2.77027,7.1625 c -5.0918,13.16473 -32.02292,29.48244 -46.04924,27.90147 l -7.38218,-0.83208 5.7343,7.84403 c 12.90659,17.65518 38.07431,33.13196 62.08352,38.17801 20.13863,4.23255 35.18353,5.01861 51.34074,2.68237 z m -85.02275,-60.27471 c 14.27939,-9.83142 17.26113,-13.81587 17.44371,-23.30979 l 0.13578,-7.06181 -8.99194,0.55396 c -5.30333,0.32671 -9.99668,-0.27989 -11.44125,-1.47878 -4.09461,-3.39824 -2.8395,-7.82478 2.89181,-10.19875 4.68867,-1.94212 4.94748,-2.36679 2.11874,-3.47651 -1.77231,-0.69528 -6.06509,-1.31775 -9.53954,-1.38327 -4.94268,-0.0932 -6.92129,0.80285 -9.09369,4.11836 -1.81926,2.77655 -4.34384,4.2375 -7.32258,4.2375 -7.53134,0 -20.57142,15.35237 -20.42118,24.04231 0.0656,3.79812 0.14933,3.775 2.58534,-0.71453 2.58788,-4.76944 8.94194,-7.49445 13.4455,-5.76628 3.85859,1.48066 3.07746,9.7496 -1.78486,18.89436 -5.25608,9.88532 -3.92654,11.44246 8.97975,10.51701 7.3138,-0.52445 11.02853,-2.11227 20.99438,-8.97378 z m -22.67671,-10.16781 c -2.57657,-2.58678 -1.13717,-4.10129 3.89792,-4.10129 6.76187,0 14.65077,-4.16626 16.01242,-8.4564 1.08498,-3.4185 2.79651,-4.29047 4.695,-2.39199 1.67462,1.67463 -2.3926,8.92468 -6.52603,11.633 -4.56397,2.99044 -16.26601,5.13719 -18.07931,3.31668 z m 4.41841,-10.05537 c -1.36725,-3.56302 2.42286,-7.60592 7.13035,-7.60592 5.74204,0 6.97189,3.44709 2.51688,7.05451 -4.67325,3.78417 -8.32656,3.99299 -9.64723,0.55141 z m -14.30291,18.89026 c 4.19326,-6.78484 4.463,-9.54618 0.93254,-9.54618 -1.42763,0 -3.03472,-1.14413 -3.57134,-2.5425 -1.49452,-3.89465 -3.3801,-3.05329 -5.69795,2.5425 -1.67837,4.05193 -1.67837,6.11806 0,10.16999 2.68907,6.49197 3.99956,6.39391 8.33675,-0.62381 z m 117.73332,-24.00656 c -0.11407,-1.83541 -2.28584,-11.18759 -4.8262,-20.78262 -2.73792,-10.34119 -4.3791,-20.40771 -4.03013,-24.71954 0.40495,-5.0035 -0.0727,-7.27379 -1.53002,-7.27324 -1.16532,4.5e-4 -2.11876,1.01781 -2.11876,2.26081 0,3.56574 -4.61396,2.63664 -7.716,-1.55375 -2.73945,-3.70058 -2.79302,-3.57096 -1.80559,4.36847 0.55971,4.50021 3.00948,12.89046 5.44399,18.64498 2.43446,5.75453 6.03405,15.63633 7.99907,21.95954 2.59348,8.34561 4.28787,11.3509 6.18186,10.96461 1.43504,-0.29269 2.51584,-2.03387 2.40178,-3.86926 z m -49.79509,-2.15172 c 0,-2.61091 -1.50899,-11.57323 -3.35332,-19.91625 -1.84433,-8.34302 -3.36984,-19.29178 -3.39,-24.33058 -0.0362,-9.05331 -0.0768,-9.12524 -3.42669,-6.09354 -5.53932,5.01301 -4.23802,17.78176 3.85413,37.81798 3.03572,7.51645 3.2456,9.24433 1.27122,10.46456 -1.95641,1.20913 -1.9819,1.92303 -0.14764,4.13326 3.31345,3.99247 5.19222,3.24148 5.19222,-2.07543 z m -70.23585,-7.32989 c 3.48575,-3.70886 3.91018,-4.65 1.4156,-3.13902 -3.07763,1.86414 -8.48307,8.43601 -6.93872,8.43601 0.29961,0 2.78501,-2.38364 5.52312,-5.29699 z m 45.94662,-2.11716 c -3.13426,-4.72879 -8.92506,-6.16625 -6.59046,-1.63596 0.88364,1.71469 1.29806,3.97106 0.92097,5.01417 -0.43768,1.21065 0.8954,1.5943 3.68607,1.06083 4.04137,-0.77255 4.19124,-1.10799 1.98342,-4.43904 z m 15.81423,1.19079 c 0,-0.42663 -1.53918,-4.35361 -3.42041,-8.72662 -1.88122,-4.37301 -4.40211,-13.27008 -5.60197,-19.77125 -1.98756,-10.76902 -2.54771,-11.82347 -6.29793,-11.85578 -3.60454,-0.031 -4.25888,-1.0259 -5.26282,-8.00149 -2.12346,-14.75447 -4.89931,-15.25225 -9.93905,-1.78232 -2.00517,5.35928 -4.07747,14.89365 -4.60512,21.18749 -0.91624,10.92884 -0.79286,11.44335 2.744,11.44335 5.87564,0 16.00926,5.96216 22.33015,13.13805 3.19861,3.63126 6.76909,6.27422 7.93439,5.87327 1.16532,-0.40096 2.11876,-1.07808 2.11876,-1.5047 z m -46.12869,-7.09307 c 0.84854,-2.54557 -1.20697,-2.36485 -6.4163,0.56412 l -4.23749,2.38255 5.00381,-0.50406 c 2.75209,-0.27723 5.2946,-1.37641 5.64998,-2.44261 z m 141.02269,-18.46479 c -0.0264,-8.18564 -2.1942,-14.02361 -4.39146,-11.82635 -1.19279,1.19279 2.27715,19.87759 3.69148,19.87759 0.39925,0 0.71425,-3.62306 0.69998,-8.05124 z m 16.05383,-31.57648 c 4.69991,-3.0795 4.3992,-6.13727 -0.60354,-6.13727 -1.87021,0 -4.73698,3.15361 -7.52746,8.28063 -5.63582,10.35486 -5.90181,14.89914 -0.39802,6.79957 2.25988,-3.32571 6.09793,-7.35003 8.52902,-8.94293 z m -114.32128,5.68772 c 1.6747,-4.04304 1.70964,-6.17081 0.1573,-9.5779 -2.56583,-5.63141 -2.90031,-5.08093 -4.05752,6.67767 -1.02171,10.38196 0.37198,11.41831 3.90029,2.90023 z m 95.51536,-1.96383 c -2.27199,-4.28189 -3.13491,-4.91657 -3.61672,-2.6601 -0.34802,1.62995 0.56704,4.16338 2.03349,5.62982 1.46645,1.46644 2.72649,3.56522 2.80009,4.66394 0.10221,1.52674 0.32632,1.52528 0.95044,-0.006 0.44916,-1.10212 -0.52613,-4.53449 -2.1673,-7.6275 z m -53.83154,1.73631 c -3.07852,-4.3952 -3.65186,-2.9544 -0.88306,2.21913 1.00778,1.88306 2.2297,3.02636 2.71539,2.54068 0.48569,-0.48568 -0.33886,-2.6276 -1.83233,-4.75981 z m -50.83394,-9.76531 c -1.02224,-6.46526 -4.0912,-9.30544 -7.2354,-6.696 -1.60825,1.33472 -1.33643,2.93374 1.20807,7.10678 1.80578,2.96151 3.33443,7.29144 3.39701,9.62206 l 0.11373,4.2375 1.71643,-4.2375 c 0.94405,-2.33062 1.3041,-6.8454 0.80013,-10.03284 z m 58.28855,9.16045 c 0,-3.13719 -11.17354,-15.63906 -12.65413,-14.15847 -0.82956,0.82955 10.45759,16.16574 12.23038,16.6178 0.23307,0.0594 0.42375,-1.04726 0.42375,-2.45933 z m 55.89727,-12.52656 c 0.0287,-1.80945 -0.77655,-1.64458 -3.35231,0.68646 -1.86449,1.68735 -3.37302,4.66588 -3.3523,6.61895 0.0358,3.37629 0.20081,3.34251 3.3523,-0.68645 1.82304,-2.33063 3.33158,-5.30916 3.35231,-6.61896 z"
       id="path861"
       inkscape:connector-curvature="0" />
    <path
       style="fill:none;fill-opacity:1;stroke:#000000;stroke-width:0.199041;stroke-opacity:1"
       d="m -678.54158,-253.11922 c -0.48862,-0.54567 -0.97109,-1.09571 -1.4474,-1.65004"
       id="path1004"
       inkscape:connector-curvature="0" />
    <path
       style="display:inline;fill:none;fill-opacity:1;stroke:#000000;stroke-width:0.199041;stroke-opacity:1"
       d="m -655.95336,-323.61351 c 0.0419,-0.0573 0.0793,-0.10375 0.11167,-0.13855 0.1482,-0.15933 0.20713,-0.25797 0.0159,-0.56544"
       id="path1128"
       inkscape:connector-curvature="0" />
    <path
       style="display:inline;fill:none;fill-opacity:1;stroke:#000000;stroke-width:0.199041;stroke-opacity:1"
       d="m -695.72542,-279.18248 c -5.25829,-11.33447 -8.49408,-23.60613 -9.49384,-36.3612 -0.27525,-3.5116 -0.27503,-13.12651 4e-4,-16.6401 1.68738,-21.52857 9.72864,-41.70863 23.29358,-58.45673 17.04029,-21.03902 41.46142,-34.84589 67.92581,-38.40293 5.37374,-0.72228 8.35949,-0.90697 14.66228,-0.90697 6.30279,0 9.28854,0.18469 14.66227,0.90697 18.6058,2.50078 36.61124,10.20388 51.31983,21.9557 23.329,18.63932 37.57801,45.37444 39.89626,74.8565 0.0409,0.52007 0.0756,1.18529 0.10419,1.9519"
       id="path1014"
       inkscape:connector-curvature="0" />
    <path
       style="display:inline;fill:none;stroke:#000000;stroke-width:0.442883px;stroke-linecap:butt;stroke-linejoin:miter;stroke-opacity:1"
       d="m -695.72542,-279.18248 2.80245,-6.08777 c 0,0 1.69427,-3.80359 4.585,-6.66289 2.89073,-2.85931 5.0902,-5.34157 10.02329,-7.38393 4.93309,-2.04236 8.01796,-3.39284 10.4946,-3.58199 2.47663,-0.18915 2.47663,-0.18915 2.47663,-0.18915 l 1.01109,-11.31092 1.86158,-16.29584 c 0,0 2.66616,-9.33155 4.17698,-12.17545 1.51082,-2.8439 4.17698,-7.02088 5.86555,-9.06493 1.68856,-2.04405 3.91036,-5.33231 7.82072,-6.75426 3.91036,-1.42195 4.62134,-0.97759 4.62134,-0.97759 0,0 1.68857,-0.62211 8.17621,2.31067 6.48765,2.93277 7.9096,2.57728 9.59816,4.97682 1.68857,2.39954 1.5997,2.48841 1.5997,2.48841 0,0 0.6221,1.06646 1.86631,0 1.2442,-1.06646 6.48764,-6.22103 7.19862,-7.02088 0.71098,-0.79984 4.53247,-4.04367 6.1766,-4.17698 1.64413,-0.1333 2.08849,-0.57766 6.70982,0.71098 4.62134,1.28864 10.66463,2.93277 12.93086,4.35472 2.26624,1.42195 8.35396,5.86555 9.55373,8.13178 1.19977,2.26623 3.51044,5.24344 4.31029,10.04252 0.79984,4.79908 0.9544,3.94459 0.9544,3.94459 0,0 3.84468,-8.47705 4.68896,-9.76569 0.84429,-1.28865 4.79908,-7.42081 8.75388,-9.46486 3.9548,-2.04405 5.24344,-2.75503 5.24344,-2.75503 0,0 1.15534,-0.26661 1.77744,-0.35549 0.6221,-0.0889 0.4888,-0.35548 1.82187,-0.0444 1.33308,0.31105 1.37752,0.0444 3.24383,0.71097 1.86631,0.66654 1.59969,0.44436 3.42157,1.24421 1.82187,0.79984 3.11051,1.28864 3.68818,1.64413 0.57766,0.35549 6.98043,4.22109 6.98043,4.22109 0,0 3.41758,-5.24312 4.75066,-6.30958 1.33308,-1.06646 2.13292,-1.24421 2.79946,-1.33308 0.66654,-0.0889 0.48879,-0.0889 1.55526,-0.0889 1.06646,0 1.37751,-0.13331 2.31067,0.0444 0.93315,0.17774 1.02202,0.22218 1.733,0.22218 0.71098,0 4.08811,0.44436 4.08811,0.44436 0,0 4.66577,0.97758 5.46562,1.33307 0.79984,0.35549 1.733,0.57767 2.66615,1.42195 0.93316,0.84429 1.42195,1.19977 2.13293,2.08849 0.71097,0.88872 1.59969,1.99962 2.39954,3.06608 0.79985,1.06646 1.68856,2.75503 2.44398,4.13254 0.75541,1.37752 5.59187,13.16875 5.59187,13.16875"
       id="path1192"
       inkscape:connector-curvature="0" />
  </g>
  <g
     inkscape:groupmode="layer"
     id="layer4"
     inkscape:label="background"
     style="display:inline">
    <path
       style="display:inline;fill:none;fill-opacity:1;stroke:#000000;stroke-width:1.695;stroke-opacity:1"
       d="m -25.744975,-316.9699 c 1.40382,-2.06784 2.45345,-4.3168 2.47072,-5.40786 v 0 c 0.0287,-1.80945 -0.77655,-1.64458 -3.35231,0.68646 -1.32058,1.19512 -2.4626,3.03797 -3.00915,4.70542"
       id="path1363"
       inkscape:connector-curvature="0" />
    <path
       style="display:inline;fill:none;fill-opacity:1;stroke:#000000;stroke-width:1.695;stroke-opacity:1"
       d="m -86.335155,-315.08435 c 2.84378,3.82666 5.88864,7.47541 6.73988,7.69248 0.23307,0.0594 0.42375,-1.04726 0.42375,-2.45933 v 0 c 0,-1.81519 -3.74071,-6.76551 -7.18015,-10.32847"
       id="path1312"
       inkscape:connector-curvature="0" />
    <path
       style="display:inline;fill:none;fill-opacity:1;stroke:#000000;stroke-width:1.695;stroke-opacity:1"
       d="m -87.163735,-321.00037 c -2.18405,-2.15025 -4.10607,-3.56515 -4.66192,-3.0093 -0.21213,0.21212 0.36802,1.37279 1.37877,2.99059"
       id="path1308"
       inkscape:connector-curvature="0" />
    <path
       style="display:inline;fill:none;fill-opacity:1;stroke:#000000;stroke-width:1.695;stroke-opacity:1"
       d="m -86.351675,-320.17967 c -0.27326,-0.28309 -0.54463,-0.55741 -0.81206,-0.8207"
       id="path1254"
       inkscape:connector-curvature="0" />
    <path
       style="display:inline;fill:none;fill-opacity:1;stroke:#000000;stroke-width:1.695;stroke-opacity:1"
       d="m -138.24687,-309.01203 c 0.93408,-2.34009 1.28835,-6.82726 0.78677,-9.99962 h 3e-5 v 0 c -1.02224,-6.46526 -4.0912,-9.30544 -7.2354,-6.696 -1.60825,1.33472 -1.33643,2.93374 1.20807,7.10678 1.7971,2.94727 3.31973,7.24984 3.39601,9.58831"
       id="path1267"
       inkscape:connector-curvature="0" />
    <path
       style="display:inline;fill:none;fill-opacity:1;stroke:#000000;stroke-width:1.695;stroke-opacity:1"
       d="m -87.111655,-306.33909 c 0.91244,1.46214 1.89465,2.27576 2.31785,1.85256 0.48569,-0.48568 -0.33886,-2.6276 -1.83233,-4.75981 v 0 c -0.0357,-0.051 -0.0711,-0.10128 -0.10622,-0.15074"
       id="path1315"
       inkscape:connector-curvature="0" />
    <path
       style="display:inline;fill:none;fill-opacity:1;stroke:#000000;stroke-width:1.695;stroke-opacity:1"
       d="m -30.634685,-305.18986 c -0.28612,-1.56901 -1.07844,-3.75456 -2.15991,-5.79274 v -5e-5 0 c -2.27199,-4.28189 -3.13491,-4.91657 -3.61672,-2.6601 -0.34802,1.62995 0.56704,4.16338 2.03349,5.62982 0.82247,0.82247 1.58002,1.84384 2.09973,2.77613"
       id="path1349"
       inkscape:connector-curvature="0" />
    <path
       style="display:inline;fill:none;fill-opacity:1;stroke:#000000;stroke-width:1.695;stroke-opacity:1"
       d="m -128.30988,-309.01882 c 0,0 0,0 0,0 h -7e-5 v 0 c 1.6747,-4.04304 1.70964,-6.17081 0.1573,-9.5779 -2.56583,-5.63141 -2.90031,-5.08093 -4.05752,6.67767 -0.12284,1.24822 -0.21076,2.36135 -0.26426,3.33902"
       id="path1276"
       inkscape:connector-curvature="0" />
    <path
       style="display:inline;fill:none;fill-opacity:1;stroke:#000000;stroke-width:1.695;stroke-opacity:1"
       d="m -130.44426,-304.587 c 0.59057,-0.94893 1.30325,-2.42529 2.13438,-4.43182"
       id="path1274"
       inkscape:connector-curvature="0" />
    <path
       style="display:inline;fill:none;fill-opacity:1;stroke:#000000;stroke-width:1.695;stroke-opacity:1"
       d="m -132.42777,-304.59295 c 0.24807,1.71315 0.91645,1.7205 1.98351,0.006"
       id="path1272"
       inkscape:connector-curvature="0" />
    <path
       style="display:inline;fill:none;fill-opacity:1;stroke:#000000;stroke-width:1.695;stroke-opacity:1"
       d="m -22.937965,-305.15354 c 0.13614,-0.19478 0.27623,-0.3981 0.42027,-0.61007 2.25988,-3.32571 6.09793,-7.35003 8.52902,-8.94293 v 0 c 4.6999101,-3.0795 4.3992001,-6.13727 -0.60354,-6.13727 -1.87021,0 -4.73698,3.15361 -7.52746,8.28063 -1.6403,3.01378 -2.82572,5.53534 -3.54641,7.39621"
       id="path1346"
       inkscape:connector-curvature="0" />
    <path
       style="display:inline;fill:none;fill-opacity:1;stroke:#000000;stroke-width:1.695;stroke-opacity:1"
       d="m -30.042505,-283.13006 c -0.0264,-8.18564 -2.1942,-14.02361 -4.39146,-11.82635 -1.19279,1.19279 2.27715,19.87759 3.69148,19.87759 0.39925,0 0.71425,-3.62306 0.69998,-8.05124 v 0"
       id="path1242"
       inkscape:connector-curvature="0" />
    <path
       style="display:inline;fill:none;fill-opacity:1;stroke:#000000;stroke-width:1.695;stroke-opacity:1"
       d="m -149.45759,-272.87054 c 4.99057,2.37004 10.48586,6.40905 14.46794,10.92977 3.19861,3.63126 6.76909,6.27422 7.93439,5.87327 1.16532,-0.40096 2.11876,-1.07808 2.11876,-1.5047 v 0 c 0,-0.42663 -1.53918,-4.35361 -3.42041,-8.72662 -1.88122,-4.37301 -4.40211,-13.27008 -5.60197,-19.77125 -1.98756,-10.76902 -2.54771,-11.82347 -6.29793,-11.85578 -2.25337,-0.0194 -3.35377,-0.41548 -4.10739,-2.41392"
       id="path1395"
       inkscape:connector-curvature="0" />
    <path
       style="display:inline;fill:none;fill-opacity:1;stroke:#000000;stroke-width:1.695;stroke-opacity:1"
       d="m -146.37902,-310.93379 c -2.01931,-9.64342 -4.69119,-8.50511 -9.07966,3.22413 -2.00517,5.35928 -4.07747,14.89365 -4.60512,21.18749 -0.91624,10.92884 -0.79286,11.44335 2.744,11.44335 0.31199,0 0.63599,0.0168 0.97078,0.0497"
       id="path1261"
       inkscape:connector-curvature="0" />
    <path
       style="display:inline;fill:none;fill-opacity:1;stroke:#000000;stroke-width:1.695;stroke-opacity:1"
       d="m -116.4615,-249.31594 c 0,-2.61091 -1.50899,-11.57323 -3.35332,-19.91625 -1.84433,-8.34302 -3.36984,-19.29178 -3.39,-24.33058 -0.0362,-9.05331 -0.0768,-9.12524 -3.42669,-6.09354 -5.53932,5.01301 -4.23802,17.78176 3.85413,37.81798 3.03572,7.51645 3.2456,9.24433 1.27122,10.46456 -1.95641,1.20913 -1.9819,1.92303 -0.14764,4.13326 3.31345,3.99247 5.19222,3.24148 5.19222,-2.07543 h 8e-5 v 0"
       id="path1232"
       inkscape:connector-curvature="0" />
    <path
       style="display:inline;fill:none;fill-opacity:1;stroke:#000000;stroke-width:1.695;stroke-opacity:1"
       d="m -66.666415,-247.16422 c -0.11407,-1.83542 -2.28584,-11.18759 -4.8262,-20.78262 -2.73792,-10.34119 -4.3791,-20.40771 -4.03013,-24.71954 0.40495,-5.0035 -0.0727,-7.27379 -1.53002,-7.27324 -1.16532,4.5e-4 -2.11876,1.01781 -2.11876,2.26081 0,3.56574 -4.61396,2.63664 -7.716,-1.55375 -2.73945,-3.70058 -2.79302,-3.57096 -1.80559,4.36847 0.55971,4.50021 3.00948,12.89046 5.44399,18.64498 2.43446,5.75453 6.03405,15.63633 7.99907,21.95953 2.59348,8.34562 4.28787,11.35091 6.18186,10.96462 1.43504,-0.2927 2.51584,-2.03387 2.40178,-3.86926 v 0"
       id="path1230"
       inkscape:connector-curvature="0" />
    <path
       style="display:inline;fill:none;fill-opacity:1;stroke:#000000;stroke-width:1.695;stroke-opacity:1"
       d="m -170.09682,-242.04792 c -1.36725,-3.56302 2.42286,-7.60592 7.13035,-7.60592 5.74204,0 6.97189,3.44709 2.51688,7.0545 -4.67325,3.78418 -8.32656,3.993 -9.64723,0.55142 v 0"
       id="path1226"
       inkscape:connector-curvature="0" />
    <path
       style="display:inline;fill:none;fill-opacity:1;stroke:#000000;stroke-width:1.695;stroke-opacity:1"
       d="m -174.51523,-231.99255 c -2.57657,-2.58678 -1.13717,-4.10129 3.89792,-4.10129 6.76187,0 14.65077,-4.16626 16.01242,-8.45641 1.08498,-3.41849 2.79651,-4.29046 4.695,-2.39198 1.67462,1.67463 -2.3926,8.92468 -6.52603,11.63301 -4.56397,2.99043 -16.26601,5.13718 -18.07931,3.31667 v 0"
       id="path1224"
       inkscape:connector-curvature="0" />
    <path
       style="display:inline;fill:none;fill-opacity:1;stroke:#000000;stroke-width:1.695;stroke-opacity:1"
       d="m -158.96134,-268.1738 c -0.0871,-0.002 -0.17373,-0.004 -0.25987,-0.006 -4.94268,-0.0932 -6.92129,0.80286 -9.09369,4.11837 -1.81926,2.77655 -4.34384,4.2375 -7.32258,4.2375 -7.53134,0 -20.57142,15.35236 -20.42118,24.0423 0.0656,3.79812 0.14933,3.775 2.58534,-0.71453 2.58788,-4.76943 8.94194,-7.49445 13.4455,-5.76628 3.85859,1.48067 3.07746,9.7496 -1.78486,18.89436 -5.25608,9.88532 -3.92654,11.44247 8.97975,10.51702 3.90621,-0.28011 6.7858,-0.86354 10.1394,-2.39173"
       id="path1390"
       inkscape:connector-curvature="0" />
    <path
       style="display:inline;fill:none;fill-opacity:1;stroke:#000000;stroke-width:1.695;stroke-opacity:1"
       d="m -147.19571,-225.11317 c 10.30821,-7.57214 12.6401,-11.66012 12.8009,-20.02136 l 0.13578,-7.06181 -8.99194,0.55397 c -5.30333,0.32671 -9.99668,-0.2799 -11.44125,-1.47879 -4.09461,-3.39824 -2.8395,-7.82478 2.89181,-10.19875 4.68867,-1.94212 4.94748,-2.36679 2.11874,-3.47651 -0.52284,-0.20511 -1.26503,-0.40388 -2.14086,-0.58389"
       id="path1220"
       inkscape:connector-curvature="0" />
    <path
       style="display:inline;fill:none;fill-opacity:1;stroke:#000000;stroke-width:1.695;stroke-opacity:1"
       d="m -95.516615,-320.67278 c -1.21408,-2.46013 -2.73762,-4.58315 -4.16303,-5.346 -4.692075,-2.51113 -11.474695,1.26442 -15.339175,8.53853 -4.20947,7.92346 -4.11483,25.41424 0.25231,46.63893 1.86451,9.06161 3.39,18.71033 3.39,21.4416 0,10.91589 -12.65598,26.86588 -21.31755,26.86588 -5.60507,0 -5.15533,-1.21168 1.47859,-3.98351 3.07231,-1.28369 6.8346,-4.23953 8.36063,-6.56855 2.68162,-4.09269 2.61223,-4.35457 -2.07161,-7.81749 l -4.84619,-3.58293 -2.77027,7.16249 c -1.693,4.37719 -5.80037,9.10295 -11.045,13.40346"
       id="path1320"
       inkscape:connector-curvature="0" />
    <path
       style="display:inline;fill:none;fill-opacity:1;stroke:#000000;stroke-width:1.695;stroke-opacity:1"
       d="m -24.260055,-296.18989 c -1.31574,2.92069 -1.07148,5.29788 -0.19848,10.94108 0.79321,5.12736 1.10173,12.59274 0.68565,16.58972 -0.64802,6.22461 0.31337,9.14277 6.70095,20.34 7.8091501,13.68913 10.7601001,21.79467 10.7759101,29.59899 0.0136,6.86499 -2.78493,5.67007 -3.9701501,-1.695 -1.07771,-6.69709 -2.61679,-9.93913 -15.0873,-31.78124 -9.16307,-16.04908 -12.596,-27.05118 -14.57978,-46.72641 -1.54685,-15.34162 -5.1871,-23.61605 -10.38965,-23.61605 -4.72318,0 -12.05497,6.76756 -15.46436,14.27427 -4.30586,9.48057 -3.99159,21.44771 1.05576,40.20206 8.60521,31.97417 8.56735,31.56795 4.24982,45.59246 -4.23475,13.75563 -6.53345,13.64605 -3.5704,-0.17022 2.3407,-10.9143 1.0687,-16.77027 -3.38952,-15.60441 -1.82527,0.47731 -3.25494,2.32303 -3.25494,4.20217 0,1.9255 -1.44209,3.72812 -3.38998,4.2375 -1.9016,0.49728 -3.39,2.31202 -3.39,4.13326 0,4.69045 -4.60087,15.00286 -6.69352,15.00286 -0.9798,0 -1.78148,-1.03836 -1.78148,-2.30745 0,-1.51842 -1.38406,-2.04287 -4.04755,-1.53371 -4.4996,0.86015 -11.207435,-2.05895 -11.207435,-4.87722 0,-1.09401 1.689095,-1.39519 4.237495,-0.75558 3.65986,0.91857 4.2375,0.49514 4.2375,-3.10621 0,-6.7553 2.99466,-6.6509 6.7264,0.23447 l 3.47583,6.4132 -0.43987,-11.44481 c -0.24192,-6.29463 -0.11865,-11.44319 0.27417,-11.44124 0.39271,0.002 2.1089,1.26589 3.81375,2.80877 2.89143,2.6167 3.09971,2.60467 3.09971,-0.1791 0,-5.33808 -4.97347,-22.34788 -10.00914,-34.23236 -3.99229,-9.42204 -7.91691,-27.28798 -8.22834,-35.55468"
       id="path1356"
       inkscape:connector-curvature="0" />
    <path
       style="display:inline;fill:none;fill-opacity:1;stroke:#000000;stroke-width:1.695;stroke-opacity:1"
       d="m -162.64366,-212.57323 c -5.8713,2.37981 -11.54566,3.64713 -15.94849,3.15087 l -7.38218,-0.83208 5.7343,7.84403 c 12.90659,17.65518 38.07431,33.13197 62.08352,38.17801 20.138625,4.23255 35.183525,5.01861 51.340735,2.68237 16.06851,-2.3234 38.31348,-9.995 43.89333,-15.13744 7.05295,-6.50007 16.2174101,-23.01733 21.2054501,-38.21888 4.04384,-12.32403 4.46088,-16.10916 4.57541,-41.52749 0.11017,-24.4428 -0.34918,-29.46279 -3.64461997,-39.83247 -2.07387003,-6.52575 -4.44600003,-12.90006 -5.27140003,-14.16513 -2.19827,-3.36922 -6.8622901,-1.28744 -12.1462601,5.21768"
       id="path1218"
       inkscape:connector-curvature="0" />
    <path
       style="display:inline;fill:none;fill-opacity:1;stroke:#000000;stroke-width:0.199041;stroke-opacity:1"
       d="m -198.54096,-250.45627 c -5.25829,-11.33447 -8.49408,-23.60613 -9.49384,-36.3612 -0.27525,-3.5116 -0.27503,-13.12651 4e-4,-16.6401 1.68738,-21.52857 9.72864,-41.70863 23.29358,-58.45673 17.04029,-21.03902 41.46142,-34.84589 67.92581,-38.40293 5.37374,-0.72228 8.35949,-0.90697 14.66228,-0.90697 6.302785,0 9.288535,0.18469 14.662265,0.90697 18.6058,2.50078 36.61124,10.20388 51.31983,21.9557 23.329,18.63932 37.5780101,45.37444 39.8962601,74.8565 0.0409,0.52007 0.0756,1.18529 0.10419,1.9519"
       id="path1014-6"
       inkscape:connector-curvature="0" />
    <path
       style="display:inline;fill:none;stroke:#000000;stroke-width:0.442883px;stroke-linecap:butt;stroke-linejoin:miter;stroke-opacity:1"
       d="m -144.3642,-300.33977 11.93643,-4.25318"
       id="path1278"
       inkscape:connector-curvature="0" />
    <path
       style="display:inline;fill:none;stroke:#000000;stroke-width:0.442883px;stroke-linecap:butt;stroke-linejoin:miter;stroke-opacity:1"
       d="m -132.47443,-308.58003 -5.77244,-0.432"
       id="path1280"
       inkscape:connector-curvature="0" />
    <path
       style="display:inline;fill:none;stroke:#000000;stroke-width:0.442883px;stroke-linecap:butt;stroke-linejoin:miter;stroke-opacity:1"
       d="m -140.09139,-309.01256 -6.28763,-1.92123"
       id="path1282"
       inkscape:connector-curvature="0" />
    <path
       style="display:inline;fill:none;stroke:#000000;stroke-width:0.442883px;stroke-linecap:butt;stroke-linejoin:miter;stroke-opacity:1"
       d="m -95.516615,-320.67278 5.06973,-0.3463"
       id="path1322"
       inkscape:connector-curvature="0" />
    <path
       style="display:inline;fill:none;stroke:#000000;stroke-width:0.442883px;stroke-linecap:butt;stroke-linejoin:miter;stroke-opacity:1"
       d="m -94.019005,-306.64477 6.90735,0.30568"
       id="path1324"
       inkscape:connector-curvature="0" />
    <path
       style="display:inline;fill:none;stroke:#000000;stroke-width:0.442883px;stroke-linecap:butt;stroke-linejoin:miter;stroke-opacity:1"
       d="m -86.335155,-315.08435 -0.29098,5.83801"
       id="path1326"
       inkscape:connector-curvature="0" />
    <path
       style="display:inline;fill:none;stroke:#000000;stroke-width:0.442883px;stroke-linecap:butt;stroke-linejoin:miter;stroke-opacity:1"
       d="m -24.260055,-296.18989 -8.01804,-9.04691 m 9.34013,0.0833 4.7341,-0.0602"
       id="path1358"
       inkscape:connector-curvature="0" />
    <path
       style="display:inline;fill:none;stroke:#000000;stroke-width:0.442883px;stroke-linecap:butt;stroke-linejoin:miter;stroke-opacity:1"
       d="m -30.634685,-305.18986 0.99897,-11.79602"
       id="path1365"
       inkscape:connector-curvature="0" />
    <path
       style="display:inline;fill:none;stroke:#000000;stroke-width:0.442883px;stroke-linecap:butt;stroke-linejoin:miter;stroke-opacity:1"
       d="m -25.744975,-316.9699 0.0789,11.80293"
       id="path1367"
       inkscape:connector-curvature="0" />
    <path
       style="display:inline;fill:none;stroke:#000000;stroke-width:0.442883px;stroke-linecap:butt;stroke-linejoin:miter;stroke-opacity:1"
       d="m -157.41801,-274.91046 -2.50777,6.8505"
       id="path1397"
       inkscape:connector-curvature="0" />
    <path
       style="display:inline;fill:none;stroke:#000000;stroke-width:0.442883px;stroke-linecap:butt;stroke-linejoin:miter;stroke-opacity:1"
       d="m -148.54906,-273.13666 -2.07961,5.87185"
       id="path1399"
       inkscape:connector-curvature="0" />
    <path
       style="display:inline;fill:none;fill-opacity:1;stroke:#000000;stroke-width:0.199041;stroke-opacity:1"
       d="m -25.724005,-362.26192 c 0.32366,-0.35578 0.59111,-0.74495 0.59431,-0.86482 0.0136,-0.50314 -1.67879,-2.71943 -3.68522,-4.82641 -6.95694,-7.30552 -19.0065,-15.82339 -29.4793,-20.83902 -8.1293,-3.89328 -18.17936,-7.12597 -26.54423,-8.53819 -3.70945,-0.62625 -4.3306,-0.63299 -1.6754,-0.0182 7.1959,1.66624 13.9573,4.82745 19.4668,9.10147 2.739,2.12479 6.60639,6.07528 8.67035,8.85664 l 1.47981,1.99419 2.20244,0.12042 c 9.64772,0.5275 16.8307,4.11758 25.3842,12.68711 1.59093,1.59393 2.91627,2.91507 2.94519,2.93586 0.0289,0.0208 0.31739,-0.2533 0.64105,-0.60908 v -10e-6 0"
       id="path1170-7"
       inkscape:connector-curvature="0" />
    <path
       style="display:inline;fill:none;fill-opacity:1;stroke:#000000;stroke-width:0.199041;stroke-opacity:1"
       d="m -97.972875,-347.34415 c 9.48126,-3.63226 19.26366,-5.57945 29.39811,-5.85171 l 4.41846,-0.11869 0.78288,-2.20959 c 2.75659,-7.78015 5.4078,-17.62822 5.4078,-20.08758 0,-0.39376 -3.07234,-4.40233 -4.93647,-6.44076 -4.34222,-4.74822 -10.56705,-8.9532 -16.91032,-11.42319 -3.9647,-1.54381 -13.40055,-3.74029 -20.09477,-4.67766 -3.082925,-0.4317 -6.300705,-0.30213 -12.595685,0.50722 -5.96281,0.76664 -9.39639,1.38841 -12.1415,2.19866 -2.43273,0.71804 -5.33944,2.05751 -5.52045,2.54392 -0.0691,0.18569 -0.45742,0.78546 -0.86292,1.33282 -2.77575,3.74688 -4.63198,10.03431 -5.64122,19.10795 -0.37185,3.34307 -0.78662,10.37149 -0.63532,10.76575 0.0593,0.15457 0.28372,0.28102 0.49871,0.28102 0.82447,0 5.10802,1.23034 7.62045,2.18878 6.65303,2.53798 15.71556,8.13548 21.65224,13.37358 l 1.88486,1.66306 2.39452,-1.02396 c 1.317,-0.56318 3.693275,-1.52151 5.280625,-2.12962 v 0"
       id="path1168-0"
       inkscape:connector-curvature="0" />
    <path
       style="display:inline;fill:none;fill-opacity:1;stroke:#000000;stroke-width:0.199041;stroke-opacity:1"
       d="m -194.02875,-330.64115 c 2.27239,-0.67394 5.06765,-1.24101 7.56498,-1.53469 2.15197,-0.25306 12.70916,-0.12196 14.61812,0.18153 l 1.06615,0.1695 0.36006,-0.83997 c 2.18125,-5.08866 9.11391,-13.9254 15.21687,-19.39628 4.74012,-4.24919 10.16317,-7.66879 14.23666,-8.97719 l 1.69203,-0.54347 0.13673,-2.05683 c 0.3943,-5.93109 0.63189,-8.53718 1.05854,-11.61079 0.89275,-6.43132 1.86643,-10.16898 3.5983,-13.8127 0.59297,-1.24758 1.07814,-2.35517 1.07814,-2.46131 0,-0.11921 -1.00828,-0.16037 -2.6373,-0.10766 -2.4158,0.0782 -2.82117,0.14865 -4.82674,0.8393 -11.93988,4.11168 -24.59794,12.91116 -34.81269,24.20065 -7.98239,8.82227 -13.24894,15.75773 -16.81672,22.14575 -2.40729,4.31014 -3.9344,8.97097 -4.14982,12.66535 l -0.10903,1.8698 0.47645,-0.1026 c 0.26205,-0.0564 1.27426,-0.3392 2.24927,-0.62839 v 0"
       id="path1166-8"
       inkscape:connector-curvature="0" />
    <path
       style="display:inline;fill:none;fill-opacity:1;stroke:#000000;stroke-width:0.199041;stroke-opacity:1"
       d="m 0.11638513,-310.8253 c -0.12754,-0.92809 -0.28266,-1.91149 -0.46963,-2.99553 -0.88243003,-5.11655 -2.99140003,-12.70963 -5.07936003,-18.28755 -4.08437,-10.91132 -10.9779501,-22.53639 -16.4155001,-27.68248 l -1.95209,-1.84744 -0.68211,0.68211 -0.6821,0.68211 1.02888,1.27018 c 4.29073,5.29697 7.98975,12.5987 9.26469,18.28818 0.50421,2.2501 0.62558,8.61509 0.21962,11.51785 l -0.3164,2.26245 0.45958,0.69193"
       id="path1162-1"
       inkscape:connector-curvature="0" />
    <path
       style="display:inline;fill:none;fill-opacity:1;stroke:#000000;stroke-width:0.199041;stroke-opacity:1"
       d="m -36.166715,-321.3468 c -0.30727,-1.8627 -0.66908,-2.74476 -1.44061,-4.14228 -2.82791,-5.12243 -6.81144,-10.24913 -11.99272,-15.43434 -3.6992,-3.70201 -6.61681,-6.18324 -10.60513,-9.01895 l -2.14003,-1.52157 h -4.15843 c -11.72534,0 -23.11063,2.43391 -35.251015,7.53584 -2.13472,0.8971 -3.97715,1.69578 -4.09431,1.77485 -0.17487,0.11802 -0.85823,2.52231 -2.65625,9.40753"
       id="path1152-2"
       inkscape:connector-curvature="0" />
    <path
       style="display:inline;fill:none;fill-opacity:1;stroke:#000000;stroke-width:0.199041;stroke-opacity:1"
       d="m -164.68539,-303.76075 c -2.01938,-3.30999 -3.6943,-6.84919 -4.81223,-10.24328 -1.61179,-4.8934 -1.82043,-6.22441 -1.82123,-11.61818 v -4.51204 l -0.79617,-0.11108 c -1.93145,-0.26948 -12.19917,-0.36659 -14.23143,-0.1346 -4.70603,0.53723 -10.37583,2.11232 -11.65895,3.23891 -2.79791,2.45663 -5.332,11.22539 -6.64577,22.9966 -1.00415,8.99722 -0.0939,20.68186 2.57869,33.10228 1.64885,7.66257 2.99194,11.44434 4.67405,13.16084 0.48868,0.49865 1.03978,0.94355 1.65992,1.33726"
       id="path1132-3"
       inkscape:connector-curvature="0" />
    <path
       style="display:inline;fill:none;fill-opacity:1;stroke:#000000;stroke-width:0.199041;stroke-opacity:1"
       d="m -158.76889,-294.8873 c 0.0419,-0.0573 0.0793,-0.10375 0.11166,-0.13855 0.1482,-0.15933 0.20713,-0.25797 0.0159,-0.56544"
       id="path1128-1"
       inkscape:connector-curvature="0" />
    <path
       style="display:inline;fill:none;fill-opacity:1;stroke:#000000;stroke-width:0.199041;stroke-opacity:1"
       d="m -198.54096,-250.45627 c -5.25829,-11.33447 -8.49408,-23.60613 -9.49384,-36.3612 -0.27525,-3.5116 -0.27503,-13.12651 4e-4,-16.6401 1.68738,-21.52857 9.72864,-41.70863 23.29358,-58.45673 17.04029,-21.03902 41.46142,-34.84589 67.92581,-38.40293 5.37374,-0.72228 8.35949,-0.90697 14.66228,-0.90697 6.302785,0 9.288535,0.18469 14.662265,0.90697 18.6058,2.50078 36.61124,10.20388 51.31983,21.9557 23.329,18.63932 37.5780101,45.37444 39.8962601,74.8565 0.0409,0.52007 0.0756,1.18529 0.10419,1.9519"
       id="path1014-1"
       inkscape:connector-curvature="0" />
    <path
       style="display:inline;fill:none;stroke:#000000;stroke-width:0.442883px;stroke-linecap:butt;stroke-linejoin:miter;stroke-opacity:1"
       d="m -198.54096,-250.45627 2.80245,-6.08777 c 0,0 1.69427,-3.80359 4.585,-6.6629 2.89073,-2.8593 5.0902,-5.34156 10.02329,-7.38392 4.93309,-2.04236 8.01796,-3.39284 10.4946,-3.58199 2.47663,-0.18915 2.47663,-0.18915 2.47663,-0.18915 l 1.0111,-11.31092 1.86158,-16.29584 c 0,0 2.66615,-9.33155 4.17697,-12.17545 1.51082,-2.8439 4.17698,-7.02088 5.86555,-9.06493 1.68856,-2.04405 3.91036,-5.33231 7.82072,-6.75426 3.91036,-1.42195 4.62134,-0.97759 4.62134,-0.97759 0,0 1.68857,-0.62211 8.17621,2.31067 6.48765,2.93277 7.9096,2.57728 9.59817,4.97682 1.68856,2.39954 1.59969,2.48841 1.59969,2.48841 0,0 0.6221,1.06646 1.86631,0 1.24421,-1.06646 6.48764,-6.22103 7.19862,-7.02088 0.71098,-0.79984 4.53247,-4.04367 6.1766,-4.17698 1.64413,-0.1333 2.08849,-0.57766 6.70982,0.71098 4.621335,1.28864 10.664625,2.93277 12.930855,4.35472 2.26624,1.42195 8.35396,5.86555 9.55373,8.13178 1.19977,2.26623 3.51044,5.24344 4.31029,10.04252 0.79984,4.79908 0.9544,3.94459 0.9544,3.94459 0,0 3.84468,-8.47705 4.68896,-9.76569 0.84429,-1.28865 4.79908,-7.42081 8.75388,-9.46486 3.9548,-2.04405 5.24344,-2.75503 5.24344,-2.75503 0,0 1.15534,-0.26661 1.77744,-0.35549 0.6221,-0.0889 0.4888,-0.35548 1.82187,-0.0444 1.33308,0.31105 1.37752,0.0444 3.24383,0.71097 1.86631,0.66654 1.59969,0.44436 3.42157,1.24421 1.82187,0.79984 3.11051,1.28864 3.68818,1.64413 0.57766,0.35549 6.98043,4.22109 6.98043,4.22109 0,0 3.41758,-5.24312 4.75066,-6.30958 1.33308,-1.06646 2.13292,-1.24421 2.79946,-1.33308 0.66654,-0.0889 0.48879,-0.0889 1.55526,-0.0889 1.06646,0 1.37751,-0.13331 2.31067,0.0444 0.93315,0.17774 1.02202,0.22218 1.733,0.22218 0.71098,0 4.08811,0.44436 4.08811,0.44436 0,0 4.66577,0.97758 5.46562,1.33307 0.79984,0.35549 1.7330001,0.57767 2.6661501,1.42195 0.93316,0.84429 1.42195,1.19977 2.13293,2.08849 0.71097,0.88872 1.59969,1.99962 2.39954,3.06608 0.79985,1.06646 1.68856,2.75503 2.44398,4.13254 0.75541,1.37752 5.59187,13.16875 5.59187,13.16875"
       id="path1192-1"
       inkscape:connector-curvature="0" />
    <path
       style="fill:none;stroke:#000000;stroke-width:0.442883px;stroke-linecap:butt;stroke-linejoin:miter;stroke-opacity:1"
       d="m -196.72488,-233.23432 0.865,8.30406"
       id="path1553"
       inkscape:connector-curvature="0" />
    <path
       style="fill:none;stroke:#000000;stroke-width:0.442883px;stroke-linecap:butt;stroke-linejoin:miter;stroke-opacity:1"
       d="m -192.57285,-218.18321 -3.28703,-6.74705"
       id="path1555"
       inkscape:connector-curvature="0" />
    <path
       style="fill:none;stroke:#000000;stroke-width:0.442883px;stroke-linecap:butt;stroke-linejoin:miter;stroke-opacity:1"
       d="m -192.57285,-218.18321 6.59852,7.92877"
       id="path1557"
       inkscape:connector-curvature="0" />
    <path
       style="fill:none;stroke:#000000;stroke-width:0.442883px;stroke-linecap:butt;stroke-linejoin:miter;stroke-opacity:1"
       d="m -147.76552,-265.75857 5.01704,2.94103 4.15203,5.01703 4.33742,5.60417"
       id="path1559"
       inkscape:connector-curvature="0" />
  </g>
</svg>
