  0
SECTION
  2
HEADER
  9
$ACADVER
  1
AC1014
  9
$HANDSEED
  5
FFFF
  9
$MEASUREMENT
 70
     1
  0
ENDSEC
  0
SECTION
  2
TABLES
  0
TABLE
  2
VPORT
  5
8
330
0
100
AcDbSymbolTable
 70
     4
  0
VPORT
  5
2E
330
8
100
AcDbSymbolTableRecord
100
AcDbViewportTableRecord
  2
*ACTIVE
 70
     0
 10
0.0
 20
0.0
 11
1.0
 21
1.0
 12
210.0
 22
148.5
 13
0.0
 23
0.0
 14
10.0
 24
10.0
 15
10.0
 25
10.0
 16
0.0
 26
0.0
 36
1.0
 17
0.0
 27
0.0
 37
0.0
 40
341.0
 41
1.24
 42
50.0
 43
0.0
 44
0.0
 50
0.0
 51
0.0
 71
     0
 72
   100
 73
     1
 74
     3
 75
     0
 76
     0
 77
     0
 78
     0
  0
ENDTAB
  0
TABLE
  2
LTYPE
  5
5
330
0
100
AcDbSymbolTable
 70
     1
  0
LTYPE
  5
14
330
5
100
AcDbSymbolTableRecord
100
AcDbLinetypeTableRecord
  2
BYBLOCK
 70
     0
  3

 72
    65
 73
     0
 40
0.0
  0
LTYPE
  5
15
330
5
100
AcDbSymbolTableRecord
100
AcDbLinetypeTableRecord
  2
BYLAYER
 70
     0
  3

 72
    65
 73
     0
 40
0.0
  0
LTYPE
  5
16
330
5
100
AcDbSymbolTableRecord
100
AcDbLinetypeTableRecord
  2
CONTINUOUS
 70
     0
  3
Solid line
 72
    65
 73
     0
 40
0.0
  0
ENDTAB
  0
TABLE
  2
LAYER
  5
2
100
AcDbSymbolTable
 70
4
  0
LAYER
  5
50
100
AcDbSymbolTableRecord
100
AcDbLayerTableRecord
  2
0
 70
0
  6
CONTINUOUS
  0
LAYER
  5
51
100
AcDbSymbolTableRecord
100
AcDbLayerTableRecord
  2
Layer_1
 70
0
  6
CONTINUOUS
  0
LAYER
  5
52
100
AcDbSymbolTableRecord
100
AcDbLayerTableRecord
  2
slothtrace
 70
0
  6
CONTINUOUS
  0
LAYER
  5
53
100
AcDbSymbolTableRecord
100
AcDbLayerTableRecord
  2
background
 70
0
  6
CONTINUOUS
  0
ENDTAB
  0
TABLE
  2
STYLE
  5
3
330
0
100
AcDbSymbolTable
 70
     1
  0
STYLE
  5
11
330
3
100
AcDbSymbolTableRecord
100
AcDbTextStyleTableRecord
  2
STANDARD
 70
     0
 40
0.0
 41
1.0
 50
0.0
 71
     0
 42
2.5
  3
txt
  4

  0
ENDTAB
  0
TABLE
  2
VIEW
  5
6
330
0
100
AcDbSymbolTable
 70
     0
  0
ENDTAB
  0
TABLE
  2
UCS
  5
7
330
0
100
AcDbSymbolTable
 70
     0
  0
ENDTAB
  0
TABLE
  2
APPID
  5
9
330
0
100
AcDbSymbolTable
 70
     2
  0
APPID
  5
12
330
9
100
AcDbSymbolTableRecord
100
AcDbRegAppTableRecord
  2
ACAD
 70
     0
  0
ENDTAB
  0
TABLE
  2
DIMSTYLE
  5
A
330
0
100
AcDbSymbolTable
 70
     1
  0
DIMSTYLE
105
27
330
A
100
AcDbSymbolTableRecord
100
AcDbDimStyleTableRecord
  2
ISO-25
 70
     0
  3

  4

  5

  6

  7

 40
1.0
 41
2.5
 42
0.625
 43
3.75
 44
1.25
 45
0.0
 46
0.0
 47
0.0
 48
0.0
140
2.5
141
2.5
142
0.0
143
0.03937007874016
144
1.0
145
0.0
146
1.0
147
0.625
 71
     0
 72
     0
 73
     0
 74
     0
 75
     0
 76
     0
 77
     1
 78
     8
170
     0
171
     3
172
     1
173
     0
174
     0
175
     0
176
     0
177
     0
178
     0
270
     2
271
     2
272
     2
273
     2
274
     3
340
11
275
     0
280
     0
281
     0
282
     0
283
     0
284
     8
285
     0
286
     0
287
     3
288
     0
  0
ENDTAB
  0
TABLE
  2
BLOCK_RECORD
  5
1
330
0
100
AcDbSymbolTable
 70
     1
  0
BLOCK_RECORD
  5
1F
330
1
100
AcDbSymbolTableRecord
100
AcDbBlockTableRecord
  2
*MODEL_SPACE
  0
BLOCK_RECORD
  5
1B
330
1
100
AcDbSymbolTableRecord
100
AcDbBlockTableRecord
  2
*PAPER_SPACE
  0
ENDTAB
  0
ENDSEC
  0
SECTION
  2
BLOCKS
  0
BLOCK
  5
20
330
1F
100
AcDbEntity
  8
0
100
AcDbBlockBegin
  2
*MODEL_SPACE
 70
     0
 10
0.0
 20
0.0
 30
0.0
  3
*MODEL_SPACE
  1

  0
ENDBLK
  5
21
330
1F
100
AcDbEntity
  8
0
100
AcDbBlockEnd
  0
BLOCK
  5
1C
330
1B
100
AcDbEntity
 67
     1
  8
0
100
AcDbBlockBegin
  2
*PAPER_SPACE
  1

  0
ENDBLK
  5
1D
330
1B
100
AcDbEntity
 67
     1
  8
0
100
AcDbBlockEnd
  0
ENDSEC
  0
SECTION
  2
ENTITIES
  0
LINE
  5
100
100
AcDbEntity
  8
slothtrace
 62
7
100
AcDbLine
 10
-177.455841
 20
126.999201
 30
0.0
 11
-176.038788
 21
127.287922
 31
0.0
  0
LINE
  5
101
100
AcDbEntity
  8
slothtrace
 62
7
100
AcDbLine
 10
-176.038788
 20
127.287922
 30
0.0
 11
-175.741793
 21
131.082616
 31
0.0
  0
SPLINE
  5
102
100
AcDbEntity
  8
slothtrace
 62
7
100
AcDbSpline
 70
0
 71
3
 72
16
 73
12
 74
10
 40
0.000000
 40
0.000000
 40
0.000000
 40
0.000000
 40
6.394884
 40
12.430783
 40
17.970723
 40
22.166097
 40
26.877638
 40
31.060242
 40
37.033985
 40
42.509168
 40
47.839564
 40
47.839564
 40
47.839564
 40
47.839564
 10
-160.790856
 20
95.415608
 30
0.0
 10
-162.883246
 20
95.851706
 30
0.0
 10
-166.950567
 20
96.699421
 30
0.0
 10
-172.454809
 20
99.153088
 30
0.0
 10
-176.868044
 20
102.108610
 30
0.0
 10
-180.022158
 20
105.795066
 30
0.0
 10
-182.380620
 20
109.464498
 30
0.0
 10
-184.611732
 20
113.938351
 30
0.0
 10
-185.025701
 20
119.305367
 30
0.0
 10
-182.574057
 20
124.841230
 30
0.0
 10
-179.146604
 20
126.286332
 30
0.0
 10
-177.455841
 20
126.999201
 30
0.0
 11
-160.790856
 21
95.415608
 31
0.0
 11
-166.999243
 21
96.948732
 31
0.0
 11
-172.523437
 21
99.380883
 31
0.0
 11
-177.050401
 21
102.574241
 31
0.0
 11
-179.834084
 21
105.713073
 31
0.0
 11
-182.400756
 21
109.664126
 31
0.0
 11
-184.130085
 21
113.472484
 31
0.0
 11
-184.500940
 21
119.434704
 31
0.0
 11
-182.078275
 21
124.344727
 31
0.0
 11
-177.455841
 21
126.999201
 31
0.0
  0
LINE
  5
103
100
AcDbEntity
  8
slothtrace
 62
7
100
AcDbLine
 10
-151.363450
 20
136.851866
 30
0.0
 11
-151.053665
 21
135.441417
 31
0.0
  0
LINE
  5
104
100
AcDbEntity
  8
slothtrace
 62
7
100
AcDbLine
 10
-151.053665
 20
135.441417
 30
0.0
 11
-150.268107
 21
137.196026
 31
0.0
  0
SPLINE
  5
105
100
AcDbEntity
  8
slothtrace
 62
7
100
AcDbSpline
 70
0
 71
3
 72
25
 73
21
 74
19
 40
0.000000
 40
0.000000
 40
0.000000
 40
0.000000
 40
3.885560
 40
7.199612
 40
10.360500
 40
11.714246
 40
12.740722
 40
13.661307
 40
15.656456
 40
17.940565
 40
19.489863
 40
19.850363
 40
20.571547
 40
21.957510
 40
24.137300
 40
25.879688
 40
28.653697
 40
31.357088
 40
33.736800
 40
35.944428
 40
35.944428
 40
35.944428
 40
35.944428
 10
-175.741793
 20
131.082616
 30
0.0
 10
-175.600277
 20
132.373141
 30
0.0
 10
-175.338059
 20
134.764373
 30
0.0
 10
-174.161752
 20
138.054769
 30
0.0
 10
-172.657928
 20
140.220165
 30
0.0
 10
-171.377615
 20
141.556104
 30
0.0
 10
-170.437308
 20
142.167074
 30
0.0
 10
-169.102658
 20
142.383375
 30
0.0
 10
-167.435480
 20
141.821196
 30
0.0
 10
-165.547787
 20
141.109512
 30
0.0
 10
-164.665958
 20
140.087062
 30
0.0
 10
-163.906368
 20
139.477989
 30
0.0
 10
-163.172601
 20
140.216403
 30
0.0
 10
-162.222684
 20
141.071032
 30
0.0
 10
-160.967641
 20
142.536633
 30
0.0
 10
-158.608591
 20
142.735799
 30
0.0
 10
-156.348297
 20
141.834244
 30
0.0
 10
-153.974704
 20
140.729465
 30
0.0
 10
-152.131481
 20
139.010784
 30
0.0
 10
-151.612977
 20
137.553281
 30
0.0
 10
-151.363450
 20
136.851866
 30
0.0
 11
-175.741793
 21
131.082616
 31
0.0
 11
-175.155531
 21
134.923694
 31
0.0
 11
-174.011117
 21
138.033880
 31
0.0
 11
-172.224557
 21
140.641448
 31
0.0
 11
-171.260563
 21
141.591891
 31
0.0
 11
-170.378093
 21
142.116201
 31
0.0
 11
-169.471668
 21
142.277044
 31
0.0
 11
-167.525104
 21
141.839425
 31
0.0
 11
-165.464418
 21
140.854171
 31
0.0
 11
-164.317402
 21
139.812691
 31
0.0
 11
-164.009462
 21
139.625254
 31
0.0
 11
-163.388979
 21
139.992822
 31
0.0
 11
-162.390582
 21
140.954122
 31
0.0
 11
-160.723865
 21
142.358950
 31
0.0
 11
-158.998397
 21
142.601183
 31
0.0
 11
-156.341606
 21
141.803318
 31
0.0
 11
-153.947772
 21
140.547183
 31
0.0
 11
-152.260542
 21
138.869005
 31
0.0
 11
-151.363450
 21
136.851866
 31
0.0
  0
LINE
  5
106
100
AcDbEntity
  8
slothtrace
 62
7
100
AcDbLine
 10
-142.384251
 20
140.332203
 30
0.0
 11
-140.570979
 21
139.295100
 31
0.0
  0
LINE
  5
107
100
AcDbEntity
  8
slothtrace
 62
7
100
AcDbLine
 10
-140.570979
 20
139.295100
 30
0.0
 11
-139.745905
 21
140.388930
 31
0.0
  0
SPLINE
  5
108
100
AcDbEntity
  8
slothtrace
 62
7
100
AcDbSpline
 70
0
 71
3
 72
13
 73
9
 74
7
 40
0.000000
 40
0.000000
 40
0.000000
 40
0.000000
 40
2.466058
 40
4.807865
 40
6.648114
 40
7.512698
 40
8.657820
 40
9.855726
 40
9.855726
 40
9.855726
 40
9.855726
 10
-150.268107
 20
137.196026
 30
0.0
 10
-149.853748
 20
137.914195
 30
0.0
 10
-149.045908
 20
139.314349
 30
0.0
 10
-147.358756
 20
140.767937
 30
0.0
 10
-145.722366
 20
141.508750
 30
0.0
 10
-144.444476
 20
141.221305
 30
0.0
 10
-143.435344
 20
140.875007
 30
0.0
 10
-142.739838
 20
140.515835
 30
0.0
 10
-142.384251
 20
140.332203
 30
0.0
 11
-150.268107
 21
137.196026
 31
0.0
 11
-148.916561
 21
139.258734
 31
0.0
 11
-147.139056
 21
140.783377
 31
0.0
 11
-145.396400
 21
141.374704
 31
0.0
 11
-144.544035
 21
141.229865
 31
0.0
 11
-143.461893
 21
140.855335
 31
0.0
 11
-142.384251
 21
140.332203
 31
0.0
  0
LINE
  5
109
100
AcDbEntity
  8
slothtrace
 62
7
100
AcDbLine
 10
-160.790856
 20
95.415608
 30
0.0
 11
-160.790856
 21
95.415608
 31
0.0
  0
SPLINE
  5
10a
100
AcDbEntity
  8
slothtrace
 62
7
100
AcDbSpline
 70
0
 71
3
 72
28
 73
24
 74
22
 40
0.000000
 40
0.000000
 40
0.000000
 40
0.000000
 40
0.971463
 40
1.869497
 40
3.345582
 40
4.618114
 40
5.782444
 40
6.684039
 40
13.114216
 40
22.176698
 40
31.133187
 40
36.139210
 40
41.404492
 40
46.360539
 40
48.808907
 40
50.834905
 40
53.379069
 40
55.592789
 40
57.891542
 40
59.784488
 40
64.498819
 40
69.915789
 40
75.113008
 40
75.113008
 40
75.113008
 40
75.113008
 10
-139.745905
 20
140.388930
 30
0.0
 10
-139.543145
 20
140.654672
 30
0.0
 10
-139.152952
 20
141.166069
 30
0.0
 10
-138.005757
 20
141.421451
 30
0.0
 10
-136.800391
 20
141.292523
 30
0.0
 10
-135.509405
 20
141.091328
 30
0.0
 10
-134.440268
 20
140.755515
 30
0.0
 10
-131.995705
 20
139.255144
 30
0.0
 10
-130.208336
 20
133.513393
 30
0.0
 10
-128.490872
 20
125.806028
 30
0.0
 10
-128.258842
 20
117.954450
 30
0.0
 10
-129.766731
 20
111.703701
 30
0.0
 10
-131.623494
 20
106.958265
 30
0.0
 10
-133.750914
 20
103.296786
 30
0.0
 10
-135.634822
 20
100.762274
 30
0.0
 10
-137.446013
 20
99.246630
 30
0.0
 10
-139.471466
 20
98.219469
 30
0.0
 10
-141.613066
 20
97.249455
 30
0.0
 10
-143.604685
 20
96.477220
 30
0.0
 10
-146.429316
 20
95.547805
 30
0.0
 10
-150.430024
 20
95.040212
 30
0.0
 10
-155.544680
 20
94.833181
 30
0.0
 10
-159.066434
 20
95.224164
 30
0.0
 10
-160.790856
 20
95.415608
 30
0.0
 11
-139.745905
 21
140.388930
 31
0.0
 11
-139.069889
 21
141.086600
 31
0.0
 11
-138.208168
 21
141.339386
 31
0.0
 11
-136.733595
 21
141.272593
 31
0.0
 11
-135.480137
 21
141.053089
 31
0.0
 11
-134.377468
 21
140.679212
 31
0.0
 11
-133.606244
 21
140.212215
 31
0.0
 11
-130.598811
 21
134.528683
 31
0.0
 11
-128.757670
 21
125.655196
 31
0.0
 11
-128.727488
 21
116.698757
 31
0.0
 11
-129.852566
 21
111.820800
 31
0.0
 11
-131.785907
 21
106.923312
 31
0.0
 11
-134.277661
 21
102.639207
 31
0.0
 11
-135.797291
 21
100.719511
 31
0.0
 11
-137.348680
 21
99.416491
 31
0.0
 11
-139.576818
 21
98.188415
 31
0.0
 11
-141.595339
 21
97.279499
 31
0.0
 11
-143.738718
 21
96.448721
 31
0.0
 11
-145.542926
 21
95.875941
 31
0.0
 11
-150.198325
 21
95.132849
 31
0.0
 11
-155.612827
 21
94.969387
 31
0.0
 11
-160.790856
 21
95.415608
 31
0.0
  0
LINE
  5
10b
100
AcDbEntity
  8
slothtrace
 62
7
100
AcDbLine
 10
-154.302240
 20
113.702243
 30
0.0
 11
-153.382594
 21
112.005417
 31
0.0
  0
LINE
  5
10c
100
AcDbEntity
  8
slothtrace
 62
7
100
AcDbLine
 10
-153.382594
 20
112.005417
 30
0.0
 11
-153.498976
 21
115.033520
 31
0.0
  0
SPLINE
  5
10d
100
AcDbEntity
  8
slothtrace
 62
7
100
AcDbSpline
 70
0
 71
3
 72
94
 73
90
 74
88
 40
0.000000
 40
0.000000
 40
0.000000
 40
0.000000
 40
4.682410
 40
9.250840
 40
12.362144
 40
15.551819
 40
19.660594
 40
24.003705
 40
26.914224
 40
30.003965
 40
35.117757
 40
40.114874
 40
43.155012
 40
45.750756
 40
47.506116
 40
48.942780
 40
49.752821
 40
50.745845
 40
52.235745
 40
54.585438
 40
56.440784
 40
57.708455
 40
59.504444
 40
61.019346
 40
62.597612
 40
63.905042
 40
65.373912
 40
67.023562
 40
69.681244
 40
73.267947
 40
75.935855
 40
78.097536
 40
79.239415
 40
79.714446
 40
81.160513
 40
82.897528
 40
85.521773
 40
90.512543
 40
94.909679
 40
98.944956
 40
103.572651
 40
107.046909
 40
109.348213
 40
110.775444
 40
112.289885
 40
114.320150
 40
116.526614
 40
119.391215
 40
122.853720
 40
127.354212
 40
133.613801
 40
136.730816
 40
139.716137
 40
142.302431
 40
142.682932
 40
145.153356
 40
147.594852
 40
149.042547
 40
149.983260
 40
150.479721
 40
150.981600
 40
151.476535
 40
151.977774
 40
152.485747
 40
153.004795
 40
153.517886
 40
154.022571
 40
154.506330
 40
156.122362
 40
157.913212
 40
158.945143
 40
159.196872
 40
159.473967
 40
159.788195
 40
160.124434
 40
160.508367
 40
161.100850
 40
162.400516
 40
163.669063
 40
164.545228
 40
164.804835
 40
165.200973
 40
165.797800
 40
166.526697
 40
166.929213
 40
167.623899
 40
168.831517
 40
169.469381
 40
170.987929
 40
170.987929
 40
170.987929
 40
170.987929
 10
-149.225061
 20
97.439755
 30
0.0
 10
-147.689182
 20
97.740308
 30
0.0
 10
-144.654810
 20
98.334096
 30
0.0
 10
-140.783928
 20
99.688643
 30
0.0
 10
-137.405345
 20
101.239984
 30
0.0
 10
-135.402248
 20
104.189784
 30
0.0
 10
-133.511306
 20
107.553331
 30
0.0
 10
-132.110042
 20
111.088017
 30
0.0
 10
-131.103493
 20
114.398259
 30
0.0
 10
-130.788942
 20
118.107584
 30
0.0
 10
-130.798332
 20
122.506129
 30
0.0
 10
-130.767093
 20
126.885216
 30
0.0
 10
-130.985771
 20
130.441237
 30
0.0
 10
-131.659807
 20
132.818432
 30
0.0
 10
-132.255985
 20
134.660174
 30
0.0
 10
-132.763004
 20
135.877778
 30
0.0
 10
-133.068886
 20
136.955597
 30
0.0
 10
-134.265228
 20
137.477208
 30
0.0
 10
-135.653819
 20
136.312327
 30
0.0
 10
-136.792869
 20
134.895517
 30
0.0
 10
-137.920349
 20
133.412333
 30
0.0
 10
-138.336336
 20
131.778365
 30
0.0
 10
-137.998431
 20
130.260837
 30
0.0
 10
-137.840124
 20
128.643965
 30
0.0
 10
-137.763434
 20
127.174167
 30
0.0
 10
-137.835773
 20
125.729066
 30
0.0
 10
-137.934735
 20
124.234297
 30
0.0
 10
-137.212718
 20
122.407296
 30
0.0
 10
-135.899100
 20
120.125730
 30
0.0
 10
-134.494626
 20
117.574783
 30
0.0
 10
-133.402727
 20
114.774473
 30
0.0
 10
-133.265699
 20
113.205711
 30
0.0
 10
-133.099508
 20
111.219844
 30
0.0
 10
-134.269183
 20
111.784923
 30
0.0
 10
-134.174449
 20
113.167034
 30
0.0
 10
-134.740050
 20
114.984259
 30
0.0
 10
-136.161529
 20
117.791635
 30
0.0
 10
-138.186638
 20
121.228401
 30
0.0
 10
-140.288286
 20
125.195426
 30
0.0
 10
-141.597559
 20
129.377208
 30
0.0
 10
-142.036822
 20
133.415258
 30
0.0
 10
-142.546468
 20
136.826359
 30
0.0
 10
-143.234172
 20
139.185829
 30
0.0
 10
-144.879691
 20
140.329755
 30
0.0
 10
-146.504786
 20
139.432643
 30
0.0
 10
-147.859040
 20
138.138927
 30
0.0
 10
-149.176368
 20
136.112973
 30
0.0
 10
-149.858553
 20
133.298264
 30
0.0
 10
-149.662700
 20
129.665491
 30
0.0
 10
-148.566982
 20
125.017066
 30
0.0
 10
-147.284779
 20
120.696625
 30
0.0
 10
-146.503189
 20
116.375063
 30
0.0
 10
-147.766500
 20
114.024171
 30
0.0
 10
-147.607317
 20
111.081404
 30
0.0
 10
-149.675640
 20
111.164378
 30
0.0
 10
-148.115299
 20
113.909992
 30
0.0
 10
-148.221495
 20
115.562136
 30
0.0
 10
-148.147341
 20
117.463759
 30
0.0
 10
-149.275751
 20
117.866203
 30
0.0
 10
-149.848806
 20
117.518519
 30
0.0
 10
-150.177332
 20
117.120651
 30
0.0
 10
-150.252178
 20
116.617201
 30
0.0
 10
-150.327237
 20
116.116149
 30
0.0
 10
-150.667205
 20
115.696108
 30
0.0
 10
-151.147383
 20
115.500130
 30
0.0
 10
-151.623825
 20
115.301644
 30
0.0
 10
-151.964537
 20
114.895247
 30
0.0
 10
-152.107770
 20
114.030145
 30
0.0
 10
-152.329318
 20
112.704404
 30
0.0
 10
-152.943766
 20
111.542875
 30
0.0
 10
-153.538931
 20
110.318487
 30
0.0
 10
-154.079529
 20
110.502169
 30
0.0
 10
-154.254660
 20
110.743896
 30
0.0
 10
-154.279629
 20
111.049307
 30
0.0
 10
-154.368972
 20
111.418718
 30
0.0
 10
-154.852349
 20
111.538829
 30
0.0
 10
-155.578523
 20
111.389504
 30
0.0
 10
-156.690450
 20
111.457863
 30
0.0
 10
-157.669024
 20
111.853132
 30
0.0
 10
-158.478852
 20
112.538622
 30
0.0
 10
-158.173811
 20
113.039085
 30
0.0
 10
-157.710413
 20
113.035347
 30
0.0
 10
-157.169206
 20
112.966906
 30
0.0
 10
-156.577031
 20
112.707000
 30
0.0
 10
-156.016895
 20
113.123886
 30
0.0
 10
-156.104482
 20
113.907931
 30
0.0
 10
-156.170414
 20
115.080791
 30
0.0
 10
-154.787941
 20
114.946302
 30
0.0
 10
-154.502939
 20
114.216307
 30
0.0
 10
-154.302240
 20
113.702243
 30
0.0
 11
-149.225061
 21
97.439755
 31
0.0
 11
-144.652705
 21
98.448976
 31
0.0
 11
-140.333890
 21
99.938401
 31
0.0
 11
-137.611617
 21
101.444869
 31
0.0
 11
-135.620919
 21
103.937086
 31
0.0
 11
-133.627480
 21
107.529889
 31
0.0
 11
-132.001009
 21
111.556948
 31
0.0
 11
-131.218364
 21
114.360265
 31
0.0
 11
-130.879990
 21
117.431422
 31
0.0
 11
-130.790431
 21
122.544430
 31
0.0
 11
-130.833722
 21
127.541359
 31
0.0
 11
-131.110735
 21
130.568851
 31
0.0
 11
-131.754737
 21
133.083438
 31
0.0
 11
-132.311674
 21
134.748103
 31
0.0
 11
-132.812741
 21
136.094555
 31
0.0
 11
-133.149462
 21
136.831295
 31
0.0
 11
-134.054543
 21
137.239861
 31
0.0
 11
-135.356282
 21
136.515103
 31
0.0
 11
-136.899631
 21
134.743343
 31
0.0
 11
-137.907552
 21
133.185652
 31
0.0
 11
-138.208588
 21
131.954243
 31
0.0
 11
-138.018041
 21
130.168391
 31
0.0
 11
-137.853269
 21
128.662476
 31
0.0
 11
-137.788096
 21
127.085556
 31
0.0
 11
-137.836630
 21
125.779027
 31
0.0
 11
-137.828742
 21
124.310179
 31
0.0
 11
-137.312559
 21
122.743366
 31
0.0
 11
-136.063670
 21
120.397402
 31
0.0
 11
-134.407120
 21
117.216163
 31
0.0
 11
-133.494435
 21
114.709225
 31
0.0
 11
-133.212544
 21
112.566003
 31
0.0
 11
-133.413593
 21
111.441962
 31
0.0
 11
-133.850471
 21
111.628489
 31
0.0
 11
-134.262979
 21
113.014472
 31
0.0
 11
-134.691414
 21
114.697820
 31
0.0
 11
-135.816829
 21
117.068496
 31
0.0
 11
-138.254827
 21
121.423258
 31
0.0
 11
-140.215807
 21
125.358910
 31
0.0
 11
-141.417761
 21
129.211023
 31
0.0
 11
-142.112394
 21
133.786287
 31
0.0
 11
-142.701087
 21
137.210307
 31
0.0
 11
-143.627805
 21
139.316772
 31
0.0
 11
-144.861322
 21
140.034701
 31
0.0
 11
-146.277062
 21
139.496914
 31
0.0
 11
-147.768932
 21
138.119853
 31
0.0
 11
-148.952934
 21
136.257967
 31
0.0
 11
-149.683616
 21
133.488121
 31
0.0
 11
-149.592718
 21
130.026809
 31
0.0
 11
-148.673598
 21
125.621172
 31
0.0
 11
-147.116315
 21
119.558390
 31
0.0
 11
-146.827021
 21
116.454828
 31
0.0
 11
-147.549166
 21
113.558167
 31
0.0
 11
-148.466272
 21
111.139937
 31
0.0
 11
-148.846341
 21
111.158056
 31
0.0
 11
-148.493835
 21
113.603201
 31
0.0
 11
-148.188965
 21
116.025587
 31
0.0
 11
-148.496260
 21
117.440292
 31
0.0
 11
-149.390645
 21
117.731871
 31
0.0
 11
-149.828558
 21
117.497978
 31
0.0
 11
-150.135892
 21
117.101206
 31
0.0
 11
-150.251848
 21
116.620047
 31
0.0
 11
-150.369857
 21
116.132898
 31
0.0
 11
-150.687185
 21
115.736236
 31
0.0
 11
-151.148780
 21
115.498875
 31
0.0
 11
-151.604934
 21
115.263957
 31
0.0
 11
-151.924985
 21
114.873734
 31
0.0
 11
-152.045718
 21
114.405283
 31
0.0
 11
-152.381824
 21
112.824589
 31
0.0
 11
-153.111485
 21
111.189127
 31
0.0
 11
-153.816711
 21
110.435776
 31
0.0
 11
-154.054131
 21
110.519440
 31
0.0
 11
-154.223468
 21
110.738772
 31
0.0
 11
-154.288061
 21
111.046289
 31
0.0
 11
-154.409102
 21
111.359987
 31
0.0
 11
-154.768125
 21
111.496028
 31
0.0
 11
-155.358976
 21
111.452083
 31
0.0
 11
-156.656877
 21
111.519788
 31
0.0
 11
-157.820055
 21
112.025977
 31
0.0
 11
-158.324277
 21
112.742514
 31
0.0
 11
-158.183440
 21
112.960598
 31
0.0
 11
-157.793453
 21
113.030136
 31
0.0
 11
-157.203106
 21
112.942428
 31
0.0
 11
-156.482059
 21
112.835738
 31
0.0
 11
-156.157422
 21
113.073706
 31
0.0
 11
-156.081934
 21
113.764280
 31
0.0
 11
-155.839944
 21
114.947403
 31
0.0
 11
-155.202467
 21
114.925182
 31
0.0
 11
-154.302240
 21
113.702243
 31
0.0
  0
LINE
  5
10e
100
AcDbEntity
  8
slothtrace
 62
7
100
AcDbLine
 10
-164.600178
 20
118.435332
 30
0.0
 11
-165.882399
 21
119.383318
 31
0.0
  0
LINE
  5
10f
100
AcDbEntity
  8
slothtrace
 62
7
100
AcDbLine
 10
-165.882399
 20
119.383318
 30
0.0
 11
-166.615367
 21
117.488240
 31
0.0
  0
SPLINE
  5
110
100
AcDbEntity
  8
slothtrace
 62
7
100
AcDbSpline
 70
0
 71
3
 72
46
 73
42
 74
40
 40
0.000000
 40
0.000000
 40
0.000000
 40
0.000000
 40
1.525489
 40
2.613338
 40
3.035331
 40
3.266672
 40
3.716888
 40
4.293585
 40
5.012039
 40
5.237286
 40
5.732612
 40
8.043000
 40
11.531496
 40
15.193850
 40
19.282623
 40
23.528174
 40
25.940687
 40
27.207006
 40
29.011032
 40
30.471577
 40
31.855143
 40
33.515792
 40
35.525478
 40
38.500598
 40
42.728282
 40
48.015117
 40
50.433484
 40
52.496910
 40
53.762084
 40
57.030620
 40
60.580333
 40
63.336612
 40
64.290746
 40
64.658204
 40
66.009410
 40
66.973759
 40
67.984402
 40
68.849681
 40
69.779044
 40
70.349728
 40
71.453092
 40
71.453092
 40
71.453092
 40
71.453092
 10
-153.498976
 20
115.033520
 30
0.0
 10
-153.521984
 20
115.569217
 30
0.0
 10
-153.561400
 20
116.486928
 30
0.0
 10
-153.483489
 20
117.273476
 30
0.0
 10
-153.526013
 20
118.169351
 30
0.0
 10
-153.130950
 20
117.900033
 30
0.0
 10
-152.834038
 20
117.673820
 30
0.0
 10
-152.355783
 20
117.315419
 30
0.0
 10
-152.073895
 20
116.843369
 30
0.0
 10
-151.497411
 20
116.839094
 30
0.0
 10
-151.758157
 20
118.187465
 30
0.0
 10
-151.956822
 20
119.901512
 30
0.0
 10
-152.955570
 20
123.108852
 30
0.0
 10
-154.337155
 20
126.525805
 30
0.0
 10
-155.539767
 20
130.353574
 30
0.0
 10
-156.379016
 20
133.872340
 30
0.0
 10
-156.342329
 20
136.506996
 30
0.0
 10
-156.202994
 20
138.366725
 30
0.0
 10
-156.886033
 20
139.735871
 30
0.0
 10
-157.766330
 20
141.146388
 30
0.0
 10
-159.456619
 20
141.226286
 30
0.0
 10
-160.905938
 20
140.281933
 30
0.0
 10
-162.300296
 20
138.490699
 30
0.0
 10
-162.880865
 20
135.386361
 30
0.0
 10
-162.766687
 20
131.226689
 30
0.0
 10
-162.111368
 20
127.291795
 30
0.0
 10
-161.462305
 20
124.098839
 30
0.0
 10
-161.175203
 20
122.210683
 30
0.0
 10
-160.859442
 20
120.012722
 30
0.0
 10
-161.840784
 20
117.391447
 30
0.0
 10
-163.989798
 20
114.739929
 30
0.0
 10
-165.643485
 20
113.659225
 30
0.0
 10
-167.770071
 20
113.418855
 30
0.0
 10
-167.328932
 20
114.429462
 30
0.0
 10
-166.337409
 20
114.498956
 30
0.0
 10
-165.402243
 20
115.091538
 30
0.0
 10
-164.626798
 20
115.659821
 30
0.0
 10
-164.052908
 20
116.370906
 30
0.0
 10
-163.489912
 20
117.040162
 30
0.0
 10
-163.769552
 20
117.954091
 30
0.0
 10
-164.270201
 20
118.244152
 30
0.0
 10
-164.600178
 20
118.435332
 30
0.0
 11
-153.498976
 21
115.033520
 31
0.0
 11
-153.531713
 21
116.558658
 31
0.0
 11
-153.505659
 21
117.646195
 31
0.0
 11
-153.426435
 21
118.060684
 31
0.0
 11
-153.218887
 21
117.958495
 31
0.0
 11
-152.856375
 21
117.691514
 31
0.0
 11
-152.417380
 21
117.317531
 31
0.0
 11
-151.864743
 21
116.858436
 31
0.0
 11
-151.639870
 21
116.871429
 31
0.0
 11
-151.597249
 21
117.364917
 31
0.0
 11
-151.987754
 21
119.642065
 31
0.0
 11
-152.966759
 21
122.990370
 31
0.0
 11
-154.245501
 21
126.422229
 31
0.0
 11
-155.479614
 21
130.320309
 31
0.0
 11
-156.298217
 21
134.486194
 31
0.0
 11
-156.304141
 21
136.898700
 31
0.0
 11
-156.308664
 21
138.165011
 31
0.0
 11
-156.976330
 21
139.840939
 31
0.0
 11
-157.920293
 21
140.955445
 31
0.0
 11
-159.297031
 21
141.092720
 31
0.0
 11
-160.748026
 21
140.285025
 31
0.0
 11
-161.978785
 21
138.696293
 31
0.0
 11
-162.713251
 21
135.813256
 31
0.0
 11
-162.690379
 21
131.585634
 31
0.0
 11
-161.912027
 21
126.356409
 31
0.0
 11
-161.460236
 21
123.980618
 31
0.0
 11
-161.138003
 21
121.942508
 31
0.0
 11
-161.015090
 21
120.683319
 31
0.0
 11
-161.968114
 21
117.556807
 31
0.0
 11
-164.174530
 21
114.776126
 31
0.0
 11
-166.655358
 21
113.575058
 31
0.0
 11
-167.603098
 21
113.685335
 31
0.0
 11
-167.475230
 21
114.029828
 31
0.0
 11
-166.264148
 21
114.629025
 31
0.0
 11
-165.419089
 21
115.093614
 31
0.0
 11
-164.624377
 21
115.717981
 31
0.0
 11
-164.052065
 21
116.366954
 31
0.0
 11
-163.603437
 21
117.180863
 31
0.0
 11
-163.749621
 21
117.732507
 31
0.0
 11
-164.600178
 21
118.435332
 31
0.0
  0
LINE
  5
111
100
AcDbEntity
  8
slothtrace
 62
7
100
AcDbLine
 10
-178.799228
 20
110.105976
 30
0.0
 11
-180.752430
 21
110.326130
 31
0.0
  0
LINE
  5
112
100
AcDbEntity
  8
slothtrace
 62
7
100
AcDbLine
 10
-180.752430
 20
110.326130
 30
0.0
 11
-179.235230
 21
108.250731
 31
0.0
  0
SPLINE
  5
113
100
AcDbEntity
  8
slothtrace
 62
7
100
AcDbSpline
 70
0
 71
3
 72
10
 73
6
 74
4
 40
0.000000
 40
0.000000
 40
0.000000
 40
0.000000
 40
4.608604
 40
10.153405
 40
14.762013
 40
14.762013
 40
14.762013
 40
14.762013
 10
-166.615367
 20
117.488240
 30
0.0
 10
-167.523186
 20
116.239894
 30
0.0
 10
-169.523242
 20
113.489611
 30
0.0
 10
-173.908721
 20
110.832427
 30
0.0
 10
-177.272443
 20
110.332769
 30
0.0
 10
-178.799228
 20
110.105976
 30
0.0
 11
-166.615367
 21
117.488240
 31
0.0
 11
-169.548208
 21
113.933290
 31
0.0
 11
-174.290437
 21
111.059948
 31
0.0
 11
-178.799228
 21
110.105976
 31
0.0
  0
LINE
  5
114
100
AcDbEntity
  8
slothtrace
 62
7
100
AcDbLine
 10
-149.225061
 20
97.439755
 30
0.0
 11
-149.225061
 21
97.439755
 31
0.0
  0
SPLINE
  5
115
100
AcDbEntity
  8
slothtrace
 62
7
100
AcDbSpline
 70
0
 71
3
 72
13
 73
9
 74
7
 40
0.000000
 40
0.000000
 40
0.000000
 40
0.000000
 40
6.196425
 40
12.933054
 40
19.619509
 40
24.626876
 40
29.039223
 40
33.290452
 40
33.290452
 40
33.290452
 40
33.290452
 10
-179.235230
 20
108.250731
 30
0.0
 10
-177.846896
 20
106.708191
 30
0.0
 10
-174.949195
 20
103.488634
 30
0.0
 10
-169.233452
 20
100.120172
 30
0.0
 10
-163.391145
 20
98.111942
 30
0.0
 10
-158.075311
 20
97.285787
 30
0.0
 10
-153.512466
 20
96.970366
 30
0.0
 10
-150.636367
 20
97.285244
 30
0.0
 10
-149.225061
 20
97.439755
 30
0.0
 11
-179.235230
 21
108.250731
 31
0.0
 11
-174.870502
 21
103.852455
 31
0.0
 11
-169.132072
 21
100.323631
 31
0.0
 11
-162.808965
 21
98.149466
 31
0.0
 11
-157.869042
 21
97.330388
 31
0.0
 11
-153.462705
 21
97.100171
 31
0.0
 11
-149.225061
 21
97.439755
 31
0.0
  0
LINE
  5
116
100
AcDbEntity
  8
slothtrace
 62
7
100
AcDbLine
 10
-167.105349
 20
119.554821
 30
0.0
 11
-167.069423
 21
121.423258
 31
0.0
  0
LINE
  5
117
100
AcDbEntity
  8
slothtrace
 62
7
100
AcDbLine
 10
-167.069423
 20
121.423258
 30
0.0
 11
-169.448541
 21
121.276689
 31
0.0
  0
SPLINE
  5
118
100
AcDbEntity
  8
slothtrace
 62
7
100
AcDbSpline
 70
0
 71
3
 72
10
 73
6
 74
4
 40
0.000000
 40
0.000000
 40
0.000000
 40
0.000000
 40
3.610295
 40
5.900001
 40
8.070564
 40
8.070564
 40
8.070564
 40
8.070564
 10
-171.720663
 20
113.387439
 30
0.0
 10
-170.732589
 20
114.063572
 30
0.0
 10
-169.117862
 20
115.168519
 30
0.0
 10
-167.271651
 20
117.295333
 30
0.0
 10
-167.159787
 20
118.815191
 30
0.0
 10
-167.105349
 20
119.554821
 30
0.0
 11
-171.720663
 21
113.387439
 31
0.0
 11
-168.855685
 21
115.584285
 31
0.0
 11
-167.483806
 21
117.417506
 31
0.0
 11
-167.105349
 21
119.554821
 31
0.0
  0
LINE
  5
119
100
AcDbEntity
  8
slothtrace
 62
7
100
AcDbLine
 10
-171.720671
 20
113.387439
 30
0.0
 11
-171.720663
 21
113.387439
 31
0.0
  0
SPLINE
  5
11a
100
AcDbEntity
  8
slothtrace
 62
7
100
AcDbSpline
 70
0
 71
3
 72
43
 73
39
 74
37
 40
0.000000
 40
0.000000
 40
0.000000
 40
0.000000
 40
1.323538
 40
2.393134
 40
3.087207
 40
4.229749
 40
5.227442
 40
6.586004
 40
7.537882
 40
7.846393
 40
8.374846
 40
9.055636
 40
9.971890
 40
10.932610
 40
12.012611
 40
12.825096
 40
13.722863
 40
14.543646
 40
15.295485
 40
16.051904
 40
18.613914
 40
21.962064
 40
24.793817
 40
25.456723
 40
25.645822
 40
26.568845
 40
27.998698
 40
29.408742
 40
30.711455
 40
31.829713
 40
33.619902
 40
36.082975
 40
38.165269
 40
39.234271
 40
41.677167
 40
43.413113
 40
45.216807
 40
47.804796
 40
47.804796
 40
47.804796
 40
47.804796
 10
-169.448541
 20
121.276689
 30
0.0
 10
-169.889679
 20
121.263429
 30
0.0
 10
-170.687315
 20
121.239453
 30
0.0
 10
-171.716724
 20
121.344791
 30
0.0
 10
-172.644967
 20
121.662222
 30
0.0
 10
-173.269068
 20
122.563001
 30
0.0
 10
-172.862684
 20
123.781268
 30
0.0
 10
-171.844572
 20
124.399134
 30
0.0
 10
-171.009613
 20
124.531845
 30
0.0
 10
-170.546485
 20
125.128943
 30
0.0
 10
-171.269175
 20
125.313747
 30
0.0
 10
-171.851976
 20
125.489699
 30
0.0
 10
-172.739099
 20
125.602572
 30
0.0
 10
-173.709069
 20
125.666061
 30
0.0
 10
-174.670605
 20
125.655948
 30
0.0
 10
-175.568023
 20
125.286527
 30
0.0
 10
-176.059519
 20
124.574900
 30
0.0
 10
-176.568582
 20
123.929216
 30
0.0
 10
-177.256963
 20
123.506224
 30
0.0
 10
-178.636503
 20
123.437435
 30
0.0
 10
-180.623014
 20
122.296851
 30
0.0
 10
-182.629560
 20
119.791719
 30
0.0
 10
-183.189841
 20
118.236342
 30
0.0
 10
-183.576793
 20
116.334329
 30
0.0
 10
-182.910395
 20
116.549717
 30
0.0
 10
-182.790021
 20
117.514198
 30
0.0
 10
-181.806615
 20
118.394560
 30
0.0
 10
-180.570186
 20
118.949623
 30
0.0
 10
-179.116592
 20
119.039458
 30
0.0
 10
-178.314621
 20
117.642949
 30
0.0
 10
-178.782175
 20
115.819177
 30
0.0
 10
-179.389512
 20
113.941216
 30
0.0
 10
-180.875480
 20
112.139917
 30
0.0
 10
-179.382416
 20
110.518545
 30
0.0
 10
-177.482268
 20
111.057981
 30
0.0
 10
-175.521959
 20
111.180608
 30
0.0
 10
-173.636891
 20
112.081443
 30
0.0
 10
-172.431186
 20
112.903189
 30
0.0
 10
-171.720671
 20
113.387439
 30
0.0
 11
-169.448541
 21
121.276689
 31
0.0
 11
-170.772058
 21
121.269218
 31
0.0
 11
-171.832830
 21
121.406322
 31
0.0
 11
-172.475705
 21
121.667950
 31
0.0
 11
-173.095815
 21
122.627567
 31
0.0
 11
-172.823653
 21
123.587422
 31
0.0
 11
-171.710580
 21
124.366369
 31
0.0
 11
-170.847571
 21
124.767974
 31
0.0
 11
-170.687018
 21
125.031417
 31
0.0
 11
-171.149997
 21
125.286196
 31
0.0
 11
-171.808494
 21
125.458990
 31
0.0
 11
-172.715265
 21
125.590475
 31
0.0
 11
-173.674000
 21
125.652186
 31
0.0
 11
-174.751282
 21
125.575584
 31
0.0
 11
-175.491404
 21
125.240398
 31
0.0
 11
-176.080039
 21
124.562537
 31
0.0
 11
-176.621129
 21
123.945361
 31
0.0
 11
-177.271862
 21
123.568788
 31
0.0
 11
-178.017472
 21
123.441365
 31
0.0
 11
-180.312740
 21
122.303102
 31
0.0
 11
-182.480253
 21
119.751241
 31
0.0
 11
-183.420576
 21
117.080170
 31
0.0
 11
-183.378747
 21
116.418585
 31
0.0
 11
-183.196480
 21
116.468958
 31
0.0
 11
-182.736538
 21
117.269223
 31
0.0
 11
-181.774712
 21
118.327226
 31
0.0
 11
-180.478813
 21
118.882988
 31
0.0
 11
-179.179082
 21
118.794885
 31
0.0
 11
-178.561888
 21
117.862376
 31
0.0
 11
-178.730249
 21
116.080122
 31
0.0
 11
-179.651327
 21
113.795752
 31
0.0
 11
-180.412273
 21
111.857477
 31
0.0
 11
-179.718129
 21
111.044501
 31
0.0
 11
-177.275434
 21
111.013126
 31
0.0
 11
-175.561217
 21
111.286929
 31
0.0
 11
-173.902681
 21
111.995849
 31
0.0
 11
-171.720671
 21
113.387439
 31
0.0
  0
LINE
  5
11b
100
AcDbEntity
  8
slothtrace
 62
7
100
AcDbLine
 10
-177.720543
 20
116.077672
 30
0.0
 11
-177.720543
 21
116.077672
 31
0.0
  0
SPLINE
  5
11c
100
AcDbEntity
  8
slothtrace
 62
7
100
AcDbSpline
 70
0
 71
3
 72
22
 73
18
 74
16
 40
0.000000
 40
0.000000
 40
0.000000
 40
0.000000
 40
0.672920
 40
1.183892
 40
2.203082
 40
4.045944
 40
5.812640
 40
7.197368
 40
7.954683
 40
8.429067
 40
8.976368
 40
9.812062
 40
11.215798
 40
12.665522
 40
14.471225
 40
16.431601
 40
17.627725
 40
17.627725
 40
17.627725
 40
17.627725
 10
-177.720543
 20
116.077672
 30
0.0
 10
-177.905874
 20
116.275412
 30
0.0
 10
-178.231933
 20
116.623303
 30
0.0
 10
-177.546496
 20
117.226319
 30
0.0
 10
-176.409383
 20
117.089115
 30
0.0
 10
-174.876474
 20
117.413340
 30
0.0
 10
-173.352555
 20
118.145131
 30
0.0
 10
-172.465827
 20
119.170010
 30
0.0
 10
-172.249627
 20
120.048099
 30
0.0
 10
-171.675993
 20
120.396307
 30
0.0
 10
-171.012895
 20
120.011346
 30
0.0
 10
-171.234251
 20
118.944702
 30
0.0
 10
-171.869807
 20
117.950528
 30
0.0
 10
-172.962559
 20
116.764303
 30
0.0
 10
-174.654375
 20
116.246476
 30
0.0
 10
-176.281646
 20
115.794951
 30
0.0
 10
-177.325127
 20
115.999979
 30
0.0
 10
-177.720543
 20
116.077672
 30
0.0
 11
-177.720543
 21
116.077672
 31
0.0
 11
-178.052193
 21
116.663189
 31
0.0
 11
-177.700181
 21
117.033567
 31
0.0
 11
-176.689218
 21
117.162805
 31
0.0
 11
-174.875750
 21
117.490633
 31
0.0
 11
-173.313529
 21
118.315666
 31
0.0
 11
-172.452599
 21
119.400227
 31
0.0
 11
-172.114581
 21
120.077921
 31
0.0
 11
-171.691892
 21
120.293270
 31
0.0
 11
-171.210380
 21
120.033108
 31
0.0
 11
-171.218084
 21
119.197450
 31
0.0
 11
-171.904879
 21
117.973200
 31
0.0
 11
-172.937059
 21
116.955210
 31
0.0
 11
-174.607295
 21
116.269007
 31
0.0
 11
-176.535494
 21
115.915277
 31
0.0
 11
-177.720543
 21
116.077672
 31
0.0
  0
LINE
  5
11d
100
AcDbEntity
  8
slothtrace
 62
7
100
AcDbLine
 10
-176.551505
 20
118.738155
 30
0.0
 11
-176.551505
 21
118.738155
 31
0.0
  0
SPLINE
  5
11e
100
AcDbEntity
  8
slothtrace
 62
7
100
AcDbSpline
 70
0
 71
3
 72
16
 73
12
 74
10
 40
0.000000
 40
0.000000
 40
0.000000
 40
0.000000
 40
0.942129
 40
1.983105
 40
3.148769
 40
4.291376
 40
5.020350
 40
6.160162
 40
7.484779
 40
8.362769
 40
9.163669
 40
9.163669
 40
9.163669
 40
9.163669
 10
-176.551505
 20
118.738155
 30
0.0
 10
-176.579770
 20
119.065376
 30
0.0
 10
-176.639265
 20
119.754148
 30
0.0
 10
-175.774550
 20
120.559741
 30
0.0
 10
-174.712978
 20
120.806037
 30
0.0
 10
-173.540114
 20
120.734374
 30
0.0
 10
-173.131592
 20
119.601918
 30
0.0
 10
-174.077942
 20
118.802462
 30
0.0
 10
-174.915227
 20
118.189653
 30
0.0
 10
-176.065572
 20
117.982520
 30
0.0
 10
-176.394563
 20
118.494107
 30
0.0
 10
-176.551505
 20
118.738155
 30
0.0
 11
-176.551505
 21
118.738155
 31
0.0
 11
-176.499956
 21
119.678873
 31
0.0
 11
-175.788000
 21
120.438314
 31
0.0
 11
-174.664934
 21
120.750555
 31
0.0
 11
-173.555127
 21
120.478749
 31
0.0
 11
-173.310169
 21
119.792164
 31
0.0
 11
-173.999009
 21
118.884049
 31
0.0
 11
-175.132656
 21
118.198882
 31
0.0
 11
-176.009216
 21
118.148780
 31
0.0
 11
-176.551505
 21
118.738155
 31
0.0
  0
LINE
  5
11f
100
AcDbEntity
  8
slothtrace
 62
7
100
AcDbLine
 10
-180.335817
 20
113.740107
 30
0.0
 11
-180.335817
 21
113.740107
 31
0.0
  0
SPLINE
  5
120
100
AcDbEntity
  8
slothtrace
 62
7
100
AcDbSpline
 70
0
 71
3
 72
22
 73
18
 74
16
 40
0.000000
 40
0.000000
 40
0.000000
 40
0.000000
 40
1.641627
 40
2.462700
 40
3.112911
 40
3.505202
 40
3.921911
 40
4.328179
 40
5.076804
 40
5.626206
 40
6.833625
 40
7.815190
 40
8.634288
 40
9.615853
 40
10.913926
 40
11.564657
 40
13.118743
 40
13.118743
 40
13.118743
 40
13.118743
 10
-180.335817
 20
113.740107
 30
0.0
 10
-180.067431
 20
114.172840
 30
0.0
 10
-179.664809
 20
114.822007
 30
0.0
 10
-179.271140
 20
116.082001
 30
0.0
 10
-180.018939
 20
116.262058
 30
0.0
 10
-180.484470
 20
116.327085
 30
0.0
 10
-180.831981
 20
116.586035
 30
0.0
 10
-181.094364
 20
117.006334
 30
0.0
 10
-181.340654
 20
117.745871
 30
0.0
 10
-182.253257
 20
117.201529
 30
0.0
 10
-182.493036
 20
116.332346
 30
0.0
 10
-182.886372
 20
115.401089
 30
0.0
 10
-182.886248
 20
114.431701
 30
0.0
 10
-182.481693
 20
113.540035
 30
0.0
 10
-182.227856
 20
112.308175
 30
0.0
 10
-180.857842
 20
112.479575
 30
0.0
 10
-180.551644
 20
113.218951
 30
0.0
 10
-180.335817
 20
113.740107
 30
0.0
 11
-180.335817
 21
113.740107
 31
0.0
 11
-179.571174
 21
115.192781
 31
0.0
 11
-179.491347
 21
116.009964
 31
0.0
 11
-180.089082
 21
116.265867
 31
0.0
 11
-180.470388
 21
116.358053
 31
0.0
 11
-180.809858
 21
116.599728
 31
0.0
 11
-181.033999
 21
116.938571
 31
0.0
 11
-181.464318
 21
117.551160
 31
0.0
 11
-181.966038
 21
117.327286
 31
0.0
 11
-182.541582
 21
116.265867
 31
0.0
 11
-182.837628
 21
115.330012
 31
0.0
 11
-182.837628
 21
114.510913
 31
0.0
 11
-182.541582
 21
113.575058
 31
0.0
 11
-181.908513
 21
112.441825
 31
0.0
 11
-181.259596
 21
112.490381
 31
0.0
 11
-180.335817
 21
113.740107
 31
0.0
  0
LINE
  5
121
100
AcDbEntity
  8
slothtrace
 62
7
100
AcDbLine
 10
-149.185543
 20
120.091843
 30
0.0
 11
-149.185543
 21
120.091843
 31
0.0
  0
SPLINE
  5
122
100
AcDbEntity
  8
slothtrace
 62
7
100
AcDbSpline
 70
0
 71
3
 72
37
 73
33
 74
31
 40
0.000000
 40
0.000000
 40
0.000000
 40
0.000000
 40
1.094802
 40
3.122840
 40
5.646939
 40
8.376224
 40
10.693954
 40
12.290359
 40
13.378049
 40
14.024288
 40
14.387559
 40
14.681609
 40
14.976129
 40
15.286994
 40
15.944970
 40
16.761608
 40
17.967350
 40
18.752746
 40
19.085238
 40
20.544175
 40
22.043518
 40
23.889799
 40
25.693286
 40
27.642177
 40
29.863691
 40
31.878466
 40
33.740136
 40
34.806414
 40
35.345833
 40
35.736441
 40
36.169326
 40
36.638166
 40
36.638166
 40
36.638166
 40
36.638166
 10
-149.185543
 20
120.091843
 30
0.0
 10
-149.247631
 20
120.451528
 30
0.0
 10
-149.424734
 20
121.477501
 30
0.0
 10
-149.875063
 20
123.306585
 30
0.0
 10
-150.487125
 20
125.654483
 30
0.0
 10
-151.077325
 20
128.109882
 30
0.0
 10
-151.469148
 20
130.288747
 30
0.0
 10
-151.555158
 20
131.969173
 30
0.0
 10
-151.489221
 20
133.056030
 30
0.0
 10
-151.509012
 20
133.796328
 30
0.0
 10
-151.905058
 20
134.112975
 30
0.0
 10
-152.229849
 20
133.991185
 30
0.0
 10
-152.452759
 20
133.766129
 30
0.0
 10
-152.489505
 20
133.345667
 30
0.0
 10
-152.805965
 20
132.679324
 30
0.0
 10
-153.858372
 20
133.135375
 30
0.0
 10
-154.416338
 20
133.528773
 30
0.0
 10
-154.992158
 20
134.747299
 30
0.0
 10
-155.328911
 20
133.697187
 30
0.0
 10
-154.962661
 20
132.732231
 30
0.0
 10
-154.736987
 20
131.112064
 30
0.0
 10
-154.219607
 20
129.479657
 30
0.0
 10
-153.564440
 20
127.730215
 30
0.0
 10
-152.807440
 20
125.888553
 30
0.0
 10
-152.102617
 20
123.950823
 30
0.0
 10
-151.482109
 20
122.012396
 30
0.0
 10
-150.932432
 20
120.466816
 30
0.0
 10
-150.532153
 20
119.367452
 30
0.0
 10
-149.861772
 20
118.970495
 30
0.0
 10
-149.444231
 20
119.253584
 30
0.0
 10
-149.213081
 20
119.628157
 30
0.0
 10
-149.194963
 20
119.933226
 30
0.0
 10
-149.185543
 20
120.091843
 30
0.0
 11
-149.185543
 21
120.091843
 31
0.0
 11
-149.380649
 21
121.169119
 31
0.0
 11
-149.839398
 21
123.144591
 31
0.0
 11
-150.462475
 21
125.590578
 31
0.0
 11
-151.081402
 21
128.248759
 31
0.0
 11
-151.454346
 21
130.536287
 31
0.0
 11
-151.528780
 21
132.130956
 31
0.0
 11
-151.500429
 21
133.218276
 31
0.0
 11
-151.633465
 21
133.850673
 31
0.0
 11
-151.933598
 21
134.055334
 31
0.0
 11
-152.215969
 21
133.973283
 31
0.0
 11
-152.417365
 21
133.758384
 31
0.0
 11
-152.494186
 21
133.457162
 31
0.0
 11
-152.841082
 21
132.898058
 31
0.0
 11
-153.641650
 21
133.059266
 31
0.0
 11
-154.535711
 21
133.868258
 31
0.0
 11
-155.039763
 21
134.470570
 31
0.0
 11
-155.166769
 21
134.163290
 31
0.0
 11
-155.013440
 21
132.712434
 31
0.0
 11
-154.717329
 21
131.242622
 31
0.0
 11
-154.199857
 21
129.470341
 31
0.0
 11
-153.573051
 21
127.779283
 31
0.0
 11
-152.853611
 21
125.968044
 31
0.0
 11
-152.093267
 21
123.880701
 31
0.0
 11
-151.456631
 21
121.969154
 31
0.0
 11
-150.838967
 21
120.212935
 31
0.0
 11
-150.315295
 21
119.284110
 31
0.0
 11
-149.821014
 21
119.068101
 31
0.0
 11
-149.480806
 21
119.260020
 31
0.0
 11
-149.252507
 21
119.627809
 31
0.0
 11
-149.185543
 21
120.091843
 31
0.0
  0
LINE
  5
123
100
AcDbEntity
  8
slothtrace
 62
7
100
AcDbLine
 10
-162.360515
 20
120.661152
 30
0.0
 11
-162.360494
 21
120.661152
 31
0.0
  0
SPLINE
  5
124
100
AcDbEntity
  8
slothtrace
 62
7
100
AcDbSpline
 70
0
 71
3
 72
28
 73
24
 74
22
 40
0.000000
 40
0.000000
 40
0.000000
 40
0.000000
 40
1.188887
 40
3.108653
 40
5.347446
 40
7.743532
 40
10.078591
 40
11.854061
 40
13.515446
 40
13.999852
 40
14.783822
 40
16.967121
 40
20.329352
 40
25.233481
 40
26.862796
 40
27.688236
 40
28.217861
 40
28.674587
 40
29.000293
 40
29.571158
 40
30.553745
 40
31.056271
 40
32.071511
 40
32.071511
 40
32.071511
 40
32.071511
 10
-162.360494
 20
120.661152
 30
0.0
 10
-162.396471
 20
121.055940
 30
0.0
 10
-162.490545
 20
122.088214
 30
0.0
 10
-162.812903
 20
123.843815
 30
0.0
 10
-163.260933
 20
125.979840
 30
0.0
 10
-163.721523
 20
128.264598
 30
0.0
 10
-163.992804
 20
130.396645
 30
0.0
 10
-164.242410
 20
132.362611
 30
0.0
 10
-163.973004
 20
133.555676
 30
0.0
 10
-164.443327
 20
134.709436
 30
0.0
 10
-165.542649
 20
133.451529
 30
0.0
 10
-166.162975
 20
131.721879
 30
0.0
 10
-165.566238
 20
128.024397
 30
0.0
 10
-164.414474
 20
124.956406
 30
0.0
 10
-163.554478
 20
122.741403
 30
0.0
 10
-163.235436
 20
121.691254
 30
0.0
 10
-163.646928
 20
121.190037
 30
0.0
 10
-164.091369
 20
120.992005
 30
0.0
 10
-164.080298
 20
120.471179
 30
0.0
 10
-163.629504
 20
120.047117
 30
0.0
 10
-163.195259
 20
119.308726
 30
0.0
 10
-162.261872
 20
119.702943
 30
0.0
 10
-162.320978
 20
120.277098
 30
0.0
 10
-162.360515
 20
120.661152
 30
0.0
 11
-162.360494
 21
120.661152
 31
0.0
 11
-162.482077
 21
121.843806
 31
0.0
 11
-162.800823
 21
123.736926
 31
0.0
 11
-163.247726
 21
125.930660
 31
0.0
 11
-163.695960
 21
128.284447
 31
0.0
 11
-164.018193
 21
130.597166
 31
0.0
 11
-164.144664
 21
132.368126
 31
0.0
 11
-164.187016
 21
134.028971
 31
0.0
 11
-164.424459
 21
134.451191
 31
0.0
 11
-165.051309
 21
133.980375
 31
0.0
 11
-165.914104
 21
131.974788
 31
0.0
 11
-165.573215
 21
128.629883
 31
0.0
 11
-164.031570
 21
123.974368
 31
0.0
 11
-163.471306
 21
122.444410
 31
0.0
 11
-163.371765
 21
121.624994
 31
0.0
 11
-163.695227
 21
121.205620
 31
0.0
 11
-164.043261
 21
120.909865
 31
0.0
 11
-164.054887
 21
120.584366
 31
0.0
 11
-163.734290
 21
120.112028
 31
0.0
 11
-162.988489
 21
119.472294
 31
0.0
 11
-162.521860
 21
119.658815
 31
0.0
 11
-162.360515
 21
120.661152
 31
0.0
  0
LINE
  5
125
100
AcDbEntity
  8
slothtrace
 62
7
100
AcDbLine
 10
-180.943729
 20
122.600519
 30
0.0
 11
-180.943729
 21
122.600519
 31
0.0
  0
SPLINE
  5
126
100
AcDbEntity
  8
slothtrace
 62
7
100
AcDbSpline
 70
0
 71
3
 72
16
 73
12
 74
10
 40
0.000000
 40
0.000000
 40
0.000000
 40
0.000000
 40
0.987588
 40
1.284497
 40
1.724390
 40
2.948748
 40
4.198335
 40
4.680919
 40
4.998641
 40
5.726055
 40
6.708475
 40
6.708475
 40
6.708475
 40
6.708475
 10
-180.943729
 20
122.600519
 30
0.0
 10
-180.729985
 20
122.791267
 30
0.0
 10
-180.451982
 20
123.039361
 30
0.0
 10
-180.050513
 20
123.754068
 30
0.0
 10
-180.973970
 20
123.201004
 30
0.0
 10
-181.458833
 20
122.600337
 30
0.0
 10
-182.161703
 20
122.125687
 30
0.0
 10
-182.529875
 20
121.036037
 30
0.0
 10
-181.993510
 20
121.539700
 30
0.0
 10
-181.588197
 20
121.923680
 30
0.0
 10
-181.178899
 20
122.353536
 30
0.0
 10
-180.943729
 20
122.600519
 30
0.0
 11
-180.943729
 21
122.600519
 31
0.0
 11
-180.290054
 21
123.340817
 31
0.0
 11
-180.167995
 21
123.611475
 31
0.0
 11
-180.569185
 21
123.431051
 31
0.0
 11
-181.497859
 21
122.633168
 31
0.0
 11
-182.291646
 21
121.668093
 31
0.0
 11
-182.405054
 21
121.199024
 31
0.0
 11
-182.151951
 21
121.391080
 31
0.0
 11
-181.626957
 21
121.894580
 31
0.0
 11
-180.943729
 21
122.600519
 31
0.0
  0
LINE
  5
127
100
AcDbEntity
  8
slothtrace
 62
7
100
AcDbLine
 10
-168.787019
 20
123.160684
 30
0.0
 11
-168.787019
 21
123.160684
 31
0.0
  0
SPLINE
  5
128
100
AcDbEntity
  8
slothtrace
 62
7
100
AcDbSpline
 70
0
 71
3
 72
19
 73
15
 74
13
 40
0.000000
 40
0.000000
 40
0.000000
 40
0.000000
 40
1.338345
 40
2.154953
 40
2.853530
 40
3.373453
 40
3.858042
 40
4.225334
 40
4.474638
 40
4.819310
 40
5.429128
 40
6.196610
 40
6.551723
 40
7.296018
 40
7.296018
 40
7.296018
 40
7.296018
 10
-168.787019
 20
123.160684
 30
0.0
 10
-169.032262
 20
123.485461
 30
0.0
 10
-169.427143
 20
124.008404
 30
0.0
 10
-170.712793
 20
124.564663
 30
0.0
 10
-170.573150
 20
123.594523
 30
0.0
 10
-170.328095
 20
123.140598
 30
0.0
 10
-170.224906
 20
122.663319
 30
0.0
 10
-170.293339
 20
122.320750
 30
0.0
 10
-170.293325
 20
121.946231
 30
0.0
 10
-169.792244
 20
121.902662
 30
0.0
 10
-169.295902
 20
122.017212
 30
0.0
 10
-168.606962
 20
122.000694
 30
0.0
 10
-168.318989
 20
122.655063
 30
0.0
 10
-168.598077
 20
122.956567
 30
0.0
 10
-168.787019
 20
123.160684
 30
0.0
 11
-168.787019
 21
123.160684
 31
0.0
 11
-169.744928
 21
124.095339
 31
0.0
 11
-170.537482
 21
124.292076
 31
0.0
 11
-170.530745
 21
123.593532
 31
0.0
 11
-170.341489
 21
123.109278
 31
0.0
 11
-170.253948
 21
122.632661
 31
0.0
 11
-170.287072
 21
122.266866
 31
0.0
 11
-170.249772
 21
122.020368
 31
0.0
 11
-169.918543
 21
121.925043
 31
0.0
 11
-169.311799
 21
121.986188
 31
0.0
 11
-168.570698
 21
122.185680
 31
0.0
 11
-168.425832
 21
122.509901
 31
0.0
 11
-168.787019
 21
123.160684
 31
0.0
  0
LINE
  5
129
100
AcDbEntity
  8
slothtrace
 62
7
100
AcDbLine
 10
-164.602837
 20
122.845621
 30
0.0
 11
-164.602837
 21
122.845621
 31
0.0
  0
SPLINE
  5
12a
100
AcDbEntity
  8
slothtrace
 62
7
100
AcDbSpline
 70
0
 71
3
 72
37
 73
33
 74
31
 40
0.000000
 40
0.000000
 40
0.000000
 40
0.000000
 40
0.410826
 40
1.301767
 40
2.481178
 40
4.062612
 40
6.015931
 40
7.925121
 40
10.050003
 40
11.041085
 40
11.819268
 40
12.558946
 40
13.285909
 40
14.679081
 40
17.403415
 40
18.261880
 40
20.859325
 40
22.650208
 40
24.711186
 40
26.607474
 40
28.681510
 40
29.519835
 40
30.193072
 40
32.105157
 40
34.573654
 40
37.175278
 40
38.381141
 40
39.319482
 40
39.832808
 40
40.141724
 40
40.388741
 40
40.539578
 40
40.539578
 40
40.539578
 40
40.539578
 10
-164.602837
 20
122.845621
 30
0.0
 10
-164.642857
 20
122.976632
 30
0.0
 10
-164.769666
 20
123.391761
 30
0.0
 10
-165.087085
 20
124.156737
 30
0.0
 10
-165.571364
 20
125.272939
 30
0.0
 10
-166.100817
 20
126.755804
 30
0.0
 10
-166.586903
 20
128.498423
 30
0.0
 10
-167.027011
 20
130.472821
 30
0.0
 10
-167.278774
 20
132.040858
 30
0.0
 10
-167.741714
 20
133.440735
 30
0.0
 10
-168.641784
 20
133.535431
 30
0.0
 10
-169.451256
 20
133.539361
 30
0.0
 10
-169.917813
 20
134.506586
 30
0.0
 10
-170.174380
 20
135.970072
 30
0.0
 10
-169.856374
 20
138.229621
 30
0.0
 10
-172.286126
 20
138.684961
 30
0.0
 10
-172.540185
 20
136.205887
 30
0.0
 10
-173.268845
 20
134.359900
 30
0.0
 10
-173.647875
 20
132.441374
 30
0.0
 10
-173.922849
 20
130.412987
 30
0.0
 10
-174.047522
 20
128.968531
 30
0.0
 10
-174.006595
 20
127.497822
 30
0.0
 10
-172.673109
 20
127.491612
 30
0.0
 10
-171.145375
 20
127.013200
 30
0.0
 10
-169.087456
 20
125.786805
 30
0.0
 10
-167.580331
 20
124.351966
 30
0.0
 10
-166.487599
 20
123.183154
 30
0.0
 10
-165.816325
 20
122.649110
 30
0.0
 10
-165.219762
 20
122.370867
 30
0.0
 10
-164.900583
 20
122.565366
 30
0.0
 10
-164.685283
 20
122.678115
 30
0.0
 10
-164.625502
 20
122.799573
 30
0.0
 10
-164.602837
 20
122.845621
 30
0.0
 11
-164.602837
 21
122.845621
 31
0.0
 11
-164.726853
 21
123.237281
 31
0.0
 11
-165.051977
 21
124.066781
 31
0.0
 11
-165.507821
 21
125.154539
 31
0.0
 11
-166.042762
 21
126.642750
 31
0.0
 11
-166.575252
 21
128.522087
 31
0.0
 11
-166.990009
 21
130.385682
 31
0.0
 11
-167.435243
 21
132.463395
 31
0.0
 11
-167.900188
 21
133.338648
 31
0.0
 11
-168.656336
 21
133.522524
 31
0.0
 11
-169.382182
 21
133.664898
 31
0.0
 11
-169.781661
 21
134.272262
 31
0.0
 11
-170.048790
 21
135.639585
 31
0.0
 11
-170.683951
 21
138.288843
 31
0.0
 11
-171.528937
 21
138.440370
 31
0.0
 11
-172.678497
 21
136.111157
 31
0.0
 11
-173.199158
 21
134.397630
 31
0.0
 11
-173.636893
 21
132.383674
 31
0.0
 11
-173.896935
 21
130.505301
 31
0.0
 11
-174.024406
 21
128.435186
 31
0.0
 11
-173.828925
 21
127.619970
 31
0.0
 11
-173.170919
 21
127.477581
 31
0.0
 11
-171.319880
 21
126.998283
 31
0.0
 11
-169.192309
 21
125.746517
 31
0.0
 11
-167.262733
 21
124.001472
 31
0.0
 11
-166.410851
 21
123.148007
 31
0.0
 11
-165.656655
 21
122.589730
 31
0.0
 11
-165.163426
 21
122.447502
 31
0.0
 11
-164.881055
 21
122.572785
 31
0.0
 11
-164.679659
 21
122.715813
 31
0.0
 11
-164.602837
 21
122.845621
 31
0.0
  0
LINE
  5
12b
100
AcDbEntity
  8
slothtrace
 62
7
100
AcDbLine
 10
-178.505366
 20
124.573072
 30
0.0
 11
-179.626535
 21
123.942689
 31
0.0
  0
LINE
  5
12c
100
AcDbEntity
  8
slothtrace
 62
7
100
AcDbLine
 10
-179.626535
 20
123.942689
 30
0.0
 11
-178.302610
 21
124.076055
 31
0.0
  0
SPLINE
  5
12d
100
AcDbEntity
  8
slothtrace
 62
7
100
AcDbSpline
 70
0
 71
3
 72
10
 73
6
 74
4
 40
0.000000
 40
0.000000
 40
0.000000
 40
0.000000
 40
0.434194
 40
0.997345
 40
2.221924
 40
2.221924
 40
2.221924
 40
2.221924
 10
-176.807720
 20
124.722329
 30
0.0
 10
-176.788318
 20
124.900567
 30
0.0
 10
-176.743752
 20
125.309979
 30
0.0
 10
-177.728996
 20
125.024809
 30
0.0
 10
-178.189752
 20
124.756715
 30
0.0
 10
-178.505366
 20
124.573072
 30
0.0
 11
-176.807720
 21
124.722329
 31
0.0
 11
-176.841779
 21
125.155186
 31
0.0
 11
-177.402766
 21
125.105864
 31
0.0
 11
-178.505366
 21
124.573072
 31
0.0
  0
LINE
  5
12e
100
AcDbEntity
  8
slothtrace
 62
7
100
AcDbLine
 10
-176.807720
 20
124.722329
 30
0.0
 11
-176.807720
 21
124.722329
 31
0.0
  0
SPLINE
  5
12f
100
AcDbEntity
  8
slothtrace
 62
7
100
AcDbSpline
 70
0
 71
3
 72
10
 73
6
 74
4
 40
0.000000
 40
0.000000
 40
0.000000
 40
0.000000
 40
0.703849
 40
1.288943
 40
1.673784
 40
1.673784
 40
1.673784
 40
1.673784
 10
-178.302610
 20
124.076055
 30
0.0
 10
-178.072809
 20
124.114697
 30
0.0
 10
-177.651979
 20
124.185461
 30
0.0
 10
-177.101622
 20
124.371150
 30
0.0
 10
-176.891206
 20
124.622572
 30
0.0
 10
-176.807720
 20
124.722329
 30
0.0
 11
-178.302610
 21
124.076055
 31
0.0
 11
-177.612316
 21
124.213519
 31
0.0
 11
-177.075261
 21
124.445699
 31
0.0
 11
-176.807720
 21
124.722329
 31
0.0
  0
LINE
  5
130
100
AcDbEntity
  8
slothtrace
 62
7
100
AcDbLine
 10
-139.495466
 20
129.607805
 30
0.0
 11
-139.495466
 21
129.607805
 31
0.0
  0
SPLINE
  5
131
100
AcDbEntity
  8
slothtrace
 62
7
100
AcDbSpline
 70
0
 71
3
 72
16
 73
12
 74
10
 40
0.000000
 40
0.000000
 40
0.000000
 40
0.000000
 40
1.911041
 40
3.142552
 40
3.705187
 40
5.209263
 40
7.713473
 40
9.096448
 40
9.403686
 40
10.171876
 40
11.245121
 40
11.245121
 40
11.245121
 40
11.245121
 10
-139.495466
 20
129.607805
 30
0.0
 10
-139.558218
 20
130.207815
 30
0.0
 10
-139.661409
 20
131.194483
 30
0.0
 10
-139.741287
 20
132.686088
 30
0.0
 10
-141.153047
 20
132.882081
 30
0.0
 10
-140.343131
 20
130.489485
 30
0.0
 10
-140.412166
 20
129.769825
 30
0.0
 10
-139.799799
 20
127.002074
 30
0.0
 10
-139.523273
 20
127.955065
 30
0.0
 10
-139.520124
 20
128.619618
 30
0.0
 10
-139.504546
 20
129.243934
 30
0.0
 10
-139.495466
 20
129.607805
 30
0.0
 11
-139.495466
 21
129.607805
 31
0.0
 11
-139.670615
 21
131.510803
 31
0.0
 11
-140.099309
 21
132.665290
 31
0.0
 11
-140.657374
 21
132.736860
 31
0.0
 11
-140.627575
 21
131.233080
 31
0.0
 11
-140.170335
 21
128.770966
 31
0.0
 11
-139.680670
 21
127.477581
 31
0.0
 11
-139.584866
 21
127.769501
 31
0.0
 11
-139.518330
 21
128.534803
 31
0.0
 11
-139.495466
 21
129.607805
 31
0.0
  0
LINE
  5
132
100
AcDbEntity
  8
slothtrace
 62
7
100
AcDbLine
 10
-135.247891
 20
137.962415
 30
0.0
 11
-135.247891
 21
137.962415
 31
0.0
  0
SPLINE
  5
133
100
AcDbEntity
  8
slothtrace
 62
7
100
AcDbSpline
 70
0
 71
3
 72
19
 73
15
 74
13
 40
0.000000
 40
0.000000
 40
0.000000
 40
0.000000
 40
1.123374
 40
1.727047
 40
2.664300
 40
3.295548
 40
4.313764
 40
5.696000
 40
8.082285
 40
8.817148
 40
10.267534
 40
11.421115
 40
12.595792
 40
13.550267
 40
13.550267
 40
13.550267
 40
13.550267
 10
-135.247891
 20
137.962415
 30
0.0
 10
-134.900238
 20
138.170762
 30
0.0
 10
-134.365765
 20
138.491069
 30
0.0
 10
-134.407359
 20
139.561580
 30
0.0
 10
-135.354272
 20
139.688165
 30
0.0
 10
-136.111981
 20
139.285757
 30
0.0
 10
-136.763504
 20
138.484229
 30
0.0
 10
-137.564030
 20
137.060919
 30
0.0
 10
-138.344732
 20
136.040309
 30
0.0
 10
-138.590582
 20
133.924222
 30
0.0
 10
-137.468943
 20
135.702175
 30
0.0
 10
-136.832371
 20
136.479680
 30
0.0
 10
-136.053870
 20
137.337755
 30
0.0
 10
-135.497365
 20
137.769064
 30
0.0
 10
-135.247891
 20
137.962415
 30
0.0
 11
-135.247891
 21
137.962415
 31
0.0
 11
-134.442474
 21
138.745532
 31
0.0
 11
-134.501555
 21
139.346307
 31
0.0
 11
-135.407577
 21
139.586234
 31
0.0
 11
-135.979781
 21
139.319669
 31
0.0
 11
-136.664688
 21
138.566233
 31
0.0
 11
-137.399218
 21
137.395318
 31
0.0
 11
-138.412853
 21
135.235017
 31
0.0
 11
-138.455795
 21
134.501409
 31
0.0
 11
-137.504527
 21
135.596265
 31
0.0
 11
-136.796667
 21
136.507133
 31
0.0
 11
-135.985950
 21
137.357195
 31
0.0
 11
-135.247891
 21
137.962415
 31
0.0
  0
LINE
  5
134
100
AcDbEntity
  8
slothtrace
 62
7
100
AcDbLine
 10
-165.495377
 20
136.457539
 30
0.0
 11
-165.495396
 21
136.457539
 31
0.0
  0
SPLINE
  5
135
100
AcDbEntity
  8
slothtrace
 62
7
100
AcDbSpline
 70
0
 71
3
 72
16
 73
12
 74
10
 40
0.000000
 40
0.000000
 40
0.000000
 40
0.000000
 40
0.978890
 40
1.761103
 40
2.624418
 40
3.655972
 40
4.229834
 40
6.417655
 40
8.339210
 40
8.774729
 40
10.371069
 40
10.371069
 40
10.371069
 40
10.371069
 10
-165.495396
 20
136.457539
 30
0.0
 10
-165.375044
 20
136.759504
 30
0.0
 10
-165.158520
 20
137.302763
 30
0.0
 10
-165.135204
 20
138.238783
 30
0.0
 10
-165.454363
 20
138.919272
 30
0.0
 10
-165.870893
 20
140.269751
 30
0.0
 10
-166.612036
 20
138.722680
 30
0.0
 10
-166.234607
 20
137.435058
 30
0.0
 10
-167.094230
 20
135.651075
 30
0.0
 10
-165.853507
 20
134.696136
 30
0.0
 10
-165.652948
 20
135.682555
 30
0.0
 10
-165.495377
 20
136.457539
 30
0.0
 11
-165.495396
 21
136.457539
 31
0.0
 11
-165.196402
 21
137.389649
 31
0.0
 11
-165.183557
 21
138.171757
 31
0.0
 11
-165.453777
 21
138.991692
 31
0.0
 11
-165.965788
 21
139.887207
 31
0.0
 11
-166.263783
 21
139.396781
 31
0.0
 11
-166.527329
 21
137.224892
 31
0.0
 11
-166.587383
 21
135.304275
 31
0.0
 11
-166.237896
 21
135.044399
 31
0.0
 11
-165.495377
 21
136.457539
 31
0.0
  0
LINE
  5
136
100
AcDbEntity
  8
slothtrace
 62
7
100
AcDbLine
 10
-140.223624
 20
136.977094
 30
0.0
 11
-140.223624
 21
136.977136
 31
0.0
  0
SPLINE
  5
137
100
AcDbEntity
  8
slothtrace
 62
7
100
AcDbSpline
 70
0
 71
3
 72
22
 73
18
 74
16
 40
0.000000
 40
0.000000
 40
0.000000
 40
0.000000
 40
0.952528
 40
1.323480
 40
1.699346
 40
2.191131
 40
2.760107
 40
3.329896
 40
3.889112
 40
4.406200
 40
4.786743
 40
5.058931
 40
5.137305
 40
5.438320
 40
5.909277
 40
6.663002
 40
7.563761
 40
7.563761
 40
7.563761
 40
7.563761
 10
-140.223624
 20
136.977136
 30
0.0
 10
-140.343086
 20
137.236136
 30
0.0
 10
-140.509072
 20
137.596000
 30
0.0
 10
-141.040835
 20
138.161339
 30
0.0
 10
-141.227337
 20
137.604607
 30
0.0
 10
-141.184828
 20
137.172770
 30
0.0
 10
-141.001369
 20
136.635089
 30
0.0
 10
-140.651767
 20
136.187634
 30
0.0
 10
-140.272375
 20
135.791347
 30
0.0
 10
-140.035198
 20
135.352498
 30
0.0
 10
-139.857323
 20
135.035208
 30
0.0
 10
-139.946567
 20
134.677340
 30
0.0
 10
-139.689790
 20
134.684507
 30
0.0
 10
-139.629987
 20
135.044732
 30
0.0
 10
-139.629973
 20
135.512242
 30
0.0
 10
-139.859636
 20
136.214534
 30
0.0
 10
-140.095313
 20
136.708281
 30
0.0
 10
-140.223624
 20
136.977094
 30
0.0
 11
-140.223624
 21
136.977136
 31
0.0
 11
-140.710556
 21
137.795798
 31
0.0
 11
-141.009383
 21
138.015586
 31
0.0
 11
-141.180547
 21
137.680954
 31
0.0
 11
-141.168205
 21
137.189324
 31
0.0
 11
-140.974914
 21
136.654186
 31
0.0
 11
-140.642520
 21
136.191397
 31
0.0
 11
-140.282330
 21
135.763630
 31
0.0
 11
-140.016170
 21
135.320303
 31
0.0
 11
-139.901663
 21
134.957397
 31
0.0
 11
-139.861143
 21
134.688241
 31
0.0
 11
-139.782771
 21
134.688739
 31
0.0
 11
-139.650192
 21
134.958984
 31
0.0
 11
-139.649547
 21
135.429941
 31
0.0
 11
-139.855558
 21
136.154966
 31
0.0
 11
-140.223624
 21
136.977094
 31
0.0
  0
LINE
  5
138
100
AcDbEntity
  8
slothtrace
 62
7
100
AcDbLine
 10
-154.466552
 20
136.517737
 30
0.0
 11
-154.466552
 21
136.517737
 31
0.0
  0
SPLINE
  5
139
100
AcDbEntity
  8
slothtrace
 62
7
100
AcDbSpline
 70
0
 71
3
 72
16
 73
12
 74
10
 40
0.000000
 40
0.000000
 40
0.000000
 40
0.000000
 40
0.888803
 40
1.143809
 40
2.256159
 40
2.762420
 40
3.115892
 40
3.300129
 40
3.559093
 40
4.043899
 40
4.684102
 40
4.684102
 40
4.684102
 40
4.684102
 10
-154.466552
 20
136.517737
 30
0.0
 10
-154.686148
 20
136.936451
 30
0.0
 10
-154.968748
 20
137.475299
 30
0.0
 10
-155.286375
 20
136.619501
 30
0.0
 10
-154.783499
 20
136.101847
 30
0.0
 10
-154.458951
 20
135.547184
 30
0.0
 10
-154.252733
 20
135.260953
 30
0.0
 10
-153.912170
 20
135.214875
 30
0.0
 10
-153.971478
 20
135.635873
 30
0.0
 10
-154.143877
 20
136.005879
 30
0.0
 10
-154.349525
 20
136.332098
 30
0.0
 10
-154.466552
 20
136.517737
 30
0.0
 11
-154.466552
 21
136.517737
 31
0.0
 11
-155.051932
 21
137.186542
 31
0.0
 11
-155.146217
 21
136.949605
 31
0.0
 11
-154.700195
 21
135.930592
 31
0.0
 11
-154.423980
 21
135.506323
 31
0.0
 11
-154.165872
 21
135.264821
 31
0.0
 11
-153.981748
 21
135.258371
 31
0.0
 11
-153.962514
 21
135.516620
 31
0.0
 11
-154.136684
 21
135.969059
 31
0.0
 11
-154.466552
 21
136.517737
 31
0.0
  0
LINE
  5
13a
100
AcDbEntity
  8
slothtrace
 62
7
100
AcDbLine
 10
-168.612304
 20
136.446953
 30
0.0
 11
-168.582213
 21
135.325781
 31
0.0
  0
LINE
  5
13b
100
AcDbEntity
  8
slothtrace
 62
7
100
AcDbLine
 10
-168.582213
 20
135.325781
 30
0.0
 11
-168.128074
 21
136.446953
 31
0.0
  0
SPLINE
  5
13c
100
AcDbEntity
  8
slothtrace
 62
7
100
AcDbSpline
 70
0
 71
3
 72
16
 73
12
 74
10
 40
0.000000
 40
0.000000
 40
0.000000
 40
0.000000
 40
1.439264
 40
2.361364
 40
3.198851
 40
3.672912
 40
4.262765
 40
5.280956
 40
6.257771
 40
7.227712
 40
7.999440
 40
7.999440
 40
7.999440
 40
7.999440
 10
-167.916365
 20
139.101475
 30
0.0
 10
-168.007091
 20
139.567580
 30
0.0
 10
-168.155943
 20
140.332305
 30
0.0
 10
-168.939130
 20
141.275979
 30
0.0
 10
-169.786172
 20
141.009749
 30
0.0
 10
-170.175639
 20
140.451366
 30
0.0
 10
-169.958140
 20
139.728206
 30
0.0
 10
-169.507169
 20
139.016193
 30
0.0
 10
-169.053479
 20
138.130984
 30
0.0
 10
-168.731691
 20
137.278351
 30
0.0
 10
-168.648961
 20
136.702230
 30
0.0
 10
-168.612304
 20
136.446953
 30
0.0
 11
-167.916365
 21
139.101475
 31
0.0
 11
-168.348023
 21
140.474484
 31
0.0
 11
-169.024784
 21
141.100793
 31
0.0
 11
-169.830731
 21
140.873125
 31
0.0
 11
-170.086589
 21
140.474037
 31
0.0
 11
-169.987738
 21
139.892526
 31
0.0
 11
-169.511096
 21
138.992790
 31
0.0
 11
-169.069409
 21
138.121538
 31
0.0
 11
-168.746510
 21
137.206923
 31
0.0
 11
-168.612304
 21
136.446953
 31
0.0
  0
LINE
  5
13d
100
AcDbEntity
  8
slothtrace
 62
7
100
AcDbLine
 10
-167.916373
 20
139.101475
 30
0.0
 11
-167.916365
 21
139.101475
 31
0.0
  0
SPLINE
  5
13e
100
AcDbEntity
  8
slothtrace
 62
7
100
AcDbSpline
 70
0
 71
3
 72
10
 73
6
 74
4
 40
0.000000
 40
0.000000
 40
0.000000
 40
0.000000
 40
0.799153
 40
1.755843
 40
2.683774
 40
2.683774
 40
2.683774
 40
2.683774
 10
-168.128074
 20
136.446953
 30
0.0
 10
-168.054521
 20
136.703486
 30
0.0
 10
-167.892916
 20
137.267121
 30
0.0
 10
-167.831315
 20
138.167484
 30
0.0
 10
-167.888310
 20
138.793328
 30
0.0
 10
-167.916373
 20
139.101475
 30
0.0
 11
-168.128074
 21
136.446953
 31
0.0
 11
-167.932544
 21
137.221817
 31
0.0
 11
-167.856489
 21
138.175478
 31
0.0
 11
-167.916373
 21
139.101475
 31
0.0
  0
LINE
  5
13f
100
AcDbEntity
  8
slothtrace
 62
7
100
AcDbLine
 10
-152.494186
 20
136.677773
 30
0.0
 11
-152.494186
 21
136.677773
 31
0.0
  0
SPLINE
  5
140
100
AcDbEntity
  8
slothtrace
 62
7
100
AcDbSpline
 70
0
 71
3
 72
16
 73
12
 74
10
 40
0.000000
 40
0.000000
 40
0.000000
 40
0.000000
 40
1.626878
 40
3.915313
 40
5.124182
 40
6.492469
 40
9.027425
 40
10.612053
 40
10.708912
 40
10.946123
 40
11.284713
 40
11.284713
 40
11.284713
 40
11.284713
 10
-152.494186
 20
136.677773
 30
0.0
 10
-152.753433
 20
137.175104
 30
0.0
 10
-153.377347
 20
138.372000
 30
0.0
 10
-154.218349
 20
139.447109
 30
0.0
 10
-156.331586
 20
140.915087
 30
0.0
 10
-154.764642
 20
138.462546
 30
0.0
 10
-154.030382
 20
138.011964
 30
0.0
 10
-152.923635
 20
135.604490
 30
0.0
 10
-152.514037
 20
136.143347
 30
0.0
 10
-152.510076
 20
136.376242
 30
0.0
 10
-152.500070
 20
136.566119
 30
0.0
 10
-152.494186
 20
136.677773
 30
0.0
 11
-152.494186
 21
136.677773
 31
0.0
 11
-153.275152
 21
138.104946
 31
0.0
 11
-154.800133
 21
139.811220
 31
0.0
 11
-155.842258
 21
140.423868
 31
0.0
 11
-155.205091
 21
139.212989
 31
0.0
 11
-153.702497
 21
137.171369
 31
0.0
 11
-152.606304
 21
136.027075
 31
0.0
 11
-152.549829
 21
136.105765
 31
0.0
 11
-152.509550
 21
136.339532
 31
0.0
 11
-152.494186
 21
136.677773
 31
0.0
  0
LINE
  5
141
100
AcDbEntity
  8
slothtrace
 62
7
100
AcDbLine
 10
-137.704700
 20
139.992092
 30
0.0
 11
-137.704700
 21
139.992092
 31
0.0
  0
SPLINE
  5
142
100
AcDbEntity
  8
slothtrace
 62
7
100
AcDbSpline
 70
0
 71
3
 72
19
 73
15
 74
13
 40
0.000000
 40
0.000000
 40
0.000000
 40
0.000000
 40
0.311930
 40
0.594984
 40
1.279496
 40
1.980861
 40
2.686111
 40
3.282370
 40
3.871228
 40
4.115856
 40
5.051609
 40
5.839175
 40
6.544426
 40
7.031804
 40
7.031804
 40
7.031804
 40
7.031804
 10
-137.704700
 20
139.992092
 30
0.0
 10
-137.708026
 20
140.124391
 30
0.0
 10
-137.714371
 20
140.376742
 30
0.0
 10
-138.237792
 20
140.182775
 30
0.0
 10
-138.589431
 20
139.817335
 30
0.0
 10
-139.065811
 20
139.294139
 30
0.0
 10
-139.391287
 20
138.665522
 30
0.0
 10
-139.459748
 20
138.133436
 30
0.0
 10
-139.600232
 20
137.387137
 30
0.0
 10
-138.905273
 20
137.590249
 30
0.0
 10
-138.650780
 20
138.225387
 30
0.0
 10
-138.145770
 20
138.854387
 30
0.0
 10
-137.828844
 20
139.444485
 30
0.0
 10
-137.740715
 20
139.833229
 30
0.0
 10
-137.704700
 20
139.992092
 30
0.0
 11
-137.704700
 21
139.992092
 31
0.0
 11
-137.779834
 21
140.294838
 31
0.0
 11
-138.057134
 21
140.238056
 31
0.0
 11
-138.591666
 21
139.810466
 31
0.0
 11
-139.042087
 21
139.272848
 31
0.0
 11
-139.360737
 21
138.643690
 31
0.0
 11
-139.478628
 21
138.059202
 31
0.0
 11
-139.429761
 21
137.472375
 31
0.0
 11
-139.190106
 21
137.521449
 31
0.0
 11
-138.591666
 21
138.240826
 31
0.0
 11
-138.148555
 21
138.891911
 31
0.0
 11
-137.829904
 21
139.521070
 31
0.0
 11
-137.704700
 21
139.992092
 31
0.0
  0
SPLINE
  5
143
100
AcDbEntity
  8
slothtrace
 62
7
100
AcDbSpline
 70
0
 71
3
 72
10
 73
6
 74
4
 40
0.000000
 40
0.000000
 40
0.000000
 40
0.000000
 40
0.193724
 40
0.387303
 40
0.580744
 40
0.580744
 40
0.580744
 40
0.580744
 10
-179.530793
 20
114.066960
 30
0.0
 10
-179.573772
 20
114.115155
 30
0.0
 10
-179.659697
 20
114.211509
 30
0.0
 10
-179.787353
 20
114.357038
 30
0.0
 10
-179.871628
 20
114.454713
 30
0.0
 10
-179.913751
 20
114.503533
 30
0.0
 11
-179.530793
 21
114.066960
 31
0.0
 11
-179.659531
 21
114.211720
 31
0.0
 11
-179.787184
 21
114.357246
 31
0.0
 11
-179.913751
 21
114.503533
 31
0.0
  0
LINE
  5
144
100
AcDbEntity
  8
slothtrace
 62
7
100
AcDbLine
 10
-184.077351
 20
120.962864
 30
0.0
 11
-183.335869
 21
122.573587
 31
0.0
  0
SPLINE
  5
145
100
AcDbEntity
  8
slothtrace
 62
7
100
AcDbSpline
 70
0
 71
3
 72
13
 73
9
 74
7
 40
0.000000
 40
0.000000
 40
0.000000
 40
0.000000
 40
0.017767
 40
0.033480
 40
0.047105
 40
0.096518
 40
0.141337
 40
0.213494
 40
0.213494
 40
0.213494
 40
0.213494
 10
-173.554327
 20
132.718575
 30
0.0
 10
-173.550797
 20
132.723328
 30
0.0
 10
-173.544145
 20
132.732286
 30
0.0
 10
-173.534316
 20
132.744563
 30
0.0
 10
-173.516978
 20
132.764136
 30
0.0
 10
-173.490427
 20
132.790626
 30
0.0
 10
-173.486219
 20
132.850262
 30
0.0
 10
-173.507467
 20
132.884017
 30
0.0
 10
-173.520574
 20
132.904839
 30
0.0
 11
-173.554327
 21
132.718575
 31
0.0
 11
-173.543643
 21
132.732770
 31
0.0
 11
-173.533783
 21
132.745005
 31
0.0
 11
-173.524780
 21
132.755233
 31
0.0
 11
-173.495019
 21
132.794677
 31
0.0
 11
-173.490463
 21
132.839264
 31
0.0
 11
-173.520574
 21
132.904839
 31
0.0
  0
LINE
  5
146
100
AcDbEntity
  8
slothtrace
 62
7
100
AcDbLine
 10
-176.038788
 20
127.287922
 30
0.0
 11
-175.771270
 21
130.280603
 31
0.0
  0
LINE
  5
147
100
AcDbEntity
  8
slothtrace
 62
7
100
AcDbLine
 10
-175.771270
 20
130.280603
 30
0.0
 11
-175.278727
 21
134.592211
 31
0.0
  0
SPLINE
  5
148
100
AcDbEntity
  8
slothtrace
 62
7
100
AcDbSpline
 70
0
 71
3
 72
19
 73
15
 74
13
 40
0.000000
 40
0.000000
 40
0.000000
 40
0.000000
 40
0.323070
 40
1.119832
 40
2.148220
 40
3.180713
 40
4.226170
 40
5.466992
 40
6.715168
 40
7.673277
 40
8.409354
 40
8.871816
 40
9.042197
 40
9.066537
 40
9.066537
 40
9.066537
 40
9.066537
 10
-183.335869
 20
122.573587
 30
0.0
 10
-183.288518
 20
122.670308
 30
0.0
 10
-183.124387
 20
123.005564
 30
0.0
 10
-182.752080
 20
123.620277
 30
0.0
 10
-182.133352
 20
124.349272
 30
0.0
 10
-181.391246
 20
125.070597
 30
0.0
 10
-180.540016
 20
125.786561
 30
0.0
 10
-179.473174
 20
126.306341
 30
0.0
 10
-178.406870
 20
126.729027
 30
0.0
 10
-177.493594
 20
127.091073
 30
0.0
 10
-176.786210
 20
127.243459
 30
0.0
 10
-176.329930
 20
127.264736
 30
0.0
 10
-176.111597
 20
127.282375
 30
0.0
 10
-176.046878
 20
127.287306
 30
0.0
 10
-176.038788
 20
127.287922
 30
0.0
 11
-183.335869
 21
122.573587
 31
0.0
 11
-183.191322
 21
122.862516
 31
0.0
 11
-182.777194
 21
123.543199
 31
0.0
 11
-182.122755
 21
124.336477
 31
0.0
 11
-181.385319
 21
125.059133
 31
0.0
 11
-180.568444
 21
125.711586
 31
0.0
 11
-179.470759
 21
126.290141
 31
0.0
 11
-178.316397
 21
126.764896
 31
0.0
 11
-177.415134
 21
127.090008
 31
0.0
 11
-176.694063
 21
127.237876
 31
0.0
 11
-176.232943
 21
127.273094
 31
0.0
 11
-176.063057
 21
127.286069
 31
0.0
 11
-176.038788
 21
127.287922
 31
0.0
  0
SPLINE
  5
149
100
AcDbEntity
  8
slothtrace
 62
7
100
AcDbSpline
 70
0
 71
3
 72
115
 73
111
 74
109
 40
0.000000
 40
0.000000
 40
0.000000
 40
0.000000
 40
0.696613
 40
2.149721
 40
3.408070
 40
4.372481
 40
5.404469
 40
6.267726
 40
7.067496
 40
8.003559
 40
9.035589
 40
9.846978
 40
10.208112
 40
10.296759
 40
10.476703
 40
11.148002
 40
12.564231
 40
13.994241
 40
14.802494
 40
15.457944
 40
16.005785
 40
16.210406
 40
16.241806
 40
16.325125
 40
16.501262
 40
16.802898
 40
17.622375
 40
18.744452
 40
19.463747
 40
20.018318
 40
20.823401
 40
21.452681
 40
21.836943
 40
22.323861
 40
23.254467
 40
24.602477
 40
25.906201
 40
26.870437
 40
27.907209
 40
29.210135
 40
30.204335
 40
30.982203
 40
31.947903
 40
33.112462
 40
33.962483
 40
34.195095
 40
34.216873
 40
34.870295
 40
36.160606
 40
37.083593
 40
37.909139
 40
39.218179
 40
40.519864
 40
41.449661
 40
41.942484
 40
42.087054
 40
42.174526
 40
42.368561
 40
42.566726
 40
42.690621
 40
42.809242
 40
43.057442
 40
43.330906
 40
43.558451
 40
43.937996
 40
44.304140
 40
44.534788
 40
44.901837
 40
45.373315
 40
45.731242
 40
45.970575
 40
46.609899
 40
47.609214
 40
48.128901
 40
48.574133
 40
49.483388
 40
50.221320
 40
50.596337
 40
50.856206
 40
51.052195
 40
51.175669
 40
51.272095
 40
51.465000
 40
51.694163
 40
51.871019
 40
52.077939
 40
52.268208
 40
52.393587
 40
52.541282
 40
52.906588
 40
53.388911
 40
53.629474
 40
53.964866
 40
54.630974
 40
55.118510
 40
55.358018
 40
55.620238
 40
55.922334
 40
56.208881
 40
56.448863
 40
56.713243
 40
57.035791
 40
57.386504
 40
57.743411
 40
58.136763
 40
58.578190
 40
59.014505
 40
60.179857
 40
61.910545
 40
62.800069
 40
62.800069
 40
62.800069
 40
62.800069
 10
-175.278727
 20
134.592211
 30
0.0
 10
-175.213388
 20
134.815076
 30
0.0
 10
-175.011754
 20
135.502828
 30
0.0
 10
-174.666805
 20
136.583767
 30
0.0
 10
-174.250662
 20
137.742507
 30
0.0
 10
-173.681997
 20
138.670116
 30
0.0
 10
-173.176425
 20
139.477939
 30
0.0
 10
-172.638241
 20
140.198432
 30
0.0
 10
-172.096467
 20
140.873888
 30
0.0
 10
-171.456786
 20
141.545630
 30
0.0
 10
-170.629997
 20
142.010706
 30
0.0
 10
-169.928608
 20
142.194531
 30
0.0
 10
-169.505390
 20
142.302658
 30
0.0
 10
-169.300191
 20
142.244382
 30
0.0
 10
-168.985532
 20
142.316386
 30
0.0
 10
-168.241105
 20
142.071061
 30
0.0
 10
-167.159122
 20
141.660066
 30
0.0
 10
-166.050724
 20
141.153926
 30
0.0
 10
-165.116797
 20
140.859020
 30
0.0
 10
-164.624886
 20
140.371450
 30
0.0
 10
-164.392213
 20
139.968140
 30
0.0
 10
-164.229438
 20
139.757250
 30
0.0
 10
-164.200219
 20
139.653699
 30
0.0
 10
-164.128045
 20
139.583261
 30
0.0
 10
-163.940172
 20
139.506026
 30
0.0
 10
-163.545095
 20
139.777574
 30
0.0
 10
-163.056139
 20
140.304161
 30
0.0
 10
-162.394838
 20
140.914142
 30
0.0
 10
-161.850901
 20
141.496390
 30
0.0
 10
-161.336392
 20
141.962841
 30
0.0
 10
-160.810560
 20
142.364726
 30
0.0
 10
-160.257754
 20
142.646018
 30
0.0
 10
-159.754395
 20
142.686428
 30
0.0
 10
-159.152614
 20
142.660708
 30
0.0
 10
-158.260205
 20
142.406187
 30
0.0
 10
-157.111429
 20
142.088666
 30
0.0
 10
-155.958432
 20
141.739189
 30
0.0
 10
-154.930982
 20
141.320523
 30
0.0
 10
-154.051957
 20
140.645938
 30
0.0
 10
-153.167195
 20
139.977261
 30
0.0
 10
-152.453217
 20
139.225385
 30
0.0
 10
-152.031672
 20
138.407168
 30
0.0
 10
-151.552873
 20
137.585573
 30
0.0
 10
-151.332813
 20
136.493752
 30
0.0
 10
-151.155518
 20
136.026235
 30
0.0
 10
-151.134335
 20
135.386709
 30
0.0
 10
-150.868581
 20
135.566150
 30
0.0
 10
-150.785152
 20
136.291306
 30
0.0
 10
-150.265126
 20
137.077535
 30
0.0
 10
-149.857186
 20
138.014228
 30
0.0
 10
-149.251803
 20
138.837410
 30
0.0
 10
-148.552918
 20
139.747671
 30
0.0
 10
-147.624530
 20
140.502337
 30
0.0
 10
-146.802171
 20
140.896081
 30
0.0
 10
-146.334039
 20
141.121586
 30
0.0
 10
-146.130306
 20
141.260013
 30
0.0
 10
-145.988455
 20
141.282340
 30
0.0
 10
-145.834172
 20
141.322286
 30
0.0
 10
-145.662174
 20
141.342220
 30
0.0
 10
-145.522116
 20
141.386000
 30
0.0
 10
-145.359326
 20
141.417372
 30
0.0
 10
-145.148782
 20
141.356715
 30
0.0
 10
-144.903561
 20
141.318293
 30
0.0
 10
-144.610614
 20
141.285800
 30
0.0
 10
-144.303045
 20
141.176676
 30
0.0
 10
-143.995486
 20
141.072033
 30
0.0
 10
-143.688234
 20
140.976964
 30
0.0
 10
-143.361969
 20
140.832193
 30
0.0
 10
-142.995969
 20
140.674644
 30
0.0
 10
-142.665911
 20
140.539120
 30
0.0
 10
-142.297867
 20
140.355770
 30
0.0
 10
-141.766817
 20
139.986423
 30
0.0
 10
-141.178244
 20
139.763956
 30
0.0
 10
-140.548163
 20
139.111000
 30
0.0
 10
-140.259672
 20
139.886400
 30
0.0
 10
-139.828728
 20
140.334295
 30
0.0
 10
-139.425241
 20
140.909450
 30
0.0
 10
-139.042472
 20
141.164757
 30
0.0
 10
-138.788553
 20
141.281605
 30
0.0
 10
-138.597206
 20
141.313938
 30
0.0
 10
-138.460147
 20
141.334477
 30
0.0
 10
-138.322618
 20
141.342668
 30
0.0
 10
-138.149709
 20
141.338583
 30
0.0
 10
-137.950295
 20
141.346536
 30
0.0
 10
-137.745860
 20
141.358973
 30
0.0
 10
-137.555286
 20
141.332354
 30
0.0
 10
-137.385316
 20
141.295542
 30
0.0
 10
-137.232459
 20
141.270474
 30
0.0
 10
-137.019145
 20
141.272644
 30
0.0
 10
-136.688889
 20
141.236170
 30
0.0
 10
-136.329276
 20
141.191193
 30
0.0
 10
-135.978087
 20
141.153739
 30
0.0
 10
-135.575275
 20
141.054600
 30
0.0
 10
-135.090973
 20
140.950233
 30
0.0
 10
-134.638883
 20
140.836113
 30
0.0
 10
-134.335428
 20
140.707047
 30
0.0
 10
-134.086968
 20
140.603656
 30
0.0
 10
-133.859440
 20
140.430200
 30
0.0
 10
-133.656571
 20
140.243475
 30
0.0
 10
-133.459755
 20
140.067414
 30
0.0
 10
-133.280546
 20
139.857277
 30
0.0
 10
-133.087521
 20
139.611603
 30
0.0
 10
-132.875124
 20
139.341777
 30
0.0
 10
-132.648246
 20
139.053156
 30
0.0
 10
-132.429422
 20
138.720932
 30
0.0
 10
-132.223653
 20
138.350530
 30
0.0
 10
-131.888815
 20
137.756999
 30
0.0
 10
-131.472643
 20
136.724329
 30
0.0
 10
-130.977872
 20
135.564589
 30
0.0
 10
-130.646060
 20
134.756565
 30
0.0
 10
-130.533415
 20
134.482253
 30
0.0
 11
-175.278727
 21
134.592211
 31
0.0
 11
-175.081035
 21
135.260183
 31
0.0
 11
-174.637752
 21
136.644027
 31
0.0
 11
-174.173568
 21
137.813632
 31
0.0
 11
-173.692837
 21
138.649686
 31
0.0
 11
-173.133725
 21
139.517092
 31
0.0
 11
-172.621641
 21
140.212061
 31
0.0
 11
-172.116526
 21
140.832134
 31
0.0
 11
-171.449425
 21
141.488785
 31
0.0
 11
-170.552409
 21
141.999126
 31
0.0
 11
-169.775576
 21
142.233395
 31
0.0
 11
-169.416769
 21
142.274327
 31
0.0
 11
-169.329679
 21
142.257780
 31
0.0
 11
-169.150276
 21
142.271715
 31
0.0
 11
-168.490142
 21
142.149790
 31
0.0
 11
-167.166391
 21
141.646415
 31
0.0
 11
-165.844380
 21
141.101239
 31
0.0
 11
-165.102382
 21
140.780752
 31
0.0
 11
-164.626877
 21
140.329632
 31
0.0
 11
-164.318582
 21
139.876769
 31
0.0
 11
-164.214074
 21
139.700850
 31
0.0
 11
-164.203623
 21
139.671240
 31
0.0
 11
-164.148758
 21
139.608536
 31
0.0
 11
-163.984160
 21
139.545832
 31
0.0
 11
-163.709829
 21
139.671240
 31
0.0
 11
-163.111529
 21
140.231221
 31
0.0
 11
-162.309440
 21
141.015893
 31
0.0
 11
-161.805194
 21
141.528848
 31
0.0
 11
-161.394569
 21
141.901588
 31
0.0
 11
-160.746191
 21
142.378835
 31
0.0
 11
-160.170969
 21
142.634007
 31
0.0
 11
-159.789084
 21
142.676679
 31
0.0
 11
-159.302692
 21
142.654036
 31
0.0
 11
-158.395662
 21
142.445893
 31
0.0
 11
-157.098472
 21
142.079249
 31
0.0
 11
-155.856147
 21
141.683866
 31
0.0
 11
-154.974372
 21
141.293707
 31
0.0
 11
-154.123076
 21
140.701937
 31
0.0
 11
-153.109796
 21
139.882865
 31
0.0
 11
-152.446614
 21
139.142174
 31
0.0
 11
-152.056891
 21
138.468976
 31
0.0
 11
-151.625365
 21
137.605054
 31
0.0
 11
-151.306183
 21
136.485090
 31
0.0
 11
-151.146660
 21
135.650172
 31
0.0
 11
-151.072105
 21
135.429831
 31
0.0
 11
-151.053665
 21
135.441417
 31
0.0
 11
-150.781663
 21
136.035534
 31
0.0
 11
-150.233968
 21
137.203838
 31
0.0
 11
-149.813044
 21
138.025256
 31
0.0
 11
-149.345811
 21
138.705858
 31
0.0
 11
-148.512806
 21
139.715655
 31
0.0
 11
-147.496914
 21
140.529501
 31
0.0
 11
-146.672181
 21
140.958849
 31
0.0
 11
-146.236737
 21
141.189635
 31
0.0
 11
-146.109587
 21
141.258436
 31
0.0
 11
-146.024239
 21
141.277595
 31
0.0
 11
-145.834385
 21
141.317656
 31
0.0
 11
-145.639306
 21
141.352492
 31
0.0
 11
-145.519559
 21
141.384282
 31
0.0
 11
-145.402424
 21
141.403002
 31
0.0
 11
-145.157269
 21
141.364240
 31
0.0
 11
-144.887728
 21
141.318085
 31
0.0
 11
-144.662603
 21
141.284994
 31
0.0
 11
-144.299006
 21
141.176129
 31
0.0
 11
-143.951957
 21
141.059430
 31
0.0
 11
-143.732928
 21
140.987145
 31
0.0
 11
-143.393716
 21
140.846932
 31
0.0
 11
-142.960449
 21
140.660998
 31
0.0
 11
-142.631688
 21
140.519478
 31
0.0
 11
-142.417885
 21
140.411922
 31
0.0
 11
-141.871129
 21
140.080571
 31
0.0
 11
-141.015842
 21
139.563739
 31
0.0
 11
-140.570979
 21
139.295092
 31
0.0
 11
-140.323485
 21
139.665198
 31
0.0
 11
-139.796669
 21
140.406284
 31
0.0
 11
-139.314034
 21
140.964502
 31
0.0
 11
-139.004433
 21
141.176128
 31
0.0
 11
-138.765374
 21
141.278023
 31
0.0
 11
-138.573343
 21
141.317213
 31
0.0
 11
-138.450984
 21
141.333765
 31
0.0
 11
-138.354750
 21
141.339863
 31
0.0
 11
-138.161847
 21
141.340734
 31
0.0
 11
-137.932804
 21
141.348137
 31
0.0
 11
-137.756013
 21
141.352930
 31
0.0
 11
-137.550483
 21
141.328987
 31
0.0
 11
-137.363678
 21
141.292845
 31
0.0
 11
-137.239576
 21
141.274992
 31
0.0
 11
-137.091960
 21
141.270202
 31
0.0
 11
-136.727927
 21
141.239720
 31
0.0
 11
-136.248938
 21
141.183112
 31
0.0
 11
-136.010314
 21
141.152631
 31
0.0
 11
-135.682424
 21
141.082090
 31
0.0
 11
-135.033176
 21
140.933169
 31
0.0
 11
-134.564202
 21
140.799923
 31
0.0
 11
-134.342126
 21
140.710221
 31
0.0
 11
-134.104373
 21
140.599618
 31
0.0
 11
-133.858783
 21
140.423699
 31
0.0
 11
-133.644544
 21
140.233409
 31
0.0
 11
-133.469495
 21
140.069246
 31
0.0
 11
-133.294445
 21
139.871119
 31
0.0
 11
-133.093271
 21
139.618996
 31
0.0
 11
-132.876419
 21
139.343360
 31
0.0
 11
-132.659567
 21
139.059886
 31
0.0
 11
-132.442280
 21
138.731996
 31
0.0
 11
-132.222381
 21
138.349240
 31
0.0
 11
-132.012931
 21
137.966484
 31
0.0
 11
-131.540522
 21
136.901179
 31
0.0
 11
-130.872578
 21
135.304579
 31
0.0
 11
-130.533415
 21
134.482253
 31
0.0
  0
LINE
  5
14a
100
AcDbEntity
  8
background
 62
7
100
AcDbLine
 10
-6.157980
 20
132.391616
 30
0.0
 11
-6.157980
 21
132.391616
 31
0.0
  0
SPLINE
  5
14b
100
AcDbEntity
  8
background
 62
7
100
AcDbSpline
 70
0
 71
3
 72
16
 73
12
 74
10
 40
0.000000
 40
0.000000
 40
0.000000
 40
0.000000
 40
0.643208
 40
1.196966
 40
1.584979
 40
1.896910
 40
2.179963
 40
2.864476
 40
3.356449
 40
3.867041
 40
4.355396
 40
4.355396
 40
4.355396
 40
4.355396
 10
-6.811691
 20
130.960786
 30
0.0
 10
-6.696395
 20
131.140320
 30
0.0
 10
-6.481838
 20
131.474419
 30
0.0
 10
-6.254331
 20
131.968949
 30
0.0
 10
-6.137568
 20
132.334234
 30
0.0
 10
-6.171685
 20
132.781573
 30
0.0
 10
-6.688872
 20
132.578688
 30
0.0
 10
-6.993573
 20
132.263255
 30
0.0
 10
-7.393121
 20
131.849282
 30
0.0
 10
-7.658542
 20
131.427063
 30
0.0
 10
-7.781168
 20
131.116728
 30
0.0
 10
-7.841116
 20
130.965014
 30
0.0
 11
-6.811691
 21
130.960786
 31
0.0
 11
-6.478147
 21
131.510754
 31
0.0
 11
-6.246952
 21
132.013941
 31
0.0
 11
-6.157980
 21
132.391616
 31
0.0
 11
-6.233114
 21
132.694362
 31
0.0
 11
-6.510414
 21
132.637580
 31
0.0
 11
-7.044945
 21
132.209990
 31
0.0
 11
-7.374515
 21
131.844721
 31
0.0
 11
-7.648077
 21
131.413597
 31
0.0
 11
-7.841116
 21
130.965014
 31
0.0
  0
LINE
  5
14c
100
AcDbEntity
  8
background
 62
7
100
AcDbLine
 10
-20.947466
 20
129.077297
 30
0.0
 11
-20.947466
 21
129.077297
 31
0.0
  0
SPLINE
  5
14d
100
AcDbEntity
  8
background
 62
7
100
AcDbSpline
 70
0
 71
3
 72
16
 73
12
 74
10
 40
0.000000
 40
0.000000
 40
0.000000
 40
0.000000
 40
1.220065
 40
2.200984
 40
2.714713
 40
2.811571
 40
3.048783
 40
3.387373
 40
4.156699
 40
5.384179
 40
6.743033
 40
6.743033
 40
6.743033
 40
6.743033
 10
-22.842843
 20
130.461901
 30
0.0
 10
-22.591784
 20
130.114886
 30
0.0
 10
-22.138878
 20
129.488876
 30
0.0
 10
-21.606315
 20
129.022410
 30
0.0
 10
-21.146118
 20
128.285825
 30
0.0
 10
-20.967672
 20
128.547995
 30
0.0
 10
-20.967287
 20
128.772684
 30
0.0
 10
-20.904365
 20
129.225235
 30
0.0
 10
-21.313139
 20
129.942737
 30
0.0
 10
-21.955071
 20
130.835241
 30
0.0
 10
-22.539930
 20
131.474285
 30
0.0
 10
-22.847214
 20
131.810038
 30
0.0
 11
-22.842843
 21
130.461901
 31
0.0
 11
-22.096159
 21
129.497006
 31
0.0
 11
-21.454806
 21
128.754802
 31
0.0
 11
-21.059583
 21
128.426599
 31
0.0
 11
-21.003108
 21
128.505289
 31
0.0
 11
-20.962830
 21
128.739056
 31
0.0
 11
-20.947466
 21
129.077297
 31
0.0
 11
-21.237767
 21
129.789749
 31
0.0
 11
-21.950234
 21
130.789298
 31
0.0
 11
-22.847214
 21
131.810038
 31
0.0
  0
SPLINE
  5
14e
100
AcDbEntity
  8
background
 62
7
100
AcDbSpline
 70
0
 71
3
 72
13
 73
9
 74
7
 40
0.000000
 40
0.000000
 40
0.000000
 40
0.000000
 40
0.733409
 40
1.254167
 40
1.511321
 40
1.646671
 40
1.948830
 40
2.393414
 40
2.393414
 40
2.393414
 40
2.393414
 10
-23.062072
 20
132.027181
 30
0.0
 10
-23.250450
 20
132.196210
 30
0.0
 10
-23.572587
 20
132.485259
 30
0.0
 10
-23.886062
 20
132.780269
 30
0.0
 10
-24.332384
 20
132.898371
 30
0.0
 10
-24.274512
 20
132.614105
 30
0.0
 10
-24.136247
 20
132.380830
 30
0.0
 10
-24.007431
 20
132.162260
 30
0.0
 10
-23.930738
 20
132.032132
 30
0.0
 11
-23.062072
 21
132.027181
 31
0.0
 11
-23.606005
 21
132.519142
 31
0.0
 11
-24.038801
 21
132.808757
 31
0.0
 11
-24.295538
 21
132.823392
 31
0.0
 11
-24.285333
 21
132.688427
 31
0.0
 11
-24.156645
 21
132.415043
 31
0.0
 11
-23.930738
 21
132.032132
 31
0.0
  0
SPLINE
  5
14f
100
AcDbEntity
  8
background
 62
7
100
AcDbSpline
 70
0
 71
3
 72
10
 73
6
 74
4
 40
0.000000
 40
0.000000
 40
0.000000
 40
0.000000
 40
0.103402
 40
0.205287
 40
0.305482
 40
0.305482
 40
0.305482
 40
0.305482
 10
-22.847214
 20
131.810038
 30
0.0
 10
-22.871211
 20
131.834779
 30
0.0
 10
-22.918853
 20
131.883899
 30
0.0
 10
-22.990463
 20
131.956296
 30
0.0
 10
-23.038336
 20
132.003685
 30
0.0
 10
-23.062072
 20
132.027181
 30
0.0
 11
-22.847214
 21
131.810038
 31
0.0
 11
-22.919327
 21
131.884143
 31
0.0
 11
-22.990987
 21
131.956568
 31
0.0
 11
-23.062072
 21
132.027181
 31
0.0
  0
LINE
  5
150
100
AcDbEntity
  8
background
 62
7
100
AcDbLine
 10
-36.369651
 20
131.500999
 30
0.0
 11
-36.369644
 21
131.500999
 31
0.0
  0
LINE
  5
151
100
AcDbEntity
  8
background
 62
7
100
AcDbLine
 10
-36.369644
 20
131.500999
 30
0.0
 11
-36.369644
 21
131.500999
 31
0.0
  0
SPLINE
  5
152
100
AcDbEntity
  8
background
 62
7
100
AcDbSpline
 70
0
 71
3
 72
19
 73
15
 74
13
 40
0.000000
 40
0.000000
 40
0.000000
 40
0.000000
 40
0.798340
 40
1.751041
 40
2.674376
 40
4.113638
 40
5.035737
 40
5.873224
 40
6.347286
 40
6.937139
 40
7.955330
 40
8.927318
 40
9.893418
 40
10.664961
 40
10.664961
 40
10.664961
 40
10.664961
 10
-36.577818
 20
128.855266
 30
0.0
 10
-36.504722
 20
129.111833
 30
0.0
 10
-36.344398
 20
129.674575
 30
0.0
 10
-36.290464
 20
130.569936
 30
0.0
 10
-36.359600
 20
131.678799
 30
0.0
 10
-36.617526
 20
132.729739
 30
0.0
 10
-37.390766
 20
133.675916
 30
0.0
 10
-38.239670
 20
133.409218
 30
0.0
 10
-38.628863
 20
132.850904
 30
0.0
 10
-38.411440
 20
132.127723
 30
0.0
 10
-37.961339
 20
131.417041
 30
0.0
 10
-37.508573
 20
130.534613
 30
0.0
 10
-37.187583
 20
129.684992
 30
0.0
 10
-37.103279
 20
129.110493
 30
0.0
 10
-37.065847
 20
128.855406
 30
0.0
 11
-36.577818
 21
128.855266
 31
0.0
 11
-36.384517
 21
129.629851
 31
0.0
 11
-36.309718
 21
130.579611
 31
0.0
 11
-36.369651
 21
131.500999
 31
0.0
 11
-36.801301
 21
132.874008
 31
0.0
 11
-37.478062
 21
133.500317
 31
0.0
 11
-38.284010
 21
133.272649
 31
0.0
 11
-38.539867
 21
132.873561
 31
0.0
 11
-38.441016
 21
132.292050
 31
0.0
 11
-37.964375
 21
131.392314
 31
0.0
 11
-37.524582
 21
130.525513
 31
0.0
 11
-37.202106
 21
129.614821
 31
0.0
 11
-37.065847
 21
128.855407
 31
0.0
  0
LINE
  5
153
100
AcDbEntity
  8
background
 62
7
100
AcDbLine
 10
-22.919832
 20
128.917261
 30
0.0
 11
-22.919832
 21
128.917261
 31
0.0
  0
SPLINE
  5
154
100
AcDbEntity
  8
background
 62
7
100
AcDbSpline
 70
0
 71
3
 72
16
 73
12
 74
10
 40
0.000000
 40
0.000000
 40
0.000000
 40
0.000000
 40
0.403964
 40
0.682485
 40
0.837838
 40
1.096802
 40
1.581608
 40
2.221811
 40
2.238215
 40
2.254479
 40
2.270602
 40
2.270602
 40
2.270602
 40
2.270602
 10
-23.048292
 20
128.148051
 30
0.0
 10
-22.970005
 20
128.039689
 30
0.0
 10
-22.837742
 20
127.856614
 30
0.0
 10
-22.652430
 20
127.636036
 30
0.0
 10
-22.363372
 20
127.630448
 30
0.0
 10
-22.427043
 20
128.033944
 30
0.0
 10
-22.597856
 20
128.402521
 30
0.0
 10
-22.800399
 20
128.747185
 30
0.0
 10
-22.929221
 20
128.930653
 30
0.0
 10
-22.938584
 20
128.943953
 30
0.0
 10
-22.944828
 20
128.952760
 30
0.0
 10
-22.947936
 20
128.957144
 30
0.0
 11
-23.048292
 21
128.148051
 31
0.0
 11
-22.806884
 21
127.824154
 31
0.0
 11
-22.590139
 21
127.649238
 31
0.0
 11
-22.435028
 21
127.657894
 31
0.0
 11
-22.415793
 21
127.916143
 31
0.0
 11
-22.589964
 21
128.368582
 31
0.0
 11
-22.919832
 21
128.917261
 31
0.0
 11
-22.929251
 21
128.930690
 31
0.0
 11
-22.938619
 21
128.943986
 31
0.0
 11
-22.947936
 21
128.957144
 31
0.0
  0
LINE
  5
155
100
AcDbEntity
  8
background
 62
7
100
AcDbLine
 10
-8.676903
 20
129.376646
 30
0.0
 11
-8.676903
 21
129.376659
 31
0.0
  0
LINE
  5
156
100
AcDbEntity
  8
background
 62
7
100
AcDbLine
 10
-8.676903
 20
129.376659
 30
0.0
 11
-8.676903
 21
129.376659
 31
0.0
  0
LINE
  5
157
100
AcDbEntity
  8
background
 62
7
100
AcDbLine
 10
-33.948656
 20
128.857063
 30
0.0
 11
-33.948656
 21
128.857063
 31
0.0
  0
LINE
  5
158
100
AcDbEntity
  8
background
 62
7
100
AcDbLine
 10
-33.948656
 20
128.857063
 30
0.0
 11
-33.948674
 21
128.857063
 31
0.0
  0
LINE
  5
159
100
AcDbEntity
  8
background
 62
7
100
AcDbLine
 10
-33.948674
 20
128.857063
 30
0.0
 11
-33.948674
 21
128.857063
 31
0.0
  0
SPLINE
  5
15a
100
AcDbEntity
  8
background
 62
7
100
AcDbSpline
 70
0
 71
3
 72
19
 73
15
 74
13
 40
0.000000
 40
0.000000
 40
0.000000
 40
0.000000
 40
0.476908
 40
1.037670
 40
1.640673
 40
2.593213
 40
2.964164
 40
3.340031
 40
3.831816
 40
4.400792
 40
4.970581
 40
5.283884
 40
5.597415
 40
5.893957
 40
5.893957
 40
5.893957
 40
5.893957
 10
-8.105427
 20
127.843984
 30
0.0
 10
-8.141864
 20
127.999058
 30
0.0
 10
-8.221145
 20
128.336472
 30
0.0
 10
-8.413177
 20
128.846021
 30
0.0
 10
-8.740454
 20
129.495176
 30
0.0
 10
-8.960111
 20
129.992870
 30
0.0
 10
-9.494486
 20
130.561285
 30
0.0
 10
-9.680443
 20
130.004012
 30
0.0
 10
-9.638386
 20
129.572145
 30
0.0
 10
-9.453624
 20
129.035480
 30
0.0
 10
-9.158726
 20
128.649305
 30
0.0
 10
-8.880433
 20
128.363055
 30
0.0
 10
-8.695888
 20
128.115516
 30
0.0
 10
-8.591155
 20
127.941156
 30
0.0
 10
-8.540246
 20
127.856403
 30
0.0
 11
-8.105427
 21
127.843984
 31
0.0
 11
-8.223647
 21
128.306007
 31
0.0
 11
-8.418393
 21
128.831866
 31
0.0
 11
-8.676903
 21
129.376646
 31
0.0
 11
-9.163835
 21
130.195321
 31
0.0
 11
-9.462663
 21
130.415110
 31
0.0
 11
-9.633827
 21
130.080478
 31
0.0
 11
-9.621485
 21
129.588847
 31
0.0
 11
-9.428194
 21
129.053710
 31
0.0
 11
-9.095800
 21
128.590921
 31
0.0
 11
-8.885608
 21
128.358589
 31
0.0
 11
-8.697034
 21
128.108106
 31
0.0
 11
-8.540246
 21
127.856403
 31
0.0
  0
SPLINE
  5
15b
100
AcDbEntity
  8
background
 62
7
100
AcDbSpline
 70
0
 71
3
 72
16
 73
12
 74
10
 40
0.000000
 40
0.000000
 40
0.000000
 40
0.000000
 40
0.978890
 40
1.761103
 40
2.624418
 40
3.655972
 40
4.229834
 40
6.417655
 40
6.737353
 40
7.032763
 40
7.303927
 40
7.303927
 40
7.303927
 40
7.303927
 10
-33.948674
 20
128.857063
 30
0.0
 10
-33.828307
 20
129.159031
 30
0.0
 10
-33.611757
 20
129.702297
 30
0.0
 10
-33.588614
 20
130.638273
 30
0.0
 10
-33.907037
 20
131.318948
 30
0.0
 10
-34.326389
 20
132.668716
 30
0.0
 10
-35.056181
 20
131.124502
 30
0.0
 10
-34.909831
 20
130.251635
 30
0.0
 10
-35.010914
 20
129.313697
 30
0.0
 10
-35.033511
 20
129.019822
 30
0.0
 10
-35.045019
 20
128.831228
 30
0.0
 10
-35.050526
 20
128.740966
 30
0.0
 11
-33.948674
 21
128.857063
 31
0.0
 11
-33.649680
 21
129.789173
 31
0.0
 11
-33.636836
 21
130.571280
 31
0.0
 11
-33.907055
 21
131.391215
 31
0.0
 11
-34.419067
 21
132.286730
 31
0.0
 11
-34.717061
 21
131.796305
 31
0.0
 11
-34.980607
 21
129.624415
 31
0.0
 11
-35.010034
 21
129.306075
 31
0.0
 11
-35.033331
 21
129.011585
 31
0.0
 11
-35.050526
 21
128.740966
 31
0.0
  0
SPLINE
  5
15c
100
AcDbEntity
  8
background
 62
7
100
AcDbSpline
 70
0
 71
3
 72
10
 73
6
 74
4
 40
0.000000
 40
0.000000
 40
0.000000
 40
0.000000
 40
0.341262
 40
0.775073
 40
1.302587
 40
1.302587
 40
1.302587
 40
1.302587
 10
-34.513377
 20
127.684477
 30
0.0
 10
-34.456461
 20
127.783015
 30
0.0
 10
-34.327194
 20
128.006814
 30
0.0
 10
-34.142532
 20
128.400274
 30
0.0
 10
-34.017349
 20
128.695217
 30
0.0
 10
-33.948656
 20
128.857063
 30
0.0
 11
-34.513377
 21
127.684477
 31
0.0
 11
-34.346389
 21
127.982091
 31
0.0
 11
-34.158076
 21
128.372900
 31
0.0
 11
-33.948656
 21
128.857063
 31
0.0
  0
SPLINE
  5
15d
100
AcDbEntity
  8
background
 62
7
100
AcDbSpline
 70
0
 71
3
 72
10
 73
6
 74
4
 40
0.000000
 40
0.000000
 40
0.000000
 40
0.000000
 40
0.319554
 40
0.494914
 40
0.884974
 40
0.884974
 40
0.884974
 40
0.884974
 10
-35.038181
 20
127.686051
 30
0.0
 10
-35.030046
 20
127.556110
 30
0.0
 10
-35.017448
 20
127.354862
 30
0.0
 10
-34.659985
 20
127.368810
 30
0.0
 10
-34.573227
 20
127.555603
 30
0.0
 10
-34.513377
 20
127.684464
 30
0.0
 11
-35.038181
 21
127.686051
 31
0.0
 11
-34.935689
 21
127.383380
 31
0.0
 11
-34.760330
 21
127.382536
 31
0.0
 11
-34.513377
 21
127.684464
 31
0.0
  0
LINE
  5
15e
100
AcDbEntity
  8
background
 62
7
100
AcDbLine
 10
-3.701170
 20
130.361939
 30
0.0
 11
-3.701170
 21
130.361939
 31
0.0
  0
SPLINE
  5
15f
100
AcDbEntity
  8
background
 62
7
100
AcDbSpline
 70
0
 71
3
 72
22
 73
18
 74
16
 40
0.000000
 40
0.000000
 40
0.000000
 40
0.000000
 40
0.063694
 40
0.129028
 40
0.196010
 40
1.349590
 40
2.524267
 40
3.478742
 40
4.602116
 40
5.205790
 40
6.143042
 40
6.774291
 40
7.792506
 40
9.174742
 40
10.023901
 40
10.750377
 40
11.346194
 40
11.346194
 40
11.346194
 40
11.346194
 10
-6.069003
 20
127.834374
 30
0.0
 10
-6.056866
 20
127.851794
 30
0.0
 10
-6.032279
 20
127.887083
 30
0.0
 10
-5.995194
 20
127.940874
 30
0.0
 10
-5.754424
 20
128.295527
 30
0.0
 10
-5.259605
 20
128.922066
 30
0.0
 10
-4.500942
 20
129.723949
 30
0.0
 10
-3.694948
 20
130.412963
 30
0.0
 10
-2.812531
 20
130.887779
 30
0.0
 10
-2.862794
 20
131.962090
 30
0.0
 10
-3.806947
 20
132.087086
 30
0.0
 10
-4.565957
 20
131.686603
 30
0.0
 10
-5.212706
 20
130.874350
 30
0.0
 10
-5.777414
 20
129.957654
 30
0.0
 10
-6.230786
 20
129.080300
 30
0.0
 10
-6.547907
 20
128.429554
 30
0.0
 10
-6.715364
 20
128.021703
 30
0.0
 10
-6.790818
 20
127.837927
 30
0.0
 11
-6.069003
 21
127.834374
 31
0.0
 11
-6.032634
 21
127.886664
 31
0.0
 11
-5.995569
 21
127.940467
 31
0.0
 11
-5.957807
 21
127.995788
 31
0.0
 11
-5.249947
 21
128.906657
 31
0.0
 11
-4.439230
 21
129.756719
 31
0.0
 11
-3.701170
 21
130.361939
 31
0.0
 11
-2.895753
 21
131.145055
 31
0.0
 11
-2.954834
 21
131.745831
 31
0.0
 11
-3.860857
 21
131.985758
 31
0.0
 11
-4.433061
 21
131.719192
 31
0.0
 11
-5.117968
 21
130.965756
 31
0.0
 11
-5.852497
 21
129.794841
 31
0.0
 11
-6.246279
 21
129.042507
 31
0.0
 11
-6.559246
 21
128.386901
 31
0.0
 11
-6.790818
 21
127.837927
 31
0.0
  0
LINE
  5
160
100
AcDbEntity
  8
background
 62
7
100
AcDbLine
 10
-7.948746
 20
122.007328
 30
0.0
 11
-7.948746
 21
122.007328
 31
0.0
  0
SPLINE
  5
161
100
AcDbEntity
  8
background
 62
7
100
AcDbSpline
 70
0
 71
3
 72
16
 73
12
 74
10
 40
0.000000
 40
0.000000
 40
0.000000
 40
0.000000
 40
1.911041
 40
3.142552
 40
3.705187
 40
5.209263
 40
7.713473
 40
9.096448
 40
9.403686
 40
10.171876
 40
11.245121
 40
11.245121
 40
11.245121
 40
11.245121
 10
-7.948746
 20
122.007328
 30
0.0
 10
-8.011498
 20
122.607339
 30
0.0
 10
-8.114688
 20
123.594007
 30
0.0
 10
-8.194566
 20
125.085611
 30
0.0
 10
-9.606327
 20
125.281605
 30
0.0
 10
-8.796410
 20
122.889008
 30
0.0
 10
-8.865446
 20
122.169348
 30
0.0
 10
-8.253078
 20
119.401598
 30
0.0
 10
-7.976553
 20
120.354588
 30
0.0
 10
-7.973404
 20
121.019141
 30
0.0
 10
-7.957825
 20
121.643458
 30
0.0
 10
-7.948746
 20
122.007328
 30
0.0
 11
-7.948746
 21
122.007328
 31
0.0
 11
-8.123895
 21
123.910326
 31
0.0
 11
-8.552589
 21
125.064814
 31
0.0
 11
-9.110653
 21
125.136383
 31
0.0
 11
-9.080854
 21
123.632603
 31
0.0
 11
-8.623615
 21
121.170490
 31
0.0
 11
-8.133949
 21
119.877104
 31
0.0
 11
-8.038146
 21
120.169024
 31
0.0
 11
-7.971609
 21
120.934327
 31
0.0
 11
-7.948746
 21
122.007328
 31
0.0
  0
LINE
  5
162
100
AcDbEntity
  8
background
 62
7
100
AcDbLine
 10
-33.056116
 20
115.245145
 30
0.0
 11
-33.056116
 21
115.245145
 31
0.0
  0
SPLINE
  5
163
100
AcDbEntity
  8
background
 62
7
100
AcDbSpline
 70
0
 71
3
 72
28
 73
24
 74
22
 40
0.000000
 40
0.000000
 40
0.000000
 40
0.000000
 40
1.546307
 40
3.191068
 40
4.824061
 40
6.029924
 40
6.968266
 40
7.481592
 40
7.790508
 40
8.037525
 40
8.188362
 40
8.599187
 40
9.490128
 40
10.669540
 40
12.250974
 40
14.204292
 40
16.113483
 40
18.238365
 40
19.229446
 40
20.007630
 40
20.512567
 40
20.907155
 40
21.372067
 40
21.372067
 40
21.372067
 40
21.372067
 10
-39.543987
 20
119.292830
 30
0.0
 10
-39.089064
 20
119.049736
 30
0.0
 10
-38.150252
 20
118.548070
 30
0.0
 10
-36.857260
 20
117.574969
 30
0.0
 10
-35.814036
 20
116.509679
 30
0.0
 10
-34.940639
 20
115.583284
 30
0.0
 10
-34.268727
 20
115.048508
 30
0.0
 10
-33.674580
 20
114.770484
 30
0.0
 10
-33.350793
 20
114.964719
 30
0.0
 10
-33.146178
 20
115.078058
 30
0.0
 10
-32.989065
 20
115.322976
 30
0.0
 10
-33.299942
 20
115.795517
 30
0.0
 10
-33.504484
 20
116.554288
 30
0.0
 10
-34.039378
 20
117.673277
 30
0.0
 10
-34.548433
 20
119.154994
 30
0.0
 10
-35.042152
 20
120.898156
 30
0.0
 10
-35.478334
 20
122.871852
 30
0.0
 10
-35.736892
 20
124.441899
 30
0.0
 10
-36.187972
 20
125.838036
 30
0.0
 10
-37.028318
 20
125.931629
 30
0.0
 10
-37.578322
 20
125.926638
 30
0.0
 10
-38.013760
 20
126.144511
 30
0.0
 10
-38.132262
 20
126.414624
 30
0.0
 10
-38.196361
 20
126.560731
 30
0.0
 11
-39.543987
 21
119.292830
 31
0.0
 11
-38.198827
 21
118.530198
 31
0.0
 11
-36.883286
 21
117.542984
 31
0.0
 11
-35.716012
 21
116.400995
 31
0.0
 11
-34.864129
 21
115.547531
 31
0.0
 11
-34.109933
 21
114.989254
 31
0.0
 11
-33.616704
 21
114.847026
 31
0.0
 11
-33.334333
 21
114.972308
 31
0.0
 11
-33.132937
 21
115.115336
 31
0.0
 11
-33.056116
 21
115.245145
 31
0.0
 11
-33.180132
 21
115.636805
 31
0.0
 11
-33.505255
 21
116.466305
 31
0.0
 11
-33.961099
 21
117.554063
 31
0.0
 11
-34.496040
 21
119.042274
 31
0.0
 11
-35.028530
 21
120.921611
 31
0.0
 11
-35.443287
 21
122.785206
 31
0.0
 11
-35.888521
 21
124.862919
 31
0.0
 11
-36.353467
 21
125.738172
 31
0.0
 11
-37.109614
 21
125.922048
 31
0.0
 11
-37.612033
 21
125.972413
 31
0.0
 11
-37.958482
 21
126.161285
 31
0.0
 11
-38.196361
 21
126.560731
 31
0.0
  0
SPLINE
  5
164
100
AcDbEntity
  8
background
 62
7
100
AcDbSpline
 70
0
 71
3
 72
19
 73
15
 74
13
 40
0.000000
 40
0.000000
 40
0.000000
 40
0.000000
 40
1.711905
 40
2.543334
 40
4.938842
 40
6.729726
 40
8.790704
 40
10.686992
 40
12.761028
 40
13.599353
 40
14.272590
 40
14.356197
 40
14.441951
 40
14.529869
 40
14.529869
 40
14.529869
 40
14.529869
 10
-38.729449
 20
129.363732
 30
0.0
 10
-38.801293
 20
130.134671
 30
0.0
 10
-38.908029
 20
131.280036
 30
0.0
 10
-40.772863
 20
130.459521
 30
0.0
 10
-41.012323
 20
128.659471
 30
0.0
 10
-41.723379
 20
126.728756
 30
0.0
 10
-42.100090
 20
124.848263
 30
0.0
 10
-42.378978
 20
122.812275
 30
0.0
 10
-42.492248
 20
121.361820
 30
0.0
 10
-42.470693
 20
119.905515
 30
0.0
 10
-41.817822
 20
119.878727
 30
0.0
 10
-41.540075
 20
119.876226
 30
0.0
 10
-41.454147
 20
119.871705
 30
0.0
 10
-41.396518
 20
119.866560
 30
0.0
 10
-41.367345
 20
119.863955
 30
0.0
 11
-38.729449
 21
129.363732
 31
0.0
 11
-39.331705
 21
130.966201
 31
0.0
 11
-40.111627
 21
130.678111
 31
0.0
 11
-41.131776
 21
128.510681
 31
0.0
 11
-41.652436
 21
126.797153
 31
0.0
 11
-42.090171
 21
124.783198
 31
0.0
 11
-42.350214
 21
122.904824
 31
0.0
 11
-42.477685
 21
120.834709
 31
0.0
 11
-42.282204
 21
120.019494
 31
0.0
 11
-41.624197
 21
119.877104
 31
0.0
 11
-41.540602
 21
119.875630
 31
0.0
 11
-41.454961
 21
119.871233
 31
0.0
 11
-41.367345
 21
119.863955
 31
0.0
  0
LINE
  5
165
100
AcDbEntity
  8
background
 62
7
100
AcDbLine
 10
-30.813793
 20
113.060676
 30
0.0
 11
-30.813772
 21
113.060676
 31
0.0
  0
LINE
  5
166
100
AcDbEntity
  8
background
 62
7
100
AcDbLine
 10
-30.813772
 20
113.060676
 30
0.0
 11
-30.813772
 21
113.060676
 31
0.0
  0
SPLINE
  5
167
100
AcDbEntity
  8
background
 62
7
100
AcDbSpline
 70
0
 71
3
 72
28
 73
24
 74
22
 40
0.000000
 40
0.000000
 40
0.000000
 40
0.000000
 40
1.188887
 40
3.108653
 40
5.347446
 40
7.743532
 40
10.078591
 40
11.854061
 40
13.515446
 40
13.999852
 40
14.783822
 40
16.967121
 40
20.329352
 40
25.233481
 40
26.862796
 40
27.688236
 40
28.217861
 40
28.674587
 40
29.000293
 40
29.571158
 40
30.553745
 40
31.056271
 40
32.071511
 40
32.071511
 40
32.071511
 40
32.071511
 10
-30.813772
 20
113.060676
 30
0.0
 10
-30.849750
 20
113.455463
 30
0.0
 10
-30.943823
 20
114.487738
 30
0.0
 10
-31.266181
 20
116.243339
 30
0.0
 10
-31.714212
 20
118.379364
 30
0.0
 10
-32.174802
 20
120.664122
 30
0.0
 10
-32.446082
 20
122.796169
 30
0.0
 10
-32.695688
 20
124.762135
 30
0.0
 10
-32.426282
 20
125.955200
 30
0.0
 10
-32.896605
 20
127.108959
 30
0.0
 10
-33.995928
 20
125.851053
 30
0.0
 10
-34.616253
 20
124.121402
 30
0.0
 10
-34.019517
 20
120.423921
 30
0.0
 10
-32.867753
 20
117.355930
 30
0.0
 10
-32.007756
 20
115.140926
 30
0.0
 10
-31.688715
 20
114.090778
 30
0.0
 10
-32.100206
 20
113.589560
 30
0.0
 10
-32.544647
 20
113.391528
 30
0.0
 10
-32.533577
 20
112.870703
 30
0.0
 10
-32.082782
 20
112.446641
 30
0.0
 10
-31.648537
 20
111.708249
 30
0.0
 10
-30.715150
 20
112.102467
 30
0.0
 10
-30.774256
 20
112.676621
 30
0.0
 10
-30.813793
 20
113.060676
 30
0.0
 11
-30.813772
 21
113.060676
 31
0.0
 11
-30.935355
 21
114.243329
 31
0.0
 11
-31.254102
 21
116.136449
 31
0.0
 11
-31.701004
 21
118.330184
 31
0.0
 11
-32.149238
 21
120.683971
 31
0.0
 11
-32.471472
 21
122.996690
 31
0.0
 11
-32.597942
 21
124.767650
 31
0.0
 11
-32.640294
 21
126.428495
 31
0.0
 11
-32.877737
 21
126.850715
 31
0.0
 11
-33.504587
 21
126.379899
 31
0.0
 11
-34.367382
 21
124.374311
 31
0.0
 11
-34.026494
 21
121.029406
 31
0.0
 11
-32.484848
 21
116.373891
 31
0.0
 11
-31.924584
 21
114.843934
 31
0.0
 11
-31.825043
 21
114.024517
 31
0.0
 11
-32.148505
 21
113.605143
 31
0.0
 11
-32.496539
 21
113.309388
 31
0.0
 11
-32.508166
 21
112.983890
 31
0.0
 11
-32.187568
 21
112.511552
 31
0.0
 11
-31.441767
 21
111.871818
 31
0.0
 11
-30.975138
 21
112.058339
 31
0.0
 11
-30.813793
 21
113.060676
 31
0.0
  0
LINE
  5
168
100
AcDbEntity
  8
background
 62
7
100
AcDbLine
 10
-17.638822
 20
112.491367
 30
0.0
 11
-17.638822
 21
112.491367
 31
0.0
  0
SPLINE
  5
169
100
AcDbEntity
  8
background
 62
7
100
AcDbSpline
 70
0
 71
3
 72
37
 73
33
 74
31
 40
0.000000
 40
0.000000
 40
0.000000
 40
0.000000
 40
1.094803
 40
3.122840
 40
5.646939
 40
8.376224
 40
10.693954
 40
12.290360
 40
13.378049
 40
14.024288
 40
14.387559
 40
14.681609
 40
14.976129
 40
15.286994
 40
15.944970
 40
16.761608
 40
17.967350
 40
18.752746
 40
19.085238
 40
20.544175
 40
22.043518
 40
23.889799
 40
25.693286
 40
27.642177
 40
29.863690
 40
31.878464
 40
33.740135
 40
34.806413
 40
35.345833
 40
35.736441
 40
36.169326
 40
36.638166
 40
36.638166
 40
36.638166
 40
36.638166
 10
-17.638822
 20
112.491367
 30
0.0
 10
-17.700911
 20
112.851052
 30
0.0
 10
-17.878013
 20
113.877025
 30
0.0
 10
-18.328342
 20
115.706109
 30
0.0
 10
-18.940405
 20
118.054007
 30
0.0
 10
-19.530604
 20
120.509406
 30
0.0
 10
-19.922428
 20
122.688271
 30
0.0
 10
-20.008438
 20
124.368697
 30
0.0
 10
-19.942501
 20
125.455553
 30
0.0
 10
-19.962292
 20
126.195852
 30
0.0
 10
-20.358337
 20
126.512499
 30
0.0
 10
-20.683128
 20
126.390709
 30
0.0
 10
-20.906039
 20
126.165653
 30
0.0
 10
-20.942784
 20
125.745191
 30
0.0
 10
-21.259245
 20
125.078847
 30
0.0
 10
-22.311652
 20
125.534899
 30
0.0
 10
-22.869617
 20
125.928296
 30
0.0
 10
-23.445438
 20
127.146822
 30
0.0
 10
-23.782191
 20
126.096710
 30
0.0
 10
-23.415940
 20
125.131755
 30
0.0
 10
-23.190266
 20
123.511588
 30
0.0
 10
-22.672887
 20
121.879180
 30
0.0
 10
-22.017720
 20
120.129739
 30
0.0
 10
-21.260719
 20
118.288077
 30
0.0
 10
-20.555897
 20
116.350348
 30
0.0
 10
-19.935388
 20
114.411921
 30
0.0
 10
-19.385712
 20
112.866341
 30
0.0
 10
-18.985433
 20
111.766976
 30
0.0
 10
-18.315051
 20
111.370018
 30
0.0
 10
-17.897511
 20
111.653108
 30
0.0
 10
-17.666361
 20
112.027681
 30
0.0
 10
-17.648243
 20
112.332750
 30
0.0
 10
-17.638822
 20
112.491367
 30
0.0
 11
-17.638822
 21
112.491367
 31
0.0
 11
-17.833929
 21
113.568644
 31
0.0
 11
-18.292677
 21
115.544115
 31
0.0
 11
-18.915754
 21
117.990101
 31
0.0
 11
-19.534681
 21
120.648283
 31
0.0
 11
-19.907626
 21
122.935810
 31
0.0
 11
-19.982060
 21
124.530480
 31
0.0
 11
-19.953708
 21
125.617799
 31
0.0
 11
-20.086745
 21
126.250197
 31
0.0
 11
-20.386877
 21
126.454858
 31
0.0
 11
-20.669248
 21
126.372807
 31
0.0
 11
-20.870645
 21
126.157908
 31
0.0
 11
-20.947466
 21
125.856685
 31
0.0
 11
-21.294362
 21
125.297582
 31
0.0
 11
-22.094930
 21
125.458790
 31
0.0
 11
-22.988991
 21
126.267781
 31
0.0
 11
-23.493043
 21
126.870093
 31
0.0
 11
-23.620048
 21
126.562814
 31
0.0
 11
-23.466720
 21
125.111957
 31
0.0
 11
-23.170608
 21
123.642145
 31
0.0
 11
-22.653137
 21
121.869864
 31
0.0
 11
-22.026331
 21
120.178806
 31
0.0
 11
-21.306891
 21
118.367568
 31
0.0
 11
-20.546547
 21
116.280226
 31
0.0
 11
-19.909910
 21
114.368681
 31
0.0
 11
-19.292247
 21
112.612459
 31
0.0
 11
-18.768574
 21
111.683634
 31
0.0
 11
-18.274293
 21
111.467625
 31
0.0
 11
-17.934085
 21
111.659545
 31
0.0
 11
-17.705786
 21
112.027333
 31
0.0
 11
-17.638822
 21
112.491367
 31
0.0
  0
LINE
  5
16a
100
AcDbEntity
  8
background
 62
7
100
AcDbLine
 10
-45.004784
 20
111.137679
 30
0.0
 11
-45.004784
 21
111.137679
 31
0.0
  0
SPLINE
  5
16b
100
AcDbEntity
  8
background
 62
7
100
AcDbSpline
 70
0
 71
3
 72
16
 73
12
 74
10
 40
0.000000
 40
0.000000
 40
0.000000
 40
0.000000
 40
0.942129
 40
1.983105
 40
3.148769
 40
4.291376
 40
5.020349
 40
6.160160
 40
7.484778
 40
8.362768
 40
9.163668
 40
9.163668
 40
9.163668
 40
9.163668
 10
-45.004784
 20
111.137679
 30
0.0
 10
-45.033048
 20
111.464899
 30
0.0
 10
-45.092543
 20
112.153672
 30
0.0
 10
-44.227828
 20
112.959265
 30
0.0
 10
-43.166256
 20
113.205560
 30
0.0
 10
-41.993393
 20
113.133898
 30
0.0
 10
-41.584870
 20
112.001443
 30
0.0
 10
-42.531222
 20
111.201988
 30
0.0
 10
-43.368504
 20
110.589178
 30
0.0
 10
-44.518850
 20
110.382043
 30
0.0
 10
-44.847841
 20
110.893631
 30
0.0
 10
-45.004784
 20
111.137679
 30
0.0
 11
-45.004784
 21
111.137679
 31
0.0
 11
-44.953234
 21
112.078397
 31
0.0
 11
-44.241278
 21
112.837838
 31
0.0
 11
-43.118212
 21
113.150079
 31
0.0
 11
-42.008405
 21
112.878273
 31
0.0
 11
-41.763448
 21
112.191688
 31
0.0
 11
-42.452287
 21
111.283575
 31
0.0
 11
-43.585935
 21
110.598407
 31
0.0
 11
-44.462494
 21
110.548304
 31
0.0
 11
-45.004784
 21
111.137679
 31
0.0
  0
LINE
  5
16c
100
AcDbEntity
  8
background
 62
7
100
AcDbLine
 10
-46.173821
 20
108.477196
 30
0.0
 11
-46.173821
 21
108.477196
 31
0.0
  0
SPLINE
  5
16d
100
AcDbEntity
  8
background
 62
7
100
AcDbSpline
 70
0
 71
3
 72
22
 73
18
 74
16
 40
0.000000
 40
0.000000
 40
0.000000
 40
0.000000
 40
0.672920
 40
1.183892
 40
2.203082
 40
4.045944
 40
5.812640
 40
7.197370
 40
7.954683
 40
8.429067
 40
8.976368
 40
9.812062
 40
11.215799
 40
12.665523
 40
14.471226
 40
16.431603
 40
17.627727
 40
17.627727
 40
17.627727
 40
17.627727
 10
-46.173821
 20
108.477196
 30
0.0
 10
-46.359152
 20
108.674935
 30
0.0
 10
-46.685211
 20
109.022826
 30
0.0
 10
-45.999775
 20
109.625842
 30
0.0
 10
-44.862661
 20
109.488639
 30
0.0
 10
-43.329753
 20
109.812864
 30
0.0
 10
-41.805832
 20
110.544655
 30
0.0
 10
-40.919107
 20
111.569535
 30
0.0
 10
-40.702905
 20
112.447623
 30
0.0
 10
-40.129271
 20
112.795831
 30
0.0
 10
-39.466173
 20
112.410870
 30
0.0
 10
-39.687529
 20
111.344225
 30
0.0
 10
-40.323086
 20
110.350051
 30
0.0
 10
-41.415836
 20
109.163824
 30
0.0
 10
-43.107654
 20
108.646000
 30
0.0
 10
-44.734924
 20
108.194474
 30
0.0
 10
-45.778405
 20
108.399502
 30
0.0
 10
-46.173821
 20
108.477196
 30
0.0
 11
-46.173821
 21
108.477196
 31
0.0
 11
-46.505471
 21
109.062712
 31
0.0
 11
-46.153459
 21
109.433091
 31
0.0
 11
-45.142497
 21
109.562329
 31
0.0
 11
-43.329028
 21
109.890157
 31
0.0
 11
-41.766807
 21
110.715191
 31
0.0
 11
-40.905877
 21
111.799754
 31
0.0
 11
-40.567859
 21
112.477446
 31
0.0
 11
-40.145171
 21
112.692794
 31
0.0
 11
-39.663658
 21
112.432632
 31
0.0
 11
-39.671363
 21
111.596973
 31
0.0
 11
-40.358158
 21
110.372723
 31
0.0
 11
-41.390337
 21
109.354731
 31
0.0
 11
-43.060573
 21
108.668530
 31
0.0
 11
-44.988773
 21
108.314800
 31
0.0
 11
-46.173821
 21
108.477196
 31
0.0
  0
SPLINE
  5
16e
100
AcDbEntity
  8
background
 62
7
100
AcDbSpline
 70
0
 71
3
 72
34
 73
30
 74
28
 40
0.000000
 40
0.000000
 40
0.000000
 40
0.000000
 40
0.023010
 40
0.045935
 40
0.068776
 40
1.148777
 40
1.961262
 40
2.859030
 40
3.679813
 40
4.431651
 40
5.188070
 40
7.750080
 40
11.098229
 40
13.929982
 40
14.592888
 40
14.781987
 40
15.705010
 40
17.134862
 40
18.544906
 40
19.847619
 40
20.965878
 40
22.756066
 40
25.219139
 40
27.301434
 40
28.370437
 40
30.813332
 40
31.776989
 40
32.664275
 40
33.584644
 40
33.584644
 40
33.584644
 40
33.584644
 10
-42.058521
 20
118.050151
 30
0.0
 10
-42.066189
 20
118.050328
 30
0.0
 10
-42.081497
 20
118.050680
 30
0.0
 10
-42.104416
 20
118.051207
 30
0.0
 10
-42.479542
 20
118.060004
 30
0.0
 10
-43.123502
 20
118.056273
 30
0.0
 10
-44.021401
 20
117.685873
 30
0.0
 10
-44.512771
 20
116.974502
 30
0.0
 10
-45.021867
 20
116.328754
 30
0.0
 10
-45.710240
 20
115.905777
 30
0.0
 10
-47.089783
 20
115.836982
 30
0.0
 10
-49.076292
 20
114.696403
 30
0.0
 10
-51.082839
 20
112.191271
 30
0.0
 10
-51.643119
 20
110.635895
 30
0.0
 10
-52.030072
 20
108.733882
 30
0.0
 10
-51.363673
 20
108.949270
 30
0.0
 10
-51.243300
 20
109.913750
 30
0.0
 10
-50.259893
 20
110.794112
 30
0.0
 10
-49.023465
 20
111.349174
 30
0.0
 10
-47.569868
 20
111.439016
 30
0.0
 10
-46.767907
 20
110.042481
 30
0.0
 10
-47.235399
 20
108.218873
 30
0.0
 10
-47.843053
 20
106.340071
 30
0.0
 10
-49.328118
 20
104.541174
 30
0.0
 10
-47.837419
 20
102.913501
 30
0.0
 10
-46.203067
 20
103.410430
 30
0.0
 10
-44.796410
 20
103.490122
 30
0.0
 10
-43.886544
 20
103.697800
 30
0.0
 10
-43.329577
 20
103.928187
 30
0.0
 10
-43.045996
 20
104.045488
 30
0.0
 11
-42.058521
 21
118.050151
 31
0.0
 11
-42.081525
 21
118.050680
 31
0.0
 11
-42.104444
 21
118.051210
 31
0.0
 11
-42.127278
 21
118.051739
 31
0.0
 11
-43.204560
 21
117.975136
 31
0.0
 11
-43.944683
 21
117.639948
 31
0.0
 11
-44.533317
 21
116.962087
 31
0.0
 11
-45.074407
 21
116.344911
 31
0.0
 11
-45.725141
 21
115.968338
 31
0.0
 11
-46.470750
 21
115.840915
 31
0.0
 11
-48.766018
 21
114.702653
 31
0.0
 11
-50.933531
 21
112.150793
 31
0.0
 11
-51.873854
 21
109.479723
 31
0.0
 11
-51.832025
 21
108.818138
 31
0.0
 11
-51.649759
 21
108.868511
 31
0.0
 11
-51.189816
 21
109.668776
 31
0.0
 11
-50.227990
 21
110.726777
 31
0.0
 11
-48.932091
 21
111.282540
 31
0.0
 11
-47.632361
 21
111.194437
 31
0.0
 11
-47.015166
 21
110.261928
 31
0.0
 11
-47.183528
 21
108.479674
 31
0.0
 11
-48.104605
 21
106.195304
 31
0.0
 11
-48.865551
 21
104.257029
 31
0.0
 11
-48.171407
 21
103.444052
 31
0.0
 11
-45.728713
 21
103.412676
 31
0.0
 11
-44.771032
 21
103.519826
 31
0.0
 11
-43.906203
 21
103.718191
 31
0.0
 11
-43.045996
 21
104.045488
 31
0.0
  0
LINE
  5
16f
100
AcDbEntity
  8
background
 62
7
100
AcDbLine
 10
-35.558627
 20
111.954344
 30
0.0
 11
-35.522702
 21
113.822782
 31
0.0
  0
LINE
  5
170
100
AcDbEntity
  8
background
 62
7
100
AcDbLine
 10
-35.522702
 20
113.822782
 30
0.0
 11
-37.901819
 21
113.676210
 31
0.0
  0
SPLINE
  5
171
100
AcDbEntity
  8
background
 62
7
100
AcDbSpline
 70
0
 71
3
 72
10
 73
6
 74
4
 40
0.000000
 40
0.000000
 40
0.000000
 40
0.000000
 40
2.733206
 40
4.639711
 40
6.573108
 40
6.573108
 40
6.573108
 40
6.573108
 10
-38.945532
 20
106.657026
 30
0.0
 10
-38.214046
 20
107.201738
 30
0.0
 10
-36.972323
 20
108.126405
 30
0.0
 10
-35.677160
 20
110.000009
 30
0.0
 10
-35.598322
 20
111.299865
 30
0.0
 10
-35.558627
 20
111.954344
 30
0.0
 11
-38.945532
 21
106.657026
 31
0.0
 11
-36.864730
 21
108.429223
 31
0.0
 11
-35.849538
 21
110.042960
 31
0.0
 11
-35.558627
 21
111.954344
 31
0.0
  0
SPLINE
  5
172
100
AcDbEntity
  8
background
 62
7
100
AcDbSpline
 70
0
 71
3
 72
19
 73
15
 74
13
 40
0.000000
 40
0.000000
 40
0.000000
 40
0.000000
 40
1.323538
 40
2.393134
 40
3.087207
 40
4.229749
 40
5.227442
 40
6.586005
 40
7.537882
 40
7.846394
 40
8.374846
 40
8.540588
 40
8.737981
 40
8.962533
 40
8.962533
 40
8.962533
 40
8.962533
 10
-37.901819
 20
113.676210
 30
0.0
 10
-38.342958
 20
113.662950
 30
0.0
 10
-39.140596
 20
113.638973
 30
0.0
 10
-40.169995
 20
113.744316
 30
0.0
 10
-41.098267
 20
114.061742
 30
0.0
 10
-41.722209
 20
114.962549
 30
0.0
 10
-41.316464
 20
116.180701
 30
0.0
 10
-40.295541
 20
116.799072
 30
0.0
 10
-39.467060
 20
116.930621
 30
0.0
 10
-38.994024
 20
117.529496
 30
0.0
 10
-39.505785
 20
117.645433
 30
0.0
 10
-39.766618
 20
117.744862
 30
0.0
 10
-39.959962
 20
117.794671
 30
0.0
 10
-40.096858
 20
117.824391
 30
0.0
 10
-40.169711
 20
117.840207
 30
0.0
 11
-37.901819
 21
113.676210
 31
0.0
 11
-39.225336
 21
113.668740
 31
0.0
 11
-40.286108
 21
113.805845
 31
0.0
 11
-40.928983
 21
114.067474
 31
0.0
 11
-41.549093
 21
115.027091
 31
0.0
 11
-41.276932
 21
115.986945
 31
0.0
 11
-40.163858
 21
116.765893
 31
0.0
 11
-39.300850
 21
117.167498
 31
0.0
 11
-39.140296
 21
117.430941
 31
0.0
 11
-39.603275
 21
117.685719
 31
0.0
 11
-39.760115
 21
117.739307
 31
0.0
 11
-39.950607
 21
117.791047
 31
0.0
 11
-40.169711
 21
117.840207
 31
0.0
  0
LINE
  5
173
100
AcDbEntity
  8
background
 62
7
100
AcDbLine
 10
-33.053457
 20
110.834855
 30
0.0
 11
-34.335678
 21
111.782839
 31
0.0
  0
LINE
  5
174
100
AcDbEntity
  8
background
 62
7
100
AcDbLine
 10
-34.335678
 20
111.782839
 30
0.0
 11
-35.068645
 21
109.887763
 31
0.0
  0
SPLINE
  5
175
100
AcDbEntity
  8
background
 62
7
100
AcDbSpline
 70
0
 71
3
 72
31
 73
27
 74
25
 40
0.000000
 40
0.000000
 40
0.000000
 40
0.000000
 40
0.701573
 40
1.319912
 40
1.812835
 40
3.196399
 40
4.857048
 40
6.866734
 40
9.841854
 40
14.069538
 40
19.356373
 40
21.774740
 40
23.838166
 40
25.103340
 40
28.371875
 40
31.921590
 40
34.677870
 40
35.632004
 40
35.999463
 40
37.350669
 40
38.315018
 40
39.325661
 40
40.190940
 40
41.120303
 40
41.690987
 40
42.794351
 40
42.794351
 40
42.794351
 40
42.794351
 10
-25.272104
 20
131.940506
 30
0.0
 10
-25.381796
 20
132.147313
 30
0.0
 10
-25.588166
 20
132.536391
 30
0.0
 10
-25.946705
 20
133.025721
 30
0.0
 10
-26.587056
 20
133.580390
 30
0.0
 10
-27.907952
 20
133.618106
 30
0.0
 10
-29.359901
 20
132.684165
 30
0.0
 10
-30.753272
 20
130.889026
 30
0.0
 10
-31.334281
 20
127.786428
 30
0.0
 10
-31.219910
 20
123.625995
 30
0.0
 10
-30.564653
 20
119.691345
 30
0.0
 10
-29.915582
 20
116.498359
 30
0.0
 10
-29.628482
 20
114.610207
 30
0.0
 10
-29.312720
 20
112.412245
 30
0.0
 10
-30.294063
 20
109.790971
 30
0.0
 10
-32.443076
 20
107.139453
 30
0.0
 10
-34.096764
 20
106.058745
 30
0.0
 10
-36.223349
 20
105.818377
 30
0.0
 10
-35.782211
 20
106.828985
 30
0.0
 10
-34.790687
 20
106.898480
 30
0.0
 10
-33.855521
 20
107.491062
 30
0.0
 10
-33.080077
 20
108.059345
 30
0.0
 10
-32.506187
 20
108.770429
 30
0.0
 10
-31.943191
 20
109.439686
 30
0.0
 10
-32.222830
 20
110.353615
 30
0.0
 10
-32.723479
 20
110.643676
 30
0.0
 10
-33.053457
 20
110.834855
 30
0.0
 11
-25.272104
 21
131.940506
 31
0.0
 11
-25.616628
 21
132.551659
 31
0.0
 11
-25.991773
 21
133.043197
 31
0.0
 11
-26.373573
 21
133.354969
 31
0.0
 11
-27.750310
 21
133.492244
 31
0.0
 11
-29.201304
 21
132.684549
 31
0.0
 11
-30.432063
 21
131.095816
 31
0.0
 11
-31.166530
 21
128.212780
 31
0.0
 11
-31.143658
 21
123.985158
 31
0.0
 11
-30.365306
 21
118.755933
 31
0.0
 11
-29.913514
 21
116.380142
 31
0.0
 11
-29.591281
 21
114.342032
 31
0.0
 11
-29.468368
 21
113.082843
 31
0.0
 11
-30.421392
 21
109.956331
 31
0.0
 11
-32.627808
 21
107.175648
 31
0.0
 11
-35.108637
 21
105.974579
 31
0.0
 11
-36.056376
 21
106.084857
 31
0.0
 11
-35.928509
 21
106.429351
 31
0.0
 11
-34.717426
 21
107.028549
 31
0.0
 11
-33.872367
 21
107.493138
 31
0.0
 11
-33.077656
 21
108.117504
 31
0.0
 11
-32.505343
 21
108.766478
 31
0.0
 11
-32.056715
 21
109.580387
 31
0.0
 11
-32.202899
 21
110.132031
 31
0.0
 11
-33.053457
 21
110.834855
 31
0.0
  0
SPLINE
  5
176
100
AcDbEntity
  8
background
 62
7
100
AcDbSpline
 70
0
 71
3
 72
10
 73
6
 74
4
 40
0.000000
 40
0.000000
 40
0.000000
 40
0.000000
 40
1.347522
 40
2.906928
 40
4.635760
 40
4.635760
 40
4.635760
 40
4.635760
 10
-35.068645
 20
109.887763
 30
0.0
 10
-35.269572
 20
109.484330
 30
0.0
 10
-35.703021
 20
108.614029
 30
0.0
 10
-36.732491
 20
107.441418
 30
0.0
 10
-37.557309
 20
106.720476
 30
0.0
 10
-37.990968
 20
106.341431
 30
0.0
 11
-35.068645
 21
109.887763
 31
0.0
 11
-35.717004
 21
108.706473
 31
0.0
 11
-36.716141
 21
107.509196
 31
0.0
 11
-37.990968
 21
106.341431
 31
0.0
  0
LINE
  5
177
100
AcDbEntity
  8
background
 62
7
100
AcDbLine
 10
-22.755520
 20
106.101766
 30
0.0
 11
-21.835873
 21
104.404941
 31
0.0
  0
LINE
  5
178
100
AcDbEntity
  8
background
 62
7
100
AcDbLine
 10
-21.835873
 20
104.404941
 30
0.0
 11
-21.952256
 21
107.433047
 31
0.0
  0
SPLINE
  5
179
100
AcDbEntity
  8
background
 62
7
100
AcDbSpline
 70
0
 71
3
 72
76
 73
72
 74
70
 40
0.000000
 40
0.000000
 40
0.000000
 40
0.000000
 40
0.793187
 40
1.683468
 40
2.936946
 40
4.451849
 40
6.030115
 40
7.337544
 40
8.806414
 40
10.456065
 40
13.113746
 40
16.700448
 40
19.368357
 40
21.530038
 40
22.671918
 40
23.146949
 40
24.593017
 40
26.330032
 40
28.954277
 40
33.945047
 40
38.342182
 40
42.377460
 40
47.005155
 40
50.479413
 40
52.780717
 40
54.207948
 40
55.722389
 40
57.752654
 40
59.959118
 40
62.823719
 40
66.286224
 40
70.786716
 40
77.046305
 40
80.163320
 40
83.148641
 40
85.734935
 40
86.115436
 40
88.585862
 40
91.027356
 40
92.475050
 40
93.415763
 40
93.912224
 40
94.414103
 40
94.909038
 40
95.410277
 40
95.918250
 40
96.437298
 40
96.950389
 40
97.455075
 40
97.938833
 40
99.554865
 40
101.345715
 40
102.377646
 40
102.629374
 40
102.906470
 40
103.220697
 40
103.556937
 40
103.940870
 40
104.533353
 40
105.833019
 40
107.101565
 40
107.977730
 40
108.237337
 40
108.633474
 40
109.230301
 40
109.959198
 40
110.361713
 40
111.056400
 40
112.264018
 40
112.901882
 40
114.420430
 40
114.420430
 40
114.420430
 40
114.420430
 10
-6.418806
 20
125.462742
 30
0.0
 10
-6.508422
 20
125.211413
 30
0.0
 10
-6.698625
 20
124.677989
 30
0.0
 10
-6.643933
 20
123.683137
 30
0.0
 10
-6.447441
 20
122.484708
 30
0.0
 10
-6.289359
 20
121.042345
 30
0.0
 10
-6.217603
 20
119.573943
 30
0.0
 10
-6.288804
 20
118.128519
 30
0.0
 10
-6.388093
 20
116.633843
 30
0.0
 10
-5.665961
 20
114.806809
 30
0.0
 10
-4.352397
 20
112.525258
 30
0.0
 10
-2.947901
 20
109.974306
 30
0.0
 10
-1.856007
 20
107.173997
 30
0.0
 10
-1.718979
 20
105.605235
 30
0.0
 10
-1.552787
 20
103.619368
 30
0.0
 10
-2.722463
 20
104.184445
 30
0.0
 10
-2.627728
 20
105.566558
 30
0.0
 10
-3.193329
 20
107.383783
 30
0.0
 10
-4.614809
 20
110.191159
 30
0.0
 10
-6.639918
 20
113.627925
 30
0.0
 10
-8.741565
 20
117.594949
 30
0.0
 10
-10.050838
 20
121.776732
 30
0.0
 10
-10.490102
 20
125.814782
 30
0.0
 10
-10.999747
 20
129.225883
 30
0.0
 10
-11.687451
 20
131.585353
 30
0.0
 10
-13.332970
 20
132.729278
 30
0.0
 10
-14.958065
 20
131.832167
 30
0.0
 10
-16.312319
 20
130.538451
 30
0.0
 10
-17.629647
 20
128.512496
 30
0.0
 10
-18.311833
 20
125.697787
 30
0.0
 10
-18.115980
 20
122.065014
 30
0.0
 10
-17.020262
 20
117.416590
 30
0.0
 10
-15.738059
 20
113.096149
 30
0.0
 10
-14.956469
 20
108.774586
 30
0.0
 10
-16.219780
 20
106.423695
 30
0.0
 10
-16.060597
 20
103.480926
 30
0.0
 10
-18.128921
 20
103.563904
 30
0.0
 10
-16.568579
 20
106.309516
 30
0.0
 10
-16.674775
 20
107.961661
 30
0.0
 10
-16.600621
 20
109.863283
 30
0.0
 10
-17.729031
 20
110.265727
 30
0.0
 10
-18.302086
 20
109.918042
 30
0.0
 10
-18.630611
 20
109.520175
 30
0.0
 10
-18.705458
 20
109.016725
 30
0.0
 10
-18.780516
 20
108.515673
 30
0.0
 10
-19.120485
 20
108.095632
 30
0.0
 10
-19.600663
 20
107.899653
 30
0.0
 10
-20.077104
 20
107.701167
 30
0.0
 10
-20.417816
 20
107.294770
 30
0.0
 10
-20.561050
 20
106.429669
 30
0.0
 10
-20.782598
 20
105.103928
 30
0.0
 10
-21.397046
 20
103.942398
 30
0.0
 10
-21.992210
 20
102.718011
 30
0.0
 10
-22.532809
 20
102.901693
 30
0.0
 10
-22.707940
 20
103.143420
 30
0.0
 10
-22.732909
 20
103.448831
 30
0.0
 10
-22.822251
 20
103.818242
 30
0.0
 10
-23.305629
 20
103.938352
 30
0.0
 10
-24.031802
 20
103.789027
 30
0.0
 10
-25.143729
 20
103.857387
 30
0.0
 10
-26.122303
 20
104.252655
 30
0.0
 10
-26.932130
 20
104.938145
 30
0.0
 10
-26.627090
 20
105.438608
 30
0.0
 10
-26.163692
 20
105.434871
 30
0.0
 10
-25.622486
 20
105.366429
 30
0.0
 10
-25.030311
 20
105.106523
 30
0.0
 10
-24.470175
 20
105.523410
 30
0.0
 10
-24.557761
 20
106.307455
 30
0.0
 10
-24.623694
 20
107.480315
 30
0.0
 10
-23.241221
 20
107.345826
 30
0.0
 10
-22.956219
 20
106.615830
 30
0.0
 10
-22.755520
 20
106.101766
 30
0.0
 11
-6.418806
 21
125.462742
 31
0.0
 11
-6.638472
 21
124.700579
 31
0.0
 11
-6.637725
 21
123.810298
 31
0.0
 11
-6.471321
 21
122.567914
 31
0.0
 11
-6.306549
 21
121.061999
 31
0.0
 11
-6.241376
 21
119.485079
 31
0.0
 11
-6.289909
 21
118.178551
 31
0.0
 11
-6.282021
 21
116.709702
 31
0.0
 11
-5.765839
 21
115.142889
 31
0.0
 11
-4.516949
 21
112.796926
 31
0.0
 11
-2.860400
 21
109.615688
 31
0.0
 11
-1.947714
 21
107.108749
 31
0.0
 11
-1.665823
 21
104.965526
 31
0.0
 11
-1.866873
 21
103.841485
 31
0.0
 11
-2.303751
 21
104.028012
 31
0.0
 11
-2.716259
 21
105.413995
 31
0.0
 11
-3.144693
 21
107.097344
 31
0.0
 11
-4.270109
 21
109.468020
 31
0.0
 11
-6.708107
 21
113.822782
 31
0.0
 11
-8.669087
 21
117.758434
 31
0.0
 11
-9.871041
 21
121.610546
 31
0.0
 11
-10.565674
 21
126.185811
 31
0.0
 11
-11.154366
 21
129.609831
 31
0.0
 11
-12.081085
 21
131.716296
 31
0.0
 11
-13.314602
 21
132.434224
 31
0.0
 11
-14.730342
 21
131.896438
 31
0.0
 11
-16.222212
 21
130.519377
 31
0.0
 11
-17.406214
 21
128.657490
 31
0.0
 11
-18.136896
 21
125.887644
 31
0.0
 11
-18.045998
 21
122.426333
 31
0.0
 11
-17.126877
 21
118.020695
 31
0.0
 11
-15.569594
 21
111.957913
 31
0.0
 11
-15.280301
 21
108.854352
 31
0.0
 11
-16.002446
 21
105.957690
 31
0.0
 11
-16.919551
 21
103.539461
 31
0.0
 11
-17.299620
 21
103.557580
 31
0.0
 11
-16.947114
 21
106.002728
 31
0.0
 11
-16.642245
 21
108.425112
 31
0.0
 11
-16.949540
 21
109.839816
 31
0.0
 11
-17.843925
 21
110.131394
 31
0.0
 11
-18.281838
 21
109.897502
 31
0.0
 11
-18.589172
 21
109.500730
 31
0.0
 11
-18.705128
 21
109.019570
 31
0.0
 11
-18.823137
 21
108.532421
 31
0.0
 11
-19.140464
 21
108.135760
 31
0.0
 11
-19.602060
 21
107.898398
 31
0.0
 11
-20.058213
 21
107.663480
 31
0.0
 11
-20.378265
 21
107.273256
 31
0.0
 11
-20.498997
 21
106.804807
 31
0.0
 11
-20.835104
 21
105.224113
 31
0.0
 11
-21.564764
 21
103.588650
 31
0.0
 11
-22.269991
 21
102.835300
 31
0.0
 11
-22.507410
 21
102.918963
 31
0.0
 11
-22.676748
 21
103.138296
 31
0.0
 11
-22.741341
 21
103.445813
 31
0.0
 11
-22.862382
 21
103.759510
 31
0.0
 11
-23.221404
 21
103.895552
 31
0.0
 11
-23.812255
 21
103.851607
 31
0.0
 11
-25.110157
 21
103.919312
 31
0.0
 11
-26.273334
 21
104.425500
 31
0.0
 11
-26.777556
 21
105.142038
 31
0.0
 11
-26.636718
 21
105.360122
 31
0.0
 11
-26.246732
 21
105.429659
 31
0.0
 11
-25.656385
 21
105.341952
 31
0.0
 11
-24.935339
 21
105.235261
 31
0.0
 11
-24.610701
 21
105.473230
 31
0.0
 11
-24.535213
 21
106.163803
 31
0.0
 11
-24.293224
 21
107.346927
 31
0.0
 11
-23.655747
 21
107.324705
 31
0.0
 11
-22.755520
 21
106.101766
 31
0.0
  0
SPLINE
  5
17a
100
AcDbEntity
  8
background
 62
7
100
AcDbSpline
 70
0
 71
3
 72
22
 73
18
 74
16
 40
0.000000
 40
0.000000
 40
0.000000
 40
0.000000
 40
1.525487
 40
2.613335
 40
3.035328
 40
3.266669
 40
3.716885
 40
4.293582
 40
5.012036
 40
5.237284
 40
5.732609
 40
8.042998
 40
11.531493
 40
15.193847
 40
18.418743
 40
21.997551
 40
24.877958
 40
24.877958
 40
24.877958
 40
24.877958
 10
-21.952256
 20
107.433047
 30
0.0
 10
-21.975264
 20
107.968743
 30
0.0
 10
-22.014680
 20
108.886453
 30
0.0
 10
-21.936768
 20
109.673000
 30
0.0
 10
-21.979293
 20
110.568875
 30
0.0
 10
-21.584230
 20
110.299557
 30
0.0
 10
-21.287318
 20
110.073343
 30
0.0
 10
-20.809063
 20
109.714942
 30
0.0
 10
-20.527175
 20
109.242892
 30
0.0
 10
-19.950689
 20
109.238618
 30
0.0
 10
-20.211462
 20
110.586987
 30
0.0
 10
-20.409506
 20
112.301067
 30
0.0
 10
-21.412254
 20
115.508199
 30
0.0
 10
-22.671730
 20
118.663350
 30
0.0
 10
-23.802165
 20
121.982340
 30
0.0
 10
-24.534049
 20
125.132259
 30
0.0
 10
-24.770444
 20
127.273893
 30
0.0
 10
-24.875862
 20
128.228929
 30
0.0
 11
-21.952256
 21
107.433047
 31
0.0
 11
-21.984993
 21
108.958183
 31
0.0
 11
-21.958938
 21
110.045719
 31
0.0
 11
-21.879715
 21
110.460208
 31
0.0
 11
-21.672167
 21
110.358019
 31
0.0
 11
-21.309655
 21
110.091037
 31
0.0
 11
-20.870660
 21
109.717054
 31
0.0
 11
-20.318023
 21
109.257960
 31
0.0
 11
-20.093150
 21
109.270953
 31
0.0
 11
-20.050528
 21
109.764441
 31
0.0
 11
-20.441033
 21
112.041588
 31
0.0
 11
-21.420039
 21
115.389894
 31
0.0
 11
-22.698780
 21
118.821753
 31
0.0
 11
-23.714361
 21
121.882561
 31
0.0
 11
-24.509543
 21
125.371910
 31
0.0
 11
-24.875862
 21
128.228929
 31
0.0
  0
LINE
  5
17b
100
AcDbEntity
  8
background
 62
7
100
AcDbLine
 10
-47.252506
 20
102.505499
 30
0.0
 11
-49.205708
 21
102.725654
 31
0.0
  0
LINE
  5
17c
100
AcDbEntity
  8
background
 62
7
100
AcDbLine
 10
-49.205708
 20
102.725654
 30
0.0
 11
-47.688508
 21
100.650254
 31
0.0
  0
SPLINE
  5
17d
100
AcDbEntity
  8
background
 62
7
100
AcDbSpline
 70
0
 71
3
 72
10
 73
6
 74
4
 40
0.000000
 40
0.000000
 40
0.000000
 40
0.000000
 40
1.613411
 40
3.070326
 40
4.336979
 40
4.336979
 40
4.336979
 40
4.336979
 10
-43.032802
 20
103.339167
 30
0.0
 10
-43.536942
 20
103.152584
 30
0.0
 10
-44.496321
 20
102.797515
 30
0.0
 10
-45.918651
 20
102.472894
 30
0.0
 10
-46.829088
 20
102.495149
 30
0.0
 10
-47.252506
 20
102.505499
 30
0.0
 11
-43.032802
 21
103.339167
 31
0.0
 11
-44.558351
 21
102.814005
 31
0.0
 11
-45.985979
 21
102.523355
 31
0.0
 11
-47.252506
 21
102.505499
 31
0.0
  0
SPLINE
  5
17e
100
AcDbEntity
  8
background
 62
7
100
AcDbSpline
 70
0
 71
3
 72
31
 73
27
 74
25
 40
0.000000
 40
0.000000
 40
0.000000
 40
0.000000
 40
6.196425
 40
12.933055
 40
19.619509
 40
24.626875
 40
29.039222
 40
33.290451
 40
37.972861
 40
42.541290
 40
45.652595
 40
48.842269
 40
52.951044
 40
57.294156
 40
60.204675
 40
63.294417
 40
68.408208
 40
73.405324
 40
76.445463
 40
79.041207
 40
80.796567
 40
82.233231
 40
83.043272
 40
83.930406
 40
85.137490
 40
87.008672
 40
87.008672
 40
87.008672
 40
87.008672
 10
-47.688508
 20
100.650254
 30
0.0
 10
-46.300185
 20
99.107787
 30
0.0
 10
-43.402505
 20
95.888381
 30
0.0
 10
-37.686590
 20
92.518708
 30
0.0
 10
-31.844889
 20
90.514736
 30
0.0
 10
-26.527391
 20
89.676889
 30
0.0
 10
-21.969609
 20
89.397014
 30
0.0
 10
-17.520706
 20
89.753197
 30
0.0
 10
-13.112541
 20
90.764877
 30
0.0
 10
-9.236440
 20
92.082773
 30
0.0
 10
-5.858800
 20
93.640738
 30
0.0
 10
-3.855465
 20
96.588865
 30
0.0
 10
-1.964606
 20
99.952995
 30
0.0
 10
-0.563318
 20
103.487517
 30
0.0
 10
0.443226
 20
106.797787
 30
0.0
 10
0.757782
 20
110.507114
 30
0.0
 10
0.748368
 20
114.905600
 30
0.0
 10
0.779689
 20
119.284899
 30
0.0
 10
0.560824
 20
122.840437
 30
0.0
 10
-0.112741
 20
125.218846
 30
0.0
 10
-0.710041
 20
127.057694
 30
0.0
 10
-1.214359
 20
128.282263
 30
0.0
 10
-1.516136
 20
129.309662
 30
0.0
 10
-2.502139
 20
129.859392
 30
0.0
 10
-3.745305
 20
129.056210
 30
0.0
 10
-4.411488
 20
128.306209
 30
0.0
 10
-4.816439
 20
127.850307
 30
0.0
 11
-47.688508
 21
100.650254
 31
0.0
 11
-43.323780
 21
96.251978
 31
0.0
 11
-37.585350
 21
92.723153
 31
0.0
 11
-31.262243
 21
90.548989
 31
0.0
 11
-26.322322
 21
89.729911
 31
0.0
 11
-21.915985
 21
89.499695
 31
0.0
 11
-17.678340
 21
89.839279
 31
0.0
 11
-13.105984
 21
90.848500
 31
0.0
 11
-8.787170
 21
92.337925
 31
0.0
 11
-6.064897
 21
93.844393
 31
0.0
 11
-4.074198
 21
96.336608
 31
0.0
 11
-2.080760
 21
99.929412
 31
0.0
 11
-0.454288
 21
103.956472
 31
0.0
 11
0.328357
 21
106.759789
 31
0.0
 11
0.666731
 21
109.830947
 31
0.0
 11
0.756289
 21
114.943953
 31
0.0
 11
0.712999
 21
119.940882
 31
0.0
 11
0.435985
 21
122.968374
 31
0.0
 11
-0.208017
 21
125.482961
 31
0.0
 11
-0.764953
 21
127.147626
 31
0.0
 11
-1.266021
 21
128.494079
 31
0.0
 11
-1.602741
 21
129.230818
 31
0.0
 11
-2.383745
 21
129.651580
 31
0.0
 11
-3.491153
 21
129.171269
 31
0.0
 11
-4.816439
 21
127.850307
 31
0.0
  0
LINE
  5
17f
100
AcDbEntity
  8
background
 62
7
100
AcDbLine
 10
-38.196361
 20
126.560731
 30
0.0
 11
-35.038181
 21
127.686051
 31
0.0
  0
LINE
  5
180
100
AcDbEntity
  8
background
 62
7
100
AcDbLine
 10
-35.050526
 20
128.740966
 30
0.0
 11
-36.577818
 21
128.855266
 31
0.0
  0
LINE
  5
181
100
AcDbEntity
  8
background
 62
7
100
AcDbLine
 10
-37.065847
 20
128.855407
 30
0.0
 11
-38.729449
 21
129.363732
 31
0.0
  0
LINE
  5
182
100
AcDbEntity
  8
background
 62
7
100
AcDbLine
 10
-25.272104
 20
131.940506
 30
0.0
 11
-23.930738
 21
132.032132
 31
0.0
  0
LINE
  5
183
100
AcDbEntity
  8
background
 62
7
100
AcDbLine
 10
-24.875862
 20
128.228929
 30
0.0
 11
-23.048292
 21
128.148051
 31
0.0
  0
LINE
  5
184
100
AcDbEntity
  8
background
 62
7
100
AcDbLine
 10
-22.842843
 20
130.461901
 30
0.0
 11
-22.919832
 21
128.917261
 31
0.0
  0
LINE
  5
185
100
AcDbEntity
  8
background
 62
7
100
AcDbLine
 10
-6.418806
 20
125.462742
 30
0.0
 11
-8.540246
 21
127.856403
 31
0.0
  0
LINE
  5
186
100
AcDbEntity
  8
background
 62
7
100
AcDbLine
 10
-6.069003
 20
127.834364
 30
0.0
 11
-4.816439
 21
127.850291
 31
0.0
  0
LINE
  5
187
100
AcDbEntity
  8
background
 62
7
100
AcDbLine
 10
-8.105427
 20
127.843984
 30
0.0
 11
-7.841116
 21
130.965014
 31
0.0
  0
LINE
  5
188
100
AcDbEntity
  8
background
 62
7
100
AcDbLine
 10
-6.811691
 20
130.960786
 30
0.0
 11
-6.790816
 21
127.837927
 31
0.0
  0
LINE
  5
189
100
AcDbEntity
  8
background
 62
7
100
AcDbLine
 10
-41.650182
 20
119.832559
 30
0.0
 11
-42.313696
 21
118.020031
 31
0.0
  0
LINE
  5
18a
100
AcDbEntity
  8
background
 62
7
100
AcDbLine
 10
-39.303605
 20
119.363241
 30
0.0
 11
-39.853836
 21
117.809648
 31
0.0
  0
SPLINE
  5
18b
100
AcDbEntity
  8
background
 62
7
100
AcDbSpline
 70
0
 71
3
 72
34
 73
30
 74
28
 40
0.000000
 40
0.000000
 40
0.000000
 40
0.000000
 40
3.306763
 40
6.630789
 40
9.990080
 40
11.338744
 40
13.045504
 40
14.394522
 40
20.040308
 40
25.634056
 40
31.272208
 40
38.349322
 40
45.351317
 40
52.360074
 40
53.635690
 40
54.819268
 40
56.250379
 40
57.681489
 40
58.865066
 40
60.140680
 40
65.109474
 40
70.089894
 40
75.068355
 40
82.803971
 40
90.403817
 40
98.086179
 40
98.236505
 40
98.409753
 40
98.603384
 40
98.603384
 40
98.603384
 40
98.603384
 10
-52.530629
 20
113.362388
 30
0.0
 10
-52.960972
 20
114.378830
 30
0.0
 10
-53.823904
 20
116.417021
 30
0.0
 10
-54.637934
 20
119.656172
 30
0.0
 10
-55.039038
 20
122.311545
 30
0.0
 10
-55.100045
 20
124.450174
 30
0.0
 10
-55.100765
 20
125.918290
 30
0.0
 10
-55.012836
 20
128.818494
 30
0.0
 10
-54.216949
 20
132.978138
 30
0.0
 10
-52.138655
 20
138.240036
 30
0.0
 10
-48.760147
 20
143.373769
 30
0.0
 10
-43.967691
 20
147.971985
 30
0.0
 10
-37.791027
 20
151.478951
 30
0.0
 10
-32.806128
 20
152.796800
 30
0.0
 10
-29.671931
 20
153.169213
 30
0.0
 10
-28.376712
 20
153.248247
 30
0.0
 10
-27.027912
 20
153.255714
 30
0.0
 10
-25.679101
 20
153.248230
 30
0.0
 10
-24.383913
 20
153.169271
 30
0.0
 10
-21.924784
 20
152.876513
 30
0.0
 10
-18.254345
 20
152.047661
 30
0.0
 10
-13.655593
 20
150.075561
 30
0.0
 10
-8.709903
 20
146.811846
 30
0.0
 10
-3.965829
 20
141.851938
 30
0.0
 10
-0.314551
 20
135.004615
 30
0.0
 10
0.809335
 20
129.902630
 30
0.0
 10
0.996989
 20
127.240638
 30
0.0
 10
1.005871
 20
127.068454
 30
0.0
 10
1.010737
 20
126.946258
 30
0.0
 10
1.013305
 20
126.881766
 30
0.0
 11
-52.530629
 21
113.362388
 31
0.0
 11
-53.741419
 21
116.439508
 31
0.0
 11
-54.582908
 21
119.655258
 31
0.0
 11
-55.042541
 21
122.982956
 31
0.0
 11
-55.091075
 21
124.330747
 31
0.0
 11
-55.091035
 21
126.037507
 31
0.0
 11
-55.042435
 21
127.385649
 31
0.0
 11
-54.043741
 21
132.942402
 31
0.0
 11
-51.973106
 21
138.138794
 31
0.0
 11
-48.879342
 21
142.852325
 31
0.0
 11
-43.772121
 21
147.751492
 31
0.0
 11
-37.676832
 21
151.197560
 31
0.0
 11
-30.907305
 21
153.013100
 31
0.0
 11
-29.640204
 21
153.160249
 31
0.0
 11
-28.458884
 21
153.233323
 31
0.0
 11
-27.027910
 21
153.253070
 31
0.0
 11
-25.596936
 21
153.233323
 31
0.0
 11
-24.415617
 21
153.160249
 31
0.0
 11
-23.148519
 21
153.013100
 31
0.0
 11
-18.305107
 21
151.903925
 31
0.0
 11
-13.726135
 21
149.944945
 31
0.0
 11
-9.570147
 21
147.203988
 31
0.0
 11
-4.226423
 21
141.610746
 31
0.0
 11
-0.651923
 21
134.903987
 31
0.0
 11
0.985738
 21
127.398206
 31
0.0
 11
0.996014
 21
127.248231
 31
0.0
 11
1.005201
 21
127.075227
 31
0.0
 11
1.013305
 21
126.881766
 31
0.0
  0
LINE
  5
18c
100
AcDbEntity
  8
background
 62
7
100
AcDbLine
 10
-15.445501
 20
147.476223
 30
0.0
 11
-15.053967
 21
146.948594
 31
0.0
  0
LINE
  5
18d
100
AcDbEntity
  8
background
 62
7
100
AcDbLine
 10
-15.053967
 20
146.948594
 30
0.0
 11
-14.471239
 21
146.916733
 31
0.0
  0
SPLINE
  5
18e
100
AcDbEntity
  8
background
 62
7
100
AcDbSpline
 70
0
 71
3
 72
28
 73
24
 74
22
 40
0.000000
 40
0.000000
 40
0.000000
 40
0.000000
 40
0.122642
 40
0.222387
 40
0.279354
 40
0.577166
 40
1.157670
 40
1.893415
 40
4.880536
 40
8.224531
 40
11.483240
 40
13.961841
 40
16.495260
 40
18.879780
 40
19.595688
 40
19.747144
 40
20.176329
 40
22.119094
 40
24.032022
 40
25.900902
 40
26.956469
 40
28.131703
 40
29.186734
 40
29.186734
 40
29.186734
 40
29.186734
 10
-6.806143
 20
142.944300
 30
0.0
 10
-6.779444
 20
142.975367
 30
0.0
 10
-6.731032
 20
143.031701
 30
0.0
 10
-6.676235
 20
143.106227
 30
0.0
 10
-6.609757
 20
143.248803
 30
0.0
 10
-6.873330
 20
143.528128
 30
0.0
 10
-7.143641
 20
143.942546
 30
0.0
 10
-8.146271
 20
145.016594
 30
0.0
 10
-9.900540
 20
146.557570
 30
0.0
 10
-12.529271
 20
148.403701
 30
0.0
 10
-15.160139
 20
149.904809
 30
0.0
 10
-17.723928
 20
150.959154
 30
0.0
 10
-20.026893
 20
151.733497
 30
0.0
 10
-21.984318
 20
152.111343
 30
0.0
 10
-22.906296
 20
152.328680
 30
0.0
 10
-23.466442
 20
152.343930
 30
0.0
 10
-21.942571
 20
152.044259
 30
0.0
 10
-21.203778
 20
151.735851
 30
0.0
 10
-19.245428
 20
150.885071
 30
0.0
 10
-17.937007
 20
150.015985
 30
0.0
 10
-16.905387
 20
149.106695
 30
0.0
 10
-16.134805
 20
148.328265
 30
0.0
 10
-15.666862
 20
147.749845
 30
0.0
 10
-15.445501
 20
147.476223
 30
0.0
 11
-6.806143
 21
142.944300
 31
0.0
 11
-6.727504
 21
143.038412
 31
0.0
 11
-6.671012
 21
143.120616
 31
0.0
 11
-6.648898
 21
143.173117
 31
0.0
 11
-6.782119
 21
143.439470
 31
0.0
 11
-7.134415
 21
143.900851
 31
0.0
 11
-7.623946
 21
144.450104
 31
0.0
 11
-9.848422
 21
146.443746
 31
0.0
 11
-12.579044
 21
148.374032
 31
0.0
 11
-15.423678
 21
149.963762
 31
0.0
 11
-17.708619
 21
150.924232
 31
0.0
 11
-20.120345
 21
151.699985
 31
0.0
 11
-22.446839
 21
152.222824
 31
0.0
 11
-23.154084
 21
152.333863
 31
0.0
 11
-23.305530
 21
152.335507
 31
0.0
 11
-22.890121
 21
152.227640
 31
0.0
 11
-21.032537
 21
151.658677
 31
0.0
 11
-19.299653
 21
150.848488
 31
0.0
 11
-17.739531
 21
149.819543
 31
0.0
 11
-16.944049
 21
149.125689
 31
0.0
 11
-16.121912
 21
148.285888
 31
0.0
 11
-15.445501
 21
147.476223
 31
0.0
  0
LINE
  5
18f
100
AcDbEntity
  8
background
 62
7
100
AcDbLine
 10
-6.806143
 20
142.944308
 30
0.0
 11
-6.806143
 21
142.944310
 31
0.0
  0
LINE
  5
190
100
AcDbEntity
  8
background
 62
7
100
AcDbLine
 10
-6.806143
 20
142.944310
 30
0.0
 11
-6.806143
 21
142.944300
 31
0.0
  0
SPLINE
  5
191
100
AcDbEntity
  8
background
 62
7
100
AcDbSpline
 70
0
 71
3
 72
16
 73
12
 74
10
 40
0.000000
 40
0.000000
 40
0.000000
 40
0.000000
 40
2.411205
 40
4.829970
 40
7.687060
 40
8.235073
 40
8.630359
 40
8.787343
 40
8.821143
 40
8.905197
 40
9.022036
 40
9.022036
 40
9.022036
 40
9.022036
 10
-14.471239
 20
146.916733
 30
0.0
 10
-13.666886
 20
146.823538
 30
0.0
 10
-12.055658
 20
146.636855
 30
0.0
 10
-9.748222
 20
145.389049
 30
0.0
 10
-8.289086
 20
144.163829
 30
0.0
 10
-7.407374
 20
143.177063
 30
0.0
 10
-7.137080
 20
143.012087
 30
0.0
 10
-7.011962
 20
142.752102
 30
0.0
 10
-6.932203
 20
142.812521
 30
0.0
 10
-6.879228
 20
142.866474
 30
0.0
 10
-6.833018
 20
142.915686
 30
0.0
 10
-6.806143
 20
142.944308
 30
0.0
 11
-14.471239
 21
146.916733
 31
0.0
 11
-12.098406
 21
146.488278
 31
0.0
 11
-9.934827
 21
145.406914
 31
0.0
 11
-7.755002
 21
143.559935
 31
0.0
 11
-7.367594
 21
143.172336
 31
0.0
 11
-7.087641
 21
142.893270
 31
0.0
 11
-6.975754
 21
142.783155
 31
0.0
 11
-6.947412
 21
142.801571
 31
0.0
 11
-6.886477
 21
142.859467
 31
0.0
 11
-6.806143
 21
142.944308
 31
0.0
  0
LINE
  5
192
100
AcDbEntity
  8
background
 62
7
100
AcDbLine
 10
-18.143740
 20
140.545571
 30
0.0
 11
-16.974689
 21
140.576975
 31
0.0
  0
LINE
  5
193
100
AcDbEntity
  8
background
 62
7
100
AcDbLine
 10
-16.974689
 20
140.576975
 30
0.0
 11
-16.767552
 21
141.161595
 31
0.0
  0
SPLINE
  5
194
100
AcDbEntity
  8
background
 62
7
100
AcDbSpline
 70
0
 71
3
 72
10
 73
6
 74
4
 40
0.000000
 40
0.000000
 40
0.000000
 40
0.000000
 40
2.662643
 40
5.305240
 40
7.965198
 40
7.965198
 40
7.965198
 40
7.965198
 10
-25.921990
 20
138.997306
 30
0.0
 10
-25.082598
 20
139.287591
 30
0.0
 10
-23.410132
 20
139.865976
 30
0.0
 10
-20.795027
 20
140.386658
 30
0.0
 10
-19.029429
 20
140.492485
 30
0.0
 10
-18.143740
 20
140.545571
 30
0.0
 11
-25.921990
 21
138.997306
 31
0.0
 11
-23.386349
 21
139.809827
 31
0.0
 11
-20.794597
 21
140.325717
 31
0.0
 11
-18.143740
 21
140.545571
 31
0.0
  0
LINE
  5
195
100
AcDbEntity
  8
background
 62
7
100
AcDbLine
 10
-28.451408
 20
138.602940
 30
0.0
 11
-27.952705
 21
138.162922
 31
0.0
  0
LINE
  5
196
100
AcDbEntity
  8
background
 62
7
100
AcDbLine
 10
-27.952705
 20
138.162922
 30
0.0
 11
-27.319155
 21
138.433844
 31
0.0
  0
SPLINE
  5
197
100
AcDbEntity
  8
background
 62
7
100
AcDbSpline
 70
0
 71
3
 72
46
 73
42
 74
40
 40
0.000000
 40
0.000000
 40
0.000000
 40
0.000000
 40
2.257868
 40
4.284494
 40
5.512074
 40
5.945737
 40
6.799339
 40
7.662248
 40
9.427454
 40
11.268969
 40
13.100975
 40
14.619390
 40
16.604283
 40
18.566516
 40
19.425289
 40
20.479346
 40
21.910788
 40
23.296971
 40
24.348536
 40
25.178321
 40
25.871800
 40
26.476929
 40
26.796171
 40
26.888171
 40
27.039096
 40
27.216744
 40
28.599087
 40
30.351189
 40
32.535610
 40
33.648201
 40
34.801933
 40
35.390232
 40
35.437321
 40
35.491734
 40
35.548657
 40
36.029845
 40
36.835750
 40
37.649090
 40
39.771582
 40
42.143589
 40
44.408028
 40
44.408028
 40
44.408028
 40
44.408028
 10
-16.767552
 20
141.161595
 30
0.0
 10
-16.513295
 20
141.879510
 30
0.0
 10
-16.030822
 20
143.241813
 30
0.0
 10
-15.723566
 20
144.968793
 30
0.0
 10
-15.128171
 20
146.263360
 30
0.0
 10
-15.655719
 20
146.964243
 30
0.0
 10
-16.079213
 20
147.526507
 30
0.0
 10
-16.827608
 20
148.421525
 30
0.0
 10
-17.933283
 20
149.428097
 30
0.0
 10
-19.442788
 20
150.441078
 30
0.0
 10
-21.002003
 20
151.212551
 30
0.0
 10
-22.715355
 20
151.705950
 30
0.0
 10
-24.491456
 20
152.106922
 30
0.0
 10
-26.065044
 20
152.419342
 30
0.0
 10
-27.354936
 20
152.527857
 30
0.0
 10
-28.470408
 20
152.463107
 30
0.0
 10
-29.751956
 20
152.312806
 30
0.0
 10
-31.029736
 20
152.137690
 30
0.0
 10
-32.103752
 20
151.950387
 30
0.0
 10
-32.937401
 20
151.750163
 30
0.0
 10
-33.613746
 20
151.514375
 30
0.0
 10
-34.089012
 20
151.290200
 30
0.0
 10
-34.412006
 20
151.124878
 30
0.0
 10
-34.489079
 20
150.950967
 30
0.0
 10
-34.569889
 20
150.836364
 30
0.0
 10
-34.903279
 20
150.373713
 30
0.0
 10
-35.421755
 20
149.386538
 30
0.0
 10
-35.887195
 20
147.664612
 30
0.0
 10
-36.125255
 20
146.004859
 30
0.0
 10
-36.287555
 20
144.513348
 30
0.0
 10
-36.237354
 20
143.597033
 30
0.0
 10
-36.433219
 20
142.946844
 30
0.0
 10
-36.300992
 20
142.752734
 30
0.0
 10
-36.252395
 20
142.726905
 30
0.0
 10
-36.055319
 20
142.705047
 30
0.0
 10
-35.617727
 20
142.606896
 30
0.0
 10
-34.946280
 20
142.407774
 30
0.0
 10
-33.762003
 20
142.013254
 30
0.0
 10
-32.173297
 20
141.219886
 30
0.0
 10
-30.242689
 20
140.050131
 30
0.0
 10
-29.039194
 20
139.077817
 30
0.0
 10
-28.451408
 20
138.602940
 30
0.0
 11
-16.767552
 21
141.161595
 31
0.0
 11
-16.072446
 21
143.309803
 31
0.0
 11
-15.545613
 21
145.266755
 31
0.0
 11
-15.336738
 21
146.476434
 31
0.0
 11
-15.565755
 21
146.844694
 31
0.0
 11
-16.085018
 21
147.522191
 31
0.0
 11
-16.642846
 21
148.180552
 31
0.0
 11
-17.940473
 21
149.377263
 31
0.0
 11
-19.466445
 21
150.408081
 31
0.0
 11
-21.117035
 21
151.202938
 31
0.0
 11
-22.568073
 21
151.650232
 31
0.0
 11
-24.501281
 21
152.100244
 31
0.0
 11
-26.433776
 21
152.440569
 31
0.0
 11
-27.290193
 21
152.504127
 31
0.0
 11
-28.343396
 21
152.461716
 31
0.0
 11
-29.766384
 21
152.306367
 31
0.0
 11
-31.139019
 21
152.113037
 31
0.0
 11
-32.173755
 21
151.925660
 31
0.0
 11
-32.978823
 21
151.724638
 31
0.0
 11
-33.632930
 21
151.494299
 31
0.0
 11
-34.182513
 21
151.241041
 31
0.0
 11
-34.439442
 21
151.051559
 31
0.0
 11
-34.482918
 21
150.970480
 31
0.0
 11
-34.564943
 21
150.843790
 31
0.0
 11
-34.667756
 21
150.698917
 31
0.0
 11
-35.321788
 21
149.481085
 31
0.0
 11
-35.817890
 21
147.800685
 31
0.0
 11
-36.160329
 21
145.643272
 31
0.0
 11
-36.256532
 21
144.534849
 31
0.0
 11
-36.324499
 21
143.383120
 31
0.0
 11
-36.328424
 21
142.794834
 31
0.0
 11
-36.299882
 21
142.757381
 31
0.0
 11
-36.252478
 21
142.730669
 31
0.0
 11
-36.196474
 21
142.720481
 31
0.0
 11
-35.724514
 21
142.626693
 31
0.0
 11
-34.949927
 21
142.404212
 31
0.0
 11
-34.180230
 21
142.141366
 31
0.0
 11
-32.261687
 21
141.233529
 31
0.0
 11
-30.243594
 21
139.987047
 31
0.0
 11
-28.451408
 21
138.602940
 31
0.0
  0
LINE
  5
198
100
AcDbEntity
  8
background
 62
7
100
AcDbLine
 10
-25.921990
 20
138.997306
 30
0.0
 11
-25.921990
 21
138.997306
 31
0.0
  0
SPLINE
  5
199
100
AcDbEntity
  8
background
 62
7
100
AcDbSpline
 70
0
 71
3
 72
10
 73
6
 74
4
 40
0.000000
 40
0.000000
 40
0.000000
 40
0.000000
 40
0.459075
 40
1.000301
 40
1.506563
 40
1.506563
 40
1.506563
 40
1.506563
 10
-27.319155
 20
138.433844
 30
0.0
 10
-27.178026
 20
138.493001
 30
0.0
 10
-26.870512
 20
138.621899
 30
0.0
 10
-26.404654
 20
138.809491
 30
0.0
 10
-26.079257
 20
138.936110
 30
0.0
 10
-25.921990
 20
138.997306
 30
0.0
 11
-27.319155
 21
138.433844
 31
0.0
 11
-26.895388
 21
138.610398
 31
0.0
 11
-26.393444
 21
138.812827
 31
0.0
 11
-25.921990
 21
138.997306
 31
0.0
  0
LINE
  5
19a
100
AcDbEntity
  8
background
 62
7
100
AcDbLine
 10
-45.467495
 20
134.935995
 30
0.0
 11
-45.185409
 21
134.891148
 31
0.0
  0
LINE
  5
19b
100
AcDbEntity
  8
background
 62
7
100
AcDbLine
 10
-45.185409
 20
134.891148
 30
0.0
 11
-45.090144
 21
135.113390
 31
0.0
  0
SPLINE
  5
19c
100
AcDbEntity
  8
background
 62
7
100
AcDbSpline
 70
0
 71
3
 72
13
 73
9
 74
7
 40
0.000000
 40
0.000000
 40
0.000000
 40
0.000000
 40
0.660824
 40
1.358019
 40
2.044354
 40
3.188450
 40
4.812039
 40
5.914533
 40
5.914533
 40
5.914533
 40
5.914533
 10
-51.336773
 20
134.577971
 30
0.0
 10
-51.124285
 20
134.636373
 30
0.0
 10
-50.687614
 20
134.756390
 30
0.0
 10
-50.018536
 20
134.886529
 30
0.0
 10
-49.185593
 20
135.023125
 30
0.0
 10
-48.030782
 20
135.017013
 30
0.0
 10
-46.741376
 20
135.020909
 30
0.0
 10
-45.834327
 20
134.960447
 30
0.0
 10
-45.467495
 20
134.935995
 30
0.0
 11
-51.336773
 21
134.577971
 31
0.0
 11
-50.697466
 21
134.745227
 31
0.0
 11
-50.014190
 21
134.883842
 31
0.0
 11
-49.335206
 21
134.984024
 31
0.0
 11
-48.191650
 21
135.019174
 31
0.0
 11
-46.568186
 21
134.999014
 31
0.0
 11
-45.467495
 21
134.935995
 31
0.0
  0
LINE
  5
19d
100
AcDbEntity
  8
background
 62
7
100
AcDbLine
 10
-37.297230
 20
142.620537
 30
0.0
 11
-36.849547
 21
142.764330
 31
0.0
  0
LINE
  5
19e
100
AcDbEntity
  8
background
 62
7
100
AcDbLine
 10
-36.849547
 20
142.764330
 30
0.0
 11
-36.813371
 21
143.308533
 31
0.0
  0
SPLINE
  5
19f
100
AcDbEntity
  8
background
 62
7
100
AcDbSpline
 70
0
 71
3
 72
13
 73
9
 74
7
 40
0.000000
 40
0.000000
 40
0.000000
 40
0.000000
 40
1.862672
 40
4.214138
 40
6.553336
 40
8.212920
 40
9.744387
 40
11.030958
 40
11.030958
 40
11.030958
 40
11.030958
 10
-45.090144
 20
135.113390
 30
0.0
 10
-44.790510
 20
135.658497
 30
0.0
 10
-44.112616
 20
136.891758
 30
0.0
 10
-42.719509
 20
138.585903
 30
0.0
 10
-41.263649
 20
140.128457
 30
0.0
 10
-39.818656
 20
141.276936
 30
0.0
 10
-38.567581
 20
142.104718
 30
0.0
 10
-37.695416
 20
142.458856
 30
0.0
 10
-37.297230
 20
142.620537
 30
0.0
 11
-45.090144
 21
135.113390
 31
0.0
 11
-44.148665
 21
136.720612
 31
0.0
 11
-42.697238
 21
138.570681
 31
0.0
 11
-41.064013
 21
140.245322
 31
0.0
 11
-39.769543
 21
141.283863
 31
0.0
 11
-38.474114
 21
142.100719
 31
0.0
 11
-37.297230
 21
142.620537
 31
0.0
  0
LINE
  5
1a0
100
AcDbEntity
  8
background
 62
7
100
AcDbLine
 10
-52.029106
 20
134.879281
 30
0.0
 11
-52.057954
 21
134.384563
 31
0.0
  0
LINE
  5
1a1
100
AcDbEntity
  8
background
 62
7
100
AcDbLine
 10
-52.057954
 20
134.384563
 30
0.0
 11
-51.931893
 21
134.411709
 31
0.0
  0
SPLINE
  5
1a2
100
AcDbEntity
  8
background
 62
7
100
AcDbSpline
 70
0
 71
3
 72
31
 73
27
 74
25
 40
0.000000
 40
0.000000
 40
0.000000
 40
0.000000
 40
1.316538
 40
2.270155
 40
3.085419
 40
4.595780
 40
5.801989
 40
6.876260
 40
7.217306
 40
7.472725
 40
7.587547
 40
7.676131
 40
7.916521
 40
8.289035
 40
8.786976
 40
9.147229
 40
9.592809
 40
13.110639
 40
16.925374
 40
20.909778
 40
23.790775
 40
26.210249
 40
28.280585
 40
29.565119
 40
30.767727
 40
31.830956
 40
31.830956
 40
31.830956
 40
31.830956
 10
-36.813371
 20
143.308533
 30
0.0
 10
-36.783693
 20
143.746378
 30
0.0
 10
-36.732518
 20
144.501370
 30
0.0
 10
-36.643330
 20
145.526085
 30
0.0
 10
-36.507503
 20
146.611106
 30
0.0
 10
-36.324197
 20
147.772767
 30
0.0
 10
-36.014167
 20
149.007331
 30
0.0
 10
-35.700595
 20
149.807821
 30
0.0
 10
-35.435918
 20
150.325056
 30
0.0
 10
-35.378720
 20
150.519364
 30
0.0
 10
-35.257635
 20
150.698478
 30
0.0
 10
-35.450546
 20
150.718801
 30
0.0
 10
-35.654311
 20
150.722685
 30
0.0
 10
-36.040321
 20
150.713997
 30
0.0
 10
-36.445135
 20
150.703550
 30
0.0
 10
-36.876715
 20
150.630794
 30
0.0
 10
-38.240502
 20
150.159737
 30
0.0
 10
-40.602379
 20
149.056473
 30
0.0
 10
-43.704109
 20
146.877509
 30
0.0
 10
-46.270369
 20
144.394212
 30
0.0
 10
-48.285386
 20
142.042864
 30
0.0
 10
-49.784347
 20
140.095228
 30
0.0
 10
-50.834724
 20
138.476070
 30
0.0
 10
-51.497762
 20
137.107506
 30
0.0
 10
-51.888655
 20
135.982521
 30
0.0
 10
-51.984249
 20
135.231631
 30
0.0
 10
-52.029106
 20
134.879281
 30
0.0
 11
-36.813371
 21
143.308533
 31
0.0
 11
-36.719478
 21
144.621718
 31
0.0
 11
-36.632898
 21
145.571397
 31
0.0
 11
-36.533299
 21
146.380555
 31
0.0
 11
-36.283318
 21
147.870084
 31
0.0
 11
-35.979241
 21
149.037337
 31
0.0
 11
-35.581249
 21
150.035165
 31
0.0
 11
-35.437564
 21
150.344466
 31
0.0
 11
-35.335082
 21
150.578423
 31
0.0
 11
-35.295991
 21
150.686386
 31
0.0
 11
-35.381118
 21
150.710889
 31
0.0
 11
-35.621308
 21
150.720694
 31
0.0
 11
-35.993776
 21
150.714871
 31
0.0
 11
-36.491030
 21
150.688711
 31
0.0
 11
-36.845958
 21
150.626996
 31
0.0
 11
-37.270851
 21
150.492807
 31
0.0
 11
-40.462303
 21
149.013024
 31
0.0
 11
-43.594551
 21
146.835587
 31
0.0
 11
-46.481709
 21
144.089718
 31
0.0
 11
-48.364161
 21
141.908774
 31
0.0
 11
-49.827369
 21
139.981891
 31
0.0
 11
-50.931133
 21
138.230322
 31
0.0
 11
-51.486206
 21
137.071909
 31
0.0
 11
-51.860654
 21
135.929081
 31
0.0
 11
-52.029106
 21
134.879281
 31
0.0
  0
LINE
  5
1a3
100
AcDbEntity
  8
background
 62
7
100
AcDbLine
 10
-51.336773
 20
134.577971
 30
0.0
 11
-51.336773
 21
134.577971
 31
0.0
  0
SPLINE
  5
1a4
100
AcDbEntity
  8
background
 62
7
100
AcDbSpline
 70
0
 71
3
 72
10
 73
6
 74
4
 40
0.000000
 40
0.000000
 40
0.000000
 40
0.000000
 40
0.131905
 40
0.353896
 40
0.617954
 40
0.617954
 40
0.617954
 40
0.617954
 10
-51.931893
 20
134.411709
 30
0.0
 10
-51.889257
 20
134.422457
 30
0.0
 10
-51.774865
 20
134.451293
 30
0.0
 10
-51.576758
 20
134.507814
 30
0.0
 10
-51.421255
 20
134.553274
 30
0.0
 10
-51.336773
 20
134.577971
 30
0.0
 11
-51.931893
 21
134.411709
 31
0.0
 11
-51.804114
 21
134.444443
 31
0.0
 11
-51.590310
 21
134.504176
 31
0.0
 11
-51.336773
 21
134.577971
 31
0.0
  0
LINE
  5
1a5
100
AcDbEntity
  8
background
 62
7
100
AcDbLine
 10
-5.780644
 20
142.290498
 30
0.0
 11
-6.297135
 21
142.779300
 31
0.0
  0
LINE
  5
1a6
100
AcDbEntity
  8
background
 62
7
100
AcDbLine
 10
-6.297135
 20
142.779300
 30
0.0
 11
-6.477610
 21
142.598825
 31
0.0
  0
LINE
  5
1a7
100
AcDbEntity
  8
background
 62
7
100
AcDbLine
 10
-6.477610
 20
142.598825
 30
0.0
 11
-6.658082
 21
142.418350
 31
0.0
  0
LINE
  5
1a8
100
AcDbEntity
  8
background
 62
7
100
AcDbLine
 10
-6.658082
 20
142.418350
 30
0.0
 11
-6.385858
 21
142.082282
 31
0.0
  0
SPLINE
  5
1a9
100
AcDbEntity
  8
background
 62
7
100
AcDbSpline
 70
0
 71
3
 72
16
 73
12
 74
10
 40
0.000000
 40
0.000000
 40
0.000000
 40
0.000000
 40
0.253480
 40
0.520006
 40
0.802283
 40
2.365541
 40
4.130822
 40
5.829186
 40
8.982982
 40
11.985292
 40
14.392664
 40
14.392664
 40
14.392664
 40
14.392664
 10
0.030794
 20
129.335027
 30
0.0
 10
0.018948
 20
129.418688
 30
0.0
 10
-0.005353
 20
129.590314
 30
0.0
 10
-0.047275
 20
129.854443
 30
0.0
 10
-0.162672
 20
130.548962
 30
0.0
 10
-0.425163
 20
131.724892
 30
0.0
 10
-0.875574
 20
133.339054
 30
0.0
 10
-1.569558
 20
135.435253
 30
0.0
 10
-2.663509
 20
137.817047
 30
0.0
 10
-4.064959
 20
140.321670
 30
0.0
 10
-5.252275
 20
141.684170
 30
0.0
 10
-5.780644
 20
142.290498
 30
0.0
 11
0.030794
 21
129.335027
 31
0.0
 11
-0.005426
 21
129.585907
 31
0.0
 11
-0.046761
 21
129.849207
 31
0.0
 11
-0.093463
 21
130.127595
 31
0.0
 11
-0.422888
 21
131.655749
 31
0.0
 11
-0.895310
 21
133.356641
 31
0.0
 11
-1.437377
 21
134.966176
 31
0.0
 11
-2.723993
 21
137.845593
 31
0.0
 11
-4.255342
 21
140.428003
 31
0.0
 11
-5.780644
 21
142.290498
 31
0.0
  0
LINE
  5
1aa
100
AcDbEntity
  8
background
 62
7
100
AcDbLine
 10
-3.876467
 20
134.196103
 30
0.0
 11
-3.960181
 21
133.597497
 31
0.0
  0
LINE
  5
1ab
100
AcDbEntity
  8
background
 62
7
100
AcDbLine
 10
-3.960181
 20
133.597497
 30
0.0
 11
-3.838584
 21
133.414423
 31
0.0
  0
SPLINE
  5
1ac
100
AcDbEntity
  8
background
 62
7
100
AcDbSpline
 70
0
 71
3
 72
13
 73
9
 74
7
 40
0.000000
 40
0.000000
 40
0.000000
 40
0.000000
 40
1.874798
 40
3.762341
 40
5.460308
 40
6.349746
 40
7.514271
 40
8.515333
 40
8.515333
 40
8.515333
 40
8.515333
 10
-6.385858
 20
142.082282
 30
0.0
 10
-6.014875
 20
141.577542
 30
0.0
 10
-5.270387
 20
140.564630
 30
0.0
 10
-4.469488
 20
138.927228
 30
0.0
 10
-3.930458
 20
137.518854
 30
0.0
 10
-3.820312
 20
136.267806
 30
0.0
 10
-3.793777
 20
135.249178
 30
0.0
 10
-3.850327
 20
134.529008
 30
0.0
 10
-3.876467
 20
134.196103
 30
0.0
 11
-6.385858
 21
142.082282
 31
0.0
 11
-5.320744
 21
140.539428
 31
0.0
 11
-4.467737
 21
138.855623
 31
0.0
 11
-3.934575
 21
137.243534
 31
0.0
 11
-3.836350
 21
136.359536
 31
0.0
 11
-3.814149
 21
135.195223
 31
0.0
 11
-3.876467
 21
134.196103
 31
0.0
  0
LINE
  5
1ad
100
AcDbEntity
  8
background
 62
7
100
AcDbLine
 10
-15.929286
 20
139.684752
 30
0.0
 11
-16.495502
 21
140.087334
 31
0.0
  0
LINE
  5
1ae
100
AcDbEntity
  8
background
 62
7
100
AcDbLine
 10
-16.495502
 20
140.087334
 30
0.0
 11
-17.595753
 21
140.087334
 31
0.0
  0
SPLINE
  5
1af
100
AcDbEntity
  8
background
 62
7
100
AcDbSpline
 70
0
 71
3
 72
16
 73
12
 74
10
 40
0.000000
 40
0.000000
 40
0.000000
 40
0.000000
 40
0.430440
 40
0.787261
 40
1.167128
 40
2.767991
 40
4.490490
 40
6.353653
 40
7.637535
 40
8.817685
 40
10.041529
 40
10.041529
 40
10.041529
 40
10.041529
 10
-9.569110
 20
132.118841
 30
0.0
 10
-9.594754
 20
132.260219
 30
0.0
 10
-9.641657
 20
132.518796
 30
0.0
 10
-9.773957
 20
132.886657
 30
0.0
 10
-10.139663
 20
133.575616
 30
0.0
 10
-10.801952
 20
134.620009
 30
0.0
 10
-11.868221
 20
135.984068
 30
0.0
 10
-12.977514
 20
137.171329
 30
0.0
 10
-14.017668
 20
138.171134
 30
0.0
 10
-14.952154
 20
138.971665
 30
0.0
 10
-15.599652
 20
139.444194
 30
0.0
 10
-15.929286
 20
139.684752
 30
0.0
 11
-9.569110
 21
132.118841
 31
0.0
 11
-9.658699
 21
132.539854
 31
0.0
 11
-9.778792
 21
132.875858
 31
0.0
 11
-9.950271
 21
133.214819
 31
0.0
 11
-10.800821
 21
134.571037
 31
0.0
 11
-11.857687
 21
135.931197
 31
0.0
 11
-13.123345
 21
137.298488
 31
0.0
 11
-14.051311
 21
138.185749
 31
0.0
 11
-14.950322
 21
138.950297
 31
0.0
 11
-15.929286
 21
139.684752
 31
0.0
  0
SPLINE
  5
1b0
100
AcDbEntity
  8
background
 62
7
100
AcDbSpline
 70
0
 71
3
 72
16
 73
12
 74
10
 40
0.000000
 40
0.000000
 40
0.000000
 40
0.000000
 40
3.090695
 40
6.247936
 40
9.595998
 40
10.166227
 40
10.590400
 40
10.776762
 40
11.049017
 40
11.866526
 40
13.364441
 40
13.364441
 40
13.364441
 40
13.364441
 10
-17.595753
 20
140.087334
 30
0.0
 10
-18.626493
 20
140.045175
 30
0.0
 10
-20.710164
 20
139.959950
 30
0.0
 10
-23.852997
 20
139.261194
 30
0.0
 10
-26.058611
 20
138.447045
 30
0.0
 10
-27.409311
 20
137.895866
 30
0.0
 10
-27.750705
 20
137.722735
 30
0.0
 10
-28.057746
 20
137.636173
 30
0.0
 10
-28.130851
 20
137.161979
 30
0.0
 10
-28.404981
 20
136.387721
 30
0.0
 10
-28.589378
 20
135.626962
 30
0.0
 10
-28.708670
 20
135.134805
 30
0.0
 11
-17.595753
 21
140.087334
 31
0.0
 11
-20.678824
 21
139.870383
 31
0.0
 11
-23.766304
 21
139.210352
 31
0.0
 11
-26.922584
 21
138.093476
 31
0.0
 11
-27.447575
 21
137.870886
 31
0.0
 11
-27.836755
 21
137.702180
 31
0.0
 11
-28.005871
 21
137.623881
 31
0.0
 11
-28.102924
 21
137.369512
 31
0.0
 11
-28.325311
 21
136.582833
 31
0.0
 11
-28.708670
 21
135.134805
 31
0.0
  0
LINE
  5
1b1
100
AcDbEntity
  8
background
 62
7
100
AcDbLine
 10
-45.328112
 20
133.250043
 30
0.0
 11
-45.328112
 21
134.443854
 31
0.0
  0
LINE
  5
1b2
100
AcDbEntity
  8
background
 62
7
100
AcDbLine
 10
-45.328112
 20
134.443854
 30
0.0
 11
-45.538766
 21
134.473244
 31
0.0
  0
SPLINE
  5
1b3
100
AcDbEntity
  8
background
 62
7
100
AcDbSpline
 70
0
 71
3
 72
13
 73
9
 74
7
 40
0.000000
 40
0.000000
 40
0.000000
 40
0.000000
 40
1.023749
 40
2.030287
 40
3.000055
 40
4.101151
 40
4.987054
 40
6.130965
 40
6.130965
 40
6.130965
 40
6.130965
 10
-43.573009
 20
127.465865
 30
0.0
 10
-43.744659
 20
127.760911
 30
0.0
 10
-44.085071
 20
128.346044
 30
0.0
 10
-44.511861
 20
129.252371
 30
0.0
 10
-44.867573
 20
130.214706
 30
0.0
 10
-45.169314
 20
131.155122
 30
0.0
 10
-45.331744
 20
132.190701
 30
0.0
 10
-45.329421
 20
132.868223
 30
0.0
 10
-45.328112
 20
133.250043
 30
0.0
 11
-43.573009
 21
127.465865
 31
0.0
 11
-44.074842
 21
128.358180
 31
0.0
 11
-44.503419
 21
129.268917
 31
0.0
 11
-44.846245
 21
130.176066
 31
0.0
 11
-45.160661
 21
131.231317
 31
0.0
 11
-45.297857
 21
132.106533
 31
0.0
 11
-45.328112
 21
133.250043
 31
0.0
  0
SPLINE
  5
1b4
100
AcDbEntity
  8
background
 62
7
100
AcDbSpline
 70
0
 71
3
 72
25
 73
21
 74
19
 40
0.000000
 40
0.000000
 40
0.000000
 40
0.000000
 40
1.085222
 40
2.665211
 40
3.767364
 40
5.063720
 40
6.239748
 40
6.987124
 40
8.358111
 40
10.536797
 40
13.389093
 40
15.989358
 40
18.956005
 40
22.205149
 40
23.958046
 40
25.152027
 40
25.930154
 40
26.115556
 40
26.303416
 40
26.495246
 40
26.495246
 40
26.495246
 40
26.495246
 10
-45.538766
 20
134.473244
 30
0.0
 10
-45.899986
 20
134.494470
 30
0.0
 10
-46.787110
 20
134.546601
 30
0.0
 10
-48.042710
 20
134.542553
 30
0.0
 10
-49.371109
 20
134.541308
 30
0.0
 10
-50.549803
 20
134.310722
 30
0.0
 10
-51.575460
 20
134.040431
 30
0.0
 10
-52.638539
 20
133.628789
 30
0.0
 10
-53.236833
 20
132.198559
 30
0.0
 10
-53.792027
 20
130.191725
 30
0.0
 10
-54.193585
 20
127.651767
 30
0.0
 10
-54.300541
 20
124.846704
 30
0.0
 10
-54.047677
 20
121.910871
 30
0.0
 10
-53.590817
 20
119.292906
 30
0.0
 10
-53.118087
 20
117.279994
 30
0.0
 10
-52.740843
 20
116.097476
 30
0.0
 10
-52.376348
 20
115.459006
 30
0.0
 10
-52.094107
 20
115.197661
 30
0.0
 10
-51.947967
 20
115.078533
 30
0.0
 10
-51.842455
 20
115.008496
 30
0.0
 10
-51.789147
 20
114.973111
 30
0.0
 11
-45.538766
 21
134.473244
 31
0.0
 11
-46.622615
 21
134.527806
 31
0.0
 11
-48.202534
 21
134.542748
 31
0.0
 11
-49.304165
 21
134.508856
 31
0.0
 11
-50.581870
 21
134.289746
 31
0.0
 11
-51.714987
 21
133.974962
 31
0.0
 11
-52.388929
 21
133.651895
 31
0.0
 11
-53.096569
 21
132.477650
 31
0.0
 11
-53.701435
 21
130.384612
 31
0.0
 11
-54.147289
 21
127.567378
 31
0.0
 11
-54.245621
 21
124.968973
 31
0.0
 11
-54.015214
 21
122.011286
 31
0.0
 11
-53.465010
 21
118.809066
 31
0.0
 11
-53.049400
 21
117.106152
 31
0.0
 11
-52.649812
 21
115.981021
 31
0.0
 11
-52.228335
 21
115.326927
 31
0.0
 11
-52.093468
 21
115.199708
 31
0.0
 11
-51.947202
 21
115.081819
 31
0.0
 11
-51.789147
 21
114.973111
 31
0.0
  0
SPLINE
  5
1b5
100
AcDbEntity
  8
background
 62
7
100
AcDbSpline
 70
0
 71
3
 72
13
 73
9
 74
7
 40
0.000000
 40
0.000000
 40
0.000000
 40
0.000000
 40
0.017767
 40
0.033480
 40
0.047104
 40
0.096516
 40
0.141335
 40
0.213492
 40
0.213492
 40
0.213492
 40
0.213492
 10
-42.007602
 20
125.118098
 30
0.0
 10
-42.004072
 20
125.122852
 30
0.0
 10
-41.997420
 20
125.131810
 30
0.0
 10
-41.987592
 20
125.144086
 30
0.0
 10
-41.970258
 20
125.163661
 30
0.0
 10
-41.943705
 20
125.190149
 30
0.0
 10
-41.939497
 20
125.249785
 30
0.0
 10
-41.960745
 20
125.283540
 30
0.0
 10
-41.973852
 20
125.304362
 30
0.0
 11
-42.007602
 21
125.118098
 31
0.0
 11
-41.996918
 21
125.132294
 31
0.0
 11
-41.987060
 21
125.144529
 31
0.0
 11
-41.978059
 21
125.154756
 31
0.0
 11
-41.948297
 21
125.194201
 31
0.0
 11
-41.943742
 21
125.238787
 31
0.0
 11
-41.973852
 21
125.304362
 31
0.0
  0
LINE
  5
1b6
100
AcDbEntity
  8
background
 62
7
100
AcDbLine
 10
-52.530629
 20
113.362388
 30
0.0
 11
-51.789147
 21
114.973111
 31
0.0
  0
SPLINE
  5
1b7
100
AcDbEntity
  8
background
 62
7
100
AcDbSpline
 70
0
 71
3
 72
34
 73
30
 74
28
 40
0.000000
 40
0.000000
 40
0.000000
 40
0.000000
 40
3.306763
 40
6.630789
 40
9.990080
 40
11.338744
 40
13.045504
 40
14.394522
 40
20.040308
 40
25.634056
 40
31.272208
 40
38.349322
 40
45.351317
 40
52.360074
 40
53.635690
 40
54.819268
 40
56.250379
 40
57.681489
 40
58.865066
 40
60.140680
 40
65.109474
 40
70.089894
 40
75.068355
 40
82.803971
 40
90.403817
 40
98.086179
 40
98.236505
 40
98.409753
 40
98.603384
 40
98.603384
 40
98.603384
 40
98.603384
 10
-52.530629
 20
113.362388
 30
0.0
 10
-52.960972
 20
114.378830
 30
0.0
 10
-53.823904
 20
116.417021
 30
0.0
 10
-54.637934
 20
119.656172
 30
0.0
 10
-55.039038
 20
122.311545
 30
0.0
 10
-55.100045
 20
124.450174
 30
0.0
 10
-55.100765
 20
125.918290
 30
0.0
 10
-55.012836
 20
128.818494
 30
0.0
 10
-54.216949
 20
132.978138
 30
0.0
 10
-52.138655
 20
138.240036
 30
0.0
 10
-48.760147
 20
143.373769
 30
0.0
 10
-43.967691
 20
147.971985
 30
0.0
 10
-37.791027
 20
151.478951
 30
0.0
 10
-32.806128
 20
152.796800
 30
0.0
 10
-29.671931
 20
153.169213
 30
0.0
 10
-28.376712
 20
153.248247
 30
0.0
 10
-27.027912
 20
153.255714
 30
0.0
 10
-25.679101
 20
153.248230
 30
0.0
 10
-24.383913
 20
153.169271
 30
0.0
 10
-21.924784
 20
152.876513
 30
0.0
 10
-18.254345
 20
152.047661
 30
0.0
 10
-13.655593
 20
150.075561
 30
0.0
 10
-8.709903
 20
146.811846
 30
0.0
 10
-3.965829
 20
141.851938
 30
0.0
 10
-0.314551
 20
135.004615
 30
0.0
 10
0.809335
 20
129.902630
 30
0.0
 10
0.996989
 20
127.240638
 30
0.0
 10
1.005871
 20
127.068454
 30
0.0
 10
1.010737
 20
126.946258
 30
0.0
 10
1.013305
 20
126.881766
 30
0.0
 11
-52.530629
 21
113.362388
 31
0.0
 11
-53.741419
 21
116.439508
 31
0.0
 11
-54.582908
 21
119.655258
 31
0.0
 11
-55.042541
 21
122.982956
 31
0.0
 11
-55.091075
 21
124.330747
 31
0.0
 11
-55.091035
 21
126.037507
 31
0.0
 11
-55.042435
 21
127.385649
 31
0.0
 11
-54.043741
 21
132.942402
 31
0.0
 11
-51.973106
 21
138.138794
 31
0.0
 11
-48.879342
 21
142.852325
 31
0.0
 11
-43.772121
 21
147.751492
 31
0.0
 11
-37.676832
 21
151.197560
 31
0.0
 11
-30.907305
 21
153.013100
 31
0.0
 11
-29.640204
 21
153.160249
 31
0.0
 11
-28.458884
 21
153.233323
 31
0.0
 11
-27.027910
 21
153.253070
 31
0.0
 11
-25.596936
 21
153.233323
 31
0.0
 11
-24.415617
 21
153.160249
 31
0.0
 11
-23.148519
 21
153.013100
 31
0.0
 11
-18.305107
 21
151.903925
 31
0.0
 11
-13.726135
 21
149.944945
 31
0.0
 11
-9.570147
 21
147.203988
 31
0.0
 11
-4.226423
 21
141.610746
 31
0.0
 11
-0.651923
 21
134.903987
 31
0.0
 11
0.985738
 21
127.398206
 31
0.0
 11
0.996014
 21
127.248231
 31
0.0
 11
1.005201
 21
127.075227
 31
0.0
 11
1.013305
 21
126.881766
 31
0.0
  0
LINE
  5
1b8
100
AcDbEntity
  8
background
 62
7
100
AcDbLine
 10
-44.492066
 20
119.687446
 30
0.0
 11
-44.224546
 21
122.680127
 31
0.0
  0
LINE
  5
1b9
100
AcDbEntity
  8
background
 62
7
100
AcDbLine
 10
-44.224546
 20
122.680127
 30
0.0
 11
-43.732003
 21
126.991734
 31
0.0
  0
SPLINE
  5
1ba
100
AcDbEntity
  8
background
 62
7
100
AcDbSpline
 70
0
 71
3
 72
19
 73
15
 74
13
 40
0.000000
 40
0.000000
 40
0.000000
 40
0.000000
 40
0.323070
 40
1.119833
 40
2.148222
 40
3.180714
 40
4.226171
 40
5.466992
 40
6.715168
 40
7.673277
 40
8.409354
 40
8.871816
 40
9.042197
 40
9.066537
 40
9.066537
 40
9.066537
 40
9.066537
 10
-51.789147
 20
114.973111
 30
0.0
 10
-51.741796
 20
115.069831
 30
0.0
 10
-51.577665
 20
115.405088
 30
0.0
 10
-51.205358
 20
116.019801
 30
0.0
 10
-50.586632
 20
116.748798
 30
0.0
 10
-49.844523
 20
117.470122
 30
0.0
 10
-48.993294
 20
118.186085
 30
0.0
 10
-47.926452
 20
118.705865
 30
0.0
 10
-46.860148
 20
119.128550
 30
0.0
 10
-45.946872
 20
119.490597
 30
0.0
 10
-45.239489
 20
119.642982
 30
0.0
 10
-44.783208
 20
119.664259
 30
0.0
 10
-44.564876
 20
119.681899
 30
0.0
 10
-44.500156
 20
119.686830
 30
0.0
 10
-44.492066
 20
119.687446
 30
0.0
 11
-51.789147
 21
114.973111
 31
0.0
 11
-51.644600
 21
115.262040
 31
0.0
 11
-51.230472
 21
115.942723
 31
0.0
 11
-50.576033
 21
116.736003
 31
0.0
 11
-49.838597
 21
117.458657
 31
0.0
 11
-49.021722
 21
118.111110
 31
0.0
 11
-47.924037
 21
118.689665
 31
0.0
 11
-46.769676
 21
119.164419
 31
0.0
 11
-45.868412
 21
119.489531
 31
0.0
 11
-45.147341
 21
119.637400
 31
0.0
 11
-44.686222
 21
119.672617
 31
0.0
 11
-44.516336
 21
119.685592
 31
0.0
 11
-44.492066
 21
119.687446
 31
0.0
  0
LINE
  5
1bb
100
AcDbEntity
  8
background
 62
7
100
AcDbLine
 10
-52.050125
 20
108.805747
 30
0.0
 11
-51.821260
 21
106.608631
 31
0.0
  0
LINE
  5
1bc
100
AcDbEntity
  8
background
 62
7
100
AcDbLine
 10
-50.951567
 20
104.823474
 30
0.0
 11
-51.821260
 21
106.608631
 31
0.0
  0
LINE
  5
1bd
100
AcDbEntity
  8
background
 62
7
100
AcDbLine
 10
-50.951567
 20
104.823474
 30
0.0
 11
-49.205708
 21
102.725654
 31
0.0
  0
LINE
  5
1be
100
AcDbEntity
  8
background
 62
7
100
AcDbLine
 10
-39.096294
 20
117.411122
 30
0.0
 11
-37.768869
 21
116.632974
 31
0.0
  0
LINE
  5
1bf
100
AcDbEntity
  8
background
 62
7
100
AcDbLine
 10
-37.768869
 20
116.632974
 30
0.0
 11
-36.670311
 21
115.305552
 31
0.0
  0
LINE
  5
1c0
100
AcDbEntity
  8
background
 62
7
100
AcDbLine
 10
-36.670311
 20
115.305552
 30
0.0
 11
-35.522702
 21
113.822782
 31
0.0
  0
SPLINE
  5
1c1
100
AcDbEntity
  8
background
 62
7
100
AcDbSpline
 70
0
 71
3
 72
115
 73
111
 74
109
 40
0.000000
 40
0.000000
 40
0.000000
 40
0.000000
 40
0.696613
 40
2.149721
 40
3.408069
 40
4.372480
 40
5.404468
 40
6.267725
 40
7.067495
 40
8.003558
 40
9.035588
 40
9.846977
 40
10.208111
 40
10.296758
 40
10.476702
 40
11.148001
 40
12.564230
 40
13.994240
 40
14.802494
 40
15.457945
 40
16.005786
 40
16.210405
 40
16.241806
 40
16.325125
 40
16.501262
 40
16.802898
 40
17.622376
 40
18.744452
 40
19.463747
 40
20.018318
 40
20.823401
 40
21.452681
 40
21.836943
 40
22.323861
 40
23.254466
 40
24.602476
 40
25.906200
 40
26.870436
 40
27.907208
 40
29.210134
 40
30.204334
 40
30.982202
 40
31.947902
 40
33.112460
 40
33.962481
 40
34.195094
 40
34.216872
 40
34.870294
 40
36.160605
 40
37.083592
 40
37.909137
 40
39.218178
 40
40.519862
 40
41.449660
 40
41.942483
 40
42.087053
 40
42.174524
 40
42.368559
 40
42.566725
 40
42.690620
 40
42.809241
 40
43.057441
 40
43.330905
 40
43.558450
 40
43.937994
 40
44.304139
 40
44.534787
 40
44.901836
 40
45.373314
 40
45.731240
 40
45.970573
 40
46.609898
 40
47.609212
 40
48.128899
 40
48.574132
 40
49.483386
 40
50.221318
 40
50.596336
 40
50.856204
 40
51.052193
 40
51.175668
 40
51.272094
 40
51.464999
 40
51.694162
 40
51.871017
 40
52.077938
 40
52.268207
 40
52.393586
 40
52.541280
 40
52.906587
 40
53.388910
 40
53.629472
 40
53.964864
 40
54.630972
 40
55.118508
 40
55.358017
 40
55.620237
 40
55.922333
 40
56.208879
 40
56.448861
 40
56.713241
 40
57.035789
 40
57.386503
 40
57.743410
 40
58.136761
 40
58.578188
 40
59.014504
 40
60.179856
 40
61.910544
 40
62.800067
 40
62.800067
 40
62.800067
 40
62.800067
 10
-43.732003
 20
126.991734
 30
0.0
 10
-43.666664
 20
127.214599
 30
0.0
 10
-43.465031
 20
127.902352
 30
0.0
 10
-43.120082
 20
128.983291
 30
0.0
 10
-42.703941
 20
130.142031
 30
0.0
 10
-42.135276
 20
131.069639
 30
0.0
 10
-41.629703
 20
131.877462
 30
0.0
 10
-41.091519
 20
132.597955
 30
0.0
 10
-40.549745
 20
133.273412
 30
0.0
 10
-39.910065
 20
133.945154
 30
0.0
 10
-39.083276
 20
134.410230
 30
0.0
 10
-38.381886
 20
134.594054
 30
0.0
 10
-37.958668
 20
134.702182
 30
0.0
 10
-37.753470
 20
134.643906
 30
0.0
 10
-37.438811
 20
134.715910
 30
0.0
 10
-36.694384
 20
134.470584
 30
0.0
 10
-35.612400
 20
134.059589
 30
0.0
 10
-34.504001
 20
133.553450
 30
0.0
 10
-33.570074
 20
133.258543
 30
0.0
 10
-33.078161
 20
132.770975
 30
0.0
 10
-32.845490
 20
132.367663
 30
0.0
 10
-32.682716
 20
132.156774
 30
0.0
 10
-32.653498
 20
132.053222
 30
0.0
 10
-32.581323
 20
131.982785
 30
0.0
 10
-32.393450
 20
131.905549
 30
0.0
 10
-31.998373
 20
132.177098
 30
0.0
 10
-31.509416
 20
132.703684
 30
0.0
 10
-30.848116
 20
133.313666
 30
0.0
 10
-30.304179
 20
133.895914
 30
0.0
 10
-29.789670
 20
134.362364
 30
0.0
 10
-29.263838
 20
134.764250
 30
0.0
 10
-28.711032
 20
135.045542
 30
0.0
 10
-28.207673
 20
135.085952
 30
0.0
 10
-27.605892
 20
135.060231
 30
0.0
 10
-26.713484
 20
134.805711
 30
0.0
 10
-25.564708
 20
134.488189
 30
0.0
 10
-24.411712
 20
134.138712
 30
0.0
 10
-23.384262
 20
133.720046
 30
0.0
 10
-22.505237
 20
133.045461
 30
0.0
 10
-21.620475
 20
132.376785
 30
0.0
 10
-20.906497
 20
131.624909
 30
0.0
 10
-20.484951
 20
130.806691
 30
0.0
 10
-20.006153
 20
129.985096
 30
0.0
 10
-19.786093
 20
128.893276
 30
0.0
 10
-19.608797
 20
128.425758
 30
0.0
 10
-19.587615
 20
127.786232
 30
0.0
 10
-19.321861
 20
127.965674
 30
0.0
 10
-19.238432
 20
128.690829
 30
0.0
 10
-18.718406
 20
129.477059
 30
0.0
 10
-18.310466
 20
130.413752
 30
0.0
 10
-17.705082
 20
131.236934
 30
0.0
 10
-17.006198
 20
132.147194
 30
0.0
 10
-16.077809
 20
132.901860
 30
0.0
 10
-15.255451
 20
133.295605
 30
0.0
 10
-14.787318
 20
133.521109
 30
0.0
 10
-14.583586
 20
133.659536
 30
0.0
 10
-14.441735
 20
133.681863
 30
0.0
 10
-14.287452
 20
133.721810
 30
0.0
 10
-14.115454
 20
133.741743
 30
0.0
 10
-13.975395
 20
133.785523
 30
0.0
 10
-13.812605
 20
133.816896
 30
0.0
 10
-13.602062
 20
133.756239
 30
0.0
 10
-13.356840
 20
133.717816
 30
0.0
 10
-13.063894
 20
133.685324
 30
0.0
 10
-12.756324
 20
133.576199
 30
0.0
 10
-12.448765
 20
133.471556
 30
0.0
 10
-12.141514
 20
133.376488
 30
0.0
 10
-11.815248
 20
133.231717
 30
0.0
 10
-11.449248
 20
133.074168
 30
0.0
 10
-11.119191
 20
132.938644
 30
0.0
 10
-10.751147
 20
132.755294
 30
0.0
 10
-10.220097
 20
132.385947
 30
0.0
 10
-9.631524
 20
132.163480
 30
0.0
 10
-9.001443
 20
131.510523
 30
0.0
 10
-8.712951
 20
132.285924
 30
0.0
 10
-8.282007
 20
132.733819
 30
0.0
 10
-7.878521
 20
133.308974
 30
0.0
 10
-7.495752
 20
133.564281
 30
0.0
 10
-7.241832
 20
133.681128
 30
0.0
 10
-7.050486
 20
133.713462
 30
0.0
 10
-6.913427
 20
133.734001
 30
0.0
 10
-6.775898
 20
133.742192
 30
0.0
 10
-6.602989
 20
133.738107
 30
0.0
 10
-6.403574
 20
133.746059
 30
0.0
 10
-6.199139
 20
133.758496
 30
0.0
 10
-6.008565
 20
133.731878
 30
0.0
 10
-5.838596
 20
133.695066
 30
0.0
 10
-5.685739
 20
133.669998
 30
0.0
 10
-5.472425
 20
133.672167
 30
0.0
 10
-5.142169
 20
133.635694
 30
0.0
 10
-4.782556
 20
133.590717
 30
0.0
 10
-4.431367
 20
133.553262
 30
0.0
 10
-4.028555
 20
133.454124
 30
0.0
 10
-3.544252
 20
133.349756
 30
0.0
 10
-3.092162
 20
133.235637
 30
0.0
 10
-2.788707
 20
133.106571
 30
0.0
 10
-2.540248
 20
133.003180
 30
0.0
 10
-2.312720
 20
132.829723
 30
0.0
 10
-2.109851
 20
132.642998
 30
0.0
 10
-1.913035
 20
132.466938
 30
0.0
 10
-1.733825
 20
132.256800
 30
0.0
 10
-1.540801
 20
132.011126
 30
0.0
 10
-1.328403
 20
131.741301
 30
0.0
 10
-1.101526
 20
131.452679
 30
0.0
 10
-0.882702
 20
131.120456
 30
0.0
 10
-0.676933
 20
130.750054
 30
0.0
 10
-0.342095
 20
130.156523
 30
0.0
 10
0.074077
 20
129.123853
 30
0.0
 10
0.568849
 20
127.964113
 30
0.0
 10
0.900660
 20
127.156089
 30
0.0
 10
1.013305
 20
126.881776
 30
0.0
 11
-43.732003
 21
126.991734
 31
0.0
 11
-43.534311
 21
127.659707
 31
0.0
 11
-43.091030
 21
129.043551
 31
0.0
 11
-42.626846
 21
130.213156
 31
0.0
 11
-42.146115
 21
131.049210
 31
0.0
 11
-41.587004
 21
131.916616
 31
0.0
 11
-41.074919
 21
132.611585
 31
0.0
 11
-40.569804
 21
133.231658
 31
0.0
 11
-39.902703
 21
133.888308
 31
0.0
 11
-39.005687
 21
134.398650
 31
0.0
 11
-38.228854
 21
134.632919
 31
0.0
 11
-37.870047
 21
134.673851
 31
0.0
 11
-37.782958
 21
134.657304
 31
0.0
 11
-37.603554
 21
134.671238
 31
0.0
 11
-36.943420
 21
134.549314
 31
0.0
 11
-35.619669
 21
134.045939
 31
0.0
 11
-34.297658
 21
133.500763
 31
0.0
 11
-33.555660
 21
133.180276
 31
0.0
 11
-33.080153
 21
132.729155
 31
0.0
 11
-32.771859
 21
132.276293
 31
0.0
 11
-32.667352
 21
132.100374
 31
0.0
 11
-32.656902
 21
132.070763
 31
0.0
 11
-32.602036
 21
132.008059
 31
0.0
 11
-32.437438
 21
131.945356
 31
0.0
 11
-32.163107
 21
132.070763
 31
0.0
 11
-31.564806
 21
132.630745
 31
0.0
 11
-30.762718
 21
133.415417
 31
0.0
 11
-30.258472
 21
133.928371
 31
0.0
 11
-29.847847
 21
134.301111
 31
0.0
 11
-29.199469
 21
134.778359
 31
0.0
 11
-28.624247
 21
135.033531
 31
0.0
 11
-28.242362
 21
135.076203
 31
0.0
 11
-27.755970
 21
135.053559
 31
0.0
 11
-26.848940
 21
134.845417
 31
0.0
 11
-25.551751
 21
134.478773
 31
0.0
 11
-24.309427
 21
134.083389
 31
0.0
 11
-23.427652
 21
133.693231
 31
0.0
 11
-22.576356
 21
133.101461
 31
0.0
 11
-21.563076
 21
132.282389
 31
0.0
 11
-20.899894
 21
131.541697
 31
0.0
 11
-20.510171
 21
130.868500
 31
0.0
 11
-20.078645
 21
130.004578
 31
0.0
 11
-19.759463
 21
128.884614
 31
0.0
 11
-19.599940
 21
128.049696
 31
0.0
 11
-19.525385
 21
127.829355
 31
0.0
 11
-19.506945
 21
127.840941
 31
0.0
 11
-19.234943
 21
128.435058
 31
0.0
 11
-18.687247
 21
129.603361
 31
0.0
 11
-18.266324
 21
130.424780
 31
0.0
 11
-17.799091
 21
131.105382
 31
0.0
 11
-16.966086
 21
132.115178
 31
0.0
 11
-15.950193
 21
132.929024
 31
0.0
 11
-15.125461
 21
133.358372
 31
0.0
 11
-14.690016
 21
133.589159
 31
0.0
 11
-14.562866
 21
133.657959
 31
0.0
 11
-14.477519
 21
133.677118
 31
0.0
 11
-14.287664
 21
133.717179
 31
0.0
 11
-14.092585
 21
133.752016
 31
0.0
 11
-13.972838
 21
133.783806
 31
0.0
 11
-13.855703
 21
133.802525
 31
0.0
 11
-13.610549
 21
133.763763
 31
0.0
 11
-13.341008
 21
133.717609
 31
0.0
 11
-13.115882
 21
133.684517
 31
0.0
 11
-12.752286
 21
133.575653
 31
0.0
 11
-12.405236
 21
133.458953
 31
0.0
 11
-12.186208
 21
133.386669
 31
0.0
 11
-11.846995
 21
133.246455
 31
0.0
 11
-11.413728
 21
133.060521
 31
0.0
 11
-11.084968
 21
132.919001
 31
0.0
 11
-10.871164
 21
132.811446
 31
0.0
 11
-10.324408
 21
132.480094
 31
0.0
 11
-9.469122
 21
131.963263
 31
0.0
 11
-9.024259
 21
131.694616
 31
0.0
 11
-8.776764
 21
132.064722
 31
0.0
 11
-8.249948
 21
132.805808
 31
0.0
 11
-7.767313
 21
133.364026
 31
0.0
 11
-7.457712
 21
133.575652
 31
0.0
 11
-7.218654
 21
133.677546
 31
0.0
 11
-7.026623
 21
133.716736
 31
0.0
 11
-6.904263
 21
133.733288
 31
0.0
 11
-6.808030
 21
133.739387
 31
0.0
 11
-6.615127
 21
133.740258
 31
0.0
 11
-6.386084
 21
133.747661
 31
0.0
 11
-6.209293
 21
133.752453
 31
0.0
 11
-6.003762
 21
133.728510
 31
0.0
 11
-5.816957
 21
133.692369
 31
0.0
 11
-5.692856
 21
133.674515
 31
0.0
 11
-5.545239
 21
133.669725
 31
0.0
 11
-5.181207
 21
133.639244
 31
0.0
 11
-4.702217
 21
133.582636
 31
0.0
 11
-4.463594
 21
133.552155
 31
0.0
 11
-4.135704
 21
133.481614
 31
0.0
 11
-3.486456
 21
133.332693
 31
0.0
 11
-3.017482
 21
133.199447
 31
0.0
 11
-2.795406
 21
133.109745
 31
0.0
 11
-2.557653
 21
132.999142
 31
0.0
 11
-2.312063
 21
132.823223
 31
0.0
 11
-2.097823
 21
132.632932
 31
0.0
 11
-1.922774
 21
132.468770
 31
0.0
 11
-1.747725
 21
132.270643
 31
0.0
 11
-1.546550
 21
132.018520
 31
0.0
 11
-1.329699
 21
131.742883
 31
0.0
 11
-1.112847
 21
131.459409
 31
0.0
 11
-0.895560
 21
131.131520
 31
0.0
 11
-0.675660
 21
130.748763
 31
0.0
 11
-0.466210
 21
130.366008
 31
0.0
 11
0.006198
 21
129.300703
 31
0.0
 11
0.674142
 21
127.704103
 31
0.0
 11
1.013305
 21
126.881776
 31
0.0
  0
ENDSEC
  0
SECTION
  2
OBJECTS
  0
DICTIONARY
  5
C
330
0
100
AcDbDictionary
  3
ACAD_GROUP
350
D
  3
ACAD_MLINESTYLE
350
17
  0
DICTIONARY
  5
D
330
C
100
AcDbDictionary
  0
DICTIONARY
  5
1A
330
C
100
AcDbDictionary
  0
DICTIONARY
  5
17
330
C
100
AcDbDictionary
  3
STANDARD
350
18
  0
DICTIONARY
  5
19
330
C
100
AcDbDictionary
  0
ENDSEC
  0
EOF
