  0
SECTION
  2
HEADER
  9
$ACADVER
  1
AC1014
  9
$HANDSEED
  5
FFFF
  9
$INSUNITS
 70
     4
  9
$MEASUREMENT
 70
     1
  0
ENDSEC
  0
SECTION
  2
TABLES
  0
TABLE
  2
VPORT
  5
8
330
0
100
AcDbSymbolTable
 70
     4
  0
VPORT
  5
2E
330
8
100
AcDbSymbolTableRecord
100
AcDbViewportTableRecord
  2
*ACTIVE
 70
     0
 10
0.0
 20
0.0
 11
1.0
 21
1.0
 12
210.0
 22
148.5
 13
0.0
 23
0.0
 14
10.0
 24
10.0
 15
10.0
 25
10.0
 16
0.0
 26
0.0
 36
1.0
 17
0.0
 27
0.0
 37
0.0
 40
341.0
 41
1.24
 42
50.0
 43
0.0
 44
0.0
 50
0.0
 51
0.0
 71
     0
 72
   100
 73
     1
 74
     3
 75
     0
 76
     0
 77
     0
 78
     0
  0
ENDTAB
  0
TABLE
  2
LTYPE
  5
5
330
0
100
AcDbSymbolTable
 70
     1
  0
LTYPE
  5
14
330
5
100
AcDbSymbolTableRecord
100
AcDbLinetypeTableRecord
  2
BYBLOCK
 70
     0
  3

 72
    65
 73
     0
 40
0.0
  0
LTYPE
  5
15
330
5
100
AcDbSymbolTableRecord
100
AcDbLinetypeTableRecord
  2
BYLAYER
 70
     0
  3

 72
    65
 73
     0
 40
0.0
  0
LTYPE
  5
16
330
5
100
AcDbSymbolTableRecord
100
AcDbLinetypeTableRecord
  2
CONTINUOUS
 70
     0
  3
Solid line
 72
    65
 73
     0
 40
0.0
  0
ENDTAB
  0
TABLE
  2
LAYER
  5
2
100
AcDbSymbolTable
 70
6
  0
LAYER
  5
50
100
AcDbSymbolTableRecord
100
AcDbLayerTableRecord
  2
0
 70
0
  6
CONTINUOUS
  0
LAYER
  5
51
100
AcDbSymbolTableRecord
100
AcDbLayerTableRecord
  2
cut
 70
0
  6
CONTINUOUS
  0
LAYER
  5
52
100
AcDbSymbolTableRecord
100
AcDbLayerTableRecord
  2
cut_copy
 70
0
  6
CONTINUOUS
  0
LAYER
  5
53
100
AcDbSymbolTableRecord
100
AcDbLayerTableRecord
  2
outline
 70
0
  6
CONTINUOUS
  0
LAYER
  5
54
100
AcDbSymbolTableRecord
100
AcDbLayerTableRecord
  2
raster
 70
0
  6
CONTINUOUS
  0
LAYER
  5
55
100
AcDbSymbolTableRecord
100
AcDbLayerTableRecord
  2
barrel_solar
 70
0
  6
CONTINUOUS
  0
ENDTAB
  0
TABLE
  2
STYLE
  5
3
330
0
100
AcDbSymbolTable
 70
     1
  0
STYLE
  5
11
330
3
100
AcDbSymbolTableRecord
100
AcDbTextStyleTableRecord
  2
STANDARD
 70
     0
 40
0.0
 41
1.0
 50
0.0
 71
     0
 42
2.5
  3
txt
  4

  0
ENDTAB
  0
TABLE
  2
VIEW
  5
6
330
0
100
AcDbSymbolTable
 70
     0
  0
ENDTAB
  0
TABLE
  2
UCS
  5
7
330
0
100
AcDbSymbolTable
 70
     0
  0
ENDTAB
  0
TABLE
  2
APPID
  5
9
330
0
100
AcDbSymbolTable
 70
     2
  0
APPID
  5
12
330
9
100
AcDbSymbolTableRecord
100
AcDbRegAppTableRecord
  2
ACAD
 70
     0
  0
ENDTAB
  0
TABLE
  2
DIMSTYLE
  5
A
330
0
100
AcDbSymbolTable
 70
     1
  0
DIMSTYLE
105
27
330
A
100
AcDbSymbolTableRecord
100
AcDbDimStyleTableRecord
  2
ISO-25
 70
     0
  3

  4

  5

  6

  7

 40
1.0
 41
2.5
 42
0.625
 43
3.75
 44
1.25
 45
0.0
 46
0.0
 47
0.0
 48
0.0
140
2.5
141
2.5
142
0.0
143
0.03937007874016
144
1.0
145
0.0
146
1.0
147
0.625
 71
     0
 72
     0
 73
     0
 74
     0
 75
     0
 76
     0
 77
     1
 78
     8
170
     0
171
     3
172
     1
173
     0
174
     0
175
     0
176
     0
177
     0
178
     0
270
     2
271
     2
272
     2
273
     2
274
     3
340
11
275
     0
280
     0
281
     0
282
     0
283
     0
284
     8
285
     0
286
     0
287
     3
288
     0
  0
ENDTAB
  0
TABLE
  2
BLOCK_RECORD
  5
1
330
0
100
AcDbSymbolTable
 70
     1
  0
BLOCK_RECORD
  5
1F
330
1
100
AcDbSymbolTableRecord
100
AcDbBlockTableRecord
  2
*MODEL_SPACE
  0
BLOCK_RECORD
  5
1B
330
1
100
AcDbSymbolTableRecord
100
AcDbBlockTableRecord
  2
*PAPER_SPACE
  0
ENDTAB
  0
ENDSEC
  0
SECTION
  2
BLOCKS
  0
BLOCK
  5
20
330
1F
100
AcDbEntity
  8
0
100
AcDbBlockBegin
  2
*MODEL_SPACE
 70
     0
 10
0.0
 20
0.0
 30
0.0
  3
*MODEL_SPACE
  1

  0
ENDBLK
  5
21
330
1F
100
AcDbEntity
  8
0
100
AcDbBlockEnd
  0
BLOCK
  5
1C
330
1B
100
AcDbEntity
 67
     1
  8
0
100
AcDbBlockBegin
  2
*PAPER_SPACE
  1

  0
ENDBLK
  5
1D
330
1B
100
AcDbEntity
 67
     1
  8
0
100
AcDbBlockEnd
  0
ENDSEC
  0
SECTION
  2
ENTITIES
  0
LWPOLYLINE
  5
100
100
AcDbEntity
  8
cut
 62
7
100
AcDbPolyline
 90
4
 70
0
 10
10.055764
 20
197.136740
 30
0.0
 10
14.900174
 20
197.136740
 30
0.0
 10
17.387844
 20
204.206959
 30
0.0
 10
26.683874
 20
203.814170
 30
0.0
  0
LWPOLYLINE
  5
101
100
AcDbEntity
  8
cut
 62
7
100
AcDbPolyline
 90
4
 70
0
 10
29.433394
 20
204.206959
 30
0.0
 10
50.382184
 20
203.814170
 30
0.0
 10
55.357514
 20
197.267670
 30
0.0
 10
59.547274
 20
197.267670
 30
0.0
  0
LWPOLYLINE
  5
102
100
AcDbEntity
  8
cut
 62
7
100
AcDbPolyline
 90
4
 70
0
 10
9.680661
 20
77.452220
 30
0.0
 10
14.525070
 20
77.452220
 30
0.0
 10
17.012740
 20
70.382000
 30
0.0
 10
26.308770
 20
70.774790
 30
0.0
  0
LWPOLYLINE
  5
103
100
AcDbEntity
  8
cut
 62
7
100
AcDbPolyline
 90
4
 70
0
 10
29.058290
 20
70.382000
 30
0.0
 10
50.007080
 20
70.774790
 30
0.0
 10
54.982410
 20
77.321290
 30
0.0
 10
59.172170
 20
77.321290
 30
0.0
  0
LWPOLYLINE
  5
104
100
AcDbEntity
  8
cut
 62
7
100
AcDbPolyline
 90
4
 70
0
 10
203.077421
 20
137.138920
 30
0.0
 10
198.233011
 20
137.138920
 30
0.0
 10
195.745341
 20
130.068700
 30
0.0
 10
186.449311
 20
130.461490
 30
0.0
  0
LWPOLYLINE
  5
105
100
AcDbEntity
  8
cut
 62
7
100
AcDbPolyline
 90
4
 70
0
 10
183.699791
 20
130.068700
 30
0.0
 10
162.751001
 20
130.461490
 30
0.0
 10
157.775671
 20
137.007990
 30
0.0
 10
153.585911
 20
137.007990
 30
0.0
  0
LWPOLYLINE
  5
106
100
AcDbEntity
  8
cut
 62
7
100
AcDbPolyline
 90
2
 70
0
 10
14.930577
 20
196.951580
 30
0.0
 10
34.995988
 20
196.951580
 30
0.0
  0
LWPOLYLINE
  5
107
100
AcDbEntity
  8
cut
 62
7
100
AcDbPolyline
 90
2
 70
0
 10
55.373784
 20
196.915040
 30
0.0
 10
59.719154
 20
196.915040
 30
0.0
  0
LWPOLYLINE
  5
108
100
AcDbEntity
  8
cut
 62
1
100
AcDbPolyline
 90
6
 70
1
 10
9.999614
 20
197.164590
 30
0.0
 10
10.000124
 20
197.165120
 30
0.0
 10
10.000492
 20
197.164965
 30
0.0
 10
10.000644
 20
197.164590
 30
0.0
 10
10.000124
 20
197.164070
 30
0.0
 10
9.999614
 20
197.164590
 30
0.0
  0
LWPOLYLINE
  5
109
100
AcDbEntity
  8
cut
 62
1
100
AcDbPolyline
 90
2
 70
0
 10
55.014697
 20
196.964630
 30
0.0
 10
34.910702
 20
196.964630
 30
0.0
  0
LWPOLYLINE
  5
10a
100
AcDbEntity
  8
cut
 62
7
100
AcDbPolyline
 90
2
 70
0
 10
55.237854
 20
77.551990
 30
0.0
 10
35.172443
 20
77.551990
 30
0.0
  0
LWPOLYLINE
  5
10b
100
AcDbEntity
  8
cut
 62
1
100
AcDbPolyline
 90
6
 70
1
 10
60.168817
 20
77.765000
 30
0.0
 10
60.168307
 20
77.765530
 30
0.0
 10
60.167939
 20
77.765375
 30
0.0
 10
60.167787
 20
77.765000
 30
0.0
 10
60.168307
 20
77.764480
 30
0.0
 10
60.168817
 20
77.765000
 30
0.0
  0
LWPOLYLINE
  5
10c
100
AcDbEntity
  8
cut
 62
1
100
AcDbPolyline
 90
2
 70
0
 10
15.153734
 20
77.565040
 30
0.0
 10
35.257729
 20
77.565040
 30
0.0
  0
LWPOLYLINE
  5
10d
100
AcDbEntity
  8
cut
 62
7
100
AcDbPolyline
 90
2
 70
0
 10
197.940100
 20
137.166880
 30
0.0
 10
177.874690
 20
137.166880
 30
0.0
  0
LWPOLYLINE
  5
10e
100
AcDbEntity
  8
cut
 62
1
100
AcDbPolyline
 90
6
 70
1
 10
202.871070
 20
137.379890
 30
0.0
 10
202.870560
 20
137.380420
 30
0.0
 10
202.870192
 20
137.380265
 30
0.0
 10
202.870040
 20
137.379890
 30
0.0
 10
202.870560
 20
137.379370
 30
0.0
 10
202.871070
 20
137.379890
 30
0.0
  0
LWPOLYLINE
  5
10f
100
AcDbEntity
  8
cut
 62
1
100
AcDbPolyline
 90
2
 70
0
 10
157.855980
 20
137.179930
 30
0.0
 10
177.959980
 20
137.179930
 30
0.0
  0
LWPOLYLINE
  5
110
100
AcDbEntity
  8
cut
 62
7
100
AcDbPolyline
 90
2
 70
0
 10
178.629660
 20
257.083610
 30
0.0
 10
158.564250
 20
257.083610
 30
0.0
  0
LWPOLYLINE
  5
111
100
AcDbEntity
  8
cut
 62
1
100
AcDbPolyline
 90
6
 70
1
 10
206.983510
 20
257.165690
 30
0.0
 10
206.983000
 20
257.166220
 30
0.0
 10
206.982632
 20
257.166065
 30
0.0
 10
206.982480
 20
257.165690
 30
0.0
 10
206.983000
 20
257.165170
 30
0.0
 10
206.983510
 20
257.165690
 30
0.0
  0
LWPOLYLINE
  5
112
100
AcDbEntity
  8
cut
 62
1
100
AcDbPolyline
 90
2
 70
0
 10
198.648370
 20
257.096660
 30
0.0
 10
178.544380
 20
257.096660
 30
0.0
  0
LWPOLYLINE
  5
113
100
AcDbEntity
  8
cut
 62
7
100
AcDbPolyline
 90
2
 70
0
 10
34.985434
 20
203.920430
 30
0.0
 10
29.475224
 20
203.987630
 30
0.0
  0
LWPOLYLINE
  5
114
100
AcDbEntity
  8
cut
 62
7
100
AcDbPolyline
 90
4
 70
0
 10
153.454600
 20
257.199639
 30
0.0
 10
158.299010
 20
257.199639
 30
0.0
 10
160.786670
 20
264.269854
 30
0.0
 10
170.082700
 20
263.877064
 30
0.0
  0
LWPOLYLINE
  5
115
100
AcDbEntity
  8
cut
 62
7
100
AcDbPolyline
 90
4
 70
0
 10
172.832230
 20
264.269854
 30
0.0
 10
193.781020
 20
263.877064
 30
0.0
 10
198.756350
 20
257.330568
 30
0.0
 10
202.946110
 20
257.330568
 30
0.0
  0
LWPOLYLINE
  5
116
100
AcDbEntity
  8
cut
 62
7
100
AcDbPolyline
 90
2
 70
0
 10
178.384270
 20
263.983328
 30
0.0
 10
172.874060
 20
264.050568
 30
0.0
  0
LWPOLYLINE
  5
117
100
AcDbEntity
  8
cut
 62
7
100
AcDbPolyline
 90
3
 70
0
 10
97.128583
 20
121.458250
 30
0.0
 10
66.418906
 20
141.232700
 30
0.0
 10
59.440631
 20
137.309350
 30
0.0
  0
LWPOLYLINE
  5
118
100
AcDbEntity
  8
cut
 62
7
100
AcDbPolyline
 90
2
 70
0
 10
66.418906
 20
141.232650
 30
0.0
 10
90.309334
 20
156.679050
 30
0.0
  0
LWPOLYLINE
  5
119
100
AcDbEntity
  8
cut
 62
1
100
AcDbPolyline
 90
2
 70
0
 10
9.608769
 20
137.309300
 30
0.0
 10
59.308257
 20
137.309300
 30
0.0
  0
LWPOLYLINE
  5
11a
100
AcDbEntity
  8
cut
 62
1
100
AcDbPolyline
 90
2
 70
0
 10
59.179759
 20
197.356047
 30
0.0
 10
59.179759
 20
77.113610
 30
0.0
  0
LWPOLYLINE
  5
11b
100
AcDbEntity
  8
cut
 62
1
100
AcDbPolyline
 90
2
 70
0
 10
106.439860
 20
177.749550
 30
0.0
 10
106.439860
 20
156.228280
 30
0.0
  0
LWPOLYLINE
  5
11c
100
AcDbEntity
  8
cut
 62
1
100
AcDbPolyline
 90
2
 70
0
 10
97.081650
 20
113.834050
 30
0.0
 10
59.308257
 20
137.309300
 30
0.0
  0
LWPOLYLINE
  5
11d
100
AcDbEntity
  8
cut
 62
1
100
AcDbPolyline
 90
2
 70
0
 10
59.179759
 20
77.113610
 30
0.0
 10
97.081602
 20
101.402060
 30
0.0
  0
LWPOLYLINE
  5
11e
100
AcDbEntity
  8
cut
 62
7
100
AcDbPolyline
 90
2
 70
0
 10
126.937020
 20
153.854760
 30
0.0
 10
122.176490
 20
156.876070
 30
0.0
  0
LWPOLYLINE
  5
11f
100
AcDbEntity
  8
cut
 62
7
100
AcDbPolyline
 90
2
 70
0
 10
153.311380
 20
137.116060
 30
0.0
 10
135.192310
 20
148.615500
 30
0.0
  0
LWPOLYLINE
  5
120
100
AcDbEntity
  8
cut
 62
7
100
AcDbPolyline
 90
3
 70
0
 10
115.607180
 20
212.857574
 30
0.0
 10
146.209740
 20
193.152110
 30
0.0
 10
153.188010
 20
197.075457
 30
0.0
  0
LWPOLYLINE
  5
121
100
AcDbEntity
  8
cut
 62
7
100
AcDbPolyline
 90
2
 70
0
 10
123.573860
 20
245.659651
 30
0.0
 10
115.571750
 20
240.506962
 30
0.0
  0
LWPOLYLINE
  5
122
100
AcDbEntity
  8
cut
 62
7
100
AcDbPolyline
 90
6
 70
0
 10
170.021760
 20
264.064578
 30
0.0
 10
160.733270
 20
264.154828
 30
0.0
 10
158.456390
 20
256.977935
 30
0.0
 10
153.188010
 20
257.266095
 30
0.0
 10
147.026600
 20
260.761240
 30
0.0
 10
130.774090
 20
250.295989
 30
0.0
  0
LWPOLYLINE
  5
123
100
AcDbEntity
  8
cut
 62
7
100
AcDbPolyline
 90
6
 70
0
 10
203.019860
 20
137.191290
 30
0.0
 10
203.019860
 20
197.075467
 30
0.0
 10
203.019860
 20
257.266097
 30
0.0
 10
198.772610
 20
256.977937
 30
0.0
 10
193.626050
 20
263.835226
 30
0.0
 10
178.384270
 20
263.983324
 30
0.0
  0
LWPOLYLINE
  5
124
100
AcDbEntity
  8
cut
 62
7
100
AcDbPolyline
 90
2
 70
0
 10
146.209740
 20
193.152150
 30
0.0
 10
122.088680
 20
177.556640
 30
0.0
  0
LWPOLYLINE
  5
125
100
AcDbEntity
  8
cut
 62
7
100
AcDbPolyline
 90
2
 70
0
 10
189.212510
 20
198.243744
 30
0.0
 10
188.063520
 20
196.902440
 30
0.0
  0
LWPOLYLINE
  5
126
100
AcDbEntity
  8
cut
 62
1
100
AcDbPolyline
 90
2
 70
0
 10
187.950170
 20
197.075497
 30
0.0
 10
153.320390
 20
197.075497
 30
0.0
  0
LWPOLYLINE
  5
127
100
AcDbEntity
  8
cut
 62
1
100
AcDbPolyline
 90
2
 70
0
 10
153.448890
 20
137.028750
 30
0.0
 10
153.448890
 20
257.271185
 30
0.0
  0
LWPOLYLINE
  5
128
100
AcDbEntity
  8
cut
 62
1
100
AcDbPolyline
 90
2
 70
0
 10
115.643210
 20
220.490950
 30
0.0
 10
153.320390
 20
197.075497
 30
0.0
  0
LWPOLYLINE
  5
129
100
AcDbEntity
  8
cut
 62
1
100
AcDbPolyline
 90
2
 70
0
 10
153.448890
 20
257.271185
 30
0.0
 10
115.607450
 20
233.021451
 30
0.0
  0
LWPOLYLINE
  5
12a
100
AcDbEntity
  8
cut
 62
7
100
AcDbPolyline
 90
2
 70
0
 10
86.802980
 20
87.275200
 30
0.0
 10
97.124882
 20
93.921640
 30
0.0
  0
LWPOLYLINE
  5
12b
100
AcDbEntity
  8
cut
 62
7
100
AcDbPolyline
 90
4
 70
0
 10
59.101630
 20
77.137250
 30
0.0
 10
59.440631
 20
77.118750
 30
0.0
 10
65.602023
 20
73.623610
 30
0.0
 10
79.694498
 20
82.697980
 30
0.0
  0
LWPOLYLINE
  5
12c
100
AcDbEntity
  8
cut
 62
7
100
AcDbPolyline
 90
3
 70
0
 10
9.608769
 20
196.876280
 30
0.0
 10
9.608769
 20
137.309380
 30
0.0
 10
9.608769
 20
77.559030
 30
0.0
  0
LWPOLYLINE
  5
12d
100
AcDbEntity
  8
cut
 62
7
100
AcDbPolyline
 90
3
 70
0
 10
97.018473
 20
121.613650
 30
0.0
 10
97.018473
 20
107.783530
 30
0.0
 10
97.018473
 20
93.910820
 30
0.0
  0
LWPOLYLINE
  5
12e
100
AcDbEntity
  8
cut
 62
7
100
AcDbPolyline
 90
3
 70
0
 10
115.548180
 20
240.543564
 30
0.0
 10
115.548180
 20
226.713444
 30
0.0
 10
115.548180
 20
212.840732
 30
0.0
  0
LWPOLYLINE
  5
12f
100
AcDbEntity
  8
cut
 62
7
100
AcDbPolyline
 90
2
 70
0
 10
83.289441
 20
182.054610
 30
0.0
 10
90.792849
 20
177.292500
 30
0.0
  0
LWPOLYLINE
  5
130
100
AcDbEntity
  8
cut
 62
7
100
AcDbPolyline
 90
2
 70
0
 10
59.554390
 20
197.118337
 30
0.0
 10
77.593920
 20
185.669370
 30
0.0
  0
LWPOLYLINE
  5
131
100
AcDbEntity
  8
cut
 62
7
100
AcDbPolyline
 90
3
 70
0
 10
9.713617
 20
174.070180
 30
0.0
 10
29.295242
 20
174.070180
 30
0.0
 10
29.295242
 20
163.493720
 30
0.0
  0
LWPOLYLINE
  5
132
100
AcDbEntity
  8
cut
 62
1
100
AcDbPolyline
 90
2
 70
0
 10
29.295242
 20
163.493720
 30
0.0
 10
9.713617
 20
163.493720
 30
0.0
  0
LWPOLYLINE
  5
133
100
AcDbEntity
  8
cut
 62
7
100
AcDbPolyline
 90
2
 70
0
 10
77.593919
 20
185.669370
 30
0.0
 10
80.938115
 20
183.499830
 30
0.0
  0
LWPOLYLINE
  5
134
100
AcDbEntity
  8
cut
 62
7
100
AcDbPolyline
 90
2
 70
0
 10
86.802978
 20
87.275200
 30
0.0
 10
82.103068
 20
84.129270
 30
0.0
  0
LWPOLYLINE
  5
135
100
AcDbEntity
  8
cut
 62
7
100
AcDbPolyline
 90
2
 70
0
 10
126.937020
 20
153.854760
 30
0.0
 10
131.941490
 20
150.484380
 30
0.0
  0
LWPOLYLINE
  5
136
100
AcDbEntity
  8
cut
 62
7
100
AcDbPolyline
 90
2
 70
0
 10
130.774090
 20
250.295990
 30
0.0
 10
125.898710
 20
246.894145
 30
0.0
  0
LWPOLYLINE
  5
137
100
AcDbEntity
  8
cut
 62
1
100
AcDbPolyline
 90
2
 70
0
 10
161.831548
 20
161.767560
 30
0.0
 10
183.807026
 20
161.767560
 30
0.0
  0
SPLINE
  5
138
100
AcDbEntity
  8
cut
 62
1
100
AcDbSpline
 70
0
 71
3
 72
13
 73
9
 74
7
 40
0.000000
 40
0.000000
 40
0.000000
 40
0.000000
 40
0.039606
 40
0.078884
 40
0.118490
 40
0.158097
 40
0.197375
 40
0.236981
 40
0.236981
 40
0.236981
 40
0.236981
 10
183.807026
 20
161.767560
 30
0.0
 10
183.820266
 20
161.766551
 30
0.0
 10
183.846638
 20
161.764543
 30
0.0
 10
183.883531
 20
161.748668
 30
0.0
 10
183.915279
 20
161.724515
 30
0.0
 10
183.939432
 20
161.692767
 30
0.0
 10
183.955307
 20
161.655874
 30
0.0
 10
183.957315
 20
161.629502
 30
0.0
 10
183.958324
 20
161.616262
 30
0.0
 11
183.807026
 21
161.767560
 31
0.0
 11
183.846291
 21
161.762376
 31
0.0
 11
183.882580
 21
161.747345
 31
0.0
 11
183.914010
 21
161.723246
 31
0.0
 11
183.938109
 21
161.691816
 31
0.0
 11
183.953140
 21
161.655527
 31
0.0
 11
183.958324
 21
161.616262
 31
0.0
  0
LWPOLYLINE
  5
139
100
AcDbEntity
  8
cut
 62
1
100
AcDbPolyline
 90
2
 70
0
 10
183.958324
 20
161.616262
 30
0.0
 10
183.958324
 20
148.991546
 30
0.0
  0
SPLINE
  5
13a
100
AcDbEntity
  8
cut
 62
1
100
AcDbSpline
 70
0
 71
3
 72
13
 73
9
 74
7
 40
0.000000
 40
0.000000
 40
0.000000
 40
0.000000
 40
0.039606
 40
0.078884
 40
0.118490
 40
0.158097
 40
0.197375
 40
0.236981
 40
0.236981
 40
0.236981
 40
0.236981
 10
183.958324
 20
148.991546
 30
0.0
 10
183.957315
 20
148.978306
 30
0.0
 10
183.955307
 20
148.951934
 30
0.0
 10
183.939432
 20
148.915041
 30
0.0
 10
183.915279
 20
148.883293
 30
0.0
 10
183.883531
 20
148.859140
 30
0.0
 10
183.846638
 20
148.843265
 30
0.0
 10
183.820266
 20
148.841257
 30
0.0
 10
183.807026
 20
148.840248
 30
0.0
 11
183.958324
 21
148.991546
 31
0.0
 11
183.953140
 21
148.952281
 31
0.0
 11
183.938109
 21
148.915992
 31
0.0
 11
183.914010
 21
148.884562
 31
0.0
 11
183.882580
 21
148.860463
 31
0.0
 11
183.846291
 21
148.845432
 31
0.0
 11
183.807026
 21
148.840248
 31
0.0
  0
LWPOLYLINE
  5
13b
100
AcDbEntity
  8
cut
 62
1
100
AcDbPolyline
 90
2
 70
0
 10
183.807026
 20
148.840248
 30
0.0
 10
161.831548
 20
148.840248
 30
0.0
  0
SPLINE
  5
13c
100
AcDbEntity
  8
cut
 62
1
100
AcDbSpline
 70
0
 71
3
 72
13
 73
9
 74
7
 40
0.000000
 40
0.000000
 40
0.000000
 40
0.000000
 40
0.039606
 40
0.078884
 40
0.118490
 40
0.158097
 40
0.197375
 40
0.236981
 40
0.236981
 40
0.236981
 40
0.236981
 10
161.831548
 20
148.840248
 30
0.0
 10
161.818308
 20
148.841257
 30
0.0
 10
161.791936
 20
148.843265
 30
0.0
 10
161.755043
 20
148.859140
 30
0.0
 10
161.723295
 20
148.883293
 30
0.0
 10
161.699142
 20
148.915041
 30
0.0
 10
161.683267
 20
148.951934
 30
0.0
 10
161.681259
 20
148.978306
 30
0.0
 10
161.680250
 20
148.991546
 30
0.0
 11
161.831548
 21
148.840248
 31
0.0
 11
161.792283
 21
148.845432
 31
0.0
 11
161.755994
 21
148.860463
 31
0.0
 11
161.724564
 21
148.884562
 31
0.0
 11
161.700465
 21
148.915992
 31
0.0
 11
161.685434
 21
148.952281
 31
0.0
 11
161.680250
 21
148.991546
 31
0.0
  0
LWPOLYLINE
  5
13d
100
AcDbEntity
  8
cut
 62
1
100
AcDbPolyline
 90
2
 70
0
 10
161.680250
 20
148.991546
 30
0.0
 10
161.680250
 20
161.616262
 30
0.0
  0
LWPOLYLINE
  5
13e
100
AcDbEntity
  8
cut
 62
1
100
AcDbPolyline
 90
1
 70
1
 10
161.831548
 20
161.767560
 30
0.0
  0
LWPOLYLINE
  5
13f
100
AcDbEntity
  8
cut
 62
7
100
AcDbPolyline
 90
4
 70
1
 10
162.553730
 20
156.404800
 30
0.0
 10
171.623840
 20
156.245670
 30
0.0
 10
171.623840
 20
161.019420
 30
0.0
 10
162.553730
 20
161.019420
 30
0.0
  0
LWPOLYLINE
  5
140
100
AcDbEntity
  8
cut
 62
7
100
AcDbPolyline
 90
4
 70
1
 10
162.642570
 20
149.611110
 30
0.0
 10
171.712680
 20
149.451980
 30
0.0
 10
171.712680
 20
154.225730
 30
0.0
 10
162.642570
 20
154.225730
 30
0.0
  0
LWPOLYLINE
  5
141
100
AcDbEntity
  8
cut
 62
7
100
AcDbPolyline
 90
4
 70
1
 10
173.871310
 20
149.771820
 30
0.0
 10
182.941420
 20
149.611110
 30
0.0
 10
182.941420
 20
154.432400
 30
0.0
 10
173.871310
 20
154.432400
 30
0.0
  0
LWPOLYLINE
  5
142
100
AcDbEntity
  8
cut
 62
7
100
AcDbPolyline
 90
4
 70
1
 10
173.871310
 20
156.414580
 30
0.0
 10
182.941420
 20
156.255450
 30
0.0
 10
182.941420
 20
161.029200
 30
0.0
 10
173.871310
 20
161.029200
 30
0.0
  0
SPLINE
  5
143
100
AcDbEntity
  8
cut
 62
1
100
AcDbSpline
 70
0
 71
3
 72
13
 73
9
 74
7
 40
0.000000
 40
0.000000
 40
0.000000
 40
0.000000
 40
0.039606
 40
0.078884
 40
0.118490
 40
0.158097
 40
0.197375
 40
0.236981
 40
0.236981
 40
0.236981
 40
0.236981
 10
161.680250
 20
161.616262
 30
0.0
 10
161.681259
 20
161.629502
 30
0.0
 10
161.683267
 20
161.655874
 30
0.0
 10
161.699142
 20
161.692767
 30
0.0
 10
161.723295
 20
161.724515
 30
0.0
 10
161.755043
 20
161.748668
 30
0.0
 10
161.791936
 20
161.764543
 30
0.0
 10
161.818308
 20
161.766551
 30
0.0
 10
161.831548
 20
161.767560
 30
0.0
 11
161.680250
 21
161.616262
 31
0.0
 11
161.685434
 21
161.655527
 31
0.0
 11
161.700465
 21
161.691816
 31
0.0
 11
161.724564
 21
161.723246
 31
0.0
 11
161.755994
 21
161.747345
 31
0.0
 11
161.792283
 21
161.762376
 31
0.0
 11
161.831548
 21
161.767560
 31
0.0
  0
LWPOLYLINE
  5
144
100
AcDbEntity
  8
cut
 62
1
100
AcDbPolyline
 90
2
 70
0
 10
161.824758
 20
187.017810
 30
0.0
 10
183.800238
 20
187.017810
 30
0.0
  0
SPLINE
  5
145
100
AcDbEntity
  8
cut
 62
1
100
AcDbSpline
 70
0
 71
3
 72
13
 73
9
 74
7
 40
0.000000
 40
0.000000
 40
0.000000
 40
0.000000
 40
0.039606
 40
0.078884
 40
0.118490
 40
0.158097
 40
0.197375
 40
0.236981
 40
0.236981
 40
0.236981
 40
0.236981
 10
183.800238
 20
187.017810
 30
0.0
 10
183.813478
 20
187.016801
 30
0.0
 10
183.839850
 20
187.014793
 30
0.0
 10
183.876743
 20
186.998918
 30
0.0
 10
183.908491
 20
186.974765
 30
0.0
 10
183.932644
 20
186.943017
 30
0.0
 10
183.948519
 20
186.906124
 30
0.0
 10
183.950527
 20
186.879752
 30
0.0
 10
183.951536
 20
186.866512
 30
0.0
 11
183.800238
 21
187.017810
 31
0.0
 11
183.839503
 21
187.012626
 31
0.0
 11
183.875792
 21
186.997595
 31
0.0
 11
183.907222
 21
186.973496
 31
0.0
 11
183.931321
 21
186.942066
 31
0.0
 11
183.946352
 21
186.905777
 31
0.0
 11
183.951536
 21
186.866512
 31
0.0
  0
LWPOLYLINE
  5
146
100
AcDbEntity
  8
cut
 62
1
100
AcDbPolyline
 90
2
 70
0
 10
183.951536
 20
186.866512
 30
0.0
 10
183.951536
 20
174.241796
 30
0.0
  0
SPLINE
  5
147
100
AcDbEntity
  8
cut
 62
1
100
AcDbSpline
 70
0
 71
3
 72
13
 73
9
 74
7
 40
0.000000
 40
0.000000
 40
0.000000
 40
0.000000
 40
0.039606
 40
0.078884
 40
0.118490
 40
0.158097
 40
0.197375
 40
0.236981
 40
0.236981
 40
0.236981
 40
0.236981
 10
183.951536
 20
174.241796
 30
0.0
 10
183.950527
 20
174.228556
 30
0.0
 10
183.948519
 20
174.202184
 30
0.0
 10
183.932644
 20
174.165291
 30
0.0
 10
183.908491
 20
174.133543
 30
0.0
 10
183.876743
 20
174.109390
 30
0.0
 10
183.839850
 20
174.093515
 30
0.0
 10
183.813478
 20
174.091507
 30
0.0
 10
183.800238
 20
174.090498
 30
0.0
 11
183.951536
 21
174.241796
 31
0.0
 11
183.946352
 21
174.202531
 31
0.0
 11
183.931321
 21
174.166242
 31
0.0
 11
183.907222
 21
174.134812
 31
0.0
 11
183.875792
 21
174.110713
 31
0.0
 11
183.839503
 21
174.095682
 31
0.0
 11
183.800238
 21
174.090498
 31
0.0
  0
LWPOLYLINE
  5
148
100
AcDbEntity
  8
cut
 62
1
100
AcDbPolyline
 90
2
 70
0
 10
183.800238
 20
174.090498
 30
0.0
 10
161.824758
 20
174.090498
 30
0.0
  0
SPLINE
  5
149
100
AcDbEntity
  8
cut
 62
1
100
AcDbSpline
 70
0
 71
3
 72
13
 73
9
 74
7
 40
0.000000
 40
0.000000
 40
0.000000
 40
0.000000
 40
0.039606
 40
0.078884
 40
0.118490
 40
0.158097
 40
0.197375
 40
0.236981
 40
0.236981
 40
0.236981
 40
0.236981
 10
161.824758
 20
174.090498
 30
0.0
 10
161.811518
 20
174.091507
 30
0.0
 10
161.785146
 20
174.093515
 30
0.0
 10
161.748253
 20
174.109390
 30
0.0
 10
161.716505
 20
174.133543
 30
0.0
 10
161.692352
 20
174.165291
 30
0.0
 10
161.676477
 20
174.202184
 30
0.0
 10
161.674469
 20
174.228556
 30
0.0
 10
161.673460
 20
174.241796
 30
0.0
 11
161.824758
 21
174.090498
 31
0.0
 11
161.785493
 21
174.095682
 31
0.0
 11
161.749204
 21
174.110713
 31
0.0
 11
161.717774
 21
174.134812
 31
0.0
 11
161.693675
 21
174.166242
 31
0.0
 11
161.678644
 21
174.202531
 31
0.0
 11
161.673460
 21
174.241796
 31
0.0
  0
LWPOLYLINE
  5
14a
100
AcDbEntity
  8
cut
 62
1
100
AcDbPolyline
 90
2
 70
0
 10
161.673460
 20
174.241796
 30
0.0
 10
161.673460
 20
186.866512
 30
0.0
  0
LWPOLYLINE
  5
14b
100
AcDbEntity
  8
cut
 62
1
100
AcDbPolyline
 90
1
 70
1
 10
161.824758
 20
187.017810
 30
0.0
  0
LWPOLYLINE
  5
14c
100
AcDbEntity
  8
cut
 62
7
100
AcDbPolyline
 90
4
 70
1
 10
162.546950
 20
181.655050
 30
0.0
 10
171.617060
 20
181.495920
 30
0.0
 10
171.617060
 20
186.269670
 30
0.0
 10
162.546950
 20
186.269670
 30
0.0
  0
LWPOLYLINE
  5
14d
100
AcDbEntity
  8
cut
 62
7
100
AcDbPolyline
 90
4
 70
1
 10
162.635790
 20
174.861360
 30
0.0
 10
171.705900
 20
174.702230
 30
0.0
 10
171.705900
 20
179.475980
 30
0.0
 10
162.635790
 20
179.475980
 30
0.0
  0
LWPOLYLINE
  5
14e
100
AcDbEntity
  8
cut
 62
7
100
AcDbPolyline
 90
4
 70
1
 10
173.864530
 20
175.022070
 30
0.0
 10
182.934640
 20
174.861360
 30
0.0
 10
182.934640
 20
179.682650
 30
0.0
 10
173.864530
 20
179.682650
 30
0.0
  0
LWPOLYLINE
  5
14f
100
AcDbEntity
  8
cut
 62
7
100
AcDbPolyline
 90
4
 70
1
 10
173.864530
 20
181.664830
 30
0.0
 10
182.934640
 20
181.505700
 30
0.0
 10
182.934640
 20
186.279450
 30
0.0
 10
173.864530
 20
186.279450
 30
0.0
  0
LWPOLYLINE
  5
150
100
AcDbEntity
  8
cut
 62
7
100
AcDbPolyline
 90
2
 70
0
 10
90.064724
 20
177.755620
 30
0.0
 10
122.131150
 20
177.755620
 30
0.0
  0
LWPOLYLINE
  5
151
100
AcDbEntity
  8
cut
 62
7
100
AcDbPolyline
 90
2
 70
0
 10
90.064724
 20
156.496100
 30
0.0
 10
122.131150
 20
156.496100
 30
0.0
  0
LWPOLYLINE
  5
152
100
AcDbEntity
  8
cut
 62
7
100
AcDbPolyline
 90
4
 70
0
 10
66.095937
 20
149.674640
 30
0.0
 10
66.241125
 20
148.893440
 30
0.0
 10
69.689327
 20
149.073720
 30
0.0
 10
69.761927
 20
149.674640
 30
0.0
  0
LWPOLYLINE
  5
153
100
AcDbEntity
  8
cut
 62
7
100
AcDbPolyline
 90
4
 70
0
 10
65.949511
 20
185.668090
 30
0.0
 10
66.240032
 20
185.105310
 30
0.0
 10
69.508391
 20
185.105310
 30
0.0
 10
69.726282
 20
185.611800
 30
0.0
  0
LWPOLYLINE
  5
154
100
AcDbEntity
  8
cut
 62
7
100
AcDbPolyline
 90
2
 70
0
 10
203.000520
 20
197.099553
 30
0.0
 10
188.001010
 20
197.156023
 30
0.0
  0
LWPOLYLINE
  5
155
100
AcDbEntity
  8
cut
 62
7
100
AcDbPolyline
 90
2
 70
0
 10
203.148660
 20
197.632997
 30
0.0
 10
188.437460
 20
197.689497
 30
0.0
  0
LWPOLYLINE
  5
156
100
AcDbEntity
  8
cut
 62
7
100
AcDbPolyline
 90
8
 70
0
 10
169.368530
 20
45.820060
 30
0.0
 10
172.027600
 20
45.820060
 30
0.0
 10
172.027600
 20
38.273630
 30
0.0
 10
175.110400
 20
38.273630
 30
0.0
 10
175.110400
 20
34.582770
 30
0.0
 10
172.394480
 20
34.582770
 30
0.0
 10
172.394480
 20
26.643940
 30
0.0
 10
169.260740
 20
26.643940
 30
0.0
  0
LWPOLYLINE
  5
157
100
AcDbEntity
  8
cut
 62
7
100
AcDbPolyline
 90
8
 70
0
 10
133.023380
 20
45.842160
 30
0.0
 10
130.364310
 20
45.842160
 30
0.0
 10
130.364310
 20
38.295730
 30
0.0
 10
127.281510
 20
38.295730
 30
0.0
 10
127.281510
 20
34.604870
 30
0.0
 10
129.997430
 20
34.604870
 30
0.0
 10
129.997430
 20
26.666040
 30
0.0
 10
133.131170
 20
26.666040
 30
0.0
  0
LWPOLYLINE
  5
158
100
AcDbEntity
  8
cut
 62
7
100
AcDbPolyline
 90
3
 70
0
 10
154.178360
 20
48.090650
 30
0.0
 10
169.360990
 20
48.090650
 30
0.0
 10
169.360990
 20
45.715480
 30
0.0
  0
LWPOLYLINE
  5
159
100
AcDbEntity
  8
cut
 62
7
100
AcDbPolyline
 90
3
 70
0
 10
133.052490
 20
45.672340
 30
0.0
 10
133.052490
 20
48.085200
 30
0.0
 10
148.977660
 20
48.085200
 30
0.0
  0
LWPOLYLINE
  5
15a
100
AcDbEntity
  8
cut
 62
7
100
AcDbPolyline
 90
3
 70
0
 10
153.075900
 20
24.563920
 30
0.0
 10
169.284810
 20
24.563930
 30
0.0
 10
169.284810
 20
26.937480
 30
0.0
  0
LWPOLYLINE
  5
15b
100
AcDbEntity
  8
cut
 62
7
100
AcDbPolyline
 90
6
 70
0
 10
141.190810
 20
56.155810
 30
0.0
 10
117.550980
 20
56.155810
 30
0.0
 10
113.136480
 20
60.570320
 30
0.0
 10
113.136480
 20
80.304060
 30
0.0
 10
117.390190
 20
84.557790
 30
0.0
 10
141.748040
 20
84.563790
 30
0.0
  0
LWPOLYLINE
  5
15c
100
AcDbEntity
  8
cut
 62
7
100
AcDbPolyline
 90
3
 70
0
 10
175.911840
 20
56.248640
 30
0.0
 10
175.911840
 20
56.155740
 30
0.0
 10
146.449190
 20
56.155740
 30
0.0
  0
LWPOLYLINE
  5
15d
100
AcDbEntity
  8
cut
 62
7
100
AcDbPolyline
 90
4
 70
0
 10
146.661200
 20
84.565280
 30
0.0
 10
175.962880
 20
84.572280
 30
0.0
 10
175.962880
 20
84.572280
 30
0.0
 10
175.962880
 20
84.493080
 30
0.0
  0
LWPOLYLINE
  5
15e
100
AcDbEntity
  8
cut
 62
7
100
AcDbPolyline
 90
2
 70
0
 10
175.992330
 20
84.534460
 30
0.0
 10
185.566550
 20
81.162930
 30
0.0
  0
LWPOLYLINE
  5
15f
100
AcDbEntity
  8
cut
 62
7
100
AcDbPolyline
 90
3
 70
0
 10
175.862270
 20
56.157120
 30
0.0
 10
185.721390
 20
59.548030
 30
0.0
 10
185.721390
 20
81.321280
 30
0.0
  0
LWPOLYLINE
  5
160
100
AcDbEntity
  8
cut
 62
7
100
AcDbPolyline
 90
2
 70
0
 10
117.571960
 20
70.848510
 30
0.0
 10
117.515460
 20
56.137310
 30
0.0
  0
SPLINE
  5
161
100
AcDbEntity
  8
cut
 62
1
100
AcDbSpline
 70
0
 71
3
 72
13
 73
9
 74
7
 40
0.000000
 40
0.000000
 40
0.000000
 40
0.000000
 40
0.039606
 40
0.078884
 40
0.118490
 40
0.158097
 40
0.197375
 40
0.236981
 40
0.236981
 40
0.236981
 40
0.236981
 10
161.673460
 20
186.866512
 30
0.0
 10
161.674469
 20
186.879752
 30
0.0
 10
161.676477
 20
186.906124
 30
0.0
 10
161.692352
 20
186.943017
 30
0.0
 10
161.716505
 20
186.974765
 30
0.0
 10
161.748253
 20
186.998918
 30
0.0
 10
161.785146
 20
187.014793
 30
0.0
 10
161.811518
 20
187.016801
 30
0.0
 10
161.824758
 20
187.017810
 30
0.0
 11
161.673460
 21
186.866512
 31
0.0
 11
161.678644
 21
186.905777
 31
0.0
 11
161.693675
 21
186.942066
 31
0.0
 11
161.717774
 21
186.973496
 31
0.0
 11
161.749204
 21
186.997595
 31
0.0
 11
161.785493
 21
187.012626
 31
0.0
 11
161.824758
 21
187.017810
 31
0.0
  0
LWPOLYLINE
  5
162
100
AcDbEntity
  8
cut
 62
7
100
AcDbPolyline
 90
2
 70
0
 10
176.101810
 20
84.399360
 30
0.0
 10
176.045210
 20
70.671280
 30
0.0
  0
SPLINE
  5
163
100
AcDbEntity
  8
cut
 62
7
100
AcDbSpline
 70
0
 71
3
 72
13
 73
9
 74
7
 40
0.000000
 40
0.000000
 40
0.000000
 40
0.000000
 40
2.875092
 40
5.717987
 40
8.593079
 40
12.704494
 40
16.726419
 40
20.837833
 40
20.837833
 40
20.837833
 40
20.837833
 10
150.045170
 20
101.184370
 30
0.0
 10
150.758315
 20
100.532741
 30
0.0
 10
152.176618
 20
99.236780
 30
0.0
 10
153.436451
 20
96.590593
 30
0.0
 10
153.958814
 20
93.312241
 30
0.0
 10
153.120723
 20
89.627854
 30
0.0
 10
150.572832
 20
86.199658
 30
0.0
 10
148.017416
 20
85.167664
 30
0.0
 10
146.725650
 20
84.645990
 30
0.0
 11
150.045170
 21
101.184370
 31
0.0
 11
152.037970
 21
99.111955
 31
0.0
 11
153.299620
 21
96.564350
 31
0.0
 11
153.740160
 21
93.723210
 31
0.0
 11
152.839678
 21
89.711619
 31
0.0
 11
150.380418
 21
86.529180
 31
0.0
 11
146.725650
 21
84.645990
 31
0.0
  0
SPLINE
  5
164
100
AcDbEntity
  8
cut
 62
7
100
AcDbSpline
 70
0
 71
3
 72
13
 73
9
 74
7
 40
0.000000
 40
0.000000
 40
0.000000
 40
0.000000
 40
4.097407
 40
8.106176
 40
12.203583
 40
16.591278
 40
20.871727
 40
25.259422
 40
25.259422
 40
25.259422
 40
25.259422
 10
141.952860
 20
84.656710
 30
0.0
 10
140.667738
 20
85.181667
 30
0.0
 10
138.125295
 20
86.220225
 30
0.0
 10
135.594522
 20
89.642690
 30
0.0
 10
134.645871
 20
93.819451
 30
0.0
 10
135.684557
 20
98.092218
 30
0.0
 10
138.576494
 20
101.646772
 30
0.0
 10
141.385334
 20
102.528189
 30
0.0
 10
142.807130
 20
102.974350
 30
0.0
 11
141.952860
 21
84.656710
 31
0.0
 11
138.317576
 21
86.547069
 31
0.0
 11
135.873499
 21
89.724602
 31
0.0
 11
134.979140
 21
93.723210
 31
0.0
 11
136.004531
 21
97.989408
 31
0.0
 11
138.769474
 21
101.257025
 31
0.0
 11
142.807130
 21
102.974350
 31
0.0
  0
SPLINE
  5
165
100
AcDbEntity
  8
cut
 62
1
100
AcDbSpline
 70
0
 71
3
 72
10
 73
6
 74
4
 40
0.000000
 40
0.000000
 40
0.000000
 40
0.000000
 40
0.951596
 40
1.548292
 40
1.754990
 40
1.754990
 40
1.754990
 40
1.754990
 10
117.564230
 20
72.331680
 30
0.0
 10
117.565352
 20
72.014483
 30
0.0
 10
117.567178
 20
71.498389
 30
0.0
 10
117.569149
 20
70.913396
 30
0.0
 10
117.570009
 20
70.645599
 30
0.0
 10
117.570230
 20
70.576700
 30
0.0
 11
117.564230
 21
72.331680
 31
0.0
 11
117.567563
 21
71.380090
 31
0.0
 11
117.569563
 21
70.783397
 31
0.0
 11
117.570230
 21
70.576700
 31
0.0
  0
SPLINE
  5
166
100
AcDbEntity
  8
cut
 62
1
100
AcDbSpline
 70
0
 71
3
 72
10
 73
6
 74
4
 40
0.000000
 40
0.000000
 40
0.000000
 40
0.000000
 40
0.886469
 40
1.724648
 40
2.511373
 40
2.511373
 40
2.511373
 40
2.511373
 10
117.547610
 20
77.357970
 30
0.0
 10
117.548806
 20
77.062483
 30
0.0
 10
117.551133
 20
76.487605
 30
0.0
 10
117.553525
 20
75.650484
 30
0.0
 10
117.554930
 20
75.108851
 30
0.0
 10
117.555610
 20
74.846610
 30
0.0
 11
117.547610
 21
77.357970
 31
0.0
 11
117.551017
 21
76.471508
 31
0.0
 11
117.553536
 21
75.633332
 31
0.0
 11
117.555610
 21
74.846610
 31
0.0
  0
SPLINE
  5
167
100
AcDbEntity
  8
cut
 62
1
100
AcDbSpline
 70
0
 71
3
 72
10
 73
6
 74
4
 40
0.000000
 40
0.000000
 40
0.000000
 40
0.000000
 40
0.857287
 40
1.695525
 40
2.512913
 40
2.512913
 40
2.512913
 40
2.512913
 10
117.530980
 20
82.385330
 30
0.0
 10
117.531765
 20
82.099569
 30
0.0
 10
117.533317
 20
81.534396
 30
0.0
 10
117.536571
 20
80.696764
 30
0.0
 10
117.538184
 20
80.144891
 30
0.0
 10
117.538980
 20
79.872430
 30
0.0
 11
117.530980
 21
82.385330
 31
0.0
 11
117.533499
 21
81.528046
 31
0.0
 11
117.536461
 21
80.689814
 31
0.0
 11
117.538980
 21
79.872430
 31
0.0
  0
SPLINE
  5
168
100
AcDbEntity
  8
cut
 62
1
100
AcDbSpline
 70
0
 71
3
 72
10
 73
6
 74
4
 40
0.000000
 40
0.000000
 40
0.000000
 40
0.000000
 40
0.951603
 40
1.548302
 40
1.755000
 40
1.755000
 40
1.755000
 40
1.755000
 10
175.997820
 20
59.410560
 30
0.0
 10
175.998942
 20
59.093361
 30
0.0
 10
176.000768
 20
58.577264
 30
0.0
 10
176.002739
 20
57.992267
 30
0.0
 10
176.003599
 20
57.724469
 30
0.0
 10
176.003820
 20
57.655570
 30
0.0
 11
175.997820
 21
59.410560
 31
0.0
 11
176.001153
 21
58.458963
 31
0.0
 11
176.003153
 21
57.862267
 31
0.0
 11
176.003820
 21
57.655570
 31
0.0
  0
SPLINE
  5
169
100
AcDbEntity
  8
cut
 62
1
100
AcDbSpline
 70
0
 71
3
 72
10
 73
6
 74
4
 40
0.000000
 40
0.000000
 40
0.000000
 40
0.000000
 40
0.886476
 40
1.724658
 40
2.511383
 40
2.511383
 40
2.511383
 40
2.511383
 10
175.981200
 20
64.436850
 30
0.0
 10
175.982396
 20
64.141360
 30
0.0
 10
175.984723
 20
63.566479
 30
0.0
 10
175.987115
 20
62.729355
 30
0.0
 10
175.988520
 20
62.187721
 30
0.0
 10
175.989200
 20
61.925480
 30
0.0
 11
175.981200
 21
64.436850
 31
0.0
 11
175.984607
 21
63.550381
 31
0.0
 11
175.987126
 21
62.712203
 31
0.0
 11
175.989200
 21
61.925480
 31
0.0
  0
LWPOLYLINE
  5
16a
100
AcDbEntity
  8
cut
 62
7
100
AcDbPolyline
 90
1
 70
1
 10
153.740160
 20
93.723210
 30
0.0
  0
LWPOLYLINE
  5
16b
100
AcDbEntity
  8
cut
 62
7
100
AcDbPolyline
 90
3
 70
0
 10
132.978630
 20
26.981480
 30
0.0
 10
132.978630
 20
24.568620
 30
0.0
 10
148.119870
 20
24.568610
 30
0.0
  0
LWPOLYLINE
  5
16c
100
AcDbEntity
  8
cut
 62
7
100
AcDbPolyline
 90
2
 70
0
 10
125.842880
 20
38.258820
 30
0.0
 10
125.778780
 20
34.153860
 30
0.0
  0
LWPOLYLINE
  5
16d
100
AcDbEntity
  8
cut
 62
7
100
AcDbPolyline
 90
2
 70
0
 10
69.912711
 20
185.492440
 30
0.0
 10
65.807751
 20
185.556540
 30
0.0
  0
LWPOLYLINE
  5
16e
100
AcDbEntity
  8
cut
 62
7
100
AcDbPolyline
 90
2
 70
0
 10
70.105131
 20
149.573990
 30
0.0
 10
66.000171
 20
149.638090
 30
0.0
  0
LWPOLYLINE
  5
16f
100
AcDbEntity
  8
cut_copy
 62
7
100
AcDbPolyline
 90
4
 70
0
 10
245.959014
 20
195.178880
 30
0.0
 10
250.803424
 20
195.178880
 30
0.0
 10
253.291094
 20
202.249099
 30
0.0
 10
262.587124
 20
201.856310
 30
0.0
  0
LWPOLYLINE
  5
170
100
AcDbEntity
  8
cut_copy
 62
7
100
AcDbPolyline
 90
4
 70
0
 10
265.336644
 20
202.249099
 30
0.0
 10
286.285434
 20
201.856310
 30
0.0
 10
291.260764
 20
195.309810
 30
0.0
 10
295.450524
 20
195.309810
 30
0.0
  0
LWPOLYLINE
  5
171
100
AcDbEntity
  8
cut_copy
 62
7
100
AcDbPolyline
 90
4
 70
0
 10
245.583911
 20
75.494360
 30
0.0
 10
250.428320
 20
75.494360
 30
0.0
 10
252.915990
 20
68.424140
 30
0.0
 10
262.212020
 20
68.816930
 30
0.0
  0
LWPOLYLINE
  5
172
100
AcDbEntity
  8
cut_copy
 62
7
100
AcDbPolyline
 90
4
 70
0
 10
264.961540
 20
68.424140
 30
0.0
 10
285.910330
 20
68.816930
 30
0.0
 10
290.885660
 20
75.363430
 30
0.0
 10
295.075420
 20
75.363430
 30
0.0
  0
LWPOLYLINE
  5
173
100
AcDbEntity
  8
cut_copy
 62
7
100
AcDbPolyline
 90
4
 70
0
 10
438.980671
 20
135.181060
 30
0.0
 10
434.136261
 20
135.181060
 30
0.0
 10
431.648591
 20
128.110840
 30
0.0
 10
422.352561
 20
128.503630
 30
0.0
  0
LWPOLYLINE
  5
174
100
AcDbEntity
  8
cut_copy
 62
7
100
AcDbPolyline
 90
4
 70
0
 10
419.603041
 20
128.110840
 30
0.0
 10
398.654251
 20
128.503630
 30
0.0
 10
393.678921
 20
135.050130
 30
0.0
 10
389.489161
 20
135.050130
 30
0.0
  0
LWPOLYLINE
  5
175
100
AcDbEntity
  8
cut_copy
 62
7
100
AcDbPolyline
 90
2
 70
0
 10
250.833827
 20
194.993720
 30
0.0
 10
270.899238
 20
194.993720
 30
0.0
  0
LWPOLYLINE
  5
176
100
AcDbEntity
  8
cut_copy
 62
7
100
AcDbPolyline
 90
2
 70
0
 10
291.277034
 20
194.957180
 30
0.0
 10
295.622404
 20
194.957180
 30
0.0
  0
LWPOLYLINE
  5
177
100
AcDbEntity
  8
cut_copy
 62
1
100
AcDbPolyline
 90
6
 70
1
 10
245.902864
 20
195.206730
 30
0.0
 10
245.903374
 20
195.207260
 30
0.0
 10
245.903742
 20
195.207105
 30
0.0
 10
245.903894
 20
195.206730
 30
0.0
 10
245.903374
 20
195.206210
 30
0.0
 10
245.902864
 20
195.206730
 30
0.0
  0
LWPOLYLINE
  5
178
100
AcDbEntity
  8
cut_copy
 62
1
100
AcDbPolyline
 90
2
 70
0
 10
290.917947
 20
195.006770
 30
0.0
 10
270.813952
 20
195.006770
 30
0.0
  0
LWPOLYLINE
  5
179
100
AcDbEntity
  8
cut_copy
 62
7
100
AcDbPolyline
 90
2
 70
0
 10
291.141104
 20
75.594130
 30
0.0
 10
271.075693
 20
75.594130
 30
0.0
  0
LWPOLYLINE
  5
17a
100
AcDbEntity
  8
cut_copy
 62
1
100
AcDbPolyline
 90
6
 70
1
 10
296.072067
 20
75.807140
 30
0.0
 10
296.071557
 20
75.807670
 30
0.0
 10
296.071189
 20
75.807515
 30
0.0
 10
296.071037
 20
75.807140
 30
0.0
 10
296.071557
 20
75.806620
 30
0.0
 10
296.072067
 20
75.807140
 30
0.0
  0
LWPOLYLINE
  5
17b
100
AcDbEntity
  8
cut_copy
 62
1
100
AcDbPolyline
 90
2
 70
0
 10
251.056984
 20
75.607180
 30
0.0
 10
271.160979
 20
75.607180
 30
0.0
  0
LWPOLYLINE
  5
17c
100
AcDbEntity
  8
cut_copy
 62
7
100
AcDbPolyline
 90
2
 70
0
 10
433.843350
 20
135.209020
 30
0.0
 10
413.777940
 20
135.209020
 30
0.0
  0
LWPOLYLINE
  5
17d
100
AcDbEntity
  8
cut_copy
 62
1
100
AcDbPolyline
 90
6
 70
1
 10
438.774320
 20
135.422030
 30
0.0
 10
438.773810
 20
135.422560
 30
0.0
 10
438.773442
 20
135.422405
 30
0.0
 10
438.773290
 20
135.422030
 30
0.0
 10
438.773810
 20
135.421510
 30
0.0
 10
438.774320
 20
135.422030
 30
0.0
  0
LWPOLYLINE
  5
17e
100
AcDbEntity
  8
cut_copy
 62
1
100
AcDbPolyline
 90
2
 70
0
 10
393.759230
 20
135.222070
 30
0.0
 10
413.863230
 20
135.222070
 30
0.0
  0
LWPOLYLINE
  5
17f
100
AcDbEntity
  8
cut_copy
 62
7
100
AcDbPolyline
 90
2
 70
0
 10
414.532910
 20
255.125750
 30
0.0
 10
394.467500
 20
255.125750
 30
0.0
  0
LWPOLYLINE
  5
180
100
AcDbEntity
  8
cut_copy
 62
1
100
AcDbPolyline
 90
6
 70
1
 10
442.886760
 20
255.207830
 30
0.0
 10
442.886250
 20
255.208360
 30
0.0
 10
442.885882
 20
255.208205
 30
0.0
 10
442.885730
 20
255.207830
 30
0.0
 10
442.886250
 20
255.207310
 30
0.0
 10
442.886760
 20
255.207830
 30
0.0
  0
LWPOLYLINE
  5
181
100
AcDbEntity
  8
cut_copy
 62
1
100
AcDbPolyline
 90
2
 70
0
 10
434.551620
 20
255.138800
 30
0.0
 10
414.447630
 20
255.138800
 30
0.0
  0
LWPOLYLINE
  5
182
100
AcDbEntity
  8
cut_copy
 62
7
100
AcDbPolyline
 90
2
 70
0
 10
270.888684
 20
201.962570
 30
0.0
 10
265.378474
 20
202.029770
 30
0.0
  0
LWPOLYLINE
  5
183
100
AcDbEntity
  8
cut_copy
 62
7
100
AcDbPolyline
 90
4
 70
0
 10
389.357850
 20
255.241779
 30
0.0
 10
394.202260
 20
255.241779
 30
0.0
 10
396.689920
 20
262.311994
 30
0.0
 10
405.985950
 20
261.919204
 30
0.0
  0
LWPOLYLINE
  5
184
100
AcDbEntity
  8
cut_copy
 62
7
100
AcDbPolyline
 90
4
 70
0
 10
408.735480
 20
262.311994
 30
0.0
 10
429.684270
 20
261.919204
 30
0.0
 10
434.659600
 20
255.372708
 30
0.0
 10
438.849360
 20
255.372708
 30
0.0
  0
LWPOLYLINE
  5
185
100
AcDbEntity
  8
cut_copy
 62
7
100
AcDbPolyline
 90
2
 70
0
 10
414.287520
 20
262.025468
 30
0.0
 10
408.777310
 20
262.092708
 30
0.0
  0
LWPOLYLINE
  5
186
100
AcDbEntity
  8
cut_copy
 62
7
100
AcDbPolyline
 90
3
 70
0
 10
333.031920
 20
119.500390
 30
0.0
 10
302.322240
 20
139.274840
 30
0.0
 10
295.343970
 20
135.351490
 30
0.0
  0
LWPOLYLINE
  5
187
100
AcDbEntity
  8
cut_copy
 62
7
100
AcDbPolyline
 90
2
 70
0
 10
302.322240
 20
139.274790
 30
0.0
 10
326.212670
 20
154.721190
 30
0.0
  0
LWPOLYLINE
  5
188
100
AcDbEntity
  8
cut_copy
 62
1
100
AcDbPolyline
 90
2
 70
0
 10
245.512110
 20
135.351440
 30
0.0
 10
295.211590
 20
135.351440
 30
0.0
  0
LWPOLYLINE
  5
189
100
AcDbEntity
  8
cut_copy
 62
1
100
AcDbPolyline
 90
2
 70
0
 10
295.083100
 20
195.398190
 30
0.0
 10
295.083100
 20
75.155750
 30
0.0
  0
LWPOLYLINE
  5
18a
100
AcDbEntity
  8
cut_copy
 62
1
100
AcDbPolyline
 90
2
 70
0
 10
342.343200
 20
175.791690
 30
0.0
 10
342.343200
 20
154.270420
 30
0.0
  0
LWPOLYLINE
  5
18b
100
AcDbEntity
  8
cut_copy
 62
1
100
AcDbPolyline
 90
2
 70
0
 10
332.984990
 20
111.876190
 30
0.0
 10
295.211590
 20
135.351440
 30
0.0
  0
LWPOLYLINE
  5
18c
100
AcDbEntity
  8
cut_copy
 62
1
100
AcDbPolyline
 90
2
 70
0
 10
295.083100
 20
75.155750
 30
0.0
 10
332.984940
 20
99.444200
 30
0.0
  0
LWPOLYLINE
  5
18d
100
AcDbEntity
  8
cut_copy
 62
7
100
AcDbPolyline
 90
2
 70
0
 10
362.840360
 20
151.896900
 30
0.0
 10
358.079830
 20
154.918210
 30
0.0
  0
LWPOLYLINE
  5
18e
100
AcDbEntity
  8
cut_copy
 62
7
100
AcDbPolyline
 90
2
 70
0
 10
389.214720
 20
135.158200
 30
0.0
 10
371.095650
 20
146.657640
 30
0.0
  0
LWPOLYLINE
  5
18f
100
AcDbEntity
  8
cut_copy
 62
7
100
AcDbPolyline
 90
3
 70
0
 10
351.510520
 20
210.899714
 30
0.0
 10
382.113080
 20
191.194250
 30
0.0
 10
389.091350
 20
195.117600
 30
0.0
  0
LWPOLYLINE
  5
190
100
AcDbEntity
  8
cut_copy
 62
7
100
AcDbPolyline
 90
2
 70
0
 10
359.477200
 20
243.701791
 30
0.0
 10
351.475090
 20
238.549102
 30
0.0
  0
LWPOLYLINE
  5
191
100
AcDbEntity
  8
cut_copy
 62
7
100
AcDbPolyline
 90
6
 70
0
 10
405.925100
 20
262.106718
 30
0.0
 10
396.636610
 20
262.196968
 30
0.0
 10
394.359730
 20
255.020075
 30
0.0
 10
389.091350
 20
255.308235
 30
0.0
 10
382.929940
 20
258.803380
 30
0.0
 10
366.677430
 20
248.338129
 30
0.0
  0
LWPOLYLINE
  5
192
100
AcDbEntity
  8
cut_copy
 62
7
100
AcDbPolyline
 90
6
 70
0
 10
438.923200
 20
135.233430
 30
0.0
 10
438.923200
 20
195.117610
 30
0.0
 10
438.923200
 20
255.308237
 30
0.0
 10
434.675950
 20
255.020077
 30
0.0
 10
429.529390
 20
261.877366
 30
0.0
 10
414.287610
 20
262.025464
 30
0.0
  0
LWPOLYLINE
  5
193
100
AcDbEntity
  8
cut_copy
 62
7
100
AcDbPolyline
 90
2
 70
0
 10
382.113080
 20
191.194290
 30
0.0
 10
357.992020
 20
175.598780
 30
0.0
  0
LWPOLYLINE
  5
194
100
AcDbEntity
  8
cut_copy
 62
7
100
AcDbPolyline
 90
2
 70
0
 10
425.115850
 20
196.285880
 30
0.0
 10
423.966860
 20
194.944580
 30
0.0
  0
LWPOLYLINE
  5
195
100
AcDbEntity
  8
cut_copy
 62
1
100
AcDbPolyline
 90
2
 70
0
 10
423.853510
 20
195.117640
 30
0.0
 10
389.223730
 20
195.117640
 30
0.0
  0
LWPOLYLINE
  5
196
100
AcDbEntity
  8
cut_copy
 62
1
100
AcDbPolyline
 90
2
 70
0
 10
389.352230
 20
135.070890
 30
0.0
 10
389.352230
 20
255.313325
 30
0.0
  0
LWPOLYLINE
  5
197
100
AcDbEntity
  8
cut_copy
 62
1
100
AcDbPolyline
 90
2
 70
0
 10
351.546550
 20
218.533090
 30
0.0
 10
389.223730
 20
195.117640
 30
0.0
  0
LWPOLYLINE
  5
198
100
AcDbEntity
  8
cut_copy
 62
1
100
AcDbPolyline
 90
2
 70
0
 10
389.352230
 20
255.313325
 30
0.0
 10
351.510790
 20
231.063591
 30
0.0
  0
LWPOLYLINE
  5
199
100
AcDbEntity
  8
cut_copy
 62
7
100
AcDbPolyline
 90
2
 70
0
 10
322.706320
 20
85.317340
 30
0.0
 10
333.028220
 20
91.963780
 30
0.0
  0
LWPOLYLINE
  5
19a
100
AcDbEntity
  8
cut_copy
 62
7
100
AcDbPolyline
 90
4
 70
0
 10
295.004970
 20
75.179390
 30
0.0
 10
295.343970
 20
75.160890
 30
0.0
 10
301.505360
 20
71.665750
 30
0.0
 10
315.597830
 20
80.740120
 30
0.0
  0
LWPOLYLINE
  5
19b
100
AcDbEntity
  8
cut_copy
 62
7
100
AcDbPolyline
 90
3
 70
0
 10
245.512110
 20
194.918420
 30
0.0
 10
245.512100
 20
135.351520
 30
0.0
 10
245.512100
 20
75.601170
 30
0.0
  0
LWPOLYLINE
  5
19c
100
AcDbEntity
  8
cut_copy
 62
7
100
AcDbPolyline
 90
3
 70
0
 10
332.921810
 20
119.655790
 30
0.0
 10
332.921810
 20
105.825670
 30
0.0
 10
332.921810
 20
91.952960
 30
0.0
  0
LWPOLYLINE
  5
19d
100
AcDbEntity
  8
cut_copy
 62
7
100
AcDbPolyline
 90
3
 70
0
 10
351.451520
 20
238.585704
 30
0.0
 10
351.451520
 20
224.755584
 30
0.0
 10
351.451520
 20
210.882872
 30
0.0
  0
LWPOLYLINE
  5
19e
100
AcDbEntity
  8
cut_copy
 62
7
100
AcDbPolyline
 90
2
 70
0
 10
319.192780
 20
180.096750
 30
0.0
 10
326.696190
 20
175.334640
 30
0.0
  0
LWPOLYLINE
  5
19f
100
AcDbEntity
  8
cut_copy
 62
7
100
AcDbPolyline
 90
2
 70
0
 10
295.457730
 20
195.160480
 30
0.0
 10
313.497260
 20
183.711510
 30
0.0
  0
LWPOLYLINE
  5
1a0
100
AcDbEntity
  8
cut_copy
 62
7
100
AcDbPolyline
 90
3
 70
0
 10
245.616950
 20
172.112320
 30
0.0
 10
265.198580
 20
172.112320
 30
0.0
 10
265.198580
 20
161.535860
 30
0.0
  0
LWPOLYLINE
  5
1a1
100
AcDbEntity
  8
cut_copy
 62
1
100
AcDbPolyline
 90
2
 70
0
 10
265.198580
 20
161.535860
 30
0.0
 10
245.616950
 20
161.535860
 30
0.0
  0
LWPOLYLINE
  5
1a2
100
AcDbEntity
  8
cut_copy
 62
7
100
AcDbPolyline
 90
2
 70
0
 10
313.497260
 20
183.711510
 30
0.0
 10
316.841450
 20
181.541970
 30
0.0
  0
LWPOLYLINE
  5
1a3
100
AcDbEntity
  8
cut_copy
 62
7
100
AcDbPolyline
 90
2
 70
0
 10
322.706310
 20
85.317340
 30
0.0
 10
318.006400
 20
82.171410
 30
0.0
  0
LWPOLYLINE
  5
1a4
100
AcDbEntity
  8
cut_copy
 62
7
100
AcDbPolyline
 90
2
 70
0
 10
362.840360
 20
151.896900
 30
0.0
 10
367.844830
 20
148.526520
 30
0.0
  0
LWPOLYLINE
  5
1a5
100
AcDbEntity
  8
cut_copy
 62
7
100
AcDbPolyline
 90
2
 70
0
 10
366.677430
 20
248.338130
 30
0.0
 10
361.802050
 20
244.936285
 30
0.0
  0
SPLINE
  5
1a6
100
AcDbEntity
  8
cut
 62
1
100
AcDbSpline
 70
0
 71
3
 72
10
 73
6
 74
4
 40
0.000000
 40
0.000000
 40
0.000000
 40
0.000000
 40
0.857292
 40
1.695530
 40
2.512923
 40
2.512923
 40
2.512923
 40
2.512923
 10
175.964580
 20
69.464210
 30
0.0
 10
175.965365
 20
69.178447
 30
0.0
 10
175.966917
 20
68.613272
 30
0.0
 10
175.970171
 20
67.775638
 30
0.0
 10
175.971784
 20
67.223763
 30
0.0
 10
175.972580
 20
66.951300
 30
0.0
 11
175.964580
 21
69.464210
 31
0.0
 11
175.967099
 21
68.606921
 31
0.0
 11
175.970061
 21
67.768689
 31
0.0
 11
175.972580
 21
66.951300
 31
0.0
  0
LWPOLYLINE
  5
1a7
100
AcDbEntity
  8
cut_copy
 62
1
100
AcDbPolyline
 90
2
 70
0
 10
397.734888
 20
159.809690
 30
0.0
 10
419.710366
 20
159.809690
 30
0.0
  0
SPLINE
  5
1a8
100
AcDbEntity
  8
cut_copy
 62
1
100
AcDbSpline
 70
0
 71
3
 72
13
 73
9
 74
7
 40
0.000000
 40
0.000000
 40
0.000000
 40
0.000000
 40
0.039606
 40
0.078884
 40
0.118490
 40
0.158097
 40
0.197375
 40
0.236981
 40
0.236981
 40
0.236981
 40
0.236981
 10
419.710366
 20
159.809690
 30
0.0
 10
419.723606
 20
159.808681
 30
0.0
 10
419.749978
 20
159.806673
 30
0.0
 10
419.786871
 20
159.790798
 30
0.0
 10
419.818619
 20
159.766645
 30
0.0
 10
419.842772
 20
159.734897
 30
0.0
 10
419.858647
 20
159.698004
 30
0.0
 10
419.860655
 20
159.671632
 30
0.0
 10
419.861664
 20
159.658392
 30
0.0
 11
419.710366
 21
159.809690
 31
0.0
 11
419.749631
 21
159.804506
 31
0.0
 11
419.785920
 21
159.789475
 31
0.0
 11
419.817350
 21
159.765376
 31
0.0
 11
419.841449
 21
159.733946
 31
0.0
 11
419.856480
 21
159.697657
 31
0.0
 11
419.861664
 21
159.658392
 31
0.0
  0
LWPOLYLINE
  5
1a9
100
AcDbEntity
  8
cut_copy
 62
1
100
AcDbPolyline
 90
2
 70
0
 10
419.861664
 20
159.658392
 30
0.0
 10
419.861664
 20
147.033676
 30
0.0
  0
SPLINE
  5
1aa
100
AcDbEntity
  8
cut_copy
 62
1
100
AcDbSpline
 70
0
 71
3
 72
13
 73
9
 74
7
 40
0.000000
 40
0.000000
 40
0.000000
 40
0.000000
 40
0.039606
 40
0.078884
 40
0.118490
 40
0.158097
 40
0.197375
 40
0.236981
 40
0.236981
 40
0.236981
 40
0.236981
 10
419.861664
 20
147.033676
 30
0.0
 10
419.860655
 20
147.020436
 30
0.0
 10
419.858647
 20
146.994064
 30
0.0
 10
419.842772
 20
146.957171
 30
0.0
 10
419.818619
 20
146.925423
 30
0.0
 10
419.786871
 20
146.901270
 30
0.0
 10
419.749978
 20
146.885395
 30
0.0
 10
419.723606
 20
146.883387
 30
0.0
 10
419.710366
 20
146.882378
 30
0.0
 11
419.861664
 21
147.033676
 31
0.0
 11
419.856480
 21
146.994411
 31
0.0
 11
419.841449
 21
146.958122
 31
0.0
 11
419.817350
 21
146.926692
 31
0.0
 11
419.785920
 21
146.902593
 31
0.0
 11
419.749631
 21
146.887562
 31
0.0
 11
419.710366
 21
146.882378
 31
0.0
  0
LWPOLYLINE
  5
1ab
100
AcDbEntity
  8
cut_copy
 62
1
100
AcDbPolyline
 90
2
 70
0
 10
419.710366
 20
146.882378
 30
0.0
 10
397.734888
 20
146.882378
 30
0.0
  0
SPLINE
  5
1ac
100
AcDbEntity
  8
cut_copy
 62
1
100
AcDbSpline
 70
0
 71
3
 72
13
 73
9
 74
7
 40
0.000000
 40
0.000000
 40
0.000000
 40
0.000000
 40
0.039606
 40
0.078884
 40
0.118490
 40
0.158097
 40
0.197375
 40
0.236981
 40
0.236981
 40
0.236981
 40
0.236981
 10
397.734888
 20
146.882378
 30
0.0
 10
397.721648
 20
146.883387
 30
0.0
 10
397.695276
 20
146.885395
 30
0.0
 10
397.658383
 20
146.901270
 30
0.0
 10
397.626635
 20
146.925423
 30
0.0
 10
397.602482
 20
146.957171
 30
0.0
 10
397.586607
 20
146.994064
 30
0.0
 10
397.584599
 20
147.020436
 30
0.0
 10
397.583590
 20
147.033676
 30
0.0
 11
397.734888
 21
146.882378
 31
0.0
 11
397.695623
 21
146.887562
 31
0.0
 11
397.659334
 21
146.902593
 31
0.0
 11
397.627904
 21
146.926692
 31
0.0
 11
397.603805
 21
146.958122
 31
0.0
 11
397.588774
 21
146.994411
 31
0.0
 11
397.583590
 21
147.033676
 31
0.0
  0
LWPOLYLINE
  5
1ad
100
AcDbEntity
  8
cut_copy
 62
1
100
AcDbPolyline
 90
2
 70
0
 10
397.583590
 20
147.033676
 30
0.0
 10
397.583590
 20
159.658392
 30
0.0
  0
LWPOLYLINE
  5
1ae
100
AcDbEntity
  8
cut_copy
 62
1
100
AcDbPolyline
 90
1
 70
1
 10
397.734888
 20
159.809690
 30
0.0
  0
LWPOLYLINE
  5
1af
100
AcDbEntity
  8
cut_copy
 62
7
100
AcDbPolyline
 90
4
 70
1
 10
398.457070
 20
154.446940
 30
0.0
 10
407.527180
 20
154.287810
 30
0.0
 10
407.527180
 20
159.061560
 30
0.0
 10
398.457070
 20
159.061560
 30
0.0
  0
LWPOLYLINE
  5
1b0
100
AcDbEntity
  8
cut_copy
 62
7
100
AcDbPolyline
 90
4
 70
1
 10
398.545910
 20
147.653250
 30
0.0
 10
407.616020
 20
147.494120
 30
0.0
 10
407.616020
 20
152.267870
 30
0.0
 10
398.545910
 20
152.267870
 30
0.0
  0
LWPOLYLINE
  5
1b1
100
AcDbEntity
  8
cut_copy
 62
7
100
AcDbPolyline
 90
4
 70
1
 10
409.774650
 20
147.813960
 30
0.0
 10
418.844760
 20
147.653250
 30
0.0
 10
418.844760
 20
152.474540
 30
0.0
 10
409.774650
 20
152.474540
 30
0.0
  0
LWPOLYLINE
  5
1b2
100
AcDbEntity
  8
cut_copy
 62
7
100
AcDbPolyline
 90
4
 70
1
 10
409.774650
 20
154.456720
 30
0.0
 10
418.844760
 20
154.297590
 30
0.0
 10
418.844760
 20
159.071340
 30
0.0
 10
409.774650
 20
159.071340
 30
0.0
  0
SPLINE
  5
1b3
100
AcDbEntity
  8
cut_copy
 62
1
100
AcDbSpline
 70
0
 71
3
 72
13
 73
9
 74
7
 40
0.000000
 40
0.000000
 40
0.000000
 40
0.000000
 40
0.039606
 40
0.078884
 40
0.118490
 40
0.158097
 40
0.197375
 40
0.236981
 40
0.236981
 40
0.236981
 40
0.236981
 10
397.583590
 20
159.658392
 30
0.0
 10
397.584599
 20
159.671632
 30
0.0
 10
397.586607
 20
159.698004
 30
0.0
 10
397.602482
 20
159.734897
 30
0.0
 10
397.626635
 20
159.766645
 30
0.0
 10
397.658383
 20
159.790798
 30
0.0
 10
397.695276
 20
159.806673
 30
0.0
 10
397.721648
 20
159.808681
 30
0.0
 10
397.734888
 20
159.809690
 30
0.0
 11
397.583590
 21
159.658392
 31
0.0
 11
397.588774
 21
159.697657
 31
0.0
 11
397.603805
 21
159.733946
 31
0.0
 11
397.627904
 21
159.765376
 31
0.0
 11
397.659334
 21
159.789475
 31
0.0
 11
397.695623
 21
159.804506
 31
0.0
 11
397.734888
 21
159.809690
 31
0.0
  0
LWPOLYLINE
  5
1b4
100
AcDbEntity
  8
cut_copy
 62
1
100
AcDbPolyline
 90
2
 70
0
 10
397.728108
 20
185.059950
 30
0.0
 10
419.703588
 20
185.059950
 30
0.0
  0
SPLINE
  5
1b5
100
AcDbEntity
  8
cut_copy
 62
1
100
AcDbSpline
 70
0
 71
3
 72
13
 73
9
 74
7
 40
0.000000
 40
0.000000
 40
0.000000
 40
0.000000
 40
0.039606
 40
0.078884
 40
0.118490
 40
0.158097
 40
0.197375
 40
0.236981
 40
0.236981
 40
0.236981
 40
0.236981
 10
419.703588
 20
185.059950
 30
0.0
 10
419.716828
 20
185.058941
 30
0.0
 10
419.743200
 20
185.056933
 30
0.0
 10
419.780093
 20
185.041058
 30
0.0
 10
419.811841
 20
185.016905
 30
0.0
 10
419.835994
 20
184.985157
 30
0.0
 10
419.851869
 20
184.948264
 30
0.0
 10
419.853877
 20
184.921892
 30
0.0
 10
419.854886
 20
184.908652
 30
0.0
 11
419.703588
 21
185.059950
 31
0.0
 11
419.742853
 21
185.054766
 31
0.0
 11
419.779142
 21
185.039735
 31
0.0
 11
419.810572
 21
185.015636
 31
0.0
 11
419.834671
 21
184.984206
 31
0.0
 11
419.849702
 21
184.947917
 31
0.0
 11
419.854886
 21
184.908652
 31
0.0
  0
LWPOLYLINE
  5
1b6
100
AcDbEntity
  8
cut_copy
 62
1
100
AcDbPolyline
 90
2
 70
0
 10
419.854886
 20
184.908652
 30
0.0
 10
419.854886
 20
172.283936
 30
0.0
  0
SPLINE
  5
1b7
100
AcDbEntity
  8
cut_copy
 62
1
100
AcDbSpline
 70
0
 71
3
 72
13
 73
9
 74
7
 40
0.000000
 40
0.000000
 40
0.000000
 40
0.000000
 40
0.039606
 40
0.078884
 40
0.118490
 40
0.158097
 40
0.197375
 40
0.236981
 40
0.236981
 40
0.236981
 40
0.236981
 10
419.854886
 20
172.283936
 30
0.0
 10
419.853877
 20
172.270696
 30
0.0
 10
419.851869
 20
172.244324
 30
0.0
 10
419.835994
 20
172.207431
 30
0.0
 10
419.811841
 20
172.175683
 30
0.0
 10
419.780093
 20
172.151530
 30
0.0
 10
419.743200
 20
172.135655
 30
0.0
 10
419.716828
 20
172.133647
 30
0.0
 10
419.703588
 20
172.132638
 30
0.0
 11
419.854886
 21
172.283936
 31
0.0
 11
419.849702
 21
172.244671
 31
0.0
 11
419.834671
 21
172.208382
 31
0.0
 11
419.810572
 21
172.176952
 31
0.0
 11
419.779142
 21
172.152853
 31
0.0
 11
419.742853
 21
172.137822
 31
0.0
 11
419.703588
 21
172.132638
 31
0.0
  0
LWPOLYLINE
  5
1b8
100
AcDbEntity
  8
cut_copy
 62
1
100
AcDbPolyline
 90
2
 70
0
 10
419.703588
 20
172.132638
 30
0.0
 10
397.728108
 20
172.132638
 30
0.0
  0
SPLINE
  5
1b9
100
AcDbEntity
  8
cut_copy
 62
1
100
AcDbSpline
 70
0
 71
3
 72
13
 73
9
 74
7
 40
0.000000
 40
0.000000
 40
0.000000
 40
0.000000
 40
0.039606
 40
0.078884
 40
0.118490
 40
0.158097
 40
0.197375
 40
0.236981
 40
0.236981
 40
0.236981
 40
0.236981
 10
397.728108
 20
172.132638
 30
0.0
 10
397.714868
 20
172.133647
 30
0.0
 10
397.688496
 20
172.135655
 30
0.0
 10
397.651603
 20
172.151530
 30
0.0
 10
397.619855
 20
172.175683
 30
0.0
 10
397.595702
 20
172.207431
 30
0.0
 10
397.579827
 20
172.244324
 30
0.0
 10
397.577819
 20
172.270696
 30
0.0
 10
397.576810
 20
172.283936
 30
0.0
 11
397.728108
 21
172.132638
 31
0.0
 11
397.688843
 21
172.137822
 31
0.0
 11
397.652554
 21
172.152853
 31
0.0
 11
397.621124
 21
172.176952
 31
0.0
 11
397.597025
 21
172.208382
 31
0.0
 11
397.581994
 21
172.244671
 31
0.0
 11
397.576810
 21
172.283936
 31
0.0
  0
LWPOLYLINE
  5
1ba
100
AcDbEntity
  8
cut_copy
 62
1
100
AcDbPolyline
 90
2
 70
0
 10
397.576810
 20
172.283936
 30
0.0
 10
397.576810
 20
184.908652
 30
0.0
  0
LWPOLYLINE
  5
1bb
100
AcDbEntity
  8
cut_copy
 62
1
100
AcDbPolyline
 90
1
 70
1
 10
397.728108
 20
185.059950
 30
0.0
  0
LWPOLYLINE
  5
1bc
100
AcDbEntity
  8
cut_copy
 62
7
100
AcDbPolyline
 90
4
 70
1
 10
398.450290
 20
179.697190
 30
0.0
 10
407.520400
 20
179.538060
 30
0.0
 10
407.520400
 20
184.311810
 30
0.0
 10
398.450290
 20
184.311810
 30
0.0
  0
LWPOLYLINE
  5
1bd
100
AcDbEntity
  8
cut_copy
 62
7
100
AcDbPolyline
 90
4
 70
1
 10
398.539130
 20
172.903500
 30
0.0
 10
407.609240
 20
172.744370
 30
0.0
 10
407.609240
 20
177.518120
 30
0.0
 10
398.539130
 20
177.518120
 30
0.0
  0
LWPOLYLINE
  5
1be
100
AcDbEntity
  8
cut_copy
 62
7
100
AcDbPolyline
 90
4
 70
1
 10
409.767870
 20
173.064210
 30
0.0
 10
418.837980
 20
172.903500
 30
0.0
 10
418.837980
 20
177.724790
 30
0.0
 10
409.767870
 20
177.724790
 30
0.0
  0
LWPOLYLINE
  5
1bf
100
AcDbEntity
  8
cut_copy
 62
7
100
AcDbPolyline
 90
4
 70
1
 10
409.767870
 20
179.706970
 30
0.0
 10
418.837980
 20
179.547840
 30
0.0
 10
418.837980
 20
184.321590
 30
0.0
 10
409.767870
 20
184.321590
 30
0.0
  0
LWPOLYLINE
  5
1c0
100
AcDbEntity
  8
cut_copy
 62
7
100
AcDbPolyline
 90
2
 70
0
 10
325.968060
 20
175.797760
 30
0.0
 10
358.034490
 20
175.797760
 30
0.0
  0
LWPOLYLINE
  5
1c1
100
AcDbEntity
  8
cut_copy
 62
7
100
AcDbPolyline
 90
2
 70
0
 10
325.968060
 20
154.538240
 30
0.0
 10
358.034490
 20
154.538240
 30
0.0
  0
LWPOLYLINE
  5
1c2
100
AcDbEntity
  8
cut_copy
 62
7
100
AcDbPolyline
 90
4
 70
0
 10
301.999270
 20
147.716780
 30
0.0
 10
302.144460
 20
146.935580
 30
0.0
 10
305.592660
 20
147.115860
 30
0.0
 10
305.665260
 20
147.716780
 30
0.0
  0
LWPOLYLINE
  5
1c3
100
AcDbEntity
  8
cut_copy
 62
7
100
AcDbPolyline
 90
4
 70
0
 10
301.852850
 20
183.710230
 30
0.0
 10
302.143370
 20
183.147450
 30
0.0
 10
305.411730
 20
183.147450
 30
0.0
 10
305.629620
 20
183.653940
 30
0.0
  0
LWPOLYLINE
  5
1c4
100
AcDbEntity
  8
cut_copy
 62
7
100
AcDbPolyline
 90
2
 70
0
 10
438.903860
 20
195.141690
 30
0.0
 10
423.904350
 20
195.198190
 30
0.0
  0
LWPOLYLINE
  5
1c5
100
AcDbEntity
  8
cut_copy
 62
7
100
AcDbPolyline
 90
2
 70
0
 10
439.052000
 20
195.675140
 30
0.0
 10
424.340800
 20
195.731640
 30
0.0
  0
LWPOLYLINE
  5
1c6
100
AcDbEntity
  8
cut_copy
 62
7
100
AcDbPolyline
 90
8
 70
0
 10
405.271870
 20
43.862200
 30
0.0
 10
407.930940
 20
43.862200
 30
0.0
 10
407.930940
 20
36.315770
 30
0.0
 10
411.013740
 20
36.315770
 30
0.0
 10
411.013740
 20
32.624910
 30
0.0
 10
408.297820
 20
32.624910
 30
0.0
 10
408.297820
 20
24.686080
 30
0.0
 10
405.164080
 20
24.686080
 30
0.0
  0
LWPOLYLINE
  5
1c7
100
AcDbEntity
  8
cut_copy
 62
7
100
AcDbPolyline
 90
8
 70
0
 10
368.926720
 20
43.884300
 30
0.0
 10
366.267650
 20
43.884300
 30
0.0
 10
366.267650
 20
36.337870
 30
0.0
 10
363.184850
 20
36.337870
 30
0.0
 10
363.184850
 20
32.647010
 30
0.0
 10
365.900770
 20
32.647010
 30
0.0
 10
365.900770
 20
24.708180
 30
0.0
 10
369.034510
 20
24.708180
 30
0.0
  0
LWPOLYLINE
  5
1c8
100
AcDbEntity
  8
cut_copy
 62
7
100
AcDbPolyline
 90
3
 70
0
 10
390.081700
 20
46.132790
 30
0.0
 10
405.264330
 20
46.132790
 30
0.0
 10
405.264330
 20
43.757620
 30
0.0
  0
LWPOLYLINE
  5
1c9
100
AcDbEntity
  8
cut_copy
 62
7
100
AcDbPolyline
 90
3
 70
0
 10
368.955830
 20
43.714480
 30
0.0
 10
368.955830
 20
46.127340
 30
0.0
 10
384.881000
 20
46.127340
 30
0.0
  0
LWPOLYLINE
  5
1ca
100
AcDbEntity
  8
cut_copy
 62
7
100
AcDbPolyline
 90
3
 70
0
 10
388.979240
 20
22.606060
 30
0.0
 10
405.188150
 20
22.606070
 30
0.0
 10
405.188150
 20
24.979620
 30
0.0
  0
LWPOLYLINE
  5
1cb
100
AcDbEntity
  8
cut_copy
 62
7
100
AcDbPolyline
 90
6
 70
0
 10
377.094150
 20
54.197950
 30
0.0
 10
353.454320
 20
54.197950
 30
0.0
 10
349.039820
 20
58.612460
 30
0.0
 10
349.039820
 20
78.346200
 30
0.0
 10
353.293530
 20
82.599930
 30
0.0
 10
377.651380
 20
82.605930
 30
0.0
  0
LWPOLYLINE
  5
1cc
100
AcDbEntity
  8
cut_copy
 62
7
100
AcDbPolyline
 90
3
 70
0
 10
411.815180
 20
54.290780
 30
0.0
 10
411.815180
 20
54.197880
 30
0.0
 10
382.352530
 20
54.197880
 30
0.0
  0
LWPOLYLINE
  5
1cd
100
AcDbEntity
  8
cut_copy
 62
7
100
AcDbPolyline
 90
4
 70
0
 10
382.564540
 20
82.607420
 30
0.0
 10
411.866220
 20
82.614420
 30
0.0
 10
411.866220
 20
82.614420
 30
0.0
 10
411.866220
 20
82.535220
 30
0.0
  0
LWPOLYLINE
  5
1ce
100
AcDbEntity
  8
cut_copy
 62
7
100
AcDbPolyline
 90
2
 70
0
 10
411.895670
 20
82.576600
 30
0.0
 10
421.469890
 20
79.205070
 30
0.0
  0
LWPOLYLINE
  5
1cf
100
AcDbEntity
  8
cut_copy
 62
7
100
AcDbPolyline
 90
3
 70
0
 10
411.765610
 20
54.199260
 30
0.0
 10
421.624730
 20
57.590170
 30
0.0
 10
421.624730
 20
79.363420
 30
0.0
  0
LWPOLYLINE
  5
1d0
100
AcDbEntity
  8
cut_copy
 62
7
100
AcDbPolyline
 90
2
 70
0
 10
353.475300
 20
68.890650
 30
0.0
 10
353.418800
 20
54.179450
 30
0.0
  0
SPLINE
  5
1d1
100
AcDbEntity
  8
cut_copy
 62
1
100
AcDbSpline
 70
0
 71
3
 72
13
 73
9
 74
7
 40
0.000000
 40
0.000000
 40
0.000000
 40
0.000000
 40
0.039606
 40
0.078884
 40
0.118490
 40
0.158097
 40
0.197375
 40
0.236981
 40
0.236981
 40
0.236981
 40
0.236981
 10
397.576810
 20
184.908652
 30
0.0
 10
397.577819
 20
184.921892
 30
0.0
 10
397.579827
 20
184.948264
 30
0.0
 10
397.595702
 20
184.985157
 30
0.0
 10
397.619855
 20
185.016905
 30
0.0
 10
397.651603
 20
185.041058
 30
0.0
 10
397.688496
 20
185.056933
 30
0.0
 10
397.714868
 20
185.058941
 30
0.0
 10
397.728108
 20
185.059950
 30
0.0
 11
397.576810
 21
184.908652
 31
0.0
 11
397.581994
 21
184.947917
 31
0.0
 11
397.597025
 21
184.984206
 31
0.0
 11
397.621124
 21
185.015636
 31
0.0
 11
397.652554
 21
185.039735
 31
0.0
 11
397.688843
 21
185.054766
 31
0.0
 11
397.728108
 21
185.059950
 31
0.0
  0
LWPOLYLINE
  5
1d2
100
AcDbEntity
  8
cut_copy
 62
7
100
AcDbPolyline
 90
2
 70
0
 10
412.005150
 20
82.441500
 30
0.0
 10
411.948550
 20
68.713420
 30
0.0
  0
SPLINE
  5
1d3
100
AcDbEntity
  8
cut_copy
 62
7
100
AcDbSpline
 70
0
 71
3
 72
13
 73
9
 74
7
 40
0.000000
 40
0.000000
 40
0.000000
 40
0.000000
 40
2.875092
 40
5.717987
 40
8.593079
 40
12.704494
 40
16.726419
 40
20.837833
 40
20.837833
 40
20.837833
 40
20.837833
 10
385.948510
 20
99.226510
 30
0.0
 10
386.661655
 20
98.574881
 30
0.0
 10
388.079958
 20
97.278920
 30
0.0
 10
389.339791
 20
94.632733
 30
0.0
 10
389.862154
 20
91.354381
 30
0.0
 10
389.024063
 20
87.669994
 30
0.0
 10
386.476172
 20
84.241798
 30
0.0
 10
383.920756
 20
83.209804
 30
0.0
 10
382.628990
 20
82.688130
 30
0.0
 11
385.948510
 21
99.226510
 31
0.0
 11
387.941310
 21
97.154095
 31
0.0
 11
389.202960
 21
94.606490
 31
0.0
 11
389.643500
 21
91.765350
 31
0.0
 11
388.743018
 21
87.753759
 31
0.0
 11
386.283758
 21
84.571320
 31
0.0
 11
382.628990
 21
82.688130
 31
0.0
  0
SPLINE
  5
1d4
100
AcDbEntity
  8
cut_copy
 62
7
100
AcDbSpline
 70
0
 71
3
 72
13
 73
9
 74
7
 40
0.000000
 40
0.000000
 40
0.000000
 40
0.000000
 40
4.097407
 40
8.106176
 40
12.203583
 40
16.591278
 40
20.871727
 40
25.259422
 40
25.259422
 40
25.259422
 40
25.259422
 10
377.856200
 20
82.698850
 30
0.0
 10
376.571078
 20
83.223807
 30
0.0
 10
374.028635
 20
84.262365
 30
0.0
 10
371.497862
 20
87.684830
 30
0.0
 10
370.549211
 20
91.861591
 30
0.0
 10
371.587897
 20
96.134358
 30
0.0
 10
374.479834
 20
99.688912
 30
0.0
 10
377.288674
 20
100.570329
 30
0.0
 10
378.710470
 20
101.016490
 30
0.0
 11
377.856200
 21
82.698850
 31
0.0
 11
374.220916
 21
84.589209
 31
0.0
 11
371.776839
 21
87.766742
 31
0.0
 11
370.882480
 21
91.765350
 31
0.0
 11
371.907871
 21
96.031548
 31
0.0
 11
374.672814
 21
99.299165
 31
0.0
 11
378.710470
 21
101.016490
 31
0.0
  0
SPLINE
  5
1d5
100
AcDbEntity
  8
cut_copy
 62
1
100
AcDbSpline
 70
0
 71
3
 72
10
 73
6
 74
4
 40
0.000000
 40
0.000000
 40
0.000000
 40
0.000000
 40
0.951596
 40
1.548292
 40
1.754990
 40
1.754990
 40
1.754990
 40
1.754990
 10
353.467570
 20
70.373820
 30
0.0
 10
353.468692
 20
70.056623
 30
0.0
 10
353.470518
 20
69.540529
 30
0.0
 10
353.472489
 20
68.955536
 30
0.0
 10
353.473349
 20
68.687739
 30
0.0
 10
353.473570
 20
68.618840
 30
0.0
 11
353.467570
 21
70.373820
 31
0.0
 11
353.470903
 21
69.422230
 31
0.0
 11
353.472903
 21
68.825537
 31
0.0
 11
353.473570
 21
68.618840
 31
0.0
  0
SPLINE
  5
1d6
100
AcDbEntity
  8
cut_copy
 62
1
100
AcDbSpline
 70
0
 71
3
 72
10
 73
6
 74
4
 40
0.000000
 40
0.000000
 40
0.000000
 40
0.000000
 40
0.886469
 40
1.724648
 40
2.511373
 40
2.511373
 40
2.511373
 40
2.511373
 10
353.450950
 20
75.400110
 30
0.0
 10
353.452146
 20
75.104623
 30
0.0
 10
353.454473
 20
74.529745
 30
0.0
 10
353.456865
 20
73.692624
 30
0.0
 10
353.458270
 20
73.150991
 30
0.0
 10
353.458950
 20
72.888750
 30
0.0
 11
353.450950
 21
75.400110
 31
0.0
 11
353.454357
 21
74.513648
 31
0.0
 11
353.456876
 21
73.675472
 31
0.0
 11
353.458950
 21
72.888750
 31
0.0
  0
SPLINE
  5
1d7
100
AcDbEntity
  8
cut_copy
 62
1
100
AcDbSpline
 70
0
 71
3
 72
10
 73
6
 74
4
 40
0.000000
 40
0.000000
 40
0.000000
 40
0.000000
 40
0.857287
 40
1.695525
 40
2.512913
 40
2.512913
 40
2.512913
 40
2.512913
 10
353.434320
 20
80.427470
 30
0.0
 10
353.435105
 20
80.141709
 30
0.0
 10
353.436657
 20
79.576536
 30
0.0
 10
353.439911
 20
78.738904
 30
0.0
 10
353.441524
 20
78.187031
 30
0.0
 10
353.442320
 20
77.914570
 30
0.0
 11
353.434320
 21
80.427470
 31
0.0
 11
353.436839
 21
79.570186
 31
0.0
 11
353.439801
 21
78.731954
 31
0.0
 11
353.442320
 21
77.914570
 31
0.0
  0
SPLINE
  5
1d8
100
AcDbEntity
  8
cut_copy
 62
1
100
AcDbSpline
 70
0
 71
3
 72
10
 73
6
 74
4
 40
0.000000
 40
0.000000
 40
0.000000
 40
0.000000
 40
0.951603
 40
1.548302
 40
1.755000
 40
1.755000
 40
1.755000
 40
1.755000
 10
411.901160
 20
57.452700
 30
0.0
 10
411.902282
 20
57.135501
 30
0.0
 10
411.904108
 20
56.619404
 30
0.0
 10
411.906079
 20
56.034407
 30
0.0
 10
411.906939
 20
55.766609
 30
0.0
 10
411.907160
 20
55.697710
 30
0.0
 11
411.901160
 21
57.452700
 31
0.0
 11
411.904493
 21
56.501103
 31
0.0
 11
411.906493
 21
55.904407
 31
0.0
 11
411.907160
 21
55.697710
 31
0.0
  0
SPLINE
  5
1d9
100
AcDbEntity
  8
cut_copy
 62
1
100
AcDbSpline
 70
0
 71
3
 72
10
 73
6
 74
4
 40
0.000000
 40
0.000000
 40
0.000000
 40
0.000000
 40
0.886476
 40
1.724658
 40
2.511383
 40
2.511383
 40
2.511383
 40
2.511383
 10
411.884540
 20
62.478990
 30
0.0
 10
411.885736
 20
62.183500
 30
0.0
 10
411.888063
 20
61.608619
 30
0.0
 10
411.890455
 20
60.771495
 30
0.0
 10
411.891860
 20
60.229861
 30
0.0
 10
411.892540
 20
59.967620
 30
0.0
 11
411.884540
 21
62.478990
 31
0.0
 11
411.887947
 21
61.592521
 31
0.0
 11
411.890466
 21
60.754343
 31
0.0
 11
411.892540
 21
59.967620
 31
0.0
  0
LWPOLYLINE
  5
1da
100
AcDbEntity
  8
cut_copy
 62
7
100
AcDbPolyline
 90
1
 70
1
 10
389.643500
 20
91.765350
 30
0.0
  0
LWPOLYLINE
  5
1db
100
AcDbEntity
  8
cut_copy
 62
7
100
AcDbPolyline
 90
3
 70
0
 10
368.881970
 20
25.023620
 30
0.0
 10
368.881970
 20
22.610760
 30
0.0
 10
384.023210
 20
22.610750
 30
0.0
  0
LWPOLYLINE
  5
1dc
100
AcDbEntity
  8
cut_copy
 62
7
100
AcDbPolyline
 90
2
 70
0
 10
361.746220
 20
36.300960
 30
0.0
 10
361.682120
 20
32.196000
 30
0.0
  0
LWPOLYLINE
  5
1dd
100
AcDbEntity
  8
cut_copy
 62
7
100
AcDbPolyline
 90
2
 70
0
 10
305.816050
 20
183.534580
 30
0.0
 10
301.711090
 20
183.598680
 30
0.0
  0
SPLINE
  5
1de
100
AcDbEntity
  8
cut_copy
 62
1
100
AcDbSpline
 70
0
 71
3
 72
10
 73
6
 74
4
 40
0.000000
 40
0.000000
 40
0.000000
 40
0.000000
 40
0.857292
 40
1.695530
 40
2.512923
 40
2.512923
 40
2.512923
 40
2.512923
 10
411.867920
 20
67.506350
 30
0.0
 10
411.868705
 20
67.220587
 30
0.0
 10
411.870257
 20
66.655412
 30
0.0
 10
411.873511
 20
65.817778
 30
0.0
 10
411.875124
 20
65.265903
 30
0.0
 10
411.875920
 20
64.993440
 30
0.0
 11
411.867920
 21
67.506350
 31
0.0
 11
411.870439
 21
66.649061
 31
0.0
 11
411.873401
 21
65.810829
 31
0.0
 11
411.875920
 21
64.993440
 31
0.0
  0
LWPOLYLINE
  5
1df
100
AcDbEntity
  8
cut_copy
 62
7
100
AcDbPolyline
 90
2
 70
0
 10
306.008470
 20
147.616130
 30
0.0
 10
301.903510
 20
147.680230
 30
0.0
  0
SPLINE
  5
1e0
100
AcDbEntity
  8
cut_copy
 62
7
100
AcDbSpline
 70
0
 71
3
 72
25
 73
21
 74
19
 40
0.000000
 40
0.000000
 40
0.000000
 40
0.000000
 40
0.138166
 40
0.275039
 40
0.416058
 40
0.558250
 40
0.697909
 40
0.838936
 40
0.978287
 40
1.113991
 40
1.252153
 40
1.391512
 40
1.530024
 40
1.672213
 40
1.767102
 40
1.860837
 40
1.954709
 40
2.047827
 40
2.139524
 40
2.231605
 40
2.231605
 40
2.231605
 40
2.231605
 10
-180.473591
 20
-182.547210
 30
0.0
 10
-180.479143
 20
-182.500845
 30
0.0
 10
-180.490196
 20
-182.408550
 30
0.0
 10
-180.574477
 20
-182.291591
 30
0.0
 10
-180.694222
 20
-182.213655
 30
0.0
 10
-180.836353
 20
-182.186595
 30
0.0
 10
-180.978002
 20
-182.213788
 30
0.0
 10
-181.098819
 20
-182.291442
 30
0.0
 10
-181.179811
 20
-182.408627
 30
0.0
 10
-181.208388
 20
-182.547167
 30
0.0
 10
-181.179942
 20
-182.685904
 30
0.0
 10
-181.098670
 20
-182.802881
 30
0.0
 10
-180.978139
 20
-182.880616
 30
0.0
 10
-180.851980
 20
-182.904880
 30
0.0
 10
-180.741514
 20
-182.890716
 30
0.0
 10
-180.653161
 20
-182.855324
 30
0.0
 10
-180.577050
 20
-182.798946
 30
0.0
 10
-180.519049
 20
-182.725294
 30
0.0
 10
-180.480858
 20
-182.639441
 30
0.0
 10
-180.476017
 20
-182.577997
 30
0.0
 10
-180.473591
 20
-182.547210
 30
0.0
 11
-180.473591
 21
-182.547210
 31
0.0
 11
-180.501519
 21
-182.411896
 31
0.0
 11
-180.579198
 21
-182.299200
 31
0.0
 11
-180.697472
 21
-182.222406
 31
0.0
 11
-180.837122
 21
-182.195636
 31
0.0
 11
-180.974255
 21
-182.222078
 31
0.0
 11
-181.092706
 21
-182.298616
 31
0.0
 11
-181.171661
 21
-182.413440
 31
0.0
 11
-181.198939
 21
-182.546374
 31
0.0
 11
-181.171323
 21
-182.681748
 31
0.0
 11
-181.092103
 21
-182.796401
 31
0.0
 11
-180.975848
 21
-182.871702
 31
0.0
 11
-180.836260
 21
-182.898775
 31
0.0
 11
-180.742139
 21
-182.886730
 31
0.0
 11
-180.655154
 21
-182.851803
 31
0.0
 11
-180.579814
 21
-182.795804
 31
0.0
 11
-180.522046
 21
-182.722771
 31
0.0
 11
-180.486016
 21
-182.638449
 31
0.0
 11
-180.473591
 21
-182.547210
 31
0.0
  0
LWPOLYLINE
  5
1e1
100
AcDbEntity
  8
cut_copy
 62
7
100
AcDbPolyline
 90
1
 70
1
 10
-180.473591
 20
-182.547210
 30
0.0
  0
ENDSEC
  0
SECTION
  2
OBJECTS
  0
DICTIONARY
  5
C
330
0
100
AcDbDictionary
  3
ACAD_GROUP
350
D
  3
ACAD_MLINESTYLE
350
17
  0
DICTIONARY
  5
D
330
C
100
AcDbDictionary
  0
DICTIONARY
  5
1A
330
C
100
AcDbDictionary
  0
DICTIONARY
  5
17
330
C
100
AcDbDictionary
  3
STANDARD
350
18
  0
DICTIONARY
  5
19
330
C
100
AcDbDictionary
  0
ENDSEC
  0
EOF
