  0
SECTION
  2
HEADER
  9
$ACADVER
  1
AC1014
  9
$HANDSEED
  5
FFFF
  9
$INSUNITS
 70
     4
  9
$MEASUREMENT
 70
     1
  0
ENDSEC
  0
SECTION
  2
TABLES
  0
TABLE
  2
VPORT
  5
8
330
0
100
AcDbSymbolTable
 70
     4
  0
VPORT
  5
2E
330
8
100
AcDbSymbolTableRecord
100
AcDbViewportTableRecord
  2
*ACTIVE
 70
     0
 10
0.0
 20
0.0
 11
1.0
 21
1.0
 12
210.0
 22
148.5
 13
0.0
 23
0.0
 14
10.0
 24
10.0
 15
10.0
 25
10.0
 16
0.0
 26
0.0
 36
1.0
 17
0.0
 27
0.0
 37
0.0
 40
341.0
 41
1.24
 42
50.0
 43
0.0
 44
0.0
 50
0.0
 51
0.0
 71
     0
 72
   100
 73
     1
 74
     3
 75
     0
 76
     0
 77
     0
 78
     0
  0
ENDTAB
  0
TABLE
  2
LTYPE
  5
5
330
0
100
AcDbSymbolTable
 70
     1
  0
LTYPE
  5
14
330
5
100
AcDbSymbolTableRecord
100
AcDbLinetypeTableRecord
  2
BYBLOCK
 70
     0
  3

 72
    65
 73
     0
 40
0.0
  0
LTYPE
  5
15
330
5
100
AcDbSymbolTableRecord
100
AcDbLinetypeTableRecord
  2
BYLAYER
 70
     0
  3

 72
    65
 73
     0
 40
0.0
  0
LTYPE
  5
16
330
5
100
AcDbSymbolTableRecord
100
AcDbLinetypeTableRecord
  2
CONTINUOUS
 70
     0
  3
Solid line
 72
    65
 73
     0
 40
0.0
  0
ENDTAB
  0
TABLE
  2
LAYER
  5
2
100
AcDbSymbolTable
 70
4
  0
LAYER
  5
50
100
AcDbSymbolTableRecord
100
AcDbLayerTableRecord
  2
0
 70
0
  6
CONTINUOUS
  0
LAYER
  5
51
100
AcDbSymbolTableRecord
100
AcDbLayerTableRecord
  2
Layer_1
 70
0
  6
CONTINUOUS
  0
LAYER
  5
52
100
AcDbSymbolTableRecord
100
AcDbLayerTableRecord
  2
raster
 70
0
  6
CONTINUOUS
  0
LAYER
  5
53
100
AcDbSymbolTableRecord
100
AcDbLayerTableRecord
  2
barrel_solar
 70
0
  6
CONTINUOUS
  0
ENDTAB
  0
TABLE
  2
STYLE
  5
3
330
0
100
AcDbSymbolTable
 70
     1
  0
STYLE
  5
11
330
3
100
AcDbSymbolTableRecord
100
AcDbTextStyleTableRecord
  2
STANDARD
 70
     0
 40
0.0
 41
1.0
 50
0.0
 71
     0
 42
2.5
  3
txt
  4

  0
ENDTAB
  0
TABLE
  2
VIEW
  5
6
330
0
100
AcDbSymbolTable
 70
     0
  0
ENDTAB
  0
TABLE
  2
UCS
  5
7
330
0
100
AcDbSymbolTable
 70
     0
  0
ENDTAB
  0
TABLE
  2
APPID
  5
9
330
0
100
AcDbSymbolTable
 70
     2
  0
APPID
  5
12
330
9
100
AcDbSymbolTableRecord
100
AcDbRegAppTableRecord
  2
ACAD
 70
     0
  0
ENDTAB
  0
TABLE
  2
DIMSTYLE
  5
A
330
0
100
AcDbSymbolTable
 70
     1
  0
DIMSTYLE
105
27
330
A
100
AcDbSymbolTableRecord
100
AcDbDimStyleTableRecord
  2
ISO-25
 70
     0
  3

  4

  5

  6

  7

 40
1.0
 41
2.5
 42
0.625
 43
3.75
 44
1.25
 45
0.0
 46
0.0
 47
0.0
 48
0.0
140
2.5
141
2.5
142
0.0
143
0.03937007874016
144
1.0
145
0.0
146
1.0
147
0.625
 71
     0
 72
     0
 73
     0
 74
     0
 75
     0
 76
     0
 77
     1
 78
     8
170
     0
171
     3
172
     1
173
     0
174
     0
175
     0
176
     0
177
     0
178
     0
270
     2
271
     2
272
     2
273
     2
274
     3
340
11
275
     0
280
     0
281
     0
282
     0
283
     0
284
     8
285
     0
286
     0
287
     3
288
     0
  0
ENDTAB
  0
TABLE
  2
BLOCK_RECORD
  5
1
330
0
100
AcDbSymbolTable
 70
     1
  0
BLOCK_RECORD
  5
1F
330
1
100
AcDbSymbolTableRecord
100
AcDbBlockTableRecord
  2
*MODEL_SPACE
  0
BLOCK_RECORD
  5
1B
330
1
100
AcDbSymbolTableRecord
100
AcDbBlockTableRecord
  2
*PAPER_SPACE
  0
ENDTAB
  0
ENDSEC
  0
SECTION
  2
BLOCKS
  0
BLOCK
  5
20
330
1F
100
AcDbEntity
  8
0
100
AcDbBlockBegin
  2
*MODEL_SPACE
 70
     0
 10
0.0
 20
0.0
 30
0.0
  3
*MODEL_SPACE
  1

  0
ENDBLK
  5
21
330
1F
100
AcDbEntity
  8
0
100
AcDbBlockEnd
  0
BLOCK
  5
1C
330
1B
100
AcDbEntity
 67
     1
  8
0
100
AcDbBlockBegin
  2
*PAPER_SPACE
  1

  0
ENDBLK
  5
1D
330
1B
100
AcDbEntity
 67
     1
  8
0
100
AcDbBlockEnd
  0
ENDSEC
  0
SECTION
  2
ENTITIES
  0
LWPOLYLINE
  5
100
100
AcDbEntity
  8
Layer_1
 62
7
100
AcDbPolyline
 90
4
 70
0
 10
10.055764
 20
197.136740
 30
0.0
 10
14.900174
 20
197.136740
 30
0.0
 10
17.387844
 20
204.206959
 30
0.0
 10
26.683874
 20
203.814170
 30
0.0
  0
LWPOLYLINE
  5
101
100
AcDbEntity
  8
Layer_1
 62
7
100
AcDbPolyline
 90
4
 70
0
 10
29.433394
 20
204.206959
 30
0.0
 10
50.382184
 20
203.814170
 30
0.0
 10
55.357514
 20
197.267670
 30
0.0
 10
59.547274
 20
197.267670
 30
0.0
  0
LWPOLYLINE
  5
102
100
AcDbEntity
  8
Layer_1
 62
7
100
AcDbPolyline
 90
4
 70
0
 10
9.680661
 20
77.452220
 30
0.0
 10
14.525070
 20
77.452220
 30
0.0
 10
17.012740
 20
70.382000
 30
0.0
 10
26.308770
 20
70.774790
 30
0.0
  0
LWPOLYLINE
  5
103
100
AcDbEntity
  8
Layer_1
 62
7
100
AcDbPolyline
 90
4
 70
0
 10
29.058290
 20
70.382000
 30
0.0
 10
50.007080
 20
70.774790
 30
0.0
 10
54.982410
 20
77.321290
 30
0.0
 10
59.172170
 20
77.321290
 30
0.0
  0
LWPOLYLINE
  5
104
100
AcDbEntity
  8
Layer_1
 62
7
100
AcDbPolyline
 90
4
 70
0
 10
203.077421
 20
137.138920
 30
0.0
 10
198.233011
 20
137.138920
 30
0.0
 10
195.745341
 20
130.068700
 30
0.0
 10
186.449311
 20
130.461490
 30
0.0
  0
LWPOLYLINE
  5
105
100
AcDbEntity
  8
Layer_1
 62
7
100
AcDbPolyline
 90
4
 70
0
 10
183.699791
 20
130.068700
 30
0.0
 10
162.751001
 20
130.461490
 30
0.0
 10
157.775671
 20
137.007990
 30
0.0
 10
153.585911
 20
137.007990
 30
0.0
  0
LWPOLYLINE
  5
106
100
AcDbEntity
  8
Layer_1
 62
7
100
AcDbPolyline
 90
2
 70
0
 10
14.930577
 20
196.951580
 30
0.0
 10
34.995988
 20
196.951580
 30
0.0
  0
LWPOLYLINE
  5
107
100
AcDbEntity
  8
Layer_1
 62
7
100
AcDbPolyline
 90
2
 70
0
 10
55.373784
 20
196.915040
 30
0.0
 10
59.719154
 20
196.915040
 30
0.0
  0
LWPOLYLINE
  5
108
100
AcDbEntity
  8
Layer_1
 62
1
100
AcDbPolyline
 90
6
 70
1
 10
9.999614
 20
197.164590
 30
0.0
 10
10.000124
 20
197.165120
 30
0.0
 10
10.000492
 20
197.164965
 30
0.0
 10
10.000644
 20
197.164590
 30
0.0
 10
10.000124
 20
197.164070
 30
0.0
 10
9.999614
 20
197.164590
 30
0.0
  0
LWPOLYLINE
  5
109
100
AcDbEntity
  8
Layer_1
 62
1
100
AcDbPolyline
 90
2
 70
0
 10
55.014697
 20
196.964630
 30
0.0
 10
34.910702
 20
196.964630
 30
0.0
  0
LWPOLYLINE
  5
10a
100
AcDbEntity
  8
Layer_1
 62
7
100
AcDbPolyline
 90
2
 70
0
 10
55.237854
 20
77.551990
 30
0.0
 10
35.172443
 20
77.551990
 30
0.0
  0
LWPOLYLINE
  5
10b
100
AcDbEntity
  8
Layer_1
 62
1
100
AcDbPolyline
 90
6
 70
1
 10
60.168817
 20
77.765000
 30
0.0
 10
60.168307
 20
77.765530
 30
0.0
 10
60.167939
 20
77.765375
 30
0.0
 10
60.167787
 20
77.765000
 30
0.0
 10
60.168307
 20
77.764480
 30
0.0
 10
60.168817
 20
77.765000
 30
0.0
  0
LWPOLYLINE
  5
10c
100
AcDbEntity
  8
Layer_1
 62
1
100
AcDbPolyline
 90
2
 70
0
 10
15.153734
 20
77.565040
 30
0.0
 10
35.257729
 20
77.565040
 30
0.0
  0
LWPOLYLINE
  5
10d
100
AcDbEntity
  8
Layer_1
 62
7
100
AcDbPolyline
 90
2
 70
0
 10
197.940100
 20
137.166880
 30
0.0
 10
177.874690
 20
137.166880
 30
0.0
  0
LWPOLYLINE
  5
10e
100
AcDbEntity
  8
Layer_1
 62
1
100
AcDbPolyline
 90
6
 70
1
 10
202.871070
 20
137.379890
 30
0.0
 10
202.870560
 20
137.380420
 30
0.0
 10
202.870192
 20
137.380265
 30
0.0
 10
202.870040
 20
137.379890
 30
0.0
 10
202.870560
 20
137.379370
 30
0.0
 10
202.871070
 20
137.379890
 30
0.0
  0
LWPOLYLINE
  5
10f
100
AcDbEntity
  8
Layer_1
 62
1
100
AcDbPolyline
 90
2
 70
0
 10
157.855980
 20
137.179930
 30
0.0
 10
177.959980
 20
137.179930
 30
0.0
  0
LWPOLYLINE
  5
110
100
AcDbEntity
  8
Layer_1
 62
7
100
AcDbPolyline
 90
2
 70
0
 10
178.629660
 20
257.083610
 30
0.0
 10
158.564250
 20
257.083610
 30
0.0
  0
LWPOLYLINE
  5
111
100
AcDbEntity
  8
Layer_1
 62
1
100
AcDbPolyline
 90
6
 70
1
 10
206.983510
 20
257.165690
 30
0.0
 10
206.983000
 20
257.166220
 30
0.0
 10
206.982632
 20
257.166065
 30
0.0
 10
206.982480
 20
257.165690
 30
0.0
 10
206.983000
 20
257.165170
 30
0.0
 10
206.983510
 20
257.165690
 30
0.0
  0
LWPOLYLINE
  5
112
100
AcDbEntity
  8
Layer_1
 62
1
100
AcDbPolyline
 90
2
 70
0
 10
198.648370
 20
257.096660
 30
0.0
 10
178.544380
 20
257.096660
 30
0.0
  0
LWPOLYLINE
  5
113
100
AcDbEntity
  8
Layer_1
 62
7
100
AcDbPolyline
 90
2
 70
0
 10
34.985434
 20
203.920430
 30
0.0
 10
29.475224
 20
203.987630
 30
0.0
  0
LWPOLYLINE
  5
114
100
AcDbEntity
  8
Layer_1
 62
7
100
AcDbPolyline
 90
4
 70
0
 10
153.454600
 20
257.199639
 30
0.0
 10
158.299010
 20
257.199639
 30
0.0
 10
160.786670
 20
264.269854
 30
0.0
 10
170.082700
 20
263.877064
 30
0.0
  0
LWPOLYLINE
  5
115
100
AcDbEntity
  8
Layer_1
 62
7
100
AcDbPolyline
 90
4
 70
0
 10
172.832230
 20
264.269854
 30
0.0
 10
193.781020
 20
263.877064
 30
0.0
 10
198.756350
 20
257.330568
 30
0.0
 10
202.946110
 20
257.330568
 30
0.0
  0
LWPOLYLINE
  5
116
100
AcDbEntity
  8
Layer_1
 62
7
100
AcDbPolyline
 90
2
 70
0
 10
178.384270
 20
263.983328
 30
0.0
 10
172.874060
 20
264.050568
 30
0.0
  0
LWPOLYLINE
  5
117
100
AcDbEntity
  8
Layer_1
 62
7
100
AcDbPolyline
 90
3
 70
0
 10
97.128583
 20
121.458250
 30
0.0
 10
66.418906
 20
141.232700
 30
0.0
 10
59.440631
 20
137.309350
 30
0.0
  0
LWPOLYLINE
  5
118
100
AcDbEntity
  8
Layer_1
 62
7
100
AcDbPolyline
 90
2
 70
0
 10
66.418906
 20
141.232650
 30
0.0
 10
90.309334
 20
156.679050
 30
0.0
  0
LWPOLYLINE
  5
119
100
AcDbEntity
  8
Layer_1
 62
1
100
AcDbPolyline
 90
2
 70
0
 10
9.608769
 20
137.309300
 30
0.0
 10
59.308257
 20
137.309300
 30
0.0
  0
LWPOLYLINE
  5
11a
100
AcDbEntity
  8
Layer_1
 62
1
100
AcDbPolyline
 90
2
 70
0
 10
59.179759
 20
197.356047
 30
0.0
 10
59.179759
 20
77.113610
 30
0.0
  0
LWPOLYLINE
  5
11b
100
AcDbEntity
  8
Layer_1
 62
1
100
AcDbPolyline
 90
2
 70
0
 10
106.439860
 20
177.749550
 30
0.0
 10
106.439860
 20
156.228280
 30
0.0
  0
LWPOLYLINE
  5
11c
100
AcDbEntity
  8
Layer_1
 62
1
100
AcDbPolyline
 90
2
 70
0
 10
97.081650
 20
113.834050
 30
0.0
 10
59.308257
 20
137.309300
 30
0.0
  0
LWPOLYLINE
  5
11d
100
AcDbEntity
  8
Layer_1
 62
1
100
AcDbPolyline
 90
2
 70
0
 10
59.179759
 20
77.113610
 30
0.0
 10
97.081602
 20
101.402060
 30
0.0
  0
LWPOLYLINE
  5
11e
100
AcDbEntity
  8
Layer_1
 62
7
100
AcDbPolyline
 90
2
 70
0
 10
126.937020
 20
153.854760
 30
0.0
 10
122.176490
 20
156.876070
 30
0.0
  0
LWPOLYLINE
  5
11f
100
AcDbEntity
  8
Layer_1
 62
7
100
AcDbPolyline
 90
2
 70
0
 10
153.311380
 20
137.116060
 30
0.0
 10
135.192310
 20
148.615500
 30
0.0
  0
LWPOLYLINE
  5
120
100
AcDbEntity
  8
Layer_1
 62
7
100
AcDbPolyline
 90
3
 70
0
 10
115.607180
 20
212.857574
 30
0.0
 10
146.209740
 20
193.152110
 30
0.0
 10
153.188010
 20
197.075457
 30
0.0
  0
LWPOLYLINE
  5
121
100
AcDbEntity
  8
Layer_1
 62
7
100
AcDbPolyline
 90
2
 70
0
 10
123.573860
 20
245.659651
 30
0.0
 10
115.571750
 20
240.506962
 30
0.0
  0
LWPOLYLINE
  5
122
100
AcDbEntity
  8
Layer_1
 62
7
100
AcDbPolyline
 90
6
 70
0
 10
170.021760
 20
264.064578
 30
0.0
 10
160.733270
 20
264.154828
 30
0.0
 10
158.456390
 20
256.977935
 30
0.0
 10
153.188010
 20
257.266095
 30
0.0
 10
147.026600
 20
260.761240
 30
0.0
 10
130.774090
 20
250.295989
 30
0.0
  0
LWPOLYLINE
  5
123
100
AcDbEntity
  8
Layer_1
 62
7
100
AcDbPolyline
 90
6
 70
0
 10
203.019860
 20
137.191290
 30
0.0
 10
203.019860
 20
197.075467
 30
0.0
 10
203.019860
 20
257.266097
 30
0.0
 10
198.772610
 20
256.977937
 30
0.0
 10
193.626050
 20
263.835226
 30
0.0
 10
178.384270
 20
263.983324
 30
0.0
  0
LWPOLYLINE
  5
124
100
AcDbEntity
  8
Layer_1
 62
7
100
AcDbPolyline
 90
2
 70
0
 10
146.209740
 20
193.152150
 30
0.0
 10
122.088680
 20
177.556640
 30
0.0
  0
LWPOLYLINE
  5
125
100
AcDbEntity
  8
Layer_1
 62
7
100
AcDbPolyline
 90
2
 70
0
 10
189.212510
 20
198.243744
 30
0.0
 10
188.063520
 20
196.902440
 30
0.0
  0
LWPOLYLINE
  5
126
100
AcDbEntity
  8
Layer_1
 62
1
100
AcDbPolyline
 90
2
 70
0
 10
187.950170
 20
197.075497
 30
0.0
 10
153.320390
 20
197.075497
 30
0.0
  0
LWPOLYLINE
  5
127
100
AcDbEntity
  8
Layer_1
 62
1
100
AcDbPolyline
 90
2
 70
0
 10
153.448890
 20
137.028750
 30
0.0
 10
153.448890
 20
257.271185
 30
0.0
  0
LWPOLYLINE
  5
128
100
AcDbEntity
  8
Layer_1
 62
1
100
AcDbPolyline
 90
2
 70
0
 10
115.643210
 20
220.490950
 30
0.0
 10
153.320390
 20
197.075497
 30
0.0
  0
LWPOLYLINE
  5
129
100
AcDbEntity
  8
Layer_1
 62
1
100
AcDbPolyline
 90
2
 70
0
 10
153.448890
 20
257.271185
 30
0.0
 10
115.607450
 20
233.021451
 30
0.0
  0
LWPOLYLINE
  5
12a
100
AcDbEntity
  8
Layer_1
 62
7
100
AcDbPolyline
 90
2
 70
0
 10
86.802980
 20
87.275200
 30
0.0
 10
97.124882
 20
93.921640
 30
0.0
  0
LWPOLYLINE
  5
12b
100
AcDbEntity
  8
Layer_1
 62
7
100
AcDbPolyline
 90
4
 70
0
 10
59.101630
 20
77.137250
 30
0.0
 10
59.440631
 20
77.118750
 30
0.0
 10
65.602023
 20
73.623610
 30
0.0
 10
79.694498
 20
82.697980
 30
0.0
  0
LWPOLYLINE
  5
12c
100
AcDbEntity
  8
Layer_1
 62
7
100
AcDbPolyline
 90
3
 70
0
 10
9.608769
 20
196.876280
 30
0.0
 10
9.608769
 20
137.309380
 30
0.0
 10
9.608769
 20
77.559030
 30
0.0
  0
LWPOLYLINE
  5
12d
100
AcDbEntity
  8
Layer_1
 62
7
100
AcDbPolyline
 90
3
 70
0
 10
97.018473
 20
121.613650
 30
0.0
 10
97.018473
 20
107.783530
 30
0.0
 10
97.018473
 20
93.910820
 30
0.0
  0
LWPOLYLINE
  5
12e
100
AcDbEntity
  8
Layer_1
 62
7
100
AcDbPolyline
 90
3
 70
0
 10
115.548180
 20
240.543564
 30
0.0
 10
115.548180
 20
226.713444
 30
0.0
 10
115.548180
 20
212.840732
 30
0.0
  0
LWPOLYLINE
  5
12f
100
AcDbEntity
  8
Layer_1
 62
7
100
AcDbPolyline
 90
2
 70
0
 10
83.289441
 20
182.054610
 30
0.0
 10
90.792849
 20
177.292500
 30
0.0
  0
LWPOLYLINE
  5
130
100
AcDbEntity
  8
Layer_1
 62
7
100
AcDbPolyline
 90
2
 70
0
 10
59.554390
 20
197.118337
 30
0.0
 10
77.593920
 20
185.669370
 30
0.0
  0
LWPOLYLINE
  5
131
100
AcDbEntity
  8
Layer_1
 62
7
100
AcDbPolyline
 90
3
 70
0
 10
9.713617
 20
174.070180
 30
0.0
 10
29.295242
 20
174.070180
 30
0.0
 10
29.295242
 20
163.493720
 30
0.0
  0
LWPOLYLINE
  5
132
100
AcDbEntity
  8
Layer_1
 62
1
100
AcDbPolyline
 90
2
 70
0
 10
29.295242
 20
163.493720
 30
0.0
 10
9.713617
 20
163.493720
 30
0.0
  0
LWPOLYLINE
  5
133
100
AcDbEntity
  8
Layer_1
 62
7
100
AcDbPolyline
 90
2
 70
0
 10
77.593919
 20
185.669370
 30
0.0
 10
80.938115
 20
183.499830
 30
0.0
  0
LWPOLYLINE
  5
134
100
AcDbEntity
  8
Layer_1
 62
7
100
AcDbPolyline
 90
2
 70
0
 10
86.802978
 20
87.275200
 30
0.0
 10
82.103068
 20
84.129270
 30
0.0
  0
LWPOLYLINE
  5
135
100
AcDbEntity
  8
Layer_1
 62
7
100
AcDbPolyline
 90
2
 70
0
 10
126.937020
 20
153.854760
 30
0.0
 10
131.941490
 20
150.484380
 30
0.0
  0
LWPOLYLINE
  5
136
100
AcDbEntity
  8
Layer_1
 62
7
100
AcDbPolyline
 90
2
 70
0
 10
130.774090
 20
250.295990
 30
0.0
 10
125.898710
 20
246.894145
 30
0.0
  0
LWPOLYLINE
  5
137
100
AcDbEntity
  8
Layer_1
 62
1
100
AcDbPolyline
 90
2
 70
0
 10
161.831548
 20
161.767560
 30
0.0
 10
183.807026
 20
161.767560
 30
0.0
  0
SPLINE
  5
138
100
AcDbEntity
  8
Layer_1
 62
1
100
AcDbSpline
 70
0
 71
3
 72
13
 73
9
 74
7
 40
0.000000
 40
0.000000
 40
0.000000
 40
0.000000
 40
0.039606
 40
0.078884
 40
0.118490
 40
0.158097
 40
0.197375
 40
0.236981
 40
0.236981
 40
0.236981
 40
0.236981
 10
183.807026
 20
161.767560
 30
0.0
 10
183.820266
 20
161.766551
 30
0.0
 10
183.846638
 20
161.764543
 30
0.0
 10
183.883531
 20
161.748668
 30
0.0
 10
183.915279
 20
161.724515
 30
0.0
 10
183.939432
 20
161.692767
 30
0.0
 10
183.955307
 20
161.655874
 30
0.0
 10
183.957315
 20
161.629502
 30
0.0
 10
183.958324
 20
161.616262
 30
0.0
 11
183.807026
 21
161.767560
 31
0.0
 11
183.846291
 21
161.762376
 31
0.0
 11
183.882580
 21
161.747345
 31
0.0
 11
183.914010
 21
161.723246
 31
0.0
 11
183.938109
 21
161.691816
 31
0.0
 11
183.953140
 21
161.655527
 31
0.0
 11
183.958324
 21
161.616262
 31
0.0
  0
LWPOLYLINE
  5
139
100
AcDbEntity
  8
Layer_1
 62
1
100
AcDbPolyline
 90
2
 70
0
 10
183.958324
 20
161.616262
 30
0.0
 10
183.958324
 20
148.991546
 30
0.0
  0
SPLINE
  5
13a
100
AcDbEntity
  8
Layer_1
 62
1
100
AcDbSpline
 70
0
 71
3
 72
13
 73
9
 74
7
 40
0.000000
 40
0.000000
 40
0.000000
 40
0.000000
 40
0.039606
 40
0.078884
 40
0.118490
 40
0.158097
 40
0.197375
 40
0.236981
 40
0.236981
 40
0.236981
 40
0.236981
 10
183.958324
 20
148.991546
 30
0.0
 10
183.957315
 20
148.978306
 30
0.0
 10
183.955307
 20
148.951934
 30
0.0
 10
183.939432
 20
148.915041
 30
0.0
 10
183.915279
 20
148.883293
 30
0.0
 10
183.883531
 20
148.859140
 30
0.0
 10
183.846638
 20
148.843265
 30
0.0
 10
183.820266
 20
148.841257
 30
0.0
 10
183.807026
 20
148.840248
 30
0.0
 11
183.958324
 21
148.991546
 31
0.0
 11
183.953140
 21
148.952281
 31
0.0
 11
183.938109
 21
148.915992
 31
0.0
 11
183.914010
 21
148.884562
 31
0.0
 11
183.882580
 21
148.860463
 31
0.0
 11
183.846291
 21
148.845432
 31
0.0
 11
183.807026
 21
148.840248
 31
0.0
  0
LWPOLYLINE
  5
13b
100
AcDbEntity
  8
Layer_1
 62
1
100
AcDbPolyline
 90
2
 70
0
 10
183.807026
 20
148.840248
 30
0.0
 10
161.831548
 20
148.840248
 30
0.0
  0
SPLINE
  5
13c
100
AcDbEntity
  8
Layer_1
 62
1
100
AcDbSpline
 70
0
 71
3
 72
13
 73
9
 74
7
 40
0.000000
 40
0.000000
 40
0.000000
 40
0.000000
 40
0.039606
 40
0.078884
 40
0.118490
 40
0.158097
 40
0.197375
 40
0.236981
 40
0.236981
 40
0.236981
 40
0.236981
 10
161.831548
 20
148.840248
 30
0.0
 10
161.818308
 20
148.841257
 30
0.0
 10
161.791936
 20
148.843265
 30
0.0
 10
161.755043
 20
148.859140
 30
0.0
 10
161.723295
 20
148.883293
 30
0.0
 10
161.699142
 20
148.915041
 30
0.0
 10
161.683267
 20
148.951934
 30
0.0
 10
161.681259
 20
148.978306
 30
0.0
 10
161.680250
 20
148.991546
 30
0.0
 11
161.831548
 21
148.840248
 31
0.0
 11
161.792283
 21
148.845432
 31
0.0
 11
161.755994
 21
148.860463
 31
0.0
 11
161.724564
 21
148.884562
 31
0.0
 11
161.700465
 21
148.915992
 31
0.0
 11
161.685434
 21
148.952281
 31
0.0
 11
161.680250
 21
148.991546
 31
0.0
  0
LWPOLYLINE
  5
13d
100
AcDbEntity
  8
Layer_1
 62
1
100
AcDbPolyline
 90
2
 70
0
 10
161.680250
 20
148.991546
 30
0.0
 10
161.680250
 20
161.616262
 30
0.0
  0
LWPOLYLINE
  5
13e
100
AcDbEntity
  8
Layer_1
 62
1
100
AcDbPolyline
 90
1
 70
1
 10
161.831548
 20
161.767560
 30
0.0
  0
LWPOLYLINE
  5
13f
100
AcDbEntity
  8
Layer_1
 62
7
100
AcDbPolyline
 90
4
 70
1
 10
162.553730
 20
156.404800
 30
0.0
 10
171.623840
 20
156.245670
 30
0.0
 10
171.623840
 20
161.019420
 30
0.0
 10
162.553730
 20
161.019420
 30
0.0
  0
LWPOLYLINE
  5
140
100
AcDbEntity
  8
Layer_1
 62
7
100
AcDbPolyline
 90
4
 70
1
 10
162.642570
 20
149.611110
 30
0.0
 10
171.712680
 20
149.451980
 30
0.0
 10
171.712680
 20
154.225730
 30
0.0
 10
162.642570
 20
154.225730
 30
0.0
  0
LWPOLYLINE
  5
141
100
AcDbEntity
  8
Layer_1
 62
7
100
AcDbPolyline
 90
4
 70
1
 10
173.871310
 20
149.771820
 30
0.0
 10
182.941420
 20
149.611110
 30
0.0
 10
182.941420
 20
154.432400
 30
0.0
 10
173.871310
 20
154.432400
 30
0.0
  0
LWPOLYLINE
  5
142
100
AcDbEntity
  8
Layer_1
 62
7
100
AcDbPolyline
 90
4
 70
1
 10
173.871310
 20
156.414580
 30
0.0
 10
182.941420
 20
156.255450
 30
0.0
 10
182.941420
 20
161.029200
 30
0.0
 10
173.871310
 20
161.029200
 30
0.0
  0
SPLINE
  5
143
100
AcDbEntity
  8
Layer_1
 62
1
100
AcDbSpline
 70
0
 71
3
 72
13
 73
9
 74
7
 40
0.000000
 40
0.000000
 40
0.000000
 40
0.000000
 40
0.039606
 40
0.078884
 40
0.118490
 40
0.158097
 40
0.197375
 40
0.236981
 40
0.236981
 40
0.236981
 40
0.236981
 10
161.680250
 20
161.616262
 30
0.0
 10
161.681259
 20
161.629502
 30
0.0
 10
161.683267
 20
161.655874
 30
0.0
 10
161.699142
 20
161.692767
 30
0.0
 10
161.723295
 20
161.724515
 30
0.0
 10
161.755043
 20
161.748668
 30
0.0
 10
161.791936
 20
161.764543
 30
0.0
 10
161.818308
 20
161.766551
 30
0.0
 10
161.831548
 20
161.767560
 30
0.0
 11
161.680250
 21
161.616262
 31
0.0
 11
161.685434
 21
161.655527
 31
0.0
 11
161.700465
 21
161.691816
 31
0.0
 11
161.724564
 21
161.723246
 31
0.0
 11
161.755994
 21
161.747345
 31
0.0
 11
161.792283
 21
161.762376
 31
0.0
 11
161.831548
 21
161.767560
 31
0.0
  0
LWPOLYLINE
  5
144
100
AcDbEntity
  8
Layer_1
 62
1
100
AcDbPolyline
 90
2
 70
0
 10
161.824758
 20
187.017810
 30
0.0
 10
183.800238
 20
187.017810
 30
0.0
  0
SPLINE
  5
145
100
AcDbEntity
  8
Layer_1
 62
1
100
AcDbSpline
 70
0
 71
3
 72
13
 73
9
 74
7
 40
0.000000
 40
0.000000
 40
0.000000
 40
0.000000
 40
0.039606
 40
0.078884
 40
0.118490
 40
0.158097
 40
0.197375
 40
0.236981
 40
0.236981
 40
0.236981
 40
0.236981
 10
183.800238
 20
187.017810
 30
0.0
 10
183.813478
 20
187.016801
 30
0.0
 10
183.839850
 20
187.014793
 30
0.0
 10
183.876743
 20
186.998918
 30
0.0
 10
183.908491
 20
186.974765
 30
0.0
 10
183.932644
 20
186.943017
 30
0.0
 10
183.948519
 20
186.906124
 30
0.0
 10
183.950527
 20
186.879752
 30
0.0
 10
183.951536
 20
186.866512
 30
0.0
 11
183.800238
 21
187.017810
 31
0.0
 11
183.839503
 21
187.012626
 31
0.0
 11
183.875792
 21
186.997595
 31
0.0
 11
183.907222
 21
186.973496
 31
0.0
 11
183.931321
 21
186.942066
 31
0.0
 11
183.946352
 21
186.905777
 31
0.0
 11
183.951536
 21
186.866512
 31
0.0
  0
LWPOLYLINE
  5
146
100
AcDbEntity
  8
Layer_1
 62
1
100
AcDbPolyline
 90
2
 70
0
 10
183.951536
 20
186.866512
 30
0.0
 10
183.951536
 20
174.241796
 30
0.0
  0
SPLINE
  5
147
100
AcDbEntity
  8
Layer_1
 62
1
100
AcDbSpline
 70
0
 71
3
 72
13
 73
9
 74
7
 40
0.000000
 40
0.000000
 40
0.000000
 40
0.000000
 40
0.039606
 40
0.078884
 40
0.118490
 40
0.158097
 40
0.197375
 40
0.236981
 40
0.236981
 40
0.236981
 40
0.236981
 10
183.951536
 20
174.241796
 30
0.0
 10
183.950527
 20
174.228556
 30
0.0
 10
183.948519
 20
174.202184
 30
0.0
 10
183.932644
 20
174.165291
 30
0.0
 10
183.908491
 20
174.133543
 30
0.0
 10
183.876743
 20
174.109390
 30
0.0
 10
183.839850
 20
174.093515
 30
0.0
 10
183.813478
 20
174.091507
 30
0.0
 10
183.800238
 20
174.090498
 30
0.0
 11
183.951536
 21
174.241796
 31
0.0
 11
183.946352
 21
174.202531
 31
0.0
 11
183.931321
 21
174.166242
 31
0.0
 11
183.907222
 21
174.134812
 31
0.0
 11
183.875792
 21
174.110713
 31
0.0
 11
183.839503
 21
174.095682
 31
0.0
 11
183.800238
 21
174.090498
 31
0.0
  0
LWPOLYLINE
  5
148
100
AcDbEntity
  8
Layer_1
 62
1
100
AcDbPolyline
 90
2
 70
0
 10
183.800238
 20
174.090498
 30
0.0
 10
161.824758
 20
174.090498
 30
0.0
  0
SPLINE
  5
149
100
AcDbEntity
  8
Layer_1
 62
1
100
AcDbSpline
 70
0
 71
3
 72
13
 73
9
 74
7
 40
0.000000
 40
0.000000
 40
0.000000
 40
0.000000
 40
0.039606
 40
0.078884
 40
0.118490
 40
0.158097
 40
0.197375
 40
0.236981
 40
0.236981
 40
0.236981
 40
0.236981
 10
161.824758
 20
174.090498
 30
0.0
 10
161.811518
 20
174.091507
 30
0.0
 10
161.785146
 20
174.093515
 30
0.0
 10
161.748253
 20
174.109390
 30
0.0
 10
161.716505
 20
174.133543
 30
0.0
 10
161.692352
 20
174.165291
 30
0.0
 10
161.676477
 20
174.202184
 30
0.0
 10
161.674469
 20
174.228556
 30
0.0
 10
161.673460
 20
174.241796
 30
0.0
 11
161.824758
 21
174.090498
 31
0.0
 11
161.785493
 21
174.095682
 31
0.0
 11
161.749204
 21
174.110713
 31
0.0
 11
161.717774
 21
174.134812
 31
0.0
 11
161.693675
 21
174.166242
 31
0.0
 11
161.678644
 21
174.202531
 31
0.0
 11
161.673460
 21
174.241796
 31
0.0
  0
LWPOLYLINE
  5
14a
100
AcDbEntity
  8
Layer_1
 62
1
100
AcDbPolyline
 90
2
 70
0
 10
161.673460
 20
174.241796
 30
0.0
 10
161.673460
 20
186.866512
 30
0.0
  0
LWPOLYLINE
  5
14b
100
AcDbEntity
  8
Layer_1
 62
1
100
AcDbPolyline
 90
1
 70
1
 10
161.824758
 20
187.017810
 30
0.0
  0
LWPOLYLINE
  5
14c
100
AcDbEntity
  8
Layer_1
 62
7
100
AcDbPolyline
 90
4
 70
1
 10
162.546950
 20
181.655050
 30
0.0
 10
171.617060
 20
181.495920
 30
0.0
 10
171.617060
 20
186.269670
 30
0.0
 10
162.546950
 20
186.269670
 30
0.0
  0
LWPOLYLINE
  5
14d
100
AcDbEntity
  8
Layer_1
 62
7
100
AcDbPolyline
 90
4
 70
1
 10
162.635790
 20
174.861360
 30
0.0
 10
171.705900
 20
174.702230
 30
0.0
 10
171.705900
 20
179.475980
 30
0.0
 10
162.635790
 20
179.475980
 30
0.0
  0
LWPOLYLINE
  5
14e
100
AcDbEntity
  8
Layer_1
 62
7
100
AcDbPolyline
 90
4
 70
1
 10
173.864530
 20
175.022070
 30
0.0
 10
182.934640
 20
174.861360
 30
0.0
 10
182.934640
 20
179.682650
 30
0.0
 10
173.864530
 20
179.682650
 30
0.0
  0
LWPOLYLINE
  5
14f
100
AcDbEntity
  8
Layer_1
 62
7
100
AcDbPolyline
 90
4
 70
1
 10
173.864530
 20
181.664830
 30
0.0
 10
182.934640
 20
181.505700
 30
0.0
 10
182.934640
 20
186.279450
 30
0.0
 10
173.864530
 20
186.279450
 30
0.0
  0
LWPOLYLINE
  5
150
100
AcDbEntity
  8
Layer_1
 62
7
100
AcDbPolyline
 90
2
 70
0
 10
90.064724
 20
177.755620
 30
0.0
 10
122.131150
 20
177.755620
 30
0.0
  0
LWPOLYLINE
  5
151
100
AcDbEntity
  8
Layer_1
 62
7
100
AcDbPolyline
 90
2
 70
0
 10
90.064724
 20
156.496100
 30
0.0
 10
122.131150
 20
156.496100
 30
0.0
  0
LWPOLYLINE
  5
152
100
AcDbEntity
  8
Layer_1
 62
7
100
AcDbPolyline
 90
4
 70
0
 10
66.095937
 20
149.674640
 30
0.0
 10
66.241125
 20
148.893440
 30
0.0
 10
69.689327
 20
149.073720
 30
0.0
 10
69.761927
 20
149.674640
 30
0.0
  0
LWPOLYLINE
  5
153
100
AcDbEntity
  8
Layer_1
 62
7
100
AcDbPolyline
 90
4
 70
0
 10
65.949511
 20
185.668090
 30
0.0
 10
66.240032
 20
185.105310
 30
0.0
 10
69.508391
 20
185.105310
 30
0.0
 10
69.726282
 20
185.611800
 30
0.0
  0
LWPOLYLINE
  5
154
100
AcDbEntity
  8
Layer_1
 62
7
100
AcDbPolyline
 90
2
 70
0
 10
203.000520
 20
197.099553
 30
0.0
 10
188.001010
 20
197.156023
 30
0.0
  0
LWPOLYLINE
  5
155
100
AcDbEntity
  8
Layer_1
 62
7
100
AcDbPolyline
 90
2
 70
0
 10
203.148660
 20
197.632997
 30
0.0
 10
188.437460
 20
197.689497
 30
0.0
  0
LWPOLYLINE
  5
156
100
AcDbEntity
  8
Layer_1
 62
7
100
AcDbPolyline
 90
8
 70
0
 10
169.368530
 20
45.820060
 30
0.0
 10
172.027600
 20
45.820060
 30
0.0
 10
172.027600
 20
38.273630
 30
0.0
 10
175.110400
 20
38.273630
 30
0.0
 10
175.110400
 20
34.582770
 30
0.0
 10
172.394480
 20
34.582770
 30
0.0
 10
172.394480
 20
26.643940
 30
0.0
 10
169.260740
 20
26.643940
 30
0.0
  0
LWPOLYLINE
  5
157
100
AcDbEntity
  8
Layer_1
 62
7
100
AcDbPolyline
 90
8
 70
0
 10
133.023380
 20
45.842160
 30
0.0
 10
130.364310
 20
45.842160
 30
0.0
 10
130.364310
 20
38.295730
 30
0.0
 10
127.281510
 20
38.295730
 30
0.0
 10
127.281510
 20
34.604870
 30
0.0
 10
129.997430
 20
34.604870
 30
0.0
 10
129.997430
 20
26.666040
 30
0.0
 10
133.131170
 20
26.666040
 30
0.0
  0
LWPOLYLINE
  5
158
100
AcDbEntity
  8
Layer_1
 62
7
100
AcDbPolyline
 90
3
 70
0
 10
154.178360
 20
48.090650
 30
0.0
 10
169.360990
 20
48.090650
 30
0.0
 10
169.360990
 20
45.715480
 30
0.0
  0
LWPOLYLINE
  5
159
100
AcDbEntity
  8
Layer_1
 62
7
100
AcDbPolyline
 90
3
 70
0
 10
133.052490
 20
45.672340
 30
0.0
 10
133.052490
 20
48.085200
 30
0.0
 10
148.977660
 20
48.085200
 30
0.0
  0
LWPOLYLINE
  5
15a
100
AcDbEntity
  8
Layer_1
 62
7
100
AcDbPolyline
 90
3
 70
0
 10
153.075900
 20
24.563920
 30
0.0
 10
169.284810
 20
24.563930
 30
0.0
 10
169.284810
 20
26.937480
 30
0.0
  0
LWPOLYLINE
  5
15b
100
AcDbEntity
  8
Layer_1
 62
7
100
AcDbPolyline
 90
6
 70
0
 10
141.190810
 20
56.155810
 30
0.0
 10
117.550980
 20
56.155810
 30
0.0
 10
113.136480
 20
60.570320
 30
0.0
 10
113.136480
 20
80.304060
 30
0.0
 10
117.390190
 20
84.557790
 30
0.0
 10
141.748040
 20
84.563790
 30
0.0
  0
LWPOLYLINE
  5
15c
100
AcDbEntity
  8
Layer_1
 62
7
100
AcDbPolyline
 90
3
 70
0
 10
175.911840
 20
56.248640
 30
0.0
 10
175.911840
 20
56.155740
 30
0.0
 10
146.449190
 20
56.155740
 30
0.0
  0
LWPOLYLINE
  5
15d
100
AcDbEntity
  8
Layer_1
 62
7
100
AcDbPolyline
 90
4
 70
0
 10
146.661200
 20
84.565280
 30
0.0
 10
175.962880
 20
84.572280
 30
0.0
 10
175.962880
 20
84.572280
 30
0.0
 10
175.962880
 20
84.493080
 30
0.0
  0
LWPOLYLINE
  5
15e
100
AcDbEntity
  8
Layer_1
 62
7
100
AcDbPolyline
 90
2
 70
0
 10
175.992330
 20
84.534460
 30
0.0
 10
185.566550
 20
81.162930
 30
0.0
  0
LWPOLYLINE
  5
15f
100
AcDbEntity
  8
Layer_1
 62
7
100
AcDbPolyline
 90
3
 70
0
 10
175.862270
 20
56.157120
 30
0.0
 10
185.721390
 20
59.548030
 30
0.0
 10
185.721390
 20
81.321280
 30
0.0
  0
LWPOLYLINE
  5
160
100
AcDbEntity
  8
Layer_1
 62
7
100
AcDbPolyline
 90
2
 70
0
 10
117.571960
 20
70.848510
 30
0.0
 10
117.515460
 20
56.137310
 30
0.0
  0
LWPOLYLINE
  5
161
100
AcDbEntity
  8
Layer_1
 62
7
100
AcDbPolyline
 90
2
 70
0
 10
176.101810
 20
84.399360
 30
0.0
 10
176.045210
 20
70.671280
 30
0.0
  0
SPLINE
  5
162
100
AcDbEntity
  8
Layer_1
 62
1
100
AcDbSpline
 70
0
 71
3
 72
13
 73
9
 74
7
 40
0.000000
 40
0.000000
 40
0.000000
 40
0.000000
 40
0.039606
 40
0.078884
 40
0.118490
 40
0.158097
 40
0.197375
 40
0.236981
 40
0.236981
 40
0.236981
 40
0.236981
 10
161.673460
 20
186.866512
 30
0.0
 10
161.674469
 20
186.879752
 30
0.0
 10
161.676477
 20
186.906124
 30
0.0
 10
161.692352
 20
186.943017
 30
0.0
 10
161.716505
 20
186.974765
 30
0.0
 10
161.748253
 20
186.998918
 30
0.0
 10
161.785146
 20
187.014793
 30
0.0
 10
161.811518
 20
187.016801
 30
0.0
 10
161.824758
 20
187.017810
 30
0.0
 11
161.673460
 21
186.866512
 31
0.0
 11
161.678644
 21
186.905777
 31
0.0
 11
161.693675
 21
186.942066
 31
0.0
 11
161.717774
 21
186.973496
 31
0.0
 11
161.749204
 21
186.997595
 31
0.0
 11
161.785493
 21
187.012626
 31
0.0
 11
161.824758
 21
187.017810
 31
0.0
  0
LWPOLYLINE
  5
163
100
AcDbEntity
  8
Layer_1
 62
7
100
AcDbPolyline
 90
2
 70
0
 10
176.690190
 20
84.513330
 30
0.0
 10
176.633590
 20
70.785250
 30
0.0
  0
SPLINE
  5
164
100
AcDbEntity
  8
Layer_1
 62
7
100
AcDbSpline
 70
0
 71
3
 72
13
 73
9
 74
7
 40
0.000000
 40
0.000000
 40
0.000000
 40
0.000000
 40
2.875092
 40
5.717987
 40
8.593079
 40
12.704494
 40
16.726419
 40
20.837833
 40
20.837833
 40
20.837833
 40
20.837833
 10
150.045170
 20
101.184370
 30
0.0
 10
150.758315
 20
100.532741
 30
0.0
 10
152.176618
 20
99.236780
 30
0.0
 10
153.436451
 20
96.590593
 30
0.0
 10
153.958814
 20
93.312241
 30
0.0
 10
153.120723
 20
89.627854
 30
0.0
 10
150.572832
 20
86.199658
 30
0.0
 10
148.017416
 20
85.167664
 30
0.0
 10
146.725650
 20
84.645990
 30
0.0
 11
150.045170
 21
101.184370
 31
0.0
 11
152.037970
 21
99.111955
 31
0.0
 11
153.299620
 21
96.564350
 31
0.0
 11
153.740160
 21
93.723210
 31
0.0
 11
152.839678
 21
89.711619
 31
0.0
 11
150.380418
 21
86.529180
 31
0.0
 11
146.725650
 21
84.645990
 31
0.0
  0
SPLINE
  5
165
100
AcDbEntity
  8
Layer_1
 62
7
100
AcDbSpline
 70
0
 71
3
 72
13
 73
9
 74
7
 40
0.000000
 40
0.000000
 40
0.000000
 40
0.000000
 40
4.097407
 40
8.106176
 40
12.203583
 40
16.591278
 40
20.871727
 40
25.259422
 40
25.259422
 40
25.259422
 40
25.259422
 10
141.952860
 20
84.656710
 30
0.0
 10
140.667738
 20
85.181667
 30
0.0
 10
138.125295
 20
86.220225
 30
0.0
 10
135.594522
 20
89.642690
 30
0.0
 10
134.645871
 20
93.819451
 30
0.0
 10
135.684557
 20
98.092218
 30
0.0
 10
138.576494
 20
101.646772
 30
0.0
 10
141.385334
 20
102.528189
 30
0.0
 10
142.807130
 20
102.974350
 30
0.0
 11
141.952860
 21
84.656710
 31
0.0
 11
138.317576
 21
86.547069
 31
0.0
 11
135.873499
 21
89.724602
 31
0.0
 11
134.979140
 21
93.723210
 31
0.0
 11
136.004531
 21
97.989408
 31
0.0
 11
138.769474
 21
101.257025
 31
0.0
 11
142.807130
 21
102.974350
 31
0.0
  0
SPLINE
  5
166
100
AcDbEntity
  8
Layer_1
 62
1
100
AcDbSpline
 70
0
 71
3
 72
10
 73
6
 74
4
 40
0.000000
 40
0.000000
 40
0.000000
 40
0.000000
 40
0.951596
 40
1.548292
 40
1.754990
 40
1.754990
 40
1.754990
 40
1.754990
 10
117.564230
 20
72.331680
 30
0.0
 10
117.565352
 20
72.014483
 30
0.0
 10
117.567178
 20
71.498389
 30
0.0
 10
117.569149
 20
70.913396
 30
0.0
 10
117.570009
 20
70.645599
 30
0.0
 10
117.570230
 20
70.576700
 30
0.0
 11
117.564230
 21
72.331680
 31
0.0
 11
117.567563
 21
71.380090
 31
0.0
 11
117.569563
 21
70.783397
 31
0.0
 11
117.570230
 21
70.576700
 31
0.0
  0
SPLINE
  5
167
100
AcDbEntity
  8
Layer_1
 62
1
100
AcDbSpline
 70
0
 71
3
 72
10
 73
6
 74
4
 40
0.000000
 40
0.000000
 40
0.000000
 40
0.000000
 40
0.886469
 40
1.724648
 40
2.511373
 40
2.511373
 40
2.511373
 40
2.511373
 10
117.547610
 20
77.357970
 30
0.0
 10
117.548806
 20
77.062483
 30
0.0
 10
117.551133
 20
76.487605
 30
0.0
 10
117.553525
 20
75.650484
 30
0.0
 10
117.554930
 20
75.108851
 30
0.0
 10
117.555610
 20
74.846610
 30
0.0
 11
117.547610
 21
77.357970
 31
0.0
 11
117.551017
 21
76.471508
 31
0.0
 11
117.553536
 21
75.633332
 31
0.0
 11
117.555610
 21
74.846610
 31
0.0
  0
SPLINE
  5
168
100
AcDbEntity
  8
Layer_1
 62
1
100
AcDbSpline
 70
0
 71
3
 72
10
 73
6
 74
4
 40
0.000000
 40
0.000000
 40
0.000000
 40
0.000000
 40
0.857287
 40
1.695525
 40
2.512913
 40
2.512913
 40
2.512913
 40
2.512913
 10
117.530980
 20
82.385330
 30
0.0
 10
117.531765
 20
82.099569
 30
0.0
 10
117.533317
 20
81.534396
 30
0.0
 10
117.536571
 20
80.696764
 30
0.0
 10
117.538184
 20
80.144891
 30
0.0
 10
117.538980
 20
79.872430
 30
0.0
 11
117.530980
 21
82.385330
 31
0.0
 11
117.533499
 21
81.528046
 31
0.0
 11
117.536461
 21
80.689814
 31
0.0
 11
117.538980
 21
79.872430
 31
0.0
  0
SPLINE
  5
169
100
AcDbEntity
  8
Layer_1
 62
1
100
AcDbSpline
 70
0
 71
3
 72
10
 73
6
 74
4
 40
0.000000
 40
0.000000
 40
0.000000
 40
0.000000
 40
0.951603
 40
1.548302
 40
1.755000
 40
1.755000
 40
1.755000
 40
1.755000
 10
175.997820
 20
59.410560
 30
0.0
 10
175.998942
 20
59.093361
 30
0.0
 10
176.000768
 20
58.577264
 30
0.0
 10
176.002739
 20
57.992267
 30
0.0
 10
176.003599
 20
57.724469
 30
0.0
 10
176.003820
 20
57.655570
 30
0.0
 11
175.997820
 21
59.410560
 31
0.0
 11
176.001153
 21
58.458963
 31
0.0
 11
176.003153
 21
57.862267
 31
0.0
 11
176.003820
 21
57.655570
 31
0.0
  0
SPLINE
  5
16a
100
AcDbEntity
  8
Layer_1
 62
1
100
AcDbSpline
 70
0
 71
3
 72
10
 73
6
 74
4
 40
0.000000
 40
0.000000
 40
0.000000
 40
0.000000
 40
0.886476
 40
1.724658
 40
2.511383
 40
2.511383
 40
2.511383
 40
2.511383
 10
175.981200
 20
64.436850
 30
0.0
 10
175.982396
 20
64.141360
 30
0.0
 10
175.984723
 20
63.566479
 30
0.0
 10
175.987115
 20
62.729355
 30
0.0
 10
175.988520
 20
62.187721
 30
0.0
 10
175.989200
 20
61.925480
 30
0.0
 11
175.981200
 21
64.436850
 31
0.0
 11
175.984607
 21
63.550381
 31
0.0
 11
175.987126
 21
62.712203
 31
0.0
 11
175.989200
 21
61.925480
 31
0.0
  0
LWPOLYLINE
  5
16b
100
AcDbEntity
  8
Layer_1
 62
7
100
AcDbPolyline
 90
1
 70
1
 10
153.740160
 20
93.723210
 30
0.0
  0
LWPOLYLINE
  5
16c
100
AcDbEntity
  8
Layer_1
 62
7
100
AcDbPolyline
 90
3
 70
0
 10
132.978630
 20
26.981480
 30
0.0
 10
132.978630
 20
24.568620
 30
0.0
 10
148.119870
 20
24.568610
 30
0.0
  0
LWPOLYLINE
  5
16d
100
AcDbEntity
  8
Layer_1
 62
7
100
AcDbPolyline
 90
2
 70
0
 10
125.842880
 20
38.258820
 30
0.0
 10
125.778780
 20
34.153860
 30
0.0
  0
LWPOLYLINE
  5
16e
100
AcDbEntity
  8
Layer_1
 62
7
100
AcDbPolyline
 90
2
 70
0
 10
69.912711
 20
185.492440
 30
0.0
 10
65.807751
 20
185.556540
 30
0.0
  0
SPLINE
  5
16f
100
AcDbEntity
  8
Layer_1
 62
1
100
AcDbSpline
 70
0
 71
3
 72
10
 73
6
 74
4
 40
0.000000
 40
0.000000
 40
0.000000
 40
0.000000
 40
0.857292
 40
1.695530
 40
2.512923
 40
2.512923
 40
2.512923
 40
2.512923
 10
175.964580
 20
69.464210
 30
0.0
 10
175.965365
 20
69.178447
 30
0.0
 10
175.966917
 20
68.613272
 30
0.0
 10
175.970171
 20
67.775638
 30
0.0
 10
175.971784
 20
67.223763
 30
0.0
 10
175.972580
 20
66.951300
 30
0.0
 11
175.964580
 21
69.464210
 31
0.0
 11
175.967099
 21
68.606921
 31
0.0
 11
175.970061
 21
67.768689
 31
0.0
 11
175.972580
 21
66.951300
 31
0.0
  0
SPLINE
  5
170
100
AcDbEntity
  8
Layer_1
 62
1
100
AcDbSpline
 70
0
 71
3
 72
10
 73
6
 74
4
 40
0.000000
 40
0.000000
 40
0.000000
 40
0.000000
 40
0.823956
 40
1.340615
 40
1.519588
 40
1.519588
 40
1.519588
 40
1.519588
 10
134.474100
 20
45.814540
 30
0.0
 10
134.199449
 20
45.813675
 30
0.0
 10
133.752580
 20
45.812267
 30
0.0
 10
133.246053
 20
45.810570
 30
0.0
 10
133.014177
 20
45.809751
 30
0.0
 10
132.954520
 20
45.809540
 30
0.0
 11
134.474100
 21
45.814540
 31
0.0
 11
133.650148
 21
45.811910
 31
0.0
 11
133.133492
 21
45.810170
 31
0.0
 11
132.954520
 21
45.809540
 31
0.0
  0
SPLINE
  5
171
100
AcDbEntity
  8
Layer_1
 62
1
100
AcDbSpline
 70
0
 71
3
 72
10
 73
6
 74
4
 40
0.000000
 40
0.000000
 40
0.000000
 40
0.000000
 40
0.767564
 40
1.493319
 40
2.174521
 40
2.174521
 40
2.174521
 40
2.174521
 10
138.826190
 20
45.828540
 30
0.0
 10
138.570337
 20
45.827612
 30
0.0
 10
138.072567
 20
45.825807
 30
0.0
 10
137.347730
 20
45.823617
 30
0.0
 10
136.878747
 20
45.822218
 30
0.0
 10
136.651680
 20
45.821540
 30
0.0
 11
138.826190
 21
45.828540
 31
0.0
 11
138.058630
 21
45.825836
 31
0.0
 11
137.332880
 21
45.823577
 31
0.0
 11
136.651680
 21
45.821540
 31
0.0
  0
SPLINE
  5
172
100
AcDbEntity
  8
Layer_1
 62
1
100
AcDbSpline
 70
0
 71
3
 72
10
 73
6
 74
4
 40
0.000000
 40
0.000000
 40
0.000000
 40
0.000000
 40
0.742294
 40
1.468094
 40
2.175841
 40
2.175841
 40
2.175841
 40
2.175841
 10
143.179190
 20
45.842540
 30
0.0
 10
142.931760
 20
45.841816
 30
0.0
 10
142.442397
 20
45.840383
 30
0.0
 10
141.717121
 20
45.837758
 30
0.0
 10
141.239275
 20
45.836273
 30
0.0
 10
141.003360
 20
45.835540
 30
0.0
 11
143.179190
 21
45.842540
 31
0.0
 11
142.436899
 21
45.840281
 31
0.0
 11
141.711104
 21
45.837799
 31
0.0
 11
141.003360
 21
45.835540
 31
0.0
  0
SPLINE
  5
173
100
AcDbEntity
  8
Layer_1
 62
1
100
AcDbSpline
 70
0
 71
3
 72
10
 73
6
 74
4
 40
0.000000
 40
0.000000
 40
0.000000
 40
0.000000
 40
0.732284
 40
1.457967
 40
2.175931
 40
2.175931
 40
2.175931
 40
2.175931
 10
147.530840
 20
45.856540
 30
0.0
 10
147.286746
 20
45.855813
 30
0.0
 10
146.800759
 20
45.854366
 30
0.0
 10
146.075454
 20
45.851739
 30
0.0
 10
145.594240
 20
45.850270
 30
0.0
 10
145.354920
 20
45.849540
 30
0.0
 11
147.530840
 21
45.856540
 31
0.0
 11
146.798559
 21
45.854281
 31
0.0
 11
146.072881
 21
45.851799
 31
0.0
 11
145.354920
 21
45.849540
 31
0.0
  0
SPLINE
  5
174
100
AcDbEntity
  8
Layer_1
 62
1
100
AcDbSpline
 70
0
 71
3
 72
10
 73
6
 74
4
 40
0.000000
 40
0.000000
 40
0.000000
 40
0.000000
 40
0.725902
 40
1.451831
 40
2.176781
 40
2.176781
 40
2.176781
 40
2.176781
 10
151.882630
 20
45.870540
 30
0.0
 10
151.640664
 20
45.869871
 30
0.0
 10
151.156722
 20
45.868532
 30
0.0
 10
150.431131
 20
45.866349
 30
0.0
 10
149.947508
 20
45.864476
 30
0.0
 10
149.705860
 20
45.863540
 30
0.0
 11
151.882630
 21
45.870540
 31
0.0
 11
151.156731
 21
45.868503
 31
0.0
 11
150.430806
 21
45.866244
 31
0.0
 11
149.705860
 21
45.863540
 31
0.0
  0
SPLINE
  5
175
100
AcDbEntity
  8
Layer_1
 62
1
100
AcDbSpline
 70
0
 71
3
 72
10
 73
6
 74
4
 40
0.000000
 40
0.000000
 40
0.000000
 40
0.000000
 40
0.719129
 40
1.444819
 40
2.175955
 40
2.175955
 40
2.175955
 40
2.175955
 10
156.235320
 20
45.885540
 30
0.0
 10
155.995612
 20
45.884600
 30
0.0
 10
155.514009
 20
45.882712
 30
0.0
 10
154.788695
 20
45.880345
 30
0.0
 10
154.303090
 20
45.878477
 30
0.0
 10
154.059380
 20
45.877540
 30
0.0
 11
156.235320
 21
45.885540
 31
0.0
 11
155.516196
 21
45.882799
 31
0.0
 11
154.790510
 21
45.880281
 31
0.0
 11
154.059380
 21
45.877540
 31
0.0
  0
SPLINE
  5
176
100
AcDbEntity
  8
Layer_1
 62
1
100
AcDbSpline
 70
0
 71
3
 72
10
 73
6
 74
4
 40
0.000000
 40
0.000000
 40
0.000000
 40
0.000000
 40
0.709889
 40
1.435795
 40
2.176261
 40
2.176261
 40
2.176261
 40
2.176261
 10
160.588230
 20
45.899540
 30
0.0
 10
160.351602
 20
45.898601
 30
0.0
 10
159.873008
 20
45.896702
 30
0.0
 10
159.147590
 20
45.894527
 30
0.0
 10
158.658801
 20
45.893207
 30
0.0
 10
158.411980
 20
45.892540
 30
0.0
 11
160.588230
 21
45.899540
 31
0.0
 11
159.878346
 21
45.896836
 31
0.0
 11
159.152444
 21
45.894577
 31
0.0
 11
158.411980
 21
45.892540
 31
0.0
  0
SPLINE
  5
177
100
AcDbEntity
  8
Layer_1
 62
1
100
AcDbSpline
 70
0
 71
3
 72
10
 73
6
 74
4
 40
0.000000
 40
0.000000
 40
0.000000
 40
0.000000
 40
0.688341
 40
1.414644
 40
2.176371
 40
2.176371
 40
2.176371
 40
2.176371
 10
164.940940
 20
45.913540
 30
0.0
 10
164.711494
 20
45.912801
 30
0.0
 10
164.239949
 20
45.911284
 30
0.0
 10
163.514496
 20
45.908665
 30
0.0
 10
163.018488
 20
45.907259
 30
0.0
 10
162.764580
 20
45.906540
 30
0.0
 11
164.940940
 21
45.913540
 31
0.0
 11
164.252603
 21
45.911281
 31
0.0
 11
163.526304
 21
45.908799
 31
0.0
 11
162.764580
 21
45.906540
 31
0.0
  0
SPLINE
  5
178
100
AcDbEntity
  8
Layer_1
 62
1
100
AcDbSpline
 70
0
 71
3
 72
10
 73
6
 74
4
 40
0.000000
 40
0.000000
 40
0.000000
 40
0.000000
 40
0.259542
 40
1.002672
 40
2.176151
 40
2.176151
 40
2.176151
 40
2.176151
 10
169.294140
 20
45.927540
 30
0.0
 10
169.207627
 20
45.927229
 30
0.0
 10
168.873405
 20
45.926029
 30
0.0
 10
168.148025
 20
45.923628
 30
0.0
 10
167.509158
 20
45.921713
 30
0.0
 10
167.118000
 20
45.920540
 30
0.0
 11
169.294140
 21
45.927540
 31
0.0
 11
169.034600
 21
45.926614
 31
0.0
 11
168.291473
 21
45.924133
 31
0.0
 11
167.118000
 21
45.920540
 31
0.0
  0
SPLINE
  5
179
100
AcDbEntity
  8
Layer_1
 62
1
100
AcDbSpline
 70
0
 71
3
 72
10
 73
6
 74
4
 40
0.000000
 40
0.000000
 40
0.000000
 40
0.000000
 40
0.431983
 40
0.702855
 40
0.796686
 40
0.796686
 40
0.796686
 40
0.796686
 10
169.397140
 20
27.463980
 30
0.0
 10
169.398005
 20
27.319988
 30
0.0
 10
169.399413
 20
27.085707
 30
0.0
 10
169.401110
 20
26.820151
 30
0.0
 10
169.401929
 20
26.698586
 30
0.0
 10
169.402140
 20
26.667310
 30
0.0
 11
169.397140
 21
27.463980
 31
0.0
 11
169.399770
 21
27.032005
 31
0.0
 11
169.401510
 21
26.761139
 31
0.0
 11
169.402140
 21
26.667310
 31
0.0
  0
SPLINE
  5
17a
100
AcDbEntity
  8
Layer_1
 62
1
100
AcDbSpline
 70
0
 71
3
 72
10
 73
6
 74
4
 40
0.000000
 40
0.000000
 40
0.000000
 40
0.000000
 40
0.402419
 40
0.782916
 40
1.140052
 40
1.140052
 40
1.140052
 40
1.140052
 10
169.383140
 20
29.745660
 30
0.0
 10
169.384068
 20
29.611524
 30
0.0
 10
169.385873
 20
29.350558
 30
0.0
 10
169.388063
 20
28.970547
 30
0.0
 10
169.389462
 20
28.724673
 30
0.0
 10
169.390140
 20
28.605630
 30
0.0
 11
169.383140
 21
29.745660
 31
0.0
 11
169.385844
 21
29.343250
 31
0.0
 11
169.388103
 21
28.962760
 31
0.0
 11
169.390140
 21
28.605630
 31
0.0
  0
SPLINE
  5
17b
100
AcDbEntity
  8
Layer_1
 62
1
100
AcDbSpline
 70
0
 71
3
 72
10
 73
6
 74
4
 40
0.000000
 40
0.000000
 40
0.000000
 40
0.000000
 40
0.389167
 40
0.769691
 40
1.140752
 40
1.140752
 40
1.140752
 40
1.140752
 10
169.369140
 20
32.027820
 30
0.0
 10
169.369864
 20
31.898100
 30
0.0
 10
169.371297
 20
31.641540
 30
0.0
 10
169.373922
 20
31.261298
 30
0.0
 10
169.375407
 20
31.010775
 30
0.0
 10
169.376140
 20
30.887090
 30
0.0
 11
169.369140
 21
32.027820
 31
0.0
 11
169.371399
 21
31.638660
 31
0.0
 11
169.373881
 21
31.258144
 31
0.0
 11
169.376140
 21
30.887090
 31
0.0
  0
SPLINE
  5
17c
100
AcDbEntity
  8
Layer_1
 62
1
100
AcDbSpline
 70
0
 71
3
 72
10
 73
6
 74
4
 40
0.000000
 40
0.000000
 40
0.000000
 40
0.000000
 40
0.383922
 40
0.764386
 40
1.140802
 40
1.140802
 40
1.140802
 40
1.140802
 10
169.355140
 20
34.309270
 30
0.0
 10
169.355867
 20
34.181298
 30
0.0
 10
169.357314
 20
33.926507
 30
0.0
 10
169.359941
 20
33.546249
 30
0.0
 10
169.361410
 20
33.293960
 30
0.0
 10
169.362140
 20
33.168490
 30
0.0
 11
169.355140
 21
34.309270
 31
0.0
 11
169.357399
 21
33.925354
 31
0.0
 11
169.359881
 21
33.544899
 31
0.0
 11
169.362140
 21
33.168490
 31
0.0
  0
SPLINE
  5
17d
100
AcDbEntity
  8
Layer_1
 62
1
100
AcDbSpline
 70
0
 71
3
 72
10
 73
6
 74
4
 40
0.000000
 40
0.000000
 40
0.000000
 40
0.000000
 40
0.380571
 40
0.761160
 40
1.141242
 40
1.141242
 40
1.141242
 40
1.141242
 10
169.341140
 20
36.590790
 30
0.0
 10
169.341809
 20
36.463935
 30
0.0
 10
169.343148
 20
36.210218
 30
0.0
 10
169.345331
 20
35.829811
 30
0.0
 10
169.347204
 20
35.576260
 30
0.0
 10
169.348140
 20
35.449570
 30
0.0
 11
169.341140
 21
36.590790
 31
0.0
 11
169.343177
 21
36.210225
 31
0.0
 11
169.345436
 21
35.829642
 31
0.0
 11
169.348140
 21
35.449570
 31
0.0
  0
SPLINE
  5
17e
100
AcDbEntity
  8
Layer_1
 62
1
100
AcDbSpline
 70
0
 71
3
 72
10
 73
6
 74
4
 40
0.000000
 40
0.000000
 40
0.000000
 40
0.000000
 40
0.377026
 40
0.757492
 40
1.140818
 40
1.140818
 40
1.140818
 40
1.140818
 10
169.326140
 20
38.872790
 30
0.0
 10
169.327080
 20
38.747118
 30
0.0
 10
169.328968
 20
38.494628
 30
0.0
 10
169.331335
 20
38.114362
 30
0.0
 10
169.333203
 20
37.859772
 30
0.0
 10
169.334140
 20
37.732000
 30
0.0
 11
169.326140
 21
38.872790
 31
0.0
 11
169.328881
 21
38.495774
 31
0.0
 11
169.331399
 21
38.115316
 31
0.0
 11
169.334140
 21
37.732000
 31
0.0
  0
SPLINE
  5
17f
100
AcDbEntity
  8
Layer_1
 62
1
100
AcDbSpline
 70
0
 71
3
 72
10
 73
6
 74
4
 40
0.000000
 40
0.000000
 40
0.000000
 40
0.000000
 40
0.372183
 40
0.752760
 40
1.140972
 40
1.140972
 40
1.140972
 40
1.140972
 10
169.312140
 20
41.154900
 30
0.0
 10
169.313079
 20
41.030843
 30
0.0
 10
169.314978
 20
40.779930
 30
0.0
 10
169.317153
 20
40.399612
 30
0.0
 10
169.318473
 20
40.143352
 30
0.0
 10
169.319140
 20
40.013950
 30
0.0
 11
169.312140
 21
41.154900
 31
0.0
 11
169.314844
 21
40.782727
 31
0.0
 11
169.317103
 21
40.402156
 31
0.0
 11
169.319140
 21
40.013950
 31
0.0
  0
SPLINE
  5
180
100
AcDbEntity
  8
Layer_1
 62
1
100
AcDbSpline
 70
0
 71
3
 72
10
 73
6
 74
4
 40
0.000000
 40
0.000000
 40
0.000000
 40
0.000000
 40
0.360882
 40
0.741667
 40
1.141022
 40
1.141022
 40
1.141022
 40
1.141022
 10
169.298140
 20
43.436900
 30
0.0
 10
169.298879
 20
43.316608
 30
0.0
 10
169.300396
 20
43.069391
 30
0.0
 10
169.303015
 20
42.689059
 30
0.0
 10
169.304421
 20
42.429016
 30
0.0
 10
169.305140
 20
42.295900
 30
0.0
 11
169.298140
 21
43.436900
 31
0.0
 11
169.300399
 21
43.076025
 31
0.0
 11
169.302881
 21
42.695248
 31
0.0
 11
169.305140
 21
42.295900
 31
0.0
  0
SPLINE
  5
181
100
AcDbEntity
  8
Layer_1
 62
1
100
AcDbSpline
 70
0
 71
3
 72
10
 73
6
 74
4
 40
0.000000
 40
0.000000
 40
0.000000
 40
0.000000
 40
0.136072
 40
0.525679
 40
1.140912
 40
1.140912
 40
1.140912
 40
1.140912
 10
169.284140
 20
45.719160
 30
0.0
 10
169.284451
 20
45.673804
 30
0.0
 10
169.285651
 20
45.498582
 30
0.0
 10
169.288052
 20
45.118285
 30
0.0
 10
169.289967
 20
44.783344
 30
0.0
 10
169.291140
 20
44.578270
 30
0.0
 11
169.284140
 21
45.719160
 31
0.0
 11
169.285066
 21
45.583091
 31
0.0
 11
169.287547
 21
45.193492
 31
0.0
 11
169.291140
 21
44.578270
 31
0.0
  0
SPLINE
  5
182
100
AcDbEntity
  8
Layer_1
 62
1
100
AcDbSpline
 70
0
 71
3
 72
10
 73
6
 74
4
 40
0.000000
 40
0.000000
 40
0.000000
 40
0.000000
 40
0.431983
 40
0.702855
 40
0.796686
 40
0.796686
 40
0.796686
 40
0.796686
 10
132.994770
 20
27.486080
 30
0.0
 10
132.993905
 20
27.342088
 30
0.0
 10
132.992497
 20
27.107807
 30
0.0
 10
132.990800
 20
26.842251
 30
0.0
 10
132.989981
 20
26.720686
 30
0.0
 10
132.989770
 20
26.689410
 30
0.0
 11
132.994770
 21
27.486080
 31
0.0
 11
132.992140
 21
27.054105
 31
0.0
 11
132.990400
 21
26.783239
 31
0.0
 11
132.989770
 21
26.689410
 31
0.0
  0
SPLINE
  5
183
100
AcDbEntity
  8
Layer_1
 62
1
100
AcDbSpline
 70
0
 71
3
 72
10
 73
6
 74
4
 40
0.000000
 40
0.000000
 40
0.000000
 40
0.000000
 40
0.402419
 40
0.782916
 40
1.140052
 40
1.140052
 40
1.140052
 40
1.140052
 10
133.008770
 20
29.767760
 30
0.0
 10
133.007842
 20
29.633624
 30
0.0
 10
133.006037
 20
29.372658
 30
0.0
 10
133.003847
 20
28.992647
 30
0.0
 10
133.002448
 20
28.746773
 30
0.0
 10
133.001770
 20
28.627730
 30
0.0
 11
133.008770
 21
29.767760
 31
0.0
 11
133.006066
 21
29.365350
 31
0.0
 11
133.003807
 21
28.984860
 31
0.0
 11
133.001770
 21
28.627730
 31
0.0
  0
SPLINE
  5
184
100
AcDbEntity
  8
Layer_1
 62
1
100
AcDbSpline
 70
0
 71
3
 72
10
 73
6
 74
4
 40
0.000000
 40
0.000000
 40
0.000000
 40
0.000000
 40
0.389167
 40
0.769691
 40
1.140752
 40
1.140752
 40
1.140752
 40
1.140752
 10
133.022770
 20
32.049920
 30
0.0
 10
133.022046
 20
31.920200
 30
0.0
 10
133.020613
 20
31.663640
 30
0.0
 10
133.017988
 20
31.283398
 30
0.0
 10
133.016503
 20
31.032875
 30
0.0
 10
133.015770
 20
30.909190
 30
0.0
 11
133.022770
 21
32.049920
 31
0.0
 11
133.020511
 21
31.660760
 31
0.0
 11
133.018029
 21
31.280244
 31
0.0
 11
133.015770
 21
30.909190
 31
0.0
  0
SPLINE
  5
185
100
AcDbEntity
  8
Layer_1
 62
1
100
AcDbSpline
 70
0
 71
3
 72
10
 73
6
 74
4
 40
0.000000
 40
0.000000
 40
0.000000
 40
0.000000
 40
0.383922
 40
0.764386
 40
1.140802
 40
1.140802
 40
1.140802
 40
1.140802
 10
133.036770
 20
34.331370
 30
0.0
 10
133.036043
 20
34.203398
 30
0.0
 10
133.034596
 20
33.948607
 30
0.0
 10
133.031969
 20
33.568349
 30
0.0
 10
133.030500
 20
33.316060
 30
0.0
 10
133.029770
 20
33.190590
 30
0.0
 11
133.036770
 21
34.331370
 31
0.0
 11
133.034511
 21
33.947454
 31
0.0
 11
133.032029
 21
33.566999
 31
0.0
 11
133.029770
 21
33.190590
 31
0.0
  0
SPLINE
  5
186
100
AcDbEntity
  8
Layer_1
 62
1
100
AcDbSpline
 70
0
 71
3
 72
10
 73
6
 74
4
 40
0.000000
 40
0.000000
 40
0.000000
 40
0.000000
 40
0.380571
 40
0.761160
 40
1.141242
 40
1.141242
 40
1.141242
 40
1.141242
 10
133.050770
 20
36.612890
 30
0.0
 10
133.050101
 20
36.486035
 30
0.0
 10
133.048762
 20
36.232318
 30
0.0
 10
133.046579
 20
35.851911
 30
0.0
 10
133.044706
 20
35.598360
 30
0.0
 10
133.043770
 20
35.471670
 30
0.0
 11
133.050770
 21
36.612890
 31
0.0
 11
133.048733
 21
36.232325
 31
0.0
 11
133.046474
 21
35.851742
 31
0.0
 11
133.043770
 21
35.471670
 31
0.0
  0
SPLINE
  5
187
100
AcDbEntity
  8
Layer_1
 62
1
100
AcDbSpline
 70
0
 71
3
 72
10
 73
6
 74
4
 40
0.000000
 40
0.000000
 40
0.000000
 40
0.000000
 40
0.377026
 40
0.757492
 40
1.140818
 40
1.140818
 40
1.140818
 40
1.140818
 10
133.065770
 20
38.894890
 30
0.0
 10
133.064830
 20
38.769218
 30
0.0
 10
133.062942
 20
38.516728
 30
0.0
 10
133.060575
 20
38.136462
 30
0.0
 10
133.058707
 20
37.881872
 30
0.0
 10
133.057770
 20
37.754100
 30
0.0
 11
133.065770
 21
38.894890
 31
0.0
 11
133.063029
 21
38.517874
 31
0.0
 11
133.060511
 21
38.137416
 31
0.0
 11
133.057770
 21
37.754100
 31
0.0
  0
SPLINE
  5
188
100
AcDbEntity
  8
Layer_1
 62
1
100
AcDbSpline
 70
0
 71
3
 72
10
 73
6
 74
4
 40
0.000000
 40
0.000000
 40
0.000000
 40
0.000000
 40
0.372183
 40
0.752760
 40
1.140972
 40
1.140972
 40
1.140972
 40
1.140972
 10
133.079770
 20
41.177000
 30
0.0
 10
133.078831
 20
41.052943
 30
0.0
 10
133.076932
 20
40.802030
 30
0.0
 10
133.074757
 20
40.421712
 30
0.0
 10
133.073437
 20
40.165452
 30
0.0
 10
133.072770
 20
40.036050
 30
0.0
 11
133.079770
 21
41.177000
 31
0.0
 11
133.077066
 21
40.804827
 31
0.0
 11
133.074807
 21
40.424256
 31
0.0
 11
133.072770
 21
40.036050
 31
0.0
  0
SPLINE
  5
189
100
AcDbEntity
  8
Layer_1
 62
1
100
AcDbSpline
 70
0
 71
3
 72
10
 73
6
 74
4
 40
0.000000
 40
0.000000
 40
0.000000
 40
0.000000
 40
0.360882
 40
0.741667
 40
1.141022
 40
1.141022
 40
1.141022
 40
1.141022
 10
133.093770
 20
43.459000
 30
0.0
 10
133.093031
 20
43.338708
 30
0.0
 10
133.091514
 20
43.091491
 30
0.0
 10
133.088895
 20
42.711159
 30
0.0
 10
133.087489
 20
42.451116
 30
0.0
 10
133.086770
 20
42.318000
 30
0.0
 11
133.093770
 21
43.459000
 31
0.0
 11
133.091511
 21
43.098125
 31
0.0
 11
133.089029
 21
42.717348
 31
0.0
 11
133.086770
 21
42.318000
 31
0.0
  0
SPLINE
  5
18a
100
AcDbEntity
  8
Layer_1
 62
1
100
AcDbSpline
 70
0
 71
3
 72
10
 73
6
 74
4
 40
0.000000
 40
0.000000
 40
0.000000
 40
0.000000
 40
0.136072
 40
0.525679
 40
1.140912
 40
1.140912
 40
1.140912
 40
1.140912
 10
133.107770
 20
45.741260
 30
0.0
 10
133.107459
 20
45.695904
 30
0.0
 10
133.106259
 20
45.520682
 30
0.0
 10
133.103858
 20
45.140385
 30
0.0
 10
133.101943
 20
44.805444
 30
0.0
 10
133.100770
 20
44.600370
 30
0.0
 11
133.107770
 21
45.741260
 31
0.0
 11
133.106844
 21
45.605191
 31
0.0
 11
133.104363
 21
45.215592
 31
0.0
 11
133.100770
 21
44.600370
 31
0.0
  0
SPLINE
  5
18b
100
AcDbEntity
  8
Layer_1
 62
1
100
AcDbSpline
 70
0
 71
3
 72
10
 73
6
 74
4
 40
0.000000
 40
0.000000
 40
0.000000
 40
0.000000
 40
0.823956
 40
1.340615
 40
1.519588
 40
1.519588
 40
1.519588
 40
1.519588
 10
134.400240
 20
26.839280
 30
0.0
 10
134.125589
 20
26.840145
 30
0.0
 10
133.678720
 20
26.841553
 30
0.0
 10
133.172193
 20
26.843250
 30
0.0
 10
132.940317
 20
26.844069
 30
0.0
 10
132.880660
 20
26.844280
 30
0.0
 11
134.400240
 21
26.839280
 31
0.0
 11
133.576288
 21
26.841910
 31
0.0
 11
133.059632
 21
26.843650
 31
0.0
 11
132.880660
 21
26.844280
 31
0.0
  0
SPLINE
  5
18c
100
AcDbEntity
  8
Layer_1
 62
1
100
AcDbSpline
 70
0
 71
3
 72
10
 73
6
 74
4
 40
0.000000
 40
0.000000
 40
0.000000
 40
0.000000
 40
0.767564
 40
1.493319
 40
2.174521
 40
2.174521
 40
2.174521
 40
2.174521
 10
138.752330
 20
26.825280
 30
0.0
 10
138.496477
 20
26.826208
 30
0.0
 10
137.998707
 20
26.828013
 30
0.0
 10
137.273870
 20
26.830203
 30
0.0
 10
136.804887
 20
26.831602
 30
0.0
 10
136.577820
 20
26.832280
 30
0.0
 11
138.752330
 21
26.825280
 31
0.0
 11
137.984770
 21
26.827984
 31
0.0
 11
137.259020
 21
26.830243
 31
0.0
 11
136.577820
 21
26.832280
 31
0.0
  0
SPLINE
  5
18d
100
AcDbEntity
  8
Layer_1
 62
1
100
AcDbSpline
 70
0
 71
3
 72
10
 73
6
 74
4
 40
0.000000
 40
0.000000
 40
0.000000
 40
0.000000
 40
0.742294
 40
1.468094
 40
2.175841
 40
2.175841
 40
2.175841
 40
2.175841
 10
143.105330
 20
26.811280
 30
0.0
 10
142.857900
 20
26.812004
 30
0.0
 10
142.368537
 20
26.813437
 30
0.0
 10
141.643261
 20
26.816062
 30
0.0
 10
141.165415
 20
26.817547
 30
0.0
 10
140.929500
 20
26.818280
 30
0.0
 11
143.105330
 21
26.811280
 31
0.0
 11
142.363039
 21
26.813539
 31
0.0
 11
141.637244
 21
26.816021
 31
0.0
 11
140.929500
 21
26.818280
 31
0.0
  0
SPLINE
  5
18e
100
AcDbEntity
  8
Layer_1
 62
1
100
AcDbSpline
 70
0
 71
3
 72
10
 73
6
 74
4
 40
0.000000
 40
0.000000
 40
0.000000
 40
0.000000
 40
0.732284
 40
1.457967
 40
2.175931
 40
2.175931
 40
2.175931
 40
2.175931
 10
147.456980
 20
26.797280
 30
0.0
 10
147.212886
 20
26.798007
 30
0.0
 10
146.726899
 20
26.799454
 30
0.0
 10
146.001594
 20
26.802081
 30
0.0
 10
145.520380
 20
26.803550
 30
0.0
 10
145.281060
 20
26.804280
 30
0.0
 11
147.456980
 21
26.797280
 31
0.0
 11
146.724699
 21
26.799539
 31
0.0
 11
145.999021
 21
26.802021
 31
0.0
 11
145.281060
 21
26.804280
 31
0.0
  0
SPLINE
  5
18f
100
AcDbEntity
  8
Layer_1
 62
1
100
AcDbSpline
 70
0
 71
3
 72
10
 73
6
 74
4
 40
0.000000
 40
0.000000
 40
0.000000
 40
0.000000
 40
0.725902
 40
1.451831
 40
2.176781
 40
2.176781
 40
2.176781
 40
2.176781
 10
151.808770
 20
26.783280
 30
0.0
 10
151.566804
 20
26.783949
 30
0.0
 10
151.082862
 20
26.785288
 30
0.0
 10
150.357271
 20
26.787471
 30
0.0
 10
149.873648
 20
26.789344
 30
0.0
 10
149.632000
 20
26.790280
 30
0.0
 11
151.808770
 21
26.783280
 31
0.0
 11
151.082871
 21
26.785317
 31
0.0
 11
150.356946
 21
26.787576
 31
0.0
 11
149.632000
 21
26.790280
 31
0.0
  0
SPLINE
  5
190
100
AcDbEntity
  8
Layer_1
 62
1
100
AcDbSpline
 70
0
 71
3
 72
10
 73
6
 74
4
 40
0.000000
 40
0.000000
 40
0.000000
 40
0.000000
 40
0.719129
 40
1.444819
 40
2.175955
 40
2.175955
 40
2.175955
 40
2.175955
 10
156.161460
 20
26.768280
 30
0.0
 10
155.921752
 20
26.769220
 30
0.0
 10
155.440149
 20
26.771108
 30
0.0
 10
154.714835
 20
26.773475
 30
0.0
 10
154.229230
 20
26.775343
 30
0.0
 10
153.985520
 20
26.776280
 30
0.0
 11
156.161460
 21
26.768280
 31
0.0
 11
155.442336
 21
26.771021
 31
0.0
 11
154.716650
 21
26.773539
 31
0.0
 11
153.985520
 21
26.776280
 31
0.0
  0
SPLINE
  5
191
100
AcDbEntity
  8
Layer_1
 62
1
100
AcDbSpline
 70
0
 71
3
 72
10
 73
6
 74
4
 40
0.000000
 40
0.000000
 40
0.000000
 40
0.000000
 40
0.709889
 40
1.435795
 40
2.176261
 40
2.176261
 40
2.176261
 40
2.176261
 10
160.514370
 20
26.754280
 30
0.0
 10
160.277742
 20
26.755219
 30
0.0
 10
159.799148
 20
26.757118
 30
0.0
 10
159.073730
 20
26.759293
 30
0.0
 10
158.584941
 20
26.760613
 30
0.0
 10
158.338120
 20
26.761280
 30
0.0
 11
160.514370
 21
26.754280
 31
0.0
 11
159.804486
 21
26.756984
 31
0.0
 11
159.078584
 21
26.759243
 31
0.0
 11
158.338120
 21
26.761280
 31
0.0
  0
SPLINE
  5
192
100
AcDbEntity
  8
Layer_1
 62
1
100
AcDbSpline
 70
0
 71
3
 72
10
 73
6
 74
4
 40
0.000000
 40
0.000000
 40
0.000000
 40
0.000000
 40
0.688341
 40
1.414644
 40
2.176371
 40
2.176371
 40
2.176371
 40
2.176371
 10
164.867080
 20
26.740280
 30
0.0
 10
164.637634
 20
26.741019
 30
0.0
 10
164.166089
 20
26.742536
 30
0.0
 10
163.440636
 20
26.745155
 30
0.0
 10
162.944628
 20
26.746561
 30
0.0
 10
162.690720
 20
26.747280
 30
0.0
 11
164.867080
 21
26.740280
 31
0.0
 11
164.178743
 21
26.742539
 31
0.0
 11
163.452444
 21
26.745021
 31
0.0
 11
162.690720
 21
26.747280
 31
0.0
  0
SPLINE
  5
193
100
AcDbEntity
  8
Layer_1
 62
1
100
AcDbSpline
 70
0
 71
3
 72
10
 73
6
 74
4
 40
0.000000
 40
0.000000
 40
0.000000
 40
0.000000
 40
0.259542
 40
1.002672
 40
2.176151
 40
2.176151
 40
2.176151
 40
2.176151
 10
169.220280
 20
26.726280
 30
0.0
 10
169.133767
 20
26.726591
 30
0.0
 10
168.799545
 20
26.727791
 30
0.0
 10
168.074165
 20
26.730192
 30
0.0
 10
167.435298
 20
26.732107
 30
0.0
 10
167.044140
 20
26.733280
 30
0.0
 11
169.220280
 21
26.726280
 31
0.0
 11
168.960740
 21
26.727206
 31
0.0
 11
168.217613
 21
26.729687
 31
0.0
 11
167.044140
 21
26.733280
 31
0.0
  0
LWPOLYLINE
  5
194
100
AcDbEntity
  8
Layer_1
 62
7
100
AcDbPolyline
 90
2
 70
0
 10
70.105131
 20
149.573990
 30
0.0
 10
66.000171
 20
149.638090
 30
0.0
  0
ENDSEC
  0
SECTION
  2
OBJECTS
  0
DICTIONARY
  5
C
330
0
100
AcDbDictionary
  3
ACAD_GROUP
350
D
  3
ACAD_MLINESTYLE
350
17
  0
DICTIONARY
  5
D
330
C
100
AcDbDictionary
  0
DICTIONARY
  5
1A
330
C
100
AcDbDictionary
  0
DICTIONARY
  5
17
330
C
100
AcDbDictionary
  3
STANDARD
350
18
  0
DICTIONARY
  5
19
330
C
100
AcDbDictionary
  0
ENDSEC
  0
EOF
