  0
SECTION
  2
HEADER
  9
$ACADVER
  1
AC1014
  9
$HANDSEED
  5
FFFF
  9
$INSUNITS
 70
     4
  9
$MEASUREMENT
 70
     1
  0
ENDSEC
  0
SECTION
  2
TABLES
  0
TABLE
  2
VPORT
  5
8
330
0
100
AcDbSymbolTable
 70
     4
  0
VPORT
  5
2E
330
8
100
AcDbSymbolTableRecord
100
AcDbViewportTableRecord
  2
*ACTIVE
 70
     0
 10
0.0
 20
0.0
 11
1.0
 21
1.0
 12
210.0
 22
148.5
 13
0.0
 23
0.0
 14
10.0
 24
10.0
 15
10.0
 25
10.0
 16
0.0
 26
0.0
 36
1.0
 17
0.0
 27
0.0
 37
0.0
 40
341.0
 41
1.24
 42
50.0
 43
0.0
 44
0.0
 50
0.0
 51
0.0
 71
     0
 72
   100
 73
     1
 74
     3
 75
     0
 76
     0
 77
     0
 78
     0
  0
ENDTAB
  0
TABLE
  2
LTYPE
  5
5
330
0
100
AcDbSymbolTable
 70
     1
  0
LTYPE
  5
14
330
5
100
AcDbSymbolTableRecord
100
AcDbLinetypeTableRecord
  2
BYBLOCK
 70
     0
  3

 72
    65
 73
     0
 40
0.0
  0
LTYPE
  5
15
330
5
100
AcDbSymbolTableRecord
100
AcDbLinetypeTableRecord
  2
BYLAYER
 70
     0
  3

 72
    65
 73
     0
 40
0.0
  0
LTYPE
  5
16
330
5
100
AcDbSymbolTableRecord
100
AcDbLinetypeTableRecord
  2
CONTINUOUS
 70
     0
  3
Solid line
 72
    65
 73
     0
 40
0.0
  0
ENDTAB
  0
TABLE
  2
LAYER
  5
2
100
AcDbSymbolTable
 70
2
  0
LAYER
  5
50
100
AcDbSymbolTableRecord
100
AcDbLayerTableRecord
  2
0
 70
0
  6
CONTINUOUS
  0
LAYER
  5
51
100
AcDbSymbolTableRecord
100
AcDbLayerTableRecord
  2
Layer_1
 70
0
  6
CONTINUOUS
  0
ENDTAB
  0
TABLE
  2
STYLE
  5
3
330
0
100
AcDbSymbolTable
 70
     1
  0
STYLE
  5
11
330
3
100
AcDbSymbolTableRecord
100
AcDbTextStyleTableRecord
  2
STANDARD
 70
     0
 40
0.0
 41
1.0
 50
0.0
 71
     0
 42
2.5
  3
txt
  4

  0
ENDTAB
  0
TABLE
  2
VIEW
  5
6
330
0
100
AcDbSymbolTable
 70
     0
  0
ENDTAB
  0
TABLE
  2
UCS
  5
7
330
0
100
AcDbSymbolTable
 70
     0
  0
ENDTAB
  0
TABLE
  2
APPID
  5
9
330
0
100
AcDbSymbolTable
 70
     2
  0
APPID
  5
12
330
9
100
AcDbSymbolTableRecord
100
AcDbRegAppTableRecord
  2
ACAD
 70
     0
  0
ENDTAB
  0
TABLE
  2
DIMSTYLE
  5
A
330
0
100
AcDbSymbolTable
 70
     1
  0
DIMSTYLE
105
27
330
A
100
AcDbSymbolTableRecord
100
AcDbDimStyleTableRecord
  2
ISO-25
 70
     0
  3

  4

  5

  6

  7

 40
1.0
 41
2.5
 42
0.625
 43
3.75
 44
1.25
 45
0.0
 46
0.0
 47
0.0
 48
0.0
140
2.5
141
2.5
142
0.0
143
0.03937007874016
144
1.0
145
0.0
146
1.0
147
0.625
 71
     0
 72
     0
 73
     0
 74
     0
 75
     0
 76
     0
 77
     1
 78
     8
170
     0
171
     3
172
     1
173
     0
174
     0
175
     0
176
     0
177
     0
178
     0
270
     2
271
     2
272
     2
273
     2
274
     3
340
11
275
     0
280
     0
281
     0
282
     0
283
     0
284
     8
285
     0
286
     0
287
     3
288
     0
  0
ENDTAB
  0
TABLE
  2
BLOCK_RECORD
  5
1
330
0
100
AcDbSymbolTable
 70
     1
  0
BLOCK_RECORD
  5
1F
330
1
100
AcDbSymbolTableRecord
100
AcDbBlockTableRecord
  2
*MODEL_SPACE
  0
BLOCK_RECORD
  5
1B
330
1
100
AcDbSymbolTableRecord
100
AcDbBlockTableRecord
  2
*PAPER_SPACE
  0
ENDTAB
  0
ENDSEC
  0
SECTION
  2
BLOCKS
  0
BLOCK
  5
20
330
1F
100
AcDbEntity
  8
0
100
AcDbBlockBegin
  2
*MODEL_SPACE
 70
     0
 10
0.0
 20
0.0
 30
0.0
  3
*MODEL_SPACE
  1

  0
ENDBLK
  5
21
330
1F
100
AcDbEntity
  8
0
100
AcDbBlockEnd
  0
BLOCK
  5
1C
330
1B
100
AcDbEntity
 67
     1
  8
0
100
AcDbBlockBegin
  2
*PAPER_SPACE
  1

  0
ENDBLK
  5
1D
330
1B
100
AcDbEntity
 67
     1
  8
0
100
AcDbBlockEnd
  0
ENDSEC
  0
SECTION
  2
ENTITIES
  0
LWPOLYLINE
  5
100
100
AcDbEntity
  8
Layer_1
 62
1
100
AcDbPolyline
 90
3
 70
0
 10
57.898949
 20
259.993744
 30
0.0
 10
57.879052
 20
260.361398
 30
0.0
 10
31.572282
 20
260.356450
 30
0.0
  0
LWPOLYLINE
  5
101
100
AcDbEntity
  8
Layer_1
 62
1
100
AcDbPolyline
 90
3
 70
0
 10
31.455823
 20
255.822122
 30
0.0
 10
31.465850
 20
260.276610
 30
0.0
 10
44.714961
 20
260.216772
 30
0.0
  0
LWPOLYLINE
  5
102
100
AcDbEntity
  8
Layer_1
 62
1
100
AcDbPolyline
 90
3
 70
0
 10
31.778706
 20
269.686650
 30
0.0
 10
31.394933
 20
269.680069
 30
0.0
 10
31.400098
 20
260.978968
 30
0.0
  0
LWPOLYLINE
  5
103
100
AcDbEntity
  8
Layer_1
 62
1
100
AcDbPolyline
 90
3
 70
0
 10
36.133223
 20
260.940449
 30
0.0
 10
31.483439
 20
260.943765
 30
0.0
 10
31.545901
 20
265.325977
 30
0.0
  0
LWPOLYLINE
  5
104
100
AcDbEntity
  8
Layer_1
 62
1
100
AcDbPolyline
 90
3
 70
0
 10
58.266706
 20
269.571150
 30
0.0
 10
57.882933
 20
269.564569
 30
0.0
 10
57.888098
 20
260.863468
 30
0.0
  0
LWPOLYLINE
  5
105
100
AcDbEntity
  8
Layer_1
 62
1
100
AcDbPolyline
 90
3
 70
0
 10
62.621223
 20
260.824949
 30
0.0
 10
57.971439
 20
260.828265
 30
0.0
 10
58.033901
 20
265.210477
 30
0.0
  0
SPLINE
  5
106
100
AcDbEntity
  8
Layer_1
 62
7
100
AcDbSpline
 70
8
 71
3
 72
8
 73
4
 74
0
 40
0
 40
0
 40
0
 40
0
 40
1
 40
1
 40
1
 40
1
 10
42.107580
 20
294.643065
 30
0.0
 10
36.977964
 20
293.304561
 30
0.0
 10
34.832719
 20
292.565779
 30
0.0
 10
34.832719
 20
292.565779
 30
0.0
  0
SPLINE
  5
107
100
AcDbEntity
  8
Layer_1
 62
7
100
AcDbSpline
 70
8
 71
3
 72
8
 73
4
 74
0
 40
0
 40
0
 40
0
 40
0
 40
1
 40
1
 40
1
 40
1
 10
34.832719
 20
292.565779
 30
0.0
 10
31.725875
 20
290.626764
 30
0.0
 10
31.295245
 20
291.029737
 30
0.0
 10
31.295245
 20
291.029737
 30
0.0
  0
LWPOLYLINE
  5
108
100
AcDbEntity
  8
Layer_1
 62
7
100
AcDbPolyline
 90
2
 70
0
 10
44.869527
 20
294.400885
 30
0.0
 10
42.107580
 20
294.643065
 30
0.0
  0
SPLINE
  5
109
100
AcDbEntity
  8
Layer_1
 62
7
100
AcDbSpline
 70
8
 71
3
 72
8
 73
4
 74
0
 40
0
 40
0
 40
0
 40
0
 40
1
 40
1
 40
1
 40
1
 10
10.246588
 20
271.471304
 30
0.0
 10
8.940481
 20
270.593455
 30
0.0
 10
8.465208
 20
269.826622
 30
0.0
 10
8.465208
 20
269.826622
 30
0.0
  0
SPLINE
  5
10a
100
AcDbEntity
  8
Layer_1
 62
7
100
AcDbSpline
 70
8
 71
3
 72
8
 73
4
 74
0
 40
0
 40
0
 40
0
 40
0
 40
1
 40
1
 40
1
 40
1
 10
8.465208
 20
269.826622
 30
0.0
 10
7.692446
 20
267.965040
 30
0.0
 10
7.636738
 20
267.128674
 30
0.0
 10
7.636738
 20
267.128674
 30
0.0
  0
SPLINE
  5
10b
100
AcDbEntity
  8
Layer_1
 62
7
100
AcDbSpline
 70
8
 71
3
 72
8
 73
4
 74
0
 40
0
 40
0
 40
0
 40
0
 40
1
 40
1
 40
1
 40
1
 10
7.636738
 20
267.128674
 30
0.0
 10
7.528095
 20
265.372579
 30
0.0
 10
7.330557
 20
263.780437
 30
0.0
 10
7.330557
 20
263.780437
 30
0.0
  0
LWPOLYLINE
  5
10c
100
AcDbEntity
  8
Layer_1
 62
7
100
AcDbPolyline
 90
4
 70
0
 10
31.295245
 20
291.029737
 30
0.0
 10
31.336326
 20
269.667399
 30
0.0
 10
12.072216
 20
271.782226
 30
0.0
 10
10.246588
 20
271.471304
 30
0.0
  0
LWPOLYLINE
  5
10d
100
AcDbEntity
  8
Layer_1
 62
7
100
AcDbPolyline
 90
13
 70
0
 10
7.330557
 20
263.780437
 30
0.0
 10
3.218252
 20
264.478532
 30
0.0
 10
0.884167
 20
264.401099
 30
0.0
 10
1.255136
 20
255.734402
 30
0.0
 10
2.680556
 20
255.531332
 30
0.0
 10
2.390573
 20
249.179364
 30
0.0
 10
10.495872
 20
248.864095
 30
0.0
 10
10.258041
 20
256.033074
 30
0.0
 10
21.525496
 20
255.989611
 30
0.0
 10
21.835625
 20
249.156840
 30
0.0
 10
29.182388
 20
249.066763
 30
0.0
 10
29.119573
 20
255.991188
 30
0.0
 10
31.459191
 20
255.901902
 30
0.0
  0
LWPOLYLINE
  5
10e
100
AcDbEntity
  8
Layer_1
 62
7
100
AcDbPolyline
 90
8
 70
0
 10
44.778037
 20
232.636074
 30
0.0
 10
31.307958
 20
232.761182
 30
0.0
 10
31.307958
 20
234.596115
 30
0.0
 10
28.972587
 20
234.262492
 30
0.0
 10
28.972587
 20
240.100918
 30
0.0
 10
31.266254
 20
239.642184
 30
0.0
 10
31.474770
 20
251.444144
 30
0.0
 10
29.222806
 20
251.444144
 30
0.0
  0
LWPOLYLINE
  5
10f
100
AcDbEntity
  8
Layer_1
 62
7
100
AcDbPolyline
 90
2
 70
0
 10
27.846604
 20
259.492830
 30
0.0
 10
23.009053
 20
259.659642
 30
0.0
  0
LWPOLYLINE
  5
110
100
AcDbEntity
  8
Layer_1
 62
7
100
AcDbPolyline
 90
2
 70
0
 10
11.665827
 20
259.242611
 30
0.0
 10
6.494650
 20
259.492830
 30
0.0
  0
LWPOLYLINE
  5
111
100
AcDbEntity
  8
Layer_1
 62
7
100
AcDbPolyline
 90
2
 70
0
 10
31.474770
 20
260.264333
 30
0.0
 10
31.474770
 20
255.906365
 30
0.0
  0
LWPOLYLINE
  5
112
100
AcDbEntity
  8
Layer_1
 62
7
100
AcDbPolyline
 90
2
 70
0
 10
57.729544
 20
260.221439
 30
0.0
 10
57.729544
 20
255.863471
 30
0.0
  0
SPLINE
  5
113
100
AcDbEntity
  8
Layer_1
 62
7
100
AcDbSpline
 70
8
 71
3
 72
8
 73
4
 74
0
 40
0
 40
0
 40
0
 40
0
 40
1
 40
1
 40
1
 40
1
 10
47.283798
 20
294.642915
 30
0.0
 10
52.413421
 20
293.304409
 30
0.0
 10
54.558668
 20
292.565626
 30
0.0
 10
54.558668
 20
292.565626
 30
0.0
  0
SPLINE
  5
114
100
AcDbEntity
  8
Layer_1
 62
7
100
AcDbSpline
 70
8
 71
3
 72
8
 73
4
 74
0
 40
0
 40
0
 40
0
 40
0
 40
1
 40
1
 40
1
 40
1
 10
54.558668
 20
292.565626
 30
0.0
 10
57.665516
 20
290.626608
 30
0.0
 10
58.096147
 20
291.029582
 30
0.0
 10
58.096147
 20
291.029582
 30
0.0
  0
LWPOLYLINE
  5
115
100
AcDbEntity
  8
Layer_1
 62
7
100
AcDbPolyline
 90
2
 70
0
 10
44.521847
 20
294.400734
 30
0.0
 10
47.283798
 20
294.642915
 30
0.0
  0
SPLINE
  5
116
100
AcDbEntity
  8
Layer_1
 62
7
100
AcDbSpline
 70
8
 71
3
 72
8
 73
4
 74
0
 40
0
 40
0
 40
0
 40
0
 40
1
 40
1
 40
1
 40
1
 10
79.144830
 20
271.471125
 30
0.0
 10
80.450937
 20
270.593274
 30
0.0
 10
80.926211
 20
269.826440
 30
0.0
 10
80.926211
 20
269.826440
 30
0.0
  0
SPLINE
  5
117
100
AcDbEntity
  8
Layer_1
 62
7
100
AcDbSpline
 70
8
 71
3
 72
8
 73
4
 74
0
 40
0
 40
0
 40
0
 40
0
 40
1
 40
1
 40
1
 40
1
 10
80.926211
 20
269.826440
 30
0.0
 10
81.698974
 20
267.964856
 30
0.0
 10
81.754682
 20
267.128489
 30
0.0
 10
81.754682
 20
267.128489
 30
0.0
  0
SPLINE
  5
118
100
AcDbEntity
  8
Layer_1
 62
7
100
AcDbSpline
 70
8
 71
3
 72
8
 73
4
 74
0
 40
0
 40
0
 40
0
 40
0
 40
1
 40
1
 40
1
 40
1
 10
81.754682
 20
267.128489
 30
0.0
 10
81.863325
 20
265.372391
 30
0.0
 10
82.060863
 20
263.780248
 30
0.0
 10
82.060863
 20
263.780248
 30
0.0
  0
LWPOLYLINE
  5
119
100
AcDbEntity
  8
Layer_1
 62
7
100
AcDbPolyline
 90
4
 70
0
 10
58.096147
 20
291.029582
 30
0.0
 10
58.055067
 20
269.667217
 30
0.0
 10
77.319199
 20
271.782047
 30
0.0
 10
79.144830
 20
271.471125
 30
0.0
  0
LWPOLYLINE
  5
11a
100
AcDbEntity
  8
Layer_1
 62
7
100
AcDbPolyline
 90
13
 70
0
 10
82.060863
 20
263.780248
 30
0.0
 10
86.173176
 20
264.478343
 30
0.0
 10
88.507264
 20
264.400913
 30
0.0
 10
88.136294
 20
255.734206
 30
0.0
 10
86.710873
 20
255.531135
 30
0.0
 10
87.000856
 20
249.179159
 30
0.0
 10
78.895544
 20
248.863890
 30
0.0
 10
79.133376
 20
256.032878
 30
0.0
 10
67.865907
 20
255.989418
 30
0.0
 10
67.555778
 20
249.156638
 30
0.0
 10
60.209008
 20
249.066558
 30
0.0
 10
60.271828
 20
255.990992
 30
0.0
 10
57.932207
 20
255.901702
 30
0.0
  0
LWPOLYLINE
  5
11b
100
AcDbEntity
  8
Layer_1
 62
7
100
AcDbPolyline
 90
8
 70
0
 10
44.613337
 20
232.635845
 30
0.0
 10
58.083434
 20
232.760954
 30
0.0
 10
58.083434
 20
234.595889
 30
0.0
 10
60.418807
 20
234.262265
 30
0.0
 10
60.418807
 20
240.100699
 30
0.0
 10
58.125137
 20
239.641964
 30
0.0
 10
57.916622
 20
251.443939
 30
0.0
 10
60.168588
 20
251.443939
 30
0.0
  0
LWPOLYLINE
  5
11c
100
AcDbEntity
  8
Layer_1
 62
7
100
AcDbPolyline
 90
2
 70
0
 10
61.544792
 20
259.492636
 30
0.0
 10
66.382346
 20
259.659447
 30
0.0
  0
LWPOLYLINE
  5
11d
100
AcDbEntity
  8
Layer_1
 62
7
100
AcDbPolyline
 90
2
 70
0
 10
77.725587
 20
259.242416
 30
0.0
 10
82.896770
 20
259.492636
 30
0.0
  0
LWPOLYLINE
  5
11e
100
AcDbEntity
  8
Layer_1
 62
1
100
AcDbPolyline
 90
3
 70
0
 10
174.334949
 20
258.536274
 30
0.0
 10
174.315052
 20
258.903928
 30
0.0
 10
148.008282
 20
258.898980
 30
0.0
  0
LWPOLYLINE
  5
11f
100
AcDbEntity
  8
Layer_1
 62
1
100
AcDbPolyline
 90
3
 70
0
 10
147.891823
 20
254.364652
 30
0.0
 10
147.901850
 20
258.819140
 30
0.0
 10
161.150961
 20
258.759302
 30
0.0
  0
LWPOLYLINE
  5
120
100
AcDbEntity
  8
Layer_1
 62
1
100
AcDbPolyline
 90
3
 70
0
 10
148.214706
 20
268.229180
 30
0.0
 10
147.830933
 20
268.222599
 30
0.0
 10
147.836098
 20
259.521498
 30
0.0
  0
LWPOLYLINE
  5
121
100
AcDbEntity
  8
Layer_1
 62
1
100
AcDbPolyline
 90
3
 70
0
 10
152.569223
 20
259.482979
 30
0.0
 10
147.919439
 20
259.486295
 30
0.0
 10
147.981901
 20
263.868507
 30
0.0
  0
LWPOLYLINE
  5
122
100
AcDbEntity
  8
Layer_1
 62
1
100
AcDbPolyline
 90
3
 70
0
 10
174.702706
 20
268.113680
 30
0.0
 10
174.318933
 20
268.107099
 30
0.0
 10
174.324098
 20
259.405998
 30
0.0
  0
LWPOLYLINE
  5
123
100
AcDbEntity
  8
Layer_1
 62
1
100
AcDbPolyline
 90
3
 70
0
 10
179.057223
 20
259.367479
 30
0.0
 10
174.407439
 20
259.370795
 30
0.0
 10
174.469901
 20
263.753007
 30
0.0
  0
SPLINE
  5
124
100
AcDbEntity
  8
Layer_1
 62
7
100
AcDbSpline
 70
8
 71
3
 72
8
 73
4
 74
0
 40
0
 40
0
 40
0
 40
0
 40
1
 40
1
 40
1
 40
1
 10
158.543580
 20
293.185595
 30
0.0
 10
153.413964
 20
291.847091
 30
0.0
 10
151.268719
 20
291.108309
 30
0.0
 10
151.268719
 20
291.108309
 30
0.0
  0
SPLINE
  5
125
100
AcDbEntity
  8
Layer_1
 62
7
100
AcDbSpline
 70
8
 71
3
 72
8
 73
4
 74
0
 40
0
 40
0
 40
0
 40
0
 40
1
 40
1
 40
1
 40
1
 10
151.268719
 20
291.108309
 30
0.0
 10
148.161875
 20
289.169294
 30
0.0
 10
147.731245
 20
289.572267
 30
0.0
 10
147.731245
 20
289.572267
 30
0.0
  0
LWPOLYLINE
  5
126
100
AcDbEntity
  8
Layer_1
 62
7
100
AcDbPolyline
 90
2
 70
0
 10
161.305527
 20
292.943415
 30
0.0
 10
158.543580
 20
293.185595
 30
0.0
  0
SPLINE
  5
127
100
AcDbEntity
  8
Layer_1
 62
7
100
AcDbSpline
 70
8
 71
3
 72
8
 73
4
 74
0
 40
0
 40
0
 40
0
 40
0
 40
1
 40
1
 40
1
 40
1
 10
126.682588
 20
270.013834
 30
0.0
 10
125.376481
 20
269.135985
 30
0.0
 10
124.901208
 20
268.369152
 30
0.0
 10
124.901208
 20
268.369152
 30
0.0
  0
SPLINE
  5
128
100
AcDbEntity
  8
Layer_1
 62
7
100
AcDbSpline
 70
8
 71
3
 72
8
 73
4
 74
0
 40
0
 40
0
 40
0
 40
0
 40
1
 40
1
 40
1
 40
1
 10
124.901208
 20
268.369152
 30
0.0
 10
124.128446
 20
266.507570
 30
0.0
 10
124.072738
 20
265.671204
 30
0.0
 10
124.072738
 20
265.671204
 30
0.0
  0
SPLINE
  5
129
100
AcDbEntity
  8
Layer_1
 62
7
100
AcDbSpline
 70
8
 71
3
 72
8
 73
4
 74
0
 40
0
 40
0
 40
0
 40
0
 40
1
 40
1
 40
1
 40
1
 10
124.072738
 20
265.671204
 30
0.0
 10
123.964095
 20
263.915109
 30
0.0
 10
123.766557
 20
262.322967
 30
0.0
 10
123.766557
 20
262.322967
 30
0.0
  0
LWPOLYLINE
  5
12a
100
AcDbEntity
  8
Layer_1
 62
7
100
AcDbPolyline
 90
4
 70
0
 10
147.731245
 20
289.572267
 30
0.0
 10
147.772326
 20
268.209929
 30
0.0
 10
128.508216
 20
270.324756
 30
0.0
 10
126.682588
 20
270.013834
 30
0.0
  0
LWPOLYLINE
  5
12b
100
AcDbEntity
  8
Layer_1
 62
7
100
AcDbPolyline
 90
13
 70
0
 10
123.766557
 20
262.322967
 30
0.0
 10
119.654252
 20
263.021062
 30
0.0
 10
117.320167
 20
262.943629
 30
0.0
 10
117.691136
 20
254.276932
 30
0.0
 10
119.116556
 20
254.073862
 30
0.0
 10
118.826573
 20
247.721894
 30
0.0
 10
126.931872
 20
247.406625
 30
0.0
 10
126.694041
 20
254.575604
 30
0.0
 10
137.961496
 20
254.532141
 30
0.0
 10
138.271625
 20
247.699370
 30
0.0
 10
145.618388
 20
247.609293
 30
0.0
 10
145.555573
 20
254.533718
 30
0.0
 10
147.895191
 20
254.444432
 30
0.0
  0
LWPOLYLINE
  5
12c
100
AcDbEntity
  8
Layer_1
 62
7
100
AcDbPolyline
 90
8
 70
0
 10
161.214037
 20
231.178604
 30
0.0
 10
147.743958
 20
231.303712
 30
0.0
 10
147.743958
 20
233.138645
 30
0.0
 10
145.408587
 20
232.805022
 30
0.0
 10
145.408587
 20
238.643448
 30
0.0
 10
147.702254
 20
238.184714
 30
0.0
 10
147.910770
 20
249.986674
 30
0.0
 10
145.658806
 20
249.986674
 30
0.0
  0
LWPOLYLINE
  5
12d
100
AcDbEntity
  8
Layer_1
 62
7
100
AcDbPolyline
 90
2
 70
0
 10
144.282604
 20
258.035360
 30
0.0
 10
139.445053
 20
258.202172
 30
0.0
  0
LWPOLYLINE
  5
12e
100
AcDbEntity
  8
Layer_1
 62
7
100
AcDbPolyline
 90
2
 70
0
 10
128.101827
 20
257.785141
 30
0.0
 10
122.930650
 20
258.035360
 30
0.0
  0
LWPOLYLINE
  5
12f
100
AcDbEntity
  8
Layer_1
 62
7
100
AcDbPolyline
 90
2
 70
0
 10
147.910770
 20
258.806863
 30
0.0
 10
147.910770
 20
254.448895
 30
0.0
  0
LWPOLYLINE
  5
130
100
AcDbEntity
  8
Layer_1
 62
7
100
AcDbPolyline
 90
2
 70
0
 10
174.165544
 20
258.763969
 30
0.0
 10
174.165544
 20
254.406001
 30
0.0
  0
SPLINE
  5
131
100
AcDbEntity
  8
Layer_1
 62
7
100
AcDbSpline
 70
8
 71
3
 72
8
 73
4
 74
0
 40
0
 40
0
 40
0
 40
0
 40
1
 40
1
 40
1
 40
1
 10
163.719798
 20
293.185445
 30
0.0
 10
168.849421
 20
291.846939
 30
0.0
 10
170.994668
 20
291.108156
 30
0.0
 10
170.994668
 20
291.108156
 30
0.0
  0
SPLINE
  5
132
100
AcDbEntity
  8
Layer_1
 62
7
100
AcDbSpline
 70
8
 71
3
 72
8
 73
4
 74
0
 40
0
 40
0
 40
0
 40
0
 40
1
 40
1
 40
1
 40
1
 10
170.994668
 20
291.108156
 30
0.0
 10
174.101516
 20
289.169138
 30
0.0
 10
174.532147
 20
289.572112
 30
0.0
 10
174.532147
 20
289.572112
 30
0.0
  0
LWPOLYLINE
  5
133
100
AcDbEntity
  8
Layer_1
 62
7
100
AcDbPolyline
 90
2
 70
0
 10
160.957847
 20
292.943264
 30
0.0
 10
163.719798
 20
293.185445
 30
0.0
  0
SPLINE
  5
134
100
AcDbEntity
  8
Layer_1
 62
7
100
AcDbSpline
 70
8
 71
3
 72
8
 73
4
 74
0
 40
0
 40
0
 40
0
 40
0
 40
1
 40
1
 40
1
 40
1
 10
195.580830
 20
270.013655
 30
0.0
 10
196.886937
 20
269.135804
 30
0.0
 10
197.362211
 20
268.368970
 30
0.0
 10
197.362211
 20
268.368970
 30
0.0
  0
SPLINE
  5
135
100
AcDbEntity
  8
Layer_1
 62
7
100
AcDbSpline
 70
8
 71
3
 72
8
 73
4
 74
0
 40
0
 40
0
 40
0
 40
0
 40
1
 40
1
 40
1
 40
1
 10
197.362211
 20
268.368970
 30
0.0
 10
198.134974
 20
266.507386
 30
0.0
 10
198.190682
 20
265.671019
 30
0.0
 10
198.190682
 20
265.671019
 30
0.0
  0
SPLINE
  5
136
100
AcDbEntity
  8
Layer_1
 62
7
100
AcDbSpline
 70
8
 71
3
 72
8
 73
4
 74
0
 40
0
 40
0
 40
0
 40
0
 40
1
 40
1
 40
1
 40
1
 10
198.190682
 20
265.671019
 30
0.0
 10
198.299325
 20
263.914921
 30
0.0
 10
198.496863
 20
262.322778
 30
0.0
 10
198.496863
 20
262.322778
 30
0.0
  0
LWPOLYLINE
  5
137
100
AcDbEntity
  8
Layer_1
 62
7
100
AcDbPolyline
 90
4
 70
0
 10
174.532147
 20
289.572112
 30
0.0
 10
174.491067
 20
268.209747
 30
0.0
 10
193.755199
 20
270.324577
 30
0.0
 10
195.580830
 20
270.013655
 30
0.0
  0
LWPOLYLINE
  5
138
100
AcDbEntity
  8
Layer_1
 62
7
100
AcDbPolyline
 90
13
 70
0
 10
198.496863
 20
262.322778
 30
0.0
 10
202.609176
 20
263.020873
 30
0.0
 10
204.943264
 20
262.943443
 30
0.0
 10
204.572294
 20
254.276736
 30
0.0
 10
203.146873
 20
254.073665
 30
0.0
 10
203.436856
 20
247.721689
 30
0.0
 10
195.331544
 20
247.406420
 30
0.0
 10
195.569376
 20
254.575408
 30
0.0
 10
184.301907
 20
254.531948
 30
0.0
 10
183.991778
 20
247.699168
 30
0.0
 10
176.645008
 20
247.609088
 30
0.0
 10
176.707828
 20
254.533522
 30
0.0
 10
174.368207
 20
254.444232
 30
0.0
  0
LWPOLYLINE
  5
139
100
AcDbEntity
  8
Layer_1
 62
7
100
AcDbPolyline
 90
8
 70
0
 10
161.049337
 20
231.178375
 30
0.0
 10
174.519434
 20
231.303484
 30
0.0
 10
174.519434
 20
233.138419
 30
0.0
 10
176.854807
 20
232.804795
 30
0.0
 10
176.854807
 20
238.643229
 30
0.0
 10
174.561137
 20
238.184494
 30
0.0
 10
174.352622
 20
249.986469
 30
0.0
 10
176.604588
 20
249.986469
 30
0.0
  0
LWPOLYLINE
  5
13a
100
AcDbEntity
  8
Layer_1
 62
7
100
AcDbPolyline
 90
2
 70
0
 10
177.980792
 20
258.035166
 30
0.0
 10
182.818346
 20
258.201977
 30
0.0
  0
LWPOLYLINE
  5
13b
100
AcDbEntity
  8
Layer_1
 62
7
100
AcDbPolyline
 90
2
 70
0
 10
194.161587
 20
257.784946
 30
0.0
 10
199.332770
 20
258.035166
 30
0.0
  0
LWPOLYLINE
  5
13c
100
AcDbEntity
  8
Layer_1
 62
1
100
AcDbPolyline
 90
2
 70
0
 10
90.520710
 20
242.388610
 30
0.0
 10
77.122180
 20
242.388610
 30
0.0
  0
LWPOLYLINE
  5
13d
100
AcDbEntity
  8
Layer_1
 62
7
100
AcDbPolyline
 90
2
 70
0
 10
87.122018
 20
237.748842
 30
0.0
 10
77.073638
 20
237.748842
 30
0.0
  0
LWPOLYLINE
  5
13e
100
AcDbEntity
  8
Layer_1
 62
1
100
AcDbPolyline
 90
2
 70
0
 10
90.472167
 20
237.748842
 30
0.0
 10
87.122018
 20
237.748842
 30
0.0
  0
LWPOLYLINE
  5
13f
100
AcDbEntity
  8
Layer_1
 62
7
100
AcDbPolyline
 90
2
 70
0
 10
77.122180
 20
242.388610
 30
0.0
 10
77.073680
 20
237.748840
 30
0.0
  0
LWPOLYLINE
  5
140
100
AcDbEntity
  8
Layer_1
 62
7
100
AcDbPolyline
 90
3
 70
0
 10
77.122180
 20
242.388610
 30
0.0
 10
77.023780
 20
246.387730
 30
0.0
 10
90.387050
 20
246.387730
 30
0.0
  0
LWPOLYLINE
  5
141
100
AcDbEntity
  8
Layer_1
 62
7
100
AcDbPolyline
 90
3
 70
0
 10
90.520700
 20
242.388610
 30
0.0
 10
90.520700
 20
246.403310
 30
0.0
 10
90.387050
 20
246.387710
 30
0.0
  0
LWPOLYLINE
  5
142
100
AcDbEntity
  8
Layer_1
 62
1
100
AcDbPolyline
 90
2
 70
0
 10
90.520720
 20
223.660310
 30
0.0
 10
77.122190
 20
223.660310
 30
0.0
  0
LWPOLYLINE
  5
143
100
AcDbEntity
  8
Layer_1
 62
7
100
AcDbPolyline
 90
2
 70
0
 10
77.122190
 20
223.660310
 30
0.0
 10
77.073690
 20
228.300080
 30
0.0
  0
LWPOLYLINE
  5
144
100
AcDbEntity
  8
Layer_1
 62
7
100
AcDbPolyline
 90
3
 70
0
 10
77.122190
 20
223.660310
 30
0.0
 10
77.023790
 20
219.661190
 30
0.0
 10
90.387060
 20
219.661190
 30
0.0
  0
LWPOLYLINE
  5
145
100
AcDbEntity
  8
Layer_1
 62
7
100
AcDbPolyline
 90
3
 70
0
 10
90.520710
 20
223.660310
 30
0.0
 10
90.520710
 20
219.645610
 30
0.0
 10
90.387060
 20
219.661210
 30
0.0
  0
LWPOLYLINE
  5
146
100
AcDbEntity
  8
Layer_1
 62
1
100
AcDbPolyline
 90
3
 70
0
 10
90.520710
 20
242.388610
 30
0.0
 10
90.520710
 20
223.660310
 30
0.0
 10
114.820710
 20
223.660310
 30
0.0
  0
LWPOLYLINE
  5
147
100
AcDbEntity
  8
Layer_1
 62
7
100
AcDbPolyline
 90
2
 70
0
 10
90.387060
 20
219.661190
 30
0.0
 10
114.954370
 20
219.661190
 30
0.0
  0
LWPOLYLINE
  5
148
100
AcDbEntity
  8
Layer_1
 62
7
100
AcDbPolyline
 90
3
 70
0
 10
87.160150
 20
237.648330
 30
0.0
 10
87.160150
 20
228.486840
 30
0.0
 10
77.111770
 20
228.486840
 30
0.0
  0
LWPOLYLINE
  5
149
100
AcDbEntity
  8
Layer_1
 62
1
100
AcDbPolyline
 90
2
 70
0
 10
90.510300
 20
228.486840
 30
0.0
 10
87.160150
 20
228.486840
 30
0.0
  0
LWPOLYLINE
  5
14a
100
AcDbEntity
  8
Layer_1
 62
1
100
AcDbPolyline
 90
2
 70
0
 10
114.820710
 20
242.388610
 30
0.0
 10
128.219240
 20
242.388610
 30
0.0
  0
LWPOLYLINE
  5
14b
100
AcDbEntity
  8
Layer_1
 62
7
100
AcDbPolyline
 90
2
 70
0
 10
118.219400
 20
237.748840
 30
0.0
 10
128.267780
 20
237.748840
 30
0.0
  0
LWPOLYLINE
  5
14c
100
AcDbEntity
  8
Layer_1
 62
1
100
AcDbPolyline
 90
2
 70
0
 10
114.869250
 20
237.748840
 30
0.0
 10
118.219400
 20
237.748840
 30
0.0
  0
LWPOLYLINE
  5
14d
100
AcDbEntity
  8
Layer_1
 62
7
100
AcDbPolyline
 90
2
 70
0
 10
128.219240
 20
242.388610
 30
0.0
 10
128.267740
 20
237.748840
 30
0.0
  0
LWPOLYLINE
  5
14e
100
AcDbEntity
  8
Layer_1
 62
7
100
AcDbPolyline
 90
3
 70
0
 10
128.219240
 20
242.388610
 30
0.0
 10
128.317640
 20
246.387730
 30
0.0
 10
114.954370
 20
246.387730
 30
0.0
  0
LWPOLYLINE
  5
14f
100
AcDbEntity
  8
Layer_1
 62
7
100
AcDbPolyline
 90
3
 70
0
 10
114.820720
 20
242.388610
 30
0.0
 10
114.820720
 20
246.403310
 30
0.0
 10
114.954370
 20
246.387710
 30
0.0
  0
LWPOLYLINE
  5
150
100
AcDbEntity
  8
Layer_1
 62
1
100
AcDbPolyline
 90
2
 70
0
 10
114.820700
 20
223.660310
 30
0.0
 10
128.219230
 20
223.660310
 30
0.0
  0
LWPOLYLINE
  5
151
100
AcDbEntity
  8
Layer_1
 62
7
100
AcDbPolyline
 90
2
 70
0
 10
128.219230
 20
223.660310
 30
0.0
 10
128.267730
 20
228.300080
 30
0.0
  0
LWPOLYLINE
  5
152
100
AcDbEntity
  8
Layer_1
 62
7
100
AcDbPolyline
 90
3
 70
0
 10
128.219230
 20
223.660310
 30
0.0
 10
128.317630
 20
219.661190
 30
0.0
 10
114.954360
 20
219.661190
 30
0.0
  0
LWPOLYLINE
  5
153
100
AcDbEntity
  8
Layer_1
 62
7
100
AcDbPolyline
 90
3
 70
0
 10
114.820710
 20
223.660310
 30
0.0
 10
114.820710
 20
219.645610
 30
0.0
 10
114.954360
 20
219.661210
 30
0.0
  0
LWPOLYLINE
  5
154
100
AcDbEntity
  8
Layer_1
 62
1
100
AcDbPolyline
 90
2
 70
0
 10
114.820710
 20
242.388610
 30
0.0
 10
114.820710
 20
223.660310
 30
0.0
  0
LWPOLYLINE
  5
155
100
AcDbEntity
  8
Layer_1
 62
7
100
AcDbPolyline
 90
3
 70
0
 10
118.181270
 20
237.648330
 30
0.0
 10
118.181270
 20
228.486840
 30
0.0
 10
128.229650
 20
228.486840
 30
0.0
  0
LWPOLYLINE
  5
156
100
AcDbEntity
  8
Layer_1
 62
1
100
AcDbPolyline
 90
2
 70
0
 10
114.831120
 20
228.486840
 30
0.0
 10
118.181270
 20
228.486840
 30
0.0
  0
LWPOLYLINE
  5
157
100
AcDbEntity
  8
Layer_1
 62
1
100
AcDbPolyline
 90
2
 70
0
 10
90.520700
 20
242.388610
 30
0.0
 10
114.820720
 20
242.388610
 30
0.0
  0
LWPOLYLINE
  5
158
100
AcDbEntity
  8
Layer_1
 62
7
100
AcDbPolyline
 90
3
 70
0
 10
90.387050
 20
246.387730
 30
0.0
 10
90.387050
 20
277.811634
 30
0.0
 10
105.892120
 20
277.811634
 30
0.0
  0
LWPOLYLINE
  5
159
100
AcDbEntity
  8
Layer_1
 62
7
100
AcDbPolyline
 90
2
 70
0
 10
114.820720
 20
246.403310
 30
0.0
 10
114.820720
 20
277.968843
 30
0.0
  0
LWPOLYLINE
  5
15a
100
AcDbEntity
  8
Layer_1
 62
7
100
AcDbPolyline
 90
2
 70
0
 10
105.892120
 20
277.811634
 30
0.0
 10
114.895900
 20
277.811634
 30
0.0
  0
LWPOLYLINE
  5
15b
100
AcDbEntity
  8
Layer_1
 62
1
100
AcDbPolyline
 90
3
 70
0
 10
58.465742
 20
197.015644
 30
0.0
 10
58.445845
 20
197.383298
 30
0.0
 10
32.139075
 20
197.378350
 30
0.0
  0
LWPOLYLINE
  5
15c
100
AcDbEntity
  8
Layer_1
 62
1
100
AcDbPolyline
 90
3
 70
0
 10
32.022616
 20
192.844022
 30
0.0
 10
32.032643
 20
197.298510
 30
0.0
 10
45.281754
 20
197.238672
 30
0.0
  0
LWPOLYLINE
  5
15d
100
AcDbEntity
  8
Layer_1
 62
1
100
AcDbPolyline
 90
3
 70
0
 10
32.345499
 20
206.708550
 30
0.0
 10
31.961726
 20
206.701969
 30
0.0
 10
31.966891
 20
198.000868
 30
0.0
  0
LWPOLYLINE
  5
15e
100
AcDbEntity
  8
Layer_1
 62
1
100
AcDbPolyline
 90
3
 70
0
 10
36.700016
 20
197.962349
 30
0.0
 10
32.050232
 20
197.965665
 30
0.0
 10
32.112694
 20
202.347877
 30
0.0
  0
LWPOLYLINE
  5
15f
100
AcDbEntity
  8
Layer_1
 62
1
100
AcDbPolyline
 90
3
 70
0
 10
58.833499
 20
206.593050
 30
0.0
 10
58.449726
 20
206.586469
 30
0.0
 10
58.454891
 20
197.885368
 30
0.0
  0
LWPOLYLINE
  5
160
100
AcDbEntity
  8
Layer_1
 62
1
100
AcDbPolyline
 90
3
 70
0
 10
63.188016
 20
197.846849
 30
0.0
 10
58.538232
 20
197.850165
 30
0.0
 10
58.600694
 20
202.232377
 30
0.0
  0
SPLINE
  5
161
100
AcDbEntity
  8
Layer_1
 62
7
100
AcDbSpline
 70
8
 71
3
 72
8
 73
4
 74
0
 40
0
 40
0
 40
0
 40
0
 40
1
 40
1
 40
1
 40
1
 10
42.674373
 20
231.664965
 30
0.0
 10
37.544757
 20
230.326461
 30
0.0
 10
35.399512
 20
229.587679
 30
0.0
 10
35.399512
 20
229.587679
 30
0.0
  0
SPLINE
  5
162
100
AcDbEntity
  8
Layer_1
 62
7
100
AcDbSpline
 70
8
 71
3
 72
8
 73
4
 74
0
 40
0
 40
0
 40
0
 40
0
 40
1
 40
1
 40
1
 40
1
 10
35.399512
 20
229.587679
 30
0.0
 10
32.292668
 20
227.648664
 30
0.0
 10
31.862038
 20
228.051637
 30
0.0
 10
31.862038
 20
228.051637
 30
0.0
  0
LWPOLYLINE
  5
163
100
AcDbEntity
  8
Layer_1
 62
7
100
AcDbPolyline
 90
2
 70
0
 10
45.436320
 20
231.422785
 30
0.0
 10
42.674373
 20
231.664965
 30
0.0
  0
SPLINE
  5
164
100
AcDbEntity
  8
Layer_1
 62
7
100
AcDbSpline
 70
8
 71
3
 72
8
 73
4
 74
0
 40
0
 40
0
 40
0
 40
0
 40
1
 40
1
 40
1
 40
1
 10
10.813381
 20
208.493204
 30
0.0
 10
9.507274
 20
207.615355
 30
0.0
 10
9.032001
 20
206.848522
 30
0.0
 10
9.032001
 20
206.848522
 30
0.0
  0
SPLINE
  5
165
100
AcDbEntity
  8
Layer_1
 62
7
100
AcDbSpline
 70
8
 71
3
 72
8
 73
4
 74
0
 40
0
 40
0
 40
0
 40
0
 40
1
 40
1
 40
1
 40
1
 10
9.032001
 20
206.848522
 30
0.0
 10
8.259239
 20
204.986940
 30
0.0
 10
8.203531
 20
204.150574
 30
0.0
 10
8.203531
 20
204.150574
 30
0.0
  0
SPLINE
  5
166
100
AcDbEntity
  8
Layer_1
 62
7
100
AcDbSpline
 70
8
 71
3
 72
8
 73
4
 74
0
 40
0
 40
0
 40
0
 40
0
 40
1
 40
1
 40
1
 40
1
 10
8.203531
 20
204.150574
 30
0.0
 10
8.094888
 20
202.394479
 30
0.0
 10
7.897350
 20
200.802337
 30
0.0
 10
7.897350
 20
200.802337
 30
0.0
  0
LWPOLYLINE
  5
167
100
AcDbEntity
  8
Layer_1
 62
7
100
AcDbPolyline
 90
4
 70
0
 10
31.862038
 20
228.051637
 30
0.0
 10
31.903119
 20
206.689299
 30
0.0
 10
12.639009
 20
208.804126
 30
0.0
 10
10.813381
 20
208.493204
 30
0.0
  0
LWPOLYLINE
  5
168
100
AcDbEntity
  8
Layer_1
 62
7
100
AcDbPolyline
 90
13
 70
0
 10
7.897350
 20
200.802337
 30
0.0
 10
3.785045
 20
201.500432
 30
0.0
 10
1.450960
 20
201.422999
 30
0.0
 10
1.821929
 20
192.756302
 30
0.0
 10
3.247349
 20
192.553232
 30
0.0
 10
2.957366
 20
186.201264
 30
0.0
 10
11.062665
 20
185.885995
 30
0.0
 10
10.824834
 20
193.054974
 30
0.0
 10
22.092289
 20
193.011511
 30
0.0
 10
22.402418
 20
186.178740
 30
0.0
 10
29.749181
 20
186.088663
 30
0.0
 10
29.686366
 20
193.013088
 30
0.0
 10
32.025984
 20
192.923802
 30
0.0
  0
LWPOLYLINE
  5
169
100
AcDbEntity
  8
Layer_1
 62
7
100
AcDbPolyline
 90
8
 70
0
 10
45.344830
 20
169.657974
 30
0.0
 10
31.874751
 20
169.783082
 30
0.0
 10
31.874751
 20
171.618015
 30
0.0
 10
29.539380
 20
171.284392
 30
0.0
 10
29.539380
 20
177.122818
 30
0.0
 10
31.833047
 20
176.664084
 30
0.0
 10
32.041563
 20
188.466044
 30
0.0
 10
29.789599
 20
188.466044
 30
0.0
  0
LWPOLYLINE
  5
16a
100
AcDbEntity
  8
Layer_1
 62
7
100
AcDbPolyline
 90
2
 70
0
 10
28.413397
 20
196.514730
 30
0.0
 10
23.575846
 20
196.681542
 30
0.0
  0
LWPOLYLINE
  5
16b
100
AcDbEntity
  8
Layer_1
 62
7
100
AcDbPolyline
 90
2
 70
0
 10
12.232620
 20
196.264511
 30
0.0
 10
7.061443
 20
196.514730
 30
0.0
  0
LWPOLYLINE
  5
16c
100
AcDbEntity
  8
Layer_1
 62
7
100
AcDbPolyline
 90
2
 70
0
 10
32.041563
 20
197.286233
 30
0.0
 10
32.041563
 20
192.928265
 30
0.0
  0
LWPOLYLINE
  5
16d
100
AcDbEntity
  8
Layer_1
 62
7
100
AcDbPolyline
 90
2
 70
0
 10
58.296337
 20
197.243339
 30
0.0
 10
58.296337
 20
192.885371
 30
0.0
  0
SPLINE
  5
16e
100
AcDbEntity
  8
Layer_1
 62
7
100
AcDbSpline
 70
8
 71
3
 72
8
 73
4
 74
0
 40
0
 40
0
 40
0
 40
0
 40
1
 40
1
 40
1
 40
1
 10
47.850591
 20
231.664815
 30
0.0
 10
52.980214
 20
230.326309
 30
0.0
 10
55.125461
 20
229.587526
 30
0.0
 10
55.125461
 20
229.587526
 30
0.0
  0
SPLINE
  5
16f
100
AcDbEntity
  8
Layer_1
 62
7
100
AcDbSpline
 70
8
 71
3
 72
8
 73
4
 74
0
 40
0
 40
0
 40
0
 40
0
 40
1
 40
1
 40
1
 40
1
 10
55.125461
 20
229.587526
 30
0.0
 10
58.232309
 20
227.648508
 30
0.0
 10
58.662940
 20
228.051482
 30
0.0
 10
58.662940
 20
228.051482
 30
0.0
  0
LWPOLYLINE
  5
170
100
AcDbEntity
  8
Layer_1
 62
7
100
AcDbPolyline
 90
2
 70
0
 10
45.088640
 20
231.422634
 30
0.0
 10
47.850591
 20
231.664815
 30
0.0
  0
SPLINE
  5
171
100
AcDbEntity
  8
Layer_1
 62
7
100
AcDbSpline
 70
8
 71
3
 72
8
 73
4
 74
0
 40
0
 40
0
 40
0
 40
0
 40
1
 40
1
 40
1
 40
1
 10
79.711623
 20
208.493025
 30
0.0
 10
81.017730
 20
207.615174
 30
0.0
 10
81.493004
 20
206.848340
 30
0.0
 10
81.493004
 20
206.848340
 30
0.0
  0
SPLINE
  5
172
100
AcDbEntity
  8
Layer_1
 62
7
100
AcDbSpline
 70
8
 71
3
 72
8
 73
4
 74
0
 40
0
 40
0
 40
0
 40
0
 40
1
 40
1
 40
1
 40
1
 10
81.493004
 20
206.848340
 30
0.0
 10
82.265767
 20
204.986756
 30
0.0
 10
82.321475
 20
204.150389
 30
0.0
 10
82.321475
 20
204.150389
 30
0.0
  0
SPLINE
  5
173
100
AcDbEntity
  8
Layer_1
 62
7
100
AcDbSpline
 70
8
 71
3
 72
8
 73
4
 74
0
 40
0
 40
0
 40
0
 40
0
 40
1
 40
1
 40
1
 40
1
 10
82.321475
 20
204.150389
 30
0.0
 10
82.430118
 20
202.394291
 30
0.0
 10
82.627656
 20
200.802148
 30
0.0
 10
82.627656
 20
200.802148
 30
0.0
  0
LWPOLYLINE
  5
174
100
AcDbEntity
  8
Layer_1
 62
7
100
AcDbPolyline
 90
4
 70
0
 10
58.662940
 20
228.051482
 30
0.0
 10
58.621860
 20
206.689117
 30
0.0
 10
77.885992
 20
208.803947
 30
0.0
 10
79.711623
 20
208.493025
 30
0.0
  0
LWPOLYLINE
  5
175
100
AcDbEntity
  8
Layer_1
 62
7
100
AcDbPolyline
 90
13
 70
0
 10
82.627656
 20
200.802148
 30
0.0
 10
86.739969
 20
201.500243
 30
0.0
 10
89.074057
 20
201.422813
 30
0.0
 10
88.703087
 20
192.756106
 30
0.0
 10
87.277666
 20
192.553035
 30
0.0
 10
87.567649
 20
186.201059
 30
0.0
 10
79.462337
 20
185.885790
 30
0.0
 10
79.700169
 20
193.054778
 30
0.0
 10
68.432700
 20
193.011318
 30
0.0
 10
68.122571
 20
186.178538
 30
0.0
 10
60.775801
 20
186.088458
 30
0.0
 10
60.838621
 20
193.012892
 30
0.0
 10
58.499000
 20
192.923602
 30
0.0
  0
LWPOLYLINE
  5
176
100
AcDbEntity
  8
Layer_1
 62
7
100
AcDbPolyline
 90
8
 70
0
 10
45.180130
 20
169.657745
 30
0.0
 10
58.650227
 20
169.782854
 30
0.0
 10
58.650227
 20
171.617789
 30
0.0
 10
60.985600
 20
171.284165
 30
0.0
 10
60.985600
 20
177.122599
 30
0.0
 10
58.691930
 20
176.663864
 30
0.0
 10
58.483415
 20
188.465839
 30
0.0
 10
60.735381
 20
188.465839
 30
0.0
  0
LWPOLYLINE
  5
177
100
AcDbEntity
  8
Layer_1
 62
7
100
AcDbPolyline
 90
2
 70
0
 10
62.111585
 20
196.514536
 30
0.0
 10
66.949139
 20
196.681347
 30
0.0
  0
LWPOLYLINE
  5
178
100
AcDbEntity
  8
Layer_1
 62
7
100
AcDbPolyline
 90
2
 70
0
 10
78.292380
 20
196.264316
 30
0.0
 10
83.463563
 20
196.514536
 30
0.0
  0
LWPOLYLINE
  5
179
100
AcDbEntity
  8
Layer_1
 62
1
100
AcDbPolyline
 90
3
 70
0
 10
174.900949
 20
195.558244
 30
0.0
 10
174.881052
 20
195.925898
 30
0.0
 10
148.574282
 20
195.920950
 30
0.0
  0
LWPOLYLINE
  5
17a
100
AcDbEntity
  8
Layer_1
 62
1
100
AcDbPolyline
 90
3
 70
0
 10
148.457823
 20
191.386622
 30
0.0
 10
148.467850
 20
195.841110
 30
0.0
 10
161.716961
 20
195.781272
 30
0.0
  0
LWPOLYLINE
  5
17b
100
AcDbEntity
  8
Layer_1
 62
1
100
AcDbPolyline
 90
3
 70
0
 10
148.780706
 20
205.251150
 30
0.0
 10
148.396933
 20
205.244569
 30
0.0
 10
148.402098
 20
196.543468
 30
0.0
  0
LWPOLYLINE
  5
17c
100
AcDbEntity
  8
Layer_1
 62
1
100
AcDbPolyline
 90
3
 70
0
 10
153.135223
 20
196.504949
 30
0.0
 10
148.485439
 20
196.508265
 30
0.0
 10
148.547901
 20
200.890477
 30
0.0
  0
LWPOLYLINE
  5
17d
100
AcDbEntity
  8
Layer_1
 62
1
100
AcDbPolyline
 90
3
 70
0
 10
175.268706
 20
205.135650
 30
0.0
 10
174.884933
 20
205.129069
 30
0.0
 10
174.890098
 20
196.427968
 30
0.0
  0
LWPOLYLINE
  5
17e
100
AcDbEntity
  8
Layer_1
 62
1
100
AcDbPolyline
 90
3
 70
0
 10
179.623223
 20
196.389449
 30
0.0
 10
174.973439
 20
196.392765
 30
0.0
 10
175.035901
 20
200.774977
 30
0.0
  0
SPLINE
  5
17f
100
AcDbEntity
  8
Layer_1
 62
7
100
AcDbSpline
 70
8
 71
3
 72
8
 73
4
 74
0
 40
0
 40
0
 40
0
 40
0
 40
1
 40
1
 40
1
 40
1
 10
159.109580
 20
230.207565
 30
0.0
 10
153.979964
 20
228.869061
 30
0.0
 10
151.834719
 20
228.130279
 30
0.0
 10
151.834719
 20
228.130279
 30
0.0
  0
SPLINE
  5
180
100
AcDbEntity
  8
Layer_1
 62
7
100
AcDbSpline
 70
8
 71
3
 72
8
 73
4
 74
0
 40
0
 40
0
 40
0
 40
0
 40
1
 40
1
 40
1
 40
1
 10
151.834719
 20
228.130279
 30
0.0
 10
148.727875
 20
226.191264
 30
0.0
 10
148.297245
 20
226.594237
 30
0.0
 10
148.297245
 20
226.594237
 30
0.0
  0
LWPOLYLINE
  5
181
100
AcDbEntity
  8
Layer_1
 62
7
100
AcDbPolyline
 90
2
 70
0
 10
161.871527
 20
229.965385
 30
0.0
 10
159.109580
 20
230.207565
 30
0.0
  0
SPLINE
  5
182
100
AcDbEntity
  8
Layer_1
 62
7
100
AcDbSpline
 70
8
 71
3
 72
8
 73
4
 74
0
 40
0
 40
0
 40
0
 40
0
 40
1
 40
1
 40
1
 40
1
 10
127.248588
 20
207.035804
 30
0.0
 10
125.942481
 20
206.157955
 30
0.0
 10
125.467208
 20
205.391122
 30
0.0
 10
125.467208
 20
205.391122
 30
0.0
  0
SPLINE
  5
183
100
AcDbEntity
  8
Layer_1
 62
7
100
AcDbSpline
 70
8
 71
3
 72
8
 73
4
 74
0
 40
0
 40
0
 40
0
 40
0
 40
1
 40
1
 40
1
 40
1
 10
125.467208
 20
205.391122
 30
0.0
 10
124.694446
 20
203.529540
 30
0.0
 10
124.638738
 20
202.693174
 30
0.0
 10
124.638738
 20
202.693174
 30
0.0
  0
SPLINE
  5
184
100
AcDbEntity
  8
Layer_1
 62
7
100
AcDbSpline
 70
8
 71
3
 72
8
 73
4
 74
0
 40
0
 40
0
 40
0
 40
0
 40
1
 40
1
 40
1
 40
1
 10
124.638738
 20
202.693174
 30
0.0
 10
124.530095
 20
200.937079
 30
0.0
 10
124.332557
 20
199.344937
 30
0.0
 10
124.332557
 20
199.344937
 30
0.0
  0
LWPOLYLINE
  5
185
100
AcDbEntity
  8
Layer_1
 62
7
100
AcDbPolyline
 90
4
 70
0
 10
148.297245
 20
226.594237
 30
0.0
 10
148.338326
 20
205.231899
 30
0.0
 10
129.074216
 20
207.346726
 30
0.0
 10
127.248588
 20
207.035804
 30
0.0
  0
LWPOLYLINE
  5
186
100
AcDbEntity
  8
Layer_1
 62
7
100
AcDbPolyline
 90
13
 70
0
 10
124.332557
 20
199.344937
 30
0.0
 10
120.220252
 20
200.043032
 30
0.0
 10
117.886167
 20
199.965599
 30
0.0
 10
118.257136
 20
191.298902
 30
0.0
 10
119.682556
 20
191.095832
 30
0.0
 10
119.392573
 20
184.743864
 30
0.0
 10
127.497872
 20
184.428595
 30
0.0
 10
127.260041
 20
191.597574
 30
0.0
 10
138.527496
 20
191.554111
 30
0.0
 10
138.837625
 20
184.721340
 30
0.0
 10
146.184388
 20
184.631263
 30
0.0
 10
146.121573
 20
191.555688
 30
0.0
 10
148.461191
 20
191.466402
 30
0.0
  0
LWPOLYLINE
  5
187
100
AcDbEntity
  8
Layer_1
 62
7
100
AcDbPolyline
 90
8
 70
0
 10
161.780037
 20
168.200574
 30
0.0
 10
148.309958
 20
168.325682
 30
0.0
 10
148.309958
 20
170.160615
 30
0.0
 10
145.974587
 20
169.826992
 30
0.0
 10
145.974587
 20
175.665418
 30
0.0
 10
148.268254
 20
175.206684
 30
0.0
 10
148.476770
 20
187.008644
 30
0.0
 10
146.224806
 20
187.008644
 30
0.0
  0
LWPOLYLINE
  5
188
100
AcDbEntity
  8
Layer_1
 62
7
100
AcDbPolyline
 90
2
 70
0
 10
144.848604
 20
195.057330
 30
0.0
 10
140.011053
 20
195.224142
 30
0.0
  0
LWPOLYLINE
  5
189
100
AcDbEntity
  8
Layer_1
 62
7
100
AcDbPolyline
 90
2
 70
0
 10
128.667827
 20
194.807111
 30
0.0
 10
123.496650
 20
195.057330
 30
0.0
  0
LWPOLYLINE
  5
18a
100
AcDbEntity
  8
Layer_1
 62
7
100
AcDbPolyline
 90
2
 70
0
 10
148.476770
 20
195.828833
 30
0.0
 10
148.476770
 20
191.470865
 30
0.0
  0
LWPOLYLINE
  5
18b
100
AcDbEntity
  8
Layer_1
 62
7
100
AcDbPolyline
 90
2
 70
0
 10
174.731544
 20
195.785939
 30
0.0
 10
174.731544
 20
191.427971
 30
0.0
  0
SPLINE
  5
18c
100
AcDbEntity
  8
Layer_1
 62
7
100
AcDbSpline
 70
8
 71
3
 72
8
 73
4
 74
0
 40
0
 40
0
 40
0
 40
0
 40
1
 40
1
 40
1
 40
1
 10
164.285798
 20
230.207414
 30
0.0
 10
169.415421
 20
228.868909
 30
0.0
 10
171.560668
 20
228.130126
 30
0.0
 10
171.560668
 20
228.130126
 30
0.0
  0
SPLINE
  5
18d
100
AcDbEntity
  8
Layer_1
 62
7
100
AcDbSpline
 70
8
 71
3
 72
8
 73
4
 74
0
 40
0
 40
0
 40
0
 40
0
 40
1
 40
1
 40
1
 40
1
 10
171.560668
 20
228.130126
 30
0.0
 10
174.667516
 20
226.191108
 30
0.0
 10
175.098147
 20
226.594082
 30
0.0
 10
175.098147
 20
226.594082
 30
0.0
  0
LWPOLYLINE
  5
18e
100
AcDbEntity
  8
Layer_1
 62
7
100
AcDbPolyline
 90
2
 70
0
 10
161.523847
 20
229.965234
 30
0.0
 10
164.285798
 20
230.207414
 30
0.0
  0
SPLINE
  5
18f
100
AcDbEntity
  8
Layer_1
 62
7
100
AcDbSpline
 70
8
 71
3
 72
8
 73
4
 74
0
 40
0
 40
0
 40
0
 40
0
 40
1
 40
1
 40
1
 40
1
 10
196.146830
 20
207.035625
 30
0.0
 10
197.452937
 20
206.157774
 30
0.0
 10
197.928211
 20
205.390940
 30
0.0
 10
197.928211
 20
205.390940
 30
0.0
  0
SPLINE
  5
190
100
AcDbEntity
  8
Layer_1
 62
7
100
AcDbSpline
 70
8
 71
3
 72
8
 73
4
 74
0
 40
0
 40
0
 40
0
 40
0
 40
1
 40
1
 40
1
 40
1
 10
197.928211
 20
205.390940
 30
0.0
 10
198.700974
 20
203.529356
 30
0.0
 10
198.756682
 20
202.692989
 30
0.0
 10
198.756682
 20
202.692989
 30
0.0
  0
SPLINE
  5
191
100
AcDbEntity
  8
Layer_1
 62
7
100
AcDbSpline
 70
8
 71
3
 72
8
 73
4
 74
0
 40
0
 40
0
 40
0
 40
0
 40
1
 40
1
 40
1
 40
1
 10
198.756682
 20
202.692989
 30
0.0
 10
198.865325
 20
200.936891
 30
0.0
 10
199.062863
 20
199.344748
 30
0.0
 10
199.062863
 20
199.344748
 30
0.0
  0
LWPOLYLINE
  5
192
100
AcDbEntity
  8
Layer_1
 62
7
100
AcDbPolyline
 90
4
 70
0
 10
175.098147
 20
226.594082
 30
0.0
 10
175.057067
 20
205.231717
 30
0.0
 10
194.321199
 20
207.346547
 30
0.0
 10
196.146830
 20
207.035625
 30
0.0
  0
LWPOLYLINE
  5
193
100
AcDbEntity
  8
Layer_1
 62
7
100
AcDbPolyline
 90
13
 70
0
 10
199.062863
 20
199.344748
 30
0.0
 10
203.175176
 20
200.042843
 30
0.0
 10
205.509264
 20
199.965413
 30
0.0
 10
205.138294
 20
191.298706
 30
0.0
 10
203.712873
 20
191.095635
 30
0.0
 10
204.002856
 20
184.743659
 30
0.0
 10
195.897544
 20
184.428390
 30
0.0
 10
196.135376
 20
191.597378
 30
0.0
 10
184.867907
 20
191.553918
 30
0.0
 10
184.557778
 20
184.721138
 30
0.0
 10
177.211008
 20
184.631058
 30
0.0
 10
177.273828
 20
191.555492
 30
0.0
 10
174.934207
 20
191.466202
 30
0.0
  0
LWPOLYLINE
  5
194
100
AcDbEntity
  8
Layer_1
 62
7
100
AcDbPolyline
 90
8
 70
0
 10
161.615337
 20
168.200345
 30
0.0
 10
175.085434
 20
168.325454
 30
0.0
 10
175.085434
 20
170.160389
 30
0.0
 10
177.420807
 20
169.826765
 30
0.0
 10
177.420807
 20
175.665199
 30
0.0
 10
175.127137
 20
175.206464
 30
0.0
 10
174.918622
 20
187.008439
 30
0.0
 10
177.170588
 20
187.008439
 30
0.0
  0
LWPOLYLINE
  5
195
100
AcDbEntity
  8
Layer_1
 62
7
100
AcDbPolyline
 90
2
 70
0
 10
178.546792
 20
195.057136
 30
0.0
 10
183.384346
 20
195.223947
 30
0.0
  0
LWPOLYLINE
  5
196
100
AcDbEntity
  8
Layer_1
 62
7
100
AcDbPolyline
 90
2
 70
0
 10
194.727587
 20
194.806916
 30
0.0
 10
199.898770
 20
195.057136
 30
0.0
  0
LWPOLYLINE
  5
197
100
AcDbEntity
  8
Layer_1
 62
1
100
AcDbPolyline
 90
2
 70
0
 10
91.087410
 20
179.410510
 30
0.0
 10
77.688880
 20
179.410510
 30
0.0
  0
LWPOLYLINE
  5
198
100
AcDbEntity
  8
Layer_1
 62
7
100
AcDbPolyline
 90
2
 70
0
 10
87.688718
 20
174.770742
 30
0.0
 10
77.640338
 20
174.770742
 30
0.0
  0
LWPOLYLINE
  5
199
100
AcDbEntity
  8
Layer_1
 62
1
100
AcDbPolyline
 90
2
 70
0
 10
91.038867
 20
174.770742
 30
0.0
 10
87.688718
 20
174.770742
 30
0.0
  0
LWPOLYLINE
  5
19a
100
AcDbEntity
  8
Layer_1
 62
7
100
AcDbPolyline
 90
2
 70
0
 10
77.688880
 20
179.410510
 30
0.0
 10
77.640380
 20
174.770740
 30
0.0
  0
LWPOLYLINE
  5
19b
100
AcDbEntity
  8
Layer_1
 62
7
100
AcDbPolyline
 90
3
 70
0
 10
77.688880
 20
179.410510
 30
0.0
 10
77.590480
 20
183.409630
 30
0.0
 10
90.953750
 20
183.409630
 30
0.0
  0
LWPOLYLINE
  5
19c
100
AcDbEntity
  8
Layer_1
 62
7
100
AcDbPolyline
 90
3
 70
0
 10
91.087400
 20
179.410510
 30
0.0
 10
91.087400
 20
183.425210
 30
0.0
 10
90.953750
 20
183.409610
 30
0.0
  0
LWPOLYLINE
  5
19d
100
AcDbEntity
  8
Layer_1
 62
1
100
AcDbPolyline
 90
2
 70
0
 10
91.087420
 20
160.682210
 30
0.0
 10
77.688890
 20
160.682210
 30
0.0
  0
LWPOLYLINE
  5
19e
100
AcDbEntity
  8
Layer_1
 62
7
100
AcDbPolyline
 90
2
 70
0
 10
77.688890
 20
160.682210
 30
0.0
 10
77.640390
 20
165.321980
 30
0.0
  0
LWPOLYLINE
  5
19f
100
AcDbEntity
  8
Layer_1
 62
7
100
AcDbPolyline
 90
3
 70
0
 10
77.688890
 20
160.682210
 30
0.0
 10
77.590490
 20
156.683090
 30
0.0
 10
90.953760
 20
156.683090
 30
0.0
  0
LWPOLYLINE
  5
1a0
100
AcDbEntity
  8
Layer_1
 62
7
100
AcDbPolyline
 90
3
 70
0
 10
91.087410
 20
160.682210
 30
0.0
 10
91.087410
 20
156.667510
 30
0.0
 10
90.953760
 20
156.683110
 30
0.0
  0
LWPOLYLINE
  5
1a1
100
AcDbEntity
  8
Layer_1
 62
1
100
AcDbPolyline
 90
3
 70
0
 10
91.087410
 20
179.410510
 30
0.0
 10
91.087410
 20
160.682210
 30
0.0
 10
115.387410
 20
160.682210
 30
0.0
  0
LWPOLYLINE
  5
1a2
100
AcDbEntity
  8
Layer_1
 62
7
100
AcDbPolyline
 90
2
 70
0
 10
90.953760
 20
156.683090
 30
0.0
 10
115.521070
 20
156.683090
 30
0.0
  0
LWPOLYLINE
  5
1a3
100
AcDbEntity
  8
Layer_1
 62
7
100
AcDbPolyline
 90
3
 70
0
 10
87.726850
 20
174.670230
 30
0.0
 10
87.726850
 20
165.508740
 30
0.0
 10
77.678470
 20
165.508740
 30
0.0
  0
LWPOLYLINE
  5
1a4
100
AcDbEntity
  8
Layer_1
 62
1
100
AcDbPolyline
 90
2
 70
0
 10
91.077000
 20
165.508740
 30
0.0
 10
87.726850
 20
165.508740
 30
0.0
  0
LWPOLYLINE
  5
1a5
100
AcDbEntity
  8
Layer_1
 62
1
100
AcDbPolyline
 90
2
 70
0
 10
115.387410
 20
179.410510
 30
0.0
 10
128.785940
 20
179.410510
 30
0.0
  0
LWPOLYLINE
  5
1a6
100
AcDbEntity
  8
Layer_1
 62
7
100
AcDbPolyline
 90
2
 70
0
 10
118.786100
 20
174.770740
 30
0.0
 10
128.834480
 20
174.770740
 30
0.0
  0
LWPOLYLINE
  5
1a7
100
AcDbEntity
  8
Layer_1
 62
1
100
AcDbPolyline
 90
2
 70
0
 10
115.435950
 20
174.770740
 30
0.0
 10
118.786100
 20
174.770740
 30
0.0
  0
LWPOLYLINE
  5
1a8
100
AcDbEntity
  8
Layer_1
 62
7
100
AcDbPolyline
 90
2
 70
0
 10
128.785940
 20
179.410510
 30
0.0
 10
128.834440
 20
174.770740
 30
0.0
  0
LWPOLYLINE
  5
1a9
100
AcDbEntity
  8
Layer_1
 62
7
100
AcDbPolyline
 90
3
 70
0
 10
128.785940
 20
179.410510
 30
0.0
 10
128.884340
 20
183.409630
 30
0.0
 10
115.521070
 20
183.409630
 30
0.0
  0
LWPOLYLINE
  5
1aa
100
AcDbEntity
  8
Layer_1
 62
7
100
AcDbPolyline
 90
3
 70
0
 10
115.387420
 20
179.410510
 30
0.0
 10
115.387420
 20
183.425210
 30
0.0
 10
115.521070
 20
183.409610
 30
0.0
  0
LWPOLYLINE
  5
1ab
100
AcDbEntity
  8
Layer_1
 62
1
100
AcDbPolyline
 90
2
 70
0
 10
115.387400
 20
160.682210
 30
0.0
 10
128.785930
 20
160.682210
 30
0.0
  0
LWPOLYLINE
  5
1ac
100
AcDbEntity
  8
Layer_1
 62
7
100
AcDbPolyline
 90
2
 70
0
 10
128.785930
 20
160.682210
 30
0.0
 10
128.834430
 20
165.321980
 30
0.0
  0
LWPOLYLINE
  5
1ad
100
AcDbEntity
  8
Layer_1
 62
7
100
AcDbPolyline
 90
3
 70
0
 10
128.785930
 20
160.682210
 30
0.0
 10
128.884330
 20
156.683090
 30
0.0
 10
115.521060
 20
156.683090
 30
0.0
  0
LWPOLYLINE
  5
1ae
100
AcDbEntity
  8
Layer_1
 62
7
100
AcDbPolyline
 90
3
 70
0
 10
115.387410
 20
160.682210
 30
0.0
 10
115.387410
 20
156.667510
 30
0.0
 10
115.521060
 20
156.683110
 30
0.0
  0
LWPOLYLINE
  5
1af
100
AcDbEntity
  8
Layer_1
 62
1
100
AcDbPolyline
 90
2
 70
0
 10
115.387410
 20
179.410510
 30
0.0
 10
115.387410
 20
160.682210
 30
0.0
  0
LWPOLYLINE
  5
1b0
100
AcDbEntity
  8
Layer_1
 62
7
100
AcDbPolyline
 90
3
 70
0
 10
118.747970
 20
174.670230
 30
0.0
 10
118.747970
 20
165.508740
 30
0.0
 10
128.796350
 20
165.508740
 30
0.0
  0
LWPOLYLINE
  5
1b1
100
AcDbEntity
  8
Layer_1
 62
1
100
AcDbPolyline
 90
2
 70
0
 10
115.397820
 20
165.508740
 30
0.0
 10
118.747970
 20
165.508740
 30
0.0
  0
LWPOLYLINE
  5
1b2
100
AcDbEntity
  8
Layer_1
 62
1
100
AcDbPolyline
 90
2
 70
0
 10
91.087400
 20
179.410510
 30
0.0
 10
115.387420
 20
179.410510
 30
0.0
  0
LWPOLYLINE
  5
1b3
100
AcDbEntity
  8
Layer_1
 62
7
100
AcDbPolyline
 90
3
 70
0
 10
90.953750
 20
183.409630
 30
0.0
 10
90.953750
 20
214.833534
 30
0.0
 10
106.458820
 20
214.833534
 30
0.0
  0
LWPOLYLINE
  5
1b4
100
AcDbEntity
  8
Layer_1
 62
7
100
AcDbPolyline
 90
2
 70
0
 10
115.387420
 20
183.425210
 30
0.0
 10
115.387420
 20
214.990743
 30
0.0
  0
LWPOLYLINE
  5
1b5
100
AcDbEntity
  8
Layer_1
 62
7
100
AcDbPolyline
 90
2
 70
0
 10
106.458820
 20
214.833534
 30
0.0
 10
115.462600
 20
214.833534
 30
0.0
  0
LWPOLYLINE
  5
1b6
100
AcDbEntity
  8
Layer_1
 62
1
100
AcDbPolyline
 90
3
 70
0
 10
58.506225
 20
133.930744
 30
0.0
 10
58.486328
 20
134.298398
 30
0.0
 10
32.179558
 20
134.293450
 30
0.0
  0
LWPOLYLINE
  5
1b7
100
AcDbEntity
  8
Layer_1
 62
1
100
AcDbPolyline
 90
3
 70
0
 10
32.063099
 20
129.759122
 30
0.0
 10
32.073126
 20
134.213610
 30
0.0
 10
45.322237
 20
134.153772
 30
0.0
  0
LWPOLYLINE
  5
1b8
100
AcDbEntity
  8
Layer_1
 62
1
100
AcDbPolyline
 90
3
 70
0
 10
32.385982
 20
143.623650
 30
0.0
 10
32.002209
 20
143.617069
 30
0.0
 10
32.007374
 20
134.915968
 30
0.0
  0
LWPOLYLINE
  5
1b9
100
AcDbEntity
  8
Layer_1
 62
1
100
AcDbPolyline
 90
3
 70
0
 10
36.740499
 20
134.877449
 30
0.0
 10
32.090715
 20
134.880765
 30
0.0
 10
32.153177
 20
139.262977
 30
0.0
  0
LWPOLYLINE
  5
1ba
100
AcDbEntity
  8
Layer_1
 62
1
100
AcDbPolyline
 90
3
 70
0
 10
58.873982
 20
143.508150
 30
0.0
 10
58.490209
 20
143.501569
 30
0.0
 10
58.495374
 20
134.800468
 30
0.0
  0
LWPOLYLINE
  5
1bb
100
AcDbEntity
  8
Layer_1
 62
1
100
AcDbPolyline
 90
3
 70
0
 10
63.228499
 20
134.761949
 30
0.0
 10
58.578715
 20
134.765265
 30
0.0
 10
58.641177
 20
139.147477
 30
0.0
  0
SPLINE
  5
1bc
100
AcDbEntity
  8
Layer_1
 62
7
100
AcDbSpline
 70
8
 71
3
 72
8
 73
4
 74
0
 40
0
 40
0
 40
0
 40
0
 40
1
 40
1
 40
1
 40
1
 10
42.714856
 20
168.580065
 30
0.0
 10
37.585240
 20
167.241561
 30
0.0
 10
35.439995
 20
166.502779
 30
0.0
 10
35.439995
 20
166.502779
 30
0.0
  0
SPLINE
  5
1bd
100
AcDbEntity
  8
Layer_1
 62
7
100
AcDbSpline
 70
8
 71
3
 72
8
 73
4
 74
0
 40
0
 40
0
 40
0
 40
0
 40
1
 40
1
 40
1
 40
1
 10
35.439995
 20
166.502779
 30
0.0
 10
32.333151
 20
164.563764
 30
0.0
 10
31.902521
 20
164.966737
 30
0.0
 10
31.902521
 20
164.966737
 30
0.0
  0
LWPOLYLINE
  5
1be
100
AcDbEntity
  8
Layer_1
 62
7
100
AcDbPolyline
 90
2
 70
0
 10
45.476803
 20
168.337885
 30
0.0
 10
42.714856
 20
168.580065
 30
0.0
  0
SPLINE
  5
1bf
100
AcDbEntity
  8
Layer_1
 62
7
100
AcDbSpline
 70
8
 71
3
 72
8
 73
4
 74
0
 40
0
 40
0
 40
0
 40
0
 40
1
 40
1
 40
1
 40
1
 10
10.853864
 20
145.408304
 30
0.0
 10
9.547757
 20
144.530455
 30
0.0
 10
9.072484
 20
143.763622
 30
0.0
 10
9.072484
 20
143.763622
 30
0.0
  0
SPLINE
  5
1c0
100
AcDbEntity
  8
Layer_1
 62
7
100
AcDbSpline
 70
8
 71
3
 72
8
 73
4
 74
0
 40
0
 40
0
 40
0
 40
0
 40
1
 40
1
 40
1
 40
1
 10
9.072484
 20
143.763622
 30
0.0
 10
8.299722
 20
141.902040
 30
0.0
 10
8.244014
 20
141.065674
 30
0.0
 10
8.244014
 20
141.065674
 30
0.0
  0
SPLINE
  5
1c1
100
AcDbEntity
  8
Layer_1
 62
7
100
AcDbSpline
 70
8
 71
3
 72
8
 73
4
 74
0
 40
0
 40
0
 40
0
 40
0
 40
1
 40
1
 40
1
 40
1
 10
8.244014
 20
141.065674
 30
0.0
 10
8.135371
 20
139.309579
 30
0.0
 10
7.937833
 20
137.717437
 30
0.0
 10
7.937833
 20
137.717437
 30
0.0
  0
LWPOLYLINE
  5
1c2
100
AcDbEntity
  8
Layer_1
 62
7
100
AcDbPolyline
 90
4
 70
0
 10
31.902521
 20
164.966737
 30
0.0
 10
31.943602
 20
143.604399
 30
0.0
 10
12.679492
 20
145.719226
 30
0.0
 10
10.853864
 20
145.408304
 30
0.0
  0
LWPOLYLINE
  5
1c3
100
AcDbEntity
  8
Layer_1
 62
7
100
AcDbPolyline
 90
13
 70
0
 10
7.937833
 20
137.717437
 30
0.0
 10
3.825528
 20
138.415532
 30
0.0
 10
1.491443
 20
138.338099
 30
0.0
 10
1.862412
 20
129.671402
 30
0.0
 10
3.287832
 20
129.468332
 30
0.0
 10
2.997849
 20
123.116364
 30
0.0
 10
11.103148
 20
122.801095
 30
0.0
 10
10.865317
 20
129.970074
 30
0.0
 10
22.132772
 20
129.926611
 30
0.0
 10
22.442901
 20
123.093840
 30
0.0
 10
29.789664
 20
123.003763
 30
0.0
 10
29.726849
 20
129.928188
 30
0.0
 10
32.066467
 20
129.838902
 30
0.0
  0
LWPOLYLINE
  5
1c4
100
AcDbEntity
  8
Layer_1
 62
7
100
AcDbPolyline
 90
8
 70
0
 10
45.385313
 20
106.573074
 30
0.0
 10
31.915234
 20
106.698182
 30
0.0
 10
31.915234
 20
108.533115
 30
0.0
 10
29.579863
 20
108.199492
 30
0.0
 10
29.579863
 20
114.037918
 30
0.0
 10
31.873530
 20
113.579184
 30
0.0
 10
32.082046
 20
125.381144
 30
0.0
 10
29.830082
 20
125.381144
 30
0.0
  0
LWPOLYLINE
  5
1c5
100
AcDbEntity
  8
Layer_1
 62
7
100
AcDbPolyline
 90
2
 70
0
 10
28.453880
 20
133.429830
 30
0.0
 10
23.616329
 20
133.596642
 30
0.0
  0
LWPOLYLINE
  5
1c6
100
AcDbEntity
  8
Layer_1
 62
7
100
AcDbPolyline
 90
2
 70
0
 10
12.273103
 20
133.179611
 30
0.0
 10
7.101926
 20
133.429830
 30
0.0
  0
LWPOLYLINE
  5
1c7
100
AcDbEntity
  8
Layer_1
 62
7
100
AcDbPolyline
 90
2
 70
0
 10
32.082046
 20
134.201333
 30
0.0
 10
32.082046
 20
129.843365
 30
0.0
  0
LWPOLYLINE
  5
1c8
100
AcDbEntity
  8
Layer_1
 62
7
100
AcDbPolyline
 90
2
 70
0
 10
58.336820
 20
134.158439
 30
0.0
 10
58.336820
 20
129.800471
 30
0.0
  0
SPLINE
  5
1c9
100
AcDbEntity
  8
Layer_1
 62
7
100
AcDbSpline
 70
8
 71
3
 72
8
 73
4
 74
0
 40
0
 40
0
 40
0
 40
0
 40
1
 40
1
 40
1
 40
1
 10
47.891074
 20
168.579915
 30
0.0
 10
53.020697
 20
167.241409
 30
0.0
 10
55.165944
 20
166.502626
 30
0.0
 10
55.165944
 20
166.502626
 30
0.0
  0
SPLINE
  5
1ca
100
AcDbEntity
  8
Layer_1
 62
7
100
AcDbSpline
 70
8
 71
3
 72
8
 73
4
 74
0
 40
0
 40
0
 40
0
 40
0
 40
1
 40
1
 40
1
 40
1
 10
55.165944
 20
166.502626
 30
0.0
 10
58.272792
 20
164.563608
 30
0.0
 10
58.703423
 20
164.966582
 30
0.0
 10
58.703423
 20
164.966582
 30
0.0
  0
LWPOLYLINE
  5
1cb
100
AcDbEntity
  8
Layer_1
 62
7
100
AcDbPolyline
 90
2
 70
0
 10
45.129123
 20
168.337734
 30
0.0
 10
47.891074
 20
168.579915
 30
0.0
  0
SPLINE
  5
1cc
100
AcDbEntity
  8
Layer_1
 62
7
100
AcDbSpline
 70
8
 71
3
 72
8
 73
4
 74
0
 40
0
 40
0
 40
0
 40
0
 40
1
 40
1
 40
1
 40
1
 10
79.752106
 20
145.408125
 30
0.0
 10
81.058213
 20
144.530274
 30
0.0
 10
81.533487
 20
143.763440
 30
0.0
 10
81.533487
 20
143.763440
 30
0.0
  0
SPLINE
  5
1cd
100
AcDbEntity
  8
Layer_1
 62
7
100
AcDbSpline
 70
8
 71
3
 72
8
 73
4
 74
0
 40
0
 40
0
 40
0
 40
0
 40
1
 40
1
 40
1
 40
1
 10
81.533487
 20
143.763440
 30
0.0
 10
82.306250
 20
141.901856
 30
0.0
 10
82.361958
 20
141.065489
 30
0.0
 10
82.361958
 20
141.065489
 30
0.0
  0
SPLINE
  5
1ce
100
AcDbEntity
  8
Layer_1
 62
7
100
AcDbSpline
 70
8
 71
3
 72
8
 73
4
 74
0
 40
0
 40
0
 40
0
 40
0
 40
1
 40
1
 40
1
 40
1
 10
82.361958
 20
141.065489
 30
0.0
 10
82.470601
 20
139.309391
 30
0.0
 10
82.668139
 20
137.717248
 30
0.0
 10
82.668139
 20
137.717248
 30
0.0
  0
LWPOLYLINE
  5
1cf
100
AcDbEntity
  8
Layer_1
 62
7
100
AcDbPolyline
 90
4
 70
0
 10
58.703423
 20
164.966582
 30
0.0
 10
58.662343
 20
143.604217
 30
0.0
 10
77.926475
 20
145.719047
 30
0.0
 10
79.752106
 20
145.408125
 30
0.0
  0
LWPOLYLINE
  5
1d0
100
AcDbEntity
  8
Layer_1
 62
7
100
AcDbPolyline
 90
13
 70
0
 10
82.668139
 20
137.717248
 30
0.0
 10
86.780452
 20
138.415343
 30
0.0
 10
89.114540
 20
138.337913
 30
0.0
 10
88.743570
 20
129.671206
 30
0.0
 10
87.318149
 20
129.468135
 30
0.0
 10
87.608132
 20
123.116159
 30
0.0
 10
79.502820
 20
122.800890
 30
0.0
 10
79.740652
 20
129.969878
 30
0.0
 10
68.473183
 20
129.926418
 30
0.0
 10
68.163054
 20
123.093638
 30
0.0
 10
60.816284
 20
123.003558
 30
0.0
 10
60.879104
 20
129.927992
 30
0.0
 10
58.539483
 20
129.838702
 30
0.0
  0
LWPOLYLINE
  5
1d1
100
AcDbEntity
  8
Layer_1
 62
7
100
AcDbPolyline
 90
8
 70
0
 10
45.220613
 20
106.572845
 30
0.0
 10
58.690710
 20
106.697954
 30
0.0
 10
58.690710
 20
108.532889
 30
0.0
 10
61.026083
 20
108.199265
 30
0.0
 10
61.026083
 20
114.037699
 30
0.0
 10
58.732413
 20
113.578964
 30
0.0
 10
58.523898
 20
125.380939
 30
0.0
 10
60.775864
 20
125.380939
 30
0.0
  0
LWPOLYLINE
  5
1d2
100
AcDbEntity
  8
Layer_1
 62
7
100
AcDbPolyline
 90
2
 70
0
 10
62.152068
 20
133.429636
 30
0.0
 10
66.989622
 20
133.596447
 30
0.0
  0
LWPOLYLINE
  5
1d3
100
AcDbEntity
  8
Layer_1
 62
7
100
AcDbPolyline
 90
2
 70
0
 10
78.332863
 20
133.179416
 30
0.0
 10
83.504046
 20
133.429636
 30
0.0
  0
LWPOLYLINE
  5
1d4
100
AcDbEntity
  8
Layer_1
 62
1
100
AcDbPolyline
 90
3
 70
0
 10
174.941949
 20
132.473744
 30
0.0
 10
174.922052
 20
132.841398
 30
0.0
 10
148.615282
 20
132.836450
 30
0.0
  0
LWPOLYLINE
  5
1d5
100
AcDbEntity
  8
Layer_1
 62
1
100
AcDbPolyline
 90
3
 70
0
 10
148.498823
 20
128.302122
 30
0.0
 10
148.508850
 20
132.756610
 30
0.0
 10
161.757961
 20
132.696772
 30
0.0
  0
LWPOLYLINE
  5
1d6
100
AcDbEntity
  8
Layer_1
 62
1
100
AcDbPolyline
 90
3
 70
0
 10
148.821706
 20
142.166650
 30
0.0
 10
148.437933
 20
142.160069
 30
0.0
 10
148.443098
 20
133.458968
 30
0.0
  0
LWPOLYLINE
  5
1d7
100
AcDbEntity
  8
Layer_1
 62
1
100
AcDbPolyline
 90
3
 70
0
 10
153.176223
 20
133.420449
 30
0.0
 10
148.526439
 20
133.423765
 30
0.0
 10
148.588901
 20
137.805977
 30
0.0
  0
LWPOLYLINE
  5
1d8
100
AcDbEntity
  8
Layer_1
 62
1
100
AcDbPolyline
 90
3
 70
0
 10
175.309706
 20
142.051150
 30
0.0
 10
174.925933
 20
142.044569
 30
0.0
 10
174.931098
 20
133.343468
 30
0.0
  0
LWPOLYLINE
  5
1d9
100
AcDbEntity
  8
Layer_1
 62
1
100
AcDbPolyline
 90
3
 70
0
 10
179.664223
 20
133.304949
 30
0.0
 10
175.014439
 20
133.308265
 30
0.0
 10
175.076901
 20
137.690477
 30
0.0
  0
SPLINE
  5
1da
100
AcDbEntity
  8
Layer_1
 62
7
100
AcDbSpline
 70
8
 71
3
 72
8
 73
4
 74
0
 40
0
 40
0
 40
0
 40
0
 40
1
 40
1
 40
1
 40
1
 10
159.150580
 20
167.123065
 30
0.0
 10
154.020964
 20
165.784561
 30
0.0
 10
151.875719
 20
165.045779
 30
0.0
 10
151.875719
 20
165.045779
 30
0.0
  0
SPLINE
  5
1db
100
AcDbEntity
  8
Layer_1
 62
7
100
AcDbSpline
 70
8
 71
3
 72
8
 73
4
 74
0
 40
0
 40
0
 40
0
 40
0
 40
1
 40
1
 40
1
 40
1
 10
151.875719
 20
165.045779
 30
0.0
 10
148.768875
 20
163.106764
 30
0.0
 10
148.338245
 20
163.509737
 30
0.0
 10
148.338245
 20
163.509737
 30
0.0
  0
LWPOLYLINE
  5
1dc
100
AcDbEntity
  8
Layer_1
 62
7
100
AcDbPolyline
 90
2
 70
0
 10
161.912527
 20
166.880885
 30
0.0
 10
159.150580
 20
167.123065
 30
0.0
  0
SPLINE
  5
1dd
100
AcDbEntity
  8
Layer_1
 62
7
100
AcDbSpline
 70
8
 71
3
 72
8
 73
4
 74
0
 40
0
 40
0
 40
0
 40
0
 40
1
 40
1
 40
1
 40
1
 10
127.289588
 20
143.951304
 30
0.0
 10
125.983481
 20
143.073455
 30
0.0
 10
125.508208
 20
142.306622
 30
0.0
 10
125.508208
 20
142.306622
 30
0.0
  0
SPLINE
  5
1de
100
AcDbEntity
  8
Layer_1
 62
7
100
AcDbSpline
 70
8
 71
3
 72
8
 73
4
 74
0
 40
0
 40
0
 40
0
 40
0
 40
1
 40
1
 40
1
 40
1
 10
125.508208
 20
142.306622
 30
0.0
 10
124.735446
 20
140.445040
 30
0.0
 10
124.679738
 20
139.608674
 30
0.0
 10
124.679738
 20
139.608674
 30
0.0
  0
SPLINE
  5
1df
100
AcDbEntity
  8
Layer_1
 62
7
100
AcDbSpline
 70
8
 71
3
 72
8
 73
4
 74
0
 40
0
 40
0
 40
0
 40
0
 40
1
 40
1
 40
1
 40
1
 10
124.679738
 20
139.608674
 30
0.0
 10
124.571095
 20
137.852579
 30
0.0
 10
124.373557
 20
136.260437
 30
0.0
 10
124.373557
 20
136.260437
 30
0.0
  0
LWPOLYLINE
  5
1e0
100
AcDbEntity
  8
Layer_1
 62
7
100
AcDbPolyline
 90
4
 70
0
 10
148.338245
 20
163.509737
 30
0.0
 10
148.379326
 20
142.147399
 30
0.0
 10
129.115216
 20
144.262226
 30
0.0
 10
127.289588
 20
143.951304
 30
0.0
  0
LWPOLYLINE
  5
1e1
100
AcDbEntity
  8
Layer_1
 62
7
100
AcDbPolyline
 90
13
 70
0
 10
124.373557
 20
136.260437
 30
0.0
 10
120.261252
 20
136.958532
 30
0.0
 10
117.927167
 20
136.881099
 30
0.0
 10
118.298136
 20
128.214402
 30
0.0
 10
119.723556
 20
128.011332
 30
0.0
 10
119.433573
 20
121.659364
 30
0.0
 10
127.538872
 20
121.344095
 30
0.0
 10
127.301041
 20
128.513074
 30
0.0
 10
138.568496
 20
128.469611
 30
0.0
 10
138.878625
 20
121.636840
 30
0.0
 10
146.225388
 20
121.546763
 30
0.0
 10
146.162573
 20
128.471188
 30
0.0
 10
148.502191
 20
128.381902
 30
0.0
  0
LWPOLYLINE
  5
1e2
100
AcDbEntity
  8
Layer_1
 62
7
100
AcDbPolyline
 90
8
 70
0
 10
161.821037
 20
105.116074
 30
0.0
 10
148.350958
 20
105.241182
 30
0.0
 10
148.350958
 20
107.076115
 30
0.0
 10
146.015587
 20
106.742492
 30
0.0
 10
146.015587
 20
112.580918
 30
0.0
 10
148.309254
 20
112.122184
 30
0.0
 10
148.517770
 20
123.924144
 30
0.0
 10
146.265806
 20
123.924144
 30
0.0
  0
LWPOLYLINE
  5
1e3
100
AcDbEntity
  8
Layer_1
 62
7
100
AcDbPolyline
 90
2
 70
0
 10
144.889604
 20
131.972830
 30
0.0
 10
140.052053
 20
132.139642
 30
0.0
  0
LWPOLYLINE
  5
1e4
100
AcDbEntity
  8
Layer_1
 62
7
100
AcDbPolyline
 90
2
 70
0
 10
128.708827
 20
131.722611
 30
0.0
 10
123.537650
 20
131.972830
 30
0.0
  0
LWPOLYLINE
  5
1e5
100
AcDbEntity
  8
Layer_1
 62
7
100
AcDbPolyline
 90
2
 70
0
 10
148.517770
 20
132.744333
 30
0.0
 10
148.517770
 20
128.386365
 30
0.0
  0
LWPOLYLINE
  5
1e6
100
AcDbEntity
  8
Layer_1
 62
7
100
AcDbPolyline
 90
2
 70
0
 10
174.772544
 20
132.701439
 30
0.0
 10
174.772544
 20
128.343471
 30
0.0
  0
SPLINE
  5
1e7
100
AcDbEntity
  8
Layer_1
 62
7
100
AcDbSpline
 70
8
 71
3
 72
8
 73
4
 74
0
 40
0
 40
0
 40
0
 40
0
 40
1
 40
1
 40
1
 40
1
 10
164.326798
 20
167.122915
 30
0.0
 10
169.456421
 20
165.784409
 30
0.0
 10
171.601668
 20
165.045626
 30
0.0
 10
171.601668
 20
165.045626
 30
0.0
  0
SPLINE
  5
1e8
100
AcDbEntity
  8
Layer_1
 62
7
100
AcDbSpline
 70
8
 71
3
 72
8
 73
4
 74
0
 40
0
 40
0
 40
0
 40
0
 40
1
 40
1
 40
1
 40
1
 10
171.601668
 20
165.045626
 30
0.0
 10
174.708516
 20
163.106608
 30
0.0
 10
175.139147
 20
163.509582
 30
0.0
 10
175.139147
 20
163.509582
 30
0.0
  0
LWPOLYLINE
  5
1e9
100
AcDbEntity
  8
Layer_1
 62
7
100
AcDbPolyline
 90
2
 70
0
 10
161.564847
 20
166.880734
 30
0.0
 10
164.326798
 20
167.122915
 30
0.0
  0
SPLINE
  5
1ea
100
AcDbEntity
  8
Layer_1
 62
7
100
AcDbSpline
 70
8
 71
3
 72
8
 73
4
 74
0
 40
0
 40
0
 40
0
 40
0
 40
1
 40
1
 40
1
 40
1
 10
196.187830
 20
143.951125
 30
0.0
 10
197.493937
 20
143.073274
 30
0.0
 10
197.969211
 20
142.306440
 30
0.0
 10
197.969211
 20
142.306440
 30
0.0
  0
SPLINE
  5
1eb
100
AcDbEntity
  8
Layer_1
 62
7
100
AcDbSpline
 70
8
 71
3
 72
8
 73
4
 74
0
 40
0
 40
0
 40
0
 40
0
 40
1
 40
1
 40
1
 40
1
 10
197.969211
 20
142.306440
 30
0.0
 10
198.741974
 20
140.444856
 30
0.0
 10
198.797682
 20
139.608489
 30
0.0
 10
198.797682
 20
139.608489
 30
0.0
  0
SPLINE
  5
1ec
100
AcDbEntity
  8
Layer_1
 62
7
100
AcDbSpline
 70
8
 71
3
 72
8
 73
4
 74
0
 40
0
 40
0
 40
0
 40
0
 40
1
 40
1
 40
1
 40
1
 10
198.797682
 20
139.608489
 30
0.0
 10
198.906325
 20
137.852391
 30
0.0
 10
199.103863
 20
136.260248
 30
0.0
 10
199.103863
 20
136.260248
 30
0.0
  0
LWPOLYLINE
  5
1ed
100
AcDbEntity
  8
Layer_1
 62
7
100
AcDbPolyline
 90
4
 70
0
 10
175.139147
 20
163.509582
 30
0.0
 10
175.098067
 20
142.147217
 30
0.0
 10
194.362199
 20
144.262047
 30
0.0
 10
196.187830
 20
143.951125
 30
0.0
  0
LWPOLYLINE
  5
1ee
100
AcDbEntity
  8
Layer_1
 62
7
100
AcDbPolyline
 90
13
 70
0
 10
199.103863
 20
136.260248
 30
0.0
 10
203.216176
 20
136.958343
 30
0.0
 10
205.550264
 20
136.880913
 30
0.0
 10
205.179294
 20
128.214206
 30
0.0
 10
203.753873
 20
128.011135
 30
0.0
 10
204.043856
 20
121.659159
 30
0.0
 10
195.938544
 20
121.343890
 30
0.0
 10
196.176376
 20
128.512878
 30
0.0
 10
184.908907
 20
128.469418
 30
0.0
 10
184.598778
 20
121.636638
 30
0.0
 10
177.252008
 20
121.546558
 30
0.0
 10
177.314828
 20
128.470992
 30
0.0
 10
174.975207
 20
128.381702
 30
0.0
  0
LWPOLYLINE
  5
1ef
100
AcDbEntity
  8
Layer_1
 62
7
100
AcDbPolyline
 90
8
 70
0
 10
161.656337
 20
105.115845
 30
0.0
 10
175.126434
 20
105.240954
 30
0.0
 10
175.126434
 20
107.075889
 30
0.0
 10
177.461807
 20
106.742265
 30
0.0
 10
177.461807
 20
112.580699
 30
0.0
 10
175.168137
 20
112.121964
 30
0.0
 10
174.959622
 20
123.923939
 30
0.0
 10
177.211588
 20
123.923939
 30
0.0
  0
LWPOLYLINE
  5
1f0
100
AcDbEntity
  8
Layer_1
 62
7
100
AcDbPolyline
 90
2
 70
0
 10
178.587792
 20
131.972636
 30
0.0
 10
183.425346
 20
132.139447
 30
0.0
  0
LWPOLYLINE
  5
1f1
100
AcDbEntity
  8
Layer_1
 62
7
100
AcDbPolyline
 90
2
 70
0
 10
194.768587
 20
131.722416
 30
0.0
 10
199.939770
 20
131.972636
 30
0.0
  0
LWPOLYLINE
  5
1f2
100
AcDbEntity
  8
Layer_1
 62
1
100
AcDbPolyline
 90
2
 70
0
 10
91.127910
 20
116.326010
 30
0.0
 10
77.729380
 20
116.326010
 30
0.0
  0
LWPOLYLINE
  5
1f3
100
AcDbEntity
  8
Layer_1
 62
7
100
AcDbPolyline
 90
2
 70
0
 10
87.729218
 20
111.686242
 30
0.0
 10
77.680838
 20
111.686242
 30
0.0
  0
LWPOLYLINE
  5
1f4
100
AcDbEntity
  8
Layer_1
 62
1
100
AcDbPolyline
 90
2
 70
0
 10
91.079367
 20
111.686242
 30
0.0
 10
87.729218
 20
111.686242
 30
0.0
  0
LWPOLYLINE
  5
1f5
100
AcDbEntity
  8
Layer_1
 62
7
100
AcDbPolyline
 90
2
 70
0
 10
77.729380
 20
116.326010
 30
0.0
 10
77.680880
 20
111.686240
 30
0.0
  0
LWPOLYLINE
  5
1f6
100
AcDbEntity
  8
Layer_1
 62
7
100
AcDbPolyline
 90
3
 70
0
 10
77.729380
 20
116.326010
 30
0.0
 10
77.630980
 20
120.325130
 30
0.0
 10
90.994250
 20
120.325130
 30
0.0
  0
LWPOLYLINE
  5
1f7
100
AcDbEntity
  8
Layer_1
 62
7
100
AcDbPolyline
 90
3
 70
0
 10
91.127900
 20
116.326010
 30
0.0
 10
91.127900
 20
120.340710
 30
0.0
 10
90.994250
 20
120.325110
 30
0.0
  0
LWPOLYLINE
  5
1f8
100
AcDbEntity
  8
Layer_1
 62
1
100
AcDbPolyline
 90
2
 70
0
 10
91.127920
 20
97.597710
 30
0.0
 10
77.729390
 20
97.597710
 30
0.0
  0
LWPOLYLINE
  5
1f9
100
AcDbEntity
  8
Layer_1
 62
7
100
AcDbPolyline
 90
2
 70
0
 10
77.729390
 20
97.597710
 30
0.0
 10
77.680890
 20
102.237480
 30
0.0
  0
LWPOLYLINE
  5
1fa
100
AcDbEntity
  8
Layer_1
 62
7
100
AcDbPolyline
 90
3
 70
0
 10
77.729390
 20
97.597710
 30
0.0
 10
77.630990
 20
93.598590
 30
0.0
 10
90.994260
 20
93.598590
 30
0.0
  0
LWPOLYLINE
  5
1fb
100
AcDbEntity
  8
Layer_1
 62
7
100
AcDbPolyline
 90
3
 70
0
 10
91.127910
 20
97.597710
 30
0.0
 10
91.127910
 20
93.583010
 30
0.0
 10
90.994260
 20
93.598610
 30
0.0
  0
LWPOLYLINE
  5
1fc
100
AcDbEntity
  8
Layer_1
 62
1
100
AcDbPolyline
 90
3
 70
0
 10
91.127910
 20
116.326010
 30
0.0
 10
91.127910
 20
97.597710
 30
0.0
 10
115.427910
 20
97.597710
 30
0.0
  0
LWPOLYLINE
  5
1fd
100
AcDbEntity
  8
Layer_1
 62
7
100
AcDbPolyline
 90
2
 70
0
 10
90.994260
 20
93.598590
 30
0.0
 10
115.561570
 20
93.598590
 30
0.0
  0
LWPOLYLINE
  5
1fe
100
AcDbEntity
  8
Layer_1
 62
7
100
AcDbPolyline
 90
3
 70
0
 10
87.767350
 20
111.585730
 30
0.0
 10
87.767350
 20
102.424240
 30
0.0
 10
77.718970
 20
102.424240
 30
0.0
  0
LWPOLYLINE
  5
1ff
100
AcDbEntity
  8
Layer_1
 62
1
100
AcDbPolyline
 90
2
 70
0
 10
91.117500
 20
102.424240
 30
0.0
 10
87.767350
 20
102.424240
 30
0.0
  0
LWPOLYLINE
  5
200
100
AcDbEntity
  8
Layer_1
 62
1
100
AcDbPolyline
 90
2
 70
0
 10
115.427910
 20
116.326010
 30
0.0
 10
128.826440
 20
116.326010
 30
0.0
  0
LWPOLYLINE
  5
201
100
AcDbEntity
  8
Layer_1
 62
7
100
AcDbPolyline
 90
2
 70
0
 10
118.826600
 20
111.686240
 30
0.0
 10
128.874980
 20
111.686240
 30
0.0
  0
LWPOLYLINE
  5
202
100
AcDbEntity
  8
Layer_1
 62
1
100
AcDbPolyline
 90
2
 70
0
 10
115.476450
 20
111.686240
 30
0.0
 10
118.826600
 20
111.686240
 30
0.0
  0
LWPOLYLINE
  5
203
100
AcDbEntity
  8
Layer_1
 62
7
100
AcDbPolyline
 90
2
 70
0
 10
128.826440
 20
116.326010
 30
0.0
 10
128.874940
 20
111.686240
 30
0.0
  0
LWPOLYLINE
  5
204
100
AcDbEntity
  8
Layer_1
 62
7
100
AcDbPolyline
 90
3
 70
0
 10
128.826440
 20
116.326010
 30
0.0
 10
128.924840
 20
120.325130
 30
0.0
 10
115.561570
 20
120.325130
 30
0.0
  0
LWPOLYLINE
  5
205
100
AcDbEntity
  8
Layer_1
 62
7
100
AcDbPolyline
 90
3
 70
0
 10
115.427920
 20
116.326010
 30
0.0
 10
115.427920
 20
120.340710
 30
0.0
 10
115.561570
 20
120.325110
 30
0.0
  0
LWPOLYLINE
  5
206
100
AcDbEntity
  8
Layer_1
 62
1
100
AcDbPolyline
 90
2
 70
0
 10
115.427900
 20
97.597710
 30
0.0
 10
128.826430
 20
97.597710
 30
0.0
  0
LWPOLYLINE
  5
207
100
AcDbEntity
  8
Layer_1
 62
7
100
AcDbPolyline
 90
2
 70
0
 10
128.826430
 20
97.597710
 30
0.0
 10
128.874930
 20
102.237480
 30
0.0
  0
LWPOLYLINE
  5
208
100
AcDbEntity
  8
Layer_1
 62
7
100
AcDbPolyline
 90
3
 70
0
 10
128.826430
 20
97.597710
 30
0.0
 10
128.924830
 20
93.598590
 30
0.0
 10
115.561560
 20
93.598590
 30
0.0
  0
LWPOLYLINE
  5
209
100
AcDbEntity
  8
Layer_1
 62
7
100
AcDbPolyline
 90
3
 70
0
 10
115.427910
 20
97.597710
 30
0.0
 10
115.427910
 20
93.583010
 30
0.0
 10
115.561560
 20
93.598610
 30
0.0
  0
LWPOLYLINE
  5
20a
100
AcDbEntity
  8
Layer_1
 62
1
100
AcDbPolyline
 90
2
 70
0
 10
115.427910
 20
116.326010
 30
0.0
 10
115.427910
 20
97.597710
 30
0.0
  0
LWPOLYLINE
  5
20b
100
AcDbEntity
  8
Layer_1
 62
7
100
AcDbPolyline
 90
3
 70
0
 10
118.788470
 20
111.585730
 30
0.0
 10
118.788470
 20
102.424240
 30
0.0
 10
128.836850
 20
102.424240
 30
0.0
  0
LWPOLYLINE
  5
20c
100
AcDbEntity
  8
Layer_1
 62
1
100
AcDbPolyline
 90
2
 70
0
 10
115.438320
 20
102.424240
 30
0.0
 10
118.788470
 20
102.424240
 30
0.0
  0
LWPOLYLINE
  5
20d
100
AcDbEntity
  8
Layer_1
 62
1
100
AcDbPolyline
 90
2
 70
0
 10
91.127900
 20
116.326010
 30
0.0
 10
115.427920
 20
116.326010
 30
0.0
  0
LWPOLYLINE
  5
20e
100
AcDbEntity
  8
Layer_1
 62
7
100
AcDbPolyline
 90
3
 70
0
 10
90.994250
 20
120.325130
 30
0.0
 10
90.994250
 20
151.749034
 30
0.0
 10
106.499320
 20
151.749034
 30
0.0
  0
LWPOLYLINE
  5
20f
100
AcDbEntity
  8
Layer_1
 62
7
100
AcDbPolyline
 90
2
 70
0
 10
115.427920
 20
120.340710
 30
0.0
 10
115.427920
 20
151.906243
 30
0.0
  0
LWPOLYLINE
  5
210
100
AcDbEntity
  8
Layer_1
 62
7
100
AcDbPolyline
 90
2
 70
0
 10
106.499320
 20
151.749034
 30
0.0
 10
115.503100
 20
151.749034
 30
0.0
  0
LWPOLYLINE
  5
211
100
AcDbEntity
  8
Layer_1
 62
1
100
AcDbPolyline
 90
3
 70
0
 10
59.073019
 20
70.952744
 30
0.0
 10
59.053122
 20
71.320398
 30
0.0
 10
32.746352
 20
71.315450
 30
0.0
  0
LWPOLYLINE
  5
212
100
AcDbEntity
  8
Layer_1
 62
1
100
AcDbPolyline
 90
3
 70
0
 10
32.629893
 20
66.781122
 30
0.0
 10
32.639920
 20
71.235610
 30
0.0
 10
45.889031
 20
71.175772
 30
0.0
  0
LWPOLYLINE
  5
213
100
AcDbEntity
  8
Layer_1
 62
1
100
AcDbPolyline
 90
3
 70
0
 10
32.952776
 20
80.645650
 30
0.0
 10
32.569003
 20
80.639069
 30
0.0
 10
32.574168
 20
71.937968
 30
0.0
  0
LWPOLYLINE
  5
214
100
AcDbEntity
  8
Layer_1
 62
1
100
AcDbPolyline
 90
3
 70
0
 10
37.307293
 20
71.899449
 30
0.0
 10
32.657509
 20
71.902765
 30
0.0
 10
32.719971
 20
76.284977
 30
0.0
  0
LWPOLYLINE
  5
215
100
AcDbEntity
  8
Layer_1
 62
1
100
AcDbPolyline
 90
3
 70
0
 10
59.440776
 20
80.530150
 30
0.0
 10
59.057003
 20
80.523569
 30
0.0
 10
59.062168
 20
71.822468
 30
0.0
  0
LWPOLYLINE
  5
216
100
AcDbEntity
  8
Layer_1
 62
1
100
AcDbPolyline
 90
3
 70
0
 10
63.795293
 20
71.783949
 30
0.0
 10
59.145509
 20
71.787265
 30
0.0
 10
59.207971
 20
76.169477
 30
0.0
  0
SPLINE
  5
217
100
AcDbEntity
  8
Layer_1
 62
7
100
AcDbSpline
 70
8
 71
3
 72
8
 73
4
 74
0
 40
0
 40
0
 40
0
 40
0
 40
1
 40
1
 40
1
 40
1
 10
43.281650
 20
105.602065
 30
0.0
 10
38.152034
 20
104.263561
 30
0.0
 10
36.006789
 20
103.524779
 30
0.0
 10
36.006789
 20
103.524779
 30
0.0
  0
SPLINE
  5
218
100
AcDbEntity
  8
Layer_1
 62
7
100
AcDbSpline
 70
8
 71
3
 72
8
 73
4
 74
0
 40
0
 40
0
 40
0
 40
0
 40
1
 40
1
 40
1
 40
1
 10
36.006789
 20
103.524779
 30
0.0
 10
32.899945
 20
101.585764
 30
0.0
 10
32.469315
 20
101.988737
 30
0.0
 10
32.469315
 20
101.988737
 30
0.0
  0
LWPOLYLINE
  5
219
100
AcDbEntity
  8
Layer_1
 62
7
100
AcDbPolyline
 90
2
 70
0
 10
46.043597
 20
105.359885
 30
0.0
 10
43.281650
 20
105.602065
 30
0.0
  0
SPLINE
  5
21a
100
AcDbEntity
  8
Layer_1
 62
7
100
AcDbSpline
 70
8
 71
3
 72
8
 73
4
 74
0
 40
0
 40
0
 40
0
 40
0
 40
1
 40
1
 40
1
 40
1
 10
11.420658
 20
82.430304
 30
0.0
 10
10.114551
 20
81.552455
 30
0.0
 10
9.639278
 20
80.785622
 30
0.0
 10
9.639278
 20
80.785622
 30
0.0
  0
SPLINE
  5
21b
100
AcDbEntity
  8
Layer_1
 62
7
100
AcDbSpline
 70
8
 71
3
 72
8
 73
4
 74
0
 40
0
 40
0
 40
0
 40
0
 40
1
 40
1
 40
1
 40
1
 10
9.639278
 20
80.785622
 30
0.0
 10
8.866516
 20
78.924040
 30
0.0
 10
8.810808
 20
78.087674
 30
0.0
 10
8.810808
 20
78.087674
 30
0.0
  0
SPLINE
  5
21c
100
AcDbEntity
  8
Layer_1
 62
7
100
AcDbSpline
 70
8
 71
3
 72
8
 73
4
 74
0
 40
0
 40
0
 40
0
 40
0
 40
1
 40
1
 40
1
 40
1
 10
8.810808
 20
78.087674
 30
0.0
 10
8.702165
 20
76.331579
 30
0.0
 10
8.504627
 20
74.739437
 30
0.0
 10
8.504627
 20
74.739437
 30
0.0
  0
LWPOLYLINE
  5
21d
100
AcDbEntity
  8
Layer_1
 62
7
100
AcDbPolyline
 90
4
 70
0
 10
32.469315
 20
101.988737
 30
0.0
 10
32.510396
 20
80.626399
 30
0.0
 10
13.246286
 20
82.741226
 30
0.0
 10
11.420658
 20
82.430304
 30
0.0
  0
LWPOLYLINE
  5
21e
100
AcDbEntity
  8
Layer_1
 62
7
100
AcDbPolyline
 90
13
 70
0
 10
8.504627
 20
74.739437
 30
0.0
 10
4.392322
 20
75.437532
 30
0.0
 10
2.058237
 20
75.360099
 30
0.0
 10
2.429206
 20
66.693402
 30
0.0
 10
3.854626
 20
66.490332
 30
0.0
 10
3.564643
 20
60.138364
 30
0.0
 10
11.669942
 20
59.823095
 30
0.0
 10
11.432111
 20
66.992074
 30
0.0
 10
22.699566
 20
66.948611
 30
0.0
 10
23.009695
 20
60.115840
 30
0.0
 10
30.356458
 20
60.025763
 30
0.0
 10
30.293643
 20
66.950188
 30
0.0
 10
32.633261
 20
66.860902
 30
0.0
  0
LWPOLYLINE
  5
21f
100
AcDbEntity
  8
Layer_1
 62
7
100
AcDbPolyline
 90
8
 70
0
 10
45.952107
 20
43.595074
 30
0.0
 10
32.482028
 20
43.720182
 30
0.0
 10
32.482028
 20
45.555115
 30
0.0
 10
30.146657
 20
45.221492
 30
0.0
 10
30.146657
 20
51.059918
 30
0.0
 10
32.440324
 20
50.601184
 30
0.0
 10
32.648840
 20
62.403144
 30
0.0
 10
30.396876
 20
62.403144
 30
0.0
  0
LWPOLYLINE
  5
220
100
AcDbEntity
  8
Layer_1
 62
7
100
AcDbPolyline
 90
2
 70
0
 10
29.020674
 20
70.451830
 30
0.0
 10
24.183123
 20
70.618642
 30
0.0
  0
LWPOLYLINE
  5
221
100
AcDbEntity
  8
Layer_1
 62
7
100
AcDbPolyline
 90
2
 70
0
 10
12.839897
 20
70.201611
 30
0.0
 10
7.668720
 20
70.451830
 30
0.0
  0
LWPOLYLINE
  5
222
100
AcDbEntity
  8
Layer_1
 62
7
100
AcDbPolyline
 90
2
 70
0
 10
32.648840
 20
71.223333
 30
0.0
 10
32.648840
 20
66.865365
 30
0.0
  0
LWPOLYLINE
  5
223
100
AcDbEntity
  8
Layer_1
 62
7
100
AcDbPolyline
 90
2
 70
0
 10
58.903614
 20
71.180439
 30
0.0
 10
58.903614
 20
66.822471
 30
0.0
  0
SPLINE
  5
224
100
AcDbEntity
  8
Layer_1
 62
7
100
AcDbSpline
 70
8
 71
3
 72
8
 73
4
 74
0
 40
0
 40
0
 40
0
 40
0
 40
1
 40
1
 40
1
 40
1
 10
48.457868
 20
105.601915
 30
0.0
 10
53.587491
 20
104.263409
 30
0.0
 10
55.732738
 20
103.524626
 30
0.0
 10
55.732738
 20
103.524626
 30
0.0
  0
SPLINE
  5
225
100
AcDbEntity
  8
Layer_1
 62
7
100
AcDbSpline
 70
8
 71
3
 72
8
 73
4
 74
0
 40
0
 40
0
 40
0
 40
0
 40
1
 40
1
 40
1
 40
1
 10
55.732738
 20
103.524626
 30
0.0
 10
58.839586
 20
101.585608
 30
0.0
 10
59.270217
 20
101.988582
 30
0.0
 10
59.270217
 20
101.988582
 30
0.0
  0
LWPOLYLINE
  5
226
100
AcDbEntity
  8
Layer_1
 62
7
100
AcDbPolyline
 90
2
 70
0
 10
45.695917
 20
105.359734
 30
0.0
 10
48.457868
 20
105.601915
 30
0.0
  0
SPLINE
  5
227
100
AcDbEntity
  8
Layer_1
 62
7
100
AcDbSpline
 70
8
 71
3
 72
8
 73
4
 74
0
 40
0
 40
0
 40
0
 40
0
 40
1
 40
1
 40
1
 40
1
 10
80.318900
 20
82.430125
 30
0.0
 10
81.625007
 20
81.552274
 30
0.0
 10
82.100281
 20
80.785440
 30
0.0
 10
82.100281
 20
80.785440
 30
0.0
  0
SPLINE
  5
228
100
AcDbEntity
  8
Layer_1
 62
7
100
AcDbSpline
 70
8
 71
3
 72
8
 73
4
 74
0
 40
0
 40
0
 40
0
 40
0
 40
1
 40
1
 40
1
 40
1
 10
82.100281
 20
80.785440
 30
0.0
 10
82.873044
 20
78.923856
 30
0.0
 10
82.928752
 20
78.087489
 30
0.0
 10
82.928752
 20
78.087489
 30
0.0
  0
SPLINE
  5
229
100
AcDbEntity
  8
Layer_1
 62
7
100
AcDbSpline
 70
8
 71
3
 72
8
 73
4
 74
0
 40
0
 40
0
 40
0
 40
0
 40
1
 40
1
 40
1
 40
1
 10
82.928752
 20
78.087489
 30
0.0
 10
83.037395
 20
76.331391
 30
0.0
 10
83.234933
 20
74.739248
 30
0.0
 10
83.234933
 20
74.739248
 30
0.0
  0
LWPOLYLINE
  5
22a
100
AcDbEntity
  8
Layer_1
 62
7
100
AcDbPolyline
 90
4
 70
0
 10
59.270217
 20
101.988582
 30
0.0
 10
59.229137
 20
80.626217
 30
0.0
 10
78.493269
 20
82.741047
 30
0.0
 10
80.318900
 20
82.430125
 30
0.0
  0
LWPOLYLINE
  5
22b
100
AcDbEntity
  8
Layer_1
 62
7
100
AcDbPolyline
 90
13
 70
0
 10
83.234933
 20
74.739248
 30
0.0
 10
87.347246
 20
75.437343
 30
0.0
 10
89.681334
 20
75.359913
 30
0.0
 10
89.310364
 20
66.693206
 30
0.0
 10
87.884943
 20
66.490135
 30
0.0
 10
88.174926
 20
60.138159
 30
0.0
 10
80.069614
 20
59.822890
 30
0.0
 10
80.307446
 20
66.991878
 30
0.0
 10
69.039977
 20
66.948418
 30
0.0
 10
68.729848
 20
60.115638
 30
0.0
 10
61.383078
 20
60.025558
 30
0.0
 10
61.445898
 20
66.949992
 30
0.0
 10
59.106277
 20
66.860702
 30
0.0
  0
LWPOLYLINE
  5
22c
100
AcDbEntity
  8
Layer_1
 62
7
100
AcDbPolyline
 90
8
 70
0
 10
45.787407
 20
43.594845
 30
0.0
 10
59.257504
 20
43.719954
 30
0.0
 10
59.257504
 20
45.554889
 30
0.0
 10
61.592877
 20
45.221265
 30
0.0
 10
61.592877
 20
51.059699
 30
0.0
 10
59.299207
 20
50.600964
 30
0.0
 10
59.090692
 20
62.402939
 30
0.0
 10
61.342658
 20
62.402939
 30
0.0
  0
LWPOLYLINE
  5
22d
100
AcDbEntity
  8
Layer_1
 62
7
100
AcDbPolyline
 90
2
 70
0
 10
62.718862
 20
70.451636
 30
0.0
 10
67.556416
 20
70.618447
 30
0.0
  0
LWPOLYLINE
  5
22e
100
AcDbEntity
  8
Layer_1
 62
7
100
AcDbPolyline
 90
2
 70
0
 10
78.899657
 20
70.201416
 30
0.0
 10
84.070840
 20
70.451636
 30
0.0
  0
LWPOLYLINE
  5
22f
100
AcDbEntity
  8
Layer_1
 62
1
100
AcDbPolyline
 90
3
 70
0
 10
175.508949
 20
69.495744
 30
0.0
 10
175.489052
 20
69.863398
 30
0.0
 10
149.182282
 20
69.858450
 30
0.0
  0
LWPOLYLINE
  5
230
100
AcDbEntity
  8
Layer_1
 62
1
100
AcDbPolyline
 90
3
 70
0
 10
149.065823
 20
65.324122
 30
0.0
 10
149.075850
 20
69.778610
 30
0.0
 10
162.324961
 20
69.718772
 30
0.0
  0
LWPOLYLINE
  5
231
100
AcDbEntity
  8
Layer_1
 62
1
100
AcDbPolyline
 90
3
 70
0
 10
149.388706
 20
79.188650
 30
0.0
 10
149.004933
 20
79.182069
 30
0.0
 10
149.010098
 20
70.480968
 30
0.0
  0
LWPOLYLINE
  5
232
100
AcDbEntity
  8
Layer_1
 62
1
100
AcDbPolyline
 90
3
 70
0
 10
153.743223
 20
70.442449
 30
0.0
 10
149.093439
 20
70.445765
 30
0.0
 10
149.155901
 20
74.827977
 30
0.0
  0
LWPOLYLINE
  5
233
100
AcDbEntity
  8
Layer_1
 62
1
100
AcDbPolyline
 90
3
 70
0
 10
175.876706
 20
79.073150
 30
0.0
 10
175.492933
 20
79.066569
 30
0.0
 10
175.498098
 20
70.365468
 30
0.0
  0
LWPOLYLINE
  5
234
100
AcDbEntity
  8
Layer_1
 62
1
100
AcDbPolyline
 90
3
 70
0
 10
180.231223
 20
70.326949
 30
0.0
 10
175.581439
 20
70.330265
 30
0.0
 10
175.643901
 20
74.712477
 30
0.0
  0
SPLINE
  5
235
100
AcDbEntity
  8
Layer_1
 62
7
100
AcDbSpline
 70
8
 71
3
 72
8
 73
4
 74
0
 40
0
 40
0
 40
0
 40
0
 40
1
 40
1
 40
1
 40
1
 10
159.717580
 20
104.145065
 30
0.0
 10
154.587964
 20
102.806561
 30
0.0
 10
152.442719
 20
102.067779
 30
0.0
 10
152.442719
 20
102.067779
 30
0.0
  0
SPLINE
  5
236
100
AcDbEntity
  8
Layer_1
 62
7
100
AcDbSpline
 70
8
 71
3
 72
8
 73
4
 74
0
 40
0
 40
0
 40
0
 40
0
 40
1
 40
1
 40
1
 40
1
 10
152.442719
 20
102.067779
 30
0.0
 10
149.335875
 20
100.128764
 30
0.0
 10
148.905245
 20
100.531737
 30
0.0
 10
148.905245
 20
100.531737
 30
0.0
  0
LWPOLYLINE
  5
237
100
AcDbEntity
  8
Layer_1
 62
7
100
AcDbPolyline
 90
2
 70
0
 10
162.479527
 20
103.902885
 30
0.0
 10
159.717580
 20
104.145065
 30
0.0
  0
SPLINE
  5
238
100
AcDbEntity
  8
Layer_1
 62
7
100
AcDbSpline
 70
8
 71
3
 72
8
 73
4
 74
0
 40
0
 40
0
 40
0
 40
0
 40
1
 40
1
 40
1
 40
1
 10
127.856588
 20
80.973304
 30
0.0
 10
126.550481
 20
80.095455
 30
0.0
 10
126.075208
 20
79.328622
 30
0.0
 10
126.075208
 20
79.328622
 30
0.0
  0
SPLINE
  5
239
100
AcDbEntity
  8
Layer_1
 62
7
100
AcDbSpline
 70
8
 71
3
 72
8
 73
4
 74
0
 40
0
 40
0
 40
0
 40
0
 40
1
 40
1
 40
1
 40
1
 10
126.075208
 20
79.328622
 30
0.0
 10
125.302446
 20
77.467040
 30
0.0
 10
125.246738
 20
76.630674
 30
0.0
 10
125.246738
 20
76.630674
 30
0.0
  0
SPLINE
  5
23a
100
AcDbEntity
  8
Layer_1
 62
7
100
AcDbSpline
 70
8
 71
3
 72
8
 73
4
 74
0
 40
0
 40
0
 40
0
 40
0
 40
1
 40
1
 40
1
 40
1
 10
125.246738
 20
76.630674
 30
0.0
 10
125.138095
 20
74.874579
 30
0.0
 10
124.940557
 20
73.282437
 30
0.0
 10
124.940557
 20
73.282437
 30
0.0
  0
LWPOLYLINE
  5
23b
100
AcDbEntity
  8
Layer_1
 62
7
100
AcDbPolyline
 90
4
 70
0
 10
148.905245
 20
100.531737
 30
0.0
 10
148.946326
 20
79.169399
 30
0.0
 10
129.682216
 20
81.284226
 30
0.0
 10
127.856588
 20
80.973304
 30
0.0
  0
LWPOLYLINE
  5
23c
100
AcDbEntity
  8
Layer_1
 62
7
100
AcDbPolyline
 90
13
 70
0
 10
124.940557
 20
73.282437
 30
0.0
 10
120.828252
 20
73.980532
 30
0.0
 10
118.494167
 20
73.903099
 30
0.0
 10
118.865136
 20
65.236402
 30
0.0
 10
120.290556
 20
65.033332
 30
0.0
 10
120.000573
 20
58.681364
 30
0.0
 10
128.105872
 20
58.366095
 30
0.0
 10
127.868041
 20
65.535074
 30
0.0
 10
139.135496
 20
65.491611
 30
0.0
 10
139.445625
 20
58.658840
 30
0.0
 10
146.792388
 20
58.568763
 30
0.0
 10
146.729573
 20
65.493188
 30
0.0
 10
149.069191
 20
65.403902
 30
0.0
  0
LWPOLYLINE
  5
23d
100
AcDbEntity
  8
Layer_1
 62
7
100
AcDbPolyline
 90
8
 70
0
 10
162.388037
 20
42.138074
 30
0.0
 10
148.917958
 20
42.263182
 30
0.0
 10
148.917958
 20
44.098115
 30
0.0
 10
146.582587
 20
43.764492
 30
0.0
 10
146.582587
 20
49.602918
 30
0.0
 10
148.876254
 20
49.144184
 30
0.0
 10
149.084770
 20
60.946144
 30
0.0
 10
146.832806
 20
60.946144
 30
0.0
  0
LWPOLYLINE
  5
23e
100
AcDbEntity
  8
Layer_1
 62
7
100
AcDbPolyline
 90
2
 70
0
 10
145.456604
 20
68.994830
 30
0.0
 10
140.619053
 20
69.161642
 30
0.0
  0
LWPOLYLINE
  5
23f
100
AcDbEntity
  8
Layer_1
 62
7
100
AcDbPolyline
 90
2
 70
0
 10
129.275827
 20
68.744611
 30
0.0
 10
124.104650
 20
68.994830
 30
0.0
  0
LWPOLYLINE
  5
240
100
AcDbEntity
  8
Layer_1
 62
7
100
AcDbPolyline
 90
2
 70
0
 10
149.084770
 20
69.766333
 30
0.0
 10
149.084770
 20
65.408365
 30
0.0
  0
LWPOLYLINE
  5
241
100
AcDbEntity
  8
Layer_1
 62
7
100
AcDbPolyline
 90
2
 70
0
 10
175.339544
 20
69.723439
 30
0.0
 10
175.339544
 20
65.365471
 30
0.0
  0
SPLINE
  5
242
100
AcDbEntity
  8
Layer_1
 62
7
100
AcDbSpline
 70
8
 71
3
 72
8
 73
4
 74
0
 40
0
 40
0
 40
0
 40
0
 40
1
 40
1
 40
1
 40
1
 10
164.893798
 20
104.144915
 30
0.0
 10
170.023421
 20
102.806409
 30
0.0
 10
172.168668
 20
102.067626
 30
0.0
 10
172.168668
 20
102.067626
 30
0.0
  0
SPLINE
  5
243
100
AcDbEntity
  8
Layer_1
 62
7
100
AcDbSpline
 70
8
 71
3
 72
8
 73
4
 74
0
 40
0
 40
0
 40
0
 40
0
 40
1
 40
1
 40
1
 40
1
 10
172.168668
 20
102.067626
 30
0.0
 10
175.275516
 20
100.128608
 30
0.0
 10
175.706147
 20
100.531582
 30
0.0
 10
175.706147
 20
100.531582
 30
0.0
  0
LWPOLYLINE
  5
244
100
AcDbEntity
  8
Layer_1
 62
7
100
AcDbPolyline
 90
2
 70
0
 10
162.131847
 20
103.902734
 30
0.0
 10
164.893798
 20
104.144915
 30
0.0
  0
SPLINE
  5
245
100
AcDbEntity
  8
Layer_1
 62
7
100
AcDbSpline
 70
8
 71
3
 72
8
 73
4
 74
0
 40
0
 40
0
 40
0
 40
0
 40
1
 40
1
 40
1
 40
1
 10
196.754830
 20
80.973125
 30
0.0
 10
198.060937
 20
80.095274
 30
0.0
 10
198.536211
 20
79.328440
 30
0.0
 10
198.536211
 20
79.328440
 30
0.0
  0
SPLINE
  5
246
100
AcDbEntity
  8
Layer_1
 62
7
100
AcDbSpline
 70
8
 71
3
 72
8
 73
4
 74
0
 40
0
 40
0
 40
0
 40
0
 40
1
 40
1
 40
1
 40
1
 10
198.536211
 20
79.328440
 30
0.0
 10
199.308974
 20
77.466856
 30
0.0
 10
199.364682
 20
76.630489
 30
0.0
 10
199.364682
 20
76.630489
 30
0.0
  0
SPLINE
  5
247
100
AcDbEntity
  8
Layer_1
 62
7
100
AcDbSpline
 70
8
 71
3
 72
8
 73
4
 74
0
 40
0
 40
0
 40
0
 40
0
 40
1
 40
1
 40
1
 40
1
 10
199.364682
 20
76.630489
 30
0.0
 10
199.473325
 20
74.874391
 30
0.0
 10
199.670863
 20
73.282248
 30
0.0
 10
199.670863
 20
73.282248
 30
0.0
  0
LWPOLYLINE
  5
248
100
AcDbEntity
  8
Layer_1
 62
7
100
AcDbPolyline
 90
4
 70
0
 10
175.706147
 20
100.531582
 30
0.0
 10
175.665067
 20
79.169217
 30
0.0
 10
194.929199
 20
81.284047
 30
0.0
 10
196.754830
 20
80.973125
 30
0.0
  0
LWPOLYLINE
  5
249
100
AcDbEntity
  8
Layer_1
 62
7
100
AcDbPolyline
 90
13
 70
0
 10
199.670863
 20
73.282248
 30
0.0
 10
203.783176
 20
73.980343
 30
0.0
 10
206.117264
 20
73.902913
 30
0.0
 10
205.746294
 20
65.236206
 30
0.0
 10
204.320873
 20
65.033135
 30
0.0
 10
204.610856
 20
58.681159
 30
0.0
 10
196.505544
 20
58.365890
 30
0.0
 10
196.743376
 20
65.534878
 30
0.0
 10
185.475907
 20
65.491418
 30
0.0
 10
185.165778
 20
58.658638
 30
0.0
 10
177.819008
 20
58.568558
 30
0.0
 10
177.881828
 20
65.492992
 30
0.0
 10
175.542207
 20
65.403702
 30
0.0
  0
LWPOLYLINE
  5
24a
100
AcDbEntity
  8
Layer_1
 62
7
100
AcDbPolyline
 90
8
 70
0
 10
162.223337
 20
42.137845
 30
0.0
 10
175.693434
 20
42.262954
 30
0.0
 10
175.693434
 20
44.097889
 30
0.0
 10
178.028807
 20
43.764265
 30
0.0
 10
178.028807
 20
49.602699
 30
0.0
 10
175.735137
 20
49.143964
 30
0.0
 10
175.526622
 20
60.945939
 30
0.0
 10
177.778588
 20
60.945939
 30
0.0
  0
LWPOLYLINE
  5
24b
100
AcDbEntity
  8
Layer_1
 62
7
100
AcDbPolyline
 90
2
 70
0
 10
179.154792
 20
68.994636
 30
0.0
 10
183.992346
 20
69.161447
 30
0.0
  0
LWPOLYLINE
  5
24c
100
AcDbEntity
  8
Layer_1
 62
7
100
AcDbPolyline
 90
2
 70
0
 10
195.335587
 20
68.744416
 30
0.0
 10
200.506770
 20
68.994636
 30
0.0
  0
LWPOLYLINE
  5
24d
100
AcDbEntity
  8
Layer_1
 62
1
100
AcDbPolyline
 90
2
 70
0
 10
91.694710
 20
53.347910
 30
0.0
 10
78.296180
 20
53.347910
 30
0.0
  0
LWPOLYLINE
  5
24e
100
AcDbEntity
  8
Layer_1
 62
7
100
AcDbPolyline
 90
2
 70
0
 10
88.296018
 20
48.708142
 30
0.0
 10
78.247638
 20
48.708142
 30
0.0
  0
LWPOLYLINE
  5
24f
100
AcDbEntity
  8
Layer_1
 62
1
100
AcDbPolyline
 90
2
 70
0
 10
91.646167
 20
48.708142
 30
0.0
 10
88.296018
 20
48.708142
 30
0.0
  0
LWPOLYLINE
  5
250
100
AcDbEntity
  8
Layer_1
 62
7
100
AcDbPolyline
 90
2
 70
0
 10
78.296180
 20
53.347910
 30
0.0
 10
78.247680
 20
48.708140
 30
0.0
  0
LWPOLYLINE
  5
251
100
AcDbEntity
  8
Layer_1
 62
7
100
AcDbPolyline
 90
3
 70
0
 10
78.296180
 20
53.347910
 30
0.0
 10
78.197780
 20
57.347030
 30
0.0
 10
91.561050
 20
57.347030
 30
0.0
  0
LWPOLYLINE
  5
252
100
AcDbEntity
  8
Layer_1
 62
7
100
AcDbPolyline
 90
3
 70
0
 10
91.694700
 20
53.347910
 30
0.0
 10
91.694700
 20
57.362610
 30
0.0
 10
91.561050
 20
57.347010
 30
0.0
  0
LWPOLYLINE
  5
253
100
AcDbEntity
  8
Layer_1
 62
1
100
AcDbPolyline
 90
2
 70
0
 10
91.694720
 20
34.619610
 30
0.0
 10
78.296190
 20
34.619610
 30
0.0
  0
LWPOLYLINE
  5
254
100
AcDbEntity
  8
Layer_1
 62
7
100
AcDbPolyline
 90
2
 70
0
 10
78.296190
 20
34.619610
 30
0.0
 10
78.247690
 20
39.259380
 30
0.0
  0
LWPOLYLINE
  5
255
100
AcDbEntity
  8
Layer_1
 62
7
100
AcDbPolyline
 90
3
 70
0
 10
78.296190
 20
34.619610
 30
0.0
 10
78.197790
 20
30.620490
 30
0.0
 10
91.561060
 20
30.620490
 30
0.0
  0
LWPOLYLINE
  5
256
100
AcDbEntity
  8
Layer_1
 62
7
100
AcDbPolyline
 90
3
 70
0
 10
91.694710
 20
34.619610
 30
0.0
 10
91.694710
 20
30.604910
 30
0.0
 10
91.561060
 20
30.620510
 30
0.0
  0
LWPOLYLINE
  5
257
100
AcDbEntity
  8
Layer_1
 62
1
100
AcDbPolyline
 90
3
 70
0
 10
91.694710
 20
53.347910
 30
0.0
 10
91.694710
 20
34.619610
 30
0.0
 10
115.994710
 20
34.619610
 30
0.0
  0
LWPOLYLINE
  5
258
100
AcDbEntity
  8
Layer_1
 62
7
100
AcDbPolyline
 90
2
 70
0
 10
91.561060
 20
30.620490
 30
0.0
 10
116.128370
 20
30.620490
 30
0.0
  0
LWPOLYLINE
  5
259
100
AcDbEntity
  8
Layer_1
 62
7
100
AcDbPolyline
 90
3
 70
0
 10
88.334150
 20
48.607630
 30
0.0
 10
88.334150
 20
39.446140
 30
0.0
 10
78.285770
 20
39.446140
 30
0.0
  0
LWPOLYLINE
  5
25a
100
AcDbEntity
  8
Layer_1
 62
1
100
AcDbPolyline
 90
2
 70
0
 10
91.684300
 20
39.446140
 30
0.0
 10
88.334150
 20
39.446140
 30
0.0
  0
LWPOLYLINE
  5
25b
100
AcDbEntity
  8
Layer_1
 62
1
100
AcDbPolyline
 90
2
 70
0
 10
115.994710
 20
53.347910
 30
0.0
 10
129.393240
 20
53.347910
 30
0.0
  0
LWPOLYLINE
  5
25c
100
AcDbEntity
  8
Layer_1
 62
7
100
AcDbPolyline
 90
2
 70
0
 10
119.393400
 20
48.708140
 30
0.0
 10
129.441780
 20
48.708140
 30
0.0
  0
LWPOLYLINE
  5
25d
100
AcDbEntity
  8
Layer_1
 62
1
100
AcDbPolyline
 90
2
 70
0
 10
116.043250
 20
48.708140
 30
0.0
 10
119.393400
 20
48.708140
 30
0.0
  0
LWPOLYLINE
  5
25e
100
AcDbEntity
  8
Layer_1
 62
7
100
AcDbPolyline
 90
2
 70
0
 10
129.393240
 20
53.347910
 30
0.0
 10
129.441740
 20
48.708140
 30
0.0
  0
LWPOLYLINE
  5
25f
100
AcDbEntity
  8
Layer_1
 62
7
100
AcDbPolyline
 90
3
 70
0
 10
129.393240
 20
53.347910
 30
0.0
 10
129.491640
 20
57.347030
 30
0.0
 10
116.128370
 20
57.347030
 30
0.0
  0
LWPOLYLINE
  5
260
100
AcDbEntity
  8
Layer_1
 62
7
100
AcDbPolyline
 90
3
 70
0
 10
115.994720
 20
53.347910
 30
0.0
 10
115.994720
 20
57.362610
 30
0.0
 10
116.128370
 20
57.347010
 30
0.0
  0
LWPOLYLINE
  5
261
100
AcDbEntity
  8
Layer_1
 62
1
100
AcDbPolyline
 90
2
 70
0
 10
115.994700
 20
34.619610
 30
0.0
 10
129.393230
 20
34.619610
 30
0.0
  0
LWPOLYLINE
  5
262
100
AcDbEntity
  8
Layer_1
 62
7
100
AcDbPolyline
 90
2
 70
0
 10
129.393230
 20
34.619610
 30
0.0
 10
129.441730
 20
39.259380
 30
0.0
  0
LWPOLYLINE
  5
263
100
AcDbEntity
  8
Layer_1
 62
7
100
AcDbPolyline
 90
3
 70
0
 10
129.393230
 20
34.619610
 30
0.0
 10
129.491630
 20
30.620490
 30
0.0
 10
116.128360
 20
30.620490
 30
0.0
  0
LWPOLYLINE
  5
264
100
AcDbEntity
  8
Layer_1
 62
7
100
AcDbPolyline
 90
3
 70
0
 10
115.994710
 20
34.619610
 30
0.0
 10
115.994710
 20
30.604910
 30
0.0
 10
116.128360
 20
30.620510
 30
0.0
  0
LWPOLYLINE
  5
265
100
AcDbEntity
  8
Layer_1
 62
1
100
AcDbPolyline
 90
2
 70
0
 10
115.994710
 20
53.347910
 30
0.0
 10
115.994710
 20
34.619610
 30
0.0
  0
LWPOLYLINE
  5
266
100
AcDbEntity
  8
Layer_1
 62
7
100
AcDbPolyline
 90
3
 70
0
 10
119.355270
 20
48.607630
 30
0.0
 10
119.355270
 20
39.446140
 30
0.0
 10
129.403650
 20
39.446140
 30
0.0
  0
LWPOLYLINE
  5
267
100
AcDbEntity
  8
Layer_1
 62
1
100
AcDbPolyline
 90
2
 70
0
 10
116.005120
 20
39.446140
 30
0.0
 10
119.355270
 20
39.446140
 30
0.0
  0
LWPOLYLINE
  5
268
100
AcDbEntity
  8
Layer_1
 62
1
100
AcDbPolyline
 90
2
 70
0
 10
91.694700
 20
53.347910
 30
0.0
 10
115.994720
 20
53.347910
 30
0.0
  0
LWPOLYLINE
  5
269
100
AcDbEntity
  8
Layer_1
 62
7
100
AcDbPolyline
 90
3
 70
0
 10
91.561050
 20
57.347030
 30
0.0
 10
91.561050
 20
88.770934
 30
0.0
 10
107.066120
 20
88.770934
 30
0.0
  0
LWPOLYLINE
  5
26a
100
AcDbEntity
  8
Layer_1
 62
7
100
AcDbPolyline
 90
2
 70
0
 10
115.994720
 20
57.362610
 30
0.0
 10
115.994720
 20
88.928143
 30
0.0
  0
LWPOLYLINE
  5
26b
100
AcDbEntity
  8
Layer_1
 62
7
100
AcDbPolyline
 90
2
 70
0
 10
107.066120
 20
88.770934
 30
0.0
 10
116.069900
 20
88.770934
 30
0.0
  0
ENDSEC
  0
SECTION
  2
OBJECTS
  0
DICTIONARY
  5
C
330
0
100
AcDbDictionary
  3
ACAD_GROUP
350
D
  3
ACAD_MLINESTYLE
350
17
  0
DICTIONARY
  5
D
330
C
100
AcDbDictionary
  0
DICTIONARY
  5
1A
330
C
100
AcDbDictionary
  0
DICTIONARY
  5
17
330
C
100
AcDbDictionary
  3
STANDARD
350
18
  0
DICTIONARY
  5
19
330
C
100
AcDbDictionary
  0
ENDSEC
  0
EOF
