  0
SECTION
  2
HEADER
  9
$ACADVER
  1
AC1014
  9
$HANDSEED
  5
FFFF
  9
$MEASUREMENT
 70
     1
  0
ENDSEC
  0
SECTION
  2
TABLES
  0
TABLE
  2
VPORT
  5
8
330
0
100
AcDbSymbolTable
 70
     4
  0
VPORT
  5
2E
330
8
100
AcDbSymbolTableRecord
100
AcDbViewportTableRecord
  2
*ACTIVE
 70
     0
 10
0.0
 20
0.0
 11
1.0
 21
1.0
 12
210.0
 22
148.5
 13
0.0
 23
0.0
 14
10.0
 24
10.0
 15
10.0
 25
10.0
 16
0.0
 26
0.0
 36
1.0
 17
0.0
 27
0.0
 37
0.0
 40
341.0
 41
1.24
 42
50.0
 43
0.0
 44
0.0
 50
0.0
 51
0.0
 71
     0
 72
   100
 73
     1
 74
     3
 75
     0
 76
     0
 77
     0
 78
     0
  0
ENDTAB
  0
TABLE
  2
LTYPE
  5
5
330
0
100
AcDbSymbolTable
 70
     1
  0
LTYPE
  5
14
330
5
100
AcDbSymbolTableRecord
100
AcDbLinetypeTableRecord
  2
BYBLOCK
 70
     0
  3

 72
    65
 73
     0
 40
0.0
  0
LTYPE
  5
15
330
5
100
AcDbSymbolTableRecord
100
AcDbLinetypeTableRecord
  2
BYLAYER
 70
     0
  3

 72
    65
 73
     0
 40
0.0
  0
LTYPE
  5
16
330
5
100
AcDbSymbolTableRecord
100
AcDbLinetypeTableRecord
  2
CONTINUOUS
 70
     0
  3
Solid line
 72
    65
 73
     0
 40
0.0
  0
ENDTAB
  0
TABLE
  2
LAYER
  5
2
100
AcDbSymbolTable
 70
4
  0
LAYER
  5
50
100
AcDbSymbolTableRecord
100
AcDbLayerTableRecord
  2
0
 70
0
  6
CONTINUOUS
  0
LAYER
  5
51
100
AcDbSymbolTableRecord
100
AcDbLayerTableRecord
  2
scan_20230315155426
 70
0
  6
CONTINUOUS
  0
LAYER
  5
52
100
AcDbSymbolTableRecord
100
AcDbLayerTableRecord
  2
fold
 70
0
  6
CONTINUOUS
  0
LAYER
  5
53
100
AcDbSymbolTableRecord
100
AcDbLayerTableRecord
  2
cuts
 70
0
  6
CONTINUOUS
  0
ENDTAB
  0
TABLE
  2
STYLE
  5
3
330
0
100
AcDbSymbolTable
 70
     1
  0
STYLE
  5
11
330
3
100
AcDbSymbolTableRecord
100
AcDbTextStyleTableRecord
  2
STANDARD
 70
     0
 40
0.0
 41
1.0
 50
0.0
 71
     0
 42
2.5
  3
txt
  4

  0
ENDTAB
  0
TABLE
  2
VIEW
  5
6
330
0
100
AcDbSymbolTable
 70
     0
  0
ENDTAB
  0
TABLE
  2
UCS
  5
7
330
0
100
AcDbSymbolTable
 70
     0
  0
ENDTAB
  0
TABLE
  2
APPID
  5
9
330
0
100
AcDbSymbolTable
 70
     2
  0
APPID
  5
12
330
9
100
AcDbSymbolTableRecord
100
AcDbRegAppTableRecord
  2
ACAD
 70
     0
  0
ENDTAB
  0
TABLE
  2
DIMSTYLE
  5
A
330
0
100
AcDbSymbolTable
 70
     1
  0
DIMSTYLE
105
27
330
A
100
AcDbSymbolTableRecord
100
AcDbDimStyleTableRecord
  2
ISO-25
 70
     0
  3

  4

  5

  6

  7

 40
1.0
 41
2.5
 42
0.625
 43
3.75
 44
1.25
 45
0.0
 46
0.0
 47
0.0
 48
0.0
140
2.5
141
2.5
142
0.0
143
0.03937007874016
144
1.0
145
0.0
146
1.0
147
0.625
 71
     0
 72
     0
 73
     0
 74
     0
 75
     0
 76
     0
 77
     1
 78
     8
170
     0
171
     3
172
     1
173
     0
174
     0
175
     0
176
     0
177
     0
178
     0
270
     2
271
     2
272
     2
273
     2
274
     3
340
11
275
     0
280
     0
281
     0
282
     0
283
     0
284
     8
285
     0
286
     0
287
     3
288
     0
  0
ENDTAB
  0
TABLE
  2
BLOCK_RECORD
  5
1
330
0
100
AcDbSymbolTable
 70
     1
  0
BLOCK_RECORD
  5
1F
330
1
100
AcDbSymbolTableRecord
100
AcDbBlockTableRecord
  2
*MODEL_SPACE
  0
BLOCK_RECORD
  5
1B
330
1
100
AcDbSymbolTableRecord
100
AcDbBlockTableRecord
  2
*PAPER_SPACE
  0
ENDTAB
  0
ENDSEC
  0
SECTION
  2
BLOCKS
  0
BLOCK
  5
20
330
1F
100
AcDbEntity
  8
0
100
AcDbBlockBegin
  2
*MODEL_SPACE
 70
     0
 10
0.0
 20
0.0
 30
0.0
  3
*MODEL_SPACE
  1

  0
ENDBLK
  5
21
330
1F
100
AcDbEntity
  8
0
100
AcDbBlockEnd
  0
BLOCK
  5
1C
330
1B
100
AcDbEntity
 67
     1
  8
0
100
AcDbBlockBegin
  2
*PAPER_SPACE
  1

  0
ENDBLK
  5
1D
330
1B
100
AcDbEntity
 67
     1
  8
0
100
AcDbBlockEnd
  0
ENDSEC
  0
SECTION
  2
ENTITIES
  0
LWPOLYLINE
  5
100
100
AcDbEntity
  8
fold
 62
1
100
AcDbPolyline
 90
2
 70
0
 10
72.364870
 20
141.521408
 30
0.0
 10
72.216417
 20
150.964215
 30
0.0
  0
LWPOLYLINE
  5
101
100
AcDbEntity
  8
fold
 62
1
100
AcDbPolyline
 90
2
 70
0
 10
98.786601
 20
141.521408
 30
0.0
 10
98.935053
 20
150.964215
 30
0.0
  0
LWPOLYLINE
  5
102
100
AcDbEntity
  8
cuts
 62
7
100
AcDbPolyline
 90
2
 70
0
 10
85.749635
 20
175.697732
 30
0.0
 10
82.987684
 20
175.939913
 30
0.0
  0
SPLINE
  5
103
100
AcDbEntity
  8
cuts
 62
7
100
AcDbSpline
 70
0
 71
3
 72
13
 73
9
 74
7
 40
0.000000
 40
0.000000
 40
0.000000
 40
0.000000
 40
4.317349
 40
6.782435
 40
7.566585
 40
10.187311
 40
11.246126
 40
11.475180
 40
11.475180
 40
11.475180
 40
11.475180
 10
82.987684
 20
175.939913
 30
0.0
 10
81.594654
 20
175.573485
 30
0.0
 10
79.406243
 20
174.997836
 30
0.0
 10
77.001109
 20
174.261574
 30
0.0
 10
75.110703
 20
173.708366
 30
0.0
 10
73.936344
 20
172.822331
 30
0.0
 10
72.676538
 20
172.235590
 30
0.0
 10
72.251017
 20
172.312841
 30
0.0
 10
72.175336
 20
172.326580
 30
0.0
 11
82.987684
 21
175.939913
 31
0.0
 11
78.821775
 21
174.806465
 31
0.0
 11
76.458976
 21
174.103735
 31
0.0
 11
75.712815
 21
173.862624
 31
0.0
 11
73.414869
 21
172.602605
 31
0.0
 11
72.402049
 21
172.293921
 31
0.0
 11
72.175336
 21
172.326580
 31
0.0
  0
LWPOLYLINE
  5
104
100
AcDbEntity
  8
cuts
 62
7
100
AcDbPolyline
 90
4
 70
0
 10
72.175336
 20
172.326580
 30
0.0
 10
72.216417
 20
150.964215
 30
0.0
 10
52.952282
 20
153.079045
 30
0.0
 10
51.126652
 20
152.768123
 30
0.0
  0
LWPOLYLINE
  5
105
100
AcDbEntity
  8
cuts
 62
7
100
AcDbPolyline
 90
13
 70
0
 10
48.210618
 20
145.077246
 30
0.0
 10
44.098308
 20
145.775341
 30
0.0
 10
41.764220
 20
145.697908
 30
0.0
 10
42.135190
 20
137.031201
 30
0.0
 10
43.560611
 20
136.828130
 30
0.0
 10
43.270628
 20
130.476154
 30
0.0
 10
51.375937
 20
130.160884
 30
0.0
 10
51.138106
 20
137.329873
 30
0.0
 10
62.405575
 20
137.286410
 30
0.0
 10
62.715704
 20
130.453630
 30
0.0
 10
70.062476
 20
130.363553
 30
0.0
 10
69.999662
 20
137.287987
 30
0.0
 10
72.339282
 20
137.198701
 30
0.0
  0
LWPOLYLINE
  5
106
100
AcDbEntity
  8
cuts
 62
7
100
AcDbPolyline
 90
8
 70
0
 10
85.658145
 20
113.932843
 30
0.0
 10
72.188049
 20
114.057951
 30
0.0
 10
72.188049
 20
115.892887
 30
0.0
 10
69.852675
 20
115.559263
 30
0.0
 10
69.852675
 20
121.397697
 30
0.0
 10
72.146345
 20
120.938962
 30
0.0
 10
72.354861
 20
132.740937
 30
0.0
 10
70.102894
 20
132.740937
 30
0.0
  0
LWPOLYLINE
  5
107
100
AcDbEntity
  8
cuts
 62
7
100
AcDbPolyline
 90
2
 70
0
 10
68.726690
 20
140.789634
 30
0.0
 10
63.889133
 20
140.956445
 30
0.0
  0
LWPOLYLINE
  5
108
100
AcDbEntity
  8
cuts
 62
7
100
AcDbPolyline
 90
2
 70
0
 10
52.545893
 20
140.539414
 30
0.0
 10
47.374709
 20
140.789634
 30
0.0
  0
LWPOLYLINE
  5
109
100
AcDbEntity
  8
cuts
 62
1
100
AcDbPolyline
 90
3
 70
0
 10
72.354869
 20
132.740937
 30
0.0
 10
72.364870
 20
141.521408
 30
0.0
 10
85.575735
 20
141.403454
 30
0.0
  0
SPLINE
  5
10a
100
AcDbEntity
  8
cuts
 62
7
100
AcDbSpline
 70
0
 71
3
 72
16
 73
12
 74
10
 40
0.000000
 40
0.000000
 40
0.000000
 40
0.000000
 40
1.324092
 40
2.147612
 40
2.435629
 40
4.061320
 40
4.975328
 40
5.264338
 40
6.917824
 40
8.145899
 40
8.626900
 40
8.626900
 40
8.626900
 40
8.626900
 10
51.126652
 20
152.768123
 30
0.0
 10
50.768822
 20
152.508084
 30
0.0
 10
50.188440
 20
152.086314
 30
0.0
 10
49.623182
 20
151.499263
 30
0.0
 10
49.068508
 20
150.770284
 30
0.0
 10
48.867042
 20
149.815316
 30
0.0
 10
48.585845
 20
148.918809
 30
0.0
 10
48.450579
 20
147.974594
 30
0.0
 10
48.418958
 20
146.916747
 30
0.0
 10
48.294758
 20
145.802379
 30
0.0
 10
48.229098
 20
145.236505
 30
0.0
 10
48.210618
 20
145.077246
 30
0.0
 11
51.126652
 21
152.768123
 31
0.0
 11
50.084320
 21
151.951567
 31
0.0
 11
49.516864
 21
151.354760
 31
0.0
 11
49.345271
 21
151.123438
 31
0.0
 11
48.787031
 21
149.596599
 31
0.0
 11
48.559863
 21
148.711271
 31
0.0
 11
48.516799
 21
148.425487
 31
0.0
 11
48.389133
 21
146.776937
 31
0.0
 11
48.265856
 21
145.555065
 31
0.0
 11
48.210618
 21
145.077246
 31
0.0
  0
LWPOLYLINE
  5
10b
100
AcDbEntity
  8
cuts
 62
7
100
AcDbPolyline
 90
2
 70
0
 10
85.401835
 20
175.697732
 30
0.0
 10
88.163786
 20
175.939913
 30
0.0
  0
SPLINE
  5
10c
100
AcDbEntity
  8
cuts
 62
7
100
AcDbSpline
 70
0
 71
3
 72
13
 73
9
 74
7
 40
0.000000
 40
0.000000
 40
0.000000
 40
0.000000
 40
4.317349
 40
6.782435
 40
7.566585
 40
10.187311
 40
11.246126
 40
11.475180
 40
11.475180
 40
11.475180
 40
11.475180
 10
88.163786
 20
175.939913
 30
0.0
 10
89.556816
 20
175.573485
 30
0.0
 10
91.745228
 20
174.997836
 30
0.0
 10
94.150362
 20
174.261574
 30
0.0
 10
96.040767
 20
173.708366
 30
0.0
 10
97.215127
 20
172.822331
 30
0.0
 10
98.474933
 20
172.235590
 30
0.0
 10
98.900454
 20
172.312841
 30
0.0
 10
98.976135
 20
172.326580
 30
0.0
 11
88.163786
 21
175.939913
 31
0.0
 11
92.329696
 21
174.806465
 31
0.0
 11
94.692495
 21
174.103735
 31
0.0
 11
95.438656
 21
173.862624
 31
0.0
 11
97.736602
 21
172.602605
 31
0.0
 11
98.749422
 21
172.293921
 31
0.0
 11
98.976135
 21
172.326580
 31
0.0
  0
LWPOLYLINE
  5
10d
100
AcDbEntity
  8
cuts
 62
7
100
AcDbPolyline
 90
4
 70
0
 10
98.976135
 20
172.326580
 30
0.0
 10
98.935053
 20
150.964215
 30
0.0
 10
118.199186
 20
153.079045
 30
0.0
 10
120.024816
 20
152.768123
 30
0.0
  0
LWPOLYLINE
  5
10e
100
AcDbEntity
  8
cuts
 62
7
100
AcDbPolyline
 90
13
 70
0
 10
122.940850
 20
145.077246
 30
0.0
 10
127.053163
 20
145.775341
 30
0.0
 10
129.387251
 20
145.697908
 30
0.0
 10
129.016281
 20
137.031201
 30
0.0
 10
127.590860
 20
136.828130
 30
0.0
 10
127.880843
 20
130.476154
 30
0.0
 10
119.775531
 20
130.160884
 30
0.0
 10
120.013362
 20
137.329873
 30
0.0
 10
108.745893
 20
137.286410
 30
0.0
 10
108.435764
 20
130.453630
 30
0.0
 10
101.088994
 20
130.363553
 30
0.0
 10
101.151809
 20
137.287987
 30
0.0
 10
98.812189
 20
137.198701
 30
0.0
  0
LWPOLYLINE
  5
10f
100
AcDbEntity
  8
cuts
 62
7
100
AcDbPolyline
 90
8
 70
0
 10
85.493326
 20
113.932843
 30
0.0
 10
98.963422
 20
114.057951
 30
0.0
 10
98.963422
 20
115.892887
 30
0.0
 10
101.298796
 20
115.559263
 30
0.0
 10
101.298796
 20
121.397697
 30
0.0
 10
99.005125
 20
120.938962
 30
0.0
 10
98.796610
 20
132.740937
 30
0.0
 10
101.048577
 20
132.740937
 30
0.0
  0
LWPOLYLINE
  5
110
100
AcDbEntity
  8
cuts
 62
7
100
AcDbPolyline
 90
2
 70
0
 10
102.424780
 20
140.789634
 30
0.0
 10
107.262335
 20
140.956445
 30
0.0
  0
LWPOLYLINE
  5
111
100
AcDbEntity
  8
cuts
 62
7
100
AcDbPolyline
 90
2
 70
0
 10
118.605575
 20
140.539414
 30
0.0
 10
123.776759
 20
140.789634
 30
0.0
  0
SPLINE
  5
112
100
AcDbEntity
  8
cuts
 62
7
100
AcDbSpline
 70
0
 71
3
 72
16
 73
12
 74
10
 40
0.000000
 40
0.000000
 40
0.000000
 40
0.000000
 40
1.324092
 40
2.147612
 40
2.435629
 40
4.061320
 40
4.975328
 40
5.264338
 40
6.917824
 40
8.145899
 40
8.626900
 40
8.626900
 40
8.626900
 40
8.626900
 10
120.024816
 20
152.768123
 30
0.0
 10
120.382646
 20
152.508084
 30
0.0
 10
120.963028
 20
152.086314
 30
0.0
 10
121.528286
 20
151.499263
 30
0.0
 10
122.082960
 20
150.770284
 30
0.0
 10
122.284426
 20
149.815316
 30
0.0
 10
122.565623
 20
148.918809
 30
0.0
 10
122.700889
 20
147.974594
 30
0.0
 10
122.732510
 20
146.916747
 30
0.0
 10
122.856710
 20
145.802379
 30
0.0
 10
122.922370
 20
145.236505
 30
0.0
 10
122.940850
 20
145.077246
 30
0.0
 11
120.024816
 21
152.768123
 31
0.0
 11
121.067148
 21
151.951567
 31
0.0
 11
121.634604
 21
151.354760
 31
0.0
 11
121.806197
 21
151.123438
 31
0.0
 11
122.364437
 21
149.596599
 31
0.0
 11
122.591605
 21
148.711271
 31
0.0
 11
122.634669
 21
148.425487
 31
0.0
 11
122.762335
 21
146.776937
 31
0.0
 11
122.885612
 21
145.555065
 31
0.0
 11
122.940850
 21
145.077246
 31
0.0
  0
LWPOLYLINE
  5
113
100
AcDbEntity
  8
cuts
 62
1
100
AcDbPolyline
 90
3
 70
0
 10
98.796602
 20
132.740937
 30
0.0
 10
98.786601
 20
141.521408
 30
0.0
 10
85.575735
 20
141.403454
 30
0.0
  0
ENDSEC
  0
SECTION
  2
OBJECTS
  0
DICTIONARY
  5
C
330
0
100
AcDbDictionary
  3
ACAD_GROUP
350
D
  3
ACAD_MLINESTYLE
350
17
  0
DICTIONARY
  5
D
330
C
100
AcDbDictionary
  0
DICTIONARY
  5
1A
330
C
100
AcDbDictionary
  0
DICTIONARY
  5
17
330
C
100
AcDbDictionary
  3
STANDARD
350
18
  0
DICTIONARY
  5
19
330
C
100
AcDbDictionary
  0
ENDSEC
  0
EOF
