  0
SECTION
  2
HEADER
  9
$ACADVER
  1
AC1014
  9
$HANDSEED
  5
FFFF
  9
$MEASUREMENT
 70
     1
  0
ENDSEC
  0
SECTION
  2
TABLES
  0
TABLE
  2
VPORT
  5
8
330
0
100
AcDbSymbolTable
 70
     4
  0
VPORT
  5
2E
330
8
100
AcDbSymbolTableRecord
100
AcDbViewportTableRecord
  2
*ACTIVE
 70
     0
 10
0.0
 20
0.0
 11
1.0
 21
1.0
 12
210.0
 22
148.5
 13
0.0
 23
0.0
 14
10.0
 24
10.0
 15
10.0
 25
10.0
 16
0.0
 26
0.0
 36
1.0
 17
0.0
 27
0.0
 37
0.0
 40
341.0
 41
1.24
 42
50.0
 43
0.0
 44
0.0
 50
0.0
 51
0.0
 71
     0
 72
   100
 73
     1
 74
     3
 75
     0
 76
     0
 77
     0
 78
     0
  0
ENDTAB
  0
TABLE
  2
LTYPE
  5
5
330
0
100
AcDbSymbolTable
 70
     1
  0
LTYPE
  5
14
330
5
100
AcDbSymbolTableRecord
100
AcDbLinetypeTableRecord
  2
BYBLOCK
 70
     0
  3

 72
    65
 73
     0
 40
0.0
  0
LTYPE
  5
15
330
5
100
AcDbSymbolTableRecord
100
AcDbLinetypeTableRecord
  2
BYLAYER
 70
     0
  3

 72
    65
 73
     0
 40
0.0
  0
LTYPE
  5
16
330
5
100
AcDbSymbolTableRecord
100
AcDbLinetypeTableRecord
  2
CONTINUOUS
 70
     0
  3
Solid line
 72
    65
 73
     0
 40
0.0
  0
ENDTAB
  0
TABLE
  2
LAYER
  5
2
100
AcDbSymbolTable
 70
4
  0
LAYER
  5
50
100
AcDbSymbolTableRecord
100
AcDbLayerTableRecord
  2
0
 70
0
  6
CONTINUOUS
  0
LAYER
  5
51
100
AcDbSymbolTableRecord
100
AcDbLayerTableRecord
  2
scan_20230315155426
 70
0
  6
CONTINUOUS
  0
LAYER
  5
52
100
AcDbSymbolTableRecord
100
AcDbLayerTableRecord
  2
fold
 70
0
  6
CONTINUOUS
  0
LAYER
  5
53
100
AcDbSymbolTableRecord
100
AcDbLayerTableRecord
  2
cuts
 70
0
  6
CONTINUOUS
  0
ENDTAB
  0
TABLE
  2
STYLE
  5
3
330
0
100
AcDbSymbolTable
 70
     1
  0
STYLE
  5
11
330
3
100
AcDbSymbolTableRecord
100
AcDbTextStyleTableRecord
  2
STANDARD
 70
     0
 40
0.0
 41
1.0
 50
0.0
 71
     0
 42
2.5
  3
txt
  4

  0
ENDTAB
  0
TABLE
  2
VIEW
  5
6
330
0
100
AcDbSymbolTable
 70
     0
  0
ENDTAB
  0
TABLE
  2
UCS
  5
7
330
0
100
AcDbSymbolTable
 70
     0
  0
ENDTAB
  0
TABLE
  2
APPID
  5
9
330
0
100
AcDbSymbolTable
 70
     2
  0
APPID
  5
12
330
9
100
AcDbSymbolTableRecord
100
AcDbRegAppTableRecord
  2
ACAD
 70
     0
  0
ENDTAB
  0
TABLE
  2
DIMSTYLE
  5
A
330
0
100
AcDbSymbolTable
 70
     1
  0
DIMSTYLE
105
27
330
A
100
AcDbSymbolTableRecord
100
AcDbDimStyleTableRecord
  2
ISO-25
 70
     0
  3

  4

  5

  6

  7

 40
1.0
 41
2.5
 42
0.625
 43
3.75
 44
1.25
 45
0.0
 46
0.0
 47
0.0
 48
0.0
140
2.5
141
2.5
142
0.0
143
0.03937007874016
144
1.0
145
0.0
146
1.0
147
0.625
 71
     0
 72
     0
 73
     0
 74
     0
 75
     0
 76
     0
 77
     1
 78
     8
170
     0
171
     3
172
     1
173
     0
174
     0
175
     0
176
     0
177
     0
178
     0
270
     2
271
     2
272
     2
273
     2
274
     3
340
11
275
     0
280
     0
281
     0
282
     0
283
     0
284
     8
285
     0
286
     0
287
     3
288
     0
  0
ENDTAB
  0
TABLE
  2
BLOCK_RECORD
  5
1
330
0
100
AcDbSymbolTable
 70
     1
  0
BLOCK_RECORD
  5
1F
330
1
100
AcDbSymbolTableRecord
100
AcDbBlockTableRecord
  2
*MODEL_SPACE
  0
BLOCK_RECORD
  5
1B
330
1
100
AcDbSymbolTableRecord
100
AcDbBlockTableRecord
  2
*PAPER_SPACE
  0
ENDTAB
  0
ENDSEC
  0
SECTION
  2
BLOCKS
  0
BLOCK
  5
20
330
1F
100
AcDbEntity
  8
0
100
AcDbBlockBegin
  2
*MODEL_SPACE
 70
     0
 10
0.0
 20
0.0
 30
0.0
  3
*MODEL_SPACE
  1

  0
ENDBLK
  5
21
330
1F
100
AcDbEntity
  8
0
100
AcDbBlockEnd
  0
BLOCK
  5
1C
330
1B
100
AcDbEntity
 67
     1
  8
0
100
AcDbBlockBegin
  2
*PAPER_SPACE
  1

  0
ENDBLK
  5
1D
330
1B
100
AcDbEntity
 67
     1
  8
0
100
AcDbBlockEnd
  0
ENDSEC
  0
SECTION
  2
ENTITIES
  0
LWPOLYLINE
  5
100
100
AcDbEntity
  8
fold
 62
1
100
AcDbPolyline
 90
3
 70
0
 10
50.130514
 20
256.585680
 30
0.0
 10
50.248468
 20
241.841412
 30
0.0
 10
82.685858
 20
241.959365
 30
0.0
  0
LWPOLYLINE
  5
101
100
AcDbEntity
  8
cuts
 62
7
100
AcDbPolyline
 90
8
 70
0
 10
84.101306
 20
216.009451
 30
0.0
 10
50.602330
 20
216.127406
 30
0.0
 10
50.720285
 20
218.132626
 30
0.0
 10
48.243245
 20
217.896720
 30
0.0
 10
48.479155
 20
223.086702
 30
0.0
 10
51.781871
 20
222.850793
 30
0.0
 10
51.192101
 20
234.056440
 30
0.0
 10
48.479155
 20
234.174391
 30
0.0
  0
LWPOLYLINE
  5
102
100
AcDbEntity
  8
cuts
 62
7
100
AcDbPolyline
 90
2
 70
0
 10
26.893546
 20
242.313228
 30
0.0
 10
32.319436
 20
242.313228
 30
0.0
  0
LWPOLYLINE
  5
103
100
AcDbEntity
  8
cuts
 62
7
100
AcDbPolyline
 90
2
 70
0
 10
41.755768
 20
241.369597
 30
0.0
 10
47.771430
 20
241.369597
 30
0.0
  0
LWPOLYLINE
  5
104
100
AcDbEntity
  8
cuts
 62
7
100
AcDbPolyline
 90
2
 70
0
 10
47.653479
 20
242.902999
 30
0.0
 10
47.653479
 20
239.954147
 30
0.0
  0
LWPOLYLINE
  5
105
100
AcDbEntity
  8
cuts
 62
7
100
AcDbPolyline
 90
2
 70
0
 10
41.755768
 20
241.369597
 30
0.0
 10
42.463497
 20
243.020953
 30
0.0
  0
SPLINE
  5
106
100
AcDbEntity
  8
cuts
 62
7
100
AcDbSpline
 70
0
 71
3
 72
10
 73
6
 74
4
 40
0.000000
 40
0.000000
 40
0.000000
 40
0.000000
 40
0.554602
 40
1.322510
 40
1.710344
 40
1.710344
 40
1.710344
 40
1.710344
 10
26.731680
 20
243.420936
 30
0.0
 10
26.728336
 20
243.236098
 30
0.0
 10
26.720364
 20
242.795332
 30
0.0
 10
26.704301
 20
242.225436
 30
0.0
 10
26.693575
 20
241.840339
 30
0.0
 10
26.689976
 20
241.711111
 30
0.0
 11
26.731680
 21
243.420936
 31
0.0
 11
26.720868
 21
242.866440
 31
0.0
 11
26.700788
 21
242.098795
 31
0.0
 11
26.689976
 21
241.711111
 31
0.0
  0
LWPOLYLINE
  5
107
100
AcDbEntity
  8
cuts
 62
7
100
AcDbPolyline
 90
2
 70
0
 10
32.111378
 20
243.087311
 30
0.0
 10
32.153082
 20
241.502594
 30
0.0
  0
SPLINE
  5
108
100
AcDbEntity
  8
cuts
 62
7
100
AcDbSpline
 70
0
 71
3
 72
52
 73
48
 74
46
 40
0.000000
 40
0.000000
 40
0.000000
 40
0.000000
 40
0.336260
 40
1.047812
 40
1.762092
 40
2.834235
 40
4.301490
 40
5.650335
 40
12.582600
 40
24.221365
 40
30.367444
 40
30.802323
 40
31.792010
 40
32.913784
 40
34.134137
 40
35.342373
 40
36.110973
 40
37.795413
 40
40.491903
 40
41.901604
 40
42.655311
 40
44.148814
 40
45.233310
 40
46.013146
 40
47.157243
 40
48.351581
 40
50.112389
 40
52.316417
 40
53.707584
 40
55.521689
 40
58.545124
 40
60.909425
 40
62.562522
 40
64.426810
 40
66.113187
 40
67.714455
 40
69.178411
 40
70.021024
 40
70.801992
 40
71.648432
 40
72.175740
 40
72.862782
 40
73.876507
 40
74.526287
 40
74.843919
 40
75.186860
 40
75.348102
 40
75.348102
 40
75.348102
 40
75.348102
 10
82.862790
 20
263.898838
 30
0.0
 10
82.851732
 20
264.010200
 30
0.0
 10
82.817273
 20
264.357214
 30
0.0
 10
82.694684
 20
264.942673
 30
0.0
 10
82.165527
 20
265.627303
 30
0.0
 10
81.165367
 20
266.086096
 30
0.0
 10
80.054311
 20
266.768864
 30
0.0
 10
76.829366
 20
267.410187
 30
0.0
 10
70.144284
 20
267.066560
 30
0.0
 10
62.047359
 20
266.778550
 30
0.0
 10
55.745215
 20
268.248502
 30
0.0
 10
53.382814
 20
267.337420
 30
0.0
 10
52.622687
 20
266.956964
 30
0.0
 10
51.753895
 20
266.222868
 30
0.0
 10
51.232852
 20
265.138993
 30
0.0
 10
50.845164
 20
264.150913
 30
0.0
 10
50.555366
 20
262.952258
 30
0.0
 10
50.863062
 20
261.223554
 30
0.0
 10
50.766133
 20
259.322994
 30
0.0
 10
51.175600
 20
257.663128
 30
0.0
 10
50.624995
 20
256.538575
 30
0.0
 10
50.227865
 20
255.525975
 30
0.0
 10
49.850946
 20
254.429546
 30
0.0
 10
49.040789
 20
253.797538
 30
0.0
 10
48.157384
 20
253.258660
 30
0.0
 10
46.896768
 20
252.712645
 30
0.0
 10
45.232540
 20
252.271807
 30
0.0
 10
43.517732
 20
251.777872
 30
0.0
 10
41.737839
 20
251.448300
 30
0.0
 10
39.654486
 20
251.477145
 30
0.0
 10
37.264132
 20
251.285671
 30
0.0
 10
34.913158
 20
251.156436
 30
0.0
 10
32.961218
 20
251.367134
 30
0.0
 10
31.235766
 20
251.561452
 30
0.0
 10
29.517345
 20
251.547765
 30
0.0
 10
27.930152
 20
251.348998
 30
0.0
 10
26.670057
 20
251.297866
 30
0.0
 10
25.587643
 20
250.854696
 30
0.0
 10
25.557512
 20
249.941560
 30
0.0
 10
25.396568
 20
249.265931
 30
0.0
 10
25.434570
 20
248.549225
 30
0.0
 10
25.927865
 20
247.959195
 30
0.0
 10
26.267082
 20
247.256128
 30
0.0
 10
26.558266
 20
246.663217
 30
0.0
 10
26.725567
 20
246.258343
 30
0.0
 10
26.881989
 20
246.031764
 30
0.0
 10
26.980118
 20
245.895447
 30
0.0
 10
27.011500
 20
245.851852
 30
0.0
 11
82.862790
 21
263.898838
 31
0.0
 11
82.825656
 21
264.233041
 31
0.0
 11
82.644356
 21
264.921108
 31
0.0
 11
82.214043
 21
265.491219
 31
0.0
 11
81.296621
 21
266.046040
 31
0.0
 11
79.986019
 21
266.705710
 31
0.0
 11
78.675418
 21
267.024623
 31
0.0
 11
71.744519
 21
267.162236
 31
0.0
 11
60.108560
 21
267.417803
 31
0.0
 11
53.964022
 21
267.555416
 31
0.0
 11
53.557736
 21
267.400329
 31
0.0
 11
52.679634
 21
266.943802
 31
0.0
 11
51.840850
 21
266.198943
 31
0.0
 11
51.246710
 21
265.132987
 31
0.0
 11
50.822949
 21
264.001502
 31
0.0
 11
50.661308
 21
263.250090
 31
0.0
 11
50.753050
 21
261.568151
 31
0.0
 11
50.923428
 21
258.877048
 31
0.0
 11
51.015170
 21
257.470336
 31
0.0
 11
50.744312
 21
256.766980
 31
0.0
 11
50.185122
 21
255.382112
 31
0.0
 11
49.717674
 21
254.403529
 31
0.0
 11
49.134456
 21
253.885841
 31
0.0
 11
48.158058
 21
253.289517
 31
0.0
 11
47.063705
 21
252.811148
 31
0.0
 11
45.377398
 21
252.304382
 31
0.0
 11
43.245486
 21
251.745193
 31
0.0
 11
41.873723
 21
251.513652
 31
0.0
 11
40.060724
 21
251.450307
 31
0.0
 11
37.041971
 21
251.282113
 31
0.0
 11
34.678519
 21
251.218766
 31
0.0
 11
33.031531
 21
251.360749
 31
0.0
 11
31.174845
 21
251.528943
 31
0.0
 11
29.488537
 21
251.513652
 31
0.0
 11
27.893972
 21
251.367301
 31
0.0
 11
26.443573
 21
251.168527
 31
0.0
 11
25.714005
 21
250.746951
 31
0.0
 11
25.534889
 21
249.986801
 31
0.0
 11
25.421304
 21
249.148015
 31
0.0
 11
25.478096
 21
248.623775
 31
0.0
 11
25.834143
 21
248.036189
 31
0.0
 11
26.321250
 21
247.147164
 31
0.0
 11
26.598660
 21
246.559578
 31
0.0
 11
26.731906
 21
246.271246
 31
0.0
 11
26.917574
 21
245.982913
 31
0.0
 11
27.011500
 21
245.851852
 31
0.0
  0
LWPOLYLINE
  5
109
100
AcDbEntity
  8
cuts
 62
7
100
AcDbPolyline
 90
2
 70
0
 10
27.011500
 20
245.851852
 30
0.0
 10
23.001059
 20
245.615944
 30
0.0
  0
SPLINE
  5
10a
100
AcDbEntity
  8
cuts
 62
7
100
AcDbSpline
 70
0
 71
3
 72
25
 73
21
 74
19
 40
0.000000
 40
0.000000
 40
0.000000
 40
0.000000
 40
0.399566
 40
1.185068
 40
1.776798
 40
3.676466
 40
6.769119
 40
8.391803
 40
8.789286
 40
9.526314
 40
9.988533
 40
10.335072
 40
10.741528
 40
11.133645
 40
11.802979
 40
12.592163
 40
13.216899
 40
14.205494
 40
15.517936
 40
16.173601
 40
16.173601
 40
16.173601
 40
16.173601
 10
23.001059
 20
245.615944
 30
0.0
 10
22.877965
 20
245.565332
 30
0.0
 10
22.512880
 20
245.415220
 30
0.0
 10
21.967229
 20
245.176100
 30
0.0
 10
21.161177
 20
244.372438
 30
0.0
 10
21.525063
 20
242.172513
 30
0.0
 10
21.602495
 20
240.790851
 30
0.0
 10
20.734001
 20
237.716101
 30
0.0
 10
21.634058
 20
238.358635
 30
0.0
 10
22.069225
 20
238.596929
 30
0.0
 10
22.634456
 20
238.608200
 30
0.0
 10
22.942835
 20
238.293442
 30
0.0
 10
23.368561
 20
238.391655
 30
0.0
 10
23.748690
 20
238.002251
 30
0.0
 10
23.881766
 20
237.397467
 30
0.0
 10
24.146434
 20
236.754138
 30
0.0
 10
24.178561
 20
235.919625
 30
0.0
 10
23.587926
 20
235.092586
 30
0.0
 10
23.149187
 20
234.222395
 30
0.0
 10
22.816880
 20
233.655518
 30
0.0
 10
22.706174
 20
233.466666
 30
0.0
 11
23.001059
 21
245.615944
 31
0.0
 11
22.631906
 21
245.463041
 31
0.0
 11
21.935103
 21
245.100441
 31
0.0
 11
21.526632
 21
244.672310
 31
0.0
 11
21.408678
 21
242.776308
 31
0.0
 11
21.251406
 21
239.687657
 31
0.0
 11
21.172770
 21
238.066879
 31
0.0
 11
21.515711
 21
238.267838
 31
0.0
 11
22.186302
 21
238.573645
 31
0.0
 11
22.647197
 21
238.538695
 31
0.0
 11
22.946451
 21
238.363948
 31
0.0
 11
23.350553
 21
238.320261
 31
0.0
 11
23.649807
 21
238.066879
 31
0.0
 11
23.890084
 21
237.442159
 31
0.0
 11
24.117255
 21
236.686379
 31
0.0
 11
24.121624
 21
236.061657
 31
0.0
 11
23.676019
 21
235.179186
 31
0.0
 11
23.033824
 21
234.034594
 31
0.0
 11
22.706174
 21
233.466666
 31
0.0
  0
LWPOLYLINE
  5
10b
100
AcDbEntity
  8
cuts
 62
7
100
AcDbPolyline
 90
5
 70
0
 10
22.706174
 20
233.466666
 30
0.0
 10
22.647197
 20
231.697355
 30
0.0
 10
28.957744
 20
231.756331
 30
0.0
 10
28.898768
 20
238.361765
 30
0.0
 10
42.758379
 20
238.302787
 30
0.0
  0
LWPOLYLINE
  5
10c
100
AcDbEntity
  8
cuts
 62
7
100
AcDbPolyline
 90
4
 70
0
 10
41.814747
 20
231.756331
 30
0.0
 10
48.361200
 20
232.346103
 30
0.0
 10
48.302225
 20
238.066879
 30
0.0
 10
51.369031
 20
238.125857
 30
0.0
  0
LWPOLYLINE
  5
10d
100
AcDbEntity
  8
cuts
 62
1
100
AcDbPolyline
 90
3
 70
0
 10
115.595067
 20
256.585680
 30
0.0
 10
115.477113
 20
241.841412
 30
0.0
 10
83.039723
 20
241.959365
 30
0.0
  0
LWPOLYLINE
  5
10e
100
AcDbEntity
  8
cuts
 62
7
100
AcDbPolyline
 90
8
 70
0
 10
81.624276
 20
216.009450
 30
0.0
 10
115.123251
 20
216.127404
 30
0.0
 10
115.005297
 20
218.132626
 30
0.0
 10
117.482337
 20
217.896720
 30
0.0
 10
117.246426
 20
223.086702
 30
0.0
 10
113.943712
 20
222.850792
 30
0.0
 10
114.533482
 20
234.056439
 30
0.0
 10
117.246426
 20
234.174390
 30
0.0
  0
LWPOLYLINE
  5
10f
100
AcDbEntity
  8
cuts
 62
7
100
AcDbPolyline
 90
2
 70
0
 10
138.832034
 20
242.313227
 30
0.0
 10
133.406145
 20
242.313227
 30
0.0
  0
LWPOLYLINE
  5
110
100
AcDbEntity
  8
cuts
 62
7
100
AcDbPolyline
 90
2
 70
0
 10
123.969814
 20
241.369596
 30
0.0
 10
117.954152
 20
241.369596
 30
0.0
  0
LWPOLYLINE
  5
111
100
AcDbEntity
  8
cuts
 62
7
100
AcDbPolyline
 90
2
 70
0
 10
118.072104
 20
242.902999
 30
0.0
 10
118.072104
 20
239.954147
 30
0.0
  0
LWPOLYLINE
  5
112
100
AcDbEntity
  8
cuts
 62
7
100
AcDbPolyline
 90
2
 70
0
 10
123.969814
 20
241.369596
 30
0.0
 10
123.262086
 20
243.020953
 30
0.0
  0
SPLINE
  5
113
100
AcDbEntity
  8
cuts
 62
7
100
AcDbSpline
 70
0
 71
3
 72
19
 73
15
 74
13
 40
0.000000
 40
0.000000
 40
0.000000
 40
0.000000
 40
0.415369
 40
1.278554
 40
2.016277
 40
2.442364
 40
2.934194
 40
3.683526
 40
4.517899
 40
5.199584
 40
5.770716
 40
6.331286
 40
6.803790
 40
7.002745
 40
7.002745
 40
7.002745
 40
7.002745
 10
42.758379
 20
238.302787
 30
0.0
 10
42.811339
 20
238.174820
 30
0.0
 10
42.974357
 20
237.780922
 30
0.0
 10
43.207406
 20
237.151649
 30
0.0
 10
43.477792
 20
236.527811
 30
0.0
 10
43.510086
 20
235.960276
 30
0.0
 10
43.274732
 20
235.445773
 30
0.0
 10
43.050830
 20
234.795422
 30
0.0
 10
42.763383
 20
234.092427
 30
0.0
 10
42.385153
 20
233.506446
 30
0.0
 10
42.153042
 20
232.943921
 30
0.0
 10
42.041871
 20
232.419727
 30
0.0
 10
41.910621
 20
232.030138
 30
0.0
 10
41.836662
 20
231.818916
 30
0.0
 10
41.814747
 20
231.756331
 30
0.0
 11
42.758379
 21
238.302787
 31
0.0
 11
42.915651
 21
237.918344
 31
0.0
 11
43.230196
 21
237.114509
 31
0.0
 11
43.466105
 21
236.415522
 31
0.0
 11
43.477026
 21
235.989575
 31
0.0
 11
43.317570
 21
235.524312
 31
0.0
 11
43.053265
 21
234.823140
 31
0.0
 11
42.719061
 21
234.058623
 31
0.0
 11
42.384858
 21
233.464482
 31
0.0
 11
42.168609
 21
232.935873
 31
0.0
 11
42.024443
 21
232.394158
 31
0.0
 11
41.880277
 21
231.944184
 31
0.0
 11
41.814747
 21
231.756331
 31
0.0
  0
SPLINE
  5
114
100
AcDbEntity
  8
cuts
 62
7
100
AcDbSpline
 70
0
 71
3
 72
10
 73
6
 74
4
 40
0.000000
 40
0.000000
 40
0.000000
 40
0.000000
 40
0.554602
 40
1.322511
 40
1.710346
 40
1.710346
 40
1.710346
 40
1.710346
 10
138.993901
 20
243.420937
 30
0.0
 10
138.997244
 20
243.236099
 30
0.0
 10
139.005217
 20
242.795332
 30
0.0
 10
139.021280
 20
242.225436
 30
0.0
 10
139.032006
 20
241.840338
 30
0.0
 10
139.035605
 20
241.711110
 30
0.0
 11
138.993901
 21
243.420937
 31
0.0
 11
139.004713
 21
242.866440
 31
0.0
 11
139.024793
 21
242.098794
 31
0.0
 11
139.035605
 21
241.711110
 31
0.0
  0
LWPOLYLINE
  5
115
100
AcDbEntity
  8
cuts
 62
7
100
AcDbPolyline
 90
2
 70
0
 10
133.614202
 20
243.087311
 30
0.0
 10
133.572499
 20
241.502594
 30
0.0
  0
SPLINE
  5
116
100
AcDbEntity
  8
cuts
 62
7
100
AcDbSpline
 70
0
 71
3
 72
52
 73
48
 74
46
 40
0.000000
 40
0.000000
 40
0.000000
 40
0.000000
 40
0.336260
 40
1.047812
 40
1.762092
 40
2.834235
 40
4.301490
 40
5.650335
 40
12.582600
 40
24.221365
 40
30.367444
 40
30.802323
 40
31.792010
 40
32.913784
 40
34.134137
 40
35.342373
 40
36.110973
 40
37.795413
 40
40.491903
 40
41.901604
 40
42.655311
 40
44.148814
 40
45.233310
 40
46.013146
 40
47.157243
 40
48.351581
 40
50.112389
 40
52.316417
 40
53.707584
 40
55.521689
 40
58.545124
 40
60.909425
 40
62.562522
 40
64.426810
 40
66.113187
 40
67.714455
 40
69.178413
 40
70.021026
 40
70.801993
 40
71.648434
 40
72.175742
 40
72.862785
 40
73.876510
 40
74.526290
 40
74.843922
 40
75.186863
 40
75.348105
 40
75.348105
 40
75.348105
 40
75.348105
 10
82.862790
 20
263.898838
 30
0.0
 10
82.873849
 20
264.010200
 30
0.0
 10
82.908308
 20
264.357214
 30
0.0
 10
83.030897
 20
264.942673
 30
0.0
 10
83.560054
 20
265.627303
 30
0.0
 10
84.560213
 20
266.086096
 30
0.0
 10
85.671270
 20
266.768864
 30
0.0
 10
88.896215
 20
267.410187
 30
0.0
 10
95.581296
 20
267.066560
 30
0.0
 10
103.678222
 20
266.778550
 30
0.0
 10
109.980366
 20
268.248502
 30
0.0
 10
112.342767
 20
267.337420
 30
0.0
 10
113.102894
 20
266.956964
 30
0.0
 10
113.971686
 20
266.222868
 30
0.0
 10
114.492728
 20
265.138993
 30
0.0
 10
114.880417
 20
264.150913
 30
0.0
 10
115.170215
 20
262.952258
 30
0.0
 10
114.862519
 20
261.223554
 30
0.0
 10
114.959447
 20
259.322994
 30
0.0
 10
114.549981
 20
257.663128
 30
0.0
 10
115.100586
 20
256.538575
 30
0.0
 10
115.497716
 20
255.525975
 30
0.0
 10
115.874635
 20
254.429546
 30
0.0
 10
116.684792
 20
253.797538
 30
0.0
 10
117.568197
 20
253.258660
 30
0.0
 10
118.828813
 20
252.712645
 30
0.0
 10
120.493040
 20
252.271807
 30
0.0
 10
122.207849
 20
251.777872
 30
0.0
 10
123.987742
 20
251.448300
 30
0.0
 10
126.071095
 20
251.477145
 30
0.0
 10
128.461449
 20
251.285671
 30
0.0
 10
130.812423
 20
251.156436
 30
0.0
 10
132.764362
 20
251.367134
 30
0.0
 10
134.489815
 20
251.561452
 30
0.0
 10
136.208236
 20
251.547765
 30
0.0
 10
137.795430
 20
251.348998
 30
0.0
 10
139.055525
 20
251.297866
 30
0.0
 10
140.137941
 20
250.854696
 30
0.0
 10
140.168070
 20
249.941560
 30
0.0
 10
140.329013
 20
249.265932
 30
0.0
 10
140.291014
 20
248.549225
 30
0.0
 10
139.797716
 20
247.959196
 30
0.0
 10
139.458499
 20
247.256128
 30
0.0
 10
139.167315
 20
246.663217
 30
0.0
 10
139.000014
 20
246.258343
 30
0.0
 10
138.843592
 20
246.031764
 30
0.0
 10
138.745463
 20
245.895447
 30
0.0
 10
138.714080
 20
245.851852
 30
0.0
 11
82.862790
 21
263.898838
 31
0.0
 11
82.899924
 21
264.233041
 31
0.0
 11
83.081225
 21
264.921108
 31
0.0
 11
83.511538
 21
265.491219
 31
0.0
 11
84.428960
 21
266.046040
 31
0.0
 11
85.739561
 21
266.705710
 31
0.0
 11
87.050163
 21
267.024623
 31
0.0
 11
93.981062
 21
267.162236
 31
0.0
 11
105.617021
 21
267.417803
 31
0.0
 11
111.761558
 21
267.555416
 31
0.0
 11
112.167844
 21
267.400329
 31
0.0
 11
113.045947
 21
266.943802
 31
0.0
 11
113.884731
 21
266.198943
 31
0.0
 11
114.478871
 21
265.132987
 31
0.0
 11
114.902632
 21
264.001502
 31
0.0
 11
115.064273
 21
263.250090
 31
0.0
 11
114.972531
 21
261.568151
 31
0.0
 11
114.802153
 21
258.877048
 31
0.0
 11
114.710411
 21
257.470336
 31
0.0
 11
114.981269
 21
256.766980
 31
0.0
 11
115.540458
 21
255.382112
 31
0.0
 11
116.007907
 21
254.403529
 31
0.0
 11
116.591125
 21
253.885841
 31
0.0
 11
117.567523
 21
253.289517
 31
0.0
 11
118.661876
 21
252.811148
 31
0.0
 11
120.348183
 21
252.304382
 31
0.0
 11
122.480094
 21
251.745193
 31
0.0
 11
123.851858
 21
251.513652
 31
0.0
 11
125.664856
 21
251.450307
 31
0.0
 11
128.683610
 21
251.282113
 31
0.0
 11
131.047061
 21
251.218766
 31
0.0
 11
132.694050
 21
251.360749
 31
0.0
 11
134.550736
 21
251.528943
 31
0.0
 11
136.237043
 21
251.513652
 31
0.0
 11
137.831610
 21
251.367301
 31
0.0
 11
139.282009
 21
251.168527
 31
0.0
 11
140.011579
 21
250.746951
 31
0.0
 11
140.190693
 21
249.986801
 31
0.0
 11
140.304278
 21
249.148015
 31
0.0
 11
140.247486
 21
248.623775
 31
0.0
 11
139.891438
 21
248.036189
 31
0.0
 11
139.404331
 21
247.147164
 31
0.0
 11
139.126920
 21
246.559578
 31
0.0
 11
138.993675
 21
246.271246
 31
0.0
 11
138.808007
 21
245.982913
 31
0.0
 11
138.714080
 21
245.851852
 31
0.0
  0
LWPOLYLINE
  5
117
100
AcDbEntity
  8
cuts
 62
7
100
AcDbPolyline
 90
2
 70
0
 10
138.714080
 20
245.851852
 30
0.0
 10
142.724524
 20
245.615944
 30
0.0
  0
SPLINE
  5
118
100
AcDbEntity
  8
cuts
 62
7
100
AcDbSpline
 70
0
 71
3
 72
25
 73
21
 74
19
 40
0.000000
 40
0.000000
 40
0.000000
 40
0.000000
 40
0.399566
 40
1.185068
 40
1.776797
 40
3.676465
 40
6.769118
 40
8.391802
 40
8.789285
 40
9.526313
 40
9.988532
 40
10.335072
 40
10.741528
 40
11.133644
 40
11.802978
 40
12.592162
 40
13.216898
 40
14.205493
 40
15.517935
 40
16.173600
 40
16.173600
 40
16.173600
 40
16.173600
 10
142.724524
 20
245.615944
 30
0.0
 10
142.847618
 20
245.565332
 30
0.0
 10
143.212702
 20
245.415220
 30
0.0
 10
143.758353
 20
245.176101
 30
0.0
 10
144.564403
 20
244.372437
 30
0.0
 10
144.200520
 20
242.172514
 30
0.0
 10
144.123087
 20
240.790851
 30
0.0
 10
144.991581
 20
237.716101
 30
0.0
 10
144.091525
 20
238.358635
 30
0.0
 10
143.656357
 20
238.596929
 30
0.0
 10
143.091126
 20
238.608200
 30
0.0
 10
142.782746
 20
238.293442
 30
0.0
 10
142.357021
 20
238.391655
 30
0.0
 10
141.976893
 20
238.002250
 30
0.0
 10
141.843816
 20
237.397468
 30
0.0
 10
141.579149
 20
236.754138
 30
0.0
 10
141.547019
 20
235.919625
 30
0.0
 10
142.137656
 20
235.092586
 30
0.0
 10
142.576394
 20
234.222395
 30
0.0
 10
142.908701
 20
233.655518
 30
0.0
 10
143.019407
 20
233.466666
 30
0.0
 11
142.724524
 21
245.615944
 31
0.0
 11
143.093676
 21
245.463041
 31
0.0
 11
143.790479
 21
245.100441
 31
0.0
 11
144.198949
 21
244.672310
 31
0.0
 11
144.316904
 21
242.776308
 31
0.0
 11
144.474177
 21
239.687657
 31
0.0
 11
144.552813
 21
238.066879
 31
0.0
 11
144.209872
 21
238.267838
 31
0.0
 11
143.539281
 21
238.573645
 31
0.0
 11
143.078385
 21
238.538695
 31
0.0
 11
142.779131
 21
238.363948
 31
0.0
 11
142.375029
 21
238.320261
 31
0.0
 11
142.075776
 21
238.066879
 31
0.0
 11
141.835498
 21
237.442159
 31
0.0
 11
141.608327
 21
236.686379
 31
0.0
 11
141.603958
 21
236.061657
 31
0.0
 11
142.049562
 21
235.179186
 31
0.0
 11
142.691757
 21
234.034594
 31
0.0
 11
143.019407
 21
233.466666
 31
0.0
  0
LWPOLYLINE
  5
119
100
AcDbEntity
  8
cuts
 62
7
100
AcDbPolyline
 90
5
 70
0
 10
143.019407
 20
233.466666
 30
0.0
 10
143.078385
 20
231.697355
 30
0.0
 10
136.767837
 20
231.756331
 30
0.0
 10
136.826813
 20
238.361765
 30
0.0
 10
122.967202
 20
238.302787
 30
0.0
  0
SPLINE
  5
11a
100
AcDbEntity
  8
cuts
 62
7
100
AcDbSpline
 70
0
 71
3
 72
19
 73
15
 74
13
 40
0.000000
 40
0.000000
 40
0.000000
 40
0.000000
 40
0.415369
 40
1.278554
 40
2.016277
 40
2.442364
 40
2.934194
 40
3.683526
 40
4.517899
 40
5.199584
 40
5.770716
 40
6.331286
 40
6.803790
 40
7.002745
 40
7.002745
 40
7.002745
 40
7.002745
 10
122.967202
 20
238.302787
 30
0.0
 10
122.914242
 20
238.174820
 30
0.0
 10
122.751224
 20
237.780922
 30
0.0
 10
122.518174
 20
237.151649
 30
0.0
 10
122.247789
 20
236.527811
 30
0.0
 10
122.215494
 20
235.960276
 30
0.0
 10
122.450848
 20
235.445773
 30
0.0
 10
122.674750
 20
234.795422
 30
0.0
 10
122.962198
 20
234.092427
 30
0.0
 10
123.340428
 20
233.506446
 30
0.0
 10
123.572539
 20
232.943921
 30
0.0
 10
123.683710
 20
232.419727
 30
0.0
 10
123.814960
 20
232.030138
 30
0.0
 10
123.888919
 20
231.818916
 30
0.0
 10
123.910833
 20
231.756331
 30
0.0
 11
122.967202
 21
238.302787
 31
0.0
 11
122.809930
 21
237.918344
 31
0.0
 11
122.495385
 21
237.114509
 31
0.0
 11
122.259476
 21
236.415522
 31
0.0
 11
122.248555
 21
235.989575
 31
0.0
 11
122.408011
 21
235.524312
 31
0.0
 11
122.672316
 21
234.823140
 31
0.0
 11
123.006520
 21
234.058623
 31
0.0
 11
123.340723
 21
233.464482
 31
0.0
 11
123.556972
 21
232.935873
 31
0.0
 11
123.701138
 21
232.394158
 31
0.0
 11
123.845304
 21
231.944184
 31
0.0
 11
123.910833
 21
231.756331
 31
0.0
  0
LWPOLYLINE
  5
11b
100
AcDbEntity
  8
cuts
 62
7
100
AcDbPolyline
 90
4
 70
0
 10
123.910833
 20
231.756331
 30
0.0
 10
117.364380
 20
232.346103
 30
0.0
 10
117.423356
 20
238.066879
 30
0.0
 10
114.356549
 20
238.125857
 30
0.0
  0
ENDSEC
  0
SECTION
  2
OBJECTS
  0
DICTIONARY
  5
C
330
0
100
AcDbDictionary
  3
ACAD_GROUP
350
D
  3
ACAD_MLINESTYLE
350
17
  0
DICTIONARY
  5
D
330
C
100
AcDbDictionary
  0
DICTIONARY
  5
1A
330
C
100
AcDbDictionary
  0
DICTIONARY
  5
17
330
C
100
AcDbDictionary
  3
STANDARD
350
18
  0
DICTIONARY
  5
19
330
C
100
AcDbDictionary
  0
ENDSEC
  0
EOF
