999
"DXF R12 Output" (www.mydxf.blogspot.com)
 0 
SECTION
 2 
HEADER
 9 
$ACADVER
 1 
AC1009
 9 
$EXTMIN
 10 
 0 
 20 
 0 
 9 
$EXTMAX
 10 
 8.5 
 20 
 11 
 0 
ENDSEC
 0 
SECTION
 2 
ENTITIES
0
LINE
8
cut
10
170.508000
20
242.809000
11
193.496100
21
217.828900
0
LINE
8
cut
10
193.496100
20
217.828900
11
170.508000
21
192.848800
0
LINE
8
cut
10
144.590000
20
253.864000
11
165.459000
21
253.864000
0
LINE
8
cut
10
165.459000
20
253.864000
11
170.500630
21
242.811500
0
LINE
8
cut
10
105.281000
20
242.812000
11
112.146190
21
253.864500
0
LINE
8
cut
10
112.146190
20
253.864500
11
137.108000
21
253.864000
0
LINE
8
cut
10
105.308000
20
192.815000
11
105.273700
21
242.809600
0
LINE
8
cut
10
136.850000
20
242.720000
11
135.072400
21
242.715900
0
LINE
8
cut
10
141.656000
20
242.732000
11
139.252300
21
242.726400
0
LINE
8
cut
10
146.464000
20
242.743000
11
144.060100
21
242.737400
0
LINE
8
cut
10
151.272000
20
242.754000
11
148.867900
21
242.748300
0
LINE
8
cut
10
156.078000
20
242.765000
11
153.674700
21
242.759400
0
LINE
8
cut
10
160.886000
20
242.776000
11
158.482600
21
242.770400
0
LINE
8
cut
10
165.692000
20
242.788000
11
163.289500
21
242.782400
0
LINE
8
cut
10
170.498000
20
242.799000
11
168.094400
21
242.793400
0
LINE
8
cut
10
135.072000
20
242.716000
11
105.273000
21
242.809000
0
LINE
8
cut
10
170.474000
20
117.387000
11
193.462100
21
92.406900
0
LINE
8
cut
10
193.462100
20
92.406900
11
170.474000
21
67.426800
0
LINE
8
cut
10
105.273000
20
67.392500
11
105.238800
21
117.387100
0
LINE
8
cut
10
105.273000
20
67.392500
11
105.273020
21
-8.035100
0
LINE
8
cut
10
145.656000
20
-19.132800
11
110.318000
21
-19.132800
0
LINE
8
cut
10
110.318000
20
-19.132800
11
105.290790
21
-8.043400
0
LINE
8
cut
10
136.039000
20
100.540000
11
136.039000
21
83.167700
0
LINE
8
cut
10
136.039000
20
83.167700
11
105.303000
21
83.167700
0
LINE
8
cut
10
136.039000
20
100.540000
11
134.900220
21
100.540000
0
LINE
8
cut
10
133.761620
20
100.540000
11
132.623360
21
100.540000
0
LINE
8
cut
10
131.484380
20
100.540000
11
130.346020
21
100.540000
0
LINE
8
cut
10
129.207950
20
100.540000
11
128.069720
21
100.540000
0
LINE
8
cut
10
126.930940
20
100.540000
11
125.792060
21
100.540000
0
LINE
8
cut
10
124.653890
20
100.540000
11
123.515200
21
100.540000
0
LINE
8
cut
10
122.376410
20
100.540000
11
121.237810
21
100.540000
0
LINE
8
cut
10
120.099070
20
100.540000
11
118.960620
21
100.540000
0
LINE
8
cut
10
117.822170
20
100.540000
11
116.683470
21
100.540000
0
LINE
8
cut
10
115.545070
20
100.540000
11
114.406610
21
100.540000
0
LINE
8
cut
10
113.268110
20
100.540000
11
112.129280
21
100.540000
0
LINE
8
cut
10
110.990630
20
100.540000
11
109.852410
21
100.540000
0
LINE
8
cut
10
108.713760
20
100.540000
11
107.575260
21
100.540000
0
LINE
8
cut
10
106.436900
20
100.540000
11
105.298070
21
100.540000
0
LINE
8
cut
10
169.927000
20
67.459100
11
168.788210
21
67.459100
0
LINE
8
cut
10
167.649610
20
67.459100
11
166.511350
21
67.459100
0
LINE
8
cut
10
165.372370
20
67.459100
11
164.234010
21
67.459100
0
LINE
8
cut
10
163.095940
20
67.459100
11
161.957720
21
67.459100
0
LINE
8
cut
10
160.818940
20
67.459100
11
159.680060
21
67.459100
0
LINE
8
cut
10
158.541890
20
67.459100
11
157.403200
21
67.459100
0
LINE
8
cut
10
156.264410
20
67.459100
11
155.125800
21
67.459100
0
LINE
8
cut
10
153.987060
20
67.459100
11
152.848620
21
67.459100
0
LINE
8
cut
10
151.710170
20
67.459100
11
150.571470
21
67.459100
0
LINE
8
cut
10
149.433070
20
67.459100
11
148.294610
21
67.459100
0
LINE
8
cut
10
147.156110
20
67.459100
11
146.017280
21
67.459100
0
LINE
8
cut
10
144.878630
20
67.459100
11
143.740410
21
67.459100
0
LINE
8
cut
10
142.601760
20
67.459100
11
141.463260
21
67.459100
0
LINE
8
cut
10
140.324900
20
67.459100
11
139.186070
21
67.459100
0
LINE
8
cut
10
138.151000
20
67.432800
11
137.012210
21
67.432800
0
LINE
8
cut
10
135.873610
20
67.432800
11
134.735350
21
67.432800
0
LINE
8
cut
10
133.596370
20
67.432800
11
132.458010
21
67.432800
0
LINE
8
cut
10
131.319940
20
67.432800
11
130.181720
21
67.432800
0
LINE
8
cut
10
129.042940
20
67.432800
11
127.904060
21
67.432800
0
LINE
8
cut
10
126.765890
20
67.432800
11
125.627200
21
67.432800
0
LINE
8
cut
10
124.488410
20
67.432800
11
123.349800
21
67.432800
0
LINE
8
cut
10
122.211060
20
67.432800
11
121.072610
21
67.432800
0
LINE
8
cut
10
119.934160
20
67.432800
11
118.795460
21
67.432800
0
LINE
8
cut
10
117.657060
20
67.432800
11
116.518600
21
67.432800
0
LINE
8
cut
10
115.380100
20
67.432800
11
114.241270
21
67.432800
0
LINE
8
cut
10
113.102620
20
67.432800
11
111.964400
21
67.432800
0
LINE
8
cut
10
110.825750
20
67.432800
11
109.687250
21
67.432800
0
LINE
8
cut
10
108.548890
20
67.432800
11
107.410060
21
67.432800
0
LINE
8
cut
10
138.494000
20
-7.835590
11
137.297100
21
-7.835590
0
LINE
8
cut
10
136.100410
20
-7.835590
11
134.904070
21
-7.835590
0
LINE
8
cut
10
133.706970
20
-7.835590
11
132.510530
21
-7.835590
0
LINE
8
cut
10
131.314380
20
-7.835590
11
130.118090
21
-7.835590
0
LINE
8
cut
10
128.921200
20
-7.835590
11
127.724210
21
-7.835590
0
LINE
8
cut
10
126.527960
20
-7.835590
11
125.331170
21
-7.835590
0
LINE
8
cut
10
124.134270
20
-7.835590
11
122.937580
21
-7.835590
0
LINE
8
cut
10
121.740730
20
-7.835590
11
120.544190
21
-7.835590
0
LINE
8
cut
10
119.347650
20
-7.835590
11
118.150850
21
-7.835590
0
LINE
8
cut
10
116.954360
20
-7.835590
11
115.757810
21
-7.835590
0
LINE
8
cut
10
114.561220
20
-7.835590
11
113.364280
21
-7.835590
0
LINE
8
cut
10
112.167530
20
-7.835590
11
110.971230
21
-7.835590
0
LINE
8
cut
10
109.774490
20
-7.835590
11
108.577890
21
-7.835590
0
LINE
8
cut
10
107.381450
20
-7.835590
11
106.184510
21
-7.835590
0
LINE
8
cut
10
170.598000
20
191.314000
11
170.598000
21
188.624700
0
LINE
8
cut
10
170.598000
20
185.935850
11
170.598000
21
183.247780
0
LINE
8
cut
10
170.598000
20
180.558040
11
170.598000
21
177.869750
0
LINE
8
cut
10
170.598000
20
175.182120
11
170.598000
21
172.494170
0
LINE
8
cut
10
170.598000
20
169.804880
11
170.598000
21
167.115360
0
LINE
8
cut
10
170.598000
20
164.427520
11
170.598000
21
161.738440
0
LINE
8
cut
10
170.598000
20
159.049140
11
170.598000
21
156.360280
0
LINE
8
cut
10
170.598000
20
153.671090
11
170.598000
21
150.982590
0
LINE
8
cut
10
170.598000
20
148.294080
11
170.598000
21
145.604990
0
LINE
8
cut
10
170.598000
20
142.916600
11
170.598000
21
140.228070
0
LINE
8
cut
10
170.598000
20
137.539450
11
170.598000
21
134.850040
0
LINE
8
cut
10
170.598000
20
132.161070
11
170.598000
21
129.473110
0
LINE
8
cut
10
170.598000
20
126.784140
11
170.598000
21
124.095510
0
LINE
8
cut
10
170.598000
20
121.407220
11
170.598000
21
118.717810
0
LINE
8
cut
10
170.047000
20
66.356300
11
170.047000
21
63.667000
0
LINE
8
cut
10
170.047000
20
60.978150
11
170.047000
21
58.290080
0
LINE
8
cut
10
170.047000
20
55.600340
11
170.047000
21
52.912050
0
LINE
8
cut
10
170.047000
20
50.224420
11
170.047000
21
47.536470
0
LINE
8
cut
10
170.047000
20
44.847180
11
170.047000
21
42.157660
0
LINE
8
cut
10
170.047000
20
39.469820
11
170.047000
21
36.780740
0
LINE
8
cut
10
170.047000
20
34.091440
11
170.047000
21
31.402580
0
LINE
8
cut
10
170.047000
20
28.713390
11
170.047000
21
26.024890
0
LINE
8
cut
10
170.047000
20
23.336380
11
170.047000
21
20.647290
0
LINE
8
cut
10
170.047000
20
17.958900
11
170.047000
21
15.270370
0
LINE
8
cut
10
170.047000
20
12.581750
11
170.047000
21
9.892340
0
LINE
8
cut
10
170.047000
20
7.203370
11
170.047000
21
4.515410
0
LINE
8
cut
10
170.047000
20
1.826440
11
170.047000
21
-0.862190
0
LINE
8
cut
10
170.047000
20
-3.550480
11
170.047000
21
-6.239890
0
LINE
8
cut
10
204.619000
20
193.005000
11
170.473700
21
192.814357
0
LINE
8
cut
10
204.365000
20
117.293000
11
170.473500
21
117.386800
0
LINE
8
cut
10
215.428000
20
147.376000
11
215.428000
21
123.151000
0
LINE
8
cut
10
215.428000
20
123.151000
11
204.375500
21
117.298700
0
LINE
8
cut
10
204.376000
20
193.005000
11
215.428500
21
185.035930
0
LINE
8
cut
10
215.428500
20
185.035930
11
215.428000
21
156.061000
0
LINE
8
cut
10
204.287000
20
156.351000
11
204.283000
21
158.414420
0
LINE
8
cut
10
204.298000
20
150.773000
11
204.292000
21
153.563220
0
LINE
8
cut
10
204.309000
20
145.192000
11
204.303000
21
147.982420
0
LINE
8
cut
10
204.320000
20
139.610000
11
204.314000
21
142.400670
0
LINE
8
cut
10
204.332000
20
134.031000
11
204.326000
21
136.820740
0
LINE
8
cut
10
204.343000
20
128.450000
11
204.337000
21
131.239840
0
LINE
8
cut
10
204.354000
20
122.872000
11
204.348000
21
125.660810
0
LINE
8
cut
10
204.365000
20
117.293000
11
204.359000
21
120.083080
0
LINE
8
cut
10
105.308000
20
192.815000
11
105.308000
21
157.605000
0
LINE
8
cut
10
117.320000
20
193.353000
11
117.320000
21
192.617000
0
LINE
8
cut
10
105.308000
20
117.387000
11
105.308000
21
153.669000
0
LINE
8
cut
10
170.323000
20
-8.043460
11
163.477420
21
-19.132860
0
LINE
8
cut
10
163.477420
20
-19.132860
11
149.396000
21
-19.132800
0
LINE
8
cut
10
140.618000
20
-7.916990
11
170.340500
21
-8.035140
0
LINE
8
cut
10
215.557000
20
38.847500
11
215.557000
21
-2.168350
0
LINE
8
cut
10
215.557000
20
-2.168350
11
204.492900
21
-8.003200
0
LINE
8
cut
10
204.492000
20
67.477600
11
215.556100
21
59.532260
0
LINE
8
cut
10
215.556100
20
59.532260
11
215.557000
21
43.188300
0
LINE
8
cut
10
204.366000
20
32.999900
11
204.483880
21
67.497400
0
LINE
8
cut
10
204.165000
20
158.826000
11
204.282880
21
193.323500
0
LINE
8
cut
10
204.366000
20
32.999900
11
204.373000
21
30.543260
0
LINE
8
cut
10
204.380000
20
28.085570
11
204.387000
21
25.628700
0
LINE
8
cut
10
204.394000
20
23.171830
11
204.401000
21
20.715070
0
LINE
8
cut
10
204.408000
20
18.257850
11
204.416000
21
15.801440
0
LINE
8
cut
10
204.423000
20
13.344110
11
204.430000
21
10.886770
0
LINE
8
cut
10
204.437000
20
8.431400
11
204.444000
21
5.974990
0
LINE
8
cut
10
204.451000
20
3.518830
11
204.458000
21
1.062530
0
LINE
8
cut
10
204.465000
20
-1.395280
11
204.472000
21
-3.850050
0
LINE
8
cut
10
204.479000
20
-6.308320
11
204.484000
21
-8.023770
0
LINE
8
cut
10
204.492000
20
67.477600
11
170.439000
21
67.392100
0
LINE
8
cut
10
204.484000
20
-8.023760
11
170.323200
21
-8.043460
0
LINE
8
cut
10
149.396000
20
-19.132800
11
146.920000
21
-19.132800
0
LINE
8
cut
10
144.590000
20
253.864000
11
140.376000
21
253.864000
0
LINE
8
cut
10
215.428000
20
156.061000
11
215.428000
21
151.086000
0
LINE
8
cut
10
136.193000
20
61.071600
11
136.193000
21
33.642000
0
LINE
8
cut
10
136.193000
20
33.642000
11
118.816000
21
33.642000
0
LINE
8
cut
10
118.816000
20
33.642000
11
118.816000
21
61.071600
0
LINE
8
cut
10
135.832000
20
-1.374790
11
135.832000
21
26.054800
0
LINE
8
cut
10
135.832000
20
26.054800
11
118.456000
21
26.054800
0
LINE
8
cut
10
118.456000
20
26.054800
11
118.456000
21
-1.374790
0
LINE
8
cut
10
135.750000
20
61.129500
11
134.736270
21
61.122500
0
LINE
8
cut
10
133.722110
20
61.115500
11
132.708280
21
61.108500
0
LINE
8
cut
10
131.694450
20
61.101500
11
130.680670
21
61.094500
0
LINE
8
cut
10
129.666700
20
61.087500
11
128.653070
21
61.079500
0
LINE
8
cut
10
127.639050
20
61.072500
11
126.625020
21
61.065500
0
LINE
8
cut
10
125.611820
20
61.058500
11
124.598180
21
61.051500
0
LINE
8
cut
10
123.584640
20
61.044500
11
122.571050
21
61.037500
0
LINE
8
cut
10
121.556840
20
61.030500
11
120.543870
21
61.023500
0
LINE
8
cut
10
119.529470
20
61.016500
11
118.821590
21
61.011500
0
LINE
8
cut
10
135.385000
20
-1.256790
11
134.371260
21
-1.263790
0
LINE
8
cut
10
133.357100
20
-1.270790
11
132.343270
21
-1.277790
0
LINE
8
cut
10
131.329440
20
-1.284790
11
130.315660
21
-1.291790
0
LINE
8
cut
10
129.301690
20
-1.298790
11
128.288060
21
-1.306790
0
LINE
8
cut
10
127.274040
20
-1.313790
11
126.260010
21
-1.320790
0
LINE
8
cut
10
125.246810
20
-1.327790
11
124.233170
21
-1.334790
0
LINE
8
cut
10
123.219630
20
-1.341790
11
122.206040
21
-1.348790
0
LINE
8
cut
10
121.191830
20
-1.355790
11
120.178860
21
-1.362790
0
LINE
8
cut
10
119.164460
20
-1.369790
11
118.456580
21
-1.374790
0
LINE
8
cut
10
55.231400
20
32.570200
11
55.231400
21
56.210000
0
LINE
8
cut
10
55.231400
20
56.210000
11
59.645910
21
60.624500
0
LINE
8
cut
10
59.645910
20
60.624500
11
79.379700
21
60.624500
0
LINE
8
cut
10
79.379700
20
60.624500
11
83.633430
21
56.370790
0
LINE
8
cut
10
83.633430
20
56.370790
11
83.639430
21
32.012890
0
LINE
8
cut
10
55.324300
20
-2.150830
11
55.231400
21
-2.150830
0
LINE
8
cut
10
55.231400
20
-2.150830
11
55.231400
21
27.311800
0
LINE
8
cut
10
83.640900
20
27.099800
11
83.647900
21
-2.201900
0
LINE
8
cut
10
83.647900
20
-2.201900
11
83.647900
21
-2.201870
0
LINE
8
cut
10
83.647900
20
-2.201870
11
83.568700
21
-2.201870
0
LINE
8
cut
10
69.924100
20
56.189000
11
55.212900
21
56.245500
0
LINE
8
cut
10
83.475000
20
-2.340800
11
69.746900
21
-2.284200
0
LINE
8
cut
10
100.260000
20
23.715800
11
98.757334
21
22.156169
0
LINE
8
cut
10
98.757334
20
22.156169
11
96.961828
21
20.995159
0
LINE
8
cut
10
96.961828
20
20.995159
11
94.950118
21
20.270722
0
LINE
8
cut
10
94.950118
20
20.270722
11
92.798840
21
20.020810
0
LINE
8
cut
10
92.798840
20
20.020810
11
92.798800
21
20.020800
0
LINE
8
cut
10
92.798800
20
20.020800
11
91.227127
21
20.152752
0
LINE
8
cut
10
91.227127
20
20.152752
11
89.730737
21
20.535836
0
LINE
8
cut
10
89.730737
20
20.535836
11
88.334419
21
21.150894
0
LINE
8
cut
10
88.334419
20
21.150894
11
87.062965
21
21.978770
0
LINE
8
cut
10
87.062965
20
21.978770
11
85.941163
21
23.000306
0
LINE
8
cut
10
85.941163
20
23.000306
11
84.993805
21
24.196346
0
LINE
8
cut
10
84.993805
20
24.196346
11
84.245680
21
25.547733
0
LINE
8
cut
10
84.245680
20
25.547733
11
83.721580
21
27.035310
0
LINE
8
cut
10
83.732300
20
31.808100
11
84.260758
21
33.288169
0
LINE
8
cut
10
84.260758
20
33.288169
11
85.011190
21
34.632234
0
LINE
8
cut
10
85.011190
20
34.632234
11
85.959017
21
35.821390
0
LINE
8
cut
10
85.959017
20
35.821390
11
87.079660
21
36.836730
0
LINE
8
cut
10
87.079660
20
36.836730
11
88.348539
21
37.659349
0
LINE
8
cut
10
88.348539
20
37.659349
11
89.741075
21
38.270341
0
LINE
8
cut
10
89.741075
20
38.270341
11
91.232688
21
38.650800
0
LINE
8
cut
10
91.232688
20
38.650800
11
92.798800
21
38.781820
0
LINE
8
cut
10
92.798800
20
38.781820
11
94.480624
21
38.630786
0
LINE
8
cut
10
94.480624
20
38.630786
11
96.070513
21
38.194096
0
LINE
8
cut
10
96.070513
20
38.194096
11
97.539374
21
37.496369
0
LINE
8
cut
10
97.539374
20
37.496369
11
98.858111
21
36.562224
0
LINE
8
cut
10
98.858111
20
36.562224
11
99.997630
21
35.416279
0
LINE
8
cut
10
99.997630
20
35.416279
11
100.928838
21
34.083152
0
LINE
8
cut
10
100.928838
20
34.083152
11
101.622639
21
32.587463
0
LINE
8
cut
10
101.622639
20
32.587463
11
102.049940
21
30.953830
0
LINE
8
cut
10
83.609000
20
-2.232040
11
80.239570
21
-12.437140
0
LINE
8
cut
10
55.233200
20
-2.101850
11
58.624000
21
-12.283050
0
LINE
8
cut
10
58.624000
20
-12.283050
11
80.396500
21
-12.283100
0
LINE
8
cut
10
105.325000
20
192.808000
11
117.563000
21
192.808000
0
LINE
8
cut
10
105.203000
20
193.229000
11
117.441000
21
193.229000
0
LINE
8
cut
10
44.890200
20
39.286900
11
44.885200
21
40.806480
0
LINE
8
cut
10
44.904200
20
34.934800
11
44.897200
21
37.109310
0
LINE
8
cut
10
44.918200
20
30.581800
11
44.911200
21
32.757630
0
LINE
8
cut
10
44.932200
20
26.230200
11
44.925200
21
28.406120
0
LINE
8
cut
10
44.946200
20
21.878400
11
44.939200
21
24.055170
0
LINE
8
cut
10
44.961200
20
17.525700
11
44.953200
21
19.701640
0
LINE
8
cut
10
44.975200
20
13.172800
11
44.968200
21
15.349050
0
LINE
8
cut
10
44.989200
20
8.820070
11
44.982200
21
10.996430
0
LINE
8
cut
10
45.003200
20
4.466870
11
44.996200
21
6.643010
0
LINE
8
cut
10
26.539600
20
4.363870
11
25.742930
21
4.358870
0
LINE
8
cut
10
28.821300
20
4.377870
11
27.681270
21
4.370870
0
LINE
8
cut
10
31.103400
20
4.391870
11
29.962670
21
4.384870
0
LINE
8
cut
10
33.384900
20
4.405870
11
32.244120
21
4.398870
0
LINE
8
cut
10
35.666400
20
4.419870
11
34.525180
21
4.412870
0
LINE
8
cut
10
37.948400
20
4.434870
11
36.807610
21
4.426870
0
LINE
8
cut
10
40.230500
20
4.448870
11
39.089550
21
4.441870
0
LINE
8
cut
10
42.512500
20
4.462870
11
41.371500
21
4.455870
0
LINE
8
cut
10
44.794800
20
4.476870
11
43.653910
21
4.469870
0
LINE
8
cut
10
44.895700
20
4.392480
11
44.895700
21
1.733410
0
LINE
8
cut
10
44.895700
20
1.733410
11
37.349200
21
1.733410
0
LINE
8
cut
10
37.349200
20
1.733410
11
37.349200
21
-1.349390
0
LINE
8
cut
10
37.349200
20
-1.349390
11
33.658400
21
-1.349390
0
LINE
8
cut
10
33.658400
20
-1.349390
11
33.658400
21
1.366530
0
LINE
8
cut
10
33.658400
20
1.366530
11
25.719600
21
1.366530
0
LINE
8
cut
10
25.719600
20
1.366530
11
25.719600
21
4.500270
0
LINE
8
cut
10
26.561700
20
40.766200
11
25.765030
21
40.771200
0
LINE
8
cut
10
28.843400
20
40.752200
11
27.703370
21
40.759200
0
LINE
8
cut
10
31.125500
20
40.738200
11
29.984770
21
40.745200
0
LINE
8
cut
10
33.407000
20
40.724200
11
32.266220
21
40.731200
0
LINE
8
cut
10
35.688500
20
40.710200
11
34.547280
21
40.717200
0
LINE
8
cut
10
37.970500
20
40.695200
11
36.829710
21
40.703200
0
LINE
8
cut
10
40.252600
20
40.681200
11
39.111650
21
40.688200
0
LINE
8
cut
10
42.534600
20
40.667200
11
41.393600
21
40.674200
0
LINE
8
cut
10
44.816900
20
40.653200
11
43.676010
21
40.660200
0
LINE
8
cut
10
44.917800
20
40.737600
11
44.917800
21
43.396700
0
LINE
8
cut
10
44.917800
20
43.396700
11
37.371300
21
43.396700
0
LINE
8
cut
10
37.371300
20
43.396700
11
37.371300
21
46.479500
0
LINE
8
cut
10
37.371300
20
46.479500
11
33.680500
21
46.479500
0
LINE
8
cut
10
33.680500
20
46.479500
11
33.680500
21
43.763600
0
LINE
8
cut
10
33.680500
20
43.763600
11
25.741700
21
43.763600
0
LINE
8
cut
10
25.741700
20
43.763600
11
25.741700
21
40.629800
0
LINE
8
cut
10
47.166300
20
19.582700
11
47.166300
21
4.400020
0
LINE
8
cut
10
47.166300
20
4.400020
11
44.791100
21
4.400020
0
LINE
8
cut
10
44.748000
20
40.708500
11
47.160800
21
40.708500
0
LINE
8
cut
10
47.160800
20
40.708500
11
47.160800
21
24.783300
0
LINE
8
cut
10
25.914900
20
39.360800
11
25.919900
21
40.880380
0
LINE
8
cut
10
25.900900
20
35.008700
11
25.907900
21
37.183210
0
LINE
8
cut
10
25.886900
20
30.655700
11
25.893900
21
32.831530
0
LINE
8
cut
10
25.872900
20
26.304000
11
25.879900
21
28.479920
0
LINE
8
cut
10
25.858900
20
21.952200
11
25.865900
21
24.128970
0
LINE
8
cut
10
25.843900
20
17.599500
11
25.851900
21
19.775440
0
LINE
8
cut
10
25.829900
20
13.246600
11
25.836900
21
15.422850
0
LINE
8
cut
10
25.815900
20
8.893930
11
25.822900
21
11.070290
0
LINE
8
cut
10
25.801900
20
4.540730
11
25.808900
21
6.716870
0
LINE
8
cut
10
23.639500
20
20.685100
11
23.639510
21
4.476200
0
LINE
8
cut
10
23.639510
20
4.476200
11
26.013100
21
4.476200
0
LINE
8
cut
10
26.057100
20
40.782400
11
23.644200
21
40.782400
0
LINE
8
cut
10
23.644200
20
40.782400
11
23.644190
21
25.641200
0
LINE
8
cut
10
187.137000
20
50.403600
11
182.820000
21
50.403600
0
LINE
8
cut
10
187.137000
20
13.512300
11
182.959000
21
13.512300
0
LINE
8
cut
10
187.156000
20
50.881500
11
187.156000
21
49.945900
0
LINE
8
cut
10
187.156000
20
49.945900
11
182.971000
21
49.945900
0
LINE
8
cut
10
182.971000
20
49.945900
11
182.971000
21
50.930800
0
LINE
8
cut
10
187.064000
20
13.278000
11
187.064000
21
13.868900
0
LINE
8
cut
10
187.064000
20
13.868900
11
182.780000
21
13.868900
0
LINE
8
cut
10
182.780000
20
13.868900
11
182.968840
21
13.164140
0
LINE
8
cut
10
71.407300
20
56.196800
11
69.652320
21
56.190800
0
LINE
8
cut
10
76.433600
20
56.213400
11
73.922240
21
56.205400
0
LINE
8
cut
10
81.460900
20
56.230000
11
78.948000
21
56.222000
0
LINE
8
cut
10
58.486200
20
-2.236810
11
56.731210
21
-2.242810
0
LINE
8
cut
10
63.512500
20
-2.220190
11
61.001130
21
-2.228190
0
LINE
8
cut
10
68.539800
20
-2.203570
11
66.026890
21
-2.211570
0
LINE
8
cut
10
169.239000
20
117.479000
11
168.100220
21
117.479000
0
LINE
8
cut
10
166.961620
20
117.479000
11
165.823350
21
117.479000
0
LINE
8
cut
10
164.684380
20
117.479000
11
163.546020
21
117.479000
0
LINE
8
cut
10
162.407940
20
117.479000
11
161.269720
21
117.479000
0
LINE
8
cut
10
160.130940
20
117.479000
11
158.992060
21
117.479000
0
LINE
8
cut
10
157.853890
20
117.479000
11
156.715200
21
117.479000
0
LINE
8
cut
10
155.576410
20
117.479000
11
154.437810
21
117.479000
0
LINE
8
cut
10
153.299070
20
117.479000
11
152.160620
21
117.479000
0
LINE
8
cut
10
151.022170
20
117.479000
11
149.883470
21
117.479000
0
LINE
8
cut
10
148.745070
20
117.479000
11
147.606610
21
117.479000
0
LINE
8
cut
10
146.468110
20
117.479000
11
145.329280
21
117.479000
0
LINE
8
cut
10
144.190630
20
117.479000
11
143.052410
21
117.479000
0
LINE
8
cut
10
141.913760
20
117.479000
11
140.775260
21
117.479000
0
LINE
8
cut
10
139.636900
20
117.479000
11
138.498070
21
117.479000
0
LINE
8
cut
10
137.463000
20
117.453000
11
136.324210
21
117.453000
0
LINE
8
cut
10
135.185620
20
117.453000
11
134.047350
21
117.453000
0
LINE
8
cut
10
132.908380
20
117.453000
11
131.770020
21
117.453000
0
LINE
8
cut
10
130.631940
20
117.453000
11
129.493720
21
117.453000
0
LINE
8
cut
10
128.354940
20
117.453000
11
127.216060
21
117.453000
0
LINE
8
cut
10
126.077890
20
117.453000
11
124.939200
21
117.453000
0
LINE
8
cut
10
123.800410
20
117.453000
11
122.661810
21
117.453000
0
LINE
8
cut
10
121.523070
20
117.453000
11
120.384610
21
117.453000
0
LINE
8
cut
10
119.246160
20
117.453000
11
118.107460
21
117.453000
0
LINE
8
cut
10
116.969070
20
117.453000
11
115.830610
21
117.453000
0
LINE
8
cut
10
114.692110
20
117.453000
11
113.553280
21
117.453000
0
LINE
8
cut
10
112.414630
20
117.453000
11
111.276410
21
117.453000
0
LINE
8
cut
10
110.137760
20
117.453000
11
108.999260
21
117.453000
0
LINE
8
cut
10
107.860900
20
117.453000
11
106.722070
21
117.453000
0
LINE
8
cut
10
170.339000
20
193.058000
11
169.200220
21
193.058000
0
LINE
8
cut
10
168.061620
20
193.058000
11
166.923350
21
193.058000
0
LINE
8
cut
10
165.784380
20
193.058000
11
164.646020
21
193.058000
0
LINE
8
cut
10
163.507940
20
193.058000
11
162.369720
21
193.058000
0
LINE
8
cut
10
161.230940
20
193.058000
11
160.092060
21
193.058000
0
LINE
8
cut
10
158.953890
20
193.058000
11
157.815200
21
193.058000
0
LINE
8
cut
10
156.676410
20
193.058000
11
155.537810
21
193.058000
0
LINE
8
cut
10
154.399070
20
193.058000
11
153.260620
21
193.058000
0
LINE
8
cut
10
152.122170
20
193.058000
11
150.983470
21
193.058000
0
LINE
8
cut
10
149.845070
20
193.058000
11
148.706610
21
193.058000
0
LINE
8
cut
10
147.568110
20
193.058000
11
146.429280
21
193.058000
0
LINE
8
cut
10
145.290630
20
193.058000
11
144.152410
21
193.058000
0
LINE
8
cut
10
143.013760
20
193.058000
11
141.875260
21
193.058000
0
LINE
8
cut
10
140.736900
20
193.058000
11
139.598070
21
193.058000
0
LINE
8
cut
10
138.563000
20
193.032000
11
137.795180
21
193.032000
0
LINE
8
cut
10
137.027480
20
193.032000
11
136.260010
21
193.032000
0
LINE
8
cut
10
135.492060
20
193.032000
11
134.724530
21
193.032000
0
LINE
8
cut
10
133.957180
20
193.032000
11
133.189740
21
193.032000
0
LINE
8
cut
10
132.421920
20
193.032000
11
131.654040
21
193.032000
0
LINE
8
cut
10
130.886630
20
193.032000
11
130.118870
21
193.032000
0
LINE
8
cut
10
129.351050
20
193.032000
11
128.583350
21
193.032000
0
LINE
8
cut
10
127.815560
20
193.032000
11
127.047960
21
193.032000
0
LINE
8
cut
10
126.280360
20
193.032000
11
125.512600
21
193.032000
0
LINE
8
cut
10
124.745040
20
193.032000
11
123.977440
21
193.032000
0
LINE
8
cut
10
123.209810
20
193.032000
11
122.441960
21
193.032000
0
LINE
8
cut
10
121.674230
20
193.032000
11
120.906790
21
193.032000
0
LINE
8
cut
10
120.139060
20
193.032000
11
119.371430
21
193.032000
0
LINE
8
cut
10
118.603890
20
193.032000
11
117.836040
21
193.032000
0
LINE
8
cut2
10
410.610000
20
242.441000
11
433.598200
21
217.460900
0
LINE
8
cut2
10
433.598200
20
217.460900
11
410.610000
21
192.480800
0
LINE
8
cut2
10
384.691000
20
253.496000
11
405.560000
21
253.496000
0
LINE
8
cut2
10
405.560000
20
253.496000
11
410.601630
21
242.443500
0
LINE
8
cut2
10
345.383000
20
242.444000
11
352.248190
21
253.496500
0
LINE
8
cut2
10
352.248190
20
253.496500
11
377.210000
21
253.496000
0
LINE
8
cut2
10
345.409000
20
192.447000
11
345.374700
21
242.441600
0
LINE
8
cut2
10
376.951000
20
242.352000
11
375.173400
21
242.347900
0
LINE
8
cut2
10
381.757000
20
242.363000
11
379.353300
21
242.357400
0
LINE
8
cut2
10
386.565000
20
242.375000
11
384.161100
21
242.369400
0
LINE
8
cut2
10
391.374000
20
242.386000
11
388.969900
21
242.380300
0
LINE
8
cut2
10
396.180000
20
242.397000
11
393.776700
21
242.391400
0
LINE
8
cut2
10
400.988000
20
242.408000
11
398.584600
21
242.402400
0
LINE
8
cut2
10
405.793000
20
242.419000
11
403.390500
21
242.413400
0
LINE
8
cut2
10
410.599000
20
242.431000
11
408.195400
21
242.425400
0
LINE
8
cut2
10
375.174000
20
242.348000
11
345.375000
21
242.441020
0
LINE
8
cut2
10
410.575000
20
117.019000
11
433.563200
21
92.038900
0
LINE
8
cut2
10
433.563200
20
92.038900
11
410.575000
21
67.058800
0
LINE
8
cut2
10
345.375000
20
67.024400
11
345.340800
21
117.019000
0
LINE
8
cut2
10
345.375000
20
67.024400
11
345.375020
21
-8.403200
0
LINE
8
cut2
10
385.758000
20
-19.501000
11
350.419000
21
-19.501000
0
LINE
8
cut2
10
350.419000
20
-19.501000
11
345.392000
21
-8.411600
0
LINE
8
cut2
10
376.140000
20
100.172000
11
376.140000
21
82.799500
0
LINE
8
cut2
10
376.140000
20
82.799500
11
345.404000
21
82.799500
0
LINE
8
cut2
10
376.140000
20
100.172000
11
375.001220
21
100.172000
0
LINE
8
cut2
10
373.862620
20
100.172000
11
372.724360
21
100.172000
0
LINE
8
cut2
10
371.585380
20
100.172000
11
370.447020
21
100.172000
0
LINE
8
cut2
10
369.308950
20
100.172000
11
368.170720
21
100.172000
0
LINE
8
cut2
10
367.031940
20
100.172000
11
365.893060
21
100.172000
0
LINE
8
cut2
10
364.754890
20
100.172000
11
363.616200
21
100.172000
0
LINE
8
cut2
10
362.477410
20
100.172000
11
361.338810
21
100.172000
0
LINE
8
cut2
10
360.200070
20
100.172000
11
359.061620
21
100.172000
0
LINE
8
cut2
10
357.923170
20
100.172000
11
356.784470
21
100.172000
0
LINE
8
cut2
10
355.646070
20
100.172000
11
354.507610
21
100.172000
0
LINE
8
cut2
10
353.369110
20
100.172000
11
352.230280
21
100.172000
0
LINE
8
cut2
10
351.091630
20
100.172000
11
349.953410
21
100.172000
0
LINE
8
cut2
10
348.814760
20
100.172000
11
347.676260
21
100.172000
0
LINE
8
cut2
10
346.537900
20
100.172000
11
345.399070
21
100.172000
0
LINE
8
cut2
10
410.029000
20
67.091000
11
408.890210
21
67.091000
0
LINE
8
cut2
10
407.751610
20
67.091000
11
406.613350
21
67.091000
0
LINE
8
cut2
10
405.474370
20
67.091000
11
404.336010
21
67.091000
0
LINE
8
cut2
10
403.197940
20
67.091000
11
402.059720
21
67.091000
0
LINE
8
cut2
10
400.920940
20
67.091000
11
399.782060
21
67.091000
0
LINE
8
cut2
10
398.643890
20
67.091000
11
397.505200
21
67.091000
0
LINE
8
cut2
10
396.366410
20
67.091000
11
395.227800
21
67.091000
0
LINE
8
cut2
10
394.089060
20
67.091000
11
392.950620
21
67.091000
0
LINE
8
cut2
10
391.812170
20
67.091000
11
390.673470
21
67.091000
0
LINE
8
cut2
10
389.535070
20
67.091000
11
388.396610
21
67.091000
0
LINE
8
cut2
10
387.258110
20
67.091000
11
386.119280
21
67.091000
0
LINE
8
cut2
10
384.980630
20
67.091000
11
383.842410
21
67.091000
0
LINE
8
cut2
10
382.703760
20
67.091000
11
381.565260
21
67.091000
0
LINE
8
cut2
10
380.426900
20
67.091000
11
379.288070
21
67.091000
0
LINE
8
cut2
10
378.252000
20
67.064600
11
377.113210
21
67.064600
0
LINE
8
cut2
10
375.974610
20
67.064600
11
374.836350
21
67.064600
0
LINE
8
cut2
10
373.697370
20
67.064600
11
372.559010
21
67.064600
0
LINE
8
cut2
10
371.420940
20
67.064600
11
370.282720
21
67.064600
0
LINE
8
cut2
10
369.143940
20
67.064600
11
368.005060
21
67.064600
0
LINE
8
cut2
10
366.866890
20
67.064600
11
365.728200
21
67.064600
0
LINE
8
cut2
10
364.589410
20
67.064600
11
363.450800
21
67.064600
0
LINE
8
cut2
10
362.312060
20
67.064600
11
361.173610
21
67.064600
0
LINE
8
cut2
10
360.035160
20
67.064600
11
358.896460
21
67.064600
0
LINE
8
cut2
10
357.758060
20
67.064600
11
356.619600
21
67.064600
0
LINE
8
cut2
10
355.481100
20
67.064600
11
354.342270
21
67.064600
0
LINE
8
cut2
10
353.203620
20
67.064600
11
352.065400
21
67.064600
0
LINE
8
cut2
10
350.926750
20
67.064600
11
349.788250
21
67.064600
0
LINE
8
cut2
10
348.649890
20
67.064600
11
347.511060
21
67.064600
0
LINE
8
cut2
10
378.595000
20
-8.203730
11
377.398100
21
-8.203730
0
LINE
8
cut2
10
376.201410
20
-8.203730
11
375.005070
21
-8.203730
0
LINE
8
cut2
10
373.807970
20
-8.203730
11
372.611530
21
-8.203730
0
LINE
8
cut2
10
371.415380
20
-8.203730
11
370.219090
21
-8.203730
0
LINE
8
cut2
10
369.022200
20
-8.203730
11
367.825210
21
-8.203730
0
LINE
8
cut2
10
366.628960
20
-8.203730
11
365.432170
21
-8.203730
0
LINE
8
cut2
10
364.235270
20
-8.203730
11
363.038580
21
-8.203730
0
LINE
8
cut2
10
361.841730
20
-8.203730
11
360.645190
21
-8.203730
0
LINE
8
cut2
10
359.448650
20
-8.203730
11
358.251850
21
-8.203730
0
LINE
8
cut2
10
357.055360
20
-8.203730
11
355.858810
21
-8.203730
0
LINE
8
cut2
10
354.662220
20
-8.203730
11
353.465280
21
-8.203730
0
LINE
8
cut2
10
352.268530
20
-8.203730
11
351.072230
21
-8.203730
0
LINE
8
cut2
10
349.875490
20
-8.203730
11
348.678890
21
-8.203730
0
LINE
8
cut2
10
347.482450
20
-8.203730
11
346.285510
21
-8.203730
0
LINE
8
cut2
10
410.700000
20
190.946000
11
410.700000
21
188.256700
0
LINE
8
cut2
10
410.700000
20
185.567840
11
410.700000
21
182.879780
0
LINE
8
cut2
10
410.700000
20
180.190040
11
410.700000
21
177.501750
0
LINE
8
cut2
10
410.700000
20
174.814120
11
410.700000
21
172.126170
0
LINE
8
cut2
10
410.700000
20
169.436880
11
410.700000
21
166.747360
0
LINE
8
cut2
10
410.700000
20
164.059520
11
410.700000
21
161.370440
0
LINE
8
cut2
10
410.700000
20
158.681140
11
410.700000
21
155.992280
0
LINE
8
cut2
10
410.700000
20
153.303090
11
410.700000
21
150.614590
0
LINE
8
cut2
10
410.700000
20
147.926080
11
410.700000
21
145.236990
0
LINE
8
cut2
10
410.700000
20
142.548600
11
410.700000
21
139.860070
0
LINE
8
cut2
10
410.700000
20
137.171450
11
410.700000
21
134.482040
0
LINE
8
cut2
10
410.700000
20
131.793070
11
410.700000
21
129.105110
0
LINE
8
cut2
10
410.700000
20
126.416140
11
410.700000
21
123.727510
0
LINE
8
cut2
10
410.700000
20
121.039220
11
410.700000
21
118.349810
0
LINE
8
cut2
10
410.148000
20
65.988200
11
410.148000
21
63.298900
0
LINE
8
cut2
10
410.148000
20
60.610050
11
410.148000
21
57.921980
0
LINE
8
cut2
10
410.148000
20
55.232240
11
410.148000
21
52.543950
0
LINE
8
cut2
10
410.148000
20
49.856320
11
410.148000
21
47.168370
0
LINE
8
cut2
10
410.148000
20
44.479080
11
410.148000
21
41.789560
0
LINE
8
cut2
10
410.148000
20
39.101720
11
410.148000
21
36.412640
0
LINE
8
cut2
10
410.148000
20
33.723340
11
410.148000
21
31.034480
0
LINE
8
cut2
10
410.148000
20
28.345290
11
410.148000
21
25.656790
0
LINE
8
cut2
10
410.148000
20
22.968280
11
410.148000
21
20.279190
0
LINE
8
cut2
10
410.148000
20
17.590800
11
410.148000
21
14.902270
0
LINE
8
cut2
10
410.148000
20
12.213650
11
410.148000
21
9.524240
0
LINE
8
cut2
10
410.148000
20
6.835270
11
410.148000
21
4.147310
0
LINE
8
cut2
10
410.148000
20
1.458340
11
410.148000
21
-1.230290
0
LINE
8
cut2
10
410.148000
20
-3.918580
11
410.148000
21
-6.607990
0
LINE
8
cut2
10
444.721000
20
192.637000
11
410.575700
21
192.446350
0
LINE
8
cut2
10
444.467000
20
116.925000
11
410.575500
21
117.018800
0
LINE
8
cut2
10
455.530000
20
147.008000
11
455.530000
21
122.783000
0
LINE
8
cut2
10
455.530000
20
122.783000
11
444.477500
21
116.930700
0
LINE
8
cut2
10
444.477000
20
192.637000
11
455.529500
21
184.667930
0
LINE
8
cut2
10
455.529500
20
184.667930
11
455.530000
21
155.692000
0
LINE
8
cut2
10
444.388000
20
155.983000
11
444.384000
21
158.046420
0
LINE
8
cut2
10
444.400000
20
150.404000
11
444.394000
21
153.194220
0
LINE
8
cut2
10
444.411000
20
144.824000
11
444.405000
21
147.614420
0
LINE
8
cut2
10
444.422000
20
139.242000
11
444.416000
21
142.032670
0
LINE
8
cut2
10
444.433000
20
133.663000
11
444.427000
21
136.452740
0
LINE
8
cut2
10
444.444000
20
128.082000
11
444.438000
21
130.871840
0
LINE
8
cut2
10
444.456000
20
122.504000
11
444.450000
21
125.292810
0
LINE
8
cut2
10
444.467000
20
116.925000
11
444.461000
21
119.715080
0
LINE
8
cut2
10
345.409000
20
192.447000
11
345.409000
21
157.237000
0
LINE
8
cut2
10
357.422000
20
192.985000
11
357.422000
21
192.249000
0
LINE
8
cut2
10
345.409000
20
117.019000
11
345.409000
21
153.300000
0
LINE
8
cut2
10
410.425000
20
-8.411600
11
403.579420
21
-19.501000
0
LINE
8
cut2
10
403.579420
20
-19.501000
11
389.498000
21
-19.501000
0
LINE
8
cut2
10
380.720000
20
-8.285130
11
410.442500
21
-8.403280
0
LINE
8
cut2
10
455.658000
20
38.479300
11
455.658000
21
-2.536490
0
LINE
8
cut2
10
455.658000
20
-2.536490
11
444.593900
21
-8.371340
0
LINE
8
cut2
10
444.594000
20
67.109400
11
455.658100
21
59.164060
0
LINE
8
cut2
10
455.658100
20
59.164060
11
455.658000
21
42.820100
0
LINE
8
cut2
10
444.468000
20
32.631800
11
444.585880
21
67.129300
0
LINE
8
cut2
10
444.267000
20
158.458000
11
444.384880
21
192.955500
0
LINE
8
cut2
10
444.468000
20
32.631800
11
444.475000
21
30.175160
0
LINE
8
cut2
10
444.482000
20
27.717470
11
444.489000
21
25.260600
0
LINE
8
cut2
10
444.496000
20
22.803730
11
444.503000
21
20.346970
0
LINE
8
cut2
10
444.510000
20
17.889750
11
444.518000
21
15.433340
0
LINE
8
cut2
10
444.525000
20
12.976010
11
444.532000
21
10.518670
0
LINE
8
cut2
10
444.539000
20
8.063300
11
444.546000
21
5.606890
0
LINE
8
cut2
10
444.553000
20
3.150730
11
444.560000
21
0.694430
0
LINE
8
cut2
10
444.567000
20
-1.763380
11
444.574000
21
-4.218150
0
LINE
8
cut2
10
444.581000
20
-6.676420
11
444.586000
21
-8.391870
0
LINE
8
cut2
10
444.594000
20
67.109400
11
410.541000
21
67.023900
0
LINE
8
cut2
10
444.586000
20
-8.391900
11
410.425200
21
-8.411600
0
LINE
8
cut2
10
389.498000
20
-19.501000
11
387.022000
21
-19.501000
0
LINE
8
cut2
10
384.691000
20
253.496000
11
380.477000
21
253.496000
0
LINE
8
cut2
10
455.530000
20
155.692000
11
455.530000
21
150.718000
0
LINE
8
cut2
10
376.294000
20
60.703500
11
376.294000
21
33.273900
0
LINE
8
cut2
10
376.294000
20
33.273900
11
358.918000
21
33.273900
0
LINE
8
cut2
10
358.918000
20
33.273900
11
358.918000
21
60.703500
0
LINE
8
cut2
10
375.934000
20
-1.742930
11
375.934000
21
25.686700
0
LINE
8
cut2
10
375.934000
20
25.686700
11
358.558000
21
25.686700
0
LINE
8
cut2
10
358.558000
20
25.686700
11
358.558000
21
-1.742930
0
LINE
8
cut2
10
375.851000
20
60.761300
11
374.837270
21
60.754300
0
LINE
8
cut2
10
373.823110
20
60.747300
11
372.809280
21
60.740300
0
LINE
8
cut2
10
371.795450
20
60.733300
11
370.781670
21
60.726300
0
LINE
8
cut2
10
369.767700
20
60.719300
11
368.754070
21
60.711300
0
LINE
8
cut2
10
367.740050
20
60.704300
11
366.726020
21
60.697300
0
LINE
8
cut2
10
365.712820
20
60.690300
11
364.699180
21
60.683300
0
LINE
8
cut2
10
363.685640
20
60.676300
11
362.672050
21
60.669300
0
LINE
8
cut2
10
361.657840
20
60.662300
11
360.644870
21
60.655300
0
LINE
8
cut2
10
359.630470
20
60.648300
11
358.922590
21
60.643300
0
LINE
8
cut2
10
375.486000
20
-1.624930
11
374.472260
21
-1.631930
0
LINE
8
cut2
10
373.458100
20
-1.638930
11
372.444270
21
-1.645930
0
LINE
8
cut2
10
371.430440
20
-1.652930
11
370.416660
21
-1.659930
0
LINE
8
cut2
10
369.402690
20
-1.666930
11
368.389060
21
-1.674930
0
LINE
8
cut2
10
367.375040
20
-1.681930
11
366.361010
21
-1.688930
0
LINE
8
cut2
10
365.347810
20
-1.695930
11
364.334170
21
-1.702930
0
LINE
8
cut2
10
363.320630
20
-1.709930
11
362.307040
21
-1.716930
0
LINE
8
cut2
10
361.292830
20
-1.723930
11
360.279860
21
-1.730930
0
LINE
8
cut2
10
359.265460
20
-1.737930
11
358.557580
21
-1.742930
0
LINE
8
cut2
10
295.333000
20
32.202100
11
295.333000
21
55.841900
0
LINE
8
cut2
10
295.333000
20
55.841900
11
299.747510
21
60.256400
0
LINE
8
cut2
10
299.747510
20
60.256400
11
319.481000
21
60.256400
0
LINE
8
cut2
10
319.481000
20
60.256400
11
323.734730
21
56.002690
0
LINE
8
cut2
10
323.734730
20
56.002690
11
323.740730
21
31.644790
0
LINE
8
cut2
10
295.426000
20
-2.518970
11
295.333000
21
-2.518970
0
LINE
8
cut2
10
295.333000
20
-2.518970
11
295.333000
21
26.943700
0
LINE
8
cut2
10
323.743000
20
26.731700
11
323.750000
21
-2.570000
0
LINE
8
cut2
10
323.750000
20
-2.570000
11
323.750000
21
-2.570010
0
LINE
8
cut2
10
323.750000
20
-2.570010
11
323.670000
21
-2.570010
0
LINE
8
cut2
10
310.026000
20
55.820900
11
295.314800
21
55.877400
0
LINE
8
cut2
10
323.577000
20
-2.708940
11
309.848900
21
-2.652340
0
LINE
8
cut2
10
340.362000
20
23.347700
11
338.859334
21
21.788069
0
LINE
8
cut2
10
338.859334
20
21.788069
11
337.063828
21
20.627059
0
LINE
8
cut2
10
337.063828
20
20.627059
11
335.052118
21
19.902622
0
LINE
8
cut2
10
335.052118
20
19.902622
11
332.900840
21
19.652710
0
LINE
8
cut2
10
332.900840
20
19.652710
11
332.900000
21
19.652700
0
LINE
8
cut2
10
332.900000
20
19.652700
11
331.328327
21
19.784652
0
LINE
8
cut2
10
331.328327
20
19.784652
11
329.831937
21
20.167736
0
LINE
8
cut2
10
329.831937
20
20.167736
11
328.435619
21
20.782794
0
LINE
8
cut2
10
328.435619
20
20.782794
11
327.164165
21
21.610670
0
LINE
8
cut2
10
327.164165
20
21.610670
11
326.042363
21
22.632206
0
LINE
8
cut2
10
326.042363
20
22.632206
11
325.095005
21
23.828246
0
LINE
8
cut2
10
325.095005
20
23.828246
11
324.346880
21
25.179633
0
LINE
8
cut2
10
324.346880
20
25.179633
11
323.822780
21
26.667210
0
LINE
8
cut2
10
323.834000
20
31.440000
11
324.362458
21
32.920069
0
LINE
8
cut2
10
324.362458
20
32.920069
11
325.112890
21
34.264134
0
LINE
8
cut2
10
325.112890
20
34.264134
11
326.060717
21
35.453290
0
LINE
8
cut2
10
326.060717
20
35.453290
11
327.181360
21
36.468630
0
LINE
8
cut2
10
327.181360
20
36.468630
11
328.450239
21
37.291249
0
LINE
8
cut2
10
328.450239
20
37.291249
11
329.842775
21
37.902241
0
LINE
8
cut2
10
329.842775
20
37.902241
11
331.334388
21
38.282700
0
LINE
8
cut2
10
331.334388
20
38.282700
11
332.900500
21
38.413720
0
LINE
8
cut2
10
332.900500
20
38.413720
11
334.582324
21
38.262686
0
LINE
8
cut2
10
334.582324
20
38.262686
11
336.172213
21
37.825996
0
LINE
8
cut2
10
336.172213
20
37.825996
11
337.641074
21
37.128269
0
LINE
8
cut2
10
337.641074
20
37.128269
11
338.959811
21
36.194124
0
LINE
8
cut2
10
338.959811
20
36.194124
11
340.099330
21
35.048179
0
LINE
8
cut2
10
340.099330
20
35.048179
11
341.030538
21
33.715052
0
LINE
8
cut2
10
341.030538
20
33.715052
11
341.724339
21
32.219363
0
LINE
8
cut2
10
341.724339
20
32.219363
11
342.151640
21
30.585730
0
LINE
8
cut2
10
323.711000
20
-2.600180
11
320.341570
21
-12.805280
0
LINE
8
cut2
10
295.335000
20
-2.469990
11
298.725800
21
-12.651190
0
LINE
8
cut2
10
298.725800
20
-12.651190
11
320.498000
21
-12.651200
0
LINE
8
cut2
10
345.427000
20
192.440000
11
357.665000
21
192.440000
0
LINE
8
cut2
10
345.305000
20
192.861000
11
357.543000
21
192.861000
0
LINE
8
cut2
10
284.992000
20
38.918800
11
284.987000
21
40.438380
0
LINE
8
cut2
10
285.006000
20
34.566700
11
284.999000
21
36.741210
0
LINE
8
cut2
10
285.020000
20
30.213700
11
285.013000
21
32.389530
0
LINE
8
cut2
10
285.034000
20
25.862000
11
285.027000
21
28.037920
0
LINE
8
cut2
10
285.048000
20
21.510200
11
285.041000
21
23.686970
0
LINE
8
cut2
10
285.063000
20
17.157500
11
285.055000
21
19.333440
0
LINE
8
cut2
10
285.077000
20
12.804600
11
285.070000
21
14.980850
0
LINE
8
cut2
10
285.091000
20
8.451930
11
285.084000
21
10.628290
0
LINE
8
cut2
10
285.105000
20
4.098730
11
285.098000
21
6.274870
0
LINE
8
cut2
10
266.641000
20
3.995730
11
265.844330
21
3.990730
0
LINE
8
cut2
10
268.923000
20
4.009730
11
267.782970
21
4.002730
0
LINE
8
cut2
10
271.205000
20
4.023730
11
270.064270
21
4.016730
0
LINE
8
cut2
10
273.486000
20
4.037730
11
272.345220
21
4.030730
0
LINE
8
cut2
10
275.768000
20
4.051730
11
274.626780
21
4.044730
0
LINE
8
cut2
10
278.050000
20
4.066730
11
276.909210
21
4.058730
0
LINE
8
cut2
10
280.332000
20
4.080730
11
279.191050
21
4.073730
0
LINE
8
cut2
10
282.614000
20
4.094730
11
281.473000
21
4.087730
0
LINE
8
cut2
10
284.896000
20
4.108730
11
283.755110
21
4.101730
0
LINE
8
cut2
10
284.997000
20
4.024340
11
284.997000
21
1.365270
0
LINE
8
cut2
10
284.997000
20
1.365270
11
277.451000
21
1.365270
0
LINE
8
cut2
10
277.451000
20
1.365270
11
277.451000
21
-1.717530
0
LINE
8
cut2
10
277.451000
20
-1.717530
11
273.760000
21
-1.717530
0
LINE
8
cut2
10
273.760000
20
-1.717530
11
273.760000
21
0.998390
0
LINE
8
cut2
10
273.760000
20
0.998390
11
265.821000
21
0.998390
0
LINE
8
cut2
10
265.821000
20
0.998390
11
265.821000
21
4.132130
0
LINE
8
cut2
10
266.663000
20
40.398100
11
265.866330
21
40.403100
0
LINE
8
cut2
10
268.945000
20
40.384100
11
267.804970
21
40.391100
0
LINE
8
cut2
10
271.227000
20
40.370100
11
270.086270
21
40.377100
0
LINE
8
cut2
10
273.509000
20
40.356100
11
272.368220
21
40.363100
0
LINE
8
cut2
10
275.790000
20
40.342100
11
274.648780
21
40.349100
0
LINE
8
cut2
10
278.072000
20
40.327100
11
276.931210
21
40.335100
0
LINE
8
cut2
10
280.354000
20
40.313100
11
279.213050
21
40.320100
0
LINE
8
cut2
10
282.636000
20
40.299100
11
281.495000
21
40.306100
0
LINE
8
cut2
10
284.918000
20
40.285100
11
283.777110
21
40.292100
0
LINE
8
cut2
10
285.019000
20
40.369500
11
285.019000
21
43.028600
0
LINE
8
cut2
10
285.019000
20
43.028600
11
277.473000
21
43.028600
0
LINE
8
cut2
10
277.473000
20
43.028600
11
277.473000
21
46.111400
0
LINE
8
cut2
10
277.473000
20
46.111400
11
273.782000
21
46.111400
0
LINE
8
cut2
10
273.782000
20
46.111400
11
273.782000
21
43.395400
0
LINE
8
cut2
10
273.782000
20
43.395400
11
265.843000
21
43.395400
0
LINE
8
cut2
10
265.843000
20
43.395400
11
265.843000
21
40.261700
0
LINE
8
cut2
10
287.268000
20
19.214500
11
287.268000
21
4.031880
0
LINE
8
cut2
10
287.268000
20
4.031880
11
284.893000
21
4.031880
0
LINE
8
cut2
10
284.850000
20
40.340400
11
287.262000
21
40.340400
0
LINE
8
cut2
10
287.262000
20
40.340400
11
287.262000
21
24.415200
0
LINE
8
cut2
10
266.017000
20
38.992600
11
266.022000
21
40.512180
0
LINE
8
cut2
10
266.003000
20
34.640500
11
266.010000
21
36.815010
0
LINE
8
cut2
10
265.989000
20
30.287500
11
265.996000
21
32.463330
0
LINE
8
cut2
10
265.975000
20
25.935900
11
265.982000
21
28.111820
0
LINE
8
cut2
10
265.961000
20
21.584100
11
265.968000
21
23.760870
0
LINE
8
cut2
10
265.946000
20
17.231400
11
265.954000
21
19.407340
0
LINE
8
cut2
10
265.932000
20
12.878500
11
265.939000
21
15.054750
0
LINE
8
cut2
10
265.918000
20
8.525790
11
265.925000
21
10.702150
0
LINE
8
cut2
10
265.904000
20
4.172590
11
265.911000
21
6.348730
0
LINE
8
cut2
10
263.741000
20
20.317000
11
263.741010
21
4.108100
0
LINE
8
cut2
10
263.741010
20
4.108100
11
266.115000
21
4.108060
0
LINE
8
cut2
10
266.159000
20
40.414200
11
263.746000
21
40.414200
0
LINE
8
cut2
10
263.746000
20
40.414200
11
263.745990
21
25.273000
0
LINE
8
cut2
10
427.239000
20
50.035500
11
422.921000
21
50.035500
0
LINE
8
cut2
10
427.239000
20
13.144200
11
423.060000
21
13.144200
0
LINE
8
cut2
10
427.258000
20
50.513400
11
427.258000
21
49.577800
0
LINE
8
cut2
10
427.258000
20
49.577800
11
423.072000
21
49.577800
0
LINE
8
cut2
10
423.072000
20
49.577800
11
423.072000
21
50.562600
0
LINE
8
cut2
10
427.166000
20
12.909800
11
427.166000
21
13.500700
0
LINE
8
cut2
10
427.166000
20
13.500700
11
422.882000
21
13.500700
0
LINE
8
cut2
10
422.882000
20
13.500700
11
423.070840
21
12.795940
0
LINE
8
cut2
10
311.509000
20
55.828600
11
309.754020
21
55.822600
0
LINE
8
cut2
10
316.535000
20
55.845300
11
314.023640
21
55.837300
0
LINE
8
cut2
10
321.563000
20
55.861900
11
319.050100
21
55.853900
0
LINE
8
cut2
10
298.588000
20
-2.604950
11
296.833010
21
-2.610950
0
LINE
8
cut2
10
303.614000
20
-2.588330
11
301.102630
21
-2.596330
0
LINE
8
cut2
10
308.641000
20
-2.571710
11
306.128090
21
-2.579710
0
LINE
8
cut2
10
409.341000
20
117.111000
11
408.202220
21
117.111000
0
LINE
8
cut2
10
407.063620
20
117.111000
11
405.925350
21
117.111000
0
LINE
8
cut2
10
404.786380
20
117.111000
11
403.648020
21
117.111000
0
LINE
8
cut2
10
402.509940
20
117.111000
11
401.371720
21
117.111000
0
LINE
8
cut2
10
400.232940
20
117.111000
11
399.094060
21
117.111000
0
LINE
8
cut2
10
397.955890
20
117.111000
11
396.817200
21
117.111000
0
LINE
8
cut2
10
395.678410
20
117.111000
11
394.539810
21
117.111000
0
LINE
8
cut2
10
393.401070
20
117.111000
11
392.262620
21
117.111000
0
LINE
8
cut2
10
391.124170
20
117.111000
11
389.985470
21
117.111000
0
LINE
8
cut2
10
388.847070
20
117.111000
11
387.708610
21
117.111000
0
LINE
8
cut2
10
386.570110
20
117.111000
11
385.431280
21
117.111000
0
LINE
8
cut2
10
384.292630
20
117.111000
11
383.154410
21
117.111000
0
LINE
8
cut2
10
382.015760
20
117.111000
11
380.877260
21
117.111000
0
LINE
8
cut2
10
379.738900
20
117.111000
11
378.600070
21
117.111000
0
LINE
8
cut2
10
377.564000
20
117.085000
11
376.425210
21
117.085000
0
LINE
8
cut2
10
375.286620
20
117.085000
11
374.148350
21
117.085000
0
LINE
8
cut2
10
373.009380
20
117.085000
11
371.871020
21
117.085000
0
LINE
8
cut2
10
370.732940
20
117.085000
11
369.594720
21
117.085000
0
LINE
8
cut2
10
368.455940
20
117.085000
11
367.317060
21
117.085000
0
LINE
8
cut2
10
366.178890
20
117.085000
11
365.040200
21
117.085000
0
LINE
8
cut2
10
363.901410
20
117.085000
11
362.762810
21
117.085000
0
LINE
8
cut2
10
361.624070
20
117.085000
11
360.485610
21
117.085000
0
LINE
8
cut2
10
359.347160
20
117.085000
11
358.208460
21
117.085000
0
LINE
8
cut2
10
357.070070
20
117.085000
11
355.931610
21
117.085000
0
LINE
8
cut2
10
354.793110
20
117.085000
11
353.654280
21
117.085000
0
LINE
8
cut2
10
352.515630
20
117.085000
11
351.377410
21
117.085000
0
LINE
8
cut2
10
350.238760
20
117.085000
11
349.100260
21
117.085000
0
LINE
8
cut2
10
347.961900
20
117.085000
11
346.823070
21
117.085000
0
LINE
8
cut2
10
410.441000
20
192.690000
11
409.302220
21
192.690000
0
LINE
8
cut2
10
408.163620
20
192.690000
11
407.025350
21
192.690000
0
LINE
8
cut2
10
405.886380
20
192.690000
11
404.748020
21
192.690000
0
LINE
8
cut2
10
403.609940
20
192.690000
11
402.471720
21
192.690000
0
LINE
8
cut2
10
401.332940
20
192.690000
11
400.194060
21
192.690000
0
LINE
8
cut2
10
399.055890
20
192.690000
11
397.917200
21
192.690000
0
LINE
8
cut2
10
396.778410
20
192.690000
11
395.639810
21
192.690000
0
LINE
8
cut2
10
394.501070
20
192.690000
11
393.362620
21
192.690000
0
LINE
8
cut2
10
392.224170
20
192.690000
11
391.085470
21
192.690000
0
LINE
8
cut2
10
389.947070
20
192.690000
11
388.808610
21
192.690000
0
LINE
8
cut2
10
387.670110
20
192.690000
11
386.531280
21
192.690000
0
LINE
8
cut2
10
385.392630
20
192.690000
11
384.254410
21
192.690000
0
LINE
8
cut2
10
383.115760
20
192.690000
11
381.977260
21
192.690000
0
LINE
8
cut2
10
380.838900
20
192.690000
11
379.700070
21
192.690000
0
LINE
8
cut2
10
378.664000
20
192.664000
11
377.896180
21
192.664000
0
LINE
8
cut2
10
377.128480
20
192.664000
11
376.361010
21
192.664000
0
LINE
8
cut2
10
375.593060
20
192.664000
11
374.825530
21
192.664000
0
LINE
8
cut2
10
374.058180
20
192.664000
11
373.290740
21
192.664000
0
LINE
8
cut2
10
372.522920
20
192.664000
11
371.755040
21
192.664000
0
LINE
8
cut2
10
370.987630
20
192.664000
11
370.219870
21
192.664000
0
LINE
8
cut2
10
369.452050
20
192.664000
11
368.684350
21
192.664000
0
LINE
8
cut2
10
367.916560
20
192.664000
11
367.148960
21
192.664000
0
LINE
8
cut2
10
366.381360
20
192.664000
11
365.613600
21
192.664000
0
LINE
8
cut2
10
364.846040
20
192.664000
11
364.078440
21
192.664000
0
LINE
8
cut2
10
363.310810
20
192.664000
11
362.542960
21
192.664000
0
LINE
8
cut2
10
361.775230
20
192.664000
11
361.007790
21
192.664000
0
LINE
8
cut2
10
360.240060
20
192.664000
11
359.472430
21
192.664000
0
LINE
8
cut2
10
358.704890
20
192.664000
11
357.937040
21
192.664000
0
LINE
8
barrel Image
10
203.816000
20
171.849000
11
203.816000
21
166.874000
0
LINE
8
barrel Image
10
29.696900
20
73.931100
11
29.696900
21
12.946400
0
LINE
8
barrel Image
10
26.422500
20
73.726400
11
26.422500
21
12.741800
0
LINE
8
barrel Image
10
23.496700
20
74.816800
11
23.496700
21
13.832200
0
LINE
8
barrel Image
10
20.222300
20
74.612100
11
20.222300
21
13.627600
0
LINE
8
barrel Image
10
16.663800
20
72.033000
11
16.663800
21
11.048400
0
LINE
8
barrel Image
10
74.198700
20
70.554400
11
41.046000
21
70.554400
0
LINE
8
barrel Image
10
74.111000
20
65.584400
11
40.958300
21
65.584400
0
LINE
8
barrel Image
10
74.169500
20
60.731300
11
41.016800
21
60.731300
0
LINE
8
barrel Image
10
73.794200
20
55.819800
11
10.241000
21
55.819800
0
LINE
8
barrel Image
10
73.794200
20
41.143800
11
10.241000
21
41.143800
0
LINE
8
barrel Image
10
73.794200
20
36.290700
11
10.241000
21
36.290700
0
LINE
8
barrel Image
10
74.578800
20
31.320700
11
11.025600
21
31.320700
0
LINE
8
barrel Image
10
73.794200
20
26.467700
11
10.241000
21
26.467700
0
LINE
8
barrel Image
10
74.344900
20
21.673100
11
41.192200
21
21.673100
0
LINE
8
barrel Image
10
71.664500
20
45.996800
11
8.111340
21
45.996800
0
LINE
8
barrel Image
10
72.224900
20
50.908300
11
8.671770
21
50.908300
0
LINE
8
barrel Image
10
68.234700
20
76.284500
11
68.234700
21
15.299900
0
LINE
8
barrel Image
10
64.960400
20
76.079800
11
64.960400
21
15.095200
0
LINE
8
barrel Image
10
50.225900
20
76.021300
11
50.225900
21
15.036700
0
LINE
8
barrel Image
10
46.600700
20
76.079800
11
46.600700
21
15.095200
0
LINE
8
picture2
10
456.535000
20
152.917000
11
456.535000
21
147.942000
0
LINE
8
picture2
10
282.416000
20
54.999500
11
282.416000
21
-5.985140
0
LINE
8
picture2
10
279.142000
20
54.794800
11
279.142000
21
-6.189780
0
LINE
8
picture2
10
276.216000
20
55.885200
11
276.216000
21
-5.099390
0
LINE
8
picture2
10
272.941000
20
55.680500
11
272.941000
21
-5.304030
0
LINE
8
picture2
10
269.383000
20
53.101400
11
269.383000
21
-7.883150
0
LINE
8
picture2
10
326.918000
20
51.622800
11
293.765000
21
51.622800
0
LINE
8
picture2
10
326.830000
20
46.652800
11
293.677000
21
46.652800
0
LINE
8
picture2
10
326.889000
20
41.799700
11
293.736000
21
41.799700
0
LINE
8
picture2
10
326.513000
20
36.888200
11
262.960000
21
36.888200
0
LINE
8
picture2
10
326.513000
20
22.212200
11
262.960000
21
22.212200
0
LINE
8
picture2
10
326.513000
20
17.359100
11
262.960000
21
17.359100
0
LINE
8
picture2
10
327.298000
20
12.389100
11
263.745000
21
12.389100
0
LINE
8
picture2
10
326.513000
20
7.536110
11
262.960000
21
7.536110
0
LINE
8
picture2
10
327.064000
20
2.741550
11
293.911000
21
2.741550
0
LINE
8
picture2
10
324.384000
20
27.065200
11
260.830000
21
27.065200
0
LINE
8
picture2
10
324.944000
20
31.976700
11
261.391000
21
31.976700
0
LINE
8
picture2
10
320.954000
20
57.352900
11
320.954000
21
-3.631730
0
LINE
8
picture2
10
317.679000
20
57.148200
11
317.679000
21
-3.836360
0
LINE
8
picture2
10
302.945000
20
57.089700
11
302.945000
21
-3.894840
0
LINE
8
picture2
10
299.320000
20
57.148200
11
299.320000
21
-3.836360
 0 
ENDSEC
 0 
EOF