  0
SECTION
  2
HEADER
  9
$ACADVER
  1
AC1014
  9
$HANDSEED
  5
FFFF
  9
$INSUNITS
 70
     4
  9
$MEASUREMENT
 70
     1
  0
ENDSEC
  0
SECTION
  2
TABLES
  0
TABLE
  2
VPORT
  5
8
330
0
100
AcDbSymbolTable
 70
     4
  0
VPORT
  5
2E
330
8
100
AcDbSymbolTableRecord
100
AcDbViewportTableRecord
  2
*ACTIVE
 70
     0
 10
0.0
 20
0.0
 11
1.0
 21
1.0
 12
210.0
 22
148.5
 13
0.0
 23
0.0
 14
10.0
 24
10.0
 15
10.0
 25
10.0
 16
0.0
 26
0.0
 36
1.0
 17
0.0
 27
0.0
 37
0.0
 40
341.0
 41
1.24
 42
50.0
 43
0.0
 44
0.0
 50
0.0
 51
0.0
 71
     0
 72
   100
 73
     1
 74
     3
 75
     0
 76
     0
 77
     0
 78
     0
  0
ENDTAB
  0
TABLE
  2
LTYPE
  5
5
330
0
100
AcDbSymbolTable
 70
     1
  0
LTYPE
  5
14
330
5
100
AcDbSymbolTableRecord
100
AcDbLinetypeTableRecord
  2
BYBLOCK
 70
     0
  3

 72
    65
 73
     0
 40
0.0
  0
LTYPE
  5
15
330
5
100
AcDbSymbolTableRecord
100
AcDbLinetypeTableRecord
  2
BYLAYER
 70
     0
  3

 72
    65
 73
     0
 40
0.0
  0
LTYPE
  5
16
330
5
100
AcDbSymbolTableRecord
100
AcDbLinetypeTableRecord
  2
CONTINUOUS
 70
     0
  3
Solid line
 72
    65
 73
     0
 40
0.0
  0
ENDTAB
  0
TABLE
  2
LAYER
  5
2
100
AcDbSymbolTable
 70
7
  0
LAYER
  5
50
100
AcDbSymbolTableRecord
100
AcDbLayerTableRecord
  2
0
 70
0
  6
CONTINUOUS
  0
LAYER
  5
51
100
AcDbSymbolTableRecord
100
AcDbLayerTableRecord
  2
cut
 70
0
  6
CONTINUOUS
  0
LAYER
  5
52
100
AcDbSymbolTableRecord
100
AcDbLayerTableRecord
  2
cut_barrel
 70
0
  6
CONTINUOUS
  0
LAYER
  5
53
100
AcDbSymbolTableRecord
100
AcDbLayerTableRecord
  2
solar_cut
 70
0
  6
CONTINUOUS
  0
LAYER
  5
54
100
AcDbSymbolTableRecord
100
AcDbLayerTableRecord
  2
pictures
 70
0
  6
CONTINUOUS
  0
LAYER
  5
55
100
AcDbSymbolTableRecord
100
AcDbLayerTableRecord
  2
solar_image
 70
0
  6
CONTINUOUS
  0
LAYER
  5
56
100
AcDbSymbolTableRecord
100
AcDbLayerTableRecord
  2
barrel_Image
 70
0
  6
CONTINUOUS
  0
ENDTAB
  0
TABLE
  2
STYLE
  5
3
330
0
100
AcDbSymbolTable
 70
     1
  0
STYLE
  5
11
330
3
100
AcDbSymbolTableRecord
100
AcDbTextStyleTableRecord
  2
STANDARD
 70
     0
 40
0.0
 41
1.0
 50
0.0
 71
     0
 42
2.5
  3
txt
  4

  0
ENDTAB
  0
TABLE
  2
VIEW
  5
6
330
0
100
AcDbSymbolTable
 70
     0
  0
ENDTAB
  0
TABLE
  2
UCS
  5
7
330
0
100
AcDbSymbolTable
 70
     0
  0
ENDTAB
  0
TABLE
  2
APPID
  5
9
330
0
100
AcDbSymbolTable
 70
     2
  0
APPID
  5
12
330
9
100
AcDbSymbolTableRecord
100
AcDbRegAppTableRecord
  2
ACAD
 70
     0
  0
ENDTAB
  0
TABLE
  2
DIMSTYLE
  5
A
330
0
100
AcDbSymbolTable
 70
     1
  0
DIMSTYLE
105
27
330
A
100
AcDbSymbolTableRecord
100
AcDbDimStyleTableRecord
  2
ISO-25
 70
     0
  3

  4

  5

  6

  7

 40
1.0
 41
2.5
 42
0.625
 43
3.75
 44
1.25
 45
0.0
 46
0.0
 47
0.0
 48
0.0
140
2.5
141
2.5
142
0.0
143
0.03937007874016
144
1.0
145
0.0
146
1.0
147
0.625
 71
     0
 72
     0
 73
     0
 74
     0
 75
     0
 76
     0
 77
     1
 78
     8
170
     0
171
     3
172
     1
173
     0
174
     0
175
     0
176
     0
177
     0
178
     0
270
     2
271
     2
272
     2
273
     2
274
     3
340
11
275
     0
280
     0
281
     0
282
     0
283
     0
284
     8
285
     0
286
     0
287
     3
288
     0
  0
ENDTAB
  0
TABLE
  2
BLOCK_RECORD
  5
1
330
0
100
AcDbSymbolTable
 70
     1
  0
BLOCK_RECORD
  5
1F
330
1
100
AcDbSymbolTableRecord
100
AcDbBlockTableRecord
  2
*MODEL_SPACE
  0
BLOCK_RECORD
  5
1B
330
1
100
AcDbSymbolTableRecord
100
AcDbBlockTableRecord
  2
*PAPER_SPACE
  0
ENDTAB
  0
ENDSEC
  0
SECTION
  2
BLOCKS
  0
BLOCK
  5
20
330
1F
100
AcDbEntity
  8
0
100
AcDbBlockBegin
  2
*MODEL_SPACE
 70
     0
 10
0.0
 20
0.0
 30
0.0
  3
*MODEL_SPACE
  1

  0
ENDBLK
  5
21
330
1F
100
AcDbEntity
  8
0
100
AcDbBlockEnd
  0
BLOCK
  5
1C
330
1B
100
AcDbEntity
 67
     1
  8
0
100
AcDbBlockBegin
  2
*PAPER_SPACE
  1

  0
ENDBLK
  5
1D
330
1B
100
AcDbEntity
 67
     1
  8
0
100
AcDbBlockEnd
  0
ENDSEC
  0
SECTION
  2
ENTITIES
  0
LWPOLYLINE
  5
100
100
AcDbEntity
  8
cut
 62
7
100
AcDbPolyline
 90
3
 70
0
 10
0.515245
 20
6.479748
 30
0.0
 10
1.498714
 20
7.384793
 30
0.0
 10
2.482184
 20
6.479748
 30
0.0
  0
LWPOLYLINE
  5
101
100
AcDbEntity
  8
cut
 62
7
100
AcDbPolyline
 90
3
 70
0
 10
0.080001
 20
5.459334
 30
0.0
 10
0.080001
 20
6.280954
 30
0.0
 10
0.515138
 20
6.479443
 30
0.0
  0
LWPOLYLINE
  5
102
100
AcDbEntity
  8
cut
 62
7
100
AcDbPolyline
 90
3
 70
0
 10
0.515138
 20
3.911749
 30
0.0
 10
0.080001
 20
4.182032
 30
0.0
 10
0.080001
 20
5.164788
 30
0.0
  0
SPLINE
  5
103
100
AcDbEntity
  8
cut
 62
1
100
AcDbSpline
 70
0
 71
3
 72
10
 73
6
 74
4
 40
0.000000
 40
0.000000
 40
0.000000
 40
0.000000
 40
0.037848
 40
0.061692
 40
0.069984
 40
0.069984
 40
0.069984
 40
0.069984
 10
0.518746
 20
5.154617
 30
0.0
 10
0.518775
 20
5.142001
 30
0.0
 10
0.518822
 20
5.121437
 30
0.0
 10
0.518876
 20
5.098109
 30
0.0
 10
0.518901
 20
5.087397
 30
0.0
 10
0.518907
 20
5.084633
 30
0.0
 11
0.518746
 21
5.154617
 31
0.0
 11
0.518833
 21
5.116769
 31
0.0
 11
0.518888
 21
5.092925
 31
0.0
 11
0.518907
 21
5.084633
 31
0.0
  0
SPLINE
  5
104
100
AcDbEntity
  8
cut
 62
1
100
AcDbSpline
 70
0
 71
3
 72
10
 73
6
 74
4
 40
0.000000
 40
0.000000
 40
0.000000
 40
0.000000
 40
0.033302
 40
0.064894
 40
0.094634
 40
0.094634
 40
0.094634
 40
0.094634
 10
0.518305
 20
5.343834
 30
0.0
 10
0.518330
 20
5.332733
 30
0.0
 10
0.518380
 20
5.311102
 30
0.0
 10
0.518454
 20
5.279557
 30
0.0
 10
0.518502
 20
5.259113
 30
0.0
 10
0.518525
 20
5.249200
 30
0.0
 11
0.518305
 21
5.343834
 31
0.0
 11
0.518382
 21
5.310532
 31
0.0
 11
0.518456
 21
5.278940
 31
0.0
 11
0.518525
 21
5.249200
 31
0.0
  0
SPLINE
  5
105
100
AcDbEntity
  8
cut
 62
1
100
AcDbSpline
 70
0
 71
3
 72
10
 73
6
 74
4
 40
0.000000
 40
0.000000
 40
0.000000
 40
0.000000
 40
0.032200
 40
0.063773
 40
0.094642
 40
0.094642
 40
0.094642
 40
0.094642
 10
0.517864
 20
5.533113
 30
0.0
 10
0.517888
 20
5.522380
 30
0.0
 10
0.517938
 20
5.501122
 30
0.0
 10
0.518012
 20
5.469575
 30
0.0
 10
0.518060
 20
5.448761
 30
0.0
 10
0.518084
 20
5.438471
 30
0.0
 11
0.517864
 21
5.533113
 31
0.0
 11
0.517938
 21
5.500913
 31
0.0
 11
0.518012
 21
5.469341
 31
0.0
 11
0.518084
 21
5.438471
 31
0.0
  0
SPLINE
  5
106
100
AcDbEntity
  8
cut
 62
1
100
AcDbSpline
 70
0
 71
3
 72
10
 73
6
 74
4
 40
0.000000
 40
0.000000
 40
0.000000
 40
0.000000
 40
0.031739
 40
0.063310
 40
0.094650
 40
0.094650
 40
0.094650
 40
0.094650
 10
0.517419
 20
5.722424
 30
0.0
 10
0.517444
 20
5.711844
 30
0.0
 10
0.517493
 20
5.690741
 30
0.0
 10
0.517568
 20
5.659191
 30
0.0
 10
0.517618
 20
5.638221
 30
0.0
 10
0.517643
 20
5.627775
 30
0.0
 11
0.517419
 21
5.722424
 31
0.0
 11
0.517494
 21
5.690685
 31
0.0
 11
0.517568
 21
5.659115
 31
0.0
 11
0.517643
 21
5.627775
 31
0.0
  0
SPLINE
  5
107
100
AcDbEntity
  8
cut
 62
1
100
AcDbSpline
 70
0
 71
3
 72
10
 73
6
 74
4
 40
0.000000
 40
0.000000
 40
0.000000
 40
0.000000
 40
0.031378
 40
0.062936
 40
0.094618
 40
0.094618
 40
0.094618
 40
0.094618
 10
0.516978
 20
5.911653
 30
0.0
 10
0.517003
 20
5.901193
 30
0.0
 10
0.517053
 20
5.880215
 30
0.0
 10
0.517127
 20
5.848675
 30
0.0
 10
0.517174
 20
5.827595
 30
0.0
 10
0.517198
 20
5.817034
 30
0.0
 11
0.516978
 21
5.911653
 31
0.0
 11
0.517052
 21
5.880275
 31
0.0
 11
0.517126
 21
5.848716
 31
0.0
 11
0.517198
 21
5.817034
 31
0.0
  0
SPLINE
  5
108
100
AcDbEntity
  8
cut
 62
1
100
AcDbSpline
 70
0
 71
3
 72
10
 73
6
 74
4
 40
0.000000
 40
0.000000
 40
0.000000
 40
0.000000
 40
0.030941
 40
0.062505
 40
0.094622
 40
0.094622
 40
0.094622
 40
0.094622
 10
0.516537
 20
6.100924
 30
0.0
 10
0.516561
 20
6.090610
 30
0.0
 10
0.516609
 20
6.069775
 30
0.0
 10
0.516683
 20
6.038235
 30
0.0
 10
0.516733
 20
6.017008
 30
0.0
 10
0.516757
 20
6.006302
 30
0.0
 11
0.516537
 21
6.100924
 31
0.0
 11
0.516609
 21
6.069983
 31
0.0
 11
0.516683
 21
6.038419
 31
0.0
 11
0.516757
 21
6.006302
 31
0.0
  0
SPLINE
  5
109
100
AcDbEntity
  8
cut
 62
1
100
AcDbSpline
 70
0
 71
3
 72
10
 73
6
 74
4
 40
0.000000
 40
0.000000
 40
0.000000
 40
0.000000
 40
0.029971
 40
0.061542
 40
0.094587
 40
0.094587
 40
0.094587
 40
0.094587
 10
0.516096
 20
6.290121
 30
0.0
 10
0.516119
 20
6.280131
 30
0.0
 10
0.516166
 20
6.259617
 30
0.0
 10
0.516240
 20
6.228088
 30
0.0
 10
0.516291
 20
6.206549
 30
0.0
 10
0.516316
 20
6.195534
 30
0.0
 11
0.516096
 21
6.290121
 31
0.0
 11
0.516165
 21
6.260150
 31
0.0
 11
0.516239
 21
6.228579
 31
0.0
 11
0.516316
 21
6.195534
 31
0.0
  0
LWPOLYLINE
  5
10a
100
AcDbEntity
  8
cut
 62
7
100
AcDbPolyline
 90
2
 70
0
 10
2.483534
 20
3.912796
 30
0.0
 10
0.515244
 20
3.911445
 30
0.0
  0
LWPOLYLINE
  5
10b
100
AcDbEntity
  8
cut
 62
7
100
AcDbPolyline
 90
2
 70
0
 10
0.518908
 20
5.084635
 30
0.0
 10
0.515245
 20
3.911445
 30
0.0
  0
LWPOLYLINE
  5
10c
100
AcDbEntity
  8
cut
 62
7
100
AcDbPolyline
 90
3
 70
0
 10
5.453127
 20
6.478397
 30
0.0
 10
6.436596
 20
7.383442
 30
0.0
 10
7.420065
 20
6.478397
 30
0.0
  0
LWPOLYLINE
  5
10d
100
AcDbEntity
  8
cut
 62
7
100
AcDbPolyline
 90
2
 70
0
 10
7.421416
 20
3.911444
 30
0.0
 10
5.453126
 20
3.910098
 30
0.0
  0
LWPOLYLINE
  5
10e
100
AcDbEntity
  8
cut
 62
7
100
AcDbPolyline
 90
2
 70
0
 10
7.421416
 20
3.911444
 30
0.0
 10
10.391009
 20
3.911445
 30
0.0
  0
LWPOLYLINE
  5
10f
100
AcDbEntity
  8
cut
 62
7
100
AcDbPolyline
 90
3
 70
0
 10
10.827925
 20
5.501328
 30
0.0
 10
10.827925
 20
4.110047
 30
0.0
 10
10.391336
 20
3.912125
 30
0.0
  0
LWPOLYLINE
  5
110
100
AcDbEntity
  8
cut
 62
7
100
AcDbPolyline
 90
3
 70
0
 10
6.116389
 20
5.122688
 30
0.0
 10
6.800347
 20
5.122688
 30
0.0
 10
6.800347
 20
3.912609
 30
0.0
  0
LWPOLYLINE
  5
111
100
AcDbEntity
  8
cut
 62
1
100
AcDbPolyline
 90
2
 70
0
 10
6.116389
 20
5.122688
 30
0.0
 10
6.116389
 20
5.077854
 30
0.0
  0
LWPOLYLINE
  5
112
100
AcDbEntity
  8
cut
 62
1
100
AcDbPolyline
 90
2
 70
0
 10
6.116389
 20
5.033027
 30
0.0
 10
6.116389
 20
4.988214
 30
0.0
  0
LWPOLYLINE
  5
113
100
AcDbEntity
  8
cut
 62
1
100
AcDbPolyline
 90
2
 70
0
 10
6.116389
 20
4.943372
 30
0.0
 10
6.116389
 20
4.898555
 30
0.0
  0
LWPOLYLINE
  5
114
100
AcDbEntity
  8
cut
 62
1
100
AcDbPolyline
 90
2
 70
0
 10
6.116389
 20
4.853749
 30
0.0
 10
6.116389
 20
4.808937
 30
0.0
  0
LWPOLYLINE
  5
115
100
AcDbEntity
  8
cut
 62
1
100
AcDbPolyline
 90
2
 70
0
 10
6.116389
 20
4.764103
 30
0.0
 10
6.116389
 20
4.719265
 30
0.0
  0
LWPOLYLINE
  5
116
100
AcDbEntity
  8
cut
 62
1
100
AcDbPolyline
 90
2
 70
0
 10
6.116389
 20
4.674455
 30
0.0
 10
6.116389
 20
4.629625
 30
0.0
  0
LWPOLYLINE
  5
117
100
AcDbEntity
  8
cut
 62
1
100
AcDbPolyline
 90
2
 70
0
 10
6.116389
 20
4.584791
 30
0.0
 10
6.116389
 20
4.539964
 30
0.0
  0
LWPOLYLINE
  5
118
100
AcDbEntity
  8
cut
 62
1
100
AcDbPolyline
 90
2
 70
0
 10
6.116389
 20
4.495131
 30
0.0
 10
6.116389
 20
4.450311
 30
0.0
  0
LWPOLYLINE
  5
119
100
AcDbEntity
  8
cut
 62
1
100
AcDbPolyline
 90
2
 70
0
 10
6.116389
 20
4.405490
 30
0.0
 10
6.116389
 20
4.360659
 30
0.0
  0
LWPOLYLINE
  5
11a
100
AcDbEntity
  8
cut
 62
1
100
AcDbPolyline
 90
2
 70
0
 10
6.116389
 20
4.315840
 30
0.0
 10
6.116389
 20
4.271019
 30
0.0
  0
LWPOLYLINE
  5
11b
100
AcDbEntity
  8
cut
 62
1
100
AcDbPolyline
 90
2
 70
0
 10
6.116389
 20
4.226196
 30
0.0
 10
6.116389
 20
4.181360
 30
0.0
  0
LWPOLYLINE
  5
11c
100
AcDbEntity
  8
cut
 62
1
100
AcDbPolyline
 90
2
 70
0
 10
6.116389
 20
4.136531
 30
0.0
 10
6.116389
 20
4.091720
 30
0.0
  0
LWPOLYLINE
  5
11d
100
AcDbEntity
  8
cut
 62
1
100
AcDbPolyline
 90
2
 70
0
 10
6.116389
 20
4.046891
 30
0.0
 10
6.116389
 20
4.002068
 30
0.0
  0
LWPOLYLINE
  5
11e
100
AcDbEntity
  8
cut
 62
1
100
AcDbPolyline
 90
2
 70
0
 10
6.116389
 20
3.957251
 30
0.0
 10
6.116389
 20
3.912415
 30
0.0
  0
LWPOLYLINE
  5
11f
100
AcDbEntity
  8
cut
 62
1
100
AcDbPolyline
 90
2
 70
0
 10
7.416346
 20
6.461635
 30
0.0
 10
7.416346
 20
6.367395
 30
0.0
  0
LWPOLYLINE
  5
120
100
AcDbEntity
  8
cut
 62
1
100
AcDbPolyline
 90
2
 70
0
 10
7.416346
 20
6.273171
 30
0.0
 10
7.416346
 20
6.178975
 30
0.0
  0
LWPOLYLINE
  5
121
100
AcDbEntity
  8
cut
 62
1
100
AcDbPolyline
 90
2
 70
0
 10
7.416346
 20
6.084719
 30
0.0
 10
7.416346
 20
5.990515
 30
0.0
  0
LWPOLYLINE
  5
122
100
AcDbEntity
  8
cut
 62
1
100
AcDbPolyline
 90
2
 70
0
 10
7.416346
 20
5.896334
 30
0.0
 10
7.416346
 20
5.802141
 30
0.0
  0
LWPOLYLINE
  5
123
100
AcDbEntity
  8
cut
 62
1
100
AcDbPolyline
 90
2
 70
0
 10
7.416346
 20
5.707902
 30
0.0
 10
7.416346
 20
5.613655
 30
0.0
  0
LWPOLYLINE
  5
124
100
AcDbEntity
  8
cut
 62
1
100
AcDbPolyline
 90
2
 70
0
 10
7.416346
 20
5.519466
 30
0.0
 10
7.416346
 20
5.425235
 30
0.0
  0
LWPOLYLINE
  5
125
100
AcDbEntity
  8
cut
 62
1
100
AcDbPolyline
 90
2
 70
0
 10
7.416346
 20
5.330995
 30
0.0
 10
7.416346
 20
5.236770
 30
0.0
  0
LWPOLYLINE
  5
126
100
AcDbEntity
  8
cut
 62
1
100
AcDbPolyline
 90
2
 70
0
 10
7.416346
 20
5.142535
 30
0.0
 10
7.416346
 20
5.048323
 30
0.0
  0
LWPOLYLINE
  5
127
100
AcDbEntity
  8
cut
 62
1
100
AcDbPolyline
 90
2
 70
0
 10
7.416346
 20
4.954111
 30
0.0
 10
7.416346
 20
4.859878
 30
0.0
  0
LWPOLYLINE
  5
128
100
AcDbEntity
  8
cut
 62
1
100
AcDbPolyline
 90
2
 70
0
 10
7.416346
 20
4.765671
 30
0.0
 10
7.416346
 20
4.671458
 30
0.0
  0
LWPOLYLINE
  5
129
100
AcDbEntity
  8
cut
 62
1
100
AcDbPolyline
 90
2
 70
0
 10
7.416346
 20
4.577242
 30
0.0
 10
7.416346
 20
4.482999
 30
0.0
  0
LWPOLYLINE
  5
12a
100
AcDbEntity
  8
cut
 62
1
100
AcDbPolyline
 90
2
 70
0
 10
7.416346
 20
4.388770
 30
0.0
 10
7.416346
 20
4.294578
 30
0.0
  0
LWPOLYLINE
  5
12b
100
AcDbEntity
  8
cut
 62
1
100
AcDbPolyline
 90
2
 70
0
 10
7.416346
 20
4.200350
 30
0.0
 10
7.416346
 20
4.106133
 30
0.0
  0
LWPOLYLINE
  5
12c
100
AcDbEntity
  8
cut
 62
1
100
AcDbPolyline
 90
2
 70
0
 10
7.416346
 20
4.011929
 30
0.0
 10
7.416346
 20
3.917686
 30
0.0
  0
LWPOLYLINE
  5
12d
100
AcDbEntity
  8
cut
 62
1
100
AcDbPolyline
 90
2
 70
0
 10
10.383152
 20
5.219337
 30
0.0
 10
10.383152
 20
5.172215
 30
0.0
  0
LWPOLYLINE
  5
12e
100
AcDbEntity
  8
cut
 62
1
100
AcDbPolyline
 90
2
 70
0
 10
10.383152
 20
5.125101
 30
0.0
 10
10.383152
 20
5.078001
 30
0.0
  0
LWPOLYLINE
  5
12f
100
AcDbEntity
  8
cut
 62
1
100
AcDbPolyline
 90
2
 70
0
 10
10.383152
 20
5.030871
 30
0.0
 10
10.383152
 20
4.983767
 30
0.0
  0
LWPOLYLINE
  5
130
100
AcDbEntity
  8
cut
 62
1
100
AcDbPolyline
 90
2
 70
0
 10
10.383152
 20
4.936675
 30
0.0
 10
10.383152
 20
4.889577
 30
0.0
  0
LWPOLYLINE
  5
131
100
AcDbEntity
  8
cut
 62
1
100
AcDbPolyline
 90
2
 70
0
 10
10.383152
 20
4.842455
 30
0.0
 10
10.383152
 20
4.795329
 30
0.0
  0
LWPOLYLINE
  5
132
100
AcDbEntity
  8
cut
 62
1
100
AcDbPolyline
 90
2
 70
0
 10
10.383152
 20
4.748233
 30
0.0
 10
10.383152
 20
4.701115
 30
0.0
  0
LWPOLYLINE
  5
133
100
AcDbEntity
  8
cut
 62
1
100
AcDbPolyline
 90
2
 70
0
 10
10.383152
 20
4.653993
 30
0.0
 10
10.383152
 20
4.606879
 30
0.0
  0
LWPOLYLINE
  5
134
100
AcDbEntity
  8
cut
 62
1
100
AcDbPolyline
 90
2
 70
0
 10
10.383152
 20
4.559759
 30
0.0
 10
10.383152
 20
4.512652
 30
0.0
  0
LWPOLYLINE
  5
135
100
AcDbEntity
  8
cut
 62
1
100
AcDbPolyline
 90
2
 70
0
 10
10.383152
 20
4.465544
 30
0.0
 10
10.383152
 20
4.418426
 30
0.0
  0
LWPOLYLINE
  5
136
100
AcDbEntity
  8
cut
 62
1
100
AcDbPolyline
 90
2
 70
0
 10
10.383152
 20
4.371320
 30
0.0
 10
10.383152
 20
4.324211
 30
0.0
  0
LWPOLYLINE
  5
137
100
AcDbEntity
  8
cut
 62
1
100
AcDbPolyline
 90
2
 70
0
 10
10.383152
 20
4.277102
 30
0.0
 10
10.383152
 20
4.229978
 30
0.0
  0
LWPOLYLINE
  5
138
100
AcDbEntity
  8
cut
 62
1
100
AcDbPolyline
 90
2
 70
0
 10
10.383152
 20
4.182862
 30
0.0
 10
10.383152
 20
4.135763
 30
0.0
  0
LWPOLYLINE
  5
139
100
AcDbEntity
  8
cut
 62
1
100
AcDbPolyline
 90
2
 70
0
 10
10.383152
 20
4.088648
 30
0.0
 10
10.383152
 20
4.041537
 30
0.0
  0
LWPOLYLINE
  5
13a
100
AcDbEntity
  8
cut
 62
1
100
AcDbPolyline
 90
2
 70
0
 10
10.383152
 20
3.994433
 30
0.0
 10
10.383152
 20
3.947310
 30
0.0
  0
LWPOLYLINE
  5
13b
100
AcDbEntity
  8
cut
 62
1
100
AcDbPolyline
 90
2
 70
0
 10
2.542620
 20
6.483306
 30
0.0
 10
2.648498
 20
6.483306
 30
0.0
  0
LWPOLYLINE
  5
13c
100
AcDbEntity
  8
cut
 62
1
100
AcDbPolyline
 90
2
 70
0
 10
2.754358
 20
6.483306
 30
0.0
 10
2.860187
 20
6.483306
 30
0.0
  0
LWPOLYLINE
  5
13d
100
AcDbEntity
  8
cut
 62
1
100
AcDbPolyline
 90
2
 70
0
 10
2.966083
 20
6.483306
 30
0.0
 10
3.071921
 20
6.483306
 30
0.0
  0
LWPOLYLINE
  5
13e
100
AcDbEntity
  8
cut
 62
1
100
AcDbPolyline
 90
2
 70
0
 10
3.177733
 20
6.483306
 30
0.0
 10
3.283558
 20
6.483306
 30
0.0
  0
LWPOLYLINE
  5
13f
100
AcDbEntity
  8
cut
 62
1
100
AcDbPolyline
 90
2
 70
0
 10
3.389436
 20
6.483306
 30
0.0
 10
3.495322
 20
6.483306
 30
0.0
  0
LWPOLYLINE
  5
140
100
AcDbEntity
  8
cut
 62
1
100
AcDbPolyline
 90
2
 70
0
 10
3.601143
 20
6.483306
 30
0.0
 10
3.707012
 20
6.483306
 30
0.0
  0
LWPOLYLINE
  5
141
100
AcDbEntity
  8
cut
 62
1
100
AcDbPolyline
 90
2
 70
0
 10
3.812890
 20
6.483306
 30
0.0
 10
3.918750
 20
6.483306
 30
0.0
  0
LWPOLYLINE
  5
142
100
AcDbEntity
  8
cut
 62
1
100
AcDbPolyline
 90
2
 70
0
 10
4.024624
 20
6.483306
 30
0.0
 10
4.130470
 20
6.483306
 30
0.0
  0
LWPOLYLINE
  5
143
100
AcDbEntity
  8
cut
 62
1
100
AcDbPolyline
 90
2
 70
0
 10
4.236317
 20
6.483306
 30
0.0
 10
4.342187
 20
6.483306
 30
0.0
  0
LWPOLYLINE
  5
144
100
AcDbEntity
  8
cut
 62
1
100
AcDbPolyline
 90
2
 70
0
 10
4.448029
 20
6.483306
 30
0.0
 10
4.553877
 20
6.483306
 30
0.0
  0
LWPOLYLINE
  5
145
100
AcDbEntity
  8
cut
 62
1
100
AcDbPolyline
 90
2
 70
0
 10
4.659728
 20
6.483306
 30
0.0
 10
4.765610
 20
6.483306
 30
0.0
  0
LWPOLYLINE
  5
146
100
AcDbEntity
  8
cut
 62
1
100
AcDbPolyline
 90
2
 70
0
 10
4.871475
 20
6.483306
 30
0.0
 10
4.977300
 20
6.483306
 30
0.0
  0
LWPOLYLINE
  5
147
100
AcDbEntity
  8
cut
 62
1
100
AcDbPolyline
 90
2
 70
0
 10
5.083165
 20
6.483306
 30
0.0
 10
5.189017
 20
6.483306
 30
0.0
  0
LWPOLYLINE
  5
148
100
AcDbEntity
  8
cut
 62
1
100
AcDbPolyline
 90
2
 70
0
 10
5.294855
 20
6.483306
 30
0.0
 10
5.400737
 20
6.483306
 30
0.0
  0
LWPOLYLINE
  5
149
100
AcDbEntity
  8
cut
 62
1
100
AcDbPolyline
 90
2
 70
0
 10
2.479184
 20
4.449083
 30
0.0
 10
2.479184
 20
4.522366
 30
0.0
  0
LWPOLYLINE
  5
14a
100
AcDbEntity
  8
cut
 62
1
100
AcDbPolyline
 90
2
 70
0
 10
2.479184
 20
4.595636
 30
0.0
 10
2.479184
 20
4.668885
 30
0.0
  0
LWPOLYLINE
  5
14b
100
AcDbEntity
  8
cut
 62
1
100
AcDbPolyline
 90
2
 70
0
 10
2.479184
 20
4.742180
 30
0.0
 10
2.479184
 20
4.815435
 30
0.0
  0
LWPOLYLINE
  5
14c
100
AcDbEntity
  8
cut
 62
1
100
AcDbPolyline
 90
2
 70
0
 10
2.479184
 20
4.888672
 30
0.0
 10
2.479184
 20
4.961919
 30
0.0
  0
LWPOLYLINE
  5
14d
100
AcDbEntity
  8
cut
 62
1
100
AcDbPolyline
 90
2
 70
0
 10
2.479184
 20
5.035201
 30
0.0
 10
2.479184
 20
5.108489
 30
0.0
  0
LWPOLYLINE
  5
14e
100
AcDbEntity
  8
cut
 62
1
100
AcDbPolyline
 90
2
 70
0
 10
2.479184
 20
5.181732
 30
0.0
 10
2.479184
 20
5.255009
 30
0.0
  0
LWPOLYLINE
  5
14f
100
AcDbEntity
  8
cut
 62
1
100
AcDbPolyline
 90
2
 70
0
 10
2.479184
 20
5.328292
 30
0.0
 10
2.479184
 20
5.401562
 30
0.0
  0
LWPOLYLINE
  5
150
100
AcDbEntity
  8
cut
 62
1
100
AcDbPolyline
 90
2
 70
0
 10
2.479184
 20
5.474842
 30
0.0
 10
2.479184
 20
5.548103
 30
0.0
  0
LWPOLYLINE
  5
151
100
AcDbEntity
  8
cut
 62
1
100
AcDbPolyline
 90
2
 70
0
 10
2.479184
 20
5.621364
 30
0.0
 10
2.479184
 20
5.694641
 30
0.0
  0
LWPOLYLINE
  5
152
100
AcDbEntity
  8
cut
 62
1
100
AcDbPolyline
 90
2
 70
0
 10
2.479184
 20
5.767899
 30
0.0
 10
2.479184
 20
5.841161
 30
0.0
  0
LWPOLYLINE
  5
153
100
AcDbEntity
  8
cut
 62
1
100
AcDbPolyline
 90
2
 70
0
 10
2.479184
 20
5.914425
 30
0.0
 10
2.479184
 20
5.987711
 30
0.0
  0
LWPOLYLINE
  5
154
100
AcDbEntity
  8
cut
 62
1
100
AcDbPolyline
 90
2
 70
0
 10
2.479184
 20
6.060984
 30
0.0
 10
2.479184
 20
6.134231
 30
0.0
  0
LWPOLYLINE
  5
155
100
AcDbEntity
  8
cut
 62
1
100
AcDbPolyline
 90
2
 70
0
 10
2.479184
 20
6.207504
 30
0.0
 10
2.479184
 20
6.280769
 30
0.0
  0
LWPOLYLINE
  5
156
100
AcDbEntity
  8
cut
 62
1
100
AcDbPolyline
 90
2
 70
0
 10
2.479184
 20
6.354024
 30
0.0
 10
2.479184
 20
6.427310
 30
0.0
  0
LWPOLYLINE
  5
157
100
AcDbEntity
  8
cut
 62
1
100
AcDbPolyline
 90
2
 70
0
 10
5.459112
 20
6.444411
 30
0.0
 10
5.459112
 20
6.351442
 30
0.0
  0
LWPOLYLINE
  5
158
100
AcDbEntity
  8
cut
 62
1
100
AcDbPolyline
 90
2
 70
0
 10
5.459112
 20
6.258488
 30
0.0
 10
5.459112
 20
6.165562
 30
0.0
  0
LWPOLYLINE
  5
159
100
AcDbEntity
  8
cut
 62
1
100
AcDbPolyline
 90
2
 70
0
 10
5.459112
 20
6.072578
 30
0.0
 10
5.459112
 20
5.979644
 30
0.0
  0
LWPOLYLINE
  5
15a
100
AcDbEntity
  8
cut
 62
1
100
AcDbPolyline
 90
2
 70
0
 10
5.459112
 20
5.886733
 30
0.0
 10
5.459112
 20
5.793810
 30
0.0
  0
LWPOLYLINE
  5
15b
100
AcDbEntity
  8
cut
 62
1
100
AcDbPolyline
 90
2
 70
0
 10
5.459112
 20
5.700842
 30
0.0
 10
5.459112
 20
5.607865
 30
0.0
  0
LWPOLYLINE
  5
15c
100
AcDbEntity
  8
cut
 62
1
100
AcDbPolyline
 90
2
 70
0
 10
5.459112
 20
5.514947
 30
0.0
 10
5.459112
 20
5.421985
 30
0.0
  0
LWPOLYLINE
  5
15d
100
AcDbEntity
  8
cut
 62
1
100
AcDbPolyline
 90
2
 70
0
 10
5.459112
 20
5.329017
 30
0.0
 10
5.459112
 20
5.236063
 30
0.0
  0
LWPOLYLINE
  5
15e
100
AcDbEntity
  8
cut
 62
1
100
AcDbPolyline
 90
2
 70
0
 10
5.459112
 20
5.143098
 30
0.0
 10
5.459112
 20
5.050156
 30
0.0
  0
LWPOLYLINE
  5
15f
100
AcDbEntity
  8
cut
 62
1
100
AcDbPolyline
 90
2
 70
0
 10
5.459112
 20
4.957215
 30
0.0
 10
5.459112
 20
4.864253
 30
0.0
  0
LWPOLYLINE
  5
160
100
AcDbEntity
  8
cut
 62
1
100
AcDbPolyline
 90
2
 70
0
 10
5.459112
 20
4.771315
 30
0.0
 10
5.459112
 20
4.678373
 30
0.0
  0
LWPOLYLINE
  5
161
100
AcDbEntity
  8
cut
 62
1
100
AcDbPolyline
 90
2
 70
0
 10
5.459112
 20
4.585428
 30
0.0
 10
5.459112
 20
4.492455
 30
0.0
  0
LWPOLYLINE
  5
162
100
AcDbEntity
  8
cut
 62
1
100
AcDbPolyline
 90
2
 70
0
 10
5.459112
 20
4.399497
 30
0.0
 10
5.459112
 20
4.306575
 30
0.0
  0
LWPOLYLINE
  5
163
100
AcDbEntity
  8
cut
 62
1
100
AcDbPolyline
 90
2
 70
0
 10
5.459112
 20
4.213617
 30
0.0
 10
5.459112
 20
4.120671
 30
0.0
  0
LWPOLYLINE
  5
164
100
AcDbEntity
  8
cut
 62
1
100
AcDbPolyline
 90
2
 70
0
 10
5.459112
 20
4.027737
 30
0.0
 10
5.459112
 20
3.934765
 30
0.0
  0
LWPOLYLINE
  5
165
100
AcDbEntity
  8
cut
 62
1
100
AcDbPolyline
 90
2
 70
0
 10
7.462210
 20
6.461582
 30
0.0
 10
7.568088
 20
6.461582
 30
0.0
  0
LWPOLYLINE
  5
166
100
AcDbEntity
  8
cut
 62
1
100
AcDbPolyline
 90
2
 70
0
 10
7.673948
 20
6.461582
 30
0.0
 10
7.779778
 20
6.461582
 30
0.0
  0
LWPOLYLINE
  5
167
100
AcDbEntity
  8
cut
 62
1
100
AcDbPolyline
 90
2
 70
0
 10
7.885673
 20
6.461582
 30
0.0
 10
7.991511
 20
6.461582
 30
0.0
  0
LWPOLYLINE
  5
168
100
AcDbEntity
  8
cut
 62
1
100
AcDbPolyline
 90
2
 70
0
 10
8.097324
 20
6.461582
 30
0.0
 10
8.203148
 20
6.461582
 30
0.0
  0
LWPOLYLINE
  5
169
100
AcDbEntity
  8
cut
 62
1
100
AcDbPolyline
 90
2
 70
0
 10
8.309026
 20
6.461582
 30
0.0
 10
8.414913
 20
6.461582
 30
0.0
  0
LWPOLYLINE
  5
16a
100
AcDbEntity
  8
cut
 62
1
100
AcDbPolyline
 90
2
 70
0
 10
8.520733
 20
6.461582
 30
0.0
 10
8.626602
 20
6.461582
 30
0.0
  0
LWPOLYLINE
  5
16b
100
AcDbEntity
  8
cut
 62
1
100
AcDbPolyline
 90
2
 70
0
 10
8.732480
 20
6.461582
 30
0.0
 10
8.838341
 20
6.461582
 30
0.0
  0
LWPOLYLINE
  5
16c
100
AcDbEntity
  8
cut
 62
1
100
AcDbPolyline
 90
2
 70
0
 10
8.944215
 20
6.461582
 30
0.0
 10
9.050061
 20
6.461582
 30
0.0
  0
LWPOLYLINE
  5
16d
100
AcDbEntity
  8
cut
 62
1
100
AcDbPolyline
 90
2
 70
0
 10
9.155908
 20
6.461582
 30
0.0
 10
9.261778
 20
6.461582
 30
0.0
  0
LWPOLYLINE
  5
16e
100
AcDbEntity
  8
cut
 62
1
100
AcDbPolyline
 90
2
 70
0
 10
9.367620
 20
6.461582
 30
0.0
 10
9.473467
 20
6.461582
 30
0.0
  0
LWPOLYLINE
  5
16f
100
AcDbEntity
  8
cut
 62
1
100
AcDbPolyline
 90
2
 70
0
 10
9.579319
 20
6.461582
 30
0.0
 10
9.685201
 20
6.461582
 30
0.0
  0
LWPOLYLINE
  5
170
100
AcDbEntity
  8
cut
 62
1
100
AcDbPolyline
 90
2
 70
0
 10
9.791066
 20
6.461582
 30
0.0
 10
9.896891
 20
6.461582
 30
0.0
  0
LWPOLYLINE
  5
171
100
AcDbEntity
  8
cut
 62
1
100
AcDbPolyline
 90
2
 70
0
 10
10.002756
 20
6.461582
 30
0.0
 10
10.108607
 20
6.461582
 30
0.0
  0
LWPOLYLINE
  5
172
100
AcDbEntity
  8
cut
 62
1
100
AcDbPolyline
 90
2
 70
0
 10
10.214446
 20
6.461582
 30
0.0
 10
10.320328
 20
6.461582
 30
0.0
  0
LWPOLYLINE
  5
173
100
AcDbEntity
  8
cut
 62
7
100
AcDbPolyline
 90
2
 70
0
 10
2.476027
 20
7.822699
 30
0.0
 10
2.483533
 20
6.478397
 30
0.0
  0
LWPOLYLINE
  5
174
100
AcDbEntity
  8
cut
 62
7
100
AcDbPolyline
 90
2
 70
0
 10
5.456822
 20
7.812707
 30
0.0
 10
5.453129
 20
6.478397
 30
0.0
  0
LWPOLYLINE
  5
175
100
AcDbEntity
  8
cut
 62
7
100
AcDbPolyline
 90
3
 70
0
 10
4.272454
 20
8.248253
 30
0.0
 10
5.226186
 20
8.248253
 30
0.0
 10
5.456592
 20
7.813116
 30
0.0
  0
SPLINE
  5
176
100
AcDbEntity
  8
cut
 62
1
100
AcDbSpline
 70
0
 71
3
 72
10
 73
6
 74
4
 40
0.000000
 40
0.000000
 40
0.000000
 40
0.000000
 40
0.011346
 40
0.043720
 40
0.094630
 40
0.094630
 40
0.094630
 40
0.094630
 10
0.515655
 20
6.479338
 30
0.0
 10
0.515664
 20
6.475556
 30
0.0
 10
0.515698
 20
6.460982
 30
0.0
 10
0.515772
 20
6.429439
 30
0.0
 10
0.515836
 20
6.401678
 30
0.0
 10
0.515875
 20
6.384708
 30
0.0
 11
0.515655
 21
6.479338
 31
0.0
 11
0.515682
 21
6.467992
 31
0.0
 11
0.515757
 21
6.435618
 31
0.0
 11
0.515875
 21
6.384708
 31
0.0
  0
SPLINE
  5
177
100
AcDbEntity
  8
cut
 62
1
100
AcDbSpline
 70
0
 71
3
 72
10
 73
6
 74
4
 40
0.000000
 40
0.000000
 40
0.000000
 40
0.000000
 40
0.043934
 40
0.071612
 40
0.081237
 40
0.081237
 40
0.081237
 40
0.081237
 10
3.919094
 20
7.809616
 30
0.0
 10
3.904449
 20
7.809587
 30
0.0
 10
3.880579
 20
7.809539
 30
0.0
 10
3.853500
 20
7.809486
 30
0.0
 10
3.841065
 20
7.809461
 30
0.0
 10
3.837857
 20
7.809455
 30
0.0
 11
3.919094
 21
7.809616
 31
0.0
 11
3.875160
 21
7.809529
 31
0.0
 11
3.847482
 21
7.809474
 31
0.0
 11
3.837857
 21
7.809455
 31
0.0
  0
SPLINE
  5
178
100
AcDbEntity
  8
cut
 62
1
100
AcDbSpline
 70
0
 71
3
 72
10
 73
6
 74
4
 40
0.000000
 40
0.000000
 40
0.000000
 40
0.000000
 40
0.038657
 40
0.075329
 40
0.109851
 40
0.109851
 40
0.109851
 40
0.109851
 10
4.138736
 20
7.810057
 30
0.0
 10
4.125850
 20
7.810031
 30
0.0
 10
4.100741
 20
7.809981
 30
0.0
 10
4.064123
 20
7.809907
 30
0.0
 10
4.040392
 20
7.809860
 30
0.0
 10
4.028885
 20
7.809837
 30
0.0
 11
4.138736
 21
7.810057
 31
0.0
 11
4.100079
 21
7.809980
 31
0.0
 11
4.063407
 21
7.809906
 31
0.0
 11
4.028885
 21
7.809837
 31
0.0
  0
SPLINE
  5
179
100
AcDbEntity
  8
cut
 62
1
100
AcDbSpline
 70
0
 71
3
 72
10
 73
6
 74
4
 40
0.000000
 40
0.000000
 40
0.000000
 40
0.000000
 40
0.037377
 40
0.074027
 40
0.109859
 40
0.109859
 40
0.109859
 40
0.109859
 10
4.358450
 20
7.810498
 30
0.0
 10
4.345991
 20
7.810473
 30
0.0
 10
4.321315
 20
7.810424
 30
0.0
 10
4.284695
 20
7.810350
 30
0.0
 10
4.260535
 20
7.810301
 30
0.0
 10
4.248591
 20
7.810277
 30
0.0
 11
4.358450
 21
7.810498
 31
0.0
 11
4.321072
 21
7.810423
 31
0.0
 11
4.284423
 21
7.810350
 31
0.0
 11
4.248591
 21
7.810277
 31
0.0
  0
SPLINE
  5
17a
100
AcDbEntity
  8
cut
 62
1
100
AcDbSpline
 70
0
 71
3
 72
10
 73
6
 74
4
 40
0.000000
 40
0.000000
 40
0.000000
 40
0.000000
 40
0.036843
 40
0.073489
 40
0.109869
 40
0.109869
 40
0.109869
 40
0.109869
 10
4.578201
 20
7.810943
 30
0.0
 10
4.565920
 20
7.810918
 30
0.0
 10
4.541424
 20
7.810868
 30
0.0
 10
4.504801
 20
7.810794
 30
0.0
 10
4.480459
 20
7.810743
 30
0.0
 10
4.468332
 20
7.810718
 30
0.0
 11
4.578201
 21
7.810943
 31
0.0
 11
4.541359
 21
7.810868
 31
0.0
 11
4.504712
 21
7.810793
 31
0.0
 11
4.468332
 21
7.810718
 31
0.0
  0
SPLINE
  5
17b
100
AcDbEntity
  8
cut
 62
1
100
AcDbSpline
 70
0
 71
3
 72
10
 73
6
 74
4
 40
0.000000
 40
0.000000
 40
0.000000
 40
0.000000
 40
0.036423
 40
0.073056
 40
0.109833
 40
0.109833
 40
0.109833
 40
0.109833
 10
4.797856
 20
7.811384
 30
0.0
 10
4.785715
 20
7.811359
 30
0.0
 10
4.761363
 20
7.811309
 30
0.0
 10
4.724753
 20
7.811235
 30
0.0
 10
4.700283
 20
7.811187
 30
0.0
 10
4.688024
 20
7.811163
 30
0.0
 11
4.797856
 21
7.811384
 31
0.0
 11
4.761433
 21
7.811309
 31
0.0
 11
4.724800
 21
7.811235
 31
0.0
 11
4.688024
 21
7.811163
 31
0.0
  0
SPLINE
  5
17c
100
AcDbEntity
  8
cut
 62
1
100
AcDbSpline
 70
0
 71
3
 72
10
 73
6
 74
4
 40
0.000000
 40
0.000000
 40
0.000000
 40
0.000000
 40
0.035916
 40
0.072555
 40
0.109836
 40
0.109836
 40
0.109836
 40
0.109836
 10
5.017561
 20
7.811825
 30
0.0
 10
5.005589
 20
7.811801
 30
0.0
 10
4.981404
 20
7.811752
 30
0.0
 10
4.944792
 20
7.811678
 30
0.0
 10
4.920152
 20
7.811629
 30
0.0
 10
4.907725
 20
7.811604
 30
0.0
 11
5.017561
 21
7.811825
 31
0.0
 11
4.981645
 21
7.811753
 31
0.0
 11
4.945006
 21
7.811679
 31
0.0
 11
4.907725
 21
7.811604
 31
0.0
  0
SPLINE
  5
17d
100
AcDbEntity
  8
cut
 62
1
100
AcDbSpline
 70
0
 71
3
 72
10
 73
6
 74
4
 40
0.000000
 40
0.000000
 40
0.000000
 40
0.000000
 40
0.034790
 40
0.071437
 40
0.109796
 40
0.109796
 40
0.109796
 40
0.109796
 10
5.237180
 20
7.812266
 30
0.0
 10
5.225584
 20
7.812243
 30
0.0
 10
5.201771
 20
7.812195
 30
0.0
 10
5.165173
 20
7.812121
 30
0.0
 10
5.140171
 20
7.812071
 30
0.0
 10
5.127385
 20
7.812045
 30
0.0
 11
5.237180
 21
7.812266
 31
0.0
 11
5.202390
 21
7.812196
 31
0.0
 11
5.165743
 21
7.812122
 31
0.0
 11
5.127385
 21
7.812045
 31
0.0
  0
LWPOLYLINE
  5
17e
100
AcDbEntity
  8
cut
 62
7
100
AcDbPolyline
 90
3
 70
0
 10
2.476027
 20
7.813116
 30
0.0
 10
2.789770
 20
8.248253
 30
0.0
 10
3.930548
 20
8.248253
 30
0.0
  0
LWPOLYLINE
  5
17f
100
AcDbEntity
  8
cut
 62
1
100
AcDbPolyline
 90
2
 70
0
 10
3.837859
 20
7.809454
 30
0.0
 10
2.476027
 20
7.813116
 30
0.0
  0
LWPOLYLINE
  5
180
100
AcDbEntity
  8
cut
 62
7
100
AcDbPolyline
 90
2
 70
0
 10
2.483534
 20
3.912796
 30
0.0
 10
3.869744
 20
3.912796
 30
0.0
  0
LWPOLYLINE
  5
181
100
AcDbEntity
  8
cut
 62
7
100
AcDbPolyline
 90
2
 70
0
 10
5.453127
 20
3.912796
 30
0.0
 10
4.024722
 20
3.912796
 30
0.0
  0
LWPOLYLINE
  5
182
100
AcDbEntity
  8
cut
 62
7
100
AcDbPolyline
 90
3
 70
0
 10
10.391336
 20
6.472479
 30
0.0
 10
10.827925
 20
6.202968
 30
0.0
 10
10.827925
 20
5.648570
 30
0.0
  0
LWPOLYLINE
  5
183
100
AcDbEntity
  8
cut
 62
7
100
AcDbPolyline
 90
2
 70
0
 10
10.386357
 20
5.302976
 30
0.0
 10
10.391009
 20
6.473154
 30
0.0
  0
LWPOLYLINE
  5
184
100
AcDbEntity
  8
cut
 62
7
100
AcDbPolyline
 90
3
 70
0
 10
8.545236
 20
8.253312
 30
0.0
 10
10.160033
 20
8.253312
 30
0.0
 10
10.389751
 20
7.817716
 30
0.0
  0
LWPOLYLINE
  5
185
100
AcDbEntity
  8
cut
 62
7
100
AcDbPolyline
 90
3
 70
0
 10
7.418067
 20
7.817716
 30
0.0
 10
7.730876
 20
8.253312
 30
0.0
 10
8.374339
 20
8.253312
 30
0.0
  0
SPLINE
  5
186
100
AcDbEntity
  8
cut
 62
1
100
AcDbSpline
 70
0
 71
3
 72
10
 73
6
 74
4
 40
0.000000
 40
0.000000
 40
0.000000
 40
0.000000
 40
0.013170
 40
0.050750
 40
0.109846
 40
0.109846
 40
0.109846
 40
0.109846
 10
5.456822
 20
7.812707
 30
0.0
 10
5.452432
 20
7.812698
 30
0.0
 10
5.435515
 20
7.812664
 30
0.0
 10
5.398900
 20
7.812590
 30
0.0
 10
5.366675
 20
7.812526
 30
0.0
 10
5.346976
 20
7.812486
 30
0.0
 11
5.456822
 21
7.812707
 31
0.0
 11
5.443652
 21
7.812680
 31
0.0
 11
5.406072
 21
7.812605
 31
0.0
 11
5.346976
 21
7.812486
 31
0.0
  0
SPLINE
  5
187
100
AcDbEntity
  8
cut
 62
1
100
AcDbSpline
 70
0
 71
3
 72
10
 73
6
 74
4
 40
0.000000
 40
0.000000
 40
0.000000
 40
0.000000
 40
0.011535
 40
0.044563
 40
0.096719
 40
0.096719
 40
0.096719
 40
0.096719
 10
8.775456
 20
7.812746
 30
0.0
 10
8.779301
 20
7.812759
 30
0.0
 10
8.794155
 20
7.812806
 30
0.0
 10
8.826394
 20
7.812901
 30
0.0
 10
8.854789
 20
7.812976
 30
0.0
 10
8.872174
 20
7.813022
 30
0.0
 11
8.775456
 21
7.812746
 31
0.0
 11
8.786991
 21
7.812783
 31
0.0
 11
8.820019
 21
7.812881
 31
0.0
 11
8.872174
 21
7.813022
 31
0.0
  0
SPLINE
  5
188
100
AcDbEntity
  8
cut
 62
1
100
AcDbSpline
 70
0
 71
3
 72
10
 73
6
 74
4
 40
0.000000
 40
0.000000
 40
0.000000
 40
0.000000
 40
0.030592
 40
0.062873
 40
0.096728
 40
0.096728
 40
0.096728
 40
0.096728
 10
8.968933
 20
7.813298
 30
0.0
 10
8.979130
 20
7.813327
 30
0.0
 10
9.000088
 20
7.813387
 30
0.0
 10
9.032330
 20
7.813490
 30
0.0
 10
9.054375
 20
7.813545
 30
0.0
 10
9.065660
 20
7.813573
 30
0.0
 11
8.968933
 21
7.813298
 31
0.0
 11
8.999525
 21
7.813387
 31
0.0
 11
9.031805
 21
7.813484
 31
0.0
 11
9.065660
 21
7.813573
 31
0.0
  0
SPLINE
  5
189
100
AcDbEntity
  8
cut
 62
1
100
AcDbSpline
 70
0
 71
3
 72
10
 73
6
 74
4
 40
0.000000
 40
0.000000
 40
0.000000
 40
0.000000
 40
0.031551
 40
0.063814
 40
0.096723
 40
0.096723
 40
0.096723
 40
0.096723
 10
9.162387
 20
7.813849
 30
0.0
 10
9.172904
 20
7.813886
 30
0.0
 10
9.194175
 20
7.813961
 30
0.0
 10
9.226416
 20
7.814046
 30
0.0
 10
9.248140
 20
7.814098
 30
0.0
 10
9.259110
 20
7.814124
 30
0.0
 11
9.162387
 21
7.813849
 31
0.0
 11
9.193938
 21
7.813955
 31
0.0
 11
9.226201
 21
7.814044
 31
0.0
 11
9.259110
 21
7.814124
 31
0.0
  0
SPLINE
  5
18a
100
AcDbEntity
  8
cut
 62
1
100
AcDbSpline
 70
0
 71
3
 72
10
 73
6
 74
4
 40
0.000000
 40
0.000000
 40
0.000000
 40
0.000000
 40
0.031962
 40
0.064215
 40
0.096710
 40
0.096710
 40
0.096710
 40
0.096710
 10
9.355851
 20
7.814400
 30
0.0
 10
9.366505
 20
7.814437
 30
0.0
 10
9.387910
 20
7.814511
 30
0.0
 10
9.420146
 20
7.814605
 30
0.0
 10
9.441729
 20
7.814678
 30
0.0
 10
9.452560
 20
7.814715
 30
0.0
 11
9.355851
 21
7.814400
 31
0.0
 11
9.387813
 21
7.814508
 31
0.0
 11
9.420065
 21
7.814607
 31
0.0
 11
9.452560
 21
7.814715
 31
0.0
  0
SPLINE
  5
18b
100
AcDbEntity
  8
cut
 62
1
100
AcDbSpline
 70
0
 71
3
 72
10
 73
6
 74
4
 40
0.000000
 40
0.000000
 40
0.000000
 40
0.000000
 40
0.032262
 40
0.064526
 40
0.096746
 40
0.096746
 40
0.096746
 40
0.096746
 10
9.549306
 20
7.814991
 30
0.0
 10
9.560060
 20
7.815017
 30
0.0
 10
9.581568
 20
7.815070
 30
0.0
 10
9.613817
 20
7.815156
 30
0.0
 10
9.635311
 20
7.815229
 30
0.0
 10
9.646051
 20
7.815266
 30
0.0
 11
9.549306
 21
7.814991
 31
0.0
 11
9.581568
 21
7.815071
 31
0.0
 11
9.613831
 21
7.815160
 31
0.0
 11
9.646051
 21
7.815266
 31
0.0
  0
SPLINE
  5
18c
100
AcDbEntity
  8
cut
 62
1
100
AcDbSpline
 70
0
 71
3
 72
10
 73
6
 74
4
 40
0.000000
 40
0.000000
 40
0.000000
 40
0.000000
 40
0.032546
 40
0.064799
 40
0.096709
 40
0.096709
 40
0.096709
 40
0.096709
 10
9.742719
 20
7.815542
 30
0.0
 10
9.753568
 20
7.815570
 30
0.0
 10
9.775168
 20
7.815627
 30
0.0
 10
9.807404
 20
7.815731
 30
0.0
 10
9.828792
 20
7.815789
 30
0.0
 10
9.839428
 20
7.815817
 30
0.0
 11
9.742719
 21
7.815542
 31
0.0
 11
9.775266
 21
7.815631
 31
0.0
 11
9.807518
 21
7.815728
 31
0.0
 11
9.839428
 21
7.815817
 31
0.0
  0
SPLINE
  5
18d
100
AcDbEntity
  8
cut
 62
1
100
AcDbSpline
 70
0
 71
3
 72
10
 73
6
 74
4
 40
0.000000
 40
0.000000
 40
0.000000
 40
0.000000
 40
0.032991
 40
0.065249
 40
0.096705
 40
0.096705
 40
0.096705
 40
0.096705
 10
9.936128
 20
7.816093
 30
0.0
 10
9.947125
 20
7.816121
 30
0.0
 10
9.968874
 20
7.816178
 30
0.0
 10
10.001109
 20
7.816281
 30
0.0
 10
10.022347
 20
7.816340
 30
0.0
 10
10.032832
 20
7.816369
 30
0.0
 11
9.936128
 21
7.816093
 31
0.0
 11
9.969119
 21
7.816182
 31
0.0
 11
10.001377
 21
7.816280
 31
0.0
 11
10.032832
 21
7.816369
 31
0.0
  0
SPLINE
  5
18e
100
AcDbEntity
  8
cut
 62
1
100
AcDbSpline
 70
0
 71
3
 72
10
 73
6
 74
4
 40
0.000000
 40
0.000000
 40
0.000000
 40
0.000000
 40
0.034114
 40
0.066369
 40
0.096645
 40
0.096645
 40
0.096645
 40
0.096645
 10
10.129596
 20
7.816644
 30
0.0
 10
10.140968
 20
7.816681
 30
0.0
 10
10.163091
 20
7.816752
 30
0.0
 10
10.195305
 20
7.816838
 30
0.0
 10
10.216149
 20
7.816893
 30
0.0
 10
10.226241
 20
7.816920
 30
0.0
 11
10.129596
 21
7.816644
 31
0.0
 11
10.163710
 21
7.816751
 31
0.0
 11
10.195965
 21
7.816840
 31
0.0
 11
10.226241
 21
7.816920
 31
0.0
  0
LWPOLYLINE
  5
18f
100
AcDbEntity
  8
cut
 62
7
100
AcDbPolyline
 90
2
 70
0
 10
8.775454
 20
7.812748
 30
0.0
 10
7.417283
 20
7.817389
 30
0.0
  0
LWPOLYLINE
  5
190
100
AcDbEntity
  8
cut
 62
7
100
AcDbPolyline
 90
2
 70
0
 10
7.418067
 20
7.817716
 30
0.0
 10
7.421433
 20
6.477046
 30
0.0
  0
LWPOLYLINE
  5
191
100
AcDbEntity
  8
cut
 62
7
100
AcDbPolyline
 90
2
 70
0
 10
10.390561
 20
7.817392
 30
0.0
 10
10.391336
 20
6.472479
 30
0.0
  0
LWPOLYLINE
  5
192
100
AcDbEntity
  8
cut
 62
7
100
AcDbPolyline
 90
2
 70
0
 10
10.827925
 20
5.648570
 30
0.0
 10
10.827925
 20
5.551102
 30
0.0
  0
LWPOLYLINE
  5
193
100
AcDbEntity
  8
cut
 62
7
100
AcDbPolyline
 90
2
 70
0
 10
0.080001
 20
5.459334
 30
0.0
 10
0.080001
 20
5.293425
 30
0.0
  0
LWPOLYLINE
  5
194
100
AcDbEntity
  8
cut
 62
7
100
AcDbPolyline
 90
2
 70
0
 10
3.930548
 20
8.248253
 30
0.0
 10
4.126404
 20
8.248253
 30
0.0
  0
LWPOLYLINE
  5
195
100
AcDbEntity
  8
cut
 62
7
100
AcDbPolyline
 90
4
 70
0
 10
7.670270
 20
5.128747
 30
0.0
 10
8.750176
 20
5.128747
 30
0.0
 10
8.750176
 20
4.444643
 30
0.0
 10
7.670270
 20
4.444643
 30
0.0
  0
SPLINE
  5
196
100
AcDbEntity
  8
cut
 62
1
100
AcDbSpline
 70
0
 71
3
 72
10
 73
6
 74
4
 40
0.000000
 40
0.000000
 40
0.000000
 40
0.000000
 40
0.036621
 40
0.059583
 40
0.067538
 40
0.067538
 40
0.067538
 40
0.067538
 10
10.323023
 20
7.817195
 30
0.0
 10
10.335230
 20
7.817229
 30
0.0
 10
10.355091
 20
7.817285
 30
0.0
 10
10.377604
 20
7.817352
 30
0.0
 10
10.387909
 20
7.817384
 30
0.0
 10
10.390561
 20
7.817392
 30
0.0
 11
10.323023
 21
7.817195
 31
0.0
 11
10.359644
 21
7.817299
 31
0.0
 11
10.382606
 21
7.817367
 31
0.0
 11
10.390561
 21
7.817392
 31
0.0
  0
SPLINE
  5
197
100
AcDbEntity
  8
cut
 62
1
100
AcDbSpline
 70
0
 71
3
 72
10
 73
6
 74
4
 40
0.000000
 40
0.000000
 40
0.000000
 40
0.000000
 40
0.004760
 40
0.018389
 40
0.039912
 40
0.039912
 40
0.039912
 40
0.039912
 10
7.667992
 20
5.111299
 30
0.0
 10
7.668004
 20
5.109713
 30
0.0
 10
7.668052
 20
5.103583
 30
0.0
 10
7.668146
 20
5.090280
 30
0.0
 10
7.668222
 20
5.078563
 30
0.0
 10
7.668268
 20
5.071389
 30
0.0
 11
7.667992
 21
5.111299
 31
0.0
 11
7.668029
 21
5.106539
 31
0.0
 11
7.668126
 21
5.092910
 31
0.0
 11
7.668268
 21
5.071389
 31
0.0
  0
SPLINE
  5
198
100
AcDbEntity
  8
cut
 62
1
100
AcDbSpline
 70
0
 71
3
 72
10
 73
6
 74
4
 40
0.000000
 40
0.000000
 40
0.000000
 40
0.000000
 40
0.012624
 40
0.025945
 40
0.039915
 40
0.039915
 40
0.039915
 40
0.039915
 10
7.668543
 20
5.031461
 30
0.0
 10
7.668572
 20
5.027253
 30
0.0
 10
7.668632
 20
5.018605
 30
0.0
 10
7.668735
 20
5.005300
 30
0.0
 10
7.668791
 20
4.996203
 30
0.0
 10
7.668819
 20
4.991546
 30
0.0
 11
7.668543
 21
5.031461
 31
0.0
 11
7.668632
 21
5.018837
 31
0.0
 11
7.668730
 21
5.005517
 31
0.0
 11
7.668819
 21
4.991546
 31
0.0
  0
SPLINE
  5
199
100
AcDbEntity
  8
cut
 62
1
100
AcDbSpline
 70
0
 71
3
 72
10
 73
6
 74
4
 40
0.000000
 40
0.000000
 40
0.000000
 40
0.000000
 40
0.013020
 40
0.026333
 40
0.039914
 40
0.039914
 40
0.039914
 40
0.039914
 10
7.669094
 20
4.951632
 30
0.0
 10
7.669131
 20
4.947292
 30
0.0
 10
7.669206
 20
4.938515
 30
0.0
 10
7.669292
 20
4.925210
 30
0.0
 10
7.669344
 20
4.916246
 30
0.0
 10
7.669370
 20
4.911719
 30
0.0
 11
7.669094
 21
4.951632
 31
0.0
 11
7.669201
 21
4.938613
 31
0.0
 11
7.669290
 21
4.925299
 31
0.0
 11
7.669370
 21
4.911719
 31
0.0
  0
SPLINE
  5
19a
100
AcDbEntity
  8
cut
 62
1
100
AcDbSpline
 70
0
 71
3
 72
10
 73
6
 74
4
 40
0.000000
 40
0.000000
 40
0.000000
 40
0.000000
 40
0.013189
 40
0.026499
 40
0.039908
 40
0.039908
 40
0.039908
 40
0.039908
 10
7.669646
 20
4.871799
 30
0.0
 10
7.669683
 20
4.867403
 30
0.0
 10
7.669757
 20
4.858570
 30
0.0
 10
7.669850
 20
4.845268
 30
0.0
 10
7.669924
 20
4.836362
 30
0.0
 10
7.669961
 20
4.831892
 30
0.0
 11
7.669646
 21
4.871799
 31
0.0
 11
7.669754
 21
4.858610
 31
0.0
 11
7.669853
 21
4.845301
 31
0.0
 11
7.669961
 21
4.831892
 31
0.0
  0
SPLINE
  5
19b
100
AcDbEntity
  8
cut
 62
1
100
AcDbSpline
 70
0
 71
3
 72
10
 73
6
 74
4
 40
0.000000
 40
0.000000
 40
0.000000
 40
0.000000
 40
0.013313
 40
0.026627
 40
0.039923
 40
0.039923
 40
0.039923
 40
0.039923
 10
7.670236
 20
4.791970
 30
0.0
 10
7.670263
 20
4.787533
 30
0.0
 10
7.670315
 20
4.778657
 30
0.0
 10
7.670401
 20
4.765350
 30
0.0
 10
7.670475
 20
4.756480
 30
0.0
 10
7.670512
 20
4.752048
 30
0.0
 11
7.670236
 21
4.791970
 31
0.0
 11
7.670316
 21
4.778657
 31
0.0
 11
7.670405
 21
4.765344
 31
0.0
 11
7.670512
 21
4.752048
 31
0.0
  0
SPLINE
  5
19c
100
AcDbEntity
  8
cut
 62
1
100
AcDbSpline
 70
0
 71
3
 72
10
 73
6
 74
4
 40
0.000000
 40
0.000000
 40
0.000000
 40
0.000000
 40
0.013431
 40
0.026740
 40
0.039908
 40
0.039908
 40
0.039908
 40
0.039908
 10
7.670787
 20
4.712158
 30
0.0
 10
7.670816
 20
4.707681
 30
0.0
 10
7.670873
 20
4.698768
 30
0.0
 10
7.670976
 20
4.685466
 30
0.0
 10
7.671034
 20
4.676640
 30
0.0
 10
7.671063
 20
4.672251
 30
0.0
 11
7.670787
 21
4.712158
 31
0.0
 11
7.670876
 21
4.698728
 31
0.0
 11
7.670974
 21
4.685419
 31
0.0
 11
7.671063
 21
4.672251
 31
0.0
  0
SPLINE
  5
19d
100
AcDbEntity
  8
cut
 62
1
100
AcDbSpline
 70
0
 71
3
 72
10
 73
6
 74
4
 40
0.000000
 40
0.000000
 40
0.000000
 40
0.000000
 40
0.013614
 40
0.026926
 40
0.039906
 40
0.039906
 40
0.039906
 40
0.039906
 10
7.671339
 20
4.632348
 30
0.0
 10
7.671367
 20
4.627810
 30
0.0
 10
7.671423
 20
4.618835
 30
0.0
 10
7.671527
 20
4.605533
 30
0.0
 10
7.671585
 20
4.596770
 30
0.0
 10
7.671614
 20
4.592443
 30
0.0
 11
7.671339
 21
4.632348
 31
0.0
 11
7.671428
 21
4.618734
 31
0.0
 11
7.671525
 21
4.605423
 31
0.0
 11
7.671614
 21
4.592443
 31
0.0
  0
SPLINE
  5
19e
100
AcDbEntity
  8
cut
 62
1
100
AcDbSpline
 70
0
 71
3
 72
10
 73
6
 74
4
 40
0.000000
 40
0.000000
 40
0.000000
 40
0.000000
 40
0.014077
 40
0.027388
 40
0.039882
 40
0.039882
 40
0.039882
 40
0.039882
 10
7.671890
 20
4.552513
 30
0.0
 10
7.671926
 20
4.547821
 30
0.0
 10
7.671997
 20
4.538692
 30
0.0
 10
7.672084
 20
4.525398
 30
0.0
 10
7.672139
 20
4.516797
 30
0.0
 10
7.672165
 20
4.512633
 30
0.0
 11
7.671890
 21
4.552513
 31
0.0
 11
7.671996
 21
4.538436
 31
0.0
 11
7.672085
 21
4.525126
 31
0.0
 11
7.672165
 21
4.512633
 31
0.0
  0
SPLINE
  5
19f
100
AcDbEntity
  8
cut
 62
1
100
AcDbSpline
 70
0
 71
3
 72
10
 73
6
 74
4
 40
0.000000
 40
0.000000
 40
0.000000
 40
0.000000
 40
0.015112
 40
0.024588
 40
0.027870
 40
0.027870
 40
0.027870
 40
0.027870
 10
7.672441
 20
4.472696
 30
0.0
 10
7.672475
 20
4.467659
 30
0.0
 10
7.672530
 20
4.459463
 30
0.0
 10
7.672597
 20
4.450173
 30
0.0
 10
7.672629
 20
4.445920
 30
0.0
 10
7.672638
 20
4.444826
 30
0.0
 11
7.672441
 21
4.472696
 31
0.0
 11
7.672544
 21
4.457584
 31
0.0
 11
7.672613
 21
4.448109
 31
0.0
 11
7.672638
 21
4.444826
 31
0.0
  0
SPLINE
  5
1a0
100
AcDbEntity
  8
cut
 62
1
100
AcDbSpline
 70
0
 71
3
 72
10
 73
6
 74
4
 40
0.000000
 40
0.000000
 40
0.000000
 40
0.000000
 40
0.004760
 40
0.018389
 40
0.039912
 40
0.039912
 40
0.039912
 40
0.039912
 10
10.124144
 20
5.096931
 30
0.0
 10
10.124157
 20
5.095344
 30
0.0
 10
10.124204
 20
5.089214
 30
0.0
 10
10.124299
 20
5.075911
 30
0.0
 10
10.124374
 20
5.064194
 30
0.0
 10
10.124420
 20
5.057020
 30
0.0
 11
10.124144
 21
5.096931
 31
0.0
 11
10.124181
 21
5.092171
 31
0.0
 11
10.124279
 21
5.078542
 31
0.0
 11
10.124420
 21
5.057020
 31
0.0
  0
SPLINE
  5
1a1
100
AcDbEntity
  8
cut
 62
1
100
AcDbSpline
 70
0
 71
3
 72
10
 73
6
 74
4
 40
0.000000
 40
0.000000
 40
0.000000
 40
0.000000
 40
0.012624
 40
0.025945
 40
0.039915
 40
0.039915
 40
0.039915
 40
0.039915
 10
10.124696
 20
5.017092
 30
0.0
 10
10.124725
 20
5.012884
 30
0.0
 10
10.124785
 20
5.004236
 30
0.0
 10
10.124888
 20
4.990931
 30
0.0
 10
10.124943
 20
4.981834
 30
0.0
 10
10.124971
 20
4.977178
 30
0.0
 11
10.124696
 21
5.017092
 31
0.0
 11
10.124785
 21
5.004468
 31
0.0
 11
10.124882
 21
4.991148
 31
0.0
 11
10.124971
 21
4.977178
 31
0.0
  0
SPLINE
  5
1a2
100
AcDbEntity
  8
cut
 62
1
100
AcDbSpline
 70
0
 71
3
 72
10
 73
6
 74
4
 40
0.000000
 40
0.000000
 40
0.000000
 40
0.000000
 40
0.013020
 40
0.026333
 40
0.039914
 40
0.039914
 40
0.039914
 40
0.039914
 10
10.125247
 20
4.937263
 30
0.0
 10
10.125284
 20
4.932923
 30
0.0
 10
10.125359
 20
4.924146
 30
0.0
 10
10.125444
 20
4.910842
 30
0.0
 10
10.125496
 20
4.901877
 30
0.0
 10
10.125522
 20
4.897351
 30
0.0
 11
10.125247
 21
4.937263
 31
0.0
 11
10.125353
 21
4.924244
 31
0.0
 11
10.125442
 21
4.910931
 31
0.0
 11
10.125522
 21
4.897351
 31
0.0
  0
SPLINE
  5
1a3
100
AcDbEntity
  8
cut
 62
1
100
AcDbSpline
 70
0
 71
3
 72
10
 73
6
 74
4
 40
0.000000
 40
0.000000
 40
0.000000
 40
0.000000
 40
0.013189
 40
0.026499
 40
0.039908
 40
0.039908
 40
0.039908
 40
0.039908
 10
10.125798
 20
4.857430
 30
0.0
 10
10.125835
 20
4.853034
 30
0.0
 10
10.125909
 20
4.844201
 30
0.0
 10
10.126003
 20
4.830899
 30
0.0
 10
10.126076
 20
4.821993
 30
0.0
 10
10.126113
 20
4.817524
 30
0.0
 11
10.125798
 21
4.857430
 31
0.0
 11
10.125906
 21
4.844242
 31
0.0
 11
10.126005
 21
4.830932
 31
0.0
 11
10.126113
 21
4.817524
 31
0.0
  0
SPLINE
  5
1a4
100
AcDbEntity
  8
cut
 62
1
100
AcDbSpline
 70
0
 71
3
 72
10
 73
6
 74
4
 40
0.000000
 40
0.000000
 40
0.000000
 40
0.000000
 40
0.013313
 40
0.026627
 40
0.039923
 40
0.039923
 40
0.039923
 40
0.039923
 10
10.126389
 20
4.777601
 30
0.0
 10
10.126415
 20
4.773164
 30
0.0
 10
10.126468
 20
4.764288
 30
0.0
 10
10.126554
 20
4.750981
 30
0.0
 10
10.126627
 20
4.742111
 30
0.0
 10
10.126664
 20
4.737679
 30
0.0
 11
10.126389
 21
4.777601
 31
0.0
 11
10.126469
 21
4.764288
 31
0.0
 11
10.126558
 21
4.750975
 31
0.0
 11
10.126664
 21
4.737679
 31
0.0
  0
SPLINE
  5
1a5
100
AcDbEntity
  8
cut
 62
1
100
AcDbSpline
 70
0
 71
3
 72
10
 73
6
 74
4
 40
0.000000
 40
0.000000
 40
0.000000
 40
0.000000
 40
0.013431
 40
0.026740
 40
0.039908
 40
0.039908
 40
0.039908
 40
0.039908
 10
10.126940
 20
4.697789
 30
0.0
 10
10.126968
 20
4.693313
 30
0.0
 10
10.127025
 20
4.684399
 30
0.0
 10
10.127129
 20
4.671097
 30
0.0
 10
10.127187
 20
4.662272
 30
0.0
 10
10.127215
 20
4.657882
 30
0.0
 11
10.126940
 21
4.697789
 31
0.0
 11
10.127029
 21
4.684359
 31
0.0
 11
10.127126
 21
4.671050
 31
0.0
 11
10.127215
 21
4.657882
 31
0.0
  0
SPLINE
  5
1a6
100
AcDbEntity
  8
cut
 62
1
100
AcDbSpline
 70
0
 71
3
 72
10
 73
6
 74
4
 40
0.000000
 40
0.000000
 40
0.000000
 40
0.000000
 40
0.013614
 40
0.026926
 40
0.039906
 40
0.039906
 40
0.039906
 40
0.039906
 10
10.127491
 20
4.617979
 30
0.0
 10
10.127519
 20
4.613441
 30
0.0
 10
10.127576
 20
4.604466
 30
0.0
 10
10.127679
 20
4.591165
 30
0.0
 10
10.127738
 20
4.582401
 30
0.0
 10
10.127767
 20
4.578074
 30
0.0
 11
10.127491
 21
4.617979
 31
0.0
 11
10.127580
 21
4.604365
 31
0.0
 11
10.127678
 21
4.591054
 31
0.0
 11
10.127767
 21
4.578074
 31
0.0
  0
SPLINE
  5
1a7
100
AcDbEntity
  8
cut
 62
1
100
AcDbSpline
 70
0
 71
3
 72
10
 73
6
 74
4
 40
0.000000
 40
0.000000
 40
0.000000
 40
0.000000
 40
0.014077
 40
0.027388
 40
0.039882
 40
0.039882
 40
0.039882
 40
0.039882
 10
10.128042
 20
4.538144
 30
0.0
 10
10.128079
 20
4.533452
 30
0.0
 10
10.128150
 20
4.524323
 30
0.0
 10
10.128236
 20
4.511029
 30
0.0
 10
10.128291
 20
4.502428
 30
0.0
 10
10.128318
 20
4.498264
 30
0.0
 11
10.128042
 21
4.538144
 31
0.0
 11
10.128149
 21
4.524067
 31
0.0
 11
10.128238
 21
4.510757
 31
0.0
 11
10.128318
 21
4.498264
 31
0.0
  0
LWPOLYLINE
  5
1a8
100
AcDbEntity
  8
cut
 62
7
100
AcDbPolyline
 90
4
 70
0
 10
10.128790
 20
5.114562
 30
0.0
 10
9.048884
 20
5.114562
 30
0.0
 10
9.048884
 20
4.430457
 30
0.0
 10
10.128790
 20
4.430457
 30
0.0
  0
LWPOLYLINE
  5
1a9
100
AcDbEntity
  8
cut_barrel
 62
7
100
AcDbPolyline
 90
6
 70
0
 10
8.792373
 20
1.941296
 30
0.0
 10
7.861671
 20
1.941296
 30
0.0
 10
7.687872
 20
2.115095
 30
0.0
 10
7.687872
 20
2.892014
 30
0.0
 10
7.855341
 20
3.059484
 30
0.0
 10
8.814311
 20
3.059720
 30
0.0
  0
LWPOLYLINE
  5
1aa
100
AcDbEntity
  8
cut_barrel
 62
7
100
AcDbPolyline
 90
3
 70
0
 10
10.159343
 20
1.944950
 30
0.0
 10
10.159343
 20
1.941293
 30
0.0
 10
8.999396
 20
1.941293
 30
0.0
  0
LWPOLYLINE
  5
1ab
100
AcDbEntity
  8
cut_barrel
 62
7
100
AcDbPolyline
 90
4
 70
0
 10
9.007743
 20
3.059779
 30
0.0
 10
10.161352
 20
3.060054
 30
0.0
 10
10.161352
 20
3.060054
 30
0.0
 10
10.161352
 20
3.056936
 30
0.0
  0
LWPOLYLINE
  5
1ac
100
AcDbEntity
  8
cut_barrel
 62
7
100
AcDbPolyline
 90
2
 70
0
 10
7.862497
 20
2.519748
 30
0.0
 10
7.860273
 20
1.940567
 30
0.0
  0
SPLINE
  5
1ad
100
AcDbEntity
  8
cut
 62
1
100
AcDbSpline
 70
0
 71
3
 72
10
 73
6
 74
4
 40
0.000000
 40
0.000000
 40
0.000000
 40
0.000000
 40
0.015112
 40
0.024588
 40
0.027870
 40
0.027870
 40
0.027870
 40
0.027870
 10
10.128593
 20
4.458327
 30
0.0
 10
10.128627
 20
4.453290
 30
0.0
 10
10.128683
 20
4.445094
 30
0.0
 10
10.128750
 20
4.435804
 30
0.0
 10
10.128782
 20
4.431552
 30
0.0
 10
10.128790
 20
4.430457
 30
0.0
 11
10.128593
 21
4.458327
 31
0.0
 11
10.128697
 21
4.443215
 31
0.0
 11
10.128765
 21
4.433740
 31
0.0
 11
10.128790
 21
4.430457
 31
0.0
  0
LWPOLYLINE
  5
1ae
100
AcDbEntity
  8
cut_barrel
 62
7
100
AcDbPolyline
 90
2
 70
0
 10
10.166822
 20
3.053246
 30
0.0
 10
10.164594
 20
2.512771
 30
0.0
  0
SPLINE
  5
1af
100
AcDbEntity
  8
cut_barrel
 62
7
100
AcDbSpline
 70
0
 71
3
 72
13
 73
9
 74
7
 40
0.000000
 40
0.000000
 40
0.000000
 40
0.000000
 40
0.113193
 40
0.225118
 40
0.338310
 40
0.500177
 40
0.658520
 40
0.820387
 40
0.820387
 40
0.820387
 40
0.820387
 10
9.140970
 20
3.714074
 30
0.0
 10
9.169047
 20
3.688419
 30
0.0
 10
9.224885
 20
3.637397
 30
0.0
 10
9.274485
 20
3.533216
 30
0.0
 10
9.295051
 20
3.404147
 30
0.0
 10
9.262055
 20
3.259093
 30
0.0
 10
9.161744
 20
3.124124
 30
0.0
 10
9.061137
 20
3.083495
 30
0.0
 10
9.010280
 20
3.062956
 30
0.0
 11
9.140970
 21
3.714074
 31
0.0
 11
9.219427
 21
3.632482
 31
0.0
 11
9.269098
 21
3.532183
 31
0.0
 11
9.286442
 21
3.420327
 31
0.0
 11
9.250990
 21
3.262391
 31
0.0
 11
9.154169
 21
3.137098
 31
0.0
 11
9.010280
 21
3.062956
 31
0.0
  0
LWPOLYLINE
  5
1b0
100
AcDbEntity
  8
cut_barrel
 62
7
100
AcDbPolyline
 90
1
 70
1
 10
9.286442
 20
3.420327
 30
0.0
  0
LWPOLYLINE
  5
1b1
100
AcDbEntity
  8
cut_barrel
 62
7
100
AcDbPolyline
 90
2
 70
0
 10
10.162191
 20
3.058996
 30
0.0
 10
10.327431
 20
2.925397
 30
0.0
  0
LWPOLYLINE
  5
1b2
100
AcDbEntity
  8
cut_barrel
 62
7
100
AcDbPolyline
 90
3
 70
0
 10
10.156917
 20
1.940982
 30
0.0
 10
10.322158
 20
2.074581
 30
0.0
 10
10.322158
 20
2.932428
 30
0.0
  0
SPLINE
  5
1b3
100
AcDbEntity
  8
cut_barrel
 62
7
100
AcDbSpline
 70
0
 71
3
 72
13
 73
9
 74
7
 40
0.000000
 40
0.000000
 40
0.000000
 40
0.000000
 40
0.161315
 40
0.319141
 40
0.480456
 40
0.653200
 40
0.821722
 40
0.994465
 40
0.994465
 40
0.994465
 40
0.994465
 10
8.822375
 20
3.063378
 30
0.0
 10
8.771780
 20
3.084046
 30
0.0
 10
8.671684
 20
3.124934
 30
0.0
 10
8.572047
 20
3.259677
 30
0.0
 10
8.534698
 20
3.424116
 30
0.0
 10
8.575592
 20
3.592335
 30
0.0
 10
8.689447
 20
3.732278
 30
0.0
 10
8.800032
 20
3.766980
 30
0.0
 10
8.856008
 20
3.784545
 30
0.0
 11
8.822375
 21
3.063378
 31
0.0
 11
8.679254
 21
3.137802
 31
0.0
 11
8.583030
 21
3.262902
 31
0.0
 11
8.547819
 21
3.420327
 31
0.0
 11
8.588189
 21
3.588288
 31
0.0
 11
8.697045
 21
3.716934
 31
0.0
 11
8.856008
 21
3.784545
 31
0.0
  0
SPLINE
  5
1b4
100
AcDbEntity
  8
solar_cut
 62
1
100
AcDbSpline
 70
0
 71
3
 72
10
 73
6
 74
4
 40
0.000000
 40
0.000000
 40
0.000000
 40
0.000000
 40
0.032439
 40
0.052780
 40
0.059826
 40
0.059826
 40
0.059826
 40
0.059826
 10
8.527936
 20
1.534159
 30
0.0
 10
8.517123
 20
1.534125
 30
0.0
 10
8.499530
 20
1.534070
 30
0.0
 10
8.479588
 20
1.534003
 30
0.0
 10
8.470459
 20
1.533971
 30
0.0
 10
8.468110
 20
1.533962
 30
0.0
 11
8.527936
 21
1.534159
 31
0.0
 11
8.495497
 21
1.534056
 31
0.0
 11
8.475156
 21
1.533987
 31
0.0
 11
8.468110
 21
1.533962
 31
0.0
  0
SPLINE
  5
1b5
100
AcDbEntity
  8
solar_cut
 62
1
100
AcDbSpline
 70
0
 71
3
 72
10
 73
6
 74
4
 40
0.000000
 40
0.000000
 40
0.000000
 40
0.000000
 40
0.030219
 40
0.058792
 40
0.085611
 40
0.085611
 40
0.085611
 40
0.085611
 10
8.699278
 20
1.534710
 30
0.0
 10
8.689205
 20
1.534674
 30
0.0
 10
8.669608
 20
1.534603
 30
0.0
 10
8.641071
 20
1.534516
 30
0.0
 10
8.622607
 20
1.534461
 30
0.0
 10
8.613667
 20
1.534435
 30
0.0
 11
8.699278
 21
1.534710
 31
0.0
 11
8.669059
 21
1.534604
 31
0.0
 11
8.640486
 21
1.534515
 31
0.0
 11
8.613667
 21
1.534435
 31
0.0
  0
SPLINE
  5
1b6
100
AcDbEntity
  8
solar_cut
 62
1
100
AcDbSpline
 70
0
 71
3
 72
10
 73
6
 74
4
 40
0.000000
 40
0.000000
 40
0.000000
 40
0.000000
 40
0.029224
 40
0.057799
 40
0.085663
 40
0.085663
 40
0.085663
 40
0.085663
 10
8.870656
 20
1.535261
 30
0.0
 10
8.860915
 20
1.535233
 30
0.0
 10
8.841648
 20
1.535177
 30
0.0
 10
8.813094
 20
1.535073
 30
0.0
 10
8.794281
 20
1.535015
 30
0.0
 10
8.784993
 20
1.534986
 30
0.0
 11
8.870656
 21
1.535261
 31
0.0
 11
8.841432
 21
1.535172
 31
0.0
 11
8.812857
 21
1.535075
 31
0.0
 11
8.784993
 21
1.534986
 31
0.0
  0
SPLINE
  5
1b7
100
AcDbEntity
  8
solar_cut
 62
1
100
AcDbSpline
 70
0
 71
3
 72
10
 73
6
 74
4
 40
0.000000
 40
0.000000
 40
0.000000
 40
0.000000
 40
0.028830
 40
0.057400
 40
0.085667
 40
0.085667
 40
0.085667
 40
0.085667
 10
9.041981
 20
1.535813
 30
0.0
 10
9.032371
 20
1.535784
 30
0.0
 10
9.013237
 20
1.535727
 30
0.0
 10
8.984682
 20
1.535624
 30
0.0
 10
8.965737
 20
1.535566
 30
0.0
 10
8.956315
 20
1.535537
 30
0.0
 11
9.041981
 21
1.535813
 31
0.0
 11
9.013151
 21
1.535724
 31
0.0
 11
8.984581
 21
1.535626
 31
0.0
 11
8.956315
 21
1.535537
 31
0.0
  0
SPLINE
  5
1b8
100
AcDbEntity
  8
solar_cut
 62
1
100
AcDbSpline
 70
0
 71
3
 72
10
 73
6
 74
4
 40
0.000000
 40
0.000000
 40
0.000000
 40
0.000000
 40
0.028579
 40
0.057159
 40
0.085700
 40
0.085700
 40
0.085700
 40
0.085700
 10
9.213311
 20
1.536364
 30
0.0
 10
9.203785
 20
1.536337
 30
0.0
 10
9.184732
 20
1.536285
 30
0.0
 10
9.156165
 20
1.536199
 30
0.0
 10
9.137125
 20
1.536125
 30
0.0
 10
9.127611
 20
1.536088
 30
0.0
 11
9.213311
 21
1.536364
 31
0.0
 11
9.184732
 21
1.536284
 31
0.0
 11
9.156153
 21
1.536195
 31
0.0
 11
9.127611
 21
1.536088
 31
0.0
  0
SPLINE
  5
1b9
100
AcDbEntity
  8
solar_cut
 62
1
100
AcDbSpline
 70
0
 71
3
 72
10
 73
6
 74
4
 40
0.000000
 40
0.000000
 40
0.000000
 40
0.000000
 40
0.028312
 40
0.056883
 40
0.085668
 40
0.085668
 40
0.085668
 40
0.085668
 10
9.384677
 20
1.536954
 30
0.0
 10
9.375239
 20
1.536917
 30
0.0
 10
9.356279
 20
1.536843
 30
0.0
 10
9.327723
 20
1.536750
 30
0.0
 10
9.308605
 20
1.536676
 30
0.0
 10
9.299010
 20
1.536639
 30
0.0
 11
9.384677
 21
1.536954
 31
0.0
 11
9.356365
 21
1.536846
 31
0.0
 11
9.327795
 21
1.536747
 31
0.0
 11
9.299010
 21
1.536639
 31
0.0
  0
SPLINE
  5
1ba
100
AcDbEntity
  8
solar_cut
 62
1
100
AcDbSpline
 70
0
 71
3
 72
10
 73
6
 74
4
 40
0.000000
 40
0.000000
 40
0.000000
 40
0.000000
 40
0.027948
 40
0.056527
 40
0.085680
 40
0.085680
 40
0.085680
 40
0.085680
 10
9.556051
 20
1.537506
 30
0.0
 10
9.546735
 20
1.537469
 30
0.0
 10
9.527893
 20
1.537394
 30
0.0
 10
9.499333
 20
1.537308
 30
0.0
 10
9.480089
 20
1.537256
 30
0.0
 10
9.470372
 20
1.537230
 30
0.0
 11
9.556051
 21
1.537506
 31
0.0
 11
9.528103
 21
1.537399
 31
0.0
 11
9.499524
 21
1.537310
 31
0.0
 11
9.470372
 21
1.537230
 31
0.0
  0
SPLINE
  5
1bb
100
AcDbEntity
  8
solar_cut
 62
1
100
AcDbSpline
 70
0
 71
3
 72
10
 73
6
 74
4
 40
0.000000
 40
0.000000
 40
0.000000
 40
0.000000
 40
0.027100
 40
0.055695
 40
0.085684
 40
0.085684
 40
0.085684
 40
0.085684
 10
9.727418
 20
1.538057
 30
0.0
 10
9.718384
 20
1.538028
 30
0.0
 10
9.699820
 20
1.537968
 30
0.0
 10
9.671259
 20
1.537865
 30
0.0
 10
9.651731
 20
1.537809
 30
0.0
 10
9.641734
 20
1.537781
 30
0.0
 11
9.727418
 21
1.538057
 31
0.0
 11
9.700318
 21
1.537968
 31
0.0
 11
9.671723
 21
1.537870
 31
0.0
 11
9.641734
 21
1.537781
 31
0.0
  0
SPLINE
  5
1bc
100
AcDbEntity
  8
solar_cut
 62
1
100
AcDbSpline
 70
0
 71
3
 72
10
 73
6
 74
4
 40
0.000000
 40
0.000000
 40
0.000000
 40
0.000000
 40
0.010218
 40
0.039475
 40
0.085675
 40
0.085675
 40
0.085675
 40
0.085675
 10
9.898804
 20
1.538608
 30
0.0
 10
9.895398
 20
1.538596
 30
0.0
 10
9.882239
 20
1.538548
 30
0.0
 10
9.853681
 20
1.538454
 30
0.0
 10
9.828529
 20
1.538378
 30
0.0
 10
9.813129
 20
1.538332
 30
0.0
 11
9.898804
 21
1.538608
 31
0.0
 11
9.888585
 21
1.538571
 31
0.0
 11
9.859328
 21
1.538474
 31
0.0
 11
9.813129
 21
1.538332
 31
0.0
  0
SPLINE
  5
1bd
100
AcDbEntity
  8
solar_cut
 62
1
100
AcDbSpline
 70
0
 71
3
 72
10
 73
6
 74
4
 40
0.000000
 40
0.000000
 40
0.000000
 40
0.000000
 40
0.017007
 40
0.027671
 40
0.031366
 40
0.031366
 40
0.031366
 40
0.031366
 10
9.902859
 20
0.811696
 30
0.0
 10
9.902893
 20
0.806027
 30
0.0
 10
9.902948
 20
0.796803
 30
0.0
 10
9.903015
 20
0.786348
 30
0.0
 10
9.903047
 20
0.781562
 30
0.0
 10
9.903056
 20
0.780331
 30
0.0
 11
9.902859
 21
0.811696
 31
0.0
 11
9.902962
 21
0.794689
 31
0.0
 11
9.903031
 21
0.784025
 31
0.0
 11
9.903056
 21
0.780331
 31
0.0
  0
SPLINE
  5
1be
100
AcDbEntity
  8
solar_cut
 62
1
100
AcDbSpline
 70
0
 71
3
 72
10
 73
6
 74
4
 40
0.000000
 40
0.000000
 40
0.000000
 40
0.000000
 40
0.015843
 40
0.030823
 40
0.044884
 40
0.044884
 40
0.044884
 40
0.044884
 10
9.902307
 20
0.901526
 30
0.0
 10
9.902344
 20
0.896245
 30
0.0
 10
9.902415
 20
0.885971
 30
0.0
 10
9.902501
 20
0.871010
 30
0.0
 10
9.902556
 20
0.861330
 30
0.0
 10
9.902583
 20
0.856643
 30
0.0
 11
9.902307
 21
0.901526
 31
0.0
 11
9.902414
 21
0.885683
 31
0.0
 11
9.902503
 21
0.870703
 31
0.0
 11
9.902583
 21
0.856643
 31
0.0
  0
SPLINE
  5
1bf
100
AcDbEntity
  8
solar_cut
 62
1
100
AcDbSpline
 70
0
 71
3
 72
10
 73
6
 74
4
 40
0.000000
 40
0.000000
 40
0.000000
 40
0.000000
 40
0.015322
 40
0.030303
 40
0.044911
 40
0.044911
 40
0.044911
 40
0.044911
 10
9.901756
 20
0.991375
 30
0.0
 10
9.901785
 20
0.986268
 30
0.0
 10
9.901841
 20
0.976167
 30
0.0
 10
9.901945
 20
0.961197
 30
0.0
 10
9.902003
 20
0.951334
 30
0.0
 10
9.902032
 20
0.946464
 30
0.0
 11
9.901756
 21
0.991375
 31
0.0
 11
9.901845
 21
0.976054
 31
0.0
 11
9.901943
 21
0.961073
 31
0.0
 11
9.902032
 21
0.946464
 31
0.0
  0
SPLINE
  5
1c0
100
AcDbEntity
  8
solar_cut
 62
1
100
AcDbSpline
 70
0
 71
3
 72
10
 73
6
 74
4
 40
0.000000
 40
0.000000
 40
0.000000
 40
0.000000
 40
0.015115
 40
0.030094
 40
0.044913
 40
0.044913
 40
0.044913
 40
0.044913
 10
9.901205
 20
1.081196
 30
0.0
 10
9.901234
 20
1.076157
 30
0.0
 10
9.901291
 20
1.066126
 30
0.0
 10
9.901394
 20
1.051155
 30
0.0
 10
9.901452
 20
1.041223
 30
0.0
 10
9.901481
 20
1.036283
 30
0.0
 11
9.901205
 21
1.081196
 31
0.0
 11
9.901294
 21
1.066081
 31
0.0
 11
9.901392
 21
1.051102
 31
0.0
 11
9.901481
 21
1.036283
 31
0.0
  0
SPLINE
  5
1c1
100
AcDbEntity
  8
solar_cut
 62
1
100
AcDbSpline
 70
0
 71
3
 72
10
 73
6
 74
4
 40
0.000000
 40
0.000000
 40
0.000000
 40
0.000000
 40
0.014983
 40
0.029967
 40
0.044931
 40
0.044931
 40
0.044931
 40
0.044931
 10
9.900654
 20
1.171019
 30
0.0
 10
9.900680
 20
1.166025
 30
0.0
 10
9.900733
 20
1.156036
 30
0.0
 10
9.900819
 20
1.141059
 30
0.0
 10
9.900893
 20
1.131077
 30
0.0
 10
9.900930
 20
1.126089
 30
0.0
 11
9.900654
 21
1.171019
 31
0.0
 11
9.900734
 21
1.156036
 31
0.0
 11
9.900823
 21
1.141053
 31
0.0
 11
9.900930
 21
1.126089
 31
0.0
  0
SPLINE
  5
1c2
100
AcDbEntity
  8
solar_cut
 62
1
100
AcDbSpline
 70
0
 71
3
 72
10
 73
6
 74
4
 40
0.000000
 40
0.000000
 40
0.000000
 40
0.000000
 40
0.014844
 40
0.029823
 40
0.044914
 40
0.044914
 40
0.044914
 40
0.044914
 10
9.900063
 20
1.260862
 30
0.0
 10
9.900100
 20
1.255914
 30
0.0
 10
9.900175
 20
1.245974
 30
0.0
 10
9.900268
 20
1.231002
 30
0.0
 10
9.900341
 20
1.220979
 30
0.0
 10
9.900378
 20
1.215949
 30
0.0
 11
9.900063
 21
1.260862
 31
0.0
 11
9.900171
 21
1.246019
 31
0.0
 11
9.900270
 21
1.231040
 31
0.0
 11
9.900378
 21
1.215949
 31
0.0
  0
SPLINE
  5
1c3
100
AcDbEntity
  8
solar_cut
 62
1
100
AcDbSpline
 70
0
 71
3
 72
10
 73
6
 74
4
 40
0.000000
 40
0.000000
 40
0.000000
 40
0.000000
 40
0.014653
 40
0.029636
 40
0.044920
 40
0.044920
 40
0.044920
 40
0.044920
 10
9.899512
 20
1.350709
 30
0.0
 10
9.899549
 20
1.345825
 30
0.0
 10
9.899624
 20
1.335946
 30
0.0
 10
9.899710
 20
1.320973
 30
0.0
 10
9.899762
 20
1.310884
 30
0.0
 10
9.899788
 20
1.305789
 30
0.0
 11
9.899512
 21
1.350709
 31
0.0
 11
9.899619
 21
1.336056
 31
0.0
 11
9.899708
 21
1.321073
 31
0.0
 11
9.899788
 21
1.305789
 31
0.0
  0
SPLINE
  5
1c4
100
AcDbEntity
  8
solar_cut
 62
1
100
AcDbSpline
 70
0
 71
3
 72
10
 73
6
 74
4
 40
0.000000
 40
0.000000
 40
0.000000
 40
0.000000
 40
0.014208
 40
0.029199
 40
0.044922
 40
0.044922
 40
0.044922
 40
0.044922
 10
9.898961
 20
1.440551
 30
0.0
 10
9.898990
 20
1.435815
 30
0.0
 10
9.899050
 20
1.426082
 30
0.0
 10
9.899153
 20
1.411109
 30
0.0
 10
9.899208
 20
1.400871
 30
0.0
 10
9.899237
 20
1.395630
 30
0.0
 11
9.898961
 21
1.440551
 31
0.0
 11
9.899050
 21
1.426344
 31
0.0
 11
9.899148
 21
1.411352
 31
0.0
 11
9.899237
 21
1.395630
 31
0.0
  0
LWPOLYLINE
  5
1c5
100
AcDbEntity
  8
cut_barrel
 62
7
100
AcDbPolyline
 90
2
 70
0
 10
2.483780
 20
3.913487
 30
0.0
 10
2.483780
 20
4.395311
 30
0.0
  0
SPLINE
  5
1c6
100
AcDbEntity
  8
solar_cut
 62
1
100
AcDbSpline
 70
0
 71
3
 72
10
 73
6
 74
4
 40
0.000000
 40
0.000000
 40
0.000000
 40
0.000000
 40
0.005357
 40
0.020696
 40
0.044918
 40
0.044918
 40
0.044918
 40
0.044918
 10
9.898410
 20
1.530404
 30
0.0
 10
9.898422
 20
1.528618
 30
0.0
 10
9.898469
 20
1.521720
 30
0.0
 10
9.898564
 20
1.506747
 30
0.0
 10
9.898639
 20
1.493561
 30
0.0
 10
9.898685
 20
1.485487
 30
0.0
 11
9.898410
 21
1.530404
 31
0.0
 11
9.898446
 21
1.525047
 31
0.0
 11
9.898544
 21
1.509708
 31
0.0
 11
9.898685
 21
1.485487
 31
0.0
  0
SPLINE
  5
1c7
100
AcDbEntity
  8
solar_cut
 62
1
100
AcDbSpline
 70
0
 71
3
 72
10
 73
6
 74
4
 40
0.000000
 40
0.000000
 40
0.000000
 40
0.000000
 40
0.017007
 40
0.027671
 40
0.031366
 40
0.031366
 40
0.031366
 40
0.031366
 10
8.469694
 20
0.812566
 30
0.0
 10
8.469660
 20
0.806897
 30
0.0
 10
8.469605
 20
0.797674
 30
0.0
 10
8.469538
 20
0.787219
 30
0.0
 10
8.469506
 20
0.782433
 30
0.0
 10
8.469498
 20
0.781201
 30
0.0
 11
8.469694
 21
0.812566
 31
0.0
 11
8.469591
 21
0.795559
 31
0.0
 11
8.469522
 21
0.784895
 31
0.0
 11
8.469498
 21
0.781201
 31
0.0
  0
SPLINE
  5
1c8
100
AcDbEntity
  8
solar_cut
 62
1
100
AcDbSpline
 70
0
 71
3
 72
10
 73
6
 74
4
 40
0.000000
 40
0.000000
 40
0.000000
 40
0.000000
 40
0.015843
 40
0.030823
 40
0.044884
 40
0.044884
 40
0.044884
 40
0.044884
 10
8.470246
 20
0.902396
 30
0.0
 10
8.470209
 20
0.897115
 30
0.0
 10
8.470138
 20
0.886841
 30
0.0
 10
8.470052
 20
0.871880
 30
0.0
 10
8.469997
 20
0.862200
 30
0.0
 10
8.469970
 20
0.857513
 30
0.0
 11
8.470246
 21
0.902396
 31
0.0
 11
8.470139
 21
0.886553
 31
0.0
 11
8.470050
 21
0.871573
 31
0.0
 11
8.469970
 21
0.857513
 31
0.0
  0
SPLINE
  5
1c9
100
AcDbEntity
  8
solar_cut
 62
1
100
AcDbSpline
 70
0
 71
3
 72
10
 73
6
 74
4
 40
0.000000
 40
0.000000
 40
0.000000
 40
0.000000
 40
0.015322
 40
0.030303
 40
0.044911
 40
0.044911
 40
0.044911
 40
0.044911
 10
8.470797
 20
0.992245
 30
0.0
 10
8.470768
 20
0.987138
 30
0.0
 10
8.470712
 20
0.977037
 30
0.0
 10
8.470609
 20
0.962067
 30
0.0
 10
8.470550
 20
0.952204
 30
0.0
 10
8.470521
 20
0.947334
 30
0.0
 11
8.470797
 21
0.992245
 31
0.0
 11
8.470708
 21
0.976924
 31
0.0
 11
8.470610
 21
0.961943
 31
0.0
 11
8.470521
 21
0.947334
 31
0.0
  0
SPLINE
  5
1ca
100
AcDbEntity
  8
solar_cut
 62
1
100
AcDbSpline
 70
0
 71
3
 72
10
 73
6
 74
4
 40
0.000000
 40
0.000000
 40
0.000000
 40
0.000000
 40
0.015115
 40
0.030094
 40
0.044913
 40
0.044913
 40
0.044913
 40
0.044913
 10
8.471348
 20
1.082066
 30
0.0
 10
8.471319
 20
1.077027
 30
0.0
 10
8.471262
 20
1.066996
 30
0.0
 10
8.471159
 20
1.052026
 30
0.0
 10
8.471101
 20
1.042093
 30
0.0
 10
8.471072
 20
1.037153
 30
0.0
 11
8.471348
 21
1.082066
 31
0.0
 11
8.471259
 21
1.066951
 31
0.0
 11
8.471161
 21
1.051972
 31
0.0
 11
8.471072
 21
1.037153
 31
0.0
  0
SPLINE
  5
1cb
100
AcDbEntity
  8
solar_cut
 62
1
100
AcDbSpline
 70
0
 71
3
 72
10
 73
6
 74
4
 40
0.000000
 40
0.000000
 40
0.000000
 40
0.000000
 40
0.014983
 40
0.029967
 40
0.044931
 40
0.044931
 40
0.044931
 40
0.044931
 10
8.471899
 20
1.171889
 30
0.0
 10
8.471873
 20
1.166895
 30
0.0
 10
8.471820
 20
1.156906
 30
0.0
 10
8.471734
 20
1.141930
 30
0.0
 10
8.471660
 20
1.131947
 30
0.0
 10
8.471624
 20
1.126959
 30
0.0
 11
8.471899
 21
1.171889
 31
0.0
 11
8.471819
 21
1.156906
 31
0.0
 11
8.471730
 21
1.141923
 31
0.0
 11
8.471624
 21
1.126959
 31
0.0
  0
SPLINE
  5
1cc
100
AcDbEntity
  8
solar_cut
 62
1
100
AcDbSpline
 70
0
 71
3
 72
10
 73
6
 74
4
 40
0.000000
 40
0.000000
 40
0.000000
 40
0.000000
 40
0.014844
 40
0.029823
 40
0.044914
 40
0.044914
 40
0.044914
 40
0.044914
 10
8.472490
 20
1.261732
 30
0.0
 10
8.472453
 20
1.256784
 30
0.0
 10
8.472378
 20
1.246844
 30
0.0
 10
8.472285
 20
1.231873
 30
0.0
 10
8.472212
 20
1.221849
 30
0.0
 10
8.472175
 20
1.216819
 30
0.0
 11
8.472490
 21
1.261732
 31
0.0
 11
8.472382
 21
1.246889
 31
0.0
 11
8.472283
 21
1.231910
 31
0.0
 11
8.472175
 21
1.216819
 31
0.0
  0
SPLINE
  5
1cd
100
AcDbEntity
  8
solar_cut
 62
1
100
AcDbSpline
 70
0
 71
3
 72
10
 73
6
 74
4
 40
0.000000
 40
0.000000
 40
0.000000
 40
0.000000
 40
0.014653
 40
0.029636
 40
0.044920
 40
0.044920
 40
0.044920
 40
0.044920
 10
8.473041
 20
1.351579
 30
0.0
 10
8.473004
 20
1.346695
 30
0.0
 10
8.472929
 20
1.336816
 30
0.0
 10
8.472844
 20
1.321843
 30
0.0
 10
8.472792
 20
1.311754
 30
0.0
 10
8.472765
 20
1.306659
 30
0.0
 11
8.473041
 21
1.351579
 31
0.0
 11
8.472934
 21
1.336926
 31
0.0
 11
8.472846
 21
1.321943
 31
0.0
 11
8.472765
 21
1.306659
 31
0.0
  0
SPLINE
  5
1ce
100
AcDbEntity
  8
solar_cut
 62
1
100
AcDbSpline
 70
0
 71
3
 72
10
 73
6
 74
4
 40
0.000000
 40
0.000000
 40
0.000000
 40
0.000000
 40
0.014208
 40
0.029199
 40
0.044922
 40
0.044922
 40
0.044922
 40
0.044922
 10
8.473592
 20
1.441421
 30
0.0
 10
8.473563
 20
1.436685
 30
0.0
 10
8.473503
 20
1.426952
 30
0.0
 10
8.473400
 20
1.411979
 30
0.0
 10
8.473345
 20
1.401741
 30
0.0
 10
8.473317
 20
1.396500
 30
0.0
 11
8.473592
 21
1.441421
 31
0.0
 11
8.473503
 21
1.427214
 31
0.0
 11
8.473405
 21
1.412222
 31
0.0
 11
8.473317
 21
1.396500
 31
0.0
  0
LWPOLYLINE
  5
1cf
100
AcDbEntity
  8
solar_cut
 62
7
100
AcDbPolyline
 90
8
 70
0
 10
9.901732
 20
1.534376
 30
0.0
 10
10.006420
 20
1.534376
 30
0.0
 10
10.006420
 20
1.237273
 30
0.0
 10
10.127790
 20
1.237273
 30
0.0
 10
10.127790
 20
1.091963
 30
0.0
 10
10.020864
 20
1.091963
 30
0.0
 10
10.020864
 20
0.779411
 30
0.0
 10
9.897489
 20
0.779411
 30
0.0
  0
LWPOLYLINE
  5
1d0
100
AcDbEntity
  8
solar_cut
 62
7
100
AcDbPolyline
 90
8
 70
0
 10
8.470821
 20
1.535246
 30
0.0
 10
8.366133
 20
1.535246
 30
0.0
 10
8.366133
 20
1.238143
 30
0.0
 10
8.244763
 20
1.238143
 30
0.0
 10
8.244763
 20
1.092833
 30
0.0
 10
8.351689
 20
1.092833
 30
0.0
 10
8.351689
 20
0.780281
 30
0.0
 10
8.475065
 20
0.780281
 30
0.0
  0
LWPOLYLINE
  5
1d1
100
AcDbEntity
  8
solar_cut
 62
7
100
AcDbPolyline
 90
3
 70
0
 10
9.303694
 20
1.623770
 30
0.0
 10
9.901435
 20
1.623770
 30
0.0
 10
9.901435
 20
1.530259
 30
0.0
  0
SPLINE
  5
1d2
100
AcDbEntity
  8
solar_cut
 62
1
100
AcDbSpline
 70
0
 71
3
 72
10
 73
6
 74
4
 40
0.000000
 40
0.000000
 40
0.000000
 40
0.000000
 40
0.005357
 40
0.020696
 40
0.044918
 40
0.044918
 40
0.044918
 40
0.044918
 10
8.474143
 20
1.531274
 30
0.0
 10
8.474131
 20
1.529488
 30
0.0
 10
8.474084
 20
1.522590
 30
0.0
 10
8.473989
 20
1.507618
 30
0.0
 10
8.473914
 20
1.494431
 30
0.0
 10
8.473868
 20
1.486357
 30
0.0
 11
8.474143
 21
1.531274
 31
0.0
 11
8.474107
 21
1.525917
 31
0.0
 11
8.474009
 21
1.510578
 31
0.0
 11
8.473868
 21
1.486357
 31
0.0
  0
SPLINE
  5
1d3
100
AcDbEntity
  8
solar_cut
 62
1
100
AcDbSpline
 70
0
 71
3
 72
10
 73
6
 74
4
 40
0.000000
 40
0.000000
 40
0.000000
 40
0.000000
 40
0.032439
 40
0.052780
 40
0.059826
 40
0.059826
 40
0.059826
 40
0.059826
 10
8.525028
 20
0.787102
 30
0.0
 10
8.514215
 20
0.787136
 30
0.0
 10
8.496622
 20
0.787191
 30
0.0
 10
8.476680
 20
0.787258
 30
0.0
 10
8.467551
 20
0.787290
 30
0.0
 10
8.465202
 20
0.787298
 30
0.0
 11
8.525028
 21
0.787102
 31
0.0
 11
8.492589
 21
0.787205
 31
0.0
 11
8.472248
 21
0.787274
 31
0.0
 11
8.465202
 21
0.787298
 31
0.0
  0
SPLINE
  5
1d4
100
AcDbEntity
  8
solar_cut
 62
1
100
AcDbSpline
 70
0
 71
3
 72
10
 73
6
 74
4
 40
0.000000
 40
0.000000
 40
0.000000
 40
0.000000
 40
0.030219
 40
0.058792
 40
0.085611
 40
0.085611
 40
0.085611
 40
0.085611
 10
8.696370
 20
0.786550
 30
0.0
 10
8.686297
 20
0.786587
 30
0.0
 10
8.666700
 20
0.786658
 30
0.0
 10
8.638163
 20
0.786744
 30
0.0
 10
8.619699
 20
0.786799
 30
0.0
 10
8.610759
 20
0.786826
 30
0.0
 11
8.696370
 21
0.786550
 31
0.0
 11
8.666151
 21
0.786657
 31
0.0
 11
8.637578
 21
0.786746
 31
0.0
 11
8.610759
 21
0.786826
 31
0.0
  0
SPLINE
  5
1d5
100
AcDbEntity
  8
solar_cut
 62
1
100
AcDbSpline
 70
0
 71
3
 72
10
 73
6
 74
4
 40
0.000000
 40
0.000000
 40
0.000000
 40
0.000000
 40
0.029224
 40
0.057799
 40
0.085663
 40
0.085663
 40
0.085663
 40
0.085663
 10
8.867748
 20
0.785999
 30
0.0
 10
8.858007
 20
0.786028
 30
0.0
 10
8.838740
 20
0.786084
 30
0.0
 10
8.810186
 20
0.786187
 30
0.0
 10
8.791373
 20
0.786246
 30
0.0
 10
8.782085
 20
0.786275
 30
0.0
 11
8.867748
 21
0.785999
 31
0.0
 11
8.838524
 21
0.786088
 31
0.0
 11
8.809949
 21
0.786186
 31
0.0
 11
8.782085
 21
0.786275
 31
0.0
  0
SPLINE
  5
1d6
100
AcDbEntity
  8
solar_cut
 62
1
100
AcDbSpline
 70
0
 71
3
 72
10
 73
6
 74
4
 40
0.000000
 40
0.000000
 40
0.000000
 40
0.000000
 40
0.028830
 40
0.057400
 40
0.085667
 40
0.085667
 40
0.085667
 40
0.085667
 10
9.039073
 20
0.785448
 30
0.0
 10
9.029463
 20
0.785477
 30
0.0
 10
9.010330
 20
0.785534
 30
0.0
 10
8.981774
 20
0.785637
 30
0.0
 10
8.962829
 20
0.785695
 30
0.0
 10
8.953407
 20
0.785724
 30
0.0
 11
9.039073
 21
0.785448
 31
0.0
 11
9.010243
 21
0.785537
 31
0.0
 11
8.981673
 21
0.785635
 31
0.0
 11
8.953407
 21
0.785724
 31
0.0
  0
SPLINE
  5
1d7
100
AcDbEntity
  8
solar_cut
 62
1
100
AcDbSpline
 70
0
 71
3
 72
10
 73
6
 74
4
 40
0.000000
 40
0.000000
 40
0.000000
 40
0.000000
 40
0.028579
 40
0.057159
 40
0.085700
 40
0.085700
 40
0.085700
 40
0.085700
 10
9.210403
 20
0.784897
 30
0.0
 10
9.200877
 20
0.784923
 30
0.0
 10
9.181824
 20
0.784976
 30
0.0
 10
9.153258
 20
0.785062
 30
0.0
 10
9.134217
 20
0.785136
 30
0.0
 10
9.124704
 20
0.785172
 30
0.0
 11
9.210403
 21
0.784897
 31
0.0
 11
9.181824
 21
0.784977
 31
0.0
 11
9.153245
 21
0.785066
 31
0.0
 11
9.124704
 21
0.785172
 31
0.0
  0
SPLINE
  5
1d8
100
AcDbEntity
  8
solar_cut
 62
1
100
AcDbSpline
 70
0
 71
3
 72
10
 73
6
 74
4
 40
0.000000
 40
0.000000
 40
0.000000
 40
0.000000
 40
0.028312
 40
0.056883
 40
0.085668
 40
0.085668
 40
0.085668
 40
0.085668
 10
9.381769
 20
0.784306
 30
0.0
 10
9.372332
 20
0.784343
 30
0.0
 10
9.353371
 20
0.784418
 30
0.0
 10
9.324815
 20
0.784511
 30
0.0
 10
9.305697
 20
0.784584
 30
0.0
 10
9.296102
 20
0.784621
 30
0.0
 11
9.381769
 21
0.784306
 31
0.0
 11
9.353457
 21
0.784414
 31
0.0
 11
9.324887
 21
0.784513
 31
0.0
 11
9.296102
 21
0.784621
 31
0.0
  0
SPLINE
  5
1d9
100
AcDbEntity
  8
solar_cut
 62
1
100
AcDbSpline
 70
0
 71
3
 72
10
 73
6
 74
4
 40
0.000000
 40
0.000000
 40
0.000000
 40
0.000000
 40
0.027948
 40
0.056527
 40
0.085680
 40
0.085680
 40
0.085680
 40
0.085680
 10
9.553143
 20
0.783755
 30
0.0
 10
9.543827
 20
0.783792
 30
0.0
 10
9.524985
 20
0.783867
 30
0.0
 10
9.496425
 20
0.783952
 30
0.0
 10
9.477182
 20
0.784004
 30
0.0
 10
9.467464
 20
0.784031
 30
0.0
 11
9.553143
 21
0.783755
 31
0.0
 11
9.525195
 21
0.783862
 31
0.0
 11
9.496616
 21
0.783951
 31
0.0
 11
9.467464
 21
0.784031
 31
0.0
  0
SPLINE
  5
1da
100
AcDbEntity
  8
solar_cut
 62
1
100
AcDbSpline
 70
0
 71
3
 72
10
 73
6
 74
4
 40
0.000000
 40
0.000000
 40
0.000000
 40
0.000000
 40
0.027100
 40
0.055695
 40
0.085684
 40
0.085684
 40
0.085684
 40
0.085684
 10
9.724510
 20
0.783204
 30
0.0
 10
9.715477
 20
0.783233
 30
0.0
 10
9.696912
 20
0.783293
 30
0.0
 10
9.668351
 20
0.783396
 30
0.0
 10
9.648823
 20
0.783451
 30
0.0
 10
9.638826
 20
0.783480
 30
0.0
 11
9.724510
 21
0.783204
 31
0.0
 11
9.697410
 21
0.783293
 31
0.0
 11
9.668816
 21
0.783391
 31
0.0
 11
9.638826
 21
0.783480
 31
0.0
  0
LWPOLYLINE
  5
1db
100
AcDbEntity
  8
solar_cut
 62
7
100
AcDbPolyline
 90
3
 70
0
 10
8.471967
 20
1.528561
 30
0.0
 10
8.471967
 20
1.623555
 30
0.0
 10
9.098942
 20
1.623555
 30
0.0
  0
LWPOLYLINE
  5
1dc
100
AcDbEntity
  8
solar_cut
 62
7
100
AcDbPolyline
 90
3
 70
0
 10
9.260290
 20
0.697520
 30
0.0
 10
9.898436
 20
0.697521
 30
0.0
 10
9.898436
 20
0.790968
 30
0.0
  0
LWPOLYLINE
  5
1dd
100
AcDbEntity
  8
solar_cut
 62
7
100
AcDbPolyline
 90
3
 70
0
 10
8.469059
 20
0.792700
 30
0.0
 10
8.469059
 20
0.697706
 30
0.0
 10
9.065171
 20
0.697705
 30
0.0
  0
LWPOLYLINE
  5
1de
100
AcDbEntity
  8
solar_cut
 62
7
100
AcDbPolyline
 90
2
 70
0
 10
8.090271
 20
7.134436
 30
0.0
 10
8.090271
 20
6.964452
 30
0.0
  0
LWPOLYLINE
  5
1df
100
AcDbEntity
  8
solar_cut
 62
7
100
AcDbPolyline
 90
2
 70
0
 10
9.542682
 20
7.134436
 30
0.0
 10
9.542682
 20
6.969935
 30
0.0
  0
LWPOLYLINE
  5
1e0
100
AcDbEntity
  8
solar_cut
 62
7
100
AcDbPolyline
 90
4
 70
0
 10
8.071456
 20
7.135180
 30
0.0
 10
8.108290
 20
7.135180
 30
0.0
 10
8.108290
 20
6.970394
 30
0.0
 10
8.069517
 20
6.970394
 30
0.0
  0
SPLINE
  5
1e1
100
AcDbEntity
  8
solar_cut
 62
1
100
AcDbSpline
 70
0
 71
3
 72
10
 73
6
 74
4
 40
0.000000
 40
0.000000
 40
0.000000
 40
0.000000
 40
0.010218
 40
0.039475
 40
0.085675
 40
0.085675
 40
0.085675
 40
0.085675
 10
9.895896
 20
0.782653
 30
0.0
 10
9.892490
 20
0.782665
 30
0.0
 10
9.879331
 20
0.782712
 30
0.0
 10
9.850773
 20
0.782807
 30
0.0
 10
9.825621
 20
0.782882
 30
0.0
 10
9.810221
 20
0.782928
 30
0.0
 11
9.895896
 21
0.782653
 31
0.0
 11
9.885678
 21
0.782689
 31
0.0
 11
9.856421
 21
0.782787
 31
0.0
 11
9.810221
 21
0.782928
 31
0.0
  0
SPLINE
  5
1e2
100
AcDbEntity
  8
solar_cut
 62
1
100
AcDbSpline
 70
0
 71
3
 72
10
 73
6
 74
4
 40
0.000000
 40
0.000000
 40
0.000000
 40
0.000000
 40
0.037464
 40
0.060956
 40
0.069094
 40
0.069094
 40
0.069094
 40
0.069094
 10
7.862193
 20
2.578141
 30
0.0
 10
7.862237
 20
2.565653
 30
0.0
 10
7.862309
 20
2.545334
 30
0.0
 10
7.862387
 20
2.522303
 30
0.0
 10
7.862420
 20
2.511760
 30
0.0
 10
7.862429
 20
2.509047
 30
0.0
 11
7.862193
 21
2.578141
 31
0.0
 11
7.862324
 21
2.540677
 31
0.0
 11
7.862403
 21
2.517185
 31
0.0
 11
7.862429
 21
2.509047
 31
0.0
  0
SPLINE
  5
1e3
100
AcDbEntity
  8
solar_cut
 62
1
100
AcDbSpline
 70
0
 71
3
 72
10
 73
6
 74
4
 40
0.000000
 40
0.000000
 40
0.000000
 40
0.000000
 40
0.034900
 40
0.067900
 40
0.098873
 40
0.098873
 40
0.098873
 40
0.098873
 10
7.861539
 20
2.776026
 30
0.0
 10
7.861586
 20
2.764393
 30
0.0
 10
7.861677
 20
2.741760
 30
0.0
 10
7.861771
 20
2.708803
 30
0.0
 10
7.861827
 20
2.687478
 30
0.0
 10
7.861854
 20
2.677154
 30
0.0
 11
7.861539
 21
2.776026
 31
0.0
 11
7.861673
 21
2.741126
 31
0.0
 11
7.861772
 21
2.708127
 31
0.0
 11
7.861854
 21
2.677154
 31
0.0
  0
SPLINE
  5
1e4
100
AcDbEntity
  8
solar_cut
 62
1
100
AcDbSpline
 70
0
 71
3
 72
10
 73
6
 74
4
 40
0.000000
 40
0.000000
 40
0.000000
 40
0.000000
 40
0.033751
 40
0.066753
 40
0.098934
 40
0.098934
 40
0.098934
 40
0.098934
 10
7.860884
 20
2.973954
 30
0.0
 10
7.860915
 20
2.962703
 30
0.0
 10
7.860976
 20
2.940453
 30
0.0
 10
7.861104
 20
2.907475
 30
0.0
 10
7.861167
 20
2.885748
 30
0.0
 10
7.861199
 20
2.875021
 30
0.0
 11
7.860884
 21
2.973954
 31
0.0
 11
7.860983
 21
2.940203
 31
0.0
 11
7.861100
 21
2.907201
 31
0.0
 11
7.861199
 21
2.875021
 31
0.0
  0
SPLINE
  5
1e5
100
AcDbEntity
  8
solar_cut
 62
1
100
AcDbSpline
 70
0
 71
3
 72
10
 73
6
 74
4
 40
0.000000
 40
0.000000
 40
0.000000
 40
0.000000
 40
0.037465
 40
0.060957
 40
0.069094
 40
0.069094
 40
0.069094
 40
0.069094
 10
10.162728
 20
2.069435
 30
0.0
 10
10.162772
 20
2.056947
 30
0.0
 10
10.162844
 20
2.036628
 30
0.0
 10
10.162922
 20
2.013597
 30
0.0
 10
10.162955
 20
2.003054
 30
0.0
 10
10.162964
 20
2.000341
 30
0.0
 11
10.162728
 21
2.069435
 31
0.0
 11
10.162859
 21
2.031971
 31
0.0
 11
10.162938
 21
2.008479
 31
0.0
 11
10.162964
 21
2.000341
 31
0.0
  0
SPLINE
  5
1e6
100
AcDbEntity
  8
solar_cut
 62
1
100
AcDbSpline
 70
0
 71
3
 72
10
 73
6
 74
4
 40
0.000000
 40
0.000000
 40
0.000000
 40
0.000000
 40
0.034901
 40
0.067900
 40
0.098873
 40
0.098873
 40
0.098873
 40
0.098873
 10
10.162074
 20
2.267321
 30
0.0
 10
10.162121
 20
2.255687
 30
0.0
 10
10.162212
 20
2.233054
 30
0.0
 10
10.162306
 20
2.200097
 30
0.0
 10
10.162362
 20
2.178772
 30
0.0
 10
10.162389
 20
2.168448
 30
0.0
 11
10.162074
 21
2.267321
 31
0.0
 11
10.162208
 21
2.232421
 31
0.0
 11
10.162307
 21
2.199421
 31
0.0
 11
10.162389
 21
2.168448
 31
0.0
  0
SPLINE
  5
1e7
100
AcDbEntity
  8
solar_cut
 62
1
100
AcDbSpline
 70
0
 71
3
 72
10
 73
6
 74
4
 40
0.000000
 40
0.000000
 40
0.000000
 40
0.000000
 40
0.033752
 40
0.066753
 40
0.098934
 40
0.098934
 40
0.098934
 40
0.098934
 10
10.161419
 20
2.465248
 30
0.0
 10
10.161450
 20
2.453998
 30
0.0
 10
10.161511
 20
2.431747
 30
0.0
 10
10.161639
 20
2.398769
 30
0.0
 10
10.161703
 20
2.377042
 30
0.0
 10
10.161734
 20
2.366315
 30
0.0
 11
10.161419
 21
2.465248
 31
0.0
 11
10.161518
 21
2.431497
 31
0.0
 11
10.161635
 21
2.398496
 31
0.0
 11
10.161734
 21
2.366315
 31
0.0
  0
LWPOLYLINE
  5
1e8
100
AcDbEntity
  8
solar_cut
 62
7
100
AcDbPolyline
 90
4
 70
0
 10
9.551910
 20
7.131569
 30
0.0
 10
9.528646
 20
7.131569
 30
0.0
 10
9.528646
 20
6.962905
 30
0.0
 10
9.556392
 20
6.970340
 30
0.0
  0
LWPOLYLINE
  5
1e9
100
AcDbEntity
  8
pictures
 62
7
100
AcDbPolyline
 90
1
 70
1
 10
0.205867
 20
8.261595
 30
0.0
  0
LWPOLYLINE
  5
1ea
100
AcDbEntity
  8
pictures
 62
7
100
AcDbPolyline
 90
2
 70
0
 10
4.055548
 20
8.248253
 30
0.0
 10
4.251405
 20
8.248253
 30
0.0
  0
LWPOLYLINE
  5
1eb
100
AcDbEntity
  8
barrel_Image
 62
7
100
AcDbPolyline
 90
2
 70
0
 10
8.043528
 20
3.145240
 30
0.0
 10
8.043528
 20
1.840015
 30
0.0
  0
LWPOLYLINE
  5
1ec
100
AcDbEntity
  8
barrel_Image
 62
7
100
AcDbPolyline
 90
2
 70
0
 10
8.239197
 20
3.141787
 30
0.0
 10
8.239197
 20
1.836562
 30
0.0
  0
LWPOLYLINE
  5
1ed
100
AcDbEntity
  8
barrel_Image
 62
7
100
AcDbPolyline
 90
2
 70
0
 10
8.430261
 20
3.144089
 30
0.0
 10
8.430261
 20
1.838865
 30
0.0
  0
LWPOLYLINE
  5
1ee
100
AcDbEntity
  8
barrel_Image
 62
7
100
AcDbPolyline
 90
2
 70
0
 10
8.623628
 20
3.144089
 30
0.0
 10
8.623628
 20
1.838865
 30
0.0
  0
LWPOLYLINE
  5
1ef
100
AcDbEntity
  8
barrel_Image
 62
7
100
AcDbPolyline
 90
2
 70
0
 10
9.201426
 20
3.144089
 30
0.0
 10
9.201426
 20
1.838865
 30
0.0
  0
LWPOLYLINE
  5
1f0
100
AcDbEntity
  8
barrel_Image
 62
7
100
AcDbPolyline
 90
2
 70
0
 10
9.392490
 20
3.144089
 30
0.0
 10
9.392490
 20
1.838865
 30
0.0
  0
LWPOLYLINE
  5
1f1
100
AcDbEntity
  8
barrel_Image
 62
7
100
AcDbPolyline
 90
2
 70
0
 10
9.588159
 20
3.160202
 30
0.0
 10
9.588159
 20
1.854978
 30
0.0
  0
LWPOLYLINE
  5
1f2
100
AcDbEntity
  8
barrel_Image
 62
7
100
AcDbPolyline
 90
2
 70
0
 10
9.779224
 20
3.144089
 30
0.0
 10
9.779224
 20
1.838865
 30
0.0
  0
LWPOLYLINE
  5
1f3
100
AcDbEntity
  8
barrel_Image
 62
7
100
AcDbPolyline
 90
2
 70
0
 10
9.967985
 20
3.150995
 30
0.0
 10
9.967985
 20
1.845770
 30
0.0
  0
LWPOLYLINE
  5
1f4
100
AcDbEntity
  8
barrel_Image
 62
7
100
AcDbPolyline
 90
2
 70
0
 10
9.010361
 20
3.100351
 30
0.0
 10
9.010361
 20
1.795127
 30
0.0
  0
LWPOLYLINE
  5
1f5
100
AcDbEntity
  8
barrel_Image
 62
7
100
AcDbPolyline
 90
2
 70
0
 10
8.816994
 20
3.111861
 30
0.0
 10
8.816994
 20
1.806637
 30
0.0
  0
LWPOLYLINE
  5
1f6
100
AcDbEntity
  8
barrel_Image
 62
7
100
AcDbPolyline
 90
2
 70
0
 10
7.817933
 20
2.910438
 30
0.0
 10
10.218902
 20
2.910438
 30
0.0
  0
LWPOLYLINE
  5
1f7
100
AcDbEntity
  8
barrel_Image
 62
7
100
AcDbPolyline
 90
2
 70
0
 10
7.825991
 20
2.781526
 30
0.0
 10
10.226959
 20
2.781526
 30
0.0
  0
LWPOLYLINE
  5
1f8
100
AcDbEntity
  8
barrel_Image
 62
7
100
AcDbPolyline
 90
2
 70
0
 10
7.828293
 20
2.201427
 30
0.0
 10
10.229261
 20
2.201427
 30
0.0
  0
SPLINE
  5
1f9
100
AcDbEntity
  8
pictures
 62
7
100
AcDbSpline
 70
0
 71
3
 72
22
 73
18
 74
16
 40
0.000000
 40
0.000000
 40
0.000000
 40
0.000000
 40
0.007253
 40
0.014387
 40
0.021837
 40
0.029287
 40
0.036421
 40
0.043674
 40
0.050927
 40
0.058061
 40
0.065511
 40
0.069247
 40
0.072937
 40
0.076633
 40
0.080299
 40
0.083909
 40
0.087534
 40
0.087534
 40
0.087534
 40
0.087534
 10
0.205867
 20
8.261595
 30
0.0
 10
0.203422
 20
8.261198
 30
0.0
 10
0.198570
 20
8.260409
 30
0.0
 10
0.193304
 20
8.254693
 30
0.0
 10
0.191374
 20
8.247331
 30
0.0
 10
0.193304
 20
8.239886
 30
0.0
 10
0.198570
 20
8.234407
 30
0.0
 10
0.205867
 20
8.232349
 30
0.0
 10
0.213164
 20
8.234408
 30
0.0
 10
0.218432
 20
8.239884
 30
0.0
 10
0.220031
 20
8.246084
 30
0.0
 10
0.219391
 20
8.251046
 30
0.0
 10
0.217998
 20
8.254526
 30
0.0
 10
0.215778
 20
8.257522
 30
0.0
 10
0.212878
 20
8.259806
 30
0.0
 10
0.209498
 20
8.261309
 30
0.0
 10
0.207079
 20
8.261500
 30
0.0
 10
0.205867
 20
8.261595
 30
0.0
 11
0.205867
 21
8.261595
 31
0.0
 11
0.198881
 21
8.259646
 31
0.0
 11
0.193916
 21
8.254523
 31
0.0
 11
0.192026
 21
8.247317
 31
0.0
 11
0.193916
 21
8.240110
 31
0.0
 11
0.198881
 21
8.234988
 31
0.0
 11
0.205867
 21
8.233039
 31
0.0
 11
0.212853
 21
8.234988
 31
0.0
 11
0.217819
 21
8.240110
 31
0.0
 11
0.219708
 21
8.247317
 31
0.0
 11
0.219234
 21
8.251022
 31
0.0
 11
0.217859
 21
8.254447
 31
0.0
 11
0.215654
 21
8.257413
 31
0.0
 11
0.212779
 21
8.259688
 31
0.0
 11
0.209459
 21
8.261106
 31
0.0
 11
0.205867
 21
8.261595
 31
0.0
  0
LWPOLYLINE
  5
1fa
100
AcDbEntity
  8
barrel_Image
 62
7
100
AcDbPolyline
 90
2
 70
0
 10
7.825991
 20
2.058704
 30
0.0
 10
10.226959
 20
2.058704
 30
0.0
  0
ENDSEC
  0
SECTION
  2
OBJECTS
  0
DICTIONARY
  5
C
330
0
100
AcDbDictionary
  3
ACAD_GROUP
350
D
  3
ACAD_MLINESTYLE
350
17
  0
DICTIONARY
  5
D
330
C
100
AcDbDictionary
  0
DICTIONARY
  5
1A
330
C
100
AcDbDictionary
  0
DICTIONARY
  5
17
330
C
100
AcDbDictionary
  3
STANDARD
350
18
  0
DICTIONARY
  5
19
330
C
100
AcDbDictionary
  0
ENDSEC
  0
EOF
