  0
SECTION
  2
HEADER
  9
$ACADVER
  1
AC1014
  9
$HANDSEED
  5
FFFF
  9
$MEASUREMENT
 70
     1
  0
ENDSEC
  0
SECTION
  2
TABLES
  0
TABLE
  2
VPORT
  5
8
330
0
100
AcDbSymbolTable
 70
     4
  0
VPORT
  5
2E
330
8
100
AcDbSymbolTableRecord
100
AcDbViewportTableRecord
  2
*ACTIVE
 70
     0
 10
0.0
 20
0.0
 11
1.0
 21
1.0
 12
210.0
 22
148.5
 13
0.0
 23
0.0
 14
10.0
 24
10.0
 15
10.0
 25
10.0
 16
0.0
 26
0.0
 36
1.0
 17
0.0
 27
0.0
 37
0.0
 40
341.0
 41
1.24
 42
50.0
 43
0.0
 44
0.0
 50
0.0
 51
0.0
 71
     0
 72
   100
 73
     1
 74
     3
 75
     0
 76
     0
 77
     0
 78
     0
  0
ENDTAB
  0
TABLE
  2
LTYPE
  5
5
330
0
100
AcDbSymbolTable
 70
     1
  0
LTYPE
  5
14
330
5
100
AcDbSymbolTableRecord
100
AcDbLinetypeTableRecord
  2
BYBLOCK
 70
     0
  3

 72
    65
 73
     0
 40
0.0
  0
LTYPE
  5
15
330
5
100
AcDbSymbolTableRecord
100
AcDbLinetypeTableRecord
  2
BYLAYER
 70
     0
  3

 72
    65
 73
     0
 40
0.0
  0
LTYPE
  5
16
330
5
100
AcDbSymbolTableRecord
100
AcDbLinetypeTableRecord
  2
CONTINUOUS
 70
     0
  3
Solid line
 72
    65
 73
     0
 40
0.0
  0
ENDTAB
  0
TABLE
  2
LAYER
  5
2
100
AcDbSymbolTable
 70
3
  0
LAYER
  5
50
100
AcDbSymbolTableRecord
100
AcDbLayerTableRecord
  2
0
 70
0
  6
CONTINUOUS
  0
LAYER
  5
51
100
AcDbSymbolTableRecord
100
AcDbLayerTableRecord
  2
Layer_1
 70
0
  6
CONTINUOUS
  0
LAYER
  5
52
100
AcDbSymbolTableRecord
100
AcDbLayerTableRecord
  2
pictures
 70
0
  6
CONTINUOUS
  0
ENDTAB
  0
TABLE
  2
STYLE
  5
3
330
0
100
AcDbSymbolTable
 70
     1
  0
STYLE
  5
11
330
3
100
AcDbSymbolTableRecord
100
AcDbTextStyleTableRecord
  2
STANDARD
 70
     0
 40
0.0
 41
1.0
 50
0.0
 71
     0
 42
2.5
  3
txt
  4

  0
ENDTAB
  0
TABLE
  2
VIEW
  5
6
330
0
100
AcDbSymbolTable
 70
     0
  0
ENDTAB
  0
TABLE
  2
UCS
  5
7
330
0
100
AcDbSymbolTable
 70
     0
  0
ENDTAB
  0
TABLE
  2
APPID
  5
9
330
0
100
AcDbSymbolTable
 70
     2
  0
APPID
  5
12
330
9
100
AcDbSymbolTableRecord
100
AcDbRegAppTableRecord
  2
ACAD
 70
     0
  0
ENDTAB
  0
TABLE
  2
DIMSTYLE
  5
A
330
0
100
AcDbSymbolTable
 70
     1
  0
DIMSTYLE
105
27
330
A
100
AcDbSymbolTableRecord
100
AcDbDimStyleTableRecord
  2
ISO-25
 70
     0
  3

  4

  5

  6

  7

 40
1.0
 41
2.5
 42
0.625
 43
3.75
 44
1.25
 45
0.0
 46
0.0
 47
0.0
 48
0.0
140
2.5
141
2.5
142
0.0
143
0.03937007874016
144
1.0
145
0.0
146
1.0
147
0.625
 71
     0
 72
     0
 73
     0
 74
     0
 75
     0
 76
     0
 77
     1
 78
     8
170
     0
171
     3
172
     1
173
     0
174
     0
175
     0
176
     0
177
     0
178
     0
270
     2
271
     2
272
     2
273
     2
274
     3
340
11
275
     0
280
     0
281
     0
282
     0
283
     0
284
     8
285
     0
286
     0
287
     3
288
     0
  0
ENDTAB
  0
TABLE
  2
BLOCK_RECORD
  5
1
330
0
100
AcDbSymbolTable
 70
     1
  0
BLOCK_RECORD
  5
1F
330
1
100
AcDbSymbolTableRecord
100
AcDbBlockTableRecord
  2
*MODEL_SPACE
  0
BLOCK_RECORD
  5
1B
330
1
100
AcDbSymbolTableRecord
100
AcDbBlockTableRecord
  2
*PAPER_SPACE
  0
ENDTAB
  0
ENDSEC
  0
SECTION
  2
BLOCKS
  0
BLOCK
  5
20
330
1F
100
AcDbEntity
  8
0
100
AcDbBlockBegin
  2
*MODEL_SPACE
 70
     0
 10
0.0
 20
0.0
 30
0.0
  3
*MODEL_SPACE
  1

  0
ENDBLK
  5
21
330
1F
100
AcDbEntity
  8
0
100
AcDbBlockEnd
  0
BLOCK
  5
1C
330
1B
100
AcDbEntity
 67
     1
  8
0
100
AcDbBlockBegin
  2
*PAPER_SPACE
  1

  0
ENDBLK
  5
1D
330
1B
100
AcDbEntity
 67
     1
  8
0
100
AcDbBlockEnd
  0
ENDSEC
  0
SECTION
  2
ENTITIES
  0
LWPOLYLINE
  5
100
100
AcDbEntity
  8
Layer_1
 62
7
100
AcDbPolyline
 90
3
 70
0
 10
13.281783
 20
174.999317
 30
0.0
 10
38.261906
 20
197.987469
 30
0.0
 10
63.242026
 20
174.999317
 30
0.0
  0
LWPOLYLINE
  5
101
100
AcDbEntity
  8
Layer_1
 62
7
100
AcDbPolyline
 90
3
 70
0
 10
6.307657
 20
149.082390
 30
0.0
 10
6.307657
 20
169.956494
 30
0.0
 10
13.281783
 20
174.999317
 30
0.0
  0
LWPOLYLINE
  5
102
100
AcDbEntity
  8
Layer_1
 62
7
100
AcDbPolyline
 90
3
 70
0
 10
13.281783
 20
109.764432
 30
0.0
 10
6.307657
 20
116.631248
 30
0.0
 10
6.307657
 20
141.599151
 30
0.0
  0
LWPOLYLINE
  5
103
100
AcDbEntity
  8
Layer_1
 62
7
100
AcDbPolyline
 90
4
 70
0
 10
63.276349
 20
174.965001
 30
0.0
 10
63.092974
 20
208.997021
 30
0.0
 10
138.703990
 20
208.997021
 30
0.0
 10
138.703990
 20
174.965001
 30
0.0
  0
SPLINE
  5
104
100
AcDbEntity
  8
Layer_1
 62
7
100
AcDbSpline
 70
8
 71
3
 72
8
 73
4
 74
0
 40
0
 40
0
 40
0
 40
0
 40
1
 40
1
 40
1
 40
1
 10
13.292200
 20
174.988900
 30
0.0
 10
13.292200
 20
174.988900
 30
0.0
 10
13.294300
 20
174.092700
 30
0.0
 10
13.297800
 20
172.585300
 30
0.0
  0
SPLINE
  5
105
100
AcDbEntity
  8
Layer_1
 62
7
100
AcDbSpline
 70
8
 71
3
 72
8
 73
4
 74
0
 40
0
 40
0
 40
0
 40
0
 40
1
 40
1
 40
1
 40
1
 10
13.303400
 20
170.182800
 30
0.0
 10
13.305100
 20
169.442900
 30
0.0
 10
13.307000
 20
168.637300
 30
0.0
 10
13.309000
 20
167.780300
 30
0.0
  0
SPLINE
  5
106
100
AcDbEntity
  8
Layer_1
 62
7
100
AcDbSpline
 70
8
 71
3
 72
8
 73
4
 74
0
 40
0
 40
0
 40
0
 40
0
 40
1
 40
1
 40
1
 40
1
 10
13.314600
 20
165.377200
 30
0.0
 10
13.316400
 20
164.599800
 30
0.0
 10
13.318300
 20
163.796000
 30
0.0
 10
13.320200
 20
162.973800
 30
0.0
  0
SPLINE
  5
107
100
AcDbEntity
  8
Layer_1
 62
7
100
AcDbSpline
 70
8
 71
3
 72
8
 73
4
 74
0
 40
0
 40
0
 40
0
 40
0
 40
1
 40
1
 40
1
 40
1
 10
13.325800
 20
160.569700
 30
0.0
 10
13.327700
 20
159.775500
 30
0.0
 10
13.329600
 20
158.972200
 30
0.0
 10
13.331400
 20
158.166400
 30
0.0
  0
SPLINE
  5
108
100
AcDbEntity
  8
Layer_1
 62
7
100
AcDbSpline
 70
8
 71
3
 72
8
 73
4
 74
0
 40
0
 40
0
 40
0
 40
0
 40
1
 40
1
 40
1
 40
1
 10
13.337000
 20
155.763300
 30
0.0
 10
13.338900
 20
154.955500
 30
0.0
 10
13.340800
 20
154.151800
 30
0.0
 10
13.342700
 20
153.359200
 30
0.0
  0
SPLINE
  5
109
100
AcDbEntity
  8
Layer_1
 62
7
100
AcDbSpline
 70
8
 71
3
 72
8
 73
4
 74
0
 40
0
 40
0
 40
0
 40
0
 40
1
 40
1
 40
1
 40
1
 10
13.348300
 20
150.954800
 30
0.0
 10
13.350200
 20
150.129600
 30
0.0
 10
13.352100
 20
149.325400
 30
0.0
 10
13.353900
 20
148.550900
 30
0.0
  0
SPLINE
  5
10a
100
AcDbEntity
  8
Layer_1
 62
7
100
AcDbSpline
 70
8
 71
3
 72
8
 73
4
 74
0
 40
0
 40
0
 40
0
 40
0
 40
1
 40
1
 40
1
 40
1
 10
13.359500
 20
146.147100
 30
0.0
 10
13.361500
 20
145.280700
 30
0.0
 10
13.363400
 20
144.474100
 30
0.0
 10
13.365100
 20
143.743400
 30
0.0
  0
SPLINE
  5
10b
100
AcDbEntity
  8
Layer_1
 62
7
100
AcDbSpline
 70
8
 71
3
 72
8
 73
4
 74
0
 40
0
 40
0
 40
0
 40
0
 40
1
 40
1
 40
1
 40
1
 10
13.370700
 20
141.341000
 30
0.0
 10
13.373300
 20
140.214900
 30
0.0
 10
13.374800
 20
139.563400
 30
0.0
 10
13.374800
 20
139.563400
 30
0.0
  0
SPLINE
  5
10c
100
AcDbEntity
  8
Layer_1
 62
7
100
AcDbSpline
 70
8
 71
3
 72
8
 73
4
 74
0
 40
0
 40
0
 40
0
 40
0
 40
1
 40
1
 40
1
 40
1
 10
63.276300
 20
174.965000
 30
0.0
 10
63.276300
 20
174.965000
 30
0.0
 10
63.916200
 20
174.965000
 30
0.0
 10
65.078000
 20
174.965000
 30
0.0
  0
SPLINE
  5
10d
100
AcDbEntity
  8
Layer_1
 62
7
100
AcDbSpline
 70
8
 71
3
 72
8
 73
4
 74
0
 40
0
 40
0
 40
0
 40
0
 40
1
 40
1
 40
1
 40
1
 10
66.880800
 20
174.965000
 30
0.0
 10
67.427900
 20
174.965000
 30
0.0
 10
68.030600
 20
174.965000
 30
0.0
 10
68.683900
 20
174.965000
 30
0.0
  0
SPLINE
  5
10e
100
AcDbEntity
  8
Layer_1
 62
7
100
AcDbSpline
 70
8
 71
3
 72
8
 73
4
 74
0
 40
0
 40
0
 40
0
 40
0
 40
1
 40
1
 40
1
 40
1
 10
70.486800
 20
174.965000
 30
0.0
 10
71.060100
 20
174.965000
 30
0.0
 10
71.661600
 20
174.965000
 30
0.0
 10
72.289100
 20
174.965000
 30
0.0
  0
SPLINE
  5
10f
100
AcDbEntity
  8
Layer_1
 62
7
100
AcDbSpline
 70
8
 71
3
 72
8
 73
4
 74
0
 40
0
 40
0
 40
0
 40
0
 40
1
 40
1
 40
1
 40
1
 10
74.090700
 20
174.965000
 30
0.0
 10
74.674500
 20
174.965000
 30
0.0
 10
75.276100
 20
174.965000
 30
0.0
 10
75.894300
 20
174.965000
 30
0.0
  0
SPLINE
  5
110
100
AcDbEntity
  8
Layer_1
 62
7
100
AcDbSpline
 70
8
 71
3
 72
8
 73
4
 74
0
 40
0
 40
0
 40
0
 40
0
 40
1
 40
1
 40
1
 40
1
 10
77.696800
 20
174.965000
 30
0.0
 10
78.285500
 20
174.965000
 30
0.0
 10
78.886600
 20
174.965000
 30
0.0
 10
79.499100
 20
174.965000
 30
0.0
  0
SPLINE
  5
111
100
AcDbEntity
  8
Layer_1
 62
7
100
AcDbSpline
 70
8
 71
3
 72
8
 73
4
 74
0
 40
0
 40
0
 40
0
 40
0
 40
1
 40
1
 40
1
 40
1
 10
81.301500
 20
174.965000
 30
0.0
 10
81.893900
 20
174.965000
 30
0.0
 10
82.495300
 20
174.965000
 30
0.0
 10
83.104900
 20
174.965000
 30
0.0
  0
SPLINE
  5
112
100
AcDbEntity
  8
Layer_1
 62
7
100
AcDbSpline
 70
8
 71
3
 72
8
 73
4
 74
0
 40
0
 40
0
 40
0
 40
0
 40
1
 40
1
 40
1
 40
1
 10
84.907100
 20
174.965000
 30
0.0
 10
85.501600
 20
174.965000
 30
0.0
 10
86.102600
 20
174.965000
 30
0.0
 10
86.709400
 20
174.965000
 30
0.0
  0
SPLINE
  5
113
100
AcDbEntity
  8
Layer_1
 62
7
100
AcDbSpline
 70
8
 71
3
 72
8
 73
4
 74
0
 40
0
 40
0
 40
0
 40
0
 40
1
 40
1
 40
1
 40
1
 10
88.511500
 20
174.965000
 30
0.0
 10
89.107700
 20
174.965000
 30
0.0
 10
89.708500
 20
174.965000
 30
0.0
 10
90.313400
 20
174.965000
 30
0.0
  0
SPLINE
  5
114
100
AcDbEntity
  8
Layer_1
 62
7
100
AcDbSpline
 70
8
 71
3
 72
8
 73
4
 74
0
 40
0
 40
0
 40
0
 40
0
 40
1
 40
1
 40
1
 40
1
 10
92.115400
 20
174.965000
 30
0.0
 10
92.713200
 20
174.965000
 30
0.0
 10
93.314200
 20
174.965000
 30
0.0
 10
93.917700
 20
174.965000
 30
0.0
  0
SPLINE
  5
115
100
AcDbEntity
  8
Layer_1
 62
7
100
AcDbSpline
 70
8
 71
3
 72
8
 73
4
 74
0
 40
0
 40
0
 40
0
 40
0
 40
1
 40
1
 40
1
 40
1
 10
95.720500
 20
174.965000
 30
0.0
 10
96.319900
 20
174.965000
 30
0.0
 10
96.921100
 20
174.965000
 30
0.0
 10
97.523500
 20
174.965000
 30
0.0
  0
SPLINE
  5
116
100
AcDbEntity
  8
Layer_1
 62
7
100
AcDbSpline
 70
8
 71
3
 72
8
 73
4
 74
0
 40
0
 40
0
 40
0
 40
0
 40
1
 40
1
 40
1
 40
1
 10
99.326300
 20
174.965000
 30
0.0
 10
99.926500
 20
174.965000
 30
0.0
 10
100.527000
 20
174.965000
 30
0.0
 10
101.128000
 20
174.965000
 30
0.0
  0
SPLINE
  5
117
100
AcDbEntity
  8
Layer_1
 62
7
100
AcDbSpline
 70
8
 71
3
 72
8
 73
4
 74
0
 40
0
 40
0
 40
0
 40
0
 40
1
 40
1
 40
1
 40
1
 10
102.930000
 20
174.965000
 30
0.0
 10
103.532000
 20
174.965000
 30
0.0
 10
104.133000
 20
174.965000
 30
0.0
 10
104.733000
 20
174.965000
 30
0.0
  0
SPLINE
  5
118
100
AcDbEntity
  8
Layer_1
 62
7
100
AcDbSpline
 70
8
 71
3
 72
8
 73
4
 74
0
 40
0
 40
0
 40
0
 40
0
 40
1
 40
1
 40
1
 40
1
 10
106.535000
 20
174.965000
 30
0.0
 10
107.139000
 20
174.965000
 30
0.0
 10
107.740000
 20
174.965000
 30
0.0
 10
108.339000
 20
174.965000
 30
0.0
  0
SPLINE
  5
119
100
AcDbEntity
  8
Layer_1
 62
7
100
AcDbSpline
 70
8
 71
3
 72
8
 73
4
 74
0
 40
0
 40
0
 40
0
 40
0
 40
1
 40
1
 40
1
 40
1
 10
110.142000
 20
174.965000
 30
0.0
 10
110.747000
 20
174.965000
 30
0.0
 10
111.348000
 20
174.965000
 30
0.0
 10
111.945000
 20
174.965000
 30
0.0
  0
SPLINE
  5
11a
100
AcDbEntity
  8
Layer_1
 62
7
100
AcDbSpline
 70
8
 71
3
 72
8
 73
4
 74
0
 40
0
 40
0
 40
0
 40
0
 40
1
 40
1
 40
1
 40
1
 10
113.747000
 20
174.965000
 30
0.0
 10
114.353000
 20
174.965000
 30
0.0
 10
114.954000
 20
174.965000
 30
0.0
 10
115.549000
 20
174.965000
 30
0.0
  0
SPLINE
  5
11b
100
AcDbEntity
  8
Layer_1
 62
7
100
AcDbSpline
 70
8
 71
3
 72
8
 73
4
 74
0
 40
0
 40
0
 40
0
 40
0
 40
1
 40
1
 40
1
 40
1
 10
117.352000
 20
174.965000
 30
0.0
 10
117.960000
 20
174.965000
 30
0.0
 10
118.561000
 20
174.965000
 30
0.0
 10
119.154000
 20
174.965000
 30
0.0
  0
SPLINE
  5
11c
100
AcDbEntity
  8
Layer_1
 62
7
100
AcDbSpline
 70
8
 71
3
 72
8
 73
4
 74
0
 40
0
 40
0
 40
0
 40
0
 40
1
 40
1
 40
1
 40
1
 10
120.957000
 20
174.965000
 30
0.0
 10
121.568000
 20
174.965000
 30
0.0
 10
122.169000
 20
174.965000
 30
0.0
 10
122.760000
 20
174.965000
 30
0.0
  0
SPLINE
  5
11d
100
AcDbEntity
  8
Layer_1
 62
7
100
AcDbSpline
 70
8
 71
3
 72
8
 73
4
 74
0
 40
0
 40
0
 40
0
 40
0
 40
1
 40
1
 40
1
 40
1
 10
124.562000
 20
174.965000
 30
0.0
 10
125.177000
 20
174.965000
 30
0.0
 10
125.779000
 20
174.965000
 30
0.0
 10
126.365000
 20
174.965000
 30
0.0
  0
SPLINE
  5
11e
100
AcDbEntity
  8
Layer_1
 62
7
100
AcDbSpline
 70
8
 71
3
 72
8
 73
4
 74
0
 40
0
 40
0
 40
0
 40
0
 40
1
 40
1
 40
1
 40
1
 10
128.167000
 20
174.965000
 30
0.0
 10
128.790000
 20
174.965000
 30
0.0
 10
129.391000
 20
174.965000
 30
0.0
 10
129.969000
 20
174.965000
 30
0.0
  0
SPLINE
  5
11f
100
AcDbEntity
  8
Layer_1
 62
7
100
AcDbSpline
 70
8
 71
3
 72
8
 73
4
 74
0
 40
0
 40
0
 40
0
 40
0
 40
1
 40
1
 40
1
 40
1
 10
131.772000
 20
174.965000
 30
0.0
 10
132.411000
 20
174.965000
 30
0.0
 10
133.013000
 20
174.965000
 30
0.0
 10
133.575000
 20
174.965000
 30
0.0
  0
SPLINE
  5
120
100
AcDbEntity
  8
Layer_1
 62
7
100
AcDbSpline
 70
8
 71
3
 72
8
 73
4
 74
0
 40
0
 40
0
 40
0
 40
0
 40
1
 40
1
 40
1
 40
1
 10
135.378000
 20
174.965000
 30
0.0
 10
136.084000
 20
174.965000
 30
0.0
 10
136.688000
 20
174.965000
 30
0.0
 10
137.181000
 20
174.965000
 30
0.0
  0
SPLINE
  5
121
100
AcDbEntity
  8
Layer_1
 62
7
100
AcDbSpline
 70
8
 71
3
 72
8
 73
4
 74
0
 40
0
 40
0
 40
0
 40
0
 40
1
 40
1
 40
1
 40
1
 10
138.704000
 20
174.965000
 30
0.0
 10
138.704000
 20
174.965000
 30
0.0
 10
138.704000
 20
174.096900
 30
0.0
 10
138.704000
 20
172.561100
 30
0.0
  0
SPLINE
  5
122
100
AcDbEntity
  8
Layer_1
 62
7
100
AcDbSpline
 70
8
 71
3
 72
8
 73
4
 74
0
 40
0
 40
0
 40
0
 40
0
 40
1
 40
1
 40
1
 40
1
 10
138.704000
 20
170.157600
 30
0.0
 10
138.704000
 20
169.425200
 30
0.0
 10
138.704000
 20
168.621400
 30
0.0
 10
138.704000
 20
167.754800
 30
0.0
  0
SPLINE
  5
123
100
AcDbEntity
  8
Layer_1
 62
7
100
AcDbSpline
 70
8
 71
3
 72
8
 73
4
 74
0
 40
0
 40
0
 40
0
 40
0
 40
1
 40
1
 40
1
 40
1
 10
138.704000
 20
165.350500
 30
0.0
 10
138.704000
 20
164.582700
 30
0.0
 10
138.704000
 20
163.780200
 30
0.0
 10
138.704000
 20
162.947500
 30
0.0
  0
SPLINE
  5
124
100
AcDbEntity
  8
Layer_1
 62
7
100
AcDbSpline
 70
8
 71
3
 72
8
 73
4
 74
0
 40
0
 40
0
 40
0
 40
0
 40
1
 40
1
 40
1
 40
1
 10
138.704000
 20
160.545100
 30
0.0
 10
138.704000
 20
159.763700
 30
0.0
 10
138.704000
 20
158.961800
 30
0.0
 10
138.704000
 20
158.142400
 30
0.0
  0
SPLINE
  5
125
100
AcDbEntity
  8
Layer_1
 62
7
100
AcDbSpline
 70
8
 71
3
 72
8
 73
4
 74
0
 40
0
 40
0
 40
0
 40
0
 40
1
 40
1
 40
1
 40
1
 10
138.704000
 20
155.738500
 30
0.0
 10
138.704000
 20
154.949000
 30
0.0
 10
138.704000
 20
154.146800
 30
0.0
 10
138.704000
 20
153.334400
 30
0.0
  0
SPLINE
  5
126
100
AcDbEntity
  8
Layer_1
 62
7
100
AcDbSpline
 70
8
 71
3
 72
8
 73
4
 74
0
 40
0
 40
0
 40
0
 40
0
 40
1
 40
1
 40
1
 40
1
 10
138.704000
 20
150.931800
 30
0.0
 10
138.704000
 20
150.137200
 30
0.0
 10
138.704000
 20
149.335300
 30
0.0
 10
138.704000
 20
148.528100
 30
0.0
  0
SPLINE
  5
127
100
AcDbEntity
  8
Layer_1
 62
7
100
AcDbSpline
 70
8
 71
3
 72
8
 73
4
 74
0
 40
0
 40
0
 40
0
 40
0
 40
1
 40
1
 40
1
 40
1
 10
138.704000
 20
146.124200
 30
0.0
 10
138.704000
 20
145.325400
 30
0.0
 10
138.704000
 20
144.523600
 30
0.0
 10
138.704000
 20
143.720700
 30
0.0
  0
SPLINE
  5
128
100
AcDbEntity
  8
Layer_1
 62
7
100
AcDbSpline
 70
8
 71
3
 72
8
 73
4
 74
0
 40
0
 40
0
 40
0
 40
0
 40
1
 40
1
 40
1
 40
1
 10
138.704000
 20
141.316900
 30
0.0
 10
138.704000
 20
140.514300
 30
0.0
 10
138.704000
 20
139.712600
 30
0.0
 10
138.704000
 20
138.913700
 30
0.0
  0
SPLINE
  5
129
100
AcDbEntity
  8
Layer_1
 62
7
100
AcDbSpline
 70
8
 71
3
 72
8
 73
4
 74
0
 40
0
 40
0
 40
0
 40
0
 40
1
 40
1
 40
1
 40
1
 10
138.704000
 20
136.510500
 30
0.0
 10
138.704000
 20
135.703600
 30
0.0
 10
138.704000
 20
134.901700
 30
0.0
 10
138.704000
 20
134.106800
 30
0.0
  0
SPLINE
  5
12a
100
AcDbEntity
  8
Layer_1
 62
7
100
AcDbSpline
 70
8
 71
3
 72
8
 73
4
 74
0
 40
0
 40
0
 40
0
 40
0
 40
1
 40
1
 40
1
 40
1
 10
138.704000
 20
131.703700
 30
0.0
 10
138.704000
 20
130.891900
 30
0.0
 10
138.704000
 20
130.090100
 30
0.0
 10
138.704000
 20
129.300500
 30
0.0
  0
SPLINE
  5
12b
100
AcDbEntity
  8
Layer_1
 62
7
100
AcDbSpline
 70
8
 71
3
 72
8
 73
4
 74
0
 40
0
 40
0
 40
0
 40
0
 40
1
 40
1
 40
1
 40
1
 10
138.704000
 20
126.897200
 30
0.0
 10
138.704000
 20
126.077900
 30
0.0
 10
138.704000
 20
125.275600
 30
0.0
 10
138.704000
 20
124.493200
 30
0.0
  0
SPLINE
  5
12c
100
AcDbEntity
  8
Layer_1
 62
7
100
AcDbSpline
 70
8
 71
3
 72
8
 73
4
 74
0
 40
0
 40
0
 40
0
 40
0
 40
1
 40
1
 40
1
 40
1
 10
138.704000
 20
122.089600
 30
0.0
 10
138.704000
 20
121.258000
 30
0.0
 10
138.704000
 20
120.455700
 30
0.0
 10
138.704000
 20
119.686900
 30
0.0
  0
SPLINE
  5
12d
100
AcDbEntity
  8
Layer_1
 62
7
100
AcDbSpline
 70
8
 71
3
 72
8
 73
4
 74
0
 40
0
 40
0
 40
0
 40
0
 40
1
 40
1
 40
1
 40
1
 10
138.704000
 20
117.283300
 30
0.0
 10
138.704000
 20
116.419800
 30
0.0
 10
138.704000
 20
115.616000
 30
0.0
 10
138.704000
 20
114.880000
 30
0.0
  0
SPLINE
  5
12e
100
AcDbEntity
  8
Layer_1
 62
7
100
AcDbSpline
 70
8
 71
3
 72
8
 73
4
 74
0
 40
0
 40
0
 40
0
 40
0
 40
1
 40
1
 40
1
 40
1
 10
138.704000
 20
112.477000
 30
0.0
 10
138.704000
 20
111.300000
 30
0.0
 10
138.704000
 20
110.473000
 30
0.0
 10
138.704000
 20
110.073000
 30
0.0
  0
LWPOLYLINE
  5
12f
100
AcDbEntity
  8
Layer_1
 62
7
100
AcDbPolyline
 90
2
 70
0
 10
63.276331
 20
109.798740
 30
0.0
 10
13.281765
 20
109.764440
 30
0.0
  0
SPLINE
  5
130
100
AcDbEntity
  8
Layer_1
 62
7
100
AcDbSpline
 70
8
 71
3
 72
8
 73
4
 74
0
 40
0
 40
0
 40
0
 40
0
 40
1
 40
1
 40
1
 40
1
 10
63.276300
 20
174.965000
 30
0.0
 10
63.276300
 20
174.965000
 30
0.0
 10
63.276300
 20
174.096900
 30
0.0
 10
63.276300
 20
172.561100
 30
0.0
  0
SPLINE
  5
131
100
AcDbEntity
  8
Layer_1
 62
7
100
AcDbSpline
 70
8
 71
3
 72
8
 73
4
 74
0
 40
0
 40
0
 40
0
 40
0
 40
1
 40
1
 40
1
 40
1
 10
63.276300
 20
170.157600
 30
0.0
 10
63.276300
 20
169.425200
 30
0.0
 10
63.276300
 20
168.621400
 30
0.0
 10
63.276300
 20
167.754800
 30
0.0
  0
SPLINE
  5
132
100
AcDbEntity
  8
Layer_1
 62
7
100
AcDbSpline
 70
8
 71
3
 72
8
 73
4
 74
0
 40
0
 40
0
 40
0
 40
0
 40
1
 40
1
 40
1
 40
1
 10
63.276300
 20
165.350500
 30
0.0
 10
63.276300
 20
164.582700
 30
0.0
 10
63.276300
 20
163.780200
 30
0.0
 10
63.276300
 20
162.947500
 30
0.0
  0
SPLINE
  5
133
100
AcDbEntity
  8
Layer_1
 62
7
100
AcDbSpline
 70
8
 71
3
 72
8
 73
4
 74
0
 40
0
 40
0
 40
0
 40
0
 40
1
 40
1
 40
1
 40
1
 10
63.276300
 20
160.545100
 30
0.0
 10
63.276300
 20
159.763700
 30
0.0
 10
63.276300
 20
158.961800
 30
0.0
 10
63.276300
 20
158.142400
 30
0.0
  0
SPLINE
  5
134
100
AcDbEntity
  8
Layer_1
 62
7
100
AcDbSpline
 70
8
 71
3
 72
8
 73
4
 74
0
 40
0
 40
0
 40
0
 40
0
 40
1
 40
1
 40
1
 40
1
 10
63.276300
 20
155.738500
 30
0.0
 10
63.276300
 20
154.949000
 30
0.0
 10
63.276300
 20
154.146800
 30
0.0
 10
63.276300
 20
153.334400
 30
0.0
  0
SPLINE
  5
135
100
AcDbEntity
  8
Layer_1
 62
7
100
AcDbSpline
 70
8
 71
3
 72
8
 73
4
 74
0
 40
0
 40
0
 40
0
 40
0
 40
1
 40
1
 40
1
 40
1
 10
63.276300
 20
150.931800
 30
0.0
 10
63.276300
 20
150.137200
 30
0.0
 10
63.276300
 20
149.335300
 30
0.0
 10
63.276300
 20
148.528100
 30
0.0
  0
SPLINE
  5
136
100
AcDbEntity
  8
Layer_1
 62
7
100
AcDbSpline
 70
8
 71
3
 72
8
 73
4
 74
0
 40
0
 40
0
 40
0
 40
0
 40
1
 40
1
 40
1
 40
1
 10
63.276300
 20
146.124200
 30
0.0
 10
63.276300
 20
145.325400
 30
0.0
 10
63.276300
 20
144.523600
 30
0.0
 10
63.276300
 20
143.720700
 30
0.0
  0
SPLINE
  5
137
100
AcDbEntity
  8
Layer_1
 62
7
100
AcDbSpline
 70
8
 71
3
 72
8
 73
4
 74
0
 40
0
 40
0
 40
0
 40
0
 40
1
 40
1
 40
1
 40
1
 10
63.276300
 20
141.316900
 30
0.0
 10
63.276300
 20
140.514300
 30
0.0
 10
63.276300
 20
139.712600
 30
0.0
 10
63.276300
 20
138.913700
 30
0.0
  0
SPLINE
  5
138
100
AcDbEntity
  8
Layer_1
 62
7
100
AcDbSpline
 70
8
 71
3
 72
8
 73
4
 74
0
 40
0
 40
0
 40
0
 40
0
 40
1
 40
1
 40
1
 40
1
 10
63.276300
 20
136.510400
 30
0.0
 10
63.276300
 20
135.703600
 30
0.0
 10
63.276300
 20
134.901700
 30
0.0
 10
63.276300
 20
134.106800
 30
0.0
  0
SPLINE
  5
139
100
AcDbEntity
  8
Layer_1
 62
7
100
AcDbSpline
 70
8
 71
3
 72
8
 73
4
 74
0
 40
0
 40
0
 40
0
 40
0
 40
1
 40
1
 40
1
 40
1
 10
63.276300
 20
131.703700
 30
0.0
 10
63.276300
 20
130.891900
 30
0.0
 10
63.276300
 20
130.090100
 30
0.0
 10
63.276300
 20
129.300500
 30
0.0
  0
SPLINE
  5
13a
100
AcDbEntity
  8
Layer_1
 62
7
100
AcDbSpline
 70
8
 71
3
 72
8
 73
4
 74
0
 40
0
 40
0
 40
0
 40
0
 40
1
 40
1
 40
1
 40
1
 10
63.276300
 20
126.897200
 30
0.0
 10
63.276300
 20
126.077900
 30
0.0
 10
63.276300
 20
125.275600
 30
0.0
 10
63.276300
 20
124.493200
 30
0.0
  0
SPLINE
  5
13b
100
AcDbEntity
  8
Layer_1
 62
7
100
AcDbSpline
 70
8
 71
3
 72
8
 73
4
 74
0
 40
0
 40
0
 40
0
 40
0
 40
1
 40
1
 40
1
 40
1
 10
63.276300
 20
122.089600
 30
0.0
 10
63.276300
 20
121.258000
 30
0.0
 10
63.276300
 20
120.455700
 30
0.0
 10
63.276300
 20
119.686900
 30
0.0
  0
SPLINE
  5
13c
100
AcDbEntity
  8
Layer_1
 62
7
100
AcDbSpline
 70
8
 71
3
 72
8
 73
4
 74
0
 40
0
 40
0
 40
0
 40
0
 40
1
 40
1
 40
1
 40
1
 10
63.276300
 20
117.283200
 30
0.0
 10
63.276300
 20
116.419800
 30
0.0
 10
63.276300
 20
115.616000
 30
0.0
 10
63.276300
 20
114.880000
 30
0.0
  0
SPLINE
  5
13d
100
AcDbEntity
  8
Layer_1
 62
7
100
AcDbSpline
 70
8
 71
3
 72
8
 73
4
 74
0
 40
0
 40
0
 40
0
 40
0
 40
1
 40
1
 40
1
 40
1
 10
63.276300
 20
112.477000
 30
0.0
 10
63.276300
 20
111.300000
 30
0.0
 10
63.276300
 20
110.473000
 30
0.0
 10
63.276300
 20
110.073000
 30
0.0
  0
LWPOLYLINE
  5
13e
100
AcDbEntity
  8
Layer_1
 62
7
100
AcDbPolyline
 90
2
 70
0
 10
63.276331
 20
109.798740
 30
0.0
 10
138.703990
 20
109.798760
 30
0.0
  0
LWPOLYLINE
  5
13f
100
AcDbEntity
  8
Layer_1
 62
7
100
AcDbPolyline
 90
2
 70
0
 10
13.374814
 20
139.563444
 30
0.0
 10
13.281794
 20
109.764430
 30
0.0
  0
LWPOLYLINE
  5
140
100
AcDbEntity
  8
Layer_1
 62
7
100
AcDbPolyline
 90
3
 70
0
 10
138.703990
 20
174.965001
 30
0.0
 10
163.684110
 20
197.953154
 30
0.0
 10
188.664230
 20
174.965001
 30
0.0
  0
LWPOLYLINE
  5
141
100
AcDbEntity
  8
Layer_1
 62
7
100
AcDbPolyline
 90
4
 70
0
 10
188.698550
 20
174.930684
 30
0.0
 10
188.515180
 20
208.962705
 30
0.0
 10
264.126190
 20
208.962705
 30
0.0
 10
264.126190
 20
174.930684
 30
0.0
  0
SPLINE
  5
142
100
AcDbEntity
  8
Layer_1
 62
7
100
AcDbSpline
 70
8
 71
3
 72
8
 73
4
 74
0
 40
0
 40
0
 40
0
 40
0
 40
1
 40
1
 40
1
 40
1
 10
138.714000
 20
174.954600
 30
0.0
 10
138.714000
 20
174.954600
 30
0.0
 10
138.716000
 20
174.058300
 30
0.0
 10
138.720000
 20
172.551000
 30
0.0
  0
SPLINE
  5
143
100
AcDbEntity
  8
Layer_1
 62
7
100
AcDbSpline
 70
8
 71
3
 72
8
 73
4
 74
0
 40
0
 40
0
 40
0
 40
0
 40
1
 40
1
 40
1
 40
1
 10
138.726000
 20
170.148500
 30
0.0
 10
138.727000
 20
169.408600
 30
0.0
 10
138.729000
 20
168.603000
 30
0.0
 10
138.731000
 20
167.746000
 30
0.0
  0
SPLINE
  5
144
100
AcDbEntity
  8
Layer_1
 62
7
100
AcDbSpline
 70
8
 71
3
 72
8
 73
4
 74
0
 40
0
 40
0
 40
0
 40
0
 40
1
 40
1
 40
1
 40
1
 10
138.737000
 20
165.342900
 30
0.0
 10
138.739000
 20
164.565500
 30
0.0
 10
138.741000
 20
163.761700
 30
0.0
 10
138.742000
 20
162.939500
 30
0.0
  0
SPLINE
  5
145
100
AcDbEntity
  8
Layer_1
 62
7
100
AcDbSpline
 70
8
 71
3
 72
8
 73
4
 74
0
 40
0
 40
0
 40
0
 40
0
 40
1
 40
1
 40
1
 40
1
 10
138.748000
 20
160.535300
 30
0.0
 10
138.750000
 20
159.741200
 30
0.0
 10
138.752000
 20
158.937900
 30
0.0
 10
138.754000
 20
158.132100
 30
0.0
  0
SPLINE
  5
146
100
AcDbEntity
  8
Layer_1
 62
7
100
AcDbSpline
 70
8
 71
3
 72
8
 73
4
 74
0
 40
0
 40
0
 40
0
 40
0
 40
1
 40
1
 40
1
 40
1
 10
138.759000
 20
155.729000
 30
0.0
 10
138.761000
 20
154.921100
 30
0.0
 10
138.763000
 20
154.117500
 30
0.0
 10
138.765000
 20
153.324900
 30
0.0
  0
SPLINE
  5
147
100
AcDbEntity
  8
Layer_1
 62
7
100
AcDbSpline
 70
8
 71
3
 72
8
 73
4
 74
0
 40
0
 40
0
 40
0
 40
0
 40
1
 40
1
 40
1
 40
1
 10
138.770000
 20
150.920500
 30
0.0
 10
138.772000
 20
150.095300
 30
0.0
 10
138.774000
 20
149.291100
 30
0.0
 10
138.776000
 20
148.516600
 30
0.0
  0
SPLINE
  5
148
100
AcDbEntity
  8
Layer_1
 62
7
100
AcDbSpline
 70
8
 71
3
 72
8
 73
4
 74
0
 40
0
 40
0
 40
0
 40
0
 40
1
 40
1
 40
1
 40
1
 10
138.782000
 20
146.112800
 30
0.0
 10
138.784000
 20
145.246400
 30
0.0
 10
138.786000
 20
144.439700
 30
0.0
 10
138.787000
 20
143.709100
 30
0.0
  0
SPLINE
  5
149
100
AcDbEntity
  8
Layer_1
 62
7
100
AcDbSpline
 70
8
 71
3
 72
8
 73
4
 74
0
 40
0
 40
0
 40
0
 40
0
 40
1
 40
1
 40
1
 40
1
 10
138.793000
 20
141.306700
 30
0.0
 10
138.795000
 20
140.180500
 30
0.0
 10
138.797000
 20
139.529100
 30
0.0
 10
138.797000
 20
139.529100
 30
0.0
  0
SPLINE
  5
14a
100
AcDbEntity
  8
Layer_1
 62
7
100
AcDbSpline
 70
8
 71
3
 72
8
 73
4
 74
0
 40
0
 40
0
 40
0
 40
0
 40
1
 40
1
 40
1
 40
1
 10
188.699000
 20
174.930700
 30
0.0
 10
188.699000
 20
174.930700
 30
0.0
 10
189.338000
 20
174.930700
 30
0.0
 10
190.500000
 20
174.930700
 30
0.0
  0
SPLINE
  5
14b
100
AcDbEntity
  8
Layer_1
 62
7
100
AcDbSpline
 70
8
 71
3
 72
8
 73
4
 74
0
 40
0
 40
0
 40
0
 40
0
 40
1
 40
1
 40
1
 40
1
 10
192.303000
 20
174.930700
 30
0.0
 10
192.850000
 20
174.930700
 30
0.0
 10
193.453000
 20
174.930700
 30
0.0
 10
194.106000
 20
174.930700
 30
0.0
  0
SPLINE
  5
14c
100
AcDbEntity
  8
Layer_1
 62
7
100
AcDbSpline
 70
8
 71
3
 72
8
 73
4
 74
0
 40
0
 40
0
 40
0
 40
0
 40
1
 40
1
 40
1
 40
1
 10
195.909000
 20
174.930700
 30
0.0
 10
196.482000
 20
174.930700
 30
0.0
 10
197.084000
 20
174.930700
 30
0.0
 10
197.711000
 20
174.930700
 30
0.0
  0
SPLINE
  5
14d
100
AcDbEntity
  8
Layer_1
 62
7
100
AcDbSpline
 70
8
 71
3
 72
8
 73
4
 74
0
 40
0
 40
0
 40
0
 40
0
 40
1
 40
1
 40
1
 40
1
 10
199.513000
 20
174.930700
 30
0.0
 10
200.097000
 20
174.930700
 30
0.0
 10
200.698000
 20
174.930700
 30
0.0
 10
201.316000
 20
174.930700
 30
0.0
  0
SPLINE
  5
14e
100
AcDbEntity
  8
Layer_1
 62
7
100
AcDbSpline
 70
8
 71
3
 72
8
 73
4
 74
0
 40
0
 40
0
 40
0
 40
0
 40
1
 40
1
 40
1
 40
1
 10
203.119000
 20
174.930700
 30
0.0
 10
203.708000
 20
174.930700
 30
0.0
 10
204.309000
 20
174.930700
 30
0.0
 10
204.921000
 20
174.930700
 30
0.0
  0
SPLINE
  5
14f
100
AcDbEntity
  8
Layer_1
 62
7
100
AcDbSpline
 70
8
 71
3
 72
8
 73
4
 74
0
 40
0
 40
0
 40
0
 40
0
 40
1
 40
1
 40
1
 40
1
 10
206.724000
 20
174.930700
 30
0.0
 10
207.316000
 20
174.930700
 30
0.0
 10
207.918000
 20
174.930700
 30
0.0
 10
208.527000
 20
174.930700
 30
0.0
  0
SPLINE
  5
150
100
AcDbEntity
  8
Layer_1
 62
7
100
AcDbSpline
 70
8
 71
3
 72
8
 73
4
 74
0
 40
0
 40
0
 40
0
 40
0
 40
1
 40
1
 40
1
 40
1
 10
210.329000
 20
174.930700
 30
0.0
 10
210.924000
 20
174.930700
 30
0.0
 10
211.525000
 20
174.930700
 30
0.0
 10
212.132000
 20
174.930700
 30
0.0
  0
SPLINE
  5
151
100
AcDbEntity
  8
Layer_1
 62
7
100
AcDbSpline
 70
8
 71
3
 72
8
 73
4
 74
0
 40
0
 40
0
 40
0
 40
0
 40
1
 40
1
 40
1
 40
1
 10
213.934000
 20
174.930700
 30
0.0
 10
214.530000
 20
174.930700
 30
0.0
 10
215.131000
 20
174.930700
 30
0.0
 10
215.736000
 20
174.930700
 30
0.0
  0
SPLINE
  5
152
100
AcDbEntity
  8
Layer_1
 62
7
100
AcDbSpline
 70
8
 71
3
 72
8
 73
4
 74
0
 40
0
 40
0
 40
0
 40
0
 40
1
 40
1
 40
1
 40
1
 10
217.538000
 20
174.930700
 30
0.0
 10
218.135000
 20
174.930700
 30
0.0
 10
218.736000
 20
174.930700
 30
0.0
 10
219.340000
 20
174.930700
 30
0.0
  0
SPLINE
  5
153
100
AcDbEntity
  8
Layer_1
 62
7
100
AcDbSpline
 70
8
 71
3
 72
8
 73
4
 74
0
 40
0
 40
0
 40
0
 40
0
 40
1
 40
1
 40
1
 40
1
 10
221.143000
 20
174.930700
 30
0.0
 10
221.742000
 20
174.930700
 30
0.0
 10
222.343000
 20
174.930700
 30
0.0
 10
222.946000
 20
174.930700
 30
0.0
  0
SPLINE
  5
154
100
AcDbEntity
  8
Layer_1
 62
7
100
AcDbSpline
 70
8
 71
3
 72
8
 73
4
 74
0
 40
0
 40
0
 40
0
 40
0
 40
1
 40
1
 40
1
 40
1
 10
224.749000
 20
174.930700
 30
0.0
 10
225.349000
 20
174.930700
 30
0.0
 10
225.949000
 20
174.930700
 30
0.0
 10
226.550000
 20
174.930700
 30
0.0
  0
SPLINE
  5
155
100
AcDbEntity
  8
Layer_1
 62
7
100
AcDbSpline
 70
8
 71
3
 72
8
 73
4
 74
0
 40
0
 40
0
 40
0
 40
0
 40
1
 40
1
 40
1
 40
1
 10
228.353000
 20
174.930700
 30
0.0
 10
228.954000
 20
174.930700
 30
0.0
 10
229.555000
 20
174.930700
 30
0.0
 10
230.155000
 20
174.930700
 30
0.0
  0
SPLINE
  5
156
100
AcDbEntity
  8
Layer_1
 62
7
100
AcDbSpline
 70
8
 71
3
 72
8
 73
4
 74
0
 40
0
 40
0
 40
0
 40
0
 40
1
 40
1
 40
1
 40
1
 10
231.958000
 20
174.930700
 30
0.0
 10
232.561000
 20
174.930700
 30
0.0
 10
233.162000
 20
174.930700
 30
0.0
 10
233.761000
 20
174.930700
 30
0.0
  0
SPLINE
  5
157
100
AcDbEntity
  8
Layer_1
 62
7
100
AcDbSpline
 70
8
 71
3
 72
8
 73
4
 74
0
 40
0
 40
0
 40
0
 40
0
 40
1
 40
1
 40
1
 40
1
 10
235.564000
 20
174.930700
 30
0.0
 10
236.169000
 20
174.930700
 30
0.0
 10
236.770000
 20
174.930700
 30
0.0
 10
237.367000
 20
174.930700
 30
0.0
  0
SPLINE
  5
158
100
AcDbEntity
  8
Layer_1
 62
7
100
AcDbSpline
 70
8
 71
3
 72
8
 73
4
 74
0
 40
0
 40
0
 40
0
 40
0
 40
1
 40
1
 40
1
 40
1
 10
239.169000
 20
174.930700
 30
0.0
 10
239.775000
 20
174.930700
 30
0.0
 10
240.376000
 20
174.930700
 30
0.0
 10
240.972000
 20
174.930700
 30
0.0
  0
SPLINE
  5
159
100
AcDbEntity
  8
Layer_1
 62
7
100
AcDbSpline
 70
8
 71
3
 72
8
 73
4
 74
0
 40
0
 40
0
 40
0
 40
0
 40
1
 40
1
 40
1
 40
1
 10
242.774000
 20
174.930700
 30
0.0
 10
243.382000
 20
174.930700
 30
0.0
 10
243.983000
 20
174.930700
 30
0.0
 10
244.576000
 20
174.930700
 30
0.0
  0
SPLINE
  5
15a
100
AcDbEntity
  8
Layer_1
 62
7
100
AcDbSpline
 70
8
 71
3
 72
8
 73
4
 74
0
 40
0
 40
0
 40
0
 40
0
 40
1
 40
1
 40
1
 40
1
 10
246.379000
 20
174.930700
 30
0.0
 10
246.990000
 20
174.930700
 30
0.0
 10
247.592000
 20
174.930700
 30
0.0
 10
248.182000
 20
174.930700
 30
0.0
  0
SPLINE
  5
15b
100
AcDbEntity
  8
Layer_1
 62
7
100
AcDbSpline
 70
8
 71
3
 72
8
 73
4
 74
0
 40
0
 40
0
 40
0
 40
0
 40
1
 40
1
 40
1
 40
1
 10
249.984000
 20
174.930700
 30
0.0
 10
250.599000
 20
174.930700
 30
0.0
 10
251.201000
 20
174.930700
 30
0.0
 10
251.787000
 20
174.930700
 30
0.0
  0
SPLINE
  5
15c
100
AcDbEntity
  8
Layer_1
 62
7
100
AcDbSpline
 70
8
 71
3
 72
8
 73
4
 74
0
 40
0
 40
0
 40
0
 40
0
 40
1
 40
1
 40
1
 40
1
 10
253.590000
 20
174.930700
 30
0.0
 10
254.212000
 20
174.930700
 30
0.0
 10
254.813000
 20
174.930700
 30
0.0
 10
255.391000
 20
174.930700
 30
0.0
  0
SPLINE
  5
15d
100
AcDbEntity
  8
Layer_1
 62
7
100
AcDbSpline
 70
8
 71
3
 72
8
 73
4
 74
0
 40
0
 40
0
 40
0
 40
0
 40
1
 40
1
 40
1
 40
1
 10
257.194000
 20
174.930700
 30
0.0
 10
257.833000
 20
174.930700
 30
0.0
 10
258.435000
 20
174.930700
 30
0.0
 10
258.997000
 20
174.930700
 30
0.0
  0
SPLINE
  5
15e
100
AcDbEntity
  8
Layer_1
 62
7
100
AcDbSpline
 70
8
 71
3
 72
8
 73
4
 74
0
 40
0
 40
0
 40
0
 40
0
 40
1
 40
1
 40
1
 40
1
 10
260.801000
 20
174.930700
 30
0.0
 10
261.506000
 20
174.930700
 30
0.0
 10
262.111000
 20
174.930700
 30
0.0
 10
262.603000
 20
174.930700
 30
0.0
  0
LWPOLYLINE
  5
15f
100
AcDbEntity
  8
Layer_1
 62
7
100
AcDbPolyline
 90
2
 70
0
 10
188.698540
 20
109.764410
 30
0.0
 10
138.703960
 20
109.730210
 30
0.0
  0
SPLINE
  5
160
100
AcDbEntity
  8
Layer_1
 62
7
100
AcDbSpline
 70
8
 71
3
 72
8
 73
4
 74
0
 40
0
 40
0
 40
0
 40
0
 40
1
 40
1
 40
1
 40
1
 10
188.699000
 20
174.930700
 30
0.0
 10
188.699000
 20
174.930700
 30
0.0
 10
188.699000
 20
174.287300
 30
0.0
 10
188.699000
 20
173.128300
 30
0.0
  0
SPLINE
  5
161
100
AcDbEntity
  8
Layer_1
 62
7
100
AcDbSpline
 70
8
 71
3
 72
8
 73
4
 74
0
 40
0
 40
0
 40
0
 40
0
 40
1
 40
1
 40
1
 40
1
 10
188.699000
 20
171.326600
 30
0.0
 10
188.699000
 20
170.778800
 30
0.0
 10
188.699000
 20
170.176100
 30
0.0
 10
188.699000
 20
169.523700
 30
0.0
  0
SPLINE
  5
162
100
AcDbEntity
  8
Layer_1
 62
7
100
AcDbSpline
 70
8
 71
3
 72
8
 73
4
 74
0
 40
0
 40
0
 40
0
 40
0
 40
1
 40
1
 40
1
 40
1
 10
188.699000
 20
167.721200
 30
0.0
 10
188.699000
 20
167.147300
 30
0.0
 10
188.699000
 20
166.545800
 30
0.0
 10
188.699000
 20
165.919300
 30
0.0
  0
SPLINE
  5
163
100
AcDbEntity
  8
Layer_1
 62
7
100
AcDbSpline
 70
8
 71
3
 72
8
 73
4
 74
0
 40
0
 40
0
 40
0
 40
0
 40
1
 40
1
 40
1
 40
1
 10
188.699000
 20
164.116400
 30
0.0
 10
188.699000
 20
163.532400
 30
0.0
 10
188.699000
 20
162.931200
 30
0.0
 10
188.699000
 20
162.314500
 30
0.0
  0
SPLINE
  5
164
100
AcDbEntity
  8
Layer_1
 62
7
100
AcDbSpline
 70
8
 71
3
 72
8
 73
4
 74
0
 40
0
 40
0
 40
0
 40
0
 40
1
 40
1
 40
1
 40
1
 10
188.699000
 20
160.511400
 30
0.0
 10
188.699000
 20
159.921500
 30
0.0
 10
188.699000
 20
159.320000
 30
0.0
 10
188.699000
 20
158.708000
 30
0.0
  0
SPLINE
  5
165
100
AcDbEntity
  8
Layer_1
 62
7
100
AcDbSpline
 70
8
 71
3
 72
8
 73
4
 74
0
 40
0
 40
0
 40
0
 40
0
 40
1
 40
1
 40
1
 40
1
 10
188.699000
 20
156.906000
 30
0.0
 10
188.699000
 20
156.312700
 30
0.0
 10
188.699000
 20
155.711300
 30
0.0
 10
188.699000
 20
155.102800
 30
0.0
  0
SPLINE
  5
166
100
AcDbEntity
  8
Layer_1
 62
7
100
AcDbSpline
 70
8
 71
3
 72
8
 73
4
 74
0
 40
0
 40
0
 40
0
 40
0
 40
1
 40
1
 40
1
 40
1
 10
188.699000
 20
153.300300
 30
0.0
 10
188.699000
 20
152.704700
 30
0.0
 10
188.699000
 20
152.103600
 30
0.0
 10
188.699000
 20
151.497900
 30
0.0
  0
SPLINE
  5
167
100
AcDbEntity
  8
Layer_1
 62
7
100
AcDbSpline
 70
8
 71
3
 72
8
 73
4
 74
0
 40
0
 40
0
 40
0
 40
0
 40
1
 40
1
 40
1
 40
1
 10
188.699000
 20
149.696300
 30
0.0
 10
188.699000
 20
149.098900
 30
0.0
 10
188.699000
 20
148.498000
 30
0.0
 10
188.699000
 20
147.894500
 30
0.0
  0
SPLINE
  5
168
100
AcDbEntity
  8
Layer_1
 62
7
100
AcDbSpline
 70
8
 71
3
 72
8
 73
4
 74
0
 40
0
 40
0
 40
0
 40
0
 40
1
 40
1
 40
1
 40
1
 10
188.699000
 20
146.091900
 30
0.0
 10
188.699000
 20
145.492600
 30
0.0
 10
188.699000
 20
144.891700
 30
0.0
 10
188.699000
 20
144.289800
 30
0.0
  0
SPLINE
  5
169
100
AcDbEntity
  8
Layer_1
 62
7
100
AcDbSpline
 70
8
 71
3
 72
8
 73
4
 74
0
 40
0
 40
0
 40
0
 40
0
 40
1
 40
1
 40
1
 40
1
 10
188.699000
 20
142.487200
 30
0.0
 10
188.699000
 20
141.885900
 30
0.0
 10
188.699000
 20
141.284600
 30
0.0
 10
188.699000
 20
140.683900
 30
0.0
  0
SPLINE
  5
16a
100
AcDbEntity
  8
Layer_1
 62
7
100
AcDbSpline
 70
8
 71
3
 72
8
 73
4
 74
0
 40
0
 40
0
 40
0
 40
0
 40
1
 40
1
 40
1
 40
1
 10
188.699000
 20
138.881000
 30
0.0
 10
188.699000
 20
138.278100
 30
0.0
 10
188.699000
 20
137.676800
 30
0.0
 10
188.699000
 20
137.078000
 30
0.0
  0
SPLINE
  5
16b
100
AcDbEntity
  8
Layer_1
 62
7
100
AcDbSpline
 70
8
 71
3
 72
8
 73
4
 74
0
 40
0
 40
0
 40
0
 40
0
 40
1
 40
1
 40
1
 40
1
 10
188.699000
 20
135.274900
 30
0.0
 10
188.699000
 20
134.670400
 30
0.0
 10
188.699000
 20
134.069400
 30
0.0
 10
188.699000
 20
133.472700
 30
0.0
  0
SPLINE
  5
16c
100
AcDbEntity
  8
Layer_1
 62
7
100
AcDbSpline
 70
8
 71
3
 72
8
 73
4
 74
0
 40
0
 40
0
 40
0
 40
0
 40
1
 40
1
 40
1
 40
1
 10
188.699000
 20
131.670300
 30
0.0
 10
188.699000
 20
131.063700
 30
0.0
 10
188.699000
 20
130.462600
 30
0.0
 10
188.699000
 20
129.868000
 30
0.0
  0
SPLINE
  5
16d
100
AcDbEntity
  8
Layer_1
 62
7
100
AcDbSpline
 70
8
 71
3
 72
8
 73
4
 74
0
 40
0
 40
0
 40
0
 40
0
 40
1
 40
1
 40
1
 40
1
 10
188.699000
 20
128.066300
 30
0.0
 10
188.699000
 20
127.456700
 30
0.0
 10
188.699000
 20
126.855500
 30
0.0
 10
188.699000
 20
126.263700
 30
0.0
  0
SPLINE
  5
16e
100
AcDbEntity
  8
Layer_1
 62
7
100
AcDbSpline
 70
8
 71
3
 72
8
 73
4
 74
0
 40
0
 40
0
 40
0
 40
0
 40
1
 40
1
 40
1
 40
1
 10
188.699000
 20
124.461600
 30
0.0
 10
188.699000
 20
123.848000
 30
0.0
 10
188.699000
 20
123.246600
 30
0.0
 10
188.699000
 20
122.658900
 30
0.0
  0
SPLINE
  5
16f
100
AcDbEntity
  8
Layer_1
 62
7
100
AcDbSpline
 70
8
 71
3
 72
8
 73
4
 74
0
 40
0
 40
0
 40
0
 40
0
 40
1
 40
1
 40
1
 40
1
 10
188.699000
 20
120.855400
 30
0.0
 10
188.699000
 20
120.234800
 30
0.0
 10
188.699000
 20
119.633000
 30
0.0
 10
188.699000
 20
119.051900
 30
0.0
  0
SPLINE
  5
170
100
AcDbEntity
  8
Layer_1
 62
7
100
AcDbSpline
 70
8
 71
3
 72
8
 73
4
 74
0
 40
0
 40
0
 40
0
 40
0
 40
1
 40
1
 40
1
 40
1
 10
188.699000
 20
117.249000
 30
0.0
 10
188.699000
 20
116.614900
 30
0.0
 10
188.699000
 20
116.012900
 30
0.0
 10
188.699000
 20
115.446000
 30
0.0
  0
SPLINE
  5
171
100
AcDbEntity
  8
Layer_1
 62
7
100
AcDbSpline
 70
8
 71
3
 72
8
 73
4
 74
0
 40
0
 40
0
 40
0
 40
0
 40
1
 40
1
 40
1
 40
1
 10
188.699000
 20
113.643000
 30
0.0
 10
188.699000
 20
112.960000
 30
0.0
 10
188.699000
 20
112.357000
 30
0.0
 10
188.699000
 20
111.841000
 30
0.0
  0
SPLINE
  5
172
100
AcDbEntity
  8
Layer_1
 62
7
100
AcDbSpline
 70
8
 71
3
 72
8
 73
4
 74
0
 40
0
 40
0
 40
0
 40
0
 40
1
 40
1
 40
1
 40
1
 10
188.699000
 20
110.040000
 30
0.0
 10
188.699000
 20
109.859000
 30
0.0
 10
188.699000
 20
109.764000
 30
0.0
 10
188.699000
 20
109.764000
 30
0.0
  0
LWPOLYLINE
  5
173
100
AcDbEntity
  8
Layer_1
 62
7
100
AcDbPolyline
 90
2
 70
0
 10
188.698540
 20
109.764410
 30
0.0
 10
264.126190
 20
109.764430
 30
0.0
  0
LWPOLYLINE
  5
174
100
AcDbEntity
  8
Layer_1
 62
7
100
AcDbPolyline
 90
3
 70
0
 10
272.987423
 20
150.151556
 30
0.0
 10
272.987423
 20
114.794301
 30
0.0
 10
264.126186
 20
109.764432
 30
0.0
  0
LWPOLYLINE
  5
175
100
AcDbEntity
  8
Layer_1
 62
7
100
AcDbPolyline
 90
3
 70
0
 10
264.126186
 20
174.831828
 30
0.0
 10
272.987423
 20
167.982631
 30
0.0
 10
272.987423
 20
153.893473
 30
0.0
  0
SPLINE
  5
176
100
AcDbEntity
  8
Layer_1
 62
7
100
AcDbSpline
 70
8
 71
3
 72
8
 73
4
 74
0
 40
0
 40
0
 40
0
 40
0
 40
1
 40
1
 40
1
 40
1
 10
264.008000
 20
145.109300
 30
0.0
 10
264.008000
 20
145.109300
 30
0.0
 10
264.011000
 20
144.326100
 30
0.0
 10
264.015000
 20
142.992700
 30
0.0
  0
SPLINE
  5
177
100
AcDbEntity
  8
Layer_1
 62
7
100
AcDbSpline
 70
8
 71
3
 72
8
 73
4
 74
0
 40
0
 40
0
 40
0
 40
0
 40
1
 40
1
 40
1
 40
1
 10
264.022000
 20
140.875200
 30
0.0
 10
264.024000
 20
140.225000
 30
0.0
 10
264.027000
 20
139.515700
 30
0.0
 10
264.029000
 20
138.758400
 30
0.0
  0
SPLINE
  5
178
100
AcDbEntity
  8
Layer_1
 62
7
100
AcDbSpline
 70
8
 71
3
 72
8
 73
4
 74
0
 40
0
 40
0
 40
0
 40
0
 40
1
 40
1
 40
1
 40
1
 10
264.036000
 20
136.641600
 30
0.0
 10
264.039000
 20
135.959400
 30
0.0
 10
264.041000
 20
135.251700
 30
0.0
 10
264.043000
 20
134.524900
 30
0.0
  0
SPLINE
  5
179
100
AcDbEntity
  8
Layer_1
 62
7
100
AcDbSpline
 70
8
 71
3
 72
8
 73
4
 74
0
 40
0
 40
0
 40
0
 40
0
 40
1
 40
1
 40
1
 40
1
 10
264.050000
 20
132.407800
 30
0.0
 10
264.053000
 20
131.711900
 30
0.0
 10
264.055000
 20
131.004800
 30
0.0
 10
264.058000
 20
130.291400
 30
0.0
  0
SPLINE
  5
17a
100
AcDbEntity
  8
Layer_1
 62
7
100
AcDbSpline
 70
8
 71
3
 72
8
 73
4
 74
0
 40
0
 40
0
 40
0
 40
0
 40
1
 40
1
 40
1
 40
1
 10
264.065000
 20
128.174200
 30
0.0
 10
264.067000
 20
127.468500
 30
0.0
 10
264.069000
 20
126.761300
 30
0.0
 10
264.072000
 20
126.057000
 30
0.0
  0
SPLINE
  5
17b
100
AcDbEntity
  8
Layer_1
 62
7
100
AcDbSpline
 70
8
 71
3
 72
8
 73
4
 74
0
 40
0
 40
0
 40
0
 40
0
 40
1
 40
1
 40
1
 40
1
 10
264.079000
 20
123.941500
 30
0.0
 10
264.081000
 20
123.226400
 30
0.0
 10
264.084000
 20
122.519300
 30
0.0
 10
264.086000
 20
121.825100
 30
0.0
  0
SPLINE
  5
17c
100
AcDbEntity
  8
Layer_1
 62
7
100
AcDbSpline
 70
8
 71
3
 72
8
 73
4
 74
0
 40
0
 40
0
 40
0
 40
0
 40
1
 40
1
 40
1
 40
1
 10
264.093000
 20
119.708900
 30
0.0
 10
264.095000
 20
118.979400
 30
0.0
 10
264.098000
 20
118.271700
 30
0.0
 10
264.100000
 20
117.592600
 30
0.0
  0
SPLINE
  5
17d
100
AcDbEntity
  8
Layer_1
 62
7
100
AcDbSpline
 70
8
 71
3
 72
8
 73
4
 74
0
 40
0
 40
0
 40
0
 40
0
 40
1
 40
1
 40
1
 40
1
 10
264.107000
 20
115.475000
 30
0.0
 10
264.110000
 20
114.709000
 30
0.0
 10
264.112000
 20
114.000000
 30
0.0
 10
264.114000
 20
113.360000
 30
0.0
  0
SPLINE
  5
17e
100
AcDbEntity
  8
Layer_1
 62
7
100
AcDbSpline
 70
8
 71
3
 72
8
 73
4
 74
0
 40
0
 40
0
 40
0
 40
0
 40
1
 40
1
 40
1
 40
1
 10
264.121000
 20
111.242000
 30
0.0
 10
264.124000
 20
110.301000
 30
0.0
 10
264.126000
 20
109.764000
 30
0.0
 10
264.126000
 20
109.764000
 30
0.0
  0
LWPOLYLINE
  5
17f
100
AcDbEntity
  8
Layer_1
 62
7
100
AcDbPolyline
 90
2
 70
0
 10
264.008040
 20
145.109329
 30
0.0
 10
264.126190
 20
174.831828
 30
0.0
  0
SPLINE
  5
180
100
AcDbEntity
  8
Layer_1
 62
7
100
AcDbSpline
 70
8
 71
3
 72
8
 73
4
 74
0
 40
0
 40
0
 40
0
 40
0
 40
1
 40
1
 40
1
 40
1
 10
155.551000
 20
140.530000
 30
0.0
 10
155.551000
 20
140.530000
 30
0.0
 10
155.551000
 20
139.740700
 30
0.0
 10
155.551000
 20
138.412900
 30
0.0
  0
SPLINE
  5
181
100
AcDbEntity
  8
Layer_1
 62
7
100
AcDbSpline
 70
8
 71
3
 72
8
 73
4
 74
0
 40
0
 40
0
 40
0
 40
0
 40
1
 40
1
 40
1
 40
1
 10
155.551000
 20
136.296600
 30
0.0
 10
155.551000
 20
135.644800
 30
0.0
 10
155.551000
 20
134.935100
 30
0.0
 10
155.551000
 20
134.180200
 30
0.0
  0
SPLINE
  5
182
100
AcDbEntity
  8
Layer_1
 62
7
100
AcDbSpline
 70
8
 71
3
 72
8
 73
4
 74
0
 40
0
 40
0
 40
0
 40
0
 40
1
 40
1
 40
1
 40
1
 10
155.551000
 20
132.062700
 30
0.0
 10
155.551000
 20
131.378200
 30
0.0
 10
155.551000
 20
130.670300
 30
0.0
 10
155.551000
 20
129.946200
 30
0.0
  0
SPLINE
  5
183
100
AcDbEntity
  8
Layer_1
 62
7
100
AcDbSpline
 70
8
 71
3
 72
8
 73
4
 74
0
 40
0
 40
0
 40
0
 40
0
 40
1
 40
1
 40
1
 40
1
 10
155.551000
 20
127.829900
 30
0.0
 10
155.551000
 20
127.130500
 30
0.0
 10
155.551000
 20
126.422900
 30
0.0
 10
155.551000
 20
125.713100
 30
0.0
  0
SPLINE
  5
184
100
AcDbEntity
  8
Layer_1
 62
7
100
AcDbSpline
 70
8
 71
3
 72
8
 73
4
 74
0
 40
0
 40
0
 40
0
 40
0
 40
1
 40
1
 40
1
 40
1
 10
155.551000
 20
123.596300
 30
0.0
 10
155.551000
 20
122.885500
 30
0.0
 10
155.551000
 20
122.178300
 30
0.0
 10
155.551000
 20
121.480600
 30
0.0
  0
SPLINE
  5
185
100
AcDbEntity
  8
Layer_1
 62
7
100
AcDbSpline
 70
8
 71
3
 72
8
 73
4
 74
0
 40
0
 40
0
 40
0
 40
0
 40
1
 40
1
 40
1
 40
1
 10
155.551000
 20
119.363400
 30
0.0
 10
155.551000
 20
118.636800
 30
0.0
 10
155.551000
 20
117.928500
 30
0.0
 10
155.551000
 20
117.246000
 30
0.0
  0
SPLINE
  5
186
100
AcDbEntity
  8
Layer_1
 62
7
100
AcDbSpline
 70
8
 71
3
 72
8
 73
4
 74
0
 40
0
 40
0
 40
0
 40
0
 40
1
 40
1
 40
1
 40
1
 10
155.551000
 20
115.129000
 30
0.0
 10
155.551000
 20
114.368000
 30
0.0
 10
155.551000
 20
113.658000
 30
0.0
 10
155.551000
 20
113.013000
 30
0.0
  0
SPLINE
  5
187
100
AcDbEntity
  8
Layer_1
 62
7
100
AcDbSpline
 70
8
 71
3
 72
8
 73
4
 74
0
 40
0
 40
0
 40
0
 40
0
 40
1
 40
1
 40
1
 40
1
 10
155.551000
 20
110.897000
 30
0.0
 10
155.551000
 20
109.861000
 30
0.0
 10
155.551000
 20
109.259000
 30
0.0
 10
155.551000
 20
109.259000
 30
0.0
  0
LWPOLYLINE
  5
188
100
AcDbEntity
  8
Layer_1
 62
7
100
AcDbPolyline
 90
3
 70
0
 10
155.550860
 20
140.529999
 30
0.0
 10
172.923380
 20
140.529999
 30
0.0
 10
172.923380
 20
109.794000
 30
0.0
  0
ENDSEC
  0
SECTION
  2
OBJECTS
  0
DICTIONARY
  5
C
330
0
100
AcDbDictionary
  3
ACAD_GROUP
350
D
  3
ACAD_MLINESTYLE
350
17
  0
DICTIONARY
  5
D
330
C
100
AcDbDictionary
  0
DICTIONARY
  5
1A
330
C
100
AcDbDictionary
  0
DICTIONARY
  5
17
330
C
100
AcDbDictionary
  3
STANDARD
350
18
  0
DICTIONARY
  5
19
330
C
100
AcDbDictionary
  0
ENDSEC
  0
EOF
