  0
SECTION
  2
HEADER
  9
$ACADVER
  1
AC1014
  9
$HANDSEED
  5
FFFF
  9
$INSUNITS
 70
     4
  9
$MEASUREMENT
 70
     1
  0
ENDSEC
  0
SECTION
  2
TABLES
  0
TABLE
  2
VPORT
  5
8
330
0
100
AcDbSymbolTable
 70
     4
  0
VPORT
  5
2E
330
8
100
AcDbSymbolTableRecord
100
AcDbViewportTableRecord
  2
*ACTIVE
 70
     0
 10
0.0
 20
0.0
 11
1.0
 21
1.0
 12
210.0
 22
148.5
 13
0.0
 23
0.0
 14
10.0
 24
10.0
 15
10.0
 25
10.0
 16
0.0
 26
0.0
 36
1.0
 17
0.0
 27
0.0
 37
0.0
 40
341.0
 41
1.24
 42
50.0
 43
0.0
 44
0.0
 50
0.0
 51
0.0
 71
     0
 72
   100
 73
     1
 74
     3
 75
     0
 76
     0
 77
     0
 78
     0
  0
ENDTAB
  0
TABLE
  2
LTYPE
  5
5
330
0
100
AcDbSymbolTable
 70
     1
  0
LTYPE
  5
14
330
5
100
AcDbSymbolTableRecord
100
AcDbLinetypeTableRecord
  2
BYBLOCK
 70
     0
  3

 72
    65
 73
     0
 40
0.0
  0
LTYPE
  5
15
330
5
100
AcDbSymbolTableRecord
100
AcDbLinetypeTableRecord
  2
BYLAYER
 70
     0
  3

 72
    65
 73
     0
 40
0.0
  0
LTYPE
  5
16
330
5
100
AcDbSymbolTableRecord
100
AcDbLinetypeTableRecord
  2
CONTINUOUS
 70
     0
  3
Solid line
 72
    65
 73
     0
 40
0.0
  0
ENDTAB
  0
TABLE
  2
LAYER
  5
2
100
AcDbSymbolTable
 70
10
  0
LAYER
  5
50
100
AcDbSymbolTableRecord
100
AcDbLayerTableRecord
  2
0
 70
0
  6
CONTINUOUS
  0
LAYER
  5
51
100
AcDbSymbolTableRecord
100
AcDbLayerTableRecord
  2
cut
 70
0
  6
CONTINUOUS
  0
LAYER
  5
52
100
AcDbSymbolTableRecord
100
AcDbLayerTableRecord
  2
cut_barrel
 70
0
  6
CONTINUOUS
  0
LAYER
  5
53
100
AcDbSymbolTableRecord
100
AcDbLayerTableRecord
  2
solar_cut
 70
0
  6
CONTINUOUS
  0
LAYER
  5
54
100
AcDbSymbolTableRecord
100
AcDbLayerTableRecord
  2
cut2
 70
0
  6
CONTINUOUS
  0
LAYER
  5
55
100
AcDbSymbolTableRecord
100
AcDbLayerTableRecord
  2
pictures
 70
0
  6
CONTINUOUS
  0
LAYER
  5
56
100
AcDbSymbolTableRecord
100
AcDbLayerTableRecord
  2
solar_image
 70
0
  6
CONTINUOUS
  0
LAYER
  5
57
100
AcDbSymbolTableRecord
100
AcDbLayerTableRecord
  2
barrel_Image
 70
0
  6
CONTINUOUS
  0
LAYER
  5
58
100
AcDbSymbolTableRecord
100
AcDbLayerTableRecord
  2
picture2
 70
0
  6
CONTINUOUS
  0
LAYER
  5
59
100
AcDbSymbolTableRecord
100
AcDbLayerTableRecord
  2
outline
 70
0
  6
CONTINUOUS
  0
ENDTAB
  0
TABLE
  2
STYLE
  5
3
330
0
100
AcDbSymbolTable
 70
     1
  0
STYLE
  5
11
330
3
100
AcDbSymbolTableRecord
100
AcDbTextStyleTableRecord
  2
STANDARD
 70
     0
 40
0.0
 41
1.0
 50
0.0
 71
     0
 42
2.5
  3
txt
  4

  0
ENDTAB
  0
TABLE
  2
VIEW
  5
6
330
0
100
AcDbSymbolTable
 70
     0
  0
ENDTAB
  0
TABLE
  2
UCS
  5
7
330
0
100
AcDbSymbolTable
 70
     0
  0
ENDTAB
  0
TABLE
  2
APPID
  5
9
330
0
100
AcDbSymbolTable
 70
     2
  0
APPID
  5
12
330
9
100
AcDbSymbolTableRecord
100
AcDbRegAppTableRecord
  2
ACAD
 70
     0
  0
ENDTAB
  0
TABLE
  2
DIMSTYLE
  5
A
330
0
100
AcDbSymbolTable
 70
     1
  0
DIMSTYLE
105
27
330
A
100
AcDbSymbolTableRecord
100
AcDbDimStyleTableRecord
  2
ISO-25
 70
     0
  3

  4

  5

  6

  7

 40
1.0
 41
2.5
 42
0.625
 43
3.75
 44
1.25
 45
0.0
 46
0.0
 47
0.0
 48
0.0
140
2.5
141
2.5
142
0.0
143
0.03937007874016
144
1.0
145
0.0
146
1.0
147
0.625
 71
     0
 72
     0
 73
     0
 74
     0
 75
     0
 76
     0
 77
     1
 78
     8
170
     0
171
     3
172
     1
173
     0
174
     0
175
     0
176
     0
177
     0
178
     0
270
     2
271
     2
272
     2
273
     2
274
     3
340
11
275
     0
280
     0
281
     0
282
     0
283
     0
284
     8
285
     0
286
     0
287
     3
288
     0
  0
ENDTAB
  0
TABLE
  2
BLOCK_RECORD
  5
1
330
0
100
AcDbSymbolTable
 70
     1
  0
BLOCK_RECORD
  5
1F
330
1
100
AcDbSymbolTableRecord
100
AcDbBlockTableRecord
  2
*MODEL_SPACE
  0
BLOCK_RECORD
  5
1B
330
1
100
AcDbSymbolTableRecord
100
AcDbBlockTableRecord
  2
*PAPER_SPACE
  0
ENDTAB
  0
ENDSEC
  0
SECTION
  2
BLOCKS
  0
BLOCK
  5
20
330
1F
100
AcDbEntity
  8
0
100
AcDbBlockBegin
  2
*MODEL_SPACE
 70
     0
 10
0.0
 20
0.0
 30
0.0
  3
*MODEL_SPACE
  1

  0
ENDBLK
  5
21
330
1F
100
AcDbEntity
  8
0
100
AcDbBlockEnd
  0
BLOCK
  5
1C
330
1B
100
AcDbEntity
 67
     1
  8
0
100
AcDbBlockBegin
  2
*PAPER_SPACE
  1

  0
ENDBLK
  5
1D
330
1B
100
AcDbEntity
 67
     1
  8
0
100
AcDbBlockEnd
  0
ENDSEC
  0
SECTION
  2
ENTITIES
  0
LWPOLYLINE
  5
100
100
AcDbEntity
  8
outline
 62
7
100
AcDbPolyline
 90
4
 70
1
 10
0.730932
 20
13.097999
 30
0.0
 10
9.240933
 20
13.097999
 30
0.0
 10
9.240933
 20
1.997999
 30
0.0
 10
0.730932
 20
1.997999
 30
0.0
  0
LWPOLYLINE
  5
101
100
AcDbEntity
  8
outline
 62
7
100
AcDbPolyline
 90
4
 70
1
 10
9.882057
 20
13.098282
 30
0.0
 10
18.392057
 20
13.098282
 30
0.0
 10
18.392057
 20
1.998282
 30
0.0
 10
9.882057
 20
1.998282
 30
0.0
  0
SPLINE
  5
102
100
AcDbEntity
  8
outline
 62
7
100
AcDbSpline
 70
0
 71
3
 72
25
 73
21
 74
19
 40
0.000000
 40
0.000000
 40
0.000000
 40
0.000000
 40
0.005440
 40
0.010828
 40
0.016380
 40
0.021978
 40
0.027477
 40
0.033029
 40
0.038515
 40
0.043858
 40
0.049297
 40
0.054784
 40
0.060237
 40
0.065835
 40
0.069571
 40
0.073261
 40
0.076957
 40
0.080623
 40
0.084233
 40
0.087858
 40
0.087858
 40
0.087858
 40
0.087858
 10
0.807862
 20
12.974331
 30
0.0
 10
0.807644
 20
12.976156
 30
0.0
 10
0.807209
 20
12.979790
 30
0.0
 10
0.803891
 20
12.984394
 30
0.0
 10
0.799176
 20
12.987463
 30
0.0
 10
0.793581
 20
12.988528
 30
0.0
 10
0.788004
 20
12.987458
 30
0.0
 10
0.783247
 20
12.984400
 30
0.0
 10
0.780059
 20
12.979787
 30
0.0
 10
0.778933
 20
12.974332
 30
0.0
 10
0.780053
 20
12.968870
 30
0.0
 10
0.783253
 20
12.964265
 30
0.0
 10
0.787998
 20
12.961204
 30
0.0
 10
0.792965
 20
12.960249
 30
0.0
 10
0.797314
 20
12.960807
 30
0.0
 10
0.800793
 20
12.962200
 30
0.0
 10
0.803789
 20
12.964420
 30
0.0
 10
0.806073
 20
12.967319
 30
0.0
 10
0.807576
 20
12.970700
 30
0.0
 10
0.807767
 20
12.973119
 30
0.0
 10
0.807862
 20
12.974331
 30
0.0
 11
0.807862
 21
12.974331
 31
0.0
 11
0.806763
 21
12.979658
 31
0.0
 11
0.803705
 21
12.984095
 31
0.0
 11
0.799048
 21
12.987118
 31
0.0
 11
0.793550
 21
12.988172
 31
0.0
 11
0.788151
 21
12.987131
 31
0.0
 11
0.783488
 21
12.984118
 31
0.0
 11
0.780379
 21
12.979597
 31
0.0
 11
0.779305
 21
12.974364
 31
0.0
 11
0.780393
 21
12.969034
 31
0.0
 11
0.783512
 21
12.964520
 31
0.0
 11
0.788089
 21
12.961555
 31
0.0
 11
0.793584
 21
12.960490
 31
0.0
 11
0.797290
 21
12.960964
 31
0.0
 11
0.800714
 21
12.962339
 31
0.0
 11
0.803680
 21
12.964544
 31
0.0
 11
0.805955
 21
12.967419
 31
0.0
 11
0.807373
 21
12.970739
 31
0.0
 11
0.807862
 21
12.974331
 31
0.0
  0
LWPOLYLINE
  5
103
100
AcDbEntity
  8
outline
 62
7
100
AcDbPolyline
 90
1
 70
1
 10
0.807862
 20
12.974331
 30
0.0
  0
ENDSEC
  0
SECTION
  2
OBJECTS
  0
DICTIONARY
  5
C
330
0
100
AcDbDictionary
  3
ACAD_GROUP
350
D
  3
ACAD_MLINESTYLE
350
17
  0
DICTIONARY
  5
D
330
C
100
AcDbDictionary
  0
DICTIONARY
  5
1A
330
C
100
AcDbDictionary
  0
DICTIONARY
  5
17
330
C
100
AcDbDictionary
  3
STANDARD
350
18
  0
DICTIONARY
  5
19
330
C
100
AcDbDictionary
  0
ENDSEC
  0
EOF
