999
"DXF R12 Output" (www.mydxf.blogspot.com)
 0 
SECTION
 2 
HEADER
 9 
$ACADVER
 1 
AC1009
 9 
$EXTMIN
 10 
 0 
 20 
 0 
 9 
$EXTMAX
 10 
 8.5 
 20 
 11 
 0 
ENDSEC
 0 
SECTION
 2 
ENTITIES
0
LINE
8
cut
10
13.087200
20
164.586000
11
38.067300
21
187.574000
0
LINE
8
cut
10
38.067300
20
187.574000
11
63.047500
21
164.586000
0
LINE
8
cut
10
2.032020
20
138.667000
11
2.032020
21
159.536200
0
LINE
8
cut
10
2.032020
20
159.536200
11
13.084520
21
164.577830
0
LINE
8
cut
10
13.084500
20
99.358400
11
2.032000
21
106.223590
0
LINE
8
cut
10
2.032000
20
106.223590
11
2.032000
21
131.185590
0
LINE
8
cut
10
63.081800
20
99.385000
11
13.087200
21
99.350700
0
LINE
8
cut
10
13.176100
20
130.927000
11
13.180200
21
129.149400
0
LINE
8
cut
10
13.164900
20
135.733000
11
13.170500
21
133.329300
0
LINE
8
cut
10
13.153700
20
140.541000
11
13.159300
21
138.137100
0
LINE
8
cut
10
13.142400
20
145.350000
11
13.148100
21
142.945900
0
LINE
8
cut
10
13.131200
20
150.156000
11
13.136800
21
147.752700
0
LINE
8
cut
10
13.120000
20
154.963000
11
13.125600
21
152.559600
0
LINE
8
cut
10
13.108800
20
159.769000
11
13.114400
21
157.366500
0
LINE
8
cut
10
13.097600
20
164.575000
11
13.103200
21
162.171400
0
LINE
8
cut
10
13.180300
20
129.150000
11
13.087280
21
99.351000
0
LINE
8
cut
10
138.509000
20
164.551000
11
163.489100
21
187.539200
0
LINE
8
cut
10
163.489100
20
187.539200
11
188.469200
21
164.551000
0
LINE
8
cut
10
188.504000
20
99.350700
11
138.509400
21
99.316500
0
LINE
8
cut
10
188.504000
20
99.350700
11
263.931600
21
99.350720
0
LINE
8
cut
10
275.029000
20
139.734000
11
275.029000
21
104.395000
0
LINE
8
cut
10
275.029000
20
104.395000
11
263.939600
21
99.367790
0
LINE
8
cut
10
155.356000
20
130.116000
11
172.729000
21
130.116000
0
LINE
8
cut
10
172.729000
20
130.116000
11
172.729000
21
99.380300
0
LINE
8
cut
10
155.356000
20
130.116000
11
155.356000
21
128.977210
0
LINE
8
cut
10
155.356000
20
127.838610
11
155.356000
21
126.700350
0
LINE
8
cut
10
155.356000
20
125.561370
11
155.356000
21
124.423010
0
LINE
8
cut
10
155.356000
20
123.284930
11
155.356000
21
122.146710
0
LINE
8
cut
10
155.356000
20
121.007930
11
155.356000
21
119.869050
0
LINE
8
cut
10
155.356000
20
118.730880
11
155.356000
21
117.592190
0
LINE
8
cut
10
155.356000
20
116.453400
11
155.356000
21
115.314800
0
LINE
8
cut
10
155.356000
20
114.176060
11
155.356000
21
113.037610
0
LINE
8
cut
10
155.356000
20
111.899160
11
155.356000
21
110.760460
0
LINE
8
cut
10
155.356000
20
109.622060
11
155.356000
21
108.483600
0
LINE
8
cut
10
155.356000
20
107.345100
11
155.356000
21
106.206270
0
LINE
8
cut
10
155.356000
20
105.067620
11
155.356000
21
103.929400
0
LINE
8
cut
10
155.356000
20
102.790750
11
155.356000
21
101.652250
0
LINE
8
cut
10
155.356000
20
100.513890
11
155.356000
21
99.375060
0
LINE
8
cut
10
188.437000
20
164.005000
11
188.437000
21
162.866210
0
LINE
8
cut
10
188.437000
20
161.727610
11
188.437000
21
160.589350
0
LINE
8
cut
10
188.437000
20
159.450370
11
188.437000
21
158.312010
0
LINE
8
cut
10
188.437000
20
157.173930
11
188.437000
21
156.035710
0
LINE
8
cut
10
188.437000
20
154.896930
11
188.437000
21
153.758050
0
LINE
8
cut
10
188.437000
20
152.619880
11
188.437000
21
151.481190
0
LINE
8
cut
10
188.437000
20
150.342400
11
188.437000
21
149.203800
0
LINE
8
cut
10
188.437000
20
148.065060
11
188.437000
21
146.926610
0
LINE
8
cut
10
188.437000
20
145.788160
11
188.437000
21
144.649460
0
LINE
8
cut
10
188.437000
20
143.511060
11
188.437000
21
142.372600
0
LINE
8
cut
10
188.437000
20
141.234100
11
188.437000
21
140.095270
0
LINE
8
cut
10
188.437000
20
138.956620
11
188.437000
21
137.818400
0
LINE
8
cut
10
188.437000
20
136.679750
11
188.437000
21
135.541250
0
LINE
8
cut
10
188.437000
20
134.402890
11
188.437000
21
133.264060
0
LINE
8
cut
10
188.464000
20
132.228000
11
188.464000
21
131.089210
0
LINE
8
cut
10
188.464000
20
129.950610
11
188.464000
21
128.812350
0
LINE
8
cut
10
188.464000
20
127.673370
11
188.464000
21
126.535010
0
LINE
8
cut
10
188.464000
20
125.396930
11
188.464000
21
124.258710
0
LINE
8
cut
10
188.464000
20
123.119930
11
188.464000
21
121.981050
0
LINE
8
cut
10
188.464000
20
120.842880
11
188.464000
21
119.704190
0
LINE
8
cut
10
188.464000
20
118.565400
11
188.464000
21
117.426800
0
LINE
8
cut
10
188.464000
20
116.288060
11
188.464000
21
115.149610
0
LINE
8
cut
10
188.464000
20
114.011160
11
188.464000
21
112.872460
0
LINE
8
cut
10
188.464000
20
111.734060
11
188.464000
21
110.595600
0
LINE
8
cut
10
188.464000
20
109.457100
11
188.464000
21
108.318270
0
LINE
8
cut
10
188.464000
20
107.179620
11
188.464000
21
106.041400
0
LINE
8
cut
10
188.464000
20
104.902750
11
188.464000
21
103.764250
0
LINE
8
cut
10
188.464000
20
102.625890
11
188.464000
21
101.487060
0
LINE
8
cut
10
263.732000
20
132.571000
11
263.732000
21
131.374110
0
LINE
8
cut
10
263.732000
20
130.177420
11
263.732000
21
128.981080
0
LINE
8
cut
10
263.732000
20
127.783990
11
263.732000
21
126.587550
0
LINE
8
cut
10
263.732000
20
125.391400
11
263.732000
21
124.195100
0
LINE
8
cut
10
263.732000
20
122.998210
11
263.732000
21
121.801220
0
LINE
8
cut
10
263.732000
20
120.604970
11
263.732000
21
119.408180
0
LINE
8
cut
10
263.732000
20
118.211280
11
263.732000
21
117.014580
0
LINE
8
cut
10
263.732000
20
115.817740
11
263.732000
21
114.621200
0
LINE
8
cut
10
263.732000
20
113.424660
11
263.732000
21
112.227860
0
LINE
8
cut
10
263.732000
20
111.031370
11
263.732000
21
109.834820
0
LINE
8
cut
10
263.732000
20
108.638230
11
263.732000
21
107.441290
0
LINE
8
cut
10
263.732000
20
106.244540
11
263.732000
21
105.048240
0
LINE
8
cut
10
263.732000
20
103.851500
11
263.732000
21
102.654900
0
LINE
8
cut
10
263.732000
20
101.458460
11
263.732000
21
100.261520
0
LINE
8
cut
10
64.582500
20
164.676000
11
67.271800
21
164.676000
0
LINE
8
cut
10
69.960650
20
164.676000
11
72.648720
21
164.676000
0
LINE
8
cut
10
75.338460
20
164.676000
11
78.026750
21
164.676000
0
LINE
8
cut
10
80.714380
20
164.676000
11
83.402330
21
164.676000
0
LINE
8
cut
10
86.091620
20
164.676000
11
88.781140
21
164.676000
0
LINE
8
cut
10
91.468980
20
164.676000
11
94.158060
21
164.676000
0
LINE
8
cut
10
96.847360
20
164.676000
11
99.536220
21
164.676000
0
LINE
8
cut
10
102.225410
20
164.676000
11
104.913910
21
164.676000
0
LINE
8
cut
10
107.602420
20
164.676000
11
110.291510
21
164.676000
0
LINE
8
cut
10
112.979900
20
164.676000
11
115.668430
21
164.676000
0
LINE
8
cut
10
118.357050
20
164.676000
11
121.046460
21
164.676000
0
LINE
8
cut
10
123.735430
20
164.676000
11
126.423390
21
164.676000
0
LINE
8
cut
10
129.112360
20
164.676000
11
131.800990
21
164.676000
0
LINE
8
cut
10
134.489280
20
164.676000
11
137.178690
21
164.676000
0
LINE
8
cut
10
189.540000
20
164.124000
11
192.229300
21
164.124000
0
LINE
8
cut
10
194.918150
20
164.124000
11
197.606220
21
164.124000
0
LINE
8
cut
10
200.295960
20
164.124000
11
202.984250
21
164.124000
0
LINE
8
cut
10
205.671880
20
164.124000
11
208.359830
21
164.124000
0
LINE
8
cut
10
211.049120
20
164.124000
11
213.738640
21
164.124000
0
LINE
8
cut
10
216.426480
20
164.124000
11
219.115560
21
164.124000
0
LINE
8
cut
10
221.804860
20
164.124000
11
224.493720
21
164.124000
0
LINE
8
cut
10
227.182910
20
164.124000
11
229.871410
21
164.124000
0
LINE
8
cut
10
232.559920
20
164.124000
11
235.249010
21
164.124000
0
LINE
8
cut
10
237.937400
20
164.124000
11
240.625930
21
164.124000
0
LINE
8
cut
10
243.314550
20
164.124000
11
246.003960
21
164.124000
0
LINE
8
cut
10
248.692930
20
164.124000
11
251.380890
21
164.124000
0
LINE
8
cut
10
254.069860
20
164.124000
11
256.758490
21
164.124000
0
LINE
8
cut
10
259.446780
20
164.124000
11
262.136190
21
164.124000
0
LINE
8
cut
10
62.891100
20
198.697000
11
63.081743
21
164.551700
0
LINE
8
cut
10
138.603000
20
198.443000
11
138.509200
21
164.551500
0
LINE
8
cut
10
108.520000
20
209.506000
11
132.745000
21
209.506000
0
LINE
8
cut
10
132.745000
20
209.506000
11
138.597300
21
198.453500
0
LINE
8
cut
10
62.891100
20
198.453000
11
70.860200
21
209.506000
0
LINE
8
cut
10
70.860200
20
209.506000
11
99.835900
21
209.506000
0
LINE
8
cut
10
99.545000
20
198.364000
11
97.481580
21
198.359900
0
LINE
8
cut
10
105.124000
20
198.375000
11
102.333780
21
198.369400
0
LINE
8
cut
10
110.705000
20
198.387000
11
107.914580
21
198.381400
0
LINE
8
cut
10
116.286000
20
198.398000
11
113.495330
21
198.392300
0
LINE
8
cut
10
121.866000
20
198.409000
11
119.076260
21
198.403400
0
LINE
8
cut
10
127.446000
20
198.420000
11
124.656160
21
198.414400
0
LINE
8
cut
10
133.024000
20
198.432000
11
130.235190
21
198.426400
0
LINE
8
cut
10
138.603000
20
198.443000
11
135.812920
21
198.437400
0
LINE
8
cut
10
63.081800
20
99.385000
11
98.291500
21
99.385000
0
LINE
8
cut
10
62.543400
20
111.398000
11
63.279200
21
111.398000
0
LINE
8
cut
10
138.509000
20
99.385000
11
102.228000
21
99.385000
0
LINE
8
cut
10
263.940000
20
164.401000
11
275.029400
21
157.555430
0
LINE
8
cut
10
275.029400
20
157.555430
11
275.029000
21
143.474000
0
LINE
8
cut
10
263.813000
20
134.696000
11
263.931150
21
164.418500
0
LINE
8
cut
10
217.049000
20
209.634000
11
258.065000
21
209.634000
0
LINE
8
cut
10
258.065000
20
209.634000
11
263.899850
21
198.569900
0
LINE
8
cut
10
188.419000
20
198.570000
11
196.364340
21
209.634100
0
LINE
8
cut
10
196.364340
20
209.634100
11
212.708000
21
209.634000
0
LINE
8
cut
10
222.897000
20
198.444000
11
188.399000
21
198.562000
0
LINE
8
cut
10
97.070300
20
198.243000
11
62.572700
21
198.361000
0
LINE
8
cut
10
222.897000
20
198.444000
11
225.353640
21
198.451000
0
LINE
8
cut
10
227.811330
20
198.458000
11
230.268200
21
198.465000
0
LINE
8
cut
10
232.725070
20
198.472000
11
235.181830
21
198.479000
0
LINE
8
cut
10
237.639050
20
198.486000
11
240.095460
21
198.494000
0
LINE
8
cut
10
242.552790
20
198.501000
11
245.010130
21
198.508000
0
LINE
8
cut
10
247.465500
20
198.515000
11
249.921910
21
198.522000
0
LINE
8
cut
10
252.378070
20
198.529000
11
254.834370
21
198.536000
0
LINE
8
cut
10
257.292180
20
198.543000
11
259.746950
21
198.550000
0
LINE
8
cut
10
262.205220
20
198.557000
11
263.920670
21
198.562000
0
LINE
8
cut
10
188.419000
20
198.570000
11
188.504500
21
164.517000
0
LINE
8
cut
10
263.920000
20
198.562000
11
263.939700
21
164.401200
0
LINE
8
cut
10
275.029000
20
143.474000
11
275.029000
21
140.998000
0
LINE
8
cut
10
2.032020
20
138.667000
11
2.032020
21
134.453000
0
LINE
8
cut
10
99.835900
20
209.506000
11
104.811000
21
209.506000
0
LINE
8
cut
10
194.825000
20
130.270000
11
222.254000
21
130.270000
0
LINE
8
cut
10
222.254000
20
130.270000
11
222.254000
21
112.894000
0
LINE
8
cut
10
222.254000
20
112.894000
11
194.825000
21
112.894000
0
LINE
8
cut
10
257.271000
20
129.910000
11
229.842000
21
129.910000
0
LINE
8
cut
10
229.842000
20
129.910000
11
229.842000
21
112.534000
0
LINE
8
cut
10
229.842000
20
112.534000
11
257.271000
21
112.534000
0
LINE
8
cut
10
194.767000
20
129.827000
11
194.774000
21
128.813270
0
LINE
8
cut
10
194.781000
20
127.799110
11
194.788000
21
126.785280
0
LINE
8
cut
10
194.795000
20
125.771450
11
194.802000
21
124.757670
0
LINE
8
cut
10
194.809000
20
123.743700
11
194.817000
21
122.730070
0
LINE
8
cut
10
194.824000
20
121.716050
11
194.831000
21
120.702020
0
LINE
8
cut
10
194.838000
20
119.688820
11
194.845000
21
118.675180
0
LINE
8
cut
10
194.852000
20
117.661640
11
194.859000
21
116.648050
0
LINE
8
cut
10
194.866000
20
115.633840
11
194.873000
21
114.620870
0
LINE
8
cut
10
194.880000
20
113.606470
11
194.885000
21
112.898590
0
LINE
8
cut
10
257.153000
20
129.462000
11
257.160000
21
128.448270
0
LINE
8
cut
10
257.167000
20
127.434110
11
257.174000
21
126.420280
0
LINE
8
cut
10
257.181000
20
125.406450
11
257.188000
21
124.392670
0
LINE
8
cut
10
257.195000
20
123.378700
11
257.203000
21
122.365070
0
LINE
8
cut
10
257.210000
20
121.351050
11
257.217000
21
120.337020
0
LINE
8
cut
10
257.224000
20
119.323820
11
257.231000
21
118.310180
0
LINE
8
cut
10
257.238000
20
117.296640
11
257.245000
21
116.283050
0
LINE
8
cut
10
257.252000
20
115.268840
11
257.259000
21
114.255870
0
LINE
8
cut
10
257.266000
20
113.241470
11
257.271000
21
112.533590
0
LINE
8
cut barrel
10
223.326000
20
49.308900
11
199.686000
21
49.308900
0
LINE
8
cut barrel
10
199.686000
20
49.308900
11
195.271500
21
53.723410
0
LINE
8
cut barrel
10
195.271500
20
53.723410
11
195.272000
21
73.457200
0
LINE
8
cut barrel
10
195.272000
20
73.457200
11
199.525710
21
77.710930
0
LINE
8
cut barrel
10
199.525710
20
77.710930
11
223.883510
21
77.716930
0
LINE
8
cut barrel
10
258.047000
20
49.401700
11
258.047000
21
49.308800
0
LINE
8
cut barrel
10
258.047000
20
49.308800
11
228.585000
21
49.308800
0
LINE
8
cut barrel
10
228.797000
20
77.718400
11
258.098700
21
77.725400
0
LINE
8
cut barrel
10
258.098700
20
77.725400
11
258.098000
21
77.725400
0
LINE
8
cut barrel
10
258.098000
20
77.725400
11
258.098000
21
77.646200
0
LINE
8
cut barrel
10
199.707000
20
64.001600
11
199.650500
21
49.290400
0
LINE
8
cut barrel
10
258.237000
20
77.552400
11
258.180400
21
63.824300
0
LINE
8
cut barrel
10
232.181000
20
94.337500
11
233.740631
21
92.834834
0
LINE
8
cut barrel
10
233.740631
20
92.834834
11
234.901641
21
91.039328
0
LINE
8
cut barrel
10
234.901641
20
91.039328
11
235.626078
21
89.027618
0
LINE
8
cut barrel
10
235.626078
20
89.027618
11
235.875990
21
86.876340
0
LINE
8
cut barrel
10
235.875990
20
86.876340
11
235.876000
21
86.876300
0
LINE
8
cut barrel
10
235.876000
20
86.876300
11
235.744048
21
85.304627
0
LINE
8
cut barrel
10
235.744048
20
85.304627
11
235.360964
21
83.808237
0
LINE
8
cut barrel
10
235.360964
20
83.808237
11
234.745906
21
82.411919
0
LINE
8
cut barrel
10
234.745906
20
82.411919
11
233.918030
21
81.140465
0
LINE
8
cut barrel
10
233.918030
20
81.140465
11
232.896494
21
80.018663
0
LINE
8
cut barrel
10
232.896494
20
80.018663
11
231.700454
21
79.071305
0
LINE
8
cut barrel
10
231.700454
20
79.071305
11
230.349067
21
78.323180
0
LINE
8
cut barrel
10
230.349067
20
78.323180
11
228.861490
21
77.799080
0
LINE
8
cut barrel
10
224.088000
20
77.809800
11
222.607931
21
78.338258
0
LINE
8
cut barrel
10
222.607931
20
78.338258
11
221.263866
21
79.088690
0
LINE
8
cut barrel
10
221.263866
20
79.088690
11
220.074710
21
80.036517
0
LINE
8
cut barrel
10
220.074710
20
80.036517
11
219.059370
21
81.157160
0
LINE
8
cut barrel
10
219.059370
20
81.157160
11
218.236751
21
82.426039
0
LINE
8
cut barrel
10
218.236751
20
82.426039
11
217.625759
21
83.818575
0
LINE
8
cut barrel
10
217.625759
20
83.818575
11
217.245300
21
85.310188
0
LINE
8
cut barrel
10
217.245300
20
85.310188
11
217.114280
21
86.876300
0
LINE
8
cut barrel
10
217.114280
20
86.876300
11
217.265314
21
88.558124
0
LINE
8
cut barrel
10
217.265314
20
88.558124
11
217.702004
21
90.148013
0
LINE
8
cut barrel
10
217.702004
20
90.148013
11
218.399731
21
91.616874
0
LINE
8
cut barrel
10
218.399731
20
91.616874
11
219.333876
21
92.935611
0
LINE
8
cut barrel
10
219.333876
20
92.935611
11
220.479821
21
94.075130
0
LINE
8
cut barrel
10
220.479821
20
94.075130
11
221.812948
21
95.006338
0
LINE
8
cut barrel
10
221.812948
20
95.006338
11
223.308637
21
95.700139
0
LINE
8
cut barrel
10
223.308637
20
95.700139
11
224.942270
21
96.127440
0
LINE
8
cut barrel
10
258.129000
20
77.686500
11
268.334100
21
74.317070
0
LINE
8
cut barrel
10
257.998000
20
49.310600
11
268.179200
21
52.701400
0
LINE
8
cut barrel
10
268.179200
20
52.701400
11
268.180000
21
74.473900
0
LINE
8
cut barrel
10
63.088000
20
99.402600
11
63.088000
21
111.641000
0
LINE
8
cut barrel
10
62.667700
20
99.280400
11
62.667700
21
111.519000
0
LINE
8
solar cut
10
216.610000
20
38.967600
11
215.090420
21
38.962600
0
LINE
8
solar cut
10
220.962000
20
38.981600
11
218.787490
21
38.974600
0
LINE
8
solar cut
10
225.315000
20
38.995600
11
223.139170
21
38.988600
0
LINE
8
solar cut
10
229.666000
20
39.009600
11
227.490080
21
39.002600
0
LINE
8
solar cut
10
234.018000
20
39.023600
11
231.841230
21
39.016600
0
LINE
8
solar cut
10
238.371000
20
39.038600
11
236.195060
21
39.030600
0
LINE
8
solar cut
10
242.724000
20
39.052600
11
240.547750
21
39.045600
0
LINE
8
solar cut
10
247.076000
20
39.066600
11
244.899640
21
39.059600
0
LINE
8
solar cut
10
251.430000
20
39.080600
11
249.253860
21
39.073600
0
LINE
8
solar cut
10
251.533000
20
20.617100
11
251.538000
21
19.820430
0
LINE
8
solar cut
10
251.519000
20
22.898800
11
251.526000
21
21.758770
0
LINE
8
solar cut
10
251.505000
20
25.180900
11
251.512000
21
24.040170
0
LINE
8
solar cut
10
251.491000
20
27.462400
11
251.498000
21
26.321620
0
LINE
8
solar cut
10
251.477000
20
29.743900
11
251.484000
21
28.602680
0
LINE
8
solar cut
10
251.462000
20
32.025900
11
251.470000
21
30.885110
0
LINE
8
solar cut
10
251.448000
20
34.308000
11
251.455000
21
33.167050
0
LINE
8
solar cut
10
251.434000
20
36.590000
11
251.441000
21
35.449000
0
LINE
8
solar cut
10
251.420000
20
38.872300
11
251.427000
21
37.731410
0
LINE
8
solar cut
10
251.504000
20
38.973200
11
254.163000
21
38.973200
0
LINE
8
solar cut
10
254.163000
20
38.973200
11
254.163000
21
31.426700
0
LINE
8
solar cut
10
254.163000
20
31.426700
11
257.246000
21
31.426700
0
LINE
8
solar cut
10
257.246000
20
31.426700
11
257.246000
21
27.735900
0
LINE
8
solar cut
10
257.246000
20
27.735900
11
254.530000
21
27.735900
0
LINE
8
solar cut
10
254.530000
20
27.735900
11
254.530000
21
19.797000
0
LINE
8
solar cut
10
254.530000
20
19.797000
11
251.396000
21
19.797000
0
LINE
8
solar cut
10
215.130000
20
20.639200
11
215.125000
21
19.842530
0
LINE
8
solar cut
10
215.144000
20
22.920900
11
215.137000
21
21.780870
0
LINE
8
solar cut
10
215.158000
20
25.203000
11
215.151000
21
24.062270
0
LINE
8
solar cut
10
215.172000
20
27.484500
11
215.165000
21
26.343720
0
LINE
8
solar cut
10
215.186000
20
29.766000
11
215.179000
21
28.624780
0
LINE
8
solar cut
10
215.201000
20
32.048000
11
215.193000
21
30.907210
0
LINE
8
solar cut
10
215.215000
20
34.330100
11
215.208000
21
33.189150
0
LINE
8
solar cut
10
215.229000
20
36.612100
11
215.222000
21
35.471100
0
LINE
8
solar cut
10
215.243000
20
38.894400
11
215.236000
21
37.753510
0
LINE
8
solar cut
10
215.159000
20
38.995200
11
212.500000
21
38.995200
0
LINE
8
solar cut
10
212.500000
20
38.995200
11
212.500000
21
31.448800
0
LINE
8
solar cut
10
212.500000
20
31.448800
11
209.417000
21
31.448800
0
LINE
8
solar cut
10
209.417000
20
31.448800
11
209.417000
21
27.758000
0
LINE
8
solar cut
10
209.417000
20
27.758000
11
212.133000
21
27.758000
0
LINE
8
solar cut
10
212.133000
20
27.758000
11
212.133000
21
19.819100
0
LINE
8
solar cut
10
212.133000
20
19.819100
11
215.267000
21
19.819100
0
LINE
8
solar cut
10
236.314000
20
41.243700
11
251.496000
21
41.243700
0
LINE
8
solar cut
10
251.496000
20
41.243700
11
251.496000
21
38.868600
0
LINE
8
solar cut
10
215.188000
20
38.825400
11
215.188000
21
41.238300
0
LINE
8
solar cut
10
215.188000
20
41.238300
11
231.113000
21
41.238300
0
LINE
8
solar cut
10
216.536000
20
19.992400
11
215.016420
21
19.997400
0
LINE
8
solar cut
10
220.888000
20
19.978400
11
218.713490
21
19.985400
0
LINE
8
solar cut
10
225.241000
20
19.964400
11
223.065170
21
19.971400
0
LINE
8
solar cut
10
229.592000
20
19.950400
11
227.416080
21
19.957400
0
LINE
8
solar cut
10
233.944000
20
19.936400
11
231.767230
21
19.943400
0
LINE
8
solar cut
10
238.297000
20
19.921400
11
236.121060
21
19.929400
0
LINE
8
solar cut
10
242.650000
20
19.907400
11
240.473750
21
19.914400
0
LINE
8
solar cut
10
247.003000
20
19.893400
11
244.826640
21
19.900400
0
LINE
8
solar cut
10
251.356000
20
19.879400
11
249.179860
21
19.886400
0
LINE
8
solar cut
10
235.211000
20
17.717000
11
251.419900
21
17.717010
0
LINE
8
solar cut
10
251.419900
20
17.717010
11
251.420000
21
20.090600
0
LINE
8
solar cut
10
215.114000
20
20.134600
11
215.114000
21
17.721700
0
LINE
8
solar cut
10
215.114000
20
17.721700
11
230.255200
21
17.721690
0
LINE
8
solar cut
10
205.493000
20
181.215000
11
205.493000
21
176.897000
0
LINE
8
solar cut
10
242.384000
20
181.215000
11
242.384000
21
177.036000
0
LINE
8
solar cut
10
205.015000
20
181.234000
11
205.951000
21
181.234000
0
LINE
8
solar cut
10
205.951000
20
181.234000
11
205.951000
21
177.048000
0
LINE
8
solar cut
10
205.951000
20
177.048000
11
204.966000
21
177.048000
0
LINE
8
solar cut
10
242.619000
20
181.142000
11
242.028000
21
181.142000
0
LINE
8
solar cut
10
242.028000
20
181.142000
11
242.028000
21
176.858000
0
LINE
8
solar cut
10
242.028000
20
176.858000
11
242.732760
21
177.046841
0
LINE
8
cut
10
199.700000
20
65.484800
11
199.706000
21
63.729820
0
LINE
8
cut
10
199.683000
20
70.511100
11
199.691000
21
67.999740
0
LINE
8
cut
10
199.666000
20
75.538400
11
199.674000
21
73.025500
0
LINE
8
cut
10
258.133000
20
52.563600
11
258.139000
21
50.808610
0
LINE
8
cut
10
258.117000
20
57.589900
11
258.125000
21
55.078530
0
LINE
8
cut
10
258.100000
20
62.617300
11
258.108000
21
60.104390
0
LINE
8
cut
10
138.417000
20
163.317000
11
138.417000
21
162.178210
0
LINE
8
cut
10
138.417000
20
161.039610
11
138.417000
21
159.901350
0
LINE
8
cut
10
138.417000
20
158.762370
11
138.417000
21
157.624010
0
LINE
8
cut
10
138.417000
20
156.485940
11
138.417000
21
155.347720
0
LINE
8
cut
10
138.417000
20
154.208940
11
138.417000
21
153.070060
0
LINE
8
cut
10
138.417000
20
151.931890
11
138.417000
21
150.793200
0
LINE
8
cut
10
138.417000
20
149.654410
11
138.417000
21
148.515810
0
LINE
8
cut
10
138.417000
20
147.377070
11
138.417000
21
146.238620
0
LINE
8
cut
10
138.417000
20
145.100170
11
138.417000
21
143.961470
0
LINE
8
cut
10
138.417000
20
142.823070
11
138.417000
21
141.684610
0
LINE
8
cut
10
138.417000
20
140.546110
11
138.417000
21
139.407280
0
LINE
8
cut
10
138.417000
20
138.268630
11
138.417000
21
137.130410
0
LINE
8
cut
10
138.417000
20
135.991760
11
138.417000
21
134.853260
0
LINE
8
cut
10
138.417000
20
133.714900
11
138.417000
21
132.576070
0
LINE
8
cut
10
138.444000
20
131.540000
11
138.444000
21
130.401210
0
LINE
8
cut
10
138.444000
20
129.262610
11
138.444000
21
128.124350
0
LINE
8
cut
10
138.444000
20
126.985370
11
138.444000
21
125.847010
0
LINE
8
cut
10
138.444000
20
124.708930
11
138.444000
21
123.570710
0
LINE
8
cut
10
138.444000
20
122.431930
11
138.444000
21
121.293050
0
LINE
8
cut
10
138.444000
20
120.154880
11
138.444000
21
119.016190
0
LINE
8
cut
10
138.444000
20
117.877400
11
138.444000
21
116.738800
0
LINE
8
cut
10
138.444000
20
115.600060
11
138.444000
21
114.461600
0
LINE
8
cut
10
138.444000
20
113.323150
11
138.444000
21
112.184450
0
LINE
8
cut
10
138.444000
20
111.046060
11
138.444000
21
109.907600
0
LINE
8
cut
10
138.444000
20
108.769100
11
138.444000
21
107.630270
0
LINE
8
cut
10
138.444000
20
106.491620
11
138.444000
21
105.353400
0
LINE
8
cut
10
138.444000
20
104.214750
11
138.444000
21
103.076250
0
LINE
8
cut
10
138.444000
20
101.937890
11
138.444000
21
100.799060
0
LINE
8
cut
10
62.838400
20
164.417000
11
62.838400
21
163.278210
0
LINE
8
cut
10
62.838400
20
162.139610
11
62.838400
21
161.001350
0
LINE
8
cut
10
62.838400
20
159.862370
11
62.838400
21
158.724010
0
LINE
8
cut
10
62.838400
20
157.585940
11
62.838400
21
156.447720
0
LINE
8
cut
10
62.838400
20
155.308940
11
62.838400
21
154.170060
0
LINE
8
cut
10
62.838400
20
153.031890
11
62.838400
21
151.893200
0
LINE
8
cut
10
62.838400
20
150.754410
11
62.838400
21
149.615810
0
LINE
8
cut
10
62.838400
20
148.477070
11
62.838400
21
147.338620
0
LINE
8
cut
10
62.838400
20
146.200170
11
62.838400
21
145.061470
0
LINE
8
cut
10
62.838400
20
143.923070
11
62.838400
21
142.784610
0
LINE
8
cut
10
62.838400
20
141.646110
11
62.838400
21
140.507280
0
LINE
8
cut
10
62.838400
20
139.368630
11
62.838400
21
138.230410
0
LINE
8
cut
10
62.838400
20
137.091760
11
62.838400
21
135.953260
0
LINE
8
cut
10
62.838400
20
134.814900
11
62.838400
21
133.676070
0
LINE
8
cut
10
62.864800
20
132.640000
11
62.864800
21
131.872178
0
LINE
8
cut
10
62.864800
20
131.104483
11
62.864800
21
130.337012
0
LINE
8
cut
10
62.864800
20
129.569062
11
62.864800
21
128.801529
0
LINE
8
cut
10
62.864800
20
128.034182
11
62.864800
21
127.266742
0
LINE
8
cut
10
62.864800
20
126.498923
11
62.864800
21
125.731038
0
LINE
8
cut
10
62.864800
20
124.963631
11
62.864800
21
124.195873
0
LINE
8
cut
10
62.864800
20
123.428048
11
62.864800
21
122.660351
0
LINE
8
cut
10
62.864800
20
121.892560
11
62.864800
21
121.124957
0
LINE
8
cut
10
62.864800
20
120.357361
11
62.864800
21
119.589597
0
LINE
8
cut
10
62.864800
20
118.822041
11
62.864800
21
118.054439
0
LINE
8
cut
10
62.864800
20
117.286809
11
62.864800
21
116.518957
0
LINE
8
cut
10
62.864800
20
115.751230
11
62.864800
21
114.983790
0
LINE
8
cut
10
62.864800
20
114.216060
11
62.864800
21
113.448430
0
LINE
8
cut
10
62.864800
20
112.680890
11
62.864800
21
111.913040
0
LINE
8
pictures
10
103.011000
20
209.506000
11
107.986000
21
209.506000
0
LINE
8
solar image
10
200.929000
20
35.387200
11
261.914000
21
35.387200
0
LINE
8
solar image
10
201.134000
20
32.112900
11
262.118000
21
32.112900
0
LINE
8
solar image
10
200.043000
20
29.187000
11
261.028000
21
29.187000
0
LINE
8
solar image
10
200.248000
20
25.912700
11
261.232000
21
25.912700
0
LINE
8
solar image
10
202.827000
20
22.354200
11
263.812000
21
22.354200
0
LINE
8
barrel Image
10
204.306000
20
79.889100
11
204.306000
21
46.736400
0
LINE
8
barrel Image
10
209.276000
20
79.801400
11
209.276000
21
46.648700
0
LINE
8
barrel Image
10
214.129000
20
79.859800
11
214.129000
21
46.707200
0
LINE
8
barrel Image
10
219.040000
20
79.484500
11
219.040000
21
15.931400
0
LINE
8
barrel Image
10
233.716000
20
79.484600
11
233.716000
21
15.931400
0
LINE
8
barrel Image
10
238.569000
20
79.484500
11
238.569000
21
15.931400
0
LINE
8
barrel Image
10
243.539000
20
80.269100
11
243.539000
21
16.716000
0
LINE
8
barrel Image
10
248.392000
20
79.484500
11
248.392000
21
15.931400
0
LINE
8
barrel Image
10
253.187000
20
80.035300
11
253.187000
21
46.882600
0
LINE
8
barrel Image
10
228.863000
20
77.354900
11
228.863000
21
13.801700
0
LINE
8
barrel Image
10
223.952000
20
77.915300
11
223.952000
21
14.362100
0
LINE
8
barrel Image
10
198.576000
20
73.925100
11
259.560000
21
73.925100
0
LINE
8
barrel Image
10
198.780000
20
70.650800
11
259.765000
21
70.650800
0
LINE
8
barrel Image
10
198.839000
20
55.916200
11
259.823000
21
55.916200
0
LINE
8
barrel Image
10
198.780000
20
52.291100
11
259.765000
21
52.291100
 0 
ENDSEC
 0 
EOF