  0
SECTION
  2
HEADER
  9
$ACADVER
  1
AC1014
  9
$HANDSEED
  5
FFFF
  9
$MEASUREMENT
 70
     1
  0
ENDSEC
  0
SECTION
  2
TABLES
  0
TABLE
  2
VPORT
  5
8
330
0
100
AcDbSymbolTable
 70
     4
  0
VPORT
  5
2E
330
8
100
AcDbSymbolTableRecord
100
AcDbViewportTableRecord
  2
*ACTIVE
 70
     0
 10
0.0
 20
0.0
 11
1.0
 21
1.0
 12
210.0
 22
148.5
 13
0.0
 23
0.0
 14
10.0
 24
10.0
 15
10.0
 25
10.0
 16
0.0
 26
0.0
 36
1.0
 17
0.0
 27
0.0
 37
0.0
 40
341.0
 41
1.24
 42
50.0
 43
0.0
 44
0.0
 50
0.0
 51
0.0
 71
     0
 72
   100
 73
     1
 74
     3
 75
     0
 76
     0
 77
     0
 78
     0
  0
ENDTAB
  0
TABLE
  2
LTYPE
  5
5
330
0
100
AcDbSymbolTable
 70
     1
  0
LTYPE
  5
14
330
5
100
AcDbSymbolTableRecord
100
AcDbLinetypeTableRecord
  2
BYBLOCK
 70
     0
  3

 72
    65
 73
     0
 40
0.0
  0
LTYPE
  5
15
330
5
100
AcDbSymbolTableRecord
100
AcDbLinetypeTableRecord
  2
BYLAYER
 70
     0
  3

 72
    65
 73
     0
 40
0.0
  0
LTYPE
  5
16
330
5
100
AcDbSymbolTableRecord
100
AcDbLinetypeTableRecord
  2
CONTINUOUS
 70
     0
  3
Solid line
 72
    65
 73
     0
 40
0.0
  0
ENDTAB
  0
TABLE
  2
LAYER
  5
2
100
AcDbSymbolTable
 70
5
  0
LAYER
  5
50
100
AcDbSymbolTableRecord
100
AcDbLayerTableRecord
  2
0
 70
0
  6
CONTINUOUS
  0
LAYER
  5
51
100
AcDbSymbolTableRecord
100
AcDbLayerTableRecord
  2
wood
 70
0
  6
CONTINUOUS
  0
LAYER
  5
52
100
AcDbSymbolTableRecord
100
AcDbLayerTableRecord
  2
paper
 70
0
  6
CONTINUOUS
  0
LAYER
  5
53
100
AcDbSymbolTableRecord
100
AcDbLayerTableRecord
  2
paper_print
 70
0
  6
CONTINUOUS
  0
LAYER
  5
54
100
AcDbSymbolTableRecord
100
AcDbLayerTableRecord
  2
person
 70
0
  6
CONTINUOUS
  0
ENDTAB
  0
TABLE
  2
STYLE
  5
3
330
0
100
AcDbSymbolTable
 70
     1
  0
STYLE
  5
11
330
3
100
AcDbSymbolTableRecord
100
AcDbTextStyleTableRecord
  2
STANDARD
 70
     0
 40
0.0
 41
1.0
 50
0.0
 71
     0
 42
2.5
  3
txt
  4

  0
ENDTAB
  0
TABLE
  2
VIEW
  5
6
330
0
100
AcDbSymbolTable
 70
     0
  0
ENDTAB
  0
TABLE
  2
UCS
  5
7
330
0
100
AcDbSymbolTable
 70
     0
  0
ENDTAB
  0
TABLE
  2
APPID
  5
9
330
0
100
AcDbSymbolTable
 70
     2
  0
APPID
  5
12
330
9
100
AcDbSymbolTableRecord
100
AcDbRegAppTableRecord
  2
ACAD
 70
     0
  0
ENDTAB
  0
TABLE
  2
DIMSTYLE
  5
A
330
0
100
AcDbSymbolTable
 70
     1
  0
DIMSTYLE
105
27
330
A
100
AcDbSymbolTableRecord
100
AcDbDimStyleTableRecord
  2
ISO-25
 70
     0
  3

  4

  5

  6

  7

 40
1.0
 41
2.5
 42
0.625
 43
3.75
 44
1.25
 45
0.0
 46
0.0
 47
0.0
 48
0.0
140
2.5
141
2.5
142
0.0
143
0.03937007874016
144
1.0
145
0.0
146
1.0
147
0.625
 71
     0
 72
     0
 73
     0
 74
     0
 75
     0
 76
     0
 77
     1
 78
     8
170
     0
171
     3
172
     1
173
     0
174
     0
175
     0
176
     0
177
     0
178
     0
270
     2
271
     2
272
     2
273
     2
274
     3
340
11
275
     0
280
     0
281
     0
282
     0
283
     0
284
     8
285
     0
286
     0
287
     3
288
     0
  0
ENDTAB
  0
TABLE
  2
BLOCK_RECORD
  5
1
330
0
100
AcDbSymbolTable
 70
     1
  0
BLOCK_RECORD
  5
1F
330
1
100
AcDbSymbolTableRecord
100
AcDbBlockTableRecord
  2
*MODEL_SPACE
  0
BLOCK_RECORD
  5
1B
330
1
100
AcDbSymbolTableRecord
100
AcDbBlockTableRecord
  2
*PAPER_SPACE
  0
ENDTAB
  0
ENDSEC
  0
SECTION
  2
BLOCKS
  0
BLOCK
  5
20
330
1F
100
AcDbEntity
  8
0
100
AcDbBlockBegin
  2
*MODEL_SPACE
 70
     0
 10
0.0
 20
0.0
 30
0.0
  3
*MODEL_SPACE
  1

  0
ENDBLK
  5
21
330
1F
100
AcDbEntity
  8
0
100
AcDbBlockEnd
  0
BLOCK
  5
1C
330
1B
100
AcDbEntity
 67
     1
  8
0
100
AcDbBlockBegin
  2
*PAPER_SPACE
  1

  0
ENDBLK
  5
1D
330
1B
100
AcDbEntity
 67
     1
  8
0
100
AcDbBlockEnd
  0
ENDSEC
  0
SECTION
  2
ENTITIES
  0
LWPOLYLINE
  5
100
100
AcDbEntity
  8
paper
 62
1
100
AcDbPolyline
 90
2
 70
0
 10
161.567880
 20
168.816910
 30
0.0
 10
142.278990
 20
168.816910
 30
0.0
  0
LWPOLYLINE
  5
101
100
AcDbEntity
  8
paper
 62
7
100
AcDbPolyline
 90
2
 70
0
 10
158.169190
 20
164.177140
 30
0.0
 10
141.941960
 20
164.177140
 30
0.0
  0
LWPOLYLINE
  5
102
100
AcDbEntity
  8
paper
 62
1
100
AcDbPolyline
 90
2
 70
0
 10
161.519330
 20
164.177140
 30
0.0
 10
158.169190
 20
164.177140
 30
0.0
  0
LWPOLYLINE
  5
103
100
AcDbEntity
  8
paper
 62
7
100
AcDbPolyline
 90
3
 70
0
 10
141.930260
 20
168.831520
 30
0.0
 10
141.785450
 20
172.802330
 30
0.0
 10
161.452040
 20
172.802330
 30
0.0
  0
LWPOLYLINE
  5
104
100
AcDbEntity
  8
paper
 62
7
100
AcDbPolyline
 90
3
 70
0
 10
161.567870
 20
168.816910
 30
0.0
 10
161.567870
 20
172.831610
 30
0.0
 10
161.434220
 20
172.816010
 30
0.0
  0
LWPOLYLINE
  5
105
100
AcDbEntity
  8
paper
 62
7
100
AcDbPolyline
 90
3
 70
0
 10
161.567880
 20
150.088610
 30
0.0
 10
161.567880
 20
146.073910
 30
0.0
 10
161.434230
 20
146.089510
 30
0.0
  0
LWPOLYLINE
  5
106
100
AcDbEntity
  8
paper
 62
1
100
AcDbPolyline
 90
3
 70
0
 10
161.567880
 20
168.816910
 30
0.0
 10
161.567880
 20
150.088610
 30
0.0
 10
185.867880
 20
150.088610
 30
0.0
  0
LWPOLYLINE
  5
107
100
AcDbEntity
  8
paper
 62
7
100
AcDbPolyline
 90
2
 70
0
 10
161.434230
 20
146.089490
 30
0.0
 10
186.001540
 20
146.089490
 30
0.0
  0
LWPOLYLINE
  5
108
100
AcDbEntity
  8
paper
 62
7
100
AcDbPolyline
 90
3
 70
0
 10
158.207320
 20
164.076630
 30
0.0
 10
158.207320
 20
154.915140
 30
0.0
 10
141.743320
 20
154.915140
 30
0.0
  0
LWPOLYLINE
  5
109
100
AcDbEntity
  8
paper
 62
1
100
AcDbPolyline
 90
2
 70
0
 10
161.557470
 20
154.915140
 30
0.0
 10
158.207320
 20
154.915140
 30
0.0
  0
LWPOLYLINE
  5
10a
100
AcDbEntity
  8
paper
 62
1
100
AcDbPolyline
 90
2
 70
0
 10
185.916420
 20
164.177140
 30
0.0
 10
189.266570
 20
164.177140
 30
0.0
  0
LWPOLYLINE
  5
10b
100
AcDbEntity
  8
paper
 62
7
100
AcDbPolyline
 90
3
 70
0
 10
185.867890
 20
168.816910
 30
0.0
 10
185.867890
 20
172.831610
 30
0.0
 10
186.001540
 20
172.816010
 30
0.0
  0
LWPOLYLINE
  5
10c
100
AcDbEntity
  8
paper
 62
7
100
AcDbPolyline
 90
3
 70
0
 10
185.867880
 20
150.088610
 30
0.0
 10
185.867880
 20
146.073910
 30
0.0
 10
186.001530
 20
146.089510
 30
0.0
  0
LWPOLYLINE
  5
10d
100
AcDbEntity
  8
paper
 62
1
100
AcDbPolyline
 90
2
 70
0
 10
185.867880
 20
168.816910
 30
0.0
 10
185.867880
 20
150.088610
 30
0.0
  0
LWPOLYLINE
  5
10e
100
AcDbEntity
  8
paper
 62
7
100
AcDbPolyline
 90
2
 70
0
 10
189.228440
 20
164.076630
 30
0.0
 10
189.228440
 20
154.915140
 30
0.0
  0
LWPOLYLINE
  5
10f
100
AcDbEntity
  8
paper
 62
1
100
AcDbPolyline
 90
2
 70
0
 10
185.878290
 20
154.915140
 30
0.0
 10
189.228440
 20
154.915140
 30
0.0
  0
LWPOLYLINE
  5
110
100
AcDbEntity
  8
paper
 62
1
100
AcDbPolyline
 90
2
 70
0
 10
161.567870
 20
168.816910
 30
0.0
 10
185.867890
 20
168.816910
 30
0.0
  0
LWPOLYLINE
  5
111
100
AcDbEntity
  8
paper
 62
7
100
AcDbPolyline
 90
3
 70
0
 10
161.434220
 20
172.816030
 30
0.0
 10
161.434220
 20
204.239934
 30
0.0
 10
176.939290
 20
204.239934
 30
0.0
  0
LWPOLYLINE
  5
112
100
AcDbEntity
  8
paper
 62
7
100
AcDbPolyline
 90
2
 70
0
 10
185.867890
 20
172.831610
 30
0.0
 10
185.867890
 20
204.397143
 30
0.0
  0
LWPOLYLINE
  5
113
100
AcDbEntity
  8
paper
 62
7
100
AcDbPolyline
 90
2
 70
0
 10
176.939290
 20
204.239934
 30
0.0
 10
185.943070
 20
204.239934
 30
0.0
  0
LWPOLYLINE
  5
114
100
AcDbEntity
  8
paper
 62
7
100
AcDbPolyline
 90
2
 70
0
 10
141.602250
 20
172.831610
 30
0.0
 10
161.567870
 20
172.831610
 30
0.0
  0
LWPOLYLINE
  5
115
100
AcDbEntity
  8
paper
 62
7
100
AcDbPolyline
 90
2
 70
0
 10
141.930260
 20
168.831520
 30
0.0
 10
141.930260
 20
164.035550
 30
0.0
  0
LWPOLYLINE
  5
116
100
AcDbEntity
  8
paper
 62
1
100
AcDbPolyline
 90
2
 70
0
 10
161.434240
 20
150.104190
 30
0.0
 10
142.145350
 20
150.104190
 30
0.0
  0
LWPOLYLINE
  5
117
100
AcDbEntity
  8
paper
 62
7
100
AcDbPolyline
 90
3
 70
0
 10
141.796620
 20
150.089580
 30
0.0
 10
141.651810
 20
146.118770
 30
0.0
 10
161.318400
 20
146.118770
 30
0.0
  0
LWPOLYLINE
  5
118
100
AcDbEntity
  8
paper
 62
7
100
AcDbPolyline
 90
2
 70
0
 10
141.468610
 20
146.089490
 30
0.0
 10
161.434230
 20
146.089490
 30
0.0
  0
LWPOLYLINE
  5
119
100
AcDbEntity
  8
paper
 62
7
100
AcDbPolyline
 90
2
 70
0
 10
141.796620
 20
150.089580
 30
0.0
 10
141.796620
 20
154.885550
 30
0.0
  0
LWPOLYLINE
  5
11a
100
AcDbEntity
  8
paper
 62
1
100
AcDbPolyline
 90
2
 70
0
 10
185.867880
 20
168.816910
 30
0.0
 10
205.156770
 20
168.816910
 30
0.0
  0
LWPOLYLINE
  5
11b
100
AcDbEntity
  8
paper
 62
7
100
AcDbPolyline
 90
2
 70
0
 10
189.266570
 20
164.177140
 30
0.0
 10
205.493800
 20
164.177140
 30
0.0
  0
LWPOLYLINE
  5
11c
100
AcDbEntity
  8
paper
 62
7
100
AcDbPolyline
 90
3
 70
0
 10
205.505500
 20
168.831520
 30
0.0
 10
205.650310
 20
172.802330
 30
0.0
 10
185.983720
 20
172.802330
 30
0.0
  0
LWPOLYLINE
  5
11d
100
AcDbEntity
  8
paper
 62
7
100
AcDbPolyline
 90
2
 70
0
 10
185.867890
 20
172.831610
 30
0.0
 10
186.001540
 20
172.816010
 30
0.0
  0
LWPOLYLINE
  5
11e
100
AcDbEntity
  8
paper
 62
7
100
AcDbPolyline
 90
2
 70
0
 10
185.867880
 20
146.073910
 30
0.0
 10
186.001530
 20
146.089510
 30
0.0
  0
LWPOLYLINE
  5
11f
100
AcDbEntity
  8
paper
 62
7
100
AcDbPolyline
 90
2
 70
0
 10
189.228440
 20
154.915140
 30
0.0
 10
205.692440
 20
154.915140
 30
0.0
  0
LWPOLYLINE
  5
120
100
AcDbEntity
  8
paper
 62
7
100
AcDbPolyline
 90
2
 70
0
 10
205.833510
 20
172.831610
 30
0.0
 10
185.867890
 20
172.831610
 30
0.0
  0
LWPOLYLINE
  5
121
100
AcDbEntity
  8
paper
 62
7
100
AcDbPolyline
 90
2
 70
0
 10
205.505500
 20
168.831520
 30
0.0
 10
205.505500
 20
164.035550
 30
0.0
  0
LWPOLYLINE
  5
122
100
AcDbEntity
  8
paper
 62
1
100
AcDbPolyline
 90
2
 70
0
 10
186.001520
 20
150.104190
 30
0.0
 10
205.290410
 20
150.104190
 30
0.0
  0
LWPOLYLINE
  5
123
100
AcDbEntity
  8
paper
 62
7
100
AcDbPolyline
 90
3
 70
0
 10
205.639140
 20
150.089580
 30
0.0
 10
205.783950
 20
146.118770
 30
0.0
 10
186.117360
 20
146.118770
 30
0.0
  0
LWPOLYLINE
  5
124
100
AcDbEntity
  8
paper
 62
7
100
AcDbPolyline
 90
2
 70
0
 10
205.967150
 20
146.089490
 30
0.0
 10
186.001530
 20
146.089490
 30
0.0
  0
LWPOLYLINE
  5
125
100
AcDbEntity
  8
paper
 62
7
100
AcDbPolyline
 90
2
 70
0
 10
205.639140
 20
150.089580
 30
0.0
 10
205.639140
 20
154.885550
 30
0.0
  0
LWPOLYLINE
  5
126
100
AcDbEntity
  8
paper
 62
1
100
AcDbPolyline
 90
2
 70
0
 10
139.898330
 20
181.455730
 30
0.0
 10
159.187220
 20
181.455730
 30
0.0
  0
LWPOLYLINE
  5
127
100
AcDbEntity
  8
paper
 62
7
100
AcDbPolyline
 90
2
 70
0
 10
143.297020
 20
186.095500
 30
0.0
 10
159.524250
 20
186.095500
 30
0.0
  0
LWPOLYLINE
  5
128
100
AcDbEntity
  8
paper
 62
1
100
AcDbPolyline
 90
2
 70
0
 10
139.946870
 20
186.095500
 30
0.0
 10
143.297020
 20
186.095500
 30
0.0
  0
LWPOLYLINE
  5
129
100
AcDbEntity
  8
paper
 62
7
100
AcDbPolyline
 90
3
 70
0
 10
159.535950
 20
181.441120
 30
0.0
 10
159.680760
 20
177.470310
 30
0.0
 10
140.014170
 20
177.470310
 30
0.0
  0
LWPOLYLINE
  5
12a
100
AcDbEntity
  8
paper
 62
7
100
AcDbPolyline
 90
3
 70
0
 10
139.898340
 20
181.455730
 30
0.0
 10
139.898340
 20
177.441030
 30
0.0
 10
140.031990
 20
177.456630
 30
0.0
  0
LWPOLYLINE
  5
12b
100
AcDbEntity
  8
paper
 62
7
100
AcDbPolyline
 90
3
 70
0
 10
139.898330
 20
200.184030
 30
0.0
 10
139.898330
 20
204.198730
 30
0.0
 10
140.031980
 20
204.183130
 30
0.0
  0
LWPOLYLINE
  5
12c
100
AcDbEntity
  8
paper
 62
1
100
AcDbPolyline
 90
3
 70
0
 10
139.898330
 20
181.455730
 30
0.0
 10
139.898330
 20
200.184030
 30
0.0
 10
115.598330
 20
200.184030
 30
0.0
  0
LWPOLYLINE
  5
12d
100
AcDbEntity
  8
paper
 62
7
100
AcDbPolyline
 90
2
 70
0
 10
140.031980
 20
204.183150
 30
0.0
 10
115.464670
 20
204.183150
 30
0.0
  0
LWPOLYLINE
  5
12e
100
AcDbEntity
  8
paper
 62
7
100
AcDbPolyline
 90
3
 70
0
 10
143.258890
 20
186.196010
 30
0.0
 10
143.258890
 20
195.357500
 30
0.0
 10
159.722890
 20
195.357500
 30
0.0
  0
LWPOLYLINE
  5
12f
100
AcDbEntity
  8
paper
 62
1
100
AcDbPolyline
 90
2
 70
0
 10
139.908740
 20
195.357500
 30
0.0
 10
143.258890
 20
195.357500
 30
0.0
  0
LWPOLYLINE
  5
130
100
AcDbEntity
  8
paper
 62
1
100
AcDbPolyline
 90
2
 70
0
 10
115.549790
 20
186.095500
 30
0.0
 10
112.199640
 20
186.095500
 30
0.0
  0
LWPOLYLINE
  5
131
100
AcDbEntity
  8
paper
 62
7
100
AcDbPolyline
 90
3
 70
0
 10
115.598320
 20
181.455730
 30
0.0
 10
115.598320
 20
177.441030
 30
0.0
 10
115.464670
 20
177.456630
 30
0.0
  0
LWPOLYLINE
  5
132
100
AcDbEntity
  8
paper
 62
7
100
AcDbPolyline
 90
3
 70
0
 10
115.598330
 20
200.184030
 30
0.0
 10
115.598330
 20
204.198730
 30
0.0
 10
115.464680
 20
204.183130
 30
0.0
  0
LWPOLYLINE
  5
133
100
AcDbEntity
  8
paper
 62
1
100
AcDbPolyline
 90
2
 70
0
 10
115.598330
 20
181.455730
 30
0.0
 10
115.598330
 20
200.184030
 30
0.0
  0
LWPOLYLINE
  5
134
100
AcDbEntity
  8
paper
 62
7
100
AcDbPolyline
 90
2
 70
0
 10
112.237770
 20
186.196010
 30
0.0
 10
112.237770
 20
195.357500
 30
0.0
  0
LWPOLYLINE
  5
135
100
AcDbEntity
  8
paper
 62
1
100
AcDbPolyline
 90
2
 70
0
 10
115.587920
 20
195.357500
 30
0.0
 10
112.237770
 20
195.357500
 30
0.0
  0
LWPOLYLINE
  5
136
100
AcDbEntity
  8
paper
 62
1
100
AcDbPolyline
 90
2
 70
0
 10
139.898340
 20
181.455730
 30
0.0
 10
115.598320
 20
181.455730
 30
0.0
  0
LWPOLYLINE
  5
137
100
AcDbEntity
  8
paper
 62
7
100
AcDbPolyline
 90
3
 70
0
 10
140.031990
 20
177.456610
 30
0.0
 10
140.031990
 20
146.032710
 30
0.0
 10
124.526920
 20
146.032710
 30
0.0
  0
LWPOLYLINE
  5
138
100
AcDbEntity
  8
paper
 62
7
100
AcDbPolyline
 90
2
 70
0
 10
115.598320
 20
177.441030
 30
0.0
 10
115.598320
 20
145.875500
 30
0.0
  0
LWPOLYLINE
  5
139
100
AcDbEntity
  8
paper
 62
7
100
AcDbPolyline
 90
2
 70
0
 10
124.526920
 20
146.032710
 30
0.0
 10
115.523140
 20
146.032710
 30
0.0
  0
LWPOLYLINE
  5
13a
100
AcDbEntity
  8
paper
 62
7
100
AcDbPolyline
 90
2
 70
0
 10
159.863960
 20
177.441030
 30
0.0
 10
139.898340
 20
177.441030
 30
0.0
  0
LWPOLYLINE
  5
13b
100
AcDbEntity
  8
paper
 62
7
100
AcDbPolyline
 90
2
 70
0
 10
159.535950
 20
181.441120
 30
0.0
 10
159.535950
 20
186.237090
 30
0.0
  0
LWPOLYLINE
  5
13c
100
AcDbEntity
  8
paper
 62
1
100
AcDbPolyline
 90
2
 70
0
 10
140.031970
 20
200.168450
 30
0.0
 10
159.320860
 20
200.168450
 30
0.0
  0
LWPOLYLINE
  5
13d
100
AcDbEntity
  8
paper
 62
7
100
AcDbPolyline
 90
3
 70
0
 10
159.669590
 20
200.183060
 30
0.0
 10
159.814400
 20
204.153870
 30
0.0
 10
140.147810
 20
204.153870
 30
0.0
  0
LWPOLYLINE
  5
13e
100
AcDbEntity
  8
paper
 62
7
100
AcDbPolyline
 90
2
 70
0
 10
159.997600
 20
204.183150
 30
0.0
 10
140.031980
 20
204.183150
 30
0.0
  0
LWPOLYLINE
  5
13f
100
AcDbEntity
  8
paper
 62
7
100
AcDbPolyline
 90
2
 70
0
 10
159.669590
 20
200.183060
 30
0.0
 10
159.669590
 20
195.387090
 30
0.0
  0
LWPOLYLINE
  5
140
100
AcDbEntity
  8
paper
 62
1
100
AcDbPolyline
 90
2
 70
0
 10
115.598330
 20
181.455730
 30
0.0
 10
96.309440
 20
181.455730
 30
0.0
  0
LWPOLYLINE
  5
141
100
AcDbEntity
  8
paper
 62
7
100
AcDbPolyline
 90
2
 70
0
 10
112.199640
 20
186.095500
 30
0.0
 10
95.972410
 20
186.095500
 30
0.0
  0
LWPOLYLINE
  5
142
100
AcDbEntity
  8
paper
 62
7
100
AcDbPolyline
 90
3
 70
0
 10
95.960710
 20
181.441120
 30
0.0
 10
95.815900
 20
177.470310
 30
0.0
 10
115.482490
 20
177.470310
 30
0.0
  0
LWPOLYLINE
  5
143
100
AcDbEntity
  8
paper
 62
7
100
AcDbPolyline
 90
2
 70
0
 10
115.598320
 20
177.441030
 30
0.0
 10
115.464670
 20
177.456630
 30
0.0
  0
LWPOLYLINE
  5
144
100
AcDbEntity
  8
paper
 62
7
100
AcDbPolyline
 90
2
 70
0
 10
115.598330
 20
204.198730
 30
0.0
 10
115.464680
 20
204.183130
 30
0.0
  0
LWPOLYLINE
  5
145
100
AcDbEntity
  8
paper
 62
7
100
AcDbPolyline
 90
2
 70
0
 10
112.237770
 20
195.357500
 30
0.0
 10
95.773770
 20
195.357500
 30
0.0
  0
LWPOLYLINE
  5
146
100
AcDbEntity
  8
paper
 62
7
100
AcDbPolyline
 90
2
 70
0
 10
95.632700
 20
177.441030
 30
0.0
 10
115.598320
 20
177.441030
 30
0.0
  0
LWPOLYLINE
  5
147
100
AcDbEntity
  8
paper
 62
7
100
AcDbPolyline
 90
2
 70
0
 10
95.960710
 20
181.441120
 30
0.0
 10
95.960710
 20
186.237090
 30
0.0
  0
LWPOLYLINE
  5
148
100
AcDbEntity
  8
paper
 62
1
100
AcDbPolyline
 90
2
 70
0
 10
115.464690
 20
200.168450
 30
0.0
 10
96.175800
 20
200.168450
 30
0.0
  0
LWPOLYLINE
  5
149
100
AcDbEntity
  8
paper
 62
7
100
AcDbPolyline
 90
3
 70
0
 10
95.827070
 20
200.183060
 30
0.0
 10
95.682260
 20
204.153870
 30
0.0
 10
115.348850
 20
204.153870
 30
0.0
  0
LWPOLYLINE
  5
14a
100
AcDbEntity
  8
paper
 62
7
100
AcDbPolyline
 90
2
 70
0
 10
95.499060
 20
204.183150
 30
0.0
 10
115.464680
 20
204.183150
 30
0.0
  0
LWPOLYLINE
  5
14b
100
AcDbEntity
  8
paper
 62
7
100
AcDbPolyline
 90
2
 70
0
 10
95.827070
 20
200.183060
 30
0.0
 10
95.827070
 20
195.387090
 30
0.0
  0
LWPOLYLINE
  5
14c
100
AcDbEntity
  8
paper
 62
1
100
AcDbPolyline
 90
2
 70
0
 10
69.703716
 20
169.723830
 30
0.0
 10
50.414826
 20
169.723830
 30
0.0
  0
LWPOLYLINE
  5
14d
100
AcDbEntity
  8
paper
 62
7
100
AcDbPolyline
 90
2
 70
0
 10
66.305026
 20
165.084060
 30
0.0
 10
50.077796
 20
165.084060
 30
0.0
  0
LWPOLYLINE
  5
14e
100
AcDbEntity
  8
paper
 62
1
100
AcDbPolyline
 90
2
 70
0
 10
69.655173
 20
165.084060
 30
0.0
 10
66.305024
 20
165.084060
 30
0.0
  0
LWPOLYLINE
  5
14f
100
AcDbEntity
  8
paper
 62
7
100
AcDbPolyline
 90
3
 70
0
 10
50.066096
 20
169.738440
 30
0.0
 10
49.921286
 20
173.709250
 30
0.0
 10
69.587876
 20
173.709250
 30
0.0
  0
LWPOLYLINE
  5
150
100
AcDbEntity
  8
paper
 62
7
100
AcDbPolyline
 90
3
 70
0
 10
69.703706
 20
169.723830
 30
0.0
 10
69.703706
 20
173.738530
 30
0.0
 10
69.570056
 20
173.722930
 30
0.0
  0
LWPOLYLINE
  5
151
100
AcDbEntity
  8
paper
 62
7
100
AcDbPolyline
 90
3
 70
0
 10
69.703716
 20
150.995530
 30
0.0
 10
69.703716
 20
146.980830
 30
0.0
 10
69.570066
 20
146.996430
 30
0.0
  0
LWPOLYLINE
  5
152
100
AcDbEntity
  8
paper
 62
1
100
AcDbPolyline
 90
3
 70
0
 10
69.703716
 20
169.723830
 30
0.0
 10
69.703716
 20
150.995530
 30
0.0
 10
94.003716
 20
150.995530
 30
0.0
  0
LWPOLYLINE
  5
153
100
AcDbEntity
  8
paper
 62
7
100
AcDbPolyline
 90
2
 70
0
 10
69.570066
 20
146.996410
 30
0.0
 10
94.137376
 20
146.996410
 30
0.0
  0
LWPOLYLINE
  5
154
100
AcDbEntity
  8
paper
 62
7
100
AcDbPolyline
 90
3
 70
0
 10
66.343156
 20
164.983550
 30
0.0
 10
66.343156
 20
155.822060
 30
0.0
 10
49.879156
 20
155.822060
 30
0.0
  0
LWPOLYLINE
  5
155
100
AcDbEntity
  8
paper
 62
1
100
AcDbPolyline
 90
2
 70
0
 10
69.693306
 20
155.822060
 30
0.0
 10
66.343156
 20
155.822060
 30
0.0
  0
LWPOLYLINE
  5
156
100
AcDbEntity
  8
paper
 62
1
100
AcDbPolyline
 90
2
 70
0
 10
94.052256
 20
165.084060
 30
0.0
 10
97.402406
 20
165.084060
 30
0.0
  0
LWPOLYLINE
  5
157
100
AcDbEntity
  8
paper
 62
7
100
AcDbPolyline
 90
3
 70
0
 10
94.003726
 20
169.723830
 30
0.0
 10
94.003726
 20
173.738530
 30
0.0
 10
94.137376
 20
173.722930
 30
0.0
  0
LWPOLYLINE
  5
158
100
AcDbEntity
  8
paper
 62
7
100
AcDbPolyline
 90
3
 70
0
 10
94.003716
 20
150.995530
 30
0.0
 10
94.003716
 20
146.980830
 30
0.0
 10
94.137366
 20
146.996430
 30
0.0
  0
LWPOLYLINE
  5
159
100
AcDbEntity
  8
paper
 62
1
100
AcDbPolyline
 90
2
 70
0
 10
94.003716
 20
169.723830
 30
0.0
 10
94.003716
 20
150.995530
 30
0.0
  0
LWPOLYLINE
  5
15a
100
AcDbEntity
  8
paper
 62
7
100
AcDbPolyline
 90
2
 70
0
 10
97.364276
 20
164.983550
 30
0.0
 10
97.364276
 20
155.822060
 30
0.0
  0
LWPOLYLINE
  5
15b
100
AcDbEntity
  8
paper
 62
1
100
AcDbPolyline
 90
2
 70
0
 10
94.014126
 20
155.822060
 30
0.0
 10
97.364276
 20
155.822060
 30
0.0
  0
LWPOLYLINE
  5
15c
100
AcDbEntity
  8
paper
 62
1
100
AcDbPolyline
 90
2
 70
0
 10
69.703706
 20
169.723830
 30
0.0
 10
94.003726
 20
169.723830
 30
0.0
  0
LWPOLYLINE
  5
15d
100
AcDbEntity
  8
paper
 62
7
100
AcDbPolyline
 90
3
 70
0
 10
69.570056
 20
173.722950
 30
0.0
 10
69.570056
 20
205.146853
 30
0.0
 10
85.075126
 20
205.146853
 30
0.0
  0
LWPOLYLINE
  5
15e
100
AcDbEntity
  8
paper
 62
7
100
AcDbPolyline
 90
2
 70
0
 10
94.003726
 20
173.738530
 30
0.0
 10
94.003726
 20
205.304062
 30
0.0
  0
LWPOLYLINE
  5
15f
100
AcDbEntity
  8
paper
 62
7
100
AcDbPolyline
 90
2
 70
0
 10
85.075126
 20
205.146853
 30
0.0
 10
94.078906
 20
205.146853
 30
0.0
  0
LWPOLYLINE
  5
160
100
AcDbEntity
  8
paper
 62
7
100
AcDbPolyline
 90
2
 70
0
 10
49.738086
 20
173.738530
 30
0.0
 10
69.703706
 20
173.738530
 30
0.0
  0
LWPOLYLINE
  5
161
100
AcDbEntity
  8
paper
 62
7
100
AcDbPolyline
 90
2
 70
0
 10
50.066096
 20
169.738440
 30
0.0
 10
50.066096
 20
164.942470
 30
0.0
  0
LWPOLYLINE
  5
162
100
AcDbEntity
  8
paper
 62
1
100
AcDbPolyline
 90
2
 70
0
 10
69.570076
 20
151.011110
 30
0.0
 10
50.281186
 20
151.011110
 30
0.0
  0
LWPOLYLINE
  5
163
100
AcDbEntity
  8
paper
 62
7
100
AcDbPolyline
 90
3
 70
0
 10
49.932456
 20
150.996500
 30
0.0
 10
49.787646
 20
147.025690
 30
0.0
 10
69.454236
 20
147.025690
 30
0.0
  0
LWPOLYLINE
  5
164
100
AcDbEntity
  8
paper
 62
7
100
AcDbPolyline
 90
2
 70
0
 10
49.604446
 20
146.996410
 30
0.0
 10
69.570066
 20
146.996410
 30
0.0
  0
LWPOLYLINE
  5
165
100
AcDbEntity
  8
paper
 62
7
100
AcDbPolyline
 90
2
 70
0
 10
49.932456
 20
150.996500
 30
0.0
 10
49.932456
 20
155.792470
 30
0.0
  0
LWPOLYLINE
  5
166
100
AcDbEntity
  8
paper
 62
1
100
AcDbPolyline
 90
2
 70
0
 10
94.003716
 20
169.723830
 30
0.0
 10
113.292610
 20
169.723830
 30
0.0
  0
LWPOLYLINE
  5
167
100
AcDbEntity
  8
paper
 62
7
100
AcDbPolyline
 90
2
 70
0
 10
97.402406
 20
165.084060
 30
0.0
 10
113.629640
 20
165.084060
 30
0.0
  0
LWPOLYLINE
  5
168
100
AcDbEntity
  8
paper
 62
7
100
AcDbPolyline
 90
3
 70
0
 10
113.641340
 20
169.738440
 30
0.0
 10
113.786150
 20
173.709250
 30
0.0
 10
94.119556
 20
173.709250
 30
0.0
  0
LWPOLYLINE
  5
169
100
AcDbEntity
  8
paper
 62
7
100
AcDbPolyline
 90
2
 70
0
 10
94.003726
 20
173.738530
 30
0.0
 10
94.137376
 20
173.722930
 30
0.0
  0
LWPOLYLINE
  5
16a
100
AcDbEntity
  8
paper
 62
7
100
AcDbPolyline
 90
2
 70
0
 10
94.003716
 20
146.980830
 30
0.0
 10
94.137366
 20
146.996430
 30
0.0
  0
LWPOLYLINE
  5
16b
100
AcDbEntity
  8
paper
 62
7
100
AcDbPolyline
 90
2
 70
0
 10
97.364276
 20
155.822060
 30
0.0
 10
113.828280
 20
155.822060
 30
0.0
  0
LWPOLYLINE
  5
16c
100
AcDbEntity
  8
paper
 62
7
100
AcDbPolyline
 90
2
 70
0
 10
113.969350
 20
173.738530
 30
0.0
 10
94.003726
 20
173.738530
 30
0.0
  0
LWPOLYLINE
  5
16d
100
AcDbEntity
  8
paper
 62
7
100
AcDbPolyline
 90
2
 70
0
 10
113.641340
 20
169.738440
 30
0.0
 10
113.641340
 20
164.942470
 30
0.0
  0
LWPOLYLINE
  5
16e
100
AcDbEntity
  8
paper
 62
1
100
AcDbPolyline
 90
2
 70
0
 10
94.137356
 20
151.011110
 30
0.0
 10
113.426250
 20
151.011110
 30
0.0
  0
LWPOLYLINE
  5
16f
100
AcDbEntity
  8
paper
 62
7
100
AcDbPolyline
 90
3
 70
0
 10
113.774980
 20
150.996500
 30
0.0
 10
113.919790
 20
147.025690
 30
0.0
 10
94.253196
 20
147.025690
 30
0.0
  0
LWPOLYLINE
  5
170
100
AcDbEntity
  8
paper
 62
7
100
AcDbPolyline
 90
2
 70
0
 10
114.102990
 20
146.996410
 30
0.0
 10
94.137366
 20
146.996410
 30
0.0
  0
LWPOLYLINE
  5
171
100
AcDbEntity
  8
paper
 62
7
100
AcDbPolyline
 90
2
 70
0
 10
113.774980
 20
150.996500
 30
0.0
 10
113.774980
 20
155.792470
 30
0.0
  0
LWPOLYLINE
  5
172
100
AcDbEntity
  8
paper
 62
1
100
AcDbPolyline
 90
2
 70
0
 10
48.412410
 20
182.419430
 30
0.0
 10
67.701300
 20
182.419430
 30
0.0
  0
LWPOLYLINE
  5
173
100
AcDbEntity
  8
paper
 62
7
100
AcDbPolyline
 90
2
 70
0
 10
51.811100
 20
187.059200
 30
0.0
 10
68.038330
 20
187.059200
 30
0.0
  0
LWPOLYLINE
  5
174
100
AcDbEntity
  8
paper
 62
1
100
AcDbPolyline
 90
2
 70
0
 10
48.460953
 20
187.059200
 30
0.0
 10
51.811102
 20
187.059200
 30
0.0
  0
LWPOLYLINE
  5
175
100
AcDbEntity
  8
paper
 62
7
100
AcDbPolyline
 90
3
 70
0
 10
68.050030
 20
182.404820
 30
0.0
 10
68.194840
 20
178.434010
 30
0.0
 10
48.528250
 20
178.434010
 30
0.0
  0
LWPOLYLINE
  5
176
100
AcDbEntity
  8
paper
 62
7
100
AcDbPolyline
 90
3
 70
0
 10
48.412420
 20
182.419430
 30
0.0
 10
48.412420
 20
178.404730
 30
0.0
 10
48.546070
 20
178.420330
 30
0.0
  0
LWPOLYLINE
  5
177
100
AcDbEntity
  8
paper
 62
7
100
AcDbPolyline
 90
3
 70
0
 10
48.412410
 20
201.147730
 30
0.0
 10
48.412410
 20
205.162430
 30
0.0
 10
48.546060
 20
205.146830
 30
0.0
  0
LWPOLYLINE
  5
178
100
AcDbEntity
  8
paper
 62
1
100
AcDbPolyline
 90
3
 70
0
 10
48.412410
 20
182.419430
 30
0.0
 10
48.412410
 20
201.147730
 30
0.0
 10
24.112410
 20
201.147730
 30
0.0
  0
LWPOLYLINE
  5
179
100
AcDbEntity
  8
paper
 62
7
100
AcDbPolyline
 90
2
 70
0
 10
48.546060
 20
205.146850
 30
0.0
 10
23.978750
 20
205.146850
 30
0.0
  0
LWPOLYLINE
  5
17a
100
AcDbEntity
  8
paper
 62
7
100
AcDbPolyline
 90
3
 70
0
 10
51.772970
 20
187.159710
 30
0.0
 10
51.772970
 20
196.321200
 30
0.0
 10
68.236970
 20
196.321200
 30
0.0
  0
LWPOLYLINE
  5
17b
100
AcDbEntity
  8
paper
 62
1
100
AcDbPolyline
 90
2
 70
0
 10
48.422820
 20
196.321200
 30
0.0
 10
51.772970
 20
196.321200
 30
0.0
  0
LWPOLYLINE
  5
17c
100
AcDbEntity
  8
paper
 62
1
100
AcDbPolyline
 90
2
 70
0
 10
24.063870
 20
187.059200
 30
0.0
 10
20.713720
 20
187.059200
 30
0.0
  0
LWPOLYLINE
  5
17d
100
AcDbEntity
  8
paper
 62
7
100
AcDbPolyline
 90
3
 70
0
 10
24.112400
 20
182.419430
 30
0.0
 10
24.112400
 20
178.404730
 30
0.0
 10
23.978750
 20
178.420330
 30
0.0
  0
LWPOLYLINE
  5
17e
100
AcDbEntity
  8
paper
 62
7
100
AcDbPolyline
 90
3
 70
0
 10
24.112410
 20
201.147730
 30
0.0
 10
24.112410
 20
205.162430
 30
0.0
 10
23.978760
 20
205.146830
 30
0.0
  0
LWPOLYLINE
  5
17f
100
AcDbEntity
  8
paper
 62
1
100
AcDbPolyline
 90
2
 70
0
 10
24.112410
 20
182.419430
 30
0.0
 10
24.112410
 20
201.147730
 30
0.0
  0
LWPOLYLINE
  5
180
100
AcDbEntity
  8
paper
 62
7
100
AcDbPolyline
 90
2
 70
0
 10
20.751850
 20
187.159710
 30
0.0
 10
20.751850
 20
196.321200
 30
0.0
  0
LWPOLYLINE
  5
181
100
AcDbEntity
  8
paper
 62
1
100
AcDbPolyline
 90
2
 70
0
 10
24.102000
 20
196.321200
 30
0.0
 10
20.751850
 20
196.321200
 30
0.0
  0
LWPOLYLINE
  5
182
100
AcDbEntity
  8
paper
 62
1
100
AcDbPolyline
 90
2
 70
0
 10
48.412420
 20
182.419430
 30
0.0
 10
24.112400
 20
182.419430
 30
0.0
  0
LWPOLYLINE
  5
183
100
AcDbEntity
  8
paper
 62
7
100
AcDbPolyline
 90
3
 70
0
 10
48.546070
 20
178.420310
 30
0.0
 10
48.546070
 20
146.996410
 30
0.0
 10
33.041000
 20
146.996410
 30
0.0
  0
LWPOLYLINE
  5
184
100
AcDbEntity
  8
paper
 62
7
100
AcDbPolyline
 90
2
 70
0
 10
24.112400
 20
178.404730
 30
0.0
 10
24.112400
 20
146.839200
 30
0.0
  0
LWPOLYLINE
  5
185
100
AcDbEntity
  8
paper
 62
7
100
AcDbPolyline
 90
2
 70
0
 10
33.041000
 20
146.996410
 30
0.0
 10
24.037220
 20
146.996410
 30
0.0
  0
LWPOLYLINE
  5
186
100
AcDbEntity
  8
paper
 62
7
100
AcDbPolyline
 90
2
 70
0
 10
68.378040
 20
178.404730
 30
0.0
 10
48.412420
 20
178.404730
 30
0.0
  0
LWPOLYLINE
  5
187
100
AcDbEntity
  8
paper
 62
7
100
AcDbPolyline
 90
2
 70
0
 10
68.050030
 20
182.404820
 30
0.0
 10
68.050030
 20
187.200790
 30
0.0
  0
LWPOLYLINE
  5
188
100
AcDbEntity
  8
paper
 62
1
100
AcDbPolyline
 90
2
 70
0
 10
48.546050
 20
201.132150
 30
0.0
 10
67.834940
 20
201.132150
 30
0.0
  0
LWPOLYLINE
  5
189
100
AcDbEntity
  8
paper
 62
7
100
AcDbPolyline
 90
3
 70
0
 10
68.183670
 20
201.146760
 30
0.0
 10
68.328480
 20
205.117570
 30
0.0
 10
48.661890
 20
205.117570
 30
0.0
  0
LWPOLYLINE
  5
18a
100
AcDbEntity
  8
paper
 62
7
100
AcDbPolyline
 90
2
 70
0
 10
68.511680
 20
205.146850
 30
0.0
 10
48.546060
 20
205.146850
 30
0.0
  0
LWPOLYLINE
  5
18b
100
AcDbEntity
  8
paper
 62
7
100
AcDbPolyline
 90
2
 70
0
 10
68.183670
 20
201.146760
 30
0.0
 10
68.183670
 20
196.350790
 30
0.0
  0
LWPOLYLINE
  5
18c
100
AcDbEntity
  8
paper
 62
1
100
AcDbPolyline
 90
2
 70
0
 10
24.112410
 20
182.419430
 30
0.0
 10
4.823520
 20
182.419430
 30
0.0
  0
LWPOLYLINE
  5
18d
100
AcDbEntity
  8
paper
 62
7
100
AcDbPolyline
 90
2
 70
0
 10
20.713720
 20
187.059200
 30
0.0
 10
4.486490
 20
187.059200
 30
0.0
  0
LWPOLYLINE
  5
18e
100
AcDbEntity
  8
paper
 62
7
100
AcDbPolyline
 90
3
 70
0
 10
4.474790
 20
182.404820
 30
0.0
 10
4.329980
 20
178.434010
 30
0.0
 10
23.996570
 20
178.434010
 30
0.0
  0
LWPOLYLINE
  5
18f
100
AcDbEntity
  8
paper
 62
7
100
AcDbPolyline
 90
2
 70
0
 10
24.112400
 20
178.404730
 30
0.0
 10
23.978750
 20
178.420330
 30
0.0
  0
LWPOLYLINE
  5
190
100
AcDbEntity
  8
paper
 62
7
100
AcDbPolyline
 90
2
 70
0
 10
24.112410
 20
205.162430
 30
0.0
 10
23.978760
 20
205.146830
 30
0.0
  0
LWPOLYLINE
  5
191
100
AcDbEntity
  8
paper
 62
7
100
AcDbPolyline
 90
2
 70
0
 10
20.751850
 20
196.321200
 30
0.0
 10
4.287850
 20
196.321200
 30
0.0
  0
LWPOLYLINE
  5
192
100
AcDbEntity
  8
paper
 62
7
100
AcDbPolyline
 90
2
 70
0
 10
4.146780
 20
178.404730
 30
0.0
 10
24.112400
 20
178.404730
 30
0.0
  0
LWPOLYLINE
  5
193
100
AcDbEntity
  8
paper
 62
7
100
AcDbPolyline
 90
2
 70
0
 10
4.474790
 20
182.404820
 30
0.0
 10
4.474790
 20
187.200790
 30
0.0
  0
LWPOLYLINE
  5
194
100
AcDbEntity
  8
paper
 62
1
100
AcDbPolyline
 90
2
 70
0
 10
23.978770
 20
201.132150
 30
0.0
 10
4.689880
 20
201.132150
 30
0.0
  0
LWPOLYLINE
  5
195
100
AcDbEntity
  8
paper
 62
7
100
AcDbPolyline
 90
3
 70
0
 10
4.341150
 20
201.146760
 30
0.0
 10
4.196340
 20
205.117570
 30
0.0
 10
23.862930
 20
205.117570
 30
0.0
  0
LWPOLYLINE
  5
196
100
AcDbEntity
  8
paper
 62
7
100
AcDbPolyline
 90
2
 70
0
 10
4.013140
 20
205.146850
 30
0.0
 10
23.978760
 20
205.146850
 30
0.0
  0
LWPOLYLINE
  5
197
100
AcDbEntity
  8
paper
 62
7
100
AcDbPolyline
 90
2
 70
0
 10
4.341150
 20
201.146760
 30
0.0
 10
4.341150
 20
196.350790
 30
0.0
  0
LWPOLYLINE
  5
198
100
AcDbEntity
  8
paper
 62
1
100
AcDbPolyline
 90
2
 70
0
 10
160.036750
 20
230.546194
 30
0.0
 10
140.747860
 20
230.546194
 30
0.0
  0
LWPOLYLINE
  5
199
100
AcDbEntity
  8
paper
 62
7
100
AcDbPolyline
 90
2
 70
0
 10
156.638060
 20
225.906424
 30
0.0
 10
140.410830
 20
225.906424
 30
0.0
  0
LWPOLYLINE
  5
19a
100
AcDbEntity
  8
paper
 62
1
100
AcDbPolyline
 90
2
 70
0
 10
159.988210
 20
225.906426
 30
0.0
 10
156.638060
 20
225.906426
 30
0.0
  0
LWPOLYLINE
  5
19b
100
AcDbEntity
  8
paper
 62
7
100
AcDbPolyline
 90
3
 70
0
 10
140.399130
 20
230.560804
 30
0.0
 10
140.254320
 20
234.531614
 30
0.0
 10
159.920910
 20
234.531614
 30
0.0
  0
LWPOLYLINE
  5
19c
100
AcDbEntity
  8
paper
 62
7
100
AcDbPolyline
 90
3
 70
0
 10
160.036740
 20
230.546194
 30
0.0
 10
160.036740
 20
234.560894
 30
0.0
 10
159.903090
 20
234.545294
 30
0.0
  0
LWPOLYLINE
  5
19d
100
AcDbEntity
  8
paper
 62
7
100
AcDbPolyline
 90
3
 70
0
 10
160.036750
 20
211.817894
 30
0.0
 10
160.036750
 20
207.803194
 30
0.0
 10
159.903100
 20
207.818794
 30
0.0
  0
LWPOLYLINE
  5
19e
100
AcDbEntity
  8
paper
 62
1
100
AcDbPolyline
 90
3
 70
0
 10
160.036750
 20
230.546194
 30
0.0
 10
160.036750
 20
211.817894
 30
0.0
 10
184.336750
 20
211.817894
 30
0.0
  0
LWPOLYLINE
  5
19f
100
AcDbEntity
  8
paper
 62
7
100
AcDbPolyline
 90
2
 70
0
 10
159.903100
 20
207.818774
 30
0.0
 10
184.470410
 20
207.818774
 30
0.0
  0
LWPOLYLINE
  5
1a0
100
AcDbEntity
  8
paper
 62
7
100
AcDbPolyline
 90
3
 70
0
 10
156.676190
 20
225.805914
 30
0.0
 10
156.676190
 20
216.644424
 30
0.0
 10
140.212190
 20
216.644424
 30
0.0
  0
LWPOLYLINE
  5
1a1
100
AcDbEntity
  8
paper
 62
1
100
AcDbPolyline
 90
2
 70
0
 10
160.026340
 20
216.644424
 30
0.0
 10
156.676190
 20
216.644424
 30
0.0
  0
LWPOLYLINE
  5
1a2
100
AcDbEntity
  8
paper
 62
1
100
AcDbPolyline
 90
2
 70
0
 10
184.385290
 20
225.906424
 30
0.0
 10
187.735440
 20
225.906424
 30
0.0
  0
LWPOLYLINE
  5
1a3
100
AcDbEntity
  8
paper
 62
7
100
AcDbPolyline
 90
3
 70
0
 10
184.336760
 20
230.546194
 30
0.0
 10
184.336760
 20
234.560894
 30
0.0
 10
184.470410
 20
234.545294
 30
0.0
  0
LWPOLYLINE
  5
1a4
100
AcDbEntity
  8
paper
 62
7
100
AcDbPolyline
 90
3
 70
0
 10
184.336750
 20
211.817894
 30
0.0
 10
184.336750
 20
207.803194
 30
0.0
 10
184.470400
 20
207.818794
 30
0.0
  0
LWPOLYLINE
  5
1a5
100
AcDbEntity
  8
paper
 62
1
100
AcDbPolyline
 90
2
 70
0
 10
184.336750
 20
230.546194
 30
0.0
 10
184.336750
 20
211.817894
 30
0.0
  0
LWPOLYLINE
  5
1a6
100
AcDbEntity
  8
paper
 62
7
100
AcDbPolyline
 90
2
 70
0
 10
187.697310
 20
225.805914
 30
0.0
 10
187.697310
 20
216.644424
 30
0.0
  0
LWPOLYLINE
  5
1a7
100
AcDbEntity
  8
paper
 62
1
100
AcDbPolyline
 90
2
 70
0
 10
184.347160
 20
216.644424
 30
0.0
 10
187.697310
 20
216.644424
 30
0.0
  0
LWPOLYLINE
  5
1a8
100
AcDbEntity
  8
paper
 62
1
100
AcDbPolyline
 90
2
 70
0
 10
160.036740
 20
230.546194
 30
0.0
 10
184.336760
 20
230.546194
 30
0.0
  0
LWPOLYLINE
  5
1a9
100
AcDbEntity
  8
paper
 62
7
100
AcDbPolyline
 90
3
 70
0
 10
159.903090
 20
234.545314
 30
0.0
 10
159.903090
 20
265.969218
 30
0.0
 10
175.408160
 20
265.969218
 30
0.0
  0
LWPOLYLINE
  5
1aa
100
AcDbEntity
  8
paper
 62
7
100
AcDbPolyline
 90
2
 70
0
 10
184.336760
 20
234.560894
 30
0.0
 10
184.336760
 20
266.126427
 30
0.0
  0
LWPOLYLINE
  5
1ab
100
AcDbEntity
  8
paper
 62
7
100
AcDbPolyline
 90
2
 70
0
 10
175.408160
 20
265.969218
 30
0.0
 10
184.411940
 20
265.969218
 30
0.0
  0
LWPOLYLINE
  5
1ac
100
AcDbEntity
  8
paper
 62
7
100
AcDbPolyline
 90
2
 70
0
 10
140.071120
 20
234.560894
 30
0.0
 10
160.036740
 20
234.560894
 30
0.0
  0
LWPOLYLINE
  5
1ad
100
AcDbEntity
  8
paper
 62
7
100
AcDbPolyline
 90
2
 70
0
 10
140.399130
 20
230.560804
 30
0.0
 10
140.399130
 20
225.764834
 30
0.0
  0
LWPOLYLINE
  5
1ae
100
AcDbEntity
  8
paper
 62
1
100
AcDbPolyline
 90
2
 70
0
 10
159.903110
 20
211.833474
 30
0.0
 10
140.614220
 20
211.833474
 30
0.0
  0
LWPOLYLINE
  5
1af
100
AcDbEntity
  8
paper
 62
7
100
AcDbPolyline
 90
3
 70
0
 10
140.265490
 20
211.818864
 30
0.0
 10
140.120680
 20
207.848054
 30
0.0
 10
159.787270
 20
207.848054
 30
0.0
  0
LWPOLYLINE
  5
1b0
100
AcDbEntity
  8
paper
 62
7
100
AcDbPolyline
 90
2
 70
0
 10
139.937480
 20
207.818774
 30
0.0
 10
159.903100
 20
207.818774
 30
0.0
  0
LWPOLYLINE
  5
1b1
100
AcDbEntity
  8
paper
 62
7
100
AcDbPolyline
 90
2
 70
0
 10
140.265490
 20
211.818864
 30
0.0
 10
140.265490
 20
216.614834
 30
0.0
  0
LWPOLYLINE
  5
1b2
100
AcDbEntity
  8
paper
 62
1
100
AcDbPolyline
 90
2
 70
0
 10
184.336750
 20
230.546194
 30
0.0
 10
203.625640
 20
230.546194
 30
0.0
  0
LWPOLYLINE
  5
1b3
100
AcDbEntity
  8
paper
 62
7
100
AcDbPolyline
 90
2
 70
0
 10
187.735440
 20
225.906424
 30
0.0
 10
203.962670
 20
225.906424
 30
0.0
  0
LWPOLYLINE
  5
1b4
100
AcDbEntity
  8
paper
 62
7
100
AcDbPolyline
 90
3
 70
0
 10
203.974370
 20
230.560804
 30
0.0
 10
204.119180
 20
234.531614
 30
0.0
 10
184.452590
 20
234.531614
 30
0.0
  0
LWPOLYLINE
  5
1b5
100
AcDbEntity
  8
paper
 62
7
100
AcDbPolyline
 90
2
 70
0
 10
184.336760
 20
234.560894
 30
0.0
 10
184.470410
 20
234.545294
 30
0.0
  0
LWPOLYLINE
  5
1b6
100
AcDbEntity
  8
paper
 62
7
100
AcDbPolyline
 90
2
 70
0
 10
184.336750
 20
207.803194
 30
0.0
 10
184.470400
 20
207.818794
 30
0.0
  0
LWPOLYLINE
  5
1b7
100
AcDbEntity
  8
paper
 62
7
100
AcDbPolyline
 90
2
 70
0
 10
187.697310
 20
216.644424
 30
0.0
 10
204.161310
 20
216.644424
 30
0.0
  0
LWPOLYLINE
  5
1b8
100
AcDbEntity
  8
paper
 62
7
100
AcDbPolyline
 90
2
 70
0
 10
204.302380
 20
234.560894
 30
0.0
 10
184.336760
 20
234.560894
 30
0.0
  0
LWPOLYLINE
  5
1b9
100
AcDbEntity
  8
paper
 62
7
100
AcDbPolyline
 90
2
 70
0
 10
203.974370
 20
230.560804
 30
0.0
 10
203.974370
 20
225.764834
 30
0.0
  0
LWPOLYLINE
  5
1ba
100
AcDbEntity
  8
paper
 62
1
100
AcDbPolyline
 90
2
 70
0
 10
184.470390
 20
211.833474
 30
0.0
 10
203.759280
 20
211.833474
 30
0.0
  0
LWPOLYLINE
  5
1bb
100
AcDbEntity
  8
paper
 62
7
100
AcDbPolyline
 90
3
 70
0
 10
204.108010
 20
211.818864
 30
0.0
 10
204.252820
 20
207.848054
 30
0.0
 10
184.586230
 20
207.848054
 30
0.0
  0
LWPOLYLINE
  5
1bc
100
AcDbEntity
  8
paper
 62
7
100
AcDbPolyline
 90
2
 70
0
 10
204.436020
 20
207.818774
 30
0.0
 10
184.470400
 20
207.818774
 30
0.0
  0
LWPOLYLINE
  5
1bd
100
AcDbEntity
  8
paper
 62
7
100
AcDbPolyline
 90
2
 70
0
 10
204.108010
 20
211.818864
 30
0.0
 10
204.108010
 20
216.614834
 30
0.0
  0
LWPOLYLINE
  5
1be
100
AcDbEntity
  8
paper
 62
1
100
AcDbPolyline
 90
2
 70
0
 10
138.367190
 20
243.185030
 30
0.0
 10
157.656080
 20
243.185030
 30
0.0
  0
LWPOLYLINE
  5
1bf
100
AcDbEntity
  8
paper
 62
7
100
AcDbPolyline
 90
2
 70
0
 10
141.765880
 20
247.824800
 30
0.0
 10
157.993110
 20
247.824800
 30
0.0
  0
LWPOLYLINE
  5
1c0
100
AcDbEntity
  8
paper
 62
1
100
AcDbPolyline
 90
2
 70
0
 10
138.415730
 20
247.824798
 30
0.0
 10
141.765880
 20
247.824798
 30
0.0
  0
LWPOLYLINE
  5
1c1
100
AcDbEntity
  8
paper
 62
7
100
AcDbPolyline
 90
3
 70
0
 10
158.004810
 20
243.170420
 30
0.0
 10
158.149620
 20
239.199610
 30
0.0
 10
138.483030
 20
239.199610
 30
0.0
  0
LWPOLYLINE
  5
1c2
100
AcDbEntity
  8
paper
 62
7
100
AcDbPolyline
 90
3
 70
0
 10
138.367200
 20
243.185030
 30
0.0
 10
138.367200
 20
239.170330
 30
0.0
 10
138.500850
 20
239.185930
 30
0.0
  0
LWPOLYLINE
  5
1c3
100
AcDbEntity
  8
paper
 62
7
100
AcDbPolyline
 90
3
 70
0
 10
138.367190
 20
261.913330
 30
0.0
 10
138.367190
 20
265.928030
 30
0.0
 10
138.500840
 20
265.912430
 30
0.0
  0
LWPOLYLINE
  5
1c4
100
AcDbEntity
  8
paper
 62
1
100
AcDbPolyline
 90
3
 70
0
 10
138.367190
 20
243.185030
 30
0.0
 10
138.367190
 20
261.913330
 30
0.0
 10
114.067190
 20
261.913330
 30
0.0
  0
LWPOLYLINE
  5
1c5
100
AcDbEntity
  8
paper
 62
7
100
AcDbPolyline
 90
2
 70
0
 10
138.500840
 20
265.912450
 30
0.0
 10
113.933530
 20
265.912450
 30
0.0
  0
LWPOLYLINE
  5
1c6
100
AcDbEntity
  8
paper
 62
7
100
AcDbPolyline
 90
3
 70
0
 10
141.727750
 20
247.925310
 30
0.0
 10
141.727750
 20
257.086800
 30
0.0
 10
158.191750
 20
257.086800
 30
0.0
  0
LWPOLYLINE
  5
1c7
100
AcDbEntity
  8
paper
 62
1
100
AcDbPolyline
 90
2
 70
0
 10
138.377600
 20
257.086800
 30
0.0
 10
141.727750
 20
257.086800
 30
0.0
  0
LWPOLYLINE
  5
1c8
100
AcDbEntity
  8
paper
 62
1
100
AcDbPolyline
 90
2
 70
0
 10
114.018650
 20
247.824800
 30
0.0
 10
110.668500
 20
247.824800
 30
0.0
  0
LWPOLYLINE
  5
1c9
100
AcDbEntity
  8
paper
 62
7
100
AcDbPolyline
 90
3
 70
0
 10
114.067180
 20
243.185030
 30
0.0
 10
114.067180
 20
239.170330
 30
0.0
 10
113.933530
 20
239.185930
 30
0.0
  0
LWPOLYLINE
  5
1ca
100
AcDbEntity
  8
paper
 62
7
100
AcDbPolyline
 90
3
 70
0
 10
114.067190
 20
261.913330
 30
0.0
 10
114.067190
 20
265.928030
 30
0.0
 10
113.933540
 20
265.912430
 30
0.0
  0
LWPOLYLINE
  5
1cb
100
AcDbEntity
  8
paper
 62
1
100
AcDbPolyline
 90
2
 70
0
 10
114.067190
 20
243.185030
 30
0.0
 10
114.067190
 20
261.913330
 30
0.0
  0
LWPOLYLINE
  5
1cc
100
AcDbEntity
  8
paper
 62
7
100
AcDbPolyline
 90
2
 70
0
 10
110.706630
 20
247.925310
 30
0.0
 10
110.706630
 20
257.086800
 30
0.0
  0
LWPOLYLINE
  5
1cd
100
AcDbEntity
  8
paper
 62
1
100
AcDbPolyline
 90
2
 70
0
 10
114.056780
 20
257.086800
 30
0.0
 10
110.706630
 20
257.086800
 30
0.0
  0
LWPOLYLINE
  5
1ce
100
AcDbEntity
  8
paper
 62
1
100
AcDbPolyline
 90
2
 70
0
 10
138.367200
 20
243.185030
 30
0.0
 10
114.067180
 20
243.185030
 30
0.0
  0
LWPOLYLINE
  5
1cf
100
AcDbEntity
  8
paper
 62
7
100
AcDbPolyline
 90
3
 70
0
 10
138.500850
 20
239.185910
 30
0.0
 10
138.500850
 20
207.762006
 30
0.0
 10
122.995780
 20
207.762006
 30
0.0
  0
LWPOLYLINE
  5
1d0
100
AcDbEntity
  8
paper
 62
7
100
AcDbPolyline
 90
2
 70
0
 10
114.067180
 20
239.170330
 30
0.0
 10
114.067180
 20
207.604797
 30
0.0
  0
LWPOLYLINE
  5
1d1
100
AcDbEntity
  8
paper
 62
7
100
AcDbPolyline
 90
2
 70
0
 10
122.995780
 20
207.762006
 30
0.0
 10
113.992000
 20
207.762006
 30
0.0
  0
LWPOLYLINE
  5
1d2
100
AcDbEntity
  8
paper
 62
7
100
AcDbPolyline
 90
2
 70
0
 10
158.332820
 20
239.170330
 30
0.0
 10
138.367200
 20
239.170330
 30
0.0
  0
LWPOLYLINE
  5
1d3
100
AcDbEntity
  8
paper
 62
7
100
AcDbPolyline
 90
2
 70
0
 10
158.004810
 20
243.170420
 30
0.0
 10
158.004810
 20
247.966390
 30
0.0
  0
LWPOLYLINE
  5
1d4
100
AcDbEntity
  8
paper
 62
1
100
AcDbPolyline
 90
2
 70
0
 10
138.500830
 20
261.897750
 30
0.0
 10
157.789720
 20
261.897750
 30
0.0
  0
LWPOLYLINE
  5
1d5
100
AcDbEntity
  8
paper
 62
7
100
AcDbPolyline
 90
3
 70
0
 10
158.138450
 20
261.912360
 30
0.0
 10
158.283260
 20
265.883170
 30
0.0
 10
138.616670
 20
265.883170
 30
0.0
  0
LWPOLYLINE
  5
1d6
100
AcDbEntity
  8
paper
 62
7
100
AcDbPolyline
 90
2
 70
0
 10
158.466460
 20
265.912450
 30
0.0
 10
138.500840
 20
265.912450
 30
0.0
  0
LWPOLYLINE
  5
1d7
100
AcDbEntity
  8
paper
 62
7
100
AcDbPolyline
 90
2
 70
0
 10
158.138450
 20
261.912360
 30
0.0
 10
158.138450
 20
257.116390
 30
0.0
  0
LWPOLYLINE
  5
1d8
100
AcDbEntity
  8
paper
 62
1
100
AcDbPolyline
 90
2
 70
0
 10
114.067190
 20
243.185030
 30
0.0
 10
94.778300
 20
243.185030
 30
0.0
  0
LWPOLYLINE
  5
1d9
100
AcDbEntity
  8
paper
 62
7
100
AcDbPolyline
 90
2
 70
0
 10
110.668500
 20
247.824800
 30
0.0
 10
94.441270
 20
247.824800
 30
0.0
  0
LWPOLYLINE
  5
1da
100
AcDbEntity
  8
paper
 62
7
100
AcDbPolyline
 90
3
 70
0
 10
94.429570
 20
243.170420
 30
0.0
 10
94.284760
 20
239.199610
 30
0.0
 10
113.951350
 20
239.199610
 30
0.0
  0
LWPOLYLINE
  5
1db
100
AcDbEntity
  8
paper
 62
7
100
AcDbPolyline
 90
2
 70
0
 10
114.067180
 20
239.170330
 30
0.0
 10
113.933530
 20
239.185930
 30
0.0
  0
LWPOLYLINE
  5
1dc
100
AcDbEntity
  8
paper
 62
7
100
AcDbPolyline
 90
2
 70
0
 10
114.067190
 20
265.928030
 30
0.0
 10
113.933540
 20
265.912430
 30
0.0
  0
LWPOLYLINE
  5
1dd
100
AcDbEntity
  8
paper
 62
7
100
AcDbPolyline
 90
2
 70
0
 10
110.706630
 20
257.086800
 30
0.0
 10
94.242630
 20
257.086800
 30
0.0
  0
LWPOLYLINE
  5
1de
100
AcDbEntity
  8
paper
 62
7
100
AcDbPolyline
 90
2
 70
0
 10
94.101560
 20
239.170330
 30
0.0
 10
114.067180
 20
239.170330
 30
0.0
  0
LWPOLYLINE
  5
1df
100
AcDbEntity
  8
paper
 62
7
100
AcDbPolyline
 90
2
 70
0
 10
94.429570
 20
243.170420
 30
0.0
 10
94.429570
 20
247.966390
 30
0.0
  0
LWPOLYLINE
  5
1e0
100
AcDbEntity
  8
paper
 62
1
100
AcDbPolyline
 90
2
 70
0
 10
113.933550
 20
261.897750
 30
0.0
 10
94.644660
 20
261.897750
 30
0.0
  0
LWPOLYLINE
  5
1e1
100
AcDbEntity
  8
paper
 62
7
100
AcDbPolyline
 90
3
 70
0
 10
94.295930
 20
261.912360
 30
0.0
 10
94.151120
 20
265.883170
 30
0.0
 10
113.817710
 20
265.883170
 30
0.0
  0
LWPOLYLINE
  5
1e2
100
AcDbEntity
  8
paper
 62
7
100
AcDbPolyline
 90
2
 70
0
 10
93.967920
 20
265.912450
 30
0.0
 10
113.933540
 20
265.912450
 30
0.0
  0
LWPOLYLINE
  5
1e3
100
AcDbEntity
  8
paper
 62
7
100
AcDbPolyline
 90
2
 70
0
 10
94.295930
 20
261.912360
 30
0.0
 10
94.295930
 20
257.116390
 30
0.0
  0
LWPOLYLINE
  5
1e4
100
AcDbEntity
  8
paper
 62
1
100
AcDbPolyline
 90
2
 70
0
 10
68.172591
 20
231.453112
 30
0.0
 10
48.883701
 20
231.453112
 30
0.0
  0
LWPOLYLINE
  5
1e5
100
AcDbEntity
  8
paper
 62
7
100
AcDbPolyline
 90
2
 70
0
 10
64.773901
 20
226.813342
 30
0.0
 10
48.546671
 20
226.813342
 30
0.0
  0
LWPOLYLINE
  5
1e6
100
AcDbEntity
  8
paper
 62
1
100
AcDbPolyline
 90
2
 70
0
 10
68.124048
 20
226.813344
 30
0.0
 10
64.773899
 20
226.813344
 30
0.0
  0
LWPOLYLINE
  5
1e7
100
AcDbEntity
  8
paper
 62
7
100
AcDbPolyline
 90
3
 70
0
 10
48.534971
 20
231.467722
 30
0.0
 10
48.390161
 20
235.438532
 30
0.0
 10
68.056751
 20
235.438532
 30
0.0
  0
LWPOLYLINE
  5
1e8
100
AcDbEntity
  8
paper
 62
7
100
AcDbPolyline
 90
3
 70
0
 10
68.172581
 20
231.453112
 30
0.0
 10
68.172581
 20
235.467812
 30
0.0
 10
68.038931
 20
235.452212
 30
0.0
  0
LWPOLYLINE
  5
1e9
100
AcDbEntity
  8
paper
 62
7
100
AcDbPolyline
 90
3
 70
0
 10
68.172591
 20
212.724812
 30
0.0
 10
68.172591
 20
208.710112
 30
0.0
 10
68.038941
 20
208.725712
 30
0.0
  0
LWPOLYLINE
  5
1ea
100
AcDbEntity
  8
paper
 62
1
100
AcDbPolyline
 90
3
 70
0
 10
68.172591
 20
231.453112
 30
0.0
 10
68.172591
 20
212.724812
 30
0.0
 10
92.472591
 20
212.724812
 30
0.0
  0
LWPOLYLINE
  5
1eb
100
AcDbEntity
  8
paper
 62
7
100
AcDbPolyline
 90
2
 70
0
 10
68.038941
 20
208.725692
 30
0.0
 10
92.606251
 20
208.725692
 30
0.0
  0
LWPOLYLINE
  5
1ec
100
AcDbEntity
  8
paper
 62
7
100
AcDbPolyline
 90
3
 70
0
 10
64.812031
 20
226.712832
 30
0.0
 10
64.812031
 20
217.551342
 30
0.0
 10
48.348031
 20
217.551342
 30
0.0
  0
LWPOLYLINE
  5
1ed
100
AcDbEntity
  8
paper
 62
1
100
AcDbPolyline
 90
2
 70
0
 10
68.162181
 20
217.551342
 30
0.0
 10
64.812031
 20
217.551342
 30
0.0
  0
LWPOLYLINE
  5
1ee
100
AcDbEntity
  8
paper
 62
1
100
AcDbPolyline
 90
2
 70
0
 10
92.521131
 20
226.813342
 30
0.0
 10
95.871281
 20
226.813342
 30
0.0
  0
LWPOLYLINE
  5
1ef
100
AcDbEntity
  8
paper
 62
7
100
AcDbPolyline
 90
3
 70
0
 10
92.472601
 20
231.453112
 30
0.0
 10
92.472601
 20
235.467812
 30
0.0
 10
92.606251
 20
235.452212
 30
0.0
  0
LWPOLYLINE
  5
1f0
100
AcDbEntity
  8
paper
 62
7
100
AcDbPolyline
 90
3
 70
0
 10
92.472591
 20
212.724812
 30
0.0
 10
92.472591
 20
208.710112
 30
0.0
 10
92.606241
 20
208.725712
 30
0.0
  0
LWPOLYLINE
  5
1f1
100
AcDbEntity
  8
paper
 62
1
100
AcDbPolyline
 90
2
 70
0
 10
92.472591
 20
231.453112
 30
0.0
 10
92.472591
 20
212.724812
 30
0.0
  0
LWPOLYLINE
  5
1f2
100
AcDbEntity
  8
paper
 62
7
100
AcDbPolyline
 90
2
 70
0
 10
95.833151
 20
226.712832
 30
0.0
 10
95.833151
 20
217.551342
 30
0.0
  0
LWPOLYLINE
  5
1f3
100
AcDbEntity
  8
paper
 62
1
100
AcDbPolyline
 90
2
 70
0
 10
92.483001
 20
217.551342
 30
0.0
 10
95.833151
 20
217.551342
 30
0.0
  0
LWPOLYLINE
  5
1f4
100
AcDbEntity
  8
paper
 62
1
100
AcDbPolyline
 90
2
 70
0
 10
68.172581
 20
231.453112
 30
0.0
 10
92.472601
 20
231.453112
 30
0.0
  0
LWPOLYLINE
  5
1f5
100
AcDbEntity
  8
paper
 62
7
100
AcDbPolyline
 90
3
 70
0
 10
68.038931
 20
235.452232
 30
0.0
 10
68.038931
 20
266.876136
 30
0.0
 10
83.544001
 20
266.876136
 30
0.0
  0
LWPOLYLINE
  5
1f6
100
AcDbEntity
  8
paper
 62
7
100
AcDbPolyline
 90
2
 70
0
 10
92.472601
 20
235.467812
 30
0.0
 10
92.472601
 20
267.033345
 30
0.0
  0
LWPOLYLINE
  5
1f7
100
AcDbEntity
  8
paper
 62
7
100
AcDbPolyline
 90
2
 70
0
 10
83.544001
 20
266.876136
 30
0.0
 10
92.547781
 20
266.876136
 30
0.0
  0
LWPOLYLINE
  5
1f8
100
AcDbEntity
  8
paper
 62
7
100
AcDbPolyline
 90
2
 70
0
 10
48.206961
 20
235.467812
 30
0.0
 10
68.172581
 20
235.467812
 30
0.0
  0
LWPOLYLINE
  5
1f9
100
AcDbEntity
  8
paper
 62
7
100
AcDbPolyline
 90
2
 70
0
 10
48.534971
 20
231.467722
 30
0.0
 10
48.534971
 20
226.671752
 30
0.0
  0
LWPOLYLINE
  5
1fa
100
AcDbEntity
  8
paper
 62
1
100
AcDbPolyline
 90
2
 70
0
 10
68.038951
 20
212.740392
 30
0.0
 10
48.750061
 20
212.740392
 30
0.0
  0
LWPOLYLINE
  5
1fb
100
AcDbEntity
  8
paper
 62
7
100
AcDbPolyline
 90
3
 70
0
 10
48.401331
 20
212.725782
 30
0.0
 10
48.256521
 20
208.754972
 30
0.0
 10
67.923111
 20
208.754972
 30
0.0
  0
LWPOLYLINE
  5
1fc
100
AcDbEntity
  8
paper
 62
7
100
AcDbPolyline
 90
2
 70
0
 10
48.073321
 20
208.725692
 30
0.0
 10
68.038941
 20
208.725692
 30
0.0
  0
LWPOLYLINE
  5
1fd
100
AcDbEntity
  8
paper
 62
7
100
AcDbPolyline
 90
2
 70
0
 10
48.401331
 20
212.725782
 30
0.0
 10
48.401331
 20
217.521752
 30
0.0
  0
LWPOLYLINE
  5
1fe
100
AcDbEntity
  8
paper
 62
1
100
AcDbPolyline
 90
2
 70
0
 10
92.472591
 20
231.453112
 30
0.0
 10
111.761480
 20
231.453112
 30
0.0
  0
LWPOLYLINE
  5
1ff
100
AcDbEntity
  8
paper
 62
7
100
AcDbPolyline
 90
2
 70
0
 10
95.871281
 20
226.813342
 30
0.0
 10
112.098510
 20
226.813342
 30
0.0
  0
LWPOLYLINE
  5
200
100
AcDbEntity
  8
paper
 62
7
100
AcDbPolyline
 90
3
 70
0
 10
112.110210
 20
231.467722
 30
0.0
 10
112.255020
 20
235.438532
 30
0.0
 10
92.588431
 20
235.438532
 30
0.0
  0
LWPOLYLINE
  5
201
100
AcDbEntity
  8
paper
 62
7
100
AcDbPolyline
 90
2
 70
0
 10
92.472601
 20
235.467812
 30
0.0
 10
92.606251
 20
235.452212
 30
0.0
  0
LWPOLYLINE
  5
202
100
AcDbEntity
  8
paper
 62
7
100
AcDbPolyline
 90
2
 70
0
 10
92.472591
 20
208.710112
 30
0.0
 10
92.606241
 20
208.725712
 30
0.0
  0
LWPOLYLINE
  5
203
100
AcDbEntity
  8
paper
 62
7
100
AcDbPolyline
 90
2
 70
0
 10
95.833151
 20
217.551342
 30
0.0
 10
112.297150
 20
217.551342
 30
0.0
  0
LWPOLYLINE
  5
204
100
AcDbEntity
  8
paper
 62
7
100
AcDbPolyline
 90
2
 70
0
 10
112.438220
 20
235.467812
 30
0.0
 10
92.472601
 20
235.467812
 30
0.0
  0
LWPOLYLINE
  5
205
100
AcDbEntity
  8
paper
 62
7
100
AcDbPolyline
 90
2
 70
0
 10
112.110210
 20
231.467722
 30
0.0
 10
112.110210
 20
226.671752
 30
0.0
  0
LWPOLYLINE
  5
206
100
AcDbEntity
  8
paper
 62
1
100
AcDbPolyline
 90
2
 70
0
 10
92.606231
 20
212.740392
 30
0.0
 10
111.895120
 20
212.740392
 30
0.0
  0
LWPOLYLINE
  5
207
100
AcDbEntity
  8
paper
 62
7
100
AcDbPolyline
 90
3
 70
0
 10
112.243850
 20
212.725782
 30
0.0
 10
112.388660
 20
208.754972
 30
0.0
 10
92.722071
 20
208.754972
 30
0.0
  0
LWPOLYLINE
  5
208
100
AcDbEntity
  8
paper
 62
7
100
AcDbPolyline
 90
2
 70
0
 10
112.571860
 20
208.725692
 30
0.0
 10
92.606241
 20
208.725692
 30
0.0
  0
LWPOLYLINE
  5
209
100
AcDbEntity
  8
paper
 62
7
100
AcDbPolyline
 90
2
 70
0
 10
112.243850
 20
212.725782
 30
0.0
 10
112.243850
 20
217.521752
 30
0.0
  0
LWPOLYLINE
  5
20a
100
AcDbEntity
  8
paper
 62
1
100
AcDbPolyline
 90
2
 70
0
 10
46.881290
 20
244.148730
 30
0.0
 10
66.170180
 20
244.148730
 30
0.0
  0
LWPOLYLINE
  5
20b
100
AcDbEntity
  8
paper
 62
7
100
AcDbPolyline
 90
2
 70
0
 10
50.279980
 20
248.788500
 30
0.0
 10
66.507210
 20
248.788500
 30
0.0
  0
LWPOLYLINE
  5
20c
100
AcDbEntity
  8
paper
 62
1
100
AcDbPolyline
 90
2
 70
0
 10
46.929833
 20
248.788498
 30
0.0
 10
50.279982
 20
248.788498
 30
0.0
  0
LWPOLYLINE
  5
20d
100
AcDbEntity
  8
paper
 62
7
100
AcDbPolyline
 90
3
 70
0
 10
66.518910
 20
244.134120
 30
0.0
 10
66.663720
 20
240.163310
 30
0.0
 10
46.997130
 20
240.163310
 30
0.0
  0
LWPOLYLINE
  5
20e
100
AcDbEntity
  8
paper
 62
7
100
AcDbPolyline
 90
3
 70
0
 10
46.881300
 20
244.148730
 30
0.0
 10
46.881300
 20
240.134030
 30
0.0
 10
47.014950
 20
240.149630
 30
0.0
  0
LWPOLYLINE
  5
20f
100
AcDbEntity
  8
paper
 62
7
100
AcDbPolyline
 90
3
 70
0
 10
46.881290
 20
262.877030
 30
0.0
 10
46.881290
 20
266.891730
 30
0.0
 10
47.014940
 20
266.876130
 30
0.0
  0
LWPOLYLINE
  5
210
100
AcDbEntity
  8
paper
 62
1
100
AcDbPolyline
 90
3
 70
0
 10
46.881290
 20
244.148730
 30
0.0
 10
46.881290
 20
262.877030
 30
0.0
 10
22.581290
 20
262.877030
 30
0.0
  0
LWPOLYLINE
  5
211
100
AcDbEntity
  8
paper
 62
7
100
AcDbPolyline
 90
2
 70
0
 10
47.014940
 20
266.876150
 30
0.0
 10
22.447630
 20
266.876150
 30
0.0
  0
LWPOLYLINE
  5
212
100
AcDbEntity
  8
paper
 62
7
100
AcDbPolyline
 90
3
 70
0
 10
50.241850
 20
248.889010
 30
0.0
 10
50.241850
 20
258.050500
 30
0.0
 10
66.705850
 20
258.050500
 30
0.0
  0
LWPOLYLINE
  5
213
100
AcDbEntity
  8
paper
 62
1
100
AcDbPolyline
 90
2
 70
0
 10
46.891700
 20
258.050500
 30
0.0
 10
50.241850
 20
258.050500
 30
0.0
  0
LWPOLYLINE
  5
214
100
AcDbEntity
  8
paper
 62
1
100
AcDbPolyline
 90
2
 70
0
 10
22.532750
 20
248.788500
 30
0.0
 10
19.182600
 20
248.788500
 30
0.0
  0
LWPOLYLINE
  5
215
100
AcDbEntity
  8
paper
 62
7
100
AcDbPolyline
 90
3
 70
0
 10
22.581280
 20
244.148730
 30
0.0
 10
22.581280
 20
240.134030
 30
0.0
 10
22.447630
 20
240.149630
 30
0.0
  0
LWPOLYLINE
  5
216
100
AcDbEntity
  8
paper
 62
7
100
AcDbPolyline
 90
3
 70
0
 10
22.581290
 20
262.877030
 30
0.0
 10
22.581290
 20
266.891730
 30
0.0
 10
22.447640
 20
266.876130
 30
0.0
  0
LWPOLYLINE
  5
217
100
AcDbEntity
  8
paper
 62
1
100
AcDbPolyline
 90
2
 70
0
 10
22.581290
 20
244.148730
 30
0.0
 10
22.581290
 20
262.877030
 30
0.0
  0
LWPOLYLINE
  5
218
100
AcDbEntity
  8
paper
 62
7
100
AcDbPolyline
 90
2
 70
0
 10
19.220730
 20
248.889010
 30
0.0
 10
19.220730
 20
258.050500
 30
0.0
  0
LWPOLYLINE
  5
219
100
AcDbEntity
  8
paper
 62
1
100
AcDbPolyline
 90
2
 70
0
 10
22.570880
 20
258.050500
 30
0.0
 10
19.220730
 20
258.050500
 30
0.0
  0
LWPOLYLINE
  5
21a
100
AcDbEntity
  8
paper
 62
1
100
AcDbPolyline
 90
2
 70
0
 10
46.881300
 20
244.148730
 30
0.0
 10
22.581280
 20
244.148730
 30
0.0
  0
LWPOLYLINE
  5
21b
100
AcDbEntity
  8
paper
 62
7
100
AcDbPolyline
 90
3
 70
0
 10
47.014950
 20
240.149610
 30
0.0
 10
47.014950
 20
208.725706
 30
0.0
 10
31.509880
 20
208.725706
 30
0.0
  0
LWPOLYLINE
  5
21c
100
AcDbEntity
  8
paper
 62
7
100
AcDbPolyline
 90
2
 70
0
 10
22.581280
 20
240.134030
 30
0.0
 10
22.581280
 20
208.568497
 30
0.0
  0
LWPOLYLINE
  5
21d
100
AcDbEntity
  8
paper
 62
7
100
AcDbPolyline
 90
2
 70
0
 10
31.509880
 20
208.725706
 30
0.0
 10
22.506100
 20
208.725706
 30
0.0
  0
LWPOLYLINE
  5
21e
100
AcDbEntity
  8
paper
 62
7
100
AcDbPolyline
 90
2
 70
0
 10
66.846920
 20
240.134030
 30
0.0
 10
46.881300
 20
240.134030
 30
0.0
  0
LWPOLYLINE
  5
21f
100
AcDbEntity
  8
paper
 62
7
100
AcDbPolyline
 90
2
 70
0
 10
66.518910
 20
244.134120
 30
0.0
 10
66.518910
 20
248.930090
 30
0.0
  0
LWPOLYLINE
  5
220
100
AcDbEntity
  8
paper
 62
1
100
AcDbPolyline
 90
2
 70
0
 10
47.014930
 20
262.861450
 30
0.0
 10
66.303820
 20
262.861450
 30
0.0
  0
LWPOLYLINE
  5
221
100
AcDbEntity
  8
paper
 62
7
100
AcDbPolyline
 90
3
 70
0
 10
66.652550
 20
262.876060
 30
0.0
 10
66.797360
 20
266.846870
 30
0.0
 10
47.130770
 20
266.846870
 30
0.0
  0
LWPOLYLINE
  5
222
100
AcDbEntity
  8
paper
 62
7
100
AcDbPolyline
 90
2
 70
0
 10
66.980560
 20
266.876150
 30
0.0
 10
47.014940
 20
266.876150
 30
0.0
  0
LWPOLYLINE
  5
223
100
AcDbEntity
  8
paper
 62
7
100
AcDbPolyline
 90
2
 70
0
 10
66.652550
 20
262.876060
 30
0.0
 10
66.652550
 20
258.080090
 30
0.0
  0
LWPOLYLINE
  5
224
100
AcDbEntity
  8
paper
 62
1
100
AcDbPolyline
 90
2
 70
0
 10
22.581290
 20
244.148730
 30
0.0
 10
3.292400
 20
244.148730
 30
0.0
  0
LWPOLYLINE
  5
225
100
AcDbEntity
  8
paper
 62
7
100
AcDbPolyline
 90
2
 70
0
 10
19.182600
 20
248.788500
 30
0.0
 10
2.955370
 20
248.788500
 30
0.0
  0
LWPOLYLINE
  5
226
100
AcDbEntity
  8
paper
 62
7
100
AcDbPolyline
 90
3
 70
0
 10
2.943670
 20
244.134120
 30
0.0
 10
2.798860
 20
240.163310
 30
0.0
 10
22.465450
 20
240.163310
 30
0.0
  0
LWPOLYLINE
  5
227
100
AcDbEntity
  8
paper
 62
7
100
AcDbPolyline
 90
2
 70
0
 10
22.581280
 20
240.134030
 30
0.0
 10
22.447630
 20
240.149630
 30
0.0
  0
LWPOLYLINE
  5
228
100
AcDbEntity
  8
paper
 62
7
100
AcDbPolyline
 90
2
 70
0
 10
22.581290
 20
266.891730
 30
0.0
 10
22.447640
 20
266.876130
 30
0.0
  0
LWPOLYLINE
  5
229
100
AcDbEntity
  8
paper
 62
7
100
AcDbPolyline
 90
2
 70
0
 10
19.220730
 20
258.050500
 30
0.0
 10
2.756730
 20
258.050500
 30
0.0
  0
LWPOLYLINE
  5
22a
100
AcDbEntity
  8
paper
 62
7
100
AcDbPolyline
 90
2
 70
0
 10
2.615660
 20
240.134030
 30
0.0
 10
22.581280
 20
240.134030
 30
0.0
  0
LWPOLYLINE
  5
22b
100
AcDbEntity
  8
paper
 62
7
100
AcDbPolyline
 90
2
 70
0
 10
2.943670
 20
244.134120
 30
0.0
 10
2.943670
 20
248.930090
 30
0.0
  0
LWPOLYLINE
  5
22c
100
AcDbEntity
  8
paper
 62
1
100
AcDbPolyline
 90
2
 70
0
 10
22.447650
 20
262.861450
 30
0.0
 10
3.158760
 20
262.861450
 30
0.0
  0
LWPOLYLINE
  5
22d
100
AcDbEntity
  8
paper
 62
7
100
AcDbPolyline
 90
3
 70
0
 10
2.810030
 20
262.876060
 30
0.0
 10
2.665220
 20
266.846870
 30
0.0
 10
22.331810
 20
266.846870
 30
0.0
  0
LWPOLYLINE
  5
22e
100
AcDbEntity
  8
paper
 62
7
100
AcDbPolyline
 90
2
 70
0
 10
2.482020
 20
266.876150
 30
0.0
 10
22.447640
 20
266.876150
 30
0.0
  0
LWPOLYLINE
  5
22f
100
AcDbEntity
  8
paper
 62
7
100
AcDbPolyline
 90
2
 70
0
 10
2.810030
 20
262.876060
 30
0.0
 10
2.810030
 20
258.080090
 30
0.0
  0
LWPOLYLINE
  5
230
100
AcDbEntity
  8
paper
 62
1
100
AcDbPolyline
 90
2
 70
0
 10
161.567870
 20
107.318670
 30
0.0
 10
142.278980
 20
107.318670
 30
0.0
  0
LWPOLYLINE
  5
231
100
AcDbEntity
  8
paper
 62
7
100
AcDbPolyline
 90
2
 70
0
 10
158.169180
 20
102.678900
 30
0.0
 10
141.941950
 20
102.678900
 30
0.0
  0
LWPOLYLINE
  5
232
100
AcDbEntity
  8
paper
 62
1
100
AcDbPolyline
 90
2
 70
0
 10
161.519320
 20
102.678910
 30
0.0
 10
158.169170
 20
102.678910
 30
0.0
  0
LWPOLYLINE
  5
233
100
AcDbEntity
  8
paper
 62
7
100
AcDbPolyline
 90
3
 70
0
 10
141.930250
 20
107.333280
 30
0.0
 10
141.785440
 20
111.304090
 30
0.0
 10
161.452030
 20
111.304090
 30
0.0
  0
LWPOLYLINE
  5
234
100
AcDbEntity
  8
paper
 62
7
100
AcDbPolyline
 90
3
 70
0
 10
161.567860
 20
107.318670
 30
0.0
 10
161.567860
 20
111.333370
 30
0.0
 10
161.434210
 20
111.317770
 30
0.0
  0
LWPOLYLINE
  5
235
100
AcDbEntity
  8
paper
 62
7
100
AcDbPolyline
 90
3
 70
0
 10
161.567870
 20
88.590370
 30
0.0
 10
161.567870
 20
84.575670
 30
0.0
 10
161.434220
 20
84.591270
 30
0.0
  0
LWPOLYLINE
  5
236
100
AcDbEntity
  8
paper
 62
1
100
AcDbPolyline
 90
3
 70
0
 10
161.567870
 20
107.318670
 30
0.0
 10
161.567870
 20
88.590370
 30
0.0
 10
185.867870
 20
88.590370
 30
0.0
  0
LWPOLYLINE
  5
237
100
AcDbEntity
  8
paper
 62
7
100
AcDbPolyline
 90
2
 70
0
 10
161.434220
 20
84.591250
 30
0.0
 10
186.001530
 20
84.591250
 30
0.0
  0
LWPOLYLINE
  5
238
100
AcDbEntity
  8
paper
 62
7
100
AcDbPolyline
 90
3
 70
0
 10
158.207310
 20
102.578390
 30
0.0
 10
158.207310
 20
93.416900
 30
0.0
 10
141.743310
 20
93.416900
 30
0.0
  0
LWPOLYLINE
  5
239
100
AcDbEntity
  8
paper
 62
1
100
AcDbPolyline
 90
2
 70
0
 10
161.557460
 20
93.416900
 30
0.0
 10
158.207310
 20
93.416900
 30
0.0
  0
LWPOLYLINE
  5
23a
100
AcDbEntity
  8
paper
 62
1
100
AcDbPolyline
 90
2
 70
0
 10
185.916410
 20
102.678900
 30
0.0
 10
189.266560
 20
102.678900
 30
0.0
  0
LWPOLYLINE
  5
23b
100
AcDbEntity
  8
paper
 62
7
100
AcDbPolyline
 90
3
 70
0
 10
185.867880
 20
107.318670
 30
0.0
 10
185.867880
 20
111.333370
 30
0.0
 10
186.001530
 20
111.317770
 30
0.0
  0
LWPOLYLINE
  5
23c
100
AcDbEntity
  8
paper
 62
7
100
AcDbPolyline
 90
3
 70
0
 10
185.867870
 20
88.590370
 30
0.0
 10
185.867870
 20
84.575670
 30
0.0
 10
186.001520
 20
84.591270
 30
0.0
  0
LWPOLYLINE
  5
23d
100
AcDbEntity
  8
paper
 62
1
100
AcDbPolyline
 90
2
 70
0
 10
185.867870
 20
107.318670
 30
0.0
 10
185.867870
 20
88.590370
 30
0.0
  0
LWPOLYLINE
  5
23e
100
AcDbEntity
  8
paper
 62
7
100
AcDbPolyline
 90
2
 70
0
 10
189.228430
 20
102.578390
 30
0.0
 10
189.228430
 20
93.416900
 30
0.0
  0
LWPOLYLINE
  5
23f
100
AcDbEntity
  8
paper
 62
1
100
AcDbPolyline
 90
2
 70
0
 10
185.878280
 20
93.416900
 30
0.0
 10
189.228430
 20
93.416900
 30
0.0
  0
LWPOLYLINE
  5
240
100
AcDbEntity
  8
paper
 62
1
100
AcDbPolyline
 90
2
 70
0
 10
161.567860
 20
107.318670
 30
0.0
 10
185.867880
 20
107.318670
 30
0.0
  0
LWPOLYLINE
  5
241
100
AcDbEntity
  8
paper
 62
7
100
AcDbPolyline
 90
3
 70
0
 10
161.434210
 20
111.317790
 30
0.0
 10
161.434210
 20
142.741700
 30
0.0
 10
176.939280
 20
142.741700
 30
0.0
  0
LWPOLYLINE
  5
242
100
AcDbEntity
  8
paper
 62
7
100
AcDbPolyline
 90
2
 70
0
 10
185.867880
 20
111.333370
 30
0.0
 10
185.867880
 20
142.898910
 30
0.0
  0
LWPOLYLINE
  5
243
100
AcDbEntity
  8
paper
 62
7
100
AcDbPolyline
 90
2
 70
0
 10
176.939280
 20
142.741700
 30
0.0
 10
185.943060
 20
142.741700
 30
0.0
  0
LWPOLYLINE
  5
244
100
AcDbEntity
  8
paper
 62
7
100
AcDbPolyline
 90
2
 70
0
 10
141.602240
 20
111.333370
 30
0.0
 10
161.567860
 20
111.333370
 30
0.0
  0
LWPOLYLINE
  5
245
100
AcDbEntity
  8
paper
 62
7
100
AcDbPolyline
 90
2
 70
0
 10
141.930250
 20
107.333280
 30
0.0
 10
141.930250
 20
102.537310
 30
0.0
  0
LWPOLYLINE
  5
246
100
AcDbEntity
  8
paper
 62
1
100
AcDbPolyline
 90
2
 70
0
 10
161.434230
 20
88.605950
 30
0.0
 10
142.145340
 20
88.605950
 30
0.0
  0
LWPOLYLINE
  5
247
100
AcDbEntity
  8
paper
 62
7
100
AcDbPolyline
 90
3
 70
0
 10
141.796610
 20
88.591340
 30
0.0
 10
141.651800
 20
84.620530
 30
0.0
 10
161.318390
 20
84.620530
 30
0.0
  0
LWPOLYLINE
  5
248
100
AcDbEntity
  8
paper
 62
7
100
AcDbPolyline
 90
2
 70
0
 10
141.468600
 20
84.591250
 30
0.0
 10
161.434220
 20
84.591250
 30
0.0
  0
LWPOLYLINE
  5
249
100
AcDbEntity
  8
paper
 62
7
100
AcDbPolyline
 90
2
 70
0
 10
141.796610
 20
88.591340
 30
0.0
 10
141.796610
 20
93.387310
 30
0.0
  0
LWPOLYLINE
  5
24a
100
AcDbEntity
  8
paper
 62
1
100
AcDbPolyline
 90
2
 70
0
 10
185.867870
 20
107.318670
 30
0.0
 10
205.156760
 20
107.318670
 30
0.0
  0
LWPOLYLINE
  5
24b
100
AcDbEntity
  8
paper
 62
7
100
AcDbPolyline
 90
2
 70
0
 10
189.266560
 20
102.678900
 30
0.0
 10
205.493790
 20
102.678900
 30
0.0
  0
LWPOLYLINE
  5
24c
100
AcDbEntity
  8
paper
 62
7
100
AcDbPolyline
 90
3
 70
0
 10
205.505490
 20
107.333280
 30
0.0
 10
205.650300
 20
111.304090
 30
0.0
 10
185.983710
 20
111.304090
 30
0.0
  0
LWPOLYLINE
  5
24d
100
AcDbEntity
  8
paper
 62
7
100
AcDbPolyline
 90
2
 70
0
 10
185.867880
 20
111.333370
 30
0.0
 10
186.001530
 20
111.317770
 30
0.0
  0
LWPOLYLINE
  5
24e
100
AcDbEntity
  8
paper
 62
7
100
AcDbPolyline
 90
2
 70
0
 10
185.867870
 20
84.575670
 30
0.0
 10
186.001520
 20
84.591270
 30
0.0
  0
LWPOLYLINE
  5
24f
100
AcDbEntity
  8
paper
 62
7
100
AcDbPolyline
 90
2
 70
0
 10
189.228430
 20
93.416900
 30
0.0
 10
205.692430
 20
93.416900
 30
0.0
  0
LWPOLYLINE
  5
250
100
AcDbEntity
  8
paper
 62
7
100
AcDbPolyline
 90
2
 70
0
 10
205.833500
 20
111.333370
 30
0.0
 10
185.867880
 20
111.333370
 30
0.0
  0
LWPOLYLINE
  5
251
100
AcDbEntity
  8
paper
 62
7
100
AcDbPolyline
 90
2
 70
0
 10
205.505490
 20
107.333280
 30
0.0
 10
205.505490
 20
102.537310
 30
0.0
  0
LWPOLYLINE
  5
252
100
AcDbEntity
  8
paper
 62
1
100
AcDbPolyline
 90
2
 70
0
 10
186.001510
 20
88.605950
 30
0.0
 10
205.290400
 20
88.605950
 30
0.0
  0
LWPOLYLINE
  5
253
100
AcDbEntity
  8
paper
 62
7
100
AcDbPolyline
 90
3
 70
0
 10
205.639130
 20
88.591340
 30
0.0
 10
205.783940
 20
84.620530
 30
0.0
 10
186.117350
 20
84.620530
 30
0.0
  0
LWPOLYLINE
  5
254
100
AcDbEntity
  8
paper
 62
7
100
AcDbPolyline
 90
2
 70
0
 10
205.967140
 20
84.591250
 30
0.0
 10
186.001520
 20
84.591250
 30
0.0
  0
LWPOLYLINE
  5
255
100
AcDbEntity
  8
paper
 62
7
100
AcDbPolyline
 90
2
 70
0
 10
205.639130
 20
88.591340
 30
0.0
 10
205.639130
 20
93.387310
 30
0.0
  0
LWPOLYLINE
  5
256
100
AcDbEntity
  8
paper
 62
1
100
AcDbPolyline
 90
2
 70
0
 10
139.898310
 20
119.957550
 30
0.0
 10
159.187200
 20
119.957550
 30
0.0
  0
LWPOLYLINE
  5
257
100
AcDbEntity
  8
paper
 62
7
100
AcDbPolyline
 90
2
 70
0
 10
143.297000
 20
124.597320
 30
0.0
 10
159.524230
 20
124.597320
 30
0.0
  0
LWPOLYLINE
  5
258
100
AcDbEntity
  8
paper
 62
1
100
AcDbPolyline
 90
2
 70
0
 10
139.946850
 20
124.597320
 30
0.0
 10
143.297000
 20
124.597320
 30
0.0
  0
LWPOLYLINE
  5
259
100
AcDbEntity
  8
paper
 62
7
100
AcDbPolyline
 90
3
 70
0
 10
159.535930
 20
119.942940
 30
0.0
 10
159.680740
 20
115.972130
 30
0.0
 10
140.014150
 20
115.972130
 30
0.0
  0
LWPOLYLINE
  5
25a
100
AcDbEntity
  8
paper
 62
7
100
AcDbPolyline
 90
3
 70
0
 10
139.898320
 20
119.957550
 30
0.0
 10
139.898320
 20
115.942850
 30
0.0
 10
140.031970
 20
115.958450
 30
0.0
  0
LWPOLYLINE
  5
25b
100
AcDbEntity
  8
paper
 62
7
100
AcDbPolyline
 90
3
 70
0
 10
139.898310
 20
138.685850
 30
0.0
 10
139.898310
 20
142.700550
 30
0.0
 10
140.031960
 20
142.684950
 30
0.0
  0
LWPOLYLINE
  5
25c
100
AcDbEntity
  8
paper
 62
1
100
AcDbPolyline
 90
3
 70
0
 10
139.898310
 20
119.957550
 30
0.0
 10
139.898310
 20
138.685850
 30
0.0
 10
115.598310
 20
138.685850
 30
0.0
  0
LWPOLYLINE
  5
25d
100
AcDbEntity
  8
paper
 62
7
100
AcDbPolyline
 90
2
 70
0
 10
140.031960
 20
142.684970
 30
0.0
 10
115.464650
 20
142.684970
 30
0.0
  0
LWPOLYLINE
  5
25e
100
AcDbEntity
  8
paper
 62
7
100
AcDbPolyline
 90
3
 70
0
 10
143.258870
 20
124.697830
 30
0.0
 10
143.258870
 20
133.859320
 30
0.0
 10
159.722870
 20
133.859320
 30
0.0
  0
LWPOLYLINE
  5
25f
100
AcDbEntity
  8
paper
 62
1
100
AcDbPolyline
 90
2
 70
0
 10
139.908720
 20
133.859320
 30
0.0
 10
143.258870
 20
133.859320
 30
0.0
  0
LWPOLYLINE
  5
260
100
AcDbEntity
  8
paper
 62
1
100
AcDbPolyline
 90
2
 70
0
 10
115.549770
 20
124.597320
 30
0.0
 10
112.199620
 20
124.597320
 30
0.0
  0
LWPOLYLINE
  5
261
100
AcDbEntity
  8
paper
 62
7
100
AcDbPolyline
 90
3
 70
0
 10
115.598300
 20
119.957550
 30
0.0
 10
115.598300
 20
115.942850
 30
0.0
 10
115.464650
 20
115.958450
 30
0.0
  0
LWPOLYLINE
  5
262
100
AcDbEntity
  8
paper
 62
7
100
AcDbPolyline
 90
3
 70
0
 10
115.598310
 20
138.685850
 30
0.0
 10
115.598310
 20
142.700550
 30
0.0
 10
115.464660
 20
142.684950
 30
0.0
  0
LWPOLYLINE
  5
263
100
AcDbEntity
  8
paper
 62
1
100
AcDbPolyline
 90
2
 70
0
 10
115.598310
 20
119.957550
 30
0.0
 10
115.598310
 20
138.685850
 30
0.0
  0
LWPOLYLINE
  5
264
100
AcDbEntity
  8
paper
 62
7
100
AcDbPolyline
 90
2
 70
0
 10
112.237750
 20
124.697830
 30
0.0
 10
112.237750
 20
133.859320
 30
0.0
  0
LWPOLYLINE
  5
265
100
AcDbEntity
  8
paper
 62
1
100
AcDbPolyline
 90
2
 70
0
 10
115.587900
 20
133.859320
 30
0.0
 10
112.237750
 20
133.859320
 30
0.0
  0
LWPOLYLINE
  5
266
100
AcDbEntity
  8
paper
 62
1
100
AcDbPolyline
 90
2
 70
0
 10
139.898320
 20
119.957550
 30
0.0
 10
115.598300
 20
119.957550
 30
0.0
  0
LWPOLYLINE
  5
267
100
AcDbEntity
  8
paper
 62
7
100
AcDbPolyline
 90
3
 70
0
 10
140.031970
 20
115.958430
 30
0.0
 10
140.031970
 20
84.534530
 30
0.0
 10
124.526900
 20
84.534530
 30
0.0
  0
LWPOLYLINE
  5
268
100
AcDbEntity
  8
paper
 62
7
100
AcDbPolyline
 90
2
 70
0
 10
115.598300
 20
115.942850
 30
0.0
 10
115.598300
 20
84.377320
 30
0.0
  0
LWPOLYLINE
  5
269
100
AcDbEntity
  8
paper
 62
7
100
AcDbPolyline
 90
2
 70
0
 10
124.526900
 20
84.534530
 30
0.0
 10
115.523120
 20
84.534530
 30
0.0
  0
LWPOLYLINE
  5
26a
100
AcDbEntity
  8
paper
 62
7
100
AcDbPolyline
 90
2
 70
0
 10
159.863940
 20
115.942850
 30
0.0
 10
139.898320
 20
115.942850
 30
0.0
  0
LWPOLYLINE
  5
26b
100
AcDbEntity
  8
paper
 62
7
100
AcDbPolyline
 90
2
 70
0
 10
159.535930
 20
119.942940
 30
0.0
 10
159.535930
 20
124.738910
 30
0.0
  0
LWPOLYLINE
  5
26c
100
AcDbEntity
  8
paper
 62
1
100
AcDbPolyline
 90
2
 70
0
 10
140.031950
 20
138.670270
 30
0.0
 10
159.320840
 20
138.670270
 30
0.0
  0
LWPOLYLINE
  5
26d
100
AcDbEntity
  8
paper
 62
7
100
AcDbPolyline
 90
3
 70
0
 10
159.669570
 20
138.684880
 30
0.0
 10
159.814380
 20
142.655690
 30
0.0
 10
140.147790
 20
142.655690
 30
0.0
  0
LWPOLYLINE
  5
26e
100
AcDbEntity
  8
paper
 62
7
100
AcDbPolyline
 90
2
 70
0
 10
159.997580
 20
142.684970
 30
0.0
 10
140.031960
 20
142.684970
 30
0.0
  0
LWPOLYLINE
  5
26f
100
AcDbEntity
  8
paper
 62
7
100
AcDbPolyline
 90
2
 70
0
 10
159.669570
 20
138.684880
 30
0.0
 10
159.669570
 20
133.888910
 30
0.0
  0
LWPOLYLINE
  5
270
100
AcDbEntity
  8
paper
 62
1
100
AcDbPolyline
 90
2
 70
0
 10
115.598310
 20
119.957550
 30
0.0
 10
96.309420
 20
119.957550
 30
0.0
  0
LWPOLYLINE
  5
271
100
AcDbEntity
  8
paper
 62
7
100
AcDbPolyline
 90
2
 70
0
 10
112.199620
 20
124.597320
 30
0.0
 10
95.972390
 20
124.597320
 30
0.0
  0
LWPOLYLINE
  5
272
100
AcDbEntity
  8
paper
 62
7
100
AcDbPolyline
 90
3
 70
0
 10
95.960690
 20
119.942940
 30
0.0
 10
95.815880
 20
115.972130
 30
0.0
 10
115.482470
 20
115.972130
 30
0.0
  0
LWPOLYLINE
  5
273
100
AcDbEntity
  8
paper
 62
7
100
AcDbPolyline
 90
2
 70
0
 10
115.598300
 20
115.942850
 30
0.0
 10
115.464650
 20
115.958450
 30
0.0
  0
LWPOLYLINE
  5
274
100
AcDbEntity
  8
paper
 62
7
100
AcDbPolyline
 90
2
 70
0
 10
115.598310
 20
142.700550
 30
0.0
 10
115.464660
 20
142.684950
 30
0.0
  0
LWPOLYLINE
  5
275
100
AcDbEntity
  8
paper
 62
7
100
AcDbPolyline
 90
2
 70
0
 10
112.237750
 20
133.859320
 30
0.0
 10
95.773750
 20
133.859320
 30
0.0
  0
LWPOLYLINE
  5
276
100
AcDbEntity
  8
paper
 62
7
100
AcDbPolyline
 90
2
 70
0
 10
95.632680
 20
115.942850
 30
0.0
 10
115.598300
 20
115.942850
 30
0.0
  0
LWPOLYLINE
  5
277
100
AcDbEntity
  8
paper
 62
7
100
AcDbPolyline
 90
2
 70
0
 10
95.960690
 20
119.942940
 30
0.0
 10
95.960690
 20
124.738910
 30
0.0
  0
LWPOLYLINE
  5
278
100
AcDbEntity
  8
paper
 62
1
100
AcDbPolyline
 90
2
 70
0
 10
115.464670
 20
138.670270
 30
0.0
 10
96.175780
 20
138.670270
 30
0.0
  0
LWPOLYLINE
  5
279
100
AcDbEntity
  8
paper
 62
7
100
AcDbPolyline
 90
3
 70
0
 10
95.827050
 20
138.684880
 30
0.0
 10
95.682240
 20
142.655690
 30
0.0
 10
115.348830
 20
142.655690
 30
0.0
  0
LWPOLYLINE
  5
27a
100
AcDbEntity
  8
paper
 62
7
100
AcDbPolyline
 90
2
 70
0
 10
95.499040
 20
142.684970
 30
0.0
 10
115.464660
 20
142.684970
 30
0.0
  0
LWPOLYLINE
  5
27b
100
AcDbEntity
  8
paper
 62
7
100
AcDbPolyline
 90
2
 70
0
 10
95.827050
 20
138.684880
 30
0.0
 10
95.827050
 20
133.888910
 30
0.0
  0
LWPOLYLINE
  5
27c
100
AcDbEntity
  8
paper
 62
1
100
AcDbPolyline
 90
2
 70
0
 10
69.703706
 20
108.225590
 30
0.0
 10
50.414816
 20
108.225590
 30
0.0
  0
LWPOLYLINE
  5
27d
100
AcDbEntity
  8
paper
 62
7
100
AcDbPolyline
 90
2
 70
0
 10
66.305016
 20
103.585820
 30
0.0
 10
50.077786
 20
103.585820
 30
0.0
  0
LWPOLYLINE
  5
27e
100
AcDbEntity
  8
paper
 62
1
100
AcDbPolyline
 90
2
 70
0
 10
69.655163
 20
103.585830
 30
0.0
 10
66.305014
 20
103.585830
 30
0.0
  0
LWPOLYLINE
  5
27f
100
AcDbEntity
  8
paper
 62
7
100
AcDbPolyline
 90
3
 70
0
 10
50.066086
 20
108.240200
 30
0.0
 10
49.921276
 20
112.211010
 30
0.0
 10
69.587866
 20
112.211010
 30
0.0
  0
LWPOLYLINE
  5
280
100
AcDbEntity
  8
paper
 62
7
100
AcDbPolyline
 90
3
 70
0
 10
69.703696
 20
108.225590
 30
0.0
 10
69.703696
 20
112.240290
 30
0.0
 10
69.570046
 20
112.224690
 30
0.0
  0
LWPOLYLINE
  5
281
100
AcDbEntity
  8
paper
 62
7
100
AcDbPolyline
 90
3
 70
0
 10
69.703706
 20
89.497290
 30
0.0
 10
69.703706
 20
85.482590
 30
0.0
 10
69.570056
 20
85.498190
 30
0.0
  0
LWPOLYLINE
  5
282
100
AcDbEntity
  8
paper
 62
1
100
AcDbPolyline
 90
3
 70
0
 10
69.703706
 20
108.225590
 30
0.0
 10
69.703706
 20
89.497290
 30
0.0
 10
94.003706
 20
89.497290
 30
0.0
  0
LWPOLYLINE
  5
283
100
AcDbEntity
  8
paper
 62
7
100
AcDbPolyline
 90
2
 70
0
 10
69.570056
 20
85.498170
 30
0.0
 10
94.137366
 20
85.498170
 30
0.0
  0
LWPOLYLINE
  5
284
100
AcDbEntity
  8
paper
 62
7
100
AcDbPolyline
 90
3
 70
0
 10
66.343146
 20
103.485310
 30
0.0
 10
66.343146
 20
94.323820
 30
0.0
 10
49.879146
 20
94.323820
 30
0.0
  0
LWPOLYLINE
  5
285
100
AcDbEntity
  8
paper
 62
1
100
AcDbPolyline
 90
2
 70
0
 10
69.693296
 20
94.323820
 30
0.0
 10
66.343146
 20
94.323820
 30
0.0
  0
LWPOLYLINE
  5
286
100
AcDbEntity
  8
paper
 62
1
100
AcDbPolyline
 90
2
 70
0
 10
94.052246
 20
103.585820
 30
0.0
 10
97.402396
 20
103.585820
 30
0.0
  0
LWPOLYLINE
  5
287
100
AcDbEntity
  8
paper
 62
7
100
AcDbPolyline
 90
3
 70
0
 10
94.003716
 20
108.225590
 30
0.0
 10
94.003716
 20
112.240290
 30
0.0
 10
94.137366
 20
112.224690
 30
0.0
  0
LWPOLYLINE
  5
288
100
AcDbEntity
  8
paper
 62
7
100
AcDbPolyline
 90
3
 70
0
 10
94.003706
 20
89.497290
 30
0.0
 10
94.003706
 20
85.482590
 30
0.0
 10
94.137356
 20
85.498190
 30
0.0
  0
LWPOLYLINE
  5
289
100
AcDbEntity
  8
paper
 62
1
100
AcDbPolyline
 90
2
 70
0
 10
94.003706
 20
108.225590
 30
0.0
 10
94.003706
 20
89.497290
 30
0.0
  0
LWPOLYLINE
  5
28a
100
AcDbEntity
  8
paper
 62
7
100
AcDbPolyline
 90
2
 70
0
 10
97.364266
 20
103.485310
 30
0.0
 10
97.364266
 20
94.323820
 30
0.0
  0
LWPOLYLINE
  5
28b
100
AcDbEntity
  8
paper
 62
1
100
AcDbPolyline
 90
2
 70
0
 10
94.014116
 20
94.323820
 30
0.0
 10
97.364266
 20
94.323820
 30
0.0
  0
LWPOLYLINE
  5
28c
100
AcDbEntity
  8
paper
 62
1
100
AcDbPolyline
 90
2
 70
0
 10
69.703696
 20
108.225590
 30
0.0
 10
94.003716
 20
108.225590
 30
0.0
  0
LWPOLYLINE
  5
28d
100
AcDbEntity
  8
paper
 62
7
100
AcDbPolyline
 90
3
 70
0
 10
69.570046
 20
112.224710
 30
0.0
 10
69.570046
 20
143.648620
 30
0.0
 10
85.075116
 20
143.648620
 30
0.0
  0
LWPOLYLINE
  5
28e
100
AcDbEntity
  8
paper
 62
7
100
AcDbPolyline
 90
2
 70
0
 10
94.003716
 20
112.240290
 30
0.0
 10
94.003716
 20
143.805830
 30
0.0
  0
LWPOLYLINE
  5
28f
100
AcDbEntity
  8
paper
 62
7
100
AcDbPolyline
 90
2
 70
0
 10
85.075116
 20
143.648620
 30
0.0
 10
94.078896
 20
143.648620
 30
0.0
  0
LWPOLYLINE
  5
290
100
AcDbEntity
  8
paper
 62
7
100
AcDbPolyline
 90
2
 70
0
 10
49.738076
 20
112.240290
 30
0.0
 10
69.703696
 20
112.240290
 30
0.0
  0
LWPOLYLINE
  5
291
100
AcDbEntity
  8
paper
 62
7
100
AcDbPolyline
 90
2
 70
0
 10
50.066086
 20
108.240200
 30
0.0
 10
50.066086
 20
103.444230
 30
0.0
  0
LWPOLYLINE
  5
292
100
AcDbEntity
  8
paper
 62
1
100
AcDbPolyline
 90
2
 70
0
 10
69.570066
 20
89.512870
 30
0.0
 10
50.281176
 20
89.512870
 30
0.0
  0
LWPOLYLINE
  5
293
100
AcDbEntity
  8
paper
 62
7
100
AcDbPolyline
 90
3
 70
0
 10
49.932446
 20
89.498260
 30
0.0
 10
49.787636
 20
85.527450
 30
0.0
 10
69.454226
 20
85.527450
 30
0.0
  0
LWPOLYLINE
  5
294
100
AcDbEntity
  8
paper
 62
7
100
AcDbPolyline
 90
2
 70
0
 10
49.604436
 20
85.498170
 30
0.0
 10
69.570056
 20
85.498170
 30
0.0
  0
LWPOLYLINE
  5
295
100
AcDbEntity
  8
paper
 62
7
100
AcDbPolyline
 90
2
 70
0
 10
49.932446
 20
89.498260
 30
0.0
 10
49.932446
 20
94.294230
 30
0.0
  0
LWPOLYLINE
  5
296
100
AcDbEntity
  8
paper
 62
1
100
AcDbPolyline
 90
2
 70
0
 10
94.003706
 20
108.225590
 30
0.0
 10
113.292600
 20
108.225590
 30
0.0
  0
LWPOLYLINE
  5
297
100
AcDbEntity
  8
paper
 62
7
100
AcDbPolyline
 90
2
 70
0
 10
97.402396
 20
103.585820
 30
0.0
 10
113.629630
 20
103.585820
 30
0.0
  0
LWPOLYLINE
  5
298
100
AcDbEntity
  8
paper
 62
7
100
AcDbPolyline
 90
3
 70
0
 10
113.641330
 20
108.240200
 30
0.0
 10
113.786140
 20
112.211010
 30
0.0
 10
94.119546
 20
112.211010
 30
0.0
  0
LWPOLYLINE
  5
299
100
AcDbEntity
  8
paper
 62
7
100
AcDbPolyline
 90
2
 70
0
 10
94.003716
 20
112.240290
 30
0.0
 10
94.137366
 20
112.224690
 30
0.0
  0
LWPOLYLINE
  5
29a
100
AcDbEntity
  8
paper
 62
7
100
AcDbPolyline
 90
2
 70
0
 10
94.003706
 20
85.482590
 30
0.0
 10
94.137356
 20
85.498190
 30
0.0
  0
LWPOLYLINE
  5
29b
100
AcDbEntity
  8
paper
 62
7
100
AcDbPolyline
 90
2
 70
0
 10
97.364266
 20
94.323820
 30
0.0
 10
113.828270
 20
94.323820
 30
0.0
  0
LWPOLYLINE
  5
29c
100
AcDbEntity
  8
paper
 62
7
100
AcDbPolyline
 90
2
 70
0
 10
113.969340
 20
112.240290
 30
0.0
 10
94.003716
 20
112.240290
 30
0.0
  0
LWPOLYLINE
  5
29d
100
AcDbEntity
  8
paper
 62
7
100
AcDbPolyline
 90
2
 70
0
 10
113.641330
 20
108.240200
 30
0.0
 10
113.641330
 20
103.444230
 30
0.0
  0
LWPOLYLINE
  5
29e
100
AcDbEntity
  8
paper
 62
1
100
AcDbPolyline
 90
2
 70
0
 10
94.137346
 20
89.512870
 30
0.0
 10
113.426240
 20
89.512870
 30
0.0
  0
LWPOLYLINE
  5
29f
100
AcDbEntity
  8
paper
 62
7
100
AcDbPolyline
 90
3
 70
0
 10
113.774970
 20
89.498260
 30
0.0
 10
113.919780
 20
85.527450
 30
0.0
 10
94.253186
 20
85.527450
 30
0.0
  0
LWPOLYLINE
  5
2a0
100
AcDbEntity
  8
paper
 62
7
100
AcDbPolyline
 90
2
 70
0
 10
114.102980
 20
85.498170
 30
0.0
 10
94.137356
 20
85.498170
 30
0.0
  0
LWPOLYLINE
  5
2a1
100
AcDbEntity
  8
paper
 62
7
100
AcDbPolyline
 90
2
 70
0
 10
113.774970
 20
89.498260
 30
0.0
 10
113.774970
 20
94.294230
 30
0.0
  0
LWPOLYLINE
  5
2a2
100
AcDbEntity
  8
paper
 62
1
100
AcDbPolyline
 90
2
 70
0
 10
48.412410
 20
120.921250
 30
0.0
 10
67.701300
 20
120.921250
 30
0.0
  0
LWPOLYLINE
  5
2a3
100
AcDbEntity
  8
paper
 62
7
100
AcDbPolyline
 90
2
 70
0
 10
51.811100
 20
125.561020
 30
0.0
 10
68.038330
 20
125.561020
 30
0.0
  0
LWPOLYLINE
  5
2a4
100
AcDbEntity
  8
paper
 62
1
100
AcDbPolyline
 90
2
 70
0
 10
48.460953
 20
125.561020
 30
0.0
 10
51.811102
 20
125.561020
 30
0.0
  0
LWPOLYLINE
  5
2a5
100
AcDbEntity
  8
paper
 62
7
100
AcDbPolyline
 90
3
 70
0
 10
68.050030
 20
120.906640
 30
0.0
 10
68.194840
 20
116.935830
 30
0.0
 10
48.528250
 20
116.935830
 30
0.0
  0
LWPOLYLINE
  5
2a6
100
AcDbEntity
  8
paper
 62
7
100
AcDbPolyline
 90
3
 70
0
 10
48.412420
 20
120.921250
 30
0.0
 10
48.412420
 20
116.906550
 30
0.0
 10
48.546070
 20
116.922150
 30
0.0
  0
LWPOLYLINE
  5
2a7
100
AcDbEntity
  8
paper
 62
7
100
AcDbPolyline
 90
3
 70
0
 10
48.412410
 20
139.649550
 30
0.0
 10
48.412410
 20
143.664250
 30
0.0
 10
48.546060
 20
143.648650
 30
0.0
  0
LWPOLYLINE
  5
2a8
100
AcDbEntity
  8
paper
 62
1
100
AcDbPolyline
 90
3
 70
0
 10
48.412410
 20
120.921250
 30
0.0
 10
48.412410
 20
139.649550
 30
0.0
 10
24.112410
 20
139.649550
 30
0.0
  0
LWPOLYLINE
  5
2a9
100
AcDbEntity
  8
paper
 62
7
100
AcDbPolyline
 90
2
 70
0
 10
48.546060
 20
143.648670
 30
0.0
 10
23.978750
 20
143.648670
 30
0.0
  0
LWPOLYLINE
  5
2aa
100
AcDbEntity
  8
paper
 62
7
100
AcDbPolyline
 90
3
 70
0
 10
51.772970
 20
125.661530
 30
0.0
 10
51.772970
 20
134.823020
 30
0.0
 10
68.236970
 20
134.823020
 30
0.0
  0
LWPOLYLINE
  5
2ab
100
AcDbEntity
  8
paper
 62
1
100
AcDbPolyline
 90
2
 70
0
 10
48.422820
 20
134.823020
 30
0.0
 10
51.772970
 20
134.823020
 30
0.0
  0
LWPOLYLINE
  5
2ac
100
AcDbEntity
  8
paper
 62
1
100
AcDbPolyline
 90
2
 70
0
 10
24.063870
 20
125.561020
 30
0.0
 10
20.713720
 20
125.561020
 30
0.0
  0
LWPOLYLINE
  5
2ad
100
AcDbEntity
  8
paper
 62
7
100
AcDbPolyline
 90
3
 70
0
 10
24.112400
 20
120.921250
 30
0.0
 10
24.112400
 20
116.906550
 30
0.0
 10
23.978750
 20
116.922150
 30
0.0
  0
LWPOLYLINE
  5
2ae
100
AcDbEntity
  8
paper
 62
7
100
AcDbPolyline
 90
3
 70
0
 10
24.112410
 20
139.649550
 30
0.0
 10
24.112410
 20
143.664250
 30
0.0
 10
23.978760
 20
143.648650
 30
0.0
  0
LWPOLYLINE
  5
2af
100
AcDbEntity
  8
paper
 62
1
100
AcDbPolyline
 90
2
 70
0
 10
24.112410
 20
120.921250
 30
0.0
 10
24.112410
 20
139.649550
 30
0.0
  0
LWPOLYLINE
  5
2b0
100
AcDbEntity
  8
paper
 62
7
100
AcDbPolyline
 90
2
 70
0
 10
20.751850
 20
125.661530
 30
0.0
 10
20.751850
 20
134.823020
 30
0.0
  0
LWPOLYLINE
  5
2b1
100
AcDbEntity
  8
paper
 62
1
100
AcDbPolyline
 90
2
 70
0
 10
24.102000
 20
134.823020
 30
0.0
 10
20.751850
 20
134.823020
 30
0.0
  0
LWPOLYLINE
  5
2b2
100
AcDbEntity
  8
paper
 62
1
100
AcDbPolyline
 90
2
 70
0
 10
48.412420
 20
120.921250
 30
0.0
 10
24.112400
 20
120.921250
 30
0.0
  0
LWPOLYLINE
  5
2b3
100
AcDbEntity
  8
paper
 62
7
100
AcDbPolyline
 90
3
 70
0
 10
48.546070
 20
116.922130
 30
0.0
 10
48.546070
 20
85.498230
 30
0.0
 10
33.041000
 20
85.498230
 30
0.0
  0
LWPOLYLINE
  5
2b4
100
AcDbEntity
  8
paper
 62
7
100
AcDbPolyline
 90
2
 70
0
 10
24.112400
 20
116.906550
 30
0.0
 10
24.112400
 20
85.341020
 30
0.0
  0
LWPOLYLINE
  5
2b5
100
AcDbEntity
  8
paper
 62
7
100
AcDbPolyline
 90
2
 70
0
 10
33.041000
 20
85.498230
 30
0.0
 10
24.037220
 20
85.498230
 30
0.0
  0
LWPOLYLINE
  5
2b6
100
AcDbEntity
  8
paper
 62
7
100
AcDbPolyline
 90
2
 70
0
 10
68.378040
 20
116.906550
 30
0.0
 10
48.412420
 20
116.906550
 30
0.0
  0
LWPOLYLINE
  5
2b7
100
AcDbEntity
  8
paper
 62
7
100
AcDbPolyline
 90
2
 70
0
 10
68.050030
 20
120.906640
 30
0.0
 10
68.050030
 20
125.702610
 30
0.0
  0
LWPOLYLINE
  5
2b8
100
AcDbEntity
  8
paper
 62
1
100
AcDbPolyline
 90
2
 70
0
 10
48.546050
 20
139.633970
 30
0.0
 10
67.834940
 20
139.633970
 30
0.0
  0
LWPOLYLINE
  5
2b9
100
AcDbEntity
  8
paper
 62
7
100
AcDbPolyline
 90
3
 70
0
 10
68.183670
 20
139.648580
 30
0.0
 10
68.328480
 20
143.619390
 30
0.0
 10
48.661890
 20
143.619390
 30
0.0
  0
LWPOLYLINE
  5
2ba
100
AcDbEntity
  8
paper
 62
7
100
AcDbPolyline
 90
2
 70
0
 10
68.511680
 20
143.648670
 30
0.0
 10
48.546060
 20
143.648670
 30
0.0
  0
LWPOLYLINE
  5
2bb
100
AcDbEntity
  8
paper
 62
7
100
AcDbPolyline
 90
2
 70
0
 10
68.183670
 20
139.648580
 30
0.0
 10
68.183670
 20
134.852610
 30
0.0
  0
LWPOLYLINE
  5
2bc
100
AcDbEntity
  8
paper
 62
1
100
AcDbPolyline
 90
2
 70
0
 10
24.112410
 20
120.921250
 30
0.0
 10
4.823520
 20
120.921250
 30
0.0
  0
LWPOLYLINE
  5
2bd
100
AcDbEntity
  8
paper
 62
7
100
AcDbPolyline
 90
2
 70
0
 10
20.713720
 20
125.561020
 30
0.0
 10
4.486490
 20
125.561020
 30
0.0
  0
LWPOLYLINE
  5
2be
100
AcDbEntity
  8
paper
 62
7
100
AcDbPolyline
 90
3
 70
0
 10
4.474790
 20
120.906640
 30
0.0
 10
4.329980
 20
116.935830
 30
0.0
 10
23.996570
 20
116.935830
 30
0.0
  0
LWPOLYLINE
  5
2bf
100
AcDbEntity
  8
paper
 62
7
100
AcDbPolyline
 90
2
 70
0
 10
24.112400
 20
116.906550
 30
0.0
 10
23.978750
 20
116.922150
 30
0.0
  0
LWPOLYLINE
  5
2c0
100
AcDbEntity
  8
paper
 62
7
100
AcDbPolyline
 90
2
 70
0
 10
24.112410
 20
143.664250
 30
0.0
 10
23.978760
 20
143.648650
 30
0.0
  0
LWPOLYLINE
  5
2c1
100
AcDbEntity
  8
paper
 62
7
100
AcDbPolyline
 90
2
 70
0
 10
20.751850
 20
134.823020
 30
0.0
 10
4.287850
 20
134.823020
 30
0.0
  0
LWPOLYLINE
  5
2c2
100
AcDbEntity
  8
paper
 62
7
100
AcDbPolyline
 90
2
 70
0
 10
4.146780
 20
116.906550
 30
0.0
 10
24.112400
 20
116.906550
 30
0.0
  0
LWPOLYLINE
  5
2c3
100
AcDbEntity
  8
paper
 62
7
100
AcDbPolyline
 90
2
 70
0
 10
4.474790
 20
120.906640
 30
0.0
 10
4.474790
 20
125.702610
 30
0.0
  0
LWPOLYLINE
  5
2c4
100
AcDbEntity
  8
paper
 62
1
100
AcDbPolyline
 90
2
 70
0
 10
23.978770
 20
139.633970
 30
0.0
 10
4.689880
 20
139.633970
 30
0.0
  0
LWPOLYLINE
  5
2c5
100
AcDbEntity
  8
paper
 62
7
100
AcDbPolyline
 90
3
 70
0
 10
4.341150
 20
139.648580
 30
0.0
 10
4.196340
 20
143.619390
 30
0.0
 10
23.862930
 20
143.619390
 30
0.0
  0
LWPOLYLINE
  5
2c6
100
AcDbEntity
  8
paper
 62
7
100
AcDbPolyline
 90
2
 70
0
 10
4.013140
 20
143.648670
 30
0.0
 10
23.978760
 20
143.648670
 30
0.0
  0
LWPOLYLINE
  5
2c7
100
AcDbEntity
  8
paper
 62
7
100
AcDbPolyline
 90
2
 70
0
 10
4.341150
 20
139.648580
 30
0.0
 10
4.341150
 20
134.852610
 30
0.0
  0
LWPOLYLINE
  5
2c8
100
AcDbEntity
  8
paper
 62
1
100
AcDbPolyline
 90
2
 70
0
 10
162.314360
 20
46.615690
 30
0.0
 10
143.025470
 20
46.615690
 30
0.0
  0
LWPOLYLINE
  5
2c9
100
AcDbEntity
  8
paper
 62
7
100
AcDbPolyline
 90
2
 70
0
 10
158.915670
 20
41.975920
 30
0.0
 10
142.688440
 20
41.975920
 30
0.0
  0
LWPOLYLINE
  5
2ca
100
AcDbEntity
  8
paper
 62
1
100
AcDbPolyline
 90
2
 70
0
 10
162.265820
 20
41.975920
 30
0.0
 10
158.915670
 20
41.975920
 30
0.0
  0
LWPOLYLINE
  5
2cb
100
AcDbEntity
  8
paper
 62
7
100
AcDbPolyline
 90
3
 70
0
 10
142.676740
 20
46.630300
 30
0.0
 10
142.531930
 20
50.601110
 30
0.0
 10
162.198520
 20
50.601110
 30
0.0
  0
LWPOLYLINE
  5
2cc
100
AcDbEntity
  8
paper
 62
7
100
AcDbPolyline
 90
3
 70
0
 10
162.314350
 20
46.615690
 30
0.0
 10
162.314350
 20
50.630390
 30
0.0
 10
162.180700
 20
50.614790
 30
0.0
  0
LWPOLYLINE
  5
2cd
100
AcDbEntity
  8
paper
 62
7
100
AcDbPolyline
 90
3
 70
0
 10
162.314360
 20
27.887390
 30
0.0
 10
162.314360
 20
23.872690
 30
0.0
 10
162.180710
 20
23.888290
 30
0.0
  0
LWPOLYLINE
  5
2ce
100
AcDbEntity
  8
paper
 62
1
100
AcDbPolyline
 90
3
 70
0
 10
162.314360
 20
46.615690
 30
0.0
 10
162.314360
 20
27.887390
 30
0.0
 10
186.614360
 20
27.887390
 30
0.0
  0
LWPOLYLINE
  5
2cf
100
AcDbEntity
  8
paper
 62
7
100
AcDbPolyline
 90
2
 70
0
 10
162.180710
 20
23.888270
 30
0.0
 10
186.748020
 20
23.888270
 30
0.0
  0
LWPOLYLINE
  5
2d0
100
AcDbEntity
  8
paper
 62
7
100
AcDbPolyline
 90
3
 70
0
 10
158.953800
 20
41.875410
 30
0.0
 10
158.953800
 20
32.713920
 30
0.0
 10
142.489800
 20
32.713920
 30
0.0
  0
LWPOLYLINE
  5
2d1
100
AcDbEntity
  8
paper
 62
1
100
AcDbPolyline
 90
2
 70
0
 10
162.303950
 20
32.713920
 30
0.0
 10
158.953800
 20
32.713920
 30
0.0
  0
LWPOLYLINE
  5
2d2
100
AcDbEntity
  8
paper
 62
1
100
AcDbPolyline
 90
2
 70
0
 10
186.662900
 20
41.975920
 30
0.0
 10
190.013050
 20
41.975920
 30
0.0
  0
LWPOLYLINE
  5
2d3
100
AcDbEntity
  8
paper
 62
7
100
AcDbPolyline
 90
3
 70
0
 10
186.614370
 20
46.615690
 30
0.0
 10
186.614370
 20
50.630390
 30
0.0
 10
186.748020
 20
50.614790
 30
0.0
  0
LWPOLYLINE
  5
2d4
100
AcDbEntity
  8
paper
 62
7
100
AcDbPolyline
 90
3
 70
0
 10
186.614360
 20
27.887390
 30
0.0
 10
186.614360
 20
23.872690
 30
0.0
 10
186.748010
 20
23.888290
 30
0.0
  0
LWPOLYLINE
  5
2d5
100
AcDbEntity
  8
paper
 62
1
100
AcDbPolyline
 90
2
 70
0
 10
186.614360
 20
46.615690
 30
0.0
 10
186.614360
 20
27.887390
 30
0.0
  0
LWPOLYLINE
  5
2d6
100
AcDbEntity
  8
paper
 62
7
100
AcDbPolyline
 90
2
 70
0
 10
189.974920
 20
41.875410
 30
0.0
 10
189.974920
 20
32.713920
 30
0.0
  0
LWPOLYLINE
  5
2d7
100
AcDbEntity
  8
paper
 62
1
100
AcDbPolyline
 90
2
 70
0
 10
186.624770
 20
32.713920
 30
0.0
 10
189.974920
 20
32.713920
 30
0.0
  0
LWPOLYLINE
  5
2d8
100
AcDbEntity
  8
paper
 62
1
100
AcDbPolyline
 90
2
 70
0
 10
162.314350
 20
46.615690
 30
0.0
 10
186.614370
 20
46.615690
 30
0.0
  0
LWPOLYLINE
  5
2d9
100
AcDbEntity
  8
paper
 62
7
100
AcDbPolyline
 90
3
 70
0
 10
162.180700
 20
50.614810
 30
0.0
 10
162.180700
 20
82.038710
 30
0.0
 10
177.685770
 20
82.038710
 30
0.0
  0
LWPOLYLINE
  5
2da
100
AcDbEntity
  8
paper
 62
7
100
AcDbPolyline
 90
2
 70
0
 10
186.614370
 20
50.630390
 30
0.0
 10
186.614370
 20
82.195920
 30
0.0
  0
LWPOLYLINE
  5
2db
100
AcDbEntity
  8
paper
 62
7
100
AcDbPolyline
 90
2
 70
0
 10
177.685770
 20
82.038710
 30
0.0
 10
186.689550
 20
82.038710
 30
0.0
  0
LWPOLYLINE
  5
2dc
100
AcDbEntity
  8
paper
 62
7
100
AcDbPolyline
 90
2
 70
0
 10
142.348730
 20
50.630390
 30
0.0
 10
162.314350
 20
50.630390
 30
0.0
  0
LWPOLYLINE
  5
2dd
100
AcDbEntity
  8
paper
 62
7
100
AcDbPolyline
 90
2
 70
0
 10
142.676740
 20
46.630300
 30
0.0
 10
142.676740
 20
41.834330
 30
0.0
  0
LWPOLYLINE
  5
2de
100
AcDbEntity
  8
paper
 62
1
100
AcDbPolyline
 90
2
 70
0
 10
162.180720
 20
27.902970
 30
0.0
 10
142.891830
 20
27.902970
 30
0.0
  0
LWPOLYLINE
  5
2df
100
AcDbEntity
  8
paper
 62
7
100
AcDbPolyline
 90
3
 70
0
 10
142.543100
 20
27.888360
 30
0.0
 10
142.398290
 20
23.917550
 30
0.0
 10
162.064880
 20
23.917550
 30
0.0
  0
LWPOLYLINE
  5
2e0
100
AcDbEntity
  8
paper
 62
7
100
AcDbPolyline
 90
2
 70
0
 10
142.215090
 20
23.888270
 30
0.0
 10
162.180710
 20
23.888270
 30
0.0
  0
LWPOLYLINE
  5
2e1
100
AcDbEntity
  8
paper
 62
7
100
AcDbPolyline
 90
2
 70
0
 10
142.543100
 20
27.888360
 30
0.0
 10
142.543100
 20
32.684330
 30
0.0
  0
LWPOLYLINE
  5
2e2
100
AcDbEntity
  8
paper
 62
1
100
AcDbPolyline
 90
2
 70
0
 10
186.614360
 20
46.615690
 30
0.0
 10
205.903250
 20
46.615690
 30
0.0
  0
LWPOLYLINE
  5
2e3
100
AcDbEntity
  8
paper
 62
7
100
AcDbPolyline
 90
2
 70
0
 10
190.013050
 20
41.975920
 30
0.0
 10
206.240280
 20
41.975920
 30
0.0
  0
LWPOLYLINE
  5
2e4
100
AcDbEntity
  8
paper
 62
7
100
AcDbPolyline
 90
3
 70
0
 10
206.251980
 20
46.630300
 30
0.0
 10
206.396790
 20
50.601110
 30
0.0
 10
186.730200
 20
50.601110
 30
0.0
  0
LWPOLYLINE
  5
2e5
100
AcDbEntity
  8
paper
 62
7
100
AcDbPolyline
 90
2
 70
0
 10
186.614370
 20
50.630390
 30
0.0
 10
186.748020
 20
50.614790
 30
0.0
  0
LWPOLYLINE
  5
2e6
100
AcDbEntity
  8
paper
 62
7
100
AcDbPolyline
 90
2
 70
0
 10
186.614360
 20
23.872690
 30
0.0
 10
186.748010
 20
23.888290
 30
0.0
  0
LWPOLYLINE
  5
2e7
100
AcDbEntity
  8
paper
 62
7
100
AcDbPolyline
 90
2
 70
0
 10
189.974920
 20
32.713920
 30
0.0
 10
206.438920
 20
32.713920
 30
0.0
  0
LWPOLYLINE
  5
2e8
100
AcDbEntity
  8
paper
 62
7
100
AcDbPolyline
 90
2
 70
0
 10
206.579990
 20
50.630390
 30
0.0
 10
186.614370
 20
50.630390
 30
0.0
  0
LWPOLYLINE
  5
2e9
100
AcDbEntity
  8
paper
 62
7
100
AcDbPolyline
 90
2
 70
0
 10
206.251980
 20
46.630300
 30
0.0
 10
206.251980
 20
41.834330
 30
0.0
  0
LWPOLYLINE
  5
2ea
100
AcDbEntity
  8
paper
 62
1
100
AcDbPolyline
 90
2
 70
0
 10
186.748000
 20
27.902970
 30
0.0
 10
206.036890
 20
27.902970
 30
0.0
  0
LWPOLYLINE
  5
2eb
100
AcDbEntity
  8
paper
 62
7
100
AcDbPolyline
 90
3
 70
0
 10
206.385620
 20
27.888360
 30
0.0
 10
206.530430
 20
23.917550
 30
0.0
 10
186.863840
 20
23.917550
 30
0.0
  0
LWPOLYLINE
  5
2ec
100
AcDbEntity
  8
paper
 62
7
100
AcDbPolyline
 90
2
 70
0
 10
206.713630
 20
23.888270
 30
0.0
 10
186.748010
 20
23.888270
 30
0.0
  0
LWPOLYLINE
  5
2ed
100
AcDbEntity
  8
paper
 62
7
100
AcDbPolyline
 90
2
 70
0
 10
206.385620
 20
27.888360
 30
0.0
 10
206.385620
 20
32.684330
 30
0.0
  0
LWPOLYLINE
  5
2ee
100
AcDbEntity
  8
paper
 62
1
100
AcDbPolyline
 90
2
 70
0
 10
140.644750
 20
59.254430
 30
0.0
 10
159.933640
 20
59.254430
 30
0.0
  0
LWPOLYLINE
  5
2ef
100
AcDbEntity
  8
paper
 62
7
100
AcDbPolyline
 90
2
 70
0
 10
144.043440
 20
63.894200
 30
0.0
 10
160.270670
 20
63.894200
 30
0.0
  0
LWPOLYLINE
  5
2f0
100
AcDbEntity
  8
paper
 62
1
100
AcDbPolyline
 90
2
 70
0
 10
140.693290
 20
63.894200
 30
0.0
 10
144.043440
 20
63.894200
 30
0.0
  0
LWPOLYLINE
  5
2f1
100
AcDbEntity
  8
paper
 62
7
100
AcDbPolyline
 90
3
 70
0
 10
160.282370
 20
59.239820
 30
0.0
 10
160.427180
 20
55.269010
 30
0.0
 10
140.760590
 20
55.269010
 30
0.0
  0
LWPOLYLINE
  5
2f2
100
AcDbEntity
  8
paper
 62
7
100
AcDbPolyline
 90
3
 70
0
 10
140.644760
 20
59.254430
 30
0.0
 10
140.644760
 20
55.239730
 30
0.0
 10
140.778410
 20
55.255330
 30
0.0
  0
LWPOLYLINE
  5
2f3
100
AcDbEntity
  8
paper
 62
7
100
AcDbPolyline
 90
3
 70
0
 10
140.644750
 20
77.982730
 30
0.0
 10
140.644750
 20
81.997430
 30
0.0
 10
140.778400
 20
81.981830
 30
0.0
  0
LWPOLYLINE
  5
2f4
100
AcDbEntity
  8
paper
 62
1
100
AcDbPolyline
 90
3
 70
0
 10
140.644750
 20
59.254430
 30
0.0
 10
140.644750
 20
77.982730
 30
0.0
 10
116.344750
 20
77.982730
 30
0.0
  0
LWPOLYLINE
  5
2f5
100
AcDbEntity
  8
paper
 62
7
100
AcDbPolyline
 90
2
 70
0
 10
140.778400
 20
81.981850
 30
0.0
 10
116.211090
 20
81.981850
 30
0.0
  0
LWPOLYLINE
  5
2f6
100
AcDbEntity
  8
paper
 62
7
100
AcDbPolyline
 90
3
 70
0
 10
144.005310
 20
63.994710
 30
0.0
 10
144.005310
 20
73.156200
 30
0.0
 10
160.469310
 20
73.156200
 30
0.0
  0
LWPOLYLINE
  5
2f7
100
AcDbEntity
  8
paper
 62
1
100
AcDbPolyline
 90
2
 70
0
 10
140.655160
 20
73.156200
 30
0.0
 10
144.005310
 20
73.156200
 30
0.0
  0
LWPOLYLINE
  5
2f8
100
AcDbEntity
  8
paper
 62
1
100
AcDbPolyline
 90
2
 70
0
 10
116.296210
 20
63.894200
 30
0.0
 10
112.946060
 20
63.894200
 30
0.0
  0
LWPOLYLINE
  5
2f9
100
AcDbEntity
  8
paper
 62
7
100
AcDbPolyline
 90
3
 70
0
 10
116.344740
 20
59.254430
 30
0.0
 10
116.344740
 20
55.239730
 30
0.0
 10
116.211090
 20
55.255330
 30
0.0
  0
LWPOLYLINE
  5
2fa
100
AcDbEntity
  8
paper
 62
7
100
AcDbPolyline
 90
3
 70
0
 10
116.344750
 20
77.982730
 30
0.0
 10
116.344750
 20
81.997430
 30
0.0
 10
116.211100
 20
81.981830
 30
0.0
  0
LWPOLYLINE
  5
2fb
100
AcDbEntity
  8
paper
 62
1
100
AcDbPolyline
 90
2
 70
0
 10
116.344750
 20
59.254430
 30
0.0
 10
116.344750
 20
77.982730
 30
0.0
  0
LWPOLYLINE
  5
2fc
100
AcDbEntity
  8
paper
 62
7
100
AcDbPolyline
 90
2
 70
0
 10
112.984190
 20
63.994710
 30
0.0
 10
112.984190
 20
73.156200
 30
0.0
  0
LWPOLYLINE
  5
2fd
100
AcDbEntity
  8
paper
 62
1
100
AcDbPolyline
 90
2
 70
0
 10
116.334340
 20
73.156200
 30
0.0
 10
112.984190
 20
73.156200
 30
0.0
  0
LWPOLYLINE
  5
2fe
100
AcDbEntity
  8
paper
 62
1
100
AcDbPolyline
 90
2
 70
0
 10
140.644760
 20
59.254430
 30
0.0
 10
116.344740
 20
59.254430
 30
0.0
  0
LWPOLYLINE
  5
2ff
100
AcDbEntity
  8
paper
 62
7
100
AcDbPolyline
 90
3
 70
0
 10
140.778410
 20
55.255310
 30
0.0
 10
140.778410
 20
23.831410
 30
0.0
 10
125.273340
 20
23.831410
 30
0.0
  0
LWPOLYLINE
  5
300
100
AcDbEntity
  8
paper
 62
7
100
AcDbPolyline
 90
2
 70
0
 10
116.344740
 20
55.239730
 30
0.0
 10
116.344740
 20
23.674200
 30
0.0
  0
LWPOLYLINE
  5
301
100
AcDbEntity
  8
paper
 62
7
100
AcDbPolyline
 90
2
 70
0
 10
125.273340
 20
23.831410
 30
0.0
 10
116.269560
 20
23.831410
 30
0.0
  0
LWPOLYLINE
  5
302
100
AcDbEntity
  8
paper
 62
7
100
AcDbPolyline
 90
2
 70
0
 10
160.610380
 20
55.239730
 30
0.0
 10
140.644760
 20
55.239730
 30
0.0
  0
LWPOLYLINE
  5
303
100
AcDbEntity
  8
paper
 62
7
100
AcDbPolyline
 90
2
 70
0
 10
160.282370
 20
59.239820
 30
0.0
 10
160.282370
 20
64.035790
 30
0.0
  0
LWPOLYLINE
  5
304
100
AcDbEntity
  8
paper
 62
1
100
AcDbPolyline
 90
2
 70
0
 10
140.778390
 20
77.967150
 30
0.0
 10
160.067280
 20
77.967150
 30
0.0
  0
LWPOLYLINE
  5
305
100
AcDbEntity
  8
paper
 62
7
100
AcDbPolyline
 90
3
 70
0
 10
160.416010
 20
77.981760
 30
0.0
 10
160.560820
 20
81.952570
 30
0.0
 10
140.894230
 20
81.952570
 30
0.0
  0
LWPOLYLINE
  5
306
100
AcDbEntity
  8
paper
 62
7
100
AcDbPolyline
 90
2
 70
0
 10
160.744020
 20
81.981850
 30
0.0
 10
140.778400
 20
81.981850
 30
0.0
  0
LWPOLYLINE
  5
307
100
AcDbEntity
  8
paper
 62
7
100
AcDbPolyline
 90
2
 70
0
 10
160.416010
 20
77.981760
 30
0.0
 10
160.416010
 20
73.185790
 30
0.0
  0
LWPOLYLINE
  5
308
100
AcDbEntity
  8
paper
 62
1
100
AcDbPolyline
 90
2
 70
0
 10
116.344750
 20
59.254430
 30
0.0
 10
97.055860
 20
59.254430
 30
0.0
  0
LWPOLYLINE
  5
309
100
AcDbEntity
  8
paper
 62
7
100
AcDbPolyline
 90
2
 70
0
 10
112.946060
 20
63.894200
 30
0.0
 10
96.718830
 20
63.894200
 30
0.0
  0
LWPOLYLINE
  5
30a
100
AcDbEntity
  8
paper
 62
7
100
AcDbPolyline
 90
3
 70
0
 10
96.707130
 20
59.239820
 30
0.0
 10
96.562320
 20
55.269010
 30
0.0
 10
116.228910
 20
55.269010
 30
0.0
  0
LWPOLYLINE
  5
30b
100
AcDbEntity
  8
paper
 62
7
100
AcDbPolyline
 90
2
 70
0
 10
116.344740
 20
55.239730
 30
0.0
 10
116.211090
 20
55.255330
 30
0.0
  0
LWPOLYLINE
  5
30c
100
AcDbEntity
  8
paper
 62
7
100
AcDbPolyline
 90
2
 70
0
 10
116.344750
 20
81.997430
 30
0.0
 10
116.211100
 20
81.981830
 30
0.0
  0
LWPOLYLINE
  5
30d
100
AcDbEntity
  8
paper
 62
7
100
AcDbPolyline
 90
2
 70
0
 10
112.984190
 20
73.156200
 30
0.0
 10
96.520190
 20
73.156200
 30
0.0
  0
LWPOLYLINE
  5
30e
100
AcDbEntity
  8
paper
 62
7
100
AcDbPolyline
 90
2
 70
0
 10
96.379120
 20
55.239730
 30
0.0
 10
116.344740
 20
55.239730
 30
0.0
  0
LWPOLYLINE
  5
30f
100
AcDbEntity
  8
paper
 62
7
100
AcDbPolyline
 90
2
 70
0
 10
96.707130
 20
59.239820
 30
0.0
 10
96.707130
 20
64.035790
 30
0.0
  0
LWPOLYLINE
  5
310
100
AcDbEntity
  8
paper
 62
1
100
AcDbPolyline
 90
2
 70
0
 10
116.211110
 20
77.967150
 30
0.0
 10
96.922220
 20
77.967150
 30
0.0
  0
LWPOLYLINE
  5
311
100
AcDbEntity
  8
paper
 62
7
100
AcDbPolyline
 90
3
 70
0
 10
96.573490
 20
77.981760
 30
0.0
 10
96.428680
 20
81.952570
 30
0.0
 10
116.095270
 20
81.952570
 30
0.0
  0
LWPOLYLINE
  5
312
100
AcDbEntity
  8
paper
 62
7
100
AcDbPolyline
 90
2
 70
0
 10
96.245480
 20
81.981850
 30
0.0
 10
116.211100
 20
81.981850
 30
0.0
  0
LWPOLYLINE
  5
313
100
AcDbEntity
  8
paper
 62
7
100
AcDbPolyline
 90
2
 70
0
 10
96.573490
 20
77.981760
 30
0.0
 10
96.573490
 20
73.185790
 30
0.0
  0
LWPOLYLINE
  5
314
100
AcDbEntity
  8
paper
 62
1
100
AcDbPolyline
 90
2
 70
0
 10
70.450201
 20
47.522600
 30
0.0
 10
51.161311
 20
47.522600
 30
0.0
  0
LWPOLYLINE
  5
315
100
AcDbEntity
  8
paper
 62
7
100
AcDbPolyline
 90
2
 70
0
 10
67.051511
 20
42.882830
 30
0.0
 10
50.824281
 20
42.882830
 30
0.0
  0
LWPOLYLINE
  5
316
100
AcDbEntity
  8
paper
 62
1
100
AcDbPolyline
 90
2
 70
0
 10
70.401658
 20
42.882830
 30
0.0
 10
67.051509
 20
42.882830
 30
0.0
  0
LWPOLYLINE
  5
317
100
AcDbEntity
  8
paper
 62
7
100
AcDbPolyline
 90
3
 70
0
 10
50.812581
 20
47.537210
 30
0.0
 10
50.667771
 20
51.508020
 30
0.0
 10
70.334361
 20
51.508020
 30
0.0
  0
LWPOLYLINE
  5
318
100
AcDbEntity
  8
paper
 62
7
100
AcDbPolyline
 90
3
 70
0
 10
70.450191
 20
47.522600
 30
0.0
 10
70.450191
 20
51.537300
 30
0.0
 10
70.316541
 20
51.521700
 30
0.0
  0
LWPOLYLINE
  5
319
100
AcDbEntity
  8
paper
 62
7
100
AcDbPolyline
 90
3
 70
0
 10
70.450201
 20
28.794300
 30
0.0
 10
70.450201
 20
24.779600
 30
0.0
 10
70.316551
 20
24.795200
 30
0.0
  0
LWPOLYLINE
  5
31a
100
AcDbEntity
  8
paper
 62
1
100
AcDbPolyline
 90
3
 70
0
 10
70.450201
 20
47.522600
 30
0.0
 10
70.450201
 20
28.794300
 30
0.0
 10
94.750201
 20
28.794300
 30
0.0
  0
LWPOLYLINE
  5
31b
100
AcDbEntity
  8
paper
 62
7
100
AcDbPolyline
 90
2
 70
0
 10
70.316551
 20
24.795180
 30
0.0
 10
94.883861
 20
24.795180
 30
0.0
  0
LWPOLYLINE
  5
31c
100
AcDbEntity
  8
paper
 62
7
100
AcDbPolyline
 90
3
 70
0
 10
67.089641
 20
42.782320
 30
0.0
 10
67.089641
 20
33.620830
 30
0.0
 10
50.625641
 20
33.620830
 30
0.0
  0
LWPOLYLINE
  5
31d
100
AcDbEntity
  8
paper
 62
1
100
AcDbPolyline
 90
2
 70
0
 10
70.439791
 20
33.620830
 30
0.0
 10
67.089641
 20
33.620830
 30
0.0
  0
LWPOLYLINE
  5
31e
100
AcDbEntity
  8
paper
 62
1
100
AcDbPolyline
 90
2
 70
0
 10
94.798741
 20
42.882830
 30
0.0
 10
98.148891
 20
42.882830
 30
0.0
  0
LWPOLYLINE
  5
31f
100
AcDbEntity
  8
paper
 62
7
100
AcDbPolyline
 90
3
 70
0
 10
94.750211
 20
47.522600
 30
0.0
 10
94.750211
 20
51.537300
 30
0.0
 10
94.883861
 20
51.521700
 30
0.0
  0
LWPOLYLINE
  5
320
100
AcDbEntity
  8
paper
 62
7
100
AcDbPolyline
 90
3
 70
0
 10
94.750201
 20
28.794300
 30
0.0
 10
94.750201
 20
24.779600
 30
0.0
 10
94.883851
 20
24.795200
 30
0.0
  0
LWPOLYLINE
  5
321
100
AcDbEntity
  8
paper
 62
1
100
AcDbPolyline
 90
2
 70
0
 10
94.750201
 20
47.522600
 30
0.0
 10
94.750201
 20
28.794300
 30
0.0
  0
LWPOLYLINE
  5
322
100
AcDbEntity
  8
paper
 62
7
100
AcDbPolyline
 90
2
 70
0
 10
98.110761
 20
42.782320
 30
0.0
 10
98.110761
 20
33.620830
 30
0.0
  0
LWPOLYLINE
  5
323
100
AcDbEntity
  8
paper
 62
1
100
AcDbPolyline
 90
2
 70
0
 10
94.760611
 20
33.620830
 30
0.0
 10
98.110761
 20
33.620830
 30
0.0
  0
LWPOLYLINE
  5
324
100
AcDbEntity
  8
paper
 62
1
100
AcDbPolyline
 90
2
 70
0
 10
70.450191
 20
47.522600
 30
0.0
 10
94.750211
 20
47.522600
 30
0.0
  0
LWPOLYLINE
  5
325
100
AcDbEntity
  8
paper
 62
7
100
AcDbPolyline
 90
3
 70
0
 10
70.316541
 20
51.521720
 30
0.0
 10
70.316541
 20
82.945620
 30
0.0
 10
85.821611
 20
82.945620
 30
0.0
  0
LWPOLYLINE
  5
326
100
AcDbEntity
  8
paper
 62
7
100
AcDbPolyline
 90
2
 70
0
 10
94.750211
 20
51.537300
 30
0.0
 10
94.750211
 20
83.102830
 30
0.0
  0
LWPOLYLINE
  5
327
100
AcDbEntity
  8
paper
 62
7
100
AcDbPolyline
 90
2
 70
0
 10
85.821611
 20
82.945620
 30
0.0
 10
94.825391
 20
82.945620
 30
0.0
  0
LWPOLYLINE
  5
328
100
AcDbEntity
  8
paper
 62
7
100
AcDbPolyline
 90
2
 70
0
 10
50.484571
 20
51.537300
 30
0.0
 10
70.450191
 20
51.537300
 30
0.0
  0
LWPOLYLINE
  5
329
100
AcDbEntity
  8
paper
 62
7
100
AcDbPolyline
 90
2
 70
0
 10
50.812581
 20
47.537210
 30
0.0
 10
50.812581
 20
42.741240
 30
0.0
  0
LWPOLYLINE
  5
32a
100
AcDbEntity
  8
paper
 62
1
100
AcDbPolyline
 90
2
 70
0
 10
70.316561
 20
28.809880
 30
0.0
 10
51.027671
 20
28.809880
 30
0.0
  0
LWPOLYLINE
  5
32b
100
AcDbEntity
  8
paper
 62
7
100
AcDbPolyline
 90
3
 70
0
 10
50.678941
 20
28.795270
 30
0.0
 10
50.534131
 20
24.824460
 30
0.0
 10
70.200721
 20
24.824460
 30
0.0
  0
LWPOLYLINE
  5
32c
100
AcDbEntity
  8
paper
 62
7
100
AcDbPolyline
 90
2
 70
0
 10
50.350931
 20
24.795180
 30
0.0
 10
70.316551
 20
24.795180
 30
0.0
  0
LWPOLYLINE
  5
32d
100
AcDbEntity
  8
paper
 62
7
100
AcDbPolyline
 90
2
 70
0
 10
50.678941
 20
28.795270
 30
0.0
 10
50.678941
 20
33.591240
 30
0.0
  0
LWPOLYLINE
  5
32e
100
AcDbEntity
  8
paper
 62
1
100
AcDbPolyline
 90
2
 70
0
 10
94.750201
 20
47.522600
 30
0.0
 10
114.039090
 20
47.522600
 30
0.0
  0
LWPOLYLINE
  5
32f
100
AcDbEntity
  8
paper
 62
7
100
AcDbPolyline
 90
2
 70
0
 10
98.148891
 20
42.882830
 30
0.0
 10
114.376120
 20
42.882830
 30
0.0
  0
LWPOLYLINE
  5
330
100
AcDbEntity
  8
paper
 62
7
100
AcDbPolyline
 90
3
 70
0
 10
114.387820
 20
47.537210
 30
0.0
 10
114.532630
 20
51.508020
 30
0.0
 10
94.866041
 20
51.508020
 30
0.0
  0
LWPOLYLINE
  5
331
100
AcDbEntity
  8
paper
 62
7
100
AcDbPolyline
 90
2
 70
0
 10
94.750211
 20
51.537300
 30
0.0
 10
94.883861
 20
51.521700
 30
0.0
  0
LWPOLYLINE
  5
332
100
AcDbEntity
  8
paper
 62
7
100
AcDbPolyline
 90
2
 70
0
 10
94.750201
 20
24.779600
 30
0.0
 10
94.883851
 20
24.795200
 30
0.0
  0
LWPOLYLINE
  5
333
100
AcDbEntity
  8
paper
 62
7
100
AcDbPolyline
 90
2
 70
0
 10
98.110761
 20
33.620830
 30
0.0
 10
114.574760
 20
33.620830
 30
0.0
  0
LWPOLYLINE
  5
334
100
AcDbEntity
  8
paper
 62
7
100
AcDbPolyline
 90
2
 70
0
 10
114.715830
 20
51.537300
 30
0.0
 10
94.750211
 20
51.537300
 30
0.0
  0
LWPOLYLINE
  5
335
100
AcDbEntity
  8
paper
 62
7
100
AcDbPolyline
 90
2
 70
0
 10
114.387820
 20
47.537210
 30
0.0
 10
114.387820
 20
42.741240
 30
0.0
  0
LWPOLYLINE
  5
336
100
AcDbEntity
  8
paper
 62
1
100
AcDbPolyline
 90
2
 70
0
 10
94.883841
 20
28.809880
 30
0.0
 10
114.172730
 20
28.809880
 30
0.0
  0
LWPOLYLINE
  5
337
100
AcDbEntity
  8
paper
 62
7
100
AcDbPolyline
 90
3
 70
0
 10
114.521460
 20
28.795270
 30
0.0
 10
114.666270
 20
24.824460
 30
0.0
 10
94.999681
 20
24.824460
 30
0.0
  0
LWPOLYLINE
  5
338
100
AcDbEntity
  8
paper
 62
7
100
AcDbPolyline
 90
2
 70
0
 10
114.849470
 20
24.795180
 30
0.0
 10
94.883851
 20
24.795180
 30
0.0
  0
LWPOLYLINE
  5
339
100
AcDbEntity
  8
paper
 62
7
100
AcDbPolyline
 90
2
 70
0
 10
114.521460
 20
28.795270
 30
0.0
 10
114.521460
 20
33.591240
 30
0.0
  0
LWPOLYLINE
  5
33a
100
AcDbEntity
  8
paper
 62
1
100
AcDbPolyline
 90
2
 70
0
 10
49.158850
 20
60.218130
 30
0.0
 10
68.447740
 20
60.218130
 30
0.0
  0
LWPOLYLINE
  5
33b
100
AcDbEntity
  8
paper
 62
7
100
AcDbPolyline
 90
2
 70
0
 10
52.557540
 20
64.857900
 30
0.0
 10
68.784770
 20
64.857900
 30
0.0
  0
LWPOLYLINE
  5
33c
100
AcDbEntity
  8
paper
 62
1
100
AcDbPolyline
 90
2
 70
0
 10
49.207393
 20
64.857900
 30
0.0
 10
52.557542
 20
64.857900
 30
0.0
  0
LWPOLYLINE
  5
33d
100
AcDbEntity
  8
paper
 62
7
100
AcDbPolyline
 90
3
 70
0
 10
68.796470
 20
60.203520
 30
0.0
 10
68.941280
 20
56.232710
 30
0.0
 10
49.274690
 20
56.232710
 30
0.0
  0
LWPOLYLINE
  5
33e
100
AcDbEntity
  8
paper
 62
7
100
AcDbPolyline
 90
3
 70
0
 10
49.158860
 20
60.218130
 30
0.0
 10
49.158860
 20
56.203430
 30
0.0
 10
49.292510
 20
56.219030
 30
0.0
  0
LWPOLYLINE
  5
33f
100
AcDbEntity
  8
paper
 62
7
100
AcDbPolyline
 90
3
 70
0
 10
49.158850
 20
78.946430
 30
0.0
 10
49.158850
 20
82.961130
 30
0.0
 10
49.292500
 20
82.945530
 30
0.0
  0
LWPOLYLINE
  5
340
100
AcDbEntity
  8
paper
 62
1
100
AcDbPolyline
 90
3
 70
0
 10
49.158850
 20
60.218130
 30
0.0
 10
49.158850
 20
78.946430
 30
0.0
 10
24.858850
 20
78.946430
 30
0.0
  0
LWPOLYLINE
  5
341
100
AcDbEntity
  8
paper
 62
7
100
AcDbPolyline
 90
2
 70
0
 10
49.292500
 20
82.945550
 30
0.0
 10
24.725190
 20
82.945550
 30
0.0
  0
LWPOLYLINE
  5
342
100
AcDbEntity
  8
paper
 62
7
100
AcDbPolyline
 90
3
 70
0
 10
52.519410
 20
64.958410
 30
0.0
 10
52.519410
 20
74.119900
 30
0.0
 10
68.983410
 20
74.119900
 30
0.0
  0
LWPOLYLINE
  5
343
100
AcDbEntity
  8
paper
 62
1
100
AcDbPolyline
 90
2
 70
0
 10
49.169260
 20
74.119900
 30
0.0
 10
52.519410
 20
74.119900
 30
0.0
  0
LWPOLYLINE
  5
344
100
AcDbEntity
  8
paper
 62
1
100
AcDbPolyline
 90
2
 70
0
 10
24.810310
 20
64.857900
 30
0.0
 10
21.460160
 20
64.857900
 30
0.0
  0
LWPOLYLINE
  5
345
100
AcDbEntity
  8
paper
 62
7
100
AcDbPolyline
 90
3
 70
0
 10
24.858840
 20
60.218130
 30
0.0
 10
24.858840
 20
56.203430
 30
0.0
 10
24.725190
 20
56.219030
 30
0.0
  0
LWPOLYLINE
  5
346
100
AcDbEntity
  8
paper
 62
7
100
AcDbPolyline
 90
3
 70
0
 10
24.858850
 20
78.946430
 30
0.0
 10
24.858850
 20
82.961130
 30
0.0
 10
24.725200
 20
82.945530
 30
0.0
  0
LWPOLYLINE
  5
347
100
AcDbEntity
  8
paper
 62
1
100
AcDbPolyline
 90
2
 70
0
 10
24.858850
 20
60.218130
 30
0.0
 10
24.858850
 20
78.946430
 30
0.0
  0
LWPOLYLINE
  5
348
100
AcDbEntity
  8
paper
 62
7
100
AcDbPolyline
 90
2
 70
0
 10
21.498290
 20
64.958410
 30
0.0
 10
21.498290
 20
74.119900
 30
0.0
  0
LWPOLYLINE
  5
349
100
AcDbEntity
  8
paper
 62
1
100
AcDbPolyline
 90
2
 70
0
 10
24.848440
 20
74.119900
 30
0.0
 10
21.498290
 20
74.119900
 30
0.0
  0
LWPOLYLINE
  5
34a
100
AcDbEntity
  8
paper
 62
1
100
AcDbPolyline
 90
2
 70
0
 10
49.158860
 20
60.218130
 30
0.0
 10
24.858840
 20
60.218130
 30
0.0
  0
LWPOLYLINE
  5
34b
100
AcDbEntity
  8
paper
 62
7
100
AcDbPolyline
 90
3
 70
0
 10
49.292510
 20
56.219010
 30
0.0
 10
49.292510
 20
24.795110
 30
0.0
 10
33.787440
 20
24.795110
 30
0.0
  0
LWPOLYLINE
  5
34c
100
AcDbEntity
  8
paper
 62
7
100
AcDbPolyline
 90
2
 70
0
 10
24.858840
 20
56.203430
 30
0.0
 10
24.858840
 20
24.637900
 30
0.0
  0
LWPOLYLINE
  5
34d
100
AcDbEntity
  8
paper
 62
7
100
AcDbPolyline
 90
2
 70
0
 10
33.787440
 20
24.795110
 30
0.0
 10
24.783660
 20
24.795110
 30
0.0
  0
LWPOLYLINE
  5
34e
100
AcDbEntity
  8
paper
 62
7
100
AcDbPolyline
 90
2
 70
0
 10
69.124480
 20
56.203430
 30
0.0
 10
49.158860
 20
56.203430
 30
0.0
  0
LWPOLYLINE
  5
34f
100
AcDbEntity
  8
paper
 62
7
100
AcDbPolyline
 90
2
 70
0
 10
68.796470
 20
60.203520
 30
0.0
 10
68.796470
 20
64.999490
 30
0.0
  0
LWPOLYLINE
  5
350
100
AcDbEntity
  8
paper
 62
1
100
AcDbPolyline
 90
2
 70
0
 10
49.292490
 20
78.930850
 30
0.0
 10
68.581380
 20
78.930850
 30
0.0
  0
LWPOLYLINE
  5
351
100
AcDbEntity
  8
paper
 62
7
100
AcDbPolyline
 90
3
 70
0
 10
68.930110
 20
78.945460
 30
0.0
 10
69.074920
 20
82.916270
 30
0.0
 10
49.408330
 20
82.916270
 30
0.0
  0
LWPOLYLINE
  5
352
100
AcDbEntity
  8
paper
 62
7
100
AcDbPolyline
 90
2
 70
0
 10
69.258120
 20
82.945550
 30
0.0
 10
49.292500
 20
82.945550
 30
0.0
  0
LWPOLYLINE
  5
353
100
AcDbEntity
  8
paper
 62
7
100
AcDbPolyline
 90
2
 70
0
 10
68.930110
 20
78.945460
 30
0.0
 10
68.930110
 20
74.149490
 30
0.0
  0
LWPOLYLINE
  5
354
100
AcDbEntity
  8
paper
 62
1
100
AcDbPolyline
 90
2
 70
0
 10
24.858850
 20
60.218130
 30
0.0
 10
5.569960
 20
60.218130
 30
0.0
  0
LWPOLYLINE
  5
355
100
AcDbEntity
  8
paper
 62
7
100
AcDbPolyline
 90
2
 70
0
 10
21.460160
 20
64.857900
 30
0.0
 10
5.232930
 20
64.857900
 30
0.0
  0
LWPOLYLINE
  5
356
100
AcDbEntity
  8
paper
 62
7
100
AcDbPolyline
 90
3
 70
0
 10
5.221230
 20
60.203520
 30
0.0
 10
5.076420
 20
56.232710
 30
0.0
 10
24.743010
 20
56.232710
 30
0.0
  0
LWPOLYLINE
  5
357
100
AcDbEntity
  8
paper
 62
7
100
AcDbPolyline
 90
2
 70
0
 10
24.858840
 20
56.203430
 30
0.0
 10
24.725190
 20
56.219030
 30
0.0
  0
LWPOLYLINE
  5
358
100
AcDbEntity
  8
paper
 62
7
100
AcDbPolyline
 90
2
 70
0
 10
24.858850
 20
82.961130
 30
0.0
 10
24.725200
 20
82.945530
 30
0.0
  0
LWPOLYLINE
  5
359
100
AcDbEntity
  8
paper
 62
7
100
AcDbPolyline
 90
2
 70
0
 10
21.498290
 20
74.119900
 30
0.0
 10
5.034290
 20
74.119900
 30
0.0
  0
LWPOLYLINE
  5
35a
100
AcDbEntity
  8
paper
 62
7
100
AcDbPolyline
 90
2
 70
0
 10
4.893220
 20
56.203430
 30
0.0
 10
24.858840
 20
56.203430
 30
0.0
  0
LWPOLYLINE
  5
35b
100
AcDbEntity
  8
paper
 62
7
100
AcDbPolyline
 90
2
 70
0
 10
5.221230
 20
60.203520
 30
0.0
 10
5.221230
 20
64.999490
 30
0.0
  0
LWPOLYLINE
  5
35c
100
AcDbEntity
  8
paper
 62
1
100
AcDbPolyline
 90
2
 70
0
 10
24.725210
 20
78.930850
 30
0.0
 10
5.436320
 20
78.930850
 30
0.0
  0
LWPOLYLINE
  5
35d
100
AcDbEntity
  8
paper
 62
7
100
AcDbPolyline
 90
3
 70
0
 10
5.087590
 20
78.945460
 30
0.0
 10
4.942780
 20
82.916270
 30
0.0
 10
24.609370
 20
82.916270
 30
0.0
  0
LWPOLYLINE
  5
35e
100
AcDbEntity
  8
paper
 62
7
100
AcDbPolyline
 90
2
 70
0
 10
4.759580
 20
82.945550
 30
0.0
 10
24.725200
 20
82.945550
 30
0.0
  0
LWPOLYLINE
  5
35f
100
AcDbEntity
  8
paper
 62
7
100
AcDbPolyline
 90
2
 70
0
 10
5.087590
 20
78.945460
 30
0.0
 10
5.087590
 20
74.149490
 30
0.0
  0
ENDSEC
  0
SECTION
  2
OBJECTS
  0
DICTIONARY
  5
C
330
0
100
AcDbDictionary
  3
ACAD_GROUP
350
D
  3
ACAD_MLINESTYLE
350
17
  0
DICTIONARY
  5
D
330
C
100
AcDbDictionary
  0
DICTIONARY
  5
1A
330
C
100
AcDbDictionary
  0
DICTIONARY
  5
17
330
C
100
AcDbDictionary
  3
STANDARD
350
18
  0
DICTIONARY
  5
19
330
C
100
AcDbDictionary
  0
ENDSEC
  0
EOF
