  0
SECTION
  2
HEADER
  9
$ACADVER
  1
AC1014
  9
$HANDSEED
  5
FFFF
  9
$MEASUREMENT
 70
     1
  0
ENDSEC
  0
SECTION
  2
TABLES
  0
TABLE
  2
VPORT
  5
8
330
0
100
AcDbSymbolTable
 70
     4
  0
VPORT
  5
2E
330
8
100
AcDbSymbolTableRecord
100
AcDbViewportTableRecord
  2
*ACTIVE
 70
     0
 10
0.0
 20
0.0
 11
1.0
 21
1.0
 12
210.0
 22
148.5
 13
0.0
 23
0.0
 14
10.0
 24
10.0
 15
10.0
 25
10.0
 16
0.0
 26
0.0
 36
1.0
 17
0.0
 27
0.0
 37
0.0
 40
341.0
 41
1.24
 42
50.0
 43
0.0
 44
0.0
 50
0.0
 51
0.0
 71
     0
 72
   100
 73
     1
 74
     3
 75
     0
 76
     0
 77
     0
 78
     0
  0
ENDTAB
  0
TABLE
  2
LTYPE
  5
5
330
0
100
AcDbSymbolTable
 70
     1
  0
LTYPE
  5
14
330
5
100
AcDbSymbolTableRecord
100
AcDbLinetypeTableRecord
  2
BYBLOCK
 70
     0
  3

 72
    65
 73
     0
 40
0.0
  0
LTYPE
  5
15
330
5
100
AcDbSymbolTableRecord
100
AcDbLinetypeTableRecord
  2
BYLAYER
 70
     0
  3

 72
    65
 73
     0
 40
0.0
  0
LTYPE
  5
16
330
5
100
AcDbSymbolTableRecord
100
AcDbLinetypeTableRecord
  2
CONTINUOUS
 70
     0
  3
Solid line
 72
    65
 73
     0
 40
0.0
  0
ENDTAB
  0
TABLE
  2
LAYER
  5
2
100
AcDbSymbolTable
 70
5
  0
LAYER
  5
50
100
AcDbSymbolTableRecord
100
AcDbLayerTableRecord
  2
0
 70
0
  6
CONTINUOUS
  0
LAYER
  5
51
100
AcDbSymbolTableRecord
100
AcDbLayerTableRecord
  2
Layer_1
 70
0
  6
CONTINUOUS
  0
LAYER
  5
52
100
AcDbSymbolTableRecord
100
AcDbLayerTableRecord
  2
black
 70
0
  6
CONTINUOUS
  0
LAYER
  5
53
100
AcDbSymbolTableRecord
100
AcDbLayerTableRecord
  2
blue
 70
0
  6
CONTINUOUS
  0
LAYER
  5
54
100
AcDbSymbolTableRecord
100
AcDbLayerTableRecord
  2
red
 70
0
  6
CONTINUOUS
  0
ENDTAB
  0
TABLE
  2
STYLE
  5
3
330
0
100
AcDbSymbolTable
 70
     1
  0
STYLE
  5
11
330
3
100
AcDbSymbolTableRecord
100
AcDbTextStyleTableRecord
  2
STANDARD
 70
     0
 40
0.0
 41
1.0
 50
0.0
 71
     0
 42
2.5
  3
txt
  4

  0
ENDTAB
  0
TABLE
  2
VIEW
  5
6
330
0
100
AcDbSymbolTable
 70
     0
  0
ENDTAB
  0
TABLE
  2
UCS
  5
7
330
0
100
AcDbSymbolTable
 70
     0
  0
ENDTAB
  0
TABLE
  2
APPID
  5
9
330
0
100
AcDbSymbolTable
 70
     2
  0
APPID
  5
12
330
9
100
AcDbSymbolTableRecord
100
AcDbRegAppTableRecord
  2
ACAD
 70
     0
  0
ENDTAB
  0
TABLE
  2
DIMSTYLE
  5
A
330
0
100
AcDbSymbolTable
 70
     1
  0
DIMSTYLE
105
27
330
A
100
AcDbSymbolTableRecord
100
AcDbDimStyleTableRecord
  2
ISO-25
 70
     0
  3

  4

  5

  6

  7

 40
1.0
 41
2.5
 42
0.625
 43
3.75
 44
1.25
 45
0.0
 46
0.0
 47
0.0
 48
0.0
140
2.5
141
2.5
142
0.0
143
0.03937007874016
144
1.0
145
0.0
146
1.0
147
0.625
 71
     0
 72
     0
 73
     0
 74
     0
 75
     0
 76
     0
 77
     1
 78
     8
170
     0
171
     3
172
     1
173
     0
174
     0
175
     0
176
     0
177
     0
178
     0
270
     2
271
     2
272
     2
273
     2
274
     3
340
11
275
     0
280
     0
281
     0
282
     0
283
     0
284
     8
285
     0
286
     0
287
     3
288
     0
  0
ENDTAB
  0
TABLE
  2
BLOCK_RECORD
  5
1
330
0
100
AcDbSymbolTable
 70
     1
  0
BLOCK_RECORD
  5
1F
330
1
100
AcDbSymbolTableRecord
100
AcDbBlockTableRecord
  2
*MODEL_SPACE
  0
BLOCK_RECORD
  5
1B
330
1
100
AcDbSymbolTableRecord
100
AcDbBlockTableRecord
  2
*PAPER_SPACE
  0
ENDTAB
  0
ENDSEC
  0
SECTION
  2
BLOCKS
  0
BLOCK
  5
20
330
1F
100
AcDbEntity
  8
0
100
AcDbBlockBegin
  2
*MODEL_SPACE
 70
     0
 10
0.0
 20
0.0
 30
0.0
  3
*MODEL_SPACE
  1

  0
ENDBLK
  5
21
330
1F
100
AcDbEntity
  8
0
100
AcDbBlockEnd
  0
BLOCK
  5
1C
330
1B
100
AcDbEntity
 67
     1
  8
0
100
AcDbBlockBegin
  2
*PAPER_SPACE
  1

  0
ENDBLK
  5
1D
330
1B
100
AcDbEntity
 67
     1
  8
0
100
AcDbBlockEnd
  0
ENDSEC
  0
SECTION
  2
ENTITIES
  0
LWPOLYLINE
  5
100
100
AcDbEntity
  8
black
 62
7
100
AcDbPolyline
 90
2
 70
0
 10
78.103967
 20
48.274870
 30
0.0
 10
78.103967
 20
32.205330
 30
0.0
  0
LWPOLYLINE
  5
101
100
AcDbEntity
  8
black
 62
7
100
AcDbPolyline
 90
2
 70
0
 10
81.124259
 20
51.161190
 30
0.0
 10
81.124259
 20
35.091650
 30
0.0
  0
LWPOLYLINE
  5
102
100
AcDbEntity
  8
black
 62
7
100
AcDbPolyline
 90
2
 70
0
 10
84.154774
 20
53.687560
 30
0.0
 10
84.154774
 20
37.618020
 30
0.0
  0
LWPOLYLINE
  5
103
100
AcDbEntity
  8
black
 62
7
100
AcDbPolyline
 90
2
 70
0
 10
87.254768
 20
56.395700
 30
0.0
 10
87.254768
 20
40.326160
 30
0.0
  0
LWPOLYLINE
  5
104
100
AcDbEntity
  8
black
 62
7
100
AcDbPolyline
 90
2
 70
0
 10
90.241558
 20
59.025470
 30
0.0
 10
90.241558
 20
42.955930
 30
0.0
  0
LWPOLYLINE
  5
105
100
AcDbEntity
  8
black
 62
7
100
AcDbPolyline
 90
2
 70
0
 10
93.324136
 20
61.637820
 30
0.0
 10
93.324136
 20
45.568290
 30
0.0
  0
LWPOLYLINE
  5
106
100
AcDbEntity
  8
black
 62
7
100
AcDbPolyline
 90
2
 70
0
 10
96.337051
 20
64.589780
 30
0.0
 10
96.337051
 20
48.520250
 30
0.0
  0
LWPOLYLINE
  5
107
100
AcDbEntity
  8
black
 62
7
100
AcDbPolyline
 90
2
 70
0
 10
99.363613
 20
67.266250
 30
0.0
 10
99.363613
 20
51.196710
 30
0.0
  0
LWPOLYLINE
  5
108
100
AcDbEntity
  8
black
 62
7
100
AcDbPolyline
 90
2
 70
0
 10
102.436130
 20
69.885130
 30
0.0
 10
102.436130
 20
53.815590
 30
0.0
  0
LWPOLYLINE
  5
109
100
AcDbEntity
  8
black
 62
7
100
AcDbPolyline
 90
2
 70
0
 10
105.528320
 20
72.622070
 30
0.0
 10
105.528320
 20
56.552530
 30
0.0
  0
LWPOLYLINE
  5
10a
100
AcDbEntity
  8
black
 62
7
100
AcDbPolyline
 90
2
 70
0
 10
108.533730
 20
75.464660
 30
0.0
 10
108.533730
 20
59.395120
 30
0.0
  0
LWPOLYLINE
  5
10b
100
AcDbEntity
  8
black
 62
7
100
AcDbPolyline
 90
2
 70
0
 10
111.639520
 20
78.196610
 30
0.0
 10
111.639520
 20
62.127070
 30
0.0
  0
LWPOLYLINE
  5
10c
100
AcDbEntity
  8
black
 62
7
100
AcDbPolyline
 90
4
 70
0
 10
86.920394
 20
32.300820
 30
0.0
 10
116.255850
 20
58.277790
 30
0.0
 10
120.835160
 20
58.234590
 30
0.0
 10
120.835160
 20
32.994360
 30
0.0
  0
LWPOLYLINE
  5
10d
100
AcDbEntity
  8
black
 62
7
100
AcDbPolyline
 90
4
 70
0
 10
141.401950
 20
33.219300
 30
0.0
 10
141.401950
 20
58.440440
 30
0.0
 10
175.887050
 20
58.440440
 30
0.0
 10
175.887050
 20
33.111170
 30
0.0
  0
LWPOLYLINE
  5
10e
100
AcDbEntity
  8
black
 62
7
100
AcDbPolyline
 90
4
 70
0
 10
178.250930
 20
33.098760
 30
0.0
 10
178.250930
 20
58.675130
 30
0.0
 10
181.684350
 20
58.675130
 30
0.0
 10
181.684350
 20
115.820700
 30
0.0
  0
LWPOLYLINE
  5
10f
100
AcDbEntity
  8
black
 62
7
100
AcDbPolyline
 90
8
 70
0
 10
178.884680
 20
115.840700
 30
0.0
 10
178.884680
 20
121.484420
 30
0.0
 10
181.638440
 20
121.484420
 30
0.0
 10
181.638440
 20
157.039970
 30
0.0
 10
126.089590
 20
157.039970
 30
0.0
 10
126.089590
 20
120.958790
 30
0.0
 10
141.867960
 20
120.958790
 30
0.0
 10
141.867960
 20
115.607960
 30
0.0
  0
LWPOLYLINE
  5
110
100
AcDbEntity
  8
black
 62
7
100
AcDbPolyline
 90
6
 70
0
 10
139.216620
 20
115.591250
 30
0.0
 10
139.216620
 20
83.718740
 30
0.0
 10
111.580910
 20
83.718740
 30
0.0
 10
78.209321
 20
53.501670
 30
0.0
 10
74.971779
 20
53.501670
 30
0.0
 10
74.971779
 20
45.573850
 30
0.0
  0
LWPOLYLINE
  5
111
100
AcDbEntity
  8
black
 62
7
100
AcDbPolyline
 90
4
 70
0
 10
115.031810
 20
64.702940
 30
0.0
 10
115.031810
 20
70.104010
 30
0.0
 10
178.514710
 20
70.104010
 30
0.0
 10
178.514710
 20
65.217420
 30
0.0
  0
LWPOLYLINE
  5
112
100
AcDbEntity
  8
black
 62
7
100
AcDbPolyline
 90
2
 70
0
 10
186.139570
 20
83.923340
 30
0.0
 10
186.139570
 20
246.191745
 30
0.0
  0
LWPOLYLINE
  5
113
100
AcDbEntity
  8
black
 62
7
100
AcDbPolyline
 90
2
 70
0
 10
181.378250
 20
175.732780
 30
0.0
 10
181.378250
 20
227.342409
 30
0.0
  0
LWPOLYLINE
  5
114
100
AcDbEntity
  8
black
 62
7
100
AcDbPolyline
 90
4
 70
1
 10
171.023150
 20
222.070312
 30
0.0
 10
171.023150
 20
214.061710
 30
0.0
 10
146.728600
 20
214.061710
 30
0.0
 10
146.728600
 20
222.070312
 30
0.0
  0
LWPOLYLINE
  5
115
100
AcDbEntity
  8
black
 62
7
100
AcDbPolyline
 90
4
 70
1
 10
142.374930
 20
222.016563
 30
0.0
 10
142.374930
 20
213.631719
 30
0.0
 10
128.830180
 20
213.631719
 30
0.0
 10
128.830180
 20
221.855316
 30
0.0
  0
LWPOLYLINE
  5
116
100
AcDbEntity
  8
black
 62
7
100
AcDbPolyline
 90
4
 70
0
 10
177.452710
 20
209.637319
 30
0.0
 10
177.452710
 20
189.289580
 30
0.0
 10
121.896560
 20
189.289580
 30
0.0
 10
121.896560
 20
209.600995
 30
0.0
  0
LWPOLYLINE
  5
117
100
AcDbEntity
  8
black
 62
7
100
AcDbPolyline
 90
2
 70
0
 10
181.414140
 20
137.883050
 30
0.0
 10
126.058760
 20
137.883050
 30
0.0
  0
LWPOLYLINE
  5
118
100
AcDbEntity
  8
black
 62
7
100
AcDbPolyline
 90
4
 70
1
 10
123.217390
 20
131.666820
 30
0.0
 10
123.217390
 20
115.686690
 30
0.0
 10
107.149930
 20
115.686690
 30
0.0
 10
107.149930
 20
131.754150
 30
0.0
  0
LWPOLYLINE
  5
119
100
AcDbEntity
  8
black
 62
7
100
AcDbPolyline
 90
4
 70
1
 10
104.180950
 20
131.754150
 30
0.0
 10
104.180950
 20
115.774020
 30
0.0
 10
88.113497
 20
115.774020
 30
0.0
 10
88.113497
 20
131.841470
 30
0.0
  0
LWPOLYLINE
  5
11a
100
AcDbEntity
  8
black
 62
7
100
AcDbPolyline
 90
4
 70
1
 10
85.144512
 20
131.841470
 30
0.0
 10
85.144512
 20
115.861340
 30
0.0
 10
69.077059
 20
115.861340
 30
0.0
 10
69.077059
 20
131.928790
 30
0.0
  0
LWPOLYLINE
  5
11b
100
AcDbEntity
  8
black
 62
7
100
AcDbPolyline
 90
4
 70
1
 10
66.108073
 20
131.928790
 30
0.0
 10
66.108073
 20
115.948660
 30
0.0
 10
50.040620
 20
115.948660
 30
0.0
 10
50.040620
 20
132.016110
 30
0.0
  0
LWPOLYLINE
  5
11c
100
AcDbEntity
  8
black
 62
7
100
AcDbPolyline
 90
4
 70
1
 10
47.071635
 20
132.016110
 30
0.0
 10
47.071635
 20
116.035980
 30
0.0
 10
31.004182
 20
116.035980
 30
0.0
 10
31.004182
 20
132.103430
 30
0.0
  0
LWPOLYLINE
  5
11d
100
AcDbEntity
  8
black
 62
7
100
AcDbPolyline
 90
4
 70
1
 10
123.005890
 20
156.269050
 30
0.0
 10
123.005890
 20
140.288910
 30
0.0
 10
106.938440
 20
140.288910
 30
0.0
 10
106.938440
 20
156.356370
 30
0.0
  0
LWPOLYLINE
  5
11e
100
AcDbEntity
  8
black
 62
7
100
AcDbPolyline
 90
4
 70
1
 10
103.969450
 20
156.356370
 30
0.0
 10
103.969450
 20
140.376240
 30
0.0
 10
87.901999
 20
140.376240
 30
0.0
 10
87.901999
 20
156.443690
 30
0.0
  0
LWPOLYLINE
  5
11f
100
AcDbEntity
  8
black
 62
7
100
AcDbPolyline
 90
4
 70
1
 10
84.933013
 20
156.443690
 30
0.0
 10
84.933013
 20
140.463560
 30
0.0
 10
68.865560
 20
140.463560
 30
0.0
 10
68.865560
 20
156.531010
 30
0.0
  0
LWPOLYLINE
  5
120
100
AcDbEntity
  8
black
 62
7
100
AcDbPolyline
 90
4
 70
1
 10
65.896576
 20
156.531010
 30
0.0
 10
65.896576
 20
140.550880
 30
0.0
 10
49.829123
 20
140.550880
 30
0.0
 10
49.829123
 20
156.618330
 30
0.0
  0
LWPOLYLINE
  5
121
100
AcDbEntity
  8
black
 62
7
100
AcDbPolyline
 90
4
 70
1
 10
46.860137
 20
156.618330
 30
0.0
 10
46.860137
 20
140.638200
 30
0.0
 10
30.792684
 20
140.638200
 30
0.0
 10
30.792684
 20
156.705650
 30
0.0
  0
LWPOLYLINE
  5
122
100
AcDbEntity
  8
black
 62
7
100
AcDbPolyline
 90
4
 70
0
 10
126.093420
 20
167.319570
 30
0.0
 10
126.093420
 20
183.368890
 30
0.0
 10
123.133510
 20
183.368890
 30
0.0
 10
121.916650
 20
167.220900
 30
0.0
  0
LWPOLYLINE
  5
123
100
AcDbEntity
  8
black
 62
7
100
AcDbPolyline
 90
2
 70
0
 10
79.584049
 20
227.532798
 30
0.0
 10
79.584049
 20
216.782165
 30
0.0
  0
LWPOLYLINE
  5
124
100
AcDbEntity
  8
black
 62
7
100
AcDbPolyline
 90
2
 70
0
 10
79.476310
 20
201.923680
 30
0.0
 10
79.476310
 20
185.579110
 30
0.0
  0
SPLINE
  5
125
100
AcDbEntity
  8
black
 62
7
100
AcDbSpline
 70
0
 71
3
 72
16
 73
12
 74
10
 40
0.000000
 40
0.000000
 40
0.000000
 40
0.000000
 40
2.391715
 40
4.800194
 40
7.320760
 40
9.907685
 40
12.482739
 40
15.069664
 40
17.590230
 40
19.998709
 40
22.390424
 40
22.390424
 40
22.390424
 40
22.390424
 10
79.476311
 20
201.923680
 30
0.0
 10
80.278159
 20
202.014793
 30
0.0
 10
81.887475
 20
202.197656
 30
0.0
 10
83.987702
 20
203.596946
 30
0.0
 10
85.531529
 20
205.617297
 30
0.0
 10
86.343283
 20
208.098446
 30
0.0
 10
86.343283
 20
210.721470
 30
0.0
 10
85.531529
 20
213.202619
 30
0.0
 10
83.987702
 20
215.222970
 30
0.0
 10
81.887475
 20
216.622260
 30
0.0
 10
80.278159
 20
216.805123
 30
0.0
 10
79.476311
 20
216.896236
 30
0.0
 11
79.476311
 21
201.923680
 31
0.0
 11
81.824208
 21
202.379399
 31
0.0
 11
83.859655
 21
203.666926
 31
0.0
 11
85.393826
 21
205.666819
 31
0.0
 11
86.207553
 21
208.122431
 31
0.0
 11
86.207553
 21
210.697485
 31
0.0
 11
85.393826
 21
213.153097
 31
0.0
 11
83.859655
 21
215.152990
 31
0.0
 11
81.824208
 21
216.440517
 31
0.0
 11
79.476311
 21
216.896236
 31
0.0
  0
LWPOLYLINE
  5
126
100
AcDbEntity
  8
black
 62
7
100
AcDbPolyline
 90
2
 70
0
 10
64.576116
 20
227.321031
 30
0.0
 10
64.576116
 20
216.570398
 30
0.0
  0
LWPOLYLINE
  5
127
100
AcDbEntity
  8
black
 62
7
100
AcDbPolyline
 90
2
 70
0
 10
64.683854
 20
201.711912
 30
0.0
 10
64.683854
 20
185.489210
 30
0.0
  0
LWPOLYLINE
  5
128
100
AcDbEntity
  8
black
 62
7
100
AcDbPolyline
 90
2
 70
0
 10
26.239777
 20
244.786024
 30
0.0
 10
26.239777
 20
82.580570
 30
0.0
  0
LWPOLYLINE
  5
129
100
AcDbEntity
  8
black
 62
7
100
AcDbPolyline
 90
4
 70
0
 10
31.615202
 20
82.573550
 30
0.0
 10
31.615202
 20
104.413820
 30
0.0
 10
39.805302
 20
104.413820
 30
0.0
 10
39.805302
 20
82.634220
 30
0.0
  0
LWPOLYLINE
  5
12a
100
AcDbEntity
  8
black
 62
7
100
AcDbPolyline
 90
2
 70
0
 10
31.675870
 20
90.763650
 30
0.0
 10
39.683967
 20
90.763650
 30
0.0
  0
LWPOLYLINE
  5
12b
100
AcDbEntity
  8
black
 62
7
100
AcDbPolyline
 90
4
 70
0
 10
42.535335
 20
104.474480
 30
0.0
 10
66.195623
 20
104.474480
 30
0.0
 10
66.195623
 20
96.466390
 30
0.0
 10
42.535335
 20
96.466390
 30
0.0
  0
LWPOLYLINE
  5
12c
100
AcDbEntity
  8
black
 62
7
100
AcDbPolyline
 90
5
 70
1
 10
123.402000
 20
96.470500
 30
0.0
 10
123.402000
 20
104.474480
 30
0.0
 10
88.278558
 20
104.474480
 30
0.0
 10
88.278558
 20
96.284380
 30
0.0
 10
123.407710
 20
96.284380
 30
0.0
  0
LWPOLYLINE
  5
12d
100
AcDbEntity
  8
black
 62
7
100
AcDbPolyline
 90
2
 70
0
 10
69.132850
 20
96.282470
 30
0.0
 10
69.132850
 20
104.461850
 30
0.0
  0
LWPOLYLINE
  5
12e
100
AcDbEntity
  8
black
 62
7
100
AcDbPolyline
 90
4
 70
0
 10
69.128465
 20
96.333250
 30
0.0
 10
85.302303
 20
96.333250
 30
0.0
 10
85.302303
 20
104.447300
 30
0.0
 10
69.131146
 20
104.447300
 30
0.0
  0
LWPOLYLINE
  5
12f
100
AcDbEntity
  8
black
 62
7
100
AcDbPolyline
 90
4
 70
0
 10
125.890550
 20
96.520640
 30
0.0
 10
125.890550
 20
104.474480
 30
0.0
 10
135.937920
 20
104.474480
 30
0.0
 10
135.937920
 20
96.762990
 30
0.0
  0
LWPOLYLINE
  5
130
100
AcDbEntity
  8
black
 62
7
100
AcDbPolyline
 90
3
 70
0
 10
125.890550
 20
96.284380
 30
0.0
 10
135.971380
 20
96.284380
 30
0.0
 10
135.971380
 20
96.793130
 30
0.0
  0
LWPOLYLINE
  5
131
100
AcDbEntity
  8
black
 62
7
100
AcDbPolyline
 90
4
 70
0
 10
125.890550
 20
96.520640
 30
0.0
 10
125.890550
 20
96.520640
 30
0.0
 10
125.890550
 20
96.284380
 30
0.0
 10
125.890550
 20
96.284380
 30
0.0
  0
LWPOLYLINE
  5
132
100
AcDbEntity
  8
black
 62
7
100
AcDbPolyline
 90
2
 70
0
 10
31.074558
 20
174.467840
 30
0.0
 10
31.074558
 20
227.348820
 30
0.0
  0
LWPOLYLINE
  5
133
100
AcDbEntity
  8
black
 62
7
100
AcDbPolyline
 90
2
 70
0
 10
42.535335
 20
104.474480
 30
0.0
 10
42.535335
 20
96.466390
 30
0.0
  0
LWPOLYLINE
  5
134
100
AcDbEntity
  8
black
 62
7
100
AcDbPolyline
 90
4
 70
1
 10
130.376460
 20
50.356490
 30
0.0
 10
131.827790
 20
50.356490
 30
0.0
 10
131.827790
 20
41.107360
 30
0.0
 10
130.401060
 20
41.107360
 30
0.0
  0
SPLINE
  5
135
100
AcDbEntity
  8
black
 62
7
100
AcDbSpline
 70
0
 71
3
 72
16
 73
12
 74
10
 40
0.000000
 40
0.000000
 40
0.000000
 40
0.000000
 40
2.391715
 40
4.800194
 40
7.320760
 40
9.907685
 40
12.482739
 40
15.069664
 40
17.590230
 40
19.998709
 40
22.390424
 40
22.390424
 40
22.390424
 40
22.390424
 10
64.683853
 20
201.711911
 30
0.0
 10
63.882005
 20
201.803024
 30
0.0
 10
62.272689
 20
201.985887
 30
0.0
 10
60.172462
 20
203.385177
 30
0.0
 10
58.628635
 20
205.405528
 30
0.0
 10
57.816881
 20
207.886677
 30
0.0
 10
57.816881
 20
210.509701
 30
0.0
 10
58.628635
 20
212.990850
 30
0.0
 10
60.172462
 20
215.011201
 30
0.0
 10
62.272689
 20
216.410491
 30
0.0
 10
63.882005
 20
216.593354
 30
0.0
 10
64.683853
 20
216.684467
 30
0.0
 11
64.683853
 21
201.711911
 31
0.0
 11
62.335956
 21
202.167630
 31
0.0
 11
60.300509
 21
203.455157
 31
0.0
 11
58.766338
 21
205.455050
 31
0.0
 11
57.952611
 21
207.910662
 31
0.0
 11
57.952611
 21
210.485716
 31
0.0
 11
58.766338
 21
212.941328
 31
0.0
 11
60.300509
 21
214.941221
 31
0.0
 11
62.335956
 21
216.228748
 31
0.0
 11
64.683853
 21
216.684467
 31
0.0
  0
LWPOLYLINE
  5
136
100
AcDbEntity
  8
black
 62
7
100
AcDbPolyline
 90
3
 70
0
 10
142.118570
 20
78.196610
 30
0.0
 10
142.118570
 20
83.785980
 30
0.0
 10
139.309420
 20
83.785980
 30
0.0
  0
ENDSEC
  0
SECTION
  2
OBJECTS
  0
DICTIONARY
  5
C
330
0
100
AcDbDictionary
  3
ACAD_GROUP
350
D
  3
ACAD_MLINESTYLE
350
17
  0
DICTIONARY
  5
D
330
C
100
AcDbDictionary
  0
DICTIONARY
  5
1A
330
C
100
AcDbDictionary
  0
DICTIONARY
  5
17
330
C
100
AcDbDictionary
  3
STANDARD
350
18
  0
DICTIONARY
  5
19
330
C
100
AcDbDictionary
  0
ENDSEC
  0
EOF
