  0
SECTION
  2
HEADER
  9
$ACADVER
  1
AC1014
  9
$HANDSEED
  5
FFFF
  9
$INSUNITS
 70
     4
  9
$MEASUREMENT
 70
     1
  0
ENDSEC
  0
SECTION
  2
TABLES
  0
TABLE
  2
VPORT
  5
8
330
0
100
AcDbSymbolTable
 70
     4
  0
VPORT
  5
2E
330
8
100
AcDbSymbolTableRecord
100
AcDbViewportTableRecord
  2
*ACTIVE
 70
     0
 10
0.0
 20
0.0
 11
1.0
 21
1.0
 12
210.0
 22
148.5
 13
0.0
 23
0.0
 14
10.0
 24
10.0
 15
10.0
 25
10.0
 16
0.0
 26
0.0
 36
1.0
 17
0.0
 27
0.0
 37
0.0
 40
341.0
 41
1.24
 42
50.0
 43
0.0
 44
0.0
 50
0.0
 51
0.0
 71
     0
 72
   100
 73
     1
 74
     3
 75
     0
 76
     0
 77
     0
 78
     0
  0
ENDTAB
  0
TABLE
  2
LTYPE
  5
5
330
0
100
AcDbSymbolTable
 70
     1
  0
LTYPE
  5
14
330
5
100
AcDbSymbolTableRecord
100
AcDbLinetypeTableRecord
  2
BYBLOCK
 70
     0
  3

 72
    65
 73
     0
 40
0.0
  0
LTYPE
  5
15
330
5
100
AcDbSymbolTableRecord
100
AcDbLinetypeTableRecord
  2
BYLAYER
 70
     0
  3

 72
    65
 73
     0
 40
0.0
  0
LTYPE
  5
16
330
5
100
AcDbSymbolTableRecord
100
AcDbLinetypeTableRecord
  2
CONTINUOUS
 70
     0
  3
Solid line
 72
    65
 73
     0
 40
0.0
  0
ENDTAB
  0
TABLE
  2
LAYER
  5
2
100
AcDbSymbolTable
 70
5
  0
LAYER
  5
50
100
AcDbSymbolTableRecord
100
AcDbLayerTableRecord
  2
0
 70
0
  6
CONTINUOUS
  0
LAYER
  5
51
100
AcDbSymbolTableRecord
100
AcDbLayerTableRecord
  2
source
 70
0
  6
CONTINUOUS
  0
LAYER
  5
52
100
AcDbSymbolTableRecord
100
AcDbLayerTableRecord
  2
cut
 70
0
  6
CONTINUOUS
  0
LAYER
  5
53
100
AcDbSymbolTableRecord
100
AcDbLayerTableRecord
  2
images
 70
0
  6
CONTINUOUS
  0
LAYER
  5
54
100
AcDbSymbolTableRecord
100
AcDbLayerTableRecord
  2
fold
 70
0
  6
CONTINUOUS
  0
ENDTAB
  0
TABLE
  2
STYLE
  5
3
330
0
100
AcDbSymbolTable
 70
     1
  0
STYLE
  5
11
330
3
100
AcDbSymbolTableRecord
100
AcDbTextStyleTableRecord
  2
STANDARD
 70
     0
 40
0.0
 41
1.0
 50
0.0
 71
     0
 42
2.5
  3
txt
  4

  0
ENDTAB
  0
TABLE
  2
VIEW
  5
6
330
0
100
AcDbSymbolTable
 70
     0
  0
ENDTAB
  0
TABLE
  2
UCS
  5
7
330
0
100
AcDbSymbolTable
 70
     0
  0
ENDTAB
  0
TABLE
  2
APPID
  5
9
330
0
100
AcDbSymbolTable
 70
     2
  0
APPID
  5
12
330
9
100
AcDbSymbolTableRecord
100
AcDbRegAppTableRecord
  2
ACAD
 70
     0
  0
ENDTAB
  0
TABLE
  2
DIMSTYLE
  5
A
330
0
100
AcDbSymbolTable
 70
     1
  0
DIMSTYLE
105
27
330
A
100
AcDbSymbolTableRecord
100
AcDbDimStyleTableRecord
  2
ISO-25
 70
     0
  3

  4

  5

  6

  7

 40
1.0
 41
2.5
 42
0.625
 43
3.75
 44
1.25
 45
0.0
 46
0.0
 47
0.0
 48
0.0
140
2.5
141
2.5
142
0.0
143
0.03937007874016
144
1.0
145
0.0
146
1.0
147
0.625
 71
     0
 72
     0
 73
     0
 74
     0
 75
     0
 76
     0
 77
     1
 78
     8
170
     0
171
     3
172
     1
173
     0
174
     0
175
     0
176
     0
177
     0
178
     0
270
     2
271
     2
272
     2
273
     2
274
     3
340
11
275
     0
280
     0
281
     0
282
     0
283
     0
284
     8
285
     0
286
     0
287
     3
288
     0
  0
ENDTAB
  0
TABLE
  2
BLOCK_RECORD
  5
1
330
0
100
AcDbSymbolTable
 70
     1
  0
BLOCK_RECORD
  5
1F
330
1
100
AcDbSymbolTableRecord
100
AcDbBlockTableRecord
  2
*MODEL_SPACE
  0
BLOCK_RECORD
  5
1B
330
1
100
AcDbSymbolTableRecord
100
AcDbBlockTableRecord
  2
*PAPER_SPACE
  0
ENDTAB
  0
ENDSEC
  0
SECTION
  2
BLOCKS
  0
BLOCK
  5
20
330
1F
100
AcDbEntity
  8
0
100
AcDbBlockBegin
  2
*MODEL_SPACE
 70
     0
 10
0.0
 20
0.0
 30
0.0
  3
*MODEL_SPACE
  1

  0
ENDBLK
  5
21
330
1F
100
AcDbEntity
  8
0
100
AcDbBlockEnd
  0
BLOCK
  5
1C
330
1B
100
AcDbEntity
 67
     1
  8
0
100
AcDbBlockBegin
  2
*PAPER_SPACE
  1

  0
ENDBLK
  5
1D
330
1B
100
AcDbEntity
 67
     1
  8
0
100
AcDbBlockEnd
  0
ENDSEC
  0
SECTION
  2
ENTITIES
  0
LWPOLYLINE
  5
100
100
AcDbEntity
  8
cut
 62
7
100
AcDbPolyline
 90
7
 70
0
 10
7.942712
 20
7.287940
 30
0.0
 10
7.936280
 20
9.166129
 30
0.0
 10
6.334673
 20
9.166129
 30
0.0
 10
6.334673
 20
10.150248
 30
0.0
 10
7.949144
 20
10.150248
 30
0.0
 10
7.949144
 20
10.446127
 30
0.0
 10
6.363363
 20
10.446127
 30
0.0
  0
LWPOLYLINE
  5
101
100
AcDbEntity
  8
cut
 62
7
100
AcDbPolyline
 90
3
 70
0
 10
4.472233
 20
9.830496
 30
0.0
 10
4.472233
 20
10.152189
 30
0.0
 10
4.763520
 20
10.438082
 30
0.0
  0
LWPOLYLINE
  5
102
100
AcDbEntity
  8
cut
 62
7
100
AcDbPolyline
 90
3
 70
0
 10
4.771612
 20
8.860274
 30
0.0
 10
4.472233
 20
9.127288
 30
0.0
 10
4.472233
 20
9.730117
 30
0.0
  0
LWPOLYLINE
  5
103
100
AcDbEntity
  8
cut
 62
7
100
AcDbPolyline
 90
4
 70
0
 10
4.783861
 20
3.936253
 30
0.0
 10
4.484482
 20
4.203266
 30
0.0
 10
4.484482
 20
5.228167
 30
0.0
 10
4.775769
 20
5.514060
 30
0.0
  0
LWPOLYLINE
  5
104
100
AcDbEntity
  8
cut
 62
7
100
AcDbPolyline
 90
3
 70
0
 10
7.937891
 20
1.486242
 30
0.0
 10
7.937891
 20
2.164608
 30
0.0
 10
6.320569
 20
2.164608
 30
0.0
  0
LWPOLYLINE
  5
105
100
AcDbEntity
  8
cut
 62
7
100
AcDbPolyline
 90
4
 70
0
 10
6.334638
 20
0.550354
 30
0.0
 10
6.339863
 20
0.556213
 30
0.0
 10
7.937891
 20
0.556213
 30
0.0
 10
7.937891
 20
1.300896
 30
0.0
  0
LWPOLYLINE
  5
106
100
AcDbEntity
  8
cut
 62
7
100
AcDbPolyline
 90
4
 70
0
 10
4.762056
 20
0.548122
 30
0.0
 10
5.047948
 20
0.256834
 30
0.0
 10
6.072850
 20
0.256834
 30
0.0
 10
6.334638
 20
0.550354
 30
0.0
  0
LWPOLYLINE
  5
107
100
AcDbEntity
  8
cut
 62
7
100
AcDbPolyline
 90
4
 70
0
 10
4.779677
 20
10.453419
 30
0.0
 10
5.065570
 20
10.744707
 30
0.0
 10
6.090471
 20
10.744707
 30
0.0
 10
6.352259
 20
10.451186
 30
0.0
  0
LWPOLYLINE
  5
108
100
AcDbEntity
  8
cut
 62
7
100
AcDbPolyline
 90
2
 70
0
 10
4.756833
 20
2.871530
 30
0.0
 10
4.756833
 20
3.937817
 30
0.0
  0
LWPOLYLINE
  5
109
100
AcDbEntity
  8
cut
 62
7
100
AcDbPolyline
 90
2
 70
0
 10
4.756833
 20
2.385161
 30
0.0
 10
4.756833
 20
2.737922
 30
0.0
  0
LWPOLYLINE
  5
10a
100
AcDbEntity
  8
cut
 62
7
100
AcDbPolyline
 90
2
 70
0
 10
4.756833
 20
0.571644
 30
0.0
 10
4.756833
 20
2.140566
 30
0.0
  0
LWPOLYLINE
  5
10b
100
AcDbEntity
  8
cut
 62
7
100
AcDbPolyline
 90
2
 70
0
 10
7.935900
 20
2.979510
 30
0.0
 10
7.935900
 20
7.294008
 30
0.0
  0
LWPOLYLINE
  5
10c
100
AcDbEntity
  8
cut
 62
7
100
AcDbPolyline
 90
2
 70
0
 10
7.935900
 20
2.165214
 30
0.0
 10
7.935900
 20
2.968317
 30
0.0
  0
LWPOLYLINE
  5
10d
100
AcDbEntity
  8
cut
 62
7
100
AcDbPolyline
 90
6
 70
0
 10
4.735174
 20
8.851588
 30
0.0
 10
3.197926
 20
8.851588
 30
0.0
 10
2.918426
 20
8.572088
 30
0.0
 10
2.918426
 20
5.807038
 30
0.0
 10
3.197926
 20
5.527538
 30
0.0
 10
4.755138
 20
5.527538
 30
0.0
  0
LWPOLYLINE
  5
10e
100
AcDbEntity
  8
cut
 62
7
100
AcDbPolyline
 90
3
 70
0
 10
7.919793
 20
8.854153
 30
0.0
 10
6.326773
 20
8.854153
 30
0.0
 10
6.326773
 20
7.287683
 30
0.0
  0
LWPOLYLINE
  5
10f
100
AcDbEntity
  8
cut
 62
7
100
AcDbPolyline
 90
4
 70
1
 10
5.374998
 20
9.729548
 30
0.0
 10
5.833768
 20
9.719353
 30
0.0
 10
5.833768
 20
7.328655
 30
0.0
 10
5.374998
 20
7.328655
 30
0.0
  0
LWPOLYLINE
  5
110
100
AcDbEntity
  8
cut
 62
7
100
AcDbPolyline
 90
4
 70
1
 10
5.415778
 20
3.513102
 30
0.0
 10
5.874547
 20
3.502907
 30
0.0
 10
5.874547
 20
1.112209
 30
0.0
 10
5.415778
 20
1.112209
 30
0.0
  0
LWPOLYLINE
  5
111
100
AcDbEntity
  8
cut
 62
7
100
AcDbPolyline
 90
2
 70
0
 10
6.340748
 20
0.553972
 30
0.0
 10
5.537029
 20
0.553972
 30
0.0
  0
LWPOLYLINE
  5
112
100
AcDbEntity
  8
cut
 62
7
100
AcDbPolyline
 90
2
 70
0
 10
4.776570
 20
10.448384
 30
0.0
 10
5.580289
 20
10.448384
 30
0.0
  0
LWPOLYLINE
  5
113
100
AcDbEntity
  8
cut
 62
1
100
AcDbPolyline
 90
2
 70
0
 10
5.808331
 20
10.443226
 30
0.0
 10
5.635055
 20
10.443226
 30
0.0
  0
LWPOLYLINE
  5
114
100
AcDbEntity
  8
cut
 62
1
100
AcDbPolyline
 90
2
 70
0
 10
6.068244
 20
10.443226
 30
0.0
 10
5.894961
 20
10.443226
 30
0.0
  0
LWPOLYLINE
  5
115
100
AcDbEntity
  8
cut
 62
1
100
AcDbPolyline
 90
2
 70
0
 10
6.328115
 20
10.443226
 30
0.0
 10
6.154863
 20
10.443226
 30
0.0
  0
LWPOLYLINE
  5
116
100
AcDbEntity
  8
cut
 62
7
100
AcDbPolyline
 90
4
 70
1
 10
3.176075
 20
7.381196
 30
0.0
 10
3.237913
 20
7.344551
 30
0.0
 10
3.247074
 20
7.017038
 30
0.0
 10
3.164623
 20
7.005586
 30
0.0
  0
LWPOLYLINE
  5
117
100
AcDbEntity
  8
cut
 62
7
100
AcDbPolyline
 90
4
 70
0
 10
4.758000
 20
2.390900
 30
0.0
 10
4.515781
 20
2.390900
 30
0.0
 10
4.515781
 20
2.139364
 30
0.0
 10
4.758000
 20
2.139364
 30
0.0
  0
LWPOLYLINE
  5
118
100
AcDbEntity
  8
cut
 62
7
100
AcDbPolyline
 90
3
 70
0
 10
6.806322
 20
2.870320
 30
0.0
 10
6.806322
 20
3.358515
 30
0.0
 10
7.943909
 20
3.358515
 30
0.0
  0
LWPOLYLINE
  5
119
100
AcDbEntity
  8
cut
 62
7
100
AcDbPolyline
 90
6
 70
0
 10
1.851081
 20
3.169316
 30
0.0
 10
0.920379
 20
3.169316
 30
0.0
 10
0.746579
 20
3.343115
 30
0.0
 10
0.746579
 20
4.120034
 30
0.0
 10
0.914048
 20
4.287504
 30
0.0
 10
1.873019
 20
4.287740
 30
0.0
  0
LWPOLYLINE
  5
11a
100
AcDbEntity
  8
cut
 62
7
100
AcDbPolyline
 90
3
 70
0
 10
3.218050
 20
3.172970
 30
0.0
 10
3.218050
 20
3.169313
 30
0.0
 10
2.058103
 20
3.169313
 30
0.0
  0
LWPOLYLINE
  5
11b
100
AcDbEntity
  8
cut
 62
7
100
AcDbPolyline
 90
4
 70
0
 10
2.066450
 20
4.287799
 30
0.0
 10
3.220060
 20
4.288074
 30
0.0
 10
3.220060
 20
4.288074
 30
0.0
 10
3.220060
 20
4.284956
 30
0.0
  0
LWPOLYLINE
  5
11c
100
AcDbEntity
  8
cut
 62
7
100
AcDbPolyline
 90
2
 70
0
 10
3.221219
 20
4.286585
 30
0.0
 10
3.598157
 20
4.153848
 30
0.0
  0
LWPOLYLINE
  5
11d
100
AcDbEntity
  8
cut
 62
7
100
AcDbPolyline
 90
3
 70
0
 10
3.216099
 20
3.169367
 30
0.0
 10
3.604253
 20
3.302868
 30
0.0
 10
3.604253
 20
4.160082
 30
0.0
  0
LWPOLYLINE
  5
11e
100
AcDbEntity
  8
cut
 62
7
100
AcDbPolyline
 90
2
 70
0
 10
0.921205
 20
3.747769
 30
0.0
 10
0.918980
 20
3.168587
 30
0.0
  0
LWPOLYLINE
  5
11f
100
AcDbEntity
  8
cut
 62
7
100
AcDbPolyline
 90
2
 70
0
 10
3.225529
 20
4.281267
 30
0.0
 10
3.223301
 20
3.740791
 30
0.0
  0
LWPOLYLINE
  5
120
100
AcDbEntity
  8
cut
 62
7
100
AcDbPolyline
 90
2
 70
0
 10
3.248694
 20
4.285754
 30
0.0
 10
3.246466
 20
3.745278
 30
0.0
  0
SPLINE
  5
121
100
AcDbEntity
  8
cut
 62
7
100
AcDbSpline
 70
0
 71
3
 72
13
 73
9
 74
7
 40
0.000000
 40
0.000000
 40
0.000000
 40
0.000000
 40
0.113193
 40
0.225118
 40
0.338310
 40
0.500177
 40
0.658520
 40
0.820387
 40
0.820387
 40
0.820387
 40
0.820387
 10
2.199677
 20
4.942094
 30
0.0
 10
2.227754
 20
4.916439
 30
0.0
 10
2.283593
 20
4.865417
 30
0.0
 10
2.333192
 20
4.761236
 30
0.0
 10
2.353758
 20
4.632167
 30
0.0
 10
2.320762
 20
4.487113
 30
0.0
 10
2.220452
 20
4.352144
 30
0.0
 10
2.119845
 20
4.311515
 30
0.0
 10
2.068988
 20
4.290976
 30
0.0
 11
2.199677
 21
4.942094
 31
0.0
 11
2.278134
 21
4.860503
 31
0.0
 11
2.327805
 21
4.760203
 31
0.0
 11
2.345149
 21
4.648347
 31
0.0
 11
2.309697
 21
4.490411
 31
0.0
 11
2.212876
 21
4.365118
 31
0.0
 11
2.068988
 21
4.290976
 31
0.0
  0
SPLINE
  5
122
100
AcDbEntity
  8
cut
 62
7
100
AcDbSpline
 70
0
 71
3
 72
13
 73
9
 74
7
 40
0.000000
 40
0.000000
 40
0.000000
 40
0.000000
 40
0.161315
 40
0.319141
 40
0.480456
 40
0.653200
 40
0.821722
 40
0.994465
 40
0.994465
 40
0.994465
 40
0.994465
 10
1.881083
 20
4.291398
 30
0.0
 10
1.830487
 20
4.312066
 30
0.0
 10
1.730391
 20
4.352954
 30
0.0
 10
1.630754
 20
4.487697
 30
0.0
 10
1.593406
 20
4.652136
 30
0.0
 10
1.634299
 20
4.820355
 30
0.0
 10
1.748155
 20
4.960299
 30
0.0
 10
1.858739
 20
4.995000
 30
0.0
 10
1.914715
 20
5.012565
 30
0.0
 11
1.881083
 21
4.291398
 31
0.0
 11
1.737961
 21
4.365822
 31
0.0
 11
1.641738
 21
4.490922
 31
0.0
 11
1.606527
 21
4.648347
 31
0.0
 11
1.646896
 21
4.816308
 31
0.0
 11
1.755752
 21
4.944954
 31
0.0
 11
1.914715
 21
5.012565
 31
0.0
  0
SPLINE
  5
123
100
AcDbEntity
  8
cut
 62
1
100
AcDbSpline
 70
0
 71
3
 72
10
 73
6
 74
4
 40
0.000000
 40
0.000000
 40
0.000000
 40
0.000000
 40
0.037464
 40
0.060956
 40
0.069094
 40
0.069094
 40
0.069094
 40
0.069094
 10
0.920900
 20
3.806161
 30
0.0
 10
0.920944
 20
3.793673
 30
0.0
 10
0.921016
 20
3.773354
 30
0.0
 10
0.921094
 20
3.750323
 30
0.0
 10
0.921128
 20
3.739780
 30
0.0
 10
0.921136
 20
3.737067
 30
0.0
 11
0.920900
 21
3.806161
 31
0.0
 11
0.921032
 21
3.768697
 31
0.0
 11
0.921110
 21
3.745205
 31
0.0
 11
0.921136
 21
3.737067
 31
0.0
  0
SPLINE
  5
124
100
AcDbEntity
  8
cut
 62
1
100
AcDbSpline
 70
0
 71
3
 72
10
 73
6
 74
4
 40
0.000000
 40
0.000000
 40
0.000000
 40
0.000000
 40
0.034900
 40
0.067900
 40
0.098873
 40
0.098873
 40
0.098873
 40
0.098873
 10
0.920246
 20
4.004046
 30
0.0
 10
0.920293
 20
3.992413
 30
0.0
 10
0.920385
 20
3.969780
 30
0.0
 10
0.920479
 20
3.936823
 30
0.0
 10
0.920534
 20
3.915498
 30
0.0
 10
0.920561
 20
3.905174
 30
0.0
 11
0.920246
 21
4.004046
 31
0.0
 11
0.920380
 21
3.969146
 31
0.0
 11
0.920479
 21
3.936147
 31
0.0
 11
0.920561
 21
3.905174
 31
0.0
  0
SPLINE
  5
125
100
AcDbEntity
  8
cut
 62
1
100
AcDbSpline
 70
0
 71
3
 72
10
 73
6
 74
4
 40
0.000000
 40
0.000000
 40
0.000000
 40
0.000000
 40
0.033751
 40
0.066753
 40
0.098934
 40
0.098934
 40
0.098934
 40
0.098934
 10
0.919591
 20
4.201974
 30
0.0
 10
0.919622
 20
4.190724
 30
0.0
 10
0.919683
 20
4.168473
 30
0.0
 10
0.919811
 20
4.135495
 30
0.0
 10
0.919875
 20
4.113768
 30
0.0
 10
0.919906
 20
4.103041
 30
0.0
 11
0.919591
 21
4.201974
 31
0.0
 11
0.919690
 21
4.168223
 31
0.0
 11
0.919807
 21
4.135221
 31
0.0
 11
0.919906
 21
4.103041
 31
0.0
  0
SPLINE
  5
126
100
AcDbEntity
  8
cut
 62
1
100
AcDbSpline
 70
0
 71
3
 72
10
 73
6
 74
4
 40
0.000000
 40
0.000000
 40
0.000000
 40
0.000000
 40
0.037465
 40
0.060957
 40
0.069094
 40
0.069094
 40
0.069094
 40
0.069094
 10
3.221435
 20
3.297456
 30
0.0
 10
3.221479
 20
3.284967
 30
0.0
 10
3.221551
 20
3.264649
 30
0.0
 10
3.221629
 20
3.241617
 30
0.0
 10
3.221663
 20
3.231074
 30
0.0
 10
3.221672
 20
3.228361
 30
0.0
 11
3.221435
 21
3.297456
 31
0.0
 11
3.221567
 21
3.259991
 31
0.0
 11
3.221645
 21
3.236499
 31
0.0
 11
3.221672
 21
3.228361
 31
0.0
  0
SPLINE
  5
127
100
AcDbEntity
  8
cut
 62
1
100
AcDbSpline
 70
0
 71
3
 72
10
 73
6
 74
4
 40
0.000000
 40
0.000000
 40
0.000000
 40
0.000000
 40
0.034901
 40
0.067900
 40
0.098873
 40
0.098873
 40
0.098873
 40
0.098873
 10
3.220781
 20
3.495341
 30
0.0
 10
3.220828
 20
3.483707
 30
0.0
 10
3.220920
 20
3.461074
 30
0.0
 10
3.221014
 20
3.428117
 30
0.0
 10
3.221069
 20
3.406793
 30
0.0
 10
3.221096
 20
3.396468
 30
0.0
 11
3.220781
 21
3.495341
 31
0.0
 11
3.220915
 21
3.460441
 31
0.0
 11
3.221014
 21
3.427441
 31
0.0
 11
3.221096
 21
3.396468
 31
0.0
  0
LWPOLYLINE
  5
128
100
AcDbEntity
  8
cut
 62
7
100
AcDbPolyline
 90
1
 70
1
 10
2.345149
 20
4.648347
 30
0.0
  0
LWPOLYLINE
  5
129
100
AcDbEntity
  8
cut
 62
7
100
AcDbPolyline
 90
2
 70
0
 10
7.314210
 20
5.510886
 30
0.0
 10
7.930956
 20
5.508665
 30
0.0
  0
LWPOLYLINE
  5
12a
100
AcDbEntity
  8
cut
 62
7
100
AcDbPolyline
 90
2
 70
0
 10
1.082997
 20
2.429041
 30
0.0
 10
0.458447
 20
2.429041
 30
0.0
  0
LWPOLYLINE
  5
12b
100
AcDbEntity
  8
cut
 62
7
100
AcDbPolyline
 90
2
 70
0
 10
1.084776
 20
1.163490
 30
0.0
 10
0.460226
 20
1.163490
 30
0.0
  0
LWPOLYLINE
  5
12c
100
AcDbEntity
  8
cut
 62
7
100
AcDbPolyline
 90
2
 70
0
 10
1.085180
 20
2.410930
 30
0.0
 10
1.085180
 20
3.035481
 30
0.0
  0
LWPOLYLINE
  5
12d
100
AcDbEntity
  8
cut
 62
7
100
AcDbPolyline
 90
2
 70
0
 10
1.088858
 20
0.542214
 30
0.0
 10
1.088858
 20
1.166765
 30
0.0
  0
LWPOLYLINE
  5
12e
100
AcDbEntity
  8
cut
 62
7
100
AcDbPolyline
 90
2
 70
0
 10
0.467179
 20
1.730429
 30
0.0
 10
0.467179
 20
1.167169
 30
0.0
  0
LWPOLYLINE
  5
12f
100
AcDbEntity
  8
cut
 62
7
100
AcDbPolyline
 90
2
 70
0
 10
0.467179
 20
2.425241
 30
0.0
 10
0.467179
 20
1.874432
 30
0.0
  0
LWPOLYLINE
  5
130
100
AcDbEntity
  8
cut
 62
7
100
AcDbPolyline
 90
2
 70
0
 10
1.092537
 20
0.549168
 30
0.0
 10
2.125102
 20
1.145320
 30
0.0
  0
LWPOLYLINE
  5
131
100
AcDbEntity
  8
cut
 62
7
100
AcDbPolyline
 90
2
 70
0
 10
2.107824
 20
2.425241
 30
0.0
 10
1.082369
 20
3.017288
 30
0.0
  0
LWPOLYLINE
  5
132
100
AcDbEntity
  8
cut
 62
7
100
AcDbPolyline
 90
2
 70
0
 10
2.105774
 20
1.724449
 30
0.0
 10
2.105774
 20
1.137372
 30
0.0
  0
LWPOLYLINE
  5
133
100
AcDbEntity
  8
cut
 62
7
100
AcDbPolyline
 90
2
 70
0
 10
2.105774
 20
2.421876
 30
0.0
 10
2.105774
 20
1.864992
 30
0.0
  0
LWPOLYLINE
  5
134
100
AcDbEntity
  8
cut
 62
7
100
AcDbPolyline
 90
4
 70
1
 10
4.414683
 20
6.530616
 30
0.0
 10
4.414683
 20
6.269982
 30
0.0
 10
4.469384
 20
6.269982
 30
0.0
 10
4.469384
 20
6.533833
 30
0.0
  0
LWPOLYLINE
  5
135
100
AcDbEntity
  8
cut
 62
7
100
AcDbPolyline
 90
4
 70
1
 10
3.376975
 20
6.541554
 30
0.0
 10
3.376975
 20
6.280920
 30
0.0
 10
3.431676
 20
6.280920
 30
0.0
 10
3.431676
 20
6.544771
 30
0.0
  0
LWPOLYLINE
  5
136
100
AcDbEntity
  8
fold
 62
1
100
AcDbPolyline
 90
2
 70
0
 10
6.332155
 20
2.145305
 30
0.0
 10
6.332155
 20
2.166569
 30
0.0
  0
LWPOLYLINE
  5
137
100
AcDbEntity
  8
fold
 62
1
100
AcDbPolyline
 90
2
 70
0
 10
6.332155
 20
1.885486
 30
0.0
 10
6.332155
 20
2.058739
 30
0.0
  0
LWPOLYLINE
  5
138
100
AcDbEntity
  8
fold
 62
1
100
AcDbPolyline
 90
2
 70
0
 10
6.332155
 20
1.625509
 30
0.0
 10
6.332155
 20
1.798801
 30
0.0
  0
LWPOLYLINE
  5
139
100
AcDbEntity
  8
fold
 62
1
100
AcDbPolyline
 90
2
 70
0
 10
6.332155
 20
1.365571
 30
0.0
 10
6.332155
 20
1.538823
 30
0.0
  0
LWPOLYLINE
  5
13a
100
AcDbEntity
  8
fold
 62
1
100
AcDbPolyline
 90
2
 70
0
 10
6.332155
 20
1.105633
 30
0.0
 10
6.332155
 20
1.278925
 30
0.0
  0
LWPOLYLINE
  5
13b
100
AcDbEntity
  8
fold
 62
1
100
AcDbPolyline
 90
2
 70
0
 10
6.332155
 20
0.845655
 30
0.0
 10
6.332155
 20
1.018947
 30
0.0
  0
LWPOLYLINE
  5
13c
100
AcDbEntity
  8
fold
 62
1
100
AcDbPolyline
 90
2
 70
0
 10
6.332155
 20
0.585717
 30
0.0
 10
6.332155
 20
0.759009
 30
0.0
  0
LWPOLYLINE
  5
13d
100
AcDbEntity
  8
fold
 62
1
100
AcDbPolyline
 90
2
 70
0
 10
5.308987
 20
0.548815
 30
0.0
 10
5.482263
 20
0.548815
 30
0.0
  0
LWPOLYLINE
  5
13e
100
AcDbEntity
  8
fold
 62
1
100
AcDbPolyline
 90
2
 70
0
 10
5.049073
 20
0.548815
 30
0.0
 10
5.222357
 20
0.548815
 30
0.0
  0
LWPOLYLINE
  5
13f
100
AcDbEntity
  8
fold
 62
1
100
AcDbPolyline
 90
2
 70
0
 10
4.789203
 20
0.548815
 30
0.0
 10
4.962456
 20
0.548815
 30
0.0
  0
LWPOLYLINE
  5
140
100
AcDbEntity
  8
fold
 62
1
100
AcDbPolyline
 90
2
 70
0
 10
7.051762
 20
5.507575
 30
0.0
 10
7.225014
 20
5.507575
 30
0.0
  0
LWPOLYLINE
  5
141
100
AcDbEntity
  8
fold
 62
1
100
AcDbPolyline
 90
2
 70
0
 10
6.791904
 20
5.507575
 30
0.0
 10
6.965156
 20
5.507575
 30
0.0
  0
LWPOLYLINE
  5
142
100
AcDbEntity
  8
fold
 62
1
100
AcDbPolyline
 90
2
 70
0
 10
6.531926
 20
5.507575
 30
0.0
 10
6.705218
 20
5.507575
 30
0.0
  0
LWPOLYLINE
  5
143
100
AcDbEntity
  8
fold
 62
1
100
AcDbPolyline
 90
2
 70
0
 10
6.271988
 20
5.507575
 30
0.0
 10
6.445240
 20
5.507575
 30
0.0
  0
LWPOLYLINE
  5
144
100
AcDbEntity
  8
fold
 62
1
100
AcDbPolyline
 90
2
 70
0
 10
6.012050
 20
5.507575
 30
0.0
 10
6.185342
 20
5.507575
 30
0.0
  0
LWPOLYLINE
  5
145
100
AcDbEntity
  8
fold
 62
1
100
AcDbPolyline
 90
2
 70
0
 10
5.752133
 20
5.507575
 30
0.0
 10
5.925448
 20
5.507575
 30
0.0
  0
LWPOLYLINE
  5
146
100
AcDbEntity
  8
fold
 62
1
100
AcDbPolyline
 90
2
 70
0
 10
5.492158
 20
5.507575
 30
0.0
 10
5.665474
 20
5.507575
 30
0.0
  0
LWPOLYLINE
  5
147
100
AcDbEntity
  8
fold
 62
1
100
AcDbPolyline
 90
2
 70
0
 10
5.232241
 20
5.507575
 30
0.0
 10
5.405500
 20
5.507575
 30
0.0
  0
LWPOLYLINE
  5
148
100
AcDbEntity
  8
fold
 62
1
100
AcDbPolyline
 90
2
 70
0
 10
4.972294
 20
5.507575
 30
0.0
 10
5.145574
 20
5.507575
 30
0.0
  0
LWPOLYLINE
  5
149
100
AcDbEntity
  8
fold
 62
1
100
AcDbPolyline
 90
3
 70
0
 10
4.765120
 20
5.454815
 30
0.0
 10
4.765120
 20
5.507575
 30
0.0
 10
4.885641
 20
5.507575
 30
0.0
  0
LWPOLYLINE
  5
14a
100
AcDbEntity
  8
fold
 62
1
100
AcDbPolyline
 90
2
 70
0
 10
4.765120
 20
5.194837
 30
0.0
 10
4.765120
 20
5.368130
 30
0.0
  0
LWPOLYLINE
  5
14b
100
AcDbEntity
  8
fold
 62
1
100
AcDbPolyline
 90
2
 70
0
 10
4.765120
 20
4.934860
 30
0.0
 10
4.765120
 20
5.108112
 30
0.0
  0
LWPOLYLINE
  5
14c
100
AcDbEntity
  8
fold
 62
1
100
AcDbPolyline
 90
2
 70
0
 10
4.765120
 20
4.674961
 30
0.0
 10
4.765120
 20
4.848254
 30
0.0
  0
LWPOLYLINE
  5
14d
100
AcDbEntity
  8
fold
 62
1
100
AcDbPolyline
 90
2
 70
0
 10
4.765120
 20
4.415023
 30
0.0
 10
4.765120
 20
4.588315
 30
0.0
  0
LWPOLYLINE
  5
14e
100
AcDbEntity
  8
fold
 62
1
100
AcDbPolyline
 90
2
 70
0
 10
4.765120
 20
4.155125
 30
0.0
 10
4.765120
 20
4.328417
 30
0.0
  0
LWPOLYLINE
  5
14f
100
AcDbEntity
  8
fold
 62
1
100
AcDbPolyline
 90
3
 70
0
 10
4.800313
 20
3.930387
 30
0.0
 10
4.765120
 20
3.930387
 30
0.0
 10
4.765120
 20
4.068480
 30
0.0
  0
LWPOLYLINE
  5
150
100
AcDbEntity
  8
fold
 62
1
100
AcDbPolyline
 90
2
 70
0
 10
5.060187
 20
3.930387
 30
0.0
 10
4.886970
 20
3.930387
 30
0.0
  0
LWPOLYLINE
  5
151
100
AcDbEntity
  8
fold
 62
1
100
AcDbPolyline
 90
2
 70
0
 10
5.320193
 20
3.930387
 30
0.0
 10
5.146865
 20
3.930387
 30
0.0
  0
LWPOLYLINE
  5
152
100
AcDbEntity
  8
fold
 62
1
100
AcDbPolyline
 90
2
 70
0
 10
5.580178
 20
3.930387
 30
0.0
 10
5.406866
 20
3.930387
 30
0.0
  0
LWPOLYLINE
  5
153
100
AcDbEntity
  8
fold
 62
1
100
AcDbPolyline
 90
2
 70
0
 10
5.840072
 20
3.930387
 30
0.0
 10
5.666800
 20
3.930387
 30
0.0
  0
LWPOLYLINE
  5
154
100
AcDbEntity
  8
fold
 62
1
100
AcDbPolyline
 90
2
 70
0
 10
6.100011
 20
3.930387
 30
0.0
 10
5.926719
 20
3.930387
 30
0.0
  0
LWPOLYLINE
  5
155
100
AcDbEntity
  8
fold
 62
1
100
AcDbPolyline
 90
2
 70
0
 10
6.359948
 20
3.930387
 30
0.0
 10
6.186656
 20
3.930387
 30
0.0
  0
LWPOLYLINE
  5
156
100
AcDbEntity
  8
fold
 62
1
100
AcDbPolyline
 90
2
 70
0
 10
6.619846
 20
3.930387
 30
0.0
 10
6.446594
 20
3.930387
 30
0.0
  0
LWPOLYLINE
  5
157
100
AcDbEntity
  8
fold
 62
1
100
AcDbPolyline
 90
2
 70
0
 10
6.879824
 20
3.930387
 30
0.0
 10
6.706532
 20
3.930387
 30
0.0
  0
LWPOLYLINE
  5
158
100
AcDbEntity
  8
fold
 62
1
100
AcDbPolyline
 90
2
 70
0
 10
7.139722
 20
3.930387
 30
0.0
 10
6.966430
 20
3.930387
 30
0.0
  0
LWPOLYLINE
  5
159
100
AcDbEntity
  8
fold
 62
1
100
AcDbPolyline
 90
2
 70
0
 10
7.399620
 20
3.930387
 30
0.0
 10
7.226368
 20
3.930387
 30
0.0
  0
LWPOLYLINE
  5
15a
100
AcDbEntity
  8
fold
 62
1
100
AcDbPolyline
 90
2
 70
0
 10
7.659558
 20
3.930387
 30
0.0
 10
7.486267
 20
3.930387
 30
0.0
  0
LWPOLYLINE
  5
15b
100
AcDbEntity
  8
fold
 62
1
100
AcDbPolyline
 90
2
 70
0
 10
7.919456
 20
3.930387
 30
0.0
 10
7.746164
 20
3.930387
 30
0.0
  0
LWPOLYLINE
  5
15c
100
AcDbEntity
  8
fold
 62
1
100
AcDbPolyline
 90
2
 70
0
 10
4.795069
 20
10.206268
 30
0.0
 10
4.795069
 20
10.379568
 30
0.0
  0
LWPOLYLINE
  5
15d
100
AcDbEntity
  8
fold
 62
1
100
AcDbPolyline
 90
2
 70
0
 10
4.795069
 20
9.946365
 30
0.0
 10
4.795069
 20
10.119618
 30
0.0
  0
LWPOLYLINE
  5
15e
100
AcDbEntity
  8
fold
 62
1
100
AcDbPolyline
 90
2
 70
0
 10
4.795069
 20
9.686416
 30
0.0
 10
4.795069
 20
9.859716
 30
0.0
  0
LWPOLYLINE
  5
15f
100
AcDbEntity
  8
fold
 62
1
100
AcDbPolyline
 90
2
 70
0
 10
4.795069
 20
9.426490
 30
0.0
 10
4.795069
 20
9.599742
 30
0.0
  0
LWPOLYLINE
  5
160
100
AcDbEntity
  8
fold
 62
1
100
AcDbPolyline
 90
2
 70
0
 10
4.795069
 20
9.166556
 30
0.0
 10
4.795069
 20
9.339868
 30
0.0
  0
LWPOLYLINE
  5
161
100
AcDbEntity
  8
fold
 62
1
100
AcDbPolyline
 90
2
 70
0
 10
4.795069
 20
8.906610
 30
0.0
 10
4.795069
 20
9.079918
 30
0.0
  0
LWPOLYLINE
  5
162
100
AcDbEntity
  8
fold
 62
1
100
AcDbPolyline
 90
2
 70
0
 10
4.795069
 20
8.646676
 30
0.0
 10
4.795069
 20
8.819964
 30
0.0
  0
LWPOLYLINE
  5
163
100
AcDbEntity
  8
fold
 62
1
100
AcDbPolyline
 90
2
 70
0
 10
4.795069
 20
8.386758
 30
0.0
 10
4.795069
 20
8.560026
 30
0.0
  0
LWPOLYLINE
  5
164
100
AcDbEntity
  8
fold
 62
1
100
AcDbPolyline
 90
2
 70
0
 10
4.795069
 20
8.126824
 30
0.0
 10
4.795069
 20
8.300116
 30
0.0
  0
LWPOLYLINE
  5
165
100
AcDbEntity
  8
fold
 62
1
100
AcDbPolyline
 90
2
 70
0
 10
4.795069
 20
7.866910
 30
0.0
 10
4.795069
 20
8.040186
 30
0.0
  0
LWPOLYLINE
  5
166
100
AcDbEntity
  8
fold
 62
1
100
AcDbPolyline
 90
2
 70
0
 10
4.795069
 20
7.606992
 30
0.0
 10
4.795069
 20
7.780256
 30
0.0
  0
LWPOLYLINE
  5
167
100
AcDbEntity
  8
fold
 62
1
100
AcDbPolyline
 90
2
 70
0
 10
4.795069
 20
7.347062
 30
0.0
 10
4.795069
 20
7.520370
 30
0.0
  0
LWPOLYLINE
  5
168
100
AcDbEntity
  8
fold
 62
1
100
AcDbPolyline
 90
2
 70
0
 10
4.795069
 20
7.087140
 30
0.0
 10
4.795069
 20
7.260408
 30
0.0
  0
LWPOLYLINE
  5
169
100
AcDbEntity
  8
fold
 62
1
100
AcDbPolyline
 90
2
 70
0
 10
4.795069
 20
6.827214
 30
0.0
 10
4.795069
 20
7.000510
 30
0.0
  0
LWPOLYLINE
  5
16a
100
AcDbEntity
  8
fold
 62
1
100
AcDbPolyline
 90
2
 70
0
 10
4.795069
 20
6.567276
 30
0.0
 10
4.795069
 20
6.740528
 30
0.0
  0
LWPOLYLINE
  5
16b
100
AcDbEntity
  8
fold
 62
1
100
AcDbPolyline
 90
2
 70
0
 10
4.795069
 20
6.307338
 30
0.0
 10
4.795069
 20
6.480630
 30
0.0
  0
LWPOLYLINE
  5
16c
100
AcDbEntity
  8
fold
 62
1
100
AcDbPolyline
 90
2
 70
0
 10
4.795069
 20
6.047400
 30
0.0
 10
4.795069
 20
6.220732
 30
0.0
  0
LWPOLYLINE
  5
16d
100
AcDbEntity
  8
fold
 62
1
100
AcDbPolyline
 90
2
 70
0
 10
4.795069
 20
5.787422
 30
0.0
 10
4.795069
 20
5.960715
 30
0.0
  0
LWPOLYLINE
  5
16e
100
AcDbEntity
  8
fold
 62
1
100
AcDbPolyline
 90
2
 70
0
 10
4.795069
 20
5.527524
 30
0.0
 10
4.795069
 20
5.700816
 30
0.0
  0
LWPOLYLINE
  5
16f
100
AcDbEntity
  8
fold
 62
1
100
AcDbPolyline
 90
2
 70
0
 10
6.094715
 20
8.851588
 30
0.0
 10
6.268006
 20
8.851588
 30
0.0
  0
LWPOLYLINE
  5
170
100
AcDbEntity
  8
fold
 62
1
100
AcDbPolyline
 90
2
 70
0
 10
5.834753
 20
8.851588
 30
0.0
 10
6.008029
 20
8.851588
 30
0.0
  0
LWPOLYLINE
  5
171
100
AcDbEntity
  8
fold
 62
1
100
AcDbPolyline
 90
2
 70
0
 10
5.574834
 20
8.851588
 30
0.0
 10
5.748139
 20
8.851588
 30
0.0
  0
LWPOLYLINE
  5
172
100
AcDbEntity
  8
fold
 62
1
100
AcDbPolyline
 90
2
 70
0
 10
5.314861
 20
8.851588
 30
0.0
 10
5.488185
 20
8.851588
 30
0.0
  0
LWPOLYLINE
  5
173
100
AcDbEntity
  8
fold
 62
1
100
AcDbPolyline
 90
2
 70
0
 10
5.054943
 20
8.851588
 30
0.0
 10
5.228234
 20
8.851588
 30
0.0
  0
LWPOLYLINE
  5
174
100
AcDbEntity
  8
fold
 62
1
100
AcDbPolyline
 90
2
 70
0
 10
4.795069
 20
8.851588
 30
0.0
 10
4.968329
 20
8.851588
 30
0.0
  0
LWPOLYLINE
  5
175
100
AcDbEntity
  8
fold
 62
1
100
AcDbPolyline
 90
2
 70
0
 10
6.619886
 20
7.284395
 30
0.0
 10
6.446554
 20
7.284395
 30
0.0
  0
LWPOLYLINE
  5
176
100
AcDbEntity
  8
fold
 62
1
100
AcDbPolyline
 90
2
 70
0
 10
6.879864
 20
7.284395
 30
0.0
 10
6.706532
 20
7.284395
 30
0.0
  0
LWPOLYLINE
  5
177
100
AcDbEntity
  8
fold
 62
1
100
AcDbPolyline
 90
2
 70
0
 10
7.139802
 20
7.284395
 30
0.0
 10
6.966470
 20
7.284395
 30
0.0
  0
LWPOLYLINE
  5
178
100
AcDbEntity
  8
fold
 62
1
100
AcDbPolyline
 90
2
 70
0
 10
7.399700
 20
7.284395
 30
0.0
 10
7.226408
 20
7.284395
 30
0.0
  0
LWPOLYLINE
  5
179
100
AcDbEntity
  8
fold
 62
1
100
AcDbPolyline
 90
2
 70
0
 10
7.659558
 20
7.284395
 30
0.0
 10
7.486306
 20
7.284395
 30
0.0
  0
LWPOLYLINE
  5
17a
100
AcDbEntity
  8
fold
 62
1
100
AcDbPolyline
 90
2
 70
0
 10
7.919456
 20
7.284395
 30
0.0
 10
7.746204
 20
7.284395
 30
0.0
  0
LWPOLYLINE
  5
17b
100
AcDbEntity
  8
fold
 62
1
100
AcDbPolyline
 90
2
 70
0
 10
6.868031
 20
2.866806
 30
0.0
 10
6.799702
 20
2.866806
 30
0.0
  0
LWPOLYLINE
  5
17c
100
AcDbEntity
  8
fold
 62
1
100
AcDbPolyline
 90
2
 70
0
 10
7.127969
 20
2.866806
 30
0.0
 10
6.954677
 20
2.866806
 30
0.0
  0
LWPOLYLINE
  5
17d
100
AcDbEntity
  8
fold
 62
1
100
AcDbPolyline
 90
2
 70
0
 10
7.387907
 20
2.866806
 30
0.0
 10
7.214575
 20
2.866806
 30
0.0
  0
LWPOLYLINE
  5
17e
100
AcDbEntity
  8
fold
 62
1
100
AcDbPolyline
 90
2
 70
0
 10
7.647805
 20
2.866806
 30
0.0
 10
7.474513
 20
2.866806
 30
0.0
  0
LWPOLYLINE
  5
17f
100
AcDbEntity
  8
fold
 62
1
100
AcDbPolyline
 90
2
 70
0
 10
7.907743
 20
2.866806
 30
0.0
 10
7.734451
 20
2.866806
 30
0.0
  0
LWPOLYLINE
  5
180
100
AcDbEntity
  8
fold
 62
1
100
AcDbPolyline
 90
2
 70
0
 10
3.207906
 20
5.732472
 30
0.0
 10
3.207906
 20
5.559180
 30
0.0
  0
LWPOLYLINE
  5
181
100
AcDbEntity
  8
fold
 62
1
100
AcDbPolyline
 90
2
 70
0
 10
3.207906
 20
5.992410
 30
0.0
 10
3.207906
 20
5.819158
 30
0.0
  0
LWPOLYLINE
  5
182
100
AcDbEntity
  8
fold
 62
1
100
AcDbPolyline
 90
2
 70
0
 10
3.207906
 20
6.252348
 30
0.0
 10
3.207906
 20
6.079096
 30
0.0
  0
LWPOLYLINE
  5
183
100
AcDbEntity
  8
fold
 62
1
100
AcDbPolyline
 90
2
 70
0
 10
3.207906
 20
6.512326
 30
0.0
 10
3.207906
 20
6.338994
 30
0.0
  0
LWPOLYLINE
  5
184
100
AcDbEntity
  8
fold
 62
1
100
AcDbPolyline
 90
2
 70
0
 10
3.207906
 20
6.772264
 30
0.0
 10
3.207906
 20
6.598972
 30
0.0
  0
LWPOLYLINE
  5
185
100
AcDbEntity
  8
fold
 62
1
100
AcDbPolyline
 90
2
 70
0
 10
3.207906
 20
7.032198
 30
0.0
 10
3.207906
 20
6.858910
 30
0.0
  0
LWPOLYLINE
  5
186
100
AcDbEntity
  8
fold
 62
1
100
AcDbPolyline
 90
2
 70
0
 10
3.207906
 20
7.551934
 30
0.0
 10
3.207906
 20
7.378686
 30
0.0
  0
LWPOLYLINE
  5
187
100
AcDbEntity
  8
fold
 62
1
100
AcDbPolyline
 90
2
 70
0
 10
3.207906
 20
7.811852
 30
0.0
 10
3.207906
 20
7.638580
 30
0.0
  0
LWPOLYLINE
  5
188
100
AcDbEntity
  8
fold
 62
1
100
AcDbPolyline
 90
2
 70
0
 10
3.207906
 20
8.071822
 30
0.0
 10
3.207906
 20
7.898498
 30
0.0
  0
LWPOLYLINE
  5
189
100
AcDbEntity
  8
fold
 62
1
100
AcDbPolyline
 90
2
 70
0
 10
3.207906
 20
8.331764
 30
0.0
 10
3.207906
 20
8.158460
 30
0.0
  0
LWPOLYLINE
  5
18a
100
AcDbEntity
  8
fold
 62
1
100
AcDbPolyline
 90
2
 70
0
 10
3.207906
 20
8.591710
 30
0.0
 10
3.207906
 20
8.418422
 30
0.0
  0
LWPOLYLINE
  5
18b
100
AcDbEntity
  8
fold
 62
1
100
AcDbPolyline
 90
2
 70
0
 10
3.207906
 20
8.851588
 30
0.0
 10
3.207906
 20
8.678340
 30
0.0
  0
LWPOLYLINE
  5
18c
100
AcDbEntity
  8
fold
 62
1
100
AcDbPolyline
 90
2
 70
0
 10
2.101201
 20
2.418858
 30
0.0
 10
1.929823
 20
2.418858
 30
0.0
  0
LWPOLYLINE
  5
18d
100
AcDbEntity
  8
fold
 62
1
100
AcDbPolyline
 90
2
 70
0
 10
1.758512
 20
2.418858
 30
0.0
 10
1.587142
 20
2.418858
 30
0.0
  0
LWPOLYLINE
  5
18e
100
AcDbEntity
  8
fold
 62
1
100
AcDbPolyline
 90
2
 70
0
 10
1.415799
 20
2.418858
 30
0.0
 10
1.244457
 20
2.418858
 30
0.0
  0
LWPOLYLINE
  5
18f
100
AcDbEntity
  8
fold
 62
1
100
AcDbPolyline
 90
2
 70
0
 10
1.080748
 20
2.411260
 30
0.0
 10
1.080748
 20
2.239921
 30
0.0
  0
LWPOLYLINE
  5
190
100
AcDbEntity
  8
fold
 62
1
100
AcDbPolyline
 90
2
 70
0
 10
1.080748
 20
2.068622
 30
0.0
 10
1.080748
 20
1.897283
 30
0.0
  0
LWPOLYLINE
  5
191
100
AcDbEntity
  8
fold
 62
1
100
AcDbPolyline
 90
2
 70
0
 10
1.080748
 20
1.725984
 30
0.0
 10
1.080748
 20
1.554606
 30
0.0
  0
LWPOLYLINE
  5
192
100
AcDbEntity
  8
fold
 62
1
100
AcDbPolyline
 90
2
 70
0
 10
1.080748
 20
1.383268
 30
0.0
 10
1.080748
 20
1.211890
 30
0.0
  0
LWPOLYLINE
  5
193
100
AcDbEntity
  8
fold
 62
1
100
AcDbPolyline
 90
2
 70
0
 10
1.190846
 20
1.150709
 30
0.0
 10
1.362224
 20
1.150709
 30
0.0
  0
LWPOLYLINE
  5
194
100
AcDbEntity
  8
fold
 62
1
100
AcDbPolyline
 90
2
 70
0
 10
1.533598
 20
1.150709
 30
0.0
 10
1.704961
 20
1.150709
 30
0.0
  0
LWPOLYLINE
  5
195
100
AcDbEntity
  8
fold
 62
1
100
AcDbPolyline
 90
2
 70
0
 10
1.876240
 20
1.150709
 30
0.0
 10
2.047591
 20
1.150709
 30
0.0
  0
LWPOLYLINE
  5
196
100
AcDbEntity
  8
fold
 62
7
100
AcDbPolyline
 90
4
 70
0
 10
0.465449
 20
1.865732
 30
0.0
 10
0.313095
 20
1.865732
 30
0.0
 10
0.313095
 20
1.718969
 30
0.0
 10
0.468245
 20
1.718969
 30
0.0
  0
SPLINE
  5
197
100
AcDbEntity
  8
cut
 62
1
100
AcDbSpline
 70
0
 71
3
 72
10
 73
6
 74
4
 40
0.000000
 40
0.000000
 40
0.000000
 40
0.000000
 40
0.033752
 40
0.066753
 40
0.098934
 40
0.098934
 40
0.098934
 40
0.098934
 10
3.220127
 20
3.693269
 30
0.0
 10
3.220158
 20
3.682018
 30
0.0
 10
3.220219
 20
3.659767
 30
0.0
 10
3.220347
 20
3.626789
 30
0.0
 10
3.220410
 20
3.605062
 30
0.0
 10
3.220442
 20
3.594335
 30
0.0
 11
3.220127
 21
3.693269
 31
0.0
 11
3.220226
 21
3.659517
 31
0.0
 11
3.220342
 21
3.626516
 31
0.0
 11
3.220442
 21
3.594335
 31
0.0
  0
LWPOLYLINE
  5
198
100
AcDbEntity
  8
fold
 62
7
100
AcDbPolyline
 90
4
 70
0
 10
2.096711
 20
1.863635
 30
0.0
 10
2.249065
 20
1.863635
 30
0.0
 10
2.249065
 20
1.716872
 30
0.0
 10
2.093916
 20
1.716872
 30
0.0
  0
ENDSEC
  0
SECTION
  2
OBJECTS
  0
DICTIONARY
  5
C
330
0
100
AcDbDictionary
  3
ACAD_GROUP
350
D
  3
ACAD_MLINESTYLE
350
17
  0
DICTIONARY
  5
D
330
C
100
AcDbDictionary
  0
DICTIONARY
  5
1A
330
C
100
AcDbDictionary
  0
DICTIONARY
  5
17
330
C
100
AcDbDictionary
  3
STANDARD
350
18
  0
DICTIONARY
  5
19
330
C
100
AcDbDictionary
  0
ENDSEC
  0
EOF
