999
"DXF R12 Output" (www.mydxf.blogspot.com)
 0 
SECTION
 2 
HEADER
 9 
$ACADVER
 1 
AC1009
 9 
$EXTMIN
 10 
 0 
 20 
 0 
 9 
$EXTMAX
 10 
 8.5 
 20 
 11 
 0 
ENDSEC
 0 
SECTION
 2 
ENTITIES
0
LINE
8
Layer 1
10
194.700000
20
195.281000
11
194.537000
21
242.987000
0
LINE
8
Layer 1
10
194.537000
20
242.987000
11
153.856000
21
242.987000
0
LINE
8
Layer 1
10
153.856000
20
242.987000
11
153.856000
21
267.983000
0
LINE
8
Layer 1
10
153.856000
20
267.983000
11
194.864000
21
267.983000
0
LINE
8
Layer 1
10
194.864000
20
267.983000
11
194.864000
21
275.499000
0
LINE
8
Layer 1
10
194.864000
20
275.499000
11
154.585100
21
275.499001
0
LINE
8
Layer 1
10
106.550000
20
259.862000
11
106.550000
21
268.033000
0
LINE
8
Layer 1
10
106.550000
20
268.033000
11
113.948700
21
275.294690
0
LINE
8
Layer 1
10
114.154000
20
235.218000
11
106.549770
21
242.000150
0
LINE
8
Layer 1
10
106.549770
20
242.000150
11
106.550000
21
257.312000
0
LINE
8
Layer 1
10
114.465000
20
110.148000
11
106.860770
21
116.930130
0
LINE
8
Layer 1
10
106.860770
20
116.930130
11
106.861000
21
142.962000
0
LINE
8
Layer 1
10
106.861000
20
142.962000
11
114.259700
21
150.223690
0
LINE
8
Layer 1
10
194.578000
20
47.917600
11
194.578000
21
65.148000
0
LINE
8
Layer 1
10
194.578000
20
65.148000
11
153.498000
21
65.148000
0
LINE
8
Layer 1
10
153.855000
20
24.146000
11
153.987710
21
24.294800
0
LINE
8
Layer 1
10
153.987710
20
24.294800
11
194.578000
21
24.294800
0
LINE
8
Layer 1
10
194.578000
20
24.294800
11
194.578000
21
43.209800
0
LINE
8
Layer 1
10
113.911000
20
24.089300
11
121.172680
21
16.690590
0
LINE
8
Layer 1
10
121.172680
20
16.690590
11
147.206000
21
16.690600
0
LINE
8
Layer 1
10
147.206000
20
16.690600
11
153.855420
21
24.146020
0
LINE
8
Layer 1
10
114.359000
20
275.684000
11
121.620690
21
283.082710
0
LINE
8
Layer 1
10
121.620690
20
283.082710
11
147.653000
21
283.083000
0
LINE
8
Layer 1
10
147.653000
20
283.083000
11
154.302420
21
275.627580
0
LINE
8
Layer 1
10
113.779000
20
83.103900
11
113.779000
21
110.188000
0
LINE
8
Layer 1
10
113.779000
20
70.750100
11
113.779000
21
79.710200
0
LINE
8
Layer 1
10
113.779000
20
24.686800
11
113.779000
21
64.537400
0
LINE
8
Layer 1
10
194.527000
20
85.846600
11
194.526990
21
195.434600
0
LINE
8
Layer 1
10
194.527000
20
65.163400
11
194.527010
21
85.562200
0
LINE
8
Layer 1
10
113.229000
20
234.997000
11
74.182600
21
234.997000
0
LINE
8
Layer 1
10
74.182600
20
234.997000
11
67.083310
21
227.897710
0
LINE
8
Layer 1
10
67.083310
20
227.897710
11
67.083300
21
157.666000
0
LINE
8
Layer 1
10
67.083300
20
157.666000
11
74.182590
21
150.566710
0
LINE
8
Layer 1
10
74.182590
20
150.566710
11
113.736000
21
150.566000
0
LINE
8
Layer 1
10
194.118000
20
235.062000
11
153.655000
21
235.062000
0
LINE
8
Layer 1
10
153.655000
20
235.062000
11
153.655000
21
195.274000
0
LINE
8
Layer 1
10
129.480000
20
257.298000
11
141.132700
21
257.039049
0
LINE
8
Layer 1
10
141.132700
20
257.039049
11
141.133000
21
196.315000
0
LINE
8
Layer 1
10
141.133000
20
196.315000
11
129.480000
21
196.315000
0
LINE
8
Layer 1
10
129.480000
20
196.315000
11
129.480000
21
257.298000
0
LINE
8
Layer 1
10
130.516000
20
99.399800
11
142.168700
21
99.140840
0
LINE
8
Layer 1
10
142.168700
20
99.140840
11
142.169000
21
38.417100
0
LINE
8
Layer 1
10
142.169000
20
38.417100
11
130.516000
21
38.417100
0
LINE
8
Layer 1
10
130.516000
20
38.417100
11
130.516000
21
99.399800
0
LINE
8
Layer 1
10
154.010000
20
24.237900
11
133.596000
21
24.237900
0
LINE
8
Layer 1
10
114.280000
20
275.556000
11
134.695000
21
275.556000
0
LINE
8
Layer 1
10
140.487000
20
275.425000
11
136.086000
21
275.425000
0
LINE
8
Layer 1
10
147.089000
20
275.425000
11
142.687000
21
275.425000
0
LINE
8
Layer 1
10
153.689000
20
275.425000
11
149.289000
21
275.425000
0
LINE
8
Layer 1
10
73.627500
20
197.649000
11
75.198190
21
196.718218
0
LINE
8
Layer 1
10
75.198190
20
196.718218
11
75.430884
21
188.399378
0
LINE
8
Layer 1
10
75.430884
20
188.399378
11
73.336634
21
188.108508
0
LINE
8
Layer 1
10
73.336634
20
188.108508
11
73.627500
21
197.649000
0
LINE
8
Layer 1
10
113.808000
20
70.895800
11
107.656000
21
70.895800
0
LINE
8
Layer 1
10
107.656000
20
70.895800
11
107.656000
21
64.506800
0
LINE
8
Layer 1
10
107.656000
20
64.506800
11
113.808000
21
64.506800
0
LINE
8
Layer 1
10
165.836000
20
83.073100
11
165.836000
21
95.473300
0
LINE
8
Layer 1
10
165.836000
20
95.473300
11
194.731000
21
95.473300
0
LINE
8
Layer 1
10
39.972700
20
90.667600
11
16.332900
21
90.667600
0
LINE
8
Layer 1
10
16.332900
20
90.667600
11
11.918400
21
95.082110
0
LINE
8
Layer 1
10
11.918400
20
95.082110
11
11.918400
21
114.816000
0
LINE
8
Layer 1
10
11.918400
20
114.816000
11
16.172110
21
119.069730
0
LINE
8
Layer 1
10
16.172110
20
119.069730
11
40.529910
21
119.075730
0
LINE
8
Layer 1
10
74.693700
20
90.760500
11
74.693700
21
90.667600
0
LINE
8
Layer 1
10
74.693700
20
90.667600
11
45.231100
21
90.667600
0
LINE
8
Layer 1
10
45.443100
20
119.077000
11
74.744800
21
119.084000
0
LINE
8
Layer 1
10
74.744800
20
119.084000
11
74.744800
21
119.084000
0
LINE
8
Layer 1
10
74.744800
20
119.084000
11
74.744800
21
119.005000
0
LINE
8
Layer 1
10
74.774200
20
119.046000
11
84.348420
21
115.674470
0
LINE
8
Layer 1
10
74.644200
20
90.668900
11
84.503320
21
94.059810
0
LINE
8
Layer 1
10
84.503320
20
94.059810
11
84.503300
21
115.833000
0
LINE
8
Layer 1
10
16.353800
20
105.360000
11
16.297300
21
90.648800
0
LINE
8
Layer 1
10
74.883700
20
118.911000
11
74.827100
21
105.182900
0
LINE
8
Layer 1
10
75.472100
20
119.025000
11
75.415500
21
105.296900
0
LINE
8
Layer 1
10
48.827100
20
135.696000
11
50.386731
21
134.193334
0
LINE
8
Layer 1
10
50.386731
20
134.193334
11
51.547741
21
132.397828
0
LINE
8
Layer 1
10
51.547741
20
132.397828
11
52.272178
21
130.386118
0
LINE
8
Layer 1
10
52.272178
20
130.386118
11
52.522090
21
128.234840
0
LINE
8
Layer 1
10
52.522090
20
128.234840
11
52.522000
21
128.235000
0
LINE
8
Layer 1
10
52.522000
20
128.235000
11
52.390048
21
126.663327
0
LINE
8
Layer 1
10
52.390048
20
126.663327
11
52.006964
21
125.166937
0
LINE
8
Layer 1
10
52.006964
20
125.166937
11
51.391906
21
123.770619
0
LINE
8
Layer 1
10
51.391906
20
123.770619
11
50.564030
21
122.499165
0
LINE
8
Layer 1
10
50.564030
20
122.499165
11
49.542494
21
121.377363
0
LINE
8
Layer 1
10
49.542494
20
121.377363
11
48.346454
21
120.430005
0
LINE
8
Layer 1
10
48.346454
20
120.430005
11
46.995067
21
119.681880
0
LINE
8
Layer 1
10
46.995067
20
119.681880
11
45.507490
21
119.157780
0
LINE
8
Layer 1
10
40.734700
20
119.169000
11
39.254631
21
119.697458
0
LINE
8
Layer 1
10
39.254631
20
119.697458
11
37.910566
21
120.447890
0
LINE
8
Layer 1
10
37.910566
20
120.447890
11
36.721410
21
121.395717
0
LINE
8
Layer 1
10
36.721410
20
121.395717
11
35.706070
21
122.516360
0
LINE
8
Layer 1
10
35.706070
20
122.516360
11
34.883451
21
123.785239
0
LINE
8
Layer 1
10
34.883451
20
123.785239
11
34.272459
21
125.177775
0
LINE
8
Layer 1
10
34.272459
20
125.177775
11
33.892000
21
126.669388
0
LINE
8
Layer 1
10
33.892000
20
126.669388
11
33.760980
21
128.235500
0
LINE
8
Layer 1
10
33.760980
20
128.235500
11
33.912014
21
129.917324
0
LINE
8
Layer 1
10
33.912014
20
129.917324
11
34.348704
21
131.507213
0
LINE
8
Layer 1
10
34.348704
20
131.507213
11
35.046431
21
132.976074
0
LINE
8
Layer 1
10
35.046431
20
132.976074
11
35.980576
21
134.294811
0
LINE
8
Layer 1
10
35.980576
20
134.294811
11
37.126521
21
135.434330
0
LINE
8
Layer 1
10
37.126521
20
135.434330
11
38.459648
21
136.365538
0
LINE
8
Layer 1
10
38.459648
20
136.365538
11
39.955337
21
137.059339
0
LINE
8
Layer 1
10
39.955337
20
137.059339
11
41.588970
21
137.486640
0
LINE
8
Layer 1
10
16.346100
20
106.843000
11
16.352100
21
105.088020
0
LINE
8
Layer 1
10
16.329500
20
111.870000
11
16.337500
21
109.358640
0
LINE
8
Layer 1
10
16.312900
20
116.897000
11
16.320900
21
114.384100
0
LINE
8
Layer 1
10
74.779700
20
93.922400
11
74.785700
21
92.167410
0
LINE
8
Layer 1
10
74.763100
20
98.948700
11
74.771100
21
96.437330
0
LINE
8
Layer 1
10
74.746500
20
103.976000
11
74.754500
21
101.463090
0
LINE
8
Layer 1
10
178.736000
20
150.144000
11
194.401300
21
150.087600
0
LINE
8
Layer 1
10
59.776900
20
68.029200
11
43.913300
21
68.029200
0
LINE
8
Layer 1
10
59.822100
20
35.884200
11
43.958500
21
35.884200
0
LINE
8
Layer 1
10
59.832400
20
67.569200
11
59.832400
21
83.432700
0
LINE
8
Layer 1
10
59.925800
20
20.103800
11
59.925800
21
35.967400
0
LINE
8
Layer 1
10
44.135100
20
50.284400
11
44.135100
21
35.977600
0
LINE
8
Layer 1
10
44.135100
20
67.932700
11
44.135100
21
53.942100
0
LINE
8
Layer 1
10
74.434100
20
28.602800
11
86.246400
21
35.422630
0
LINE
8
Layer 1
10
60.019200
20
20.280400
11
70.739600
21
26.469800
0
LINE
8
Layer 1
10
68.693700
20
77.813300
11
59.760970
21
82.970610
0
LINE
8
Layer 1
10
85.807500
20
67.932700
11
73.003100
21
75.325300
0
LINE
8
Layer 1
10
85.755500
20
50.132500
11
85.755501
21
35.220800
0
LINE
8
Layer 1
10
85.755500
20
67.847200
11
85.755500
21
53.702300
0
LINE
8
Layer 1
10
106.170000
20
176.162000
11
106.170000
21
169.304000
0
LINE
8
Layer 1
10
106.170000
20
169.304000
11
106.595000
21
169.304000
0
LINE
8
Layer 1
10
106.595000
20
169.304000
11
106.595000
21
176.247000
0
LINE
8
Layer 1
10
106.595000
20
176.247000
11
106.170000
21
176.162000
0
LINE
8
Layer 1
10
78.626500
20
176.426000
11
78.626500
21
169.596000
0
LINE
8
Layer 1
10
78.626500
20
169.596000
11
79.134200
21
169.596000
0
LINE
8
Layer 1
10
79.134200
20
169.596000
11
79.134200
21
176.510000
0
LINE
8
Layer 1
10
79.134200
20
176.510000
11
78.626500
21
176.426000
0
LINE
8
fold
10
153.792000
20
64.657700
11
153.792000
21
65.197800
0
LINE
8
fold
10
153.792000
20
58.058400
11
153.792000
21
62.459000
0
LINE
8
fold
10
153.792000
20
51.454900
11
153.792000
21
55.856500
0
LINE
8
fold
10
153.792000
20
44.852500
11
153.792000
21
49.253100
0
LINE
8
fold
10
153.792000
20
38.250100
11
153.792000
21
42.651700
0
LINE
8
fold
10
153.792000
20
31.646600
11
153.792000
21
36.048300
0
LINE
8
fold
10
153.792000
20
25.044200
11
153.792000
21
29.445800
0
LINE
8
fold
10
127.804000
20
24.106900
11
132.205000
21
24.106900
0
LINE
8
fold
10
121.202000
20
24.106900
11
125.603000
21
24.106900
0
LINE
8
fold
10
114.601000
20
24.106900
11
119.002000
21
24.106900
0
LINE
8
fold
10
172.070000
20
150.059000
11
176.471000
21
150.059000
0
LINE
8
fold
10
165.470000
20
150.059000
11
169.870000
21
150.059000
0
LINE
8
fold
10
158.866000
20
150.059000
11
163.268000
21
150.059000
0
LINE
8
fold
10
152.264000
20
150.059000
11
156.664000
21
150.059000
0
LINE
8
fold
10
145.661000
20
150.059000
11
150.063000
21
150.059000
0
LINE
8
fold
10
139.059000
20
150.059000
11
143.462000
21
150.059000
0
LINE
8
fold
10
132.456000
20
150.059000
11
136.858000
21
150.059000
0
LINE
8
fold
10
125.854000
20
150.059000
11
130.255000
21
150.059000
0
LINE
8
fold
10
119.252000
20
150.059000
11
123.653000
21
150.059000
0
LINE
8
fold
10
113.989000
20
148.719000
11
113.989000
21
150.059000
0
LINE
8
fold
10
113.989000
20
150.059000
11
117.051000
21
150.059000
0
LINE
8
fold
10
113.989000
20
142.116000
11
113.989000
21
146.517000
0
LINE
8
fold
10
113.989000
20
135.512000
11
113.989000
21
139.913000
0
LINE
8
fold
10
113.989000
20
128.911000
11
113.989000
21
133.313000
0
LINE
8
fold
10
113.989000
20
122.309000
11
113.989000
21
126.710000
0
LINE
8
fold
10
113.989000
20
115.707000
11
113.989000
21
120.109000
0
LINE
8
fold
10
114.883000
20
109.999000
11
113.989000
21
109.999000
0
LINE
8
fold
10
113.989000
20
109.999000
11
113.989000
21
113.506000
0
LINE
8
fold
10
121.484000
20
109.999000
11
117.084000
21
109.999000
0
LINE
8
fold
10
128.088000
20
109.999000
11
123.686000
21
109.999000
0
LINE
8
fold
10
134.692000
20
109.999000
11
130.290000
21
109.999000
0
LINE
8
fold
10
141.293000
20
109.999000
11
136.892000
21
109.999000
0
LINE
8
fold
10
147.896000
20
109.999000
11
143.494000
21
109.999000
0
LINE
8
fold
10
154.498000
20
109.999000
11
150.096000
21
109.999000
0
LINE
8
fold
10
161.099000
20
109.999000
11
156.699000
21
109.999000
0
LINE
8
fold
10
167.703000
20
109.999000
11
163.301000
21
109.999000
0
LINE
8
fold
10
174.304000
20
109.999000
11
169.903000
21
109.999000
0
LINE
8
fold
10
180.906000
20
109.999000
11
176.505000
21
109.999000
0
LINE
8
fold
10
187.508000
20
109.999000
11
183.106000
21
109.999000
0
LINE
8
fold
10
194.109000
20
109.999000
11
189.708000
21
109.999000
0
LINE
8
fold
10
114.750000
20
269.406000
11
114.750000
21
273.808000
0
LINE
8
fold
10
114.750000
20
262.805000
11
114.750000
21
267.205000
0
LINE
8
fold
10
114.750000
20
256.202000
11
114.750000
21
260.604000
0
LINE
8
fold
10
114.750000
20
249.600000
11
114.750000
21
254.000000
0
LINE
8
fold
10
114.750000
20
242.998000
11
114.750000
21
247.400000
0
LINE
8
fold
10
114.750000
20
236.395000
11
114.750000
21
240.797000
0
LINE
8
fold
10
114.750000
20
229.793000
11
114.750000
21
234.194000
0
LINE
8
fold
10
114.750000
20
223.191000
11
114.750000
21
227.592000
0
LINE
8
fold
10
114.750000
20
216.588000
11
114.750000
21
220.990000
0
LINE
8
fold
10
114.750000
20
209.987000
11
114.750000
21
214.388000
0
LINE
8
fold
10
114.750000
20
203.385000
11
114.750000
21
207.785000
0
LINE
8
fold
10
114.750000
20
196.782000
11
114.750000
21
201.184000
0
LINE
8
fold
10
114.750000
20
190.180000
11
114.750000
21
194.581000
0
LINE
8
fold
10
114.750000
20
183.578000
11
114.750000
21
187.980000
0
LINE
8
fold
10
114.750000
20
176.976000
11
114.750000
21
181.376000
0
LINE
8
fold
10
114.750000
20
170.373000
11
114.750000
21
174.775000
0
LINE
8
fold
10
114.750000
20
163.771000
11
114.750000
21
168.174000
0
LINE
8
fold
10
114.750000
20
157.168000
11
114.750000
21
161.569000
0
LINE
8
fold
10
114.750000
20
150.566000
11
114.750000
21
154.968000
0
LINE
8
fold
10
147.761000
20
234.997000
11
152.163000
21
234.997000
0
LINE
8
fold
10
141.158000
20
234.997000
11
145.559000
21
234.997000
0
LINE
8
fold
10
134.556000
20
234.997000
11
138.958000
21
234.997000
0
LINE
8
fold
10
127.953000
20
234.997000
11
132.355000
21
234.997000
0
LINE
8
fold
10
121.351000
20
234.997000
11
125.752000
21
234.997000
0
LINE
8
fold
10
114.750000
20
234.997000
11
119.151000
21
234.997000
0
LINE
8
fold
10
161.100000
20
195.191000
11
156.698000
21
195.191000
0
LINE
8
fold
10
167.704000
20
195.191000
11
163.301000
21
195.191000
0
LINE
8
fold
10
174.306000
20
195.191000
11
169.904000
21
195.191000
0
LINE
8
fold
10
180.908000
20
195.191000
11
176.506000
21
195.191000
0
LINE
8
fold
10
187.508000
20
195.191000
11
183.107000
21
195.191000
0
LINE
8
fold
10
194.109000
20
195.191000
11
189.709000
21
195.191000
0
LINE
8
fold
10
167.403000
20
82.983900
11
165.668000
21
82.983900
0
LINE
8
fold
10
174.006000
20
82.983900
11
169.604000
21
82.983900
0
LINE
8
fold
10
180.608000
20
82.983900
11
176.205000
21
82.983900
0
LINE
8
fold
10
187.209000
20
82.983900
11
182.808000
21
82.983900
0
LINE
8
fold
10
193.812000
20
82.983900
11
189.410000
21
82.983900
0
LINE
8
fold
10
74.436100
20
155.772000
11
74.436100
21
151.370000
0
LINE
8
fold
10
74.436100
20
162.374000
11
74.436100
21
157.974000
0
LINE
8
fold
10
74.436100
20
168.977000
11
74.436100
21
164.576000
0
LINE
8
fold
10
74.436100
20
175.580000
11
74.436100
21
171.177000
0
LINE
8
fold
10
74.436100
20
182.183000
11
74.436100
21
177.781000
0
LINE
8
fold
10
74.436100
20
188.785000
11
74.436100
21
184.383000
0
LINE
8
fold
10
74.436100
20
201.986000
11
74.436100
21
197.586000
0
LINE
8
fold
10
74.436100
20
208.588000
11
74.436100
21
204.187000
0
LINE
8
fold
10
74.436100
20
215.191000
11
74.436100
21
210.789000
0
LINE
8
fold
10
74.436100
20
221.794000
11
74.436100
21
217.392000
0
LINE
8
fold
10
74.436100
20
228.396000
11
74.436100
21
223.995000
0
LINE
8
fold
10
74.436100
20
234.997000
11
74.436100
21
230.597000
0
LINE
8
fold
10
85.639300
20
67.770500
11
81.286300
21
67.770500
0
LINE
8
fold
10
76.935000
20
67.770500
11
72.582200
21
67.770500
0
LINE
8
fold
10
68.230100
20
67.770500
11
63.878000
21
67.770500
0
LINE
8
fold
10
59.719800
20
67.577500
11
59.719800
21
63.225500
0
LINE
8
fold
10
59.719800
20
58.874500
11
59.719800
21
54.522500
0
LINE
8
fold
10
59.719800
20
50.171500
11
59.719800
21
45.818500
0
LINE
8
fold
10
59.719800
20
41.466500
11
59.719800
21
37.113500
0
LINE
8
fold
10
62.516300
20
35.559500
11
66.869300
21
35.559500
0
LINE
8
fold
10
71.222200
20
35.559500
11
75.574800
21
35.559500
0
LINE
8
fold
10
79.925300
20
35.559500
11
84.277600
21
35.559500
0
LINE
8
fold
10
44.091200
20
53.721100
11
40.221400
21
53.721100
0
LINE
8
fold
10
40.221400
20
53.721100
11
40.221400
21
49.993300
0
LINE
8
fold
10
40.221400
20
49.993300
11
44.162200
21
49.993300
0
LINE
8
fold
10
85.525300
20
53.667900
11
89.395100
21
53.667900
0
LINE
8
fold
10
89.395100
20
53.667900
11
89.395100
21
49.940100
0
LINE
8
fold
10
89.395100
20
49.940100
11
85.454300
21
49.940100
0
LINE
8
foldtry2
10
74.812500
20
234.686000
11
74.812500
21
150.455000
0
LINE
8
foldtry2
10
153.248000
20
235.230000
11
114.664000
21
235.230000
0
LINE
8
foldtry2
10
114.664000
20
235.230000
11
114.664000
21
109.878000
0
LINE
8
foldtry2
10
114.664000
20
109.878000
11
194.549000
21
109.878000
0
LINE
8
foldtry2
10
114.845000
20
150.636000
11
179.151000
21
150.636000
0
LINE
8
foldtry2
10
194.730000
20
195.197000
11
153.791000
21
195.197000
0
LINE
8
foldtry2
10
114.302000
20
235.411000
11
114.302000
21
275.625000
0
LINE
8
foldtry2
10
135.315000
20
275.625000
11
154.516000
21
275.625000
0
LINE
8
foldtry2
10
194.730000
20
82.887800
11
165.384000
21
82.887800
0
LINE
8
foldtry2
10
153.791000
20
65.316800
11
153.791000
21
24.559400
0
LINE
8
foldtry2
10
133.322000
20
24.378300
11
114.121000
21
24.378300
0
LINE
8
foldtry2
10
85.137700
20
68.034000
11
59.234100
21
68.034000
0
LINE
8
foldtry2
10
59.234100
20
68.034000
11
59.234100
21
36.152600
0
LINE
8
foldtry2
10
59.234100
20
36.152600
11
86.224500
21
36.152600
0
LINE
8
foldtry2
10
75.174800
20
105.893000
11
75.174800
21
90.677000
0
LINE
8
foldtry2
10
16.484100
20
105.350000
11
16.484100
21
119.298000
 0 
ENDSEC
 0 
EOF