  0
SECTION
  2
HEADER
  9
$ACADVER
  1
AC1014
  9
$HANDSEED
  5
FFFF
  9
$INSUNITS
 70
     4
  9
$MEASUREMENT
 70
     1
  0
ENDSEC
  0
SECTION
  2
TABLES
  0
TABLE
  2
VPORT
  5
8
330
0
100
AcDbSymbolTable
 70
     4
  0
VPORT
  5
2E
330
8
100
AcDbSymbolTableRecord
100
AcDbViewportTableRecord
  2
*ACTIVE
 70
     0
 10
0.0
 20
0.0
 11
1.0
 21
1.0
 12
210.0
 22
148.5
 13
0.0
 23
0.0
 14
10.0
 24
10.0
 15
10.0
 25
10.0
 16
0.0
 26
0.0
 36
1.0
 17
0.0
 27
0.0
 37
0.0
 40
341.0
 41
1.24
 42
50.0
 43
0.0
 44
0.0
 50
0.0
 51
0.0
 71
     0
 72
   100
 73
     1
 74
     3
 75
     0
 76
     0
 77
     0
 78
     0
  0
ENDTAB
  0
TABLE
  2
LTYPE
  5
5
330
0
100
AcDbSymbolTable
 70
     1
  0
LTYPE
  5
14
330
5
100
AcDbSymbolTableRecord
100
AcDbLinetypeTableRecord
  2
BYBLOCK
 70
     0
  3

 72
    65
 73
     0
 40
0.0
  0
LTYPE
  5
15
330
5
100
AcDbSymbolTableRecord
100
AcDbLinetypeTableRecord
  2
BYLAYER
 70
     0
  3

 72
    65
 73
     0
 40
0.0
  0
LTYPE
  5
16
330
5
100
AcDbSymbolTableRecord
100
AcDbLinetypeTableRecord
  2
CONTINUOUS
 70
     0
  3
Solid line
 72
    65
 73
     0
 40
0.0
  0
ENDTAB
  0
TABLE
  2
LAYER
  5
2
100
AcDbSymbolTable
 70
6
  0
LAYER
  5
50
100
AcDbSymbolTableRecord
100
AcDbLayerTableRecord
  2
0
 70
0
  6
CONTINUOUS
  0
LAYER
  5
51
100
AcDbSymbolTableRecord
100
AcDbLayerTableRecord
  2
source
 70
0
  6
CONTINUOUS
  0
LAYER
  5
52
100
AcDbSymbolTableRecord
100
AcDbLayerTableRecord
  2
cut
 70
0
  6
CONTINUOUS
  0
LAYER
  5
53
100
AcDbSymbolTableRecord
100
AcDbLayerTableRecord
  2
images
 70
0
  6
CONTINUOUS
  0
LAYER
  5
54
100
AcDbSymbolTableRecord
100
AcDbLayerTableRecord
  2
outline
 70
0
  6
CONTINUOUS
  0
LAYER
  5
55
100
AcDbSymbolTableRecord
100
AcDbLayerTableRecord
  2
fold
 70
0
  6
CONTINUOUS
  0
ENDTAB
  0
TABLE
  2
STYLE
  5
3
330
0
100
AcDbSymbolTable
 70
     1
  0
STYLE
  5
11
330
3
100
AcDbSymbolTableRecord
100
AcDbTextStyleTableRecord
  2
STANDARD
 70
     0
 40
0.0
 41
1.0
 50
0.0
 71
     0
 42
2.5
  3
txt
  4

  0
ENDTAB
  0
TABLE
  2
VIEW
  5
6
330
0
100
AcDbSymbolTable
 70
     0
  0
ENDTAB
  0
TABLE
  2
UCS
  5
7
330
0
100
AcDbSymbolTable
 70
     0
  0
ENDTAB
  0
TABLE
  2
APPID
  5
9
330
0
100
AcDbSymbolTable
 70
     2
  0
APPID
  5
12
330
9
100
AcDbSymbolTableRecord
100
AcDbRegAppTableRecord
  2
ACAD
 70
     0
  0
ENDTAB
  0
TABLE
  2
DIMSTYLE
  5
A
330
0
100
AcDbSymbolTable
 70
     1
  0
DIMSTYLE
105
27
330
A
100
AcDbSymbolTableRecord
100
AcDbDimStyleTableRecord
  2
ISO-25
 70
     0
  3

  4

  5

  6

  7

 40
1.0
 41
2.5
 42
0.625
 43
3.75
 44
1.25
 45
0.0
 46
0.0
 47
0.0
 48
0.0
140
2.5
141
2.5
142
0.0
143
0.03937007874016
144
1.0
145
0.0
146
1.0
147
0.625
 71
     0
 72
     0
 73
     0
 74
     0
 75
     0
 76
     0
 77
     1
 78
     8
170
     0
171
     3
172
     1
173
     0
174
     0
175
     0
176
     0
177
     0
178
     0
270
     2
271
     2
272
     2
273
     2
274
     3
340
11
275
     0
280
     0
281
     0
282
     0
283
     0
284
     8
285
     0
286
     0
287
     3
288
     0
  0
ENDTAB
  0
TABLE
  2
BLOCK_RECORD
  5
1
330
0
100
AcDbSymbolTable
 70
     1
  0
BLOCK_RECORD
  5
1F
330
1
100
AcDbSymbolTableRecord
100
AcDbBlockTableRecord
  2
*MODEL_SPACE
  0
BLOCK_RECORD
  5
1B
330
1
100
AcDbSymbolTableRecord
100
AcDbBlockTableRecord
  2
*PAPER_SPACE
  0
ENDTAB
  0
ENDSEC
  0
SECTION
  2
BLOCKS
  0
BLOCK
  5
20
330
1F
100
AcDbEntity
  8
0
100
AcDbBlockBegin
  2
*MODEL_SPACE
 70
     0
 10
0.0
 20
0.0
 30
0.0
  3
*MODEL_SPACE
  1

  0
ENDBLK
  5
21
330
1F
100
AcDbEntity
  8
0
100
AcDbBlockEnd
  0
BLOCK
  5
1C
330
1B
100
AcDbEntity
 67
     1
  8
0
100
AcDbBlockBegin
  2
*PAPER_SPACE
  1

  0
ENDBLK
  5
1D
330
1B
100
AcDbEntity
 67
     1
  8
0
100
AcDbBlockEnd
  0
ENDSEC
  0
SECTION
  2
ENTITIES
  0
LWPOLYLINE
  5
100
100
AcDbEntity
  8
cut
 62
7
100
AcDbPolyline
 90
7
 70
0
 10
7.942712
 20
7.287940
 30
0.0
 10
7.936280
 20
9.166129
 30
0.0
 10
6.334673
 20
9.166129
 30
0.0
 10
6.334673
 20
10.150248
 30
0.0
 10
7.949144
 20
10.150248
 30
0.0
 10
7.949144
 20
10.446127
 30
0.0
 10
6.363363
 20
10.446127
 30
0.0
  0
LWPOLYLINE
  5
101
100
AcDbEntity
  8
cut
 62
7
100
AcDbPolyline
 90
3
 70
0
 10
4.472233
 20
9.830496
 30
0.0
 10
4.472233
 20
10.152189
 30
0.0
 10
4.763520
 20
10.438082
 30
0.0
  0
LWPOLYLINE
  5
102
100
AcDbEntity
  8
cut
 62
7
100
AcDbPolyline
 90
3
 70
0
 10
4.771612
 20
8.860274
 30
0.0
 10
4.472233
 20
9.127288
 30
0.0
 10
4.472233
 20
9.730117
 30
0.0
  0
LWPOLYLINE
  5
103
100
AcDbEntity
  8
cut
 62
7
100
AcDbPolyline
 90
4
 70
0
 10
4.783861
 20
3.936253
 30
0.0
 10
4.484482
 20
4.203266
 30
0.0
 10
4.484482
 20
5.228167
 30
0.0
 10
4.775769
 20
5.514060
 30
0.0
  0
LWPOLYLINE
  5
104
100
AcDbEntity
  8
cut
 62
7
100
AcDbPolyline
 90
3
 70
0
 10
7.937891
 20
1.486242
 30
0.0
 10
7.937891
 20
2.164608
 30
0.0
 10
6.320569
 20
2.164608
 30
0.0
  0
LWPOLYLINE
  5
105
100
AcDbEntity
  8
cut
 62
7
100
AcDbPolyline
 90
4
 70
0
 10
6.334638
 20
0.550354
 30
0.0
 10
6.339863
 20
0.556213
 30
0.0
 10
7.937891
 20
0.556213
 30
0.0
 10
7.937891
 20
1.300896
 30
0.0
  0
LWPOLYLINE
  5
106
100
AcDbEntity
  8
cut
 62
7
100
AcDbPolyline
 90
4
 70
0
 10
4.762056
 20
0.548122
 30
0.0
 10
5.047948
 20
0.256834
 30
0.0
 10
6.072850
 20
0.256834
 30
0.0
 10
6.334638
 20
0.550354
 30
0.0
  0
LWPOLYLINE
  5
107
100
AcDbEntity
  8
cut
 62
7
100
AcDbPolyline
 90
4
 70
0
 10
4.779677
 20
10.453419
 30
0.0
 10
5.065570
 20
10.744707
 30
0.0
 10
6.090471
 20
10.744707
 30
0.0
 10
6.352259
 20
10.451186
 30
0.0
  0
LWPOLYLINE
  5
108
100
AcDbEntity
  8
cut
 62
7
100
AcDbPolyline
 90
2
 70
0
 10
4.756833
 20
2.871530
 30
0.0
 10
4.756833
 20
3.937817
 30
0.0
  0
LWPOLYLINE
  5
109
100
AcDbEntity
  8
cut
 62
7
100
AcDbPolyline
 90
2
 70
0
 10
4.756833
 20
2.385161
 30
0.0
 10
4.756833
 20
2.737922
 30
0.0
  0
LWPOLYLINE
  5
10a
100
AcDbEntity
  8
cut
 62
7
100
AcDbPolyline
 90
2
 70
0
 10
4.756833
 20
0.571644
 30
0.0
 10
4.756833
 20
2.140566
 30
0.0
  0
LWPOLYLINE
  5
10b
100
AcDbEntity
  8
cut
 62
7
100
AcDbPolyline
 90
2
 70
0
 10
7.935900
 20
2.979510
 30
0.0
 10
7.935900
 20
7.294008
 30
0.0
  0
LWPOLYLINE
  5
10c
100
AcDbEntity
  8
cut
 62
7
100
AcDbPolyline
 90
2
 70
0
 10
7.935900
 20
2.165214
 30
0.0
 10
7.935900
 20
2.968317
 30
0.0
  0
LWPOLYLINE
  5
10d
100
AcDbEntity
  8
cut
 62
7
100
AcDbPolyline
 90
6
 70
0
 10
4.735174
 20
8.851588
 30
0.0
 10
3.197926
 20
8.851588
 30
0.0
 10
2.918426
 20
8.572088
 30
0.0
 10
2.918426
 20
5.807038
 30
0.0
 10
3.197926
 20
5.527538
 30
0.0
 10
4.755138
 20
5.527538
 30
0.0
  0
LWPOLYLINE
  5
10e
100
AcDbEntity
  8
cut
 62
7
100
AcDbPolyline
 90
3
 70
0
 10
7.919793
 20
8.854153
 30
0.0
 10
6.326773
 20
8.854153
 30
0.0
 10
6.326773
 20
7.287683
 30
0.0
  0
LWPOLYLINE
  5
10f
100
AcDbEntity
  8
cut
 62
7
100
AcDbPolyline
 90
4
 70
1
 10
5.374998
 20
9.729548
 30
0.0
 10
5.833768
 20
9.719353
 30
0.0
 10
5.833768
 20
7.328655
 30
0.0
 10
5.374998
 20
7.328655
 30
0.0
  0
LWPOLYLINE
  5
110
100
AcDbEntity
  8
cut
 62
7
100
AcDbPolyline
 90
4
 70
1
 10
5.415778
 20
3.513102
 30
0.0
 10
5.874547
 20
3.502907
 30
0.0
 10
5.874547
 20
1.112209
 30
0.0
 10
5.415778
 20
1.112209
 30
0.0
  0
LWPOLYLINE
  5
111
100
AcDbEntity
  8
cut
 62
7
100
AcDbPolyline
 90
2
 70
0
 10
6.340748
 20
0.553972
 30
0.0
 10
5.537029
 20
0.553972
 30
0.0
  0
LWPOLYLINE
  5
112
100
AcDbEntity
  8
cut
 62
7
100
AcDbPolyline
 90
2
 70
0
 10
4.776570
 20
10.448384
 30
0.0
 10
5.580289
 20
10.448384
 30
0.0
  0
LWPOLYLINE
  5
113
100
AcDbEntity
  8
cut
 62
7
100
AcDbPolyline
 90
4
 70
1
 10
3.176075
 20
7.381196
 30
0.0
 10
3.237913
 20
7.344551
 30
0.0
 10
3.247074
 20
7.017038
 30
0.0
 10
3.164623
 20
7.005586
 30
0.0
  0
LWPOLYLINE
  5
114
100
AcDbEntity
  8
cut
 62
7
100
AcDbPolyline
 90
4
 70
0
 10
4.758000
 20
2.390900
 30
0.0
 10
4.515781
 20
2.390900
 30
0.0
 10
4.515781
 20
2.139364
 30
0.0
 10
4.758000
 20
2.139364
 30
0.0
  0
LWPOLYLINE
  5
115
100
AcDbEntity
  8
cut
 62
7
100
AcDbPolyline
 90
3
 70
0
 10
6.806322
 20
2.870320
 30
0.0
 10
6.806322
 20
3.358515
 30
0.0
 10
7.943909
 20
3.358515
 30
0.0
  0
LWPOLYLINE
  5
116
100
AcDbEntity
  8
cut
 62
7
100
AcDbPolyline
 90
6
 70
0
 10
1.851081
 20
3.169316
 30
0.0
 10
0.920379
 20
3.169316
 30
0.0
 10
0.746579
 20
3.343115
 30
0.0
 10
0.746579
 20
4.120034
 30
0.0
 10
0.914048
 20
4.287504
 30
0.0
 10
1.873019
 20
4.287740
 30
0.0
  0
LWPOLYLINE
  5
117
100
AcDbEntity
  8
cut
 62
7
100
AcDbPolyline
 90
3
 70
0
 10
3.218050
 20
3.172970
 30
0.0
 10
3.218050
 20
3.169313
 30
0.0
 10
2.058103
 20
3.169313
 30
0.0
  0
LWPOLYLINE
  5
118
100
AcDbEntity
  8
cut
 62
7
100
AcDbPolyline
 90
4
 70
0
 10
2.066450
 20
4.287799
 30
0.0
 10
3.220060
 20
4.288074
 30
0.0
 10
3.220060
 20
4.288074
 30
0.0
 10
3.220060
 20
4.284956
 30
0.0
  0
LWPOLYLINE
  5
119
100
AcDbEntity
  8
cut
 62
7
100
AcDbPolyline
 90
2
 70
0
 10
3.221219
 20
4.286585
 30
0.0
 10
3.598157
 20
4.153848
 30
0.0
  0
LWPOLYLINE
  5
11a
100
AcDbEntity
  8
cut
 62
7
100
AcDbPolyline
 90
3
 70
0
 10
3.216099
 20
3.169367
 30
0.0
 10
3.604253
 20
3.302868
 30
0.0
 10
3.604253
 20
4.160082
 30
0.0
  0
LWPOLYLINE
  5
11b
100
AcDbEntity
  8
cut
 62
7
100
AcDbPolyline
 90
2
 70
0
 10
0.921205
 20
3.747769
 30
0.0
 10
0.918980
 20
3.168587
 30
0.0
  0
LWPOLYLINE
  5
11c
100
AcDbEntity
  8
cut
 62
7
100
AcDbPolyline
 90
2
 70
0
 10
3.225529
 20
4.281267
 30
0.0
 10
3.223301
 20
3.740791
 30
0.0
  0
LWPOLYLINE
  5
11d
100
AcDbEntity
  8
cut
 62
7
100
AcDbPolyline
 90
2
 70
0
 10
3.248694
 20
4.285754
 30
0.0
 10
3.246466
 20
3.745278
 30
0.0
  0
SPLINE
  5
11e
100
AcDbEntity
  8
cut
 62
7
100
AcDbSpline
 70
0
 71
3
 72
13
 73
9
 74
7
 40
0.000000
 40
0.000000
 40
0.000000
 40
0.000000
 40
0.113193
 40
0.225118
 40
0.338310
 40
0.500177
 40
0.658520
 40
0.820387
 40
0.820387
 40
0.820387
 40
0.820387
 10
2.199677
 20
4.942094
 30
0.0
 10
2.227754
 20
4.916439
 30
0.0
 10
2.283593
 20
4.865417
 30
0.0
 10
2.333192
 20
4.761236
 30
0.0
 10
2.353758
 20
4.632167
 30
0.0
 10
2.320762
 20
4.487113
 30
0.0
 10
2.220452
 20
4.352144
 30
0.0
 10
2.119845
 20
4.311515
 30
0.0
 10
2.068988
 20
4.290976
 30
0.0
 11
2.199677
 21
4.942094
 31
0.0
 11
2.278134
 21
4.860503
 31
0.0
 11
2.327805
 21
4.760203
 31
0.0
 11
2.345149
 21
4.648347
 31
0.0
 11
2.309697
 21
4.490411
 31
0.0
 11
2.212876
 21
4.365118
 31
0.0
 11
2.068988
 21
4.290976
 31
0.0
  0
LWPOLYLINE
  5
11f
100
AcDbEntity
  8
cut
 62
7
100
AcDbPolyline
 90
1
 70
1
 10
2.345149
 20
4.648347
 30
0.0
  0
LWPOLYLINE
  5
120
100
AcDbEntity
  8
cut
 62
7
100
AcDbPolyline
 90
2
 70
0
 10
7.314210
 20
5.510886
 30
0.0
 10
7.930956
 20
5.508665
 30
0.0
  0
LWPOLYLINE
  5
121
100
AcDbEntity
  8
cut
 62
7
100
AcDbPolyline
 90
2
 70
0
 10
2.630775
 20
2.278038
 30
0.0
 10
2.006224
 20
2.278038
 30
0.0
  0
LWPOLYLINE
  5
122
100
AcDbEntity
  8
cut
 62
7
100
AcDbPolyline
 90
2
 70
0
 10
2.632553
 20
1.012487
 30
0.0
 10
2.008003
 20
1.012487
 30
0.0
  0
LWPOLYLINE
  5
123
100
AcDbEntity
  8
cut
 62
7
100
AcDbPolyline
 90
2
 70
0
 10
2.632957
 20
2.259928
 30
0.0
 10
2.632957
 20
2.884478
 30
0.0
  0
LWPOLYLINE
  5
124
100
AcDbEntity
  8
cut
 62
7
100
AcDbPolyline
 90
2
 70
0
 10
2.636636
 20
0.391211
 30
0.0
 10
2.636636
 20
1.015762
 30
0.0
  0
LWPOLYLINE
  5
125
100
AcDbEntity
  8
cut
 62
7
100
AcDbPolyline
 90
2
 70
0
 10
2.014956
 20
1.579426
 30
0.0
 10
2.014956
 20
1.016166
 30
0.0
  0
LWPOLYLINE
  5
126
100
AcDbEntity
  8
cut
 62
7
100
AcDbPolyline
 90
2
 70
0
 10
2.014956
 20
2.274239
 30
0.0
 10
2.014956
 20
1.723430
 30
0.0
  0
LWPOLYLINE
  5
127
100
AcDbEntity
  8
cut
 62
7
100
AcDbPolyline
 90
2
 70
0
 10
3.207828
 20
0.725820
 30
0.0
 10
3.672880
 20
0.994317
 30
0.0
  0
LWPOLYLINE
  5
128
100
AcDbEntity
  8
cut
 62
7
100
AcDbPolyline
 90
2
 70
0
 10
2.640314
 20
0.398165
 30
0.0
 10
3.062375
 20
0.641842
 30
0.0
  0
LWPOLYLINE
  5
129
100
AcDbEntity
  8
cut
 62
7
100
AcDbPolyline
 90
2
 70
0
 10
2.981829
 20
2.663241
 30
0.0
 10
2.630146
 20
2.866285
 30
0.0
  0
LWPOLYLINE
  5
12a
100
AcDbEntity
  8
cut
 62
7
100
AcDbPolyline
 90
2
 70
0
 10
3.655601
 20
2.274239
 30
0.0
 10
3.151490
 20
2.565288
 30
0.0
  0
LWPOLYLINE
  5
12b
100
AcDbEntity
  8
cut
 62
7
100
AcDbPolyline
 90
2
 70
0
 10
3.653552
 20
1.573446
 30
0.0
 10
3.653552
 20
0.986370
 30
0.0
  0
LWPOLYLINE
  5
12c
100
AcDbEntity
  8
cut
 62
7
100
AcDbPolyline
 90
2
 70
0
 10
3.653552
 20
2.270873
 30
0.0
 10
3.653552
 20
1.713989
 30
0.0
  0
LWPOLYLINE
  5
12d
100
AcDbEntity
  8
cut
 62
7
100
AcDbPolyline
 90
4
 70
1
 10
4.457270
 20
6.535230
 30
0.0
 10
4.457270
 20
6.265229
 30
0.0
 10
4.474020
 20
6.265229
 30
0.0
 10
4.474020
 20
6.538563
 30
0.0
  0
LWPOLYLINE
  5
12e
100
AcDbEntity
  8
cut
 62
7
100
AcDbPolyline
 90
4
 70
1
 10
3.372882
 20
6.545631
 30
0.0
 10
3.372882
 20
6.276720
 30
0.0
 10
3.392871
 20
6.276720
 30
0.0
 10
3.392871
 20
6.548951
 30
0.0
  0
LWPOLYLINE
  5
12f
100
AcDbEntity
  8
cut
 62
7
100
AcDbPolyline
 90
7
 70
0
 10
17.094204
 20
7.287885
 30
0.0
 10
17.087772
 20
9.166073
 30
0.0
 10
15.486165
 20
9.166073
 30
0.0
 10
15.486165
 20
10.150193
 30
0.0
 10
17.100636
 20
10.150193
 30
0.0
 10
17.100636
 20
10.446072
 30
0.0
 10
15.514855
 20
10.446072
 30
0.0
  0
LWPOLYLINE
  5
130
100
AcDbEntity
  8
cut
 62
7
100
AcDbPolyline
 90
3
 70
0
 10
13.623725
 20
9.830440
 30
0.0
 10
13.623725
 20
10.152133
 30
0.0
 10
13.915012
 20
10.438027
 30
0.0
  0
LWPOLYLINE
  5
131
100
AcDbEntity
  8
cut
 62
7
100
AcDbPolyline
 90
3
 70
0
 10
13.923104
 20
8.860219
 30
0.0
 10
13.623725
 20
9.127232
 30
0.0
 10
13.623725
 20
9.730061
 30
0.0
  0
LWPOLYLINE
  5
132
100
AcDbEntity
  8
cut
 62
7
100
AcDbPolyline
 90
4
 70
0
 10
13.935353
 20
3.936197
 30
0.0
 10
13.635974
 20
4.203210
 30
0.0
 10
13.635974
 20
5.228111
 30
0.0
 10
13.927261
 20
5.514005
 30
0.0
  0
LWPOLYLINE
  5
133
100
AcDbEntity
  8
cut
 62
7
100
AcDbPolyline
 90
3
 70
0
 10
17.089383
 20
1.486187
 30
0.0
 10
17.089383
 20
2.164552
 30
0.0
 10
15.472061
 20
2.164552
 30
0.0
  0
LWPOLYLINE
  5
134
100
AcDbEntity
  8
cut
 62
7
100
AcDbPolyline
 90
4
 70
0
 10
15.486130
 20
0.550299
 30
0.0
 10
15.491355
 20
0.556157
 30
0.0
 10
17.089383
 20
0.556157
 30
0.0
 10
17.089383
 20
1.300840
 30
0.0
  0
LWPOLYLINE
  5
135
100
AcDbEntity
  8
cut
 62
7
100
AcDbPolyline
 90
4
 70
0
 10
13.913547
 20
0.548066
 30
0.0
 10
14.199440
 20
0.256778
 30
0.0
 10
15.224342
 20
0.256778
 30
0.0
 10
15.486130
 20
0.550299
 30
0.0
  0
LWPOLYLINE
  5
136
100
AcDbEntity
  8
cut
 62
7
100
AcDbPolyline
 90
4
 70
0
 10
13.931169
 20
10.453363
 30
0.0
 10
14.217062
 20
10.744651
 30
0.0
 10
15.241963
 20
10.744651
 30
0.0
 10
15.503751
 20
10.451131
 30
0.0
  0
LWPOLYLINE
  5
137
100
AcDbEntity
  8
cut
 62
7
100
AcDbPolyline
 90
2
 70
0
 10
13.908325
 20
2.871474
 30
0.0
 10
13.908325
 20
3.937761
 30
0.0
  0
LWPOLYLINE
  5
138
100
AcDbEntity
  8
cut
 62
7
100
AcDbPolyline
 90
2
 70
0
 10
13.908325
 20
2.385106
 30
0.0
 10
13.908325
 20
2.737866
 30
0.0
  0
LWPOLYLINE
  5
139
100
AcDbEntity
  8
cut
 62
7
100
AcDbPolyline
 90
2
 70
0
 10
13.908325
 20
0.571588
 30
0.0
 10
13.908325
 20
2.140510
 30
0.0
  0
LWPOLYLINE
  5
13a
100
AcDbEntity
  8
cut
 62
7
100
AcDbPolyline
 90
2
 70
0
 10
17.087392
 20
2.979455
 30
0.0
 10
17.087392
 20
7.293953
 30
0.0
  0
LWPOLYLINE
  5
13b
100
AcDbEntity
  8
cut
 62
7
100
AcDbPolyline
 90
2
 70
0
 10
17.087392
 20
2.165158
 30
0.0
 10
17.087392
 20
2.968261
 30
0.0
  0
LWPOLYLINE
  5
13c
100
AcDbEntity
  8
cut
 62
7
100
AcDbPolyline
 90
6
 70
0
 10
13.886665
 20
8.851532
 30
0.0
 10
12.349418
 20
8.851532
 30
0.0
 10
12.069918
 20
8.572033
 30
0.0
 10
12.069918
 20
5.806982
 30
0.0
 10
12.349418
 20
5.527483
 30
0.0
 10
13.906630
 20
5.527483
 30
0.0
  0
LWPOLYLINE
  5
13d
100
AcDbEntity
  8
cut
 62
7
100
AcDbPolyline
 90
3
 70
0
 10
17.071284
 20
8.854097
 30
0.0
 10
15.478265
 20
8.854097
 30
0.0
 10
15.478265
 20
7.287628
 30
0.0
  0
LWPOLYLINE
  5
13e
100
AcDbEntity
  8
cut
 62
7
100
AcDbPolyline
 90
4
 70
1
 10
14.526490
 20
9.729493
 30
0.0
 10
14.985260
 20
9.719298
 30
0.0
 10
14.985260
 20
7.328600
 30
0.0
 10
14.526490
 20
7.328600
 30
0.0
  0
LWPOLYLINE
  5
13f
100
AcDbEntity
  8
cut
 62
7
100
AcDbPolyline
 90
4
 70
1
 10
14.567270
 20
3.513046
 30
0.0
 10
15.026039
 20
3.502851
 30
0.0
 10
15.026039
 20
1.112154
 30
0.0
 10
14.567270
 20
1.112154
 30
0.0
  0
LWPOLYLINE
  5
140
100
AcDbEntity
  8
cut
 62
7
100
AcDbPolyline
 90
2
 70
0
 10
15.492239
 20
0.553917
 30
0.0
 10
14.688521
 20
0.553917
 30
0.0
  0
LWPOLYLINE
  5
141
100
AcDbEntity
  8
cut
 62
7
100
AcDbPolyline
 90
2
 70
0
 10
13.928062
 20
10.448328
 30
0.0
 10
14.731781
 20
10.448328
 30
0.0
  0
LWPOLYLINE
  5
142
100
AcDbEntity
  8
cut
 62
7
100
AcDbPolyline
 90
4
 70
1
 10
12.327567
 20
7.381141
 30
0.0
 10
12.389405
 20
7.344496
 30
0.0
 10
12.398566
 20
7.016983
 30
0.0
 10
12.316115
 20
7.005531
 30
0.0
  0
LWPOLYLINE
  5
143
100
AcDbEntity
  8
cut
 62
7
100
AcDbPolyline
 90
4
 70
0
 10
13.909492
 20
2.390844
 30
0.0
 10
13.667273
 20
2.390844
 30
0.0
 10
13.667273
 20
2.139309
 30
0.0
 10
13.909492
 20
2.139309
 30
0.0
  0
LWPOLYLINE
  5
144
100
AcDbEntity
  8
cut
 62
7
100
AcDbPolyline
 90
3
 70
0
 10
15.957813
 20
2.870265
 30
0.0
 10
15.957813
 20
3.358460
 30
0.0
 10
17.095400
 20
3.358460
 30
0.0
  0
LWPOLYLINE
  5
145
100
AcDbEntity
  8
cut
 62
7
100
AcDbPolyline
 90
6
 70
0
 10
11.002572
 20
3.169260
 30
0.0
 10
10.071870
 20
3.169260
 30
0.0
 10
9.898071
 20
3.343060
 30
0.0
 10
9.898071
 20
4.119979
 30
0.0
 10
10.065540
 20
4.287448
 30
0.0
 10
11.024511
 20
4.287685
 30
0.0
  0
LWPOLYLINE
  5
146
100
AcDbEntity
  8
cut
 62
7
100
AcDbPolyline
 90
3
 70
0
 10
12.369542
 20
3.172915
 30
0.0
 10
12.369542
 20
3.169257
 30
0.0
 10
11.209595
 20
3.169257
 30
0.0
  0
LWPOLYLINE
  5
147
100
AcDbEntity
  8
cut
 62
7
100
AcDbPolyline
 90
4
 70
0
 10
11.217942
 20
4.287743
 30
0.0
 10
12.371552
 20
4.288019
 30
0.0
 10
12.371552
 20
4.288019
 30
0.0
 10
12.371552
 20
4.284901
 30
0.0
  0
LWPOLYLINE
  5
148
100
AcDbEntity
  8
cut
 62
7
100
AcDbPolyline
 90
2
 70
0
 10
12.372711
 20
4.286530
 30
0.0
 10
12.749649
 20
4.153793
 30
0.0
  0
LWPOLYLINE
  5
149
100
AcDbEntity
  8
cut
 62
7
100
AcDbPolyline
 90
3
 70
0
 10
12.367591
 20
3.169312
 30
0.0
 10
12.755745
 20
3.302812
 30
0.0
 10
12.755745
 20
4.160027
 30
0.0
  0
LWPOLYLINE
  5
14a
100
AcDbEntity
  8
cut
 62
7
100
AcDbPolyline
 90
2
 70
0
 10
10.072696
 20
3.747713
 30
0.0
 10
10.070472
 20
3.168532
 30
0.0
  0
LWPOLYLINE
  5
14b
100
AcDbEntity
  8
cut
 62
7
100
AcDbPolyline
 90
2
 70
0
 10
12.377021
 20
4.281211
 30
0.0
 10
12.374793
 20
3.740735
 30
0.0
  0
SPLINE
  5
14c
100
AcDbEntity
  8
cut
 62
7
100
AcDbSpline
 70
0
 71
3
 72
13
 73
9
 74
7
 40
0.000000
 40
0.000000
 40
0.000000
 40
0.000000
 40
0.161315
 40
0.319141
 40
0.480456
 40
0.653200
 40
0.821722
 40
0.994465
 40
0.994465
 40
0.994465
 40
0.994465
 10
1.881083
 20
4.291398
 30
0.0
 10
1.830487
 20
4.312066
 30
0.0
 10
1.730391
 20
4.352954
 30
0.0
 10
1.630754
 20
4.487697
 30
0.0
 10
1.593406
 20
4.652136
 30
0.0
 10
1.634299
 20
4.820355
 30
0.0
 10
1.748155
 20
4.960299
 30
0.0
 10
1.858739
 20
4.995000
 30
0.0
 10
1.914715
 20
5.012565
 30
0.0
 11
1.881083
 21
4.291398
 31
0.0
 11
1.737961
 21
4.365822
 31
0.0
 11
1.641738
 21
4.490922
 31
0.0
 11
1.606527
 21
4.648347
 31
0.0
 11
1.646896
 21
4.816308
 31
0.0
 11
1.755752
 21
4.944954
 31
0.0
 11
1.914715
 21
5.012565
 31
0.0
  0
LWPOLYLINE
  5
14d
100
AcDbEntity
  8
cut
 62
7
100
AcDbPolyline
 90
2
 70
0
 10
12.400186
 20
4.285698
 30
0.0
 10
12.397957
 20
3.745222
 30
0.0
  0
SPLINE
  5
14e
100
AcDbEntity
  8
cut
 62
7
100
AcDbSpline
 70
0
 71
3
 72
13
 73
9
 74
7
 40
0.000000
 40
0.000000
 40
0.000000
 40
0.000000
 40
0.113193
 40
0.225118
 40
0.338310
 40
0.500177
 40
0.658520
 40
0.820387
 40
0.820387
 40
0.820387
 40
0.820387
 10
11.351169
 20
4.942038
 30
0.0
 10
11.379246
 20
4.916383
 30
0.0
 10
11.435085
 20
4.865361
 30
0.0
 10
11.484684
 20
4.761181
 30
0.0
 10
11.505250
 20
4.632112
 30
0.0
 10
11.472254
 20
4.487057
 30
0.0
 10
11.371943
 20
4.352089
 30
0.0
 10
11.271336
 20
4.311459
 30
0.0
 10
11.220480
 20
4.290921
 30
0.0
 11
11.351169
 21
4.942038
 31
0.0
 11
11.429626
 21
4.860447
 31
0.0
 11
11.479297
 21
4.760148
 31
0.0
 11
11.496641
 21
4.648292
 31
0.0
 11
11.461189
 21
4.490355
 31
0.0
 11
11.364368
 21
4.365062
 31
0.0
 11
11.220480
 21
4.290921
 31
0.0
  0
LWPOLYLINE
  5
14f
100
AcDbEntity
  8
cut
 62
7
100
AcDbPolyline
 90
1
 70
1
 10
11.496641
 20
4.648292
 30
0.0
  0
LWPOLYLINE
  5
150
100
AcDbEntity
  8
cut
 62
7
100
AcDbPolyline
 90
2
 70
0
 10
16.465702
 20
5.510830
 30
0.0
 10
17.082447
 20
5.508610
 30
0.0
  0
LWPOLYLINE
  5
151
100
AcDbEntity
  8
cut
 62
7
100
AcDbPolyline
 90
2
 70
0
 10
11.782266
 20
2.277982
 30
0.0
 10
11.157716
 20
2.277982
 30
0.0
  0
LWPOLYLINE
  5
152
100
AcDbEntity
  8
cut
 62
7
100
AcDbPolyline
 90
2
 70
0
 10
11.784045
 20
1.012432
 30
0.0
 10
11.159494
 20
1.012432
 30
0.0
  0
LWPOLYLINE
  5
153
100
AcDbEntity
  8
cut
 62
7
100
AcDbPolyline
 90
2
 70
0
 10
11.784449
 20
2.259872
 30
0.0
 10
11.784449
 20
2.884422
 30
0.0
  0
LWPOLYLINE
  5
154
100
AcDbEntity
  8
cut
 62
7
100
AcDbPolyline
 90
2
 70
0
 10
11.788128
 20
0.391156
 30
0.0
 10
11.788128
 20
1.015706
 30
0.0
  0
LWPOLYLINE
  5
155
100
AcDbEntity
  8
cut
 62
7
100
AcDbPolyline
 90
2
 70
0
 10
11.166448
 20
1.579370
 30
0.0
 10
11.166448
 20
1.016110
 30
0.0
  0
LWPOLYLINE
  5
156
100
AcDbEntity
  8
cut
 62
7
100
AcDbPolyline
 90
2
 70
0
 10
11.166448
 20
2.274183
 30
0.0
 10
11.166448
 20
1.723374
 30
0.0
  0
LWPOLYLINE
  5
157
100
AcDbEntity
  8
cut
 62
7
100
AcDbPolyline
 90
2
 70
0
 10
12.359320
 20
0.725764
 30
0.0
 10
12.824371
 20
0.994261
 30
0.0
  0
LWPOLYLINE
  5
158
100
AcDbEntity
  8
cut
 62
7
100
AcDbPolyline
 90
2
 70
0
 10
11.791806
 20
0.398109
 30
0.0
 10
12.213867
 20
0.641787
 30
0.0
  0
LWPOLYLINE
  5
159
100
AcDbEntity
  8
cut
 62
7
100
AcDbPolyline
 90
2
 70
0
 10
12.133320
 20
2.663186
 30
0.0
 10
11.781638
 20
2.866230
 30
0.0
  0
LWPOLYLINE
  5
15a
100
AcDbEntity
  8
cut
 62
7
100
AcDbPolyline
 90
2
 70
0
 10
12.807093
 20
2.274183
 30
0.0
 10
12.302981
 20
2.565232
 30
0.0
  0
LWPOLYLINE
  5
15b
100
AcDbEntity
  8
cut
 62
7
100
AcDbPolyline
 90
2
 70
0
 10
12.805043
 20
1.573391
 30
0.0
 10
12.805043
 20
0.986314
 30
0.0
  0
LWPOLYLINE
  5
15c
100
AcDbEntity
  8
cut
 62
7
100
AcDbPolyline
 90
2
 70
0
 10
12.805043
 20
2.270818
 30
0.0
 10
12.805043
 20
1.713934
 30
0.0
  0
LWPOLYLINE
  5
15d
100
AcDbEntity
  8
cut
 62
7
100
AcDbPolyline
 90
4
 70
1
 10
13.608761
 20
6.535174
 30
0.0
 10
13.608761
 20
6.265174
 30
0.0
 10
13.625512
 20
6.265174
 30
0.0
 10
13.625512
 20
6.538508
 30
0.0
  0
LWPOLYLINE
  5
15e
100
AcDbEntity
  8
cut
 62
7
100
AcDbPolyline
 90
4
 70
1
 10
12.524374
 20
6.545576
 30
0.0
 10
12.524374
 20
6.276664
 30
0.0
 10
12.544363
 20
6.276664
 30
0.0
 10
12.544363
 20
6.548896
 30
0.0
  0
LWPOLYLINE
  5
15f
100
AcDbEntity
  8
cut
 62
7
100
AcDbPolyline
 90
4
 70
0
 10
2.013227
 20
1.714729
 30
0.0
 10
1.860872
 20
1.714729
 30
0.0
 10
1.860872
 20
1.567966
 30
0.0
 10
2.016022
 20
1.567966
 30
0.0
  0
LWPOLYLINE
  5
160
100
AcDbEntity
  8
cut
 62
7
100
AcDbPolyline
 90
4
 70
0
 10
3.644489
 20
1.712632
 30
0.0
 10
3.796843
 20
1.712632
 30
0.0
 10
3.796843
 20
1.565869
 30
0.0
 10
3.641693
 20
1.565869
 30
0.0
  0
LWPOLYLINE
  5
161
100
AcDbEntity
  8
cut
 62
7
100
AcDbPolyline
 90
4
 70
0
 10
11.176446
 20
1.708359
 30
0.0
 10
11.024091
 20
1.708359
 30
0.0
 10
11.024091
 20
1.561596
 30
0.0
 10
11.179241
 20
1.561596
 30
0.0
  0
LWPOLYLINE
  5
162
100
AcDbEntity
  8
cut
 62
7
100
AcDbPolyline
 90
4
 70
0
 10
12.807707
 20
1.706262
 30
0.0
 10
12.960062
 20
1.706262
 30
0.0
 10
12.960062
 20
1.559499
 30
0.0
 10
12.804912
 20
1.559499
 30
0.0
  0
LWPOLYLINE
  5
163
100
AcDbEntity
  8
outline
 62
7
100
AcDbPolyline
 90
4
 70
1
 10
-0.015760
 20
11.011019
 30
0.0
 10
8.494241
 20
11.011019
 30
0.0
 10
8.494241
 20
-0.088981
 30
0.0
 10
-0.015760
 20
-0.088981
 30
0.0
  0
LWPOLYLINE
  5
164
100
AcDbEntity
  8
outline
 62
7
100
AcDbPolyline
 90
4
 70
1
 10
9.135364
 20
11.011302
 30
0.0
 10
17.645365
 20
11.011302
 30
0.0
 10
17.645365
 20
-0.088698
 30
0.0
 10
9.135364
 20
-0.088698
 30
0.0
  0
LWPOLYLINE
  5
165
100
AcDbEntity
  8
fold
 62
1
100
AcDbPolyline
 90
2
 70
0
 10
6.332155
 20
2.145305
 30
0.0
 10
6.332155
 20
2.166569
 30
0.0
  0
LWPOLYLINE
  5
166
100
AcDbEntity
  8
fold
 62
1
100
AcDbPolyline
 90
2
 70
0
 10
6.332155
 20
1.885486
 30
0.0
 10
6.332155
 20
2.058739
 30
0.0
  0
LWPOLYLINE
  5
167
100
AcDbEntity
  8
fold
 62
1
100
AcDbPolyline
 90
2
 70
0
 10
6.332155
 20
1.625509
 30
0.0
 10
6.332155
 20
1.798801
 30
0.0
  0
LWPOLYLINE
  5
168
100
AcDbEntity
  8
fold
 62
1
100
AcDbPolyline
 90
2
 70
0
 10
6.332155
 20
1.365571
 30
0.0
 10
6.332155
 20
1.538823
 30
0.0
  0
LWPOLYLINE
  5
169
100
AcDbEntity
  8
fold
 62
1
100
AcDbPolyline
 90
2
 70
0
 10
6.332155
 20
1.105633
 30
0.0
 10
6.332155
 20
1.278925
 30
0.0
  0
LWPOLYLINE
  5
16a
100
AcDbEntity
  8
fold
 62
1
100
AcDbPolyline
 90
2
 70
0
 10
6.332155
 20
0.845655
 30
0.0
 10
6.332155
 20
1.018947
 30
0.0
  0
LWPOLYLINE
  5
16b
100
AcDbEntity
  8
fold
 62
1
100
AcDbPolyline
 90
2
 70
0
 10
6.332155
 20
0.585717
 30
0.0
 10
6.332155
 20
0.759009
 30
0.0
  0
LWPOLYLINE
  5
16c
100
AcDbEntity
  8
fold
 62
1
100
AcDbPolyline
 90
2
 70
0
 10
5.308987
 20
0.548815
 30
0.0
 10
5.482263
 20
0.548815
 30
0.0
  0
LWPOLYLINE
  5
16d
100
AcDbEntity
  8
fold
 62
1
100
AcDbPolyline
 90
2
 70
0
 10
5.049073
 20
0.548815
 30
0.0
 10
5.222357
 20
0.548815
 30
0.0
  0
LWPOLYLINE
  5
16e
100
AcDbEntity
  8
fold
 62
1
100
AcDbPolyline
 90
2
 70
0
 10
4.789203
 20
0.548815
 30
0.0
 10
4.962456
 20
0.548815
 30
0.0
  0
LWPOLYLINE
  5
16f
100
AcDbEntity
  8
fold
 62
1
100
AcDbPolyline
 90
2
 70
0
 10
7.051762
 20
5.507575
 30
0.0
 10
7.225014
 20
5.507575
 30
0.0
  0
LWPOLYLINE
  5
170
100
AcDbEntity
  8
fold
 62
1
100
AcDbPolyline
 90
2
 70
0
 10
6.791904
 20
5.507575
 30
0.0
 10
6.965156
 20
5.507575
 30
0.0
  0
LWPOLYLINE
  5
171
100
AcDbEntity
  8
fold
 62
1
100
AcDbPolyline
 90
2
 70
0
 10
6.531926
 20
5.507575
 30
0.0
 10
6.705218
 20
5.507575
 30
0.0
  0
LWPOLYLINE
  5
172
100
AcDbEntity
  8
fold
 62
1
100
AcDbPolyline
 90
2
 70
0
 10
6.271988
 20
5.507575
 30
0.0
 10
6.445240
 20
5.507575
 30
0.0
  0
LWPOLYLINE
  5
173
100
AcDbEntity
  8
fold
 62
1
100
AcDbPolyline
 90
2
 70
0
 10
6.012050
 20
5.507575
 30
0.0
 10
6.185342
 20
5.507575
 30
0.0
  0
LWPOLYLINE
  5
174
100
AcDbEntity
  8
fold
 62
1
100
AcDbPolyline
 90
2
 70
0
 10
5.752133
 20
5.507575
 30
0.0
 10
5.925448
 20
5.507575
 30
0.0
  0
LWPOLYLINE
  5
175
100
AcDbEntity
  8
fold
 62
1
100
AcDbPolyline
 90
2
 70
0
 10
5.492158
 20
5.507575
 30
0.0
 10
5.665474
 20
5.507575
 30
0.0
  0
LWPOLYLINE
  5
176
100
AcDbEntity
  8
fold
 62
1
100
AcDbPolyline
 90
2
 70
0
 10
5.232241
 20
5.507575
 30
0.0
 10
5.405500
 20
5.507575
 30
0.0
  0
LWPOLYLINE
  5
177
100
AcDbEntity
  8
fold
 62
1
100
AcDbPolyline
 90
2
 70
0
 10
4.972294
 20
5.507575
 30
0.0
 10
5.145574
 20
5.507575
 30
0.0
  0
LWPOLYLINE
  5
178
100
AcDbEntity
  8
fold
 62
1
100
AcDbPolyline
 90
3
 70
0
 10
4.765120
 20
5.454815
 30
0.0
 10
4.765120
 20
5.507575
 30
0.0
 10
4.885641
 20
5.507575
 30
0.0
  0
LWPOLYLINE
  5
179
100
AcDbEntity
  8
fold
 62
1
100
AcDbPolyline
 90
2
 70
0
 10
4.765120
 20
5.194837
 30
0.0
 10
4.765120
 20
5.368130
 30
0.0
  0
LWPOLYLINE
  5
17a
100
AcDbEntity
  8
fold
 62
1
100
AcDbPolyline
 90
2
 70
0
 10
4.765120
 20
4.934860
 30
0.0
 10
4.765120
 20
5.108112
 30
0.0
  0
LWPOLYLINE
  5
17b
100
AcDbEntity
  8
fold
 62
1
100
AcDbPolyline
 90
2
 70
0
 10
4.765120
 20
4.674961
 30
0.0
 10
4.765120
 20
4.848254
 30
0.0
  0
LWPOLYLINE
  5
17c
100
AcDbEntity
  8
fold
 62
1
100
AcDbPolyline
 90
2
 70
0
 10
4.765120
 20
4.415023
 30
0.0
 10
4.765120
 20
4.588315
 30
0.0
  0
LWPOLYLINE
  5
17d
100
AcDbEntity
  8
fold
 62
1
100
AcDbPolyline
 90
2
 70
0
 10
4.765120
 20
4.155125
 30
0.0
 10
4.765120
 20
4.328417
 30
0.0
  0
LWPOLYLINE
  5
17e
100
AcDbEntity
  8
fold
 62
1
100
AcDbPolyline
 90
3
 70
0
 10
4.800313
 20
3.930387
 30
0.0
 10
4.765120
 20
3.930387
 30
0.0
 10
4.765120
 20
4.068480
 30
0.0
  0
LWPOLYLINE
  5
17f
100
AcDbEntity
  8
fold
 62
1
100
AcDbPolyline
 90
2
 70
0
 10
5.060187
 20
3.930387
 30
0.0
 10
4.886970
 20
3.930387
 30
0.0
  0
LWPOLYLINE
  5
180
100
AcDbEntity
  8
fold
 62
1
100
AcDbPolyline
 90
2
 70
0
 10
5.320193
 20
3.930387
 30
0.0
 10
5.146865
 20
3.930387
 30
0.0
  0
LWPOLYLINE
  5
181
100
AcDbEntity
  8
fold
 62
1
100
AcDbPolyline
 90
2
 70
0
 10
5.580178
 20
3.930387
 30
0.0
 10
5.406866
 20
3.930387
 30
0.0
  0
LWPOLYLINE
  5
182
100
AcDbEntity
  8
fold
 62
1
100
AcDbPolyline
 90
2
 70
0
 10
5.840072
 20
3.930387
 30
0.0
 10
5.666800
 20
3.930387
 30
0.0
  0
LWPOLYLINE
  5
183
100
AcDbEntity
  8
fold
 62
1
100
AcDbPolyline
 90
2
 70
0
 10
6.100011
 20
3.930387
 30
0.0
 10
5.926719
 20
3.930387
 30
0.0
  0
LWPOLYLINE
  5
184
100
AcDbEntity
  8
fold
 62
1
100
AcDbPolyline
 90
2
 70
0
 10
6.359948
 20
3.930387
 30
0.0
 10
6.186656
 20
3.930387
 30
0.0
  0
LWPOLYLINE
  5
185
100
AcDbEntity
  8
fold
 62
1
100
AcDbPolyline
 90
2
 70
0
 10
6.619846
 20
3.930387
 30
0.0
 10
6.446594
 20
3.930387
 30
0.0
  0
LWPOLYLINE
  5
186
100
AcDbEntity
  8
fold
 62
1
100
AcDbPolyline
 90
2
 70
0
 10
6.879824
 20
3.930387
 30
0.0
 10
6.706532
 20
3.930387
 30
0.0
  0
LWPOLYLINE
  5
187
100
AcDbEntity
  8
fold
 62
1
100
AcDbPolyline
 90
2
 70
0
 10
7.139722
 20
3.930387
 30
0.0
 10
6.966430
 20
3.930387
 30
0.0
  0
LWPOLYLINE
  5
188
100
AcDbEntity
  8
fold
 62
1
100
AcDbPolyline
 90
2
 70
0
 10
7.399620
 20
3.930387
 30
0.0
 10
7.226368
 20
3.930387
 30
0.0
  0
LWPOLYLINE
  5
189
100
AcDbEntity
  8
fold
 62
1
100
AcDbPolyline
 90
2
 70
0
 10
7.659558
 20
3.930387
 30
0.0
 10
7.486267
 20
3.930387
 30
0.0
  0
LWPOLYLINE
  5
18a
100
AcDbEntity
  8
fold
 62
1
100
AcDbPolyline
 90
2
 70
0
 10
7.919456
 20
3.930387
 30
0.0
 10
7.746164
 20
3.930387
 30
0.0
  0
LWPOLYLINE
  5
18b
100
AcDbEntity
  8
fold
 62
1
100
AcDbPolyline
 90
2
 70
0
 10
4.795069
 20
10.206268
 30
0.0
 10
4.795069
 20
10.379568
 30
0.0
  0
LWPOLYLINE
  5
18c
100
AcDbEntity
  8
fold
 62
1
100
AcDbPolyline
 90
2
 70
0
 10
4.795069
 20
9.946365
 30
0.0
 10
4.795069
 20
10.119618
 30
0.0
  0
LWPOLYLINE
  5
18d
100
AcDbEntity
  8
fold
 62
1
100
AcDbPolyline
 90
2
 70
0
 10
4.795069
 20
9.686416
 30
0.0
 10
4.795069
 20
9.859716
 30
0.0
  0
LWPOLYLINE
  5
18e
100
AcDbEntity
  8
fold
 62
1
100
AcDbPolyline
 90
2
 70
0
 10
4.795069
 20
9.426490
 30
0.0
 10
4.795069
 20
9.599742
 30
0.0
  0
LWPOLYLINE
  5
18f
100
AcDbEntity
  8
fold
 62
1
100
AcDbPolyline
 90
2
 70
0
 10
4.795069
 20
9.166556
 30
0.0
 10
4.795069
 20
9.339868
 30
0.0
  0
LWPOLYLINE
  5
190
100
AcDbEntity
  8
fold
 62
1
100
AcDbPolyline
 90
2
 70
0
 10
4.795069
 20
8.906610
 30
0.0
 10
4.795069
 20
9.079918
 30
0.0
  0
LWPOLYLINE
  5
191
100
AcDbEntity
  8
fold
 62
1
100
AcDbPolyline
 90
2
 70
0
 10
4.795069
 20
8.646676
 30
0.0
 10
4.795069
 20
8.819964
 30
0.0
  0
LWPOLYLINE
  5
192
100
AcDbEntity
  8
fold
 62
1
100
AcDbPolyline
 90
2
 70
0
 10
4.795069
 20
8.386758
 30
0.0
 10
4.795069
 20
8.560026
 30
0.0
  0
LWPOLYLINE
  5
193
100
AcDbEntity
  8
fold
 62
1
100
AcDbPolyline
 90
2
 70
0
 10
4.795069
 20
8.126824
 30
0.0
 10
4.795069
 20
8.300116
 30
0.0
  0
LWPOLYLINE
  5
194
100
AcDbEntity
  8
fold
 62
1
100
AcDbPolyline
 90
2
 70
0
 10
4.795069
 20
7.866910
 30
0.0
 10
4.795069
 20
8.040186
 30
0.0
  0
LWPOLYLINE
  5
195
100
AcDbEntity
  8
fold
 62
1
100
AcDbPolyline
 90
2
 70
0
 10
4.795069
 20
7.606992
 30
0.0
 10
4.795069
 20
7.780256
 30
0.0
  0
LWPOLYLINE
  5
196
100
AcDbEntity
  8
fold
 62
1
100
AcDbPolyline
 90
2
 70
0
 10
4.795069
 20
7.347062
 30
0.0
 10
4.795069
 20
7.520370
 30
0.0
  0
LWPOLYLINE
  5
197
100
AcDbEntity
  8
fold
 62
1
100
AcDbPolyline
 90
2
 70
0
 10
4.795069
 20
7.087140
 30
0.0
 10
4.795069
 20
7.260408
 30
0.0
  0
LWPOLYLINE
  5
198
100
AcDbEntity
  8
fold
 62
1
100
AcDbPolyline
 90
2
 70
0
 10
4.795069
 20
6.827214
 30
0.0
 10
4.795069
 20
7.000510
 30
0.0
  0
LWPOLYLINE
  5
199
100
AcDbEntity
  8
fold
 62
1
100
AcDbPolyline
 90
2
 70
0
 10
4.795069
 20
6.567276
 30
0.0
 10
4.795069
 20
6.740528
 30
0.0
  0
LWPOLYLINE
  5
19a
100
AcDbEntity
  8
fold
 62
1
100
AcDbPolyline
 90
2
 70
0
 10
4.795069
 20
6.307338
 30
0.0
 10
4.795069
 20
6.480630
 30
0.0
  0
LWPOLYLINE
  5
19b
100
AcDbEntity
  8
fold
 62
1
100
AcDbPolyline
 90
2
 70
0
 10
4.795069
 20
6.047400
 30
0.0
 10
4.795069
 20
6.220732
 30
0.0
  0
LWPOLYLINE
  5
19c
100
AcDbEntity
  8
fold
 62
1
100
AcDbPolyline
 90
2
 70
0
 10
4.795069
 20
5.787422
 30
0.0
 10
4.795069
 20
5.960715
 30
0.0
  0
LWPOLYLINE
  5
19d
100
AcDbEntity
  8
fold
 62
1
100
AcDbPolyline
 90
2
 70
0
 10
4.795069
 20
5.527524
 30
0.0
 10
4.795069
 20
5.700816
 30
0.0
  0
LWPOLYLINE
  5
19e
100
AcDbEntity
  8
fold
 62
1
100
AcDbPolyline
 90
2
 70
0
 10
6.094715
 20
8.851588
 30
0.0
 10
6.268006
 20
8.851588
 30
0.0
  0
LWPOLYLINE
  5
19f
100
AcDbEntity
  8
fold
 62
1
100
AcDbPolyline
 90
2
 70
0
 10
5.834753
 20
8.851588
 30
0.0
 10
6.008029
 20
8.851588
 30
0.0
  0
LWPOLYLINE
  5
1a0
100
AcDbEntity
  8
fold
 62
1
100
AcDbPolyline
 90
2
 70
0
 10
5.574834
 20
8.851588
 30
0.0
 10
5.748139
 20
8.851588
 30
0.0
  0
LWPOLYLINE
  5
1a1
100
AcDbEntity
  8
fold
 62
1
100
AcDbPolyline
 90
2
 70
0
 10
5.314861
 20
8.851588
 30
0.0
 10
5.488185
 20
8.851588
 30
0.0
  0
LWPOLYLINE
  5
1a2
100
AcDbEntity
  8
fold
 62
1
100
AcDbPolyline
 90
2
 70
0
 10
5.054943
 20
8.851588
 30
0.0
 10
5.228234
 20
8.851588
 30
0.0
  0
LWPOLYLINE
  5
1a3
100
AcDbEntity
  8
fold
 62
1
100
AcDbPolyline
 90
2
 70
0
 10
4.795069
 20
8.851588
 30
0.0
 10
4.968329
 20
8.851588
 30
0.0
  0
LWPOLYLINE
  5
1a4
100
AcDbEntity
  8
fold
 62
1
100
AcDbPolyline
 90
2
 70
0
 10
6.619886
 20
7.284395
 30
0.0
 10
6.446554
 20
7.284395
 30
0.0
  0
LWPOLYLINE
  5
1a5
100
AcDbEntity
  8
fold
 62
1
100
AcDbPolyline
 90
2
 70
0
 10
6.879864
 20
7.284395
 30
0.0
 10
6.706532
 20
7.284395
 30
0.0
  0
LWPOLYLINE
  5
1a6
100
AcDbEntity
  8
fold
 62
1
100
AcDbPolyline
 90
2
 70
0
 10
7.139802
 20
7.284395
 30
0.0
 10
6.966470
 20
7.284395
 30
0.0
  0
LWPOLYLINE
  5
1a7
100
AcDbEntity
  8
fold
 62
1
100
AcDbPolyline
 90
2
 70
0
 10
7.399700
 20
7.284395
 30
0.0
 10
7.226408
 20
7.284395
 30
0.0
  0
LWPOLYLINE
  5
1a8
100
AcDbEntity
  8
fold
 62
1
100
AcDbPolyline
 90
2
 70
0
 10
7.659558
 20
7.284395
 30
0.0
 10
7.486306
 20
7.284395
 30
0.0
  0
LWPOLYLINE
  5
1a9
100
AcDbEntity
  8
fold
 62
1
100
AcDbPolyline
 90
2
 70
0
 10
7.919456
 20
7.284395
 30
0.0
 10
7.746204
 20
7.284395
 30
0.0
  0
LWPOLYLINE
  5
1aa
100
AcDbEntity
  8
fold
 62
1
100
AcDbPolyline
 90
2
 70
0
 10
6.868031
 20
2.866806
 30
0.0
 10
6.799702
 20
2.866806
 30
0.0
  0
LWPOLYLINE
  5
1ab
100
AcDbEntity
  8
fold
 62
1
100
AcDbPolyline
 90
2
 70
0
 10
7.127969
 20
2.866806
 30
0.0
 10
6.954677
 20
2.866806
 30
0.0
  0
LWPOLYLINE
  5
1ac
100
AcDbEntity
  8
fold
 62
1
100
AcDbPolyline
 90
2
 70
0
 10
7.387907
 20
2.866806
 30
0.0
 10
7.214575
 20
2.866806
 30
0.0
  0
LWPOLYLINE
  5
1ad
100
AcDbEntity
  8
fold
 62
1
100
AcDbPolyline
 90
2
 70
0
 10
7.647805
 20
2.866806
 30
0.0
 10
7.474513
 20
2.866806
 30
0.0
  0
LWPOLYLINE
  5
1ae
100
AcDbEntity
  8
fold
 62
1
100
AcDbPolyline
 90
2
 70
0
 10
7.907743
 20
2.866806
 30
0.0
 10
7.734451
 20
2.866806
 30
0.0
  0
LWPOLYLINE
  5
1af
100
AcDbEntity
  8
fold
 62
1
100
AcDbPolyline
 90
2
 70
0
 10
3.207906
 20
5.732472
 30
0.0
 10
3.207906
 20
5.559180
 30
0.0
  0
LWPOLYLINE
  5
1b0
100
AcDbEntity
  8
fold
 62
1
100
AcDbPolyline
 90
2
 70
0
 10
3.207906
 20
5.992410
 30
0.0
 10
3.207906
 20
5.819158
 30
0.0
  0
LWPOLYLINE
  5
1b1
100
AcDbEntity
  8
fold
 62
1
100
AcDbPolyline
 90
2
 70
0
 10
3.207906
 20
6.252348
 30
0.0
 10
3.207906
 20
6.079096
 30
0.0
  0
LWPOLYLINE
  5
1b2
100
AcDbEntity
  8
fold
 62
1
100
AcDbPolyline
 90
2
 70
0
 10
3.207906
 20
6.512326
 30
0.0
 10
3.207906
 20
6.338994
 30
0.0
  0
LWPOLYLINE
  5
1b3
100
AcDbEntity
  8
fold
 62
1
100
AcDbPolyline
 90
2
 70
0
 10
3.207906
 20
6.772264
 30
0.0
 10
3.207906
 20
6.598972
 30
0.0
  0
LWPOLYLINE
  5
1b4
100
AcDbEntity
  8
fold
 62
1
100
AcDbPolyline
 90
2
 70
0
 10
3.207906
 20
7.032198
 30
0.0
 10
3.207906
 20
6.858910
 30
0.0
  0
LWPOLYLINE
  5
1b5
100
AcDbEntity
  8
fold
 62
1
100
AcDbPolyline
 90
2
 70
0
 10
3.207906
 20
7.551934
 30
0.0
 10
3.207906
 20
7.378686
 30
0.0
  0
LWPOLYLINE
  5
1b6
100
AcDbEntity
  8
fold
 62
1
100
AcDbPolyline
 90
2
 70
0
 10
3.207906
 20
7.811852
 30
0.0
 10
3.207906
 20
7.638580
 30
0.0
  0
LWPOLYLINE
  5
1b7
100
AcDbEntity
  8
fold
 62
1
100
AcDbPolyline
 90
2
 70
0
 10
3.207906
 20
8.071822
 30
0.0
 10
3.207906
 20
7.898498
 30
0.0
  0
LWPOLYLINE
  5
1b8
100
AcDbEntity
  8
fold
 62
1
100
AcDbPolyline
 90
2
 70
0
 10
3.207906
 20
8.331764
 30
0.0
 10
3.207906
 20
8.158460
 30
0.0
  0
LWPOLYLINE
  5
1b9
100
AcDbEntity
  8
fold
 62
1
100
AcDbPolyline
 90
2
 70
0
 10
3.207906
 20
8.591710
 30
0.0
 10
3.207906
 20
8.418422
 30
0.0
  0
LWPOLYLINE
  5
1ba
100
AcDbEntity
  8
fold
 62
1
100
AcDbPolyline
 90
2
 70
0
 10
3.207906
 20
8.851588
 30
0.0
 10
3.207906
 20
8.678340
 30
0.0
  0
LWPOLYLINE
  5
1bb
100
AcDbEntity
  8
fold
 62
1
100
AcDbPolyline
 90
2
 70
0
 10
3.648978
 20
2.267856
 30
0.0
 10
3.477600
 20
2.267856
 30
0.0
  0
LWPOLYLINE
  5
1bc
100
AcDbEntity
  8
fold
 62
1
100
AcDbPolyline
 90
2
 70
0
 10
3.306289
 20
2.267856
 30
0.0
 10
3.134919
 20
2.267856
 30
0.0
  0
LWPOLYLINE
  5
1bd
100
AcDbEntity
  8
fold
 62
1
100
AcDbPolyline
 90
2
 70
0
 10
2.963577
 20
2.267856
 30
0.0
 10
2.792234
 20
2.267856
 30
0.0
  0
LWPOLYLINE
  5
1be
100
AcDbEntity
  8
fold
 62
1
100
AcDbPolyline
 90
2
 70
0
 10
2.628525
 20
2.260257
 30
0.0
 10
2.628525
 20
2.088919
 30
0.0
  0
LWPOLYLINE
  5
1bf
100
AcDbEntity
  8
fold
 62
1
100
AcDbPolyline
 90
2
 70
0
 10
2.628525
 20
1.917619
 30
0.0
 10
2.628525
 20
1.746281
 30
0.0
  0
LWPOLYLINE
  5
1c0
100
AcDbEntity
  8
fold
 62
1
100
AcDbPolyline
 90
2
 70
0
 10
2.628525
 20
1.574981
 30
0.0
 10
2.628525
 20
1.403604
 30
0.0
  0
LWPOLYLINE
  5
1c1
100
AcDbEntity
  8
fold
 62
1
100
AcDbPolyline
 90
2
 70
0
 10
2.628525
 20
1.232265
 30
0.0
 10
2.628525
 20
1.060887
 30
0.0
  0
LWPOLYLINE
  5
1c2
100
AcDbEntity
  8
fold
 62
1
100
AcDbPolyline
 90
2
 70
0
 10
2.738624
 20
0.999706
 30
0.0
 10
2.910002
 20
0.999706
 30
0.0
  0
LWPOLYLINE
  5
1c3
100
AcDbEntity
  8
fold
 62
1
100
AcDbPolyline
 90
2
 70
0
 10
3.081376
 20
0.999706
 30
0.0
 10
3.252738
 20
0.999706
 30
0.0
  0
LWPOLYLINE
  5
1c4
100
AcDbEntity
  8
fold
 62
1
100
AcDbPolyline
 90
2
 70
0
 10
3.424018
 20
0.999706
 30
0.0
 10
3.595368
 20
0.999706
 30
0.0
  0
LWPOLYLINE
  5
1c5
100
AcDbEntity
  8
fold
 62
1
100
AcDbPolyline
 90
2
 70
0
 10
5.808331
 20
10.443226
 30
0.0
 10
5.635055
 20
10.443226
 30
0.0
  0
LWPOLYLINE
  5
1c6
100
AcDbEntity
  8
fold
 62
1
100
AcDbPolyline
 90
2
 70
0
 10
6.068244
 20
10.443226
 30
0.0
 10
5.894961
 20
10.443226
 30
0.0
  0
SPLINE
  5
1c7
100
AcDbEntity
  8
cut
 62
7
100
AcDbSpline
 70
0
 71
3
 72
13
 73
9
 74
7
 40
0.000000
 40
0.000000
 40
0.000000
 40
0.000000
 40
0.161315
 40
0.319141
 40
0.480456
 40
0.653200
 40
0.821722
 40
0.994465
 40
0.994465
 40
0.994465
 40
0.994465
 10
11.032574
 20
4.291343
 30
0.0
 10
10.981979
 20
4.312011
 30
0.0
 10
10.881883
 20
4.352899
 30
0.0
 10
10.782246
 20
4.487641
 30
0.0
 10
10.744898
 20
4.652081
 30
0.0
 10
10.785791
 20
4.820300
 30
0.0
 10
10.899647
 20
4.960243
 30
0.0
 10
11.010231
 20
4.994944
 30
0.0
 10
11.066207
 20
5.012510
 30
0.0
 11
11.032574
 21
4.291343
 31
0.0
 11
10.889453
 21
4.365767
 31
0.0
 11
10.793229
 21
4.490866
 31
0.0
 11
10.758019
 21
4.648292
 31
0.0
 11
10.798388
 21
4.816252
 31
0.0
 11
10.907244
 21
4.944899
 31
0.0
 11
11.066207
 21
5.012510
 31
0.0
  0
SPLINE
  5
1c8
100
AcDbEntity
  8
fold
 62
1
100
AcDbSpline
 70
0
 71
3
 72
10
 73
6
 74
4
 40
0.000000
 40
0.000000
 40
0.000000
 40
0.000000
 40
0.037464
 40
0.060956
 40
0.069094
 40
0.069094
 40
0.069094
 40
0.069094
 10
0.920900
 20
3.806161
 30
0.0
 10
0.920944
 20
3.793673
 30
0.0
 10
0.921016
 20
3.773354
 30
0.0
 10
0.921094
 20
3.750323
 30
0.0
 10
0.921128
 20
3.739780
 30
0.0
 10
0.921136
 20
3.737067
 30
0.0
 11
0.920900
 21
3.806161
 31
0.0
 11
0.921032
 21
3.768697
 31
0.0
 11
0.921110
 21
3.745205
 31
0.0
 11
0.921136
 21
3.737067
 31
0.0
  0
SPLINE
  5
1c9
100
AcDbEntity
  8
fold
 62
1
100
AcDbSpline
 70
0
 71
3
 72
10
 73
6
 74
4
 40
0.000000
 40
0.000000
 40
0.000000
 40
0.000000
 40
0.034900
 40
0.067900
 40
0.098873
 40
0.098873
 40
0.098873
 40
0.098873
 10
0.920246
 20
4.004046
 30
0.0
 10
0.920293
 20
3.992413
 30
0.0
 10
0.920385
 20
3.969780
 30
0.0
 10
0.920479
 20
3.936823
 30
0.0
 10
0.920534
 20
3.915498
 30
0.0
 10
0.920561
 20
3.905174
 30
0.0
 11
0.920246
 21
4.004046
 31
0.0
 11
0.920380
 21
3.969146
 31
0.0
 11
0.920479
 21
3.936147
 31
0.0
 11
0.920561
 21
3.905174
 31
0.0
  0
SPLINE
  5
1ca
100
AcDbEntity
  8
fold
 62
1
100
AcDbSpline
 70
0
 71
3
 72
10
 73
6
 74
4
 40
0.000000
 40
0.000000
 40
0.000000
 40
0.000000
 40
0.033751
 40
0.066753
 40
0.098934
 40
0.098934
 40
0.098934
 40
0.098934
 10
0.919591
 20
4.201974
 30
0.0
 10
0.919622
 20
4.190724
 30
0.0
 10
0.919683
 20
4.168473
 30
0.0
 10
0.919811
 20
4.135495
 30
0.0
 10
0.919875
 20
4.113768
 30
0.0
 10
0.919906
 20
4.103041
 30
0.0
 11
0.919591
 21
4.201974
 31
0.0
 11
0.919690
 21
4.168223
 31
0.0
 11
0.919807
 21
4.135221
 31
0.0
 11
0.919906
 21
4.103041
 31
0.0
  0
SPLINE
  5
1cb
100
AcDbEntity
  8
fold
 62
1
100
AcDbSpline
 70
0
 71
3
 72
10
 73
6
 74
4
 40
0.000000
 40
0.000000
 40
0.000000
 40
0.000000
 40
0.037465
 40
0.060957
 40
0.069094
 40
0.069094
 40
0.069094
 40
0.069094
 10
3.221435
 20
3.297456
 30
0.0
 10
3.221479
 20
3.284967
 30
0.0
 10
3.221551
 20
3.264649
 30
0.0
 10
3.221629
 20
3.241617
 30
0.0
 10
3.221663
 20
3.231074
 30
0.0
 10
3.221672
 20
3.228361
 30
0.0
 11
3.221435
 21
3.297456
 31
0.0
 11
3.221567
 21
3.259991
 31
0.0
 11
3.221645
 21
3.236499
 31
0.0
 11
3.221672
 21
3.228361
 31
0.0
  0
SPLINE
  5
1cc
100
AcDbEntity
  8
fold
 62
1
100
AcDbSpline
 70
0
 71
3
 72
10
 73
6
 74
4
 40
0.000000
 40
0.000000
 40
0.000000
 40
0.000000
 40
0.034901
 40
0.067900
 40
0.098873
 40
0.098873
 40
0.098873
 40
0.098873
 10
3.220781
 20
3.495341
 30
0.0
 10
3.220828
 20
3.483707
 30
0.0
 10
3.220920
 20
3.461074
 30
0.0
 10
3.221014
 20
3.428117
 30
0.0
 10
3.221069
 20
3.406793
 30
0.0
 10
3.221096
 20
3.396468
 30
0.0
 11
3.220781
 21
3.495341
 31
0.0
 11
3.220915
 21
3.460441
 31
0.0
 11
3.221014
 21
3.427441
 31
0.0
 11
3.221096
 21
3.396468
 31
0.0
  0
LWPOLYLINE
  5
1cd
100
AcDbEntity
  8
fold
 62
1
100
AcDbPolyline
 90
2
 70
0
 10
6.328115
 20
10.443226
 30
0.0
 10
6.154863
 20
10.443226
 30
0.0
  0
LWPOLYLINE
  5
1ce
100
AcDbEntity
  8
fold
 62
1
100
AcDbPolyline
 90
2
 70
0
 10
15.495374
 20
2.138935
 30
0.0
 10
15.495374
 20
2.160198
 30
0.0
  0
LWPOLYLINE
  5
1cf
100
AcDbEntity
  8
fold
 62
1
100
AcDbPolyline
 90
2
 70
0
 10
15.495374
 20
1.879116
 30
0.0
 10
15.495374
 20
2.052369
 30
0.0
  0
LWPOLYLINE
  5
1d0
100
AcDbEntity
  8
fold
 62
1
100
AcDbPolyline
 90
2
 70
0
 10
15.495374
 20
1.619139
 30
0.0
 10
15.495374
 20
1.792431
 30
0.0
  0
LWPOLYLINE
  5
1d1
100
AcDbEntity
  8
fold
 62
1
100
AcDbPolyline
 90
2
 70
0
 10
15.495374
 20
1.359201
 30
0.0
 10
15.495374
 20
1.532453
 30
0.0
  0
LWPOLYLINE
  5
1d2
100
AcDbEntity
  8
fold
 62
1
100
AcDbPolyline
 90
2
 70
0
 10
15.495374
 20
1.099263
 30
0.0
 10
15.495374
 20
1.272555
 30
0.0
  0
LWPOLYLINE
  5
1d3
100
AcDbEntity
  8
fold
 62
1
100
AcDbPolyline
 90
2
 70
0
 10
15.495374
 20
0.839285
 30
0.0
 10
15.495374
 20
1.012577
 30
0.0
  0
LWPOLYLINE
  5
1d4
100
AcDbEntity
  8
fold
 62
1
100
AcDbPolyline
 90
2
 70
0
 10
15.495374
 20
0.579347
 30
0.0
 10
15.495374
 20
0.752639
 30
0.0
  0
LWPOLYLINE
  5
1d5
100
AcDbEntity
  8
fold
 62
1
100
AcDbPolyline
 90
2
 70
0
 10
14.472206
 20
0.542444
 30
0.0
 10
14.645482
 20
0.542444
 30
0.0
  0
LWPOLYLINE
  5
1d6
100
AcDbEntity
  8
fold
 62
1
100
AcDbPolyline
 90
2
 70
0
 10
14.212292
 20
0.542444
 30
0.0
 10
14.385576
 20
0.542444
 30
0.0
  0
LWPOLYLINE
  5
1d7
100
AcDbEntity
  8
fold
 62
1
100
AcDbPolyline
 90
2
 70
0
 10
13.952422
 20
0.542444
 30
0.0
 10
14.125674
 20
0.542444
 30
0.0
  0
LWPOLYLINE
  5
1d8
100
AcDbEntity
  8
fold
 62
1
100
AcDbPolyline
 90
2
 70
0
 10
16.214981
 20
5.501205
 30
0.0
 10
16.388233
 20
5.501205
 30
0.0
  0
LWPOLYLINE
  5
1d9
100
AcDbEntity
  8
fold
 62
1
100
AcDbPolyline
 90
2
 70
0
 10
15.955122
 20
5.501205
 30
0.0
 10
16.128375
 20
5.501205
 30
0.0
  0
LWPOLYLINE
  5
1da
100
AcDbEntity
  8
fold
 62
1
100
AcDbPolyline
 90
2
 70
0
 10
15.695144
 20
5.501205
 30
0.0
 10
15.868437
 20
5.501205
 30
0.0
  0
LWPOLYLINE
  5
1db
100
AcDbEntity
  8
fold
 62
1
100
AcDbPolyline
 90
2
 70
0
 10
15.435207
 20
5.501205
 30
0.0
 10
15.608459
 20
5.501205
 30
0.0
  0
LWPOLYLINE
  5
1dc
100
AcDbEntity
  8
fold
 62
1
100
AcDbPolyline
 90
2
 70
0
 10
15.175269
 20
5.501205
 30
0.0
 10
15.348561
 20
5.501205
 30
0.0
  0
LWPOLYLINE
  5
1dd
100
AcDbEntity
  8
fold
 62
1
100
AcDbPolyline
 90
2
 70
0
 10
14.915352
 20
5.501205
 30
0.0
 10
15.088667
 20
5.501205
 30
0.0
  0
LWPOLYLINE
  5
1de
100
AcDbEntity
  8
fold
 62
1
100
AcDbPolyline
 90
2
 70
0
 10
14.655377
 20
5.501205
 30
0.0
 10
14.828693
 20
5.501205
 30
0.0
  0
LWPOLYLINE
  5
1df
100
AcDbEntity
  8
fold
 62
1
100
AcDbPolyline
 90
2
 70
0
 10
14.395459
 20
5.501205
 30
0.0
 10
14.568719
 20
5.501205
 30
0.0
  0
LWPOLYLINE
  5
1e0
100
AcDbEntity
  8
fold
 62
1
100
AcDbPolyline
 90
2
 70
0
 10
14.135513
 20
5.501205
 30
0.0
 10
14.308793
 20
5.501205
 30
0.0
  0
LWPOLYLINE
  5
1e1
100
AcDbEntity
  8
fold
 62
1
100
AcDbPolyline
 90
3
 70
0
 10
13.928339
 20
5.448445
 30
0.0
 10
13.928339
 20
5.501205
 30
0.0
 10
14.048859
 20
5.501205
 30
0.0
  0
LWPOLYLINE
  5
1e2
100
AcDbEntity
  8
fold
 62
1
100
AcDbPolyline
 90
2
 70
0
 10
13.928339
 20
5.188467
 30
0.0
 10
13.928339
 20
5.361759
 30
0.0
  0
LWPOLYLINE
  5
1e3
100
AcDbEntity
  8
fold
 62
1
100
AcDbPolyline
 90
2
 70
0
 10
13.928339
 20
4.928490
 30
0.0
 10
13.928339
 20
5.101742
 30
0.0
  0
LWPOLYLINE
  5
1e4
100
AcDbEntity
  8
fold
 62
1
100
AcDbPolyline
 90
2
 70
0
 10
13.928339
 20
4.668591
 30
0.0
 10
13.928339
 20
4.841883
 30
0.0
  0
LWPOLYLINE
  5
1e5
100
AcDbEntity
  8
fold
 62
1
100
AcDbPolyline
 90
2
 70
0
 10
13.928339
 20
4.408653
 30
0.0
 10
13.928339
 20
4.581945
 30
0.0
  0
LWPOLYLINE
  5
1e6
100
AcDbEntity
  8
fold
 62
1
100
AcDbPolyline
 90
2
 70
0
 10
13.928339
 20
4.148755
 30
0.0
 10
13.928339
 20
4.322047
 30
0.0
  0
LWPOLYLINE
  5
1e7
100
AcDbEntity
  8
fold
 62
1
100
AcDbPolyline
 90
3
 70
0
 10
13.963531
 20
3.924017
 30
0.0
 10
13.928339
 20
3.924017
 30
0.0
 10
13.928339
 20
4.062109
 30
0.0
  0
LWPOLYLINE
  5
1e8
100
AcDbEntity
  8
fold
 62
1
100
AcDbPolyline
 90
2
 70
0
 10
14.223406
 20
3.924017
 30
0.0
 10
14.050189
 20
3.924017
 30
0.0
  0
LWPOLYLINE
  5
1e9
100
AcDbEntity
  8
fold
 62
1
100
AcDbPolyline
 90
2
 70
0
 10
14.483411
 20
3.924017
 30
0.0
 10
14.310083
 20
3.924017
 30
0.0
  0
LWPOLYLINE
  5
1ea
100
AcDbEntity
  8
fold
 62
1
100
AcDbPolyline
 90
2
 70
0
 10
14.743397
 20
3.924017
 30
0.0
 10
14.570085
 20
3.924017
 30
0.0
  0
LWPOLYLINE
  5
1eb
100
AcDbEntity
  8
fold
 62
1
100
AcDbPolyline
 90
2
 70
0
 10
15.003291
 20
3.924017
 30
0.0
 10
14.830019
 20
3.924017
 30
0.0
  0
LWPOLYLINE
  5
1ec
100
AcDbEntity
  8
fold
 62
1
100
AcDbPolyline
 90
2
 70
0
 10
15.263230
 20
3.924017
 30
0.0
 10
15.089937
 20
3.924017
 30
0.0
  0
LWPOLYLINE
  5
1ed
100
AcDbEntity
  8
fold
 62
1
100
AcDbPolyline
 90
2
 70
0
 10
15.523167
 20
3.924017
 30
0.0
 10
15.349875
 20
3.924017
 30
0.0
  0
LWPOLYLINE
  5
1ee
100
AcDbEntity
  8
fold
 62
1
100
AcDbPolyline
 90
2
 70
0
 10
15.783065
 20
3.924017
 30
0.0
 10
15.609813
 20
3.924017
 30
0.0
  0
LWPOLYLINE
  5
1ef
100
AcDbEntity
  8
fold
 62
1
100
AcDbPolyline
 90
2
 70
0
 10
16.043043
 20
3.924017
 30
0.0
 10
15.869751
 20
3.924017
 30
0.0
  0
LWPOLYLINE
  5
1f0
100
AcDbEntity
  8
fold
 62
1
100
AcDbPolyline
 90
2
 70
0
 10
16.302941
 20
3.924017
 30
0.0
 10
16.129649
 20
3.924017
 30
0.0
  0
LWPOLYLINE
  5
1f1
100
AcDbEntity
  8
fold
 62
1
100
AcDbPolyline
 90
2
 70
0
 10
16.562839
 20
3.924017
 30
0.0
 10
16.389587
 20
3.924017
 30
0.0
  0
LWPOLYLINE
  5
1f2
100
AcDbEntity
  8
fold
 62
1
100
AcDbPolyline
 90
2
 70
0
 10
16.822777
 20
3.924017
 30
0.0
 10
16.649485
 20
3.924017
 30
0.0
  0
LWPOLYLINE
  5
1f3
100
AcDbEntity
  8
fold
 62
1
100
AcDbPolyline
 90
2
 70
0
 10
17.082675
 20
3.924017
 30
0.0
 10
16.909383
 20
3.924017
 30
0.0
  0
LWPOLYLINE
  5
1f4
100
AcDbEntity
  8
fold
 62
1
100
AcDbPolyline
 90
2
 70
0
 10
13.958287
 20
10.199898
 30
0.0
 10
13.958287
 20
10.373198
 30
0.0
  0
LWPOLYLINE
  5
1f5
100
AcDbEntity
  8
fold
 62
1
100
AcDbPolyline
 90
2
 70
0
 10
13.958287
 20
9.939995
 30
0.0
 10
13.958287
 20
10.113248
 30
0.0
  0
LWPOLYLINE
  5
1f6
100
AcDbEntity
  8
fold
 62
1
100
AcDbPolyline
 90
2
 70
0
 10
13.958287
 20
9.680046
 30
0.0
 10
13.958287
 20
9.853346
 30
0.0
  0
LWPOLYLINE
  5
1f7
100
AcDbEntity
  8
fold
 62
1
100
AcDbPolyline
 90
2
 70
0
 10
13.958287
 20
9.420120
 30
0.0
 10
13.958287
 20
9.593372
 30
0.0
  0
LWPOLYLINE
  5
1f8
100
AcDbEntity
  8
fold
 62
1
100
AcDbPolyline
 90
2
 70
0
 10
13.958287
 20
9.160186
 30
0.0
 10
13.958287
 20
9.333498
 30
0.0
  0
LWPOLYLINE
  5
1f9
100
AcDbEntity
  8
fold
 62
1
100
AcDbPolyline
 90
2
 70
0
 10
13.958287
 20
8.900240
 30
0.0
 10
13.958287
 20
9.073548
 30
0.0
  0
LWPOLYLINE
  5
1fa
100
AcDbEntity
  8
fold
 62
1
100
AcDbPolyline
 90
2
 70
0
 10
13.958287
 20
8.640306
 30
0.0
 10
13.958287
 20
8.813594
 30
0.0
  0
LWPOLYLINE
  5
1fb
100
AcDbEntity
  8
fold
 62
1
100
AcDbPolyline
 90
2
 70
0
 10
13.958287
 20
8.380388
 30
0.0
 10
13.958287
 20
8.553656
 30
0.0
  0
LWPOLYLINE
  5
1fc
100
AcDbEntity
  8
fold
 62
1
100
AcDbPolyline
 90
2
 70
0
 10
13.958287
 20
8.120454
 30
0.0
 10
13.958287
 20
8.293746
 30
0.0
  0
LWPOLYLINE
  5
1fd
100
AcDbEntity
  8
fold
 62
1
100
AcDbPolyline
 90
2
 70
0
 10
13.958287
 20
7.860540
 30
0.0
 10
13.958287
 20
8.033816
 30
0.0
  0
LWPOLYLINE
  5
1fe
100
AcDbEntity
  8
fold
 62
1
100
AcDbPolyline
 90
2
 70
0
 10
13.958287
 20
7.600622
 30
0.0
 10
13.958287
 20
7.773886
 30
0.0
  0
LWPOLYLINE
  5
1ff
100
AcDbEntity
  8
fold
 62
1
100
AcDbPolyline
 90
2
 70
0
 10
13.958287
 20
7.340692
 30
0.0
 10
13.958287
 20
7.514000
 30
0.0
  0
LWPOLYLINE
  5
200
100
AcDbEntity
  8
fold
 62
1
100
AcDbPolyline
 90
2
 70
0
 10
13.958287
 20
7.080769
 30
0.0
 10
13.958287
 20
7.254038
 30
0.0
  0
LWPOLYLINE
  5
201
100
AcDbEntity
  8
fold
 62
1
100
AcDbPolyline
 90
2
 70
0
 10
13.958287
 20
6.820844
 30
0.0
 10
13.958287
 20
6.994140
 30
0.0
  0
LWPOLYLINE
  5
202
100
AcDbEntity
  8
fold
 62
1
100
AcDbPolyline
 90
2
 70
0
 10
13.958287
 20
6.560906
 30
0.0
 10
13.958287
 20
6.734158
 30
0.0
  0
LWPOLYLINE
  5
203
100
AcDbEntity
  8
fold
 62
1
100
AcDbPolyline
 90
2
 70
0
 10
13.958287
 20
6.300968
 30
0.0
 10
13.958287
 20
6.474260
 30
0.0
  0
LWPOLYLINE
  5
204
100
AcDbEntity
  8
fold
 62
1
100
AcDbPolyline
 90
2
 70
0
 10
13.958287
 20
6.041030
 30
0.0
 10
13.958287
 20
6.214362
 30
0.0
  0
LWPOLYLINE
  5
205
100
AcDbEntity
  8
fold
 62
1
100
AcDbPolyline
 90
2
 70
0
 10
13.958287
 20
5.781052
 30
0.0
 10
13.958287
 20
5.954344
 30
0.0
  0
LWPOLYLINE
  5
206
100
AcDbEntity
  8
fold
 62
1
100
AcDbPolyline
 90
2
 70
0
 10
13.958287
 20
5.521154
 30
0.0
 10
13.958287
 20
5.694446
 30
0.0
  0
LWPOLYLINE
  5
207
100
AcDbEntity
  8
fold
 62
1
100
AcDbPolyline
 90
2
 70
0
 10
15.257933
 20
8.845218
 30
0.0
 10
15.431225
 20
8.845218
 30
0.0
  0
LWPOLYLINE
  5
208
100
AcDbEntity
  8
fold
 62
1
100
AcDbPolyline
 90
2
 70
0
 10
14.997972
 20
8.845218
 30
0.0
 10
15.171248
 20
8.845218
 30
0.0
  0
LWPOLYLINE
  5
209
100
AcDbEntity
  8
fold
 62
1
100
AcDbPolyline
 90
2
 70
0
 10
14.738053
 20
8.845218
 30
0.0
 10
14.911357
 20
8.845218
 30
0.0
  0
LWPOLYLINE
  5
20a
100
AcDbEntity
  8
fold
 62
1
100
AcDbPolyline
 90
2
 70
0
 10
14.478080
 20
8.845218
 30
0.0
 10
14.651404
 20
8.845218
 30
0.0
  0
LWPOLYLINE
  5
20b
100
AcDbEntity
  8
fold
 62
1
100
AcDbPolyline
 90
2
 70
0
 10
14.218161
 20
8.845218
 30
0.0
 10
14.391453
 20
8.845218
 30
0.0
  0
LWPOLYLINE
  5
20c
100
AcDbEntity
  8
fold
 62
1
100
AcDbPolyline
 90
2
 70
0
 10
13.958287
 20
8.845218
 30
0.0
 10
14.131548
 20
8.845218
 30
0.0
  0
LWPOLYLINE
  5
20d
100
AcDbEntity
  8
fold
 62
1
100
AcDbPolyline
 90
2
 70
0
 10
15.783105
 20
7.278025
 30
0.0
 10
15.609773
 20
7.278025
 30
0.0
  0
LWPOLYLINE
  5
20e
100
AcDbEntity
  8
fold
 62
1
100
AcDbPolyline
 90
2
 70
0
 10
16.043083
 20
7.278025
 30
0.0
 10
15.869751
 20
7.278025
 30
0.0
  0
LWPOLYLINE
  5
20f
100
AcDbEntity
  8
fold
 62
1
100
AcDbPolyline
 90
2
 70
0
 10
16.303020
 20
7.278025
 30
0.0
 10
16.129689
 20
7.278025
 30
0.0
  0
LWPOLYLINE
  5
210
100
AcDbEntity
  8
fold
 62
1
100
AcDbPolyline
 90
2
 70
0
 10
16.562919
 20
7.278025
 30
0.0
 10
16.389627
 20
7.278025
 30
0.0
  0
LWPOLYLINE
  5
211
100
AcDbEntity
  8
fold
 62
1
100
AcDbPolyline
 90
2
 70
0
 10
16.822777
 20
7.278025
 30
0.0
 10
16.649525
 20
7.278025
 30
0.0
  0
LWPOLYLINE
  5
212
100
AcDbEntity
  8
fold
 62
1
100
AcDbPolyline
 90
2
 70
0
 10
17.082675
 20
7.278025
 30
0.0
 10
16.909423
 20
7.278025
 30
0.0
  0
LWPOLYLINE
  5
213
100
AcDbEntity
  8
fold
 62
1
100
AcDbPolyline
 90
2
 70
0
 10
16.031250
 20
2.860436
 30
0.0
 10
15.962920
 20
2.860436
 30
0.0
  0
LWPOLYLINE
  5
214
100
AcDbEntity
  8
fold
 62
1
100
AcDbPolyline
 90
2
 70
0
 10
16.291188
 20
2.860436
 30
0.0
 10
16.117896
 20
2.860436
 30
0.0
  0
LWPOLYLINE
  5
215
100
AcDbEntity
  8
fold
 62
1
100
AcDbPolyline
 90
2
 70
0
 10
16.551126
 20
2.860436
 30
0.0
 10
16.377794
 20
2.860436
 30
0.0
  0
LWPOLYLINE
  5
216
100
AcDbEntity
  8
fold
 62
1
100
AcDbPolyline
 90
2
 70
0
 10
16.811024
 20
2.860436
 30
0.0
 10
16.637731
 20
2.860436
 30
0.0
  0
LWPOLYLINE
  5
217
100
AcDbEntity
  8
fold
 62
1
100
AcDbPolyline
 90
2
 70
0
 10
17.070962
 20
2.860436
 30
0.0
 10
16.897670
 20
2.860436
 30
0.0
  0
LWPOLYLINE
  5
218
100
AcDbEntity
  8
fold
 62
1
100
AcDbPolyline
 90
2
 70
0
 10
12.371125
 20
5.726102
 30
0.0
 10
12.371125
 20
5.552810
 30
0.0
  0
LWPOLYLINE
  5
219
100
AcDbEntity
  8
fold
 62
1
100
AcDbPolyline
 90
2
 70
0
 10
12.371125
 20
5.986040
 30
0.0
 10
12.371125
 20
5.812788
 30
0.0
  0
LWPOLYLINE
  5
21a
100
AcDbEntity
  8
fold
 62
1
100
AcDbPolyline
 90
2
 70
0
 10
12.371125
 20
6.245978
 30
0.0
 10
12.371125
 20
6.072726
 30
0.0
  0
LWPOLYLINE
  5
21b
100
AcDbEntity
  8
fold
 62
1
100
AcDbPolyline
 90
2
 70
0
 10
12.371125
 20
6.505956
 30
0.0
 10
12.371125
 20
6.332624
 30
0.0
  0
LWPOLYLINE
  5
21c
100
AcDbEntity
  8
fold
 62
1
100
AcDbPolyline
 90
2
 70
0
 10
12.371125
 20
6.765894
 30
0.0
 10
12.371125
 20
6.592602
 30
0.0
  0
LWPOLYLINE
  5
21d
100
AcDbEntity
  8
fold
 62
1
100
AcDbPolyline
 90
2
 70
0
 10
12.371125
 20
7.025828
 30
0.0
 10
12.371125
 20
6.852540
 30
0.0
  0
LWPOLYLINE
  5
21e
100
AcDbEntity
  8
fold
 62
1
100
AcDbPolyline
 90
2
 70
0
 10
12.371125
 20
7.545564
 30
0.0
 10
12.371125
 20
7.372316
 30
0.0
  0
LWPOLYLINE
  5
21f
100
AcDbEntity
  8
fold
 62
1
100
AcDbPolyline
 90
2
 70
0
 10
12.371125
 20
7.805482
 30
0.0
 10
12.371125
 20
7.632210
 30
0.0
  0
LWPOLYLINE
  5
220
100
AcDbEntity
  8
fold
 62
1
100
AcDbPolyline
 90
2
 70
0
 10
12.371125
 20
8.065452
 30
0.0
 10
12.371125
 20
7.892128
 30
0.0
  0
LWPOLYLINE
  5
221
100
AcDbEntity
  8
fold
 62
1
100
AcDbPolyline
 90
2
 70
0
 10
12.371125
 20
8.325394
 30
0.0
 10
12.371125
 20
8.152090
 30
0.0
  0
LWPOLYLINE
  5
222
100
AcDbEntity
  8
fold
 62
1
100
AcDbPolyline
 90
2
 70
0
 10
12.371125
 20
8.585340
 30
0.0
 10
12.371125
 20
8.412052
 30
0.0
  0
LWPOLYLINE
  5
223
100
AcDbEntity
  8
fold
 62
1
100
AcDbPolyline
 90
2
 70
0
 10
12.371125
 20
8.845218
 30
0.0
 10
12.371125
 20
8.671970
 30
0.0
  0
LWPOLYLINE
  5
224
100
AcDbEntity
  8
fold
 62
1
100
AcDbPolyline
 90
2
 70
0
 10
12.812197
 20
2.261485
 30
0.0
 10
12.640819
 20
2.261485
 30
0.0
  0
LWPOLYLINE
  5
225
100
AcDbEntity
  8
fold
 62
1
100
AcDbPolyline
 90
2
 70
0
 10
12.469508
 20
2.261485
 30
0.0
 10
12.298138
 20
2.261485
 30
0.0
  0
LWPOLYLINE
  5
226
100
AcDbEntity
  8
fold
 62
1
100
AcDbPolyline
 90
2
 70
0
 10
12.126796
 20
2.261485
 30
0.0
 10
11.955453
 20
2.261485
 30
0.0
  0
LWPOLYLINE
  5
227
100
AcDbEntity
  8
fold
 62
1
100
AcDbPolyline
 90
2
 70
0
 10
11.791744
 20
2.253887
 30
0.0
 10
11.791744
 20
2.082548
 30
0.0
  0
LWPOLYLINE
  5
228
100
AcDbEntity
  8
fold
 62
1
100
AcDbPolyline
 90
2
 70
0
 10
11.791744
 20
1.911249
 30
0.0
 10
11.791744
 20
1.739911
 30
0.0
  0
LWPOLYLINE
  5
229
100
AcDbEntity
  8
fold
 62
1
100
AcDbPolyline
 90
2
 70
0
 10
11.791744
 20
1.568611
 30
0.0
 10
11.791744
 20
1.397233
 30
0.0
  0
LWPOLYLINE
  5
22a
100
AcDbEntity
  8
fold
 62
1
100
AcDbPolyline
 90
2
 70
0
 10
11.791744
 20
1.225895
 30
0.0
 10
11.791744
 20
1.054517
 30
0.0
  0
LWPOLYLINE
  5
22b
100
AcDbEntity
  8
fold
 62
1
100
AcDbPolyline
 90
2
 70
0
 10
11.901843
 20
0.993336
 30
0.0
 10
12.073221
 20
0.993336
 30
0.0
  0
LWPOLYLINE
  5
22c
100
AcDbEntity
  8
fold
 62
1
100
AcDbPolyline
 90
2
 70
0
 10
12.244595
 20
0.993336
 30
0.0
 10
12.415957
 20
0.993336
 30
0.0
  0
LWPOLYLINE
  5
22d
100
AcDbEntity
  8
fold
 62
1
100
AcDbPolyline
 90
2
 70
0
 10
12.587237
 20
0.993336
 30
0.0
 10
12.758587
 20
0.993336
 30
0.0
  0
LWPOLYLINE
  5
22e
100
AcDbEntity
  8
fold
 62
1
100
AcDbPolyline
 90
2
 70
0
 10
14.971550
 20
10.436856
 30
0.0
 10
14.798274
 20
10.436856
 30
0.0
  0
LWPOLYLINE
  5
22f
100
AcDbEntity
  8
fold
 62
1
100
AcDbPolyline
 90
2
 70
0
 10
15.231463
 20
10.436856
 30
0.0
 10
15.058180
 20
10.436856
 30
0.0
  0
SPLINE
  5
230
100
AcDbEntity
  8
fold
 62
1
100
AcDbSpline
 70
0
 71
3
 72
10
 73
6
 74
4
 40
0.000000
 40
0.000000
 40
0.000000
 40
0.000000
 40
0.033752
 40
0.066753
 40
0.098934
 40
0.098934
 40
0.098934
 40
0.098934
 10
3.220127
 20
3.693269
 30
0.0
 10
3.220158
 20
3.682018
 30
0.0
 10
3.220219
 20
3.659767
 30
0.0
 10
3.220347
 20
3.626789
 30
0.0
 10
3.220410
 20
3.605062
 30
0.0
 10
3.220442
 20
3.594335
 30
0.0
 11
3.220127
 21
3.693269
 31
0.0
 11
3.220226
 21
3.659517
 31
0.0
 11
3.220342
 21
3.626516
 31
0.0
 11
3.220442
 21
3.594335
 31
0.0
  0
SPLINE
  5
231
100
AcDbEntity
  8
fold
 62
1
100
AcDbSpline
 70
0
 71
3
 72
10
 73
6
 74
4
 40
0.000000
 40
0.000000
 40
0.000000
 40
0.000000
 40
0.037464
 40
0.060956
 40
0.069094
 40
0.069094
 40
0.069094
 40
0.069094
 10
10.084119
 20
3.799791
 30
0.0
 10
10.084163
 20
3.787303
 30
0.0
 10
10.084235
 20
3.766984
 30
0.0
 10
10.084313
 20
3.743953
 30
0.0
 10
10.084347
 20
3.733410
 30
0.0
 10
10.084356
 20
3.730697
 30
0.0
 11
10.084119
 21
3.799791
 31
0.0
 11
10.084251
 21
3.762327
 31
0.0
 11
10.084329
 21
3.738835
 31
0.0
 11
10.084356
 21
3.730697
 31
0.0
  0
SPLINE
  5
232
100
AcDbEntity
  8
fold
 62
1
100
AcDbSpline
 70
0
 71
3
 72
10
 73
6
 74
4
 40
0.000000
 40
0.000000
 40
0.000000
 40
0.000000
 40
0.034900
 40
0.067900
 40
0.098873
 40
0.098873
 40
0.098873
 40
0.098873
 10
10.083465
 20
3.997676
 30
0.0
 10
10.083512
 20
3.986043
 30
0.0
 10
10.083604
 20
3.963410
 30
0.0
 10
10.083698
 20
3.930453
 30
0.0
 10
10.083753
 20
3.909128
 30
0.0
 10
10.083780
 20
3.898804
 30
0.0
 11
10.083465
 21
3.997676
 31
0.0
 11
10.083599
 21
3.962776
 31
0.0
 11
10.083698
 21
3.929777
 31
0.0
 11
10.083780
 21
3.898804
 31
0.0
  0
SPLINE
  5
233
100
AcDbEntity
  8
fold
 62
1
100
AcDbSpline
 70
0
 71
3
 72
10
 73
6
 74
4
 40
0.000000
 40
0.000000
 40
0.000000
 40
0.000000
 40
0.033751
 40
0.066753
 40
0.098934
 40
0.098934
 40
0.098934
 40
0.098934
 10
10.082810
 20
4.195604
 30
0.0
 10
10.082841
 20
4.184353
 30
0.0
 10
10.082902
 20
4.162103
 30
0.0
 10
10.083030
 20
4.129125
 30
0.0
 10
10.083094
 20
4.107398
 30
0.0
 10
10.083125
 20
4.096671
 30
0.0
 11
10.082810
 21
4.195604
 31
0.0
 11
10.082909
 21
4.161853
 31
0.0
 11
10.083026
 21
4.128851
 31
0.0
 11
10.083125
 21
4.096671
 31
0.0
  0
SPLINE
  5
234
100
AcDbEntity
  8
fold
 62
1
100
AcDbSpline
 70
0
 71
3
 72
10
 73
6
 74
4
 40
0.000000
 40
0.000000
 40
0.000000
 40
0.000000
 40
0.037465
 40
0.060957
 40
0.069094
 40
0.069094
 40
0.069094
 40
0.069094
 10
12.384654
 20
3.291085
 30
0.0
 10
12.384699
 20
3.278597
 30
0.0
 10
12.384770
 20
3.258278
 30
0.0
 10
12.384848
 20
3.235247
 30
0.0
 10
12.384882
 20
3.224704
 30
0.0
 10
12.384891
 20
3.221991
 30
0.0
 11
12.384654
 21
3.291085
 31
0.0
 11
12.384786
 21
3.253621
 31
0.0
 11
12.384864
 21
3.230129
 31
0.0
 11
12.384891
 21
3.221991
 31
0.0
  0
SPLINE
  5
235
100
AcDbEntity
  8
fold
 62
1
100
AcDbSpline
 70
0
 71
3
 72
10
 73
6
 74
4
 40
0.000000
 40
0.000000
 40
0.000000
 40
0.000000
 40
0.034901
 40
0.067900
 40
0.098873
 40
0.098873
 40
0.098873
 40
0.098873
 10
12.384000
 20
3.488971
 30
0.0
 10
12.384047
 20
3.477337
 30
0.0
 10
12.384139
 20
3.454704
 30
0.0
 10
12.384233
 20
3.421747
 30
0.0
 10
12.384288
 20
3.400422
 30
0.0
 10
12.384315
 20
3.390098
 30
0.0
 11
12.384000
 21
3.488971
 31
0.0
 11
12.384134
 21
3.454071
 31
0.0
 11
12.384233
 21
3.421071
 31
0.0
 11
12.384315
 21
3.390098
 31
0.0
  0
SPLINE
  5
236
100
AcDbEntity
  8
fold
 62
1
100
AcDbSpline
 70
0
 71
3
 72
10
 73
6
 74
4
 40
0.000000
 40
0.000000
 40
0.000000
 40
0.000000
 40
0.033752
 40
0.066753
 40
0.098934
 40
0.098934
 40
0.098934
 40
0.098934
 10
12.383346
 20
3.686898
 30
0.0
 10
12.383377
 20
3.675648
 30
0.0
 10
12.383438
 20
3.653397
 30
0.0
 10
12.383566
 20
3.620419
 30
0.0
 10
12.383629
 20
3.598692
 30
0.0
 10
12.383661
 20
3.587965
 30
0.0
 11
12.383346
 21
3.686898
 31
0.0
 11
12.383445
 21
3.653147
 31
0.0
 11
12.383561
 21
3.620146
 31
0.0
 11
12.383661
 21
3.587965
 31
0.0
  0
LWPOLYLINE
  5
237
100
AcDbEntity
  8
fold
 62
1
100
AcDbPolyline
 90
2
 70
0
 10
15.491333
 20
10.436856
 30
0.0
 10
15.318081
 20
10.436856
 30
0.0
  0
ENDSEC
  0
SECTION
  2
OBJECTS
  0
DICTIONARY
  5
C
330
0
100
AcDbDictionary
  3
ACAD_GROUP
350
D
  3
ACAD_MLINESTYLE
350
17
  0
DICTIONARY
  5
D
330
C
100
AcDbDictionary
  0
DICTIONARY
  5
1A
330
C
100
AcDbDictionary
  0
DICTIONARY
  5
17
330
C
100
AcDbDictionary
  3
STANDARD
350
18
  0
DICTIONARY
  5
19
330
C
100
AcDbDictionary
  0
ENDSEC
  0
EOF
