  0
SECTION
  2
HEADER
  9
$ACADVER
  1
AC1014
  9
$HANDSEED
  5
FFFF
  9
$INSUNITS
 70
     4
  9
$MEASUREMENT
 70
     1
  0
ENDSEC
  0
SECTION
  2
TABLES
  0
TABLE
  2
VPORT
  5
8
330
0
100
AcDbSymbolTable
 70
     4
  0
VPORT
  5
2E
330
8
100
AcDbSymbolTableRecord
100
AcDbViewportTableRecord
  2
*ACTIVE
 70
     0
 10
0.0
 20
0.0
 11
1.0
 21
1.0
 12
210.0
 22
148.5
 13
0.0
 23
0.0
 14
10.0
 24
10.0
 15
10.0
 25
10.0
 16
0.0
 26
0.0
 36
1.0
 17
0.0
 27
0.0
 37
0.0
 40
341.0
 41
1.24
 42
50.0
 43
0.0
 44
0.0
 50
0.0
 51
0.0
 71
     0
 72
   100
 73
     1
 74
     3
 75
     0
 76
     0
 77
     0
 78
     0
  0
ENDTAB
  0
TABLE
  2
LTYPE
  5
5
330
0
100
AcDbSymbolTable
 70
     1
  0
LTYPE
  5
14
330
5
100
AcDbSymbolTableRecord
100
AcDbLinetypeTableRecord
  2
BYBLOCK
 70
     0
  3

 72
    65
 73
     0
 40
0.0
  0
LTYPE
  5
15
330
5
100
AcDbSymbolTableRecord
100
AcDbLinetypeTableRecord
  2
BYLAYER
 70
     0
  3

 72
    65
 73
     0
 40
0.0
  0
LTYPE
  5
16
330
5
100
AcDbSymbolTableRecord
100
AcDbLinetypeTableRecord
  2
CONTINUOUS
 70
     0
  3
Solid line
 72
    65
 73
     0
 40
0.0
  0
ENDTAB
  0
TABLE
  2
LAYER
  5
2
100
AcDbSymbolTable
 70
2
  0
LAYER
  5
50
100
AcDbSymbolTableRecord
100
AcDbLayerTableRecord
  2
0
 70
0
  6
CONTINUOUS
  0
LAYER
  5
51
100
AcDbSymbolTableRecord
100
AcDbLayerTableRecord
  2
Layer_1
 70
0
  6
CONTINUOUS
  0
ENDTAB
  0
TABLE
  2
STYLE
  5
3
330
0
100
AcDbSymbolTable
 70
     1
  0
STYLE
  5
11
330
3
100
AcDbSymbolTableRecord
100
AcDbTextStyleTableRecord
  2
STANDARD
 70
     0
 40
0.0
 41
1.0
 50
0.0
 71
     0
 42
2.5
  3
txt
  4

  0
ENDTAB
  0
TABLE
  2
VIEW
  5
6
330
0
100
AcDbSymbolTable
 70
     0
  0
ENDTAB
  0
TABLE
  2
UCS
  5
7
330
0
100
AcDbSymbolTable
 70
     0
  0
ENDTAB
  0
TABLE
  2
APPID
  5
9
330
0
100
AcDbSymbolTable
 70
     2
  0
APPID
  5
12
330
9
100
AcDbSymbolTableRecord
100
AcDbRegAppTableRecord
  2
ACAD
 70
     0
  0
ENDTAB
  0
TABLE
  2
DIMSTYLE
  5
A
330
0
100
AcDbSymbolTable
 70
     1
  0
DIMSTYLE
105
27
330
A
100
AcDbSymbolTableRecord
100
AcDbDimStyleTableRecord
  2
ISO-25
 70
     0
  3

  4

  5

  6

  7

 40
1.0
 41
2.5
 42
0.625
 43
3.75
 44
1.25
 45
0.0
 46
0.0
 47
0.0
 48
0.0
140
2.5
141
2.5
142
0.0
143
0.03937007874016
144
1.0
145
0.0
146
1.0
147
0.625
 71
     0
 72
     0
 73
     0
 74
     0
 75
     0
 76
     0
 77
     1
 78
     8
170
     0
171
     3
172
     1
173
     0
174
     0
175
     0
176
     0
177
     0
178
     0
270
     2
271
     2
272
     2
273
     2
274
     3
340
11
275
     0
280
     0
281
     0
282
     0
283
     0
284
     8
285
     0
286
     0
287
     3
288
     0
  0
ENDTAB
  0
TABLE
  2
BLOCK_RECORD
  5
1
330
0
100
AcDbSymbolTable
 70
     1
  0
BLOCK_RECORD
  5
1F
330
1
100
AcDbSymbolTableRecord
100
AcDbBlockTableRecord
  2
*MODEL_SPACE
  0
BLOCK_RECORD
  5
1B
330
1
100
AcDbSymbolTableRecord
100
AcDbBlockTableRecord
  2
*PAPER_SPACE
  0
ENDTAB
  0
ENDSEC
  0
SECTION
  2
BLOCKS
  0
BLOCK
  5
20
330
1F
100
AcDbEntity
  8
0
100
AcDbBlockBegin
  2
*MODEL_SPACE
 70
     0
 10
0.0
 20
0.0
 30
0.0
  3
*MODEL_SPACE
  1

  0
ENDBLK
  5
21
330
1F
100
AcDbEntity
  8
0
100
AcDbBlockEnd
  0
BLOCK
  5
1C
330
1B
100
AcDbEntity
 67
     1
  8
0
100
AcDbBlockBegin
  2
*PAPER_SPACE
  1

  0
ENDBLK
  5
1D
330
1B
100
AcDbEntity
 67
     1
  8
0
100
AcDbBlockEnd
  0
ENDSEC
  0
SECTION
  2
ENTITIES
  0
LWPOLYLINE
  5
100
100
AcDbEntity
  8
Layer_1
 62
7
100
AcDbPolyline
 90
7
 70
0
 10
194.700140
 20
195.280673
 30
0.0
 10
194.536760
 20
242.986668
 30
0.0
 10
153.855950
 20
242.986668
 30
0.0
 10
153.855950
 20
267.983305
 30
0.0
 10
194.863520
 20
267.983305
 30
0.0
 10
194.863520
 20
275.498634
 30
0.0
 10
154.584670
 20
275.498635
 30
0.0
  0
LWPOLYLINE
  5
101
100
AcDbEntity
  8
Layer_1
 62
7
100
AcDbPolyline
 90
3
 70
0
 10
106.549970
 20
259.861588
 30
0.0
 10
106.549970
 20
268.032588
 30
0.0
 10
113.948670
 20
275.294281
 30
0.0
  0
LWPOLYLINE
  5
102
100
AcDbEntity
  8
Layer_1
 62
7
100
AcDbPolyline
 90
3
 70
0
 10
114.154200
 20
235.217958
 30
0.0
 10
106.549970
 20
242.000105
 30
0.0
 10
106.549970
 20
257.311966
 30
0.0
  0
LWPOLYLINE
  5
103
100
AcDbEntity
  8
Layer_1
 62
7
100
AcDbPolyline
 90
4
 70
0
 10
114.465320
 20
110.147820
 30
0.0
 10
106.861090
 20
116.929950
 30
0.0
 10
106.861090
 20
142.962440
 30
0.0
 10
114.259790
 20
150.224130
 30
0.0
  0
LWPOLYLINE
  5
104
100
AcDbEntity
  8
Layer_1
 62
7
100
AcDbPolyline
 90
3
 70
0
 10
194.577680
 20
47.917550
 30
0.0
 10
194.577680
 20
65.148040
 30
0.0
 10
153.497700
 20
65.148040
 30
0.0
  0
LWPOLYLINE
  5
105
100
AcDbEntity
  8
Layer_1
 62
7
100
AcDbPolyline
 90
4
 70
0
 10
153.855060
 20
24.146000
 30
0.0
 10
153.987770
 20
24.294800
 30
0.0
 10
194.577680
 20
24.294800
 30
0.0
 10
194.577680
 20
43.209750
 30
0.0
  0
LWPOLYLINE
  5
106
100
AcDbEntity
  8
Layer_1
 62
7
100
AcDbPolyline
 90
4
 70
0
 10
113.911460
 20
24.089290
 30
0.0
 10
121.173140
 20
16.690580
 30
0.0
 10
147.205640
 20
16.690580
 30
0.0
 10
153.855060
 20
24.146000
 30
0.0
  0
LWPOLYLINE
  5
107
100
AcDbEntity
  8
Layer_1
 62
7
100
AcDbPolyline
 90
4
 70
0
 10
114.359040
 20
275.683837
 30
0.0
 10
121.620730
 20
283.082549
 30
0.0
 10
147.653220
 20
283.082549
 30
0.0
 10
154.302640
 20
275.627128
 30
0.0
  0
LWPOLYLINE
  5
108
100
AcDbEntity
  8
Layer_1
 62
7
100
AcDbPolyline
 90
2
 70
0
 10
113.778810
 20
83.103860
 30
0.0
 10
113.778810
 20
110.187540
 30
0.0
  0
LWPOLYLINE
  5
109
100
AcDbEntity
  8
Layer_1
 62
7
100
AcDbPolyline
 90
2
 70
0
 10
113.778810
 20
70.750100
 30
0.0
 10
113.778810
 20
79.710210
 30
0.0
  0
LWPOLYLINE
  5
10a
100
AcDbEntity
  8
Layer_1
 62
7
100
AcDbPolyline
 90
2
 70
0
 10
113.778810
 20
24.686750
 30
0.0
 10
113.778810
 20
64.537370
 30
0.0
  0
LWPOLYLINE
  5
10b
100
AcDbEntity
  8
Layer_1
 62
7
100
AcDbPolyline
 90
2
 70
0
 10
194.527120
 20
85.846560
 30
0.0
 10
194.527110
 20
195.434801
 30
0.0
  0
LWPOLYLINE
  5
10c
100
AcDbEntity
  8
Layer_1
 62
7
100
AcDbPolyline
 90
2
 70
0
 10
194.527110
 20
65.163430
 30
0.0
 10
194.527120
 20
85.562240
 30
0.0
  0
LWPOLYLINE
  5
10d
100
AcDbEntity
  8
Layer_1
 62
7
100
AcDbPolyline
 90
6
 70
0
 10
113.228660
 20
234.997327
 30
0.0
 10
74.182567
 20
234.997327
 30
0.0
 10
67.083274
 20
227.898036
 30
0.0
 10
67.083274
 20
157.665760
 30
0.0
 10
74.182567
 20
150.566470
 30
0.0
 10
113.735760
 20
150.566470
 30
0.0
  0
LWPOLYLINE
  5
10e
100
AcDbEntity
  8
Layer_1
 62
7
100
AcDbPolyline
 90
3
 70
0
 10
194.117980
 20
235.062474
 30
0.0
 10
153.655280
 20
235.062474
 30
0.0
 10
153.655280
 20
195.274152
 30
0.0
  0
LWPOLYLINE
  5
10f
100
AcDbEntity
  8
Layer_1
 62
7
100
AcDbPolyline
 90
4
 70
1
 10
129.480210
 20
257.297516
 30
0.0
 10
141.132960
 20
257.038565
 30
0.0
 10
141.132960
 20
196.314838
 30
0.0
 10
129.480210
 20
196.314838
 30
0.0
  0
LWPOLYLINE
  5
110
100
AcDbEntity
  8
Layer_1
 62
7
100
AcDbPolyline
 90
4
 70
1
 10
130.516010
 20
99.399790
 30
0.0
 10
142.168750
 20
99.140830
 30
0.0
 10
142.168750
 20
38.417110
 30
0.0
 10
130.516010
 20
38.417110
 30
0.0
  0
LWPOLYLINE
  5
111
100
AcDbEntity
  8
Layer_1
 62
7
100
AcDbPolyline
 90
2
 70
0
 10
154.010240
 20
24.237890
 30
0.0
 10
133.595790
 20
24.237890
 30
0.0
  0
LWPOLYLINE
  5
112
100
AcDbEntity
  8
Layer_1
 62
7
100
AcDbPolyline
 90
2
 70
0
 10
114.280140
 20
275.555943
 30
0.0
 10
134.694590
 20
275.555943
 30
0.0
  0
LWPOLYLINE
  5
113
100
AcDbEntity
  8
Layer_1
 62
7
100
AcDbPolyline
 90
4
 70
1
 10
73.627546
 20
197.649381
 30
0.0
 10
75.198236
 20
196.718599
 30
0.0
 10
75.430930
 20
188.399760
 30
0.0
 10
73.336677
 20
188.108890
 30
0.0
  0
LWPOLYLINE
  5
114
100
AcDbEntity
  8
Layer_1
 62
7
100
AcDbPolyline
 90
4
 70
0
 10
113.808460
 20
70.895850
 30
0.0
 10
107.656090
 20
70.895850
 30
0.0
 10
107.656090
 20
64.506850
 30
0.0
 10
113.808460
 20
64.506850
 30
0.0
  0
LWPOLYLINE
  5
115
100
AcDbEntity
  8
Layer_1
 62
7
100
AcDbPolyline
 90
3
 70
0
 10
165.835820
 20
83.073130
 30
0.0
 10
165.835820
 20
95.473290
 30
0.0
 10
194.730530
 20
95.473290
 30
0.0
  0
LWPOLYLINE
  5
116
100
AcDbEntity
  8
Layer_1
 62
7
100
AcDbPolyline
 90
6
 70
0
 10
39.972697
 20
90.667620
 30
0.0
 10
16.332867
 20
90.667620
 30
0.0
 10
11.918367
 20
95.082130
 30
0.0
 10
11.918367
 20
114.815870
 30
0.0
 10
16.172077
 20
119.069600
 30
0.0
 10
40.529927
 20
119.075600
 30
0.0
  0
LWPOLYLINE
  5
117
100
AcDbEntity
  8
Layer_1
 62
7
100
AcDbPolyline
 90
3
 70
0
 10
74.693727
 20
90.760450
 30
0.0
 10
74.693727
 20
90.667550
 30
0.0
 10
45.231077
 20
90.667550
 30
0.0
  0
LWPOLYLINE
  5
118
100
AcDbEntity
  8
Layer_1
 62
7
100
AcDbPolyline
 90
4
 70
0
 10
45.443087
 20
119.077090
 30
0.0
 10
74.744767
 20
119.084090
 30
0.0
 10
74.744767
 20
119.084090
 30
0.0
 10
74.744767
 20
119.004890
 30
0.0
  0
LWPOLYLINE
  5
119
100
AcDbEntity
  8
Layer_1
 62
7
100
AcDbPolyline
 90
2
 70
0
 10
74.774217
 20
119.046270
 30
0.0
 10
84.348437
 20
115.674740
 30
0.0
  0
LWPOLYLINE
  5
11a
100
AcDbEntity
  8
Layer_1
 62
7
100
AcDbPolyline
 90
3
 70
0
 10
74.644157
 20
90.668930
 30
0.0
 10
84.503277
 20
94.059840
 30
0.0
 10
84.503277
 20
115.833090
 30
0.0
  0
LWPOLYLINE
  5
11b
100
AcDbEntity
  8
Layer_1
 62
7
100
AcDbPolyline
 90
2
 70
0
 10
16.353847
 20
105.360320
 30
0.0
 10
16.297347
 20
90.649120
 30
0.0
  0
LWPOLYLINE
  5
11c
100
AcDbEntity
  8
Layer_1
 62
7
100
AcDbPolyline
 90
2
 70
0
 10
74.883697
 20
118.911170
 30
0.0
 10
74.827097
 20
105.183090
 30
0.0
  0
LWPOLYLINE
  5
11d
100
AcDbEntity
  8
Layer_1
 62
7
100
AcDbPolyline
 90
2
 70
0
 10
75.472077
 20
119.025140
 30
0.0
 10
75.415477
 20
105.297060
 30
0.0
  0
SPLINE
  5
11e
100
AcDbEntity
  8
Layer_1
 62
7
100
AcDbSpline
 70
0
 71
3
 72
13
 73
9
 74
7
 40
0.000000
 40
0.000000
 40
0.000000
 40
0.000000
 40
2.875092
 40
5.717987
 40
8.593079
 40
12.704494
 40
16.726419
 40
20.837833
 40
20.837833
 40
20.837833
 40
20.837833
 10
48.827057
 20
135.696180
 30
0.0
 10
49.540202
 20
135.044551
 30
0.0
 10
50.958505
 20
133.748590
 30
0.0
 10
52.218338
 20
131.102403
 30
0.0
 10
52.740701
 20
127.824051
 30
0.0
 10
51.902610
 20
124.139664
 30
0.0
 10
49.354719
 20
120.711468
 30
0.0
 10
46.799303
 20
119.679474
 30
0.0
 10
45.507537
 20
119.157800
 30
0.0
 11
48.827057
 21
135.696180
 31
0.0
 11
50.819857
 21
133.623765
 31
0.0
 11
52.081507
 21
131.076160
 31
0.0
 11
52.522047
 21
128.235020
 31
0.0
 11
51.621565
 21
124.223429
 31
0.0
 11
49.162305
 21
121.040990
 31
0.0
 11
45.507537
 21
119.157800
 31
0.0
  0
LWPOLYLINE
  5
11f
100
AcDbEntity
  8
Layer_1
 62
7
100
AcDbPolyline
 90
1
 70
1
 10
52.522047
 20
128.235020
 30
0.0
  0
LWPOLYLINE
  5
120
100
AcDbEntity
  8
Layer_1
 62
7
100
AcDbPolyline
 90
2
 70
0
 10
178.736180
 20
150.143500
 30
0.0
 10
194.401520
 20
150.087100
 30
0.0
  0
LWPOLYLINE
  5
121
100
AcDbEntity
  8
Layer_1
 62
7
100
AcDbPolyline
 90
2
 70
0
 10
59.776924
 20
68.029160
 30
0.0
 10
43.913341
 20
68.029160
 30
0.0
  0
LWPOLYLINE
  5
122
100
AcDbEntity
  8
Layer_1
 62
7
100
AcDbPolyline
 90
2
 70
0
 10
59.822108
 20
35.884180
 30
0.0
 10
43.958525
 20
35.884180
 30
0.0
  0
LWPOLYLINE
  5
123
100
AcDbEntity
  8
Layer_1
 62
7
100
AcDbPolyline
 90
2
 70
0
 10
59.832360
 20
67.569160
 30
0.0
 10
59.832360
 20
83.432740
 30
0.0
  0
LWPOLYLINE
  5
124
100
AcDbEntity
  8
Layer_1
 62
7
100
AcDbPolyline
 90
2
 70
0
 10
59.925796
 20
20.103770
 30
0.0
 10
59.925796
 20
35.967350
 30
0.0
  0
LWPOLYLINE
  5
125
100
AcDbEntity
  8
Layer_1
 62
7
100
AcDbPolyline
 90
2
 70
0
 10
44.135144
 20
50.284420
 30
0.0
 10
44.135144
 20
35.977610
 30
0.0
  0
LWPOLYLINE
  5
126
100
AcDbEntity
  8
Layer_1
 62
7
100
AcDbPolyline
 90
2
 70
0
 10
44.135144
 20
67.932660
 30
0.0
 10
44.135144
 20
53.942110
 30
0.0
  0
LWPOLYLINE
  5
127
100
AcDbEntity
  8
Layer_1
 62
7
100
AcDbPolyline
 90
2
 70
0
 10
74.434089
 20
28.602820
 30
0.0
 10
86.246391
 20
35.422650
 30
0.0
  0
LWPOLYLINE
  5
128
100
AcDbEntity
  8
Layer_1
 62
7
100
AcDbPolyline
 90
2
 70
0
 10
60.019232
 20
20.280390
 30
0.0
 10
70.739586
 20
26.469790
 30
0.0
  0
LWPOLYLINE
  5
129
100
AcDbEntity
  8
Layer_1
 62
7
100
AcDbPolyline
 90
2
 70
0
 10
68.693700
 20
77.813330
 30
0.0
 10
59.760967
 20
82.970640
 30
0.0
  0
LWPOLYLINE
  5
12a
100
AcDbEntity
  8
Layer_1
 62
7
100
AcDbPolyline
 90
2
 70
0
 10
85.807516
 20
67.932660
 30
0.0
 10
73.003085
 20
75.325310
 30
0.0
  0
LWPOLYLINE
  5
12b
100
AcDbEntity
  8
Layer_1
 62
7
100
AcDbPolyline
 90
2
 70
0
 10
85.755463
 20
50.132530
 30
0.0
 10
85.755464
 20
35.220790
 30
0.0
  0
LWPOLYLINE
  5
12c
100
AcDbEntity
  8
Layer_1
 62
7
100
AcDbPolyline
 90
2
 70
0
 10
85.755464
 20
67.847180
 30
0.0
 10
85.755464
 20
53.702330
 30
0.0
  0
LWPOLYLINE
  5
12d
100
AcDbEntity
  8
Layer_1
 62
7
100
AcDbPolyline
 90
4
 70
1
 10
106.169900
 20
176.161840
 30
0.0
 10
106.169900
 20
169.303820
 30
0.0
 10
106.595360
 20
169.303820
 30
0.0
 10
106.595360
 20
176.246510
 30
0.0
  0
SPLINE
  5
12e
100
AcDbEntity
  8
Layer_1
 62
7
100
AcDbSpline
 70
0
 71
3
 72
13
 73
9
 74
7
 40
0.000000
 40
0.000000
 40
0.000000
 40
0.000000
 40
4.097407
 40
8.106176
 40
12.203583
 40
16.591278
 40
20.871727
 40
25.259422
 40
25.259422
 40
25.259422
 40
25.259422
 10
40.734747
 20
119.168520
 30
0.0
 10
39.449625
 20
119.693477
 30
0.0
 10
36.907182
 20
120.732035
 30
0.0
 10
34.376409
 20
124.154500
 30
0.0
 10
33.427758
 20
128.331261
 30
0.0
 10
34.466444
 20
132.604028
 30
0.0
 10
37.358381
 20
136.158582
 30
0.0
 10
40.167221
 20
137.039999
 30
0.0
 10
41.589017
 20
137.486160
 30
0.0
 11
40.734747
 21
119.168520
 31
0.0
 11
37.099463
 21
121.058879
 31
0.0
 11
34.655386
 21
124.236412
 31
0.0
 11
33.761027
 21
128.235020
 31
0.0
 11
34.786418
 21
132.501218
 31
0.0
 11
37.551361
 21
135.768835
 31
0.0
 11
41.589017
 21
137.486160
 31
0.0
  0
LWPOLYLINE
  5
12f
100
AcDbEntity
  8
Layer_1
 62
7
100
AcDbPolyline
 90
4
 70
1
 10
78.626457
 20
176.426030
 30
0.0
 10
78.626457
 20
169.595680
 30
0.0
 10
79.134178
 20
169.595680
 30
0.0
 10
79.134178
 20
176.510360
 30
0.0
  0
ENDSEC
  0
SECTION
  2
OBJECTS
  0
DICTIONARY
  5
C
330
0
100
AcDbDictionary
  3
ACAD_GROUP
350
D
  3
ACAD_MLINESTYLE
350
17
  0
DICTIONARY
  5
D
330
C
100
AcDbDictionary
  0
DICTIONARY
  5
1A
330
C
100
AcDbDictionary
  0
DICTIONARY
  5
17
330
C
100
AcDbDictionary
  3
STANDARD
350
18
  0
DICTIONARY
  5
19
330
C
100
AcDbDictionary
  0
ENDSEC
  0
EOF
