  0
SECTION
  2
HEADER
  9
$ACADVER
  1
AC1014
  9
$HANDSEED
  5
FFFF
  9
$INSUNITS
 70
     4
  9
$MEASUREMENT
 70
     1
  0
ENDSEC
  0
SECTION
  2
TABLES
  0
TABLE
  2
VPORT
  5
8
330
0
100
AcDbSymbolTable
 70
     4
  0
VPORT
  5
2E
330
8
100
AcDbSymbolTableRecord
100
AcDbViewportTableRecord
  2
*ACTIVE
 70
     0
 10
0.0
 20
0.0
 11
1.0
 21
1.0
 12
210.0
 22
148.5
 13
0.0
 23
0.0
 14
10.0
 24
10.0
 15
10.0
 25
10.0
 16
0.0
 26
0.0
 36
1.0
 17
0.0
 27
0.0
 37
0.0
 40
341.0
 41
1.24
 42
50.0
 43
0.0
 44
0.0
 50
0.0
 51
0.0
 71
     0
 72
   100
 73
     1
 74
     3
 75
     0
 76
     0
 77
     0
 78
     0
  0
ENDTAB
  0
TABLE
  2
LTYPE
  5
5
330
0
100
AcDbSymbolTable
 70
     1
  0
LTYPE
  5
14
330
5
100
AcDbSymbolTableRecord
100
AcDbLinetypeTableRecord
  2
BYBLOCK
 70
     0
  3

 72
    65
 73
     0
 40
0.0
  0
LTYPE
  5
15
330
5
100
AcDbSymbolTableRecord
100
AcDbLinetypeTableRecord
  2
BYLAYER
 70
     0
  3

 72
    65
 73
     0
 40
0.0
  0
LTYPE
  5
16
330
5
100
AcDbSymbolTableRecord
100
AcDbLinetypeTableRecord
  2
CONTINUOUS
 70
     0
  3
Solid line
 72
    65
 73
     0
 40
0.0
  0
ENDTAB
  0
TABLE
  2
LAYER
  5
2
100
AcDbSymbolTable
 70
2
  0
LAYER
  5
50
100
AcDbSymbolTableRecord
100
AcDbLayerTableRecord
  2
0
 70
0
  6
CONTINUOUS
  0
LAYER
  5
51
100
AcDbSymbolTableRecord
100
AcDbLayerTableRecord
  2
Layer_1
 70
0
  6
CONTINUOUS
  0
ENDTAB
  0
TABLE
  2
STYLE
  5
3
330
0
100
AcDbSymbolTable
 70
     1
  0
STYLE
  5
11
330
3
100
AcDbSymbolTableRecord
100
AcDbTextStyleTableRecord
  2
STANDARD
 70
     0
 40
0.0
 41
1.0
 50
0.0
 71
     0
 42
2.5
  3
txt
  4

  0
ENDTAB
  0
TABLE
  2
VIEW
  5
6
330
0
100
AcDbSymbolTable
 70
     0
  0
ENDTAB
  0
TABLE
  2
UCS
  5
7
330
0
100
AcDbSymbolTable
 70
     0
  0
ENDTAB
  0
TABLE
  2
APPID
  5
9
330
0
100
AcDbSymbolTable
 70
     2
  0
APPID
  5
12
330
9
100
AcDbSymbolTableRecord
100
AcDbRegAppTableRecord
  2
ACAD
 70
     0
  0
ENDTAB
  0
TABLE
  2
DIMSTYLE
  5
A
330
0
100
AcDbSymbolTable
 70
     1
  0
DIMSTYLE
105
27
330
A
100
AcDbSymbolTableRecord
100
AcDbDimStyleTableRecord
  2
ISO-25
 70
     0
  3

  4

  5

  6

  7

 40
1.0
 41
2.5
 42
0.625
 43
3.75
 44
1.25
 45
0.0
 46
0.0
 47
0.0
 48
0.0
140
2.5
141
2.5
142
0.0
143
0.03937007874016
144
1.0
145
0.0
146
1.0
147
0.625
 71
     0
 72
     0
 73
     0
 74
     0
 75
     0
 76
     0
 77
     1
 78
     8
170
     0
171
     3
172
     1
173
     0
174
     0
175
     0
176
     0
177
     0
178
     0
270
     2
271
     2
272
     2
273
     2
274
     3
340
11
275
     0
280
     0
281
     0
282
     0
283
     0
284
     8
285
     0
286
     0
287
     3
288
     0
  0
ENDTAB
  0
TABLE
  2
BLOCK_RECORD
  5
1
330
0
100
AcDbSymbolTable
 70
     1
  0
BLOCK_RECORD
  5
1F
330
1
100
AcDbSymbolTableRecord
100
AcDbBlockTableRecord
  2
*MODEL_SPACE
  0
BLOCK_RECORD
  5
1B
330
1
100
AcDbSymbolTableRecord
100
AcDbBlockTableRecord
  2
*PAPER_SPACE
  0
ENDTAB
  0
ENDSEC
  0
SECTION
  2
BLOCKS
  0
BLOCK
  5
20
330
1F
100
AcDbEntity
  8
0
100
AcDbBlockBegin
  2
*MODEL_SPACE
 70
     0
 10
0.0
 20
0.0
 30
0.0
  3
*MODEL_SPACE
  1

  0
ENDBLK
  5
21
330
1F
100
AcDbEntity
  8
0
100
AcDbBlockEnd
  0
BLOCK
  5
1C
330
1B
100
AcDbEntity
 67
     1
  8
0
100
AcDbBlockBegin
  2
*PAPER_SPACE
  1

  0
ENDBLK
  5
1D
330
1B
100
AcDbEntity
 67
     1
  8
0
100
AcDbBlockEnd
  0
ENDSEC
  0
SECTION
  2
ENTITIES
  0
LWPOLYLINE
  5
100
100
AcDbEntity
  8
Layer_1
 62
7
100
AcDbPolyline
 90
7
 70
0
 10
194.700140
 20
195.280673
 30
0.0
 10
194.536760
 20
242.986668
 30
0.0
 10
153.855950
 20
242.986668
 30
0.0
 10
153.855950
 20
267.983305
 30
0.0
 10
194.863520
 20
267.983305
 30
0.0
 10
194.863520
 20
275.498634
 30
0.0
 10
154.584670
 20
275.498635
 30
0.0
  0
LWPOLYLINE
  5
101
100
AcDbEntity
  8
Layer_1
 62
7
100
AcDbPolyline
 90
3
 70
0
 10
106.549970
 20
259.861588
 30
0.0
 10
106.549970
 20
268.032588
 30
0.0
 10
113.948670
 20
275.294281
 30
0.0
  0
LWPOLYLINE
  5
102
100
AcDbEntity
  8
Layer_1
 62
7
100
AcDbPolyline
 90
3
 70
0
 10
114.154200
 20
235.217958
 30
0.0
 10
106.549970
 20
242.000105
 30
0.0
 10
106.549970
 20
257.311966
 30
0.0
  0
LWPOLYLINE
  5
103
100
AcDbEntity
  8
Layer_1
 62
7
100
AcDbPolyline
 90
4
 70
0
 10
114.465320
 20
110.147820
 30
0.0
 10
106.861090
 20
116.929950
 30
0.0
 10
106.861090
 20
142.962440
 30
0.0
 10
114.259790
 20
150.224130
 30
0.0
  0
LWPOLYLINE
  5
104
100
AcDbEntity
  8
Layer_1
 62
7
100
AcDbPolyline
 90
3
 70
0
 10
194.577680
 20
47.917550
 30
0.0
 10
194.577680
 20
65.148040
 30
0.0
 10
153.497700
 20
65.148040
 30
0.0
  0
LWPOLYLINE
  5
105
100
AcDbEntity
  8
Layer_1
 62
7
100
AcDbPolyline
 90
4
 70
0
 10
153.855060
 20
24.146000
 30
0.0
 10
153.987770
 20
24.294800
 30
0.0
 10
194.577680
 20
24.294800
 30
0.0
 10
194.577680
 20
43.209750
 30
0.0
  0
LWPOLYLINE
  5
106
100
AcDbEntity
  8
Layer_1
 62
7
100
AcDbPolyline
 90
4
 70
0
 10
113.911460
 20
24.089290
 30
0.0
 10
121.173140
 20
16.690580
 30
0.0
 10
147.205640
 20
16.690580
 30
0.0
 10
153.855060
 20
24.146000
 30
0.0
  0
LWPOLYLINE
  5
107
100
AcDbEntity
  8
Layer_1
 62
7
100
AcDbPolyline
 90
4
 70
0
 10
114.359040
 20
275.683837
 30
0.0
 10
121.620730
 20
283.082549
 30
0.0
 10
147.653220
 20
283.082549
 30
0.0
 10
154.302640
 20
275.627128
 30
0.0
  0
LWPOLYLINE
  5
108
100
AcDbEntity
  8
Layer_1
 62
7
100
AcDbPolyline
 90
2
 70
0
 10
113.778810
 20
83.103860
 30
0.0
 10
113.778810
 20
110.187540
 30
0.0
  0
LWPOLYLINE
  5
109
100
AcDbEntity
  8
Layer_1
 62
7
100
AcDbPolyline
 90
2
 70
0
 10
113.778810
 20
70.750100
 30
0.0
 10
113.778810
 20
79.710210
 30
0.0
  0
LWPOLYLINE
  5
10a
100
AcDbEntity
  8
Layer_1
 62
7
100
AcDbPolyline
 90
2
 70
0
 10
113.778810
 20
24.686750
 30
0.0
 10
113.778810
 20
64.537370
 30
0.0
  0
LWPOLYLINE
  5
10b
100
AcDbEntity
  8
Layer_1
 62
7
100
AcDbPolyline
 90
2
 70
0
 10
194.527120
 20
85.846560
 30
0.0
 10
194.527110
 20
195.434801
 30
0.0
  0
LWPOLYLINE
  5
10c
100
AcDbEntity
  8
Layer_1
 62
7
100
AcDbPolyline
 90
2
 70
0
 10
194.527110
 20
65.163430
 30
0.0
 10
194.527120
 20
85.562240
 30
0.0
  0
LWPOLYLINE
  5
10d
100
AcDbEntity
  8
Layer_1
 62
7
100
AcDbPolyline
 90
6
 70
0
 10
113.228660
 20
234.997327
 30
0.0
 10
74.182567
 20
234.997327
 30
0.0
 10
67.083274
 20
227.898036
 30
0.0
 10
67.083274
 20
157.665760
 30
0.0
 10
74.182567
 20
150.566470
 30
0.0
 10
113.735760
 20
150.566470
 30
0.0
  0
LWPOLYLINE
  5
10e
100
AcDbEntity
  8
Layer_1
 62
7
100
AcDbPolyline
 90
3
 70
0
 10
194.117980
 20
235.062474
 30
0.0
 10
153.655280
 20
235.062474
 30
0.0
 10
153.655280
 20
195.274152
 30
0.0
  0
LWPOLYLINE
  5
10f
100
AcDbEntity
  8
Layer_1
 62
7
100
AcDbPolyline
 90
4
 70
1
 10
129.480210
 20
257.297516
 30
0.0
 10
141.132960
 20
257.038565
 30
0.0
 10
141.132960
 20
196.314838
 30
0.0
 10
129.480210
 20
196.314838
 30
0.0
  0
LWPOLYLINE
  5
110
100
AcDbEntity
  8
Layer_1
 62
7
100
AcDbPolyline
 90
4
 70
1
 10
130.516010
 20
99.399790
 30
0.0
 10
142.168750
 20
99.140830
 30
0.0
 10
142.168750
 20
38.417110
 30
0.0
 10
130.516010
 20
38.417110
 30
0.0
  0
LWPOLYLINE
  5
111
100
AcDbEntity
  8
Layer_1
 62
7
100
AcDbPolyline
 90
2
 70
0
 10
154.010240
 20
24.237890
 30
0.0
 10
133.595790
 20
24.237890
 30
0.0
  0
LWPOLYLINE
  5
112
100
AcDbEntity
  8
Layer_1
 62
7
100
AcDbPolyline
 90
2
 70
0
 10
114.280140
 20
275.555943
 30
0.0
 10
134.694590
 20
275.555943
 30
0.0
  0
LWPOLYLINE
  5
113
100
AcDbEntity
  8
Layer_1
 62
1
100
AcDbPolyline
 90
2
 70
0
 10
140.486850
 20
275.424942
 30
0.0
 10
136.085640
 20
275.424942
 30
0.0
  0
LWPOLYLINE
  5
114
100
AcDbEntity
  8
Layer_1
 62
1
100
AcDbPolyline
 90
2
 70
0
 10
147.088660
 20
275.424942
 30
0.0
 10
142.687250
 20
275.424942
 30
0.0
  0
LWPOLYLINE
  5
115
100
AcDbEntity
  8
Layer_1
 62
1
100
AcDbPolyline
 90
2
 70
0
 10
153.689360
 20
275.424942
 30
0.0
 10
149.288760
 20
275.424942
 30
0.0
  0
LWPOLYLINE
  5
116
100
AcDbEntity
  8
Layer_1
 62
7
100
AcDbPolyline
 90
4
 70
1
 10
73.627546
 20
197.649381
 30
0.0
 10
75.198236
 20
196.718599
 30
0.0
 10
75.430930
 20
188.399760
 30
0.0
 10
73.336677
 20
188.108890
 30
0.0
  0
LWPOLYLINE
  5
117
100
AcDbEntity
  8
Layer_1
 62
7
100
AcDbPolyline
 90
4
 70
0
 10
113.808460
 20
70.895850
 30
0.0
 10
107.656090
 20
70.895850
 30
0.0
 10
107.656090
 20
64.506850
 30
0.0
 10
113.808460
 20
64.506850
 30
0.0
  0
LWPOLYLINE
  5
118
100
AcDbEntity
  8
Layer_1
 62
7
100
AcDbPolyline
 90
3
 70
0
 10
165.835820
 20
83.073130
 30
0.0
 10
165.835820
 20
95.473290
 30
0.0
 10
194.730530
 20
95.473290
 30
0.0
  0
LWPOLYLINE
  5
119
100
AcDbEntity
  8
Layer_1
 62
7
100
AcDbPolyline
 90
6
 70
0
 10
39.972697
 20
90.667620
 30
0.0
 10
16.332867
 20
90.667620
 30
0.0
 10
11.918367
 20
95.082130
 30
0.0
 10
11.918367
 20
114.815870
 30
0.0
 10
16.172077
 20
119.069600
 30
0.0
 10
40.529927
 20
119.075600
 30
0.0
  0
LWPOLYLINE
  5
11a
100
AcDbEntity
  8
Layer_1
 62
7
100
AcDbPolyline
 90
3
 70
0
 10
74.693727
 20
90.760450
 30
0.0
 10
74.693727
 20
90.667550
 30
0.0
 10
45.231077
 20
90.667550
 30
0.0
  0
LWPOLYLINE
  5
11b
100
AcDbEntity
  8
Layer_1
 62
7
100
AcDbPolyline
 90
4
 70
0
 10
45.443087
 20
119.077090
 30
0.0
 10
74.744767
 20
119.084090
 30
0.0
 10
74.744767
 20
119.084090
 30
0.0
 10
74.744767
 20
119.004890
 30
0.0
  0
LWPOLYLINE
  5
11c
100
AcDbEntity
  8
Layer_1
 62
7
100
AcDbPolyline
 90
2
 70
0
 10
74.774217
 20
119.046270
 30
0.0
 10
84.348437
 20
115.674740
 30
0.0
  0
LWPOLYLINE
  5
11d
100
AcDbEntity
  8
Layer_1
 62
7
100
AcDbPolyline
 90
3
 70
0
 10
74.644157
 20
90.668930
 30
0.0
 10
84.503277
 20
94.059840
 30
0.0
 10
84.503277
 20
115.833090
 30
0.0
  0
LWPOLYLINE
  5
11e
100
AcDbEntity
  8
Layer_1
 62
7
100
AcDbPolyline
 90
2
 70
0
 10
16.353847
 20
105.360320
 30
0.0
 10
16.297347
 20
90.649120
 30
0.0
  0
LWPOLYLINE
  5
11f
100
AcDbEntity
  8
Layer_1
 62
7
100
AcDbPolyline
 90
2
 70
0
 10
74.883697
 20
118.911170
 30
0.0
 10
74.827097
 20
105.183090
 30
0.0
  0
LWPOLYLINE
  5
120
100
AcDbEntity
  8
Layer_1
 62
7
100
AcDbPolyline
 90
2
 70
0
 10
75.472077
 20
119.025140
 30
0.0
 10
75.415477
 20
105.297060
 30
0.0
  0
SPLINE
  5
121
100
AcDbEntity
  8
Layer_1
 62
7
100
AcDbSpline
 70
0
 71
3
 72
13
 73
9
 74
7
 40
0.000000
 40
0.000000
 40
0.000000
 40
0.000000
 40
2.875092
 40
5.717987
 40
8.593079
 40
12.704494
 40
16.726419
 40
20.837833
 40
20.837833
 40
20.837833
 40
20.837833
 10
48.827057
 20
135.696180
 30
0.0
 10
49.540202
 20
135.044551
 30
0.0
 10
50.958505
 20
133.748590
 30
0.0
 10
52.218338
 20
131.102403
 30
0.0
 10
52.740701
 20
127.824051
 30
0.0
 10
51.902610
 20
124.139664
 30
0.0
 10
49.354719
 20
120.711468
 30
0.0
 10
46.799303
 20
119.679474
 30
0.0
 10
45.507537
 20
119.157800
 30
0.0
 11
48.827057
 21
135.696180
 31
0.0
 11
50.819857
 21
133.623765
 31
0.0
 11
52.081507
 21
131.076160
 31
0.0
 11
52.522047
 21
128.235020
 31
0.0
 11
51.621565
 21
124.223429
 31
0.0
 11
49.162305
 21
121.040990
 31
0.0
 11
45.507537
 21
119.157800
 31
0.0
  0
SPLINE
  5
122
100
AcDbEntity
  8
Layer_1
 62
7
100
AcDbSpline
 70
0
 71
3
 72
13
 73
9
 74
7
 40
0.000000
 40
0.000000
 40
0.000000
 40
0.000000
 40
4.097407
 40
8.106176
 40
12.203583
 40
16.591278
 40
20.871727
 40
25.259422
 40
25.259422
 40
25.259422
 40
25.259422
 10
40.734747
 20
119.168520
 30
0.0
 10
39.449625
 20
119.693477
 30
0.0
 10
36.907182
 20
120.732035
 30
0.0
 10
34.376409
 20
124.154500
 30
0.0
 10
33.427758
 20
128.331261
 30
0.0
 10
34.466444
 20
132.604028
 30
0.0
 10
37.358381
 20
136.158582
 30
0.0
 10
40.167221
 20
137.039999
 30
0.0
 10
41.589017
 20
137.486160
 30
0.0
 11
40.734747
 21
119.168520
 31
0.0
 11
37.099463
 21
121.058879
 31
0.0
 11
34.655386
 21
124.236412
 31
0.0
 11
33.761027
 21
128.235020
 31
0.0
 11
34.786418
 21
132.501218
 31
0.0
 11
37.551361
 21
135.768835
 31
0.0
 11
41.589017
 21
137.486160
 31
0.0
  0
SPLINE
  5
123
100
AcDbEntity
  8
Layer_1
 62
1
100
AcDbSpline
 70
0
 71
3
 72
10
 73
6
 74
4
 40
0.000000
 40
0.000000
 40
0.000000
 40
0.000000
 40
0.951596
 40
1.548292
 40
1.754990
 40
1.754990
 40
1.754990
 40
1.754990
 10
16.346117
 20
106.843490
 30
0.0
 10
16.347239
 20
106.526293
 30
0.0
 10
16.349065
 20
106.010199
 30
0.0
 10
16.351036
 20
105.425206
 30
0.0
 10
16.351896
 20
105.157409
 30
0.0
 10
16.352117
 20
105.088510
 30
0.0
 11
16.346117
 21
106.843490
 31
0.0
 11
16.349450
 21
105.891900
 31
0.0
 11
16.351450
 21
105.295207
 31
0.0
 11
16.352117
 21
105.088510
 31
0.0
  0
SPLINE
  5
124
100
AcDbEntity
  8
Layer_1
 62
1
100
AcDbSpline
 70
0
 71
3
 72
10
 73
6
 74
4
 40
0.000000
 40
0.000000
 40
0.000000
 40
0.000000
 40
0.886469
 40
1.724648
 40
2.511373
 40
2.511373
 40
2.511373
 40
2.511373
 10
16.329497
 20
111.869780
 30
0.0
 10
16.330693
 20
111.574293
 30
0.0
 10
16.333020
 20
110.999415
 30
0.0
 10
16.335412
 20
110.162294
 30
0.0
 10
16.336817
 20
109.620661
 30
0.0
 10
16.337497
 20
109.358420
 30
0.0
 11
16.329497
 21
111.869780
 31
0.0
 11
16.332904
 21
110.983318
 31
0.0
 11
16.335423
 21
110.145142
 31
0.0
 11
16.337497
 21
109.358420
 31
0.0
  0
SPLINE
  5
125
100
AcDbEntity
  8
Layer_1
 62
1
100
AcDbSpline
 70
0
 71
3
 72
10
 73
6
 74
4
 40
0.000000
 40
0.000000
 40
0.000000
 40
0.000000
 40
0.857287
 40
1.695525
 40
2.512913
 40
2.512913
 40
2.512913
 40
2.512913
 10
16.312867
 20
116.897140
 30
0.0
 10
16.313652
 20
116.611379
 30
0.0
 10
16.315204
 20
116.046206
 30
0.0
 10
16.318458
 20
115.208574
 30
0.0
 10
16.320071
 20
114.656701
 30
0.0
 10
16.320867
 20
114.384240
 30
0.0
 11
16.312867
 21
116.897140
 31
0.0
 11
16.315386
 21
116.039856
 31
0.0
 11
16.318348
 21
115.201624
 31
0.0
 11
16.320867
 21
114.384240
 31
0.0
  0
SPLINE
  5
126
100
AcDbEntity
  8
Layer_1
 62
1
100
AcDbSpline
 70
0
 71
3
 72
10
 73
6
 74
4
 40
0.000000
 40
0.000000
 40
0.000000
 40
0.000000
 40
0.951603
 40
1.548302
 40
1.755000
 40
1.755000
 40
1.755000
 40
1.755000
 10
74.779707
 20
93.922370
 30
0.0
 10
74.780829
 20
93.605171
 30
0.0
 10
74.782655
 20
93.089074
 30
0.0
 10
74.784626
 20
92.504077
 30
0.0
 10
74.785486
 20
92.236279
 30
0.0
 10
74.785707
 20
92.167380
 30
0.0
 11
74.779707
 21
93.922370
 31
0.0
 11
74.783040
 21
92.970773
 31
0.0
 11
74.785040
 21
92.374077
 31
0.0
 11
74.785707
 21
92.167380
 31
0.0
  0
SPLINE
  5
127
100
AcDbEntity
  8
Layer_1
 62
1
100
AcDbSpline
 70
0
 71
3
 72
10
 73
6
 74
4
 40
0.000000
 40
0.000000
 40
0.000000
 40
0.000000
 40
0.886476
 40
1.724658
 40
2.511383
 40
2.511383
 40
2.511383
 40
2.511383
 10
74.763087
 20
98.948660
 30
0.0
 10
74.764283
 20
98.653170
 30
0.0
 10
74.766610
 20
98.078289
 30
0.0
 10
74.769002
 20
97.241165
 30
0.0
 10
74.770407
 20
96.699531
 30
0.0
 10
74.771087
 20
96.437290
 30
0.0
 11
74.763087
 21
98.948660
 31
0.0
 11
74.766494
 21
98.062191
 31
0.0
 11
74.769013
 21
97.224013
 31
0.0
 11
74.771087
 21
96.437290
 31
0.0
  0
LWPOLYLINE
  5
128
100
AcDbEntity
  8
Layer_1
 62
7
100
AcDbPolyline
 90
1
 70
1
 10
52.522047
 20
128.235020
 30
0.0
  0
LWPOLYLINE
  5
129
100
AcDbEntity
  8
Layer_1
 62
7
100
AcDbPolyline
 90
2
 70
0
 10
178.736180
 20
150.143500
 30
0.0
 10
194.401520
 20
150.087100
 30
0.0
  0
LWPOLYLINE
  5
12a
100
AcDbEntity
  8
Layer_1
 62
7
100
AcDbPolyline
 90
2
 70
0
 10
59.776924
 20
68.029160
 30
0.0
 10
43.913341
 20
68.029160
 30
0.0
  0
LWPOLYLINE
  5
12b
100
AcDbEntity
  8
Layer_1
 62
7
100
AcDbPolyline
 90
2
 70
0
 10
59.822108
 20
35.884180
 30
0.0
 10
43.958525
 20
35.884180
 30
0.0
  0
LWPOLYLINE
  5
12c
100
AcDbEntity
  8
Layer_1
 62
7
100
AcDbPolyline
 90
2
 70
0
 10
59.832360
 20
67.569160
 30
0.0
 10
59.832360
 20
83.432740
 30
0.0
  0
LWPOLYLINE
  5
12d
100
AcDbEntity
  8
Layer_1
 62
7
100
AcDbPolyline
 90
2
 70
0
 10
59.925796
 20
20.103770
 30
0.0
 10
59.925796
 20
35.967350
 30
0.0
  0
LWPOLYLINE
  5
12e
100
AcDbEntity
  8
Layer_1
 62
7
100
AcDbPolyline
 90
2
 70
0
 10
44.135144
 20
50.284420
 30
0.0
 10
44.135144
 20
35.977610
 30
0.0
  0
LWPOLYLINE
  5
12f
100
AcDbEntity
  8
Layer_1
 62
7
100
AcDbPolyline
 90
2
 70
0
 10
44.135144
 20
67.932660
 30
0.0
 10
44.135144
 20
53.942110
 30
0.0
  0
LWPOLYLINE
  5
130
100
AcDbEntity
  8
Layer_1
 62
7
100
AcDbPolyline
 90
2
 70
0
 10
74.434089
 20
28.602820
 30
0.0
 10
86.246391
 20
35.422650
 30
0.0
  0
LWPOLYLINE
  5
131
100
AcDbEntity
  8
Layer_1
 62
7
100
AcDbPolyline
 90
2
 70
0
 10
60.019232
 20
20.280390
 30
0.0
 10
70.739586
 20
26.469790
 30
0.0
  0
LWPOLYLINE
  5
132
100
AcDbEntity
  8
Layer_1
 62
7
100
AcDbPolyline
 90
2
 70
0
 10
68.693700
 20
77.813330
 30
0.0
 10
59.760967
 20
82.970640
 30
0.0
  0
LWPOLYLINE
  5
133
100
AcDbEntity
  8
Layer_1
 62
7
100
AcDbPolyline
 90
2
 70
0
 10
85.807516
 20
67.932660
 30
0.0
 10
73.003085
 20
75.325310
 30
0.0
  0
LWPOLYLINE
  5
134
100
AcDbEntity
  8
Layer_1
 62
7
100
AcDbPolyline
 90
2
 70
0
 10
85.755463
 20
50.132530
 30
0.0
 10
85.755464
 20
35.220790
 30
0.0
  0
LWPOLYLINE
  5
135
100
AcDbEntity
  8
Layer_1
 62
7
100
AcDbPolyline
 90
2
 70
0
 10
85.755464
 20
67.847180
 30
0.0
 10
85.755464
 20
53.702330
 30
0.0
  0
LWPOLYLINE
  5
136
100
AcDbEntity
  8
Layer_1
 62
7
100
AcDbPolyline
 90
4
 70
1
 10
106.169900
 20
176.161840
 30
0.0
 10
106.169900
 20
169.303820
 30
0.0
 10
106.595360
 20
169.303820
 30
0.0
 10
106.595360
 20
176.246510
 30
0.0
  0
LWPOLYLINE
  5
137
100
AcDbEntity
  8
Layer_1
 62
7
100
AcDbPolyline
 90
4
 70
1
 10
78.626457
 20
176.426030
 30
0.0
 10
78.626457
 20
169.595680
 30
0.0
 10
79.134178
 20
169.595680
 30
0.0
 10
79.134178
 20
176.510360
 30
0.0
  0
LWPOLYLINE
  5
138
100
AcDbEntity
  8
Layer_1
 62
7
100
AcDbPolyline
 90
2
 70
0
 10
22.063987
 20
121.246460
 30
0.0
 10
22.063987
 20
88.093760
 30
0.0
  0
LWPOLYLINE
  5
139
100
AcDbEntity
  8
Layer_1
 62
7
100
AcDbPolyline
 90
2
 70
0
 10
27.033977
 20
121.158750
 30
0.0
 10
27.033977
 20
88.006050
 30
0.0
  0
LWPOLYLINE
  5
13a
100
AcDbEntity
  8
Layer_1
 62
7
100
AcDbPolyline
 90
2
 70
0
 10
31.887017
 20
121.217220
 30
0.0
 10
31.887017
 20
88.064530
 30
0.0
  0
LWPOLYLINE
  5
13b
100
AcDbEntity
  8
Layer_1
 62
7
100
AcDbPolyline
 90
2
 70
0
 10
36.798527
 20
121.193260
 30
0.0
 10
36.798527
 20
86.100000
 30
0.0
  0
LWPOLYLINE
  5
13c
100
AcDbEntity
  8
Layer_1
 62
7
100
AcDbPolyline
 90
2
 70
0
 10
65.312672
 20
68.786980
 30
0.0
 10
65.312672
 20
35.634280
 30
0.0
  0
LWPOLYLINE
  5
13d
100
AcDbEntity
  8
Layer_1
 62
7
100
AcDbPolyline
 90
2
 70
0
 10
70.282662
 20
68.699270
 30
0.0
 10
70.282662
 20
35.546570
 30
0.0
  0
LWPOLYLINE
  5
13e
100
AcDbEntity
  8
Layer_1
 62
7
100
AcDbPolyline
 90
2
 70
0
 10
75.135702
 20
68.757740
 30
0.0
 10
75.135702
 20
35.605050
 30
0.0
  0
LWPOLYLINE
  5
13f
100
AcDbEntity
  8
Layer_1
 62
7
100
AcDbPolyline
 90
2
 70
0
 10
80.047212
 20
68.733780
 30
0.0
 10
80.047212
 20
33.640520
 30
0.0
  0
LWPOLYLINE
  5
140
100
AcDbEntity
  8
Layer_1
 62
7
100
AcDbPolyline
 90
2
 70
0
 10
56.121120
 20
48.874352
 30
0.0
 10
89.273820
 20
48.874352
 30
0.0
  0
LWPOLYLINE
  5
141
100
AcDbEntity
  8
Layer_1
 62
7
100
AcDbPolyline
 90
2
 70
0
 10
56.208830
 20
53.844342
 30
0.0
 10
89.361530
 20
53.844342
 30
0.0
  0
LWPOLYLINE
  5
142
100
AcDbEntity
  8
Layer_1
 62
7
100
AcDbPolyline
 90
2
 70
0
 10
56.150360
 20
58.697382
 30
0.0
 10
89.303050
 20
58.697382
 30
0.0
  0
LWPOLYLINE
  5
143
100
AcDbEntity
  8
Layer_1
 62
7
100
AcDbPolyline
 90
2
 70
0
 10
56.174320
 20
63.608892
 30
0.0
 10
91.267580
 20
63.608892
 30
0.0
  0
LWPOLYLINE
  5
144
100
AcDbEntity
  8
Layer_1
 62
7
100
AcDbPolyline
 90
2
 70
0
 10
56.269889
 20
39.611990
 30
0.0
 10
89.422579
 20
39.611990
 30
0.0
  0
LWPOLYLINE
  5
145
100
AcDbEntity
  8
Layer_1
 62
7
100
AcDbPolyline
 90
2
 70
0
 10
56.293849
 20
44.523500
 30
0.0
 10
88.957880
 20
44.523500
 30
0.0
  0
LWPOLYLINE
  5
146
100
AcDbEntity
  8
Layer_1
 62
7
100
AcDbPolyline
 90
2
 70
0
 10
51.474587
 20
121.193280
 30
0.0
 10
51.474587
 20
86.100010
 30
0.0
  0
LWPOLYLINE
  5
147
100
AcDbEntity
  8
Layer_1
 62
7
100
AcDbPolyline
 90
2
 70
0
 10
56.327627
 20
121.193260
 30
0.0
 10
56.327627
 20
86.100000
 30
0.0
  0
LWPOLYLINE
  5
148
100
AcDbEntity
  8
Layer_1
 62
7
100
AcDbPolyline
 90
2
 70
0
 10
61.297607
 20
121.626510
 30
0.0
 10
61.297607
 20
86.533240
 30
0.0
  0
LWPOLYLINE
  5
149
100
AcDbEntity
  8
Layer_1
 62
7
100
AcDbPolyline
 90
2
 70
0
 10
66.150657
 20
120.796010
 30
0.0
 10
66.150657
 20
88.516980
 30
0.0
  0
LWPOLYLINE
  5
14a
100
AcDbEntity
  8
Layer_1
 62
7
100
AcDbPolyline
 90
2
 70
0
 10
70.945207
 20
121.392640
 30
0.0
 10
70.945207
 20
88.239940
 30
0.0
  0
LWPOLYLINE
  5
14b
100
AcDbEntity
  8
Layer_1
 62
7
100
AcDbPolyline
 90
2
 70
0
 10
46.621557
 20
120.017310
 30
0.0
 10
46.621557
 20
84.924040
 30
0.0
  0
LWPOLYLINE
  5
14c
100
AcDbEntity
  8
Layer_1
 62
7
100
AcDbPolyline
 90
2
 70
0
 10
41.710037
 20
120.326770
 30
0.0
 10
41.710037
 20
85.233500
 30
0.0
  0
LWPOLYLINE
  5
14d
100
AcDbEntity
  8
Layer_1
 62
7
100
AcDbPolyline
 90
2
 70
0
 10
76.913565
 20
228.392352
 30
0.0
 10
76.913565
 20
193.299082
 30
0.0
  0
LWPOLYLINE
  5
14e
100
AcDbEntity
  8
Layer_1
 62
7
100
AcDbPolyline
 90
2
 70
0
 10
111.745690
 20
193.310909
 30
0.0
 10
76.652417
 20
193.310909
 30
0.0
  0
LWPOLYLINE
  5
14f
100
AcDbEntity
  8
Layer_1
 62
7
100
AcDbPolyline
 90
2
 70
0
 10
111.528750
 20
228.551397
 30
0.0
 10
111.528750
 20
193.458127
 30
0.0
  0
LWPOLYLINE
  5
150
100
AcDbEntity
  8
Layer_1
 62
7
100
AcDbPolyline
 90
2
 70
0
 10
76.736509
 20
228.588280
 30
0.0
 10
111.829770
 20
228.588280
 30
0.0
  0
LWPOLYLINE
  5
151
100
AcDbEntity
  8
Layer_1
 62
7
100
AcDbPolyline
 90
2
 70
0
 10
16.333887
 20
115.282490
 30
0.0
 10
77.318487
 20
115.282490
 30
0.0
  0
LWPOLYLINE
  5
152
100
AcDbEntity
  8
Layer_1
 62
7
100
AcDbPolyline
 90
2
 70
0
 10
16.538537
 20
112.008140
 30
0.0
 10
77.523127
 20
112.008140
 30
0.0
  0
LWPOLYLINE
  5
153
100
AcDbEntity
  8
Layer_1
 62
7
100
AcDbPolyline
 90
2
 70
0
 10
16.597017
 20
97.273610
 30
0.0
 10
77.581607
 20
97.273610
 30
0.0
  0
SPLINE
  5
154
100
AcDbEntity
  8
Layer_1
 62
1
100
AcDbSpline
 70
0
 71
3
 72
10
 73
6
 74
4
 40
0.000000
 40
0.000000
 40
0.000000
 40
0.000000
 40
0.857292
 40
1.695530
 40
2.512923
 40
2.512923
 40
2.512923
 40
2.512923
 10
74.746467
 20
103.976020
 30
0.0
 10
74.747252
 20
103.690257
 30
0.0
 10
74.748804
 20
103.125082
 30
0.0
 10
74.752058
 20
102.287448
 30
0.0
 10
74.753671
 20
101.735573
 30
0.0
 10
74.754467
 20
101.463110
 30
0.0
 11
74.746467
 21
103.976020
 31
0.0
 11
74.748986
 21
103.118731
 31
0.0
 11
74.751948
 21
102.280499
 31
0.0
 11
74.754467
 21
101.463110
 31
0.0
  0
LWPOLYLINE
  5
155
100
AcDbEntity
  8
Layer_1
 62
7
100
AcDbPolyline
 90
2
 70
0
 10
16.538537
 20
93.648450
 30
0.0
 10
77.523127
 20
93.648450
 30
0.0
  0
LWPOLYLINE
  5
156
100
AcDbEntity
  8
Layer_1
 62
7
100
AcDbPolyline
 90
1
 70
1
 10
11.891285
 20
283.979172
 30
0.0
  0
LWPOLYLINE
  5
157
100
AcDbEntity
  8
Layer_1
 62
1
100
AcDbPolyline
 90
2
 70
0
 10
153.791980
 20
64.657740
 30
0.0
 10
153.791980
 20
65.197840
 30
0.0
  0
LWPOLYLINE
  5
158
100
AcDbEntity
  8
Layer_1
 62
1
100
AcDbPolyline
 90
2
 70
0
 10
153.791980
 20
58.058350
 30
0.0
 10
153.791980
 20
62.458960
 30
0.0
  0
LWPOLYLINE
  5
159
100
AcDbEntity
  8
Layer_1
 62
1
100
AcDbPolyline
 90
2
 70
0
 10
153.791980
 20
51.454920
 30
0.0
 10
153.791980
 20
55.856540
 30
0.0
  0
LWPOLYLINE
  5
15a
100
AcDbEntity
  8
Layer_1
 62
1
100
AcDbPolyline
 90
2
 70
0
 10
153.791980
 20
44.852500
 30
0.0
 10
153.791980
 20
49.253100
 30
0.0
  0
LWPOLYLINE
  5
15b
100
AcDbEntity
  8
Layer_1
 62
1
100
AcDbPolyline
 90
2
 70
0
 10
153.791980
 20
38.250070
 30
0.0
 10
153.791980
 20
42.651690
 30
0.0
  0
LWPOLYLINE
  5
15c
100
AcDbEntity
  8
Layer_1
 62
1
100
AcDbPolyline
 90
2
 70
0
 10
153.791980
 20
31.646630
 30
0.0
 10
153.791980
 20
36.048250
 30
0.0
  0
LWPOLYLINE
  5
15d
100
AcDbEntity
  8
Layer_1
 62
1
100
AcDbPolyline
 90
2
 70
0
 10
153.791980
 20
25.044210
 30
0.0
 10
153.791980
 20
29.445830
 30
0.0
  0
LWPOLYLINE
  5
15e
100
AcDbEntity
  8
Layer_1
 62
1
100
AcDbPolyline
 90
2
 70
0
 10
127.803530
 20
24.106890
 30
0.0
 10
132.204740
 20
24.106890
 30
0.0
  0
LWPOLYLINE
  5
15f
100
AcDbEntity
  8
Layer_1
 62
1
100
AcDbPolyline
 90
2
 70
0
 10
121.201710
 20
24.106890
 30
0.0
 10
125.603130
 20
24.106890
 30
0.0
  0
LWPOLYLINE
  5
160
100
AcDbEntity
  8
Layer_1
 62
1
100
AcDbPolyline
 90
2
 70
0
 10
114.601010
 20
24.106890
 30
0.0
 10
119.001620
 20
24.106890
 30
0.0
  0
LWPOLYLINE
  5
161
100
AcDbEntity
  8
Layer_1
 62
1
100
AcDbPolyline
 90
2
 70
0
 10
172.070010
 20
150.059410
 30
0.0
 10
176.470610
 20
150.059410
 30
0.0
  0
LWPOLYLINE
  5
162
100
AcDbEntity
  8
Layer_1
 62
1
100
AcDbPolyline
 90
2
 70
0
 10
165.469600
 20
150.059410
 30
0.0
 10
169.870210
 20
150.059410
 30
0.0
  0
LWPOLYLINE
  5
163
100
AcDbEntity
  8
Layer_1
 62
1
100
AcDbPolyline
 90
2
 70
0
 10
158.866160
 20
150.059410
 30
0.0
 10
163.267780
 20
150.059410
 30
0.0
  0
LWPOLYLINE
  5
164
100
AcDbEntity
  8
Layer_1
 62
1
100
AcDbPolyline
 90
2
 70
0
 10
152.263750
 20
150.059410
 30
0.0
 10
156.664350
 20
150.059410
 30
0.0
  0
LWPOLYLINE
  5
165
100
AcDbEntity
  8
Layer_1
 62
1
100
AcDbPolyline
 90
2
 70
0
 10
145.661330
 20
150.059410
 30
0.0
 10
150.062940
 20
150.059410
 30
0.0
  0
LWPOLYLINE
  5
166
100
AcDbEntity
  8
Layer_1
 62
1
100
AcDbPolyline
 90
2
 70
0
 10
139.059420
 20
150.059410
 30
0.0
 10
143.461630
 20
150.059410
 30
0.0
  0
LWPOLYLINE
  5
167
100
AcDbEntity
  8
Layer_1
 62
1
100
AcDbPolyline
 90
2
 70
0
 10
132.456070
 20
150.059410
 30
0.0
 10
136.858300
 20
150.059410
 30
0.0
  0
LWPOLYLINE
  5
168
100
AcDbEntity
  8
Layer_1
 62
1
100
AcDbPolyline
 90
2
 70
0
 10
125.854160
 20
150.059410
 30
0.0
 10
130.254960
 20
150.059410
 30
0.0
  0
LWPOLYLINE
  5
169
100
AcDbEntity
  8
Layer_1
 62
1
100
AcDbPolyline
 90
2
 70
0
 10
119.251530
 20
150.059410
 30
0.0
 10
123.652840
 20
150.059410
 30
0.0
  0
LWPOLYLINE
  5
16a
100
AcDbEntity
  8
Layer_1
 62
1
100
AcDbPolyline
 90
3
 70
0
 10
113.989310
 20
148.719310
 30
0.0
 10
113.989310
 20
150.059410
 30
0.0
 10
117.050520
 20
150.059410
 30
0.0
  0
LWPOLYLINE
  5
16b
100
AcDbEntity
  8
Layer_1
 62
1
100
AcDbPolyline
 90
2
 70
0
 10
113.989310
 20
142.115870
 30
0.0
 10
113.989310
 20
146.517490
 30
0.0
  0
LWPOLYLINE
  5
16c
100
AcDbEntity
  8
Layer_1
 62
1
100
AcDbPolyline
 90
2
 70
0
 10
113.989310
 20
135.512440
 30
0.0
 10
113.989310
 20
139.913040
 30
0.0
  0
LWPOLYLINE
  5
16d
100
AcDbEntity
  8
Layer_1
 62
1
100
AcDbPolyline
 90
2
 70
0
 10
113.989310
 20
128.911020
 30
0.0
 10
113.989310
 20
133.312640
 30
0.0
  0
LWPOLYLINE
  5
16e
100
AcDbEntity
  8
Layer_1
 62
1
100
AcDbPolyline
 90
2
 70
0
 10
113.989310
 20
122.308590
 30
0.0
 10
113.989310
 20
126.710210
 30
0.0
  0
LWPOLYLINE
  5
16f
100
AcDbEntity
  8
Layer_1
 62
1
100
AcDbPolyline
 90
2
 70
0
 10
113.989310
 20
115.707180
 30
0.0
 10
113.989310
 20
120.108790
 30
0.0
  0
LWPOLYLINE
  5
170
100
AcDbEntity
  8
Layer_1
 62
1
100
AcDbPolyline
 90
3
 70
0
 10
114.883190
 20
109.998840
 30
0.0
 10
113.989310
 20
109.998840
 30
0.0
 10
113.989310
 20
113.506380
 30
0.0
  0
LWPOLYLINE
  5
171
100
AcDbEntity
  8
Layer_1
 62
1
100
AcDbPolyline
 90
2
 70
0
 10
121.484000
 20
109.998840
 30
0.0
 10
117.084300
 20
109.998840
 30
0.0
  0
LWPOLYLINE
  5
172
100
AcDbEntity
  8
Layer_1
 62
1
100
AcDbPolyline
 90
2
 70
0
 10
128.088140
 20
109.998840
 30
0.0
 10
123.685610
 20
109.998840
 30
0.0
  0
LWPOLYLINE
  5
173
100
AcDbEntity
  8
Layer_1
 62
1
100
AcDbPolyline
 90
2
 70
0
 10
134.691780
 20
109.998840
 30
0.0
 10
130.289650
 20
109.998840
 30
0.0
  0
LWPOLYLINE
  5
174
100
AcDbEntity
  8
Layer_1
 62
1
100
AcDbPolyline
 90
2
 70
0
 10
141.293090
 20
109.998840
 30
0.0
 10
136.891980
 20
109.998840
 30
0.0
  0
LWPOLYLINE
  5
175
100
AcDbEntity
  8
Layer_1
 62
1
100
AcDbPolyline
 90
2
 70
0
 10
147.895520
 20
109.998840
 30
0.0
 10
143.493900
 20
109.998840
 30
0.0
  0
LWPOLYLINE
  5
176
100
AcDbEntity
  8
Layer_1
 62
1
100
AcDbPolyline
 90
2
 70
0
 10
154.497940
 20
109.998840
 30
0.0
 10
150.096320
 20
109.998840
 30
0.0
  0
LWPOLYLINE
  5
177
100
AcDbEntity
  8
Layer_1
 62
1
100
AcDbPolyline
 90
2
 70
0
 10
161.099340
 20
109.998840
 30
0.0
 10
156.698750
 20
109.998840
 30
0.0
  0
LWPOLYLINE
  5
178
100
AcDbEntity
  8
Layer_1
 62
1
100
AcDbPolyline
 90
2
 70
0
 10
167.702780
 20
109.998840
 30
0.0
 10
163.301160
 20
109.998840
 30
0.0
  0
LWPOLYLINE
  5
179
100
AcDbEntity
  8
Layer_1
 62
1
100
AcDbPolyline
 90
2
 70
0
 10
174.304190
 20
109.998840
 30
0.0
 10
169.902570
 20
109.998840
 30
0.0
  0
LWPOLYLINE
  5
17a
100
AcDbEntity
  8
Layer_1
 62
1
100
AcDbPolyline
 90
2
 70
0
 10
180.905600
 20
109.998840
 30
0.0
 10
176.505000
 20
109.998840
 30
0.0
  0
LWPOLYLINE
  5
17b
100
AcDbEntity
  8
Layer_1
 62
1
100
AcDbPolyline
 90
2
 70
0
 10
187.508030
 20
109.998840
 30
0.0
 10
183.106420
 20
109.998840
 30
0.0
  0
LWPOLYLINE
  5
17c
100
AcDbEntity
  8
Layer_1
 62
1
100
AcDbPolyline
 90
2
 70
0
 10
194.109440
 20
109.998840
 30
0.0
 10
189.707820
 20
109.998840
 30
0.0
  0
LWPOLYLINE
  5
17d
100
AcDbEntity
  8
Layer_1
 62
1
100
AcDbPolyline
 90
2
 70
0
 10
114.749990
 20
269.406197
 30
0.0
 10
114.749990
 20
273.808015
 30
0.0
  0
LWPOLYLINE
  5
17e
100
AcDbEntity
  8
Layer_1
 62
1
100
AcDbPolyline
 90
2
 70
0
 10
114.749990
 20
262.804683
 30
0.0
 10
114.749990
 20
267.205287
 30
0.0
  0
LWPOLYLINE
  5
17f
100
AcDbEntity
  8
Layer_1
 62
1
100
AcDbPolyline
 90
2
 70
0
 10
114.749990
 20
256.201956
 30
0.0
 10
114.749990
 20
260.603774
 30
0.0
  0
LWPOLYLINE
  5
180
100
AcDbEntity
  8
Layer_1
 62
1
100
AcDbPolyline
 90
2
 70
0
 10
114.749990
 20
249.599837
 30
0.0
 10
114.749990
 20
254.000441
 30
0.0
  0
LWPOLYLINE
  5
181
100
AcDbEntity
  8
Layer_1
 62
1
100
AcDbPolyline
 90
2
 70
0
 10
114.749990
 20
242.997515
 30
0.0
 10
114.749990
 20
247.399636
 30
0.0
  0
LWPOLYLINE
  5
182
100
AcDbEntity
  8
Layer_1
 62
1
100
AcDbPolyline
 90
2
 70
0
 10
114.749990
 20
236.394888
 30
0.0
 10
114.749990
 20
240.796909
 30
0.0
  0
LWPOLYLINE
  5
183
100
AcDbEntity
  8
Layer_1
 62
1
100
AcDbPolyline
 90
2
 70
0
 10
114.749990
 20
229.792566
 30
0.0
 10
114.749990
 20
234.194081
 30
0.0
  0
LWPOLYLINE
  5
184
100
AcDbEntity
  8
Layer_1
 62
1
100
AcDbPolyline
 90
2
 70
0
 10
114.749990
 20
223.190649
 30
0.0
 10
114.749990
 20
227.591658
 30
0.0
  0
LWPOLYLINE
  5
185
100
AcDbEntity
  8
Layer_1
 62
1
100
AcDbPolyline
 90
2
 70
0
 10
114.749990
 20
216.588326
 30
0.0
 10
114.749990
 20
220.989941
 30
0.0
  0
LWPOLYLINE
  5
186
100
AcDbEntity
  8
Layer_1
 62
1
100
AcDbPolyline
 90
2
 70
0
 10
114.749990
 20
209.986509
 30
0.0
 10
114.749990
 20
214.387720
 30
0.0
  0
LWPOLYLINE
  5
187
100
AcDbEntity
  8
Layer_1
 62
1
100
AcDbPolyline
 90
2
 70
0
 10
114.749990
 20
203.384589
 30
0.0
 10
114.749990
 20
207.785499
 30
0.0
  0
LWPOLYLINE
  5
188
100
AcDbEntity
  8
Layer_1
 62
1
100
AcDbPolyline
 90
2
 70
0
 10
114.749990
 20
196.782367
 30
0.0
 10
114.749990
 20
201.184389
 30
0.0
  0
LWPOLYLINE
  5
189
100
AcDbEntity
  8
Layer_1
 62
1
100
AcDbPolyline
 90
2
 70
0
 10
114.749990
 20
190.180348
 30
0.0
 10
114.749990
 20
194.581357
 30
0.0
  0
LWPOLYLINE
  5
18a
100
AcDbEntity
  8
Layer_1
 62
1
100
AcDbPolyline
 90
2
 70
0
 10
114.749990
 20
183.578230
 30
0.0
 10
114.749990
 20
187.979950
 30
0.0
  0
LWPOLYLINE
  5
18b
100
AcDbEntity
  8
Layer_1
 62
1
100
AcDbPolyline
 90
2
 70
0
 10
114.749990
 20
176.975810
 30
0.0
 10
114.749990
 20
181.376410
 30
0.0
  0
LWPOLYLINE
  5
18c
100
AcDbEntity
  8
Layer_1
 62
1
100
AcDbPolyline
 90
2
 70
0
 10
114.749990
 20
170.373390
 30
0.0
 10
114.749990
 20
174.775000
 30
0.0
  0
LWPOLYLINE
  5
18d
100
AcDbEntity
  8
Layer_1
 62
1
100
AcDbPolyline
 90
2
 70
0
 10
114.749990
 20
163.770970
 30
0.0
 10
114.749990
 20
168.173590
 30
0.0
  0
LWPOLYLINE
  5
18e
100
AcDbEntity
  8
Layer_1
 62
1
100
AcDbPolyline
 90
2
 70
0
 10
114.749990
 20
157.167530
 30
0.0
 10
114.749990
 20
161.569150
 30
0.0
  0
LWPOLYLINE
  5
18f
100
AcDbEntity
  8
Layer_1
 62
1
100
AcDbPolyline
 90
2
 70
0
 10
114.749990
 20
150.566120
 30
0.0
 10
114.749990
 20
154.967730
 30
0.0
  0
LWPOLYLINE
  5
190
100
AcDbEntity
  8
Layer_1
 62
1
100
AcDbPolyline
 90
2
 70
0
 10
147.761000
 20
234.997336
 30
0.0
 10
152.162610
 20
234.997336
 30
0.0
  0
LWPOLYLINE
  5
191
100
AcDbEntity
  8
Layer_1
 62
1
100
AcDbPolyline
 90
2
 70
0
 10
141.157970
 20
234.997336
 30
0.0
 10
145.559180
 20
234.997336
 30
0.0
  0
LWPOLYLINE
  5
192
100
AcDbEntity
  8
Layer_1
 62
1
100
AcDbPolyline
 90
2
 70
0
 10
134.556040
 20
234.997336
 30
0.0
 10
138.957970
 20
234.997336
 30
0.0
  0
LWPOLYLINE
  5
193
100
AcDbEntity
  8
Layer_1
 62
1
100
AcDbPolyline
 90
2
 70
0
 10
127.952720
 20
234.997336
 30
0.0
 10
132.355140
 20
234.997336
 30
0.0
  0
LWPOLYLINE
  5
194
100
AcDbEntity
  8
Layer_1
 62
1
100
AcDbPolyline
 90
2
 70
0
 10
121.350790
 20
234.997336
 30
0.0
 10
125.752400
 20
234.997336
 30
0.0
  0
LWPOLYLINE
  5
195
100
AcDbEntity
  8
Layer_1
 62
1
100
AcDbPolyline
 90
2
 70
0
 10
114.749990
 20
234.997336
 30
0.0
 10
119.150800
 20
234.997336
 30
0.0
  0
LWPOLYLINE
  5
196
100
AcDbEntity
  8
Layer_1
 62
1
100
AcDbPolyline
 90
2
 70
0
 10
161.100360
 20
195.190625
 30
0.0
 10
156.697730
 20
195.190625
 30
0.0
  0
LWPOLYLINE
  5
197
100
AcDbEntity
  8
Layer_1
 62
1
100
AcDbPolyline
 90
2
 70
0
 10
167.703790
 20
195.190625
 30
0.0
 10
163.301160
 20
195.190625
 30
0.0
  0
LWPOLYLINE
  5
198
100
AcDbEntity
  8
Layer_1
 62
1
100
AcDbPolyline
 90
2
 70
0
 10
174.306210
 20
195.190625
 30
0.0
 10
169.903590
 20
195.190625
 30
0.0
  0
LWPOLYLINE
  5
199
100
AcDbEntity
  8
Layer_1
 62
1
100
AcDbPolyline
 90
2
 70
0
 10
180.907630
 20
195.190625
 30
0.0
 10
176.506010
 20
195.190625
 30
0.0
  0
LWPOLYLINE
  5
19a
100
AcDbEntity
  8
Layer_1
 62
1
100
AcDbPolyline
 90
2
 70
0
 10
187.508030
 20
195.190625
 30
0.0
 10
183.107420
 20
195.190625
 30
0.0
  0
LWPOLYLINE
  5
19b
100
AcDbEntity
  8
Layer_1
 62
1
100
AcDbPolyline
 90
2
 70
0
 10
194.109440
 20
195.190625
 30
0.0
 10
189.708840
 20
195.190625
 30
0.0
  0
LWPOLYLINE
  5
19c
100
AcDbEntity
  8
Layer_1
 62
1
100
AcDbPolyline
 90
2
 70
0
 10
167.403240
 20
82.983870
 30
0.0
 10
165.667670
 20
82.983870
 30
0.0
  0
LWPOLYLINE
  5
19d
100
AcDbEntity
  8
Layer_1
 62
1
100
AcDbPolyline
 90
2
 70
0
 10
174.005660
 20
82.983870
 30
0.0
 10
169.604040
 20
82.983870
 30
0.0
  0
LWPOLYLINE
  5
19e
100
AcDbEntity
  8
Layer_1
 62
1
100
AcDbPolyline
 90
2
 70
0
 10
180.608080
 20
82.983870
 30
0.0
 10
176.205450
 20
82.983870
 30
0.0
  0
LWPOLYLINE
  5
19f
100
AcDbEntity
  8
Layer_1
 62
1
100
AcDbPolyline
 90
2
 70
0
 10
187.209490
 20
82.983870
 30
0.0
 10
182.807870
 20
82.983870
 30
0.0
  0
LWPOLYLINE
  5
1a0
100
AcDbEntity
  8
Layer_1
 62
1
100
AcDbPolyline
 90
2
 70
0
 10
193.811920
 20
82.983870
 30
0.0
 10
189.410300
 20
82.983870
 30
0.0
  0
LWPOLYLINE
  5
1a1
100
AcDbEntity
  8
Layer_1
 62
1
100
AcDbPolyline
 90
2
 70
0
 10
74.436073
 20
155.771800
 30
0.0
 10
74.436073
 20
151.370180
 30
0.0
  0
LWPOLYLINE
  5
1a2
100
AcDbEntity
  8
Layer_1
 62
1
100
AcDbPolyline
 90
2
 70
0
 10
74.436073
 20
162.374220
 30
0.0
 10
74.436073
 20
157.973620
 30
0.0
  0
LWPOLYLINE
  5
1a3
100
AcDbEntity
  8
Layer_1
 62
1
100
AcDbPolyline
 90
2
 70
0
 10
74.436073
 20
168.976650
 30
0.0
 10
74.436073
 20
164.576040
 30
0.0
  0
LWPOLYLINE
  5
1a4
100
AcDbEntity
  8
Layer_1
 62
1
100
AcDbPolyline
 90
2
 70
0
 10
74.436073
 20
175.580080
 30
0.0
 10
74.436073
 20
171.177450
 30
0.0
  0
LWPOLYLINE
  5
1a5
100
AcDbEntity
  8
Layer_1
 62
1
100
AcDbPolyline
 90
2
 70
0
 10
74.436073
 20
182.182500
 30
0.0
 10
74.436073
 20
177.780890
 30
0.0
  0
LWPOLYLINE
  5
1a6
100
AcDbEntity
  8
Layer_1
 62
1
100
AcDbPolyline
 90
2
 70
0
 10
74.436073
 20
188.784820
 30
0.0
 10
74.436073
 20
184.383310
 30
0.0
  0
LWPOLYLINE
  5
1a7
100
AcDbEntity
  8
Layer_1
 62
1
100
AcDbPolyline
 90
2
 70
0
 10
74.436073
 20
201.986132
 30
0.0
 10
74.436073
 20
197.585623
 30
0.0
  0
LWPOLYLINE
  5
1a8
100
AcDbEntity
  8
Layer_1
 62
1
100
AcDbPolyline
 90
2
 70
0
 10
74.436073
 20
208.588047
 30
0.0
 10
74.436073
 20
204.186936
 30
0.0
  0
LWPOLYLINE
  5
1a9
100
AcDbEntity
  8
Layer_1
 62
1
100
AcDbPolyline
 90
2
 70
0
 10
74.436073
 20
215.191279
 30
0.0
 10
74.436073
 20
210.788854
 30
0.0
  0
LWPOLYLINE
  5
1aa
100
AcDbEntity
  8
Layer_1
 62
1
100
AcDbPolyline
 90
2
 70
0
 10
74.436073
 20
221.793803
 30
0.0
 10
74.436073
 20
217.391884
 30
0.0
  0
LWPOLYLINE
  5
1ab
100
AcDbEntity
  8
Layer_1
 62
1
100
AcDbPolyline
 90
2
 70
0
 10
74.436073
 20
228.396429
 30
0.0
 10
74.436073
 20
223.994914
 30
0.0
  0
LWPOLYLINE
  5
1ac
100
AcDbEntity
  8
Layer_1
 62
1
100
AcDbPolyline
 90
2
 70
0
 10
74.436073
 20
234.997336
 30
0.0
 10
74.436073
 20
230.596833
 30
0.0
  0
LWPOLYLINE
  5
1ad
100
AcDbEntity
  8
Layer_1
 62
1
100
AcDbPolyline
 90
2
 70
0
 10
85.639296
 20
67.770530
 30
0.0
 10
81.286296
 20
67.770530
 30
0.0
  0
LWPOLYLINE
  5
1ae
100
AcDbEntity
  8
Layer_1
 62
1
100
AcDbPolyline
 90
2
 70
0
 10
76.934996
 20
67.770530
 30
0.0
 10
72.582196
 20
67.770530
 30
0.0
  0
LWPOLYLINE
  5
1af
100
AcDbEntity
  8
Layer_1
 62
1
100
AcDbPolyline
 90
2
 70
0
 10
68.230096
 20
67.770530
 30
0.0
 10
63.877996
 20
67.770530
 30
0.0
  0
LWPOLYLINE
  5
1b0
100
AcDbEntity
  8
Layer_1
 62
1
100
AcDbPolyline
 90
2
 70
0
 10
59.719796
 20
67.577530
 30
0.0
 10
59.719796
 20
63.225530
 30
0.0
  0
LWPOLYLINE
  5
1b1
100
AcDbEntity
  8
Layer_1
 62
1
100
AcDbPolyline
 90
2
 70
0
 10
59.719796
 20
58.874530
 30
0.0
 10
59.719796
 20
54.522530
 30
0.0
  0
LWPOLYLINE
  5
1b2
100
AcDbEntity
  8
Layer_1
 62
1
100
AcDbPolyline
 90
2
 70
0
 10
59.719796
 20
50.171530
 30
0.0
 10
59.719796
 20
45.818530
 30
0.0
  0
LWPOLYLINE
  5
1b3
100
AcDbEntity
  8
Layer_1
 62
1
100
AcDbPolyline
 90
2
 70
0
 10
59.719796
 20
41.466530
 30
0.0
 10
59.719796
 20
37.113530
 30
0.0
  0
LWPOLYLINE
  5
1b4
100
AcDbEntity
  8
Layer_1
 62
1
100
AcDbPolyline
 90
2
 70
0
 10
62.516296
 20
35.559530
 30
0.0
 10
66.869296
 20
35.559530
 30
0.0
  0
LWPOLYLINE
  5
1b5
100
AcDbEntity
  8
Layer_1
 62
1
100
AcDbPolyline
 90
2
 70
0
 10
71.222196
 20
35.559530
 30
0.0
 10
75.574796
 20
35.559530
 30
0.0
  0
LWPOLYLINE
  5
1b6
100
AcDbEntity
  8
Layer_1
 62
1
100
AcDbPolyline
 90
2
 70
0
 10
79.925296
 20
35.559530
 30
0.0
 10
84.277596
 20
35.559530
 30
0.0
  0
LWPOLYLINE
  5
1b7
100
AcDbEntity
  8
Layer_1
 62
7
100
AcDbPolyline
 90
4
 70
0
 10
44.091209
 20
53.721120
 30
0.0
 10
40.221410
 20
53.721120
 30
0.0
 10
40.221410
 20
49.993330
 30
0.0
 10
44.162214
 20
49.993330
 30
0.0
  0
SPLINE
  5
1b8
100
AcDbEntity
  8
Layer_1
 62
7
100
AcDbSpline
 70
0
 71
3
 72
22
 73
18
 74
16
 40
0.000000
 40
0.000000
 40
0.000000
 40
0.000000
 40
0.450713
 40
0.893047
 40
1.353985
 40
1.814924
 40
2.257257
 40
2.707971
 40
3.158684
 40
3.601018
 40
4.061956
 40
4.293029
 40
4.521437
 40
4.750433
 40
4.977891
 40
5.202143
 40
5.427491
 40
5.427491
 40
5.427491
 40
5.427491
 10
11.891285
 20
283.979172
 30
0.0
 10
11.739306
 20
283.954633
 30
0.0
 10
11.438173
 20
283.906011
 30
0.0
 10
11.110483
 20
283.552824
 30
0.0
 10
10.990185
 20
283.096922
 30
0.0
 10
11.110483
 20
282.636003
 30
0.0
 10
11.438171
 20
282.297354
 30
0.0
 10
11.891292
 20
282.170382
 30
0.0
 10
12.344370
 20
282.297396
 30
0.0
 10
12.672189
 20
282.635837
 30
0.0
 10
12.771803
 20
283.019775
 30
0.0
 10
12.731967
 20
283.326803
 30
0.0
 10
12.645340
 20
283.542048
 30
0.0
 10
12.507296
 20
283.727358
 30
0.0
 10
12.327027
 20
283.868554
 30
0.0
 10
12.116942
 20
283.961491
 30
0.0
 10
11.966626
 20
283.973269
 30
0.0
 10
11.891285
 20
283.979172
 30
0.0
 11
11.891285
 21
283.979172
 31
0.0
 11
11.456997
 21
283.858604
 31
0.0
 11
11.148308
 21
283.541791
 31
0.0
 11
11.030831
 21
283.096075
 31
0.0
 11
11.148308
 21
282.650358
 31
0.0
 11
11.456997
 21
282.333546
 31
0.0
 11
11.891285
 21
282.212977
 31
0.0
 11
12.325573
 21
282.333546
 31
0.0
 11
12.634262
 21
282.650358
 31
0.0
 11
12.751739
 21
283.096075
 31
0.0
 11
12.722260
 21
283.325259
 31
0.0
 11
12.636775
 21
283.537067
 31
0.0
 11
12.499718
 21
283.720519
 31
0.0
 11
12.320970
 21
283.861183
 31
0.0
 11
12.114593
 21
283.948917
 31
0.0
 11
11.891285
 21
283.979172
 31
0.0
  0
LWPOLYLINE
  5
1b9
100
AcDbEntity
  8
Layer_1
 62
7
100
AcDbPolyline
 90
4
 70
0
 10
85.525259
 20
53.667860
 30
0.0
 10
89.395058
 20
53.667860
 30
0.0
 10
89.395058
 20
49.940070
 30
0.0
 10
85.454254
 20
49.940070
 30
0.0
  0
ENDSEC
  0
SECTION
  2
OBJECTS
  0
DICTIONARY
  5
C
330
0
100
AcDbDictionary
  3
ACAD_GROUP
350
D
  3
ACAD_MLINESTYLE
350
17
  0
DICTIONARY
  5
D
330
C
100
AcDbDictionary
  0
DICTIONARY
  5
1A
330
C
100
AcDbDictionary
  0
DICTIONARY
  5
17
330
C
100
AcDbDictionary
  3
STANDARD
350
18
  0
DICTIONARY
  5
19
330
C
100
AcDbDictionary
  0
ENDSEC
  0
EOF
