  0
SECTION
  2
HEADER
  9
$ACADVER
  1
AC1014
  9
$HANDSEED
  5
FFFF
  9
$MEASUREMENT
 70
     1
  0
ENDSEC
  0
SECTION
  2
TABLES
  0
TABLE
  2
VPORT
  5
8
330
0
100
AcDbSymbolTable
 70
     4
  0
VPORT
  5
2E
330
8
100
AcDbSymbolTableRecord
100
AcDbViewportTableRecord
  2
*ACTIVE
 70
     0
 10
0.0
 20
0.0
 11
1.0
 21
1.0
 12
210.0
 22
148.5
 13
0.0
 23
0.0
 14
10.0
 24
10.0
 15
10.0
 25
10.0
 16
0.0
 26
0.0
 36
1.0
 17
0.0
 27
0.0
 37
0.0
 40
341.0
 41
1.24
 42
50.0
 43
0.0
 44
0.0
 50
0.0
 51
0.0
 71
     0
 72
   100
 73
     1
 74
     3
 75
     0
 76
     0
 77
     0
 78
     0
  0
ENDTAB
  0
TABLE
  2
LTYPE
  5
5
330
0
100
AcDbSymbolTable
 70
     1
  0
LTYPE
  5
14
330
5
100
AcDbSymbolTableRecord
100
AcDbLinetypeTableRecord
  2
BYBLOCK
 70
     0
  3

 72
    65
 73
     0
 40
0.0
  0
LTYPE
  5
15
330
5
100
AcDbSymbolTableRecord
100
AcDbLinetypeTableRecord
  2
BYLAYER
 70
     0
  3

 72
    65
 73
     0
 40
0.0
  0
LTYPE
  5
16
330
5
100
AcDbSymbolTableRecord
100
AcDbLinetypeTableRecord
  2
CONTINUOUS
 70
     0
  3
Solid line
 72
    65
 73
     0
 40
0.0
  0
ENDTAB
  0
TABLE
  2
LAYER
  5
2
100
AcDbSymbolTable
 70
4
  0
LAYER
  5
50
100
AcDbSymbolTableRecord
100
AcDbLayerTableRecord
  2
0
 70
0
  6
CONTINUOUS
  0
LAYER
  5
51
100
AcDbSymbolTableRecord
100
AcDbLayerTableRecord
  2
Layer_1
 70
0
  6
CONTINUOUS
  0
LAYER
  5
52
100
AcDbSymbolTableRecord
100
AcDbLayerTableRecord
  2
Layer_2
 70
0
  6
CONTINUOUS
  0
LAYER
  5
53
100
AcDbSymbolTableRecord
100
AcDbLayerTableRecord
  2
box
 70
0
  6
CONTINUOUS
  0
ENDTAB
  0
TABLE
  2
STYLE
  5
3
330
0
100
AcDbSymbolTable
 70
     1
  0
STYLE
  5
11
330
3
100
AcDbSymbolTableRecord
100
AcDbTextStyleTableRecord
  2
STANDARD
 70
     0
 40
0.0
 41
1.0
 50
0.0
 71
     0
 42
2.5
  3
txt
  4

  0
ENDTAB
  0
TABLE
  2
VIEW
  5
6
330
0
100
AcDbSymbolTable
 70
     0
  0
ENDTAB
  0
TABLE
  2
UCS
  5
7
330
0
100
AcDbSymbolTable
 70
     0
  0
ENDTAB
  0
TABLE
  2
APPID
  5
9
330
0
100
AcDbSymbolTable
 70
     2
  0
APPID
  5
12
330
9
100
AcDbSymbolTableRecord
100
AcDbRegAppTableRecord
  2
ACAD
 70
     0
  0
ENDTAB
  0
TABLE
  2
DIMSTYLE
  5
A
330
0
100
AcDbSymbolTable
 70
     1
  0
DIMSTYLE
105
27
330
A
100
AcDbSymbolTableRecord
100
AcDbDimStyleTableRecord
  2
ISO-25
 70
     0
  3

  4

  5

  6

  7

 40
1.0
 41
2.5
 42
0.625
 43
3.75
 44
1.25
 45
0.0
 46
0.0
 47
0.0
 48
0.0
140
2.5
141
2.5
142
0.0
143
0.03937007874016
144
1.0
145
0.0
146
1.0
147
0.625
 71
     0
 72
     0
 73
     0
 74
     0
 75
     0
 76
     0
 77
     1
 78
     8
170
     0
171
     3
172
     1
173
     0
174
     0
175
     0
176
     0
177
     0
178
     0
270
     2
271
     2
272
     2
273
     2
274
     3
340
11
275
     0
280
     0
281
     0
282
     0
283
     0
284
     8
285
     0
286
     0
287
     3
288
     0
  0
ENDTAB
  0
TABLE
  2
BLOCK_RECORD
  5
1
330
0
100
AcDbSymbolTable
 70
     1
  0
BLOCK_RECORD
  5
1F
330
1
100
AcDbSymbolTableRecord
100
AcDbBlockTableRecord
  2
*MODEL_SPACE
  0
BLOCK_RECORD
  5
1B
330
1
100
AcDbSymbolTableRecord
100
AcDbBlockTableRecord
  2
*PAPER_SPACE
  0
ENDTAB
  0
ENDSEC
  0
SECTION
  2
BLOCKS
  0
BLOCK
  5
20
330
1F
100
AcDbEntity
  8
0
100
AcDbBlockBegin
  2
*MODEL_SPACE
 70
     0
 10
0.0
 20
0.0
 30
0.0
  3
*MODEL_SPACE
  1

  0
ENDBLK
  5
21
330
1F
100
AcDbEntity
  8
0
100
AcDbBlockEnd
  0
BLOCK
  5
1C
330
1B
100
AcDbEntity
 67
     1
  8
0
100
AcDbBlockBegin
  2
*PAPER_SPACE
  1

  0
ENDBLK
  5
1D
330
1B
100
AcDbEntity
 67
     1
  8
0
100
AcDbBlockEnd
  0
ENDSEC
  0
SECTION
  2
ENTITIES
  0
SPLINE
  5
100
100
AcDbEntity
  8
box
 62
7
100
AcDbSpline
 70
8
 71
3
 72
8
 73
4
 74
0
 40
0
 40
0
 40
0
 40
0
 40
1
 40
1
 40
1
 40
1
 10
18.632463
 20
128.720053
 30
0.0
 10
11.312658
 20
128.720053
 30
0.0
 10
5.401995
 20
122.809389
 30
0.0
 10
5.401995
 20
115.489584
 30
0.0
  0
SPLINE
  5
101
100
AcDbEntity
  8
box
 62
7
100
AcDbSpline
 70
8
 71
3
 72
8
 73
4
 74
0
 40
0
 40
0
 40
0
 40
0
 40
1
 40
1
 40
1
 40
1
 10
5.401995
 20
79.524741
 30
0.0
 10
5.401995
 20
72.204936
 30
0.0
 10
11.312658
 20
66.296225
 30
0.0
 10
18.632463
 20
66.296225
 30
0.0
  0
LWPOLYLINE
  5
102
100
AcDbEntity
  8
box
 62
7
100
AcDbPolyline
 90
2
 70
0
 10
5.401995
 20
115.489584
 30
0.0
 10
5.401995
 20
79.524741
 30
0.0
  0
SPLINE
  5
103
100
AcDbEntity
  8
box
 62
7
100
AcDbSpline
 70
8
 71
3
 72
8
 73
4
 74
0
 40
0
 40
0
 40
0
 40
0
 40
1
 40
1
 40
1
 40
1
 10
54.597307
 20
66.296225
 30
0.0
 10
61.917112
 20
66.296225
 30
0.0
 10
67.825823
 20
72.204936
 30
0.0
 10
67.825823
 20
79.524741
 30
0.0
  0
LWPOLYLINE
  5
104
100
AcDbEntity
  8
box
 62
7
100
AcDbPolyline
 90
2
 70
0
 10
18.632463
 20
66.296225
 30
0.0
 10
54.597307
 20
66.296225
 30
0.0
  0
SPLINE
  5
105
100
AcDbEntity
  8
box
 62
7
100
AcDbSpline
 70
8
 71
3
 72
8
 73
4
 74
0
 40
0
 40
0
 40
0
 40
0
 40
1
 40
1
 40
1
 40
1
 10
67.825823
 20
115.489584
 30
0.0
 10
67.825823
 20
122.809389
 30
0.0
 10
61.917112
 20
128.720053
 30
0.0
 10
54.597307
 20
128.720053
 30
0.0
  0
LWPOLYLINE
  5
106
100
AcDbEntity
  8
box
 62
7
100
AcDbPolyline
 90
2
 70
0
 10
67.825823
 20
79.524741
 30
0.0
 10
67.825823
 20
115.489584
 30
0.0
  0
LWPOLYLINE
  5
107
100
AcDbEntity
  8
box
 62
7
100
AcDbPolyline
 90
2
 70
0
 10
54.597307
 20
128.720053
 30
0.0
 10
18.632463
 20
128.720053
 30
0.0
  0
SPLINE
  5
108
100
AcDbEntity
  8
box
 62
7
100
AcDbSpline
 70
8
 71
3
 72
8
 73
4
 74
0
 40
0
 40
0
 40
0
 40
0
 40
1
 40
1
 40
1
 40
1
 10
54.597307
 20
127.661459
 30
0.0
 10
61.349102
 20
127.661459
 30
0.0
 10
66.767229
 20
122.241379
 30
0.0
 10
66.767229
 20
115.489584
 30
0.0
  0
LWPOLYLINE
  5
109
100
AcDbEntity
  8
box
 62
7
100
AcDbPolyline
 90
2
 70
0
 10
18.632463
 20
127.661459
 30
0.0
 10
54.597307
 20
127.661459
 30
0.0
  0
SPLINE
  5
10a
100
AcDbEntity
  8
box
 62
7
100
AcDbSpline
 70
8
 71
3
 72
8
 73
4
 74
0
 40
0
 40
0
 40
0
 40
0
 40
1
 40
1
 40
1
 40
1
 10
66.767229
 20
79.524741
 30
0.0
 10
66.767229
 20
72.772946
 30
0.0
 10
61.349102
 20
67.352866
 30
0.0
 10
54.597307
 20
67.352866
 30
0.0
  0
LWPOLYLINE
  5
10b
100
AcDbEntity
  8
box
 62
7
100
AcDbPolyline
 90
2
 70
0
 10
66.767229
 20
115.489584
 30
0.0
 10
66.767229
 20
79.524741
 30
0.0
  0
SPLINE
  5
10c
100
AcDbEntity
  8
box
 62
7
100
AcDbSpline
 70
8
 71
3
 72
8
 73
4
 74
0
 40
0
 40
0
 40
0
 40
0
 40
1
 40
1
 40
1
 40
1
 10
18.632463
 20
67.352866
 30
0.0
 10
11.880669
 20
67.352866
 30
0.0
 10
6.460588
 20
72.772946
 30
0.0
 10
6.460588
 20
79.524741
 30
0.0
  0
LWPOLYLINE
  5
10d
100
AcDbEntity
  8
box
 62
7
100
AcDbPolyline
 90
2
 70
0
 10
54.597307
 20
67.352866
 30
0.0
 10
18.632463
 20
67.352866
 30
0.0
  0
SPLINE
  5
10e
100
AcDbEntity
  8
box
 62
7
100
AcDbSpline
 70
8
 71
3
 72
8
 73
4
 74
0
 40
0
 40
0
 40
0
 40
0
 40
1
 40
1
 40
1
 40
1
 10
6.460588
 20
115.489584
 30
0.0
 10
6.460588
 20
122.241379
 30
0.0
 10
11.880669
 20
127.661459
 30
0.0
 10
18.632463
 20
127.661459
 30
0.0
  0
LWPOLYLINE
  5
10f
100
AcDbEntity
  8
box
 62
7
100
AcDbPolyline
 90
2
 70
0
 10
6.460588
 20
79.524741
 30
0.0
 10
6.460588
 20
115.489584
 30
0.0
  0
SPLINE
  5
110
100
AcDbEntity
  8
box
 62
7
100
AcDbSpline
 70
8
 71
3
 72
8
 73
4
 74
0
 40
0
 40
0
 40
0
 40
0
 40
1
 40
1
 40
1
 40
1
 10
79.997698
 20
128.720053
 30
0.0
 10
72.677893
 20
128.720053
 30
0.0
 10
66.767229
 20
122.809389
 30
0.0
 10
66.767229
 20
115.489584
 30
0.0
  0
LWPOLYLINE
  5
111
100
AcDbEntity
  8
box
 62
7
100
AcDbPolyline
 90
1
 70
1
 10
18.632463
 20
127.661459
 30
0.0
  0
SPLINE
  5
112
100
AcDbEntity
  8
box
 62
7
100
AcDbSpline
 70
8
 71
3
 72
8
 73
4
 74
0
 40
0
 40
0
 40
0
 40
0
 40
1
 40
1
 40
1
 40
1
 10
66.767229
 20
79.524741
 30
0.0
 10
66.767229
 20
72.204936
 30
0.0
 10
72.677893
 20
66.296225
 30
0.0
 10
79.997698
 20
66.296225
 30
0.0
  0
LWPOLYLINE
  5
113
100
AcDbEntity
  8
box
 62
7
100
AcDbPolyline
 90
2
 70
0
 10
66.767229
 20
115.489584
 30
0.0
 10
66.767229
 20
79.524741
 30
0.0
  0
SPLINE
  5
114
100
AcDbEntity
  8
box
 62
7
100
AcDbSpline
 70
8
 71
3
 72
8
 73
4
 74
0
 40
0
 40
0
 40
0
 40
0
 40
1
 40
1
 40
1
 40
1
 10
115.962537
 20
66.296225
 30
0.0
 10
123.282347
 20
66.296225
 30
0.0
 10
129.191057
 20
72.204936
 30
0.0
 10
129.191057
 20
79.524741
 30
0.0
  0
LWPOLYLINE
  5
115
100
AcDbEntity
  8
box
 62
7
100
AcDbPolyline
 90
2
 70
0
 10
79.997698
 20
66.296225
 30
0.0
 10
115.962537
 20
66.296225
 30
0.0
  0
SPLINE
  5
116
100
AcDbEntity
  8
box
 62
7
100
AcDbSpline
 70
8
 71
3
 72
8
 73
4
 74
0
 40
0
 40
0
 40
0
 40
0
 40
1
 40
1
 40
1
 40
1
 10
129.191057
 20
115.489584
 30
0.0
 10
129.191057
 20
122.809389
 30
0.0
 10
123.282347
 20
128.720053
 30
0.0
 10
115.962537
 20
128.720053
 30
0.0
  0
LWPOLYLINE
  5
117
100
AcDbEntity
  8
box
 62
7
100
AcDbPolyline
 90
2
 70
0
 10
129.191057
 20
79.524741
 30
0.0
 10
129.191057
 20
115.489584
 30
0.0
  0
LWPOLYLINE
  5
118
100
AcDbEntity
  8
box
 62
7
100
AcDbPolyline
 90
2
 70
0
 10
115.962537
 20
128.720053
 30
0.0
 10
79.997698
 20
128.720053
 30
0.0
  0
SPLINE
  5
119
100
AcDbEntity
  8
box
 62
7
100
AcDbSpline
 70
8
 71
3
 72
8
 73
4
 74
0
 40
0
 40
0
 40
0
 40
0
 40
1
 40
1
 40
1
 40
1
 10
115.962537
 20
127.661459
 30
0.0
 10
122.714337
 20
127.661459
 30
0.0
 10
128.132467
 20
122.241379
 30
0.0
 10
128.132467
 20
115.489584
 30
0.0
  0
LWPOLYLINE
  5
11a
100
AcDbEntity
  8
box
 62
7
100
AcDbPolyline
 90
2
 70
0
 10
79.997698
 20
127.661459
 30
0.0
 10
115.962537
 20
127.661459
 30
0.0
  0
SPLINE
  5
11b
100
AcDbEntity
  8
box
 62
7
100
AcDbSpline
 70
8
 71
3
 72
8
 73
4
 74
0
 40
0
 40
0
 40
0
 40
0
 40
1
 40
1
 40
1
 40
1
 10
128.132467
 20
79.524741
 30
0.0
 10
128.132467
 20
72.772946
 30
0.0
 10
122.714337
 20
67.352866
 30
0.0
 10
115.962537
 20
67.352866
 30
0.0
  0
LWPOLYLINE
  5
11c
100
AcDbEntity
  8
box
 62
7
100
AcDbPolyline
 90
2
 70
0
 10
128.132467
 20
115.489584
 30
0.0
 10
128.132467
 20
79.524741
 30
0.0
  0
SPLINE
  5
11d
100
AcDbEntity
  8
box
 62
7
100
AcDbSpline
 70
8
 71
3
 72
8
 73
4
 74
0
 40
0
 40
0
 40
0
 40
0
 40
1
 40
1
 40
1
 40
1
 10
79.997698
 20
67.352866
 30
0.0
 10
73.245903
 20
67.352866
 30
0.0
 10
67.825823
 20
72.772946
 30
0.0
 10
67.825823
 20
79.524741
 30
0.0
  0
LWPOLYLINE
  5
11e
100
AcDbEntity
  8
box
 62
7
100
AcDbPolyline
 90
2
 70
0
 10
115.962537
 20
67.352866
 30
0.0
 10
79.997698
 20
67.352866
 30
0.0
  0
SPLINE
  5
11f
100
AcDbEntity
  8
box
 62
7
100
AcDbSpline
 70
8
 71
3
 72
8
 73
4
 74
0
 40
0
 40
0
 40
0
 40
0
 40
1
 40
1
 40
1
 40
1
 10
67.825823
 20
115.489584
 30
0.0
 10
67.825823
 20
122.241379
 30
0.0
 10
73.245903
 20
127.661459
 30
0.0
 10
79.997698
 20
127.661459
 30
0.0
  0
LWPOLYLINE
  5
120
100
AcDbEntity
  8
box
 62
7
100
AcDbPolyline
 90
2
 70
0
 10
67.825823
 20
79.524741
 30
0.0
 10
67.825823
 20
115.489584
 30
0.0
  0
SPLINE
  5
121
100
AcDbEntity
  8
box
 62
7
100
AcDbSpline
 70
8
 71
3
 72
8
 73
4
 74
0
 40
0
 40
0
 40
0
 40
0
 40
1
 40
1
 40
1
 40
1
 10
141.362937
 20
128.720053
 30
0.0
 10
134.043127
 20
128.720053
 30
0.0
 10
128.132467
 20
122.809389
 30
0.0
 10
128.132467
 20
115.489584
 30
0.0
  0
LWPOLYLINE
  5
122
100
AcDbEntity
  8
box
 62
7
100
AcDbPolyline
 90
1
 70
1
 10
79.997698
 20
127.661459
 30
0.0
  0
SPLINE
  5
123
100
AcDbEntity
  8
box
 62
7
100
AcDbSpline
 70
8
 71
3
 72
8
 73
4
 74
0
 40
0
 40
0
 40
0
 40
0
 40
1
 40
1
 40
1
 40
1
 10
128.132467
 20
79.524741
 30
0.0
 10
128.132467
 20
72.204936
 30
0.0
 10
134.043127
 20
66.296225
 30
0.0
 10
141.362937
 20
66.296225
 30
0.0
  0
LWPOLYLINE
  5
124
100
AcDbEntity
  8
box
 62
7
100
AcDbPolyline
 90
2
 70
0
 10
128.132467
 20
115.489584
 30
0.0
 10
128.132467
 20
79.524741
 30
0.0
  0
SPLINE
  5
125
100
AcDbEntity
  8
box
 62
7
100
AcDbSpline
 70
8
 71
3
 72
8
 73
4
 74
0
 40
0
 40
0
 40
0
 40
0
 40
1
 40
1
 40
1
 40
1
 10
177.327777
 20
66.296225
 30
0.0
 10
184.647577
 20
66.296225
 30
0.0
 10
190.556287
 20
72.204936
 30
0.0
 10
190.556287
 20
79.524741
 30
0.0
  0
LWPOLYLINE
  5
126
100
AcDbEntity
  8
box
 62
7
100
AcDbPolyline
 90
2
 70
0
 10
141.362937
 20
66.296225
 30
0.0
 10
177.327777
 20
66.296225
 30
0.0
  0
SPLINE
  5
127
100
AcDbEntity
  8
box
 62
7
100
AcDbSpline
 70
8
 71
3
 72
8
 73
4
 74
0
 40
0
 40
0
 40
0
 40
0
 40
1
 40
1
 40
1
 40
1
 10
190.556287
 20
115.489584
 30
0.0
 10
190.556287
 20
122.809389
 30
0.0
 10
184.647577
 20
128.720053
 30
0.0
 10
177.327777
 20
128.720053
 30
0.0
  0
LWPOLYLINE
  5
128
100
AcDbEntity
  8
box
 62
7
100
AcDbPolyline
 90
2
 70
0
 10
190.556287
 20
79.524741
 30
0.0
 10
190.556287
 20
115.489584
 30
0.0
  0
LWPOLYLINE
  5
129
100
AcDbEntity
  8
box
 62
7
100
AcDbPolyline
 90
2
 70
0
 10
177.327777
 20
128.720053
 30
0.0
 10
141.362937
 20
128.720053
 30
0.0
  0
SPLINE
  5
12a
100
AcDbEntity
  8
box
 62
7
100
AcDbSpline
 70
8
 71
3
 72
8
 73
4
 74
0
 40
0
 40
0
 40
0
 40
0
 40
1
 40
1
 40
1
 40
1
 10
177.327777
 20
127.661459
 30
0.0
 10
184.079567
 20
127.661459
 30
0.0
 10
189.499647
 20
122.241379
 30
0.0
 10
189.499647
 20
115.489584
 30
0.0
  0
LWPOLYLINE
  5
12b
100
AcDbEntity
  8
box
 62
7
100
AcDbPolyline
 90
2
 70
0
 10
141.362937
 20
127.661459
 30
0.0
 10
177.327777
 20
127.661459
 30
0.0
  0
SPLINE
  5
12c
100
AcDbEntity
  8
box
 62
7
100
AcDbSpline
 70
8
 71
3
 72
8
 73
4
 74
0
 40
0
 40
0
 40
0
 40
0
 40
1
 40
1
 40
1
 40
1
 10
189.499647
 20
79.524741
 30
0.0
 10
189.499647
 20
72.772946
 30
0.0
 10
184.079567
 20
67.352866
 30
0.0
 10
177.327777
 20
67.352866
 30
0.0
  0
LWPOLYLINE
  5
12d
100
AcDbEntity
  8
box
 62
7
100
AcDbPolyline
 90
2
 70
0
 10
189.499647
 20
115.489584
 30
0.0
 10
189.499647
 20
79.524741
 30
0.0
  0
SPLINE
  5
12e
100
AcDbEntity
  8
box
 62
7
100
AcDbSpline
 70
8
 71
3
 72
8
 73
4
 74
0
 40
0
 40
0
 40
0
 40
0
 40
1
 40
1
 40
1
 40
1
 10
141.362937
 20
67.352866
 30
0.0
 10
134.611137
 20
67.352866
 30
0.0
 10
129.191057
 20
72.772946
 30
0.0
 10
129.191057
 20
79.524741
 30
0.0
  0
LWPOLYLINE
  5
12f
100
AcDbEntity
  8
box
 62
7
100
AcDbPolyline
 90
2
 70
0
 10
177.327777
 20
67.352866
 30
0.0
 10
141.362937
 20
67.352866
 30
0.0
  0
SPLINE
  5
130
100
AcDbEntity
  8
box
 62
7
100
AcDbSpline
 70
8
 71
3
 72
8
 73
4
 74
0
 40
0
 40
0
 40
0
 40
0
 40
1
 40
1
 40
1
 40
1
 10
129.191057
 20
115.489584
 30
0.0
 10
129.191057
 20
122.241379
 30
0.0
 10
134.611137
 20
127.661459
 30
0.0
 10
141.362937
 20
127.661459
 30
0.0
  0
LWPOLYLINE
  5
131
100
AcDbEntity
  8
box
 62
7
100
AcDbPolyline
 90
2
 70
0
 10
129.191057
 20
79.524741
 30
0.0
 10
129.191057
 20
115.489584
 30
0.0
  0
SPLINE
  5
132
100
AcDbEntity
  8
box
 62
7
100
AcDbSpline
 70
8
 71
3
 72
8
 73
4
 74
0
 40
0
 40
0
 40
0
 40
0
 40
1
 40
1
 40
1
 40
1
 10
18.632463
 20
67.352866
 30
0.0
 10
11.312658
 20
67.352866
 30
0.0
 10
5.401995
 20
61.444155
 30
0.0
 10
5.401995
 20
54.124350
 30
0.0
  0
LWPOLYLINE
  5
133
100
AcDbEntity
  8
box
 62
7
100
AcDbPolyline
 90
1
 70
1
 10
141.362937
 20
127.661459
 30
0.0
  0
SPLINE
  5
134
100
AcDbEntity
  8
box
 62
7
100
AcDbSpline
 70
8
 71
3
 72
8
 73
4
 74
0
 40
0
 40
0
 40
0
 40
0
 40
1
 40
1
 40
1
 40
1
 10
5.401995
 20
18.159502
 30
0.0
 10
5.401995
 20
10.839702
 30
0.0
 10
11.312658
 20
4.929042
 30
0.0
 10
18.632463
 20
4.929042
 30
0.0
  0
LWPOLYLINE
  5
135
100
AcDbEntity
  8
box
 62
7
100
AcDbPolyline
 90
2
 70
0
 10
5.401995
 20
54.124350
 30
0.0
 10
5.401995
 20
18.159502
 30
0.0
  0
SPLINE
  5
136
100
AcDbEntity
  8
box
 62
7
100
AcDbSpline
 70
8
 71
3
 72
8
 73
4
 74
0
 40
0
 40
0
 40
0
 40
0
 40
1
 40
1
 40
1
 40
1
 10
54.597307
 20
4.929042
 30
0.0
 10
61.917112
 20
4.929042
 30
0.0
 10
67.825823
 20
10.839702
 30
0.0
 10
67.825823
 20
18.159502
 30
0.0
  0
LWPOLYLINE
  5
137
100
AcDbEntity
  8
box
 62
7
100
AcDbPolyline
 90
2
 70
0
 10
18.632463
 20
4.929042
 30
0.0
 10
54.597307
 20
4.929042
 30
0.0
  0
SPLINE
  5
138
100
AcDbEntity
  8
box
 62
7
100
AcDbSpline
 70
8
 71
3
 72
8
 73
4
 74
0
 40
0
 40
0
 40
0
 40
0
 40
1
 40
1
 40
1
 40
1
 10
67.825823
 20
54.124350
 30
0.0
 10
67.825823
 20
61.444155
 30
0.0
 10
61.917112
 20
67.352866
 30
0.0
 10
54.597307
 20
67.352866
 30
0.0
  0
LWPOLYLINE
  5
139
100
AcDbEntity
  8
box
 62
7
100
AcDbPolyline
 90
2
 70
0
 10
67.825823
 20
18.159502
 30
0.0
 10
67.825823
 20
54.124350
 30
0.0
  0
LWPOLYLINE
  5
13a
100
AcDbEntity
  8
box
 62
7
100
AcDbPolyline
 90
2
 70
0
 10
54.597307
 20
67.352866
 30
0.0
 10
18.632463
 20
67.352866
 30
0.0
  0
SPLINE
  5
13b
100
AcDbEntity
  8
box
 62
7
100
AcDbSpline
 70
8
 71
3
 72
8
 73
4
 74
0
 40
0
 40
0
 40
0
 40
0
 40
1
 40
1
 40
1
 40
1
 10
54.597307
 20
66.296225
 30
0.0
 10
61.349102
 20
66.296225
 30
0.0
 10
66.767229
 20
60.876145
 30
0.0
 10
66.767229
 20
54.124350
 30
0.0
  0
LWPOLYLINE
  5
13c
100
AcDbEntity
  8
box
 62
7
100
AcDbPolyline
 90
2
 70
0
 10
18.632463
 20
66.296225
 30
0.0
 10
54.597307
 20
66.296225
 30
0.0
  0
SPLINE
  5
13d
100
AcDbEntity
  8
box
 62
7
100
AcDbSpline
 70
8
 71
3
 72
8
 73
4
 74
0
 40
0
 40
0
 40
0
 40
0
 40
1
 40
1
 40
1
 40
1
 10
66.767229
 20
18.159502
 30
0.0
 10
66.767229
 20
11.407712
 30
0.0
 10
61.349102
 20
5.987632
 30
0.0
 10
54.597307
 20
5.987632
 30
0.0
  0
LWPOLYLINE
  5
13e
100
AcDbEntity
  8
box
 62
7
100
AcDbPolyline
 90
2
 70
0
 10
66.767229
 20
54.124350
 30
0.0
 10
66.767229
 20
18.159502
 30
0.0
  0
SPLINE
  5
13f
100
AcDbEntity
  8
box
 62
7
100
AcDbSpline
 70
8
 71
3
 72
8
 73
4
 74
0
 40
0
 40
0
 40
0
 40
0
 40
1
 40
1
 40
1
 40
1
 10
18.632463
 20
5.987632
 30
0.0
 10
11.880669
 20
5.987632
 30
0.0
 10
6.460588
 20
11.407712
 30
0.0
 10
6.460588
 20
18.159502
 30
0.0
  0
LWPOLYLINE
  5
140
100
AcDbEntity
  8
box
 62
7
100
AcDbPolyline
 90
2
 70
0
 10
54.597307
 20
5.987632
 30
0.0
 10
18.632463
 20
5.987632
 30
0.0
  0
SPLINE
  5
141
100
AcDbEntity
  8
box
 62
7
100
AcDbSpline
 70
8
 71
3
 72
8
 73
4
 74
0
 40
0
 40
0
 40
0
 40
0
 40
1
 40
1
 40
1
 40
1
 10
6.460588
 20
54.124350
 30
0.0
 10
6.460588
 20
60.876145
 30
0.0
 10
11.880669
 20
66.296225
 30
0.0
 10
18.632463
 20
66.296225
 30
0.0
  0
LWPOLYLINE
  5
142
100
AcDbEntity
  8
box
 62
7
100
AcDbPolyline
 90
2
 70
0
 10
6.460588
 20
18.159502
 30
0.0
 10
6.460588
 20
54.124350
 30
0.0
  0
SPLINE
  5
143
100
AcDbEntity
  8
box
 62
7
100
AcDbSpline
 70
8
 71
3
 72
8
 73
4
 74
0
 40
0
 40
0
 40
0
 40
0
 40
1
 40
1
 40
1
 40
1
 10
79.997698
 20
67.352866
 30
0.0
 10
72.677893
 20
67.352866
 30
0.0
 10
66.767229
 20
61.444155
 30
0.0
 10
66.767229
 20
54.124350
 30
0.0
  0
LWPOLYLINE
  5
144
100
AcDbEntity
  8
box
 62
7
100
AcDbPolyline
 90
1
 70
1
 10
18.632463
 20
66.296225
 30
0.0
  0
SPLINE
  5
145
100
AcDbEntity
  8
box
 62
7
100
AcDbSpline
 70
8
 71
3
 72
8
 73
4
 74
0
 40
0
 40
0
 40
0
 40
0
 40
1
 40
1
 40
1
 40
1
 10
66.767229
 20
18.159502
 30
0.0
 10
66.767229
 20
10.839702
 30
0.0
 10
72.677893
 20
4.929042
 30
0.0
 10
79.997698
 20
4.929042
 30
0.0
  0
LWPOLYLINE
  5
146
100
AcDbEntity
  8
box
 62
7
100
AcDbPolyline
 90
2
 70
0
 10
66.767229
 20
54.124350
 30
0.0
 10
66.767229
 20
18.159502
 30
0.0
  0
SPLINE
  5
147
100
AcDbEntity
  8
box
 62
7
100
AcDbSpline
 70
8
 71
3
 72
8
 73
4
 74
0
 40
0
 40
0
 40
0
 40
0
 40
1
 40
1
 40
1
 40
1
 10
115.962537
 20
4.929042
 30
0.0
 10
123.282347
 20
4.929042
 30
0.0
 10
129.191057
 20
10.839702
 30
0.0
 10
129.191057
 20
18.159502
 30
0.0
  0
LWPOLYLINE
  5
148
100
AcDbEntity
  8
box
 62
7
100
AcDbPolyline
 90
2
 70
0
 10
79.997698
 20
4.929042
 30
0.0
 10
115.962537
 20
4.929042
 30
0.0
  0
SPLINE
  5
149
100
AcDbEntity
  8
box
 62
7
100
AcDbSpline
 70
8
 71
3
 72
8
 73
4
 74
0
 40
0
 40
0
 40
0
 40
0
 40
1
 40
1
 40
1
 40
1
 10
129.191057
 20
54.124350
 30
0.0
 10
129.191057
 20
61.444155
 30
0.0
 10
123.282347
 20
67.352866
 30
0.0
 10
115.962537
 20
67.352866
 30
0.0
  0
LWPOLYLINE
  5
14a
100
AcDbEntity
  8
box
 62
7
100
AcDbPolyline
 90
2
 70
0
 10
129.191057
 20
18.159502
 30
0.0
 10
129.191057
 20
54.124350
 30
0.0
  0
LWPOLYLINE
  5
14b
100
AcDbEntity
  8
box
 62
7
100
AcDbPolyline
 90
2
 70
0
 10
115.962537
 20
67.352866
 30
0.0
 10
79.997698
 20
67.352866
 30
0.0
  0
SPLINE
  5
14c
100
AcDbEntity
  8
box
 62
7
100
AcDbSpline
 70
8
 71
3
 72
8
 73
4
 74
0
 40
0
 40
0
 40
0
 40
0
 40
1
 40
1
 40
1
 40
1
 10
115.962537
 20
66.296225
 30
0.0
 10
122.714337
 20
66.296225
 30
0.0
 10
128.132467
 20
60.876145
 30
0.0
 10
128.132467
 20
54.124350
 30
0.0
  0
LWPOLYLINE
  5
14d
100
AcDbEntity
  8
box
 62
7
100
AcDbPolyline
 90
2
 70
0
 10
79.997698
 20
66.296225
 30
0.0
 10
115.962537
 20
66.296225
 30
0.0
  0
SPLINE
  5
14e
100
AcDbEntity
  8
box
 62
7
100
AcDbSpline
 70
8
 71
3
 72
8
 73
4
 74
0
 40
0
 40
0
 40
0
 40
0
 40
1
 40
1
 40
1
 40
1
 10
128.132467
 20
18.159502
 30
0.0
 10
128.132467
 20
11.407712
 30
0.0
 10
122.714337
 20
5.987632
 30
0.0
 10
115.962537
 20
5.987632
 30
0.0
  0
LWPOLYLINE
  5
14f
100
AcDbEntity
  8
box
 62
7
100
AcDbPolyline
 90
2
 70
0
 10
128.132467
 20
54.124350
 30
0.0
 10
128.132467
 20
18.159502
 30
0.0
  0
SPLINE
  5
150
100
AcDbEntity
  8
box
 62
7
100
AcDbSpline
 70
8
 71
3
 72
8
 73
4
 74
0
 40
0
 40
0
 40
0
 40
0
 40
1
 40
1
 40
1
 40
1
 10
79.997698
 20
5.987632
 30
0.0
 10
73.245903
 20
5.987632
 30
0.0
 10
67.825823
 20
11.407712
 30
0.0
 10
67.825823
 20
18.159502
 30
0.0
  0
LWPOLYLINE
  5
151
100
AcDbEntity
  8
box
 62
7
100
AcDbPolyline
 90
2
 70
0
 10
115.962537
 20
5.987632
 30
0.0
 10
79.997698
 20
5.987632
 30
0.0
  0
SPLINE
  5
152
100
AcDbEntity
  8
box
 62
7
100
AcDbSpline
 70
8
 71
3
 72
8
 73
4
 74
0
 40
0
 40
0
 40
0
 40
0
 40
1
 40
1
 40
1
 40
1
 10
67.825823
 20
54.124350
 30
0.0
 10
67.825823
 20
60.876145
 30
0.0
 10
73.245903
 20
66.296225
 30
0.0
 10
79.997698
 20
66.296225
 30
0.0
  0
LWPOLYLINE
  5
153
100
AcDbEntity
  8
box
 62
7
100
AcDbPolyline
 90
2
 70
0
 10
67.825823
 20
18.159502
 30
0.0
 10
67.825823
 20
54.124350
 30
0.0
  0
SPLINE
  5
154
100
AcDbEntity
  8
box
 62
7
100
AcDbSpline
 70
8
 71
3
 72
8
 73
4
 74
0
 40
0
 40
0
 40
0
 40
0
 40
1
 40
1
 40
1
 40
1
 10
141.362937
 20
67.352866
 30
0.0
 10
134.043127
 20
67.352866
 30
0.0
 10
128.132467
 20
61.444155
 30
0.0
 10
128.132467
 20
54.124350
 30
0.0
  0
LWPOLYLINE
  5
155
100
AcDbEntity
  8
box
 62
7
100
AcDbPolyline
 90
1
 70
1
 10
79.997698
 20
66.296225
 30
0.0
  0
SPLINE
  5
156
100
AcDbEntity
  8
box
 62
7
100
AcDbSpline
 70
8
 71
3
 72
8
 73
4
 74
0
 40
0
 40
0
 40
0
 40
0
 40
1
 40
1
 40
1
 40
1
 10
128.132467
 20
18.159502
 30
0.0
 10
128.132467
 20
10.839702
 30
0.0
 10
134.043127
 20
4.929042
 30
0.0
 10
141.362937
 20
4.929042
 30
0.0
  0
LWPOLYLINE
  5
157
100
AcDbEntity
  8
box
 62
7
100
AcDbPolyline
 90
2
 70
0
 10
128.132467
 20
54.124350
 30
0.0
 10
128.132467
 20
18.159502
 30
0.0
  0
SPLINE
  5
158
100
AcDbEntity
  8
box
 62
7
100
AcDbSpline
 70
8
 71
3
 72
8
 73
4
 74
0
 40
0
 40
0
 40
0
 40
0
 40
1
 40
1
 40
1
 40
1
 10
177.327777
 20
4.929042
 30
0.0
 10
184.647577
 20
4.929042
 30
0.0
 10
190.556287
 20
10.839702
 30
0.0
 10
190.556287
 20
18.159502
 30
0.0
  0
LWPOLYLINE
  5
159
100
AcDbEntity
  8
box
 62
7
100
AcDbPolyline
 90
2
 70
0
 10
141.362937
 20
4.929042
 30
0.0
 10
177.327777
 20
4.929042
 30
0.0
  0
SPLINE
  5
15a
100
AcDbEntity
  8
box
 62
7
100
AcDbSpline
 70
8
 71
3
 72
8
 73
4
 74
0
 40
0
 40
0
 40
0
 40
0
 40
1
 40
1
 40
1
 40
1
 10
190.556287
 20
54.124350
 30
0.0
 10
190.556287
 20
61.444155
 30
0.0
 10
184.647577
 20
67.352866
 30
0.0
 10
177.327777
 20
67.352866
 30
0.0
  0
LWPOLYLINE
  5
15b
100
AcDbEntity
  8
box
 62
7
100
AcDbPolyline
 90
2
 70
0
 10
190.556287
 20
18.159502
 30
0.0
 10
190.556287
 20
54.124350
 30
0.0
  0
LWPOLYLINE
  5
15c
100
AcDbEntity
  8
box
 62
7
100
AcDbPolyline
 90
2
 70
0
 10
177.327777
 20
67.352866
 30
0.0
 10
141.362937
 20
67.352866
 30
0.0
  0
SPLINE
  5
15d
100
AcDbEntity
  8
box
 62
7
100
AcDbSpline
 70
8
 71
3
 72
8
 73
4
 74
0
 40
0
 40
0
 40
0
 40
0
 40
1
 40
1
 40
1
 40
1
 10
177.327777
 20
66.296225
 30
0.0
 10
184.079567
 20
66.296225
 30
0.0
 10
189.499647
 20
60.876145
 30
0.0
 10
189.499647
 20
54.124350
 30
0.0
  0
LWPOLYLINE
  5
15e
100
AcDbEntity
  8
box
 62
7
100
AcDbPolyline
 90
2
 70
0
 10
141.362937
 20
66.296225
 30
0.0
 10
177.327777
 20
66.296225
 30
0.0
  0
SPLINE
  5
15f
100
AcDbEntity
  8
box
 62
7
100
AcDbSpline
 70
8
 71
3
 72
8
 73
4
 74
0
 40
0
 40
0
 40
0
 40
0
 40
1
 40
1
 40
1
 40
1
 10
189.499647
 20
18.159502
 30
0.0
 10
189.499647
 20
11.407712
 30
0.0
 10
184.079567
 20
5.987632
 30
0.0
 10
177.327777
 20
5.987632
 30
0.0
  0
LWPOLYLINE
  5
160
100
AcDbEntity
  8
box
 62
7
100
AcDbPolyline
 90
2
 70
0
 10
189.499647
 20
54.124350
 30
0.0
 10
189.499647
 20
18.159502
 30
0.0
  0
SPLINE
  5
161
100
AcDbEntity
  8
box
 62
7
100
AcDbSpline
 70
8
 71
3
 72
8
 73
4
 74
0
 40
0
 40
0
 40
0
 40
0
 40
1
 40
1
 40
1
 40
1
 10
141.362937
 20
5.987632
 30
0.0
 10
134.611137
 20
5.987632
 30
0.0
 10
129.191057
 20
11.407712
 30
0.0
 10
129.191057
 20
18.159502
 30
0.0
  0
LWPOLYLINE
  5
162
100
AcDbEntity
  8
box
 62
7
100
AcDbPolyline
 90
2
 70
0
 10
177.327777
 20
5.987632
 30
0.0
 10
141.362937
 20
5.987632
 30
0.0
  0
SPLINE
  5
163
100
AcDbEntity
  8
box
 62
7
100
AcDbSpline
 70
8
 71
3
 72
8
 73
4
 74
0
 40
0
 40
0
 40
0
 40
0
 40
1
 40
1
 40
1
 40
1
 10
129.191057
 20
54.124350
 30
0.0
 10
129.191057
 20
60.876145
 30
0.0
 10
134.611137
 20
66.296225
 30
0.0
 10
141.362937
 20
66.296225
 30
0.0
  0
LWPOLYLINE
  5
164
100
AcDbEntity
  8
box
 62
7
100
AcDbPolyline
 90
2
 70
0
 10
129.191057
 20
18.159502
 30
0.0
 10
129.191057
 20
54.124350
 30
0.0
  0
SPLINE
  5
165
100
AcDbEntity
  8
box
 62
7
100
AcDbSpline
 70
8
 71
3
 72
8
 73
4
 74
0
 40
0
 40
0
 40
0
 40
0
 40
1
 40
1
 40
1
 40
1
 10
203.462817
 20
66.463823
 30
0.0
 10
196.143017
 20
66.463823
 30
0.0
 10
190.232347
 20
60.555113
 30
0.0
 10
190.232347
 20
53.235303
 30
0.0
  0
LWPOLYLINE
  5
166
100
AcDbEntity
  8
box
 62
7
100
AcDbPolyline
 90
1
 70
1
 10
141.362937
 20
66.296225
 30
0.0
  0
SPLINE
  5
167
100
AcDbEntity
  8
box
 62
7
100
AcDbSpline
 70
8
 71
3
 72
8
 73
4
 74
0
 40
0
 40
0
 40
0
 40
0
 40
1
 40
1
 40
1
 40
1
 10
190.232347
 20
17.270472
 30
0.0
 10
190.232347
 20
9.950662
 30
0.0
 10
196.143017
 20
4.040002
 30
0.0
 10
203.462817
 20
4.040002
 30
0.0
  0
LWPOLYLINE
  5
168
100
AcDbEntity
  8
box
 62
7
100
AcDbPolyline
 90
2
 70
0
 10
190.232347
 20
53.235303
 30
0.0
 10
190.232347
 20
17.270472
 30
0.0
  0
SPLINE
  5
169
100
AcDbEntity
  8
box
 62
7
100
AcDbSpline
 70
8
 71
3
 72
8
 73
4
 74
0
 40
0
 40
0
 40
0
 40
0
 40
1
 40
1
 40
1
 40
1
 10
239.427657
 20
4.040002
 30
0.0
 10
246.747467
 20
4.040002
 30
0.0
 10
252.656177
 20
9.950662
 30
0.0
 10
252.656177
 20
17.270472
 30
0.0
  0
LWPOLYLINE
  5
16a
100
AcDbEntity
  8
box
 62
7
100
AcDbPolyline
 90
2
 70
0
 10
203.462817
 20
4.040002
 30
0.0
 10
239.427657
 20
4.040002
 30
0.0
  0
SPLINE
  5
16b
100
AcDbEntity
  8
box
 62
7
100
AcDbSpline
 70
8
 71
3
 72
8
 73
4
 74
0
 40
0
 40
0
 40
0
 40
0
 40
1
 40
1
 40
1
 40
1
 10
252.656177
 20
53.235303
 30
0.0
 10
252.656177
 20
60.555113
 30
0.0
 10
246.747467
 20
66.463823
 30
0.0
 10
239.427657
 20
66.463823
 30
0.0
  0
LWPOLYLINE
  5
16c
100
AcDbEntity
  8
box
 62
7
100
AcDbPolyline
 90
2
 70
0
 10
252.656177
 20
17.270472
 30
0.0
 10
252.656177
 20
53.235303
 30
0.0
  0
LWPOLYLINE
  5
16d
100
AcDbEntity
  8
box
 62
7
100
AcDbPolyline
 90
2
 70
0
 10
239.427657
 20
66.463823
 30
0.0
 10
203.462817
 20
66.463823
 30
0.0
  0
SPLINE
  5
16e
100
AcDbEntity
  8
box
 62
7
100
AcDbSpline
 70
8
 71
3
 72
8
 73
4
 74
0
 40
0
 40
0
 40
0
 40
0
 40
1
 40
1
 40
1
 40
1
 10
239.427657
 20
65.405233
 30
0.0
 10
246.179457
 20
65.405233
 30
0.0
 10
251.597587
 20
59.987103
 30
0.0
 10
251.597587
 20
53.235303
 30
0.0
  0
LWPOLYLINE
  5
16f
100
AcDbEntity
  8
box
 62
7
100
AcDbPolyline
 90
2
 70
0
 10
203.462817
 20
65.405233
 30
0.0
 10
239.427657
 20
65.405233
 30
0.0
  0
SPLINE
  5
170
100
AcDbEntity
  8
box
 62
7
100
AcDbSpline
 70
8
 71
3
 72
8
 73
4
 74
0
 40
0
 40
0
 40
0
 40
0
 40
1
 40
1
 40
1
 40
1
 10
251.597587
 20
17.270472
 30
0.0
 10
251.597587
 20
10.518682
 30
0.0
 10
246.179457
 20
5.098602
 30
0.0
 10
239.427657
 20
5.098602
 30
0.0
  0
LWPOLYLINE
  5
171
100
AcDbEntity
  8
box
 62
7
100
AcDbPolyline
 90
2
 70
0
 10
251.597587
 20
53.235303
 30
0.0
 10
251.597587
 20
17.270472
 30
0.0
  0
SPLINE
  5
172
100
AcDbEntity
  8
box
 62
7
100
AcDbSpline
 70
8
 71
3
 72
8
 73
4
 74
0
 40
0
 40
0
 40
0
 40
0
 40
1
 40
1
 40
1
 40
1
 10
203.462817
 20
5.098602
 30
0.0
 10
196.711027
 20
5.098602
 30
0.0
 10
191.290947
 20
10.518682
 30
0.0
 10
191.290947
 20
17.270472
 30
0.0
  0
LWPOLYLINE
  5
173
100
AcDbEntity
  8
box
 62
7
100
AcDbPolyline
 90
2
 70
0
 10
239.427657
 20
5.098602
 30
0.0
 10
203.462817
 20
5.098602
 30
0.0
  0
SPLINE
  5
174
100
AcDbEntity
  8
box
 62
7
100
AcDbSpline
 70
8
 71
3
 72
8
 73
4
 74
0
 40
0
 40
0
 40
0
 40
0
 40
1
 40
1
 40
1
 40
1
 10
191.290947
 20
53.235303
 30
0.0
 10
191.290947
 20
59.987103
 30
0.0
 10
196.711027
 20
65.405233
 30
0.0
 10
203.462817
 20
65.405233
 30
0.0
  0
LWPOLYLINE
  5
175
100
AcDbEntity
  8
box
 62
7
100
AcDbPolyline
 90
2
 70
0
 10
191.290947
 20
17.270472
 30
0.0
 10
191.290947
 20
53.235303
 30
0.0
  0
SPLINE
  5
176
100
AcDbEntity
  8
box
 62
7
100
AcDbSpline
 70
8
 71
3
 72
8
 73
4
 74
0
 40
0
 40
0
 40
0
 40
0
 40
1
 40
1
 40
1
 40
1
 10
203.978337
 20
128.618489
 30
0.0
 10
196.658537
 20
128.618489
 30
0.0
 10
190.747867
 20
122.709779
 30
0.0
 10
190.747867
 20
115.389969
 30
0.0
  0
LWPOLYLINE
  5
177
100
AcDbEntity
  8
box
 62
7
100
AcDbPolyline
 90
1
 70
1
 10
203.462817
 20
65.405233
 30
0.0
  0
SPLINE
  5
178
100
AcDbEntity
  8
box
 62
7
100
AcDbSpline
 70
8
 71
3
 72
8
 73
4
 74
0
 40
0
 40
0
 40
0
 40
0
 40
1
 40
1
 40
1
 40
1
 10
190.747867
 20
79.425129
 30
0.0
 10
190.747867
 20
72.105319
 30
0.0
 10
196.658537
 20
66.194659
 30
0.0
 10
203.978337
 20
66.194659
 30
0.0
  0
LWPOLYLINE
  5
179
100
AcDbEntity
  8
box
 62
7
100
AcDbPolyline
 90
2
 70
0
 10
190.747867
 20
115.389969
 30
0.0
 10
190.747867
 20
79.425129
 30
0.0
  0
SPLINE
  5
17a
100
AcDbEntity
  8
box
 62
7
100
AcDbSpline
 70
8
 71
3
 72
8
 73
4
 74
0
 40
0
 40
0
 40
0
 40
0
 40
1
 40
1
 40
1
 40
1
 10
239.943177
 20
66.194659
 30
0.0
 10
247.262987
 20
66.194659
 30
0.0
 10
253.171697
 20
72.105319
 30
0.0
 10
253.171697
 20
79.425129
 30
0.0
  0
LWPOLYLINE
  5
17b
100
AcDbEntity
  8
box
 62
7
100
AcDbPolyline
 90
2
 70
0
 10
203.978337
 20
66.194659
 30
0.0
 10
239.943177
 20
66.194659
 30
0.0
  0
SPLINE
  5
17c
100
AcDbEntity
  8
box
 62
7
100
AcDbSpline
 70
8
 71
3
 72
8
 73
4
 74
0
 40
0
 40
0
 40
0
 40
0
 40
1
 40
1
 40
1
 40
1
 10
253.171697
 20
115.389969
 30
0.0
 10
253.171697
 20
122.709779
 30
0.0
 10
247.262987
 20
128.618489
 30
0.0
 10
239.943177
 20
128.618489
 30
0.0
  0
LWPOLYLINE
  5
17d
100
AcDbEntity
  8
box
 62
7
100
AcDbPolyline
 90
2
 70
0
 10
253.171697
 20
79.425129
 30
0.0
 10
253.171697
 20
115.389969
 30
0.0
  0
LWPOLYLINE
  5
17e
100
AcDbEntity
  8
box
 62
7
100
AcDbPolyline
 90
2
 70
0
 10
239.943177
 20
128.618489
 30
0.0
 10
203.978337
 20
128.618489
 30
0.0
  0
SPLINE
  5
17f
100
AcDbEntity
  8
box
 62
7
100
AcDbSpline
 70
8
 71
3
 72
8
 73
4
 74
0
 40
0
 40
0
 40
0
 40
0
 40
1
 40
1
 40
1
 40
1
 10
239.943177
 20
127.559899
 30
0.0
 10
246.694977
 20
127.559899
 30
0.0
 10
252.113107
 20
122.141769
 30
0.0
 10
252.113107
 20
115.389969
 30
0.0
  0
LWPOLYLINE
  5
180
100
AcDbEntity
  8
box
 62
7
100
AcDbPolyline
 90
2
 70
0
 10
203.978337
 20
127.559899
 30
0.0
 10
239.943177
 20
127.559899
 30
0.0
  0
SPLINE
  5
181
100
AcDbEntity
  8
box
 62
7
100
AcDbSpline
 70
8
 71
3
 72
8
 73
4
 74
0
 40
0
 40
0
 40
0
 40
0
 40
1
 40
1
 40
1
 40
1
 10
252.113107
 20
79.425129
 30
0.0
 10
252.113107
 20
72.673339
 30
0.0
 10
246.694977
 20
67.253259
 30
0.0
 10
239.943177
 20
67.253259
 30
0.0
  0
LWPOLYLINE
  5
182
100
AcDbEntity
  8
box
 62
7
100
AcDbPolyline
 90
2
 70
0
 10
252.113107
 20
115.389969
 30
0.0
 10
252.113107
 20
79.425129
 30
0.0
  0
SPLINE
  5
183
100
AcDbEntity
  8
box
 62
7
100
AcDbSpline
 70
8
 71
3
 72
8
 73
4
 74
0
 40
0
 40
0
 40
0
 40
0
 40
1
 40
1
 40
1
 40
1
 10
203.978337
 20
67.253259
 30
0.0
 10
197.226547
 20
67.253259
 30
0.0
 10
191.806467
 20
72.673339
 30
0.0
 10
191.806467
 20
79.425129
 30
0.0
  0
LWPOLYLINE
  5
184
100
AcDbEntity
  8
box
 62
7
100
AcDbPolyline
 90
2
 70
0
 10
239.943177
 20
67.253259
 30
0.0
 10
203.978337
 20
67.253259
 30
0.0
  0
SPLINE
  5
185
100
AcDbEntity
  8
box
 62
7
100
AcDbSpline
 70
8
 71
3
 72
8
 73
4
 74
0
 40
0
 40
0
 40
0
 40
0
 40
1
 40
1
 40
1
 40
1
 10
191.806467
 20
115.389969
 30
0.0
 10
191.806467
 20
122.141769
 30
0.0
 10
197.226547
 20
127.559899
 30
0.0
 10
203.978337
 20
127.559899
 30
0.0
  0
LWPOLYLINE
  5
186
100
AcDbEntity
  8
box
 62
7
100
AcDbPolyline
 90
2
 70
0
 10
191.806467
 20
79.425129
 30
0.0
 10
191.806467
 20
115.389969
 30
0.0
  0
LWPOLYLINE
  5
187
100
AcDbEntity
  8
box
 62
7
100
AcDbPolyline
 90
1
 70
1
 10
203.978337
 20
127.559899
 30
0.0
  0
ENDSEC
  0
SECTION
  2
OBJECTS
  0
DICTIONARY
  5
C
330
0
100
AcDbDictionary
  3
ACAD_GROUP
350
D
  3
ACAD_MLINESTYLE
350
17
  0
DICTIONARY
  5
D
330
C
100
AcDbDictionary
  0
DICTIONARY
  5
1A
330
C
100
AcDbDictionary
  0
DICTIONARY
  5
17
330
C
100
AcDbDictionary
  3
STANDARD
350
18
  0
DICTIONARY
  5
19
330
C
100
AcDbDictionary
  0
ENDSEC
  0
EOF
