  0
SECTION
  2
HEADER
  9
$ACADVER
  1
AC1014
  9
$HANDSEED
  5
FFFF
  9
$MEASUREMENT
 70
     1
  0
ENDSEC
  0
SECTION
  2
TABLES
  0
TABLE
  2
VPORT
  5
8
330
0
100
AcDbSymbolTable
 70
     4
  0
VPORT
  5
2E
330
8
100
AcDbSymbolTableRecord
100
AcDbViewportTableRecord
  2
*ACTIVE
 70
     0
 10
0.0
 20
0.0
 11
1.0
 21
1.0
 12
210.0
 22
148.5
 13
0.0
 23
0.0
 14
10.0
 24
10.0
 15
10.0
 25
10.0
 16
0.0
 26
0.0
 36
1.0
 17
0.0
 27
0.0
 37
0.0
 40
341.0
 41
1.24
 42
50.0
 43
0.0
 44
0.0
 50
0.0
 51
0.0
 71
     0
 72
   100
 73
     1
 74
     3
 75
     0
 76
     0
 77
     0
 78
     0
  0
ENDTAB
  0
TABLE
  2
LTYPE
  5
5
330
0
100
AcDbSymbolTable
 70
     1
  0
LTYPE
  5
14
330
5
100
AcDbSymbolTableRecord
100
AcDbLinetypeTableRecord
  2
BYBLOCK
 70
     0
  3

 72
    65
 73
     0
 40
0.0
  0
LTYPE
  5
15
330
5
100
AcDbSymbolTableRecord
100
AcDbLinetypeTableRecord
  2
BYLAYER
 70
     0
  3

 72
    65
 73
     0
 40
0.0
  0
LTYPE
  5
16
330
5
100
AcDbSymbolTableRecord
100
AcDbLinetypeTableRecord
  2
CONTINUOUS
 70
     0
  3
Solid line
 72
    65
 73
     0
 40
0.0
  0
ENDTAB
  0
TABLE
  2
LAYER
  5
2
100
AcDbSymbolTable
 70
10
  0
LAYER
  5
50
100
AcDbSymbolTableRecord
100
AcDbLayerTableRecord
  2
0
 70
0
  6
CONTINUOUS
  0
LAYER
  5
51
100
AcDbSymbolTableRecord
100
AcDbLayerTableRecord
  2
flexbox_v.1.2_(1)
 70
0
  6
CONTINUOUS
  0
LAYER
  5
52
100
AcDbSymbolTableRecord
100
AcDbLayerTableRecord
  2
images
 70
0
  6
CONTINUOUS
  0
LAYER
  5
53
100
AcDbSymbolTableRecord
100
AcDbLayerTableRecord
  2
Top
 70
0
  6
CONTINUOUS
  0
LAYER
  5
54
100
AcDbSymbolTableRecord
100
AcDbLayerTableRecord
  2
bottom
 70
0
  6
CONTINUOUS
  0
LAYER
  5
55
100
AcDbSymbolTableRecord
100
AcDbLayerTableRecord
  2
Images
 70
0
  6
CONTINUOUS
  0
LAYER
  5
56
100
AcDbSymbolTableRecord
100
AcDbLayerTableRecord
  2
outline
 70
0
  6
CONTINUOUS
  0
LAYER
  5
57
100
AcDbSymbolTableRecord
100
AcDbLayerTableRecord
  2
small_button
 70
0
  6
CONTINUOUS
  0
LAYER
  5
58
100
AcDbSymbolTableRecord
100
AcDbLayerTableRecord
  2
2buttons
 70
0
  6
CONTINUOUS
  0
LAYER
  5
59
100
AcDbSymbolTableRecord
100
AcDbLayerTableRecord
  2
big_button
 70
0
  6
CONTINUOUS
  0
ENDTAB
  0
TABLE
  2
STYLE
  5
3
330
0
100
AcDbSymbolTable
 70
     1
  0
STYLE
  5
11
330
3
100
AcDbSymbolTableRecord
100
AcDbTextStyleTableRecord
  2
STANDARD
 70
     0
 40
0.0
 41
1.0
 50
0.0
 71
     0
 42
2.5
  3
txt
  4

  0
ENDTAB
  0
TABLE
  2
VIEW
  5
6
330
0
100
AcDbSymbolTable
 70
     0
  0
ENDTAB
  0
TABLE
  2
UCS
  5
7
330
0
100
AcDbSymbolTable
 70
     0
  0
ENDTAB
  0
TABLE
  2
APPID
  5
9
330
0
100
AcDbSymbolTable
 70
     2
  0
APPID
  5
12
330
9
100
AcDbSymbolTableRecord
100
AcDbRegAppTableRecord
  2
ACAD
 70
     0
  0
ENDTAB
  0
TABLE
  2
DIMSTYLE
  5
A
330
0
100
AcDbSymbolTable
 70
     1
  0
DIMSTYLE
105
27
330
A
100
AcDbSymbolTableRecord
100
AcDbDimStyleTableRecord
  2
ISO-25
 70
     0
  3

  4

  5

  6

  7

 40
1.0
 41
2.5
 42
0.625
 43
3.75
 44
1.25
 45
0.0
 46
0.0
 47
0.0
 48
0.0
140
2.5
141
2.5
142
0.0
143
0.03937007874016
144
1.0
145
0.0
146
1.0
147
0.625
 71
     0
 72
     0
 73
     0
 74
     0
 75
     0
 76
     0
 77
     1
 78
     8
170
     0
171
     3
172
     1
173
     0
174
     0
175
     0
176
     0
177
     0
178
     0
270
     2
271
     2
272
     2
273
     2
274
     3
340
11
275
     0
280
     0
281
     0
282
     0
283
     0
284
     8
285
     0
286
     0
287
     3
288
     0
  0
ENDTAB
  0
TABLE
  2
BLOCK_RECORD
  5
1
330
0
100
AcDbSymbolTable
 70
     1
  0
BLOCK_RECORD
  5
1F
330
1
100
AcDbSymbolTableRecord
100
AcDbBlockTableRecord
  2
*MODEL_SPACE
  0
BLOCK_RECORD
  5
1B
330
1
100
AcDbSymbolTableRecord
100
AcDbBlockTableRecord
  2
*PAPER_SPACE
  0
ENDTAB
  0
ENDSEC
  0
SECTION
  2
BLOCKS
  0
BLOCK
  5
20
330
1F
100
AcDbEntity
  8
0
100
AcDbBlockBegin
  2
*MODEL_SPACE
 70
     0
 10
0.0
 20
0.0
 30
0.0
  3
*MODEL_SPACE
  1

  0
ENDBLK
  5
21
330
1F
100
AcDbEntity
  8
0
100
AcDbBlockEnd
  0
BLOCK
  5
1C
330
1B
100
AcDbEntity
 67
     1
  8
0
100
AcDbBlockBegin
  2
*PAPER_SPACE
  1

  0
ENDBLK
  5
1D
330
1B
100
AcDbEntity
 67
     1
  8
0
100
AcDbBlockEnd
  0
ENDSEC
  0
SECTION
  2
ENTITIES
  0
SPLINE
  5
100
100
AcDbEntity
  8
Top
 62
7
100
AcDbSpline
 70
8
 71
3
 72
8
 73
4
 74
0
 40
0
 40
0
 40
0
 40
0
 40
1
 40
1
 40
1
 40
1
 10
177.529294
 20
136.353289
 30
0.0
 10
177.529294
 20
136.528065
 30
0.0
 10
177.622539
 20
136.689564
 30
0.0
 10
177.773899
 20
136.776953
 30
0.0
  0
SPLINE
  5
101
100
AcDbEntity
  8
Top
 62
7
100
AcDbSpline
 70
8
 71
3
 72
8
 73
4
 74
0
 40
0
 40
0
 40
0
 40
0
 40
1
 40
1
 40
1
 40
1
 10
177.773899
 20
136.776953
 30
0.0
 10
177.925259
 20
136.864343
 30
0.0
 10
178.111745
 20
136.864343
 30
0.0
 10
178.263105
 20
136.776953
 30
0.0
  0
SPLINE
  5
102
100
AcDbEntity
  8
Top
 62
7
100
AcDbSpline
 70
8
 71
3
 72
8
 73
4
 74
0
 40
0
 40
0
 40
0
 40
0
 40
1
 40
1
 40
1
 40
1
 10
178.263105
 20
136.776953
 30
0.0
 10
178.414468
 20
136.689564
 30
0.0
 10
178.507708
 20
136.528065
 30
0.0
 10
178.507708
 20
136.353289
 30
0.0
  0
SPLINE
  5
103
100
AcDbEntity
  8
Top
 62
7
100
AcDbSpline
 70
8
 71
3
 72
8
 73
4
 74
0
 40
0
 40
0
 40
0
 40
0
 40
1
 40
1
 40
1
 40
1
 10
178.507708
 20
136.353289
 30
0.0
 10
178.507708
 20
136.178511
 30
0.0
 10
178.414468
 20
136.017012
 30
0.0
 10
178.263105
 20
135.929623
 30
0.0
  0
SPLINE
  5
104
100
AcDbEntity
  8
Top
 62
7
100
AcDbSpline
 70
8
 71
3
 72
8
 73
4
 74
0
 40
0
 40
0
 40
0
 40
0
 40
1
 40
1
 40
1
 40
1
 10
178.263105
 20
135.929623
 30
0.0
 10
178.111745
 20
135.842233
 30
0.0
 10
177.925259
 20
135.842233
 30
0.0
 10
177.773899
 20
135.929623
 30
0.0
  0
SPLINE
  5
105
100
AcDbEntity
  8
Top
 62
7
100
AcDbSpline
 70
8
 71
3
 72
8
 73
4
 74
0
 40
0
 40
0
 40
0
 40
0
 40
1
 40
1
 40
1
 40
1
 10
177.773899
 20
135.929623
 30
0.0
 10
177.622539
 20
136.017012
 30
0.0
 10
177.529294
 20
136.178511
 30
0.0
 10
177.529294
 20
136.353289
 30
0.0
  0
SPLINE
  5
106
100
AcDbEntity
  8
Top
 62
7
100
AcDbSpline
 70
8
 71
3
 72
8
 73
4
 74
0
 40
0
 40
0
 40
0
 40
0
 40
1
 40
1
 40
1
 40
1
 10
176.633116
 20
136.327440
 30
0.0
 10
176.633116
 20
136.502218
 30
0.0
 10
176.726358
 20
136.663717
 30
0.0
 10
176.877721
 20
136.751106
 30
0.0
  0
SPLINE
  5
107
100
AcDbEntity
  8
Top
 62
7
100
AcDbSpline
 70
8
 71
3
 72
8
 73
4
 74
0
 40
0
 40
0
 40
0
 40
0
 40
1
 40
1
 40
1
 40
1
 10
176.877721
 20
136.751106
 30
0.0
 10
177.029081
 20
136.838496
 30
0.0
 10
177.215565
 20
136.838496
 30
0.0
 10
177.366927
 20
136.751106
 30
0.0
  0
SPLINE
  5
108
100
AcDbEntity
  8
Top
 62
7
100
AcDbSpline
 70
8
 71
3
 72
8
 73
4
 74
0
 40
0
 40
0
 40
0
 40
0
 40
1
 40
1
 40
1
 40
1
 10
177.366927
 20
136.751106
 30
0.0
 10
177.518288
 20
136.663717
 30
0.0
 10
177.611529
 20
136.502218
 30
0.0
 10
177.611529
 20
136.327440
 30
0.0
  0
SPLINE
  5
109
100
AcDbEntity
  8
Top
 62
7
100
AcDbSpline
 70
8
 71
3
 72
8
 73
4
 74
0
 40
0
 40
0
 40
0
 40
0
 40
1
 40
1
 40
1
 40
1
 10
177.611529
 20
136.327440
 30
0.0
 10
177.611529
 20
136.152664
 30
0.0
 10
177.518288
 20
135.991162
 30
0.0
 10
177.366927
 20
135.903776
 30
0.0
  0
SPLINE
  5
10a
100
AcDbEntity
  8
Top
 62
7
100
AcDbSpline
 70
8
 71
3
 72
8
 73
4
 74
0
 40
0
 40
0
 40
0
 40
0
 40
1
 40
1
 40
1
 40
1
 10
177.366927
 20
135.903776
 30
0.0
 10
177.215565
 20
135.816386
 30
0.0
 10
177.029081
 20
135.816386
 30
0.0
 10
176.877721
 20
135.903776
 30
0.0
  0
SPLINE
  5
10b
100
AcDbEntity
  8
Top
 62
7
100
AcDbSpline
 70
8
 71
3
 72
8
 73
4
 74
0
 40
0
 40
0
 40
0
 40
0
 40
1
 40
1
 40
1
 40
1
 10
176.877721
 20
135.903776
 30
0.0
 10
176.726358
 20
135.991162
 30
0.0
 10
176.633116
 20
136.152664
 30
0.0
 10
176.633116
 20
136.327440
 30
0.0
  0
SPLINE
  5
10c
100
AcDbEntity
  8
Top
 62
7
100
AcDbSpline
 70
8
 71
3
 72
8
 73
4
 74
0
 40
0
 40
0
 40
0
 40
0
 40
1
 40
1
 40
1
 40
1
 10
175.806293
 20
136.310903
 30
0.0
 10
175.806293
 20
136.485679
 30
0.0
 10
175.899535
 20
136.647178
 30
0.0
 10
176.050898
 20
136.734567
 30
0.0
  0
SPLINE
  5
10d
100
AcDbEntity
  8
Top
 62
7
100
AcDbSpline
 70
8
 71
3
 72
8
 73
4
 74
0
 40
0
 40
0
 40
0
 40
0
 40
1
 40
1
 40
1
 40
1
 10
176.050898
 20
136.734567
 30
0.0
 10
176.202258
 20
136.821956
 30
0.0
 10
176.388742
 20
136.821956
 30
0.0
 10
176.540104
 20
136.734567
 30
0.0
  0
SPLINE
  5
10e
100
AcDbEntity
  8
Top
 62
7
100
AcDbSpline
 70
8
 71
3
 72
8
 73
4
 74
0
 40
0
 40
0
 40
0
 40
0
 40
1
 40
1
 40
1
 40
1
 10
176.540104
 20
136.734567
 30
0.0
 10
176.691465
 20
136.647178
 30
0.0
 10
176.784706
 20
136.485679
 30
0.0
 10
176.784706
 20
136.310903
 30
0.0
  0
SPLINE
  5
10f
100
AcDbEntity
  8
Top
 62
7
100
AcDbSpline
 70
8
 71
3
 72
8
 73
4
 74
0
 40
0
 40
0
 40
0
 40
0
 40
1
 40
1
 40
1
 40
1
 10
176.784706
 20
136.310903
 30
0.0
 10
176.784706
 20
136.136125
 30
0.0
 10
176.691465
 20
135.974626
 30
0.0
 10
176.540104
 20
135.887236
 30
0.0
  0
SPLINE
  5
110
100
AcDbEntity
  8
Top
 62
7
100
AcDbSpline
 70
8
 71
3
 72
8
 73
4
 74
0
 40
0
 40
0
 40
0
 40
0
 40
1
 40
1
 40
1
 40
1
 10
176.540104
 20
135.887236
 30
0.0
 10
176.388742
 20
135.799847
 30
0.0
 10
176.202258
 20
135.799847
 30
0.0
 10
176.050898
 20
135.887236
 30
0.0
  0
SPLINE
  5
111
100
AcDbEntity
  8
Top
 62
7
100
AcDbSpline
 70
8
 71
3
 72
8
 73
4
 74
0
 40
0
 40
0
 40
0
 40
0
 40
1
 40
1
 40
1
 40
1
 10
176.050898
 20
135.887236
 30
0.0
 10
175.899535
 20
135.974626
 30
0.0
 10
175.806293
 20
136.136125
 30
0.0
 10
175.806293
 20
136.310903
 30
0.0
  0
SPLINE
  5
112
100
AcDbEntity
  8
Top
 62
7
100
AcDbSpline
 70
8
 71
3
 72
8
 73
4
 74
0
 40
0
 40
0
 40
0
 40
0
 40
1
 40
1
 40
1
 40
1
 10
178.485199
 20
136.343976
 30
0.0
 10
178.485199
 20
136.518752
 30
0.0
 10
178.578441
 20
136.680251
 30
0.0
 10
178.729804
 20
136.767640
 30
0.0
  0
SPLINE
  5
113
100
AcDbEntity
  8
Top
 62
7
100
AcDbSpline
 70
8
 71
3
 72
8
 73
4
 74
0
 40
0
 40
0
 40
0
 40
0
 40
1
 40
1
 40
1
 40
1
 10
178.729804
 20
136.767640
 30
0.0
 10
178.881164
 20
136.855029
 30
0.0
 10
179.067648
 20
136.855029
 30
0.0
 10
179.219011
 20
136.767640
 30
0.0
  0
SPLINE
  5
114
100
AcDbEntity
  8
Top
 62
7
100
AcDbSpline
 70
8
 71
3
 72
8
 73
4
 74
0
 40
0
 40
0
 40
0
 40
0
 40
1
 40
1
 40
1
 40
1
 10
179.219011
 20
136.767640
 30
0.0
 10
179.370371
 20
136.680251
 30
0.0
 10
179.463615
 20
136.518752
 30
0.0
 10
179.463615
 20
136.343976
 30
0.0
  0
SPLINE
  5
115
100
AcDbEntity
  8
Top
 62
7
100
AcDbSpline
 70
8
 71
3
 72
8
 73
4
 74
0
 40
0
 40
0
 40
0
 40
0
 40
1
 40
1
 40
1
 40
1
 10
179.463615
 20
136.343976
 30
0.0
 10
179.463615
 20
136.169198
 30
0.0
 10
179.370371
 20
136.007699
 30
0.0
 10
179.219011
 20
135.920309
 30
0.0
  0
SPLINE
  5
116
100
AcDbEntity
  8
Top
 62
7
100
AcDbSpline
 70
8
 71
3
 72
8
 73
4
 74
0
 40
0
 40
0
 40
0
 40
0
 40
1
 40
1
 40
1
 40
1
 10
179.219011
 20
135.920309
 30
0.0
 10
179.067648
 20
135.832920
 30
0.0
 10
178.881164
 20
135.832920
 30
0.0
 10
178.729804
 20
135.920309
 30
0.0
  0
SPLINE
  5
117
100
AcDbEntity
  8
Top
 62
7
100
AcDbSpline
 70
8
 71
3
 72
8
 73
4
 74
0
 40
0
 40
0
 40
0
 40
0
 40
1
 40
1
 40
1
 40
1
 10
178.729804
 20
135.920309
 30
0.0
 10
178.578441
 20
136.007699
 30
0.0
 10
178.485199
 20
136.169198
 30
0.0
 10
178.485199
 20
136.343976
 30
0.0
  0
SPLINE
  5
118
100
AcDbEntity
  8
Top
 62
7
100
AcDbSpline
 70
8
 71
3
 72
8
 73
4
 74
0
 40
0
 40
0
 40
0
 40
0
 40
1
 40
1
 40
1
 40
1
 10
203.879154
 20
133.450953
 30
0.0
 10
203.879154
 20
138.711224
 30
0.0
 10
199.614425
 20
142.975953
 30
0.0
 10
194.354156
 20
142.975953
 30
0.0
  0
SPLINE
  5
119
100
AcDbEntity
  8
Top
 62
7
100
AcDbSpline
 70
8
 71
3
 72
8
 73
4
 74
0
 40
0
 40
0
 40
0
 40
0
 40
1
 40
1
 40
1
 40
1
 10
118.154159
 20
142.975953
 30
0.0
 10
112.893888
 20
142.975953
 30
0.0
 10
108.629159
 20
138.711224
 30
0.0
 10
108.629159
 20
133.450953
 30
0.0
  0
SPLINE
  5
11a
100
AcDbEntity
  8
Top
 62
7
100
AcDbSpline
 70
8
 71
3
 72
8
 73
4
 74
0
 40
0
 40
0
 40
0
 40
0
 40
1
 40
1
 40
1
 40
1
 10
108.629159
 20
101.700956
 30
0.0
 10
108.629159
 20
96.440685
 30
0.0
 10
112.893888
 20
92.175956
 30
0.0
 10
118.154159
 20
92.175956
 30
0.0
  0
LWPOLYLINE
  5
11b
100
AcDbEntity
  8
Top
 62
7
100
AcDbPolyline
 90
11
 70
0
 10
194.354156
 20
142.975953
 30
0.0
 10
168.954156
 20
142.975953
 30
0.0
 10
168.954156
 20
146.150953
 30
0.0
 10
162.604156
 20
146.150953
 30
0.0
 10
162.604156
 20
142.975953
 30
0.0
 10
149.904156
 20
142.975953
 30
0.0
 10
149.904156
 20
146.150953
 30
0.0
 10
143.554156
 20
146.150953
 30
0.0
 10
143.554156
 20
142.975953
 30
0.0
 10
118.154159
 20
142.975953
 30
0.0
 10
118.154159
 20
142.975953
 30
0.0
  0
SPLINE
  5
11c
100
AcDbEntity
  8
Top
 62
7
100
AcDbSpline
 70
8
 71
3
 72
8
 73
4
 74
0
 40
0
 40
0
 40
0
 40
0
 40
1
 40
1
 40
1
 40
1
 10
194.354156
 20
92.175956
 30
0.0
 10
199.614425
 20
92.175956
 30
0.0
 10
203.879154
 20
96.440685
 30
0.0
 10
203.879154
 20
101.700956
 30
0.0
  0
LWPOLYLINE
  5
11d
100
AcDbEntity
  8
Top
 62
7
100
AcDbPolyline
 90
14
 70
0
 10
203.879154
 20
101.700956
 30
0.0
 10
203.879154
 20
106.236618
 30
0.0
 10
207.054154
 20
106.236618
 30
0.0
 10
207.054154
 20
110.772283
 30
0.0
 10
203.879154
 20
110.772283
 30
0.0
 10
203.879154
 20
115.307947
 30
0.0
 10
207.054154
 20
115.307947
 30
0.0
 10
207.054154
 20
119.843961
 30
0.0
 10
203.879154
 20
119.843961
 30
0.0
 10
203.879154
 20
124.379626
 30
0.0
 10
207.054154
 20
124.379626
 30
0.0
 10
207.054154
 20
128.915291
 30
0.0
 10
203.879154
 20
128.915291
 30
0.0
 10
203.879154
 20
133.450953
 30
0.0
  0
SPLINE
  5
11e
100
AcDbEntity
  8
Top
 62
5
100
AcDbSpline
 70
8
 71
3
 72
8
 73
4
 74
0
 40
0
 40
0
 40
0
 40
0
 40
1
 40
1
 40
1
 40
1
 10
178.395611
 20
120.154789
 30
0.0
 10
180.005397
 20
120.190251
 30
0.0
 10
181.621774
 20
120.663405
 30
0.0
 10
183.036845
 20
121.607931
 30
0.0
  0
SPLINE
  5
11f
100
AcDbEntity
  8
Top
 62
5
100
AcDbSpline
 70
8
 71
3
 72
8
 73
4
 74
0
 40
0
 40
0
 40
0
 40
0
 40
1
 40
1
 40
1
 40
1
 10
183.036845
 20
121.607931
 30
0.0
 10
186.810364
 20
124.126658
 30
0.0
 10
187.751217
 20
129.064937
 30
0.0
 10
185.144553
 20
132.680465
 30
0.0
  0
LWPOLYLINE
  5
120
100
AcDbEntity
  8
Top
 62
7
100
AcDbPolyline
 90
27
 70
0
 10
118.154159
 20
92.175956
 30
0.0
 10
124.015913
 20
92.175956
 30
0.0
 10
124.015913
 20
89.000956
 30
0.0
 10
129.877315
 20
89.000956
 30
0.0
 10
129.877315
 20
92.175956
 30
0.0
 10
135.738719
 20
92.175956
 30
0.0
 10
135.738719
 20
89.000956
 30
0.0
 10
141.600473
 20
89.000956
 30
0.0
 10
141.600473
 20
92.175956
 30
0.0
 10
147.461875
 20
92.175956
 30
0.0
 10
147.461875
 20
89.000956
 30
0.0
 10
153.323631
 20
89.000956
 30
0.0
 10
153.323631
 20
92.175956
 30
0.0
 10
159.185033
 20
92.175956
 30
0.0
 10
159.185033
 20
89.000956
 30
0.0
 10
165.046438
 20
89.000956
 30
0.0
 10
165.046438
 20
92.175956
 30
0.0
 10
170.908192
 20
92.175956
 30
0.0
 10
170.908192
 20
89.000956
 30
0.0
 10
176.769596
 20
89.000956
 30
0.0
 10
176.769596
 20
92.175956
 30
0.0
 10
182.630998
 20
92.175956
 30
0.0
 10
182.630998
 20
89.000956
 30
0.0
 10
188.492752
 20
89.000956
 30
0.0
 10
188.492752
 20
92.175956
 30
0.0
 10
194.354156
 20
92.175956
 30
0.0
 10
194.354156
 20
92.175956
 30
0.0
  0
SPLINE
  5
121
100
AcDbEntity
  8
Top
 62
5
100
AcDbSpline
 70
8
 71
3
 72
8
 73
4
 74
0
 40
0
 40
0
 40
0
 40
0
 40
1
 40
1
 40
1
 40
1
 10
185.058428
 20
132.618455
 30
0.0
 10
187.631324
 20
129.049760
 30
0.0
 10
186.705475
 20
124.183938
 30
0.0
 10
182.978277
 20
121.696124
 30
0.0
  0
SPLINE
  5
122
100
AcDbEntity
  8
Top
 62
5
100
AcDbSpline
 70
8
 71
3
 72
8
 73
4
 74
0
 40
0
 40
0
 40
0
 40
0
 40
1
 40
1
 40
1
 40
1
 10
182.978277
 20
121.696124
 30
0.0
 10
179.251076
 20
119.208311
 30
0.0
 10
174.109478
 20
120.029860
 30
0.0
 10
171.445476
 20
123.537870
 30
0.0
  0
LWPOLYLINE
  5
123
100
AcDbEntity
  8
Top
 62
7
100
AcDbPolyline
 90
14
 70
0
 10
108.629159
 20
133.450953
 30
0.0
 10
108.629159
 20
128.915291
 30
0.0
 10
105.454159
 20
128.915291
 30
0.0
 10
105.454159
 20
124.379626
 30
0.0
 10
108.629159
 20
124.379626
 30
0.0
 10
108.629159
 20
119.843961
 30
0.0
 10
105.454159
 20
119.843961
 30
0.0
 10
105.454159
 20
115.307947
 30
0.0
 10
108.629159
 20
115.307947
 30
0.0
 10
108.629159
 20
110.772283
 30
0.0
 10
105.454159
 20
110.772283
 30
0.0
 10
105.454159
 20
106.236618
 30
0.0
 10
108.629159
 20
106.236618
 30
0.0
 10
108.629159
 20
101.700956
 30
0.0
  0
SPLINE
  5
124
100
AcDbEntity
  8
Top
 62
5
100
AcDbSpline
 70
8
 71
3
 72
8
 73
4
 74
0
 40
0
 40
0
 40
0
 40
0
 40
1
 40
1
 40
1
 40
1
 10
171.360727
 20
123.474481
 30
0.0
 10
173.047501
 20
121.253304
 30
0.0
 10
175.712639
 20
120.095683
 30
0.0
 10
178.395611
 20
120.154789
 30
0.0
  0
LWPOLYLINE
  5
125
100
AcDbEntity
  8
Top
 62
5
100
AcDbPolyline
 90
2
 70
0
 10
185.144553
 20
132.680465
 30
0.0
 10
185.058428
 20
132.618455
 30
0.0
  0
LWPOLYLINE
  5
126
100
AcDbEntity
  8
Top
 62
5
100
AcDbPolyline
 90
2
 70
0
 10
171.445476
 20
123.537870
 30
0.0
 10
171.360727
 20
123.474481
 30
0.0
  0
LWPOLYLINE
  5
127
100
AcDbEntity
  8
Top
 62
5
100
AcDbPolyline
 90
3
 70
1
 10
182.601254
 20
121.380773
 30
0.0
 10
182.975374
 20
122.139460
 30
0.0
 10
183.445415
 20
121.435256
 30
0.0
  0
SPLINE
  5
128
100
AcDbEntity
  8
Top
 62
7
100
AcDbSpline
 70
8
 71
3
 72
8
 73
4
 74
0
 40
0
 40
0
 40
0
 40
0
 40
1
 40
1
 40
1
 40
1
 10
173.750023
 20
128.093606
 30
0.0
 10
173.750023
 20
129.491821
 30
0.0
 10
174.495963
 20
130.783823
 30
0.0
 10
175.706850
 20
131.482932
 30
0.0
  0
SPLINE
  5
129
100
AcDbEntity
  8
Top
 62
7
100
AcDbSpline
 70
8
 71
3
 72
8
 73
4
 74
0
 40
0
 40
0
 40
0
 40
0
 40
1
 40
1
 40
1
 40
1
 10
175.706850
 20
131.482932
 30
0.0
 10
176.917739
 20
132.182038
 30
0.0
 10
178.409616
 20
132.182038
 30
0.0
 10
179.620505
 20
131.482932
 30
0.0
  0
SPLINE
  5
12a
100
AcDbEntity
  8
Top
 62
7
100
AcDbSpline
 70
8
 71
3
 72
8
 73
4
 74
0
 40
0
 40
0
 40
0
 40
0
 40
1
 40
1
 40
1
 40
1
 10
179.620505
 20
131.482932
 30
0.0
 10
180.831395
 20
130.783823
 30
0.0
 10
181.577332
 20
129.491821
 30
0.0
 10
181.577332
 20
128.093606
 30
0.0
  0
SPLINE
  5
12b
100
AcDbEntity
  8
Top
 62
7
100
AcDbSpline
 70
8
 71
3
 72
8
 73
4
 74
0
 40
0
 40
0
 40
0
 40
0
 40
1
 40
1
 40
1
 40
1
 10
181.577332
 20
128.093606
 30
0.0
 10
181.577332
 20
126.695394
 30
0.0
 10
180.831395
 20
125.403389
 30
0.0
 10
179.620505
 20
124.704283
 30
0.0
  0
SPLINE
  5
12c
100
AcDbEntity
  8
Top
 62
7
100
AcDbSpline
 70
8
 71
3
 72
8
 73
4
 74
0
 40
0
 40
0
 40
0
 40
0
 40
1
 40
1
 40
1
 40
1
 10
179.620505
 20
124.704283
 30
0.0
 10
178.409616
 20
124.005175
 30
0.0
 10
176.917739
 20
124.005175
 30
0.0
 10
175.706849
 20
124.704283
 30
0.0
  0
SPLINE
  5
12d
100
AcDbEntity
  8
Top
 62
7
100
AcDbSpline
 70
8
 71
3
 72
8
 73
4
 74
0
 40
0
 40
0
 40
0
 40
0
 40
1
 40
1
 40
1
 40
1
 10
175.706850
 20
124.704283
 30
0.0
 10
174.495963
 20
125.403389
 30
0.0
 10
173.750023
 20
126.695394
 30
0.0
 10
173.750023
 20
128.093606
 30
0.0
  0
LWPOLYLINE
  5
12e
100
AcDbEntity
  8
Top
 62
5
100
AcDbPolyline
 90
3
 70
1
 10
171.107656
 20
123.895216
 30
0.0
 10
171.887719
 20
123.567990
 30
0.0
 10
171.213444
 20
123.055942
 30
0.0
  0
LWPOLYLINE
  5
12f
100
AcDbEntity
  8
small_button
 62
7
100
AcDbPolyline
 90
4
 70
1
 10
140.316500
 20
115.176457
 30
0.0
 10
160.954000
 20
115.176457
 30
0.0
 10
160.954000
 20
100.888957
 30
0.0
 10
140.316500
 20
100.888957
 30
0.0
  0
ENDSEC
  0
SECTION
  2
OBJECTS
  0
DICTIONARY
  5
C
330
0
100
AcDbDictionary
  3
ACAD_GROUP
350
D
  3
ACAD_MLINESTYLE
350
17
  0
DICTIONARY
  5
D
330
C
100
AcDbDictionary
  0
DICTIONARY
  5
1A
330
C
100
AcDbDictionary
  0
DICTIONARY
  5
17
330
C
100
AcDbDictionary
  3
STANDARD
350
18
  0
DICTIONARY
  5
19
330
C
100
AcDbDictionary
  0
ENDSEC
  0
EOF
