999
"DXF R12 Output" (www.mydxf.blogspot.com)
 0 
SECTION
 2 
HEADER
 9 
$ACADVER
 1 
AC1009
 9 
$EXTMIN
 10 
 0 
 20 
 0 
 9 
$EXTMAX
 10 
 8.5 
 20 
 11 
 0 
ENDSEC
 0 
SECTION
 2 
ENTITIES
0
LINE
8
Layer 1
10
14.937100
20
54.143500
11
21.390100
21
54.143500
0
LINE
8
Layer 1
10
21.390100
20
54.143500
11
21.390100
21
2.306090
0
LINE
8
Layer 1
10
21.390100
20
2.306090
11
14.937100
21
2.306090
0
LINE
8
Layer 1
10
14.937100
20
2.306090
11
14.937100
21
54.143500
0
LINE
8
Layer 1
10
21.390100
20
54.143500
11
27.843100
21
54.143500
0
LINE
8
Layer 1
10
27.843100
20
54.143500
11
27.843100
21
2.306090
0
LINE
8
Layer 1
10
27.843100
20
2.306090
11
21.390100
21
2.306090
0
LINE
8
Layer 1
10
21.390100
20
2.306090
11
21.390100
21
54.143500
0
LINE
8
Layer 1
10
27.843100
20
54.143500
11
34.296200
21
54.143500
0
LINE
8
Layer 1
10
34.296200
20
54.143500
11
34.296200
21
2.306090
0
LINE
8
Layer 1
10
34.296200
20
2.306090
11
27.843100
21
2.306090
0
LINE
8
Layer 1
10
27.843100
20
2.306090
11
27.843100
21
54.143500
0
LINE
8
Layer 1
10
34.296200
20
54.143500
11
40.749200
21
54.143500
0
LINE
8
Layer 1
10
40.749200
20
54.143500
11
40.749200
21
2.306090
0
LINE
8
Layer 1
10
40.749200
20
2.306090
11
34.296200
21
2.306090
0
LINE
8
Layer 1
10
34.296200
20
2.306090
11
34.296200
21
54.143500
0
LINE
8
Layer 1
10
40.749200
20
54.143500
11
47.202200
21
54.143500
0
LINE
8
Layer 1
10
47.202200
20
54.143500
11
47.202200
21
2.306090
0
LINE
8
Layer 1
10
47.202200
20
2.306090
11
40.749200
21
2.306090
0
LINE
8
Layer 1
10
40.749200
20
2.306090
11
40.749200
21
54.143500
0
LINE
8
Layer 1
10
47.202200
20
54.143500
11
53.655200
21
54.143500
0
LINE
8
Layer 1
10
53.655200
20
54.143500
11
53.655200
21
2.306090
0
LINE
8
Layer 1
10
53.655200
20
2.306090
11
47.202200
21
2.306090
0
LINE
8
Layer 1
10
47.202200
20
2.306090
11
47.202200
21
54.143500
0
LINE
8
Layer 1
10
53.655200
20
54.143500
11
60.108200
21
54.143500
0
LINE
8
Layer 1
10
60.108200
20
54.143500
11
60.108200
21
2.306090
0
LINE
8
Layer 1
10
60.108200
20
2.306090
11
53.655200
21
2.306090
0
LINE
8
Layer 1
10
53.655200
20
2.306090
11
53.655200
21
54.143500
0
LINE
8
Layer 1
10
53.655200
20
2.306090
11
53.655200
21
12.538200
0
LINE
8
back
10
7.918020
20
9.884780
11
7.918021
21
47.952180
0
LINE
8
back
10
7.918020
20
7.940270
11
7.918020
21
9.884780
0
LINE
8
back
10
29.962000
20
-41.279700
11
7.918100
21
-41.279699
0
LINE
8
back
10
7.918100
20
-41.279699
11
7.918099
21
-39.386809
0
LINE
8
back
10
53.089100
20
-16.240000
11
53.089101
21
-41.279700
0
LINE
8
back
10
53.089101
20
-41.279700
11
31.283501
21
-41.279699
0
LINE
8
back
10
31.988800
20
10.557800
11
46.636100
21
10.557799
0
LINE
8
back
10
46.636100
20
10.557799
11
53.089100
21
10.557800
0
LINE
8
back
10
53.089100
20
10.557800
11
53.089099
21
-15.345700
0
LINE
8
back
10
7.918030
20
8.100370
11
7.918030
21
10.557800
0
LINE
8
back
10
7.918030
20
10.557800
11
29.516130
21
10.557799
0
LINE
8
back
10
46.636100
20
54.143500
11
46.636100
21
54.068700
0
LINE
8
back
10
46.636100
20
53.769700
11
46.636100
21
53.694900
0
LINE
8
back
10
46.636100
20
53.395900
11
46.636100
21
53.321000
0
LINE
8
back
10
46.636300
20
53.021900
11
46.636300
21
52.946900
0
LINE
8
back
10
46.636300
20
52.647900
11
46.636300
21
52.573100
0
LINE
8
back
10
46.636300
20
52.274000
11
46.636300
21
52.199000
0
LINE
8
back
10
46.636300
20
51.900000
11
46.636300
21
51.825300
0
LINE
8
back
10
46.636600
20
51.526200
11
46.636600
21
51.451100
0
LINE
8
back
10
46.636600
20
51.152200
11
46.636600
21
51.077300
0
LINE
8
back
10
46.636600
20
50.778100
11
46.636600
21
50.703200
0
LINE
8
back
10
46.636600
20
50.404200
11
46.636600
21
50.329500
0
LINE
8
back
10
46.636600
20
50.030600
11
46.636900
21
49.955500
0
LINE
8
back
10
46.636900
20
49.656300
11
46.636900
21
49.581600
0
LINE
8
back
10
46.636900
20
49.282600
11
46.636900
21
49.208100
0
LINE
8
back
10
46.636900
20
48.908700
11
46.636900
21
48.833800
0
LINE
8
back
10
46.636900
20
48.534400
11
46.636900
21
48.459500
0
LINE
8
back
10
46.637200
20
48.160200
11
46.637200
21
48.085500
0
LINE
8
back
10
46.637200
20
47.786200
11
46.637200
21
47.711400
0
LINE
8
back
10
46.637200
20
47.412100
11
46.637200
21
47.337600
0
LINE
8
back
10
46.637200
20
47.038500
11
46.637200
21
46.963900
0
LINE
8
back
10
46.637500
20
46.664900
11
46.637500
21
46.590100
0
LINE
8
back
10
46.637500
20
46.290700
11
46.637500
21
46.215900
0
LINE
8
back
10
40.183100
20
54.144500
11
40.183100
21
51.909600
0
LINE
8
back
10
40.183100
20
49.674700
11
40.183300
21
47.440200
0
LINE
8
back
10
40.183300
20
45.205500
11
40.183300
21
42.970700
0
LINE
8
back
10
40.183300
20
40.735800
11
40.183300
21
38.500900
0
LINE
8
back
10
40.183600
20
36.266300
11
40.183600
21
34.031600
0
LINE
8
back
10
40.183600
20
31.797100
11
40.183600
21
29.562600
0
LINE
8
back
10
40.183900
20
27.327600
11
40.183900
21
25.092700
0
LINE
8
back
10
40.183900
20
22.857800
11
40.183900
21
20.622900
0
LINE
8
back
10
40.183900
20
18.388500
11
40.184200
21
16.153600
0
LINE
8
back
10
40.184200
20
13.919000
11
40.184200
21
11.684400
0
LINE
8
back
10
40.184200
20
9.449720
11
40.184500
21
7.215090
0
LINE
8
back
10
40.184500
20
4.980170
11
40.184500
21
2.745540
0
LINE
8
back
10
33.730000
20
54.143500
11
33.730000
21
54.068700
0
LINE
8
back
10
33.730000
20
53.769700
11
33.730000
21
53.694900
0
LINE
8
back
10
33.730000
20
53.395900
11
33.730000
21
53.321000
0
LINE
8
back
10
33.730300
20
53.021900
11
33.730300
21
52.946900
0
LINE
8
back
10
33.730300
20
52.647900
11
33.730300
21
52.573100
0
LINE
8
back
10
33.730300
20
52.274000
11
33.730300
21
52.199000
0
LINE
8
back
10
33.730300
20
51.900000
11
33.730300
21
51.825300
0
LINE
8
back
10
33.730600
20
51.526200
11
33.730600
21
51.451100
0
LINE
8
back
10
33.730600
20
51.152200
11
33.730600
21
51.077300
0
LINE
8
back
10
33.730600
20
50.778100
11
33.730600
21
50.703200
0
LINE
8
back
10
33.730600
20
50.404200
11
33.730600
21
50.329500
0
LINE
8
back
10
33.730600
20
50.030600
11
33.730600
21
49.955500
0
LINE
8
back
10
33.730900
20
49.656300
11
33.730900
21
49.581600
0
LINE
8
back
10
33.730900
20
49.282600
11
33.730900
21
49.208100
0
LINE
8
back
10
33.730900
20
48.908700
11
33.730900
21
48.833800
0
LINE
8
back
10
33.730900
20
48.534400
11
33.730900
21
48.459500
0
LINE
8
back
10
33.731200
20
48.160200
11
33.731200
21
48.085500
0
LINE
8
back
10
33.731200
20
47.786200
11
33.731200
21
47.711400
0
LINE
8
back
10
33.731200
20
47.412100
11
33.731200
21
47.337600
0
LINE
8
back
10
33.731200
20
47.038500
11
33.731200
21
46.963900
0
LINE
8
back
10
33.731200
20
46.664900
11
33.731500
21
46.590100
0
LINE
8
back
10
33.731500
20
46.290700
11
33.731500
21
46.215900
0
LINE
8
back
10
27.277000
20
54.144500
11
27.277100
21
51.905200
0
LINE
8
back
10
27.277200
20
49.666000
11
27.277200
21
47.426400
0
LINE
8
back
10
27.277300
20
45.186700
11
27.277300
21
42.947300
0
LINE
8
back
10
27.277400
20
40.707800
11
27.277500
21
38.468400
0
LINE
8
back
10
27.277500
20
36.229000
11
27.277600
21
33.989300
0
LINE
8
back
10
27.277600
20
31.749700
11
27.277700
21
29.510300
0
LINE
8
back
10
27.277800
20
27.270900
11
27.277800
21
25.031500
0
LINE
8
back
10
27.277900
20
22.791800
11
27.277900
21
20.552300
0
LINE
8
back
10
27.278000
20
18.312600
11
27.278100
21
16.073200
0
LINE
8
back
10
27.278100
20
13.833800
11
27.278200
21
11.594300
0
LINE
8
back
10
27.278300
20
9.354890
11
27.278300
21
7.115180
0
LINE
8
back
10
27.278400
20
4.876030
11
27.278400
21
2.636320
0
LINE
8
back
10
20.824000
20
54.143500
11
20.824100
21
54.068800
0
LINE
8
back
10
20.824100
20
53.769700
11
20.824100
21
53.694900
0
LINE
8
back
10
20.824200
20
53.395900
11
20.824200
21
53.321000
0
LINE
8
back
10
20.824200
20
53.021900
11
20.824300
21
52.946900
0
LINE
8
back
10
20.824300
20
52.647900
11
20.824300
21
52.573100
0
LINE
8
back
10
20.824400
20
52.274000
11
20.824400
21
52.199000
0
LINE
8
back
10
20.824400
20
51.900000
11
20.824400
21
51.825300
0
LINE
8
back
10
20.824500
20
51.526200
11
20.824500
21
51.451100
0
LINE
8
back
10
20.824600
20
51.152200
11
20.824600
21
51.077300
0
LINE
8
back
10
20.824600
20
50.778100
11
20.824600
21
50.703200
0
LINE
8
back
10
20.824700
20
50.404200
11
20.824700
21
50.329500
0
LINE
8
back
10
20.824700
20
50.030600
11
20.824800
21
49.955500
0
LINE
8
back
10
20.824800
20
49.656300
11
20.824800
21
49.581600
0
LINE
8
back
10
20.824900
20
49.282600
11
20.824900
21
49.208100
0
LINE
8
back
10
20.824900
20
48.908700
11
20.825000
21
48.833800
0
LINE
8
back
10
20.825000
20
48.534400
11
20.825000
21
48.459500
0
LINE
8
back
10
20.825100
20
48.160200
11
20.825100
21
48.085500
0
LINE
8
back
10
20.825100
20
47.786200
11
20.825200
21
47.711400
0
LINE
8
back
10
20.825200
20
47.412100
11
20.825200
21
47.337600
0
LINE
8
back
10
20.825300
20
47.038500
11
20.825300
21
46.963900
0
LINE
8
back
10
20.825300
20
46.664900
11
20.825300
21
46.590100
0
LINE
8
back
10
20.825400
20
46.290700
11
20.825400
21
46.215900
0
LINE
8
back
10
14.371000
20
54.144500
11
14.371100
21
51.911100
0
LINE
8
back
10
14.371200
20
49.677600
11
14.371200
21
47.444400
0
LINE
8
back
10
14.371300
20
45.211100
11
14.371300
21
42.977600
0
LINE
8
back
10
14.371400
20
40.744300
11
14.371400
21
38.511100
0
LINE
8
back
10
14.371500
20
36.277900
11
14.371600
21
34.044500
0
LINE
8
back
10
14.371600
20
31.811300
11
14.371700
21
29.577800
0
LINE
8
back
10
14.371800
20
27.344600
11
14.371800
21
25.111300
0
LINE
8
back
10
14.371900
20
22.877800
11
14.371900
21
20.644600
0
LINE
8
back
10
14.372000
20
18.411400
11
14.372100
21
16.178200
0
LINE
8
back
10
14.372100
20
13.945000
11
14.372200
21
11.711700
0
LINE
8
back
10
14.372200
20
9.478790
11
14.372300
21
7.245570
0
LINE
8
back
10
14.372400
20
5.012340
11
14.372400
21
2.779120
0
LINE
8
back
10
46.636100
20
2.306120
11
46.636100
21
2.381190
0
LINE
8
back
10
46.636100
20
2.680060
11
46.636100
21
2.754570
0
LINE
8
back
10
46.636100
20
3.053720
11
46.636100
21
3.128790
0
LINE
8
back
10
46.636100
20
3.427950
11
46.636100
21
3.503020
0
LINE
8
back
10
46.636100
20
3.801890
11
46.636100
21
3.876400
0
LINE
8
back
10
46.636100
20
4.175550
11
46.636100
21
4.250060
0
LINE
8
back
10
46.636100
20
4.549220
11
46.636100
21
4.624010
0
LINE
8
back
10
46.636100
20
4.923160
11
46.636100
21
4.997950
0
LINE
8
back
10
46.636100
20
5.297100
11
46.636100
21
5.371890
0
LINE
8
back
10
46.636100
20
5.671330
11
46.636100
21
5.746400
0
LINE
8
back
10
46.636100
20
6.045560
11
46.636100
21
6.120630
0
LINE
8
back
10
46.636100
20
6.419780
11
46.636100
21
6.494290
0
LINE
8
back
10
46.636100
20
6.793730
11
46.636100
21
6.868230
0
LINE
8
back
10
46.636100
20
7.167110
11
46.636100
21
7.242180
0
LINE
8
back
10
46.636100
20
7.541330
11
46.636100
21
7.615840
0
LINE
8
back
10
46.636100
20
7.915280
11
46.636100
21
7.990350
0
LINE
8
back
10
46.636100
20
8.289220
11
46.636100
21
8.363730
0
LINE
8
back
10
46.636100
20
8.663170
11
46.636100
21
8.737670
0
LINE
8
back
10
46.636100
20
9.036550
11
46.636100
21
9.111620
0
LINE
8
back
10
46.636100
20
9.411050
11
46.636100
21
9.485560
0
LINE
8
back
10
46.636100
20
9.785000
11
46.636100
21
9.859790
0
LINE
8
back
10
46.636100
20
10.158900
11
46.636100
21
10.233700
0
LINE
8
back
10
46.636100
20
10.532900
11
46.636100
21
10.607700
0
LINE
8
back
10
46.636100
20
10.906800
11
46.636100
21
10.981300
0
LINE
8
back
10
46.636100
20
11.280500
11
46.636100
21
11.355300
0
LINE
8
back
10
46.636100
20
11.654700
11
46.636100
21
11.729800
0
LINE
8
back
10
46.636100
20
12.028900
11
46.636100
21
12.103700
0
LINE
8
back
10
46.636100
20
12.402600
11
46.636100
21
12.477400
0
LINE
8
back
10
33.730000
20
2.306120
11
33.730000
21
2.381190
0
LINE
8
back
10
33.730000
20
2.680060
11
33.730000
21
2.754570
0
LINE
8
back
10
33.730000
20
3.053720
11
33.730000
21
3.128790
0
LINE
8
back
10
33.730000
20
3.427950
11
33.730000
21
3.503020
0
LINE
8
back
10
33.730000
20
3.801890
11
33.730000
21
3.876400
0
LINE
8
back
10
33.730000
20
4.175550
11
33.730000
21
4.250060
0
LINE
8
back
10
33.730000
20
4.549220
11
33.730000
21
4.624010
0
LINE
8
back
10
33.730000
20
4.923160
11
33.730000
21
4.997950
0
LINE
8
back
10
33.730000
20
5.297100
11
33.730000
21
5.371890
0
LINE
8
back
10
33.730000
20
5.671330
11
33.730000
21
5.746400
0
LINE
8
back
10
33.730000
20
6.045560
11
33.730000
21
6.120630
0
LINE
8
back
10
33.730000
20
6.419780
11
33.730000
21
6.494290
0
LINE
8
back
10
33.730000
20
6.793730
11
33.730000
21
6.868230
0
LINE
8
back
10
33.730000
20
7.167110
11
33.730000
21
7.242180
0
LINE
8
back
10
33.730000
20
7.541330
11
33.730000
21
7.615840
0
LINE
8
back
10
33.730000
20
7.915280
11
33.730000
21
7.990350
0
LINE
8
back
10
33.730000
20
8.289220
11
33.730000
21
8.363730
0
LINE
8
back
10
33.730000
20
8.663170
11
33.730000
21
8.737670
0
LINE
8
back
10
33.730000
20
9.036550
11
33.730000
21
9.111620
0
LINE
8
back
10
33.730000
20
9.411050
11
33.730000
21
9.485560
0
LINE
8
back
10
33.730000
20
9.785000
11
33.730000
21
9.859790
0
LINE
8
back
10
33.730000
20
10.158900
11
33.730000
21
10.233700
0
LINE
8
back
10
33.730000
20
10.532900
11
33.730000
21
10.607700
0
LINE
8
back
10
33.730000
20
10.906800
11
33.730000
21
10.981300
0
LINE
8
back
10
33.730000
20
11.280500
11
33.730000
21
11.355300
0
LINE
8
back
10
33.730000
20
11.654700
11
33.730000
21
11.729800
0
LINE
8
back
10
33.730000
20
12.028900
11
33.730000
21
12.103700
0
LINE
8
back
10
33.730000
20
12.402600
11
33.730000
21
12.477400
0
LINE
8
back
10
20.824000
20
2.306120
11
20.824000
21
2.381190
0
LINE
8
back
10
20.824000
20
2.680060
11
20.824000
21
2.754570
0
LINE
8
back
10
20.824000
20
3.053720
11
20.824000
21
3.128790
0
LINE
8
back
10
20.824000
20
3.427950
11
20.824000
21
3.503020
0
LINE
8
back
10
20.824000
20
3.801890
11
20.824000
21
3.876400
0
LINE
8
back
10
20.824000
20
4.175550
11
20.824000
21
4.250060
0
LINE
8
back
10
20.824000
20
4.549220
11
20.824000
21
4.624010
0
LINE
8
back
10
20.824000
20
4.923160
11
20.824000
21
4.997950
0
LINE
8
back
10
20.824000
20
5.297100
11
20.824000
21
5.371890
0
LINE
8
back
10
20.824000
20
5.671330
11
20.824000
21
5.746400
0
LINE
8
back
10
20.824000
20
6.045560
11
20.824000
21
6.120630
0
LINE
8
back
10
20.824000
20
6.419780
11
20.824000
21
6.494290
0
LINE
8
back
10
20.824000
20
6.793730
11
20.824000
21
6.868230
0
LINE
8
back
10
20.824000
20
7.167110
11
20.824000
21
7.242180
0
LINE
8
back
10
20.824000
20
7.541330
11
20.824000
21
7.615840
0
LINE
8
back
10
20.824000
20
7.915280
11
20.824000
21
7.990350
0
LINE
8
back
10
20.824000
20
8.289220
11
20.824000
21
8.363730
0
LINE
8
back
10
20.824000
20
8.663170
11
20.824000
21
8.737670
0
LINE
8
back
10
20.824000
20
9.036550
11
20.824000
21
9.111620
0
LINE
8
back
10
20.824000
20
9.411050
11
20.824000
21
9.485560
0
LINE
8
back
10
20.824000
20
9.785000
11
20.824000
21
9.859790
0
LINE
8
back
10
20.824000
20
10.158900
11
20.824000
21
10.233700
0
LINE
8
back
10
20.824000
20
10.532900
11
20.824000
21
10.607700
0
LINE
8
back
10
20.824000
20
10.906800
11
20.824000
21
10.981300
0
LINE
8
back
10
20.824000
20
11.280500
11
20.824000
21
11.355300
0
LINE
8
back
10
20.824000
20
11.654700
11
20.824000
21
11.729800
0
LINE
8
back
10
20.824000
20
12.028900
11
20.824000
21
12.103700
0
LINE
8
back
10
20.824000
20
12.402600
11
20.824000
21
12.477400
0
LINE
8
back
10
43.048200
20
45.932500
11
43.010571
21
45.894873
0
LINE
8
back
10
43.010571
20
45.894873
11
43.010600
21
12.474800
0
LINE
8
back
10
43.010600
20
12.474800
11
43.048229
21
12.437174
0
LINE
8
back
10
43.048229
20
12.437174
11
46.599800
21
12.437200
0
LINE
8
back
10
46.599800
20
12.437200
11
46.637426
21
12.474826
0
LINE
8
back
10
46.637426
20
12.474826
11
46.675198
21
12.437200
0
LINE
8
back
10
46.675198
20
12.437200
11
50.226700
21
12.437200
0
LINE
8
back
10
50.226700
20
12.437200
11
50.264326
21
12.474826
0
LINE
8
back
10
50.264326
20
12.474826
11
50.264300
21
45.894900
0
LINE
8
back
10
50.264300
20
45.894900
11
50.226674
21
45.932527
0
LINE
8
back
10
50.226674
20
45.932527
11
46.675200
21
45.932500
0
LINE
8
back
10
46.675200
20
45.932500
11
46.637427
21
45.894873
0
LINE
8
back
10
46.637427
20
45.894873
11
46.599802
21
45.932500
0
LINE
8
back
10
46.599802
20
45.932500
11
43.048200
21
45.932500
0
LINE
8
back
10
30.142200
20
45.932500
11
30.104571
21
45.894873
0
LINE
8
back
10
30.104571
20
45.894873
11
30.104600
21
12.474800
0
LINE
8
back
10
30.104600
20
12.474800
11
30.142229
21
12.437174
0
LINE
8
back
10
30.142229
20
12.437174
11
33.693700
21
12.437200
0
LINE
8
back
10
33.693700
20
12.437200
11
33.731326
21
12.474826
0
LINE
8
back
10
33.731326
20
12.474826
11
33.769101
21
12.437200
0
LINE
8
back
10
33.769101
20
12.437200
11
37.320700
21
12.437200
0
LINE
8
back
10
37.320700
20
12.437200
11
37.358329
21
12.474826
0
LINE
8
back
10
37.358329
20
12.474826
11
37.358300
21
45.894900
0
LINE
8
back
10
37.358300
20
45.894900
11
37.320671
21
45.932527
0
LINE
8
back
10
37.320671
20
45.932527
11
33.769100
21
45.932500
0
LINE
8
back
10
33.769100
20
45.932500
11
33.731325
21
45.894873
0
LINE
8
back
10
33.731325
20
45.894873
11
33.693699
21
45.932500
0
LINE
8
back
10
33.693699
20
45.932500
11
30.142200
21
45.932500
0
LINE
8
back
10
17.236200
20
45.932500
11
17.198573
21
45.894873
0
LINE
8
back
10
17.198573
20
45.894873
11
17.198600
21
12.474800
0
LINE
8
back
10
17.198600
20
12.474800
11
17.236227
21
12.437174
0
LINE
8
back
10
17.236227
20
12.437174
11
20.787800
21
12.437200
0
LINE
8
back
10
20.787800
20
12.437200
11
20.825427
21
12.474826
0
LINE
8
back
10
20.825427
20
12.474826
11
20.863201
21
12.437200
0
LINE
8
back
10
20.863201
20
12.437200
11
24.414700
21
12.437200
0
LINE
8
back
10
24.414700
20
12.437200
11
24.452326
21
12.474826
0
LINE
8
back
10
24.452326
20
12.474826
11
24.452300
21
45.894900
0
LINE
8
back
10
24.452300
20
45.894900
11
24.414674
21
45.932527
0
LINE
8
back
10
24.414674
20
45.932527
11
20.863200
21
45.932500
0
LINE
8
back
10
20.863200
20
45.932500
11
20.825427
21
45.894873
0
LINE
8
back
10
20.825427
20
45.894873
11
20.787799
21
45.932500
0
LINE
8
back
10
20.787799
20
45.932500
11
17.236200
21
45.932500
0
LINE
8
back
10
5.768190
20
51.686100
11
3.880440
21
51.686100
0
LINE
8
back
10
7.918020
20
51.686100
11
7.095190
21
51.686100
0
LINE
8
back
10
3.955870
20
6.639180
11
3.955870
21
8.175770
0
LINE
8
back
10
5.799570
20
4.366510
11
3.955870
21
4.366510
0
LINE
8
back
10
3.955870
20
4.366510
11
3.955870
21
6.210540
0
LINE
8
back
10
7.918020
20
47.952200
11
7.043860
21
47.952200
0
LINE
8
back
10
6.083790
20
7.935880
11
3.880440
21
7.935880
0
LINE
8
back
10
7.918020
20
7.935880
11
7.145359
21
7.935877
0
LINE
8
back
10
3.955870
20
-36.721700
11
3.955870
21
-35.574500
0
LINE
8
back
10
6.078120
20
-39.383700
11
3.955870
21
-39.383697
0
LINE
8
back
10
3.955870
20
-39.383697
11
3.955870
21
-37.301400
0
LINE
8
back
10
7.918020
20
4.202030
11
7.204430
21
4.202027
0
LINE
8
back
10
46.636000
20
54.143500
11
53.089010
21
54.143500
0
LINE
8
back
10
70.468300
20
-39.568400
11
69.226459
21
-40.325392
0
LINE
8
back
10
69.226459
20
-40.325392
11
67.889906
21
-40.876260
0
LINE
8
back
10
67.889906
20
-40.876260
11
66.483999
21
-41.212798
0
LINE
8
back
10
66.483999
20
-41.212798
11
65.034100
21
-41.326800
0
LINE
8
back
10
65.034100
20
-41.326800
11
63.164633
21
-41.138348
0
LINE
8
back
10
63.164633
20
-41.138348
11
61.423403
21
-40.597848
0
LINE
8
back
10
61.423403
20
-40.597848
11
59.847713
21
-39.742601
0
LINE
8
back
10
59.847713
20
-39.742601
11
58.474863
21
-38.609908
0
LINE
8
back
10
58.474863
20
-38.609908
11
57.342155
21
-37.237070
0
LINE
8
back
10
57.342155
20
-37.237070
11
56.486891
21
-35.661389
0
LINE
8
back
10
56.486891
20
-35.661389
11
55.946372
21
-33.920165
0
LINE
8
back
10
55.946372
20
-33.920165
11
55.757900
21
-32.050700
0
LINE
8
back
10
55.757900
20
-32.050700
11
56.004122
21
-29.927256
0
LINE
8
back
10
56.004122
20
-29.927256
11
56.717935
21
-27.941078
0
LINE
8
back
10
56.717935
20
-27.941078
11
57.862081
21
-26.167561
0
LINE
8
back
10
57.862081
20
-26.167561
11
59.399300
21
-24.682100
0
LINE
8
back
10
71.439300
20
-25.340900
11
72.661431
21
-26.771258
0
LINE
8
back
10
72.661431
20
-26.771258
11
73.562378
21
-28.401567
0
LINE
8
back
10
73.562378
20
-28.401567
11
74.119528
21
-30.178980
0
LINE
8
back
10
74.119528
20
-30.178980
11
74.310270
21
-32.050650
0
LINE
8
back
10
74.310270
20
-32.050650
11
74.310200
21
-32.050700
0
LINE
8
back
10
74.310200
20
-32.050700
11
74.104517
21
-33.993538
0
LINE
8
back
10
74.104517
20
-33.993538
11
73.504945
21
-35.831031
0
LINE
8
back
10
73.504945
20
-35.831031
11
72.537699
21
-37.504442
0
LINE
8
back
10
72.537699
20
-37.504442
11
71.228990
21
-38.955030
0
LINE
8
back
10
60.355400
20
-24.040900
11
61.454198
21
-23.493157
0
LINE
8
back
10
61.454198
20
-23.493157
11
62.610589
21
-23.096717
0
LINE
8
back
10
62.610589
20
-23.096717
11
63.809067
21
-22.855775
0
LINE
8
back
10
63.809067
20
-22.855775
11
65.034130
21
-22.774530
0
LINE
8
back
10
65.034130
20
-22.774530
11
66.468808
21
-22.886139
0
LINE
8
back
10
66.468808
20
-22.886139
11
67.860858
21
-23.215717
0
LINE
8
back
10
67.860858
20
-23.215717
11
69.185687
21
-23.755397
0
LINE
8
back
10
69.185687
20
-23.755397
11
70.418700
21
-24.497310
0
LINE
8
back
10
64.435400
20
18.250100
11
64.394560
21
18.209263
0
LINE
8
back
10
64.394560
20
18.209263
11
64.394600
21
12.320700
0
LINE
8
back
10
64.394600
20
12.320700
11
64.353621
21
12.361535
0
LINE
8
back
10
64.353621
20
12.361535
11
57.520200
21
12.361600
0
LINE
8
back
10
57.520200
20
12.361600
11
57.479219
21
12.320765
0
LINE
8
back
10
57.479219
20
12.320765
11
57.479200
21
11.838000
0
LINE
8
back
10
57.479200
20
11.838000
11
57.520181
21
11.797162
0
LINE
8
back
10
57.520181
20
11.797162
11
57.479200
21
11.756181
0
LINE
8
back
10
57.479200
20
11.756181
11
57.479200
21
11.273600
0
LINE
8
back
10
57.479200
20
11.273600
11
57.520181
21
11.232619
0
LINE
8
back
10
57.520181
20
11.232619
11
64.353600
21
11.232600
0
LINE
8
back
10
64.353600
20
11.232600
11
64.394579
21
11.273581
0
LINE
8
back
10
64.394579
20
11.273581
11
64.394600
21
4.922750
0
LINE
8
back
10
64.394600
20
4.922750
11
64.435440
21
4.881768
0
LINE
8
back
10
64.435440
20
4.881768
11
64.918200
21
4.881770
0
LINE
8
back
10
64.918200
20
4.881770
11
64.959037
21
4.922752
0
LINE
8
back
10
64.959037
20
4.922752
11
64.999869
21
4.881770
0
LINE
8
back
10
64.999869
20
4.881770
11
65.482600
21
4.881770
0
LINE
8
back
10
65.482600
20
4.881770
11
65.523438
21
4.922752
0
LINE
8
back
10
65.523438
20
4.922752
11
65.523400
21
11.232600
0
LINE
8
back
10
65.523400
20
11.232600
11
71.833400
21
11.232600
0
LINE
8
back
10
71.833400
20
11.232600
11
71.874379
21
11.273581
0
LINE
8
back
10
71.874379
20
11.273581
11
71.874400
21
11.756200
0
LINE
8
back
10
71.874400
20
11.756200
11
71.833421
21
11.797181
0
LINE
8
back
10
71.833421
20
11.797181
11
71.874400
21
11.838019
0
LINE
8
back
10
71.874400
20
11.838019
11
71.874400
21
12.320700
0
LINE
8
back
10
71.874400
20
12.320700
11
71.833421
21
12.361535
0
LINE
8
back
10
71.833421
20
12.361535
11
65.523400
21
12.361600
0
LINE
8
back
10
65.523400
20
12.361600
11
65.523400
21
18.209300
0
LINE
8
back
10
65.523400
20
18.209300
11
65.482563
21
18.250137
0
LINE
8
back
10
65.482563
20
18.250137
11
64.999800
21
18.250100
0
LINE
8
back
10
64.999800
20
18.250100
11
64.958968
21
18.209263
0
LINE
8
back
10
64.958968
20
18.209263
11
64.918131
21
18.250100
0
LINE
8
back
10
64.918131
20
18.250100
11
64.435400
21
18.250100
0
LINE
8
back
10
64.394560
20
11.838000
11
64.394600
21
11.756200
0
LINE
8
back
10
64.394600
20
11.756200
11
64.353621
21
11.797181
0
LINE
8
back
10
64.353621
20
11.797181
11
64.394600
21
11.838019
0
LINE
8
back
10
64.394600
20
11.838019
11
64.394560
21
11.838000
0
LINE
8
back
10
7.842590
20
45.953300
11
11.469500
21
45.953300
0
LINE
8
back
10
11.469500
20
45.953300
11
11.469500
21
12.458000
0
LINE
8
back
10
11.469500
20
12.458000
11
7.842590
21
12.458000
0
LINE
8
back
10
7.144860
20
51.639600
11
6.431720
21
51.980200
0
LINE
8
back
10
6.431720
20
51.980200
11
5.718590
21
51.639600
0
LINE
8
back
10
7.352290
20
7.938240
11
6.641277
21
8.346305
0
LINE
8
back
10
6.641277
20
8.346305
11
5.930264
21
7.938240
0
LINE
8
back
10
7.350970
20
4.196940
11
6.641278
21
3.743728
0
LINE
8
back
10
6.641278
20
3.743728
11
5.931586
21
4.196940
0
LINE
8
back
10
7.133420
20
48.039100
11
6.421720
21
47.653557
0
LINE
8
back
10
6.421720
20
47.653557
11
5.710020
21
48.039100
0
LINE
8
back
10
22.874700
20
51.776800
11
25.078100
21
51.776800
0
LINE
8
back
10
21.040500
20
51.776800
11
21.813157
21
51.776797
0
LINE
8
back
10
22.880400
20
48.042900
11
25.002640
21
48.042903
0
LINE
8
back
10
25.002640
20
48.042903
11
25.002700
21
51.852200
0
LINE
8
back
10
21.040500
20
48.042900
11
21.754086
21
48.042897
0
LINE
8
back
10
21.606900
20
51.779600
11
22.317240
21
52.210223
0
LINE
8
back
10
22.317240
20
52.210223
11
23.027580
21
51.779600
0
LINE
8
back
10
21.605600
20
48.039300
11
22.317296
21
47.653757
0
LINE
8
back
10
22.317296
20
47.653757
11
23.028992
21
48.039300
0
LINE
8
back
10
29.516200
20
54.143500
11
31.007000
21
54.143500
0
LINE
8
images
10
77.498600
20
-8.434920
11
77.498900
21
-10.703300
0
LINE
8
images
10
77.498600
20
-3.897390
11
77.498600
21
-6.166210
0
LINE
8
images
10
73.362200
20
39.717600
11
73.362228
21
39.642839
0
LINE
8
images
10
73.362285
20
39.343740
11
73.362285
21
39.268952
0
LINE
8
images
10
73.362341
20
38.970023
11
73.362341
21
38.895121
0
LINE
8
images
10
73.362398
20
38.595994
11
73.362426
21
38.520979
0
LINE
8
images
10
73.362454
20
38.221965
11
73.362482
21
38.147177
0
LINE
8
images
10
73.362539
20
37.848078
11
73.362539
21
37.773063
0
LINE
8
images
10
73.362595
20
37.474049
11
73.362595
21
37.399373
0
LINE
8
images
10
73.362652
20
37.100274
11
73.362680
21
37.025203
0
LINE
8
images
10
73.362736
20
36.726301
11
73.362736
21
36.651343
0
LINE
8
images
10
73.362793
20
36.352131
11
73.362793
21
36.277314
0
LINE
8
images
10
73.362849
20
35.978272
11
73.362877
21
35.903624
0
LINE
8
images
10
73.362906
20
35.604638
11
73.362934
21
35.529567
0
LINE
8
images
10
73.362990
20
35.230411
11
73.362990
21
35.155679
0
LINE
8
images
10
73.363047
20
34.856665
11
73.363047
21
34.782130
0
LINE
8
images
10
73.363103
20
34.482777
11
73.363131
21
34.407875
0
LINE
8
images
10
73.363188
20
34.108466
11
73.363188
21
34.033593
0
LINE
8
images
10
73.363244
20
33.734297
11
73.363244
21
33.659593
0
LINE
8
images
10
73.363301
20
33.360296
11
73.363329
21
33.285507
0
LINE
8
images
10
73.363357
20
32.986182
11
73.363385
21
32.911647
0
LINE
8
images
10
73.363442
20
32.612605
11
73.363442
21
32.538014
0
LINE
8
images
10
73.363498
20
32.239000
11
73.363498
21
32.164211
0
LINE
8
images
10
73.363555
20
31.864802
11
73.363583
21
31.789985
 0 
ENDSEC
 0 
EOF