  0
SECTION
  2
HEADER
  9
$ACADVER
  1
AC1014
  9
$HANDSEED
  5
FFFF
  9
$MEASUREMENT
 70
     1
  0
ENDSEC
  0
SECTION
  2
TABLES
  0
TABLE
  2
VPORT
  5
8
330
0
100
AcDbSymbolTable
 70
     4
  0
VPORT
  5
2E
330
8
100
AcDbSymbolTableRecord
100
AcDbViewportTableRecord
  2
*ACTIVE
 70
     0
 10
0.0
 20
0.0
 11
1.0
 21
1.0
 12
210.0
 22
148.5
 13
0.0
 23
0.0
 14
10.0
 24
10.0
 15
10.0
 25
10.0
 16
0.0
 26
0.0
 36
1.0
 17
0.0
 27
0.0
 37
0.0
 40
341.0
 41
1.24
 42
50.0
 43
0.0
 44
0.0
 50
0.0
 51
0.0
 71
     0
 72
   100
 73
     1
 74
     3
 75
     0
 76
     0
 77
     0
 78
     0
  0
ENDTAB
  0
TABLE
  2
LTYPE
  5
5
330
0
100
AcDbSymbolTable
 70
     1
  0
LTYPE
  5
14
330
5
100
AcDbSymbolTableRecord
100
AcDbLinetypeTableRecord
  2
BYBLOCK
 70
     0
  3

 72
    65
 73
     0
 40
0.0
  0
LTYPE
  5
15
330
5
100
AcDbSymbolTableRecord
100
AcDbLinetypeTableRecord
  2
BYLAYER
 70
     0
  3

 72
    65
 73
     0
 40
0.0
  0
LTYPE
  5
16
330
5
100
AcDbSymbolTableRecord
100
AcDbLinetypeTableRecord
  2
CONTINUOUS
 70
     0
  3
Solid line
 72
    65
 73
     0
 40
0.0
  0
ENDTAB
  0
TABLE
  2
LAYER
  5
2
100
AcDbSymbolTable
 70
2
  0
LAYER
  5
50
100
AcDbSymbolTableRecord
100
AcDbLayerTableRecord
  2
0
 70
0
  6
CONTINUOUS
  0
LAYER
  5
51
100
AcDbSymbolTableRecord
100
AcDbLayerTableRecord
  2
Layer_2
 70
0
  6
CONTINUOUS
  0
ENDTAB
  0
TABLE
  2
STYLE
  5
3
330
0
100
AcDbSymbolTable
 70
     1
  0
STYLE
  5
11
330
3
100
AcDbSymbolTableRecord
100
AcDbTextStyleTableRecord
  2
STANDARD
 70
     0
 40
0.0
 41
1.0
 50
0.0
 71
     0
 42
2.5
  3
txt
  4

  0
ENDTAB
  0
TABLE
  2
VIEW
  5
6
330
0
100
AcDbSymbolTable
 70
     0
  0
ENDTAB
  0
TABLE
  2
UCS
  5
7
330
0
100
AcDbSymbolTable
 70
     0
  0
ENDTAB
  0
TABLE
  2
APPID
  5
9
330
0
100
AcDbSymbolTable
 70
     2
  0
APPID
  5
12
330
9
100
AcDbSymbolTableRecord
100
AcDbRegAppTableRecord
  2
ACAD
 70
     0
  0
ENDTAB
  0
TABLE
  2
DIMSTYLE
  5
A
330
0
100
AcDbSymbolTable
 70
     1
  0
DIMSTYLE
105
27
330
A
100
AcDbSymbolTableRecord
100
AcDbDimStyleTableRecord
  2
ISO-25
 70
     0
  3

  4

  5

  6

  7

 40
1.0
 41
2.5
 42
0.625
 43
3.75
 44
1.25
 45
0.0
 46
0.0
 47
0.0
 48
0.0
140
2.5
141
2.5
142
0.0
143
0.03937007874016
144
1.0
145
0.0
146
1.0
147
0.625
 71
     0
 72
     0
 73
     0
 74
     0
 75
     0
 76
     0
 77
     1
 78
     8
170
     0
171
     3
172
     1
173
     0
174
     0
175
     0
176
     0
177
     0
178
     0
270
     2
271
     2
272
     2
273
     2
274
     3
340
11
275
     0
280
     0
281
     0
282
     0
283
     0
284
     8
285
     0
286
     0
287
     3
288
     0
  0
ENDTAB
  0
TABLE
  2
BLOCK_RECORD
  5
1
330
0
100
AcDbSymbolTable
 70
     1
  0
BLOCK_RECORD
  5
1F
330
1
100
AcDbSymbolTableRecord
100
AcDbBlockTableRecord
  2
*MODEL_SPACE
  0
BLOCK_RECORD
  5
1B
330
1
100
AcDbSymbolTableRecord
100
AcDbBlockTableRecord
  2
*PAPER_SPACE
  0
ENDTAB
  0
ENDSEC
  0
SECTION
  2
BLOCKS
  0
BLOCK
  5
20
330
1F
100
AcDbEntity
  8
0
100
AcDbBlockBegin
  2
*MODEL_SPACE
 70
     0
 10
0.0
 20
0.0
 30
0.0
  3
*MODEL_SPACE
  1

  0
ENDBLK
  5
21
330
1F
100
AcDbEntity
  8
0
100
AcDbBlockEnd
  0
BLOCK
  5
1C
330
1B
100
AcDbEntity
 67
     1
  8
0
100
AcDbBlockBegin
  2
*PAPER_SPACE
  1

  0
ENDBLK
  5
1D
330
1B
100
AcDbEntity
 67
     1
  8
0
100
AcDbBlockEnd
  0
ENDSEC
  0
SECTION
  2
ENTITIES
  0
LWPOLYLINE
  5
100
100
AcDbEntity
  8
Layer_2
 62
7
100
AcDbPolyline
 90
3
 70
0
 10
27.508689
 20
145.516466
 30
0.0
 10
27.508689
 20
133.011508
 30
0.0
 10
32.615677
 20
132.935819
 30
0.0
  0
LWPOLYLINE
  5
101
100
AcDbEntity
  8
Layer_2
 62
7
100
AcDbPolyline
 90
2
 70
0
 10
32.615677
 20
145.468742
 30
0.0
 10
32.615677
 20
132.935819
 30
0.0
  0
LWPOLYLINE
  5
102
100
AcDbEntity
  8
Layer_2
 62
7
100
AcDbPolyline
 90
3
 70
0
 10
35.639628
 20
145.440777
 30
0.0
 10
35.639628
 20
132.935819
 30
0.0
 10
40.746615
 20
132.860130
 30
0.0
  0
SPLINE
  5
103
100
AcDbEntity
  8
Layer_2
 62
7
100
AcDbSpline
 70
0
 71
3
 72
10
 73
6
 74
4
 40
0.000000
 40
0.000000
 40
0.000000
 40
0.000000
 40
3.118913
 40
5.570957
 40
8.610193
 40
8.610193
 40
8.610193
 40
8.610193
 10
27.508689
 20
145.516466
 30
0.0
 10
27.762205
 20
146.671183
 30
0.0
 10
28.215031
 20
148.733721
 30
0.0
 10
32.012908
 20
148.610220
 30
0.0
 10
32.400924
 20
146.587987
 30
0.0
 10
32.615677
 20
145.468749
 30
0.0
 11
27.508689
 21
145.516466
 31
0.0
 11
28.897507
 21
148.309099
 31
0.0
 11
31.348311
 21
148.231129
 31
0.0
 11
32.615677
 21
145.468749
 31
0.0
  0
LWPOLYLINE
  5
104
100
AcDbEntity
  8
Layer_2
 62
7
100
AcDbPolyline
 90
2
 70
0
 10
40.746615
 20
145.393053
 30
0.0
 10
40.746615
 20
132.860130
 30
0.0
  0
LWPOLYLINE
  5
105
100
AcDbEntity
  8
Layer_2
 62
7
100
AcDbPolyline
 90
3
 70
0
 10
36.206199
 20
205.149345
 30
0.0
 10
36.206199
 20
193.968482
 30
0.0
 10
41.313187
 20
193.900807
 30
0.0
  0
SPLINE
  5
106
100
AcDbEntity
  8
Layer_2
 62
7
100
AcDbSpline
 70
0
 71
3
 72
10
 73
6
 74
4
 40
0.000000
 40
0.000000
 40
0.000000
 40
0.000000
 40
3.118913
 40
5.570957
 40
8.610193
 40
8.610193
 40
8.610193
 40
8.610193
 10
35.639628
 20
145.440777
 30
0.0
 10
35.893143
 20
146.595493
 30
0.0
 10
36.345969
 20
148.658032
 30
0.0
 10
40.143847
 20
148.534531
 30
0.0
 10
40.531862
 20
146.512297
 30
0.0
 10
40.746615
 20
145.393060
 30
0.0
 11
35.639628
 21
145.440777
 31
0.0
 11
37.028446
 21
148.233410
 31
0.0
 11
39.479249
 21
148.155440
 31
0.0
 11
40.746615
 21
145.393060
 31
0.0
  0
LWPOLYLINE
  5
107
100
AcDbEntity
  8
Layer_2
 62
7
100
AcDbPolyline
 90
2
 70
0
 10
41.313187
 20
205.106674
 30
0.0
 10
41.313187
 20
193.900807
 30
0.0
  0
LWPOLYLINE
  5
108
100
AcDbEntity
  8
Layer_2
 62
7
100
AcDbPolyline
 90
3
 70
0
 10
34.444362
 20
120.296100
 30
0.0
 10
34.444362
 20
97.623360
 30
0.0
 10
46.062949
 20
97.486128
 30
0.0
  0
SPLINE
  5
109
100
AcDbEntity
  8
Layer_2
 62
7
100
AcDbSpline
 70
0
 71
3
 72
10
 73
6
 74
4
 40
0.000000
 40
0.000000
 40
0.000000
 40
0.000000
 40
2.857183
 40
5.308978
 40
8.085043
 40
8.085043
 40
8.085043
 40
8.085043
 10
36.206199
 20
205.149345
 30
0.0
 10
36.495497
 20
206.171426
 30
0.0
 10
37.033045
 20
208.070572
 30
0.0
 10
40.590680
 20
207.969371
 30
0.0
 10
41.062594
 20
206.099570
 30
0.0
 10
41.313187
 20
205.106681
 30
0.0
 11
36.206199
 21
205.149345
 31
0.0
 11
37.595017
 21
207.646278
 31
0.0
 11
40.045821
 21
207.576564
 31
0.0
 11
41.313187
 21
205.106681
 31
0.0
  0
LWPOLYLINE
  5
10a
100
AcDbEntity
  8
Layer_2
 62
7
100
AcDbPolyline
 90
2
 70
0
 10
46.062949
 20
120.209572
 30
0.0
 10
46.062949
 20
97.486128
 30
0.0
  0
LWPOLYLINE
  5
10b
100
AcDbEntity
  8
Layer_2
 62
7
100
AcDbPolyline
 90
3
 70
0
 10
19.324562
 20
120.296100
 30
0.0
 10
19.324562
 20
97.623360
 30
0.0
 10
30.943149
 20
97.486128
 30
0.0
  0
SPLINE
  5
10c
100
AcDbEntity
  8
Layer_2
 62
7
100
AcDbSpline
 70
0
 71
3
 72
10
 73
6
 74
4
 40
0.000000
 40
0.000000
 40
0.000000
 40
0.000000
 40
5.968283
 40
11.545745
 40
17.324864
 40
17.324864
 40
17.324864
 40
17.324864
 10
34.444362
 20
120.296100
 30
0.0
 10
35.173290
 20
122.348535
 30
0.0
 10
36.583415
 20
126.319006
 30
0.0
 10
44.162333
 20
126.133541
 30
0.0
 10
45.421955
 20
122.207475
 30
0.0
 10
46.062949
 20
120.209585
 30
0.0
 11
34.444362
 21
120.296100
 31
0.0
 11
37.603975
 21
125.359424
 31
0.0
 11
43.179644
 21
125.218055
 31
0.0
 11
46.062949
 21
120.209585
 31
0.0
  0
LWPOLYLINE
  5
10d
100
AcDbEntity
  8
Layer_2
 62
7
100
AcDbPolyline
 90
2
 70
0
 10
30.943149
 20
120.209572
 30
0.0
 10
30.943149
 20
97.486128
 30
0.0
  0
LWPOLYLINE
  5
10e
100
AcDbEntity
  8
Layer_2
 62
5
100
AcDbPolyline
 90
2
 70
0
 10
16.116353
 20
91.940537
 30
0.0
 10
72.673663
 20
92.345477
 30
0.0
  0
LWPOLYLINE
  5
10f
100
AcDbEntity
  8
Layer_2
 62
7
100
AcDbPolyline
 90
3
 70
0
 10
15.975074
 20
181.941414
 30
0.0
 10
16.109346
 20
92.193857
 30
0.0
 10
16.115946
 20
92.193907
 30
0.0
  0
LWPOLYLINE
  5
110
100
AcDbEntity
  8
Layer_2
 62
7
100
AcDbPolyline
 90
3
 70
0
 10
29.339465
 20
221.305812
 30
0.0
 10
15.974712
 20
188.366424
 30
0.0
 10
15.974712
 20
188.366424
 30
0.0
  0
LWPOLYLINE
  5
111
100
AcDbEntity
  8
Layer_2
 62
7
100
AcDbPolyline
 90
3
 70
0
 10
55.159979
 20
165.898876
 30
0.0
 10
55.159979
 20
158.078380
 30
0.0
 10
58.733383
 20
158.056473
 30
0.0
  0
SPLINE
  5
112
100
AcDbEntity
  8
Layer_2
 62
7
100
AcDbSpline
 70
0
 71
3
 72
10
 73
6
 74
4
 40
0.000000
 40
0.000000
 40
0.000000
 40
0.000000
 40
5.968283
 40
11.545745
 40
17.324864
 40
17.324864
 40
17.324864
 40
17.324864
 10
19.324562
 20
120.296100
 30
0.0
 10
20.053491
 20
122.348535
 30
0.0
 10
21.463615
 20
126.319006
 30
0.0
 10
29.042533
 20
126.133541
 30
0.0
 10
30.302155
 20
122.207475
 30
0.0
 10
30.943149
 20
120.209585
 30
0.0
 11
19.324562
 21
120.296100
 31
0.0
 11
22.484175
 21
125.359424
 31
0.0
 11
28.059845
 21
125.218055
 31
0.0
 11
30.943149
 21
120.209585
 31
0.0
  0
SPLINE
  5
113
100
AcDbEntity
  8
Layer_2
 62
7
100
AcDbSpline
 70
0
 71
3
 72
10
 73
6
 74
4
 40
0.000000
 40
0.000000
 40
0.000000
 40
0.000000
 40
1.813325
 40
3.295275
 40
4.517724
 40
4.517724
 40
4.517724
 40
4.517724
 10
61.413019
 20
170.248552
 30
0.0
 10
61.998132
 20
170.133179
 30
0.0
 10
63.061432
 20
169.923518
 30
0.0
 10
64.531520
 20
169.191761
 30
0.0
 10
64.761372
 20
168.280748
 30
0.0
 10
64.865271
 20
167.868950
 30
0.0
 11
61.413019
 21
170.248552
 31
0.0
 11
63.171083
 21
169.804297
 31
0.0
 11
64.420730
 21
169.007706
 31
0.0
 11
64.865271
 21
167.868950
 31
0.0
  0
LWPOLYLINE
  5
114
100
AcDbEntity
  8
Layer_2
 62
7
100
AcDbPolyline
 90
2
 70
0
 10
64.865271
 20
165.896447
 30
0.0
 10
64.865271
 20
158.018897
 30
0.0
  0
LWPOLYLINE
  5
115
100
AcDbEntity
  8
Layer_2
 62
7
100
AcDbPolyline
 90
3
 70
0
 10
69.120461
 20
120.209600
 30
0.0
 10
69.120461
 20
97.536860
 30
0.0
 10
80.739048
 20
97.399628
 30
0.0
  0
SPLINE
  5
116
100
AcDbEntity
  8
Layer_2
 62
7
100
AcDbSpline
 70
0
 71
3
 72
10
 73
6
 74
4
 40
0.000000
 40
0.000000
 40
0.000000
 40
0.000000
 40
1.262005
 40
2.732399
 40
4.485395
 40
4.485395
 40
4.485395
 40
4.485395
 10
55.159979
 20
167.906447
 30
0.0
 10
55.294715
 20
168.320675
 30
0.0
 10
55.586437
 20
169.217533
 30
0.0
 10
57.022906
 20
169.945320
 30
0.0
 10
58.067880
 20
170.146365
 30
0.0
 10
58.636175
 20
170.255701
 30
0.0
 11
55.159979
 21
167.906447
 31
0.0
 11
55.688628
 21
169.052390
 31
0.0
 11
56.935038
 21
169.832468
 31
0.0
 11
58.636175
 21
170.255701
 31
0.0
  0
LWPOLYLINE
  5
117
100
AcDbEntity
  8
Layer_2
 62
7
100
AcDbPolyline
 90
2
 70
0
 10
80.739048
 20
120.123072
 30
0.0
 10
80.739048
 20
97.399628
 30
0.0
  0
LWPOLYLINE
  5
118
100
AcDbEntity
  8
Layer_2
 62
7
100
AcDbPolyline
 90
3
 70
0
 10
51.732811
 20
120.209600
 30
0.0
 10
51.732811
 20
97.536860
 30
0.0
 10
63.351398
 20
97.399628
 30
0.0
  0
SPLINE
  5
119
100
AcDbEntity
  8
Layer_2
 62
7
100
AcDbSpline
 70
0
 71
3
 72
10
 73
6
 74
4
 40
0.000000
 40
0.000000
 40
0.000000
 40
0.000000
 40
5.968283
 40
11.545745
 40
17.324864
 40
17.324864
 40
17.324864
 40
17.324864
 10
69.120461
 20
120.209600
 30
0.0
 10
69.849389
 20
122.262035
 30
0.0
 10
71.259514
 20
126.232506
 30
0.0
 10
78.838432
 20
126.047041
 30
0.0
 10
80.098053
 20
122.120975
 30
0.0
 10
80.739048
 20
120.123085
 30
0.0
 11
69.120461
 21
120.209600
 31
0.0
 11
72.280073
 21
125.272924
 31
0.0
 11
77.855743
 21
125.131555
 31
0.0
 11
80.739048
 21
120.123085
 31
0.0
  0
LWPOLYLINE
  5
11a
100
AcDbEntity
  8
Layer_2
 62
7
100
AcDbPolyline
 90
2
 70
0
 10
63.351398
 20
120.123072
 30
0.0
 10
63.351398
 20
97.399628
 30
0.0
  0
LWPOLYLINE
  5
11b
100
AcDbEntity
  8
Layer_2
 62
7
100
AcDbPolyline
 90
2
 70
0
 10
60.139016
 20
132.803315
 30
0.0
 10
62.948682
 20
132.773698
 30
0.0
  0
LWPOLYLINE
  5
11c
100
AcDbEntity
  8
Layer_2
 62
7
100
AcDbPolyline
 90
3
 70
0
 10
55.765102
 20
137.973540
 30
0.0
 10
55.765102
 20
132.849400
 30
0.0
 10
58.587164
 20
132.819666
 30
0.0
  0
LWPOLYLINE
  5
11d
100
AcDbEntity
  8
Layer_2
 62
7
100
AcDbPolyline
 90
2
 70
0
 10
55.765102
 20
144.125502
 30
0.0
 10
55.765102
 20
139.771850
 30
0.0
  0
LWPOLYLINE
  5
11e
100
AcDbEntity
  8
Layer_2
 62
7
100
AcDbPolyline
 90
2
 70
0
 10
62.948682
 20
138.000414
 30
0.0
 10
62.948682
 20
132.773721
 30
0.0
  0
SPLINE
  5
11f
100
AcDbEntity
  8
Layer_2
 62
7
100
AcDbSpline
 70
0
 71
3
 72
10
 73
6
 74
4
 40
0.000000
 40
0.000000
 40
0.000000
 40
0.000000
 40
5.968283
 40
11.545745
 40
17.324864
 40
17.324864
 40
17.324864
 40
17.324864
 10
51.732811
 20
120.209600
 30
0.0
 10
52.461740
 20
122.262035
 30
0.0
 10
53.871864
 20
126.232506
 30
0.0
 10
61.450782
 20
126.047041
 30
0.0
 10
62.710404
 20
122.120975
 30
0.0
 10
63.351398
 20
120.123085
 30
0.0
 11
51.732811
 21
120.209600
 31
0.0
 11
54.892424
 21
125.272924
 31
0.0
 11
60.468094
 21
125.131555
 31
0.0
 11
63.351398
 21
120.123085
 31
0.0
  0
SPLINE
  5
120
100
AcDbEntity
  8
Layer_2
 62
7
100
AcDbSpline
 70
0
 71
3
 72
10
 73
6
 74
4
 40
0.000000
 40
0.000000
 40
0.000000
 40
0.000000
 40
1.508487
 40
2.959287
 40
4.522260
 40
4.522260
 40
4.522260
 40
4.522260
 10
60.147377
 20
148.385532
 30
0.0
 10
60.634785
 20
148.249925
 30
0.0
 10
61.590962
 20
147.983899
 30
0.0
 10
62.761979
 20
146.861861
 30
0.0
 10
62.884923
 20
145.837757
 30
0.0
 10
62.948682
 20
145.306647
 30
0.0
 11
60.147377
 21
148.385532
 31
0.0
 11
61.560262
 21
147.857051
 31
0.0
 11
62.580576
 21
146.825654
 31
0.0
 11
62.948682
 21
145.306647
 31
0.0
  0
LWPOLYLINE
  5
121
100
AcDbEntity
  8
Layer_2
 62
7
100
AcDbPolyline
 90
2
 70
0
 10
62.948682
 20
143.979545
 30
0.0
 10
62.948682
 20
139.742994
 30
0.0
  0
LWPOLYLINE
  5
122
100
AcDbEntity
  8
Layer_2
 62
7
100
AcDbPolyline
 90
3
 70
0
 10
86.786960
 20
120.123100
 30
0.0
 10
86.786960
 20
97.450360
 30
0.0
 10
98.405547
 20
97.313128
 30
0.0
  0
SPLINE
  5
123
100
AcDbEntity
  8
Layer_2
 62
7
100
AcDbSpline
 70
0
 71
3
 72
10
 73
6
 74
4
 40
0.000000
 40
0.000000
 40
0.000000
 40
0.000000
 40
1.598919
 40
3.039119
 40
4.505623
 40
4.505623
 40
4.505623
 40
4.505623
 10
55.765102
 20
145.354346
 30
0.0
 10
55.854074
 20
145.892367
 30
0.0
 10
56.023187
 20
146.915003
 30
0.0
 10
57.189840
 20
148.022512
 30
0.0
 10
58.133977
 20
148.271577
 30
0.0
 10
58.610317
 20
148.397237
 30
0.0
 11
55.765102
 21
145.354346
 31
0.0
 11
56.203026
 21
146.892125
 31
0.0
 11
57.230041
 21
147.901787
 31
0.0
 11
58.610317
 21
148.397237
 31
0.0
  0
LWPOLYLINE
  5
124
100
AcDbEntity
  8
Layer_2
 62
7
100
AcDbPolyline
 90
2
 70
0
 10
98.405547
 20
120.036572
 30
0.0
 10
98.405547
 20
97.313128
 30
0.0
  0
LWPOLYLINE
  5
125
100
AcDbEntity
  8
Layer_2
 62
7
100
AcDbPolyline
 90
3
 70
0
 10
171.920194
 20
206.984254
 30
0.0
 10
171.920194
 20
195.803392
 30
0.0
 10
166.813207
 20
195.735717
 30
0.0
  0
SPLINE
  5
126
100
AcDbEntity
  8
Layer_2
 62
7
100
AcDbSpline
 70
0
 71
3
 72
10
 73
6
 74
4
 40
0.000000
 40
0.000000
 40
0.000000
 40
0.000000
 40
5.968283
 40
11.545745
 40
17.324864
 40
17.324864
 40
17.324864
 40
17.324864
 10
86.786960
 20
120.123100
 30
0.0
 10
87.515889
 20
122.175535
 30
0.0
 10
88.926013
 20
126.146006
 30
0.0
 10
96.504931
 20
125.960541
 30
0.0
 10
97.764553
 20
122.034475
 30
0.0
 10
98.405547
 20
120.036585
 30
0.0
 11
86.786960
 21
120.123100
 31
0.0
 11
89.946573
 21
125.186424
 31
0.0
 11
95.522243
 21
125.045055
 31
0.0
 11
98.405547
 21
120.036585
 31
0.0
  0
LWPOLYLINE
  5
127
100
AcDbEntity
  8
Layer_2
 62
7
100
AcDbPolyline
 90
2
 70
0
 10
166.813207
 20
206.941584
 30
0.0
 10
166.813207
 20
195.735717
 30
0.0
  0
LWPOLYLINE
  5
128
100
AcDbEntity
  8
Layer_2
 62
5
100
AcDbPolyline
 90
3
 70
0
 10
191.228874
 20
91.955257
 30
0.0
 10
191.228854
 20
91.940457
 30
0.0
 10
134.664876
 20
92.345437
 30
0.0
  0
LWPOLYLINE
  5
129
100
AcDbEntity
  8
Layer_2
 62
7
100
AcDbPolyline
 90
3
 70
0
 10
191.363854
 20
181.940534
 30
0.0
 10
191.363854
 20
181.940534
 30
0.0
 10
191.228874
 20
91.955257
 30
0.0
  0
LWPOLYLINE
  5
12a
100
AcDbEntity
  8
Layer_2
 62
7
100
AcDbPolyline
 90
2
 70
0
 10
177.999104
 20
221.305808
 30
0.0
 10
191.363864
 20
188.366424
 30
0.0
  0
LWPOLYLINE
  5
12b
100
AcDbEntity
  8
Layer_2
 62
1
100
AcDbPolyline
 90
2
 70
0
 10
29.339465
 20
221.305812
 30
0.0
 10
55.908358
 20
221.305812
 30
0.0
  0
LWPOLYLINE
  5
12c
100
AcDbEntity
  8
Layer_2
 62
7
100
AcDbPolyline
 90
3
 70
0
 10
179.774214
 20
145.516466
 30
0.0
 10
179.774214
 20
133.011508
 30
0.0
 10
174.667226
 20
132.935819
 30
0.0
  0
SPLINE
  5
12d
100
AcDbEntity
  8
Layer_2
 62
7
100
AcDbSpline
 70
0
 71
3
 72
10
 73
6
 74
4
 40
0.000000
 40
0.000000
 40
0.000000
 40
0.000000
 40
2.857183
 40
5.308978
 40
8.085043
 40
8.085043
 40
8.085043
 40
8.085043
 10
171.920194
 20
206.984254
 30
0.0
 10
171.630897
 20
208.006336
 30
0.0
 10
171.093348
 20
209.905482
 30
0.0
 10
167.535713
 20
209.804281
 30
0.0
 10
167.063799
 20
207.934480
 30
0.0
 10
166.813207
 20
206.941591
 30
0.0
 11
171.920194
 21
206.984254
 31
0.0
 11
170.531376
 21
209.481188
 31
0.0
 11
168.080572
 21
209.411474
 31
0.0
 11
166.813207
 21
206.941591
 31
0.0
  0
LWPOLYLINE
  5
12e
100
AcDbEntity
  8
Layer_2
 62
7
100
AcDbPolyline
 90
2
 70
0
 10
174.667226
 20
145.468742
 30
0.0
 10
174.667226
 20
132.935819
 30
0.0
  0
LWPOLYLINE
  5
12f
100
AcDbEntity
  8
Layer_2
 62
7
100
AcDbPolyline
 90
3
 70
0
 10
171.643276
 20
145.440777
 30
0.0
 10
171.643276
 20
132.935819
 30
0.0
 10
166.536288
 20
132.860130
 30
0.0
  0
SPLINE
  5
130
100
AcDbEntity
  8
Layer_2
 62
7
100
AcDbSpline
 70
0
 71
3
 72
10
 73
6
 74
4
 40
0.000000
 40
0.000000
 40
0.000000
 40
0.000000
 40
3.118913
 40
5.570957
 40
8.610193
 40
8.610193
 40
8.610193
 40
8.610193
 10
179.774214
 20
145.516466
 30
0.0
 10
179.520699
 20
146.671183
 30
0.0
 10
179.067872
 20
148.733721
 30
0.0
 10
175.269995
 20
148.610220
 30
0.0
 10
174.881980
 20
146.587987
 30
0.0
 10
174.667226
 20
145.468749
 30
0.0
 11
179.774214
 21
145.516466
 31
0.0
 11
178.385396
 21
148.309099
 31
0.0
 11
175.934592
 21
148.231129
 31
0.0
 11
174.667226
 21
145.468749
 31
0.0
  0
LWPOLYLINE
  5
131
100
AcDbEntity
  8
Layer_2
 62
7
100
AcDbPolyline
 90
2
 70
0
 10
166.536288
 20
145.393053
 30
0.0
 10
166.536288
 20
132.860130
 30
0.0
  0
LWPOLYLINE
  5
132
100
AcDbEntity
  8
Layer_2
 62
7
100
AcDbPolyline
 90
3
 70
0
 10
172.838531
 20
120.296100
 30
0.0
 10
172.838531
 20
97.623360
 30
0.0
 10
161.219944
 20
97.486128
 30
0.0
  0
SPLINE
  5
133
100
AcDbEntity
  8
Layer_2
 62
7
100
AcDbSpline
 70
0
 71
3
 72
10
 73
6
 74
4
 40
0.000000
 40
0.000000
 40
0.000000
 40
0.000000
 40
3.118913
 40
5.570957
 40
8.610193
 40
8.610193
 40
8.610193
 40
8.610193
 10
171.643276
 20
145.440777
 30
0.0
 10
171.389760
 20
146.595493
 30
0.0
 10
170.936934
 20
148.658032
 30
0.0
 10
167.139056
 20
148.534531
 30
0.0
 10
166.751041
 20
146.512297
 30
0.0
 10
166.536288
 20
145.393060
 30
0.0
 11
171.643276
 21
145.440777
 31
0.0
 11
170.254458
 21
148.233410
 31
0.0
 11
167.803654
 21
148.155440
 31
0.0
 11
166.536288
 21
145.393060
 31
0.0
  0
LWPOLYLINE
  5
134
100
AcDbEntity
  8
Layer_2
 62
7
100
AcDbPolyline
 90
2
 70
0
 10
161.219944
 20
120.209572
 30
0.0
 10
161.219944
 20
97.486128
 30
0.0
  0
LWPOLYLINE
  5
135
100
AcDbEntity
  8
Layer_2
 62
7
100
AcDbPolyline
 90
3
 70
0
 10
187.958454
 20
120.296346
 30
0.0
 10
187.958454
 20
97.623637
 30
0.0
 10
176.339854
 20
97.486407
 30
0.0
  0
SPLINE
  5
136
100
AcDbEntity
  8
Layer_2
 62
7
100
AcDbSpline
 70
0
 71
3
 72
10
 73
6
 74
4
 40
0.000000
 40
0.000000
 40
0.000000
 40
0.000000
 40
5.968283
 40
11.545745
 40
17.324864
 40
17.324864
 40
17.324864
 40
17.324864
 10
172.838531
 20
120.296100
 30
0.0
 10
172.109603
 20
122.348535
 30
0.0
 10
170.699478
 20
126.319006
 30
0.0
 10
163.120560
 20
126.133541
 30
0.0
 10
161.860939
 20
122.207475
 30
0.0
 10
161.219944
 20
120.209585
 30
0.0
 11
172.838531
 21
120.296100
 31
0.0
 11
169.678919
 21
125.359424
 31
0.0
 11
164.103249
 21
125.218055
 31
0.0
 11
161.219944
 21
120.209585
 31
0.0
  0
LWPOLYLINE
  5
137
100
AcDbEntity
  8
Layer_2
 62
7
100
AcDbPolyline
 90
2
 70
0
 10
176.339854
 20
120.209816
 30
0.0
 10
176.339854
 20
97.486407
 30
0.0
  0
LWPOLYLINE
  5
138
100
AcDbEntity
  8
Layer_2
 62
7
100
AcDbPolyline
 90
3
 70
0
 10
138.162532
 20
120.209600
 30
0.0
 10
138.162532
 20
97.536860
 30
0.0
 10
126.543945
 20
97.399628
 30
0.0
  0
SPLINE
  5
139
100
AcDbEntity
  8
Layer_2
 62
7
100
AcDbSpline
 70
0
 71
3
 72
10
 73
6
 74
4
 40
0.000000
 40
0.000000
 40
0.000000
 40
0.000000
 40
5.968279
 40
11.545747
 40
17.324849
 40
17.324849
 40
17.324849
 40
17.324849
 10
187.958454
 20
120.296346
 30
0.0
 10
187.229522
 20
122.348778
 30
0.0
 10
185.819391
 20
126.319244
 30
0.0
 10
178.240481
 20
126.133786
 30
0.0
 10
176.980851
 20
122.207728
 30
0.0
 10
176.339854
 20
120.209846
 30
0.0
 11
187.958454
 21
120.296346
 31
0.0
 11
184.798835
 21
125.359662
 31
0.0
 11
179.223159
 21
125.218296
 31
0.0
 11
176.339854
 21
120.209846
 31
0.0
  0
LWPOLYLINE
  5
13a
100
AcDbEntity
  8
Layer_2
 62
7
100
AcDbPolyline
 90
2
 70
0
 10
126.543945
 20
120.123072
 30
0.0
 10
126.543945
 20
97.399628
 30
0.0
  0
LWPOLYLINE
  5
13b
100
AcDbEntity
  8
Layer_2
 62
7
100
AcDbPolyline
 90
3
 70
0
 10
155.550532
 20
120.209600
 30
0.0
 10
155.550532
 20
97.536860
 30
0.0
 10
143.931945
 20
97.399628
 30
0.0
  0
SPLINE
  5
13c
100
AcDbEntity
  8
Layer_2
 62
7
100
AcDbSpline
 70
0
 71
3
 72
10
 73
6
 74
4
 40
0.000000
 40
0.000000
 40
0.000000
 40
0.000000
 40
5.968283
 40
11.545745
 40
17.324864
 40
17.324864
 40
17.324864
 40
17.324864
 10
138.162532
 20
120.209600
 30
0.0
 10
137.433604
 20
122.262035
 30
0.0
 10
136.023479
 20
126.232506
 30
0.0
 10
128.444562
 20
126.047041
 30
0.0
 10
127.184940
 20
122.120975
 30
0.0
 10
126.543945
 20
120.123085
 30
0.0
 11
138.162532
 21
120.209600
 31
0.0
 11
135.002920
 21
125.272924
 31
0.0
 11
129.427250
 21
125.131555
 31
0.0
 11
126.543945
 21
120.123085
 31
0.0
  0
LWPOLYLINE
  5
13d
100
AcDbEntity
  8
Layer_2
 62
7
100
AcDbPolyline
 90
2
 70
0
 10
143.931945
 20
120.123072
 30
0.0
 10
143.931945
 20
97.399628
 30
0.0
  0
LWPOLYLINE
  5
13e
100
AcDbEntity
  8
Layer_2
 62
7
100
AcDbPolyline
 90
3
 70
0
 10
120.496533
 20
120.123100
 30
0.0
 10
120.496533
 20
97.450360
 30
0.0
 10
108.877946
 20
97.313128
 30
0.0
  0
SPLINE
  5
13f
100
AcDbEntity
  8
Layer_2
 62
7
100
AcDbSpline
 70
0
 71
3
 72
10
 73
6
 74
4
 40
0.000000
 40
0.000000
 40
0.000000
 40
0.000000
 40
5.968283
 40
11.545745
 40
17.324864
 40
17.324864
 40
17.324864
 40
17.324864
 10
155.550532
 20
120.209600
 30
0.0
 10
154.821603
 20
122.262035
 30
0.0
 10
153.411479
 20
126.232506
 30
0.0
 10
145.832561
 20
126.047041
 30
0.0
 10
144.572939
 20
122.120975
 30
0.0
 10
143.931945
 20
120.123085
 30
0.0
 11
155.550532
 21
120.209600
 31
0.0
 11
152.390919
 21
125.272924
 31
0.0
 11
146.815249
 21
125.131555
 31
0.0
 11
143.931945
 21
120.123085
 31
0.0
  0
LWPOLYLINE
  5
140
100
AcDbEntity
  8
Layer_2
 62
7
100
AcDbPolyline
 90
2
 70
0
 10
108.877946
 20
120.036572
 30
0.0
 10
108.877946
 20
97.313128
 30
0.0
  0
LWPOLYLINE
  5
141
100
AcDbEntity
  8
Layer_2
 62
5
100
AcDbPolyline
 90
2
 70
0
 10
72.673664
 20
92.345467
 30
0.0
 10
134.664886
 20
92.345467
 30
0.0
  0
LWPOLYLINE
  5
142
100
AcDbEntity
  8
Layer_2
 62
5
100
AcDbPolyline
 90
2
 70
0
 10
386544.667245
 20
119.073906
 30
0.0
 10
423279.466033
 20
119.073906
 30
0.0
  0
LWPOLYLINE
  5
143
100
AcDbEntity
  8
Layer_2
 62
5
100
AcDbPolyline
 90
2
 70
0
 10
29.700250
 20
237.779985
 30
0.0
 10
55.134135
 20
237.779985
 30
0.0
  0
LWPOLYLINE
  5
144
100
AcDbEntity
  8
Layer_2
 62
5
100
AcDbPolyline
 90
2
 70
0
 10
152.016855
 20
237.779983
 30
0.0
 10
178.359884
 20
237.779983
 30
0.0
  0
LWPOLYLINE
  5
145
100
AcDbEntity
  8
Layer_2
 62
7
100
AcDbPolyline
 90
2
 70
0
 10
151.656075
 20
240.746311
 30
0.0
 10
151.656075
 20
221.305810
 30
0.0
  0
LWPOLYLINE
  5
146
100
AcDbEntity
  8
Layer_2
 62
7
100
AcDbPolyline
 90
2
 70
0
 10
177.999104
 20
237.779988
 30
0.0
 10
177.999104
 20
221.305809
 30
0.0
  0
LWPOLYLINE
  5
147
100
AcDbEntity
  8
Layer_2
 62
7
100
AcDbPolyline
 90
2
 70
0
 10
55.441553
 20
240.757074
 30
0.0
 10
56.014300
 20
221.305812
 30
0.0
  0
LWPOLYLINE
  5
148
100
AcDbEntity
  8
Layer_2
 62
7
100
AcDbPolyline
 90
2
 70
0
 10
29.700250
 20
237.779985
 30
0.0
 10
29.339465
 20
221.305812
 30
0.0
  0
SPLINE
  5
149
100
AcDbEntity
  8
Layer_2
 62
7
100
AcDbSpline
 70
0
 71
3
 72
10
 73
6
 74
4
 40
0.000000
 40
0.000000
 40
0.000000
 40
0.000000
 40
5.968283
 40
11.545745
 40
17.324864
 40
17.324864
 40
17.324864
 40
17.324864
 10
120.496533
 20
120.123100
 30
0.0
 10
119.767605
 20
122.175535
 30
0.0
 10
118.357480
 20
126.146006
 30
0.0
 10
110.778562
 20
125.960541
 30
0.0
 10
109.518940
 20
122.034475
 30
0.0
 10
108.877946
 20
120.036585
 30
0.0
 11
120.496533
 21
120.123100
 31
0.0
 11
117.336920
 21
125.186424
 31
0.0
 11
111.761251
 21
125.045055
 31
0.0
 11
108.877946
 21
120.036585
 31
0.0
  0
SPLINE
  5
14a
100
AcDbEntity
  8
Layer_2
 62
7
100
AcDbSpline
 70
0
 71
3
 72
13
 73
9
 74
7
 40
0.000000
 40
0.000000
 40
0.000000
 40
0.000000
 40
0.773601
 40
1.536846
 40
2.289224
 40
7.447762
 40
11.694182
 40
15.340932
 40
15.340932
 40
15.340932
 40
15.340932
 10
109.772786
 20
221.367627
 30
0.0
 10
110.023272
 20
221.306258
 30
0.0
 10
110.520889
 20
221.184341
 30
0.0
 10
111.254438
 20
220.973762
 30
0.0
 10
113.374743
 20
220.295992
 30
0.0
 10
116.430908
 20
218.842597
 30
0.0
 10
119.872534
 20
215.804622
 30
0.0
 10
120.392777
 20
213.161871
 30
0.0
 10
120.633136
 20
211.940884
 30
0.0
 11
109.772786
 21
221.367627
 31
0.0
 11
110.522936
 21
221.178590
 31
0.0
 11
111.256864
 21
220.969087
 31
0.0
 11
111.973346
 21
220.739466
 31
0.0
 11
116.600120
 21
218.458352
 31
0.0
 11
119.578827
 21
215.431905
 31
0.0
 11
120.633136
 21
211.940884
 31
0.0
  0
SPLINE
  5
14b
100
AcDbEntity
  8
Layer_2
 62
7
100
AcDbSpline
 70
0
 71
3
 72
10
 73
6
 74
4
 40
0.000000
 40
0.000000
 40
0.000000
 40
0.000000
 40
3.646751
 40
7.893171
 40
13.051709
 40
13.051709
 40
13.051709
 40
13.051709
 10
85.993973
 20
211.940884
 30
0.0
 10
86.235323
 20
213.159424
 30
0.0
 10
86.757709
 20
215.796880
 30
0.0
 10
90.179873
 20
218.882955
 30
0.0
 10
93.069067
 20
220.081870
 30
0.0
 10
94.653765
 20
220.739465
 30
0.0
 11
85.993973
 21
211.940884
 31
0.0
 11
87.048283
 21
215.431905
 31
0.0
 11
90.026991
 21
218.458351
 31
0.0
 11
94.653765
 21
220.739465
 31
0.0
  0
LWPOLYLINE
  5
14c
100
AcDbEntity
  8
Layer_2
 62
1
100
AcDbPolyline
 90
2
 70
0
 10
177.999044
 20
221.305808
 30
0.0
 10
151.430145
 20
221.305808
 30
0.0
  0
LWPOLYLINE
  5
14d
100
AcDbEntity
  8
Layer_2
 62
5
100
AcDbPolyline
 90
1
 70
1
 10
70.714773
 20
216.040122
 30
0.0
  0
LWPOLYLINE
  5
14e
100
AcDbEntity
  8
Layer_2
 62
1
100
AcDbPolyline
 90
2
 70
0
 10
15.974712
 20
182.469704
 30
0.0
 10
191.266624
 20
182.469704
 30
0.0
  0
LWPOLYLINE
  5
14f
100
AcDbEntity
  8
Layer_2
 62
5
100
AcDbPolyline
 90
2
 70
0
 10
15.974712
 20
188.366424
 30
0.0
 10
55.623077
 20
188.366424
 30
0.0
  0
LWPOLYLINE
  5
150
100
AcDbEntity
  8
Layer_2
 62
7
100
AcDbPolyline
 90
2
 70
0
 10
15.974712
 20
188.366424
 30
0.0
 10
15.974712
 20
181.940534
 30
0.0
  0
LWPOLYLINE
  5
151
100
AcDbEntity
  8
Layer_2
 62
7
100
AcDbPolyline
 90
2
 70
0
 10
191.266624
 20
181.940534
 30
0.0
 10
191.363824
 20
188.366424
 30
0.0
  0
LWPOLYLINE
  5
152
100
AcDbEntity
  8
Layer_2
 62
7
100
AcDbPolyline
 90
2
 70
0
 10
56.014208
 20
221.306029
 30
0.0
 10
55.632560
 20
188.403534
 30
0.0
  0
LWPOLYLINE
  5
153
100
AcDbEntity
  8
Layer_2
 62
7
100
AcDbPolyline
 90
2
 70
0
 10
86.178920
 20
212.979588
 30
0.0
 10
85.797087
 20
188.060584
 30
0.0
  0
LWPOLYLINE
  5
154
100
AcDbEntity
  8
Layer_2
 62
7
100
AcDbPolyline
 90
2
 70
0
 10
120.543686
 20
212.788549
 30
0.0
 10
120.161826
 20
188.056614
 30
0.0
  0
LWPOLYLINE
  5
155
100
AcDbEntity
  8
Layer_2
 62
5
100
AcDbPolyline
 90
2
 70
0
 10
55.710144
 20
195.932584
 30
0.0
 10
85.990642
 20
195.932584
 30
0.0
  0
LWPOLYLINE
  5
156
100
AcDbEntity
  8
Layer_2
 62
5
100
AcDbPolyline
 90
2
 70
0
 10
120.315806
 20
195.936424
 30
0.0
 10
151.006495
 20
195.936424
 30
0.0
  0
LWPOLYLINE
  5
157
100
AcDbEntity
  8
Layer_2
 62
5
100
AcDbPolyline
 90
2
 70
0
 10
151.715495
 20
188.366424
 30
0.0
 10
191.363864
 20
188.366424
 30
0.0
  0
LWPOLYLINE
  5
158
100
AcDbEntity
  8
Layer_2
 62
5
100
AcDbPolyline
 90
2
 70
0
 10
85.796952
 20
188.307684
 30
0.0
 10
119.717866
 20
188.307684
 30
0.0
  0
LWPOLYLINE
  5
159
100
AcDbEntity
  8
Layer_2
 62
7
100
AcDbPolyline
 90
2
 70
0
 10
86.558757
 20
224.483562
 30
0.0
 10
86.178255
 20
212.980271
 30
0.0
  0
LWPOLYLINE
  5
15a
100
AcDbEntity
  8
Layer_2
 62
7
100
AcDbPolyline
 90
2
 70
0
 10
120.923476
 20
224.292562
 30
0.0
 10
120.542976
 20
212.789271
 30
0.0
  0
LWPOLYLINE
  5
15b
100
AcDbEntity
  8
Layer_2
 62
1
100
AcDbPolyline
 90
2
 70
0
 10
96.954592
 20
221.043577
 30
0.0
 10
109.666246
 20
221.043577
 30
0.0
  0
LWPOLYLINE
  5
15c
100
AcDbEntity
  8
Layer_2
 62
5
100
AcDbPolyline
 90
2
 70
0
 10
97.127207
 20
237.517750
 30
0.0
 10
109.889536
 20
237.517750
 30
0.0
  0
LWPOLYLINE
  5
15d
100
AcDbEntity
  8
Layer_2
 62
7
100
AcDbPolyline
 90
2
 70
0
 10
109.442896
 20
237.162549
 30
0.0
 10
109.716926
 20
221.043577
 30
0.0
  0
LWPOLYLINE
  5
15e
100
AcDbEntity
  8
Layer_2
 62
7
100
AcDbPolyline
 90
2
 70
0
 10
97.127207
 20
237.517750
 30
0.0
 10
96.954592
 20
221.043577
 30
0.0
  0
LWPOLYLINE
  5
15f
100
AcDbEntity
  8
Layer_2
 62
1
100
AcDbPolyline
 90
2
 70
0
 10
56.414573
 20
224.483562
 30
0.0
 10
86.493197
 20
224.483562
 30
0.0
  0
LWPOLYLINE
  5
160
100
AcDbEntity
  8
Layer_2
 62
5
100
AcDbPolyline
 90
2
 70
0
 10
55.962882
 20
240.957736
 30
0.0
 10
86.782053
 20
240.957736
 30
0.0
  0
LWPOLYLINE
  5
161
100
AcDbEntity
  8
Layer_2
 62
7
100
AcDbPolyline
 90
2
 70
0
 10
86.204277
 20
240.602534
 30
0.0
 10
86.558757
 20
224.483562
 30
0.0
  0
LWPOLYLINE
  5
162
100
AcDbEntity
  8
Layer_2
 62
1
100
AcDbPolyline
 90
2
 70
0
 10
151.204385
 20
224.480816
 30
0.0
 10
121.125756
 20
224.480816
 30
0.0
  0
LWPOLYLINE
  5
163
100
AcDbEntity
  8
Layer_2
 62
7
100
AcDbPolyline
 90
2
 70
0
 10
121.707146
 20
240.957783
 30
0.0
 10
121.352766
 20
224.650379
 30
0.0
  0
LWPOLYLINE
  5
164
100
AcDbEntity
  8
Layer_2
 62
7
100
AcDbPolyline
 90
2
 70
0
 10
96.954592
 20
221.043577
 30
0.0
 10
94.653768
 20
220.739465
 30
0.0
  0
LWPOLYLINE
  5
165
100
AcDbEntity
  8
Layer_2
 62
5
100
AcDbPolyline
 90
7
 70
1
 10
91.332309
 20
202.681211
 30
0.0
 10
90.104275
 20
209.435394
 30
0.0
 10
91.005808
 20
209.435394
 30
0.0
 10
91.634444
 20
204.942351
 30
0.0
 10
92.253333
 20
209.435394
 30
0.0
 10
93.149994
 20
209.435394
 30
0.0
 10
91.921960
 20
202.681211
 30
0.0
  0
LWPOLYLINE
  5
166
100
AcDbEntity
  8
Layer_2
 62
5
100
AcDbPolyline
 90
4
 70
1
 10
93.802995
 20
202.768927
 30
0.0
 10
93.802995
 20
209.435394
 30
0.0
 10
94.660670
 20
209.435394
 30
0.0
 10
94.660670
 20
202.768927
 30
0.0
  0
SPLINE
  5
167
100
AcDbEntity
  8
Layer_2
 62
5
100
AcDbSpline
 70
0
 71
3
 72
25
 73
21
 74
19
 40
0.000000
 40
0.000000
 40
0.000000
 40
0.000000
 40
1.123966
 40
2.227245
 40
3.349559
 40
4.471183
 40
5.572835
 40
6.695144
 40
7.818428
 40
8.922381
 40
10.046349
 40
11.169628
 40
12.271954
 40
13.393580
 40
14.141571
 40
14.883589
 40
15.632177
 40
16.381203
 40
17.124407
 40
17.874030
 40
17.874030
 40
17.874030
 40
17.874030
 10
70.714773
 20
216.040122
 30
0.0
 10
70.337705
 20
215.996729
 30
0.0
 10
69.590511
 20
215.910740
 30
0.0
 10
68.637955
 20
215.250840
 30
0.0
 10
67.999434
 20
214.306889
 30
0.0
 10
67.776819
 20
213.182134
 30
0.0
 10
68.000475
 20
212.061166
 30
0.0
 10
68.636822
 20
211.108822
 30
0.0
 10
69.591139
 20
210.474453
 30
0.0
 10
70.714432
 20
210.251600
 30
0.0
 10
71.839209
 20
210.473377
 30
0.0
 10
72.792041
 20
211.110090
 30
0.0
 10
73.428923
 20
212.060075
 30
0.0
 10
73.628474
 20
213.058684
 30
0.0
 10
73.512508
 20
213.930877
 30
0.0
 10
73.223205
 20
214.627864
 30
0.0
 10
72.762963
 20
215.227370
 30
0.0
 10
72.162836
 20
215.683438
 30
0.0
 10
71.464389
 20
215.983156
 30
0.0
 10
70.965360
 20
216.021079
 30
0.0
 10
70.714773
 20
216.040122
 30
0.0
 11
70.714773
 21
216.040122
 31
0.0
 11
69.612553
 21
215.820095
 31
0.0
 11
68.694572
 21
215.208102
 31
0.0
 11
68.069032
 21
214.276282
 31
0.0
 11
67.850969
 21
213.176060
 31
0.0
 11
68.066358
 21
212.095669
 31
0.0
 11
68.689810
 21
211.162457
 31
0.0
 11
69.625132
 21
210.540411
 31
0.0
 11
70.707965
 21
210.325508
 31
0.0
 11
71.810674
 21
210.543079
 31
0.0
 11
72.744601
 21
211.167208
 31
0.0
 11
73.357977
 21
212.083119
 31
0.0
 11
73.578502
 21
213.182852
 31
0.0
 11
73.480389
 21
213.924380
 31
0.0
 11
73.195884
 21
214.609688
 31
0.0
 11
72.739735
 21
215.203247
 31
0.0
 11
72.144834
 21
215.658367
 31
0.0
 11
71.457977
 21
215.942231
 31
0.0
 11
70.714773
 21
216.040122
 31
0.0
  0
SPLINE
  5
168
100
AcDbEntity
  8
Layer_2
 62
5
100
AcDbSpline
 70
0
 71
3
 72
19
 73
15
 74
13
 40
0.000000
 40
0.000000
 40
0.000000
 40
0.000000
 40
0.388288
 40
0.750092
 40
1.103965
 40
1.641343
 40
2.171161
 40
2.774188
 40
3.491119
 40
4.340490
 40
5.343540
 40
6.350917
 40
7.213065
 40
7.950223
 40
7.950223
 40
7.950223
 40
7.950223
 10
98.354517
 20
203.056442
 30
0.0
 10
98.248225
 20
202.981845
 30
0.0
 10
98.042891
 20
202.837737
 30
0.0
 10
97.692858
 20
202.709848
 30
0.0
 10
97.275641
 20
202.660418
 30
0.0
 10
96.795279
 20
202.741442
 30
0.0
 10
96.322289
 20
203.063823
 30
0.0
 10
95.967976
 20
203.580391
 30
0.0
 10
95.715755
 20
204.263329
 30
0.0
 10
95.569520
 20
205.110603
 30
0.0
 10
95.527345
 20
206.065018
 30
0.0
 10
95.572806
 20
207.021408
 30
0.0
 10
95.708110
 20
207.886632
 30
0.0
 10
95.915117
 20
208.379695
 30
0.0
 10
96.010532
 20
208.606959
 30
0.0
 11
98.354517
 21
203.056442
 31
0.0
 11
98.026933
 21
202.847980
 31
0.0
 11
97.687437
 21
202.722903
 31
0.0
 11
97.336029
 21
202.681211
 31
0.0
 11
96.807563
 21
202.778674
 31
0.0
 11
96.365730
 21
203.071062
 31
0.0
 11
96.010532
 21
203.558377
 31
0.0
 11
95.750630
 21
204.226540
 31
0.0
 11
95.594689
 21
205.061472
 31
0.0
 11
95.542709
 21
206.063175
 31
0.0
 11
95.594689
 21
207.069210
 31
0.0
 11
95.750630
 21
207.917138
 31
0.0
 11
96.010532
 21
208.606959
 31
0.0
  0
LWPOLYLINE
  5
169
100
AcDbEntity
  8
Layer_2
 62
5
100
AcDbPolyline
 90
2
 70
0
 10
98.354517
 20
203.957975
 30
0.0
 10
98.354517
 20
203.056442
 30
0.0
  0
SPLINE
  5
16a
100
AcDbEntity
  8
Layer_2
 62
5
100
AcDbSpline
 70
0
 71
3
 72
13
 73
9
 74
7
 40
0.000000
 40
0.000000
 40
0.000000
 40
0.000000
 40
0.623150
 40
1.165607
 40
1.712297
 40
2.003445
 40
2.331402
 40
2.709350
 40
2.709350
 40
2.709350
 40
2.709350
 10
96.010532
 20
208.606959
 30
0.0
 10
96.118002
 20
208.787081
 30
0.0
 10
96.319026
 20
209.123998
 30
0.0
 10
96.805118
 20
209.457601
 30
0.0
 10
97.270912
 20
209.545366
 30
0.0
 10
97.659006
 20
209.493662
 30
0.0
 10
97.971756
 20
209.372062
 30
0.0
 10
98.170264
 20
209.245097
 30
0.0
 10
98.276547
 20
209.177118
 30
0.0
 11
96.010532
 21
208.606959
 31
0.0
 11
96.370062
 21
209.115933
 31
0.0
 11
96.818392
 21
209.421318
 31
0.0
 11
97.355521
 21
209.523112
 31
0.0
 11
97.644120
 21
209.484668
 31
0.0
 11
97.951128
 21
209.369337
 31
0.0
 11
98.276547
 21
209.177118
 31
0.0
  0
LWPOLYLINE
  5
16b
100
AcDbEntity
  8
Layer_2
 62
5
100
AcDbPolyline
 90
2
 70
0
 10
98.276547
 20
209.177118
 30
0.0
 10
98.276547
 20
208.309697
 30
0.0
  0
LWPOLYLINE
  5
16c
100
AcDbEntity
  8
Layer_2
 62
5
100
AcDbPolyline
 90
1
 70
1
 10
98.354517
 20
203.957975
 30
0.0
  0
SPLINE
  5
16d
100
AcDbEntity
  8
Layer_2
 62
5
100
AcDbSpline
 70
0
 71
3
 72
25
 73
21
 74
19
 40
0.000000
 40
0.000000
 40
0.000000
 40
0.000000
 40
0.368705
 40
0.686902
 40
0.976561
 40
1.296760
 40
1.618950
 40
2.005759
 40
2.514654
 40
3.191468
 40
4.044107
 40
4.889727
 40
5.565113
 40
6.078357
 40
6.468848
 40
6.798390
 40
7.131942
 40
7.402620
 40
7.744887
 40
8.177006
 40
8.177006
 40
8.177006
 40
8.177006
 10
98.276547
 20
208.309697
 30
0.0
 10
98.184790
 20
208.392049
 30
0.0
 10
98.013845
 20
208.545472
 30
0.0
 10
97.718408
 20
208.693388
 30
0.0
 10
97.409725
 20
208.747663
 30
0.0
 10
97.092860
 20
208.686398
 30
0.0
 10
96.822738
 20
208.454805
 30
0.0
 10
96.636633
 20
208.086849
 30
0.0
 10
96.519832
 20
207.573255
 30
0.0
 10
96.451106
 20
206.896471
 30
0.0
 10
96.432749
 20
206.104484
 30
0.0
 10
96.451411
 20
205.313070
 30
0.0
 10
96.521966
 20
204.637539
 30
0.0
 10
96.641501
 20
204.122920
 30
0.0
 10
96.830001
 20
203.749079
 30
0.0
 10
97.110516
 20
203.518396
 30
0.0
 10
97.428470
 20
203.453540
 30
0.0
 10
97.741665
 20
203.523304
 30
0.0
 10
98.047706
 20
203.697477
 30
0.0
 10
98.244630
 20
203.864676
 30
0.0
 10
98.354517
 20
203.957975
 30
0.0
 11
98.276547
 21
208.309697
 31
0.0
 11
97.990655
 21
208.542526
 31
0.0
 11
97.704763
 21
208.682223
 31
0.0
 11
97.418872
 21
208.728788
 31
0.0
 11
97.105907
 21
208.661106
 31
0.0
 11
96.855752
 21
208.458058
 31
0.0
 11
96.668407
 21
208.119644
 31
0.0
 11
96.541163
 21
207.626915
 31
0.0
 11
96.464817
 21
206.954420
 31
0.0
 11
96.439369
 21
206.102161
 31
0.0
 11
96.465359
 21
205.256941
 31
0.0
 11
96.543329
 21
204.586070
 31
0.0
 11
96.673280
 21
204.089550
 31
0.0
 11
96.863333
 21
203.748430
 31
0.0
 11
97.121610
 21
203.543758
 31
0.0
 11
97.448111
 21
203.475533
 31
0.0
 11
97.713427
 21
203.529138
 31
0.0
 11
98.015562
 21
203.689952
 31
0.0
 11
98.354517
 21
203.957975
 31
0.0
  0
SPLINE
  5
16e
100
AcDbEntity
  8
Layer_2
 62
5
100
AcDbSpline
 70
0
 71
3
 72
10
 73
6
 74
4
 40
0.000000
 40
0.000000
 40
0.000000
 40
0.000000
 40
0.504091
 40
1.029612
 40
1.653072
 40
1.653072
 40
1.653072
 40
1.653072
 10
103.451837
 20
202.681211
 30
0.0
 10
103.282406
 20
202.700824
 30
0.0
 10
102.936343
 20
202.740885
 30
0.0
 10
102.477673
 20
203.089282
 30
0.0
 10
102.275189
 20
203.415484
 30
0.0
 10
102.165317
 20
203.592488
 30
0.0
 11
103.451837
 21
202.681211
 31
0.0
 11
102.958019
 21
202.782464
 31
0.0
 11
102.529181
 21
203.086223
 31
0.0
 11
102.165317
 21
203.592488
 31
0.0
  0
SPLINE
  5
16f
100
AcDbEntity
  8
Layer_2
 62
5
100
AcDbSpline
 70
0
 71
3
 72
13
 73
9
 74
7
 40
0.000000
 40
0.000000
 40
0.000000
 40
0.000000
 40
0.739523
 40
1.592331
 40
2.580958
 40
3.525073
 40
4.360077
 40
5.104844
 40
5.104844
 40
5.104844
 40
5.104844
 10
102.165317
 20
203.592488
 30
0.0
 10
102.064041
 20
203.818160
 30
0.0
 10
101.845977
 20
204.304074
 30
0.0
 10
101.700551
 20
205.159428
 30
0.0
 10
101.651382
 20
206.087251
 30
0.0
 10
101.699186
 20
207.009603
 30
0.0
 10
101.839333
 20
207.845047
 30
0.0
 10
102.041009
 20
208.333041
 30
0.0
 10
102.136087
 20
208.563101
 30
0.0
 11
102.165317
 21
203.592488
 31
0.0
 11
101.889174
 21
204.278520
 31
0.0
 11
101.723486
 21
205.115078
 31
0.0
 11
101.668257
 21
206.102161
 31
0.0
 11
101.720237
 21
207.044844
 31
0.0
 11
101.876180
 21
207.865158
 31
0.0
 11
102.136087
 21
208.563101
 31
0.0
  0
SPLINE
  5
170
100
AcDbEntity
  8
Layer_2
 62
5
100
AcDbSpline
 70
0
 71
3
 72
13
 73
9
 74
7
 40
0.000000
 40
0.000000
 40
0.000000
 40
0.000000
 40
0.641392
 40
1.184309
 40
1.716008
 40
2.235395
 40
2.773417
 40
3.414073
 40
3.414073
 40
3.414073
 40
3.414073
 10
102.136087
 20
208.563101
 30
0.0
 10
102.242006
 20
208.750765
 30
0.0
 10
102.437583
 20
209.097281
 30
0.0
 10
102.911244
 20
209.452876
 30
0.0
 10
103.447736
 20
209.557962
 30
0.0
 10
103.982327
 20
209.452028
 30
0.0
 10
104.448460
 20
209.097323
 30
0.0
 10
104.645732
 20
208.754378
 30
0.0
 10
104.752957
 20
208.567974
 30
0.0
 11
102.136087
 21
208.563101
 31
0.0
 11
102.492363
 21
209.096441
 31
0.0
 11
102.930947
 21
209.416444
 31
0.0
 11
103.451837
 21
209.523112
 31
0.0
 11
103.960266
 21
209.416986
 31
0.0
 11
104.393974
 21
209.098607
 31
0.0
 11
104.752957
 21
208.567974
 31
0.0
  0
LWPOLYLINE
  5
171
100
AcDbEntity
  8
Layer_2
 62
5
100
AcDbPolyline
 90
8
 70
1
 10
99.670267
 20
202.768927
 30
0.0
 10
99.670267
 20
208.636199
 30
0.0
 10
98.642033
 20
208.636199
 30
0.0
 10
98.642033
 20
209.435394
 30
0.0
 10
101.556177
 20
209.435394
 30
0.0
 10
101.556177
 20
208.636199
 30
0.0
 10
100.532817
 20
208.636199
 30
0.0
 10
100.532817
 20
202.768927
 30
0.0
  0
SPLINE
  5
172
100
AcDbEntity
  8
Layer_2
 62
5
100
AcDbSpline
 70
0
 71
3
 72
16
 73
12
 74
10
 40
0.000000
 40
0.000000
 40
0.000000
 40
0.000000
 40
0.749118
 40
1.586953
 40
2.533893
 40
3.529640
 40
4.385000
 40
5.124093
 40
5.748541
 40
6.270471
 40
6.762778
 40
6.762778
 40
6.762778
 40
6.762778
 10
104.752957
 20
208.567974
 30
0.0
 10
104.851957
 20
208.337950
 30
0.0
 10
105.061682
 20
207.850660
 30
0.0
 10
105.208329
 20
207.012326
 30
0.0
 10
105.256951
 20
206.086237
 30
0.0
 10
105.209973
 20
205.152303
 30
0.0
 10
105.049483
 20
204.300291
 30
0.0
 10
104.769733
 20
203.608182
 30
0.0
 10
104.406442
 20
203.091580
 30
0.0
 10
103.958853
 20
202.741677
 30
0.0
 10
103.617519
 20
202.700970
 30
0.0
 10
103.451837
 20
202.681211
 30
0.0
 11
104.752957
 21
208.567974
 31
0.0
 11
105.023690
 21
207.869490
 31
0.0
 11
105.186130
 21
207.047552
 31
0.0
 11
105.240277
 21
206.102161
 31
0.0
 11
105.183421
 21
205.108039
 31
0.0
 11
105.012859
 21
204.269857
 31
0.0
 11
104.728597
 21
203.587615
 31
0.0
 11
104.359320
 21
203.084057
 31
0.0
 11
103.933733
 21
202.781922
 31
0.0
 11
103.451837
 21
202.681211
 31
0.0
  0
SPLINE
  5
173
100
AcDbEntity
  8
Layer_2
 62
5
100
AcDbSpline
 70
0
 71
3
 72
10
 73
6
 74
4
 40
0.000000
 40
0.000000
 40
0.000000
 40
0.000000
 40
0.272381
 40
0.591902
 40
1.018965
 40
1.018965
 40
1.018965
 40
1.018965
 10
103.441837
 20
208.728788
 30
0.0
 10
103.349998
 20
208.711825
 30
0.0
 10
103.150426
 20
208.674962
 30
0.0
 10
102.925011
 20
208.391364
 30
0.0
 10
102.838387
 20
208.159618
 30
0.0
 10
102.788837
 20
208.027054
 30
0.0
 11
103.441837
 21
208.728788
 31
0.0
 11
103.180854
 21
208.650818
 31
0.0
 11
102.963186
 21
208.416907
 31
0.0
 11
102.788837
 21
208.027054
 31
0.0
  0
SPLINE
  5
174
100
AcDbEntity
  8
Layer_2
 62
5
100
AcDbSpline
 70
0
 71
3
 72
19
 73
15
 74
13
 40
0.000000
 40
0.000000
 40
0.000000
 40
0.000000
 40
0.538199
 40
1.184167
 40
1.944244
 40
2.726546
 40
3.380962
 40
3.914659
 40
4.330776
 40
4.646663
 40
4.921410
 40
5.186222
 40
5.501151
 40
5.923727
 40
5.923727
 40
5.923727
 40
5.923727
 10
102.788837
 20
208.027054
 30
0.0
 10
102.743023
 20
207.853352
 30
0.0
 10
102.642223
 20
207.471166
 30
0.0
 10
102.579290
 20
206.823908
 30
0.0
 10
102.557067
 20
206.094904
 30
0.0
 10
102.578006
 20
205.362230
 30
0.0
 10
102.649699
 20
204.708362
 30
0.0
 10
102.772819
 20
204.185961
 30
0.0
 10
102.940586
 20
203.795864
 30
0.0
 10
103.168951
 20
203.535004
 30
0.0
 10
103.458222
 20
203.447289
 30
0.0
 10
103.745612
 20
203.538403
 30
0.0
 10
103.966501
 20
203.805716
 30
0.0
 10
104.054287
 20
204.035728
 30
0.0
 10
104.104587
 20
204.167520
 30
0.0
 11
102.788837
 21
208.027054
 31
0.0
 11
102.664301
 21
207.503462
 31
0.0
 11
102.589576
 21
206.861831
 31
0.0
 11
102.564667
 21
206.102161
 31
0.0
 11
102.590663
 21
205.320291
 31
0.0
 11
102.668640
 21
204.670538
 31
0.0
 11
102.798577
 21
204.152900
 31
0.0
 11
102.976174
 21
203.776585
 31
0.0
 11
103.197089
 21
203.550796
 31
0.0
 11
103.461327
 21
203.475533
 31
0.0
 11
103.714731
 21
203.552421
 31
0.0
 11
103.929149
 21
203.783083
 31
0.0
 11
104.104587
 21
204.167520
 31
0.0
  0
LWPOLYLINE
  5
175
100
AcDbEntity
  8
Layer_2
 62
5
100
AcDbPolyline
 90
1
 70
1
 10
103.451837
 20
202.681211
 30
0.0
  0
LWPOLYLINE
  5
176
100
AcDbEntity
  8
Layer_2
 62
5
100
AcDbPolyline
 90
1
 70
1
 10
103.441837
 20
208.728788
 30
0.0
  0
SPLINE
  5
177
100
AcDbEntity
  8
Layer_2
 62
5
100
AcDbSpline
 70
0
 71
3
 72
16
 73
12
 74
10
 40
0.000000
 40
0.000000
 40
0.000000
 40
0.000000
 40
0.539087
 40
1.188860
 40
1.956569
 40
2.734019
 40
3.387016
 40
3.922954
 40
4.342447
 40
4.659498
 40
4.932307
 40
4.932307
 40
4.932307
 40
4.932307
 10
104.104587
 20
204.167520
 30
0.0
 10
104.153403
 20
204.340748
 30
0.0
 10
104.261058
 20
204.722769
 30
0.0
 10
104.327846
 20
205.374124
 30
0.0
 10
104.351305
 20
206.105189
 30
0.0
 10
104.329649
 20
206.838576
 30
0.0
 10
104.256345
 20
207.490260
 30
0.0
 10
104.130270
 20
208.015378
 30
0.0
 10
103.960449
 20
208.401833
 30
0.0
 10
103.732983
 20
208.677222
 30
0.0
 10
103.533908
 20
208.712481
 30
0.0
 10
103.441837
 20
208.728788
 30
0.0
 11
104.104587
 21
204.167520
 31
0.0
 11
104.237244
 21
204.690030
 31
0.0
 11
104.316836
 21
205.334911
 31
0.0
 11
104.343367
 21
206.102161
 31
0.0
 11
104.316834
 21
206.879158
 31
0.0
 11
104.237239
 21
207.527286
 31
0.0
 11
104.104587
 21
208.046547
 31
0.0
 11
103.924820
 21
208.425570
 31
0.0
 11
103.703903
 21
208.652984
 31
0.0
 11
103.441837
 21
208.728788
 31
0.0
  0
SPLINE
  5
178
100
AcDbEntity
  8
Layer_2
 62
5
100
AcDbSpline
 70
0
 71
3
 72
10
 73
6
 74
4
 40
0.000000
 40
0.000000
 40
0.000000
 40
0.000000
 40
0.529301
 40
0.996263
 40
1.441085
 40
1.441085
 40
1.441085
 40
1.441085
 10
106.882536
 20
209.435394
 30
0.0
 10
107.059045
 20
209.425895
 30
0.0
 10
107.391273
 20
209.408015
 30
0.0
 10
107.855297
 20
209.239619
 30
0.0
 10
108.079270
 20
209.030573
 30
0.0
 10
108.188536
 20
208.928587
 30
0.0
 11
106.882536
 21
209.435394
 31
0.0
 11
107.408833
 21
209.379083
 31
0.0
 11
107.844166
 21
209.210147
 31
0.0
 11
108.188536
 21
208.928587
 31
0.0
  0
SPLINE
  5
179
100
AcDbEntity
  8
Layer_2
 62
5
100
AcDbSpline
 70
0
 71
3
 72
13
 73
9
 74
7
 40
0.000000
 40
0.000000
 40
0.000000
 40
0.000000
 40
0.449180
 40
0.920738
 40
1.444592
 40
2.030644
 40
2.559537
 40
3.093724
 40
3.093724
 40
3.093724
 40
3.093724
 10
108.188536
 20
208.928587
 30
0.0
 10
108.280028
 20
208.808789
 30
0.0
 10
108.467570
 20
208.563224
 30
0.0
 10
108.612172
 20
208.094959
 30
0.0
 10
108.660342
 20
207.568085
 30
0.0
 10
108.599497
 20
207.019886
 30
0.0
 10
108.364148
 20
206.504200
 30
0.0
 10
108.088345
 20
206.275539
 30
0.0
 10
107.949756
 20
206.160638
 30
0.0
 11
108.188536
 21
208.928587
 31
0.0
 11
108.440313
 21
208.556604
 31
0.0
 11
108.591380
 21
208.109899
 31
0.0
 11
108.641736
 21
207.588471
 31
0.0
 11
108.564850
 21
207.007484
 31
0.0
 11
108.334190
 21
206.531540
 31
0.0
 11
107.949756
 21
206.160638
 31
0.0
  0
LWPOLYLINE
  5
17a
100
AcDbEntity
  8
Layer_2
 62
5
100
AcDbPolyline
 90
3
 70
0
 10
106.166176
 20
202.768927
 30
0.0
 10
106.166176
 20
209.435394
 30
0.0
 10
106.882536
 20
209.435394
 30
0.0
  0
SPLINE
  5
17b
100
AcDbEntity
  8
Layer_2
 62
5
100
AcDbSpline
 70
0
 71
3
 72
10
 73
6
 74
4
 40
0.000000
 40
0.000000
 40
0.000000
 40
0.000000
 40
0.519814
 40
1.259210
 40
2.250718
 40
2.250718
 40
2.250718
 40
2.250718
 10
107.949756
 20
206.160638
 30
0.0
 10
108.071019
 20
206.034901
 30
0.0
 10
108.364767
 20
205.730312
 30
0.0
 10
108.634959
 20
205.013552
 30
0.0
 10
108.778692
 20
204.457057
 30
0.0
 10
108.861026
 20
204.138281
 30
0.0
 11
107.949756
 21
206.160638
 31
0.0
 11
108.289245
 21
205.766996
 31
0.0
 11
108.593005
 21
205.092877
 31
0.0
 11
108.861026
 21
204.138281
 31
0.0
  0
LWPOLYLINE
  5
17c
100
AcDbEntity
  8
Layer_2
 62
5
100
AcDbPolyline
 90
4
 70
0
 10
108.861026
 20
204.138281
 30
0.0
 10
109.168036
 20
202.768927
 30
0.0
 10
108.271376
 20
202.768927
 30
0.0
 10
108.013096
 20
203.918989
 30
0.0
  0
LWPOLYLINE
  5
17d
100
AcDbEntity
  8
Layer_2
 62
5
100
AcDbPolyline
 90
3
 70
0
 10
107.023856
 20
205.751294
 30
0.0
 10
107.023856
 20
202.768927
 30
0.0
 10
106.166176
 20
202.768927
 30
0.0
  0
SPLINE
  5
17e
100
AcDbEntity
  8
Layer_2
 62
5
100
AcDbSpline
 70
0
 71
3
 72
13
 73
9
 74
7
 40
0.000000
 40
0.000000
 40
0.000000
 40
0.000000
 40
0.729502
 40
1.265858
 40
1.613060
 40
1.845869
 40
2.041719
 40
2.233147
 40
2.233147
 40
2.233147
 40
2.233147
 10
108.013096
 20
203.918989
 30
0.0
 10
107.956770
 20
204.155682
 30
0.0
 10
107.859031
 20
204.566400
 30
0.0
 10
107.703487
 20
205.080604
 30
0.0
 10
107.561480
 20
205.427757
 30
0.0
 10
107.402043
 20
205.634313
 30
0.0
 10
107.220354
 20
205.751268
 30
0.0
 10
107.088855
 20
205.751286
 30
0.0
 10
107.023856
 20
205.751294
 30
0.0
 11
108.013096
 21
203.918989
 31
0.0
 11
107.836039
 21
204.626679
 31
0.0
 11
107.675227
 21
205.138359
 31
0.0
 11
107.530656
 21
205.454031
 31
0.0
 11
107.383384
 21
205.634338
 31
0.0
 11
107.214449
 21
205.733426
 31
0.0
 11
107.023856
 21
205.751294
 31
0.0
  0
LWPOLYLINE
  5
17f
100
AcDbEntity
  8
Layer_2
 62
5
100
AcDbPolyline
 90
2
 70
0
 10
107.023856
 20
206.550490
 30
0.0
 10
107.062756
 20
206.550490
 30
0.0
  0
LWPOLYLINE
  5
180
100
AcDbEntity
  8
Layer_2
 62
5
100
AcDbPolyline
 90
2
 70
0
 10
107.023776
 20
208.636199
 30
0.0
 10
107.023856
 20
206.550490
 30
0.0
  0
LWPOLYLINE
  5
181
100
AcDbEntity
  8
Layer_2
 62
5
100
AcDbPolyline
 90
4
 70
1
 10
109.782046
 20
202.768927
 30
0.0
 10
109.782046
 20
209.435394
 30
0.0
 10
110.639726
 20
209.435394
 30
0.0
 10
110.639726
 20
202.768927
 30
0.0
  0
LWPOLYLINE
  5
182
100
AcDbEntity
  8
Layer_2
 62
5
100
AcDbPolyline
 90
8
 70
1
 10
111.268366
 20
202.768927
 30
0.0
 10
112.525636
 20
209.474380
 30
0.0
 10
113.417416
 20
209.474380
 30
0.0
 10
114.664946
 20
202.768927
 30
0.0
 10
113.836516
 20
202.768927
 30
0.0
 10
113.597726
 20
204.245490
 30
0.0
 10
112.359946
 20
204.245490
 30
0.0
 10
112.096796
 20
202.768927
 30
0.0
  0
SPLINE
  5
183
100
AcDbEntity
  8
Layer_2
 62
5
100
AcDbSpline
 70
0
 71
3
 72
13
 73
9
 74
7
 40
0.000000
 40
0.000000
 40
0.000000
 40
0.000000
 40
0.416064
 40
0.829416
 40
1.395529
 40
1.997632
 40
2.437049
 40
2.876605
 40
2.876605
 40
2.876605
 40
2.876605
 10
107.062756
 20
206.550490
 30
0.0
 10
107.207074
 20
206.569243
 30
0.0
 10
107.494767
 20
206.606627
 30
0.0
 10
107.763067
 20
207.042783
 30
0.0
 10
107.796522
 20
207.571363
 30
0.0
 10
107.761530
 20
208.108056
 30
0.0
 10
107.480494
 20
208.572774
 30
0.0
 10
107.176032
 20
208.615055
 30
0.0
 10
107.023776
 20
208.636199
 30
0.0
 11
107.062756
 21
206.550490
 31
0.0
 11
107.463440
 21
206.662573
 31
0.0
 11
107.703850
 21
206.998820
 31
0.0
 11
107.783986
 21
207.559232
 31
0.0
 11
107.699517
 21
208.155381
 31
0.0
 11
107.446112
 21
208.514370
 31
0.0
 11
107.023776
 21
208.636199
 31
0.0
  0
SPLINE
  5
184
100
AcDbEntity
  8
Layer_2
 62
5
100
AcDbSpline
 70
0
 71
3
 72
16
 73
12
 74
10
 40
0.000000
 40
0.000000
 40
0.000000
 40
0.000000
 40
1.628454
 40
3.643632
 40
6.196661
 40
9.127215
 40
12.149041
 40
15.079595
 40
17.632625
 40
19.647803
 40
21.276257
 40
21.276257
 40
21.276257
 40
21.276257
 10
86.412472
 20
168.857165
 30
0.0
 10
86.284151
 20
169.399680
 30
0.0
 10
85.997034
 20
170.613547
 30
0.0
 10
84.233146
 20
171.916709
 30
0.0
 10
81.934355
 20
172.862321
 30
0.0
 10
79.110946
 20
173.355914
 30
0.0
 10
76.143702
 20
173.355914
 30
0.0
 10
73.320294
 20
172.862321
 30
0.0
 10
71.021503
 20
171.916709
 30
0.0
 10
69.257615
 20
170.613547
 30
0.0
 10
68.970498
 20
169.399680
 30
0.0
 10
68.842177
 20
168.857165
 30
0.0
 11
86.412472
 21
168.857165
 31
0.0
 11
85.877687
 21
170.395302
 31
0.0
 11
84.366774
 21
171.728750
 31
0.0
 11
82.019898
 21
172.733805
 31
0.0
 11
79.138238
 21
173.266887
 31
0.0
 11
76.116411
 21
173.266887
 31
0.0
 11
73.234751
 21
172.733805
 31
0.0
 11
70.887875
 21
171.728750
 31
0.0
 11
69.376962
 21
170.395302
 31
0.0
 11
68.842177
 21
168.857165
 31
0.0
  0
SPLINE
  5
185
100
AcDbEntity
  8
Layer_2
 62
5
100
AcDbSpline
 70
0
 71
3
 72
16
 73
12
 74
10
 40
0.000000
 40
0.000000
 40
0.000000
 40
0.000000
 40
1.628454
 40
3.643632
 40
6.196661
 40
9.127215
 40
12.149041
 40
15.079595
 40
17.632625
 40
19.647803
 40
21.276257
 40
21.276257
 40
21.276257
 40
21.276257
 10
68.784795
 20
168.901415
 30
0.0
 10
68.656473
 20
169.443930
 30
0.0
 10
68.369357
 20
170.657797
 30
0.0
 10
66.605469
 20
171.960959
 30
0.0
 10
64.306678
 20
172.906571
 30
0.0
 10
61.483269
 20
173.400164
 30
0.0
 10
58.516025
 20
173.400164
 30
0.0
 10
55.692616
 20
172.906571
 30
0.0
 10
53.393825
 20
171.960959
 30
0.0
 10
51.629937
 20
170.657797
 30
0.0
 10
51.342821
 20
169.443930
 30
0.0
 10
51.214499
 20
168.901415
 30
0.0
 11
68.784795
 21
168.901415
 31
0.0
 11
68.250010
 21
170.439552
 31
0.0
 11
66.739097
 21
171.773000
 31
0.0
 11
64.392221
 21
172.778054
 31
0.0
 11
61.510560
 21
173.311137
 31
0.0
 11
58.488734
 21
173.311137
 31
0.0
 11
55.607073
 21
172.778054
 31
0.0
 11
53.260197
 21
171.773000
 31
0.0
 11
51.749284
 21
170.439552
 31
0.0
 11
51.214499
 21
168.901415
 31
0.0
  0
SPLINE
  5
186
100
AcDbEntity
  8
Layer_2
 62
5
100
AcDbSpline
 70
0
 71
3
 72
16
 73
12
 74
10
 40
0.000000
 40
0.000000
 40
0.000000
 40
0.000000
 40
1.622046
 40
3.595045
 40
6.067237
 40
8.891343
 40
11.799571
 40
14.623677
 40
17.095869
 40
19.068868
 40
20.690914
 40
20.690914
 40
20.690914
 40
20.690914
 10
121.072876
 20
168.820815
 30
0.0
 10
120.951091
 20
169.362121
 30
0.0
 10
120.681170
 20
170.561854
 30
0.0
 10
118.987682
 20
171.876167
 30
0.0
 10
116.768298
 20
172.824425
 30
0.0
 10
114.047919
 20
173.319890
 30
0.0
 10
111.188064
 20
173.319890
 30
0.0
 10
108.467684
 20
172.824425
 30
0.0
 10
106.248301
 20
171.876167
 30
0.0
 10
104.554812
 20
170.561854
 30
0.0
 10
104.284892
 20
169.362121
 30
0.0
 10
104.163107
 20
168.820815
 30
0.0
 11
121.072876
 21
168.820815
 31
0.0
 11
120.558195
 21
170.359039
 31
0.0
 11
119.104083
 21
171.692562
 31
0.0
 11
116.845436
 21
172.697675
 31
0.0
 11
114.072105
 21
173.230788
 31
0.0
 11
111.163877
 21
173.230788
 31
0.0
 11
108.390546
 21
172.697675
 31
0.0
 11
106.131900
 21
171.692562
 31
0.0
 11
104.677788
 21
170.359039
 31
0.0
 11
104.163107
 21
168.820815
 31
0.0
  0
SPLINE
  5
187
100
AcDbEntity
  8
Layer_2
 62
5
100
AcDbSpline
 70
0
 71
3
 72
16
 73
12
 74
10
 40
0.000000
 40
0.000000
 40
0.000000
 40
0.000000
 40
1.628454
 40
3.643632
 40
6.196661
 40
9.127215
 40
12.149041
 40
15.079595
 40
17.632625
 40
19.647802
 40
21.276256
 40
21.276256
 40
21.276256
 40
21.276256
 10
104.106197
 20
168.865065
 30
0.0
 10
103.977875
 20
169.407580
 30
0.0
 10
103.690758
 20
170.621447
 30
0.0
 10
101.926870
 20
171.924609
 30
0.0
 10
99.628080
 20
172.870221
 30
0.0
 10
96.804671
 20
173.363814
 30
0.0
 10
93.837427
 20
173.363814
 30
0.0
 10
91.014018
 20
172.870221
 30
0.0
 10
88.715228
 20
171.924609
 30
0.0
 10
86.951340
 20
170.621447
 30
0.0
 10
86.664224
 20
169.407580
 30
0.0
 10
86.535902
 20
168.865065
 30
0.0
 11
104.106197
 21
168.865065
 31
0.0
 11
103.571412
 21
170.403202
 31
0.0
 11
102.060498
 21
171.736650
 31
0.0
 11
99.713623
 21
172.741705
 31
0.0
 11
96.831962
 21
173.274787
 31
0.0
 11
93.810136
 21
173.274787
 31
0.0
 11
90.928475
 21
172.741705
 31
0.0
 11
88.581600
 21
171.736650
 31
0.0
 11
87.070687
 21
170.403202
 31
0.0
 11
86.535902
 21
168.865065
 31
0.0
  0
SPLINE
  5
188
100
AcDbEntity
  8
Layer_2
 62
5
100
AcDbSpline
 70
0
 71
3
 72
16
 73
12
 74
10
 40
0.000000
 40
0.000000
 40
0.000000
 40
0.000000
 40
1.628453
 40
3.643630
 40
6.196658
 40
9.127213
 40
12.149040
 40
15.079594
 40
17.632623
 40
19.647799
 40
21.276253
 40
21.276253
 40
21.276253
 40
21.276253
 10
156.412095
 20
168.815305
 30
0.0
 10
156.283774
 20
169.357820
 30
0.0
 10
155.996658
 20
170.571687
 30
0.0
 10
154.232771
 20
171.874849
 30
0.0
 10
151.933982
 20
172.820461
 30
0.0
 10
149.110572
 20
173.314055
 30
0.0
 10
146.143328
 20
173.314055
 30
0.0
 10
143.319919
 20
172.820461
 30
0.0
 10
141.021129
 20
171.874849
 30
0.0
 10
139.257242
 20
170.571687
 30
0.0
 10
138.970127
 20
169.357820
 30
0.0
 10
138.841805
 20
168.815305
 30
0.0
 11
156.412095
 21
168.815305
 31
0.0
 11
155.877311
 21
170.353442
 31
0.0
 11
154.366399
 21
171.686889
 31
0.0
 11
152.019525
 21
172.691945
 31
0.0
 11
149.137864
 21
173.225028
 31
0.0
 11
146.116037
 21
173.225028
 31
0.0
 11
143.234375
 21
172.691945
 31
0.0
 11
140.887501
 21
171.686889
 31
0.0
 11
139.376589
 21
170.353442
 31
0.0
 11
138.841805
 21
168.815305
 31
0.0
  0
SPLINE
  5
189
100
AcDbEntity
  8
Layer_2
 62
5
100
AcDbSpline
 70
0
 71
3
 72
16
 73
12
 74
10
 40
0.000000
 40
0.000000
 40
0.000000
 40
0.000000
 40
1.624311
 40
3.612294
 40
6.113304
 40
8.975412
 40
11.924210
 40
14.786318
 40
17.287328
 40
19.275311
 40
20.899622
 40
20.899622
 40
20.899622
 40
20.899622
 10
138.255575
 20
168.859555
 30
0.0
 10
138.131468
 20
169.401301
 30
0.0
 10
137.855466
 20
170.606086
 30
0.0
 10
136.136774
 20
171.916489
 30
0.0
 10
133.888991
 20
172.863735
 30
0.0
 10
131.131834
 20
173.358525
 30
0.0
 10
128.233637
 20
173.358525
 30
0.0
 10
125.476480
 20
172.863735
 30
0.0
 10
123.228698
 20
171.916489
 30
0.0
 10
121.510006
 20
170.606086
 30
0.0
 10
121.234004
 20
169.401301
 30
0.0
 10
121.109896
 20
168.859555
 30
0.0
 11
138.255575
 21
168.859555
 31
0.0
 11
137.733717
 21
170.397752
 31
0.0
 11
136.259318
 21
171.731251
 31
0.0
 11
133.969156
 21
172.736345
 31
0.0
 11
131.157135
 21
173.269447
 31
0.0
 11
128.208336
 21
173.269447
 31
0.0
 11
125.396316
 21
172.736345
 31
0.0
 11
123.106154
 21
171.731251
 31
0.0
 11
121.631754
 21
170.397752
 31
0.0
 11
121.109896
 21
168.859555
 31
0.0
  0
SPLINE
  5
18a
100
AcDbEntity
  8
Layer_2
 62
5
100
AcDbSpline
 70
0
 71
3
 72
16
 73
12
 74
10
 40
0.000000
 40
0.000000
 40
0.000000
 40
0.000000
 40
1.628452
 40
3.643627
 40
6.196652
 40
9.127206
 40
12.149032
 40
15.079586
 40
17.632610
 40
19.647785
 40
21.276237
 40
21.276237
 40
21.276237
 40
21.276237
 10
42.594740
 20
148.121205
 30
0.0
 10
42.466416
 20
148.663720
 30
0.0
 10
42.179295
 20
149.877584
 30
0.0
 10
40.415410
 20
151.180741
 30
0.0
 10
38.116621
 20
152.126352
 30
0.0
 10
35.293214
 20
152.619945
 30
0.0
 10
32.325970
 20
152.619945
 30
0.0
 10
29.502563
 20
152.126352
 30
0.0
 10
27.203774
 20
151.180741
 30
0.0
 10
25.439889
 20
149.877584
 30
0.0
 10
25.152768
 20
148.663720
 30
0.0
 10
25.024445
 20
148.121205
 30
0.0
 11
42.594740
 21
148.121205
 31
0.0
 11
42.059950
 21
149.659339
 31
0.0
 11
40.549037
 21
150.992783
 31
0.0
 11
38.202166
 21
151.997835
 31
0.0
 11
35.320505
 21
152.530918
 31
0.0
 11
32.298679
 21
152.530918
 31
0.0
 11
29.417018
 21
151.997835
 31
0.0
 11
27.070147
 21
150.992783
 31
0.0
 11
25.559234
 21
149.659339
 31
0.0
 11
25.024445
 21
148.121205
 31
0.0
  0
LWPOLYLINE
  5
18b
100
AcDbEntity
  8
Layer_2
 62
5
100
AcDbPolyline
 90
4
 70
1
 10
112.486646
 20
205.044687
 30
0.0
 10
113.446666
 20
205.044687
 30
0.0
 10
112.978846
 20
207.837002
 30
0.0
 10
112.954546
 20
207.837002
 30
0.0
  0
LWPOLYLINE
  5
18c
100
AcDbEntity
  8
Layer_2
 62
5
100
AcDbPolyline
 90
2
 70
0
 10
-17689.259416
 20
40.688509
 30
0.0
 10
18051.677404
 20
40.688509
 30
0.0
  0
LWPOLYLINE
  5
18d
100
AcDbEntity
  8
Layer_2
 62
5
100
AcDbPolyline
 90
2
 70
0
 10
190.830434
 20
119.108996
 30
0.0
 10
217.697423
 20
119.108996
 30
0.0
  0
LWPOLYLINE
  5
18e
100
AcDbEntity
  8
Layer_2
 62
5
100
AcDbPolyline
 90
2
 70
0
 10
-11.166255
 20
118.784216
 30
0.0
 10
15.700569
 20
118.784216
 30
0.0
  0
LWPOLYLINE
  5
18f
100
AcDbEntity
  8
Layer_2
 62
5
100
AcDbPolyline
 90
2
 70
0
 10
151.773095
 20
240.957736
 30
0.0
 10
121.707196
 20
240.957736
 30
0.0
  0
LWPOLYLINE
  5
190
100
AcDbEntity
  8
Layer_2
 62
7
100
AcDbPolyline
 90
3
 70
0
 10
55.205577
 20
165.902945
 30
0.0
 10
58.689830
 20
165.902945
 30
0.0
 10
58.689830
 20
158.086925
 30
0.0
  0
LWPOLYLINE
  5
191
100
AcDbEntity
  8
Layer_2
 62
7
100
AcDbPolyline
 90
3
 70
0
 10
64.713160
 20
165.850595
 30
0.0
 10
61.228907
 20
165.850595
 30
0.0
 10
61.228907
 20
158.034575
 30
0.0
  0
LWPOLYLINE
  5
192
100
AcDbEntity
  8
Layer_2
 62
7
100
AcDbPolyline
 90
3
 70
0
 10
55.159979
 20
167.906447
 30
0.0
 10
58.644232
 20
167.906447
 30
0.0
 10
58.644229
 20
170.299055
 30
0.0
  0
LWPOLYLINE
  5
193
100
AcDbEntity
  8
Layer_2
 62
7
100
AcDbPolyline
 90
3
 70
0
 10
64.865271
 20
167.868937
 30
0.0
 10
61.381018
 20
167.868937
 30
0.0
 10
61.381021
 20
170.192809
 30
0.0
  0
LWPOLYLINE
  5
194
100
AcDbEntity
  8
Layer_2
 62
7
100
AcDbPolyline
 90
4
 70
0
 10
64.713161
 20
165.850595
 30
0.0
 10
61.228908
 20
165.850595
 30
0.0
 10
61.228908
 20
158.034575
 30
0.0
 10
64.865271
 20
158.018875
 30
0.0
  0
LWPOLYLINE
  5
195
100
AcDbEntity
  8
Layer_2
 62
5
100
AcDbPolyline
 90
3
 70
0
 10
54.238408
 20
168.635412
 30
0.0
 10
54.238408
 20
157.049842
 30
0.0
 10
65.679260
 20
156.979718
 30
0.0
  0
SPLINE
  5
196
100
AcDbEntity
  8
Layer_2
 62
5
100
AcDbSpline
 70
0
 71
3
 72
16
 73
12
 74
10
 40
0.000000
 40
0.000000
 40
0.000000
 40
0.000000
 40
1.628453
 40
3.643630
 40
6.196658
 40
9.127213
 40
12.149040
 40
15.079594
 40
17.632623
 40
19.647799
 40
21.276253
 40
21.276253
 40
21.276253
 40
21.276253
 10
181.708524
 20
147.319385
 30
0.0
 10
181.580203
 20
147.861901
 30
0.0
 10
181.293087
 20
149.075767
 30
0.0
 10
179.529200
 20
150.378929
 30
0.0
 10
177.230411
 20
151.324542
 30
0.0
 10
174.407002
 20
151.818135
 30
0.0
 10
171.439757
 20
151.818135
 30
0.0
 10
168.616348
 20
151.324542
 30
0.0
 10
166.317558
 20
150.378929
 30
0.0
 10
164.553672
 20
149.075767
 30
0.0
 10
164.266556
 20
147.861901
 30
0.0
 10
164.138235
 20
147.319385
 30
0.0
 11
181.708524
 21
147.319385
 31
0.0
 11
181.173740
 21
148.857523
 31
0.0
 11
179.662828
 21
150.190970
 31
0.0
 11
177.315954
 21
151.196025
 31
0.0
 11
174.434293
 21
151.729108
 31
0.0
 11
171.412466
 21
151.729108
 31
0.0
 11
168.530804
 21
151.196025
 31
0.0
 11
166.183930
 21
150.190970
 31
0.0
 11
164.673018
 21
148.857523
 31
0.0
 11
164.138235
 21
147.319385
 31
0.0
  0
LWPOLYLINE
  5
197
100
AcDbEntity
  8
Layer_2
 62
5
100
AcDbPolyline
 90
2
 70
0
 10
65.679260
 20
168.591197
 30
0.0
 10
65.679260
 20
156.979718
 30
0.0
  0
LWPOLYLINE
  5
198
100
AcDbEntity
  8
Layer_2
 62
7
100
AcDbPolyline
 90
3
 70
0
 10
72.803132
 20
165.839385
 30
0.0
 10
72.803132
 20
158.018885
 30
0.0
 10
76.376535
 20
157.996985
 30
0.0
  0
SPLINE
  5
199
100
AcDbEntity
  8
Layer_2
 62
5
100
AcDbSpline
 70
0
 71
3
 72
10
 73
6
 74
4
 40
0.000000
 40
0.000000
 40
0.000000
 40
0.000000
 40
4.046510
 40
9.537362
 40
13.359792
 40
13.359792
 40
13.359792
 40
13.359792
 10
54.238408
 20
168.635412
 30
0.0
 10
55.179561
 20
169.641385
 30
0.0
 10
57.397798
 20
172.012398
 30
0.0
 10
62.744753
 20
171.982893
 30
0.0
 10
64.825332
 20
169.578169
 30
0.0
 10
65.679260
 20
168.591203
 30
0.0
 11
54.238408
 21
168.635412
 31
0.0
 11
57.349687
 21
171.222725
 31
0.0
 11
62.840063
 21
171.150487
 31
0.0
 11
65.679260
 21
168.591203
 31
0.0
  0
SPLINE
  5
19a
100
AcDbEntity
  8
Layer_2
 62
7
100
AcDbSpline
 70
0
 71
3
 72
10
 73
6
 74
4
 40
0.000000
 40
0.000000
 40
0.000000
 40
0.000000
 40
1.813325
 40
3.295275
 40
4.517726
 40
4.517726
 40
4.517726
 40
4.517726
 10
79.056171
 20
170.189055
 30
0.0
 10
79.641284
 20
170.073684
 30
0.0
 10
80.704584
 20
169.864025
 30
0.0
 10
82.174673
 20
169.132267
 30
0.0
 10
82.404525
 20
168.221254
 30
0.0
 10
82.508423
 20
167.809455
 30
0.0
 11
79.056171
 21
170.189055
 31
0.0
 11
80.814235
 21
169.744803
 31
0.0
 11
82.063882
 21
168.948212
 31
0.0
 11
82.508423
 21
167.809455
 31
0.0
  0
LWPOLYLINE
  5
19b
100
AcDbEntity
  8
Layer_2
 62
7
100
AcDbPolyline
 90
2
 70
0
 10
82.508423
 20
165.836955
 30
0.0
 10
82.508423
 20
157.959405
 30
0.0
  0
LWPOLYLINE
  5
19c
100
AcDbEntity
  8
Layer_2
 62
7
100
AcDbPolyline
 90
3
 70
0
 10
72.848730
 20
165.843455
 30
0.0
 10
76.332982
 20
165.843455
 30
0.0
 10
76.332982
 20
158.027435
 30
0.0
  0
LWPOLYLINE
  5
19d
100
AcDbEntity
  8
Layer_2
 62
7
100
AcDbPolyline
 90
3
 70
0
 10
82.356312
 20
165.791105
 30
0.0
 10
78.872059
 20
165.791105
 30
0.0
 10
78.872059
 20
157.975085
 30
0.0
  0
LWPOLYLINE
  5
19e
100
AcDbEntity
  8
Layer_2
 62
7
100
AcDbPolyline
 90
3
 70
0
 10
72.803132
 20
167.846955
 30
0.0
 10
76.287384
 20
167.846955
 30
0.0
 10
76.287381
 20
170.239565
 30
0.0
  0
LWPOLYLINE
  5
19f
100
AcDbEntity
  8
Layer_2
 62
7
100
AcDbPolyline
 90
3
 70
0
 10
82.508423
 20
167.809445
 30
0.0
 10
79.024170
 20
167.809445
 30
0.0
 10
79.024173
 20
170.133315
 30
0.0
  0
LWPOLYLINE
  5
1a0
100
AcDbEntity
  8
Layer_2
 62
7
100
AcDbPolyline
 90
4
 70
0
 10
82.356313
 20
165.791105
 30
0.0
 10
78.872060
 20
165.791105
 30
0.0
 10
78.872060
 20
157.975085
 30
0.0
 10
82.508423
 20
157.959385
 30
0.0
  0
LWPOLYLINE
  5
1a1
100
AcDbEntity
  8
Layer_2
 62
5
100
AcDbPolyline
 90
3
 70
0
 10
71.881558
 20
168.575912
 30
0.0
 10
71.881558
 20
156.990342
 30
0.0
 10
83.322409
 20
156.920218
 30
0.0
  0
SPLINE
  5
1a2
100
AcDbEntity
  8
Layer_2
 62
7
100
AcDbSpline
 70
0
 71
3
 72
10
 73
6
 74
4
 40
0.000000
 40
0.000000
 40
0.000000
 40
0.000000
 40
1.262004
 40
2.732398
 40
4.485393
 40
4.485393
 40
4.485393
 40
4.485393
 10
72.803132
 20
167.846955
 30
0.0
 10
72.937868
 20
168.261183
 30
0.0
 10
73.229590
 20
169.158039
 30
0.0
 10
74.666058
 20
169.885828
 30
0.0
 10
75.711033
 20
170.086871
 30
0.0
 10
76.279327
 20
170.196205
 30
0.0
 11
72.803132
 21
167.846955
 31
0.0
 11
73.331780
 21
168.992897
 31
0.0
 11
74.578190
 21
169.772975
 31
0.0
 11
76.279327
 21
170.196205
 31
0.0
  0
LWPOLYLINE
  5
1a3
100
AcDbEntity
  8
Layer_2
 62
5
100
AcDbPolyline
 90
2
 70
0
 10
83.322409
 20
168.531697
 30
0.0
 10
83.322409
 20
156.920218
 30
0.0
  0
LWPOLYLINE
  5
1a4
100
AcDbEntity
  8
Layer_2
 62
7
100
AcDbPolyline
 90
3
 70
0
 10
90.214164
 20
165.812355
 30
0.0
 10
90.214164
 20
157.991865
 30
0.0
 10
93.787568
 20
157.969965
 30
0.0
  0
SPLINE
  5
1a5
100
AcDbEntity
  8
Layer_2
 62
5
100
AcDbSpline
 70
0
 71
3
 72
10
 73
6
 74
4
 40
0.000000
 40
0.000000
 40
0.000000
 40
0.000000
 40
4.046510
 40
9.537362
 40
13.359792
 40
13.359792
 40
13.359792
 40
13.359792
 10
71.881558
 20
168.575912
 30
0.0
 10
72.822711
 20
169.581885
 30
0.0
 10
75.040947
 20
171.952898
 30
0.0
 10
80.387902
 20
171.923393
 30
0.0
 10
82.468482
 20
169.518669
 30
0.0
 10
83.322409
 20
168.531703
 30
0.0
 11
71.881558
 21
168.575912
 31
0.0
 11
74.992836
 21
171.163225
 31
0.0
 11
80.483212
 21
171.090987
 31
0.0
 11
83.322409
 21
168.531703
 31
0.0
  0
SPLINE
  5
1a6
100
AcDbEntity
  8
Layer_2
 62
7
100
AcDbSpline
 70
0
 71
3
 72
10
 73
6
 74
4
 40
0.000000
 40
0.000000
 40
0.000000
 40
0.000000
 40
1.813326
 40
3.295276
 40
4.517721
 40
4.517721
 40
4.517721
 40
4.517721
 10
96.467204
 20
170.162035
 30
0.0
 10
97.052317
 20
170.046661
 30
0.0
 10
98.115616
 20
169.836997
 30
0.0
 10
99.585704
 20
169.105242
 30
0.0
 10
99.815557
 20
168.194231
 30
0.0
 10
99.919456
 20
167.782435
 30
0.0
 11
96.467204
 21
170.162035
 31
0.0
 11
98.225267
 21
169.717777
 31
0.0
 11
99.474915
 21
168.921186
 31
0.0
 11
99.919456
 21
167.782435
 31
0.0
  0
LWPOLYLINE
  5
1a7
100
AcDbEntity
  8
Layer_2
 62
7
100
AcDbPolyline
 90
2
 70
0
 10
99.919456
 20
165.809925
 30
0.0
 10
99.919456
 20
157.932375
 30
0.0
  0
LWPOLYLINE
  5
1a8
100
AcDbEntity
  8
Layer_2
 62
7
100
AcDbPolyline
 90
3
 70
0
 10
90.259762
 20
165.816425
 30
0.0
 10
93.744015
 20
165.816425
 30
0.0
 10
93.744015
 20
158.000405
 30
0.0
  0
LWPOLYLINE
  5
1a9
100
AcDbEntity
  8
Layer_2
 62
7
100
AcDbPolyline
 90
3
 70
0
 10
99.767345
 20
165.764075
 30
0.0
 10
96.283092
 20
165.764075
 30
0.0
 10
96.283092
 20
157.948055
 30
0.0
  0
LWPOLYLINE
  5
1aa
100
AcDbEntity
  8
Layer_2
 62
7
100
AcDbPolyline
 90
3
 70
0
 10
90.214164
 20
167.819925
 30
0.0
 10
93.698417
 20
167.819925
 30
0.0
 10
93.698414
 20
170.212535
 30
0.0
  0
LWPOLYLINE
  5
1ab
100
AcDbEntity
  8
Layer_2
 62
7
100
AcDbPolyline
 90
3
 70
0
 10
99.919456
 20
167.782415
 30
0.0
 10
96.435203
 20
167.782415
 30
0.0
 10
96.435206
 20
170.106295
 30
0.0
  0
LWPOLYLINE
  5
1ac
100
AcDbEntity
  8
Layer_2
 62
7
100
AcDbPolyline
 90
4
 70
0
 10
99.767346
 20
165.764075
 30
0.0
 10
96.283093
 20
165.764075
 30
0.0
 10
96.283093
 20
157.948055
 30
0.0
 10
99.919456
 20
157.932355
 30
0.0
  0
LWPOLYLINE
  5
1ad
100
AcDbEntity
  8
Layer_2
 62
5
100
AcDbPolyline
 90
3
 70
0
 10
89.292557
 20
168.548812
 30
0.0
 10
89.292557
 20
156.963242
 30
0.0
 10
100.733409
 20
156.893118
 30
0.0
  0
SPLINE
  5
1ae
100
AcDbEntity
  8
Layer_2
 62
7
100
AcDbSpline
 70
0
 71
3
 72
10
 73
6
 74
4
 40
0.000000
 40
0.000000
 40
0.000000
 40
0.000000
 40
1.262008
 40
2.732403
 40
4.485399
 40
4.485399
 40
4.485399
 40
4.485399
 10
90.214164
 20
167.819925
 30
0.0
 10
90.348900
 20
168.234155
 30
0.0
 10
90.640621
 20
169.131014
 30
0.0
 10
92.077091
 20
169.858803
 30
0.0
 10
93.122065
 20
170.059849
 30
0.0
 10
93.690360
 20
170.169185
 30
0.0
 11
90.214164
 21
167.819925
 31
0.0
 11
90.742813
 21
168.965872
 31
0.0
 11
91.989223
 21
169.745951
 31
0.0
 11
93.690360
 21
170.169185
 31
0.0
  0
LWPOLYLINE
  5
1af
100
AcDbEntity
  8
Layer_2
 62
5
100
AcDbPolyline
 90
2
 70
0
 10
100.733409
 20
168.504597
 30
0.0
 10
100.733409
 20
156.893118
 30
0.0
  0
LWPOLYLINE
  5
1b0
100
AcDbEntity
  8
Layer_2
 62
7
100
AcDbPolyline
 90
3
 70
0
 10
107.363576
 20
165.774845
 30
0.0
 10
107.363576
 20
157.954345
 30
0.0
 10
110.936976
 20
157.932445
 30
0.0
  0
SPLINE
  5
1b1
100
AcDbEntity
  8
Layer_2
 62
5
100
AcDbSpline
 70
0
 71
3
 72
10
 73
6
 74
4
 40
0.000000
 40
0.000000
 40
0.000000
 40
0.000000
 40
4.046510
 40
9.537362
 40
13.359792
 40
13.359792
 40
13.359792
 40
13.359792
 10
89.292557
 20
168.548812
 30
0.0
 10
90.233710
 20
169.554785
 30
0.0
 10
92.451947
 20
171.925798
 30
0.0
 10
97.798902
 20
171.896293
 30
0.0
 10
99.879481
 20
169.491569
 30
0.0
 10
100.733409
 20
168.504603
 30
0.0
 11
89.292557
 21
168.548812
 31
0.0
 11
92.403836
 21
171.136125
 31
0.0
 11
97.894212
 21
171.063887
 31
0.0
 11
100.733409
 21
168.504603
 31
0.0
  0
SPLINE
  5
1b2
100
AcDbEntity
  8
Layer_2
 62
7
100
AcDbSpline
 70
0
 71
3
 72
10
 73
6
 74
4
 40
0.000000
 40
0.000000
 40
0.000000
 40
0.000000
 40
1.813328
 40
3.295278
 40
4.517729
 40
4.517729
 40
4.517729
 40
4.517729
 10
113.616616
 20
170.124525
 30
0.0
 10
114.201730
 20
170.009151
 30
0.0
 10
115.265030
 20
169.799488
 30
0.0
 10
116.735118
 20
169.067728
 30
0.0
 10
116.964969
 20
168.156714
 30
0.0
 10
117.068866
 20
167.744915
 30
0.0
 11
113.616616
 21
170.124525
 31
0.0
 11
115.374682
 21
169.680266
 31
0.0
 11
116.624327
 21
168.883673
 31
0.0
 11
117.068866
 21
167.744915
 31
0.0
  0
LWPOLYLINE
  5
1b3
100
AcDbEntity
  8
Layer_2
 62
7
100
AcDbPolyline
 90
2
 70
0
 10
117.068866
 20
165.772415
 30
0.0
 10
117.068866
 20
157.894865
 30
0.0
  0
LWPOLYLINE
  5
1b4
100
AcDbEntity
  8
Layer_2
 62
7
100
AcDbPolyline
 90
3
 70
0
 10
107.409176
 20
165.778915
 30
0.0
 10
110.893426
 20
165.778915
 30
0.0
 10
110.893426
 20
157.962895
 30
0.0
  0
LWPOLYLINE
  5
1b5
100
AcDbEntity
  8
Layer_2
 62
7
100
AcDbPolyline
 90
3
 70
0
 10
116.916756
 20
165.726565
 30
0.0
 10
113.432506
 20
165.726565
 30
0.0
 10
113.432506
 20
157.910545
 30
0.0
  0
LWPOLYLINE
  5
1b6
100
AcDbEntity
  8
Layer_2
 62
7
100
AcDbPolyline
 90
3
 70
0
 10
107.363576
 20
167.782415
 30
0.0
 10
110.847826
 20
167.782415
 30
0.0
 10
110.847826
 20
170.175025
 30
0.0
  0
LWPOLYLINE
  5
1b7
100
AcDbEntity
  8
Layer_2
 62
7
100
AcDbPolyline
 90
3
 70
0
 10
117.068866
 20
167.744905
 30
0.0
 10
113.584616
 20
167.744905
 30
0.0
 10
113.584616
 20
170.068775
 30
0.0
  0
LWPOLYLINE
  5
1b8
100
AcDbEntity
  8
Layer_2
 62
7
100
AcDbPolyline
 90
4
 70
0
 10
116.916756
 20
165.726565
 30
0.0
 10
113.432506
 20
165.726565
 30
0.0
 10
113.432506
 20
157.910545
 30
0.0
 10
117.068866
 20
157.894845
 30
0.0
  0
LWPOLYLINE
  5
1b9
100
AcDbEntity
  8
Layer_2
 62
5
100
AcDbPolyline
 90
3
 70
0
 10
106.441957
 20
168.511312
 30
0.0
 10
106.441957
 20
156.925742
 30
0.0
 10
117.882808
 20
156.855618
 30
0.0
  0
SPLINE
  5
1ba
100
AcDbEntity
  8
Layer_2
 62
7
100
AcDbSpline
 70
0
 71
3
 72
10
 73
6
 74
4
 40
0.000000
 40
0.000000
 40
0.000000
 40
0.000000
 40
1.262006
 40
2.732398
 40
4.485395
 40
4.485395
 40
4.485395
 40
4.485395
 10
107.363576
 20
167.782415
 30
0.0
 10
107.498315
 20
168.196643
 30
0.0
 10
107.790039
 20
169.093498
 30
0.0
 10
109.226505
 20
169.821289
 30
0.0
 10
110.271481
 20
170.022331
 30
0.0
 10
110.839776
 20
170.131665
 30
0.0
 11
107.363576
 21
167.782415
 31
0.0
 11
107.892229
 21
168.928357
 31
0.0
 11
109.138637
 21
169.708435
 31
0.0
 11
110.839776
 21
170.131665
 31
0.0
  0
LWPOLYLINE
  5
1bb
100
AcDbEntity
  8
Layer_2
 62
5
100
AcDbPolyline
 90
2
 70
0
 10
117.882808
 20
168.467097
 30
0.0
 10
117.882808
 20
156.855618
 30
0.0
  0
LWPOLYLINE
  5
1bc
100
AcDbEntity
  8
Layer_2
 62
7
100
AcDbPolyline
 90
3
 70
0
 10
124.774646
 20
165.801875
 30
0.0
 10
124.774646
 20
157.981385
 30
0.0
 10
128.348046
 20
157.959485
 30
0.0
  0
SPLINE
  5
1bd
100
AcDbEntity
  8
Layer_2
 62
5
100
AcDbSpline
 70
0
 71
3
 72
10
 73
6
 74
4
 40
0.000000
 40
0.000000
 40
0.000000
 40
0.000000
 40
4.046510
 40
9.537362
 40
13.359792
 40
13.359792
 40
13.359792
 40
13.359792
 10
106.441957
 20
168.511312
 30
0.0
 10
107.383110
 20
169.517285
 30
0.0
 10
109.601346
 20
171.888298
 30
0.0
 10
114.948301
 20
171.858793
 30
0.0
 10
117.028880
 20
169.454069
 30
0.0
 10
117.882808
 20
168.467103
 30
0.0
 11
106.441957
 21
168.511312
 31
0.0
 11
109.553235
 21
171.098625
 31
0.0
 11
115.043611
 21
171.026387
 31
0.0
 11
117.882808
 21
168.467103
 31
0.0
  0
SPLINE
  5
1be
100
AcDbEntity
  8
Layer_2
 62
7
100
AcDbSpline
 70
0
 71
3
 72
10
 73
6
 74
4
 40
0.000000
 40
0.000000
 40
0.000000
 40
0.000000
 40
1.813324
 40
3.295274
 40
4.517719
 40
4.517719
 40
4.517719
 40
4.517719
 10
131.027686
 20
170.151555
 30
0.0
 10
131.612798
 20
170.036181
 30
0.0
 10
132.676096
 20
169.826516
 30
0.0
 10
134.146183
 20
169.094762
 30
0.0
 10
134.376037
 20
168.183751
 30
0.0
 10
134.479936
 20
167.771955
 30
0.0
 11
131.027686
 21
170.151555
 31
0.0
 11
132.785747
 21
169.707297
 31
0.0
 11
134.035394
 21
168.910706
 31
0.0
 11
134.479936
 21
167.771955
 31
0.0
  0
LWPOLYLINE
  5
1bf
100
AcDbEntity
  8
Layer_2
 62
7
100
AcDbPolyline
 90
2
 70
0
 10
134.479936
 20
165.799445
 30
0.0
 10
134.479936
 20
157.921895
 30
0.0
  0
LWPOLYLINE
  5
1c0
100
AcDbEntity
  8
Layer_2
 62
7
100
AcDbPolyline
 90
3
 70
0
 10
124.820246
 20
165.805945
 30
0.0
 10
128.304496
 20
165.805945
 30
0.0
 10
128.304496
 20
157.989925
 30
0.0
  0
LWPOLYLINE
  5
1c1
100
AcDbEntity
  8
Layer_2
 62
7
100
AcDbPolyline
 90
3
 70
0
 10
134.327826
 20
165.753595
 30
0.0
 10
130.843576
 20
165.753595
 30
0.0
 10
130.843576
 20
157.937575
 30
0.0
  0
LWPOLYLINE
  5
1c2
100
AcDbEntity
  8
Layer_2
 62
7
100
AcDbPolyline
 90
3
 70
0
 10
124.774646
 20
167.809445
 30
0.0
 10
128.258896
 20
167.809445
 30
0.0
 10
128.258896
 20
170.202055
 30
0.0
  0
LWPOLYLINE
  5
1c3
100
AcDbEntity
  8
Layer_2
 62
7
100
AcDbPolyline
 90
3
 70
0
 10
134.479936
 20
167.771935
 30
0.0
 10
130.995686
 20
167.771935
 30
0.0
 10
130.995686
 20
170.095815
 30
0.0
  0
LWPOLYLINE
  5
1c4
100
AcDbEntity
  8
Layer_2
 62
7
100
AcDbPolyline
 90
4
 70
0
 10
134.327826
 20
165.753595
 30
0.0
 10
130.843576
 20
165.753595
 30
0.0
 10
130.843576
 20
157.937575
 30
0.0
 10
134.479936
 20
157.921875
 30
0.0
  0
LWPOLYLINE
  5
1c5
100
AcDbEntity
  8
Layer_2
 62
5
100
AcDbPolyline
 90
3
 70
0
 10
123.853056
 20
168.538412
 30
0.0
 10
123.853056
 20
156.952842
 30
0.0
 10
135.293908
 20
156.882718
 30
0.0
  0
SPLINE
  5
1c6
100
AcDbEntity
  8
Layer_2
 62
7
100
AcDbSpline
 70
0
 71
3
 72
10
 73
6
 74
4
 40
0.000000
 40
0.000000
 40
0.000000
 40
0.000000
 40
1.262010
 40
2.732401
 40
4.485392
 40
4.485392
 40
4.485392
 40
4.485392
 10
124.774646
 20
167.809445
 30
0.0
 10
124.909383
 20
168.223675
 30
0.0
 10
125.201106
 20
169.120531
 30
0.0
 10
126.637571
 20
169.848323
 30
0.0
 10
127.682543
 20
170.049369
 30
0.0
 10
128.250836
 20
170.158705
 30
0.0
 11
124.774646
 21
167.809445
 31
0.0
 11
125.303298
 21
168.955392
 31
0.0
 11
126.549704
 21
169.735471
 31
0.0
 11
128.250836
 21
170.158705
 31
0.0
  0
LWPOLYLINE
  5
1c7
100
AcDbEntity
  8
Layer_2
 62
5
100
AcDbPolyline
 90
2
 70
0
 10
135.293908
 20
168.494197
 30
0.0
 10
135.293908
 20
156.882718
 30
0.0
  0
LWPOLYLINE
  5
1c8
100
AcDbEntity
  8
Layer_2
 62
7
100
AcDbPolyline
 90
3
 70
0
 10
142.417805
 20
165.861365
 30
0.0
 10
142.417805
 20
158.040865
 30
0.0
 10
145.991205
 20
158.018965
 30
0.0
  0
SPLINE
  5
1c9
100
AcDbEntity
  8
Layer_2
 62
5
100
AcDbSpline
 70
0
 71
3
 72
10
 73
6
 74
4
 40
0.000000
 40
0.000000
 40
0.000000
 40
0.000000
 40
4.046510
 40
9.537362
 40
13.359792
 40
13.359792
 40
13.359792
 40
13.359792
 10
123.853056
 20
168.538412
 30
0.0
 10
124.794209
 20
169.544385
 30
0.0
 10
127.012446
 20
171.915398
 30
0.0
 10
132.359400
 20
171.885893
 30
0.0
 10
134.439980
 20
169.481169
 30
0.0
 10
135.293908
 20
168.494203
 30
0.0
 11
123.853056
 21
168.538412
 31
0.0
 11
126.964335
 21
171.125725
 31
0.0
 11
132.454710
 21
171.053487
 31
0.0
 11
135.293908
 21
168.494203
 31
0.0
  0
SPLINE
  5
1ca
100
AcDbEntity
  8
Layer_2
 62
7
100
AcDbSpline
 70
0
 71
3
 72
10
 73
6
 74
4
 40
0.000000
 40
0.000000
 40
0.000000
 40
0.000000
 40
1.813322
 40
3.295273
 40
4.517723
 40
4.517723
 40
4.517723
 40
4.517723
 10
148.670845
 20
170.211035
 30
0.0
 10
149.255957
 20
170.095663
 30
0.0
 10
150.319256
 20
169.886004
 30
0.0
 10
151.789345
 20
169.154248
 30
0.0
 10
152.019197
 20
168.243234
 30
0.0
 10
152.123095
 20
167.831435
 30
0.0
 11
148.670845
 21
170.211035
 31
0.0
 11
150.428906
 21
169.766783
 31
0.0
 11
151.678554
 21
168.970192
 31
0.0
 11
152.123095
 21
167.831435
 31
0.0
  0
LWPOLYLINE
  5
1cb
100
AcDbEntity
  8
Layer_2
 62
7
100
AcDbPolyline
 90
2
 70
0
 10
152.123095
 20
165.858935
 30
0.0
 10
152.123095
 20
157.981385
 30
0.0
  0
LWPOLYLINE
  5
1cc
100
AcDbEntity
  8
Layer_2
 62
7
100
AcDbPolyline
 90
3
 70
0
 10
142.463405
 20
165.865425
 30
0.0
 10
145.947655
 20
165.865425
 30
0.0
 10
145.947655
 20
158.049415
 30
0.0
  0
LWPOLYLINE
  5
1cd
100
AcDbEntity
  8
Layer_2
 62
7
100
AcDbPolyline
 90
3
 70
0
 10
151.970985
 20
165.813075
 30
0.0
 10
148.486735
 20
165.813075
 30
0.0
 10
148.486735
 20
157.997065
 30
0.0
  0
LWPOLYLINE
  5
1ce
100
AcDbEntity
  8
Layer_2
 62
7
100
AcDbPolyline
 90
3
 70
0
 10
142.417805
 20
167.868935
 30
0.0
 10
145.902055
 20
167.868935
 30
0.0
 10
145.902055
 20
170.261545
 30
0.0
  0
LWPOLYLINE
  5
1cf
100
AcDbEntity
  8
Layer_2
 62
7
100
AcDbPolyline
 90
3
 70
0
 10
152.123095
 20
167.831425
 30
0.0
 10
148.638845
 20
167.831425
 30
0.0
 10
148.638845
 20
170.155295
 30
0.0
  0
LWPOLYLINE
  5
1d0
100
AcDbEntity
  8
Layer_2
 62
7
100
AcDbPolyline
 90
4
 70
0
 10
151.970985
 20
165.813075
 30
0.0
 10
148.486735
 20
165.813075
 30
0.0
 10
148.486735
 20
157.997065
 30
0.0
 10
152.123095
 20
157.981365
 30
0.0
  0
LWPOLYLINE
  5
1d1
100
AcDbEntity
  8
Layer_2
 62
5
100
AcDbPolyline
 90
3
 70
0
 10
141.496255
 20
168.597812
 30
0.0
 10
141.496255
 20
157.012242
 30
0.0
 10
152.937107
 20
156.942118
 30
0.0
  0
SPLINE
  5
1d2
100
AcDbEntity
  8
Layer_2
 62
7
100
AcDbSpline
 70
0
 71
3
 72
10
 73
6
 74
4
 40
0.000000
 40
0.000000
 40
0.000000
 40
0.000000
 40
1.262003
 40
2.732393
 40
4.485384
 40
4.485384
 40
4.485384
 40
4.485384
 10
142.417805
 20
167.868935
 30
0.0
 10
142.552543
 20
168.283162
 30
0.0
 10
142.844268
 20
169.180015
 30
0.0
 10
144.280731
 20
169.907803
 30
0.0
 10
145.325702
 20
170.108849
 30
0.0
 10
145.893995
 20
170.218185
 30
0.0
 11
142.417805
 21
167.868935
 31
0.0
 11
142.946458
 21
169.014875
 31
0.0
 11
144.192863
 21
169.794951
 31
0.0
 11
145.893995
 21
170.218185
 31
0.0
  0
LWPOLYLINE
  5
1d3
100
AcDbEntity
  8
Layer_2
 62
5
100
AcDbPolyline
 90
2
 70
0
 10
152.937107
 20
168.553597
 30
0.0
 10
152.937107
 20
156.942118
 30
0.0
  0
LWPOLYLINE
  5
1d4
100
AcDbEntity
  8
Layer_2
 62
5
100
AcDbPolyline
 90
3
 70
0
 10
185.499614
 20
156.197765
 30
0.0
 10
185.499944
 20
156.181965
 30
0.0
 10
161.342125
 20
156.118965
 30
0.0
  0
LWPOLYLINE
  5
1d5
100
AcDbEntity
  8
Layer_2
 62
5
100
AcDbPolyline
 90
2
 70
0
 10
52.061204
 20
156.353575
 30
0.0
 10
156.069155
 20
156.353575
 30
0.0
  0
LWPOLYLINE
  5
1d6
100
AcDbEntity
  8
Layer_2
 62
5
100
AcDbPolyline
 90
2
 70
0
 10
21.068299
 20
156.382185
 30
0.0
 10
46.678244
 20
156.382185
 30
0.0
  0
LWPOLYLINE
  5
1d7
100
AcDbEntity
  8
Layer_2
 62
5
100
AcDbPolyline
 90
2
 70
0
 10
156.181065
 20
176.742894
 30
0.0
 10
160.908775
 20
176.742894
 30
0.0
  0
LWPOLYLINE
  5
1d8
100
AcDbEntity
  8
Layer_2
 62
5
100
AcDbPolyline
 90
2
 70
0
 10
156.072415
 20
174.520884
 30
0.0
 10
160.800125
 20
174.520884
 30
0.0
  0
LWPOLYLINE
  5
1d9
100
AcDbEntity
  8
Layer_2
 62
5
100
AcDbPolyline
 90
2
 70
0
 10
156.043495
 20
172.207435
 30
0.0
 10
160.771205
 20
172.207435
 30
0.0
  0
LWPOLYLINE
  5
1da
100
AcDbEntity
  8
Layer_2
 62
5
100
AcDbPolyline
 90
2
 70
0
 10
155.934845
 20
169.985425
 30
0.0
 10
160.662555
 20
169.985425
 30
0.0
  0
LWPOLYLINE
  5
1db
100
AcDbEntity
  8
Layer_2
 62
5
100
AcDbPolyline
 90
2
 70
0
 10
156.112275
 20
167.536965
 30
0.0
 10
160.839985
 20
167.536965
 30
0.0
  0
LWPOLYLINE
  5
1dc
100
AcDbEntity
  8
Layer_2
 62
5
100
AcDbPolyline
 90
2
 70
0
 10
156.003625
 20
165.314955
 30
0.0
 10
160.731335
 20
165.314955
 30
0.0
  0
LWPOLYLINE
  5
1dd
100
AcDbEntity
  8
Layer_2
 62
5
100
AcDbPolyline
 90
2
 70
0
 10
155.974705
 20
163.001505
 30
0.0
 10
160.702415
 20
163.001505
 30
0.0
  0
LWPOLYLINE
  5
1de
100
AcDbEntity
  8
Layer_2
 62
5
100
AcDbPolyline
 90
2
 70
0
 10
155.866055
 20
160.779495
 30
0.0
 10
160.593765
 20
160.779495
 30
0.0
  0
LWPOLYLINE
  5
1df
100
AcDbEntity
  8
Layer_2
 62
5
100
AcDbPolyline
 90
2
 70
0
 10
156.032145
 20
158.150455
 30
0.0
 10
160.759855
 20
158.150455
 30
0.0
  0
LWPOLYLINE
  5
1e0
100
AcDbEntity
  8
Layer_2
 62
5
100
AcDbPolyline
 90
2
 70
0
 10
156.069155
 20
155.824405
 30
0.0
 10
160.796865
 20
155.824405
 30
0.0
  0
LWPOLYLINE
  5
1e1
100
AcDbEntity
  8
Layer_2
 62
5
100
AcDbPolyline
 90
2
 70
0
 10
156.040235
 20
153.510955
 30
0.0
 10
160.767945
 20
153.510955
 30
0.0
  0
LWPOLYLINE
  5
1e2
100
AcDbEntity
  8
Layer_2
 62
5
100
AcDbPolyline
 90
2
 70
0
 10
155.931585
 20
151.288945
 30
0.0
 10
160.659295
 20
151.288945
 30
0.0
  0
LWPOLYLINE
  5
1e3
100
AcDbEntity
  8
Layer_2
 62
5
100
AcDbPolyline
 90
2
 70
0
 10
156.029045
 20
148.768585
 30
0.0
 10
160.756755
 20
148.768585
 30
0.0
  0
LWPOLYLINE
  5
1e4
100
AcDbEntity
  8
Layer_2
 62
5
100
AcDbPolyline
 90
2
 70
0
 10
155.920395
 20
146.546575
 30
0.0
 10
160.648105
 20
146.546575
 30
0.0
  0
LWPOLYLINE
  5
1e5
100
AcDbEntity
  8
Layer_2
 62
5
100
AcDbPolyline
 90
2
 70
0
 10
155.891475
 20
144.233125
 30
0.0
 10
160.619185
 20
144.233125
 30
0.0
  0
LWPOLYLINE
  5
1e6
100
AcDbEntity
  8
Layer_2
 62
5
100
AcDbPolyline
 90
2
 70
0
 10
155.782825
 20
142.011116
 30
0.0
 10
160.510535
 20
142.011116
 30
0.0
  0
LWPOLYLINE
  5
1e7
100
AcDbEntity
  8
Layer_2
 62
5
100
AcDbPolyline
 90
2
 70
0
 10
155.948915
 20
139.382076
 30
0.0
 10
160.676625
 20
139.382076
 30
0.0
  0
LWPOLYLINE
  5
1e8
100
AcDbEntity
  8
Layer_2
 62
5
100
AcDbPolyline
 90
2
 70
0
 10
155.985925
 20
137.056016
 30
0.0
 10
160.713635
 20
137.056016
 30
0.0
  0
LWPOLYLINE
  5
1e9
100
AcDbEntity
  8
Layer_2
 62
5
100
AcDbPolyline
 90
2
 70
0
 10
155.957005
 20
134.742566
 30
0.0
 10
160.684715
 20
134.742566
 30
0.0
  0
LWPOLYLINE
  5
1ea
100
AcDbEntity
  8
Layer_2
 62
5
100
AcDbPolyline
 90
2
 70
0
 10
155.848355
 20
132.520556
 30
0.0
 10
160.576065
 20
132.520556
 30
0.0
  0
LWPOLYLINE
  5
1eb
100
AcDbEntity
  8
Layer_2
 62
5
100
AcDbPolyline
 90
2
 70
0
 10
155.822705
 20
130.157066
 30
0.0
 10
160.550415
 20
130.157066
 30
0.0
  0
LWPOLYLINE
  5
1ec
100
AcDbEntity
  8
Layer_2
 62
5
100
AcDbPolyline
 90
2
 70
0
 10
46.790154
 20
177.300674
 30
0.0
 10
51.517864
 20
177.300674
 30
0.0
  0
LWPOLYLINE
  5
1ed
100
AcDbEntity
  8
Layer_2
 62
5
100
AcDbPolyline
 90
2
 70
0
 10
46.681504
 20
175.078664
 30
0.0
 10
51.409214
 20
175.078664
 30
0.0
  0
LWPOLYLINE
  5
1ee
100
AcDbEntity
  8
Layer_2
 62
5
100
AcDbPolyline
 90
2
 70
0
 10
46.652584
 20
172.765214
 30
0.0
 10
51.380294
 20
172.765214
 30
0.0
  0
LWPOLYLINE
  5
1ef
100
AcDbEntity
  8
Layer_2
 62
5
100
AcDbPolyline
 90
2
 70
0
 10
46.543934
 20
170.543205
 30
0.0
 10
51.271644
 20
170.543205
 30
0.0
  0
LWPOLYLINE
  5
1f0
100
AcDbEntity
  8
Layer_2
 62
5
100
AcDbPolyline
 90
2
 70
0
 10
46.721364
 20
168.094745
 30
0.0
 10
51.449074
 20
168.094745
 30
0.0
  0
LWPOLYLINE
  5
1f1
100
AcDbEntity
  8
Layer_2
 62
5
100
AcDbPolyline
 90
2
 70
0
 10
46.612714
 20
165.872735
 30
0.0
 10
51.340424
 20
165.872735
 30
0.0
  0
LWPOLYLINE
  5
1f2
100
AcDbEntity
  8
Layer_2
 62
5
100
AcDbPolyline
 90
2
 70
0
 10
46.583794
 20
163.559285
 30
0.0
 10
51.311504
 20
163.559285
 30
0.0
  0
LWPOLYLINE
  5
1f3
100
AcDbEntity
  8
Layer_2
 62
5
100
AcDbPolyline
 90
2
 70
0
 10
46.475144
 20
161.337275
 30
0.0
 10
51.202854
 20
161.337275
 30
0.0
  0
LWPOLYLINE
  5
1f4
100
AcDbEntity
  8
Layer_2
 62
5
100
AcDbPolyline
 90
2
 70
0
 10
46.641234
 20
158.708235
 30
0.0
 10
51.368944
 20
158.708235
 30
0.0
  0
LWPOLYLINE
  5
1f5
100
AcDbEntity
  8
Layer_2
 62
5
100
AcDbPolyline
 90
2
 70
0
 10
46.678244
 20
156.382185
 30
0.0
 10
51.405954
 20
156.382185
 30
0.0
  0
LWPOLYLINE
  5
1f6
100
AcDbEntity
  8
Layer_2
 62
5
100
AcDbPolyline
 90
2
 70
0
 10
46.649324
 20
154.068735
 30
0.0
 10
51.377034
 20
154.068735
 30
0.0
  0
LWPOLYLINE
  5
1f7
100
AcDbEntity
  8
Layer_2
 62
5
100
AcDbPolyline
 90
2
 70
0
 10
46.540674
 20
151.846725
 30
0.0
 10
51.268384
 20
151.846725
 30
0.0
  0
LWPOLYLINE
  5
1f8
100
AcDbEntity
  8
Layer_2
 62
5
100
AcDbPolyline
 90
2
 70
0
 10
46.638134
 20
149.326365
 30
0.0
 10
51.365844
 20
149.326365
 30
0.0
  0
LWPOLYLINE
  5
1f9
100
AcDbEntity
  8
Layer_2
 62
5
100
AcDbPolyline
 90
2
 70
0
 10
46.529484
 20
147.104355
 30
0.0
 10
51.257194
 20
147.104355
 30
0.0
  0
LWPOLYLINE
  5
1fa
100
AcDbEntity
  8
Layer_2
 62
5
100
AcDbPolyline
 90
2
 70
0
 10
46.500564
 20
144.790905
 30
0.0
 10
51.228274
 20
144.790905
 30
0.0
  0
LWPOLYLINE
  5
1fb
100
AcDbEntity
  8
Layer_2
 62
5
100
AcDbPolyline
 90
2
 70
0
 10
46.391914
 20
142.568895
 30
0.0
 10
51.119624
 20
142.568895
 30
0.0
  0
LWPOLYLINE
  5
1fc
100
AcDbEntity
  8
Layer_2
 62
5
100
AcDbPolyline
 90
2
 70
0
 10
46.558004
 20
139.939856
 30
0.0
 10
51.285714
 20
139.939856
 30
0.0
  0
LWPOLYLINE
  5
1fd
100
AcDbEntity
  8
Layer_2
 62
5
100
AcDbPolyline
 90
2
 70
0
 10
46.595014
 20
137.613796
 30
0.0
 10
51.322724
 20
137.613796
 30
0.0
  0
LWPOLYLINE
  5
1fe
100
AcDbEntity
  8
Layer_2
 62
5
100
AcDbPolyline
 90
2
 70
0
 10
46.566094
 20
135.300346
 30
0.0
 10
51.293804
 20
135.300346
 30
0.0
  0
LWPOLYLINE
  5
1ff
100
AcDbEntity
  8
Layer_2
 62
5
100
AcDbPolyline
 90
2
 70
0
 10
46.457444
 20
133.078336
 30
0.0
 10
51.185154
 20
133.078336
 30
0.0
  0
LWPOLYLINE
  5
200
100
AcDbEntity
  8
Layer_2
 62
5
100
AcDbPolyline
 90
2
 70
0
 10
46.431794
 20
130.714846
 30
0.0
 10
51.159504
 20
130.714846
 30
0.0
  0
LWPOLYLINE
  5
201
100
AcDbEntity
  8
Layer_2
 62
5
100
AcDbPolyline
 90
2
 70
0
 10
16.343849
 20
175.607844
 30
0.0
 10
21.071559
 20
175.607844
 30
0.0
  0
LWPOLYLINE
  5
202
100
AcDbEntity
  8
Layer_2
 62
5
100
AcDbPolyline
 90
2
 70
0
 10
16.314929
 20
173.294394
 30
0.0
 10
21.042639
 20
173.294394
 30
0.0
  0
LWPOLYLINE
  5
203
100
AcDbEntity
  8
Layer_2
 62
5
100
AcDbPolyline
 90
2
 70
0
 10
16.206279
 20
171.072385
 30
0.0
 10
20.933989
 20
171.072385
 30
0.0
  0
LWPOLYLINE
  5
204
100
AcDbEntity
  8
Layer_2
 62
5
100
AcDbPolyline
 90
2
 70
0
 10
16.383709
 20
168.623925
 30
0.0
 10
21.111419
 20
168.623925
 30
0.0
  0
LWPOLYLINE
  5
205
100
AcDbEntity
  8
Layer_2
 62
5
100
AcDbPolyline
 90
2
 70
0
 10
16.275059
 20
166.401905
 30
0.0
 10
21.002769
 20
166.401905
 30
0.0
  0
LWPOLYLINE
  5
206
100
AcDbEntity
  8
Layer_2
 62
5
100
AcDbPolyline
 90
2
 70
0
 10
16.246139
 20
164.088455
 30
0.0
 10
20.973849
 20
164.088455
 30
0.0
  0
LWPOLYLINE
  5
207
100
AcDbEntity
  8
Layer_2
 62
5
100
AcDbPolyline
 90
2
 70
0
 10
16.137489
 20
161.866445
 30
0.0
 10
20.865199
 20
161.866445
 30
0.0
  0
LWPOLYLINE
  5
208
100
AcDbEntity
  8
Layer_2
 62
5
100
AcDbPolyline
 90
2
 70
0
 10
16.303579
 20
159.237405
 30
0.0
 10
21.031289
 20
159.237405
 30
0.0
  0
LWPOLYLINE
  5
209
100
AcDbEntity
  8
Layer_2
 62
5
100
AcDbPolyline
 90
2
 70
0
 10
16.340589
 20
156.911355
 30
0.0
 10
21.068299
 20
156.911355
 30
0.0
  0
LWPOLYLINE
  5
20a
100
AcDbEntity
  8
Layer_2
 62
5
100
AcDbPolyline
 90
2
 70
0
 10
16.311669
 20
154.597905
 30
0.0
 10
21.039379
 20
154.597905
 30
0.0
  0
LWPOLYLINE
  5
20b
100
AcDbEntity
  8
Layer_2
 62
5
100
AcDbPolyline
 90
2
 70
0
 10
16.203019
 20
152.375895
 30
0.0
 10
20.930729
 20
152.375895
 30
0.0
  0
LWPOLYLINE
  5
20c
100
AcDbEntity
  8
Layer_2
 62
5
100
AcDbPolyline
 90
2
 70
0
 10
16.300479
 20
149.855535
 30
0.0
 10
21.028189
 20
149.855535
 30
0.0
  0
LWPOLYLINE
  5
20d
100
AcDbEntity
  8
Layer_2
 62
5
100
AcDbPolyline
 90
2
 70
0
 10
16.191829
 20
147.633535
 30
0.0
 10
20.919539
 20
147.633535
 30
0.0
  0
LWPOLYLINE
  5
20e
100
AcDbEntity
  8
Layer_2
 62
5
100
AcDbPolyline
 90
2
 70
0
 10
16.162909
 20
145.320085
 30
0.0
 10
20.890619
 20
145.320085
 30
0.0
  0
LWPOLYLINE
  5
20f
100
AcDbEntity
  8
Layer_2
 62
5
100
AcDbPolyline
 90
2
 70
0
 10
16.054259
 20
143.098065
 30
0.0
 10
20.781969
 20
143.098065
 30
0.0
  0
LWPOLYLINE
  5
210
100
AcDbEntity
  8
Layer_2
 62
5
100
AcDbPolyline
 90
2
 70
0
 10
16.220349
 20
140.469026
 30
0.0
 10
20.948059
 20
140.469026
 30
0.0
  0
LWPOLYLINE
  5
211
100
AcDbEntity
  8
Layer_2
 62
5
100
AcDbPolyline
 90
2
 70
0
 10
16.257359
 20
138.142966
 30
0.0
 10
20.985069
 20
138.142966
 30
0.0
  0
LWPOLYLINE
  5
212
100
AcDbEntity
  8
Layer_2
 62
5
100
AcDbPolyline
 90
2
 70
0
 10
16.228439
 20
135.829516
 30
0.0
 10
20.956149
 20
135.829516
 30
0.0
  0
LWPOLYLINE
  5
213
100
AcDbEntity
  8
Layer_2
 62
5
100
AcDbPolyline
 90
2
 70
0
 10
16.119789
 20
133.607516
 30
0.0
 10
20.847499
 20
133.607516
 30
0.0
  0
LWPOLYLINE
  5
214
100
AcDbEntity
  8
Layer_2
 62
5
100
AcDbPolyline
 90
2
 70
0
 10
16.094139
 20
131.244016
 30
0.0
 10
20.821849
 20
131.244016
 30
0.0
  0
LWPOLYLINE
  5
215
100
AcDbEntity
  8
Layer_2
 62
5
100
AcDbPolyline
 90
2
 70
0
 10
185.611524
 20
176.774364
 30
0.0
 10
190.339234
 20
176.774364
 30
0.0
  0
LWPOLYLINE
  5
216
100
AcDbEntity
  8
Layer_2
 62
5
100
AcDbPolyline
 90
2
 70
0
 10
185.502874
 20
174.552354
 30
0.0
 10
190.230584
 20
174.552354
 30
0.0
  0
LWPOLYLINE
  5
217
100
AcDbEntity
  8
Layer_2
 62
5
100
AcDbPolyline
 90
2
 70
0
 10
185.473954
 20
172.238905
 30
0.0
 10
190.201664
 20
172.238905
 30
0.0
  0
LWPOLYLINE
  5
218
100
AcDbEntity
  8
Layer_2
 62
5
100
AcDbPolyline
 90
2
 70
0
 10
185.365304
 20
170.016895
 30
0.0
 10
190.093014
 20
170.016895
 30
0.0
  0
LWPOLYLINE
  5
219
100
AcDbEntity
  8
Layer_2
 62
5
100
AcDbPolyline
 90
2
 70
0
 10
185.542734
 20
167.568435
 30
0.0
 10
190.270444
 20
167.568435
 30
0.0
  0
LWPOLYLINE
  5
21a
100
AcDbEntity
  8
Layer_2
 62
5
100
AcDbPolyline
 90
2
 70
0
 10
185.434084
 20
165.346425
 30
0.0
 10
190.161794
 20
165.346425
 30
0.0
  0
LWPOLYLINE
  5
21b
100
AcDbEntity
  8
Layer_2
 62
5
100
AcDbPolyline
 90
2
 70
0
 10
185.405164
 20
163.032975
 30
0.0
 10
190.132874
 20
163.032975
 30
0.0
  0
LWPOLYLINE
  5
21c
100
AcDbEntity
  8
Layer_2
 62
5
100
AcDbPolyline
 90
2
 70
0
 10
185.296514
 20
160.810965
 30
0.0
 10
190.024224
 20
160.810965
 30
0.0
  0
LWPOLYLINE
  5
21d
100
AcDbEntity
  8
Layer_2
 62
5
100
AcDbPolyline
 90
2
 70
0
 10
185.462604
 20
158.181925
 30
0.0
 10
190.190314
 20
158.181925
 30
0.0
  0
LWPOLYLINE
  5
21e
100
AcDbEntity
  8
Layer_2
 62
5
100
AcDbPolyline
 90
2
 70
0
 10
185.499614
 20
155.855875
 30
0.0
 10
190.227324
 20
155.855875
 30
0.0
  0
LWPOLYLINE
  5
21f
100
AcDbEntity
  8
Layer_2
 62
5
100
AcDbPolyline
 90
2
 70
0
 10
185.470694
 20
153.542425
 30
0.0
 10
190.198404
 20
153.542425
 30
0.0
  0
LWPOLYLINE
  5
220
100
AcDbEntity
  8
Layer_2
 62
5
100
AcDbPolyline
 90
2
 70
0
 10
185.362044
 20
151.320415
 30
0.0
 10
190.089754
 20
151.320415
 30
0.0
  0
LWPOLYLINE
  5
221
100
AcDbEntity
  8
Layer_2
 62
5
100
AcDbPolyline
 90
2
 70
0
 10
185.459504
 20
148.800055
 30
0.0
 10
190.187214
 20
148.800055
 30
0.0
  0
LWPOLYLINE
  5
222
100
AcDbEntity
  8
Layer_2
 62
5
100
AcDbPolyline
 90
2
 70
0
 10
185.350854
 20
146.578045
 30
0.0
 10
190.078564
 20
146.578045
 30
0.0
  0
LWPOLYLINE
  5
223
100
AcDbEntity
  8
Layer_2
 62
5
100
AcDbPolyline
 90
2
 70
0
 10
185.321934
 20
144.264595
 30
0.0
 10
190.049644
 20
144.264595
 30
0.0
  0
LWPOLYLINE
  5
224
100
AcDbEntity
  8
Layer_2
 62
5
100
AcDbPolyline
 90
2
 70
0
 10
185.213284
 20
142.042586
 30
0.0
 10
189.940994
 20
142.042586
 30
0.0
  0
LWPOLYLINE
  5
225
100
AcDbEntity
  8
Layer_2
 62
5
100
AcDbPolyline
 90
2
 70
0
 10
185.379374
 20
139.413546
 30
0.0
 10
190.107084
 20
139.413546
 30
0.0
  0
LWPOLYLINE
  5
226
100
AcDbEntity
  8
Layer_2
 62
5
100
AcDbPolyline
 90
2
 70
0
 10
185.416384
 20
137.087486
 30
0.0
 10
190.144094
 20
137.087486
 30
0.0
  0
LWPOLYLINE
  5
227
100
AcDbEntity
  8
Layer_2
 62
5
100
AcDbPolyline
 90
2
 70
0
 10
185.387464
 20
134.774036
 30
0.0
 10
190.115174
 20
134.774036
 30
0.0
  0
LWPOLYLINE
  5
228
100
AcDbEntity
  8
Layer_2
 62
5
100
AcDbPolyline
 90
2
 70
0
 10
185.278814
 20
132.552026
 30
0.0
 10
190.006524
 20
132.552026
 30
0.0
  0
LWPOLYLINE
  5
229
100
AcDbEntity
  8
Layer_2
 62
5
100
AcDbPolyline
 90
2
 70
0
 10
185.253164
 20
130.188536
 30
0.0
 10
189.980874
 20
130.188536
 30
0.0
  0
LWPOLYLINE
  5
22a
100
AcDbEntity
  8
Layer_2
 62
5
100
AcDbPolyline
 90
2
 70
0
 10
16.335561
 20
127.882736
 30
0.0
 10
72.812267
 20
128.287676
 30
0.0
  0
LWPOLYLINE
  5
22b
100
AcDbEntity
  8
Layer_2
 62
5
100
AcDbPolyline
 90
3
 70
0
 10
191.198514
 20
127.897456
 30
0.0
 10
191.198504
 20
127.882656
 30
0.0
 10
134.715136
 20
128.287636
 30
0.0
  0
LWPOLYLINE
  5
22c
100
AcDbEntity
  8
Layer_2
 62
5
100
AcDbPolyline
 90
2
 70
0
 10
72.812267
 20
128.287666
 30
0.0
 10
134.715146
 20
128.287666
 30
0.0
  0
LWPOLYLINE
  5
22d
100
AcDbEntity
  8
Layer_2
 62
5
100
AcDbPolyline
 90
2
 70
0
 10
16.972045
 20
181.369244
 30
0.0
 10
16.972045
 20
178.477274
 30
0.0
  0
LWPOLYLINE
  5
22e
100
AcDbEntity
  8
Layer_2
 62
5
100
AcDbPolyline
 90
2
 70
0
 10
20.423373
 20
181.369244
 30
0.0
 10
20.423373
 20
178.477274
 30
0.0
  0
LWPOLYLINE
  5
22f
100
AcDbEntity
  8
Layer_2
 62
5
100
AcDbPolyline
 90
2
 70
0
 10
21.601655
 20
181.369244
 30
0.0
 10
21.601655
 20
178.477274
 30
0.0
  0
LWPOLYLINE
  5
230
100
AcDbEntity
  8
Layer_2
 62
5
100
AcDbPolyline
 90
2
 70
0
 10
25.052983
 20
181.369244
 30
0.0
 10
25.052983
 20
178.477274
 30
0.0
  0
LWPOLYLINE
  5
231
100
AcDbEntity
  8
Layer_2
 62
5
100
AcDbPolyline
 90
2
 70
0
 10
26.231265
 20
181.369244
 30
0.0
 10
26.231265
 20
178.477274
 30
0.0
  0
LWPOLYLINE
  5
232
100
AcDbEntity
  8
Layer_2
 62
5
100
AcDbPolyline
 90
2
 70
0
 10
29.682593
 20
181.369244
 30
0.0
 10
29.682593
 20
178.477274
 30
0.0
  0
LWPOLYLINE
  5
233
100
AcDbEntity
  8
Layer_2
 62
5
100
AcDbPolyline
 90
2
 70
0
 10
30.860873
 20
181.369244
 30
0.0
 10
30.860873
 20
178.477274
 30
0.0
  0
LWPOLYLINE
  5
234
100
AcDbEntity
  8
Layer_2
 62
5
100
AcDbPolyline
 90
2
 70
0
 10
34.312201
 20
181.369244
 30
0.0
 10
34.312201
 20
178.477274
 30
0.0
  0
LWPOLYLINE
  5
235
100
AcDbEntity
  8
Layer_2
 62
5
100
AcDbPolyline
 90
2
 70
0
 10
35.490483
 20
181.369244
 30
0.0
 10
35.490483
 20
178.477274
 30
0.0
  0
LWPOLYLINE
  5
236
100
AcDbEntity
  8
Layer_2
 62
5
100
AcDbPolyline
 90
2
 70
0
 10
38.941812
 20
181.369244
 30
0.0
 10
38.941812
 20
178.477274
 30
0.0
  0
LWPOLYLINE
  5
237
100
AcDbEntity
  8
Layer_2
 62
5
100
AcDbPolyline
 90
2
 70
0
 10
40.120093
 20
181.369244
 30
0.0
 10
40.120093
 20
178.477274
 30
0.0
  0
LWPOLYLINE
  5
238
100
AcDbEntity
  8
Layer_2
 62
5
100
AcDbPolyline
 90
2
 70
0
 10
43.571422
 20
181.369244
 30
0.0
 10
43.571422
 20
178.477274
 30
0.0
  0
LWPOLYLINE
  5
239
100
AcDbEntity
  8
Layer_2
 62
5
100
AcDbPolyline
 90
2
 70
0
 10
44.749701
 20
181.369244
 30
0.0
 10
44.749701
 20
178.477274
 30
0.0
  0
LWPOLYLINE
  5
23a
100
AcDbEntity
  8
Layer_2
 62
5
100
AcDbPolyline
 90
2
 70
0
 10
48.201028
 20
181.369244
 30
0.0
 10
48.201028
 20
178.477274
 30
0.0
  0
LWPOLYLINE
  5
23b
100
AcDbEntity
  8
Layer_2
 62
5
100
AcDbPolyline
 90
2
 70
0
 10
49.379310
 20
181.369244
 30
0.0
 10
49.379310
 20
178.477274
 30
0.0
  0
LWPOLYLINE
  5
23c
100
AcDbEntity
  8
Layer_2
 62
5
100
AcDbPolyline
 90
2
 70
0
 10
52.830638
 20
181.369244
 30
0.0
 10
52.830638
 20
178.477274
 30
0.0
  0
LWPOLYLINE
  5
23d
100
AcDbEntity
  8
Layer_2
 62
5
100
AcDbPolyline
 90
2
 70
0
 10
54.008920
 20
181.369244
 30
0.0
 10
54.008920
 20
178.477274
 30
0.0
  0
LWPOLYLINE
  5
23e
100
AcDbEntity
  8
Layer_2
 62
5
100
AcDbPolyline
 90
2
 70
0
 10
57.460248
 20
181.369244
 30
0.0
 10
57.460248
 20
178.477274
 30
0.0
  0
LWPOLYLINE
  5
23f
100
AcDbEntity
  8
Layer_2
 62
5
100
AcDbPolyline
 90
2
 70
0
 10
58.638529
 20
181.369244
 30
0.0
 10
58.638529
 20
178.477274
 30
0.0
  0
LWPOLYLINE
  5
240
100
AcDbEntity
  8
Layer_2
 62
5
100
AcDbPolyline
 90
2
 70
0
 10
62.089857
 20
181.369244
 30
0.0
 10
62.089857
 20
178.477274
 30
0.0
  0
LWPOLYLINE
  5
241
100
AcDbEntity
  8
Layer_2
 62
5
100
AcDbPolyline
 90
2
 70
0
 10
63.268139
 20
181.369244
 30
0.0
 10
63.268139
 20
178.477274
 30
0.0
  0
LWPOLYLINE
  5
242
100
AcDbEntity
  8
Layer_2
 62
5
100
AcDbPolyline
 90
2
 70
0
 10
66.719468
 20
181.369244
 30
0.0
 10
66.719468
 20
178.477274
 30
0.0
  0
LWPOLYLINE
  5
243
100
AcDbEntity
  8
Layer_2
 62
5
100
AcDbPolyline
 90
2
 70
0
 10
67.897749
 20
181.369244
 30
0.0
 10
67.897749
 20
178.477274
 30
0.0
  0
LWPOLYLINE
  5
244
100
AcDbEntity
  8
Layer_2
 62
5
100
AcDbPolyline
 90
2
 70
0
 10
71.349078
 20
181.369244
 30
0.0
 10
71.349078
 20
178.477274
 30
0.0
  0
LWPOLYLINE
  5
245
100
AcDbEntity
  8
Layer_2
 62
5
100
AcDbPolyline
 90
2
 70
0
 10
72.527365
 20
181.369244
 30
0.0
 10
72.527365
 20
178.477274
 30
0.0
  0
LWPOLYLINE
  5
246
100
AcDbEntity
  8
Layer_2
 62
5
100
AcDbPolyline
 90
2
 70
0
 10
75.978692
 20
181.369244
 30
0.0
 10
75.978692
 20
178.477274
 30
0.0
  0
LWPOLYLINE
  5
247
100
AcDbEntity
  8
Layer_2
 62
5
100
AcDbPolyline
 90
2
 70
0
 10
77.156974
 20
181.369244
 30
0.0
 10
77.156974
 20
178.477274
 30
0.0
  0
LWPOLYLINE
  5
248
100
AcDbEntity
  8
Layer_2
 62
5
100
AcDbPolyline
 90
2
 70
0
 10
80.608302
 20
181.369244
 30
0.0
 10
80.608302
 20
178.477274
 30
0.0
  0
LWPOLYLINE
  5
249
100
AcDbEntity
  8
Layer_2
 62
5
100
AcDbPolyline
 90
2
 70
0
 10
81.786584
 20
181.369244
 30
0.0
 10
81.786584
 20
178.477274
 30
0.0
  0
LWPOLYLINE
  5
24a
100
AcDbEntity
  8
Layer_2
 62
5
100
AcDbPolyline
 90
2
 70
0
 10
85.237913
 20
181.369244
 30
0.0
 10
85.237913
 20
178.477274
 30
0.0
  0
LWPOLYLINE
  5
24b
100
AcDbEntity
  8
Layer_2
 62
5
100
AcDbPolyline
 90
2
 70
0
 10
86.416203
 20
181.369244
 30
0.0
 10
86.416203
 20
178.477274
 30
0.0
  0
LWPOLYLINE
  5
24c
100
AcDbEntity
  8
Layer_2
 62
5
100
AcDbPolyline
 90
2
 70
0
 10
89.867532
 20
181.369244
 30
0.0
 10
89.867532
 20
178.477274
 30
0.0
  0
LWPOLYLINE
  5
24d
100
AcDbEntity
  8
Layer_2
 62
5
100
AcDbPolyline
 90
2
 70
0
 10
91.045813
 20
181.369244
 30
0.0
 10
91.045813
 20
178.477274
 30
0.0
  0
LWPOLYLINE
  5
24e
100
AcDbEntity
  8
Layer_2
 62
5
100
AcDbPolyline
 90
2
 70
0
 10
94.497142
 20
181.369244
 30
0.0
 10
94.497142
 20
178.477274
 30
0.0
  0
LWPOLYLINE
  5
24f
100
AcDbEntity
  8
Layer_2
 62
5
100
AcDbPolyline
 90
2
 70
0
 10
95.675424
 20
181.369244
 30
0.0
 10
95.675424
 20
178.477274
 30
0.0
  0
LWPOLYLINE
  5
250
100
AcDbEntity
  8
Layer_2
 62
5
100
AcDbPolyline
 90
2
 70
0
 10
99.126752
 20
181.369244
 30
0.0
 10
99.126752
 20
178.477274
 30
0.0
  0
LWPOLYLINE
  5
251
100
AcDbEntity
  8
Layer_2
 62
5
100
AcDbPolyline
 90
2
 70
0
 10
100.305037
 20
181.369254
 30
0.0
 10
100.305037
 20
178.477284
 30
0.0
  0
LWPOLYLINE
  5
252
100
AcDbEntity
  8
Layer_2
 62
5
100
AcDbPolyline
 90
2
 70
0
 10
103.756367
 20
181.369254
 30
0.0
 10
103.756367
 20
178.477284
 30
0.0
  0
LWPOLYLINE
  5
253
100
AcDbEntity
  8
Layer_2
 62
5
100
AcDbPolyline
 90
2
 70
0
 10
104.934647
 20
181.369254
 30
0.0
 10
104.934647
 20
178.477284
 30
0.0
  0
LWPOLYLINE
  5
254
100
AcDbEntity
  8
Layer_2
 62
5
100
AcDbPolyline
 90
2
 70
0
 10
108.385976
 20
181.369254
 30
0.0
 10
108.385976
 20
178.477284
 30
0.0
  0
LWPOLYLINE
  5
255
100
AcDbEntity
  8
Layer_2
 62
5
100
AcDbPolyline
 90
2
 70
0
 10
109.564256
 20
181.369254
 30
0.0
 10
109.564256
 20
178.477284
 30
0.0
  0
LWPOLYLINE
  5
256
100
AcDbEntity
  8
Layer_2
 62
5
100
AcDbPolyline
 90
2
 70
0
 10
113.015586
 20
181.369254
 30
0.0
 10
113.015586
 20
178.477284
 30
0.0
  0
LWPOLYLINE
  5
257
100
AcDbEntity
  8
Layer_2
 62
5
100
AcDbPolyline
 90
2
 70
0
 10
114.193876
 20
181.369274
 30
0.0
 10
114.193876
 20
178.477304
 30
0.0
  0
LWPOLYLINE
  5
258
100
AcDbEntity
  8
Layer_2
 62
5
100
AcDbPolyline
 90
2
 70
0
 10
117.645206
 20
181.369274
 30
0.0
 10
117.645206
 20
178.477304
 30
0.0
  0
LWPOLYLINE
  5
259
100
AcDbEntity
  8
Layer_2
 62
5
100
AcDbPolyline
 90
2
 70
0
 10
118.823486
 20
181.369274
 30
0.0
 10
118.823486
 20
178.477304
 30
0.0
  0
LWPOLYLINE
  5
25a
100
AcDbEntity
  8
Layer_2
 62
5
100
AcDbPolyline
 90
2
 70
0
 10
122.274816
 20
181.369274
 30
0.0
 10
122.274816
 20
178.477304
 30
0.0
  0
LWPOLYLINE
  5
25b
100
AcDbEntity
  8
Layer_2
 62
5
100
AcDbPolyline
 90
2
 70
0
 10
123.453096
 20
181.369274
 30
0.0
 10
123.453096
 20
178.477304
 30
0.0
  0
LWPOLYLINE
  5
25c
100
AcDbEntity
  8
Layer_2
 62
5
100
AcDbPolyline
 90
2
 70
0
 10
126.904426
 20
181.369274
 30
0.0
 10
126.904426
 20
178.477304
 30
0.0
  0
LWPOLYLINE
  5
25d
100
AcDbEntity
  8
Layer_2
 62
5
100
AcDbPolyline
 90
2
 70
0
 10
128.082716
 20
181.369274
 30
0.0
 10
128.082716
 20
178.477304
 30
0.0
  0
LWPOLYLINE
  5
25e
100
AcDbEntity
  8
Layer_2
 62
5
100
AcDbPolyline
 90
2
 70
0
 10
131.534046
 20
181.369274
 30
0.0
 10
131.534046
 20
178.477304
 30
0.0
  0
LWPOLYLINE
  5
25f
100
AcDbEntity
  8
Layer_2
 62
5
100
AcDbPolyline
 90
2
 70
0
 10
132.712326
 20
181.369274
 30
0.0
 10
132.712326
 20
178.477304
 30
0.0
  0
LWPOLYLINE
  5
260
100
AcDbEntity
  8
Layer_2
 62
5
100
AcDbPolyline
 90
2
 70
0
 10
136.163656
 20
181.369274
 30
0.0
 10
136.163656
 20
178.477304
 30
0.0
  0
LWPOLYLINE
  5
261
100
AcDbEntity
  8
Layer_2
 62
5
100
AcDbPolyline
 90
2
 70
0
 10
137.341935
 20
181.369274
 30
0.0
 10
137.341935
 20
178.477304
 30
0.0
  0
LWPOLYLINE
  5
262
100
AcDbEntity
  8
Layer_2
 62
5
100
AcDbPolyline
 90
2
 70
0
 10
140.793265
 20
181.369274
 30
0.0
 10
140.793265
 20
178.477304
 30
0.0
  0
LWPOLYLINE
  5
263
100
AcDbEntity
  8
Layer_2
 62
5
100
AcDbPolyline
 90
2
 70
0
 10
141.971535
 20
181.369274
 30
0.0
 10
141.971535
 20
178.477304
 30
0.0
  0
LWPOLYLINE
  5
264
100
AcDbEntity
  8
Layer_2
 62
5
100
AcDbPolyline
 90
2
 70
0
 10
145.422865
 20
181.369274
 30
0.0
 10
145.422865
 20
178.477304
 30
0.0
  0
LWPOLYLINE
  5
265
100
AcDbEntity
  8
Layer_2
 62
5
100
AcDbPolyline
 90
2
 70
0
 10
146.601145
 20
181.369274
 30
0.0
 10
146.601145
 20
178.477304
 30
0.0
  0
LWPOLYLINE
  5
266
100
AcDbEntity
  8
Layer_2
 62
5
100
AcDbPolyline
 90
2
 70
0
 10
150.052475
 20
181.369274
 30
0.0
 10
150.052475
 20
178.477304
 30
0.0
  0
LWPOLYLINE
  5
267
100
AcDbEntity
  8
Layer_2
 62
5
100
AcDbPolyline
 90
2
 70
0
 10
151.230755
 20
181.369274
 30
0.0
 10
151.230755
 20
178.477304
 30
0.0
  0
LWPOLYLINE
  5
268
100
AcDbEntity
  8
Layer_2
 62
5
100
AcDbPolyline
 90
2
 70
0
 10
154.682085
 20
181.369274
 30
0.0
 10
154.682085
 20
178.477304
 30
0.0
  0
LWPOLYLINE
  5
269
100
AcDbEntity
  8
Layer_2
 62
5
100
AcDbPolyline
 90
2
 70
0
 10
155.860365
 20
181.369274
 30
0.0
 10
155.860365
 20
178.477304
 30
0.0
  0
LWPOLYLINE
  5
26a
100
AcDbEntity
  8
Layer_2
 62
5
100
AcDbPolyline
 90
2
 70
0
 10
159.311695
 20
181.369274
 30
0.0
 10
159.311695
 20
178.477304
 30
0.0
  0
LWPOLYLINE
  5
26b
100
AcDbEntity
  8
Layer_2
 62
5
100
AcDbPolyline
 90
2
 70
0
 10
160.489975
 20
181.369274
 30
0.0
 10
160.489975
 20
178.477304
 30
0.0
  0
LWPOLYLINE
  5
26c
100
AcDbEntity
  8
Layer_2
 62
5
100
AcDbPolyline
 90
2
 70
0
 10
163.941305
 20
181.369274
 30
0.0
 10
163.941305
 20
178.477304
 30
0.0
  0
LWPOLYLINE
  5
26d
100
AcDbEntity
  8
Layer_2
 62
5
100
AcDbPolyline
 90
2
 70
0
 10
165.119585
 20
181.369274
 30
0.0
 10
165.119585
 20
178.477304
 30
0.0
  0
LWPOLYLINE
  5
26e
100
AcDbEntity
  8
Layer_2
 62
5
100
AcDbPolyline
 90
2
 70
0
 10
168.570914
 20
181.369274
 30
0.0
 10
168.570914
 20
178.477304
 30
0.0
  0
LWPOLYLINE
  5
26f
100
AcDbEntity
  8
Layer_2
 62
5
100
AcDbPolyline
 90
2
 70
0
 10
169.749184
 20
181.369274
 30
0.0
 10
169.749184
 20
178.477304
 30
0.0
  0
LWPOLYLINE
  5
270
100
AcDbEntity
  8
Layer_2
 62
5
100
AcDbPolyline
 90
2
 70
0
 10
173.200504
 20
181.369274
 30
0.0
 10
173.200504
 20
178.477304
 30
0.0
  0
LWPOLYLINE
  5
271
100
AcDbEntity
  8
Layer_2
 62
5
100
AcDbPolyline
 90
2
 70
0
 10
174.378794
 20
181.369274
 30
0.0
 10
174.378794
 20
178.477304
 30
0.0
  0
LWPOLYLINE
  5
272
100
AcDbEntity
  8
Layer_2
 62
5
100
AcDbPolyline
 90
2
 70
0
 10
177.830114
 20
181.369274
 30
0.0
 10
177.830114
 20
178.477304
 30
0.0
  0
LWPOLYLINE
  5
273
100
AcDbEntity
  8
Layer_2
 62
5
100
AcDbPolyline
 90
2
 70
0
 10
179.008404
 20
181.369274
 30
0.0
 10
179.008404
 20
178.477304
 30
0.0
  0
LWPOLYLINE
  5
274
100
AcDbEntity
  8
Layer_2
 62
5
100
AcDbPolyline
 90
2
 70
0
 10
182.459724
 20
181.369274
 30
0.0
 10
182.459724
 20
178.477304
 30
0.0
  0
LWPOLYLINE
  5
275
100
AcDbEntity
  8
Layer_2
 62
5
100
AcDbPolyline
 90
2
 70
0
 10
179.008404
 20
181.369274
 30
0.0
 10
179.008404
 20
178.477304
 30
0.0
  0
LWPOLYLINE
  5
276
100
AcDbEntity
  8
Layer_2
 62
5
100
AcDbPolyline
 90
2
 70
0
 10
182.459734
 20
181.369274
 30
0.0
 10
182.459734
 20
178.477304
 30
0.0
  0
LWPOLYLINE
  5
277
100
AcDbEntity
  8
Layer_2
 62
5
100
AcDbPolyline
 90
2
 70
0
 10
183.638014
 20
181.369274
 30
0.0
 10
183.638014
 20
178.477304
 30
0.0
  0
LWPOLYLINE
  5
278
100
AcDbEntity
  8
Layer_2
 62
5
100
AcDbPolyline
 90
2
 70
0
 10
187.089344
 20
181.369274
 30
0.0
 10
187.089344
 20
178.477304
 30
0.0
  0
LWPOLYLINE
  5
279
100
AcDbEntity
  8
Layer_2
 62
5
100
AcDbPolyline
 90
2
 70
0
 10
188.267624
 20
181.369274
 30
0.0
 10
188.267624
 20
178.477304
 30
0.0
  0
LWPOLYLINE
  5
27a
100
AcDbEntity
  8
Layer_2
 62
5
100
AcDbPolyline
 90
2
 70
0
 10
190.886594
 20
181.369274
 30
0.0
 10
190.886594
 20
178.477304
 30
0.0
  0
LWPOLYLINE
  5
27b
100
AcDbEntity
  8
Layer_2
 62
7
100
AcDbPolyline
 90
3
 70
0
 10
30.160489
 20
167.406585
 30
0.0
 10
30.160489
 20
159.586085
 30
0.0
 10
33.733893
 20
159.564185
 30
0.0
  0
SPLINE
  5
27c
100
AcDbEntity
  8
Layer_2
 62
5
100
AcDbSpline
 70
0
 71
3
 72
10
 73
6
 74
4
 40
0.000000
 40
0.000000
 40
0.000000
 40
0.000000
 40
4.046510
 40
9.537362
 40
13.359792
 40
13.359792
 40
13.359792
 40
13.359792
 10
141.496255
 20
168.597812
 30
0.0
 10
142.437409
 20
169.603785
 30
0.0
 10
144.655645
 20
171.974798
 30
0.0
 10
150.002600
 20
171.945293
 30
0.0
 10
152.083179
 20
169.540569
 30
0.0
 10
152.937107
 20
168.553603
 30
0.0
 11
141.496255
 21
168.597812
 31
0.0
 11
144.607534
 21
171.185125
 31
0.0
 11
150.097910
 21
171.112887
 31
0.0
 11
152.937107
 21
168.553603
 31
0.0
  0
SPLINE
  5
27d
100
AcDbEntity
  8
Layer_2
 62
7
100
AcDbSpline
 70
0
 71
3
 72
10
 73
6
 74
4
 40
0.000000
 40
0.000000
 40
0.000000
 40
0.000000
 40
1.813325
 40
3.295275
 40
4.517726
 40
4.517726
 40
4.517726
 40
4.517726
 10
36.413529
 20
171.756255
 30
0.0
 10
36.998642
 20
171.640883
 30
0.0
 10
38.061942
 20
171.431225
 30
0.0
 10
39.532031
 20
170.699467
 30
0.0
 10
39.761882
 20
169.788454
 30
0.0
 10
39.865781
 20
169.376655
 30
0.0
 11
36.413529
 21
171.756255
 31
0.0
 11
38.171592
 21
171.312003
 31
0.0
 11
39.421240
 21
170.515412
 31
0.0
 11
39.865781
 21
169.376655
 31
0.0
  0
LWPOLYLINE
  5
27e
100
AcDbEntity
  8
Layer_2
 62
7
100
AcDbPolyline
 90
2
 70
0
 10
39.865781
 20
167.404155
 30
0.0
 10
39.865781
 20
159.526605
 30
0.0
  0
LWPOLYLINE
  5
27f
100
AcDbEntity
  8
Layer_2
 62
7
100
AcDbPolyline
 90
3
 70
0
 10
30.206087
 20
167.410655
 30
0.0
 10
33.690340
 20
167.410655
 30
0.0
 10
33.690340
 20
159.594635
 30
0.0
  0
LWPOLYLINE
  5
280
100
AcDbEntity
  8
Layer_2
 62
7
100
AcDbPolyline
 90
3
 70
0
 10
39.713670
 20
167.358305
 30
0.0
 10
36.229417
 20
167.358305
 30
0.0
 10
36.229417
 20
159.542285
 30
0.0
  0
LWPOLYLINE
  5
281
100
AcDbEntity
  8
Layer_2
 62
7
100
AcDbPolyline
 90
3
 70
0
 10
30.160489
 20
169.414155
 30
0.0
 10
33.644742
 20
169.414155
 30
0.0
 10
33.644739
 20
171.806765
 30
0.0
  0
LWPOLYLINE
  5
282
100
AcDbEntity
  8
Layer_2
 62
7
100
AcDbPolyline
 90
3
 70
0
 10
39.865781
 20
169.376645
 30
0.0
 10
36.381528
 20
169.376645
 30
0.0
 10
36.381531
 20
171.700515
 30
0.0
  0
LWPOLYLINE
  5
283
100
AcDbEntity
  8
Layer_2
 62
7
100
AcDbPolyline
 90
4
 70
0
 10
39.713671
 20
167.358305
 30
0.0
 10
36.229418
 20
167.358305
 30
0.0
 10
36.229418
 20
159.542285
 30
0.0
 10
39.865781
 20
159.526585
 30
0.0
  0
LWPOLYLINE
  5
284
100
AcDbEntity
  8
Layer_2
 62
5
100
AcDbPolyline
 90
3
 70
0
 10
29.238959
 20
170.143112
 30
0.0
 10
29.238959
 20
158.557542
 30
0.0
 10
40.679811
 20
158.487418
 30
0.0
  0
SPLINE
  5
285
100
AcDbEntity
  8
Layer_2
 62
7
100
AcDbSpline
 70
0
 71
3
 72
10
 73
6
 74
4
 40
0.000000
 40
0.000000
 40
0.000000
 40
0.000000
 40
1.262004
 40
2.732398
 40
4.485393
 40
4.485393
 40
4.485393
 40
4.485393
 10
30.160489
 20
169.414155
 30
0.0
 10
30.295226
 20
169.828383
 30
0.0
 10
30.586947
 20
170.725239
 30
0.0
 10
32.023415
 20
171.453028
 30
0.0
 10
33.068390
 20
171.654070
 30
0.0
 10
33.636685
 20
171.763405
 30
0.0
 11
30.160489
 21
169.414155
 31
0.0
 11
30.689138
 21
170.560097
 31
0.0
 11
31.935548
 21
171.340175
 31
0.0
 11
33.636685
 21
171.763405
 31
0.0
  0
LWPOLYLINE
  5
286
100
AcDbEntity
  8
Layer_2
 62
5
100
AcDbPolyline
 90
2
 70
0
 10
40.679811
 20
170.098897
 30
0.0
 10
40.679811
 20
158.487418
 30
0.0
  0
LWPOLYLINE
  5
287
100
AcDbEntity
  8
Layer_2
 62
7
100
AcDbPolyline
 90
3
 70
0
 10
177.014864
 20
167.298945
 30
0.0
 10
177.014864
 20
159.478445
 30
0.0
 10
173.441464
 20
159.456545
 30
0.0
  0
SPLINE
  5
288
100
AcDbEntity
  8
Layer_2
 62
5
100
AcDbSpline
 70
0
 71
3
 72
10
 73
6
 74
4
 40
0.000000
 40
0.000000
 40
0.000000
 40
0.000000
 40
4.046510
 40
9.537362
 40
13.359792
 40
13.359792
 40
13.359792
 40
13.359792
 10
29.238959
 20
170.143112
 30
0.0
 10
30.180112
 20
171.149085
 30
0.0
 10
32.398349
 20
173.520098
 30
0.0
 10
37.745304
 20
173.490593
 30
0.0
 10
39.825883
 20
171.085869
 30
0.0
 10
40.679811
 20
170.098903
 30
0.0
 11
29.238959
 21
170.143112
 31
0.0
 11
32.350238
 21
172.730425
 31
0.0
 11
37.840614
 21
172.658187
 31
0.0
 11
40.679811
 21
170.098903
 31
0.0
  0
SPLINE
  5
289
100
AcDbEntity
  8
Layer_2
 62
7
100
AcDbSpline
 70
0
 71
3
 72
10
 73
6
 74
4
 40
0.000000
 40
0.000000
 40
0.000000
 40
0.000000
 40
1.813322
 40
3.295273
 40
4.517723
 40
4.517723
 40
4.517723
 40
4.517723
 10
170.761824
 20
171.648615
 30
0.0
 10
170.176712
 20
171.533243
 30
0.0
 10
169.113413
 20
171.323584
 30
0.0
 10
167.643325
 20
170.591828
 30
0.0
 10
167.413473
 20
169.680814
 30
0.0
 10
167.309574
 20
169.269015
 30
0.0
 11
170.761824
 21
171.648615
 31
0.0
 11
169.003763
 21
171.204363
 31
0.0
 11
167.754116
 21
170.407772
 31
0.0
 11
167.309574
 21
169.269015
 31
0.0
  0
LWPOLYLINE
  5
28a
100
AcDbEntity
  8
Layer_2
 62
7
100
AcDbPolyline
 90
2
 70
0
 10
167.309574
 20
167.296515
 30
0.0
 10
167.309574
 20
159.418965
 30
0.0
  0
LWPOLYLINE
  5
28b
100
AcDbEntity
  8
Layer_2
 62
7
100
AcDbPolyline
 90
3
 70
0
 10
176.969264
 20
167.303015
 30
0.0
 10
173.485014
 20
167.303015
 30
0.0
 10
173.485014
 20
159.486995
 30
0.0
  0
LWPOLYLINE
  5
28c
100
AcDbEntity
  8
Layer_2
 62
7
100
AcDbPolyline
 90
3
 70
0
 10
167.461684
 20
167.250665
 30
0.0
 10
170.945934
 20
167.250665
 30
0.0
 10
170.945934
 20
159.434645
 30
0.0
  0
LWPOLYLINE
  5
28d
100
AcDbEntity
  8
Layer_2
 62
7
100
AcDbPolyline
 90
3
 70
0
 10
177.014864
 20
169.306515
 30
0.0
 10
173.530614
 20
169.306515
 30
0.0
 10
173.530614
 20
171.699125
 30
0.0
  0
LWPOLYLINE
  5
28e
100
AcDbEntity
  8
Layer_2
 62
7
100
AcDbPolyline
 90
3
 70
0
 10
167.309574
 20
169.269005
 30
0.0
 10
170.793824
 20
169.269005
 30
0.0
 10
170.793824
 20
171.592875
 30
0.0
  0
LWPOLYLINE
  5
28f
100
AcDbEntity
  8
Layer_2
 62
7
100
AcDbPolyline
 90
4
 70
0
 10
167.461684
 20
167.250665
 30
0.0
 10
170.945934
 20
167.250665
 30
0.0
 10
170.945934
 20
159.434645
 30
0.0
 10
167.309574
 20
159.418945
 30
0.0
  0
LWPOLYLINE
  5
290
100
AcDbEntity
  8
Layer_2
 62
5
100
AcDbPolyline
 90
3
 70
0
 10
177.936034
 20
170.035412
 30
0.0
 10
177.936034
 20
158.449842
 30
0.0
 10
166.495182
 20
158.379718
 30
0.0
  0
SPLINE
  5
291
100
AcDbEntity
  8
Layer_2
 62
7
100
AcDbSpline
 70
0
 71
3
 72
10
 73
6
 74
4
 40
0.000000
 40
0.000000
 40
0.000000
 40
0.000000
 40
1.262005
 40
2.732396
 40
4.485386
 40
4.485386
 40
4.485386
 40
4.485386
 10
177.014864
 20
169.306515
 30
0.0
 10
176.880126
 20
169.720743
 30
0.0
 10
176.588402
 20
170.617597
 30
0.0
 10
175.151940
 20
171.345389
 30
0.0
 10
174.106968
 20
171.546431
 30
0.0
 10
173.538674
 20
171.655765
 30
0.0
 11
177.014864
 21
169.306515
 31
0.0
 11
176.486212
 21
170.452457
 31
0.0
 11
175.239806
 21
171.232535
 31
0.0
 11
173.538674
 21
171.655765
 31
0.0
  0
LWPOLYLINE
  5
292
100
AcDbEntity
  8
Layer_2
 62
5
100
AcDbPolyline
 90
2
 70
0
 10
166.495182
 20
169.991197
 30
0.0
 10
166.495182
 20
158.379718
 30
0.0
  0
LWPOLYLINE
  5
293
100
AcDbEntity
  8
Layer_2
 62
7
100
AcDbPolyline
 90
3
 70
0
 10
58.620030
 20
132.734416
 30
0.0
 10
58.620030
 20
138.031406
 30
0.0
 10
55.853825
 20
138.031406
 30
0.0
  0
LWPOLYLINE
  5
294
100
AcDbEntity
  8
Layer_2
 62
7
100
AcDbPolyline
 90
4
 70
0
 10
55.870958
 20
139.744066
 30
0.0
 10
58.608855
 20
139.744066
 30
0.0
 10
58.608855
 20
143.969955
 30
0.0
 10
55.670624
 20
143.969955
 30
0.0
  0
LWPOLYLINE
  5
295
100
AcDbEntity
  8
Layer_2
 62
7
100
AcDbPolyline
 90
3
 70
0
 10
55.816286
 20
145.676765
 30
0.0
 10
58.608854
 20
145.676765
 30
0.0
 10
58.608854
 20
148.389965
 30
0.0
  0
LWPOLYLINE
  5
296
100
AcDbEntity
  8
Layer_2
 62
7
100
AcDbPolyline
 90
3
 70
0
 10
60.092104
 20
132.706186
 30
0.0
 10
60.092104
 20
138.003176
 30
0.0
 10
62.858309
 20
138.003176
 30
0.0
  0
LWPOLYLINE
  5
297
100
AcDbEntity
  8
Layer_2
 62
7
100
AcDbPolyline
 90
4
 70
0
 10
62.852834
 20
139.715836
 30
0.0
 10
60.103279
 20
139.715836
 30
0.0
 10
60.103279
 20
143.941725
 30
0.0
 10
63.054021
 20
143.941725
 30
0.0
  0
LWPOLYLINE
  5
298
100
AcDbEntity
  8
Layer_2
 62
7
100
AcDbPolyline
 90
3
 70
0
 10
63.031919
 20
145.648535
 30
0.0
 10
60.103280
 20
145.648535
 30
0.0
 10
60.103280
 20
148.361735
 30
0.0
  0
LWPOLYLINE
  5
299
100
AcDbEntity
  8
Layer_2
 62
5
100
AcDbPolyline
 90
3
 70
0
 10
54.788253
 20
146.087226
 30
0.0
 10
54.788253
 20
131.889231
 30
0.0
 10
64.008483
 20
131.803294
 30
0.0
  0
SPLINE
  5
29a
100
AcDbEntity
  8
Layer_2
 62
5
100
AcDbSpline
 70
0
 71
3
 72
10
 73
6
 74
4
 40
0.000000
 40
0.000000
 40
0.000000
 40
0.000000
 40
4.046510
 40
9.537362
 40
13.359792
 40
13.359792
 40
13.359792
 40
13.359792
 10
177.936034
 20
170.035412
 30
0.0
 10
176.994881
 20
171.041385
 30
0.0
 10
174.776644
 20
173.412398
 30
0.0
 10
169.429690
 20
173.382893
 30
0.0
 10
167.349110
 20
170.978169
 30
0.0
 10
166.495182
 20
169.991203
 30
0.0
 11
177.936034
 21
170.035412
 31
0.0
 11
174.824755
 21
172.622725
 31
0.0
 11
169.334380
 21
172.550487
 31
0.0
 11
166.495182
 21
169.991203
 31
0.0
  0
LWPOLYLINE
  5
29b
100
AcDbEntity
  8
Layer_2
 62
5
100
AcDbPolyline
 90
2
 70
0
 10
64.008483
 20
146.033041
 30
0.0
 10
64.008483
 20
131.803294
 30
0.0
  0
LWPOLYLINE
  5
29c
100
AcDbEntity
  8
Layer_2
 62
7
100
AcDbPolyline
 90
2
 70
0
 10
76.770720
 20
132.973826
 30
0.0
 10
79.580386
 20
132.944226
 30
0.0
  0
LWPOLYLINE
  5
29d
100
AcDbEntity
  8
Layer_2
 62
7
100
AcDbPolyline
 90
3
 70
0
 10
72.396806
 20
138.144046
 30
0.0
 10
72.396806
 20
133.019906
 30
0.0
 10
75.218868
 20
132.990206
 30
0.0
  0
LWPOLYLINE
  5
29e
100
AcDbEntity
  8
Layer_2
 62
7
100
AcDbPolyline
 90
2
 70
0
 10
72.396806
 20
144.296015
 30
0.0
 10
72.396806
 20
139.942356
 30
0.0
  0
LWPOLYLINE
  5
29f
100
AcDbEntity
  8
Layer_2
 62
7
100
AcDbPolyline
 90
2
 70
0
 10
79.580386
 20
138.170926
 30
0.0
 10
79.580386
 20
132.944226
 30
0.0
  0
SPLINE
  5
2a0
100
AcDbEntity
  8
Layer_2
 62
5
100
AcDbSpline
 70
0
 71
3
 72
10
 73
6
 74
4
 40
0.000000
 40
0.000000
 40
0.000000
 40
0.000000
 40
4.042341
 40
8.467943
 40
12.350255
 40
12.350255
 40
12.350255
 40
12.350255
 10
54.788253
 20
146.087226
 30
0.0
 10
55.455073
 20
147.349651
 30
0.0
 10
56.851934
 20
149.994193
 30
0.0
 10
62.133651
 20
149.905199
 30
0.0
 10
63.411391
 20
147.266241
 30
0.0
 10
64.008483
 20
146.033049
 30
0.0
 11
54.788253
 21
146.087226
 31
0.0
 11
57.295645
 21
149.257952
 31
0.0
 11
61.720362
 21
149.169425
 31
0.0
 11
64.008483
 21
146.033049
 31
0.0
  0
SPLINE
  5
2a1
100
AcDbEntity
  8
Layer_2
 62
7
100
AcDbSpline
 70
0
 71
3
 72
10
 73
6
 74
4
 40
0.000000
 40
0.000000
 40
0.000000
 40
0.000000
 40
1.508488
 40
2.959290
 40
4.522265
 40
4.522265
 40
4.522265
 40
4.522265
 10
76.779080
 20
148.556045
 30
0.0
 10
77.266489
 20
148.420439
 30
0.0
 10
78.222666
 20
148.154411
 30
0.0
 10
79.393683
 20
147.032371
 30
0.0
 10
79.516627
 20
146.008266
 30
0.0
 10
79.580386
 20
145.477155
 30
0.0
 11
76.779080
 21
148.556045
 31
0.0
 11
78.191965
 21
148.027563
 31
0.0
 11
79.212279
 21
146.996164
 31
0.0
 11
79.580386
 21
145.477155
 31
0.0
  0
LWPOLYLINE
  5
2a2
100
AcDbEntity
  8
Layer_2
 62
7
100
AcDbPolyline
 90
2
 70
0
 10
79.580386
 20
144.150055
 30
0.0
 10
79.580386
 20
139.913506
 30
0.0
  0
LWPOLYLINE
  5
2a3
100
AcDbEntity
  8
Layer_2
 62
7
100
AcDbPolyline
 90
3
 70
0
 10
75.251734
 20
132.904926
 30
0.0
 10
75.251734
 20
138.201916
 30
0.0
 10
72.485529
 20
138.201916
 30
0.0
  0
LWPOLYLINE
  5
2a4
100
AcDbEntity
  8
Layer_2
 62
7
100
AcDbPolyline
 90
4
 70
0
 10
72.502662
 20
139.914576
 30
0.0
 10
75.240559
 20
139.914576
 30
0.0
 10
75.240559
 20
144.140465
 30
0.0
 10
72.302328
 20
144.140465
 30
0.0
  0
LWPOLYLINE
  5
2a5
100
AcDbEntity
  8
Layer_2
 62
7
100
AcDbPolyline
 90
3
 70
0
 10
72.447990
 20
145.847275
 30
0.0
 10
75.240558
 20
145.847275
 30
0.0
 10
75.240558
 20
148.560475
 30
0.0
  0
LWPOLYLINE
  5
2a6
100
AcDbEntity
  8
Layer_2
 62
7
100
AcDbPolyline
 90
3
 70
0
 10
76.723807
 20
132.876696
 30
0.0
 10
76.723807
 20
138.173686
 30
0.0
 10
79.490012
 20
138.173686
 30
0.0
  0
LWPOLYLINE
  5
2a7
100
AcDbEntity
  8
Layer_2
 62
7
100
AcDbPolyline
 90
4
 70
0
 10
79.484537
 20
139.886346
 30
0.0
 10
76.734982
 20
139.886346
 30
0.0
 10
76.734982
 20
144.112235
 30
0.0
 10
79.685724
 20
144.112235
 30
0.0
  0
LWPOLYLINE
  5
2a8
100
AcDbEntity
  8
Layer_2
 62
7
100
AcDbPolyline
 90
3
 70
0
 10
79.663622
 20
145.819045
 30
0.0
 10
76.734983
 20
145.819045
 30
0.0
 10
76.734983
 20
148.532245
 30
0.0
  0
LWPOLYLINE
  5
2a9
100
AcDbEntity
  8
Layer_2
 62
5
100
AcDbPolyline
 90
3
 70
0
 10
71.419953
 20
146.257826
 30
0.0
 10
71.419953
 20
132.059831
 30
0.0
 10
80.640182
 20
131.973894
 30
0.0
  0
SPLINE
  5
2aa
100
AcDbEntity
  8
Layer_2
 62
7
100
AcDbSpline
 70
0
 71
3
 72
10
 73
6
 74
4
 40
0.000000
 40
0.000000
 40
0.000000
 40
0.000000
 40
1.598917
 40
3.039117
 40
4.505622
 40
4.505622
 40
4.505622
 40
4.505622
 10
72.396806
 20
145.524855
 30
0.0
 10
72.485778
 20
146.062876
 30
0.0
 10
72.654890
 20
147.085511
 30
0.0
 10
73.821545
 20
148.193019
 30
0.0
 10
74.765681
 20
148.442085
 30
0.0
 10
75.242022
 20
148.567745
 30
0.0
 11
72.396806
 21
145.524855
 31
0.0
 11
72.834730
 21
147.062633
 31
0.0
 11
73.861745
 21
148.072295
 31
0.0
 11
75.242022
 21
148.567745
 31
0.0
  0
LWPOLYLINE
  5
2ab
100
AcDbEntity
  8
Layer_2
 62
5
100
AcDbPolyline
 90
2
 70
0
 10
80.640182
 20
146.203641
 30
0.0
 10
80.640182
 20
131.973894
 30
0.0
  0
LWPOLYLINE
  5
2ac
100
AcDbEntity
  8
Layer_2
 62
7
100
AcDbPolyline
 90
2
 70
0
 10
95.193201
 20
132.716806
 30
0.0
 10
98.002867
 20
132.687206
 30
0.0
  0
LWPOLYLINE
  5
2ad
100
AcDbEntity
  8
Layer_2
 62
7
100
AcDbPolyline
 90
3
 70
0
 10
90.819287
 20
137.887026
 30
0.0
 10
90.819287
 20
132.762886
 30
0.0
 10
93.641349
 20
132.733186
 30
0.0
  0
LWPOLYLINE
  5
2ae
100
AcDbEntity
  8
Layer_2
 62
7
100
AcDbPolyline
 90
2
 70
0
 10
90.819287
 20
144.038995
 30
0.0
 10
90.819287
 20
139.685336
 30
0.0
  0
LWPOLYLINE
  5
2af
100
AcDbEntity
  8
Layer_2
 62
7
100
AcDbPolyline
 90
2
 70
0
 10
98.002867
 20
137.913906
 30
0.0
 10
98.002867
 20
132.687206
 30
0.0
  0
SPLINE
  5
2b0
100
AcDbEntity
  8
Layer_2
 62
5
100
AcDbSpline
 70
0
 71
3
 72
10
 73
6
 74
4
 40
0.000000
 40
0.000000
 40
0.000000
 40
0.000000
 40
4.042341
 40
8.467943
 40
12.350255
 40
12.350255
 40
12.350255
 40
12.350255
 10
71.419953
 20
146.257826
 30
0.0
 10
72.086772
 20
147.520251
 30
0.0
 10
73.483634
 20
150.164793
 30
0.0
 10
78.765350
 20
150.075799
 30
0.0
 10
80.043090
 20
147.436841
 30
0.0
 10
80.640182
 20
146.203649
 30
0.0
 11
71.419953
 21
146.257826
 31
0.0
 11
73.927345
 21
149.428552
 31
0.0
 11
78.352061
 21
149.340025
 31
0.0
 11
80.640182
 21
146.203649
 31
0.0
  0
SPLINE
  5
2b1
100
AcDbEntity
  8
Layer_2
 62
7
100
AcDbSpline
 70
0
 71
3
 72
10
 73
6
 74
4
 40
0.000000
 40
0.000000
 40
0.000000
 40
0.000000
 40
1.508488
 40
2.959290
 40
4.522264
 40
4.522264
 40
4.522264
 40
4.522264
 10
95.201562
 20
148.299025
 30
0.0
 10
95.688970
 20
148.163419
 30
0.0
 10
96.645147
 20
147.897391
 30
0.0
 10
97.816164
 20
146.775351
 30
0.0
 10
97.939107
 20
145.751246
 30
0.0
 10
98.002867
 20
145.220135
 30
0.0
 11
95.201562
 21
148.299025
 31
0.0
 11
96.614446
 21
147.770543
 31
0.0
 11
97.634760
 21
146.739144
 31
0.0
 11
98.002867
 21
145.220135
 31
0.0
  0
LWPOLYLINE
  5
2b2
100
AcDbEntity
  8
Layer_2
 62
7
100
AcDbPolyline
 90
2
 70
0
 10
98.002867
 20
143.893035
 30
0.0
 10
98.002867
 20
139.656486
 30
0.0
  0
LWPOLYLINE
  5
2b3
100
AcDbEntity
  8
Layer_2
 62
7
100
AcDbPolyline
 90
3
 70
0
 10
93.674215
 20
132.647906
 30
0.0
 10
93.674215
 20
137.944896
 30
0.0
 10
90.908010
 20
137.944896
 30
0.0
  0
LWPOLYLINE
  5
2b4
100
AcDbEntity
  8
Layer_2
 62
7
100
AcDbPolyline
 90
4
 70
0
 10
90.925143
 20
139.657556
 30
0.0
 10
93.663040
 20
139.657556
 30
0.0
 10
93.663040
 20
143.883445
 30
0.0
 10
90.724809
 20
143.883445
 30
0.0
  0
LWPOLYLINE
  5
2b5
100
AcDbEntity
  8
Layer_2
 62
7
100
AcDbPolyline
 90
3
 70
0
 10
90.870471
 20
145.590255
 30
0.0
 10
93.663039
 20
145.590255
 30
0.0
 10
93.663039
 20
148.303455
 30
0.0
  0
LWPOLYLINE
  5
2b6
100
AcDbEntity
  8
Layer_2
 62
7
100
AcDbPolyline
 90
3
 70
0
 10
95.146289
 20
132.619676
 30
0.0
 10
95.146289
 20
137.916666
 30
0.0
 10
97.912494
 20
137.916666
 30
0.0
  0
LWPOLYLINE
  5
2b7
100
AcDbEntity
  8
Layer_2
 62
7
100
AcDbPolyline
 90
4
 70
0
 10
97.907019
 20
139.629326
 30
0.0
 10
95.157464
 20
139.629326
 30
0.0
 10
95.157464
 20
143.855215
 30
0.0
 10
98.108206
 20
143.855215
 30
0.0
  0
LWPOLYLINE
  5
2b8
100
AcDbEntity
  8
Layer_2
 62
7
100
AcDbPolyline
 90
3
 70
0
 10
98.086104
 20
145.562025
 30
0.0
 10
95.157465
 20
145.562025
 30
0.0
 10
95.157465
 20
148.275225
 30
0.0
  0
LWPOLYLINE
  5
2b9
100
AcDbEntity
  8
Layer_2
 62
5
100
AcDbPolyline
 90
3
 70
0
 10
89.842452
 20
146.000726
 30
0.0
 10
89.842452
 20
131.802731
 30
0.0
 10
99.062681
 20
131.716794
 30
0.0
  0
SPLINE
  5
2ba
100
AcDbEntity
  8
Layer_2
 62
7
100
AcDbSpline
 70
0
 71
3
 72
10
 73
6
 74
4
 40
0.000000
 40
0.000000
 40
0.000000
 40
0.000000
 40
1.598917
 40
3.039117
 40
4.505621
 40
4.505621
 40
4.505621
 40
4.505621
 10
90.819287
 20
145.267835
 30
0.0
 10
90.908259
 20
145.805856
 30
0.0
 10
91.077372
 20
146.828491
 30
0.0
 10
92.244025
 20
147.935998
 30
0.0
 10
93.188162
 20
148.185065
 30
0.0
 10
93.664502
 20
148.310725
 30
0.0
 11
90.819287
 21
145.267835
 31
0.0
 11
91.257211
 21
146.805613
 31
0.0
 11
92.284226
 21
147.815275
 31
0.0
 11
93.664502
 21
148.310725
 31
0.0
  0
LWPOLYLINE
  5
2bb
100
AcDbEntity
  8
Layer_2
 62
5
100
AcDbPolyline
 90
2
 70
0
 10
99.062681
 20
145.946541
 30
0.0
 10
99.062681
 20
131.716794
 30
0.0
  0
LWPOLYLINE
  5
2bc
100
AcDbEntity
  8
Layer_2
 62
7
100
AcDbPolyline
 90
2
 70
0
 10
113.654016
 20
132.669086
 30
0.0
 10
116.463676
 20
132.639486
 30
0.0
  0
LWPOLYLINE
  5
2bd
100
AcDbEntity
  8
Layer_2
 62
7
100
AcDbPolyline
 90
3
 70
0
 10
109.280096
 20
137.839316
 30
0.0
 10
109.280096
 20
132.715176
 30
0.0
 10
112.102156
 20
132.685476
 30
0.0
  0
LWPOLYLINE
  5
2be
100
AcDbEntity
  8
Layer_2
 62
7
100
AcDbPolyline
 90
2
 70
0
 10
109.280096
 20
143.991275
 30
0.0
 10
109.280096
 20
139.637626
 30
0.0
  0
LWPOLYLINE
  5
2bf
100
AcDbEntity
  8
Layer_2
 62
7
100
AcDbPolyline
 90
2
 70
0
 10
116.463676
 20
137.866186
 30
0.0
 10
116.463676
 20
132.639496
 30
0.0
  0
SPLINE
  5
2c0
100
AcDbEntity
  8
Layer_2
 62
5
100
AcDbSpline
 70
0
 71
3
 72
10
 73
6
 74
4
 40
0.000000
 40
0.000000
 40
0.000000
 40
0.000000
 40
4.042341
 40
8.467943
 40
12.350255
 40
12.350255
 40
12.350255
 40
12.350255
 10
89.842452
 20
146.000726
 30
0.0
 10
90.509272
 20
147.263151
 30
0.0
 10
91.906133
 20
149.907693
 30
0.0
 10
97.187850
 20
149.818699
 30
0.0
 10
98.465590
 20
147.179741
 30
0.0
 10
99.062681
 20
145.946549
 30
0.0
 11
89.842452
 21
146.000726
 31
0.0
 11
92.349844
 21
149.171452
 31
0.0
 11
96.774561
 21
149.082925
 31
0.0
 11
99.062681
 21
145.946549
 31
0.0
  0
SPLINE
  5
2c1
100
AcDbEntity
  8
Layer_2
 62
7
100
AcDbSpline
 70
0
 71
3
 72
10
 73
6
 74
4
 40
0.000000
 40
0.000000
 40
0.000000
 40
0.000000
 40
1.508484
 40
2.959285
 40
4.522259
 40
4.522259
 40
4.522259
 40
4.522259
 10
113.662376
 20
148.251305
 30
0.0
 10
114.149783
 20
148.115699
 30
0.0
 10
115.105959
 20
147.849671
 30
0.0
 10
116.276972
 20
146.727630
 30
0.0
 10
116.399916
 20
145.703526
 30
0.0
 10
116.463676
 20
145.172415
 30
0.0
 11
113.662376
 21
148.251305
 31
0.0
 11
115.075257
 21
147.722823
 31
0.0
 11
116.095569
 21
146.691424
 31
0.0
 11
116.463676
 21
145.172415
 31
0.0
  0
LWPOLYLINE
  5
2c2
100
AcDbEntity
  8
Layer_2
 62
7
100
AcDbPolyline
 90
2
 70
0
 10
116.463676
 20
143.845315
 30
0.0
 10
116.463676
 20
139.608766
 30
0.0
  0
LWPOLYLINE
  5
2c3
100
AcDbEntity
  8
Layer_2
 62
7
100
AcDbPolyline
 90
3
 70
0
 10
112.135026
 20
132.600186
 30
0.0
 10
112.135026
 20
137.897176
 30
0.0
 10
109.368816
 20
137.897176
 30
0.0
  0
LWPOLYLINE
  5
2c4
100
AcDbEntity
  8
Layer_2
 62
7
100
AcDbPolyline
 90
4
 70
0
 10
109.385956
 20
139.609836
 30
0.0
 10
112.123846
 20
139.609836
 30
0.0
 10
112.123846
 20
143.835725
 30
0.0
 10
109.185616
 20
143.835725
 30
0.0
  0
LWPOLYLINE
  5
2c5
100
AcDbEntity
  8
Layer_2
 62
7
100
AcDbPolyline
 90
3
 70
0
 10
109.331276
 20
145.542535
 30
0.0
 10
112.123846
 20
145.542535
 30
0.0
 10
112.123846
 20
148.255735
 30
0.0
  0
LWPOLYLINE
  5
2c6
100
AcDbEntity
  8
Layer_2
 62
7
100
AcDbPolyline
 90
3
 70
0
 10
113.607096
 20
132.571956
 30
0.0
 10
113.607096
 20
137.868946
 30
0.0
 10
116.373306
 20
137.868946
 30
0.0
  0
LWPOLYLINE
  5
2c7
100
AcDbEntity
  8
Layer_2
 62
7
100
AcDbPolyline
 90
4
 70
0
 10
116.367826
 20
139.581606
 30
0.0
 10
113.618276
 20
139.581606
 30
0.0
 10
113.618276
 20
143.807495
 30
0.0
 10
116.569016
 20
143.807495
 30
0.0
  0
LWPOLYLINE
  5
2c8
100
AcDbEntity
  8
Layer_2
 62
7
100
AcDbPolyline
 90
3
 70
0
 10
116.546916
 20
145.514305
 30
0.0
 10
113.618276
 20
145.514305
 30
0.0
 10
113.618276
 20
148.227505
 30
0.0
  0
LWPOLYLINE
  5
2c9
100
AcDbEntity
  8
Layer_2
 62
5
100
AcDbPolyline
 90
3
 70
0
 10
108.303251
 20
145.953026
 30
0.0
 10
108.303251
 20
131.755031
 30
0.0
 10
117.523481
 20
131.669094
 30
0.0
  0
SPLINE
  5
2ca
100
AcDbEntity
  8
Layer_2
 62
7
100
AcDbSpline
 70
0
 71
3
 72
10
 73
6
 74
4
 40
0.000000
 40
0.000000
 40
0.000000
 40
0.000000
 40
1.598928
 40
3.039124
 40
4.505622
 40
4.505622
 40
4.505622
 40
4.505622
 10
109.280096
 20
145.220115
 30
0.0
 10
109.369074
 20
145.758138
 30
0.0
 10
109.538197
 20
146.780772
 30
0.0
 10
110.704842
 20
147.888286
 30
0.0
 10
111.648977
 20
148.137348
 30
0.0
 10
112.125316
 20
148.263005
 30
0.0
 11
109.280096
 21
145.220115
 31
0.0
 11
109.718035
 21
146.757899
 31
0.0
 11
110.745044
 21
147.767561
 31
0.0
 11
112.125316
 21
148.263005
 31
0.0
  0
LWPOLYLINE
  5
2cb
100
AcDbEntity
  8
Layer_2
 62
5
100
AcDbPolyline
 90
2
 70
0
 10
117.523481
 20
145.898841
 30
0.0
 10
117.523481
 20
131.669094
 30
0.0
  0
LWPOLYLINE
  5
2cc
100
AcDbEntity
  8
Layer_2
 62
7
100
AcDbPolyline
 90
2
 70
0
 10
132.076596
 20
132.755596
 30
0.0
 10
134.886266
 20
132.725996
 30
0.0
  0
LWPOLYLINE
  5
2cd
100
AcDbEntity
  8
Layer_2
 62
7
100
AcDbPolyline
 90
3
 70
0
 10
127.702686
 20
137.925816
 30
0.0
 10
127.702686
 20
132.801676
 30
0.0
 10
130.524746
 20
132.771976
 30
0.0
  0
LWPOLYLINE
  5
2ce
100
AcDbEntity
  8
Layer_2
 62
7
100
AcDbPolyline
 90
2
 70
0
 10
127.702686
 20
144.077775
 30
0.0
 10
127.702686
 20
139.724126
 30
0.0
  0
LWPOLYLINE
  5
2cf
100
AcDbEntity
  8
Layer_2
 62
7
100
AcDbPolyline
 90
2
 70
0
 10
134.886266
 20
137.952696
 30
0.0
 10
134.886266
 20
132.725996
 30
0.0
  0
SPLINE
  5
2d0
100
AcDbEntity
  8
Layer_2
 62
5
100
AcDbSpline
 70
0
 71
3
 72
10
 73
6
 74
4
 40
0.000000
 40
0.000000
 40
0.000000
 40
0.000000
 40
4.042341
 40
8.467943
 40
12.350255
 40
12.350255
 40
12.350255
 40
12.350255
 10
108.303251
 20
145.953026
 30
0.0
 10
108.970071
 20
147.215451
 30
0.0
 10
110.366932
 20
149.859993
 30
0.0
 10
115.648649
 20
149.770999
 30
0.0
 10
116.926389
 20
147.132041
 30
0.0
 10
117.523481
 20
145.898849
 30
0.0
 11
108.303251
 21
145.953026
 31
0.0
 11
110.810644
 21
149.123752
 31
0.0
 11
115.235360
 21
149.035225
 31
0.0
 11
117.523481
 21
145.898849
 31
0.0
  0
SPLINE
  5
2d1
100
AcDbEntity
  8
Layer_2
 62
7
100
AcDbSpline
 70
0
 71
3
 72
10
 73
6
 74
4
 40
0.000000
 40
0.000000
 40
0.000000
 40
0.000000
 40
1.508490
 40
2.959289
 40
4.522261
 40
4.522261
 40
4.522261
 40
4.522261
 10
132.084956
 20
148.337805
 30
0.0
 10
132.572365
 20
148.202200
 30
0.0
 10
133.528542
 20
147.936175
 30
0.0
 10
134.699562
 20
146.814138
 30
0.0
 10
134.822506
 20
145.790036
 30
0.0
 10
134.886266
 20
145.258925
 30
0.0
 11
132.084956
 21
148.337805
 31
0.0
 11
133.497843
 21
147.809326
 31
0.0
 11
134.518158
 21
146.777931
 31
0.0
 11
134.886266
 21
145.258925
 31
0.0
  0
LWPOLYLINE
  5
2d2
100
AcDbEntity
  8
Layer_2
 62
7
100
AcDbPolyline
 90
2
 70
0
 10
134.886266
 20
143.931825
 30
0.0
 10
134.886266
 20
139.695276
 30
0.0
  0
LWPOLYLINE
  5
2d3
100
AcDbEntity
  8
Layer_2
 62
7
100
AcDbPolyline
 90
3
 70
0
 10
130.557606
 20
132.686696
 30
0.0
 10
130.557606
 20
137.983686
 30
0.0
 10
127.791406
 20
137.983686
 30
0.0
  0
LWPOLYLINE
  5
2d4
100
AcDbEntity
  8
Layer_2
 62
7
100
AcDbPolyline
 90
4
 70
0
 10
127.808536
 20
139.696346
 30
0.0
 10
130.546436
 20
139.696346
 30
0.0
 10
130.546436
 20
143.922235
 30
0.0
 10
127.608206
 20
143.922235
 30
0.0
  0
LWPOLYLINE
  5
2d5
100
AcDbEntity
  8
Layer_2
 62
7
100
AcDbPolyline
 90
3
 70
0
 10
127.753866
 20
145.629045
 30
0.0
 10
130.546436
 20
145.629045
 30
0.0
 10
130.546436
 20
148.342245
 30
0.0
  0
LWPOLYLINE
  5
2d6
100
AcDbEntity
  8
Layer_2
 62
7
100
AcDbPolyline
 90
3
 70
0
 10
132.029686
 20
132.658466
 30
0.0
 10
132.029686
 20
137.955456
 30
0.0
 10
134.795886
 20
137.955456
 30
0.0
  0
LWPOLYLINE
  5
2d7
100
AcDbEntity
  8
Layer_2
 62
7
100
AcDbPolyline
 90
4
 70
0
 10
134.790416
 20
139.668116
 30
0.0
 10
132.040856
 20
139.668116
 30
0.0
 10
132.040856
 20
143.894005
 30
0.0
 10
134.991606
 20
143.894005
 30
0.0
  0
LWPOLYLINE
  5
2d8
100
AcDbEntity
  8
Layer_2
 62
7
100
AcDbPolyline
 90
3
 70
0
 10
134.969496
 20
145.600815
 30
0.0
 10
132.040856
 20
145.600815
 30
0.0
 10
132.040856
 20
148.314015
 30
0.0
  0
LWPOLYLINE
  5
2d9
100
AcDbEntity
  8
Layer_2
 62
5
100
AcDbPolyline
 90
3
 70
0
 10
126.725851
 20
146.039526
 30
0.0
 10
126.725851
 20
131.841531
 30
0.0
 10
135.946080
 20
131.755594
 30
0.0
  0
SPLINE
  5
2da
100
AcDbEntity
  8
Layer_2
 62
7
100
AcDbSpline
 70
0
 71
3
 72
10
 73
6
 74
4
 40
0.000000
 40
0.000000
 40
0.000000
 40
0.000000
 40
1.598921
 40
3.039114
 40
4.505611
 40
4.505611
 40
4.505611
 40
4.505611
 10
127.702686
 20
145.306625
 30
0.0
 10
127.791663
 20
145.844646
 30
0.0
 10
127.960785
 20
146.867276
 30
0.0
 10
129.127424
 20
147.974789
 30
0.0
 10
130.071557
 20
148.223855
 30
0.0
 10
130.547896
 20
148.349515
 30
0.0
 11
127.702686
 21
145.306625
 31
0.0
 11
128.140622
 21
146.844403
 31
0.0
 11
129.167626
 21
147.854065
 31
0.0
 11
130.547896
 21
148.349515
 31
0.0
  0
LWPOLYLINE
  5
2db
100
AcDbEntity
  8
Layer_2
 62
5
100
AcDbPolyline
 90
2
 70
0
 10
135.946080
 20
145.985341
 30
0.0
 10
135.946080
 20
131.755594
 30
0.0
  0
LWPOLYLINE
  5
2dc
100
AcDbEntity
  8
Layer_2
 62
7
100
AcDbPolyline
 90
2
 70
0
 10
148.708305
 20
132.755596
 30
0.0
 10
151.517965
 20
132.725996
 30
0.0
  0
LWPOLYLINE
  5
2dd
100
AcDbEntity
  8
Layer_2
 62
7
100
AcDbPolyline
 90
3
 70
0
 10
144.334385
 20
137.925816
 30
0.0
 10
144.334385
 20
132.801676
 30
0.0
 10
147.156445
 20
132.771976
 30
0.0
  0
LWPOLYLINE
  5
2de
100
AcDbEntity
  8
Layer_2
 62
7
100
AcDbPolyline
 90
2
 70
0
 10
144.334385
 20
144.077775
 30
0.0
 10
144.334385
 20
139.724126
 30
0.0
  0
LWPOLYLINE
  5
2df
100
AcDbEntity
  8
Layer_2
 62
7
100
AcDbPolyline
 90
2
 70
0
 10
151.517965
 20
137.952696
 30
0.0
 10
151.517965
 20
132.725996
 30
0.0
  0
SPLINE
  5
2e0
100
AcDbEntity
  8
Layer_2
 62
5
100
AcDbSpline
 70
0
 71
3
 72
10
 73
6
 74
4
 40
0.000000
 40
0.000000
 40
0.000000
 40
0.000000
 40
4.042341
 40
8.467943
 40
12.350255
 40
12.350255
 40
12.350255
 40
12.350255
 10
126.725851
 20
146.039526
 30
0.0
 10
127.392670
 20
147.301951
 30
0.0
 10
128.789532
 20
149.946493
 30
0.0
 10
134.071249
 20
149.857499
 30
0.0
 10
135.348989
 20
147.218541
 30
0.0
 10
135.946080
 20
145.985349
 30
0.0
 11
126.725851
 21
146.039526
 31
0.0
 11
129.233243
 21
149.210252
 31
0.0
 11
133.657959
 21
149.121725
 31
0.0
 11
135.946080
 21
145.985349
 31
0.0
  0
SPLINE
  5
2e1
100
AcDbEntity
  8
Layer_2
 62
7
100
AcDbSpline
 70
0
 71
3
 72
10
 73
6
 74
4
 40
0.000000
 40
0.000000
 40
0.000000
 40
0.000000
 40
1.508483
 40
2.959280
 40
4.522252
 40
4.522252
 40
4.522252
 40
4.522252
 10
148.716665
 20
148.337805
 30
0.0
 10
149.204072
 20
148.202199
 30
0.0
 10
150.160246
 20
147.936173
 30
0.0
 10
151.331261
 20
146.814137
 30
0.0
 10
151.454205
 20
145.790035
 30
0.0
 10
151.517965
 20
145.258925
 30
0.0
 11
148.716665
 21
148.337805
 31
0.0
 11
150.129546
 21
147.809326
 31
0.0
 11
151.149858
 21
146.777931
 31
0.0
 11
151.517965
 21
145.258925
 31
0.0
  0
LWPOLYLINE
  5
2e2
100
AcDbEntity
  8
Layer_2
 62
7
100
AcDbPolyline
 90
2
 70
0
 10
151.517965
 20
143.931825
 30
0.0
 10
151.517965
 20
139.695276
 30
0.0
  0
LWPOLYLINE
  5
2e3
100
AcDbEntity
  8
Layer_2
 62
7
100
AcDbPolyline
 90
3
 70
0
 10
147.189315
 20
132.686696
 30
0.0
 10
147.189315
 20
137.983686
 30
0.0
 10
144.423105
 20
137.983686
 30
0.0
  0
LWPOLYLINE
  5
2e4
100
AcDbEntity
  8
Layer_2
 62
7
100
AcDbPolyline
 90
4
 70
0
 10
144.440245
 20
139.696346
 30
0.0
 10
147.178135
 20
139.696346
 30
0.0
 10
147.178135
 20
143.922235
 30
0.0
 10
144.239905
 20
143.922235
 30
0.0
  0
LWPOLYLINE
  5
2e5
100
AcDbEntity
  8
Layer_2
 62
7
100
AcDbPolyline
 90
3
 70
0
 10
144.385575
 20
145.629045
 30
0.0
 10
147.178135
 20
145.629045
 30
0.0
 10
147.178135
 20
148.342245
 30
0.0
  0
LWPOLYLINE
  5
2e6
100
AcDbEntity
  8
Layer_2
 62
7
100
AcDbPolyline
 90
3
 70
0
 10
148.661385
 20
132.658466
 30
0.0
 10
148.661385
 20
137.955456
 30
0.0
 10
151.427595
 20
137.955456
 30
0.0
  0
LWPOLYLINE
  5
2e7
100
AcDbEntity
  8
Layer_2
 62
7
100
AcDbPolyline
 90
4
 70
0
 10
151.422115
 20
139.668116
 30
0.0
 10
148.672565
 20
139.668116
 30
0.0
 10
148.672565
 20
143.894005
 30
0.0
 10
151.623305
 20
143.894005
 30
0.0
  0
LWPOLYLINE
  5
2e8
100
AcDbEntity
  8
Layer_2
 62
7
100
AcDbPolyline
 90
3
 70
0
 10
151.601205
 20
145.600815
 30
0.0
 10
148.672565
 20
145.600815
 30
0.0
 10
148.672565
 20
148.314015
 30
0.0
  0
LWPOLYLINE
  5
2e9
100
AcDbEntity
  8
Layer_2
 62
5
100
AcDbPolyline
 90
3
 70
0
 10
143.357150
 20
146.039526
 30
0.0
 10
143.357150
 20
131.841531
 30
0.0
 10
152.577380
 20
131.755594
 30
0.0
  0
SPLINE
  5
2ea
100
AcDbEntity
  8
Layer_2
 62
7
100
AcDbSpline
 70
0
 71
3
 72
10
 73
6
 74
4
 40
0.000000
 40
0.000000
 40
0.000000
 40
0.000000
 40
1.598921
 40
3.039118
 40
4.505618
 40
4.505618
 40
4.505618
 40
4.505618
 10
144.334385
 20
145.306625
 30
0.0
 10
144.423363
 20
145.844646
 30
0.0
 10
144.592487
 20
146.867277
 30
0.0
 10
145.759132
 20
147.974789
 30
0.0
 10
146.703266
 20
148.223855
 30
0.0
 10
147.179605
 20
148.349515
 30
0.0
 11
144.334385
 21
145.306625
 31
0.0
 11
144.772324
 21
146.844403
 31
0.0
 11
145.799333
 21
147.854065
 31
0.0
 11
147.179605
 21
148.349515
 31
0.0
  0
LWPOLYLINE
  5
2eb
100
AcDbEntity
  8
Layer_2
 62
5
100
AcDbPolyline
 90
2
 70
0
 10
152.577380
 20
145.985341
 30
0.0
 10
152.577380
 20
131.755594
 30
0.0
  0
LWPOLYLINE
  5
2ec
100
AcDbEntity
  8
Layer_2
 62
5
100
AcDbPolyline
 90
3
 70
0
 10
53.723915
 20
169.104008
 30
0.0
 10
53.723915
 20
156.532737
 30
0.0
 10
66.399264
 20
156.456646
 30
0.0
  0
SPLINE
  5
2ed
100
AcDbEntity
  8
Layer_2
 62
5
100
AcDbSpline
 70
0
 71
3
 72
10
 73
6
 74
4
 40
0.000000
 40
0.000000
 40
0.000000
 40
0.000000
 40
4.042341
 40
8.467943
 40
12.350255
 40
12.350255
 40
12.350255
 40
12.350255
 10
143.357150
 20
146.039526
 30
0.0
 10
144.023970
 20
147.301951
 30
0.0
 10
145.420831
 20
149.946493
 30
0.0
 10
150.702548
 20
149.857499
 30
0.0
 10
151.980288
 20
147.218541
 30
0.0
 10
152.577380
 20
145.985349
 30
0.0
 11
143.357150
 21
146.039526
 31
0.0
 11
145.864542
 21
149.210252
 31
0.0
 11
150.289259
 21
149.121725
 31
0.0
 11
152.577380
 21
145.985349
 31
0.0
  0
LWPOLYLINE
  5
2ee
100
AcDbEntity
  8
Layer_2
 62
5
100
AcDbPolyline
 90
2
 70
0
 10
66.399264
 20
169.056031
 30
0.0
 10
66.399264
 20
156.456646
 30
0.0
  0
LWPOLYLINE
  5
2ef
100
AcDbEntity
  8
Layer_2
 62
5
100
AcDbPolyline
 90
3
 70
0
 10
71.176057
 20
169.108808
 30
0.0
 10
71.176057
 20
156.537537
 30
0.0
 10
83.851405
 20
156.461446
 30
0.0
  0
SPLINE
  5
2f0
100
AcDbEntity
  8
Layer_2
 62
5
100
AcDbSpline
 70
0
 71
3
 72
10
 73
6
 74
4
 40
0.000000
 40
0.000000
 40
0.000000
 40
0.000000
 40
4.445616
 40
10.528922
 40
14.724919
 40
14.724919
 40
14.724919
 40
14.724919
 10
53.723915
 20
169.104008
 30
0.0
 10
54.770766
 20
170.194572
 30
0.0
 10
57.250109
 20
172.777446
 30
0.0
 10
63.121447
 20
172.747776
 30
0.0
 10
65.449114
 20
170.126173
 30
0.0
 10
66.399264
 20
169.056038
 30
0.0
 11
53.723915
 21
169.104008
 31
0.0
 11
57.170909
 21
171.911450
 31
0.0
 11
63.253710
 21
171.833066
 31
0.0
 11
66.399264
 21
169.056038
 31
0.0
  0
LWPOLYLINE
  5
2f1
100
AcDbEntity
  8
Layer_2
 62
5
100
AcDbPolyline
 90
2
 70
0
 10
83.851405
 20
169.060831
 30
0.0
 10
83.851405
 20
156.461446
 30
0.0
  0
LWPOLYLINE
  5
2f2
100
AcDbEntity
  8
Layer_2
 62
5
100
AcDbPolyline
 90
3
 70
0
 10
88.587056
 20
169.081808
 30
0.0
 10
88.587056
 20
156.510537
 30
0.0
 10
101.262405
 20
156.434446
 30
0.0
  0
SPLINE
  5
2f3
100
AcDbEntity
  8
Layer_2
 62
5
100
AcDbSpline
 70
0
 71
3
 72
10
 73
6
 74
4
 40
0.000000
 40
0.000000
 40
0.000000
 40
0.000000
 40
4.445616
 40
10.528922
 40
14.724919
 40
14.724919
 40
14.724919
 40
14.724919
 10
71.176057
 20
169.108808
 30
0.0
 10
72.222907
 20
170.199372
 30
0.0
 10
74.702251
 20
172.782246
 30
0.0
 10
80.573588
 20
172.752576
 30
0.0
 10
82.901255
 20
170.130973
 30
0.0
 10
83.851405
 20
169.060838
 30
0.0
 11
71.176057
 21
169.108808
 31
0.0
 11
74.623050
 21
171.916250
 31
0.0
 11
80.705851
 21
171.837866
 31
0.0
 11
83.851405
 21
169.060838
 31
0.0
  0
LWPOLYLINE
  5
2f4
100
AcDbEntity
  8
Layer_2
 62
5
100
AcDbPolyline
 90
2
 70
0
 10
101.262405
 20
169.033831
 30
0.0
 10
101.262405
 20
156.434446
 30
0.0
  0
LWPOLYLINE
  5
2f5
100
AcDbEntity
  8
Layer_2
 62
5
100
AcDbPolyline
 90
3
 70
0
 10
105.736455
 20
169.044308
 30
0.0
 10
105.736455
 20
156.473037
 30
0.0
 10
118.411804
 20
156.396946
 30
0.0
  0
SPLINE
  5
2f6
100
AcDbEntity
  8
Layer_2
 62
5
100
AcDbSpline
 70
0
 71
3
 72
10
 73
6
 74
4
 40
0.000000
 40
0.000000
 40
0.000000
 40
0.000000
 40
4.445616
 40
10.528922
 40
14.724919
 40
14.724919
 40
14.724919
 40
14.724919
 10
88.587056
 20
169.081808
 30
0.0
 10
89.633907
 20
170.172372
 30
0.0
 10
92.113250
 20
172.755246
 30
0.0
 10
97.984588
 20
172.725576
 30
0.0
 10
100.312254
 20
170.103973
 30
0.0
 10
101.262405
 20
169.033838
 30
0.0
 11
88.587056
 21
169.081808
 31
0.0
 11
92.034049
 21
171.889250
 31
0.0
 11
98.116851
 21
171.810866
 31
0.0
 11
101.262405
 21
169.033838
 31
0.0
  0
LWPOLYLINE
  5
2f7
100
AcDbEntity
  8
Layer_2
 62
5
100
AcDbPolyline
 90
2
 70
0
 10
118.411804
 20
168.996331
 30
0.0
 10
118.411804
 20
156.396946
 30
0.0
  0
LWPOLYLINE
  5
2f8
100
AcDbEntity
  8
Layer_2
 62
5
100
AcDbPolyline
 90
3
 70
0
 10
123.147555
 20
169.071308
 30
0.0
 10
123.147555
 20
156.500037
 30
0.0
 10
135.822904
 20
156.423946
 30
0.0
  0
SPLINE
  5
2f9
100
AcDbEntity
  8
Layer_2
 62
5
100
AcDbSpline
 70
0
 71
3
 72
10
 73
6
 74
4
 40
0.000000
 40
0.000000
 40
0.000000
 40
0.000000
 40
4.445616
 40
10.528922
 40
14.724919
 40
14.724919
 40
14.724919
 40
14.724919
 10
105.736455
 20
169.044308
 30
0.0
 10
106.783306
 20
170.134872
 30
0.0
 10
109.262650
 20
172.717746
 30
0.0
 10
115.133987
 20
172.688076
 30
0.0
 10
117.461654
 20
170.066473
 30
0.0
 10
118.411804
 20
168.996338
 30
0.0
 11
105.736455
 21
169.044308
 31
0.0
 11
109.183449
 21
171.851750
 31
0.0
 11
115.266250
 21
171.773366
 31
0.0
 11
118.411804
 21
168.996338
 31
0.0
  0
LWPOLYLINE
  5
2fa
100
AcDbEntity
  8
Layer_2
 62
5
100
AcDbPolyline
 90
2
 70
0
 10
135.822904
 20
169.023331
 30
0.0
 10
135.822904
 20
156.423946
 30
0.0
  0
LWPOLYLINE
  5
2fb
100
AcDbEntity
  8
Layer_2
 62
5
100
AcDbPolyline
 90
3
 70
0
 10
140.790754
 20
169.130808
 30
0.0
 10
140.790754
 20
156.559537
 30
0.0
 10
153.466103
 20
156.483446
 30
0.0
  0
SPLINE
  5
2fc
100
AcDbEntity
  8
Layer_2
 62
5
100
AcDbSpline
 70
0
 71
3
 72
10
 73
6
 74
4
 40
0.000000
 40
0.000000
 40
0.000000
 40
0.000000
 40
4.445616
 40
10.528922
 40
14.724919
 40
14.724919
 40
14.724919
 40
14.724919
 10
123.147555
 20
169.071308
 30
0.0
 10
124.194406
 20
170.161872
 30
0.0
 10
126.673749
 20
172.744746
 30
0.0
 10
132.545087
 20
172.715076
 30
0.0
 10
134.872753
 20
170.093473
 30
0.0
 10
135.822904
 20
169.023338
 30
0.0
 11
123.147555
 21
169.071308
 31
0.0
 11
126.594548
 21
171.878750
 31
0.0
 11
132.677350
 21
171.800366
 31
0.0
 11
135.822904
 21
169.023338
 31
0.0
  0
LWPOLYLINE
  5
2fd
100
AcDbEntity
  8
Layer_2
 62
5
100
AcDbPolyline
 90
2
 70
0
 10
153.466103
 20
169.082831
 30
0.0
 10
153.466103
 20
156.483446
 30
0.0
  0
LWPOLYLINE
  5
2fe
100
AcDbEntity
  8
Layer_2
 62
5
100
AcDbPolyline
 90
3
 70
0
 10
88.716697
 20
146.398038
 30
0.0
 10
88.716697
 20
130.440570
 30
0.0
 10
100.063748
 20
130.343984
 30
0.0
  0
SPLINE
  5
2ff
100
AcDbEntity
  8
Layer_2
 62
5
100
AcDbSpline
 70
0
 71
3
 72
10
 73
6
 74
4
 40
0.000000
 40
0.000000
 40
0.000000
 40
0.000000
 40
4.445616
 40
10.528922
 40
14.724919
 40
14.724919
 40
14.724919
 40
14.724919
 10
140.790754
 20
169.130808
 30
0.0
 10
141.837605
 20
170.221372
 30
0.0
 10
144.316949
 20
172.804246
 30
0.0
 10
150.188286
 20
172.774576
 30
0.0
 10
152.515953
 20
170.152973
 30
0.0
 10
153.466103
 20
169.082838
 30
0.0
 11
140.790754
 21
169.130808
 31
0.0
 11
144.237748
 21
171.938250
 31
0.0
 11
150.320549
 21
171.859866
 31
0.0
 11
153.466103
 21
169.082838
 31
0.0
  0
LWPOLYLINE
  5
300
100
AcDbEntity
  8
Layer_2
 62
5
100
AcDbPolyline
 90
2
 70
0
 10
100.063748
 20
146.337138
 30
0.0
 10
100.063748
 20
130.343984
 30
0.0
  0
LWPOLYLINE
  5
301
100
AcDbEntity
  8
Layer_2
 62
5
100
AcDbPolyline
 90
3
 70
0
 10
70.294298
 20
146.655038
 30
0.0
 10
70.294298
 20
130.697570
 30
0.0
 10
81.641349
 20
130.600984
 30
0.0
  0
SPLINE
  5
302
100
AcDbEntity
  8
Layer_2
 62
5
100
AcDbSpline
 70
0
 71
3
 72
10
 73
6
 74
4
 40
0.000000
 40
0.000000
 40
0.000000
 40
0.000000
 40
4.713981
 40
10.160251
 40
14.671943
 40
14.671943
 40
14.671943
 40
14.671943
 10
88.716697
 20
146.398038
 30
0.0
 10
89.569078
 20
147.808393
 30
0.0
 10
91.406252
 20
150.848194
 30
0.0
 10
97.605454
 20
150.760599
 30
0.0
 10
99.297243
 20
147.716396
 30
0.0
 10
100.063748
 20
146.337147
 30
0.0
 11
88.716697
 21
146.398038
 31
0.0
 11
91.802467
 21
149.961693
 31
0.0
 11
97.247829
 21
149.862196
 31
0.0
 11
100.063748
 21
146.337147
 31
0.0
  0
LWPOLYLINE
  5
303
100
AcDbEntity
  8
Layer_2
 62
5
100
AcDbPolyline
 90
2
 70
0
 10
81.641349
 20
146.594138
 30
0.0
 10
81.641349
 20
130.600984
 30
0.0
  0
LWPOLYLINE
  5
304
100
AcDbEntity
  8
Layer_2
 62
5
100
AcDbPolyline
 90
3
 70
0
 10
53.662549
 20
146.484538
 30
0.0
 10
53.662549
 20
130.527070
 30
0.0
 10
65.009599
 20
130.430484
 30
0.0
  0
SPLINE
  5
305
100
AcDbEntity
  8
Layer_2
 62
5
100
AcDbSpline
 70
0
 71
3
 72
10
 73
6
 74
4
 40
0.000000
 40
0.000000
 40
0.000000
 40
0.000000
 40
4.713981
 40
10.160251
 40
14.671943
 40
14.671943
 40
14.671943
 40
14.671943
 10
70.294298
 20
146.655038
 30
0.0
 10
71.146679
 20
148.065393
 30
0.0
 10
72.983852
 20
151.105194
 30
0.0
 10
79.183055
 20
151.017599
 30
0.0
 10
80.874843
 20
147.973396
 30
0.0
 10
81.641349
 20
146.594147
 30
0.0
 11
70.294298
 21
146.655038
 31
0.0
 11
73.380068
 21
150.218693
 31
0.0
 11
78.825429
 21
150.119196
 31
0.0
 11
81.641349
 21
146.594147
 31
0.0
  0
LWPOLYLINE
  5
306
100
AcDbEntity
  8
Layer_2
 62
5
100
AcDbPolyline
 90
2
 70
0
 10
65.009599
 20
146.423638
 30
0.0
 10
65.009599
 20
130.430484
 30
0.0
  0
LWPOLYLINE
  5
307
100
AcDbEntity
  8
Layer_2
 62
5
100
AcDbPolyline
 90
3
 70
0
 10
107.177597
 20
146.350338
 30
0.0
 10
107.177597
 20
130.392870
 30
0.0
 10
118.524647
 20
130.296284
 30
0.0
  0
SPLINE
  5
308
100
AcDbEntity
  8
Layer_2
 62
5
100
AcDbSpline
 70
0
 71
3
 72
10
 73
6
 74
4
 40
0.000000
 40
0.000000
 40
0.000000
 40
0.000000
 40
4.713981
 40
10.160251
 40
14.671943
 40
14.671943
 40
14.671943
 40
14.671943
 10
53.662549
 20
146.484538
 30
0.0
 10
54.514929
 20
147.894893
 30
0.0
 10
56.352103
 20
150.934694
 30
0.0
 10
62.551306
 20
150.847099
 30
0.0
 10
64.243094
 20
147.802896
 30
0.0
 10
65.009599
 20
146.423647
 30
0.0
 11
53.662549
 21
146.484538
 31
0.0
 11
56.748318
 21
150.048193
 31
0.0
 11
62.193680
 21
149.948696
 31
0.0
 11
65.009599
 21
146.423647
 31
0.0
  0
LWPOLYLINE
  5
309
100
AcDbEntity
  8
Layer_2
 62
5
100
AcDbPolyline
 90
2
 70
0
 10
118.524647
 20
146.289438
 30
0.0
 10
118.524647
 20
130.296284
 30
0.0
  0
LWPOLYLINE
  5
30a
100
AcDbEntity
  8
Layer_2
 62
5
100
AcDbPolyline
 90
3
 70
0
 10
125.600096
 20
146.436838
 30
0.0
 10
125.600096
 20
130.479370
 30
0.0
 10
136.947147
 20
130.382784
 30
0.0
  0
SPLINE
  5
30b
100
AcDbEntity
  8
Layer_2
 62
5
100
AcDbSpline
 70
0
 71
3
 72
10
 73
6
 74
4
 40
0.000000
 40
0.000000
 40
0.000000
 40
0.000000
 40
4.713981
 40
10.160251
 40
14.671943
 40
14.671943
 40
14.671943
 40
14.671943
 10
107.177597
 20
146.350338
 30
0.0
 10
108.029977
 20
147.760693
 30
0.0
 10
109.867151
 20
150.800494
 30
0.0
 10
116.066354
 20
150.712899
 30
0.0
 10
117.758142
 20
147.668696
 30
0.0
 10
118.524647
 20
146.289447
 30
0.0
 11
107.177597
 21
146.350338
 31
0.0
 11
110.263367
 21
149.913993
 31
0.0
 11
115.708728
 21
149.814496
 31
0.0
 11
118.524647
 21
146.289447
 31
0.0
  0
LWPOLYLINE
  5
30c
100
AcDbEntity
  8
Layer_2
 62
5
100
AcDbPolyline
 90
2
 70
0
 10
136.947147
 20
146.375938
 30
0.0
 10
136.947147
 20
130.382784
 30
0.0
  0
LWPOLYLINE
  5
30d
100
AcDbEntity
  8
Layer_2
 62
5
100
AcDbPolyline
 90
3
 70
0
 10
142.231796
 20
146.436838
 30
0.0
 10
142.231796
 20
130.479370
 30
0.0
 10
153.578846
 20
130.382784
 30
0.0
  0
SPLINE
  5
30e
100
AcDbEntity
  8
Layer_2
 62
5
100
AcDbSpline
 70
0
 71
3
 72
10
 73
6
 74
4
 40
0.000000
 40
0.000000
 40
0.000000
 40
0.000000
 40
4.713981
 40
10.160251
 40
14.671943
 40
14.671943
 40
14.671943
 40
14.671943
 10
125.600096
 20
146.436838
 30
0.0
 10
126.452477
 20
147.847193
 30
0.0
 10
128.289651
 20
150.886994
 30
0.0
 10
134.488853
 20
150.799399
 30
0.0
 10
136.180642
 20
147.755196
 30
0.0
 10
136.947147
 20
146.375947
 30
0.0
 11
125.600096
 21
146.436838
 31
0.0
 11
128.685866
 21
150.000493
 31
0.0
 11
134.131227
 21
149.900996
 31
0.0
 11
136.947147
 21
146.375947
 31
0.0
  0
LWPOLYLINE
  5
30f
100
AcDbEntity
  8
Layer_2
 62
5
100
AcDbPolyline
 90
2
 70
0
 10
153.578846
 20
146.375938
 30
0.0
 10
153.578846
 20
130.382784
 30
0.0
  0
LWPOLYLINE
  5
310
100
AcDbEntity
  8
Layer_2
 62
5
100
AcDbPolyline
 90
3
 70
0
 10
30.799004
 20
219.498439
 30
0.0
 10
18.929166
 20
190.243483
 30
0.0
 10
18.929166
 20
190.243483
 30
0.0
  0
LWPOLYLINE
  5
311
100
AcDbEntity
  8
Layer_2
 62
5
100
AcDbPolyline
 90
2
 70
0
 10
30.799004
 20
219.498439
 30
0.0
 10
54.396033
 20
219.498439
 30
0.0
  0
LWPOLYLINE
  5
312
100
AcDbEntity
  8
Layer_2
 62
5
100
AcDbPolyline
 90
2
 70
0
 10
18.929166
 20
190.243483
 30
0.0
 10
54.142664
 20
190.243483
 30
0.0
  0
LWPOLYLINE
  5
313
100
AcDbEntity
  8
Layer_2
 62
5
100
AcDbPolyline
 90
2
 70
0
 10
54.490045
 20
219.498632
 30
0.0
 10
54.151086
 20
190.276442
 30
0.0
  0
LWPOLYLINE
  5
314
100
AcDbEntity
  8
Layer_2
 62
5
100
AcDbPolyline
 90
3
 70
0
 10
176.594859
 20
219.586719
 30
0.0
 10
188.464697
 20
190.331763
 30
0.0
 10
188.464697
 20
190.331763
 30
0.0
  0
LWPOLYLINE
  5
315
100
AcDbEntity
  8
Layer_2
 62
5
100
AcDbPolyline
 90
2
 70
0
 10
176.594859
 20
219.586719
 30
0.0
 10
152.997830
 20
219.586719
 30
0.0
  0
LWPOLYLINE
  5
316
100
AcDbEntity
  8
Layer_2
 62
5
100
AcDbPolyline
 90
2
 70
0
 10
188.464697
 20
190.331763
 30
0.0
 10
153.251199
 20
190.331763
 30
0.0
  0
LWPOLYLINE
  5
317
100
AcDbEntity
  8
Layer_2
 62
5
100
AcDbPolyline
 90
2
 70
0
 10
152.903818
 20
219.586912
 30
0.0
 10
153.242777
 20
190.364722
 30
0.0
  0
SPLINE
  5
318
100
AcDbEntity
  8
Layer_2
 62
5
100
AcDbSpline
 70
0
 71
3
 72
10
 73
6
 74
4
 40
0.000000
 40
0.000000
 40
0.000000
 40
0.000000
 40
4.713981
 40
10.160251
 40
14.671943
 40
14.671943
 40
14.671943
 40
14.671943
 10
142.231796
 20
146.436838
 30
0.0
 10
143.084176
 20
147.847193
 30
0.0
 10
144.921350
 20
150.886994
 30
0.0
 10
151.120553
 20
150.799399
 30
0.0
 10
152.812341
 20
147.755196
 30
0.0
 10
153.578846
 20
146.375947
 30
0.0
 11
142.231796
 21
146.436838
 31
0.0
 11
145.317565
 21
150.000493
 31
0.0
 11
150.762927
 21
149.900996
 31
0.0
 11
153.578846
 21
146.375947
 31
0.0
  0
LWPOLYLINE
  5
319
100
AcDbEntity
  8
Layer_2
 62
7
100
AcDbPolyline
 90
2
 70
0
 10
151.656075
 20
221.305812
 30
0.0
 10
151.715475
 20
188.366424
 30
0.0
  0
SPLINE
  5
31a
100
AcDbEntity
  8
Layer_2
 62
7
100
AcDbSpline
 70
0
 71
3
 72
25
 73
21
 74
19
 40
0.000000
 40
0.000000
 40
0.000000
 40
0.000000
 40
0.788555
 40
1.562596
 40
2.349992
 40
3.136903
 40
3.909803
 40
4.697195
 40
5.485271
 40
6.259785
 40
7.048341
 40
7.836414
 40
8.609787
 40
9.396700
 40
9.921477
 40
10.442063
 40
10.967259
 40
11.492763
 40
12.014182
 40
12.540105
 40
12.540105
 40
12.540105
 40
12.540105
 10
70.742079
 20
215.248573
 30
0.0
 10
70.477535
 20
215.218129
 30
0.0
 10
69.953317
 20
215.157801
 30
0.0
 10
69.285020
 20
214.694827
 30
0.0
 10
68.837045
 20
214.032568
 30
0.0
 10
68.680862
 20
213.243459
 30
0.0
 10
68.837775
 20
212.457008
 30
0.0
 10
69.284225
 20
211.788861
 30
0.0
 10
69.953757
 20
211.343798
 30
0.0
 10
70.741839
 20
211.187449
 30
0.0
 10
71.530963
 20
211.343043
 30
0.0
 10
72.199454
 20
211.789750
 30
0.0
 10
72.646278
 20
212.456243
 30
0.0
 10
72.786281
 20
213.156849
 30
0.0
 10
72.704920
 20
213.768764
 30
0.0
 10
72.501950
 20
214.257758
 30
0.0
 10
72.179053
 20
214.678360
 30
0.0
 10
71.758015
 20
214.998330
 30
0.0
 10
71.267996
 20
215.208607
 30
0.0
 10
70.917886
 20
215.235213
 30
0.0
 10
70.742079
 20
215.248573
 30
0.0
 11
70.742079
 21
215.248573
 31
0.0
 11
69.968781
 21
215.094206
 31
0.0
 11
69.324741
 21
214.664843
 31
0.0
 11
68.885873
 21
214.011094
 31
0.0
 11
68.732885
 21
213.239198
 31
0.0
 11
68.883998
 21
212.481215
 31
0.0
 11
69.321401
 21
211.826490
 31
0.0
 11
69.977606
 21
211.390073
 31
0.0
 11
70.737303
 21
211.239301
 31
0.0
 11
71.510944
 21
211.391945
 31
0.0
 11
72.166171
 21
211.829823
 31
0.0
 11
72.596504
 21
212.472410
 31
0.0
 11
72.751221
 21
213.243963
 31
0.0
 11
72.682387
 21
213.764206
 31
0.0
 11
72.482782
 21
214.245006
 31
0.0
 11
72.162757
 21
214.661437
 31
0.0
 11
71.745385
 21
214.980741
 31
0.0
 11
71.263498
 21
215.179894
 31
0.0
 11
70.742079
 21
215.248573
 31
0.0
  0
LWPOLYLINE
  5
31b
100
AcDbEntity
  8
Layer_2
 62
7
100
AcDbPolyline
 90
1
 70
1
 10
70.742079
 20
215.248573
 30
0.0
  0
SPLINE
  5
31c
100
AcDbEntity
  8
Layer_2
 62
5
100
AcDbSpline
 70
0
 71
3
 72
25
 73
21
 74
19
 40
0.000000
 40
0.000000
 40
0.000000
 40
0.000000
 40
1.302852
 40
2.581725
 40
3.882662
 40
5.182799
 40
6.459786
 40
7.760717
 40
9.062779
 40
10.342432
 40
11.645287
 40
12.947343
 40
14.225111
 40
15.525251
 40
16.392289
 40
17.252403
 40
18.120133
 40
18.988372
 40
19.849861
 40
20.718792
 40
20.718792
 40
20.718792
 40
20.718792
 10
70.685400
 20
216.500810
 30
0.0
 10
70.248320
 20
216.450510
 30
0.0
 10
69.382205
 20
216.350836
 30
0.0
 10
68.278044
 20
215.585909
 30
0.0
 10
67.537898
 20
214.491723
 30
0.0
 10
67.279852
 20
213.187956
 30
0.0
 10
67.539105
 20
211.888578
 30
0.0
 10
68.276730
 20
210.784664
 30
0.0
 10
69.382933
 20
210.049331
 30
0.0
 10
70.685004
 20
209.791010
 30
0.0
 10
71.988797
 20
210.048083
 30
0.0
 10
73.093278
 20
210.786133
 30
0.0
 10
73.831523
 20
211.887315
 30
0.0
 10
74.062835
 20
213.044858
 30
0.0
 10
73.928411
 20
214.055866
 30
0.0
 10
73.593064
 20
214.863783
 30
0.0
 10
73.059572
 20
215.558703
 30
0.0
 10
72.363931
 20
216.087358
 30
0.0
 10
71.554322
 20
216.434778
 30
0.0
 10
70.975870
 20
216.478736
 30
0.0
 10
70.685400
 20
216.500810
 30
0.0
 11
70.685400
 21
216.500810
 31
0.0
 11
69.407755
 21
216.245764
 31
0.0
 11
68.343671
 21
215.536369
 31
0.0
 11
67.618573
 21
214.456244
 31
0.0
 11
67.365804
 21
213.180915
 31
0.0
 11
67.615474
 21
211.928573
 31
0.0
 11
68.338152
 21
210.846835
 31
0.0
 11
69.422336
 21
210.125787
 31
0.0
 11
70.677509
 21
209.876680
 31
0.0
 11
71.955721
 21
210.128879
 31
0.0
 11
73.038288
 21
210.852342
 31
0.0
 11
73.749286
 21
211.914025
 31
0.0
 11
74.004909
 21
213.188788
 31
0.0
 11
73.891181
 21
214.048335
 31
0.0
 11
73.561395
 21
214.842714
 31
0.0
 11
73.032647
 21
215.530741
 31
0.0
 11
72.343064
 21
216.058296
 31
0.0
 11
71.546890
 21
216.387339
 31
0.0
 11
70.685400
 21
216.500810
 31
0.0
  0
LWPOLYLINE
  5
31d
100
AcDbEntity
  8
Layer_2
 62
5
100
AcDbPolyline
 90
1
 70
1
 10
70.685400
 20
216.500810
 30
0.0
  0
SPLINE
  5
31e
100
AcDbEntity
  8
Layer_2
 62
5
100
AcDbSpline
 70
0
 71
3
 72
25
 73
21
 74
19
 40
0.000000
 40
0.000000
 40
0.000000
 40
0.000000
 40
1.123966
 40
2.227245
 40
3.349560
 40
4.471183
 40
5.572835
 40
6.695144
 40
7.818429
 40
8.922381
 40
10.046350
 40
11.169629
 40
12.271955
 40
13.393581
 40
14.141571
 40
14.883589
 40
15.632177
 40
16.381204
 40
17.124407
 40
17.874031
 40
17.874031
 40
17.874031
 40
17.874031
 10
137.439925
 20
216.328597
 30
0.0
 10
137.062858
 20
216.285204
 30
0.0
 10
136.315664
 20
216.199215
 30
0.0
 10
135.363108
 20
215.539315
 30
0.0
 10
134.724586
 20
214.595364
 30
0.0
 10
134.501971
 20
213.470609
 30
0.0
 10
134.725628
 20
212.349641
 30
0.0
 10
135.361975
 20
211.397297
 30
0.0
 10
136.316292
 20
210.762928
 30
0.0
 10
137.439584
 20
210.540075
 30
0.0
 10
138.564362
 20
210.761852
 30
0.0
 10
139.517194
 20
211.398565
 30
0.0
 10
140.154076
 20
212.348550
 30
0.0
 10
140.353627
 20
213.347159
 30
0.0
 10
140.237661
 20
214.219352
 30
0.0
 10
139.948358
 20
214.916339
 30
0.0
 10
139.488116
 20
215.515845
 30
0.0
 10
138.887989
 20
215.971913
 30
0.0
 10
138.189542
 20
216.271631
 30
0.0
 10
137.690513
 20
216.309554
 30
0.0
 10
137.439925
 20
216.328597
 30
0.0
 11
137.439925
 21
216.328597
 31
0.0
 11
136.337706
 21
216.108570
 31
0.0
 11
135.419724
 21
215.496577
 31
0.0
 11
134.794184
 21
214.564757
 31
0.0
 11
134.576122
 21
213.464535
 31
0.0
 11
134.791511
 21
212.384144
 31
0.0
 11
135.414963
 21
211.450932
 31
0.0
 11
136.350285
 21
210.828886
 31
0.0
 11
137.433118
 21
210.613983
 31
0.0
 11
138.535827
 21
210.831554
 31
0.0
 11
139.469754
 21
211.455683
 31
0.0
 11
140.083130
 21
212.371594
 31
0.0
 11
140.303655
 21
213.471327
 31
0.0
 11
140.205542
 21
214.212855
 31
0.0
 11
139.921037
 21
214.898163
 31
0.0
 11
139.464888
 21
215.491722
 31
0.0
 11
138.869987
 21
215.946842
 31
0.0
 11
138.183130
 21
216.230706
 31
0.0
 11
137.439925
 21
216.328597
 31
0.0
  0
LWPOLYLINE
  5
31f
100
AcDbEntity
  8
Layer_2
 62
5
100
AcDbPolyline
 90
1
 70
1
 10
137.439925
 20
216.328597
 30
0.0
  0
SPLINE
  5
320
100
AcDbEntity
  8
Layer_2
 62
7
100
AcDbSpline
 70
0
 71
3
 72
25
 73
21
 74
19
 40
0.000000
 40
0.000000
 40
0.000000
 40
0.000000
 40
0.788555
 40
1.562596
 40
2.349992
 40
3.136903
 40
3.909803
 40
4.697195
 40
5.485271
 40
6.259785
 40
7.048341
 40
7.836414
 40
8.609787
 40
9.396700
 40
9.921477
 40
10.442063
 40
10.967259
 40
11.492763
 40
12.014182
 40
12.540105
 40
12.540105
 40
12.540105
 40
12.540105
 10
137.467235
 20
215.537048
 30
0.0
 10
137.202692
 20
215.506604
 30
0.0
 10
136.678473
 20
215.446276
 30
0.0
 10
136.010177
 20
214.983302
 30
0.0
 10
135.562202
 20
214.321043
 30
0.0
 10
135.406019
 20
213.531934
 30
0.0
 10
135.562932
 20
212.745483
 30
0.0
 10
136.009382
 20
212.077336
 30
0.0
 10
136.678914
 20
211.632273
 30
0.0
 10
137.466996
 20
211.475924
 30
0.0
 10
138.256120
 20
211.631518
 30
0.0
 10
138.924610
 20
212.078225
 30
0.0
 10
139.371435
 20
212.744718
 30
0.0
 10
139.511437
 20
213.445324
 30
0.0
 10
139.430077
 20
214.057239
 30
0.0
 10
139.227107
 20
214.546233
 30
0.0
 10
138.904210
 20
214.966835
 30
0.0
 10
138.483171
 20
215.286805
 30
0.0
 10
137.993153
 20
215.497082
 30
0.0
 10
137.643043
 20
215.523688
 30
0.0
 10
137.467235
 20
215.537048
 30
0.0
 11
137.467235
 21
215.537048
 31
0.0
 11
136.693938
 21
215.382681
 31
0.0
 11
136.049898
 21
214.953318
 31
0.0
 11
135.611030
 21
214.299569
 31
0.0
 11
135.458041
 21
213.527673
 31
0.0
 11
135.609154
 21
212.769690
 31
0.0
 11
136.046557
 21
212.114965
 31
0.0
 11
136.702763
 21
211.678548
 31
0.0
 11
137.462459
 21
211.527776
 31
0.0
 11
138.236101
 21
211.680420
 31
0.0
 11
138.891327
 21
212.118298
 31
0.0
 11
139.321661
 21
212.760885
 31
0.0
 11
139.476378
 21
213.532438
 31
0.0
 11
139.407543
 21
214.052681
 31
0.0
 11
139.207939
 21
214.533481
 31
0.0
 11
138.887913
 21
214.949912
 31
0.0
 11
138.470541
 21
215.269216
 31
0.0
 11
137.988655
 21
215.468369
 31
0.0
 11
137.467235
 21
215.537048
 31
0.0
  0
LWPOLYLINE
  5
321
100
AcDbEntity
  8
Layer_2
 62
7
100
AcDbPolyline
 90
1
 70
1
 10
137.467235
 20
215.537048
 30
0.0
  0
SPLINE
  5
322
100
AcDbEntity
  8
Layer_2
 62
5
100
AcDbSpline
 70
0
 71
3
 72
25
 73
21
 74
19
 40
0.000000
 40
0.000000
 40
0.000000
 40
0.000000
 40
1.302852
 40
2.581725
 40
3.882662
 40
5.182799
 40
6.459786
 40
7.760717
 40
9.062779
 40
10.342432
 40
11.645287
 40
12.947343
 40
14.225111
 40
15.525250
 40
16.392288
 40
17.252402
 40
18.120133
 40
18.988372
 40
19.849861
 40
20.718791
 40
20.718791
 40
20.718791
 40
20.718791
 10
137.410545
 20
216.789285
 30
0.0
 10
136.973466
 20
216.738985
 30
0.0
 10
136.107351
 20
216.639311
 30
0.0
 10
135.003190
 20
215.874384
 30
0.0
 10
134.263044
 20
214.780198
 30
0.0
 10
134.004998
 20
213.476431
 30
0.0
 10
134.264251
 20
212.177054
 30
0.0
 10
135.001876
 20
211.073139
 30
0.0
 10
136.108078
 20
210.337806
 30
0.0
 10
137.410150
 20
210.079485
 30
0.0
 10
138.713943
 20
210.336558
 30
0.0
 10
139.818424
 20
211.074608
 30
0.0
 10
140.556669
 20
212.175790
 30
0.0
 10
140.787981
 20
213.333333
 30
0.0
 10
140.653557
 20
214.344341
 30
0.0
 10
140.318210
 20
215.152258
 30
0.0
 10
139.784718
 20
215.847178
 30
0.0
 10
139.089077
 20
216.375832
 30
0.0
 10
138.279468
 20
216.723252
 30
0.0
 10
137.701016
 20
216.767211
 30
0.0
 10
137.410545
 20
216.789285
 30
0.0
 11
137.410545
 21
216.789285
 31
0.0
 11
136.132901
 21
216.534239
 31
0.0
 11
135.068817
 21
215.824844
 31
0.0
 11
134.343718
 21
214.744719
 31
0.0
 11
134.090950
 21
213.469390
 31
0.0
 11
134.340619
 21
212.217048
 31
0.0
 11
135.063298
 21
211.135310
 31
0.0
 11
136.147482
 21
210.414262
 31
0.0
 11
137.402654
 21
210.165156
 31
0.0
 11
138.680867
 21
210.417354
 31
0.0
 11
139.763434
 21
211.140817
 31
0.0
 11
140.474432
 21
212.202501
 31
0.0
 11
140.730055
 21
213.477263
 31
0.0
 11
140.616327
 21
214.336810
 31
0.0
 11
140.286541
 21
215.131189
 31
0.0
 11
139.757793
 21
215.819216
 31
0.0
 11
139.068210
 21
216.346771
 31
0.0
 11
138.272035
 21
216.675813
 31
0.0
 11
137.410545
 21
216.789285
 31
0.0
  0
SPLINE
  5
323
100
AcDbEntity
  8
Layer_2
 62
5
100
AcDbSpline
 70
0
 71
3
 72
13
 73
9
 74
7
 40
0.000000
 40
0.000000
 40
0.000000
 40
0.000000
 40
4.877374
 40
10.565595
 40
13.320123
 40
14.215424
 40
16.024734
 40
17.888266
 40
17.888266
 40
17.888266
 40
17.888266
 10
33.195435
 20
207.531445
 30
0.0
 10
33.658046
 20
205.905167
 30
0.0
 10
34.660174
 20
202.382246
 30
0.0
 10
33.734499
 20
198.584785
 30
0.0
 10
34.998433
 20
194.279669
 30
0.0
 10
32.968764
 20
194.125560
 30
0.0
 10
31.508299
 20
193.488296
 30
0.0
 10
31.026982
 20
192.307180
 30
0.0
 10
30.782770
 20
191.707904
 30
0.0
 11
33.195435
 21
207.531445
 31
0.0
 11
34.213244
 21
202.761451
 31
0.0
 11
34.315678
 21
197.074152
 31
0.0
 11
34.195808
 21
194.322234
 31
0.0
 11
33.324023
 21
194.118385
 31
0.0
 11
31.693786
 21
193.333573
 31
0.0
 11
30.782770
 21
191.707904
 31
0.0
  0
LWPOLYLINE
  5
324
100
AcDbEntity
  8
Layer_2
 62
5
100
AcDbPolyline
 90
1
 70
1
 10
137.410545
 20
216.789285
 30
0.0
  0
SPLINE
  5
325
100
AcDbEntity
  8
Layer_2
 62
5
100
AcDbSpline
 70
0
 71
3
 72
13
 73
9
 74
7
 40
0.000000
 40
0.000000
 40
0.000000
 40
0.000000
 40
4.877375
 40
10.565599
 40
13.320128
 40
14.215429
 40
16.024739
 40
17.888271
 40
17.888271
 40
17.888271
 40
17.888271
 10
44.493761
 20
207.531450
 30
0.0
 10
44.031150
 20
205.905171
 30
0.0
 10
43.029021
 20
202.382250
 30
0.0
 10
43.954697
 20
198.584787
 30
0.0
 10
42.690762
 20
194.279669
 30
0.0
 10
44.720431
 20
194.125560
 30
0.0
 10
46.180896
 20
193.488296
 30
0.0
 10
46.662214
 20
192.307180
 30
0.0
 10
46.906425
 20
191.707904
 30
0.0
 11
44.493761
 21
207.531450
 31
0.0
 11
43.475952
 21
202.761455
 31
0.0
 11
43.373517
 21
197.074154
 31
0.0
 11
43.493388
 21
194.322234
 31
0.0
 11
44.365172
 21
194.118385
 31
0.0
 11
45.995410
 21
193.333573
 31
0.0
 11
46.906425
 21
191.707904
 31
0.0
  0
SPLINE
  5
326
100
AcDbEntity
  8
Layer_2
 62
5
100
AcDbSpline
 70
0
 71
3
 72
13
 73
9
 74
7
 40
0.000000
 40
0.000000
 40
0.000000
 40
0.000000
 40
0.431981
 40
1.940864
 40
4.924563
 40
7.649272
 40
8.653113
 40
8.796519
 40
8.796519
 40
8.796519
 40
8.796519
 10
30.840258
 20
206.361519
 30
0.0
 10
30.944551
 20
206.461145
 30
0.0
 10
31.413132
 20
206.908755
 30
0.0
 10
32.877476
 20
207.697285
 30
0.0
 10
35.104482
 20
208.590599
 30
0.0
 10
37.223698
 20
209.315399
 30
0.0
 10
38.439138
 20
209.749006
 30
0.0
 10
38.799548
 20
209.876864
 30
0.0
 10
38.844600
 20
209.892846
 30
0.0
 11
30.840258
 21
206.361519
 31
0.0
 11
31.158513
 21
206.653617
 31
0.0
 11
32.444614
 21
207.442715
 31
0.0
 11
35.195561
 21
208.598026
 31
0.0
 11
37.763403
 21
209.509196
 31
0.0
 11
38.709450
 21
209.844890
 31
0.0
 11
38.844600
 21
209.892846
 31
0.0
  0
SPLINE
  5
327
100
AcDbEntity
  8
Layer_2
 62
5
100
AcDbSpline
 70
0
 71
3
 72
13
 73
9
 74
7
 40
0.000000
 40
0.000000
 40
0.000000
 40
0.000000
 40
0.431981
 40
1.940864
 40
4.924563
 40
7.649272
 40
8.653113
 40
8.796519
 40
8.796519
 40
8.796519
 40
8.796519
 10
46.848941
 20
206.361519
 30
0.0
 10
46.744649
 20
206.461145
 30
0.0
 10
46.276067
 20
206.908755
 30
0.0
 10
44.811723
 20
207.697285
 30
0.0
 10
42.584717
 20
208.590599
 30
0.0
 10
40.465501
 20
209.315399
 30
0.0
 10
39.250062
 20
209.749006
 30
0.0
 10
38.889651
 20
209.876864
 30
0.0
 10
38.844600
 20
209.892846
 30
0.0
 11
46.848941
 21
206.361519
 31
0.0
 11
46.530686
 21
206.653617
 31
0.0
 11
45.244586
 21
207.442715
 31
0.0
 11
42.493639
 21
208.598026
 31
0.0
 11
39.925796
 21
209.509196
 31
0.0
 11
38.979749
 21
209.844890
 31
0.0
 11
38.844600
 21
209.892846
 31
0.0
  0
SPLINE
  5
328
100
AcDbEntity
  8
Layer_2
 62
5
100
AcDbSpline
 70
0
 71
3
 72
13
 73
9
 74
7
 40
0.000000
 40
0.000000
 40
0.000000
 40
0.000000
 40
4.877375
 40
10.565596
 40
13.320123
 40
14.215424
 40
16.024734
 40
17.888267
 40
17.888267
 40
17.888267
 40
17.888267
 10
163.736835
 20
209.271225
 30
0.0
 10
164.199445
 20
207.644946
 30
0.0
 10
165.201574
 20
204.122026
 30
0.0
 10
164.275897
 20
200.324564
 30
0.0
 10
165.539830
 20
196.019449
 30
0.0
 10
163.510161
 20
195.865340
 30
0.0
 10
162.049696
 20
195.228076
 30
0.0
 10
161.568377
 20
194.046960
 30
0.0
 10
161.324165
 20
193.447684
 30
0.0
 11
163.736835
 21
209.271225
 31
0.0
 11
164.754643
 21
204.501230
 31
0.0
 11
164.857076
 21
198.813932
 31
0.0
 11
164.737205
 21
196.062014
 31
0.0
 11
163.865420
 21
195.858164
 31
0.0
 11
162.235182
 21
195.073353
 31
0.0
 11
161.324165
 21
193.447684
 31
0.0
  0
LWPOLYLINE
  5
329
100
AcDbEntity
  8
Layer_2
 62
5
100
AcDbPolyline
 90
2
 70
0
 10
30.781401
 20
191.709164
 30
0.0
 10
46.907794
 20
191.709164
 30
0.0
  0
SPLINE
  5
32a
100
AcDbEntity
  8
Layer_2
 62
5
100
AcDbSpline
 70
0
 71
3
 72
13
 73
9
 74
7
 40
0.000000
 40
0.000000
 40
0.000000
 40
0.000000
 40
4.877374
 40
10.565598
 40
13.320128
 40
14.215429
 40
16.024739
 40
17.888272
 40
17.888272
 40
17.888272
 40
17.888272
 10
175.035154
 20
209.271230
 30
0.0
 10
174.572544
 20
207.644952
 30
0.0
 10
173.570415
 20
204.122030
 30
0.0
 10
174.496092
 20
200.324567
 30
0.0
 10
173.232158
 20
196.019449
 30
0.0
 10
175.261828
 20
195.865340
 30
0.0
 10
176.722293
 20
195.228076
 30
0.0
 10
177.203612
 20
194.046960
 30
0.0
 10
177.447824
 20
193.447684
 30
0.0
 11
175.035154
 21
209.271230
 31
0.0
 11
174.017346
 21
204.501236
 31
0.0
 11
173.914913
 21
198.813934
 31
0.0
 11
174.034784
 21
196.062014
 31
0.0
 11
174.906569
 21
195.858164
 31
0.0
 11
176.536806
 21
195.073353
 31
0.0
 11
177.447824
 21
193.447684
 31
0.0
  0
SPLINE
  5
32b
100
AcDbEntity
  8
Layer_2
 62
5
100
AcDbSpline
 70
0
 71
3
 72
13
 73
9
 74
7
 40
0.000000
 40
0.000000
 40
0.000000
 40
0.000000
 40
0.431981
 40
1.940866
 40
4.924560
 40
7.649270
 40
8.653111
 40
8.796517
 40
8.796517
 40
8.796517
 40
8.796517
 10
161.381655
 20
208.101299
 30
0.0
 10
161.485948
 20
208.200925
 30
0.0
 10
161.954530
 20
208.648535
 30
0.0
 10
163.418873
 20
209.437065
 30
0.0
 10
165.645877
 20
210.330380
 30
0.0
 10
167.765093
 20
211.055179
 30
0.0
 10
168.980532
 20
211.488786
 30
0.0
 10
169.340943
 20
211.616644
 30
0.0
 10
169.385994
 20
211.632626
 30
0.0
 11
161.381655
 21
208.101299
 31
0.0
 11
161.699911
 21
208.393396
 31
0.0
 11
162.986012
 21
209.182495
 31
0.0
 11
165.736955
 21
210.337806
 31
0.0
 11
168.304797
 21
211.248976
 31
0.0
 11
169.250845
 21
211.584670
 31
0.0
 11
169.385994
 21
211.632626
 31
0.0
  0
SPLINE
  5
32c
100
AcDbEntity
  8
Layer_2
 62
5
100
AcDbSpline
 70
0
 71
3
 72
13
 73
9
 74
7
 40
0.000000
 40
0.000000
 40
0.000000
 40
0.000000
 40
0.431980
 40
1.940862
 40
4.924560
 40
7.649271
 40
8.653111
 40
8.796517
 40
8.796517
 40
8.796517
 40
8.796517
 10
177.390334
 20
208.101299
 30
0.0
 10
177.286042
 20
208.200925
 30
0.0
 10
176.817462
 20
208.648536
 30
0.0
 10
175.353119
 20
209.437066
 30
0.0
 10
173.126113
 20
210.330379
 30
0.0
 10
171.006896
 20
211.055179
 30
0.0
 10
169.791456
 20
211.488786
 30
0.0
 10
169.431046
 20
211.616644
 30
0.0
 10
169.385994
 20
211.632626
 30
0.0
 11
177.390334
 21
208.101299
 31
0.0
 11
177.072080
 21
208.393396
 31
0.0
 11
175.785982
 21
209.182495
 31
0.0
 11
173.035034
 21
210.337806
 31
0.0
 11
170.467191
 21
211.248976
 31
0.0
 11
169.521144
 21
211.584670
 31
0.0
 11
169.385994
 21
211.632626
 31
0.0
  0
LWPOLYLINE
  5
32d
100
AcDbEntity
  8
Layer_2
 62
5
100
AcDbPolyline
 90
2
 70
0
 10
161.322795
 20
193.448944
 30
0.0
 10
177.449194
 20
193.448944
 30
0.0
  0
ENDSEC
  0
SECTION
  2
OBJECTS
  0
DICTIONARY
  5
C
330
0
100
AcDbDictionary
  3
ACAD_GROUP
350
D
  3
ACAD_MLINESTYLE
350
17
  0
DICTIONARY
  5
D
330
C
100
AcDbDictionary
  0
DICTIONARY
  5
1A
330
C
100
AcDbDictionary
  0
DICTIONARY
  5
17
330
C
100
AcDbDictionary
  3
STANDARD
350
18
  0
DICTIONARY
  5
19
330
C
100
AcDbDictionary
  0
ENDSEC
  0
EOF
