<?xml version="1.0" encoding="UTF-8"?>
<svg xmlns="http://www.w3.org/2000/svg" width="178.020mm" height="49.192mm" viewBox="337.483459 151.715210 178.019897 49.192078">
    <rect transform="translate(426.493408 176.311249)" style="stroke:#808080;stroke-width:0.05mm;fill:none" x="-89.009964" y="-24.596039" width="178.019928" height="49.192078" rx="5.000000"/>
    <path transform="matrix(0.642788 0.766044 -0.766044 0.642788 488.352478 123.814270)" style="stroke:#000000;stroke-width:0.05mm;fill:none" d="M36.989830,0.535816L35.593967,2.199337C35.185364,2.686295,35.128071,3.377922,35.450974,3.925476C35.773880,4.473030,35.716583,5.164661,35.307980,5.651615L5.096962,41.655704C4.688358,42.142658,4.017183,42.319183,3.421877,42.096268C2.826572,41.873348,2.155399,42.049873,1.746796,42.536827L0.350935,44.200348C-0.181568,44.834961,-0.098793,45.781097,0.535820,46.313599L5.862927,50.783573C6.133075,51.010254,6.474453,51.134506,6.827108,51.134506L13.581692,51.134506C14.025082,51.134506,14.445753,50.938343,14.730759,50.598686L15.427399,49.768463C15.802109,49.321899,15.884157,48.698685,15.637794,48.170357C15.391429,47.642029,14.861279,47.304283,14.278331,47.304283L12.711852,47.304283C12.128906,47.304283,11.598756,46.966541,11.352391,46.438210C11.106028,45.909882,11.188074,45.286667,11.562785,44.840103L19.953781,34.840103C20.238787,34.500446,20.659458,34.304283,21.102848,34.304283L69.703926,34.304283C70.147308,34.304283,70.567978,34.108120,70.852989,33.768463L73.225433,30.941099C73.757935,30.306488,73.675156,29.360353,73.040543,28.827850L39.103077,0.350929C38.468464,-0.181568,37.522331,-0.098797,36.989830,0.535816z"/>
    <path transform="matrix(0.642788 0.766044 -0.766044 0.642788 488.352478 123.814270)" style="stroke:#808080;stroke-width:0.05mm;fill:none" d="M9.891365,43.720573L38.174019,10.014620L35.875885,8.086254L7.593232,41.792213L9.891365,43.720573z"/>
    <path transform="matrix(0.642788 0.766044 -0.766044 0.642788 488.352478 123.814270)" style="stroke:#808080;stroke-width:0.05mm;fill:none" d="M64.847321,28.479954L66.775681,26.181820L44.328880,7.346714L42.400513,9.644848L64.847321,28.479954z"/>
    <path transform="matrix(0.642788 0.766044 -0.766044 0.642788 488.352478 123.814270)" style="stroke:#808080;stroke-width:0.05mm;fill:none" d="M42.757034,17.776447C41.699348,16.888943,40.122459,17.026903,39.234955,18.084589L34.105770,24.197315C33.481255,24.941586,33.344505,25.980278,33.755112,26.860828C34.165718,27.741377,35.049301,28.304283,36.020882,28.304283L48.434929,28.304283C49.485924,28.304283,50.424698,27.646946,50.784157,26.659334C51.143620,25.671721,50.847008,24.564739,50.041897,23.889172L42.757034,17.776447z"/>
    <path transform="translate(380.299988 158.500000)" style="stroke:#000000;stroke-width:0.05mm;fill:none" d="M55.000000,30.000000L58.000000,30.000000L58.000000,11.000000L55.000000,11.000000L55.000000,3.000000L52.000000,3.000000L52.000000,0.000000L8.000000,0.000000L8.000000,3.000000L0.000000,3.000000L0.000000,38.000000L8.000000,38.000000L8.000000,41.000000L52.000000,41.000000L52.000000,38.000000L55.000000,38.000000L55.000000,30.000000z"/>
    <path transform="translate(380.299988 158.500000)" style="stroke:#808080;stroke-width:0.05mm;fill:none" d="M10.500000,33.000000C9.119288,33.000000,8.000000,31.880713,8.000000,30.500000L8.000000,10.500000C8.000000,9.119287,9.119287,8.000000,10.500000,8.000000L47.500000,8.000000C48.880707,8.000000,50.000000,9.119287,50.000000,10.500000L50.000000,30.500000C50.000000,31.880711,48.880714,33.000000,47.500000,33.000000L10.500000,33.000000z"/>
    <path transform="translate(338.399994 156.348892)" style="stroke:#000000;stroke-width:0.05mm;fill:none" d="M38.000000,6.000000L41.000000,6.000000L41.000000,35.302223L38.000000,35.302223L38.000000,43.302223L3.000000,43.302223L3.000000,35.302223L0.000000,35.302223L0.000000,6.000000L3.000000,6.000000L3.000000,0.000000L11.000000,0.000000L11.000000,3.000000L30.000000,3.000000L30.000000,0.000000L38.000000,0.000000L38.000000,6.000000z"/>
    <path transform="translate(338.399994 156.348892)" style="stroke:#808080;stroke-width:0.05mm;fill:none" d="M33.000000,10.500000C33.000000,9.119289,31.880713,8.000000,30.500000,8.000000L10.500000,8.000000C9.119288,8.000000,8.000000,9.119289,8.000000,10.500000L8.000000,32.802223C8.000000,34.182938,9.119288,35.302223,10.500000,35.302223L30.500000,35.302223C31.880711,35.302223,33.000000,34.182938,33.000000,32.802223L33.000000,10.500000z"/>
    <path transform="matrix(-0.642788 -0.766044 0.766044 -0.642788 463.877625 228.529968)" style="stroke:#000000;stroke-width:0.05mm;fill:none" d="M36.989830,0.535816L35.593967,2.199337C35.185364,2.686295,35.128071,3.377922,35.450974,3.925476C35.773880,4.473030,35.716583,5.164661,35.307980,5.651615L5.096962,41.655704C4.688358,42.142658,4.017183,42.319183,3.421877,42.096268C2.826572,41.873348,2.155399,42.049873,1.746796,42.536827L0.350935,44.200348C-0.181568,44.834961,-0.098793,45.781097,0.535820,46.313599L5.862927,50.783573C6.133075,51.010254,6.474453,51.134506,6.827108,51.134506L13.581692,51.134506C14.025082,51.134506,14.445753,50.938343,14.730759,50.598686L15.427399,49.768463C15.802109,49.321899,15.884157,48.698685,15.637794,48.170357C15.391429,47.642029,14.861279,47.304283,14.278331,47.304283L12.711852,47.304283C12.128906,47.304283,11.598756,46.966541,11.352391,46.438210C11.106028,45.909882,11.188074,45.286667,11.562785,44.840103L19.953781,34.840103C20.238787,34.500446,20.659458,34.304283,21.102848,34.304283L69.703926,34.304283C70.147308,34.304283,70.567978,34.108120,70.852989,33.768463L73.225433,30.941099C73.757935,30.306488,73.675156,29.360353,73.040543,28.827850L39.103077,0.350929C38.468464,-0.181568,37.522331,-0.098797,36.989830,0.535816z"/>
    <path transform="matrix(-0.642788 -0.766044 0.766044 -0.642788 463.877625 228.529968)" style="stroke:#808080;stroke-width:0.05mm;fill:none" d="M9.891365,43.720573L38.174019,10.014620L35.875885,8.086254L7.593232,41.792213L9.891365,43.720573z"/>
    <path transform="matrix(-0.642788 -0.766044 0.766044 -0.642788 463.877625 228.529968)" style="stroke:#808080;stroke-width:0.05mm;fill:none" d="M64.847321,28.479954L66.775681,26.181820L44.328880,7.346714L42.400513,9.644848L64.847321,28.479954z"/>
    <path transform="matrix(-0.642788 -0.766044 0.766044 -0.642788 463.877625 228.529968)" style="stroke:#808080;stroke-width:0.05mm;fill:none" d="M42.757034,17.776447C41.699348,16.888943,40.122459,17.026903,39.234955,18.084589L34.105770,24.197315C33.481255,24.941586,33.344505,25.980278,33.755112,26.860828C34.165718,27.741377,35.049301,28.304283,36.020882,28.304283L48.434929,28.304283C49.485924,28.304283,50.424698,27.646946,50.784157,26.659334C51.143620,25.671721,50.847008,24.564739,50.041897,23.889172L42.757034,17.776447z"/>
    <path transform="matrix(0.629395 0.777085 -0.777085 0.629395 480.671722 177.140366)" style="stroke:#0000ff;stroke-width:0.05mm;fill:none" d="M-4.624000,-0.784000L-9.376000,-0.784000L-10.016000,2.416000C-8.639844,1.393215,-6.747821,1.426064,-5.408000,2.496000C-4.619254,3.147501,-4.137897,4.098617,-4.080000,5.120000C-3.944700,6.348595,-4.333969,7.577407,-5.152000,8.504000C-5.844602,9.292402,-6.838711,9.751669,-7.888000,9.768000C-8.817895,9.843523,-9.746016,9.600914,-10.520000,9.080000C-11.364607,8.457974,-11.891622,7.494708,-11.960000,6.448000L-10.424000,6.320000C-10.365030,6.957644,-10.084710,7.555093,-9.632000,8.008000C-8.656398,8.843334,-7.192637,8.740051,-6.344000,7.776000C-5.834818,7.194213,-5.573454,6.435969,-5.616000,5.664000C-5.580096,5.022629,-5.769822,4.388322,-6.152000,3.872000C-6.640548,3.269076,-7.384521,2.931176,-8.160000,2.960000C-9.033038,2.953218,-9.849221,3.389920,-10.328000,4.120000L-11.696000,3.936000L-10.544000,-2.184000L-4.624000,-2.184000L-4.624000,-0.784000M1.248000,-2.392000C2.562999,-2.441700,3.781619,-1.701711,4.344000,-0.512000C4.801541,0.418750,5.057793,1.435580,5.096000,2.472000C5.183992,3.649358,5.138367,4.832921,4.960000,6.000000C4.841626,6.887640,4.509462,7.733146,3.992000,8.464000C3.423689,9.242805,2.531281,9.719934,1.568000,9.760000C0.808332,9.838391,0.043501,9.673098,-0.616000,9.288000C-1.296302,8.845051,-1.810871,8.189890,-2.080000,7.424000C-2.455611,6.357835,-2.642409,5.234343,-2.632000,4.104000C-2.675132,3.060830,-2.594571,2.016221,-2.392000,0.992000C-2.247851,0.241909,-1.942059,-0.467964,-1.496000,-1.088000C-0.854653,-1.951028,0.173823,-2.439779,1.248000,-2.392000M1.952000,-1.048000C0.978031,-1.438146,-0.130500,-0.984817,-0.552000,-0.024000C-0.775962,0.451417,-0.924408,0.958834,-0.992000,1.480000C-1.206728,3.106943,-1.182474,4.756076,-0.920000,6.376000C-0.843657,6.810719,-0.683293,7.226576,-0.448000,7.600000C-0.126380,8.113628,0.401682,8.463725,1.000000,8.560000C1.677166,8.639126,2.347017,8.360273,2.768000,7.824000C3.107296,7.404391,3.328259,6.901699,3.408000,6.368000C3.726991,4.521243,3.710736,2.632990,3.360000,0.792000C3.217460,-0.013407,2.692150,-0.699893,1.952000,-1.048000M9.512000,-2.536000C10.668167,-2.429482,11.550304,-1.457046,11.544000,-0.296000C11.547371,0.865509,10.667947,1.838416,9.512000,1.952000C8.272761,2.076290,7.167500,1.174911,7.040000,-0.064000C6.920382,-1.220018,7.700178,-2.277075,8.840000,-2.504000C9.061721,-2.543430,9.287539,-2.554183,9.512000,-2.536000M9.152000,-1.664000C8.449978,-1.593494,7.916880,-1.001548,7.920000,-0.296000C7.918548,0.465001,8.534999,1.081452,9.296000,1.080000C10.050984,1.073063,10.657892,0.459014,10.656000,-0.296000C10.657597,-1.050851,10.050818,-1.664768,9.296000,-1.672000L9.152000,-1.664000"/>
</svg>
