  0
SECTION
  2
HEADER
  9
$ACADVER
  1
AC1014
  9
$HANDSEED
  5
FFFF
  9
$MEASUREMENT
 70
     1
  0
ENDSEC
  0
SECTION
  2
TABLES
  0
TABLE
  2
VPORT
  5
8
330
0
100
AcDbSymbolTable
 70
     4
  0
VPORT
  5
2E
330
8
100
AcDbSymbolTableRecord
100
AcDbViewportTableRecord
  2
*ACTIVE
 70
     0
 10
0.0
 20
0.0
 11
1.0
 21
1.0
 12
210.0
 22
148.5
 13
0.0
 23
0.0
 14
10.0
 24
10.0
 15
10.0
 25
10.0
 16
0.0
 26
0.0
 36
1.0
 17
0.0
 27
0.0
 37
0.0
 40
341.0
 41
1.24
 42
50.0
 43
0.0
 44
0.0
 50
0.0
 51
0.0
 71
     0
 72
   100
 73
     1
 74
     3
 75
     0
 76
     0
 77
     0
 78
     0
  0
ENDTAB
  0
TABLE
  2
LTYPE
  5
5
330
0
100
AcDbSymbolTable
 70
     1
  0
LTYPE
  5
14
330
5
100
AcDbSymbolTableRecord
100
AcDbLinetypeTableRecord
  2
BYBLOCK
 70
     0
  3

 72
    65
 73
     0
 40
0.0
  0
LTYPE
  5
15
330
5
100
AcDbSymbolTableRecord
100
AcDbLinetypeTableRecord
  2
BYLAYER
 70
     0
  3

 72
    65
 73
     0
 40
0.0
  0
LTYPE
  5
16
330
5
100
AcDbSymbolTableRecord
100
AcDbLinetypeTableRecord
  2
CONTINUOUS
 70
     0
  3
Solid line
 72
    65
 73
     0
 40
0.0
  0
ENDTAB
  0
TABLE
  2
LAYER
  5
2
100
AcDbSymbolTable
 70
2
  0
LAYER
  5
50
100
AcDbSymbolTableRecord
100
AcDbLayerTableRecord
  2
0
 70
0
  6
CONTINUOUS
  0
LAYER
  5
51
100
AcDbSymbolTableRecord
100
AcDbLayerTableRecord
  2
Layer_1
 70
0
  6
CONTINUOUS
  0
ENDTAB
  0
TABLE
  2
STYLE
  5
3
330
0
100
AcDbSymbolTable
 70
     1
  0
STYLE
  5
11
330
3
100
AcDbSymbolTableRecord
100
AcDbTextStyleTableRecord
  2
STANDARD
 70
     0
 40
0.0
 41
1.0
 50
0.0
 71
     0
 42
2.5
  3
txt
  4

  0
ENDTAB
  0
TABLE
  2
VIEW
  5
6
330
0
100
AcDbSymbolTable
 70
     0
  0
ENDTAB
  0
TABLE
  2
UCS
  5
7
330
0
100
AcDbSymbolTable
 70
     0
  0
ENDTAB
  0
TABLE
  2
APPID
  5
9
330
0
100
AcDbSymbolTable
 70
     2
  0
APPID
  5
12
330
9
100
AcDbSymbolTableRecord
100
AcDbRegAppTableRecord
  2
ACAD
 70
     0
  0
ENDTAB
  0
TABLE
  2
DIMSTYLE
  5
A
330
0
100
AcDbSymbolTable
 70
     1
  0
DIMSTYLE
105
27
330
A
100
AcDbSymbolTableRecord
100
AcDbDimStyleTableRecord
  2
ISO-25
 70
     0
  3

  4

  5

  6

  7

 40
1.0
 41
2.5
 42
0.625
 43
3.75
 44
1.25
 45
0.0
 46
0.0
 47
0.0
 48
0.0
140
2.5
141
2.5
142
0.0
143
0.03937007874016
144
1.0
145
0.0
146
1.0
147
0.625
 71
     0
 72
     0
 73
     0
 74
     0
 75
     0
 76
     0
 77
     1
 78
     8
170
     0
171
     3
172
     1
173
     0
174
     0
175
     0
176
     0
177
     0
178
     0
270
     2
271
     2
272
     2
273
     2
274
     3
340
11
275
     0
280
     0
281
     0
282
     0
283
     0
284
     8
285
     0
286
     0
287
     3
288
     0
  0
ENDTAB
  0
TABLE
  2
BLOCK_RECORD
  5
1
330
0
100
AcDbSymbolTable
 70
     1
  0
BLOCK_RECORD
  5
1F
330
1
100
AcDbSymbolTableRecord
100
AcDbBlockTableRecord
  2
*MODEL_SPACE
  0
BLOCK_RECORD
  5
1B
330
1
100
AcDbSymbolTableRecord
100
AcDbBlockTableRecord
  2
*PAPER_SPACE
  0
ENDTAB
  0
ENDSEC
  0
SECTION
  2
BLOCKS
  0
BLOCK
  5
20
330
1F
100
AcDbEntity
  8
0
100
AcDbBlockBegin
  2
*MODEL_SPACE
 70
     0
 10
0.0
 20
0.0
 30
0.0
  3
*MODEL_SPACE
  1

  0
ENDBLK
  5
21
330
1F
100
AcDbEntity
  8
0
100
AcDbBlockEnd
  0
BLOCK
  5
1C
330
1B
100
AcDbEntity
 67
     1
  8
0
100
AcDbBlockBegin
  2
*PAPER_SPACE
  1

  0
ENDBLK
  5
1D
330
1B
100
AcDbEntity
 67
     1
  8
0
100
AcDbBlockEnd
  0
ENDSEC
  0
SECTION
  2
ENTITIES
  0
SPLINE
  5
100
100
AcDbEntity
  8
Layer_1
 62
7
100
AcDbSpline
 70
8
 71
3
 72
8
 73
4
 74
0
 40
0
 40
0
 40
0
 40
0
 40
1
 40
1
 40
1
 40
1
 10
189.023430
 20
178.227570
 30
0.0
 10
188.387750
 20
178.227570
 30
0.0
 10
187.821110
 20
177.826890
 30
0.0
 10
187.609210
 20
177.227570
 30
0.0
  0
SPLINE
  5
101
100
AcDbEntity
  8
Layer_1
 62
7
100
AcDbSpline
 70
8
 71
3
 72
8
 73
4
 74
0
 40
0
 40
0
 40
0
 40
0
 40
1
 40
1
 40
1
 40
1
 10
187.609210
 20
177.227570
 30
0.0
 10
187.397320
 20
176.628250
 30
0.0
 10
186.830680
 20
176.227570
 30
0.0
 10
186.195000
 20
176.227570
 30
0.0
  0
LWPOLYLINE
  5
102
100
AcDbEntity
  8
Layer_1
 62
7
100
AcDbPolyline
 90
2
 70
0
 10
191.195000
 20
178.227570
 30
0.0
 10
189.023430
 20
178.227570
 30
0.0
  0
SPLINE
  5
103
100
AcDbEntity
  8
Layer_1
 62
7
100
AcDbSpline
 70
8
 71
3
 72
8
 73
4
 74
0
 40
0
 40
0
 40
0
 40
0
 40
1
 40
1
 40
1
 40
1
 10
139.195070
 20
176.227540
 30
0.0
 10
138.559400
 20
176.227540
 30
0.0
 10
137.992750
 20
176.628220
 30
0.0
 10
137.780860
 20
177.227540
 30
0.0
  0
SPLINE
  5
104
100
AcDbEntity
  8
Layer_1
 62
7
100
AcDbSpline
 70
8
 71
3
 72
8
 73
4
 74
0
 40
0
 40
0
 40
0
 40
0
 40
1
 40
1
 40
1
 40
1
 10
137.780860
 20
177.227540
 30
0.0
 10
137.568970
 20
177.826860
 30
0.0
 10
137.002330
 20
178.227540
 30
0.0
 10
136.366650
 20
178.227540
 30
0.0
  0
LWPOLYLINE
  5
105
100
AcDbEntity
  8
Layer_1
 62
7
100
AcDbPolyline
 90
2
 70
0
 10
186.195000
 20
176.227570
 30
0.0
 10
139.195070
 20
176.227540
 30
0.0
  0
SPLINE
  5
106
100
AcDbEntity
  8
Layer_1
 62
7
100
AcDbSpline
 70
8
 71
3
 72
8
 73
4
 74
0
 40
0
 40
0
 40
0
 40
0
 40
1
 40
1
 40
1
 40
1
 10
134.195080
 20
178.227540
 30
0.0
 10
133.366660
 20
178.227540
 30
0.0
 10
132.695080
 20
177.555960
 30
0.0
 10
132.695080
 20
176.727540
 30
0.0
  0
LWPOLYLINE
  5
107
100
AcDbEntity
  8
Layer_1
 62
7
100
AcDbPolyline
 90
2
 70
0
 10
136.366650
 20
178.227540
 30
0.0
 10
134.195080
 20
178.227540
 30
0.0
  0
SPLINE
  5
108
100
AcDbEntity
  8
Layer_1
 62
7
100
AcDbSpline
 70
8
 71
3
 72
8
 73
4
 74
0
 40
0
 40
0
 40
0
 40
0
 40
1
 40
1
 40
1
 40
1
 10
132.695090
 20
169.773500
 30
0.0
 10
132.695090
 20
169.420850
 30
0.0
 10
132.819340
 20
169.079470
 30
0.0
 10
133.046020
 20
168.809320
 30
0.0
  0
LWPOLYLINE
  5
109
100
AcDbEntity
  8
Layer_1
 62
7
100
AcDbPolyline
 90
2
 70
0
 10
132.695080
 20
176.727540
 30
0.0
 10
132.695090
 20
169.773500
 30
0.0
  0
SPLINE
  5
10a
100
AcDbEntity
  8
Layer_1
 62
7
100
AcDbSpline
 70
8
 71
3
 72
8
 73
4
 74
0
 40
0
 40
0
 40
0
 40
0
 40
1
 40
1
 40
1
 40
1
 10
137.387780
 20
163.635020
 30
0.0
 10
137.672790
 20
163.295370
 30
0.0
 10
138.093460
 20
163.099210
 30
0.0
 10
138.536850
 20
163.099210
 30
0.0
  0
LWPOLYLINE
  5
10b
100
AcDbEntity
  8
Layer_1
 62
7
100
AcDbPolyline
 90
2
 70
0
 10
133.046020
 20
168.809320
 30
0.0
 10
137.387780
 20
163.635020
 30
0.0
  0
SPLINE
  5
10c
100
AcDbEntity
  8
Layer_1
 62
7
100
AcDbSpline
 70
8
 71
3
 72
8
 73
4
 74
0
 40
0
 40
0
 40
0
 40
0
 40
1
 40
1
 40
1
 40
1
 10
139.620620
 20
163.099210
 30
0.0
 10
140.203570
 20
163.099210
 30
0.0
 10
140.733720
 20
163.436950
 30
0.0
 10
140.980080
 20
163.965280
 30
0.0
  0
SPLINE
  5
10d
100
AcDbEntity
  8
Layer_1
 62
7
100
AcDbSpline
 70
8
 71
3
 72
8
 73
4
 74
0
 40
0
 40
0
 40
0
 40
0
 40
1
 40
1
 40
1
 40
1
 10
140.980080
 20
163.965280
 30
0.0
 10
141.226440
 20
164.493600
 30
0.0
 10
141.144400
 20
165.116820
 30
0.0
 10
140.769690
 20
165.563380
 30
0.0
  0
LWPOLYLINE
  5
10e
100
AcDbEntity
  8
Layer_1
 62
7
100
AcDbPolyline
 90
2
 70
0
 10
138.536850
 20
163.099210
 30
0.0
 10
139.620620
 20
163.099210
 30
0.0
  0
SPLINE
  5
10f
100
AcDbEntity
  8
Layer_1
 62
7
100
AcDbSpline
 70
8
 71
3
 72
8
 73
4
 74
0
 40
0
 40
0
 40
0
 40
0
 40
1
 40
1
 40
1
 40
1
 10
139.762770
 20
166.763370
 30
0.0
 10
139.388060
 20
167.209940
 30
0.0
 10
139.306010
 20
167.833150
 30
0.0
 10
139.552380
 20
168.361480
 30
0.0
  0
SPLINE
  5
110
100
AcDbEntity
  8
Layer_1
 62
7
100
AcDbSpline
 70
8
 71
3
 72
8
 73
4
 74
0
 40
0
 40
0
 40
0
 40
0
 40
1
 40
1
 40
1
 40
1
 10
139.552380
 20
168.361480
 30
0.0
 10
139.798740
 20
168.889810
 30
0.0
 10
140.328890
 20
169.227550
 30
0.0
 10
140.911840
 20
169.227550
 30
0.0
  0
LWPOLYLINE
  5
111
100
AcDbEntity
  8
Layer_1
 62
7
100
AcDbPolyline
 90
2
 70
0
 10
140.769690
 20
165.563380
 30
0.0
 10
139.762770
 20
166.763370
 30
0.0
  0
SPLINE
  5
112
100
AcDbEntity
  8
Layer_1
 62
7
100
AcDbSpline
 70
8
 71
3
 72
8
 73
4
 74
0
 40
0
 40
0
 40
0
 40
0
 40
1
 40
1
 40
1
 40
1
 10
153.965890
 20
169.227560
 30
0.0
 10
154.409280
 20
169.227560
 30
0.0
 10
154.829950
 20
169.031400
 30
0.0
 10
155.114960
 20
168.691740
 30
0.0
  0
LWPOLYLINE
  5
113
100
AcDbEntity
  8
Layer_1
 62
7
100
AcDbPolyline
 90
2
 70
0
 10
140.911840
 20
169.227550
 30
0.0
 10
153.965890
 20
169.227560
 30
0.0
  0
SPLINE
  5
114
100
AcDbEntity
  8
Layer_1
 62
7
100
AcDbSpline
 70
8
 71
3
 72
8
 73
4
 74
0
 40
0
 40
0
 40
0
 40
0
 40
1
 40
1
 40
1
 40
1
 10
186.355100
 20
131.461230
 30
0.0
 10
186.640100
 20
131.121580
 30
0.0
 10
187.060770
 20
130.925420
 30
0.0
 10
187.504160
 20
130.925420
 30
0.0
  0
LWPOLYLINE
  5
115
100
AcDbEntity
  8
Layer_1
 62
7
100
AcDbPolyline
 90
2
 70
0
 10
155.114960
 20
168.691740
 30
0.0
 10
186.355100
 20
131.461230
 30
0.0
  0
SPLINE
  5
116
100
AcDbEntity
  8
Layer_1
 62
7
100
AcDbSpline
 70
8
 71
3
 72
8
 73
4
 74
0
 40
0
 40
0
 40
0
 40
0
 40
1
 40
1
 40
1
 40
1
 10
191.195020
 20
130.925420
 30
0.0
 10
192.023450
 20
130.925420
 30
0.0
 10
192.695020
 20
131.596990
 30
0.0
 10
192.695020
 20
132.425420
 30
0.0
  0
LWPOLYLINE
  5
117
100
AcDbEntity
  8
Layer_1
 62
7
100
AcDbPolyline
 90
2
 70
0
 10
187.504160
 20
130.925420
 30
0.0
 10
191.195020
 20
130.925420
 30
0.0
  0
SPLINE
  5
118
100
AcDbEntity
  8
Layer_1
 62
7
100
AcDbSpline
 70
8
 71
3
 72
8
 73
4
 74
0
 40
0
 40
0
 40
0
 40
0
 40
1
 40
1
 40
1
 40
1
 10
192.695000
 20
176.727570
 30
0.0
 10
192.694990
 20
177.556000
 30
0.0
 10
192.023420
 20
178.227570
 30
0.0
 10
191.195000
 20
178.227570
 30
0.0
  0
LWPOLYLINE
  5
119
100
AcDbEntity
  8
Layer_1
 62
7
100
AcDbPolyline
 90
2
 70
0
 10
192.695020
 20
132.425420
 30
0.0
 10
192.695000
 20
176.727570
 30
0.0
  0
LWPOLYLINE
  5
11a
100
AcDbEntity
  8
Layer_1
 62
7
100
AcDbPolyline
 90
1
 70
1
 10
191.195000
 20
178.227570
 30
0.0
  0
LWPOLYLINE
  5
11b
100
AcDbEntity
  8
Layer_1
 62
1
100
AcDbPolyline
 90
4
 70
1
 10
140.695080
 20
171.227550
 30
0.0
 10
184.695010
 20
171.227580
 30
0.0
 10
184.695010
 20
174.227570
 30
0.0
 10
140.695070
 20
174.227540
 30
0.0
  0
SPLINE
  5
11c
100
AcDbEntity
  8
Layer_1
 62
1
100
AcDbSpline
 70
8
 71
3
 72
8
 73
4
 74
0
 40
0
 40
0
 40
0
 40
0
 40
1
 40
1
 40
1
 40
1
 10
181.695020
 20
162.727590
 30
0.0
 10
181.695020
 20
164.108300
 30
0.0
 10
180.575730
 20
165.227580
 30
0.0
 10
179.195020
 20
165.227580
 30
0.0
  0
LWPOLYLINE
  5
11d
100
AcDbEntity
  8
Layer_1
 62
1
100
AcDbPolyline
 90
4
 70
1
 10
187.695020
 20
138.925400
 30
0.0
 10
190.695020
 20
138.925410
 30
0.0
 10
190.695000
 20
168.227580
 30
0.0
 10
187.695000
 20
168.227580
 30
0.0
  0
SPLINE
  5
11e
100
AcDbEntity
  8
Layer_1
 62
1
100
AcDbSpline
 70
8
 71
3
 72
8
 73
4
 74
0
 40
0
 40
0
 40
0
 40
0
 40
1
 40
1
 40
1
 40
1
 10
171.215440
 20
165.227580
 30
0.0
 10
170.243860
 20
165.227570
 30
0.0
 10
169.360280
 20
164.664670
 30
0.0
 10
168.949670
 20
163.784120
 30
0.0
  0
SPLINE
  5
11f
100
AcDbEntity
  8
Layer_1
 62
1
100
AcDbSpline
 70
8
 71
3
 72
8
 73
4
 74
0
 40
0
 40
0
 40
0
 40
0
 40
1
 40
1
 40
1
 40
1
 10
168.949670
 20
163.784120
 30
0.0
 10
168.539070
 20
162.903580
 30
0.0
 10
168.675810
 20
161.864880
 30
0.0
 10
169.300330
 20
161.120610
 30
0.0
  0
LWPOLYLINE
  5
120
100
AcDbEntity
  8
Layer_1
 62
1
100
AcDbPolyline
 90
2
 70
0
 10
179.195020
 20
165.227580
 30
0.0
 10
171.215440
 20
165.227580
 30
0.0
  0
SPLINE
  5
121
100
AcDbEntity
  8
Layer_1
 62
1
100
AcDbSpline
 70
8
 71
3
 72
8
 73
4
 74
0
 40
0
 40
0
 40
0
 40
0
 40
1
 40
1
 40
1
 40
1
 10
177.279920
 20
151.610920
 30
0.0
 10
177.955490
 20
150.805810
 30
0.0
 10
179.062470
 20
150.509200
 30
0.0
 10
180.050080
 20
150.868660
 30
0.0
  0
SPLINE
  5
122
100
AcDbEntity
  8
Layer_1
 62
1
100
AcDbSpline
 70
8
 71
3
 72
8
 73
4
 74
0
 40
0
 40
0
 40
0
 40
0
 40
1
 40
1
 40
1
 40
1
 10
180.050080
 20
150.868660
 30
0.0
 10
181.037690
 20
151.228120
 30
0.0
 10
181.695020
 20
152.166890
 30
0.0
 10
181.695020
 20
153.217890
 30
0.0
  0
LWPOLYLINE
  5
123
100
AcDbEntity
  8
Layer_1
 62
1
100
AcDbPolyline
 90
2
 70
0
 10
169.300330
 20
161.120610
 30
0.0
 10
177.279920
 20
151.610920
 30
0.0
  0
LWPOLYLINE
  5
124
100
AcDbEntity
  8
Layer_1
 62
1
100
AcDbPolyline
 90
2
 70
0
 10
181.695020
 20
153.217890
 30
0.0
 10
181.695020
 20
162.727590
 30
0.0
  0
SPLINE
  5
125
100
AcDbEntity
  8
Layer_1
 62
1
100
AcDbSpline
 70
8
 71
3
 72
8
 73
4
 74
0
 40
0
 40
0
 40
0
 40
0
 40
1
 40
1
 40
1
 40
1
 10
70.276522
 20
139.222110
 30
0.0
 10
68.895812
 20
139.222110
 30
0.0
 10
67.776526
 20
140.341400
 30
0.0
 10
67.776526
 20
141.722110
 30
0.0
  0
LWPOLYLINE
  5
126
100
AcDbEntity
  8
Layer_1
 62
7
100
AcDbPolyline
 90
16
 70
1
 10
114.776430
 20
142.222110
 30
0.0
 10
117.776420
 20
142.222110
 30
0.0
 10
117.776420
 20
161.222080
 30
0.0
 10
114.776430
 20
161.222080
 30
0.0
 10
114.776430
 20
169.222060
 30
0.0
 10
111.776430
 20
169.222060
 30
0.0
 10
111.776430
 20
172.222060
 30
0.0
 10
67.776526
 20
172.222060
 30
0.0
 10
67.776526
 20
169.222060
 30
0.0
 10
59.776538
 20
169.222060
 30
0.0
 10
59.776538
 20
134.222120
 30
0.0
 10
67.776526
 20
134.222120
 30
0.0
 10
67.776526
 20
131.222120
 30
0.0
 10
111.776430
 20
131.222120
 30
0.0
 10
111.776430
 20
134.222120
 30
0.0
 10
114.776430
 20
134.222120
 30
0.0
  0
SPLINE
  5
127
100
AcDbEntity
  8
Layer_1
 62
1
100
AcDbSpline
 70
8
 71
3
 72
8
 73
4
 74
0
 40
0
 40
0
 40
0
 40
0
 40
1
 40
1
 40
1
 40
1
 10
67.776526
 20
161.722080
 30
0.0
 10
67.776526
 20
163.102790
 30
0.0
 10
68.895811
 20
164.222070
 30
0.0
 10
70.276522
 20
164.222070
 30
0.0
  0
LWPOLYLINE
  5
128
100
AcDbEntity
  8
Layer_1
 62
1
100
AcDbPolyline
 90
2
 70
0
 10
67.776526
 20
141.722110
 30
0.0
 10
67.776526
 20
161.722080
 30
0.0
  0
SPLINE
  5
129
100
AcDbEntity
  8
Layer_1
 62
1
100
AcDbSpline
 70
8
 71
3
 72
8
 73
4
 74
0
 40
0
 40
0
 40
0
 40
0
 40
1
 40
1
 40
1
 40
1
 10
107.276440
 20
164.222070
 30
0.0
 10
108.657140
 20
164.222070
 30
0.0
 10
109.776440
 20
163.102790
 30
0.0
 10
109.776440
 20
161.722080
 30
0.0
  0
LWPOLYLINE
  5
12a
100
AcDbEntity
  8
Layer_1
 62
1
100
AcDbPolyline
 90
2
 70
0
 10
70.276522
 20
164.222070
 30
0.0
 10
107.276440
 20
164.222070
 30
0.0
  0
SPLINE
  5
12b
100
AcDbEntity
  8
Layer_1
 62
1
100
AcDbSpline
 70
8
 71
3
 72
8
 73
4
 74
0
 40
0
 40
0
 40
0
 40
0
 40
1
 40
1
 40
1
 40
1
 10
109.776440
 20
141.722110
 30
0.0
 10
109.776440
 20
140.341400
 30
0.0
 10
108.657150
 20
139.222110
 30
0.0
 10
107.276440
 20
139.222110
 30
0.0
  0
LWPOLYLINE
  5
12c
100
AcDbEntity
  8
Layer_1
 62
1
100
AcDbPolyline
 90
2
 70
0
 10
109.776440
 20
161.722080
 30
0.0
 10
109.776440
 20
141.722110
 30
0.0
  0
LWPOLYLINE
  5
12d
100
AcDbEntity
  8
Layer_1
 62
1
100
AcDbPolyline
 90
2
 70
0
 10
107.276440
 20
139.222110
 30
0.0
 10
70.276522
 20
139.222110
 30
0.0
  0
SPLINE
  5
12e
100
AcDbEntity
  8
Layer_1
 62
1
100
AcDbSpline
 70
8
 71
3
 72
8
 73
4
 74
0
 40
0
 40
0
 40
0
 40
0
 40
1
 40
1
 40
1
 40
1
 10
50.876552
 20
163.873190
 30
0.0
 10
50.876552
 20
165.253890
 30
0.0
 10
49.757267
 20
166.373180
 30
0.0
 10
48.376556
 20
166.373180
 30
0.0
  0
LWPOLYLINE
  5
12f
100
AcDbEntity
  8
Layer_1
 62
7
100
AcDbPolyline
 90
16
 70
1
 10
55.876544
 20
168.373180
 30
0.0
 10
58.876540
 20
168.373180
 30
0.0
 10
58.876540
 20
139.071000
 30
0.0
 10
55.876544
 20
139.071000
 30
0.0
 10
55.876544
 20
131.071010
 30
0.0
 10
20.876597
 20
131.071010
 30
0.0
 10
20.876597
 20
139.071000
 30
0.0
 10
17.876602
 20
139.071000
 30
0.0
 10
17.876602
 20
168.373180
 30
0.0
 10
20.876597
 20
168.373180
 30
0.0
 10
20.876597
 20
174.373170
 30
0.0
 10
28.876585
 20
174.373170
 30
0.0
 10
28.876585
 20
171.373170
 30
0.0
 10
47.876556
 20
171.373170
 30
0.0
 10
47.876556
 20
174.373170
 30
0.0
 10
55.876544
 20
174.373170
 30
0.0
  0
SPLINE
  5
130
100
AcDbEntity
  8
Layer_1
 62
1
100
AcDbSpline
 70
8
 71
3
 72
8
 73
4
 74
0
 40
0
 40
0
 40
0
 40
0
 40
1
 40
1
 40
1
 40
1
 10
28.376586
 20
166.373180
 30
0.0
 10
26.995876
 20
166.373180
 30
0.0
 10
25.876590
 20
165.253890
 30
0.0
 10
25.876590
 20
163.873190
 30
0.0
  0
LWPOLYLINE
  5
131
100
AcDbEntity
  8
Layer_1
 62
1
100
AcDbPolyline
 90
2
 70
0
 10
48.376556
 20
166.373180
 30
0.0
 10
28.376586
 20
166.373180
 30
0.0
  0
SPLINE
  5
132
100
AcDbEntity
  8
Layer_1
 62
1
100
AcDbSpline
 70
8
 71
3
 72
8
 73
4
 74
0
 40
0
 40
0
 40
0
 40
0
 40
1
 40
1
 40
1
 40
1
 10
25.876590
 20
141.571000
 30
0.0
 10
25.876590
 20
140.190280
 30
0.0
 10
26.995876
 20
139.071000
 30
0.0
 10
28.376586
 20
139.071000
 30
0.0
  0
LWPOLYLINE
  5
133
100
AcDbEntity
  8
Layer_1
 62
1
100
AcDbPolyline
 90
2
 70
0
 10
25.876590
 20
163.873190
 30
0.0
 10
25.876590
 20
141.571000
 30
0.0
  0
SPLINE
  5
134
100
AcDbEntity
  8
Layer_1
 62
1
100
AcDbSpline
 70
8
 71
3
 72
8
 73
4
 74
0
 40
0
 40
0
 40
0
 40
0
 40
1
 40
1
 40
1
 40
1
 10
48.376556
 20
139.071000
 30
0.0
 10
49.757265
 20
139.071000
 30
0.0
 10
50.876552
 20
140.190280
 30
0.0
 10
50.876552
 20
141.571000
 30
0.0
  0
LWPOLYLINE
  5
135
100
AcDbEntity
  8
Layer_1
 62
1
100
AcDbPolyline
 90
2
 70
0
 10
28.376586
 20
139.071000
 30
0.0
 10
48.376556
 20
139.071000
 30
0.0
  0
LWPOLYLINE
  5
136
100
AcDbEntity
  8
Layer_1
 62
1
100
AcDbPolyline
 90
2
 70
0
 10
50.876552
 20
141.571000
 30
0.0
 10
50.876552
 20
163.873190
 30
0.0
  0
SPLINE
  5
137
100
AcDbEntity
  8
Layer_1
 62
7
100
AcDbSpline
 70
8
 71
3
 72
8
 73
4
 74
0
 40
0
 40
0
 40
0
 40
0
 40
1
 40
1
 40
1
 40
1
 10
122.159470
 20
130.872380
 30
0.0
 10
122.795140
 20
130.872390
 30
0.0
 10
123.361780
 20
131.273070
 30
0.0
 10
123.573680
 20
131.872380
 30
0.0
  0
SPLINE
  5
138
100
AcDbEntity
  8
Layer_1
 62
7
100
AcDbSpline
 70
8
 71
3
 72
8
 73
4
 74
0
 40
0
 40
0
 40
0
 40
0
 40
1
 40
1
 40
1
 40
1
 10
123.573680
 20
131.872380
 30
0.0
 10
123.785570
 20
132.471700
 30
0.0
 10
124.352220
 20
132.872380
 30
0.0
 10
124.987890
 20
132.872380
 30
0.0
  0
LWPOLYLINE
  5
139
100
AcDbEntity
  8
Layer_1
 62
7
100
AcDbPolyline
 90
2
 70
0
 10
119.987900
 20
130.872380
 30
0.0
 10
122.159470
 20
130.872380
 30
0.0
  0
SPLINE
  5
13a
100
AcDbEntity
  8
Layer_1
 62
7
100
AcDbSpline
 70
8
 71
3
 72
8
 73
4
 74
0
 40
0
 40
0
 40
0
 40
0
 40
1
 40
1
 40
1
 40
1
 10
171.987820
 20
132.872410
 30
0.0
 10
172.623490
 20
132.872410
 30
0.0
 10
173.190140
 20
132.471730
 30
0.0
 10
173.402030
 20
131.872410
 30
0.0
  0
SPLINE
  5
13b
100
AcDbEntity
  8
Layer_1
 62
7
100
AcDbSpline
 70
8
 71
3
 72
8
 73
4
 74
0
 40
0
 40
0
 40
0
 40
0
 40
1
 40
1
 40
1
 40
1
 10
173.402030
 20
131.872410
 30
0.0
 10
173.613920
 20
131.273090
 30
0.0
 10
174.180560
 20
130.872410
 30
0.0
 10
174.816240
 20
130.872410
 30
0.0
  0
LWPOLYLINE
  5
13c
100
AcDbEntity
  8
Layer_1
 62
7
100
AcDbPolyline
 90
2
 70
0
 10
124.987890
 20
132.872380
 30
0.0
 10
171.987820
 20
132.872410
 30
0.0
  0
SPLINE
  5
13d
100
AcDbEntity
  8
Layer_1
 62
7
100
AcDbSpline
 70
8
 71
3
 72
8
 73
4
 74
0
 40
0
 40
0
 40
0
 40
0
 40
1
 40
1
 40
1
 40
1
 10
176.987810
 20
130.872410
 30
0.0
 10
177.816230
 20
130.872410
 30
0.0
 10
178.487810
 20
131.543990
 30
0.0
 10
178.487810
 20
132.372410
 30
0.0
  0
LWPOLYLINE
  5
13e
100
AcDbEntity
  8
Layer_1
 62
7
100
AcDbPolyline
 90
2
 70
0
 10
174.816240
 20
130.872410
 30
0.0
 10
176.987810
 20
130.872410
 30
0.0
  0
SPLINE
  5
13f
100
AcDbEntity
  8
Layer_1
 62
7
100
AcDbSpline
 70
8
 71
3
 72
8
 73
4
 74
0
 40
0
 40
0
 40
0
 40
0
 40
1
 40
1
 40
1
 40
1
 10
178.487800
 20
139.326450
 30
0.0
 10
178.487800
 20
139.679100
 30
0.0
 10
178.363550
 20
140.020480
 30
0.0
 10
178.136870
 20
140.290630
 30
0.0
  0
LWPOLYLINE
  5
140
100
AcDbEntity
  8
Layer_1
 62
7
100
AcDbPolyline
 90
2
 70
0
 10
178.487810
 20
132.372410
 30
0.0
 10
178.487800
 20
139.326450
 30
0.0
  0
SPLINE
  5
141
100
AcDbEntity
  8
Layer_1
 62
7
100
AcDbSpline
 70
8
 71
3
 72
8
 73
4
 74
0
 40
0
 40
0
 40
0
 40
0
 40
1
 40
1
 40
1
 40
1
 10
173.795110
 20
145.464930
 30
0.0
 10
173.510110
 20
145.804580
 30
0.0
 10
173.089440
 20
146.000740
 30
0.0
 10
172.646050
 20
146.000740
 30
0.0
  0
LWPOLYLINE
  5
142
100
AcDbEntity
  8
Layer_1
 62
7
100
AcDbPolyline
 90
2
 70
0
 10
178.136870
 20
140.290630
 30
0.0
 10
173.795110
 20
145.464930
 30
0.0
  0
SPLINE
  5
143
100
AcDbEntity
  8
Layer_1
 62
7
100
AcDbSpline
 70
8
 71
3
 72
8
 73
4
 74
0
 40
0
 40
0
 40
0
 40
0
 40
1
 40
1
 40
1
 40
1
 10
171.562270
 20
146.000740
 30
0.0
 10
170.979320
 20
146.000740
 30
0.0
 10
170.449170
 20
145.663000
 30
0.0
 10
170.202810
 20
145.134670
 30
0.0
  0
SPLINE
  5
144
100
AcDbEntity
  8
Layer_1
 62
7
100
AcDbSpline
 70
8
 71
3
 72
8
 73
4
 74
0
 40
0
 40
0
 40
0
 40
0
 40
1
 40
1
 40
1
 40
1
 10
170.202810
 20
145.134670
 30
0.0
 10
169.956450
 20
144.606340
 30
0.0
 10
170.038490
 20
143.983130
 30
0.0
 10
170.413210
 20
143.536560
 30
0.0
  0
LWPOLYLINE
  5
145
100
AcDbEntity
  8
Layer_1
 62
7
100
AcDbPolyline
 90
2
 70
0
 10
172.646050
 20
146.000740
 30
0.0
 10
171.562270
 20
146.000740
 30
0.0
  0
SPLINE
  5
146
100
AcDbEntity
  8
Layer_1
 62
7
100
AcDbSpline
 70
8
 71
3
 72
8
 73
4
 74
0
 40
0
 40
0
 40
0
 40
0
 40
1
 40
1
 40
1
 40
1
 10
171.420120
 20
142.336570
 30
0.0
 10
171.794830
 20
141.890010
 30
0.0
 10
171.876880
 20
141.266800
 30
0.0
 10
171.630510
 20
140.738470
 30
0.0
  0
SPLINE
  5
147
100
AcDbEntity
  8
Layer_1
 62
7
100
AcDbSpline
 70
8
 71
3
 72
8
 73
4
 74
0
 40
0
 40
0
 40
0
 40
0
 40
1
 40
1
 40
1
 40
1
 10
171.630510
 20
140.738470
 30
0.0
 10
171.384150
 20
140.210140
 30
0.0
 10
170.854000
 20
139.872400
 30
0.0
 10
170.271060
 20
139.872400
 30
0.0
  0
LWPOLYLINE
  5
148
100
AcDbEntity
  8
Layer_1
 62
7
100
AcDbPolyline
 90
2
 70
0
 10
170.413210
 20
143.536560
 30
0.0
 10
171.420120
 20
142.336570
 30
0.0
  0
SPLINE
  5
149
100
AcDbEntity
  8
Layer_1
 62
7
100
AcDbSpline
 70
8
 71
3
 72
8
 73
4
 74
0
 40
0
 40
0
 40
0
 40
0
 40
1
 40
1
 40
1
 40
1
 10
157.217000
 20
139.872390
 30
0.0
 10
156.773610
 20
139.872390
 30
0.0
 10
156.352940
 20
140.068550
 30
0.0
 10
156.067940
 20
140.408210
 30
0.0
  0
LWPOLYLINE
  5
14a
100
AcDbEntity
  8
Layer_1
 62
7
100
AcDbPolyline
 90
2
 70
0
 10
170.271060
 20
139.872400
 30
0.0
 10
157.217000
 20
139.872390
 30
0.0
  0
SPLINE
  5
14b
100
AcDbEntity
  8
Layer_1
 62
7
100
AcDbSpline
 70
8
 71
3
 72
8
 73
4
 74
0
 40
0
 40
0
 40
0
 40
0
 40
1
 40
1
 40
1
 40
1
 10
124.827790
 20
177.638720
 30
0.0
 10
124.542790
 20
177.978370
 30
0.0
 10
124.122120
 20
178.174530
 30
0.0
 10
123.678730
 20
178.174530
 30
0.0
  0
LWPOLYLINE
  5
14c
100
AcDbEntity
  8
Layer_1
 62
7
100
AcDbPolyline
 90
2
 70
0
 10
156.067940
 20
140.408210
 30
0.0
 10
124.827790
 20
177.638720
 30
0.0
  0
SPLINE
  5
14d
100
AcDbEntity
  8
Layer_1
 62
7
100
AcDbSpline
 70
8
 71
3
 72
8
 73
4
 74
0
 40
0
 40
0
 40
0
 40
0
 40
1
 40
1
 40
1
 40
1
 10
119.987870
 20
178.174530
 30
0.0
 10
119.159450
 20
178.174530
 30
0.0
 10
118.487880
 20
177.502960
 30
0.0
 10
118.487880
 20
176.674530
 30
0.0
  0
LWPOLYLINE
  5
14e
100
AcDbEntity
  8
Layer_1
 62
7
100
AcDbPolyline
 90
2
 70
0
 10
123.678730
 20
178.174530
 30
0.0
 10
119.987870
 20
178.174530
 30
0.0
  0
SPLINE
  5
14f
100
AcDbEntity
  8
Layer_1
 62
7
100
AcDbSpline
 70
8
 71
3
 72
8
 73
4
 74
0
 40
0
 40
0
 40
0
 40
0
 40
1
 40
1
 40
1
 40
1
 10
118.487900
 20
132.372380
 30
0.0
 10
118.487900
 20
131.543960
 30
0.0
 10
119.159470
 20
130.872380
 30
0.0
 10
119.987900
 20
130.872380
 30
0.0
  0
LWPOLYLINE
  5
150
100
AcDbEntity
  8
Layer_1
 62
7
100
AcDbPolyline
 90
2
 70
0
 10
118.487880
 20
176.674530
 30
0.0
 10
118.487900
 20
132.372380
 30
0.0
  0
LWPOLYLINE
  5
151
100
AcDbEntity
  8
Layer_1
 62
7
100
AcDbPolyline
 90
1
 70
1
 10
119.987900
 20
130.872380
 30
0.0
  0
LWPOLYLINE
  5
152
100
AcDbEntity
  8
Layer_1
 62
1
100
AcDbPolyline
 90
4
 70
1
 10
170.487820
 20
137.872400
 30
0.0
 10
126.487880
 20
137.872380
 30
0.0
 10
126.487880
 20
134.872380
 30
0.0
 10
170.487820
 20
134.872400
 30
0.0
  0
SPLINE
  5
153
100
AcDbEntity
  8
Layer_1
 62
1
100
AcDbSpline
 70
8
 71
3
 72
8
 73
4
 74
0
 40
0
 40
0
 40
0
 40
0
 40
1
 40
1
 40
1
 40
1
 10
129.487870
 20
146.372360
 30
0.0
 10
129.487880
 20
144.991650
 30
0.0
 10
130.607160
 20
143.872370
 30
0.0
 10
131.987870
 20
143.872370
 30
0.0
  0
LWPOLYLINE
  5
154
100
AcDbEntity
  8
Layer_1
 62
1
100
AcDbPolyline
 90
4
 70
1
 10
123.487870
 20
170.174550
 30
0.0
 10
120.487880
 20
170.174540
 30
0.0
 10
120.487890
 20
140.872370
 30
0.0
 10
123.487890
 20
140.872370
 30
0.0
  0
SPLINE
  5
155
100
AcDbEntity
  8
Layer_1
 62
1
100
AcDbSpline
 70
8
 71
3
 72
8
 73
4
 74
0
 40
0
 40
0
 40
0
 40
0
 40
1
 40
1
 40
1
 40
1
 10
139.967460
 20
143.872370
 30
0.0
 10
140.939030
 20
143.872380
 30
0.0
 10
141.822610
 20
144.435280
 30
0.0
 10
142.233220
 20
145.315830
 30
0.0
  0
SPLINE
  5
156
100
AcDbEntity
  8
Layer_1
 62
1
100
AcDbSpline
 70
8
 71
3
 72
8
 73
4
 74
0
 40
0
 40
0
 40
0
 40
0
 40
1
 40
1
 40
1
 40
1
 10
142.233220
 20
145.315830
 30
0.0
 10
142.643830
 20
146.196370
 30
0.0
 10
142.507080
 20
147.235070
 30
0.0
 10
141.882560
 20
147.979340
 30
0.0
  0
LWPOLYLINE
  5
157
100
AcDbEntity
  8
Layer_1
 62
1
100
AcDbPolyline
 90
2
 70
0
 10
131.987870
 20
143.872370
 30
0.0
 10
139.967460
 20
143.872370
 30
0.0
  0
SPLINE
  5
158
100
AcDbEntity
  8
Layer_1
 62
1
100
AcDbSpline
 70
8
 71
3
 72
8
 73
4
 74
0
 40
0
 40
0
 40
0
 40
0
 40
1
 40
1
 40
1
 40
1
 10
133.902970
 20
157.489030
 30
0.0
 10
133.227410
 20
158.294140
 30
0.0
 10
132.120430
 20
158.590750
 30
0.0
 10
131.132820
 20
158.231290
 30
0.0
  0
SPLINE
  5
159
100
AcDbEntity
  8
Layer_1
 62
1
100
AcDbSpline
 70
8
 71
3
 72
8
 73
4
 74
0
 40
0
 40
0
 40
0
 40
0
 40
1
 40
1
 40
1
 40
1
 10
131.132820
 20
158.231290
 30
0.0
 10
130.145210
 20
157.871830
 30
0.0
 10
129.487870
 20
156.933060
 30
0.0
 10
129.487870
 20
155.882060
 30
0.0
  0
LWPOLYLINE
  5
15a
100
AcDbEntity
  8
Layer_1
 62
1
100
AcDbPolyline
 90
2
 70
0
 10
141.882560
 20
147.979340
 30
0.0
 10
133.902970
 20
157.489030
 30
0.0
  0
LWPOLYLINE
  5
15b
100
AcDbEntity
  8
Layer_1
 62
1
100
AcDbPolyline
 90
2
 70
0
 10
129.487870
 20
155.882060
 30
0.0
 10
129.487870
 20
146.372360
 30
0.0
  0
LWPOLYLINE
  5
15c
100
AcDbEntity
  8
Layer_1
 62
1
100
AcDbPolyline
 90
20
 70
1
 10
20.058385
 20
71.468971
 30
0.0
 10
20.058385
 20
29.640052
 30
0.0
 10
17.247191
 20
29.640052
 30
0.0
 10
17.247191
 20
21.198201
 30
0.0
 10
20.058385
 20
21.198201
 30
0.0
 10
20.058385
 20
15.575812
 30
0.0
 10
17.247191
 20
15.575812
 30
0.0
 10
17.247191
 20
7.133961
 30
0.0
 10
20.058385
 20
7.133961
 30
0.0
 10
20.058385
 20
4.322766
 30
0.0
 10
81.937735
 20
4.322766
 30
0.0
 10
81.937735
 20
7.133961
 30
0.0
 10
84.748929
 20
7.133961
 30
0.0
 10
84.748929
 20
15.575812
 30
0.0
 10
81.937735
 20
15.575812
 30
0.0
 10
81.937735
 20
21.198201
 30
0.0
 10
84.748929
 20
21.198201
 30
0.0
 10
84.748929
 20
29.640052
 30
0.0
 10
81.937735
 20
29.640052
 30
0.0
 10
81.937735
 20
71.468971
 30
0.0
  0
LWPOLYLINE
  5
15d
100
AcDbEntity
  8
Layer_1
 62
1
100
AcDbPolyline
 90
4
 70
1
 10
25.689042
 20
9.945155
 30
0.0
 10
34.122625
 20
9.945155
 30
0.0
 10
34.122625
 20
7.133961
 30
0.0
 10
25.689042
 20
7.133961
 30
0.0
  0
LWPOLYLINE
  5
15e
100
AcDbEntity
  8
Layer_1
 62
1
100
AcDbPolyline
 90
4
 70
1
 10
39.753282
 20
9.945155
 30
0.0
 10
48.186866
 20
9.945155
 30
0.0
 10
48.186866
 20
7.133961
 30
0.0
 10
39.753282
 20
7.133961
 30
0.0
  0
LWPOLYLINE
  5
15f
100
AcDbEntity
  8
Layer_1
 62
1
100
AcDbPolyline
 90
4
 70
1
 10
53.809255
 20
9.945155
 30
0.0
 10
62.251106
 20
9.945155
 30
0.0
 10
62.251106
 20
7.133961
 30
0.0
 10
53.809255
 20
7.133961
 30
0.0
  0
LWPOLYLINE
  5
160
100
AcDbEntity
  8
Layer_1
 62
1
100
AcDbPolyline
 90
4
 70
1
 10
67.873495
 20
9.945155
 30
0.0
 10
76.315346
 20
9.945155
 30
0.0
 10
76.315346
 20
7.133961
 30
0.0
 10
67.873495
 20
7.133961
 30
0.0
  0
LWPOLYLINE
  5
161
100
AcDbEntity
  8
Layer_1
 62
1
100
AcDbPolyline
 90
44
 70
1
 10
25.109876
 20
125.250537
 30
0.0
 10
25.109876
 20
122.439343
 30
0.0
 10
19.479219
 20
122.439343
 30
0.0
 10
19.479219
 20
116.816954
 30
0.0
 10
16.668025
 20
116.816954
 30
0.0
 10
16.668025
 20
105.563909
 30
0.0
 10
19.479219
 20
105.563909
 30
0.0
 10
19.479219
 20
99.941520
 30
0.0
 10
25.109876
 20
99.941520
 30
0.0
 10
25.109876
 20
97.122057
 30
0.0
 10
33.543459
 20
97.122057
 30
0.0
 10
33.543459
 20
99.941520
 30
0.0
 10
39.174116
 20
99.941520
 30
0.0
 10
39.174116
 20
97.122057
 30
0.0
 10
47.607699
 20
97.122057
 30
0.0
 10
47.607699
 20
99.941520
 30
0.0
 10
53.230088
 20
99.941520
 30
0.0
 10
53.230088
 20
97.122057
 30
0.0
 10
61.671939
 20
97.122057
 30
0.0
 10
61.671939
 20
99.941520
 30
0.0
 10
67.294328
 20
99.941520
 30
0.0
 10
67.294328
 20
97.122057
 30
0.0
 10
75.736179
 20
97.122057
 30
0.0
 10
75.736179
 20
99.941520
 30
0.0
 10
81.358568
 20
99.941520
 30
0.0
 10
81.358568
 20
105.563909
 30
0.0
 10
84.169763
 20
105.563909
 30
0.0
 10
84.169763
 20
116.816954
 30
0.0
 10
81.358568
 20
116.816954
 30
0.0
 10
81.358568
 20
122.439343
 30
0.0
 10
75.736179
 20
122.439343
 30
0.0
 10
75.736179
 20
125.250537
 30
0.0
 10
67.294328
 20
125.250537
 30
0.0
 10
67.294328
 20
122.439343
 30
0.0
 10
61.671939
 20
122.439343
 30
0.0
 10
61.671939
 20
125.250537
 30
0.0
 10
53.230088
 20
125.250537
 30
0.0
 10
53.230088
 20
122.439343
 30
0.0
 10
47.607699
 20
122.439343
 30
0.0
 10
47.607699
 20
125.250537
 30
0.0
 10
39.174116
 20
125.250537
 30
0.0
 10
39.174116
 20
122.439343
 30
0.0
 10
33.543459
 20
122.439343
 30
0.0
 10
33.543459
 20
125.250537
 30
0.0
  0
LWPOLYLINE
  5
162
100
AcDbEntity
  8
Layer_1
 62
1
100
AcDbPolyline
 90
4
 70
1
 10
23.563719
 20
116.684663
 30
0.0
 10
34.552182
 20
116.684663
 30
0.0
 10
34.552182
 20
105.696200
 30
0.0
 10
23.563719
 20
105.696200
 30
0.0
  0
LWPOLYLINE
  5
163
100
AcDbEntity
  8
Layer_1
 62
1
100
AcDbPolyline
 90
4
 70
1
 10
66.285605
 20
116.684663
 30
0.0
 10
77.265800
 20
116.684663
 30
0.0
 10
77.265800
 20
105.696200
 30
0.0
 10
66.285605
 20
105.696200
 30
0.0
  0
LWPOLYLINE
  5
164
100
AcDbEntity
  8
Layer_1
 62
1
100
AcDbPolyline
 90
12
 70
1
 10
20.060156
 20
91.506249
 30
0.0
 10
20.060156
 20
88.695054
 30
0.0
 10
17.248962
 20
88.695054
 30
0.0
 10
17.248962
 20
80.253203
 30
0.0
 10
20.060156
 20
80.253203
 30
0.0
 10
20.060156
 20
77.442009
 30
0.0
 10
81.939505
 20
77.442009
 30
0.0
 10
81.939505
 20
80.253203
 30
0.0
 10
84.750700
 20
80.253203
 30
0.0
 10
84.750700
 20
88.695054
 30
0.0
 10
81.939505
 20
88.695054
 30
0.0
 10
81.939505
 20
91.506249
 30
0.0
  0
LWPOLYLINE
  5
165
100
AcDbEntity
  8
Layer_1
 62
1
100
AcDbPolyline
 90
4
 70
1
 10
25.682545
 20
88.695054
 30
0.0
 10
34.124383
 20
88.695054
 30
0.0
 10
34.124383
 20
85.883860
 30
0.0
 10
25.682545
 20
85.883860
 30
0.0
  0
LWPOLYLINE
  5
166
100
AcDbEntity
  8
Layer_1
 62
1
100
AcDbPolyline
 90
4
 70
1
 10
39.746772
 20
88.695054
 30
0.0
 10
48.188636
 20
88.695054
 30
0.0
 10
48.188636
 20
85.883860
 30
0.0
 10
39.746772
 20
85.883860
 30
0.0
  0
LWPOLYLINE
  5
167
100
AcDbEntity
  8
Layer_1
 62
1
100
AcDbPolyline
 90
4
 70
1
 10
53.811025
 20
88.695054
 30
0.0
 10
62.244608
 20
88.695054
 30
0.0
 10
62.244608
 20
85.883860
 30
0.0
 10
53.811025
 20
85.883860
 30
0.0
  0
LWPOLYLINE
  5
168
100
AcDbEntity
  8
Layer_1
 62
1
100
AcDbPolyline
 90
4
 70
1
 10
67.875278
 20
88.695054
 30
0.0
 10
76.308861
 20
88.695054
 30
0.0
 10
76.308861
 20
85.883860
 30
0.0
 10
67.875278
 20
85.883860
 30
0.0
  0
SPLINE
  5
169
100
AcDbEntity
  8
Layer_1
 62
1
100
AcDbSpline
 70
8
 71
3
 72
8
 73
4
 74
0
 40
0
 40
0
 40
0
 40
0
 40
1
 40
1
 40
1
 40
1
 10
105.055283
 20
26.412250
 30
0.0
 10
105.758870
 20
26.412250
 30
0.0
 10
106.328589
 20
25.842532
 30
0.0
 10
106.328589
 20
25.138945
 30
0.0
  0
SPLINE
  5
16a
100
AcDbEntity
  8
Layer_1
 62
1
100
AcDbSpline
 70
8
 71
3
 72
8
 73
4
 74
0
 40
0
 40
0
 40
0
 40
0
 40
1
 40
1
 40
1
 40
1
 10
106.328589
 20
25.138945
 30
0.0
 10
106.328589
 20
24.435358
 30
0.0
 10
105.758870
 20
23.865639
 30
0.0
 10
105.055283
 20
23.865639
 30
0.0
  0
SPLINE
  5
16b
100
AcDbEntity
  8
Layer_1
 62
1
100
AcDbSpline
 70
8
 71
3
 72
8
 73
4
 74
0
 40
0
 40
0
 40
0
 40
0
 40
1
 40
1
 40
1
 40
1
 10
105.055283
 20
23.865639
 30
0.0
 10
104.351696
 20
23.865639
 30
0.0
 10
103.781977
 20
24.435358
 30
0.0
 10
103.781977
 20
25.138945
 30
0.0
  0
SPLINE
  5
16c
100
AcDbEntity
  8
Layer_1
 62
1
100
AcDbSpline
 70
8
 71
3
 72
8
 73
4
 74
0
 40
0
 40
0
 40
0
 40
0
 40
1
 40
1
 40
1
 40
1
 10
103.781977
 20
25.138945
 30
0.0
 10
103.781977
 20
25.842532
 30
0.0
 10
104.351696
 20
26.412250
 30
0.0
 10
105.055283
 20
26.412250
 30
0.0
  0
LWPOLYLINE
  5
16d
100
AcDbEntity
  8
Layer_1
 62
1
100
AcDbPolyline
 90
28
 70
1
 10
89.114157
 20
46.231171
 30
0.0
 10
89.114157
 20
43.419976
 30
0.0
 10
86.302963
 20
43.419976
 30
0.0
 10
86.302963
 20
34.978125
 30
0.0
 10
89.114157
 20
34.978125
 30
0.0
 10
89.114157
 20
29.355736
 30
0.0
 10
86.302963
 20
29.355736
 30
0.0
 10
86.302963
 20
20.922153
 30
0.0
 10
89.114157
 20
20.922153
 30
0.0
 10
89.114157
 20
15.291496
 30
0.0
 10
86.302963
 20
15.291496
 30
0.0
 10
86.302963
 20
6.857913
 30
0.0
 10
89.114157
 20
6.857913
 30
0.0
 10
89.114157
 20
4.046719
 30
0.0
 10
150.985238
 20
4.046719
 30
0.0
 10
150.985238
 20
6.857913
 30
0.0
 10
153.796433
 20
6.857913
 30
0.0
 10
153.796433
 20
15.291496
 30
0.0
 10
150.985238
 20
15.291496
 30
0.0
 10
150.985238
 20
20.922153
 30
0.0
 10
153.796433
 20
20.922153
 30
0.0
 10
153.796433
 20
29.355736
 30
0.0
 10
150.985238
 20
29.355736
 30
0.0
 10
150.985238
 20
34.978125
 30
0.0
 10
153.796433
 20
34.978125
 30
0.0
 10
153.796433
 20
43.419976
 30
0.0
 10
150.985238
 20
43.419976
 30
0.0
 10
150.985238
 20
46.231171
 30
0.0
  0
SPLINE
  5
16e
100
AcDbEntity
  8
Layer_1
 62
1
100
AcDbSpline
 70
8
 71
3
 72
8
 73
4
 74
0
 40
0
 40
0
 40
0
 40
0
 40
1
 40
1
 40
1
 40
1
 10
135.035844
 20
26.412250
 30
0.0
 10
135.739431
 20
26.412250
 30
0.0
 10
136.309150
 20
25.842532
 30
0.0
 10
136.309150
 20
25.138945
 30
0.0
  0
SPLINE
  5
16f
100
AcDbEntity
  8
Layer_1
 62
1
100
AcDbSpline
 70
8
 71
3
 72
8
 73
4
 74
0
 40
0
 40
0
 40
0
 40
0
 40
1
 40
1
 40
1
 40
1
 10
136.309150
 20
25.138945
 30
0.0
 10
136.309150
 20
24.435358
 30
0.0
 10
135.739431
 20
23.865639
 30
0.0
 10
135.035844
 20
23.865639
 30
0.0
  0
SPLINE
  5
170
100
AcDbEntity
  8
Layer_1
 62
1
100
AcDbSpline
 70
8
 71
3
 72
8
 73
4
 74
0
 40
0
 40
0
 40
0
 40
0
 40
1
 40
1
 40
1
 40
1
 10
135.035844
 20
23.865639
 30
0.0
 10
134.332257
 20
23.865639
 30
0.0
 10
133.762539
 20
24.435358
 30
0.0
 10
133.762539
 20
25.138945
 30
0.0
  0
SPLINE
  5
171
100
AcDbEntity
  8
Layer_1
 62
1
100
AcDbSpline
 70
8
 71
3
 72
8
 73
4
 74
0
 40
0
 40
0
 40
0
 40
0
 40
1
 40
1
 40
1
 40
1
 10
133.762539
 20
25.138945
 30
0.0
 10
133.762539
 20
25.842532
 30
0.0
 10
134.332257
 20
26.412250
 30
0.0
 10
135.035844
 20
26.412250
 30
0.0
  0
LWPOLYLINE
  5
172
100
AcDbEntity
  8
Layer_1
 62
1
100
AcDbPolyline
 90
1
 70
1
 10
105.055283
 20
26.412250
 30
0.0
  0
LWPOLYLINE
  5
173
100
AcDbEntity
  8
Layer_1
 62
1
100
AcDbPolyline
 90
1
 70
1
 10
135.035844
 20
26.412250
 30
0.0
  0
LWPOLYLINE
  5
174
100
AcDbEntity
  8
Layer_1
 62
1
100
AcDbPolyline
 90
4
 70
1
 10
86.865202
 20
124.977686
 30
0.0
 10
86.865202
 20
49.042365
 30
0.0
 10
129.049654
 20
49.042365
 30
0.0
 10
129.049654
 20
124.977686
 30
0.0
  0
LWPOLYLINE
  5
175
100
AcDbEntity
  8
Layer_1
 62
1
100
AcDbPolyline
 90
4
 70
1
 10
89.676396
 20
122.166492
 30
0.0
 10
98.109979
 20
122.166492
 30
0.0
 10
98.109979
 20
119.355297
 30
0.0
 10
89.676396
 20
119.355297
 30
0.0
  0
LWPOLYLINE
  5
176
100
AcDbEntity
  8
Layer_1
 62
1
100
AcDbPolyline
 90
4
 70
1
 10
103.740636
 20
122.166492
 30
0.0
 10
112.174219
 20
122.166492
 30
0.0
 10
112.174219
 20
119.355297
 30
0.0
 10
103.740636
 20
119.355297
 30
0.0
  0
LWPOLYLINE
  5
177
100
AcDbEntity
  8
Layer_1
 62
1
100
AcDbPolyline
 90
4
 70
1
 10
117.796608
 20
122.166492
 30
0.0
 10
126.238460
 20
122.166492
 30
0.0
 10
126.238460
 20
119.355297
 30
0.0
 10
117.796608
 20
119.355297
 30
0.0
  0
LWPOLYLINE
  5
178
100
AcDbEntity
  8
Layer_1
 62
1
100
AcDbPolyline
 90
4
 70
1
 10
112.777799
 20
86.910807
 30
0.0
 10
114.183397
 20
84.471683
 30
0.0
 10
106.874291
 20
80.254891
 30
0.0
 10
105.468694
 20
82.685747
 30
0.0
  0
LWPOLYLINE
  5
179
100
AcDbEntity
  8
Layer_1
 62
1
100
AcDbPolyline
 90
4
 70
1
 10
100.598713
 20
79.874553
 30
0.0
 10
102.004310
 20
77.443697
 30
0.0
 10
94.695205
 20
73.218637
 30
0.0
 10
93.289608
 20
75.657761
 30
0.0
  0
LWPOLYLINE
  5
17a
100
AcDbEntity
  8
Layer_1
 62
1
100
AcDbPolyline
 90
4
 70
1
 10
100.044743
 20
69.960959
 30
0.0
 10
105.667131
 20
60.220997
 30
0.0
 10
103.236275
 20
58.815400
 30
0.0
 10
97.613886
 20
68.555361
 30
0.0
  0
LWPOLYLINE
  5
17b
100
AcDbEntity
  8
Layer_1
 62
1
100
AcDbPolyline
 90
4
 70
1
 10
113.257356
 20
57.955505
 30
0.0
 10
114.662953
 20
55.516380
 30
0.0
 10
107.353848
 20
51.299589
 30
0.0
 10
105.948251
 20
53.738713
 30
0.0
  0
LWPOLYLINE
  5
17c
100
AcDbEntity
  8
Layer_1
 62
1
100
AcDbPolyline
 90
4
 70
1
 10
131.471200
 20
124.977771
 30
0.0
 10
131.471200
 20
49.042450
 30
0.0
 10
173.655652
 20
49.042450
 30
0.0
 10
173.655652
 20
124.977771
 30
0.0
  0
LWPOLYLINE
  5
17d
100
AcDbEntity
  8
Layer_1
 62
1
100
AcDbPolyline
 90
4
 70
1
 10
134.282394
 20
122.166576
 30
0.0
 10
142.715977
 20
122.166576
 30
0.0
 10
142.715977
 20
119.355382
 30
0.0
 10
134.282394
 20
119.355382
 30
0.0
  0
LWPOLYLINE
  5
17e
100
AcDbEntity
  8
Layer_1
 62
1
100
AcDbPolyline
 90
4
 70
1
 10
148.346634
 20
122.166576
 30
0.0
 10
156.780217
 20
122.166576
 30
0.0
 10
156.780217
 20
119.355382
 30
0.0
 10
148.346634
 20
119.355382
 30
0.0
  0
LWPOLYLINE
  5
17f
100
AcDbEntity
  8
Layer_1
 62
1
100
AcDbPolyline
 90
4
 70
1
 10
162.402606
 20
122.166576
 30
0.0
 10
170.844457
 20
122.166576
 30
0.0
 10
170.844457
 20
119.355382
 30
0.0
 10
162.402606
 20
119.355382
 30
0.0
  0
LWPOLYLINE
  5
180
100
AcDbEntity
  8
Layer_1
 62
1
100
AcDbPolyline
 90
4
 70
1
 10
157.383797
 20
86.910892
 30
0.0
 10
158.789394
 20
84.471767
 30
0.0
 10
151.480289
 20
80.254976
 30
0.0
 10
150.074692
 20
82.685832
 30
0.0
  0
LWPOLYLINE
  5
181
100
AcDbEntity
  8
Layer_1
 62
1
100
AcDbPolyline
 90
4
 70
1
 10
145.204711
 20
79.874638
 30
0.0
 10
146.610308
 20
77.443781
 30
0.0
 10
139.301203
 20
73.218721
 30
0.0
 10
137.895606
 20
75.657846
 30
0.0
  0
LWPOLYLINE
  5
182
100
AcDbEntity
  8
Layer_1
 62
1
100
AcDbPolyline
 90
4
 70
1
 10
144.650740
 20
69.961043
 30
0.0
 10
150.273129
 20
60.221082
 30
0.0
 10
147.842273
 20
58.815484
 30
0.0
 10
142.219884
 20
68.555446
 30
0.0
  0
LWPOLYLINE
  5
183
100
AcDbEntity
  8
Layer_1
 62
1
100
AcDbPolyline
 90
4
 70
1
 10
157.863354
 20
57.955590
 30
0.0
 10
159.268951
 20
55.516465
 30
0.0
 10
151.959846
 20
51.299674
 30
0.0
 10
150.554248
 20
53.738798
 30
0.0
  0
ENDSEC
  0
SECTION
  2
OBJECTS
  0
DICTIONARY
  5
C
330
0
100
AcDbDictionary
  3
ACAD_GROUP
350
D
  3
ACAD_MLINESTYLE
350
17
  0
DICTIONARY
  5
D
330
C
100
AcDbDictionary
  0
DICTIONARY
  5
1A
330
C
100
AcDbDictionary
  0
DICTIONARY
  5
17
330
C
100
AcDbDictionary
  3
STANDARD
350
18
  0
DICTIONARY
  5
19
330
C
100
AcDbDictionary
  0
ENDSEC
  0
EOF
