  0
SECTION
  2
HEADER
  9
$ACADVER
  1
AC1014
  9
$HANDSEED
  5
FFFF
  9
$INSUNITS
 70
     4
  9
$MEASUREMENT
 70
     1
  0
ENDSEC
  0
SECTION
  2
TABLES
  0
TABLE
  2
VPORT
  5
8
330
0
100
AcDbSymbolTable
 70
     4
  0
VPORT
  5
2E
330
8
100
AcDbSymbolTableRecord
100
AcDbViewportTableRecord
  2
*ACTIVE
 70
     0
 10
0.0
 20
0.0
 11
1.0
 21
1.0
 12
210.0
 22
148.5
 13
0.0
 23
0.0
 14
10.0
 24
10.0
 15
10.0
 25
10.0
 16
0.0
 26
0.0
 36
1.0
 17
0.0
 27
0.0
 37
0.0
 40
341.0
 41
1.24
 42
50.0
 43
0.0
 44
0.0
 50
0.0
 51
0.0
 71
     0
 72
   100
 73
     1
 74
     3
 75
     0
 76
     0
 77
     0
 78
     0
  0
ENDTAB
  0
TABLE
  2
LTYPE
  5
5
330
0
100
AcDbSymbolTable
 70
     1
  0
LTYPE
  5
14
330
5
100
AcDbSymbolTableRecord
100
AcDbLinetypeTableRecord
  2
BYBLOCK
 70
     0
  3

 72
    65
 73
     0
 40
0.0
  0
LTYPE
  5
15
330
5
100
AcDbSymbolTableRecord
100
AcDbLinetypeTableRecord
  2
BYLAYER
 70
     0
  3

 72
    65
 73
     0
 40
0.0
  0
LTYPE
  5
16
330
5
100
AcDbSymbolTableRecord
100
AcDbLinetypeTableRecord
  2
CONTINUOUS
 70
     0
  3
Solid line
 72
    65
 73
     0
 40
0.0
  0
ENDTAB
  0
TABLE
  2
LAYER
  5
2
100
AcDbSymbolTable
 70
2
  0
LAYER
  5
50
100
AcDbSymbolTableRecord
100
AcDbLayerTableRecord
  2
0
 70
0
  6
CONTINUOUS
  0
LAYER
  5
51
100
AcDbSymbolTableRecord
100
AcDbLayerTableRecord
  2
Layer_1
 70
0
  6
CONTINUOUS
  0
ENDTAB
  0
TABLE
  2
STYLE
  5
3
330
0
100
AcDbSymbolTable
 70
     1
  0
STYLE
  5
11
330
3
100
AcDbSymbolTableRecord
100
AcDbTextStyleTableRecord
  2
STANDARD
 70
     0
 40
0.0
 41
1.0
 50
0.0
 71
     0
 42
2.5
  3
txt
  4

  0
ENDTAB
  0
TABLE
  2
VIEW
  5
6
330
0
100
AcDbSymbolTable
 70
     0
  0
ENDTAB
  0
TABLE
  2
UCS
  5
7
330
0
100
AcDbSymbolTable
 70
     0
  0
ENDTAB
  0
TABLE
  2
APPID
  5
9
330
0
100
AcDbSymbolTable
 70
     2
  0
APPID
  5
12
330
9
100
AcDbSymbolTableRecord
100
AcDbRegAppTableRecord
  2
ACAD
 70
     0
  0
ENDTAB
  0
TABLE
  2
DIMSTYLE
  5
A
330
0
100
AcDbSymbolTable
 70
     1
  0
DIMSTYLE
105
27
330
A
100
AcDbSymbolTableRecord
100
AcDbDimStyleTableRecord
  2
ISO-25
 70
     0
  3

  4

  5

  6

  7

 40
1.0
 41
2.5
 42
0.625
 43
3.75
 44
1.25
 45
0.0
 46
0.0
 47
0.0
 48
0.0
140
2.5
141
2.5
142
0.0
143
0.03937007874016
144
1.0
145
0.0
146
1.0
147
0.625
 71
     0
 72
     0
 73
     0
 74
     0
 75
     0
 76
     0
 77
     1
 78
     8
170
     0
171
     3
172
     1
173
     0
174
     0
175
     0
176
     0
177
     0
178
     0
270
     2
271
     2
272
     2
273
     2
274
     3
340
11
275
     0
280
     0
281
     0
282
     0
283
     0
284
     8
285
     0
286
     0
287
     3
288
     0
  0
ENDTAB
  0
TABLE
  2
BLOCK_RECORD
  5
1
330
0
100
AcDbSymbolTable
 70
     1
  0
BLOCK_RECORD
  5
1F
330
1
100
AcDbSymbolTableRecord
100
AcDbBlockTableRecord
  2
*MODEL_SPACE
  0
BLOCK_RECORD
  5
1B
330
1
100
AcDbSymbolTableRecord
100
AcDbBlockTableRecord
  2
*PAPER_SPACE
  0
ENDTAB
  0
ENDSEC
  0
SECTION
  2
BLOCKS
  0
BLOCK
  5
20
330
1F
100
AcDbEntity
  8
0
100
AcDbBlockBegin
  2
*MODEL_SPACE
 70
     0
 10
0.0
 20
0.0
 30
0.0
  3
*MODEL_SPACE
  1

  0
ENDBLK
  5
21
330
1F
100
AcDbEntity
  8
0
100
AcDbBlockEnd
  0
BLOCK
  5
1C
330
1B
100
AcDbEntity
 67
     1
  8
0
100
AcDbBlockBegin
  2
*PAPER_SPACE
  1

  0
ENDBLK
  5
1D
330
1B
100
AcDbEntity
 67
     1
  8
0
100
AcDbBlockEnd
  0
ENDSEC
  0
SECTION
  2
ENTITIES
  0
LWPOLYLINE
  5
100
100
AcDbEntity
  8
Layer_1
 62
1
100
AcDbPolyline
 90
12
 70
1
 10
95.005134
 20
158.375280
 30
0.0
 10
120.534780
 20
158.375280
 30
0.0
 10
120.719130
 20
158.447780
 30
0.0
 10
120.795230
 20
158.622290
 30
0.0
 10
120.795230
 20
158.755570
 30
0.0
 10
120.718830
 20
158.930310
 30
0.0
 10
120.534830
 20
159.002610
 30
0.0
 10
95.005134
 20
159.002610
 30
0.0
 10
94.820944
 20
158.930110
 30
0.0
 10
94.744874
 20
158.755600
 30
0.0
 10
94.744874
 20
158.622320
 30
0.0
 10
94.821254
 20
158.447580
 30
0.0
  0
LWPOLYLINE
  5
101
100
AcDbEntity
  8
Layer_1
 62
1
100
AcDbPolyline
 90
12
 70
1
 10
95.005134
 20
222.677126
 30
0.0
 10
120.534780
 20
222.677126
 30
0.0
 10
120.719010
 20
222.604826
 30
0.0
 10
120.795210
 20
222.430086
 30
0.0
 10
120.795400
 20
222.296805
 30
0.0
 10
120.719100
 20
222.122183
 30
0.0
 10
120.534870
 20
222.049723
 30
0.0
 10
95.005134
 20
222.049723
 30
0.0
 10
94.821022
 20
222.122063
 30
0.0
 10
94.744872
 20
222.296802
 30
0.0
 10
94.744872
 20
222.430083
 30
0.0
 10
94.820822
 20
222.604706
 30
0.0
  0
LWPOLYLINE
  5
102
100
AcDbEntity
  8
Layer_1
 62
1
100
AcDbPolyline
 90
12
 70
1
 10
134.647720
 20
139.949470
 30
0.0
 10
134.647720
 20
140.082870
 30
0.0
 10
134.571220
 20
140.257610
 30
0.0
 10
134.387230
 20
140.329810
 30
0.0
 10
108.857580
 20
140.329810
 30
0.0
 10
108.673230
 20
140.257310
 30
0.0
 10
108.597130
 20
140.082880
 30
0.0
 10
108.597130
 20
139.949480
 30
0.0
 10
108.673630
 20
139.774740
 30
0.0
 10
108.857630
 20
139.702540
 30
0.0
 10
134.387280
 20
139.702540
 30
0.0
 10
134.571620
 20
139.774940
 30
0.0
  0
LWPOLYLINE
  5
103
100
AcDbEntity
  8
Layer_1
 62
1
100
AcDbPolyline
 90
12
 70
1
 10
80.892312
 20
220.571580
 30
0.0
 10
80.892312
 20
220.704978
 30
0.0
 10
80.968502
 20
220.879601
 30
0.0
 10
81.152809
 20
220.951941
 30
0.0
 10
106.682460
 20
220.951941
 30
0.0
 10
106.866680
 20
220.879721
 30
0.0
 10
106.943080
 20
220.704981
 30
0.0
 10
106.943080
 20
220.571583
 30
0.0
 10
106.866780
 20
220.396961
 30
0.0
 10
106.682440
 20
220.324661
 30
0.0
 10
81.152807
 20
220.324661
 30
0.0
 10
80.968694
 20
220.396841
 30
0.0
  0
LWPOLYLINE
  5
104
100
AcDbEntity
  8
Layer_1
 62
1
100
AcDbPolyline
 90
16
 70
0
 10
79.238451
 20
225.500025
 30
0.0
 10
92.830245
 20
225.500025
 30
0.0
 10
93.014357
 20
225.572445
 30
0.0
 10
93.090777
 20
225.747107
 30
0.0
 10
93.090777
 20
225.880388
 30
0.0
 10
93.014357
 20
226.055010
 30
0.0
 10
92.830245
 20
226.127430
 30
0.0
 10
79.238451
 20
226.127430
 30
0.0
 10
79.238451
 20
148.024170
 30
0.0
 10
92.830245
 20
148.024170
 30
0.0
 10
93.014357
 20
148.096470
 30
0.0
 10
93.090777
 20
148.271090
 30
0.0
 10
93.090777
 20
148.404490
 30
0.0
 10
93.014357
 20
148.579110
 30
0.0
 10
92.830245
 20
148.651410
 30
0.0
 10
79.238451
 20
148.651410
 30
0.0
  0
LWPOLYLINE
  5
105
100
AcDbEntity
  8
Layer_1
 62
1
100
AcDbPolyline
 90
12
 70
1
 10
80.892312
 20
153.580120
 30
0.0
 10
80.892312
 20
153.446720
 30
0.0
 10
80.968932
 20
153.271980
 30
0.0
 10
81.152811
 20
153.199780
 30
0.0
 10
106.682460
 20
153.199780
 30
0.0
 10
106.866800
 20
153.272280
 30
0.0
 10
106.943100
 20
153.446710
 30
0.0
 10
106.943100
 20
153.580110
 30
0.0
 10
106.866500
 20
153.754850
 30
0.0
 10
106.682510
 20
153.827150
 30
0.0
 10
81.152807
 20
153.827150
 30
0.0
 10
80.968500
 20
153.754650
 30
0.0
  0
LWPOLYLINE
  5
106
100
AcDbEntity
  8
Layer_1
 62
1
100
AcDbPolyline
 90
12
 70
1
 10
80.892312
 20
133.048920
 30
0.0
 10
80.892312
 20
133.182280
 30
0.0
 10
80.968502
 20
133.356940
 30
0.0
 10
81.152809
 20
133.429240
 30
0.0
 10
106.682460
 20
133.429120
 30
0.0
 10
106.866680
 20
133.356920
 30
0.0
 10
106.942980
 20
133.182180
 30
0.0
 10
106.942980
 20
133.048780
 30
0.0
 10
106.866780
 20
132.874160
 30
0.0
 10
106.682440
 20
132.801860
 30
0.0
 10
81.152789
 20
132.801980
 30
0.0
 10
80.968676
 20
132.874180
 30
0.0
  0
LWPOLYLINE
  5
107
100
AcDbEntity
  8
Layer_1
 62
1
100
AcDbPolyline
 90
12
 70
1
 10
80.892312
 20
157.030530
 30
0.0
 10
80.892312
 20
156.897130
 30
0.0
 10
80.968932
 20
156.722390
 30
0.0
 10
81.152811
 20
156.650190
 30
0.0
 10
106.682460
 20
156.650190
 30
0.0
 10
106.866800
 20
156.722590
 30
0.0
 10
106.943100
 20
156.897130
 30
0.0
 10
106.943100
 20
157.030530
 30
0.0
 10
106.866500
 20
157.205230
 30
0.0
 10
106.682510
 20
157.277430
 30
0.0
 10
81.152807
 20
157.277430
 30
0.0
 10
80.968500
 20
157.204930
 30
0.0
  0
LWPOLYLINE
  5
108
100
AcDbEntity
  8
Layer_1
 62
1
100
AcDbPolyline
 90
12
 70
1
 10
134.647720
 20
136.499100
 30
0.0
 10
134.647720
 20
136.632490
 30
0.0
 10
134.571220
 20
136.807200
 30
0.0
 10
134.387230
 20
136.879500
 30
0.0
 10
108.857580
 20
136.879500
 30
0.0
 10
108.673230
 20
136.807000
 30
0.0
 10
108.597130
 20
136.632490
 30
0.0
 10
108.597130
 20
136.499100
 30
0.0
 10
108.673630
 20
136.324360
 30
0.0
 10
108.857630
 20
136.252160
 30
0.0
 10
134.387280
 20
136.252160
 30
0.0
 10
134.571620
 20
136.324660
 30
0.0
  0
LWPOLYLINE
  5
109
100
AcDbEntity
  8
Layer_1
 62
1
100
AcDbPolyline
 90
12
 70
1
 10
80.892428
 20
136.499170
 30
0.0
 10
80.892428
 20
136.632570
 30
0.0
 10
80.968618
 20
136.807200
 30
0.0
 10
81.152924
 20
136.879700
 30
0.0
 10
106.682570
 20
136.879580
 30
0.0
 10
106.866800
 20
136.807280
 30
0.0
 10
106.943100
 20
136.632570
 30
0.0
 10
106.943100
 20
136.499180
 30
0.0
 10
106.866900
 20
136.324630
 30
0.0
 10
106.682550
 20
136.252230
 30
0.0
 10
81.152904
 20
136.252340
 30
0.0
 10
80.968792
 20
136.324540
 30
0.0
  0
LWPOLYLINE
  5
10a
100
AcDbEntity
  8
Layer_1
 62
1
100
AcDbPolyline
 90
12
 70
1
 10
134.647720
 20
224.021877
 30
0.0
 10
134.647720
 20
224.155274
 30
0.0
 10
134.571220
 20
224.330014
 30
0.0
 10
134.387230
 20
224.402234
 30
0.0
 10
108.857460
 20
224.402234
 30
0.0
 10
108.673150
 20
224.329784
 30
0.0
 10
108.597050
 20
224.155277
 30
0.0
 10
108.597050
 20
224.021880
 30
0.0
 10
108.673550
 20
223.847140
 30
0.0
 10
108.857430
 20
223.774960
 30
0.0
 10
134.387200
 20
223.774960
 30
0.0
 10
134.571430
 20
223.847490
 30
0.0
  0
LWPOLYLINE
  5
10b
100
AcDbEntity
  8
Layer_1
 62
1
100
AcDbPolyline
 90
12
 70
1
 10
134.647610
 20
133.048800
 30
0.0
 10
134.647610
 20
133.182200
 30
0.0
 10
134.571110
 20
133.356940
 30
0.0
 10
134.387110
 20
133.429140
 30
0.0
 10
108.857460
 20
133.429140
 30
0.0
 10
108.673150
 20
133.356740
 30
0.0
 10
108.596950
 20
133.182240
 30
0.0
 10
108.596950
 20
133.048840
 30
0.0
 10
108.673450
 20
132.874100
 30
0.0
 10
108.857440
 20
132.801900
 30
0.0
 10
134.387090
 20
132.801900
 30
0.0
 10
134.571440
 20
132.874300
 30
0.0
  0
LWPOLYLINE
  5
10c
100
AcDbEntity
  8
Layer_1
 62
1
100
AcDbPolyline
 90
12
 70
1
 10
95.005134
 20
155.552260
 30
0.0
 10
120.534780
 20
155.552260
 30
0.0
 10
120.719010
 20
155.480060
 30
0.0
 10
120.795210
 20
155.305320
 30
0.0
 10
120.795210
 20
155.171930
 30
0.0
 10
120.719110
 20
154.997300
 30
0.0
 10
120.534760
 20
154.925000
 30
0.0
 10
95.005134
 20
154.925000
 30
0.0
 10
94.821022
 20
154.997200
 30
0.0
 10
94.744872
 20
155.171940
 30
0.0
 10
94.744872
 20
155.305330
 30
0.0
 10
94.820822
 20
155.479960
 30
0.0
  0
LWPOLYLINE
  5
10d
100
AcDbEntity
  8
Layer_1
 62
1
100
AcDbPolyline
 90
16
 70
0
 10
136.301700
 20
225.500025
 30
0.0
 10
122.709790
 20
225.500025
 30
0.0
 10
122.525560
 20
225.572445
 30
0.0
 10
122.449160
 20
225.747107
 30
0.0
 10
122.449160
 20
225.880388
 30
0.0
 10
122.525560
 20
226.055010
 30
0.0
 10
122.709790
 20
226.127430
 30
0.0
 10
136.301700
 20
226.127430
 30
0.0
 10
136.301700
 20
148.024170
 30
0.0
 10
122.709790
 20
148.024170
 30
0.0
 10
122.525560
 20
148.096470
 30
0.0
 10
122.449160
 20
148.271090
 30
0.0
 10
122.449160
 20
148.404490
 30
0.0
 10
122.525560
 20
148.579110
 30
0.0
 10
122.709790
 20
148.651410
 30
0.0
 10
136.301700
 20
148.651410
 30
0.0
  0
LWPOLYLINE
  5
10e
100
AcDbEntity
  8
Layer_1
 62
1
100
AcDbPolyline
 90
12
 70
1
 10
134.647720
 20
157.030530
 30
0.0
 10
134.647720
 20
156.897130
 30
0.0
 10
134.571420
 20
156.722510
 30
0.0
 10
134.387190
 20
156.650210
 30
0.0
 10
108.857420
 20
156.650210
 30
0.0
 10
108.673190
 20
156.722410
 30
0.0
 10
108.597090
 20
156.897150
 30
0.0
 10
108.597090
 20
157.030550
 30
0.0
 10
108.673190
 20
157.205170
 30
0.0
 10
108.857500
 20
157.277470
 30
0.0
 10
134.387270
 20
157.277470
 30
0.0
 10
134.571380
 20
157.205270
 30
0.0
  0
LWPOLYLINE
  5
10f
100
AcDbEntity
  8
Layer_1
 62
1
100
AcDbPolyline
 90
12
 70
1
 10
80.892312
 20
224.021877
 30
0.0
 10
80.892312
 20
224.155274
 30
0.0
 10
80.968502
 20
224.329897
 30
0.0
 10
81.152809
 20
224.402237
 30
0.0
 10
106.682460
 20
224.402237
 30
0.0
 10
106.866680
 20
224.330017
 30
0.0
 10
106.943080
 20
224.155277
 30
0.0
 10
106.943080
 20
224.021880
 30
0.0
 10
106.866780
 20
223.847257
 30
0.0
 10
106.682440
 20
223.774957
 30
0.0
 10
81.152807
 20
223.774957
 30
0.0
 10
80.968694
 20
223.847137
 30
0.0
  0
LWPOLYLINE
  5
110
100
AcDbEntity
  8
Layer_1
 62
1
100
AcDbPolyline
 90
12
 70
1
 10
80.892428
 20
143.399880
 30
0.0
 10
80.892428
 20
143.533280
 30
0.0
 10
80.968618
 20
143.707900
 30
0.0
 10
81.152924
 20
143.780200
 30
0.0
 10
106.682570
 20
143.780090
 30
0.0
 10
106.866800
 20
143.707890
 30
0.0
 10
106.943100
 20
143.533150
 30
0.0
 10
106.943100
 20
143.399760
 30
0.0
 10
106.866900
 20
143.225130
 30
0.0
 10
106.682550
 20
143.152830
 30
0.0
 10
81.152904
 20
143.152900
 30
0.0
 10
80.968792
 20
143.225100
 30
0.0
  0
LWPOLYLINE
  5
111
100
AcDbEntity
  8
Layer_1
 62
1
100
AcDbPolyline
 90
12
 70
1
 10
134.647720
 20
153.580120
 30
0.0
 10
134.647720
 20
153.446720
 30
0.0
 10
134.571420
 20
153.272210
 30
0.0
 10
134.387190
 20
153.199710
 30
0.0
 10
108.857420
 20
153.199710
 30
0.0
 10
108.673190
 20
153.271910
 30
0.0
 10
108.597090
 20
153.446650
 30
0.0
 10
108.597090
 20
153.580050
 30
0.0
 10
108.673190
 20
153.754670
 30
0.0
 10
108.857500
 20
153.827070
 30
0.0
 10
134.387270
 20
153.827070
 30
0.0
 10
134.571380
 20
153.754770
 30
0.0
  0
LWPOLYLINE
  5
112
100
AcDbEntity
  8
Layer_1
 62
1
100
AcDbPolyline
 90
12
 70
1
 10
80.892428
 20
139.949590
 30
0.0
 10
80.892428
 20
140.082990
 30
0.0
 10
80.968618
 20
140.257610
 30
0.0
 10
81.152924
 20
140.329910
 30
0.0
 10
106.682570
 20
140.329790
 30
0.0
 10
106.866800
 20
140.257590
 30
0.0
 10
106.943100
 20
140.082850
 30
0.0
 10
106.943100
 20
139.949450
 30
0.0
 10
106.866900
 20
139.774830
 30
0.0
 10
106.682550
 20
139.702530
 30
0.0
 10
81.152904
 20
139.702650
 30
0.0
 10
80.968792
 20
139.774850
 30
0.0
  0
LWPOLYLINE
  5
113
100
AcDbEntity
  8
Layer_1
 62
1
100
AcDbPolyline
 90
12
 70
1
 10
134.647720
 20
143.399770
 30
0.0
 10
134.647720
 20
143.533160
 30
0.0
 10
134.571220
 20
143.707900
 30
0.0
 10
134.387230
 20
143.780100
 30
0.0
 10
108.857580
 20
143.780100
 30
0.0
 10
108.673230
 20
143.707600
 30
0.0
 10
108.597130
 20
143.533090
 30
0.0
 10
108.597130
 20
143.399700
 30
0.0
 10
108.673630
 20
143.224960
 30
0.0
 10
108.857630
 20
143.152760
 30
0.0
 10
134.387280
 20
143.152760
 30
0.0
 10
134.571620
 20
143.225260
 30
0.0
  0
LWPOLYLINE
  5
114
100
AcDbEntity
  8
Layer_1
 62
1
100
AcDbPolyline
 90
12
 70
1
 10
134.647720
 20
220.571580
 30
0.0
 10
134.647720
 20
220.704978
 30
0.0
 10
134.571220
 20
220.879718
 30
0.0
 10
134.387230
 20
220.951938
 30
0.0
 10
108.857460
 20
220.951938
 30
0.0
 10
108.673150
 20
220.879408
 30
0.0
 10
108.597050
 20
220.704980
 30
0.0
 10
108.597050
 20
220.571582
 30
0.0
 10
108.673550
 20
220.396843
 30
0.0
 10
108.857430
 20
220.324663
 30
0.0
 10
134.387200
 20
220.324663
 30
0.0
 10
134.571430
 20
220.397083
 30
0.0
  0
LWPOLYLINE
  5
115
100
AcDbEntity
  8
Layer_1
 62
1
100
AcDbPolyline
 90
12
 70
1
 10
95.005134
 20
219.226713
 30
0.0
 10
120.534780
 20
219.226713
 30
0.0
 10
120.719010
 20
219.154533
 30
0.0
 10
120.795210
 20
218.979793
 30
0.0
 10
120.795210
 20
218.846395
 30
0.0
 10
120.719110
 20
218.671773
 30
0.0
 10
120.534880
 20
218.599433
 30
0.0
 10
95.005134
 20
218.599433
 30
0.0
 10
94.821022
 20
218.671653
 30
0.0
 10
94.744872
 20
218.846392
 30
0.0
 10
94.744872
 20
218.979790
 30
0.0
 10
94.820822
 20
219.154413
 30
0.0
  0
LWPOLYLINE
  5
116
100
AcDbEntity
  8
Layer_1
 62
1
100
AcDbPolyline
 90
12
 70
1
 10
120.795200
 20
134.907270
 30
0.0
 10
120.795200
 20
134.773990
 30
0.0
 10
120.719100
 20
134.599360
 30
0.0
 10
120.534750
 20
134.526960
 30
0.0
 10
95.005221
 20
134.527040
 30
0.0
 10
94.820992
 20
134.599340
 30
0.0
 10
94.744722
 20
134.774080
 30
0.0
 10
94.744722
 20
134.907370
 30
0.0
 10
94.820792
 20
135.081990
 30
0.0
 10
95.005216
 20
135.154390
 30
0.0
 10
120.534750
 20
135.154320
 30
0.0
 10
120.718870
 20
135.082120
 30
0.0
  0
LWPOLYLINE
  5
117
100
AcDbEntity
  8
Layer_1
 62
1
100
AcDbPolyline
 90
12
 70
1
 10
120.795320
 20
138.357680
 30
0.0
 10
120.795320
 20
138.224280
 30
0.0
 10
120.719220
 20
138.049660
 30
0.0
 10
120.534870
 20
137.977360
 30
0.0
 10
95.005337
 20
137.977480
 30
0.0
 10
94.821108
 20
138.049680
 30
0.0
 10
94.744838
 20
138.224420
 30
0.0
 10
94.744838
 20
138.357820
 30
0.0
 10
94.820908
 20
138.532440
 30
0.0
 10
95.005331
 20
138.604740
 30
0.0
 10
120.534860
 20
138.604660
 30
0.0
 10
120.718970
 20
138.532460
 30
0.0
  0
LWPOLYLINE
  5
118
100
AcDbEntity
  8
Layer_1
 62
1
100
AcDbPolyline
 90
12
 70
1
 10
120.795320
 20
141.807980
 30
0.0
 10
120.795320
 20
141.674700
 30
0.0
 10
120.719220
 20
141.500070
 30
0.0
 10
120.534870
 20
141.427570
 30
0.0
 10
95.005337
 20
141.427690
 30
0.0
 10
94.821108
 20
141.499990
 30
0.0
 10
94.744838
 20
141.674730
 30
0.0
 10
94.744838
 20
141.808010
 30
0.0
 10
94.820908
 20
141.982640
 30
0.0
 10
95.005331
 20
142.055040
 30
0.0
 10
120.534860
 20
142.054930
 30
0.0
 10
120.718970
 20
141.982630
 30
0.0
  0
LWPOLYLINE
  5
119
100
AcDbEntity
  8
Layer_1
 62
1
100
AcDbPolyline
 90
8
 70
0
 10
136.301620
 20
134.526950
 30
0.0
 10
122.709670
 20
134.526950
 30
0.0
 10
122.525560
 20
134.599350
 30
0.0
 10
122.449160
 20
134.773980
 30
0.0
 10
122.449160
 20
134.907260
 30
0.0
 10
122.525560
 20
135.081880
 30
0.0
 10
122.709670
 20
135.154380
 30
0.0
 10
136.301620
 20
135.154380
 30
0.0
  0
LWPOLYLINE
  5
11a
100
AcDbEntity
  8
Layer_1
 62
1
100
AcDbPolyline
 90
8
 70
0
 10
136.301700
 20
137.977320
 30
0.0
 10
122.709790
 20
137.977320
 30
0.0
 10
122.525680
 20
138.049620
 30
0.0
 10
122.449280
 20
138.224240
 30
0.0
 10
122.449280
 20
138.357640
 30
0.0
 10
122.525680
 20
138.532260
 30
0.0
 10
122.709790
 20
138.604560
 30
0.0
 10
136.301700
 20
138.604560
 30
0.0
  0
SPLINE
  5
11b
100
AcDbEntity
  8
Layer_1
 62
1
100
AcDbSpline
 70
8
 71
3
 72
8
 73
4
 74
0
 40
0
 40
0
 40
0
 40
0
 40
1
 40
1
 40
1
 40
1
 10
79.238335
 20
128.733380
 30
0.0
 10
79.238335
 20
128.148570
 30
0.0
 10
79.470711
 20
127.587760
 30
0.0
 10
79.884128
 20
127.174220
 30
0.0
  0
SPLINE
  5
11c
100
AcDbEntity
  8
Layer_1
 62
1
100
AcDbSpline
 70
8
 71
3
 72
8
 73
4
 74
0
 40
0
 40
0
 40
0
 40
0
 40
1
 40
1
 40
1
 40
1
 10
79.884128
 20
127.174220
 30
0.0
 10
80.297661
 20
126.760810
 30
0.0
 10
80.858476
 20
126.528510
 30
0.0
 10
81.443209
 20
126.528510
 30
0.0
  0
LWPOLYLINE
  5
11d
100
AcDbEntity
  8
Layer_1
 62
1
100
AcDbPolyline
 90
9
 70
0
 10
79.238451
 20
141.427740
 30
0.0
 10
92.830362
 20
141.427740
 30
0.0
 10
93.014474
 20
141.500140
 30
0.0
 10
93.090854
 20
141.674800
 30
0.0
 10
93.090854
 20
141.808080
 30
0.0
 10
93.014474
 20
141.982710
 30
0.0
 10
92.830362
 20
142.055110
 30
0.0
 10
79.238451
 20
142.055110
 30
0.0
 10
79.238335
 20
128.733380
 30
0.0
  0
SPLINE
  5
11e
100
AcDbEntity
  8
Layer_1
 62
1
100
AcDbSpline
 70
8
 71
3
 72
8
 73
4
 74
0
 40
0
 40
0
 40
0
 40
0
 40
1
 40
1
 40
1
 40
1
 10
134.096750
 20
126.528430
 30
0.0
 10
135.314480
 20
126.528430
 30
0.0
 10
136.301620
 20
127.515650
 30
0.0
 10
136.301620
 20
128.733270
 30
0.0
  0
LWPOLYLINE
  5
11f
100
AcDbEntity
  8
Layer_1
 62
1
100
AcDbPolyline
 90
2
 70
0
 10
81.443209
 20
126.528510
 30
0.0
 10
134.096750
 20
126.528430
 30
0.0
  0
LWPOLYLINE
  5
120
100
AcDbEntity
  8
Layer_1
 62
1
100
AcDbPolyline
 90
9
 70
0
 10
136.301620
 20
128.733270
 30
0.0
 10
136.301700
 20
142.055000
 30
0.0
 10
122.709790
 20
142.055000
 30
0.0
 10
122.525680
 20
141.982600
 30
0.0
 10
122.449280
 20
141.807980
 30
0.0
 10
122.449280
 20
141.674700
 30
0.0
 10
122.525680
 20
141.500070
 30
0.0
 10
122.709790
 20
141.427570
 30
0.0
 10
136.301700
 20
141.427570
 30
0.0
  0
LWPOLYLINE
  5
121
100
AcDbEntity
  8
Layer_1
 62
1
100
AcDbPolyline
 90
8
 70
0
 10
79.238451
 20
137.977440
 30
0.0
 10
92.830362
 20
137.977440
 30
0.0
 10
93.014474
 20
138.049740
 30
0.0
 10
93.090854
 20
138.224360
 30
0.0
 10
93.090854
 20
138.357760
 30
0.0
 10
93.014474
 20
138.532380
 30
0.0
 10
92.830362
 20
138.604680
 30
0.0
 10
79.238451
 20
138.604680
 30
0.0
  0
LWPOLYLINE
  5
122
100
AcDbEntity
  8
Layer_1
 62
1
100
AcDbPolyline
 90
8
 70
0
 10
79.238335
 20
134.527030
 30
0.0
 10
92.830245
 20
134.527030
 30
0.0
 10
93.014357
 20
134.599530
 30
0.0
 10
93.090777
 20
134.774150
 30
0.0
 10
93.090777
 20
134.907440
 30
0.0
 10
93.014357
 20
135.082060
 30
0.0
 10
92.830245
 20
135.154460
 30
0.0
 10
79.238335
 20
135.154460
 30
0.0
  0
LWPOLYLINE
  5
123
100
AcDbEntity
  8
Layer_1
 62
1
100
AcDbPolyline
 90
8
 70
0
 10
79.238451
 20
154.924980
 30
0.0
 10
92.830245
 20
154.924980
 30
0.0
 10
93.014357
 20
154.997280
 30
0.0
 10
93.090777
 20
155.171910
 30
0.0
 10
93.090777
 20
155.305300
 30
0.0
 10
93.014357
 20
155.479930
 30
0.0
 10
92.830245
 20
155.552230
 30
0.0
 10
79.238451
 20
155.552230
 30
0.0
  0
LWPOLYLINE
  5
124
100
AcDbEntity
  8
Layer_1
 62
1
100
AcDbPolyline
 90
8
 70
0
 10
79.238451
 20
159.002640
 30
0.0
 10
92.830245
 20
159.002640
 30
0.0
 10
93.014357
 20
158.930240
 30
0.0
 10
93.090777
 20
158.755620
 30
0.0
 10
93.090777
 20
158.622340
 30
0.0
 10
93.014357
 20
158.447720
 30
0.0
 10
92.830245
 20
158.375320
 30
0.0
 10
79.238451
 20
158.375320
 30
0.0
  0
LWPOLYLINE
  5
125
100
AcDbEntity
  8
Layer_1
 62
1
100
AcDbPolyline
 90
8
 70
0
 10
136.301700
 20
159.002640
 30
0.0
 10
122.709790
 20
159.002640
 30
0.0
 10
122.525560
 20
158.930240
 30
0.0
 10
122.449160
 20
158.755620
 30
0.0
 10
122.449160
 20
158.622340
 30
0.0
 10
122.525560
 20
158.447720
 30
0.0
 10
122.709790
 20
158.375320
 30
0.0
 10
136.301700
 20
158.375320
 30
0.0
  0
LWPOLYLINE
  5
126
100
AcDbEntity
  8
Layer_1
 62
1
100
AcDbPolyline
 90
8
 70
0
 10
136.301700
 20
155.552260
 30
0.0
 10
122.709790
 20
155.552260
 30
0.0
 10
122.525560
 20
155.479960
 30
0.0
 10
122.449160
 20
155.305330
 30
0.0
 10
122.449160
 20
155.171940
 30
0.0
 10
122.525560
 20
154.997310
 30
0.0
 10
122.709790
 20
154.925010
 30
0.0
 10
136.301700
 20
154.925010
 30
0.0
  0
LWPOLYLINE
  5
127
100
AcDbEntity
  8
Layer_1
 62
1
100
AcDbPolyline
 90
8
 70
0
 10
136.301700
 20
222.049729
 30
0.0
 10
122.709790
 20
222.049729
 30
0.0
 10
122.525560
 20
222.122189
 30
0.0
 10
122.449160
 20
222.296811
 30
0.0
 10
122.449160
 20
222.430092
 30
0.0
 10
122.525560
 20
222.604715
 30
0.0
 10
122.709790
 20
222.677135
 30
0.0
 10
136.301700
 20
222.677135
 30
0.0
  0
LWPOLYLINE
  5
128
100
AcDbEntity
  8
Layer_1
 62
1
100
AcDbPolyline
 90
8
 70
0
 10
136.301700
 20
219.226713
 30
0.0
 10
122.709790
 20
219.226713
 30
0.0
 10
122.525560
 20
219.154413
 30
0.0
 10
122.449160
 20
218.979790
 30
0.0
 10
122.449160
 20
218.846392
 30
0.0
 10
122.525560
 20
218.671770
 30
0.0
 10
122.709790
 20
218.599430
 30
0.0
 10
136.301700
 20
218.599430
 30
0.0
  0
LWPOLYLINE
  5
129
100
AcDbEntity
  8
Layer_1
 62
1
100
AcDbPolyline
 90
8
 70
0
 10
79.238451
 20
222.677126
 30
0.0
 10
92.830245
 20
222.677126
 30
0.0
 10
93.014357
 20
222.604706
 30
0.0
 10
93.090777
 20
222.430083
 30
0.0
 10
93.090777
 20
222.296802
 30
0.0
 10
93.014357
 20
222.122180
 30
0.0
 10
92.830245
 20
222.049720
 30
0.0
 10
79.238451
 20
222.049720
 30
0.0
  0
LWPOLYLINE
  5
12a
100
AcDbEntity
  8
Layer_1
 62
1
100
AcDbPolyline
 90
8
 70
0
 10
79.238451
 20
219.226713
 30
0.0
 10
92.830245
 20
219.226713
 30
0.0
 10
93.014357
 20
219.154413
 30
0.0
 10
93.090777
 20
218.979790
 30
0.0
 10
93.090777
 20
218.846392
 30
0.0
 10
93.014357
 20
218.671770
 30
0.0
 10
92.830245
 20
218.599430
 30
0.0
 10
79.238451
 20
218.599430
 30
0.0
  0
LWPOLYLINE
  5
12b
100
AcDbEntity
  8
Layer_1
 62
1
100
AcDbPolyline
 90
12
 70
1
 10
80.892312
 20
150.129700
 30
0.0
 10
80.892312
 20
149.996310
 30
0.0
 10
80.968932
 20
149.821570
 30
0.0
 10
81.152811
 20
149.749370
 30
0.0
 10
106.682460
 20
149.749370
 30
0.0
 10
106.866800
 20
149.821870
 30
0.0
 10
106.943100
 20
149.996260
 30
0.0
 10
106.943100
 20
150.129650
 30
0.0
 10
106.866500
 20
150.304390
 30
0.0
 10
106.682510
 20
150.376690
 30
0.0
 10
81.152807
 20
150.376690
 30
0.0
 10
80.968500
 20
150.304190
 30
0.0
  0
LWPOLYLINE
  5
12c
100
AcDbEntity
  8
Layer_1
 62
1
100
AcDbPolyline
 90
12
 70
1
 10
95.005134
 20
152.101850
 30
0.0
 10
120.534780
 20
152.101850
 30
0.0
 10
120.719010
 20
152.029650
 30
0.0
 10
120.795210
 20
151.854910
 30
0.0
 10
120.795210
 20
151.721510
 30
0.0
 10
120.719110
 20
151.546890
 30
0.0
 10
120.534760
 20
151.474590
 30
0.0
 10
95.005134
 20
151.474590
 30
0.0
 10
94.821022
 20
151.546790
 30
0.0
 10
94.744872
 20
151.721490
 30
0.0
 10
94.744872
 20
151.854890
 30
0.0
 10
94.820822
 20
152.029510
 30
0.0
  0
LWPOLYLINE
  5
12d
100
AcDbEntity
  8
Layer_1
 62
1
100
AcDbPolyline
 90
12
 70
1
 10
134.647720
 20
150.129700
 30
0.0
 10
134.647720
 20
149.996310
 30
0.0
 10
134.571420
 20
149.821800
 30
0.0
 10
134.387190
 20
149.749400
 30
0.0
 10
108.857420
 20
149.749400
 30
0.0
 10
108.673190
 20
149.821600
 30
0.0
 10
108.597090
 20
149.996340
 30
0.0
 10
108.597090
 20
150.129730
 30
0.0
 10
108.673190
 20
150.304360
 30
0.0
 10
108.857500
 20
150.376760
 30
0.0
 10
134.387270
 20
150.376760
 30
0.0
 10
134.571380
 20
150.304460
 30
0.0
  0
LWPOLYLINE
  5
12e
100
AcDbEntity
  8
Layer_1
 62
1
100
AcDbPolyline
 90
8
 70
0
 10
79.238451
 20
151.474570
 30
0.0
 10
92.830245
 20
151.474570
 30
0.0
 10
93.014357
 20
151.546870
 30
0.0
 10
93.090777
 20
151.721490
 30
0.0
 10
93.090777
 20
151.854890
 30
0.0
 10
93.014357
 20
152.029510
 30
0.0
 10
92.830245
 20
152.101810
 30
0.0
 10
79.238451
 20
152.101810
 30
0.0
  0
LWPOLYLINE
  5
12f
100
AcDbEntity
  8
Layer_1
 62
1
100
AcDbPolyline
 90
8
 70
0
 10
136.301700
 20
152.101850
 30
0.0
 10
122.709790
 20
152.101850
 30
0.0
 10
122.525560
 20
152.029550
 30
0.0
 10
122.449160
 20
151.854930
 30
0.0
 10
122.449160
 20
151.721530
 30
0.0
 10
122.525560
 20
151.546910
 30
0.0
 10
122.709790
 20
151.474610
 30
0.0
 10
136.301700
 20
151.474610
 30
0.0
  0
LWPOLYLINE
  5
130
100
AcDbEntity
  8
Layer_1
 62
1
100
AcDbPolyline
 90
12
 70
1
 10
95.005134
 20
226.127422
 30
0.0
 10
120.534780
 20
226.127422
 30
0.0
 10
120.719010
 20
226.055122
 30
0.0
 10
120.795210
 20
225.880383
 30
0.0
 10
120.795400
 20
225.747102
 30
0.0
 10
120.719100
 20
225.572440
 30
0.0
 10
120.534870
 20
225.500020
 30
0.0
 10
95.005134
 20
225.500020
 30
0.0
 10
94.821022
 20
225.572360
 30
0.0
 10
94.744872
 20
225.747100
 30
0.0
 10
94.744872
 20
225.880381
 30
0.0
 10
94.820822
 20
226.055003
 30
0.0
  0
LWPOLYLINE
  5
131
100
AcDbEntity
  8
Layer_1
 62
1
100
AcDbPolyline
 90
12
 70
1
 10
134.647720
 20
227.472173
 30
0.0
 10
134.647720
 20
227.605571
 30
0.0
 10
134.571220
 20
227.780310
 30
0.0
 10
134.387230
 20
227.852530
 30
0.0
 10
108.857460
 20
227.852530
 30
0.0
 10
108.673150
 20
227.780080
 30
0.0
 10
108.597050
 20
227.605574
 30
0.0
 10
108.597050
 20
227.472176
 30
0.0
 10
108.673550
 20
227.297437
 30
0.0
 10
108.857430
 20
227.225217
 30
0.0
 10
134.387200
 20
227.225217
 30
0.0
 10
134.571430
 20
227.297787
 30
0.0
  0
LWPOLYLINE
  5
132
100
AcDbEntity
  8
Layer_1
 62
1
100
AcDbPolyline
 90
12
 70
1
 10
80.892312
 20
227.472173
 30
0.0
 10
80.892312
 20
227.605571
 30
0.0
 10
80.968502
 20
227.780193
 30
0.0
 10
81.152809
 20
227.852533
 30
0.0
 10
106.682460
 20
227.852533
 30
0.0
 10
106.866680
 20
227.780313
 30
0.0
 10
106.943080
 20
227.605574
 30
0.0
 10
106.943080
 20
227.472176
 30
0.0
 10
106.866780
 20
227.297553
 30
0.0
 10
106.682440
 20
227.225213
 30
0.0
 10
81.152807
 20
227.225213
 30
0.0
 10
80.968694
 20
227.297433
 30
0.0
  0
LWPOLYLINE
  5
133
100
AcDbEntity
  8
Layer_1
 62
1
100
AcDbPolyline
 90
12
 70
1
 10
80.892312
 20
146.679290
 30
0.0
 10
80.892312
 20
146.545890
 30
0.0
 10
80.968932
 20
146.371150
 30
0.0
 10
81.152811
 20
146.298950
 30
0.0
 10
106.682460
 20
146.298950
 30
0.0
 10
106.866800
 20
146.371450
 30
0.0
 10
106.943100
 20
146.545840
 30
0.0
 10
106.943100
 20
146.679240
 30
0.0
 10
106.866500
 20
146.853980
 30
0.0
 10
106.682510
 20
146.926280
 30
0.0
 10
81.152807
 20
146.926280
 30
0.0
 10
80.968500
 20
146.853780
 30
0.0
  0
LWPOLYLINE
  5
134
100
AcDbEntity
  8
Layer_1
 62
1
100
AcDbPolyline
 90
12
 70
1
 10
95.005134
 20
148.651440
 30
0.0
 10
120.534780
 20
148.651440
 30
0.0
 10
120.719010
 20
148.579240
 30
0.0
 10
120.795210
 20
148.404500
 30
0.0
 10
120.795210
 20
148.271100
 30
0.0
 10
120.719110
 20
148.096480
 30
0.0
 10
120.534760
 20
148.024180
 30
0.0
 10
95.005134
 20
148.024180
 30
0.0
 10
94.821022
 20
148.096380
 30
0.0
 10
94.744872
 20
148.271120
 30
0.0
 10
94.744872
 20
148.404520
 30
0.0
 10
94.820822
 20
148.579140
 30
0.0
  0
SPLINE
  5
135
100
AcDbEntity
  8
Layer_1
 62
1
100
AcDbSpline
 70
8
 71
3
 72
8
 73
4
 74
0
 40
0
 40
0
 40
0
 40
0
 40
1
 40
1
 40
1
 40
1
 10
78.136343
 20
106.025850
 30
0.0
 10
76.674582
 20
106.025940
 30
0.0
 10
75.272594
 20
106.669380
 30
0.0
 10
74.238923
 20
107.814950
 30
0.0
  0
SPLINE
  5
136
100
AcDbEntity
  8
Layer_1
 62
1
100
AcDbSpline
 70
8
 71
3
 72
8
 73
4
 74
0
 40
0
 40
0
 40
0
 40
0
 40
1
 40
1
 40
1
 40
1
 10
74.238923
 20
107.814950
 30
0.0
 10
73.205214
 20
108.960500
 30
0.0
 10
72.624483
 20
110.514200
 30
0.0
 10
72.624483
 20
112.134160
 30
0.0
  0
LWPOLYLINE
  5
137
100
AcDbEntity
  8
Layer_1
 62
1
100
AcDbPolyline
 90
12
 70
1
 10
134.647720
 20
146.679290
 30
0.0
 10
134.647720
 20
146.545890
 30
0.0
 10
134.571420
 20
146.371390
 30
0.0
 10
134.387190
 20
146.298990
 30
0.0
 10
108.857420
 20
146.298990
 30
0.0
 10
108.673190
 20
146.371190
 30
0.0
 10
108.597090
 20
146.545930
 30
0.0
 10
108.597090
 20
146.679330
 30
0.0
 10
108.673190
 20
146.853950
 30
0.0
 10
108.857500
 20
146.926450
 30
0.0
 10
134.387270
 20
146.926450
 30
0.0
 10
134.571380
 20
146.854150
 30
0.0
  0
SPLINE
  5
138
100
AcDbEntity
  8
Layer_1
 62
1
100
AcDbSpline
 70
8
 71
3
 72
8
 73
4
 74
0
 40
0
 40
0
 40
0
 40
0
 40
1
 40
1
 40
1
 40
1
 10
72.624483
 20
228.015522
 30
0.0
 10
72.624483
 20
229.635434
 30
0.0
 10
73.205214
 20
231.189148
 30
0.0
 10
74.238923
 20
232.334726
 30
0.0
  0
SPLINE
  5
139
100
AcDbEntity
  8
Layer_1
 62
1
100
AcDbSpline
 70
8
 71
3
 72
8
 73
4
 74
0
 40
0
 40
0
 40
0
 40
0
 40
1
 40
1
 40
1
 40
1
 10
74.238923
 20
232.334726
 30
0.0
 10
75.272594
 20
233.480262
 30
0.0
 10
76.674582
 20
234.123710
 30
0.0
 10
78.136343
 20
234.123710
 30
0.0
  0
LWPOLYLINE
  5
13a
100
AcDbEntity
  8
Layer_1
 62
1
100
AcDbPolyline
 90
2
 70
0
 10
72.624483
 20
112.134160
 30
0.0
 10
72.624483
 20
228.015522
 30
0.0
  0
SPLINE
  5
13b
100
AcDbEntity
  8
Layer_1
 62
1
100
AcDbSpline
 70
8
 71
3
 72
8
 73
4
 74
0
 40
0
 40
0
 40
0
 40
0
 40
1
 40
1
 40
1
 40
1
 10
137.403730
 20
234.123710
 30
0.0
 10
138.865460
 20
234.123710
 30
0.0
 10
140.267450
 20
233.480262
 30
0.0
 10
141.301150
 20
232.334726
 30
0.0
  0
SPLINE
  5
13c
100
AcDbEntity
  8
Layer_1
 62
1
100
AcDbSpline
 70
8
 71
3
 72
8
 73
4
 74
0
 40
0
 40
0
 40
0
 40
0
 40
1
 40
1
 40
1
 40
1
 10
141.301150
 20
232.334726
 30
0.0
 10
142.334810
 20
231.189148
 30
0.0
 10
142.915550
 20
229.635434
 30
0.0
 10
142.915550
 20
228.015522
 30
0.0
  0
LWPOLYLINE
  5
13d
100
AcDbEntity
  8
Layer_1
 62
1
100
AcDbPolyline
 90
2
 70
0
 10
78.136343
 20
234.123710
 30
0.0
 10
137.403730
 20
234.123710
 30
0.0
  0
SPLINE
  5
13e
100
AcDbEntity
  8
Layer_1
 62
1
100
AcDbSpline
 70
8
 71
3
 72
8
 73
4
 74
0
 40
0
 40
0
 40
0
 40
0
 40
1
 40
1
 40
1
 40
1
 10
142.915550
 20
112.134160
 30
0.0
 10
142.915430
 20
108.760650
 30
0.0
 10
140.447810
 20
106.025940
 30
0.0
 10
137.403730
 20
106.025850
 30
0.0
  0
LWPOLYLINE
  5
13f
100
AcDbEntity
  8
Layer_1
 62
1
100
AcDbPolyline
 90
2
 70
0
 10
142.915550
 20
228.015522
 30
0.0
 10
142.915550
 20
112.134160
 30
0.0
  0
LWPOLYLINE
  5
140
100
AcDbEntity
  8
Layer_1
 62
1
100
AcDbPolyline
 90
2
 70
0
 10
137.403730
 20
106.025850
 30
0.0
 10
78.136343
 20
106.025850
 30
0.0
  0
SPLINE
  5
141
100
AcDbEntity
  8
Layer_1
 62
1
100
AcDbSpline
 70
8
 71
3
 72
8
 73
4
 74
0
 40
0
 40
0
 40
0
 40
0
 40
1
 40
1
 40
1
 40
1
 10
88.057911
 20
169.426840
 30
0.0
 10
87.473099
 20
169.426950
 30
0.0
 10
86.912284
 20
169.659250
 30
0.0
 10
86.498751
 20
170.072670
 30
0.0
  0
SPLINE
  5
142
100
AcDbEntity
  8
Layer_1
 62
1
100
AcDbSpline
 70
8
 71
3
 72
8
 73
4
 74
0
 40
0
 40
0
 40
0
 40
0
 40
1
 40
1
 40
1
 40
1
 10
86.498751
 20
170.072670
 30
0.0
 10
86.085335
 20
170.486160
 30
0.0
 10
85.853036
 20
171.046980
 30
0.0
 10
85.853036
 20
171.631710
 30
0.0
  0
LWPOLYLINE
  5
143
100
AcDbEntity
  8
Layer_1
 62
1
100
AcDbPolyline
 90
9
 70
1
 10
89.783020
 20
186.975290
 30
0.0
 10
89.783020
 20
180.360710
 30
0.0
 10
93.090312
 20
180.360710
 30
0.0
 10
93.090312
 20
186.975290
 30
0.0
 10
94.192769
 20
186.975290
 30
0.0
 10
94.192769
 20
196.346000
 30
0.0
 10
91.436685
 20
193.589920
 30
0.0
 10
88.680563
 20
196.346120
 30
0.0
 10
88.680563
 20
186.975290
 30
0.0
  0
SPLINE
  5
144
100
AcDbEntity
  8
Layer_1
 62
1
100
AcDbSpline
 70
8
 71
3
 72
8
 73
4
 74
0
 40
0
 40
0
 40
0
 40
0
 40
1
 40
1
 40
1
 40
1
 10
85.853036
 20
205.074999
 30
0.0
 10
85.853036
 20
205.659810
 30
0.0
 10
86.085335
 20
206.220625
 30
0.0
 10
86.498751
 20
206.634158
 30
0.0
  0
SPLINE
  5
145
100
AcDbEntity
  8
Layer_1
 62
1
100
AcDbSpline
 70
8
 71
3
 72
8
 73
4
 74
0
 40
0
 40
0
 40
0
 40
0
 40
1
 40
1
 40
1
 40
1
 10
86.498751
 20
206.634158
 30
0.0
 10
86.912284
 20
207.047575
 30
0.0
 10
87.473099
 20
207.279874
 30
0.0
 10
88.057911
 20
207.279874
 30
0.0
  0
LWPOLYLINE
  5
146
100
AcDbEntity
  8
Layer_1
 62
1
100
AcDbPolyline
 90
2
 70
0
 10
85.853036
 20
171.631710
 30
0.0
 10
85.853036
 20
205.074999
 30
0.0
  0
SPLINE
  5
147
100
AcDbEntity
  8
Layer_1
 62
1
100
AcDbSpline
 70
8
 71
3
 72
8
 73
4
 74
0
 40
0
 40
0
 40
0
 40
0
 40
1
 40
1
 40
1
 40
1
 10
94.815538
 20
207.279874
 30
0.0
 10
95.400271
 20
207.279874
 30
0.0
 10
95.961048
 20
207.047575
 30
0.0
 10
96.374581
 20
206.634158
 30
0.0
  0
SPLINE
  5
148
100
AcDbEntity
  8
Layer_1
 62
1
100
AcDbSpline
 70
8
 71
3
 72
8
 73
4
 74
0
 40
0
 40
0
 40
0
 40
0
 40
1
 40
1
 40
1
 40
1
 10
96.374581
 20
206.634158
 30
0.0
 10
96.787997
 20
206.220625
 30
0.0
 10
97.020296
 20
205.659810
 30
0.0
 10
97.020296
 20
205.074999
 30
0.0
  0
LWPOLYLINE
  5
149
100
AcDbEntity
  8
Layer_1
 62
1
100
AcDbPolyline
 90
2
 70
0
 10
88.057911
 20
207.279874
 30
0.0
 10
94.815538
 20
207.279874
 30
0.0
  0
SPLINE
  5
14a
100
AcDbEntity
  8
Layer_1
 62
1
100
AcDbSpline
 70
8
 71
3
 72
8
 73
4
 74
0
 40
0
 40
0
 40
0
 40
0
 40
1
 40
1
 40
1
 40
1
 10
97.020296
 20
171.631710
 30
0.0
 10
97.020296
 20
170.414060
 30
0.0
 10
96.033152
 20
169.426950
 30
0.0
 10
94.815421
 20
169.426840
 30
0.0
  0
LWPOLYLINE
  5
14b
100
AcDbEntity
  8
Layer_1
 62
1
100
AcDbPolyline
 90
2
 70
0
 10
97.020296
 20
205.074999
 30
0.0
 10
97.020296
 20
171.631710
 30
0.0
  0
SPLINE
  5
14c
100
AcDbEntity
  8
Layer_1
 62
1
100
AcDbSpline
 70
8
 71
3
 72
8
 73
4
 74
0
 40
0
 40
0
 40
0
 40
0
 40
1
 40
1
 40
1
 40
1
 10
120.724530
 20
207.279874
 30
0.0
 10
120.139800
 20
207.279874
 30
0.0
 10
119.578990
 20
207.047575
 30
0.0
 10
119.165450
 20
206.634158
 30
0.0
  0
SPLINE
  5
14d
100
AcDbEntity
  8
Layer_1
 62
1
100
AcDbSpline
 70
8
 71
3
 72
8
 73
4
 74
0
 40
0
 40
0
 40
0
 40
0
 40
1
 40
1
 40
1
 40
1
 10
119.165450
 20
206.634158
 30
0.0
 10
118.752040
 20
206.220625
 30
0.0
 10
118.519780
 20
205.659810
 30
0.0
 10
118.519780
 20
205.075077
 30
0.0
  0
LWPOLYLINE
  5
14e
100
AcDbEntity
  8
Layer_1
 62
1
100
AcDbPolyline
 90
2
 70
0
 10
94.815421
 20
169.426840
 30
0.0
 10
88.057911
 20
169.426840
 30
0.0
  0
SPLINE
  5
14f
100
AcDbEntity
  8
Layer_1
 62
1
100
AcDbSpline
 70
8
 71
3
 72
8
 73
4
 74
0
 40
0
 40
0
 40
0
 40
0
 40
1
 40
1
 40
1
 40
1
 10
118.519780
 20
171.631710
 30
0.0
 10
118.519780
 20
171.046980
 30
0.0
 10
118.752040
 20
170.486160
 30
0.0
 10
119.165450
 20
170.072670
 30
0.0
  0
SPLINE
  5
150
100
AcDbEntity
  8
Layer_1
 62
1
100
AcDbSpline
 70
8
 71
3
 72
8
 73
4
 74
0
 40
0
 40
0
 40
0
 40
0
 40
1
 40
1
 40
1
 40
1
 10
119.165450
 20
170.072670
 30
0.0
 10
119.578990
 20
169.659250
 30
0.0
 10
120.139800
 20
169.426950
 30
0.0
 10
120.724650
 20
169.426950
 30
0.0
  0
LWPOLYLINE
  5
151
100
AcDbEntity
  8
Layer_1
 62
1
100
AcDbPolyline
 90
2
 70
0
 10
118.519780
 20
205.075077
 30
0.0
 10
118.519780
 20
171.631710
 30
0.0
  0
SPLINE
  5
152
100
AcDbEntity
  8
Layer_1
 62
1
100
AcDbSpline
 70
8
 71
3
 72
8
 73
4
 74
0
 40
0
 40
0
 40
0
 40
0
 40
1
 40
1
 40
1
 40
1
 10
127.482120
 20
169.426950
 30
0.0
 10
128.699850
 20
169.426950
 30
0.0
 10
129.687000
 20
170.414060
 30
0.0
 10
129.687000
 20
171.631710
 30
0.0
  0
LWPOLYLINE
  5
153
100
AcDbEntity
  8
Layer_1
 62
1
100
AcDbPolyline
 90
2
 70
0
 10
120.724650
 20
169.426950
 30
0.0
 10
127.482120
 20
169.426950
 30
0.0
  0
SPLINE
  5
154
100
AcDbEntity
  8
Layer_1
 62
1
100
AcDbSpline
 70
8
 71
3
 72
8
 73
4
 74
0
 40
0
 40
0
 40
0
 40
0
 40
1
 40
1
 40
1
 40
1
 10
129.687000
 20
205.075077
 30
0.0
 10
129.687000
 20
205.659810
 30
0.0
 10
129.454700
 20
206.220625
 30
0.0
 10
129.041280
 20
206.634158
 30
0.0
  0
SPLINE
  5
155
100
AcDbEntity
  8
Layer_1
 62
1
100
AcDbSpline
 70
8
 71
3
 72
8
 73
4
 74
0
 40
0
 40
0
 40
0
 40
0
 40
1
 40
1
 40
1
 40
1
 10
129.041280
 20
206.634158
 30
0.0
 10
128.627790
 20
207.047575
 30
0.0
 10
128.066970
 20
207.279874
 30
0.0
 10
127.482120
 20
207.279874
 30
0.0
  0
LWPOLYLINE
  5
156
100
AcDbEntity
  8
Layer_1
 62
1
100
AcDbPolyline
 90
2
 70
0
 10
129.687000
 20
171.631710
 30
0.0
 10
129.687000
 20
205.075077
 30
0.0
  0
SPLINE
  5
157
100
AcDbEntity
  8
Layer_1
 62
1
100
AcDbSpline
 70
8
 71
3
 72
8
 73
4
 74
0
 40
0
 40
0
 40
0
 40
0
 40
1
 40
1
 40
1
 40
1
 10
79.238451
 20
216.099333
 30
0.0
 10
79.238451
 20
215.514599
 30
0.0
 10
79.470711
 20
214.953784
 30
0.0
 10
79.884128
 20
214.540290
 30
0.0
  0
SPLINE
  5
158
100
AcDbEntity
  8
Layer_1
 62
1
100
AcDbSpline
 70
8
 71
3
 72
8
 73
4
 74
0
 40
0
 40
0
 40
0
 40
0
 40
1
 40
1
 40
1
 40
1
 10
79.884128
 20
214.540290
 30
0.0
 10
80.297661
 20
214.126874
 30
0.0
 10
80.858476
 20
213.894575
 30
0.0
 10
81.443326
 20
213.894575
 30
0.0
  0
SPLINE
  5
159
100
AcDbEntity
  8
Layer_1
 62
1
100
AcDbSpline
 70
8
 71
3
 72
8
 73
4
 74
0
 40
0
 40
0
 40
0
 40
0
 40
1
 40
1
 40
1
 40
1
 10
134.096860
 20
213.894575
 30
0.0
 10
135.314480
 20
213.894575
 30
0.0
 10
136.301620
 20
214.881718
 30
0.0
 10
136.301620
 20
216.099333
 30
0.0
  0
LWPOLYLINE
  5
15a
100
AcDbEntity
  8
Layer_1
 62
1
100
AcDbPolyline
 90
2
 70
0
 10
127.482120
 20
207.279874
 30
0.0
 10
120.724530
 20
207.279874
 30
0.0
  0
LWPOLYLINE
  5
15b
100
AcDbEntity
  8
Layer_1
 62
1
100
AcDbPolyline
 90
4
 70
1
 10
84.845864
 20
131.414430
 30
0.0
 10
88.483889
 20
131.414430
 30
0.0
 10
88.483889
 20
128.107130
 30
0.0
 10
84.845864
 20
128.107130
 30
0.0
  0
SPLINE
  5
15c
100
AcDbEntity
  8
Layer_1
 62
1
100
AcDbSpline
 70
8
 71
3
 72
8
 73
4
 74
0
 40
0
 40
0
 40
0
 40
0
 40
1
 40
1
 40
1
 40
1
 10
136.301700
 20
211.689584
 30
0.0
 10
136.301700
 20
212.274434
 30
0.0
 10
136.069320
 20
212.835249
 30
0.0
 10
135.655910
 20
213.248782
 30
0.0
  0
SPLINE
  5
15d
100
AcDbEntity
  8
Layer_1
 62
1
100
AcDbSpline
 70
8
 71
3
 72
8
 73
4
 74
0
 40
0
 40
0
 40
0
 40
0
 40
1
 40
1
 40
1
 40
1
 10
135.655910
 20
213.248782
 30
0.0
 10
135.242370
 20
213.662198
 30
0.0
 10
134.681600
 20
213.894458
 30
0.0
 10
134.096860
 20
213.894458
 30
0.0
  0
LWPOLYLINE
  5
15e
100
AcDbEntity
  8
Layer_1
 62
1
100
AcDbPolyline
 90
4
 70
1
 10
130.694170
 20
131.414430
 30
0.0
 10
127.056140
 20
131.414430
 30
0.0
 10
127.056140
 20
128.107130
 30
0.0
 10
130.694170
 20
128.107130
 30
0.0
  0
SPLINE
  5
15f
100
AcDbEntity
  8
Layer_1
 62
1
100
AcDbSpline
 70
8
 71
3
 72
8
 73
4
 74
0
 40
0
 40
0
 40
0
 40
0
 40
1
 40
1
 40
1
 40
1
 10
114.109910
 20
213.894458
 30
0.0
 10
113.525060
 20
213.894458
 30
0.0
 10
112.964250
 20
213.662198
 30
0.0
 10
112.550750
 20
213.248782
 30
0.0
  0
SPLINE
  5
160
100
AcDbEntity
  8
Layer_1
 62
1
100
AcDbSpline
 70
8
 71
3
 72
8
 73
4
 74
0
 40
0
 40
0
 40
0
 40
0
 40
1
 40
1
 40
1
 40
1
 10
112.550750
 20
213.248782
 30
0.0
 10
112.137340
 20
212.835249
 30
0.0
 10
111.905040
 20
212.274434
 30
0.0
 10
111.905040
 20
211.689584
 30
0.0
  0
LWPOLYLINE
  5
161
100
AcDbEntity
  8
Layer_1
 62
1
100
AcDbPolyline
 90
2
 70
0
 10
134.096860
 20
213.894458
 30
0.0
 10
114.109910
 20
213.894458
 30
0.0
  0
SPLINE
  5
162
100
AcDbEntity
  8
Layer_1
 62
1
100
AcDbSpline
 70
8
 71
3
 72
8
 73
4
 74
0
 40
0
 40
0
 40
0
 40
0
 40
1
 40
1
 40
1
 40
1
 10
111.905040
 20
170.749770
 30
0.0
 10
111.905040
 20
170.398970
 30
0.0
 10
112.044380
 20
170.062520
 30
0.0
 10
112.292430
 20
169.814350
 30
0.0
  0
SPLINE
  5
163
100
AcDbEntity
  8
Layer_1
 62
1
100
AcDbSpline
 70
8
 71
3
 72
8
 73
4
 74
0
 40
0
 40
0
 40
0
 40
0
 40
1
 40
1
 40
1
 40
1
 10
112.292430
 20
169.814350
 30
0.0
 10
112.540600
 20
169.566300
 30
0.0
 10
112.877050
 20
169.426950
 30
0.0
 10
113.228090
 20
169.426840
 30
0.0
  0
LWPOLYLINE
  5
164
100
AcDbEntity
  8
Layer_1
 62
1
100
AcDbPolyline
 90
2
 70
0
 10
111.905040
 20
211.689584
 30
0.0
 10
111.905040
 20
170.749770
 30
0.0
  0
SPLINE
  5
165
100
AcDbEntity
  8
Layer_1
 62
1
100
AcDbSpline
 70
8
 71
3
 72
8
 73
4
 74
0
 40
0
 40
0
 40
0
 40
0
 40
1
 40
1
 40
1
 40
1
 10
114.716810
 20
169.426840
 30
0.0
 10
115.067610
 20
169.426840
 30
0.0
 10
115.404060
 20
169.287490
 30
0.0
 10
115.652230
 20
169.039440
 30
0.0
  0
SPLINE
  5
166
100
AcDbEntity
  8
Layer_1
 62
1
100
AcDbSpline
 70
8
 71
3
 72
8
 73
4
 74
0
 40
0
 40
0
 40
0
 40
0
 40
1
 40
1
 40
1
 40
1
 10
115.652230
 20
169.039440
 30
0.0
 10
115.900280
 20
168.791310
 30
0.0
 10
116.039710
 20
168.454820
 30
0.0
 10
116.039710
 20
168.103910
 30
0.0
  0
LWPOLYLINE
  5
167
100
AcDbEntity
  8
Layer_1
 62
1
100
AcDbPolyline
 90
2
 70
0
 10
113.228090
 20
169.426840
 30
0.0
 10
114.716810
 20
169.426840
 30
0.0
  0
SPLINE
  5
168
100
AcDbEntity
  8
Layer_1
 62
1
100
AcDbSpline
 70
8
 71
3
 72
8
 73
4
 74
0
 40
0
 40
0
 40
0
 40
0
 40
1
 40
1
 40
1
 40
1
 10
99.500444
 20
168.103910
 30
0.0
 10
99.500444
 20
168.454820
 30
0.0
 10
99.639792
 20
168.791310
 30
0.0
 10
99.887842
 20
169.039440
 30
0.0
  0
SPLINE
  5
169
100
AcDbEntity
  8
Layer_1
 62
1
100
AcDbSpline
 70
8
 71
3
 72
8
 73
4
 74
0
 40
0
 40
0
 40
0
 40
0
 40
1
 40
1
 40
1
 40
1
 10
99.887842
 20
169.039440
 30
0.0
 10
100.135970
 20
169.287490
 30
0.0
 10
100.472460
 20
169.426840
 30
0.0
 10
100.823340
 20
169.426840
 30
0.0
  0
LWPOLYLINE
  5
16a
100
AcDbEntity
  8
Layer_1
 62
1
100
AcDbPolyline
 90
8
 70
0
 10
116.039710
 20
168.103910
 30
0.0
 10
116.039710
 20
165.568340
 30
0.0
 10
114.386080
 20
165.568340
 30
0.0
 10
114.386080
 20
162.481520
 30
0.0
 10
101.154070
 20
162.481520
 30
0.0
 10
101.154070
 20
165.568410
 30
0.0
 10
99.500444
 20
165.568410
 30
0.0
 10
99.500444
 20
168.103910
 30
0.0
  0
SPLINE
  5
16b
100
AcDbEntity
  8
Layer_1
 62
1
100
AcDbSpline
 70
8
 71
3
 72
8
 73
4
 74
0
 40
0
 40
0
 40
0
 40
0
 40
1
 40
1
 40
1
 40
1
 10
102.312100
 20
169.426840
 30
0.0
 10
103.042680
 20
169.426950
 30
0.0
 10
103.634880
 20
170.019190
 30
0.0
 10
103.635000
 20
170.749770
 30
0.0
  0
LWPOLYLINE
  5
16c
100
AcDbEntity
  8
Layer_1
 62
1
100
AcDbPolyline
 90
2
 70
0
 10
100.823340
 20
169.426840
 30
0.0
 10
102.312100
 20
169.426840
 30
0.0
  0
SPLINE
  5
16d
100
AcDbEntity
  8
Layer_1
 62
1
100
AcDbSpline
 70
8
 71
3
 72
8
 73
4
 74
0
 40
0
 40
0
 40
0
 40
0
 40
1
 40
1
 40
1
 40
1
 10
103.634880
 20
211.689584
 30
0.0
 10
103.634880
 20
212.274434
 30
0.0
 10
103.402620
 20
212.835249
 30
0.0
 10
102.989200
 20
213.248782
 30
0.0
  0
SPLINE
  5
16e
100
AcDbEntity
  8
Layer_1
 62
1
100
AcDbSpline
 70
8
 71
3
 72
8
 73
4
 74
0
 40
0
 40
0
 40
0
 40
0
 40
1
 40
1
 40
1
 40
1
 10
102.989200
 20
213.248782
 30
0.0
 10
102.575670
 20
213.662198
 30
0.0
 10
102.014860
 20
213.894458
 30
0.0
 10
101.430040
 20
213.894458
 30
0.0
  0
LWPOLYLINE
  5
16f
100
AcDbEntity
  8
Layer_1
 62
1
100
AcDbPolyline
 90
2
 70
0
 10
103.635000
 20
170.749770
 30
0.0
 10
103.634880
 20
211.689584
 30
0.0
  0
SPLINE
  5
170
100
AcDbEntity
  8
Layer_1
 62
1
100
AcDbSpline
 70
8
 71
3
 72
8
 73
4
 74
0
 40
0
 40
0
 40
0
 40
0
 40
1
 40
1
 40
1
 40
1
 10
81.443326
 20
213.894458
 30
0.0
 10
80.858476
 20
213.894458
 30
0.0
 10
80.297661
 20
213.662198
 30
0.0
 10
79.884128
 20
213.248782
 30
0.0
  0
SPLINE
  5
171
100
AcDbEntity
  8
Layer_1
 62
1
100
AcDbSpline
 70
8
 71
3
 72
8
 73
4
 74
0
 40
0
 40
0
 40
0
 40
0
 40
1
 40
1
 40
1
 40
1
 10
79.884128
 20
213.248782
 30
0.0
 10
79.470711
 20
212.835249
 30
0.0
 10
79.238451
 20
212.274434
 30
0.0
 10
79.238451
 20
211.689584
 30
0.0
  0
LWPOLYLINE
  5
172
100
AcDbEntity
  8
Layer_1
 62
1
100
AcDbPolyline
 90
2
 70
0
 10
101.430040
 20
213.894458
 30
0.0
 10
81.443326
 20
213.894458
 30
0.0
  0
LWPOLYLINE
  5
173
100
AcDbEntity
  8
Layer_1
 62
1
100
AcDbPolyline
 90
4
 70
0
 10
84.845864
 20
126.528530
 30
0.0
 10
84.845864
 20
125.646590
 30
0.0
 10
88.483889
 20
125.646590
 30
0.0
 10
88.483889
 20
126.528530
 30
0.0
  0
LWPOLYLINE
  5
174
100
AcDbEntity
  8
Layer_1
 62
1
100
AcDbPolyline
 90
4
 70
0
 10
130.694170
 20
126.528450
 30
0.0
 10
130.694170
 20
125.646470
 30
0.0
 10
127.056140
 20
125.646470
 30
0.0
 10
127.056140
 20
126.528450
 30
0.0
  0
LWPOLYLINE
  5
175
100
AcDbEntity
  8
Layer_1
 62
1
100
AcDbPolyline
 90
9
 70
1
 10
122.449720
 20
186.975290
 30
0.0
 10
122.449720
 20
180.360710
 30
0.0
 10
125.757010
 20
180.360710
 30
0.0
 10
125.757010
 20
186.975290
 30
0.0
 10
126.859470
 20
186.975290
 30
0.0
 10
126.859470
 20
196.346000
 30
0.0
 10
124.103390
 20
193.589920
 30
0.0
 10
121.347300
 20
196.346120
 30
0.0
 10
121.347300
 20
186.975290
 30
0.0
  0
LWPOLYLINE
  5
176
100
AcDbEntity
  8
Layer_1
 62
1
100
AcDbPolyline
 90
4
 70
0
 10
103.635120
 20
184.551020
 30
0.0
 10
101.154190
 20
184.551020
 30
0.0
 10
101.154190
 20
189.511980
 30
0.0
 10
103.635000
 20
189.511980
 30
0.0
  0
LWPOLYLINE
  5
177
100
AcDbEntity
  8
Layer_1
 62
1
100
AcDbPolyline
 90
4
 70
0
 10
111.905150
 20
184.551020
 30
0.0
 10
114.386200
 20
184.551020
 30
0.0
 10
114.386200
 20
189.511980
 30
0.0
 10
111.905150
 20
189.511980
 30
0.0
  0
LWPOLYLINE
  5
178
100
AcDbEntity
  8
Layer_1
 62
1
100
AcDbPolyline
 90
4
 70
0
 10
103.635000
 20
204.973700
 30
0.0
 10
101.154070
 20
204.973700
 30
0.0
 10
101.154070
 20
209.934660
 30
0.0
 10
103.634880
 20
209.934660
 30
0.0
  0
LWPOLYLINE
  5
179
100
AcDbEntity
  8
Layer_1
 62
1
100
AcDbPolyline
 90
4
 70
0
 10
111.905040
 20
204.973700
 30
0.0
 10
114.386080
 20
204.973700
 30
0.0
 10
114.386080
 20
209.934660
 30
0.0
 10
111.905040
 20
209.934660
 30
0.0
  0
LWPOLYLINE
  5
17a
100
AcDbEntity
  8
Layer_1
 62
1
100
AcDbPolyline
 90
4
 70
0
 10
103.635120
 20
174.923050
 30
0.0
 10
101.154190
 20
174.923050
 30
0.0
 10
101.154190
 20
179.884010
 30
0.0
 10
103.635000
 20
179.884010
 30
0.0
  0
LWPOLYLINE
  5
17b
100
AcDbEntity
  8
Layer_1
 62
1
100
AcDbPolyline
 90
4
 70
0
 10
111.905150
 20
174.923050
 30
0.0
 10
114.386200
 20
174.923050
 30
0.0
 10
114.386200
 20
179.884010
 30
0.0
 10
111.905150
 20
179.884010
 30
0.0
  0
LWPOLYLINE
  5
17c
100
AcDbEntity
  8
Layer_1
 62
1
100
AcDbPolyline
 90
4
 70
0
 10
103.635120
 20
194.762360
 30
0.0
 10
101.154190
 20
194.762360
 30
0.0
 10
101.154190
 20
199.723320
 30
0.0
 10
103.635000
 20
199.723320
 30
0.0
  0
LWPOLYLINE
  5
17d
100
AcDbEntity
  8
Layer_1
 62
1
100
AcDbPolyline
 90
4
 70
0
 10
111.905150
 20
194.762360
 30
0.0
 10
114.386200
 20
194.762360
 30
0.0
 10
114.386200
 20
199.723320
 30
0.0
 10
111.905150
 20
199.723320
 30
0.0
  0
ENDSEC
  0
SECTION
  2
OBJECTS
  0
DICTIONARY
  5
C
330
0
100
AcDbDictionary
  3
ACAD_GROUP
350
D
  3
ACAD_MLINESTYLE
350
17
  0
DICTIONARY
  5
D
330
C
100
AcDbDictionary
  0
DICTIONARY
  5
1A
330
C
100
AcDbDictionary
  0
DICTIONARY
  5
17
330
C
100
AcDbDictionary
  3
STANDARD
350
18
  0
DICTIONARY
  5
19
330
C
100
AcDbDictionary
  0
ENDSEC
  0
EOF
