0
SECTION
2
HEADER
9
$ANGDIR
70
0
9
$CHAMFERA
40
10
9
$CHAMFERB
40
10
9
$CLAYER
8
Layer_1
9
$EXTMAX
10
68.326370317572284
20
204.26248278609239
9
$EXTMIN
10
4.562670317572227
20
99.407382786092256
9
$LIMMAX
10
297
20
210
9
$LIMMIN
10
0
20
0
9
$LTSCALE
40
10
9
$PLINEGEN
70
0
9
$TEXTSIZE
40
20
9
$GRIDUNIT
10
10
20
10
9
$SNAPUNIT
10
1
20
1
0
ENDSEC
0
SECTION
2
TABLES
0
TABLE
2
STYLE
70
1
0
STYLE
2
STANDARD
70
0
40
0
41
1
50
0
71
0
42
0.20000000000000001
3
txt
4

0
ENDTAB
0
TABLE
2
LTYPE
70
14
0
LTYPE
2
CONTINUOUS
70
0
3
Solid line
72
65
73
0
40
0
0
LTYPE
2
DOT
70
0
3
............................................
72
65
73
2
40
0.25
49
0
49
-0.25
0
LTYPE
2
HIDDEN
70
0
3
_ _ _ _ _ _ _ _ _ _ _ _ _ _ _ _ _ _ _ _ _ _ 
72
65
73
2
40
0.375
49
0.25
49
-0.125
0
LTYPE
2
TSLONGDASH
70
0
3
__ __ __ __ __ __ __ __ __ __ __ __ __ __ _ 
72
65
73
2
40
1.28
49
1
49
-0.28000000000000003
0
LTYPE
2
TSDASHDOT
70
0
3
______ . ______ . ______ . ______ . ______ .
72
65
73
4
40
1.28
49
1
49
-0.14000000000000001
49
0
49
-0.14000000000000001
0
LTYPE
2
TSCENTER
70
0
3
______ _ ______ _ ______ _ ______ _ ______ _
72
65
73
4
40
2
49
1.5
49
-0.17999999999999999
49
0.14000000000000001
49
-0.17999999999999999
0
LTYPE
2
TSPHANTOM
70
0
3
_____ _ _ _____ _ _ _____ _ _ _____ _ _ ____
72
65
73
6
40
2.5
49
1.6299999999999999
49
-0.19
49
0.14999999999999999
49
-0.19
49
0.14999999999999999
49
-0.19
0
LTYPE
2
DASHED
70
0
3
__ __ __ __ __ __ __ __ __ __ __ __ __ __ __
72
65
73
2
40
0.75
49
0.5
49
-0.25
0
LTYPE
2
CENTER
70
0
3
____ _ ____ _ ____ _ ____ _ ____ _ ____ _ __
72
65
73
4
40
2
49
1.25
49
-0.25
49
0.25
49
-0.25
0
LTYPE
2
PHANTOM
70
0
3
_____ _ _ _____ _ _ _____ _ _ _____ _ _ ____
72
65
73
6
40
2.5
49
1.25
49
-0.25
49
0.25
49
-0.25
49
0.25
49
-0.25
0
LTYPE
2
DASHDOT
70
0
3
__ . __ . __ . __ . __ . __ . __ . __ . __ .
72
65
73
4
40
1
49
0.5
49
-0.25
49
0
49
-0.25
0
LTYPE
2
BORDER
70
0
3
__ __ . __ __ . __ __ . __ __ . __ __ . __ _
72
65
73
6
40
1.75
49
0.5
49
-0.25
49
0.5
49
-0.25
49
0
49
-0.25
0
LTYPE
2
DIVIDE
70
0
3
__ . . __ . . __ . . __ . . __ . . __ . . __
72
65
73
6
40
1.25
49
0.5
49
-0.25
49
0
49
-0.25
49
0
49
-0.25
0
ENDTAB
0
TABLE
2
LAYER
70
4
0
LAYER
2
Layer_1
70
0
62
7
6
CONTINUOUS
0
LAYER
2
Layer_2
70
0
62
7
6
CONTINUOUS
0
LAYER
2
Layer_3
70
0
62
7
6
CONTINUOUS
0
LAYER
2
0
70
0
62
7
6
CONTINUOUS
0
ENDTAB
0
ENDSEC
0
SECTION
2
ENTITIES
0
POLYLINE
8
0
6
CONTINUOUS
62
1
66
1
10
0
20
0
70
129
40
0
41
0
0
VERTEX
8
0
6
CONTINUOUS
62
1
10
24.865770317572228
20
135.55038278609226
0
VERTEX
8
0
6
CONTINUOUS
62
1
10
48.02317031757228
20
135.55038278609226
0
VERTEX
8
0
6
CONTINUOUS
62
1
10
48.19037031757226
20
135.61618278609225
0
VERTEX
8
0
6
CONTINUOUS
62
1
10
48.259470317572251
20
135.77448278609225
0
VERTEX
8
0
6
CONTINUOUS
62
1
10
48.259470317572251
20
135.89538278609226
0
VERTEX
8
0
6
CONTINUOUS
62
1
10
48.190170317572253
20
136.05388278609226
0
VERTEX
8
0
6
CONTINUOUS
62
1
10
48.02317031757228
20
136.11948278609225
0
VERTEX
8
0
6
CONTINUOUS
62
1
10
24.865770317572228
20
136.11948278609225
0
VERTEX
8
0
6
CONTINUOUS
62
1
10
24.698670317572223
20
136.05368278609225
0
VERTEX
8
0
6
CONTINUOUS
62
1
10
24.629570317572288
20
135.89538278609226
0
VERTEX
8
0
6
CONTINUOUS
62
1
10
24.629570317572288
20
135.77448278609225
0
VERTEX
8
0
6
CONTINUOUS
62
1
10
24.698870317572286
20
135.61598278609225
0
VERTEX
8
0
6
CONTINUOUS
62
1
10
24.865770317572228
20
135.55038278609226
0
SEQEND
0
POLYLINE
8
0
6
CONTINUOUS
62
1
66
1
10
0
20
0
70
129
40
0
41
0
0
VERTEX
8
0
6
CONTINUOUS
62
1
10
24.865770317572228
20
193.87748278609229
0
VERTEX
8
0
6
CONTINUOUS
62
1
10
48.02317031757228
20
193.87748278609229
0
VERTEX
8
0
6
CONTINUOUS
62
1
10
48.190270317572285
20
193.81188278609227
0
VERTEX
8
0
6
CONTINUOUS
62
1
10
48.259470317572251
20
193.65338278609227
0
VERTEX
8
0
6
CONTINUOUS
62
1
10
48.259570317572283
20
193.53248278609226
0
VERTEX
8
0
6
CONTINUOUS
62
1
10
48.190470317572235
20
193.37408278609234
0
VERTEX
8
0
6
CONTINUOUS
62
1
10
48.02337031757223
20
193.30838278609235
0
VERTEX
8
0
6
CONTINUOUS
62
1
10
24.865770317572228
20
193.30838278609235
0
VERTEX
8
0
6
CONTINUOUS
62
1
10
24.698770317572254
20
193.37398278609226
0
VERTEX
8
0
6
CONTINUOUS
62
1
10
24.629570317572288
20
193.53248278609226
0
VERTEX
8
0
6
CONTINUOUS
62
1
10
24.629570317572288
20
193.65338278609227
0
VERTEX
8
0
6
CONTINUOUS
62
1
10
24.698570317572248
20
193.81178278609229
0
VERTEX
8
0
6
CONTINUOUS
62
1
10
24.865770317572228
20
193.87748278609229
0
SEQEND
0
POLYLINE
8
0
6
CONTINUOUS
62
1
66
1
10
0
20
0
70
129
40
0
41
0
0
VERTEX
8
0
6
CONTINUOUS
62
1
10
60.8247703178926
20
118.83668278390311
0
VERTEX
8
0
6
CONTINUOUS
62
1
10
60.824770317903457
20
118.9576827839031
0
VERTEX
8
0
6
CONTINUOUS
62
1
10
60.755370317917695
20
119.11618278390935
0
VERTEX
8
0
6
CONTINUOUS
62
1
10
60.588470317923608
20
119.18168278392434
0
VERTEX
8
0
6
CONTINUOUS
62
1
10
37.430970317923581
20
119.18168278600373
0
VERTEX
8
0
6
CONTINUOUS
62
1
10
37.26377031791769
20
119.11588278601872
0
VERTEX
8
0
6
CONTINUOUS
62
1
10
37.19467031790343
20
118.95768278602492
0
VERTEX
8
0
6
CONTINUOUS
62
1
10
37.194670317892573
20
118.83668278602494
0
VERTEX
8
0
6
CONTINUOUS
62
1
10
37.264070317878392
20
118.67818278601871
0
VERTEX
8
0
6
CONTINUOUS
62
1
10
37.430970317872479
20
118.61268278600372
0
VERTEX
8
0
6
CONTINUOUS
62
1
10
60.588470317872506
20
118.61268278392433
0
VERTEX
8
0
6
CONTINUOUS
62
1
10
60.755670317878398
20
118.67838278390931
0
VERTEX
8
0
6
CONTINUOUS
62
1
10
60.8247703178926
20
118.83668278390311
0
SEQEND
0
POLYLINE
8
0
6
CONTINUOUS
62
1
66
1
10
0
20
0
70
129
40
0
41
0
0
VERTEX
8
0
6
CONTINUOUS
62
1
10
12.064270317572252
20
191.96758278609229
0
VERTEX
8
0
6
CONTINUOUS
62
1
10
12.064270317572252
20
192.08858278609227
0
VERTEX
8
0
6
CONTINUOUS
62
1
10
12.133370317572243
20
192.2469827860923
0
VERTEX
8
0
6
CONTINUOUS
62
1
10
12.300570317572223
20
192.31258278609232
0
VERTEX
8
0
6
CONTINUOUS
62
1
10
35.45807031757225
20
192.31258278609232
0
VERTEX
8
0
6
CONTINUOUS
62
1
10
35.625170317572255
20
192.24708278609228
0
VERTEX
8
0
6
CONTINUOUS
62
1
10
35.694370317572279
20
192.08858278609227
0
VERTEX
8
0
6
CONTINUOUS
62
1
10
35.694370317572279
20
191.96758278609229
0
VERTEX
8
0
6
CONTINUOUS
62
1
10
35.62527031757223
20
191.80918278609226
0
VERTEX
8
0
6
CONTINUOUS
62
1
10
35.45807031757225
20
191.74358278609225
0
VERTEX
8
0
6
CONTINUOUS
62
1
10
12.300570317572223
20
191.74358278609225
0
VERTEX
8
0
6
CONTINUOUS
62
1
10
12.13357031757225
20
191.80908278609229
0
VERTEX
8
0
6
CONTINUOUS
62
1
10
12.064270317572252
20
191.96758278609229
0
SEQEND
0
LINE
8
0
6
CONTINUOUS
62
1
10
10.56397031757227
20
126.16108278609229
11
10.56397031757227
21
197.00718278609236
0
POLYLINE
8
0
6
CONTINUOUS
62
1
66
1
10
0
20
0
70
129
40
0
41
0
0
VERTEX
8
0
6
CONTINUOUS
62
1
10
12.064270317572252
20
131.20078278609228
0
VERTEX
8
0
6
CONTINUOUS
62
1
10
12.064270317572252
20
131.07978278609224
0
VERTEX
8
0
6
CONTINUOUS
62
1
10
12.133670317572282
20
130.92128278609223
0
VERTEX
8
0
6
CONTINUOUS
62
1
10
12.300570317572223
20
130.85578278609225
0
VERTEX
8
0
6
CONTINUOUS
62
1
10
35.45807031757225
20
130.85578278609225
0
VERTEX
8
0
6
CONTINUOUS
62
1
10
35.62527031757223
20
130.92158278609227
0
VERTEX
8
0
6
CONTINUOUS
62
1
10
35.694370317572279
20
131.07978278609224
0
VERTEX
8
0
6
CONTINUOUS
62
1
10
35.694370317572279
20
131.20078278609228
0
VERTEX
8
0
6
CONTINUOUS
62
1
10
35.624970317572249
20
131.35928278609225
0
VERTEX
8
0
6
CONTINUOUS
62
1
10
35.45807031757225
20
131.42488278609224
0
VERTEX
8
0
6
CONTINUOUS
62
1
10
12.300570317572223
20
131.42488278609224
0
VERTEX
8
0
6
CONTINUOUS
62
1
10
12.133370317572243
20
131.35908278609227
0
VERTEX
8
0
6
CONTINUOUS
62
1
10
12.064270317572252
20
131.20078278609228
0
SEQEND
0
POLYLINE
8
0
6
CONTINUOUS
62
1
66
1
10
0
20
0
70
129
40
0
41
0
0
VERTEX
8
0
6
CONTINUOUS
62
1
10
12.064270317330497
20
112.57718278828148
0
VERTEX
8
0
6
CONTINUOUS
62
1
10
12.064270317341354
20
112.69818278828146
0
VERTEX
8
0
6
CONTINUOUS
62
1
10
12.13337031735567
20
112.85658278827529
0
VERTEX
8
0
6
CONTINUOUS
62
1
10
12.300570317361505
20
112.92218278826024
0
VERTEX
8
0
6
CONTINUOUS
62
1
10
35.458070317361532
20
112.92218278618085
0
VERTEX
8
0
6
CONTINUOUS
62
1
10
35.625170317355682
20
112.85668278616586
0
VERTEX
8
0
6
CONTINUOUS
62
1
10
35.694370317341381
20
112.69818278615963
0
VERTEX
8
0
6
CONTINUOUS
62
1
10
35.694370317330524
20
112.57718278615965
0
VERTEX
8
0
6
CONTINUOUS
62
1
10
35.625270317316321
20
112.41878278616585
0
VERTEX
8
0
6
CONTINUOUS
62
1
10
35.45807031731043
20
112.35318278618089
0
VERTEX
8
0
6
CONTINUOUS
62
1
10
12.300570317310402
20
112.35318278826028
0
VERTEX
8
0
6
CONTINUOUS
62
1
10
12.133570317316284
20
112.41868278827525
0
VERTEX
8
0
6
CONTINUOUS
62
1
10
12.064270317330497
20
112.57718278828148
0
SEQEND
0
POLYLINE
8
0
6
CONTINUOUS
62
1
66
1
10
0
20
0
70
129
40
0
41
0
0
VERTEX
8
0
6
CONTINUOUS
62
1
10
12.064270317572252
20
134.33058278609226
0
VERTEX
8
0
6
CONTINUOUS
62
1
10
12.064270317572252
20
134.20958278609226
0
VERTEX
8
0
6
CONTINUOUS
62
1
10
12.133670317572282
20
134.05108278609225
0
VERTEX
8
0
6
CONTINUOUS
62
1
10
12.300570317572223
20
133.98558278609224
0
VERTEX
8
0
6
CONTINUOUS
62
1
10
35.45807031757225
20
133.98558278609224
0
VERTEX
8
0
6
CONTINUOUS
62
1
10
35.62527031757223
20
134.05128278609226
0
VERTEX
8
0
6
CONTINUOUS
62
1
10
35.694370317572279
20
134.20958278609226
0
VERTEX
8
0
6
CONTINUOUS
62
1
10
35.694370317572279
20
134.33058278609226
0
VERTEX
8
0
6
CONTINUOUS
62
1
10
35.624970317572249
20
134.48908278609227
0
VERTEX
8
0
6
CONTINUOUS
62
1
10
35.45807031757225
20
134.55458278609225
0
VERTEX
8
0
6
CONTINUOUS
62
1
10
12.300570317572223
20
134.55458278609225
0
VERTEX
8
0
6
CONTINUOUS
62
1
10
12.133370317572243
20
134.48878278609226
0
VERTEX
8
0
6
CONTINUOUS
62
1
10
12.064270317572252
20
134.33058278609226
0
SEQEND
0
POLYLINE
8
0
6
CONTINUOUS
62
1
66
1
10
0
20
0
70
129
40
0
41
0
0
VERTEX
8
0
6
CONTINUOUS
62
1
10
60.824770317611566
20
115.7068827839031
0
VERTEX
8
0
6
CONTINUOUS
62
1
10
60.824770317622423
20
115.82788278390311
0
VERTEX
8
0
6
CONTINUOUS
62
1
10
60.755370317636661
20
115.98638278390936
0
VERTEX
8
0
6
CONTINUOUS
62
1
10
60.588470317642575
20
116.05198278392433
0
VERTEX
8
0
6
CONTINUOUS
62
1
10
37.430970317642547
20
116.05198278600372
0
VERTEX
8
0
6
CONTINUOUS
62
1
10
37.263770317636656
20
115.9861827860187
0
VERTEX
8
0
6
CONTINUOUS
62
1
10
37.194670317622396
20
115.82788278602493
0
VERTEX
8
0
6
CONTINUOUS
62
1
10
37.194670317611539
20
115.70688278602492
0
VERTEX
8
0
6
CONTINUOUS
62
1
10
37.264070317597358
20
115.54838278601872
0
VERTEX
8
0
6
CONTINUOUS
62
1
10
37.430970317591445
20
115.48288278600373
0
VERTEX
8
0
6
CONTINUOUS
62
1
10
60.588470317591472
20
115.48288278392434
0
VERTEX
8
0
6
CONTINUOUS
62
1
10
60.755670317597364
20
115.5486827839093
0
VERTEX
8
0
6
CONTINUOUS
62
1
10
60.824770317611566
20
115.7068827839031
0
SEQEND
0
POLYLINE
8
0
6
CONTINUOUS
62
1
66
1
10
0
20
0
70
129
40
0
41
0
0
VERTEX
8
0
6
CONTINUOUS
62
1
10
12.06427031761153
20
115.70688278828146
0
VERTEX
8
0
6
CONTINUOUS
62
1
10
12.064270317622388
20
115.82788278828147
0
VERTEX
8
0
6
CONTINUOUS
62
1
10
12.133370317636704
20
115.98628278827525
0
VERTEX
8
0
6
CONTINUOUS
62
1
10
12.300570317642538
20
116.05198278826023
0
VERTEX
8
0
6
CONTINUOUS
62
1
10
35.458070317642566
20
116.05198278618084
0
VERTEX
8
0
6
CONTINUOUS
62
1
10
35.625170317636716
20
115.98638278616588
0
VERTEX
8
0
6
CONTINUOUS
62
1
10
35.694370317622415
20
115.82788278615965
0
VERTEX
8
0
6
CONTINUOUS
62
1
10
35.694370317611558
20
115.70688278615964
0
VERTEX
8
0
6
CONTINUOUS
62
1
10
35.625270317597355
20
115.54858278616584
0
VERTEX
8
0
6
CONTINUOUS
62
1
10
35.458070317591464
20
115.48288278618085
0
VERTEX
8
0
6
CONTINUOUS
62
1
10
12.300570317591436
20
115.48288278826024
0
VERTEX
8
0
6
CONTINUOUS
62
1
10
12.133570317597318
20
115.54838278827526
0
VERTEX
8
0
6
CONTINUOUS
62
1
10
12.06427031761153
20
115.70688278828146
0
SEQEND
0
POLYLINE
8
0
6
CONTINUOUS
62
1
66
1
10
0
20
0
70
129
40
0
41
0
0
VERTEX
8
0
6
CONTINUOUS
62
1
10
60.824770317572288
20
195.09728278609225
0
VERTEX
8
0
6
CONTINUOUS
62
1
10
60.824770317572288
20
195.21828278609235
0
VERTEX
8
0
6
CONTINUOUS
62
1
10
60.755370317572257
20
195.37678278609235
0
VERTEX
8
0
6
CONTINUOUS
62
1
10
60.588470317572259
20
195.44228278609228
0
VERTEX
8
0
6
CONTINUOUS
62
1
10
37.430970317572232
20
195.44228278609228
0
VERTEX
8
0
6
CONTINUOUS
62
1
10
37.263770317572252
20
195.37658278609229
0
VERTEX
8
0
6
CONTINUOUS
62
1
10
37.19467031757226
20
195.21828278609235
0
VERTEX
8
0
6
CONTINUOUS
62
1
10
37.19467031757226
20
195.09728278609225
0
VERTEX
8
0
6
CONTINUOUS
62
1
10
37.26407031757229
20
194.93878278609225
0
VERTEX
8
0
6
CONTINUOUS
62
1
10
37.430970317572232
20
194.87328278609232
0
VERTEX
8
0
6
CONTINUOUS
62
1
10
60.588470317572259
20
194.87328278609232
0
VERTEX
8
0
6
CONTINUOUS
62
1
10
60.755670317572239
20
194.93908278609229
0
VERTEX
8
0
6
CONTINUOUS
62
1
10
60.824770317572288
20
195.09728278609225
0
SEQEND
0
POLYLINE
8
0
6
CONTINUOUS
62
1
66
1
10
0
20
0
70
129
40
0
41
0
0
VERTEX
8
0
6
CONTINUOUS
62
1
10
60.824770317330533
20
112.57718278390311
0
VERTEX
8
0
6
CONTINUOUS
62
1
10
60.82477031734139
20
112.69818278390309
0
VERTEX
8
0
6
CONTINUOUS
62
1
10
60.755370317355627
20
112.85668278390935
0
VERTEX
8
0
6
CONTINUOUS
62
1
10
60.588470317361541
20
112.92218278392434
0
VERTEX
8
0
6
CONTINUOUS
62
1
10
37.430970317361513
20
112.92218278600373
0
VERTEX
8
0
6
CONTINUOUS
62
1
10
37.263770317355679
20
112.85648278601869
0
VERTEX
8
0
6
CONTINUOUS
62
1
10
37.194670317341362
20
112.69818278602492
0
VERTEX
8
0
6
CONTINUOUS
62
1
10
37.194670317330505
20
112.57718278602493
0
VERTEX
8
0
6
CONTINUOUS
62
1
10
37.264070317316325
20
112.41868278601871
0
VERTEX
8
0
6
CONTINUOUS
62
1
10
37.430970317310411
20
112.35318278600371
0
VERTEX
8
0
6
CONTINUOUS
62
1
10
60.588470317310438
20
112.35318278392432
0
VERTEX
8
0
6
CONTINUOUS
62
1
10
60.75567031731633
20
112.41888278390931
0
VERTEX
8
0
6
CONTINUOUS
62
1
10
60.824770317330533
20
112.57718278390311
0
SEQEND
0
POLYLINE
8
0
6
CONTINUOUS
62
1
66
1
10
0
20
0
70
129
40
0
41
0
0
VERTEX
8
0
6
CONTINUOUS
62
1
10
24.865770317572228
20
132.98968278609226
0
VERTEX
8
0
6
CONTINUOUS
62
1
10
48.02317031757228
20
132.98968278609226
0
VERTEX
8
0
6
CONTINUOUS
62
1
10
48.190270317572285
20
132.92418278609225
0
VERTEX
8
0
6
CONTINUOUS
62
1
10
48.259470317572251
20
132.76568278609224
0
VERTEX
8
0
6
CONTINUOUS
62
1
10
48.259470317572251
20
132.64468278609226
0
VERTEX
8
0
6
CONTINUOUS
62
1
10
48.190470317572235
20
132.48628278609226
0
VERTEX
8
0
6
CONTINUOUS
62
1
10
48.02317031757228
20
132.42068278609227
0
VERTEX
8
0
6
CONTINUOUS
62
1
10
24.865770317572228
20
132.42068278609227
0
VERTEX
8
0
6
CONTINUOUS
62
1
10
24.698770317572254
20
132.48618278609226
0
VERTEX
8
0
6
CONTINUOUS
62
1
10
24.629570317572288
20
132.64468278609226
0
VERTEX
8
0
6
CONTINUOUS
62
1
10
24.629570317572288
20
132.76568278609224
0
VERTEX
8
0
6
CONTINUOUS
62
1
10
24.698570317572248
20
132.92408278609227
0
VERTEX
8
0
6
CONTINUOUS
62
1
10
24.865770317572228
20
132.98968278609226
0
SEQEND
0
LINE
8
0
6
CONTINUOUS
62
1
10
62.325070317572269
20
126.16108278609229
11
62.325070317572269
21
197.00718278609236
0
POLYLINE
8
0
6
CONTINUOUS
62
1
66
1
10
0
20
0
70
129
40
0
41
0
0
VERTEX
8
0
6
CONTINUOUS
62
1
10
60.824770317572288
20
134.33058278609226
0
VERTEX
8
0
6
CONTINUOUS
62
1
10
60.824770317572288
20
134.20958278609226
0
VERTEX
8
0
6
CONTINUOUS
62
1
10
60.755670317572239
20
134.05118278609226
0
VERTEX
8
0
6
CONTINUOUS
62
1
10
60.588470317572259
20
133.98558278609224
0
VERTEX
8
0
6
CONTINUOUS
62
1
10
37.430970317572232
20
133.98558278609224
0
VERTEX
8
0
6
CONTINUOUS
62
1
10
37.263870317572227
20
134.05108278609225
0
VERTEX
8
0
6
CONTINUOUS
62
1
10
37.19467031757226
20
134.20958278609226
0
VERTEX
8
0
6
CONTINUOUS
62
1
10
37.19467031757226
20
134.33058278609226
0
VERTEX
8
0
6
CONTINUOUS
62
1
10
37.263770317572252
20
134.48898278609224
0
VERTEX
8
0
6
CONTINUOUS
62
1
10
37.430970317572232
20
134.55458278609225
0
VERTEX
8
0
6
CONTINUOUS
62
1
10
60.588470317572259
20
134.55458278609225
0
VERTEX
8
0
6
CONTINUOUS
62
1
10
60.755470317572289
20
134.48908278609227
0
VERTEX
8
0
6
CONTINUOUS
62
1
10
60.824770317572288
20
134.33058278609226
0
SEQEND
0
POLYLINE
8
0
6
CONTINUOUS
62
1
66
1
10
0
20
0
70
129
40
0
41
0
0
VERTEX
8
0
6
CONTINUOUS
62
1
10
12.064270317572252
20
195.09728278609225
0
VERTEX
8
0
6
CONTINUOUS
62
1
10
12.064270317572252
20
195.21828278609235
0
VERTEX
8
0
6
CONTINUOUS
62
1
10
12.133370317572243
20
195.37668278609226
0
VERTEX
8
0
6
CONTINUOUS
62
1
10
12.300570317572223
20
195.44228278609228
0
VERTEX
8
0
6
CONTINUOUS
62
1
10
35.45807031757225
20
195.44228278609228
0
VERTEX
8
0
6
CONTINUOUS
62
1
10
35.625170317572255
20
195.37678278609235
0
VERTEX
8
0
6
CONTINUOUS
62
1
10
35.694370317572279
20
195.21828278609235
0
VERTEX
8
0
6
CONTINUOUS
62
1
10
35.694370317572279
20
195.09728278609225
0
VERTEX
8
0
6
CONTINUOUS
62
1
10
35.62527031757223
20
194.93888278609234
0
VERTEX
8
0
6
CONTINUOUS
62
1
10
35.45807031757225
20
194.87328278609232
0
VERTEX
8
0
6
CONTINUOUS
62
1
10
12.300570317572223
20
194.87328278609232
0
VERTEX
8
0
6
CONTINUOUS
62
1
10
12.13357031757225
20
194.93878278609225
0
VERTEX
8
0
6
CONTINUOUS
62
1
10
12.064270317572252
20
195.09728278609225
0
SEQEND
0
POLYLINE
8
0
6
CONTINUOUS
62
1
66
1
10
0
20
0
70
129
40
0
41
0
0
VERTEX
8
0
6
CONTINUOUS
62
1
10
12.064270318173598
20
121.96638278828146
0
VERTEX
8
0
6
CONTINUOUS
62
1
10
12.064270318184455
20
122.08738278828147
0
VERTEX
8
0
6
CONTINUOUS
62
1
10
12.133370318198715
20
122.24578278827525
0
VERTEX
8
0
6
CONTINUOUS
62
1
10
12.300570318204606
20
122.31138278826026
0
VERTEX
8
0
6
CONTINUOUS
62
1
10
35.458070318204634
20
122.31138278618087
0
VERTEX
8
0
6
CONTINUOUS
62
1
10
35.625170318198784
20
122.24588278616588
0
VERTEX
8
0
6
CONTINUOUS
62
1
10
35.694370318184482
20
122.08738278615965
0
VERTEX
8
0
6
CONTINUOUS
62
1
10
35.694370318173625
20
121.96638278615964
0
VERTEX
8
0
6
CONTINUOUS
62
1
10
35.625270318159423
20
121.80798278616587
0
VERTEX
8
0
6
CONTINUOUS
62
1
10
35.458070318153531
20
121.74238278618085
0
VERTEX
8
0
6
CONTINUOUS
62
1
10
12.300570318153504
20
121.74238278826024
0
VERTEX
8
0
6
CONTINUOUS
62
1
10
12.133570318159386
20
121.80788278827524
0
VERTEX
8
0
6
CONTINUOUS
62
1
10
12.064270318173598
20
121.96638278828146
0
SEQEND
0
POLYLINE
8
0
6
CONTINUOUS
62
1
66
1
10
0
20
0
70
129
40
0
41
0
0
VERTEX
8
0
6
CONTINUOUS
62
1
10
60.824770317572288
20
131.20078278609228
0
VERTEX
8
0
6
CONTINUOUS
62
1
10
60.824770317572288
20
131.07978278609224
0
VERTEX
8
0
6
CONTINUOUS
62
1
10
60.755670317572239
20
130.92148278609224
0
VERTEX
8
0
6
CONTINUOUS
62
1
10
60.588470317572259
20
130.85578278609225
0
VERTEX
8
0
6
CONTINUOUS
62
1
10
37.430970317572232
20
130.85578278609225
0
VERTEX
8
0
6
CONTINUOUS
62
1
10
37.263870317572227
20
130.92128278609223
0
VERTEX
8
0
6
CONTINUOUS
62
1
10
37.19467031757226
20
131.07978278609224
0
VERTEX
8
0
6
CONTINUOUS
62
1
10
37.19467031757226
20
131.20078278609228
0
VERTEX
8
0
6
CONTINUOUS
62
1
10
37.263770317572252
20
131.35918278609225
0
VERTEX
8
0
6
CONTINUOUS
62
1
10
37.430970317572232
20
131.42488278609224
0
VERTEX
8
0
6
CONTINUOUS
62
1
10
60.588470317572259
20
131.42488278609224
0
VERTEX
8
0
6
CONTINUOUS
62
1
10
60.755470317572289
20
131.35928278609225
0
VERTEX
8
0
6
CONTINUOUS
62
1
10
60.824770317572288
20
131.20078278609228
0
SEQEND
0
POLYLINE
8
0
6
CONTINUOUS
62
1
66
1
10
0
20
0
70
129
40
0
41
0
0
VERTEX
8
0
6
CONTINUOUS
62
1
10
12.064270317892564
20
118.83668278828148
0
VERTEX
8
0
6
CONTINUOUS
62
1
10
12.064270317903421
20
118.95768278828146
0
VERTEX
8
0
6
CONTINUOUS
62
1
10
12.133370317917738
20
119.11608278827529
0
VERTEX
8
0
6
CONTINUOUS
62
1
10
12.300570317923572
20
119.18168278826025
0
VERTEX
8
0
6
CONTINUOUS
62
1
10
35.4580703179236
20
119.18168278618086
0
VERTEX
8
0
6
CONTINUOUS
62
1
10
35.62517031791775
20
119.11618278616587
0
VERTEX
8
0
6
CONTINUOUS
62
1
10
35.694370317903449
20
118.95768278615964
0
VERTEX
8
0
6
CONTINUOUS
62
1
10
35.694370317892592
20
118.83668278615966
0
VERTEX
8
0
6
CONTINUOUS
62
1
10
35.625270317878389
20
118.67828278616585
0
VERTEX
8
0
6
CONTINUOUS
62
1
10
35.458070317872497
20
118.61268278618084
0
VERTEX
8
0
6
CONTINUOUS
62
1
10
12.30057031787247
20
118.61268278826023
0
VERTEX
8
0
6
CONTINUOUS
62
1
10
12.133570317878352
20
118.67818278827525
0
VERTEX
8
0
6
CONTINUOUS
62
1
10
12.064270317892564
20
118.83668278828148
0
SEQEND
0
POLYLINE
8
0
6
CONTINUOUS
62
1
66
1
10
0
20
0
70
129
40
0
41
0
0
VERTEX
8
0
6
CONTINUOUS
62
1
10
60.824770318173634
20
121.9663827839031
0
VERTEX
8
0
6
CONTINUOUS
62
1
10
60.824770318184491
20
122.08738278390311
0
VERTEX
8
0
6
CONTINUOUS
62
1
10
60.755370318198729
20
122.24588278390937
0
VERTEX
8
0
6
CONTINUOUS
62
1
10
60.588470318204642
20
122.3113827839243
0
VERTEX
8
0
6
CONTINUOUS
62
1
10
37.430970318204615
20
122.31138278600369
0
VERTEX
8
0
6
CONTINUOUS
62
1
10
37.263770318198723
20
122.2456827860187
0
VERTEX
8
0
6
CONTINUOUS
62
1
10
37.194670318184464
20
122.08738278602493
0
VERTEX
8
0
6
CONTINUOUS
62
1
10
37.194670318173607
20
121.96638278602492
0
VERTEX
8
0
6
CONTINUOUS
62
1
10
37.264070318159426
20
121.80788278601869
0
VERTEX
8
0
6
CONTINUOUS
62
1
10
37.430970318153513
20
121.74238278600373
0
VERTEX
8
0
6
CONTINUOUS
62
1
10
60.58847031815354
20
121.74238278392434
0
VERTEX
8
0
6
CONTINUOUS
62
1
10
60.755670318159432
20
121.8081827839093
0
VERTEX
8
0
6
CONTINUOUS
62
1
10
60.824770318173634
20
121.9663827839031
0
SEQEND
0
POLYLINE
8
0
6
CONTINUOUS
62
1
66
1
10
0
20
0
70
129
40
0
41
0
0
VERTEX
8
0
6
CONTINUOUS
62
1
10
60.824770317572288
20
191.96758278609229
0
VERTEX
8
0
6
CONTINUOUS
62
1
10
60.824770317572288
20
192.08858278609227
0
VERTEX
8
0
6
CONTINUOUS
62
1
10
60.755370317572257
20
192.24708278609228
0
VERTEX
8
0
6
CONTINUOUS
62
1
10
60.588470317572259
20
192.31258278609232
0
VERTEX
8
0
6
CONTINUOUS
62
1
10
37.430970317572232
20
192.31258278609232
0
VERTEX
8
0
6
CONTINUOUS
62
1
10
37.263770317572252
20
192.24678278609235
0
VERTEX
8
0
6
CONTINUOUS
62
1
10
37.19467031757226
20
192.08858278609227
0
VERTEX
8
0
6
CONTINUOUS
62
1
10
37.19467031757226
20
191.96758278609229
0
VERTEX
8
0
6
CONTINUOUS
62
1
10
37.26407031757229
20
191.80908278609229
0
VERTEX
8
0
6
CONTINUOUS
62
1
10
37.430970317572232
20
191.74358278609225
0
VERTEX
8
0
6
CONTINUOUS
62
1
10
60.588470317572259
20
191.74358278609225
0
VERTEX
8
0
6
CONTINUOUS
62
1
10
60.755670317572239
20
191.80928278609235
0
VERTEX
8
0
6
CONTINUOUS
62
1
10
60.824770317572288
20
191.96758278609229
0
SEQEND
0
POLYLINE
8
0
6
CONTINUOUS
62
1
66
1
10
0
20
0
70
129
40
0
41
0
0
VERTEX
8
0
6
CONTINUOUS
62
1
10
24.865770317572228
20
190.74768278609235
0
VERTEX
8
0
6
CONTINUOUS
62
1
10
48.02317031757228
20
190.74768278609235
0
VERTEX
8
0
6
CONTINUOUS
62
1
10
48.190270317572285
20
190.68218278609231
0
VERTEX
8
0
6
CONTINUOUS
62
1
10
48.259470317572251
20
190.52368278609231
0
VERTEX
8
0
6
CONTINUOUS
62
1
10
48.259470317572251
20
190.40268278609233
0
VERTEX
8
0
6
CONTINUOUS
62
1
10
48.190470317572235
20
190.2442827860923
0
VERTEX
8
0
6
CONTINUOUS
62
1
10
48.02337031757223
20
190.17868278609228
0
VERTEX
8
0
6
CONTINUOUS
62
1
10
24.865770317572228
20
190.17868278609228
0
VERTEX
8
0
6
CONTINUOUS
62
1
10
24.698770317572254
20
190.24418278609232
0
VERTEX
8
0
6
CONTINUOUS
62
1
10
24.629570317572288
20
190.40268278609233
0
VERTEX
8
0
6
CONTINUOUS
62
1
10
24.629570317572288
20
190.52368278609231
0
VERTEX
8
0
6
CONTINUOUS
62
1
10
24.698570317572248
20
190.68208278609234
0
VERTEX
8
0
6
CONTINUOUS
62
1
10
24.865770317572228
20
190.74768278609235
0
SEQEND
0
POLYLINE
8
0
6
CONTINUOUS
62
1
66
1
10
0
20
0
70
129
40
0
41
0
0
VERTEX
8
0
6
CONTINUOUS
62
1
10
48.25947031748187
20
114.2629827850314
0
VERTEX
8
0
6
CONTINUOUS
62
1
10
48.259470317471013
20
114.14208278503139
0
VERTEX
8
0
6
CONTINUOUS
62
1
10
48.190470317456843
20
113.98368278503759
0
VERTEX
8
0
6
CONTINUOUS
62
1
10
48.023270317450951
20
113.9179827850526
0
VERTEX
8
0
6
CONTINUOUS
62
1
10
24.865870317450899
20
113.91798278713199
0
VERTEX
8
0
6
CONTINUOUS
62
1
10
24.698770317456805
20
113.98358278714696
0
VERTEX
8
0
6
CONTINUOUS
62
1
10
24.62957031747105
20
114.14208278715319
0
VERTEX
8
0
6
CONTINUOUS
62
1
10
24.629570317481907
20
114.26298278715319
0
VERTEX
8
0
6
CONTINUOUS
62
1
10
24.698570317496191
20
114.421382787147
0
VERTEX
8
0
6
CONTINUOUS
62
1
10
24.865870317502001
20
114.48708278713198
0
VERTEX
8
0
6
CONTINUOUS
62
1
10
48.023270317502053
20
114.48708278505259
0
VERTEX
8
0
6
CONTINUOUS
62
1
10
48.190270317496172
20
114.4215827850376
0
VERTEX
8
0
6
CONTINUOUS
62
1
10
48.25947031748187
20
114.2629827850314
0
SEQEND
0
POLYLINE
8
0
6
CONTINUOUS
62
1
66
1
10
0
20
0
70
129
40
0
41
0
0
VERTEX
8
0
6
CONTINUOUS
62
1
10
48.259470317762904
20
117.39278278503139
0
VERTEX
8
0
6
CONTINUOUS
62
1
10
48.259470317752047
20
117.27178278503138
0
VERTEX
8
0
6
CONTINUOUS
62
1
10
48.190470317737876
20
117.1133827850376
0
VERTEX
8
0
6
CONTINUOUS
62
1
10
48.023270317731985
20
117.04778278505259
0
VERTEX
8
0
6
CONTINUOUS
62
1
10
24.865870317731932
20
117.04778278713198
0
VERTEX
8
0
6
CONTINUOUS
62
1
10
24.698770317737839
20
117.11328278714697
0
VERTEX
8
0
6
CONTINUOUS
62
1
10
24.629570317752083
20
117.27178278715317
0
VERTEX
8
0
6
CONTINUOUS
62
1
10
24.629570317762941
20
117.39278278715318
0
VERTEX
8
0
6
CONTINUOUS
62
1
10
24.698570317777225
20
117.55118278714698
0
VERTEX
8
0
6
CONTINUOUS
62
1
10
24.865870317783035
20
117.616782787132
0
VERTEX
8
0
6
CONTINUOUS
62
1
10
48.023270317783087
20
117.61678278505261
0
VERTEX
8
0
6
CONTINUOUS
62
1
10
48.190270317777205
20
117.55128278503761
0
VERTEX
8
0
6
CONTINUOUS
62
1
10
48.259470317762904
20
117.39278278503139
0
SEQEND
0
POLYLINE
8
0
6
CONTINUOUS
62
1
66
1
10
0
20
0
70
129
40
0
41
0
0
VERTEX
8
0
6
CONTINUOUS
62
1
10
48.259470318043938
20
120.5224827850314
0
VERTEX
8
0
6
CONTINUOUS
62
1
10
48.259470318033081
20
120.40158278503139
0
VERTEX
8
0
6
CONTINUOUS
62
1
10
48.19047031801891
20
120.24318278503759
0
VERTEX
8
0
6
CONTINUOUS
62
1
10
48.023270318013019
20
120.1774827850526
0
VERTEX
8
0
6
CONTINUOUS
62
1
10
24.865870318012966
20
120.17748278713199
0
VERTEX
8
0
6
CONTINUOUS
62
1
10
24.698770318018873
20
120.24308278714696
0
VERTEX
8
0
6
CONTINUOUS
62
1
10
24.629570318033117
20
120.40158278715319
0
VERTEX
8
0
6
CONTINUOUS
62
1
10
24.629570318043974
20
120.52248278715319
0
VERTEX
8
0
6
CONTINUOUS
62
1
10
24.698570318058202
20
120.680882787147
0
VERTEX
8
0
6
CONTINUOUS
62
1
10
24.865870318064069
20
120.74658278713198
0
VERTEX
8
0
6
CONTINUOUS
62
1
10
48.023270318064121
20
120.7465827850526
0
VERTEX
8
0
6
CONTINUOUS
62
1
10
48.190270318058239
20
120.68098278503757
0
VERTEX
8
0
6
CONTINUOUS
62
1
10
48.259470318043938
20
120.5224827850314
0
SEQEND
0
POLYLINE
8
0
6
CONTINUOUS
62
1
66
1
10
0
20
0
70
128
40
0
41
0
0
VERTEX
8
0
6
CONTINUOUS
62
1
10
62.325070318013033
20
120.1774827837684
0
VERTEX
8
0
6
CONTINUOUS
62
1
10
49.996070318013025
20
120.17748278487548
0
VERTEX
8
0
6
CONTINUOUS
62
1
10
49.829070318018907
20
120.24318278489045
0
VERTEX
8
0
6
CONTINUOUS
62
1
10
49.759770318033119
20
120.40158278489668
0
VERTEX
8
0
6
CONTINUOUS
62
1
10
49.759770318043977
20
120.52248278489668
0
VERTEX
8
0
6
CONTINUOUS
62
1
10
49.829070318058186
20
120.68088278489046
0
VERTEX
8
0
6
CONTINUOUS
62
1
10
49.996070318064127
20
120.74658278487547
0
VERTEX
8
0
6
CONTINUOUS
62
1
10
62.325070318064078
20
120.74658278376839
0
SEQEND
0
POLYLINE
8
0
6
CONTINUOUS
62
1
66
1
10
0
20
0
70
128
40
0
41
0
0
VERTEX
8
0
6
CONTINUOUS
62
1
10
62.325070317450965
20
113.91798278376839
0
VERTEX
8
0
6
CONTINUOUS
62
1
10
49.996070317450958
20
113.91798278487548
0
VERTEX
8
0
6
CONTINUOUS
62
1
10
49.829070317456839
20
113.98368278489045
0
VERTEX
8
0
6
CONTINUOUS
62
1
10
49.759770317471052
20
114.14208278489667
0
VERTEX
8
0
6
CONTINUOUS
62
1
10
49.759770317481909
20
114.26298278489668
0
VERTEX
8
0
6
CONTINUOUS
62
1
10
49.829070317496175
20
114.42138278489045
0
VERTEX
8
0
6
CONTINUOUS
62
1
10
49.99607031750206
20
114.48708278487547
0
VERTEX
8
0
6
CONTINUOUS
62
1
10
62.325070317502011
20
114.48708278376839
0
SEQEND
0
POLYLINE
8
0
6
CONTINUOUS
62
1
66
1
10
0
20
0
70
128
40
0
41
0
0
VERTEX
8
0
6
CONTINUOUS
62
1
10
62.325070317731999
20
117.04778278376838
0
VERTEX
8
0
6
CONTINUOUS
62
1
10
49.996070317731991
20
117.04778278487547
0
VERTEX
8
0
6
CONTINUOUS
62
1
10
49.829070317737873
20
117.11338278489046
0
VERTEX
8
0
6
CONTINUOUS
62
1
10
49.759770317752086
20
117.27178278489666
0
VERTEX
8
0
6
CONTINUOUS
62
1
10
49.759770317762943
20
117.39278278489667
0
VERTEX
8
0
6
CONTINUOUS
62
1
10
49.829070317777209
20
117.55118278489044
0
VERTEX
8
0
6
CONTINUOUS
62
1
10
49.996070317783094
20
117.61678278487548
0
VERTEX
8
0
6
CONTINUOUS
62
1
10
62.325070317783045
20
117.6167827837684
0
SEQEND
0
POLYLINE
8
0
6
CONTINUOUS
62
1
66
1
10
0
20
0
70
128
40
0
41
0
0
VERTEX
8
0
6
CONTINUOUS
62
1
10
10.563970318012977
20
120.1774827884162
0
VERTEX
8
0
6
CONTINUOUS
62
1
10
22.892970318012985
20
120.17748278730912
0
VERTEX
8
0
6
CONTINUOUS
62
1
10
23.059970318018927
20
120.24318278729413
0
VERTEX
8
0
6
CONTINUOUS
62
1
10
23.129270318033136
20
120.40158278728791
0
VERTEX
8
0
6
CONTINUOUS
62
1
10
23.129270318043993
20
120.52248278728791
0
VERTEX
8
0
6
CONTINUOUS
62
1
10
23.059970318058205
20
120.68088278729414
0
VERTEX
8
0
6
CONTINUOUS
62
1
10
22.892970318064087
20
120.74658278730911
0
VERTEX
8
0
6
CONTINUOUS
62
1
10
10.563970318064079
20
120.74658278841619
0
SEQEND
0
POLYLINE
8
0
6
CONTINUOUS
62
1
66
1
10
0
20
0
70
128
40
0
41
0
0
VERTEX
8
0
6
CONTINUOUS
62
1
10
10.563970317731943
20
117.04778278841619
0
VERTEX
8
0
6
CONTINUOUS
62
1
10
22.892970317731951
20
117.0477827873091
0
VERTEX
8
0
6
CONTINUOUS
62
1
10
23.059970317737893
20
117.11338278729414
0
VERTEX
8
0
6
CONTINUOUS
62
1
10
23.129270317752102
20
117.27178278728789
0
VERTEX
8
0
6
CONTINUOUS
62
1
10
23.129270317762959
20
117.3927827872879
0
VERTEX
8
0
6
CONTINUOUS
62
1
10
23.059970317777228
20
117.55118278729412
0
VERTEX
8
0
6
CONTINUOUS
62
1
10
22.892970317783053
20
117.61678278730912
0
VERTEX
8
0
6
CONTINUOUS
62
1
10
10.563970317783046
20
117.6167827884162
0
SEQEND
0
POLYLINE
8
0
6
CONTINUOUS
62
1
66
1
10
0
20
0
70
128
40
0
41
0
0
VERTEX
8
0
6
CONTINUOUS
62
1
10
10.563970317450909
20
113.9179827884162
0
VERTEX
8
0
6
CONTINUOUS
62
1
10
22.892970317450917
20
113.91798278730911
0
VERTEX
8
0
6
CONTINUOUS
62
1
10
23.059970317456859
20
113.98368278729413
0
VERTEX
8
0
6
CONTINUOUS
62
1
10
23.129270317471068
20
114.1420827872879
0
VERTEX
8
0
6
CONTINUOUS
62
1
10
23.129270317481925
20
114.26298278728791
0
VERTEX
8
0
6
CONTINUOUS
62
1
10
23.059970317496195
20
114.42138278729414
0
VERTEX
8
0
6
CONTINUOUS
62
1
10
22.892970317502019
20
114.48708278730911
0
VERTEX
8
0
6
CONTINUOUS
62
1
10
10.563970317502012
20
114.48708278841619
0
SEQEND
0
POLYLINE
8
0
6
CONTINUOUS
62
1
66
1
10
0
20
0
70
128
40
0
41
0
0
VERTEX
8
0
6
CONTINUOUS
62
1
10
10.56397031757227
20
132.42068278609227
0
VERTEX
8
0
6
CONTINUOUS
62
1
10
22.892970317572221
20
132.42068278609227
0
VERTEX
8
0
6
CONTINUOUS
62
1
10
23.059970317572251
20
132.48628278609226
0
VERTEX
8
0
6
CONTINUOUS
62
1
10
23.129270317572249
20
132.64468278609226
0
VERTEX
8
0
6
CONTINUOUS
62
1
10
23.129270317572249
20
132.76568278609224
0
VERTEX
8
0
6
CONTINUOUS
62
1
10
23.059970317572251
20
132.92408278609227
0
VERTEX
8
0
6
CONTINUOUS
62
1
10
22.892970317572221
20
132.98968278609226
0
VERTEX
8
0
6
CONTINUOUS
62
1
10
10.56397031757227
20
132.98968278609226
0
SEQEND
0
POLYLINE
8
0
6
CONTINUOUS
62
1
66
1
10
0
20
0
70
128
40
0
41
0
0
VERTEX
8
0
6
CONTINUOUS
62
1
10
10.56397031757227
20
136.11948278609225
0
VERTEX
8
0
6
CONTINUOUS
62
1
10
22.892970317572221
20
136.11948278609225
0
VERTEX
8
0
6
CONTINUOUS
62
1
10
23.059970317572251
20
136.05378278609226
0
VERTEX
8
0
6
CONTINUOUS
62
1
10
23.129270317572249
20
135.89538278609226
0
VERTEX
8
0
6
CONTINUOUS
62
1
10
23.129270317572249
20
135.77448278609225
0
VERTEX
8
0
6
CONTINUOUS
62
1
10
23.059970317572251
20
135.61608278609225
0
VERTEX
8
0
6
CONTINUOUS
62
1
10
22.892970317572221
20
135.55038278609226
0
VERTEX
8
0
6
CONTINUOUS
62
1
10
10.56397031757227
20
135.55038278609226
0
SEQEND
0
POLYLINE
8
0
6
CONTINUOUS
62
1
66
1
10
0
20
0
70
128
40
0
41
0
0
VERTEX
8
0
6
CONTINUOUS
62
1
10
62.325070317572269
20
136.11948278609225
0
VERTEX
8
0
6
CONTINUOUS
62
1
10
49.996070317572261
20
136.11948278609225
0
VERTEX
8
0
6
CONTINUOUS
62
1
10
49.829070317572231
20
136.05378278609226
0
VERTEX
8
0
6
CONTINUOUS
62
1
10
49.759770317572233
20
135.89538278609226
0
VERTEX
8
0
6
CONTINUOUS
62
1
10
49.759770317572233
20
135.77448278609225
0
VERTEX
8
0
6
CONTINUOUS
62
1
10
49.829070317572231
20
135.61608278609225
0
VERTEX
8
0
6
CONTINUOUS
62
1
10
49.996070317572261
20
135.55038278609226
0
VERTEX
8
0
6
CONTINUOUS
62
1
10
62.325070317572269
20
135.55038278609226
0
SEQEND
0
POLYLINE
8
0
6
CONTINUOUS
62
1
66
1
10
0
20
0
70
128
40
0
41
0
0
VERTEX
8
0
6
CONTINUOUS
62
1
10
62.325070317572269
20
132.98968278609226
0
VERTEX
8
0
6
CONTINUOUS
62
1
10
49.996070317572261
20
132.98968278609226
0
VERTEX
8
0
6
CONTINUOUS
62
1
10
49.829070317572231
20
132.92408278609227
0
VERTEX
8
0
6
CONTINUOUS
62
1
10
49.759770317572233
20
132.76568278609224
0
VERTEX
8
0
6
CONTINUOUS
62
1
10
49.759770317572233
20
132.64468278609226
0
VERTEX
8
0
6
CONTINUOUS
62
1
10
49.829070317572231
20
132.48628278609226
0
VERTEX
8
0
6
CONTINUOUS
62
1
10
49.996070317572261
20
132.42068278609227
0
VERTEX
8
0
6
CONTINUOUS
62
1
10
62.325070317572269
20
132.42068278609227
0
SEQEND
0
POLYLINE
8
0
6
CONTINUOUS
62
1
66
1
10
0
20
0
70
128
40
0
41
0
0
VERTEX
8
0
6
CONTINUOUS
62
1
10
62.325070317572269
20
193.30838278609235
0
VERTEX
8
0
6
CONTINUOUS
62
1
10
49.996070317572261
20
193.30838278609235
0
VERTEX
8
0
6
CONTINUOUS
62
1
10
49.829070317572231
20
193.37408278609234
0
VERTEX
8
0
6
CONTINUOUS
62
1
10
49.759770317572233
20
193.53248278609226
0
VERTEX
8
0
6
CONTINUOUS
62
1
10
49.759770317572233
20
193.65338278609227
0
VERTEX
8
0
6
CONTINUOUS
62
1
10
49.829070317572231
20
193.81178278609229
0
VERTEX
8
0
6
CONTINUOUS
62
1
10
49.996070317572261
20
193.87748278609229
0
VERTEX
8
0
6
CONTINUOUS
62
1
10
62.325070317572269
20
193.87748278609229
0
SEQEND
0
POLYLINE
8
0
6
CONTINUOUS
62
1
66
1
10
0
20
0
70
128
40
0
41
0
0
VERTEX
8
0
6
CONTINUOUS
62
1
10
62.325070317572269
20
190.74768278609235
0
VERTEX
8
0
6
CONTINUOUS
62
1
10
49.996070317572261
20
190.74768278609235
0
VERTEX
8
0
6
CONTINUOUS
62
1
10
49.829070317572231
20
190.68208278609234
0
VERTEX
8
0
6
CONTINUOUS
62
1
10
49.759770317572233
20
190.52368278609231
0
VERTEX
8
0
6
CONTINUOUS
62
1
10
49.759770317572233
20
190.40268278609233
0
VERTEX
8
0
6
CONTINUOUS
62
1
10
49.829070317572231
20
190.2442827860923
0
VERTEX
8
0
6
CONTINUOUS
62
1
10
49.996070317572261
20
190.17868278609228
0
VERTEX
8
0
6
CONTINUOUS
62
1
10
62.325070317572269
20
190.17868278609228
0
SEQEND
0
POLYLINE
8
0
6
CONTINUOUS
62
1
66
1
10
0
20
0
70
128
40
0
41
0
0
VERTEX
8
0
6
CONTINUOUS
62
1
10
10.56397031757227
20
193.87748278609229
0
VERTEX
8
0
6
CONTINUOUS
62
1
10
22.892970317572221
20
193.87748278609229
0
VERTEX
8
0
6
CONTINUOUS
62
1
10
23.059970317572251
20
193.81178278609229
0
VERTEX
8
0
6
CONTINUOUS
62
1
10
23.129270317572249
20
193.65338278609227
0
VERTEX
8
0
6
CONTINUOUS
62
1
10
23.129270317572249
20
193.53248278609226
0
VERTEX
8
0
6
CONTINUOUS
62
1
10
23.059970317572251
20
193.37408278609234
0
VERTEX
8
0
6
CONTINUOUS
62
1
10
22.892970317572221
20
193.30838278609235
0
VERTEX
8
0
6
CONTINUOUS
62
1
10
10.56397031757227
20
193.30838278609235
0
SEQEND
0
POLYLINE
8
0
6
CONTINUOUS
62
1
66
1
10
0
20
0
70
128
40
0
41
0
0
VERTEX
8
0
6
CONTINUOUS
62
1
10
10.56397031757227
20
190.74768278609235
0
VERTEX
8
0
6
CONTINUOUS
62
1
10
22.892970317572221
20
190.74768278609235
0
VERTEX
8
0
6
CONTINUOUS
62
1
10
23.059970317572251
20
190.68208278609234
0
VERTEX
8
0
6
CONTINUOUS
62
1
10
23.129270317572249
20
190.52368278609231
0
VERTEX
8
0
6
CONTINUOUS
62
1
10
23.129270317572249
20
190.40268278609233
0
VERTEX
8
0
6
CONTINUOUS
62
1
10
23.059970317572251
20
190.2442827860923
0
VERTEX
8
0
6
CONTINUOUS
62
1
10
22.892970317572221
20
190.17868278609228
0
VERTEX
8
0
6
CONTINUOUS
62
1
10
10.56397031757227
20
190.17868278609228
0
SEQEND
0
LINE
8
Layer_1
6
CONTINUOUS
62
1
10
9.5626703175722554
20
204.26248278609239
11
63.326370317572284
21
204.26248278609239
0
ARC
8
Layer_1
6
CONTINUOUS
62
1
10
63.326370317572284
20
199.26248278609239
40
5
50
0
51
90
0
LINE
8
Layer_1
6
CONTINUOUS
62
1
10
68.326370317572284
20
199.26248278609251
11
68.326370317572284
21
104.40738278609228
0
ARC
8
Layer_1
6
CONTINUOUS
62
1
10
63.326370317572284
20
104.40738278609228
40
5.0000000000000284
50
270
51
0
0
LINE
8
Layer_1
6
CONTINUOUS
62
1
10
63.326370317572284
20
99.407382786092256
11
9.5626703175722554
21
99.407382786092256
0
ARC
8
Layer_1
6
CONTINUOUS
62
1
10
9.5626703175722554
20
104.40738278609228
40
5
50
180
51
270
0
LINE
8
Layer_1
6
CONTINUOUS
62
1
10
4.5626703175722554
20
104.40738278609228
11
4.5626703175722554
21
199.26248278609251
0
ARC
8
Layer_1
6
CONTINUOUS
62
1
10
9.5626703175722554
20
199.26248278609239
40
5
50
90
51
180
0
POLYLINE
8
0
6
CONTINUOUS
62
1
66
1
10
0
20
0
70
129
40
0
41
0
0
VERTEX
8
0
6
CONTINUOUS
62
1
10
12.064270317572252
20
128.07098278609229
0
VERTEX
8
0
6
CONTINUOUS
62
1
10
12.064270317572252
20
127.94998278609225
0
VERTEX
8
0
6
CONTINUOUS
62
1
10
12.133670317572282
20
127.79148278609225
0
VERTEX
8
0
6
CONTINUOUS
62
1
10
12.300570317572223
20
127.72598278609226
0
VERTEX
8
0
6
CONTINUOUS
62
1
10
35.45807031757225
20
127.72598278609226
0
VERTEX
8
0
6
CONTINUOUS
62
1
10
35.62527031757223
20
127.79178278609228
0
VERTEX
8
0
6
CONTINUOUS
62
1
10
35.694370317572279
20
127.94998278609225
0
VERTEX
8
0
6
CONTINUOUS
62
1
10
35.694370317572279
20
128.07098278609229
0
VERTEX
8
0
6
CONTINUOUS
62
1
10
35.624970317572249
20
128.22948278609226
0
VERTEX
8
0
6
CONTINUOUS
62
1
10
35.45807031757225
20
128.29508278609225
0
VERTEX
8
0
6
CONTINUOUS
62
1
10
12.300570317572223
20
128.29508278609225
0
VERTEX
8
0
6
CONTINUOUS
62
1
10
12.133370317572243
20
128.22928278609228
0
VERTEX
8
0
6
CONTINUOUS
62
1
10
12.064270317572252
20
128.07098278609229
0
SEQEND
0
POLYLINE
8
0
6
CONTINUOUS
62
1
66
1
10
0
20
0
70
129
40
0
41
0
0
VERTEX
8
0
6
CONTINUOUS
62
1
10
24.865770317572228
20
129.85988278609227
0
VERTEX
8
0
6
CONTINUOUS
62
1
10
48.02317031757228
20
129.85988278609227
0
VERTEX
8
0
6
CONTINUOUS
62
1
10
48.190270317572285
20
129.79438278609226
0
VERTEX
8
0
6
CONTINUOUS
62
1
10
48.259470317572251
20
129.63588278609225
0
VERTEX
8
0
6
CONTINUOUS
62
1
10
48.259470317572251
20
129.51488278609227
0
VERTEX
8
0
6
CONTINUOUS
62
1
10
48.190470317572235
20
129.35648278609227
0
VERTEX
8
0
6
CONTINUOUS
62
1
10
48.02317031757228
20
129.29088278609228
0
VERTEX
8
0
6
CONTINUOUS
62
1
10
24.865770317572228
20
129.29088278609228
0
VERTEX
8
0
6
CONTINUOUS
62
1
10
24.698770317572254
20
129.35638278609227
0
VERTEX
8
0
6
CONTINUOUS
62
1
10
24.629570317572288
20
129.51488278609227
0
VERTEX
8
0
6
CONTINUOUS
62
1
10
24.629570317572288
20
129.63588278609225
0
VERTEX
8
0
6
CONTINUOUS
62
1
10
24.698570317572248
20
129.79428278609228
0
VERTEX
8
0
6
CONTINUOUS
62
1
10
24.865770317572228
20
129.85988278609227
0
SEQEND
0
POLYLINE
8
0
6
CONTINUOUS
62
1
66
1
10
0
20
0
70
129
40
0
41
0
0
VERTEX
8
0
6
CONTINUOUS
62
1
10
60.824770317572288
20
128.07098278609229
0
VERTEX
8
0
6
CONTINUOUS
62
1
10
60.824770317572288
20
127.94998278609225
0
VERTEX
8
0
6
CONTINUOUS
62
1
10
60.755670317572239
20
127.79168278609225
0
VERTEX
8
0
6
CONTINUOUS
62
1
10
60.588470317572259
20
127.72598278609226
0
VERTEX
8
0
6
CONTINUOUS
62
1
10
37.430970317572232
20
127.72598278609226
0
VERTEX
8
0
6
CONTINUOUS
62
1
10
37.263870317572227
20
127.79148278609225
0
VERTEX
8
0
6
CONTINUOUS
62
1
10
37.19467031757226
20
127.94998278609225
0
VERTEX
8
0
6
CONTINUOUS
62
1
10
37.19467031757226
20
128.07098278609229
0
VERTEX
8
0
6
CONTINUOUS
62
1
10
37.263770317572252
20
128.22938278609226
0
VERTEX
8
0
6
CONTINUOUS
62
1
10
37.430970317572232
20
128.29508278609225
0
VERTEX
8
0
6
CONTINUOUS
62
1
10
60.588470317572259
20
128.29508278609225
0
VERTEX
8
0
6
CONTINUOUS
62
1
10
60.755470317572289
20
128.22948278609226
0
VERTEX
8
0
6
CONTINUOUS
62
1
10
60.824770317572288
20
128.07098278609229
0
SEQEND
0
POLYLINE
8
0
6
CONTINUOUS
62
1
66
1
10
0
20
0
70
128
40
0
41
0
0
VERTEX
8
0
6
CONTINUOUS
62
1
10
10.56397031757227
20
129.29088278609228
0
VERTEX
8
0
6
CONTINUOUS
62
1
10
22.892970317572221
20
129.29088278609228
0
VERTEX
8
0
6
CONTINUOUS
62
1
10
23.059970317572251
20
129.35648278609227
0
VERTEX
8
0
6
CONTINUOUS
62
1
10
23.129270317572249
20
129.51488278609227
0
VERTEX
8
0
6
CONTINUOUS
62
1
10
23.129270317572249
20
129.63588278609225
0
VERTEX
8
0
6
CONTINUOUS
62
1
10
23.059970317572251
20
129.79428278609228
0
VERTEX
8
0
6
CONTINUOUS
62
1
10
22.892970317572221
20
129.85988278609227
0
VERTEX
8
0
6
CONTINUOUS
62
1
10
10.56397031757227
20
129.85988278609227
0
SEQEND
0
POLYLINE
8
0
6
CONTINUOUS
62
1
66
1
10
0
20
0
70
128
40
0
41
0
0
VERTEX
8
0
6
CONTINUOUS
62
1
10
62.325070317572269
20
129.85988278609227
0
VERTEX
8
0
6
CONTINUOUS
62
1
10
49.996070317572261
20
129.85988278609227
0
VERTEX
8
0
6
CONTINUOUS
62
1
10
49.829070317572231
20
129.79428278609228
0
VERTEX
8
0
6
CONTINUOUS
62
1
10
49.759770317572233
20
129.63588278609225
0
VERTEX
8
0
6
CONTINUOUS
62
1
10
49.759770317572233
20
129.51488278609227
0
VERTEX
8
0
6
CONTINUOUS
62
1
10
49.829070317572231
20
129.35648278609227
0
VERTEX
8
0
6
CONTINUOUS
62
1
10
49.996070317572261
20
129.29088278609228
0
VERTEX
8
0
6
CONTINUOUS
62
1
10
62.325070317572269
20
129.29088278609228
0
SEQEND
0
POLYLINE
8
0
6
CONTINUOUS
62
1
66
1
10
0
20
0
70
129
40
0
41
0
0
VERTEX
8
0
6
CONTINUOUS
62
1
10
24.865770317572228
20
197.00718278609236
0
VERTEX
8
0
6
CONTINUOUS
62
1
10
48.02317031757228
20
197.00718278609236
0
VERTEX
8
0
6
CONTINUOUS
62
1
10
48.190270317572285
20
196.94158278609234
0
VERTEX
8
0
6
CONTINUOUS
62
1
10
48.259470317572251
20
196.78308278609234
0
VERTEX
8
0
6
CONTINUOUS
62
1
10
48.259570317572283
20
196.66218278609233
0
VERTEX
8
0
6
CONTINUOUS
62
1
10
48.190470317572235
20
196.50378278609242
0
VERTEX
8
0
6
CONTINUOUS
62
1
10
48.02337031757223
20
196.43808278609242
0
VERTEX
8
0
6
CONTINUOUS
62
1
10
24.865770317572228
20
196.43808278609242
0
VERTEX
8
0
6
CONTINUOUS
62
1
10
24.698770317572254
20
196.50368278609233
0
VERTEX
8
0
6
CONTINUOUS
62
1
10
24.629570317572288
20
196.66218278609233
0
VERTEX
8
0
6
CONTINUOUS
62
1
10
24.629570317572288
20
196.78308278609234
0
VERTEX
8
0
6
CONTINUOUS
62
1
10
24.698570317572248
20
196.94148278609237
0
VERTEX
8
0
6
CONTINUOUS
62
1
10
24.865770317572228
20
197.00718278609236
0
SEQEND
0
POLYLINE
8
0
6
CONTINUOUS
62
1
66
1
10
0
20
0
70
129
40
0
41
0
0
VERTEX
8
0
6
CONTINUOUS
62
1
10
60.824770317572288
20
198.22698278609232
0
VERTEX
8
0
6
CONTINUOUS
62
1
10
60.824770317572288
20
198.34798278609242
0
VERTEX
8
0
6
CONTINUOUS
62
1
10
60.755370317572257
20
198.50648278609242
0
VERTEX
8
0
6
CONTINUOUS
62
1
10
60.588470317572259
20
198.57198278609235
0
VERTEX
8
0
6
CONTINUOUS
62
1
10
37.430970317572232
20
198.57198278609235
0
VERTEX
8
0
6
CONTINUOUS
62
1
10
37.263770317572252
20
198.50628278609236
0
VERTEX
8
0
6
CONTINUOUS
62
1
10
37.19467031757226
20
198.34798278609242
0
VERTEX
8
0
6
CONTINUOUS
62
1
10
37.19467031757226
20
198.22698278609232
0
VERTEX
8
0
6
CONTINUOUS
62
1
10
37.26407031757229
20
198.06848278609232
0
VERTEX
8
0
6
CONTINUOUS
62
1
10
37.430970317572232
20
198.00298278609239
0
VERTEX
8
0
6
CONTINUOUS
62
1
10
60.588470317572259
20
198.00298278609239
0
VERTEX
8
0
6
CONTINUOUS
62
1
10
60.755670317572239
20
198.06878278609236
0
VERTEX
8
0
6
CONTINUOUS
62
1
10
60.824770317572288
20
198.22698278609232
0
SEQEND
0
POLYLINE
8
0
6
CONTINUOUS
62
1
66
1
10
0
20
0
70
129
40
0
41
0
0
VERTEX
8
0
6
CONTINUOUS
62
1
10
12.064270317572252
20
198.22698278609232
0
VERTEX
8
0
6
CONTINUOUS
62
1
10
12.064270317572252
20
198.34798278609242
0
VERTEX
8
0
6
CONTINUOUS
62
1
10
12.133370317572243
20
198.50638278609233
0
VERTEX
8
0
6
CONTINUOUS
62
1
10
12.300570317572223
20
198.57198278609235
0
VERTEX
8
0
6
CONTINUOUS
62
1
10
35.45807031757225
20
198.57198278609235
0
VERTEX
8
0
6
CONTINUOUS
62
1
10
35.625170317572255
20
198.50648278609242
0
VERTEX
8
0
6
CONTINUOUS
62
1
10
35.694370317572279
20
198.34798278609242
0
VERTEX
8
0
6
CONTINUOUS
62
1
10
35.694370317572279
20
198.22698278609232
0
VERTEX
8
0
6
CONTINUOUS
62
1
10
35.62527031757223
20
198.06858278609241
0
VERTEX
8
0
6
CONTINUOUS
62
1
10
35.45807031757225
20
198.00298278609239
0
VERTEX
8
0
6
CONTINUOUS
62
1
10
12.300570317572223
20
198.00298278609239
0
VERTEX
8
0
6
CONTINUOUS
62
1
10
12.13357031757225
20
198.06848278609232
0
VERTEX
8
0
6
CONTINUOUS
62
1
10
12.064270317572252
20
198.22698278609232
0
SEQEND
0
POLYLINE
8
0
6
CONTINUOUS
62
1
66
1
10
0
20
0
70
128
40
0
41
0
0
VERTEX
8
0
6
CONTINUOUS
62
1
10
62.325070317572269
20
196.43808278609242
0
VERTEX
8
0
6
CONTINUOUS
62
1
10
49.996070317572261
20
196.43808278609242
0
VERTEX
8
0
6
CONTINUOUS
62
1
10
49.829070317572231
20
196.50378278609242
0
VERTEX
8
0
6
CONTINUOUS
62
1
10
49.759770317572233
20
196.66218278609233
0
VERTEX
8
0
6
CONTINUOUS
62
1
10
49.759770317572233
20
196.78308278609234
0
VERTEX
8
0
6
CONTINUOUS
62
1
10
49.829070317572231
20
196.94148278609237
0
VERTEX
8
0
6
CONTINUOUS
62
1
10
49.996070317572261
20
197.00718278609236
0
VERTEX
8
0
6
CONTINUOUS
62
1
10
62.325070317572269
20
197.00718278609236
0
SEQEND
0
POLYLINE
8
0
6
CONTINUOUS
62
1
66
1
10
0
20
0
70
128
40
0
41
0
0
VERTEX
8
0
6
CONTINUOUS
62
1
10
10.56397031757227
20
197.00718278609236
0
VERTEX
8
0
6
CONTINUOUS
62
1
10
22.892970317572221
20
197.00718278609236
0
VERTEX
8
0
6
CONTINUOUS
62
1
10
23.059970317572251
20
196.94148278609237
0
VERTEX
8
0
6
CONTINUOUS
62
1
10
23.129270317572249
20
196.78308278609234
0
VERTEX
8
0
6
CONTINUOUS
62
1
10
23.129270317572249
20
196.66218278609233
0
VERTEX
8
0
6
CONTINUOUS
62
1
10
23.059970317572251
20
196.50378278609242
0
VERTEX
8
0
6
CONTINUOUS
62
1
10
22.892970317572221
20
196.43808278609242
0
VERTEX
8
0
6
CONTINUOUS
62
1
10
10.56397031757227
20
196.43808278609242
0
SEQEND
0
POLYLINE
8
Layer_1
6
CONTINUOUS
62
1
66
1
10
0
20
0
70
129
40
0
41
0
0
VERTEX
8
Layer_1
6
CONTINUOUS
62
1
10
20.128820317572277
20
161.49298278574435
0
VERTEX
8
Layer_1
6
CONTINUOUS
62
1
10
20.128820317572277
20
155.49298278574435
0
VERTEX
8
Layer_1
6
CONTINUOUS
62
1
10
23.128820317572277
20
155.49298278574435
0
VERTEX
8
Layer_1
6
CONTINUOUS
62
1
10
23.128820317572277
20
161.49298278574435
0
VERTEX
8
Layer_1
6
CONTINUOUS
62
1
10
24.128820317572277
20
161.49298278574435
0
VERTEX
8
Layer_1
6
CONTINUOUS
62
1
10
24.128820317572277
20
169.992982785273
0
VERTEX
8
Layer_1
6
CONTINUOUS
62
1
10
21.628820317931471
20
167.49298278574446
0
VERTEX
8
Layer_1
6
CONTINUOUS
62
1
10
19.128820317572277
20
169.99298278644022
0
VERTEX
8
Layer_1
6
CONTINUOUS
62
1
10
19.128820317572277
20
161.49298278574435
0
VERTEX
8
Layer_1
6
CONTINUOUS
62
1
10
20.128820317572277
20
161.49298278574435
0
SEQEND
0
LINE
8
Layer_1
6
CONTINUOUS
62
1
10
26.693670317572227
20
177.91088278609232
11
26.693670317572227
21
147.57508278609228
0
ARC
8
Layer_1
6
CONTINUOUS
62
1
10
24.693670317572227
20
147.57508278609228
40
1.9999999999999716
50
270
51
0
0
LINE
8
Layer_1
6
CONTINUOUS
62
1
10
24.693670317572227
20
145.57508278609231
11
18.563970317572327
21
145.57508278609231
0
ARC
8
Layer_1
6
CONTINUOUS
62
1
10
18.56397031757227
20
147.57508278609225
40
2
50
180
51
270
0
LINE
8
Layer_1
6
CONTINUOUS
62
1
10
16.56397031757227
20
147.57508278609222
11
16.56397031757227
21
177.91088278609232
0
ARC
8
Layer_1
6
CONTINUOUS
62
1
10
18.56397031757227
20
177.91088278609232
40
2
50
90
51
180
0
LINE
8
Layer_1
6
CONTINUOUS
62
1
10
18.56397031757227
20
179.91088278609232
11
24.693670317572284
21
179.91088278609232
0
ARC
8
Layer_1
6
CONTINUOUS
62
1
10
24.693670317572284
20
177.91088278609232
40
1.9999999999999432
50
0
51
90
0
LINE
8
Layer_1
6
CONTINUOUS
62
1
10
46.195370317572255
20
177.91088278609243
11
46.195370317572255
21
147.57508278609228
0
ARC
8
Layer_1
6
CONTINUOUS
62
1
10
48.195370317572255
20
147.57508278609228
40
2
50
180
51
270
0
LINE
8
Layer_1
6
CONTINUOUS
62
1
10
48.195370317572255
20
145.57508278609237
11
54.325070317572155
21
145.57508278609237
0
ARC
8
Layer_1
6
CONTINUOUS
62
1
10
54.325070317572212
20
147.57508278609231
40
1.9999999999999432
50
270
51
0
0
LINE
8
Layer_1
6
CONTINUOUS
62
1
10
56.325070317572212
20
147.57508278609222
11
56.325070317572212
21
177.91088278609243
0
ARC
8
Layer_1
6
CONTINUOUS
62
1
10
54.325070317572212
20
177.91088278609243
40
2
50
0
51
90
0
LINE
8
Layer_1
6
CONTINUOUS
62
1
10
54.325070317572212
20
179.91088278609232
11
48.195370317572198
21
179.91088278609232
0
ARC
8
Layer_1
6
CONTINUOUS
62
1
10
48.195370317572198
20
177.91088278609243
40
1.9999999999998863
50
90
51
180
0
POLYLINE
8
0
6
CONTINUOUS
62
1
66
1
10
0
20
0
70
129
40
0
41
0
0
VERTEX
8
0
6
CONTINUOUS
62
1
10
12.064270317572252
20
124.9411827860923
0
VERTEX
8
0
6
CONTINUOUS
62
1
10
12.064270317572252
20
124.82018278609226
0
VERTEX
8
0
6
CONTINUOUS
62
1
10
12.133670317572282
20
124.66168278609226
0
VERTEX
8
0
6
CONTINUOUS
62
1
10
12.300570317572223
20
124.59618278609227
0
VERTEX
8
0
6
CONTINUOUS
62
1
10
35.45807031757225
20
124.59618278609227
0
VERTEX
8
0
6
CONTINUOUS
62
1
10
35.62527031757223
20
124.6619827860923
0
VERTEX
8
0
6
CONTINUOUS
62
1
10
35.694370317572279
20
124.82018278609226
0
VERTEX
8
0
6
CONTINUOUS
62
1
10
35.694370317572279
20
124.9411827860923
0
VERTEX
8
0
6
CONTINUOUS
62
1
10
35.624970317572249
20
125.09968278609227
0
VERTEX
8
0
6
CONTINUOUS
62
1
10
35.45807031757225
20
125.16528278609226
0
VERTEX
8
0
6
CONTINUOUS
62
1
10
12.300570317572223
20
125.16528278609226
0
VERTEX
8
0
6
CONTINUOUS
62
1
10
12.133370317572243
20
125.0994827860923
0
VERTEX
8
0
6
CONTINUOUS
62
1
10
12.064270317572252
20
124.9411827860923
0
SEQEND
0
POLYLINE
8
0
6
CONTINUOUS
62
1
66
1
10
0
20
0
70
129
40
0
41
0
0
VERTEX
8
0
6
CONTINUOUS
62
1
10
24.865770317572228
20
126.73008278609228
0
VERTEX
8
0
6
CONTINUOUS
62
1
10
48.02317031757228
20
126.73008278609228
0
VERTEX
8
0
6
CONTINUOUS
62
1
10
48.190270317572285
20
126.66458278609227
0
VERTEX
8
0
6
CONTINUOUS
62
1
10
48.259470317572251
20
126.50608278609226
0
VERTEX
8
0
6
CONTINUOUS
62
1
10
48.259470317572251
20
126.38508278609228
0
VERTEX
8
0
6
CONTINUOUS
62
1
10
48.190470317572235
20
126.22668278609228
0
VERTEX
8
0
6
CONTINUOUS
62
1
10
48.02317031757228
20
126.16108278609229
0
VERTEX
8
0
6
CONTINUOUS
62
1
10
24.865770317572228
20
126.16108278609229
0
VERTEX
8
0
6
CONTINUOUS
62
1
10
24.698770317572254
20
126.22658278609228
0
VERTEX
8
0
6
CONTINUOUS
62
1
10
24.629570317572288
20
126.38508278609228
0
VERTEX
8
0
6
CONTINUOUS
62
1
10
24.629570317572288
20
126.50608278609226
0
VERTEX
8
0
6
CONTINUOUS
62
1
10
24.698570317572248
20
126.66448278609229
0
VERTEX
8
0
6
CONTINUOUS
62
1
10
24.865770317572228
20
126.73008278609228
0
SEQEND
0
POLYLINE
8
0
6
CONTINUOUS
62
1
66
1
10
0
20
0
70
129
40
0
41
0
0
VERTEX
8
0
6
CONTINUOUS
62
1
10
60.824770317572288
20
124.9411827860923
0
VERTEX
8
0
6
CONTINUOUS
62
1
10
60.824770317572288
20
124.82018278609226
0
VERTEX
8
0
6
CONTINUOUS
62
1
10
60.755670317572239
20
124.66188278609226
0
VERTEX
8
0
6
CONTINUOUS
62
1
10
60.588470317572259
20
124.59618278609227
0
VERTEX
8
0
6
CONTINUOUS
62
1
10
37.430970317572232
20
124.59618278609227
0
VERTEX
8
0
6
CONTINUOUS
62
1
10
37.263870317572227
20
124.66168278609226
0
VERTEX
8
0
6
CONTINUOUS
62
1
10
37.19467031757226
20
124.82018278609226
0
VERTEX
8
0
6
CONTINUOUS
62
1
10
37.19467031757226
20
124.9411827860923
0
VERTEX
8
0
6
CONTINUOUS
62
1
10
37.263770317572252
20
125.09958278609227
0
VERTEX
8
0
6
CONTINUOUS
62
1
10
37.430970317572232
20
125.16528278609226
0
VERTEX
8
0
6
CONTINUOUS
62
1
10
60.588470317572259
20
125.16528278609226
0
VERTEX
8
0
6
CONTINUOUS
62
1
10
60.755470317572289
20
125.09968278609227
0
VERTEX
8
0
6
CONTINUOUS
62
1
10
60.824770317572288
20
124.9411827860923
0
SEQEND
0
POLYLINE
8
0
6
CONTINUOUS
62
1
66
1
10
0
20
0
70
128
40
0
41
0
0
VERTEX
8
0
6
CONTINUOUS
62
1
10
10.56397031757227
20
126.16108278609229
0
VERTEX
8
0
6
CONTINUOUS
62
1
10
22.892970317572221
20
126.16108278609229
0
VERTEX
8
0
6
CONTINUOUS
62
1
10
23.059970317572251
20
126.22668278609228
0
VERTEX
8
0
6
CONTINUOUS
62
1
10
23.129270317572249
20
126.38508278609228
0
VERTEX
8
0
6
CONTINUOUS
62
1
10
23.129270317572249
20
126.50608278609226
0
VERTEX
8
0
6
CONTINUOUS
62
1
10
23.059970317572251
20
126.66448278609229
0
VERTEX
8
0
6
CONTINUOUS
62
1
10
22.892970317572221
20
126.73008278609228
0
VERTEX
8
0
6
CONTINUOUS
62
1
10
10.56397031757227
20
126.73008278609228
0
SEQEND
0
POLYLINE
8
0
6
CONTINUOUS
62
1
66
1
10
0
20
0
70
128
40
0
41
0
0
VERTEX
8
0
6
CONTINUOUS
62
1
10
62.325070317572269
20
126.73008278609228
0
VERTEX
8
0
6
CONTINUOUS
62
1
10
49.996070317572261
20
126.73008278609228
0
VERTEX
8
0
6
CONTINUOUS
62
1
10
49.829070317572231
20
126.66448278609229
0
VERTEX
8
0
6
CONTINUOUS
62
1
10
49.759770317572233
20
126.50608278609226
0
VERTEX
8
0
6
CONTINUOUS
62
1
10
49.759770317572233
20
126.38508278609228
0
VERTEX
8
0
6
CONTINUOUS
62
1
10
49.829070317572231
20
126.22668278609228
0
VERTEX
8
0
6
CONTINUOUS
62
1
10
49.996070317572261
20
126.16108278609229
0
VERTEX
8
0
6
CONTINUOUS
62
1
10
62.325070317572269
20
126.16108278609229
0
SEQEND
0
LINE
8
Layer_1
6
CONTINUOUS
62
1
10
10.563970318064079
20
120.74658278841619
11
10.563970316979024
21
108.66268278841619
0
ARC
8
Layer_1
6
CONTINUOUS
62
1
10
12.563970316979024
20
108.66268278823659
40
2
50
180
51
270
0
LINE
8
Layer_1
6
CONTINUOUS
62
1
10
12.563970316799427
20
106.66268278823662
11
60.325070316799426
21
106.6626827839479
0
ARC
8
Layer_1
6
CONTINUOUS
62
1
10
60.325070316979051
20
108.66268278394796
40
2.0000000000000568
50
270
51
0
0
LINE
8
Layer_1
6
CONTINUOUS
62
1
10
62.325070316979051
20
108.66268278376839
11
62.325070318064078
21
120.74658278376839
0
ARC
8
Layer_1
6
CONTINUOUS
62
1
10
12.56397031757227
20
187.91088278609232
40
2
50
180
51
270
0
ARC
8
Layer_1
6
CONTINUOUS
62
1
10
60.325070317572269
20
187.91088278609243
40
2.0000000000001137
50
270
51
0
0
POLYLINE
8
Layer_1
6
CONTINUOUS
62
1
66
1
10
0
20
0
70
128
40
0
41
0
0
VERTEX
8
Layer_1
6
CONTINUOUS
62
1
10
32.693670317774306
20
166.43978278609234
0
VERTEX
8
Layer_1
6
CONTINUOUS
62
1
10
30.443270317774292
20
166.43978278609234
0
VERTEX
8
Layer_1
6
CONTINUOUS
62
1
10
30.443270317572271
20
170.93978278609234
0
VERTEX
8
Layer_1
6
CONTINUOUS
62
1
10
32.693670317572227
20
170.93978278609234
0
SEQEND
0
POLYLINE
8
Layer_1
6
CONTINUOUS
62
1
66
1
10
0
20
0
70
128
40
0
41
0
0
VERTEX
8
Layer_1
6
CONTINUOUS
62
1
10
40.195270317774359
20
166.43978278609234
0
VERTEX
8
Layer_1
6
CONTINUOUS
62
1
10
42.445770317774347
20
166.43978278609234
0
VERTEX
8
Layer_1
6
CONTINUOUS
62
1
10
42.445770317572268
20
170.93978278609234
0
VERTEX
8
Layer_1
6
CONTINUOUS
62
1
10
40.19527031757228
20
170.93978278609234
0
SEQEND
0
POLYLINE
8
Layer_1
6
CONTINUOUS
62
1
66
1
10
0
20
0
70
129
40
0
41
0
0
VERTEX
8
Layer_1
6
CONTINUOUS
62
1
10
15.650410537281616
20
111.09460843580675
0
VERTEX
8
Layer_1
6
CONTINUOUS
62
1
10
18.950410537281627
20
111.09460843580675
0
VERTEX
8
Layer_1
6
CONTINUOUS
62
1
10
18.950410537012303
20
108.09460843560839
0
VERTEX
8
Layer_1
6
CONTINUOUS
62
1
10
15.650410537416334
20
108.09460843580675
0
VERTEX
8
Layer_1
6
CONTINUOUS
62
1
10
15.650410537281616
20
111.09460843580675
0
SEQEND
0
POLYLINE
8
Layer_1
6
CONTINUOUS
62
1
66
1
10
0
20
0
70
129
40
0
41
0
0
VERTEX
8
Layer_1
6
CONTINUOUS
62
1
10
57.238630097113216
20
111.09460843209038
0
VERTEX
8
Layer_1
6
CONTINUOUS
62
1
10
53.938630097113261
20
111.09460842814107
0
VERTEX
8
Layer_1
6
CONTINUOUS
62
1
10
53.93863009684388
20
108.09460843233526
0
VERTEX
8
Layer_1
6
CONTINUOUS
62
1
10
57.238630097247935
20
108.09460843209038
0
VERTEX
8
Layer_1
6
CONTINUOUS
62
1
10
57.238630097113216
20
111.09460842784475
0
SEQEND
0
ARC
8
Layer_1
6
CONTINUOUS
62
1
10
60.325070317572269
20
183.91088278609232
40
2
50
0
51
90
0
LINE
8
Layer_1
6
CONTINUOUS
62
1
10
60.325070317572269
20
185.91088278609232
11
42.195270317572337
21
185.91088278609232
0
ARC
8
Layer_1
6
CONTINUOUS
62
1
10
42.19527031757228
20
183.91088278609232
40
2
50
90
51
180
0
LINE
8
Layer_1
6
CONTINUOUS
62
1
10
40.19527031757228
20
183.91088278609232
11
40.195270317697677
21
146.77508278608815
0
ARC
8
Layer_1
6
CONTINUOUS
62
1
10
41.395270317697666
20
146.77508278609221
40
1.1999999999999886
50
180
51
270
0
LINE
8
Layer_1
6
CONTINUOUS
62
1
10
41.395370317940987
20
145.57508278583271
11
42.745770317850869
21
145.57508278576182
0
ARC
8
Layer_1
6
CONTINUOUS
62
1
10
42.745770317787944
20
144.37508278576183
40
1.1999999999999886
50
0
51
90
0
LINE
8
Layer_1
6
CONTINUOUS
62
1
10
43.945770317787932
20
144.37508278575282
11
43.945770317770652
21
142.07508278574394
0
LINE
8
Layer_1
6
CONTINUOUS
62
1
10
43.945770317770652
20
142.07508278574394
11
42.445770317725689
21
142.07508278581753
0
LINE
8
Layer_1
6
CONTINUOUS
62
1
10
42.445770317725689
20
142.07508278581753
11
42.445770317608137
21
139.27508278577761
0
LINE
8
Layer_1
6
CONTINUOUS
62
1
10
42.445770317608137
20
139.27508278577761
11
30.443270317742915
21
139.27508278609218
0
LINE
8
Layer_1
6
CONTINUOUS
62
1
10
30.443270317742915
20
139.27508278609218
11
30.443270317729443
21
142.0750827861321
0
LINE
8
Layer_1
6
CONTINUOUS
62
1
10
30.443270317729443
20
142.0750827861321
11
28.94327031768448
21
142.07508278613713
0
LINE
8
Layer_1
6
CONTINUOUS
62
1
10
28.94327031768448
20
142.07508278613713
11
28.943270317787764
21
144.37508278614607
0
ARC
8
Layer_1
6
CONTINUOUS
62
1
10
30.143270317787753
20
144.37508278609215
40
1.1999999999999886
50
90
51
180
0
LINE
8
Layer_1
6
CONTINUOUS
62
1
10
30.143270317787753
20
145.57508278609214
11
31.493670317697635
21
145.5750827860922
0
ARC
8
Layer_1
6
CONTINUOUS
62
1
10
31.493670317697635
20
146.77508278609218
40
1.1999999999999886
50
270
51
0
0
LINE
8
Layer_1
6
CONTINUOUS
62
1
10
32.693670317697624
20
146.77508278609625
11
32.693670317572227
21
183.91088278609232
0
ARC
8
Layer_1
6
CONTINUOUS
62
1
10
30.693670317572227
20
183.91088278609232
40
2
50
0
51
90
0
LINE
8
Layer_1
6
CONTINUOUS
62
1
10
30.693670317572227
20
185.91088278609232
11
12.56397031757227
21
185.91088278609232
0
ARC
8
Layer_1
6
CONTINUOUS
62
1
10
12.56397031757227
20
183.91088278609232
40
2
50
90
51
180
0
POLYLINE
8
Layer_1
6
CONTINUOUS
62
1
66
1
10
0
20
0
70
128
40
0
41
0
0
VERTEX
8
Layer_1
6
CONTINUOUS
62
1
10
15.650410537205957
20
106.66268278795951
0
VERTEX
8
Layer_1
6
CONTINUOUS
62
1
10
15.650410537088405
20
105.86268278795944
0
VERTEX
8
Layer_1
6
CONTINUOUS
62
1
10
18.950410537088416
20
105.86268278795944
0
VERTEX
8
Layer_1
6
CONTINUOUS
62
1
10
18.950410537061103
20
106.66268278766319
0
SEQEND
0
POLYLINE
8
Layer_1
6
CONTINUOUS
62
1
66
1
10
0
20
0
70
128
40
0
41
0
0
VERTEX
8
Layer_1
6
CONTINUOUS
62
1
10
57.2386300970375
20
106.66268278422507
0
VERTEX
8
Layer_1
6
CONTINUOUS
62
1
10
57.238630096920005
20
105.86268278422509
0
VERTEX
8
Layer_1
6
CONTINUOUS
62
1
10
53.938630096919994
20
105.86268278452141
0
VERTEX
8
Layer_1
6
CONTINUOUS
62
1
10
53.938630096892709
20
106.66268278452139
0
SEQEND
0
POLYLINE
8
Layer_1
6
CONTINUOUS
62
1
66
1
10
0
20
0
70
129
40
0
41
0
0
VERTEX
8
Layer_1
6
CONTINUOUS
62
1
10
49.760220317572234
20
161.4929827857444
0
VERTEX
8
Layer_1
6
CONTINUOUS
62
1
10
49.760220317572234
20
155.4929827857444
0
VERTEX
8
Layer_1
6
CONTINUOUS
62
1
10
52.760220317572234
20
155.4929827857444
0
VERTEX
8
Layer_1
6
CONTINUOUS
62
1
10
52.760220317572234
20
161.4929827857444
0
VERTEX
8
Layer_1
6
CONTINUOUS
62
1
10
53.760220317572234
20
161.4929827857444
0
VERTEX
8
Layer_1
6
CONTINUOUS
62
1
10
53.760220317572234
20
169.99298278527306
0
VERTEX
8
Layer_1
6
CONTINUOUS
62
1
10
51.260220317931427
20
167.49298278574452
0
VERTEX
8
Layer_1
6
CONTINUOUS
62
1
10
48.760220317572234
20
169.99298278644028
0
VERTEX
8
Layer_1
6
CONTINUOUS
62
1
10
48.760220317572234
20
161.4929827857444
0
VERTEX
8
Layer_1
6
CONTINUOUS
62
1
10
49.760220317572234
20
161.4929827857444
0
SEQEND
0
ENDSEC
0
EOF
