  0
SECTION
  2
HEADER
  9
$ACADVER
  1
AC1014
  9
$HANDSEED
  5
FFFF
  9
$MEASUREMENT
 70
     1
  0
ENDSEC
  0
SECTION
  2
TABLES
  0
TABLE
  2
VPORT
  5
8
330
0
100
AcDbSymbolTable
 70
     4
  0
VPORT
  5
2E
330
8
100
AcDbSymbolTableRecord
100
AcDbViewportTableRecord
  2
*ACTIVE
 70
     0
 10
0.0
 20
0.0
 11
1.0
 21
1.0
 12
210.0
 22
148.5
 13
0.0
 23
0.0
 14
10.0
 24
10.0
 15
10.0
 25
10.0
 16
0.0
 26
0.0
 36
1.0
 17
0.0
 27
0.0
 37
0.0
 40
341.0
 41
1.24
 42
50.0
 43
0.0
 44
0.0
 50
0.0
 51
0.0
 71
     0
 72
   100
 73
     1
 74
     3
 75
     0
 76
     0
 77
     0
 78
     0
  0
ENDTAB
  0
TABLE
  2
LTYPE
  5
5
330
0
100
AcDbSymbolTable
 70
     1
  0
LTYPE
  5
14
330
5
100
AcDbSymbolTableRecord
100
AcDbLinetypeTableRecord
  2
BYBLOCK
 70
     0
  3

 72
    65
 73
     0
 40
0.0
  0
LTYPE
  5
15
330
5
100
AcDbSymbolTableRecord
100
AcDbLinetypeTableRecord
  2
BYLAYER
 70
     0
  3

 72
    65
 73
     0
 40
0.0
  0
LTYPE
  5
16
330
5
100
AcDbSymbolTableRecord
100
AcDbLinetypeTableRecord
  2
CONTINUOUS
 70
     0
  3
Solid line
 72
    65
 73
     0
 40
0.0
  0
ENDTAB
  0
TABLE
  2
LAYER
  5
2
100
AcDbSymbolTable
 70
1
  0
LAYER
  5
50
100
AcDbSymbolTableRecord
100
AcDbLayerTableRecord
  2
0
 70
0
  6
CONTINUOUS
  0
ENDTAB
  0
TABLE
  2
STYLE
  5
3
330
0
100
AcDbSymbolTable
 70
     1
  0
STYLE
  5
11
330
3
100
AcDbSymbolTableRecord
100
AcDbTextStyleTableRecord
  2
STANDARD
 70
     0
 40
0.0
 41
1.0
 50
0.0
 71
     0
 42
2.5
  3
txt
  4

  0
ENDTAB
  0
TABLE
  2
VIEW
  5
6
330
0
100
AcDbSymbolTable
 70
     0
  0
ENDTAB
  0
TABLE
  2
UCS
  5
7
330
0
100
AcDbSymbolTable
 70
     0
  0
ENDTAB
  0
TABLE
  2
APPID
  5
9
330
0
100
AcDbSymbolTable
 70
     2
  0
APPID
  5
12
330
9
100
AcDbSymbolTableRecord
100
AcDbRegAppTableRecord
  2
ACAD
 70
     0
  0
ENDTAB
  0
TABLE
  2
DIMSTYLE
  5
A
330
0
100
AcDbSymbolTable
 70
     1
  0
DIMSTYLE
105
27
330
A
100
AcDbSymbolTableRecord
100
AcDbDimStyleTableRecord
  2
ISO-25
 70
     0
  3

  4

  5

  6

  7

 40
1.0
 41
2.5
 42
0.625
 43
3.75
 44
1.25
 45
0.0
 46
0.0
 47
0.0
 48
0.0
140
2.5
141
2.5
142
0.0
143
0.03937007874016
144
1.0
145
0.0
146
1.0
147
0.625
 71
     0
 72
     0
 73
     0
 74
     0
 75
     0
 76
     0
 77
     1
 78
     8
170
     0
171
     3
172
     1
173
     0
174
     0
175
     0
176
     0
177
     0
178
     0
270
     2
271
     2
272
     2
273
     2
274
     3
340
11
275
     0
280
     0
281
     0
282
     0
283
     0
284
     8
285
     0
286
     0
287
     3
288
     0
  0
ENDTAB
  0
TABLE
  2
BLOCK_RECORD
  5
1
330
0
100
AcDbSymbolTable
 70
     1
  0
BLOCK_RECORD
  5
1F
330
1
100
AcDbSymbolTableRecord
100
AcDbBlockTableRecord
  2
*MODEL_SPACE
  0
BLOCK_RECORD
  5
1B
330
1
100
AcDbSymbolTableRecord
100
AcDbBlockTableRecord
  2
*PAPER_SPACE
  0
ENDTAB
  0
ENDSEC
  0
SECTION
  2
BLOCKS
  0
BLOCK
  5
20
330
1F
100
AcDbEntity
  8
0
100
AcDbBlockBegin
  2
*MODEL_SPACE
 70
     0
 10
0.0
 20
0.0
 30
0.0
  3
*MODEL_SPACE
  1

  0
ENDBLK
  5
21
330
1F
100
AcDbEntity
  8
0
100
AcDbBlockEnd
  0
BLOCK
  5
1C
330
1B
100
AcDbEntity
 67
     1
  8
0
100
AcDbBlockBegin
  2
*PAPER_SPACE
  1

  0
ENDBLK
  5
1D
330
1B
100
AcDbEntity
 67
     1
  8
0
100
AcDbBlockEnd
  0
ENDSEC
  0
SECTION
  2
ENTITIES
  0
LWPOLYLINE
  5
100
100
AcDbEntity
  8
0
 62
1
100
AcDbPolyline
 90
12
 70
1
 10
44.308639
 20
65.378661
 30
0.0
 10
69.838312
 20
65.378661
 30
0.0
 10
70.022658
 20
65.451194
 30
0.0
 10
70.098730
 20
65.625700
 30
0.0
 10
70.098730
 20
65.758982
 30
0.0
 10
70.022308
 20
65.933721
 30
0.0
 10
69.838312
 20
66.006021
 30
0.0
 10
44.308639
 20
66.006021
 30
0.0
 10
44.124449
 20
65.933488
 30
0.0
 10
44.048377
 20
65.758982
 30
0.0
 10
44.048377
 20
65.625700
 30
0.0
 10
44.124760
 20
65.450961
 30
0.0
  0
LWPOLYLINE
  5
101
100
AcDbEntity
  8
0
 62
1
100
AcDbPolyline
 90
12
 70
1
 10
44.308639
 20
129.680569
 30
0.0
 10
69.838312
 20
129.680569
 30
0.0
 10
70.022541
 20
129.608269
 30
0.0
 10
70.098730
 20
129.433530
 30
0.0
 10
70.098924
 20
129.300249
 30
0.0
 10
70.022658
 20
129.125626
 30
0.0
 10
69.838429
 20
129.053171
 30
0.0
 10
44.308639
 20
129.053171
 30
0.0
 10
44.124526
 20
129.125509
 30
0.0
 10
44.048377
 20
129.300249
 30
0.0
 10
44.048377
 20
129.433530
 30
0.0
 10
44.124332
 20
129.608153
 30
0.0
  0
LWPOLYLINE
  5
102
100
AcDbEntity
  8
0
 62
1
100
AcDbPolyline
 90
12
 70
1
 10
83.951265
 20
46.952834
 30
0.0
 10
83.951265
 20
47.086232
 30
0.0
 10
83.874765
 20
47.260972
 30
0.0
 10
83.690769
 20
47.333193
 30
0.0
 10
58.161096
 20
47.333193
 30
0.0
 10
57.976750
 20
47.260661
 30
0.0
 10
57.900601
 20
47.086232
 30
0.0
 10
57.900601
 20
46.952834
 30
0.0
 10
57.977100
 20
46.778095
 30
0.0
 10
58.161096
 20
46.705912
 30
0.0
 10
83.690769
 20
46.705912
 30
0.0
 10
83.875115
 20
46.778328
 30
0.0
  0
LWPOLYLINE
  5
103
100
AcDbEntity
  8
0
 62
1
100
AcDbPolyline
 90
12
 70
1
 10
30.195803
 20
127.575021
 30
0.0
 10
30.195803
 20
127.708419
 30
0.0
 10
30.271991
 20
127.883042
 30
0.0
 10
30.456298
 20
127.955380
 30
0.0
 10
55.985972
 20
127.955380
 30
0.0
 10
56.170201
 20
127.883159
 30
0.0
 10
56.246584
 20
127.708419
 30
0.0
 10
56.246584
 20
127.575021
 30
0.0
 10
56.170317
 20
127.400398
 30
0.0
 10
55.985972
 20
127.328099
 30
0.0
 10
30.456298
 20
127.328099
 30
0.0
 10
30.272186
 20
127.400281
 30
0.0
  0
LWPOLYLINE
  5
104
100
AcDbEntity
  8
0
 62
1
100
AcDbPolyline
 90
16
 70
0
 10
28.541941
 20
132.503470
 30
0.0
 10
42.133748
 20
132.503470
 30
0.0
 10
42.317860
 20
132.575886
 30
0.0
 10
42.394282
 20
132.750548
 30
0.0
 10
42.394282
 20
132.883829
 30
0.0
 10
42.317860
 20
133.058452
 30
0.0
 10
42.133748
 20
133.130868
 30
0.0
 10
28.541941
 20
133.130868
 30
0.0
 10
28.541941
 20
55.027529
 30
0.0
 10
42.133748
 20
55.027529
 30
0.0
 10
42.317860
 20
55.099868
 30
0.0
 10
42.394282
 20
55.274491
 30
0.0
 10
42.394282
 20
55.407888
 30
0.0
 10
42.317860
 20
55.582511
 30
0.0
 10
42.133748
 20
55.654811
 30
0.0
 10
28.541941
 20
55.654811
 30
0.0
  0
LWPOLYLINE
  5
105
100
AcDbEntity
  8
0
 62
1
100
AcDbPolyline
 90
12
 70
1
 10
30.195803
 20
60.583493
 30
0.0
 10
30.195803
 20
60.450095
 30
0.0
 10
30.272419
 20
60.275356
 30
0.0
 10
30.456298
 20
60.203134
 30
0.0
 10
55.985972
 20
60.203134
 30
0.0
 10
56.170317
 20
60.275667
 30
0.0
 10
56.246584
 20
60.450095
 30
0.0
 10
56.246584
 20
60.583493
 30
0.0
 10
56.169967
 20
60.758233
 30
0.0
 10
55.985972
 20
60.830532
 30
0.0
 10
30.456298
 20
60.830532
 30
0.0
 10
30.271991
 20
60.758000
 30
0.0
  0
LWPOLYLINE
  5
106
100
AcDbEntity
  8
0
 62
1
100
AcDbPolyline
 90
12
 70
1
 10
30.195803
 20
40.052274
 30
0.0
 10
30.195803
 20
40.185633
 30
0.0
 10
30.271991
 20
40.360295
 30
0.0
 10
30.456298
 20
40.432594
 30
0.0
 10
55.985972
 20
40.432478
 30
0.0
 10
56.170201
 20
40.360295
 30
0.0
 10
56.246506
 20
40.185555
 30
0.0
 10
56.246506
 20
40.052157
 30
0.0
 10
56.170317
 20
39.877535
 30
0.0
 10
55.985972
 20
39.805196
 30
0.0
 10
30.456298
 20
39.805313
 30
0.0
 10
30.272186
 20
39.877535
 30
0.0
  0
LWPOLYLINE
  5
107
100
AcDbEntity
  8
0
 62
1
100
AcDbPolyline
 90
12
 70
1
 10
30.195803
 20
64.033910
 30
0.0
 10
30.195803
 20
63.900512
 30
0.0
 10
30.272419
 20
63.725772
 30
0.0
 10
30.456298
 20
63.653551
 30
0.0
 10
55.985972
 20
63.653551
 30
0.0
 10
56.170317
 20
63.725967
 30
0.0
 10
56.246584
 20
63.900512
 30
0.0
 10
56.246584
 20
64.033910
 30
0.0
 10
56.169967
 20
64.208610
 30
0.0
 10
55.985972
 20
64.280832
 30
0.0
 10
30.456298
 20
64.280832
 30
0.0
 10
30.271991
 20
64.208299
 30
0.0
  0
LWPOLYLINE
  5
108
100
AcDbEntity
  8
0
 62
1
100
AcDbPolyline
 90
12
 70
1
 10
83.951265
 20
43.502457
 30
0.0
 10
83.951265
 20
43.635855
 30
0.0
 10
83.874765
 20
43.810556
 30
0.0
 10
83.690769
 20
43.882894
 30
0.0
 10
58.161096
 20
43.882894
 30
0.0
 10
57.976750
 20
43.810361
 30
0.0
 10
57.900601
 20
43.635855
 30
0.0
 10
57.900601
 20
43.502457
 30
0.0
 10
57.977100
 20
43.327717
 30
0.0
 10
58.161096
 20
43.255496
 30
0.0
 10
83.690769
 20
43.255496
 30
0.0
 10
83.875115
 20
43.328029
 30
0.0
  0
LWPOLYLINE
  5
109
100
AcDbEntity
  8
0
 62
1
100
AcDbPolyline
 90
12
 70
1
 10
30.195919
 20
43.502535
 30
0.0
 10
30.195919
 20
43.635933
 30
0.0
 10
30.272108
 20
43.810556
 30
0.0
 10
30.456415
 20
43.883010
 30
0.0
 10
55.986088
 20
43.882894
 30
0.0
 10
56.170317
 20
43.810556
 30
0.0
 10
56.246584
 20
43.635855
 30
0.0
 10
56.246584
 20
43.502457
 30
0.0
 10
56.170434
 20
43.327912
 30
0.0
 10
55.986088
 20
43.255496
 30
0.0
 10
30.456415
 20
43.255613
 30
0.0
 10
30.272302
 20
43.327834
 30
0.0
  0
LWPOLYLINE
  5
10a
100
AcDbEntity
  8
0
 62
1
100
AcDbPolyline
 90
12
 70
1
 10
83.951265
 20
131.025321
 30
0.0
 10
83.951265
 20
131.158719
 30
0.0
 10
83.874765
 20
131.333458
 30
0.0
 10
83.690769
 20
131.405680
 30
0.0
 10
58.160979
 20
131.405680
 30
0.0
 10
57.976673
 20
131.333225
 30
0.0
 10
57.900601
 20
131.158719
 30
0.0
 10
57.900601
 20
131.025321
 30
0.0
 10
57.977100
 20
130.850581
 30
0.0
 10
58.160979
 20
130.778398
 30
0.0
 10
83.690769
 20
130.778398
 30
0.0
 10
83.874999
 20
130.850931
 30
0.0
  0
LWPOLYLINE
  5
10b
100
AcDbEntity
  8
0
 62
1
100
AcDbPolyline
 90
12
 70
1
 10
83.951148
 20
40.052157
 30
0.0
 10
83.951148
 20
40.185555
 30
0.0
 10
83.874649
 20
40.360295
 30
0.0
 10
83.690653
 20
40.432478
 30
0.0
 10
58.160979
 20
40.432478
 30
0.0
 10
57.976673
 20
40.360062
 30
0.0
 10
57.900484
 20
40.185555
 30
0.0
 10
57.900484
 20
40.052157
 30
0.0
 10
57.976984
 20
39.877418
 30
0.0
 10
58.160979
 20
39.805196
 30
0.0
 10
83.690653
 20
39.805196
 30
0.0
 10
83.874999
 20
39.877612
 30
0.0
  0
LWPOLYLINE
  5
10c
100
AcDbEntity
  8
0
 62
1
100
AcDbPolyline
 90
12
 70
1
 10
44.308639
 20
62.555643
 30
0.0
 10
69.838312
 20
62.555643
 30
0.0
 10
70.022541
 20
62.483422
 30
0.0
 10
70.098730
 20
62.308682
 30
0.0
 10
70.098730
 20
62.175284
 30
0.0
 10
70.022658
 20
62.000661
 30
0.0
 10
69.838312
 20
61.928362
 30
0.0
 10
44.308639
 20
61.928362
 30
0.0
 10
44.124526
 20
62.000545
 30
0.0
 10
44.048377
 20
62.175284
 30
0.0
 10
44.048377
 20
62.308682
 30
0.0
 10
44.124332
 20
62.483305
 30
0.0
  0
LWPOLYLINE
  5
10d
100
AcDbEntity
  8
0
 62
1
100
AcDbPolyline
 90
16
 70
0
 10
85.605243
 20
132.503470
 30
0.0
 10
72.013320
 20
132.503470
 30
0.0
 10
71.829091
 20
132.575886
 30
0.0
 10
71.752708
 20
132.750548
 30
0.0
 10
71.752708
 20
132.883829
 30
0.0
 10
71.829091
 20
133.058452
 30
0.0
 10
72.013320
 20
133.130868
 30
0.0
 10
85.605243
 20
133.130868
 30
0.0
 10
85.605243
 20
55.027529
 30
0.0
 10
72.013320
 20
55.027529
 30
0.0
 10
71.829091
 20
55.099868
 30
0.0
 10
71.752708
 20
55.274491
 30
0.0
 10
71.752708
 20
55.407888
 30
0.0
 10
71.829091
 20
55.582511
 30
0.0
 10
72.013320
 20
55.654811
 30
0.0
 10
85.605243
 20
55.654811
 30
0.0
  0
LWPOLYLINE
  5
10e
100
AcDbEntity
  8
0
 62
1
100
AcDbPolyline
 90
12
 70
1
 10
83.951265
 20
64.033910
 30
0.0
 10
83.951265
 20
63.900512
 30
0.0
 10
83.874999
 20
63.725889
 30
0.0
 10
83.690769
 20
63.653551
 30
0.0
 10
58.160979
 20
63.653551
 30
0.0
 10
57.976750
 20
63.725772
 30
0.0
 10
57.900601
 20
63.900512
 30
0.0
 10
57.900601
 20
64.033910
 30
0.0
 10
57.976673
 20
64.208532
 30
0.0
 10
58.160979
 20
64.280832
 30
0.0
 10
83.690769
 20
64.280832
 30
0.0
 10
83.874882
 20
64.208610
 30
0.0
  0
LWPOLYLINE
  5
10f
100
AcDbEntity
  8
0
 62
1
100
AcDbPolyline
 90
12
 70
1
 10
30.195803
 20
131.025321
 30
0.0
 10
30.195803
 20
131.158719
 30
0.0
 10
30.271991
 20
131.333341
 30
0.0
 10
30.456298
 20
131.405680
 30
0.0
 10
55.985972
 20
131.405680
 30
0.0
 10
56.170201
 20
131.333458
 30
0.0
 10
56.246584
 20
131.158719
 30
0.0
 10
56.246584
 20
131.025321
 30
0.0
 10
56.170317
 20
130.850698
 30
0.0
 10
55.985972
 20
130.778398
 30
0.0
 10
30.456298
 20
130.778398
 30
0.0
 10
30.272186
 20
130.850581
 30
0.0
  0
LWPOLYLINE
  5
110
100
AcDbEntity
  8
0
 62
1
100
AcDbPolyline
 90
12
 70
1
 10
30.195919
 20
50.403251
 30
0.0
 10
30.195919
 20
50.536648
 30
0.0
 10
30.272108
 20
50.711271
 30
0.0
 10
30.456415
 20
50.783610
 30
0.0
 10
55.986088
 20
50.783493
 30
0.0
 10
56.170317
 20
50.711271
 30
0.0
 10
56.246584
 20
50.536532
 30
0.0
 10
56.246584
 20
50.403134
 30
0.0
 10
56.170434
 20
50.228511
 30
0.0
 10
55.986088
 20
50.156212
 30
0.0
 10
30.456415
 20
50.156289
 30
0.0
 10
30.272302
 20
50.228511
 30
0.0
  0
LWPOLYLINE
  5
111
100
AcDbEntity
  8
0
 62
1
100
AcDbPolyline
 90
12
 70
1
 10
83.951265
 20
60.583493
 30
0.0
 10
83.951265
 20
60.450095
 30
0.0
 10
83.874999
 20
60.275589
 30
0.0
 10
83.690769
 20
60.203134
 30
0.0
 10
58.160979
 20
60.203134
 30
0.0
 10
57.976750
 20
60.275356
 30
0.0
 10
57.900601
 20
60.450095
 30
0.0
 10
57.900601
 20
60.583493
 30
0.0
 10
57.976673
 20
60.758116
 30
0.0
 10
58.160979
 20
60.830532
 30
0.0
 10
83.690769
 20
60.830532
 30
0.0
 10
83.874882
 20
60.758233
 30
0.0
  0
LWPOLYLINE
  5
112
100
AcDbEntity
  8
0
 62
1
100
AcDbPolyline
 90
12
 70
1
 10
30.195919
 20
46.952951
 30
0.0
 10
30.195919
 20
47.086349
 30
0.0
 10
30.272108
 20
47.260972
 30
0.0
 10
30.456415
 20
47.333310
 30
0.0
 10
55.986088
 20
47.333193
 30
0.0
 10
56.170317
 20
47.260972
 30
0.0
 10
56.246584
 20
47.086232
 30
0.0
 10
56.246584
 20
46.952834
 30
0.0
 10
56.170434
 20
46.778211
 30
0.0
 10
55.986088
 20
46.705912
 30
0.0
 10
30.456415
 20
46.706029
 30
0.0
 10
30.272302
 20
46.778211
 30
0.0
  0
LWPOLYLINE
  5
113
100
AcDbEntity
  8
0
 62
1
100
AcDbPolyline
 90
12
 70
1
 10
83.951265
 20
50.403134
 30
0.0
 10
83.951265
 20
50.536532
 30
0.0
 10
83.874765
 20
50.711271
 30
0.0
 10
83.690769
 20
50.783493
 30
0.0
 10
58.161096
 20
50.783493
 30
0.0
 10
57.976750
 20
50.711038
 30
0.0
 10
57.900601
 20
50.536532
 30
0.0
 10
57.900601
 20
50.403134
 30
0.0
 10
57.977100
 20
50.228394
 30
0.0
 10
58.161096
 20
50.156212
 30
0.0
 10
83.690769
 20
50.156212
 30
0.0
 10
83.875115
 20
50.228744
 30
0.0
  0
LWPOLYLINE
  5
114
100
AcDbEntity
  8
0
 62
1
100
AcDbPolyline
 90
12
 70
1
 10
83.951265
 20
127.575021
 30
0.0
 10
83.951265
 20
127.708419
 30
0.0
 10
83.874765
 20
127.883159
 30
0.0
 10
83.690769
 20
127.955380
 30
0.0
 10
58.160979
 20
127.955380
 30
0.0
 10
57.976673
 20
127.882847
 30
0.0
 10
57.900601
 20
127.708419
 30
0.0
 10
57.900601
 20
127.575021
 30
0.0
 10
57.977100
 20
127.400281
 30
0.0
 10
58.160979
 20
127.328099
 30
0.0
 10
83.690769
 20
127.328099
 30
0.0
 10
83.874999
 20
127.400515
 30
0.0
  0
LWPOLYLINE
  5
115
100
AcDbEntity
  8
0
 62
1
100
AcDbPolyline
 90
12
 70
1
 10
44.308639
 20
126.230153
 30
0.0
 10
69.838312
 20
126.230153
 30
0.0
 10
70.022541
 20
126.157970
 30
0.0
 10
70.098730
 20
125.983230
 30
0.0
 10
70.098730
 20
125.849832
 30
0.0
 10
70.022658
 20
125.675209
 30
0.0
 10
69.838429
 20
125.602871
 30
0.0
 10
44.308639
 20
125.602871
 30
0.0
 10
44.124526
 20
125.675093
 30
0.0
 10
44.048377
 20
125.849832
 30
0.0
 10
44.048377
 20
125.983230
 30
0.0
 10
44.124332
 20
126.157853
 30
0.0
  0
LWPOLYLINE
  5
116
100
AcDbEntity
  8
0
 62
1
100
AcDbPolyline
 90
12
 70
1
 10
70.098730
 20
41.910627
 30
0.0
 10
70.098730
 20
41.777346
 30
0.0
 10
70.022658
 20
41.602723
 30
0.0
 10
69.838312
 20
41.530307
 30
0.0
 10
44.308755
 20
41.530385
 30
0.0
 10
44.124526
 20
41.602723
 30
0.0
 10
44.048260
 20
41.777463
 30
0.0
 10
44.048260
 20
41.910744
 30
0.0
 10
44.124332
 20
42.085367
 30
0.0
 10
44.308755
 20
42.157783
 30
0.0
 10
69.838312
 20
42.157705
 30
0.0
 10
70.022425
 20
42.085484
 30
0.0
  0
LWPOLYLINE
  5
117
100
AcDbEntity
  8
0
 62
1
100
AcDbPolyline
 90
12
 70
1
 10
70.098846
 20
45.361044
 30
0.0
 10
70.098846
 20
45.227646
 30
0.0
 10
70.022775
 20
45.053023
 30
0.0
 10
69.838429
 20
44.980685
 30
0.0
 10
44.308872
 20
44.980801
 30
0.0
 10
44.124643
 20
45.053023
 30
0.0
 10
44.048377
 20
45.227762
 30
0.0
 10
44.048377
 20
45.361160
 30
0.0
 10
44.124449
 20
45.535783
 30
0.0
 10
44.308872
 20
45.608082
 30
0.0
 10
69.838429
 20
45.608005
 30
0.0
 10
70.022541
 20
45.535783
 30
0.0
  0
LWPOLYLINE
  5
118
100
AcDbEntity
  8
0
 62
1
100
AcDbPolyline
 90
12
 70
1
 10
70.098846
 20
48.811343
 30
0.0
 10
70.098846
 20
48.678062
 30
0.0
 10
70.022775
 20
48.503439
 30
0.0
 10
69.838429
 20
48.430984
 30
0.0
 10
44.308872
 20
48.431101
 30
0.0
 10
44.124643
 20
48.503439
 30
0.0
 10
44.048377
 20
48.678179
 30
0.0
 10
44.048377
 20
48.811460
 30
0.0
 10
44.124449
 20
48.986083
 30
0.0
 10
44.308872
 20
49.058499
 30
0.0
 10
69.838429
 20
49.058382
 30
0.0
 10
70.022541
 20
48.986083
 30
0.0
  0
LWPOLYLINE
  5
119
100
AcDbEntity
  8
0
 62
1
100
AcDbPolyline
 90
8
 70
0
 10
85.605165
 20
41.530307
 30
0.0
 10
72.013203
 20
41.530307
 30
0.0
 10
71.829091
 20
41.602723
 30
0.0
 10
71.752708
 20
41.777346
 30
0.0
 10
71.752708
 20
41.910627
 30
0.0
 10
71.829091
 20
42.085250
 30
0.0
 10
72.013203
 20
42.157705
 30
0.0
 10
85.605165
 20
42.157705
 30
0.0
  0
LWPOLYLINE
  5
11a
100
AcDbEntity
  8
0
 62
1
100
AcDbPolyline
 90
8
 70
0
 10
85.605243
 20
44.980685
 30
0.0
 10
72.013320
 20
44.980685
 30
0.0
 10
71.829208
 20
45.053023
 30
0.0
 10
71.752825
 20
45.227646
 30
0.0
 10
71.752825
 20
45.361044
 30
0.0
 10
71.829208
 20
45.535666
 30
0.0
 10
72.013320
 20
45.608005
 30
0.0
 10
85.605243
 20
45.608005
 30
0.0
  0
SPLINE
  5
11b
100
AcDbEntity
  8
0
 62
1
100
AcDbSpline
 70
8
 71
3
 72
8
 73
4
 74
0
 40
0
 40
0
 40
0
 40
0
 40
1
 40
1
 40
1
 40
1
 10
28.541824
 20
35.736755
 30
0.0
 10
28.541824
 20
35.151943
 30
0.0
 10
28.774201
 20
34.591128
 30
0.0
 10
29.187618
 20
34.177594
 30
0.0
  0
SPLINE
  5
11c
100
AcDbEntity
  8
0
 62
1
100
AcDbSpline
 70
8
 71
3
 72
8
 73
4
 74
0
 40
0
 40
0
 40
0
 40
0
 40
1
 40
1
 40
1
 40
1
 10
29.187618
 20
34.177594
 30
0.0
 10
29.601152
 20
33.764177
 30
0.0
 10
30.161967
 20
33.531878
 30
0.0
 10
30.746701
 20
33.531878
 30
0.0
  0
LWPOLYLINE
  5
11d
100
AcDbEntity
  8
0
 62
1
100
AcDbPolyline
 90
9
 70
0
 10
28.541941
 20
48.431101
 30
0.0
 10
42.133864
 20
48.431101
 30
0.0
 10
42.317977
 20
48.503517
 30
0.0
 10
42.394360
 20
48.678179
 30
0.0
 10
42.394360
 20
48.811460
 30
0.0
 10
42.317977
 20
48.986083
 30
0.0
 10
42.133864
 20
49.058499
 30
0.0
 10
28.541941
 20
49.058499
 30
0.0
 10
28.541824
 20
35.736755
 30
0.0
  0
SPLINE
  5
11e
100
AcDbEntity
  8
0
 62
1
100
AcDbSpline
 70
8
 71
3
 72
8
 73
4
 74
0
 40
0
 40
0
 40
0
 40
0
 40
1
 40
1
 40
1
 40
1
 10
83.400289
 20
33.531801
 30
0.0
 10
84.618021
 20
33.531801
 30
0.0
 10
85.605165
 20
34.519023
 30
0.0
 10
85.605165
 20
35.736638
 30
0.0
  0
LWPOLYLINE
  5
11f
100
AcDbEntity
  8
0
 62
1
100
AcDbPolyline
 90
2
 70
0
 10
30.746701
 20
33.531878
 30
0.0
 10
83.400289
 20
33.531801
 30
0.0
  0
LWPOLYLINE
  5
120
100
AcDbEntity
  8
0
 62
1
100
AcDbPolyline
 90
9
 70
0
 10
85.605165
 20
35.736638
 30
0.0
 10
85.605243
 20
49.058382
 30
0.0
 10
72.013320
 20
49.058382
 30
0.0
 10
71.829208
 20
48.985966
 30
0.0
 10
71.752825
 20
48.811343
 30
0.0
 10
71.752825
 20
48.678062
 30
0.0
 10
71.829208
 20
48.503439
 30
0.0
 10
72.013320
 20
48.430984
 30
0.0
 10
85.605243
 20
48.430984
 30
0.0
  0
LWPOLYLINE
  5
121
100
AcDbEntity
  8
0
 62
1
100
AcDbPolyline
 90
8
 70
0
 10
28.541941
 20
44.980801
 30
0.0
 10
42.133864
 20
44.980801
 30
0.0
 10
42.317977
 20
45.053139
 30
0.0
 10
42.394360
 20
45.227762
 30
0.0
 10
42.394360
 20
45.361160
 30
0.0
 10
42.317977
 20
45.535783
 30
0.0
 10
42.133864
 20
45.608082
 30
0.0
 10
28.541941
 20
45.608082
 30
0.0
  0
LWPOLYLINE
  5
122
100
AcDbEntity
  8
0
 62
1
100
AcDbPolyline
 90
8
 70
0
 10
28.541824
 20
41.530385
 30
0.0
 10
42.133748
 20
41.530385
 30
0.0
 10
42.317860
 20
41.602840
 30
0.0
 10
42.394282
 20
41.777463
 30
0.0
 10
42.394282
 20
41.910744
 30
0.0
 10
42.317860
 20
42.085367
 30
0.0
 10
42.133748
 20
42.157783
 30
0.0
 10
28.541824
 20
42.157783
 30
0.0
  0
LWPOLYLINE
  5
123
100
AcDbEntity
  8
0
 62
1
100
AcDbPolyline
 90
8
 70
0
 10
28.541941
 20
61.928362
 30
0.0
 10
42.133748
 20
61.928362
 30
0.0
 10
42.317860
 20
62.000661
 30
0.0
 10
42.394282
 20
62.175284
 30
0.0
 10
42.394282
 20
62.308682
 30
0.0
 10
42.317860
 20
62.483305
 30
0.0
 10
42.133748
 20
62.555643
 30
0.0
 10
28.541941
 20
62.555643
 30
0.0
  0
LWPOLYLINE
  5
124
100
AcDbEntity
  8
0
 62
1
100
AcDbPolyline
 90
8
 70
0
 10
28.541941
 20
66.006021
 30
0.0
 10
42.133748
 20
66.006021
 30
0.0
 10
42.317860
 20
65.933605
 30
0.0
 10
42.394282
 20
65.758982
 30
0.0
 10
42.394282
 20
65.625700
 30
0.0
 10
42.317860
 20
65.451077
 30
0.0
 10
42.133748
 20
65.378661
 30
0.0
 10
28.541941
 20
65.378661
 30
0.0
  0
LWPOLYLINE
  5
125
100
AcDbEntity
  8
0
 62
1
100
AcDbPolyline
 90
8
 70
0
 10
85.605243
 20
66.006021
 30
0.0
 10
72.013320
 20
66.006021
 30
0.0
 10
71.829091
 20
65.933605
 30
0.0
 10
71.752708
 20
65.758982
 30
0.0
 10
71.752708
 20
65.625700
 30
0.0
 10
71.829091
 20
65.451077
 30
0.0
 10
72.013320
 20
65.378661
 30
0.0
 10
85.605243
 20
65.378661
 30
0.0
  0
LWPOLYLINE
  5
126
100
AcDbEntity
  8
0
 62
1
100
AcDbPolyline
 90
8
 70
0
 10
85.605243
 20
62.555643
 30
0.0
 10
72.013320
 20
62.555643
 30
0.0
 10
71.829091
 20
62.483305
 30
0.0
 10
71.752708
 20
62.308682
 30
0.0
 10
71.752708
 20
62.175284
 30
0.0
 10
71.829091
 20
62.000661
 30
0.0
 10
72.013320
 20
61.928362
 30
0.0
 10
85.605243
 20
61.928362
 30
0.0
  0
LWPOLYLINE
  5
127
100
AcDbEntity
  8
0
 62
1
100
AcDbPolyline
 90
8
 70
0
 10
85.605243
 20
129.053171
 30
0.0
 10
72.013320
 20
129.053171
 30
0.0
 10
71.829091
 20
129.125626
 30
0.0
 10
71.752708
 20
129.300249
 30
0.0
 10
71.752708
 20
129.433530
 30
0.0
 10
71.829091
 20
129.608153
 30
0.0
 10
72.013320
 20
129.680569
 30
0.0
 10
85.605243
 20
129.680569
 30
0.0
  0
LWPOLYLINE
  5
128
100
AcDbEntity
  8
0
 62
1
100
AcDbPolyline
 90
8
 70
0
 10
85.605243
 20
126.230153
 30
0.0
 10
72.013320
 20
126.230153
 30
0.0
 10
71.829091
 20
126.157853
 30
0.0
 10
71.752708
 20
125.983230
 30
0.0
 10
71.752708
 20
125.849832
 30
0.0
 10
71.829091
 20
125.675209
 30
0.0
 10
72.013320
 20
125.602871
 30
0.0
 10
85.605243
 20
125.602871
 30
0.0
  0
LWPOLYLINE
  5
129
100
AcDbEntity
  8
0
 62
1
100
AcDbPolyline
 90
8
 70
0
 10
28.541941
 20
129.680569
 30
0.0
 10
42.133748
 20
129.680569
 30
0.0
 10
42.317860
 20
129.608153
 30
0.0
 10
42.394282
 20
129.433530
 30
0.0
 10
42.394282
 20
129.300249
 30
0.0
 10
42.317860
 20
129.125626
 30
0.0
 10
42.133748
 20
129.053171
 30
0.0
 10
28.541941
 20
129.053171
 30
0.0
  0
LWPOLYLINE
  5
12a
100
AcDbEntity
  8
0
 62
1
100
AcDbPolyline
 90
8
 70
0
 10
28.541941
 20
126.230153
 30
0.0
 10
42.133748
 20
126.230153
 30
0.0
 10
42.317860
 20
126.157853
 30
0.0
 10
42.394282
 20
125.983230
 30
0.0
 10
42.394282
 20
125.849832
 30
0.0
 10
42.317860
 20
125.675209
 30
0.0
 10
42.133748
 20
125.602871
 30
0.0
 10
28.541941
 20
125.602871
 30
0.0
  0
LWPOLYLINE
  5
12b
100
AcDbEntity
  8
0
 62
1
100
AcDbPolyline
 90
12
 70
1
 10
30.195803
 20
57.133077
 30
0.0
 10
30.195803
 20
56.999679
 30
0.0
 10
30.272419
 20
56.824940
 30
0.0
 10
30.456298
 20
56.752757
 30
0.0
 10
55.985972
 20
56.752757
 30
0.0
 10
56.170317
 20
56.825290
 30
0.0
 10
56.246584
 20
56.999679
 30
0.0
 10
56.246584
 20
57.133077
 30
0.0
 10
56.169967
 20
57.307817
 30
0.0
 10
55.985972
 20
57.380116
 30
0.0
 10
30.456298
 20
57.380116
 30
0.0
 10
30.271991
 20
57.307583
 30
0.0
  0
LWPOLYLINE
  5
12c
100
AcDbEntity
  8
0
 62
1
100
AcDbPolyline
 90
12
 70
1
 10
44.308639
 20
59.105227
 30
0.0
 10
69.838312
 20
59.105227
 30
0.0
 10
70.022541
 20
59.033005
 30
0.0
 10
70.098730
 20
58.858266
 30
0.0
 10
70.098730
 20
58.724868
 30
0.0
 10
70.022658
 20
58.550245
 30
0.0
 10
69.838312
 20
58.477946
 30
0.0
 10
44.308639
 20
58.477946
 30
0.0
 10
44.124526
 20
58.550167
 30
0.0
 10
44.048377
 20
58.724868
 30
0.0
 10
44.048377
 20
58.858266
 30
0.0
 10
44.124332
 20
59.032889
 30
0.0
  0
LWPOLYLINE
  5
12d
100
AcDbEntity
  8
0
 62
1
100
AcDbPolyline
 90
12
 70
1
 10
83.951265
 20
57.133077
 30
0.0
 10
83.951265
 20
56.999679
 30
0.0
 10
83.874999
 20
56.825173
 30
0.0
 10
83.690769
 20
56.752757
 30
0.0
 10
58.160979
 20
56.752757
 30
0.0
 10
57.976750
 20
56.824940
 30
0.0
 10
57.900601
 20
56.999679
 30
0.0
 10
57.900601
 20
57.133077
 30
0.0
 10
57.976673
 20
57.307700
 30
0.0
 10
58.160979
 20
57.380116
 30
0.0
 10
83.690769
 20
57.380116
 30
0.0
 10
83.874882
 20
57.307817
 30
0.0
  0
LWPOLYLINE
  5
12e
100
AcDbEntity
  8
0
 62
1
100
AcDbPolyline
 90
8
 70
0
 10
28.541941
 20
58.477946
 30
0.0
 10
42.133748
 20
58.477946
 30
0.0
 10
42.317860
 20
58.550245
 30
0.0
 10
42.394282
 20
58.724868
 30
0.0
 10
42.394282
 20
58.858266
 30
0.0
 10
42.317860
 20
59.032889
 30
0.0
 10
42.133748
 20
59.105227
 30
0.0
 10
28.541941
 20
59.105227
 30
0.0
  0
LWPOLYLINE
  5
12f
100
AcDbEntity
  8
0
 62
1
100
AcDbPolyline
 90
8
 70
0
 10
85.605243
 20
59.105227
 30
0.0
 10
72.013320
 20
59.105227
 30
0.0
 10
71.829091
 20
59.032889
 30
0.0
 10
71.752708
 20
58.858266
 30
0.0
 10
71.752708
 20
58.724868
 30
0.0
 10
71.829091
 20
58.550245
 30
0.0
 10
72.013320
 20
58.477946
 30
0.0
 10
85.605243
 20
58.477946
 30
0.0
  0
LWPOLYLINE
  5
130
100
AcDbEntity
  8
0
 62
1
100
AcDbPolyline
 90
12
 70
1
 10
44.308639
 20
133.130868
 30
0.0
 10
69.838312
 20
133.130868
 30
0.0
 10
70.022541
 20
133.058569
 30
0.0
 10
70.098730
 20
132.883829
 30
0.0
 10
70.098924
 20
132.750548
 30
0.0
 10
70.022658
 20
132.575886
 30
0.0
 10
69.838429
 20
132.503470
 30
0.0
 10
44.308639
 20
132.503470
 30
0.0
 10
44.124526
 20
132.575809
 30
0.0
 10
44.048377
 20
132.750548
 30
0.0
 10
44.048377
 20
132.883829
 30
0.0
 10
44.124332
 20
133.058452
 30
0.0
  0
LWPOLYLINE
  5
131
100
AcDbEntity
  8
0
 62
1
100
AcDbPolyline
 90
12
 70
1
 10
83.951265
 20
134.475620
 30
0.0
 10
83.951265
 20
134.609018
 30
0.0
 10
83.874765
 20
134.783758
 30
0.0
 10
83.690769
 20
134.855979
 30
0.0
 10
58.160979
 20
134.855979
 30
0.0
 10
57.976673
 20
134.783524
 30
0.0
 10
57.900601
 20
134.609018
 30
0.0
 10
57.900601
 20
134.475620
 30
0.0
 10
57.977100
 20
134.300881
 30
0.0
 10
58.160979
 20
134.228659
 30
0.0
 10
83.690769
 20
134.228659
 30
0.0
 10
83.874999
 20
134.301231
 30
0.0
  0
LWPOLYLINE
  5
132
100
AcDbEntity
  8
0
 62
1
100
AcDbPolyline
 90
12
 70
1
 10
30.195803
 20
134.475620
 30
0.0
 10
30.195803
 20
134.609018
 30
0.0
 10
30.271991
 20
134.783641
 30
0.0
 10
30.456298
 20
134.855979
 30
0.0
 10
55.985972
 20
134.855979
 30
0.0
 10
56.170201
 20
134.783758
 30
0.0
 10
56.246584
 20
134.609018
 30
0.0
 10
56.246584
 20
134.475620
 30
0.0
 10
56.170317
 20
134.300997
 30
0.0
 10
55.985972
 20
134.228659
 30
0.0
 10
30.456298
 20
134.228659
 30
0.0
 10
30.272186
 20
134.300881
 30
0.0
  0
LWPOLYLINE
  5
133
100
AcDbEntity
  8
0
 62
1
100
AcDbPolyline
 90
12
 70
1
 10
30.195803
 20
53.682661
 30
0.0
 10
30.195803
 20
53.549263
 30
0.0
 10
30.272419
 20
53.374523
 30
0.0
 10
30.456298
 20
53.302341
 30
0.0
 10
55.985972
 20
53.302341
 30
0.0
 10
56.170317
 20
53.374873
 30
0.0
 10
56.246584
 20
53.549263
 30
0.0
 10
56.246584
 20
53.682661
 30
0.0
 10
56.169967
 20
53.857400
 30
0.0
 10
55.985972
 20
53.929739
 30
0.0
 10
30.456298
 20
53.929739
 30
0.0
 10
30.271991
 20
53.857206
 30
0.0
  0
LWPOLYLINE
  5
134
100
AcDbEntity
  8
0
 62
1
100
AcDbPolyline
 90
12
 70
1
 10
44.308639
 20
55.654811
 30
0.0
 10
69.838312
 20
55.654811
 30
0.0
 10
70.022541
 20
55.582628
 30
0.0
 10
70.098730
 20
55.407888
 30
0.0
 10
70.098730
 20
55.274491
 30
0.0
 10
70.022658
 20
55.099868
 30
0.0
 10
69.838312
 20
55.027529
 30
0.0
 10
44.308639
 20
55.027529
 30
0.0
 10
44.124526
 20
55.099751
 30
0.0
 10
44.048377
 20
55.274491
 30
0.0
 10
44.048377
 20
55.407888
 30
0.0
 10
44.124332
 20
55.582511
 30
0.0
  0
SPLINE
  5
135
100
AcDbEntity
  8
0
 62
1
100
AcDbSpline
 70
8
 71
3
 72
8
 73
4
 74
0
 40
0
 40
0
 40
0
 40
0
 40
1
 40
1
 40
1
 40
1
 10
27.437967
 20
25.533294
 30
0.0
 10
25.976112
 20
25.533372
 30
0.0
 10
24.574034
 20
26.114022
 30
0.0
 10
23.540298
 20
27.147797
 30
0.0
  0
SPLINE
  5
136
100
AcDbEntity
  8
0
 62
1
100
AcDbSpline
 70
8
 71
3
 72
8
 73
4
 74
0
 40
0
 40
0
 40
0
 40
0
 40
1
 40
1
 40
1
 40
1
 10
23.540298
 20
27.147797
 30
0.0
 10
22.506523
 20
28.181534
 30
0.0
 10
21.925756
 20
29.583612
 30
0.0
 10
21.925756
 20
31.045466
 30
0.0
  0
LWPOLYLINE
  5
137
100
AcDbEntity
  8
0
 62
1
100
AcDbPolyline
 90
12
 70
1
 10
83.951265
 20
53.682661
 30
0.0
 10
83.951265
 20
53.549263
 30
0.0
 10
83.874999
 20
53.374757
 30
0.0
 10
83.690769
 20
53.302341
 30
0.0
 10
58.160979
 20
53.302341
 30
0.0
 10
57.976750
 20
53.374523
 30
0.0
 10
57.900601
 20
53.549263
 30
0.0
 10
57.900601
 20
53.682661
 30
0.0
 10
57.976673
 20
53.857284
 30
0.0
 10
58.160979
 20
53.929739
 30
0.0
 10
83.690769
 20
53.929739
 30
0.0
 10
83.874882
 20
53.857400
 30
0.0
  0
SPLINE
  5
138
100
AcDbEntity
  8
0
 62
1
100
AcDbSpline
 70
8
 71
3
 72
8
 73
4
 74
0
 40
0
 40
0
 40
0
 40
0
 40
1
 40
1
 40
1
 40
1
 10
21.925756
 20
135.617320
 30
0.0
 10
21.925756
 20
137.079135
 30
0.0
 10
22.506523
 20
138.481213
 30
0.0
 10
23.540298
 20
139.514988
 30
0.0
  0
SPLINE
  5
139
100
AcDbEntity
  8
0
 62
1
100
AcDbSpline
 70
8
 71
3
 72
8
 73
4
 74
0
 40
0
 40
0
 40
0
 40
0
 40
1
 40
1
 40
1
 40
1
 10
23.540298
 20
139.514988
 30
0.0
 10
24.574034
 20
140.548725
 30
0.0
 10
25.976112
 20
141.129375
 30
0.0
 10
27.437967
 20
141.129375
 30
0.0
  0
LWPOLYLINE
  5
13a
100
AcDbEntity
  8
0
 62
1
100
AcDbPolyline
 90
2
 70
0
 10
21.925756
 20
31.045466
 30
0.0
 10
21.925756
 20
135.617320
 30
0.0
  0
SPLINE
  5
13b
100
AcDbEntity
  8
0
 62
1
100
AcDbSpline
 70
8
 71
3
 72
8
 73
4
 74
0
 40
0
 40
0
 40
0
 40
0
 40
1
 40
1
 40
1
 40
1
 10
86.709140
 20
141.129375
 30
0.0
 10
88.170955
 20
141.129375
 30
0.0
 10
89.573033
 20
140.548725
 30
0.0
 10
90.606809
 20
139.514988
 30
0.0
  0
SPLINE
  5
13c
100
AcDbEntity
  8
0
 62
1
100
AcDbSpline
 70
8
 71
3
 72
8
 73
4
 74
0
 40
0
 40
0
 40
0
 40
0
 40
1
 40
1
 40
1
 40
1
 10
90.606809
 20
139.514988
 30
0.0
 10
91.640545
 20
138.481213
 30
0.0
 10
92.221312
 20
137.079135
 30
0.0
 10
92.221312
 20
135.617320
 30
0.0
  0
LWPOLYLINE
  5
13d
100
AcDbEntity
  8
0
 62
1
100
AcDbPolyline
 90
2
 70
0
 10
27.437967
 20
141.129375
 30
0.0
 10
86.709140
 20
141.129375
 30
0.0
  0
SPLINE
  5
13e
100
AcDbEntity
  8
0
 62
1
100
AcDbSpline
 70
8
 71
3
 72
8
 73
4
 74
0
 40
0
 40
0
 40
0
 40
0
 40
1
 40
1
 40
1
 40
1
 10
92.221312
 20
31.045466
 30
0.0
 10
92.221195
 20
28.001194
 30
0.0
 10
89.753412
 20
25.533372
 30
0.0
 10
86.709140
 20
25.533294
 30
0.0
  0
LWPOLYLINE
  5
13f
100
AcDbEntity
  8
0
 62
1
100
AcDbPolyline
 90
2
 70
0
 10
92.221312
 20
135.617320
 30
0.0
 10
92.221312
 20
31.045466
 30
0.0
  0
LWPOLYLINE
  5
140
100
AcDbEntity
  8
0
 62
1
100
AcDbPolyline
 90
2
 70
0
 10
86.709140
 20
25.533294
 30
0.0
 10
27.437967
 20
25.533294
 30
0.0
  0
SPLINE
  5
141
100
AcDbEntity
  8
0
 62
1
100
AcDbSpline
 70
8
 71
3
 72
8
 73
4
 74
0
 40
0
 40
0
 40
0
 40
0
 40
1
 40
1
 40
1
 40
1
 10
37.361409
 20
76.430230
 30
0.0
 10
36.776597
 20
76.430346
 30
0.0
 10
36.215781
 20
76.662645
 30
0.0
 10
35.802248
 20
77.076062
 30
0.0
  0
SPLINE
  5
142
100
AcDbEntity
  8
0
 62
1
100
AcDbSpline
 70
8
 71
3
 72
8
 73
4
 74
0
 40
0
 40
0
 40
0
 40
0
 40
1
 40
1
 40
1
 40
1
 10
35.802248
 20
77.076062
 30
0.0
 10
35.388831
 20
77.489557
 30
0.0
 10
35.156532
 20
78.050372
 30
0.0
 10
35.156532
 20
78.635106
 30
0.0
  0
LWPOLYLINE
  5
143
100
AcDbEntity
  8
0
 62
1
100
AcDbPolyline
 90
9
 70
1
 10
39.086520
 20
93.978703
 30
0.0
 10
39.086520
 20
87.364112
 30
0.0
 10
42.393815
 20
87.364112
 30
0.0
 10
42.393815
 20
93.978703
 30
0.0
 10
43.496273
 20
93.978703
 30
0.0
 10
43.496273
 20
103.349419
 30
0.0
 10
40.740187
 20
100.593333
 30
0.0
 10
37.984062
 20
103.349536
 30
0.0
 10
37.984062
 20
93.978703
 30
0.0
  0
SPLINE
  5
144
100
AcDbEntity
  8
0
 62
1
100
AcDbSpline
 70
8
 71
3
 72
8
 73
4
 74
0
 40
0
 40
0
 40
0
 40
0
 40
1
 40
1
 40
1
 40
1
 10
35.156532
 20
112.078425
 30
0.0
 10
35.156532
 20
112.663237
 30
0.0
 10
35.388831
 20
113.224052
 30
0.0
 10
35.802248
 20
113.637586
 30
0.0
  0
SPLINE
  5
145
100
AcDbEntity
  8
0
 62
1
100
AcDbSpline
 70
8
 71
3
 72
8
 73
4
 74
0
 40
0
 40
0
 40
0
 40
0
 40
1
 40
1
 40
1
 40
1
 10
35.802248
 20
113.637586
 30
0.0
 10
36.215781
 20
114.051003
 30
0.0
 10
36.776597
 20
114.283302
 30
0.0
 10
37.361409
 20
114.283302
 30
0.0
  0
LWPOLYLINE
  5
146
100
AcDbEntity
  8
0
 62
1
100
AcDbPolyline
 90
2
 70
0
 10
35.156532
 20
78.635106
 30
0.0
 10
35.156532
 20
112.078425
 30
0.0
  0
SPLINE
  5
147
100
AcDbEntity
  8
0
 62
1
100
AcDbSpline
 70
8
 71
3
 72
8
 73
4
 74
0
 40
0
 40
0
 40
0
 40
0
 40
1
 40
1
 40
1
 40
1
 10
44.119043
 20
114.283302
 30
0.0
 10
44.703777
 20
114.283302
 30
0.0
 10
45.264553
 20
114.051003
 30
0.0
 10
45.678087
 20
113.637586
 30
0.0
  0
SPLINE
  5
148
100
AcDbEntity
  8
0
 62
1
100
AcDbSpline
 70
8
 71
3
 72
8
 73
4
 74
0
 40
0
 40
0
 40
0
 40
0
 40
1
 40
1
 40
1
 40
1
 10
45.678087
 20
113.637586
 30
0.0
 10
46.091504
 20
113.224052
 30
0.0
 10
46.323803
 20
112.663237
 30
0.0
 10
46.323803
 20
112.078425
 30
0.0
  0
LWPOLYLINE
  5
149
100
AcDbEntity
  8
0
 62
1
100
AcDbPolyline
 90
2
 70
0
 10
37.361409
 20
114.283302
 30
0.0
 10
44.119043
 20
114.283302
 30
0.0
  0
SPLINE
  5
14a
100
AcDbEntity
  8
0
 62
1
100
AcDbSpline
 70
8
 71
3
 72
8
 73
4
 74
0
 40
0
 40
0
 40
0
 40
0
 40
1
 40
1
 40
1
 40
1
 10
46.323803
 20
78.635106
 30
0.0
 10
46.323803
 20
77.417452
 30
0.0
 10
45.336658
 20
76.430346
 30
0.0
 10
44.118926
 20
76.430230
 30
0.0
  0
LWPOLYLINE
  5
14b
100
AcDbEntity
  8
0
 62
1
100
AcDbPolyline
 90
2
 70
0
 10
46.323803
 20
112.078425
 30
0.0
 10
46.323803
 20
78.635106
 30
0.0
  0
SPLINE
  5
14c
100
AcDbEntity
  8
0
 62
1
100
AcDbSpline
 70
8
 71
3
 72
8
 73
4
 74
0
 40
0
 40
0
 40
0
 40
0
 40
1
 40
1
 40
1
 40
1
 10
70.028064
 20
114.283302
 30
0.0
 10
69.443330
 20
114.283302
 30
0.0
 10
68.882514
 20
114.051003
 30
0.0
 10
68.468981
 20
113.637586
 30
0.0
  0
SPLINE
  5
14d
100
AcDbEntity
  8
0
 62
1
100
AcDbSpline
 70
8
 71
3
 72
8
 73
4
 74
0
 40
0
 40
0
 40
0
 40
0
 40
1
 40
1
 40
1
 40
1
 10
68.468981
 20
113.637586
 30
0.0
 10
68.055564
 20
113.224052
 30
0.0
 10
67.823304
 20
112.663237
 30
0.0
 10
67.823304
 20
112.078503
 30
0.0
  0
LWPOLYLINE
  5
14e
100
AcDbEntity
  8
0
 62
1
100
AcDbPolyline
 90
2
 70
0
 10
44.118926
 20
76.430230
 30
0.0
 10
37.361409
 20
76.430230
 30
0.0
  0
SPLINE
  5
14f
100
AcDbEntity
  8
0
 62
1
100
AcDbSpline
 70
8
 71
3
 72
8
 73
4
 74
0
 40
0
 40
0
 40
0
 40
0
 40
1
 40
1
 40
1
 40
1
 10
67.823304
 20
78.635106
 30
0.0
 10
67.823304
 20
78.050372
 30
0.0
 10
68.055564
 20
77.489557
 30
0.0
 10
68.468981
 20
77.076062
 30
0.0
  0
SPLINE
  5
150
100
AcDbEntity
  8
0
 62
1
100
AcDbSpline
 70
8
 71
3
 72
8
 73
4
 74
0
 40
0
 40
0
 40
0
 40
0
 40
1
 40
1
 40
1
 40
1
 10
68.468981
 20
77.076062
 30
0.0
 10
68.882514
 20
76.662645
 30
0.0
 10
69.443330
 20
76.430346
 30
0.0
 10
70.028181
 20
76.430346
 30
0.0
  0
LWPOLYLINE
  5
151
100
AcDbEntity
  8
0
 62
1
100
AcDbPolyline
 90
2
 70
0
 10
67.823304
 20
112.078503
 30
0.0
 10
67.823304
 20
78.635106
 30
0.0
  0
SPLINE
  5
152
100
AcDbEntity
  8
0
 62
1
100
AcDbSpline
 70
8
 71
3
 72
8
 73
4
 74
0
 40
0
 40
0
 40
0
 40
0
 40
1
 40
1
 40
1
 40
1
 10
76.785659
 20
76.430346
 30
0.0
 10
78.003391
 20
76.430346
 30
0.0
 10
78.990536
 20
77.417452
 30
0.0
 10
78.990536
 20
78.635106
 30
0.0
  0
LWPOLYLINE
  5
153
100
AcDbEntity
  8
0
 62
1
100
AcDbPolyline
 90
2
 70
0
 10
70.028181
 20
76.430346
 30
0.0
 10
76.785659
 20
76.430346
 30
0.0
  0
SPLINE
  5
154
100
AcDbEntity
  8
0
 62
1
100
AcDbSpline
 70
8
 71
3
 72
8
 73
4
 74
0
 40
0
 40
0
 40
0
 40
0
 40
1
 40
1
 40
1
 40
1
 10
78.990536
 20
112.078503
 30
0.0
 10
78.990536
 20
112.663237
 30
0.0
 10
78.758237
 20
113.224052
 30
0.0
 10
78.344820
 20
113.637586
 30
0.0
  0
SPLINE
  5
155
100
AcDbEntity
  8
0
 62
1
100
AcDbSpline
 70
8
 71
3
 72
8
 73
4
 74
0
 40
0
 40
0
 40
0
 40
0
 40
1
 40
1
 40
1
 40
1
 10
78.344820
 20
113.637586
 30
0.0
 10
77.931325
 20
114.051003
 30
0.0
 10
77.370509
 20
114.283302
 30
0.0
 10
76.785659
 20
114.283302
 30
0.0
  0
LWPOLYLINE
  5
156
100
AcDbEntity
  8
0
 62
1
100
AcDbPolyline
 90
2
 70
0
 10
78.990536
 20
78.635106
 30
0.0
 10
78.990536
 20
112.078503
 30
0.0
  0
SPLINE
  5
157
100
AcDbEntity
  8
0
 62
1
100
AcDbSpline
 70
8
 71
3
 72
8
 73
4
 74
0
 40
0
 40
0
 40
0
 40
0
 40
1
 40
1
 40
1
 40
1
 10
28.541941
 20
123.102769
 30
0.0
 10
28.541941
 20
122.518035
 30
0.0
 10
28.774201
 20
121.957220
 30
0.0
 10
29.187618
 20
121.543725
 30
0.0
  0
SPLINE
  5
158
100
AcDbEntity
  8
0
 62
1
100
AcDbSpline
 70
8
 71
3
 72
8
 73
4
 74
0
 40
0
 40
0
 40
0
 40
0
 40
1
 40
1
 40
1
 40
1
 10
29.187618
 20
121.543725
 30
0.0
 10
29.601152
 20
121.130308
 30
0.0
 10
30.161967
 20
120.898009
 30
0.0
 10
30.746818
 20
120.898009
 30
0.0
  0
SPLINE
  5
159
100
AcDbEntity
  8
0
 62
1
100
AcDbSpline
 70
8
 71
3
 72
8
 73
4
 74
0
 40
0
 40
0
 40
0
 40
0
 40
1
 40
1
 40
1
 40
1
 10
83.400405
 20
120.898009
 30
0.0
 10
84.618021
 20
120.898009
 30
0.0
 10
85.605165
 20
121.885154
 30
0.0
 10
85.605165
 20
123.102769
 30
0.0
  0
LWPOLYLINE
  5
15a
100
AcDbEntity
  8
0
 62
1
100
AcDbPolyline
 90
2
 70
0
 10
76.785659
 20
114.283302
 30
0.0
 10
70.028064
 20
114.283302
 30
0.0
  0
LWPOLYLINE
  5
15b
100
AcDbEntity
  8
0
 62
1
100
AcDbPolyline
 90
4
 70
1
 10
34.149359
 20
38.417780
 30
0.0
 10
37.787387
 20
38.417780
 30
0.0
 10
37.787387
 20
35.110485
 30
0.0
 10
34.149359
 20
35.110485
 30
0.0
  0
SPLINE
  5
15c
100
AcDbEntity
  8
0
 62
1
100
AcDbSpline
 70
8
 71
3
 72
8
 73
4
 74
0
 40
0
 40
0
 40
0
 40
0
 40
1
 40
1
 40
1
 40
1
 10
85.605243
 20
118.693016
 30
0.0
 10
85.605243
 20
119.277867
 30
0.0
 10
85.372866
 20
119.838682
 30
0.0
 10
84.959450
 20
120.252216
 30
0.0
  0
SPLINE
  5
15d
100
AcDbEntity
  8
0
 62
1
100
AcDbSpline
 70
8
 71
3
 72
8
 73
4
 74
0
 40
0
 40
0
 40
0
 40
0
 40
1
 40
1
 40
1
 40
1
 10
84.959450
 20
120.252216
 30
0.0
 10
84.545916
 20
120.665632
 30
0.0
 10
83.985139
 20
120.897893
 30
0.0
 10
83.400405
 20
120.897893
 30
0.0
  0
LWPOLYLINE
  5
15e
100
AcDbEntity
  8
0
 62
1
100
AcDbPolyline
 90
4
 70
1
 10
79.997709
 20
38.417780
 30
0.0
 10
76.359680
 20
38.417780
 30
0.0
 10
76.359680
 20
35.110485
 30
0.0
 10
79.997709
 20
35.110485
 30
0.0
  0
SPLINE
  5
15f
100
AcDbEntity
  8
0
 62
1
100
AcDbSpline
 70
8
 71
3
 72
8
 73
4
 74
0
 40
0
 40
0
 40
0
 40
0
 40
1
 40
1
 40
1
 40
1
 10
63.413434
 20
120.897893
 30
0.0
 10
62.828583
 20
120.897893
 30
0.0
 10
62.267768
 20
120.665632
 30
0.0
 10
61.854273
 20
120.252216
 30
0.0
  0
SPLINE
  5
160
100
AcDbEntity
  8
0
 62
1
100
AcDbSpline
 70
8
 71
3
 72
8
 73
4
 74
0
 40
0
 40
0
 40
0
 40
0
 40
1
 40
1
 40
1
 40
1
 10
61.854273
 20
120.252216
 30
0.0
 10
61.440856
 20
119.838682
 30
0.0
 10
61.208557
 20
119.277867
 30
0.0
 10
61.208557
 20
118.693016
 30
0.0
  0
LWPOLYLINE
  5
161
100
AcDbEntity
  8
0
 62
1
100
AcDbPolyline
 90
2
 70
0
 10
83.400405
 20
120.897893
 30
0.0
 10
63.413434
 20
120.897893
 30
0.0
  0
SPLINE
  5
162
100
AcDbEntity
  8
0
 62
1
100
AcDbSpline
 70
8
 71
3
 72
8
 73
4
 74
0
 40
0
 40
0
 40
0
 40
0
 40
1
 40
1
 40
1
 40
1
 10
61.208557
 20
77.753163
 30
0.0
 10
61.208557
 20
77.402362
 30
0.0
 10
61.347906
 20
77.065912
 30
0.0
 10
61.595956
 20
76.817745
 30
0.0
  0
SPLINE
  5
163
100
AcDbEntity
  8
0
 62
1
100
AcDbSpline
 70
8
 71
3
 72
8
 73
4
 74
0
 40
0
 40
0
 40
0
 40
0
 40
1
 40
1
 40
1
 40
1
 10
61.595956
 20
76.817745
 30
0.0
 10
61.844123
 20
76.569695
 30
0.0
 10
62.180573
 20
76.430346
 30
0.0
 10
62.531608
 20
76.430230
 30
0.0
  0
LWPOLYLINE
  5
164
100
AcDbEntity
  8
0
 62
1
100
AcDbPolyline
 90
2
 70
0
 10
61.208557
 20
118.693016
 30
0.0
 10
61.208557
 20
77.753163
 30
0.0
  0
SPLINE
  5
165
100
AcDbEntity
  8
0
 62
1
100
AcDbSpline
 70
8
 71
3
 72
8
 73
4
 74
0
 40
0
 40
0
 40
0
 40
0
 40
1
 40
1
 40
1
 40
1
 10
64.020336
 20
76.430230
 30
0.0
 10
64.371138
 20
76.430230
 30
0.0
 10
64.707588
 20
76.290881
 30
0.0
 10
64.955755
 20
76.042831
 30
0.0
  0
SPLINE
  5
166
100
AcDbEntity
  8
0
 62
1
100
AcDbSpline
 70
8
 71
3
 72
8
 73
4
 74
0
 40
0
 40
0
 40
0
 40
0
 40
1
 40
1
 40
1
 40
1
 10
64.955755
 20
76.042831
 30
0.0
 10
65.203805
 20
75.794703
 30
0.0
 10
65.343231
 20
75.458214
 30
0.0
 10
65.343231
 20
75.107296
 30
0.0
  0
LWPOLYLINE
  5
167
100
AcDbEntity
  8
0
 62
1
100
AcDbPolyline
 90
2
 70
0
 10
62.531608
 20
76.430230
 30
0.0
 10
64.020336
 20
76.430230
 30
0.0
  0
SPLINE
  5
168
100
AcDbEntity
  8
0
 62
1
100
AcDbSpline
 70
8
 71
3
 72
8
 73
4
 74
0
 40
0
 40
0
 40
0
 40
0
 40
1
 40
1
 40
1
 40
1
 10
48.803953
 20
75.107296
 30
0.0
 10
48.803953
 20
75.458214
 30
0.0
 10
48.943302
 20
75.794703
 30
0.0
 10
49.191352
 20
76.042831
 30
0.0
  0
SPLINE
  5
169
100
AcDbEntity
  8
0
 62
1
100
AcDbSpline
 70
8
 71
3
 72
8
 73
4
 74
0
 40
0
 40
0
 40
0
 40
0
 40
1
 40
1
 40
1
 40
1
 10
49.191352
 20
76.042831
 30
0.0
 10
49.439480
 20
76.290881
 30
0.0
 10
49.775969
 20
76.430230
 30
0.0
 10
50.126848
 20
76.430230
 30
0.0
  0
LWPOLYLINE
  5
16a
100
AcDbEntity
  8
0
 62
1
100
AcDbPolyline
 90
8
 70
0
 10
65.343231
 20
75.107296
 30
0.0
 10
65.343231
 20
72.571725
 30
0.0
 10
63.689603
 20
72.571725
 30
0.0
 10
63.689603
 20
69.484905
 30
0.0
 10
50.457582
 20
69.484905
 30
0.0
 10
50.457582
 20
72.571803
 30
0.0
 10
48.803953
 20
72.571803
 30
0.0
 10
48.803953
 20
75.107296
 30
0.0
  0
SPLINE
  5
16b
100
AcDbEntity
  8
0
 62
1
100
AcDbSpline
 70
8
 71
3
 72
8
 73
4
 74
0
 40
0
 40
0
 40
0
 40
0
 40
1
 40
1
 40
1
 40
1
 10
51.615615
 20
76.430230
 30
0.0
 10
52.346192
 20
76.430346
 30
0.0
 10
52.938394
 20
77.022586
 30
0.0
 10
52.938510
 20
77.753163
 30
0.0
  0
LWPOLYLINE
  5
16c
100
AcDbEntity
  8
0
 62
1
100
AcDbPolyline
 90
2
 70
0
 10
50.126848
 20
76.430230
 30
0.0
 10
51.615615
 20
76.430230
 30
0.0
  0
SPLINE
  5
16d
100
AcDbEntity
  8
0
 62
1
100
AcDbSpline
 70
8
 71
3
 72
8
 73
4
 74
0
 40
0
 40
0
 40
0
 40
0
 40
1
 40
1
 40
1
 40
1
 10
52.938394
 20
118.693016
 30
0.0
 10
52.938394
 20
119.277867
 30
0.0
 10
52.706133
 20
119.838682
 30
0.0
 10
52.292717
 20
120.252216
 30
0.0
  0
SPLINE
  5
16e
100
AcDbEntity
  8
0
 62
1
100
AcDbSpline
 70
8
 71
3
 72
8
 73
4
 74
0
 40
0
 40
0
 40
0
 40
0
 40
1
 40
1
 40
1
 40
1
 10
52.292717
 20
120.252216
 30
0.0
 10
51.879183
 20
120.665632
 30
0.0
 10
51.318368
 20
120.897893
 30
0.0
 10
50.733556
 20
120.897893
 30
0.0
  0
LWPOLYLINE
  5
16f
100
AcDbEntity
  8
0
 62
1
100
AcDbPolyline
 90
2
 70
0
 10
52.938510
 20
77.753163
 30
0.0
 10
52.938394
 20
118.693016
 30
0.0
  0
SPLINE
  5
170
100
AcDbEntity
  8
0
 62
1
100
AcDbSpline
 70
8
 71
3
 72
8
 73
4
 74
0
 40
0
 40
0
 40
0
 40
0
 40
1
 40
1
 40
1
 40
1
 10
30.746818
 20
120.897893
 30
0.0
 10
30.161967
 20
120.897893
 30
0.0
 10
29.601152
 20
120.665632
 30
0.0
 10
29.187618
 20
120.252216
 30
0.0
  0
SPLINE
  5
171
100
AcDbEntity
  8
0
 62
1
100
AcDbSpline
 70
8
 71
3
 72
8
 73
4
 74
0
 40
0
 40
0
 40
0
 40
0
 40
1
 40
1
 40
1
 40
1
 10
29.187618
 20
120.252216
 30
0.0
 10
28.774201
 20
119.838682
 30
0.0
 10
28.541941
 20
119.277867
 30
0.0
 10
28.541941
 20
118.693016
 30
0.0
  0
LWPOLYLINE
  5
172
100
AcDbEntity
  8
0
 62
1
100
AcDbPolyline
 90
2
 70
0
 10
50.733556
 20
120.897893
 30
0.0
 10
30.746818
 20
120.897893
 30
0.0
  0
LWPOLYLINE
  5
173
100
AcDbEntity
  8
0
 62
1
100
AcDbPolyline
 90
4
 70
0
 10
34.149359
 20
33.531878
 30
0.0
 10
34.149359
 20
32.649936
 30
0.0
 10
37.787387
 20
32.649936
 30
0.0
 10
37.787387
 20
33.531878
 30
0.0
  0
LWPOLYLINE
  5
174
100
AcDbEntity
  8
0
 62
1
100
AcDbPolyline
 90
4
 70
0
 10
79.997709
 20
33.531801
 30
0.0
 10
79.997709
 20
32.649819
 30
0.0
 10
76.359680
 20
32.649819
 30
0.0
 10
76.359680
 20
33.531801
 30
0.0
  0
LWPOLYLINE
  5
175
100
AcDbEntity
  8
0
 62
1
100
AcDbPolyline
 90
9
 70
1
 10
71.753253
 20
93.978703
 30
0.0
 10
71.753253
 20
87.364112
 30
0.0
 10
75.060548
 20
87.364112
 30
0.0
 10
75.060548
 20
93.978703
 30
0.0
 10
76.163006
 20
93.978703
 30
0.0
 10
76.163006
 20
103.349419
 30
0.0
 10
73.406920
 20
100.593333
 30
0.0
 10
70.650834
 20
103.349536
 30
0.0
 10
70.650834
 20
93.978703
 30
0.0
  0
LWPOLYLINE
  5
176
100
AcDbEntity
  8
0
 62
1
100
AcDbPolyline
 90
4
 70
0
 10
52.938629
 20
91.554536
 30
0.0
 10
50.457702
 20
91.554536
 30
0.0
 10
50.457702
 20
96.515498
 30
0.0
 10
52.938512
 20
96.515498
 30
0.0
  0
LWPOLYLINE
  5
177
100
AcDbEntity
  8
0
 62
1
100
AcDbPolyline
 90
4
 70
0
 10
61.208670
 20
91.554536
 30
0.0
 10
63.689715
 20
91.554536
 30
0.0
 10
63.689715
 20
96.515498
 30
0.0
 10
61.208670
 20
96.515498
 30
0.0
  0
LWPOLYLINE
  5
178
100
AcDbEntity
  8
0
 62
1
100
AcDbPolyline
 90
4
 70
0
 10
52.938512
 20
111.977224
 30
0.0
 10
50.457585
 20
111.977224
 30
0.0
 10
50.457585
 20
116.938186
 30
0.0
 10
52.938395
 20
116.938186
 30
0.0
  0
LWPOLYLINE
  5
179
100
AcDbEntity
  8
0
 62
1
100
AcDbPolyline
 90
4
 70
0
 10
61.208553
 20
111.977224
 30
0.0
 10
63.689598
 20
111.977224
 30
0.0
 10
63.689598
 20
116.938186
 30
0.0
 10
61.208553
 20
116.938186
 30
0.0
  0
LWPOLYLINE
  5
17a
100
AcDbEntity
  8
0
 62
1
100
AcDbPolyline
 90
4
 70
0
 10
52.938629
 20
81.926563
 30
0.0
 10
50.457702
 20
81.926563
 30
0.0
 10
50.457702
 20
86.887525
 30
0.0
 10
52.938512
 20
86.887525
 30
0.0
  0
LWPOLYLINE
  5
17b
100
AcDbEntity
  8
0
 62
1
100
AcDbPolyline
 90
4
 70
0
 10
61.208670
 20
81.926563
 30
0.0
 10
63.689715
 20
81.926563
 30
0.0
 10
63.689715
 20
86.887525
 30
0.0
 10
61.208670
 20
86.887525
 30
0.0
  0
LWPOLYLINE
  5
17c
100
AcDbEntity
  8
0
 62
1
100
AcDbPolyline
 90
4
 70
0
 10
52.938629
 20
101.765880
 30
0.0
 10
50.457702
 20
101.765880
 30
0.0
 10
50.457702
 20
106.726842
 30
0.0
 10
52.938512
 20
106.726842
 30
0.0
  0
LWPOLYLINE
  5
17d
100
AcDbEntity
  8
0
 62
1
100
AcDbPolyline
 90
4
 70
0
 10
61.208670
 20
101.765880
 30
0.0
 10
63.689715
 20
101.765880
 30
0.0
 10
63.689715
 20
106.726842
 30
0.0
 10
61.208670
 20
106.726842
 30
0.0
  0
ENDSEC
  0
SECTION
  2
OBJECTS
  0
DICTIONARY
  5
C
330
0
100
AcDbDictionary
  3
ACAD_GROUP
350
D
  3
ACAD_MLINESTYLE
350
17
  0
DICTIONARY
  5
D
330
C
100
AcDbDictionary
  0
DICTIONARY
  5
1A
330
C
100
AcDbDictionary
  0
DICTIONARY
  5
17
330
C
100
AcDbDictionary
  3
STANDARD
350
18
  0
DICTIONARY
  5
19
330
C
100
AcDbDictionary
  0
ENDSEC
  0
EOF
