  0
SECTION
  2
HEADER
  9
$ACADVER
  1
AC1014
  9
$HANDSEED
  5
FFFF
  9
$MEASUREMENT
 70
     1
  0
ENDSEC
  0
SECTION
  2
TABLES
  0
TABLE
  2
VPORT
  5
8
330
0
100
AcDbSymbolTable
 70
     4
  0
VPORT
  5
2E
330
8
100
AcDbSymbolTableRecord
100
AcDbViewportTableRecord
  2
*ACTIVE
 70
     0
 10
0.0
 20
0.0
 11
1.0
 21
1.0
 12
210.0
 22
148.5
 13
0.0
 23
0.0
 14
10.0
 24
10.0
 15
10.0
 25
10.0
 16
0.0
 26
0.0
 36
1.0
 17
0.0
 27
0.0
 37
0.0
 40
341.0
 41
1.24
 42
50.0
 43
0.0
 44
0.0
 50
0.0
 51
0.0
 71
     0
 72
   100
 73
     1
 74
     3
 75
     0
 76
     0
 77
     0
 78
     0
  0
ENDTAB
  0
TABLE
  2
LTYPE
  5
5
330
0
100
AcDbSymbolTable
 70
     1
  0
LTYPE
  5
14
330
5
100
AcDbSymbolTableRecord
100
AcDbLinetypeTableRecord
  2
BYBLOCK
 70
     0
  3

 72
    65
 73
     0
 40
0.0
  0
LTYPE
  5
15
330
5
100
AcDbSymbolTableRecord
100
AcDbLinetypeTableRecord
  2
BYLAYER
 70
     0
  3

 72
    65
 73
     0
 40
0.0
  0
LTYPE
  5
16
330
5
100
AcDbSymbolTableRecord
100
AcDbLinetypeTableRecord
  2
CONTINUOUS
 70
     0
  3
Solid line
 72
    65
 73
     0
 40
0.0
  0
ENDTAB
  0
TABLE
  2
LAYER
  5
2
100
AcDbSymbolTable
 70
3
  0
LAYER
  5
50
100
AcDbSymbolTableRecord
100
AcDbLayerTableRecord
  2
0
 70
0
  6
CONTINUOUS
  0
LAYER
  5
51
100
AcDbSymbolTableRecord
100
AcDbLayerTableRecord
  2
Layer_1
 70
0
  6
CONTINUOUS
  0
LAYER
  5
52
100
AcDbSymbolTableRecord
100
AcDbLayerTableRecord
  2
outline
 70
0
  6
CONTINUOUS
  0
ENDTAB
  0
TABLE
  2
STYLE
  5
3
330
0
100
AcDbSymbolTable
 70
     1
  0
STYLE
  5
11
330
3
100
AcDbSymbolTableRecord
100
AcDbTextStyleTableRecord
  2
STANDARD
 70
     0
 40
0.0
 41
1.0
 50
0.0
 71
     0
 42
2.5
  3
txt
  4

  0
ENDTAB
  0
TABLE
  2
VIEW
  5
6
330
0
100
AcDbSymbolTable
 70
     0
  0
ENDTAB
  0
TABLE
  2
UCS
  5
7
330
0
100
AcDbSymbolTable
 70
     0
  0
ENDTAB
  0
TABLE
  2
APPID
  5
9
330
0
100
AcDbSymbolTable
 70
     2
  0
APPID
  5
12
330
9
100
AcDbSymbolTableRecord
100
AcDbRegAppTableRecord
  2
ACAD
 70
     0
  0
ENDTAB
  0
TABLE
  2
DIMSTYLE
  5
A
330
0
100
AcDbSymbolTable
 70
     1
  0
DIMSTYLE
105
27
330
A
100
AcDbSymbolTableRecord
100
AcDbDimStyleTableRecord
  2
ISO-25
 70
     0
  3

  4

  5

  6

  7

 40
1.0
 41
2.5
 42
0.625
 43
3.75
 44
1.25
 45
0.0
 46
0.0
 47
0.0
 48
0.0
140
2.5
141
2.5
142
0.0
143
0.03937007874016
144
1.0
145
0.0
146
1.0
147
0.625
 71
     0
 72
     0
 73
     0
 74
     0
 75
     0
 76
     0
 77
     1
 78
     8
170
     0
171
     3
172
     1
173
     0
174
     0
175
     0
176
     0
177
     0
178
     0
270
     2
271
     2
272
     2
273
     2
274
     3
340
11
275
     0
280
     0
281
     0
282
     0
283
     0
284
     8
285
     0
286
     0
287
     3
288
     0
  0
ENDTAB
  0
TABLE
  2
BLOCK_RECORD
  5
1
330
0
100
AcDbSymbolTable
 70
     1
  0
BLOCK_RECORD
  5
1F
330
1
100
AcDbSymbolTableRecord
100
AcDbBlockTableRecord
  2
*MODEL_SPACE
  0
BLOCK_RECORD
  5
1B
330
1
100
AcDbSymbolTableRecord
100
AcDbBlockTableRecord
  2
*PAPER_SPACE
  0
ENDTAB
  0
ENDSEC
  0
SECTION
  2
BLOCKS
  0
BLOCK
  5
20
330
1F
100
AcDbEntity
  8
0
100
AcDbBlockBegin
  2
*MODEL_SPACE
 70
     0
 10
0.0
 20
0.0
 30
0.0
  3
*MODEL_SPACE
  1

  0
ENDBLK
  5
21
330
1F
100
AcDbEntity
  8
0
100
AcDbBlockEnd
  0
BLOCK
  5
1C
330
1B
100
AcDbEntity
 67
     1
  8
0
100
AcDbBlockBegin
  2
*PAPER_SPACE
  1

  0
ENDBLK
  5
1D
330
1B
100
AcDbEntity
 67
     1
  8
0
100
AcDbBlockEnd
  0
ENDSEC
  0
SECTION
  2
ENTITIES
  0
LWPOLYLINE
  5
100
100
AcDbEntity
  8
outline
 62
7
100
AcDbPolyline
 90
11
 70
0
 10
-113.993130
 20
173.656370
 30
0.0
 10
-110.750700
 20
173.656370
 30
0.0
 10
-110.750700
 20
179.507790
 30
0.0
 10
-109.239820
 20
179.507790
 30
0.0
 10
-109.239820
 20
191.389410
 30
0.0
 10
-109.239820
 20
191.498320
 30
0.0
 10
-109.646780
 20
191.498320
 30
0.0
 10
-109.646780
 20
192.042830
 30
0.0
 10
-108.276920
 20
192.042830
 30
0.0
 10
-108.276920
 20
193.745120
 30
0.0
 10
-100.278060
 20
193.745120
 30
0.0
  0
LWPOLYLINE
  5
101
100
AcDbEntity
  8
outline
 62
7
100
AcDbPolyline
 90
11
 70
0
 10
-90.472855
 20
173.652050
 30
0.0
 10
-91.123811
 20
173.652050
 30
0.0
 10
-91.123811
 20
179.503480
 30
0.0
 10
-92.634684
 20
179.503480
 30
0.0
 10
-92.634684
 20
191.385090
 30
0.0
 10
-92.634684
 20
191.494010
 30
0.0
 10
-92.227735
 20
191.494010
 30
0.0
 10
-92.227735
 20
192.038500
 30
0.0
 10
-93.597593
 20
192.038500
 30
0.0
 10
-93.597593
 20
193.740800
 30
0.0
 10
-101.596450
 20
193.740800
 30
0.0
  0
SPLINE
  5
102
100
AcDbEntity
  8
outline
 62
7
100
AcDbSpline
 70
8
 71
3
 72
8
 73
4
 74
0
 40
0
 40
0
 40
0
 40
0
 40
1
 40
1
 40
1
 40
1
 10
83.088907
 20
176.279740
 30
0.0
 10
83.216530
 20
176.509460
 30
0.0
 10
83.318628
 20
176.611560
 30
0.0
 10
83.318628
 20
176.611560
 30
0.0
  0
SPLINE
  5
103
100
AcDbEntity
  8
outline
 62
7
100
AcDbSpline
 70
8
 71
3
 72
8
 73
4
 74
0
 40
0
 40
0
 40
0
 40
0
 40
1
 40
1
 40
1
 40
1
 10
83.318628
 20
176.611560
 30
0.0
 10
83.599389
 20
176.841270
 30
0.0
 10
83.803570
 20
176.917840
 30
0.0
 10
83.803570
 20
176.917840
 30
0.0
  0
SPLINE
  5
104
100
AcDbEntity
  8
outline
 62
7
100
AcDbSpline
 70
8
 71
3
 72
8
 73
4
 74
0
 40
0
 40
0
 40
0
 40
0
 40
1
 40
1
 40
1
 40
1
 10
83.803570
 20
176.917840
 30
0.0
 10
84.237478
 20
177.070980
 30
0.0
 10
84.518249
 20
177.147560
 30
0.0
 10
84.518249
 20
177.147560
 30
0.0
  0
SPLINE
  5
105
100
AcDbEntity
  8
outline
 62
7
100
AcDbSpline
 70
8
 71
3
 72
8
 73
4
 74
0
 40
0
 40
0
 40
0
 40
0
 40
1
 40
1
 40
1
 40
1
 10
84.518249
 20
177.147560
 30
0.0
 10
85.054256
 20
177.147560
 30
0.0
 10
89.138074
 20
177.147560
 30
0.0
 10
89.138074
 20
177.147560
 30
0.0
  0
LWPOLYLINE
  5
106
100
AcDbEntity
  8
outline
 62
7
100
AcDbPolyline
 90
5
 70
0
 10
89.138074
 20
164.130360
 30
0.0
 10
89.138074
 20
173.829450
 30
0.0
 10
83.088907
 20
173.829450
 30
0.0
 10
83.114437
 20
176.024500
 30
0.0
 10
83.088907
 20
176.279740
 30
0.0
  0
LWPOLYLINE
  5
107
100
AcDbEntity
  8
outline
 62
7
100
AcDbPolyline
 90
3
 70
0
 10
89.138074
 20
177.147560
 30
0.0
 10
89.138074
 20
179.521270
 30
0.0
 10
60.324375
 20
179.521270
 30
0.0
  0
SPLINE
  5
108
100
AcDbEntity
  8
outline
 62
7
100
AcDbSpline
 70
8
 71
3
 72
8
 73
4
 74
0
 40
0
 40
0
 40
0
 40
0
 40
1
 40
1
 40
1
 40
1
 10
63.563110
 20
176.407360
 30
0.0
 10
63.333403
 20
176.637090
 30
0.0
 10
63.180251
 20
176.790230
 30
0.0
 10
63.180251
 20
176.790230
 30
0.0
  0
SPLINE
  5
109
100
AcDbEntity
  8
outline
 62
7
100
AcDbSpline
 70
8
 71
3
 72
8
 73
4
 74
0
 40
0
 40
0
 40
0
 40
0
 40
1
 40
1
 40
1
 40
1
 10
63.180251
 20
176.790230
 30
0.0
 10
62.644250
 20
176.994410
 30
0.0
 10
62.363488
 20
177.122030
 30
0.0
 10
62.363488
 20
177.122030
 30
0.0
  0
SPLINE
  5
10a
100
AcDbEntity
  8
outline
 62
7
100
AcDbSpline
 70
8
 71
3
 72
8
 73
4
 74
0
 40
0
 40
0
 40
0
 40
0
 40
1
 40
1
 40
1
 40
1
 10
62.363488
 20
177.122030
 30
0.0
 10
61.776433
 20
177.224080
 30
0.0
 10
61.546727
 20
177.249650
 30
0.0
 10
61.546727
 20
177.249650
 30
0.0
  0
LWPOLYLINE
  5
10b
100
AcDbEntity
  8
outline
 62
7
100
AcDbPolyline
 90
3
 70
0
 10
63.690733
 20
173.523160
 30
0.0
 10
63.690733
 20
176.228700
 30
0.0
 10
63.563110
 20
176.407360
 30
0.0
  0
LWPOLYLINE
  5
10c
100
AcDbEntity
  8
outline
 62
7
100
AcDbPolyline
 90
2
 70
0
 10
61.546727
 20
177.249650
 30
0.0
 10
61.444630
 20
177.249650
 30
0.0
  0
SPLINE
  5
10d
100
AcDbEntity
  8
outline
 62
7
100
AcDbSpline
 70
8
 71
3
 72
8
 73
4
 74
0
 40
0
 40
0
 40
0
 40
0
 40
1
 40
1
 40
1
 40
1
 10
81.191260
 20
176.449530
 30
0.0
 10
80.961554
 20
176.679250
 30
0.0
 10
80.808400
 20
176.832390
 30
0.0
 10
80.808400
 20
176.832390
 30
0.0
  0
SPLINE
  5
10e
100
AcDbEntity
  8
outline
 62
7
100
AcDbSpline
 70
8
 71
3
 72
8
 73
4
 74
0
 40
0
 40
0
 40
0
 40
0
 40
1
 40
1
 40
1
 40
1
 10
80.808400
 20
176.832390
 30
0.0
 10
80.272398
 20
177.036590
 30
0.0
 10
79.991639
 20
177.164210
 30
0.0
 10
79.991639
 20
177.164210
 30
0.0
  0
SPLINE
  5
10f
100
AcDbEntity
  8
outline
 62
7
100
AcDbSpline
 70
8
 71
3
 72
8
 73
4
 74
0
 40
0
 40
0
 40
0
 40
0
 40
1
 40
1
 40
1
 40
1
 10
79.991639
 20
177.164210
 30
0.0
 10
79.404583
 20
177.266250
 30
0.0
 10
79.174877
 20
177.291820
 30
0.0
 10
79.174877
 20
177.291820
 30
0.0
  0
LWPOLYLINE
  5
110
100
AcDbEntity
  8
outline
 62
7
100
AcDbPolyline
 90
3
 70
0
 10
81.318882
 20
173.565330
 30
0.0
 10
81.318882
 20
176.270870
 30
0.0
 10
81.191260
 20
176.449530
 30
0.0
  0
LWPOLYLINE
  5
111
100
AcDbEntity
  8
outline
 62
7
100
AcDbPolyline
 90
2
 70
0
 10
79.174877
 20
177.291820
 30
0.0
 10
79.072780
 20
177.291820
 30
0.0
  0
SPLINE
  5
112
100
AcDbEntity
  8
outline
 62
7
100
AcDbSpline
 70
8
 71
3
 72
8
 73
4
 74
0
 40
0
 40
0
 40
0
 40
0
 40
1
 40
1
 40
1
 40
1
 10
65.333144
 20
176.500580
 30
0.0
 10
65.562850
 20
176.730300
 30
0.0
 10
65.716003
 20
176.883440
 30
0.0
 10
65.716003
 20
176.883440
 30
0.0
  0
SPLINE
  5
113
100
AcDbEntity
  8
outline
 62
7
100
AcDbSpline
 70
8
 71
3
 72
8
 73
4
 74
0
 40
0
 40
0
 40
0
 40
0
 40
1
 40
1
 40
1
 40
1
 10
65.716003
 20
176.883440
 30
0.0
 10
66.252004
 20
177.087630
 30
0.0
 10
66.532765
 20
177.215250
 30
0.0
 10
66.532765
 20
177.215250
 30
0.0
  0
SPLINE
  5
114
100
AcDbEntity
  8
outline
 62
7
100
AcDbSpline
 70
8
 71
3
 72
8
 73
4
 74
0
 40
0
 40
0
 40
0
 40
0
 40
1
 40
1
 40
1
 40
1
 10
66.532765
 20
177.215250
 30
0.0
 10
67.119820
 20
177.317300
 30
0.0
 10
67.349527
 20
177.342870
 30
0.0
 10
67.349527
 20
177.342870
 30
0.0
  0
LWPOLYLINE
  5
115
100
AcDbEntity
  8
outline
 62
7
100
AcDbPolyline
 90
3
 70
0
 10
65.205521
 20
173.616370
 30
0.0
 10
65.205521
 20
176.321930
 30
0.0
 10
65.333144
 20
176.500580
 30
0.0
  0
LWPOLYLINE
  5
116
100
AcDbEntity
  8
outline
 62
7
100
AcDbPolyline
 90
3
 70
0
 10
67.349527
 20
177.342870
 30
0.0
 10
67.451624
 20
177.342870
 30
0.0
 10
79.174876
 20
177.291770
 30
0.0
  0
LWPOLYLINE
  5
117
100
AcDbEntity
  8
outline
 62
7
100
AcDbPolyline
 90
2
 70
0
 10
81.318882
 20
173.565330
 30
0.0
 10
65.205510
 20
173.616430
 30
0.0
  0
LWPOLYLINE
  5
118
100
AcDbEntity
  8
outline
 62
7
100
AcDbPolyline
 90
3
 70
0
 10
63.690733
 20
173.523160
 30
0.0
 10
61.444628
 20
173.574260
 30
0.0
 10
61.444628
 20
177.249710
 30
0.0
  0
SPLINE
  5
119
100
AcDbEntity
  8
outline
 62
7
100
AcDbSpline
 70
8
 71
3
 72
8
 73
4
 74
0
 40
0
 40
0
 40
0
 40
0
 40
1
 40
1
 40
1
 40
1
 10
54.865182
 20
199.977491
 30
0.0
 10
54.560248
 20
200.177271
 30
0.0
 10
54.507670
 20
200.219341
 30
0.0
 10
54.507670
 20
200.219341
 30
0.0
  0
LWPOLYLINE
  5
11a
100
AcDbEntity
  8
outline
 62
7
100
AcDbPolyline
 90
18
 70
0
 10
60.324375
 20
179.521270
 30
0.0
 10
60.324375
 20
191.143440
 30
0.0
 10
60.627851
 20
191.143440
 30
0.0
 10
60.627851
 20
191.650440
 30
0.0
 10
58.120993
 20
192.241950
 30
0.0
 10
55.698619
 20
191.706780
 30
0.0
 10
55.698619
 20
194.072810
 30
0.0
 10
56.177467
 20
194.438980
 30
0.0
 10
55.670454
 20
194.495280
 30
0.0
 10
55.670454
 20
195.719190
 30
0.0
 10
55.433045
 20
195.961040
 30
0.0
 10
55.433045
 20
198.179691
 30
0.0
 10
55.695921
 20
198.168891
 30
0.0
 10
55.412020
 20
198.431771
 30
0.0
 10
55.107086
 20
198.484371
 30
0.0
 10
55.117556
 20
199.272991
 30
0.0
 10
54.896742
 20
199.504311
 30
0.0
 10
54.865182
 20
199.977491
 30
0.0
  0
LWPOLYLINE
  5
11b
100
AcDbEntity
  8
outline
 62
7
100
AcDbPolyline
 90
10
 70
0
 10
60.324374
 20
179.521270
 30
0.0
 10
60.324374
 20
191.143440
 30
0.0
 10
60.627849
 20
191.143440
 30
0.0
 10
60.627849
 20
191.650440
 30
0.0
 10
58.120991
 20
192.241950
 30
0.0
 10
55.698618
 20
191.706780
 30
0.0
 10
55.698618
 20
194.072810
 30
0.0
 10
56.177466
 20
194.438980
 30
0.0
 10
55.670453
 20
194.495280
 30
0.0
 10
55.670453
 20
194.595290
 30
0.0
  0
SPLINE
  5
11c
100
AcDbEntity
  8
outline
 62
7
100
AcDbSpline
 70
8
 71
3
 72
8
 73
4
 74
0
 40
0
 40
0
 40
0
 40
0
 40
1
 40
1
 40
1
 40
1
 10
54.864990
 20
199.977909
 30
0.0
 10
54.560056
 20
200.177691
 30
0.0
 10
54.507479
 20
200.219754
 30
0.0
 10
54.507479
 20
200.219754
 30
0.0
  0
LWPOLYLINE
  5
11d
100
AcDbEntity
  8
outline
 62
7
100
AcDbPolyline
 90
10
 70
0
 10
55.670291
 20
194.595403
 30
0.0
 10
55.670291
 20
195.719341
 30
0.0
 10
55.432877
 20
195.961185
 30
0.0
 10
55.432877
 20
198.179839
 30
0.0
 10
55.695761
 20
198.169340
 30
0.0
 10
55.411852
 20
198.432210
 30
0.0
 10
55.106917
 20
198.484788
 30
0.0
 10
55.117375
 20
199.273409
 30
0.0
 10
54.896555
 20
199.504737
 30
0.0
 10
54.864990
 20
199.977909
 30
0.0
  0
SPLINE
  5
11e
100
AcDbEntity
  8
outline
 62
7
100
AcDbSpline
 70
8
 71
3
 72
8
 73
4
 74
0
 40
0
 40
0
 40
0
 40
0
 40
1
 40
1
 40
1
 40
1
 10
53.649460
 20
199.983336
 30
0.0
 10
53.954398
 20
200.183118
 30
0.0
 10
54.006971
 20
200.225180
 30
0.0
 10
54.006971
 20
200.225180
 30
0.0
  0
SPLINE
  5
11f
100
AcDbEntity
  8
outline
 62
1
100
AcDbSpline
 70
8
 71
3
 72
8
 73
4
 74
0
 40
0
 40
0
 40
0
 40
0
 40
1
 40
1
 40
1
 40
1
 10
53.997438
 20
200.204445
 30
0.0
 10
53.997439
 20
200.360682
 30
0.0
 10
54.111206
 20
200.487336
 30
0.0
 10
54.251545
 20
200.487338
 30
0.0
  0
SPLINE
  5
120
100
AcDbEntity
  8
outline
 62
1
100
AcDbSpline
 70
8
 71
3
 72
8
 73
4
 74
0
 40
0
 40
0
 40
0
 40
0
 40
1
 40
1
 40
1
 40
1
 10
54.251545
 20
200.487338
 30
0.0
 10
54.318939
 20
200.487339
 30
0.0
 10
54.383573
 20
200.457534
 30
0.0
 10
54.431228
 20
200.404482
 30
0.0
  0
SPLINE
  5
121
100
AcDbEntity
  8
outline
 62
1
100
AcDbSpline
 70
8
 71
3
 72
8
 73
4
 74
0
 40
0
 40
0
 40
0
 40
0
 40
1
 40
1
 40
1
 40
1
 10
54.431228
 20
200.404482
 30
0.0
 10
54.478884
 20
200.351429
 30
0.0
 10
54.505656
 20
200.279474
 30
0.0
 10
54.505657
 20
200.204445
 30
0.0
  0
LWPOLYLINE
  5
122
100
AcDbEntity
  8
outline
 62
7
100
AcDbPolyline
 90
10
 70
0
 10
52.844151
 20
194.600835
 30
0.0
 10
52.844151
 20
195.724775
 30
0.0
 10
53.081564
 20
195.966614
 30
0.0
 10
53.081564
 20
198.185272
 30
0.0
 10
52.818678
 20
198.174767
 30
0.0
 10
53.102590
 20
198.437637
 30
0.0
 10
53.407522
 20
198.490215
 30
0.0
 10
53.397069
 20
199.278836
 30
0.0
 10
53.617892
 20
199.510164
 30
0.0
 10
53.649460
 20
199.983336
 30
0.0
  0
LWPOLYLINE
  5
123
100
AcDbEntity
  8
outline
 62
7
100
AcDbPolyline
 90
32
 70
0
 10
52.847580
 20
194.854250
 30
0.0
 10
48.966350
 20
194.854250
 30
0.0
 10
48.493173
 20
194.688760
 30
0.0
 10
47.452208
 20
194.688760
 30
0.0
 10
47.452208
 20
194.499480
 30
0.0
 10
46.516362
 20
194.499480
 30
0.0
 10
46.516362
 20
194.226110
 30
0.0
 10
46.894915
 20
194.226110
 30
0.0
 10
47.122613
 20
193.831700
 30
0.0
 10
47.084183
 20
191.313470
 30
0.0
 10
46.758209
 20
191.324270
 30
0.0
 10
46.758209
 20
191.702810
 30
0.0
 10
45.874957
 20
191.702810
 30
0.0
 10
45.874957
 20
191.934140
 30
0.0
 10
43.382921
 20
191.934140
 30
0.0
 10
43.382921
 20
191.692290
 30
0.0
 10
42.194733
 20
191.692290
 30
0.0
 10
42.194733
 20
191.271690
 30
0.0
 10
42.510180
 20
191.271690
 30
0.0
 10
42.510180
 20
186.834380
 30
0.0
 10
42.142158
 20
186.834380
 30
0.0
 10
42.142158
 20
186.298110
 30
0.0
 10
42.468118
 20
186.298110
 30
0.0
 10
42.468118
 20
179.505470
 30
0.0
 10
40.932932
 20
179.505470
 30
0.0
 10
40.932932
 20
179.253110
 30
0.0
 10
41.427137
 20
179.253110
 30
0.0
 10
41.427137
 20
177.833580
 30
0.0
 10
41.048594
 20
177.833580
 30
0.0
 10
41.048594
 20
177.423510
 30
0.0
 10
41.416616
 20
177.423510
 30
0.0
 10
41.416616
 20
176.992400
 30
0.0
  0
LWPOLYLINE
  5
124
100
AcDbEntity
  8
outline
 62
7
100
AcDbPolyline
 90
39
 70
0
 10
40.137745
 20
177.317930
 30
0.0
 10
40.137745
 20
181.439160
 30
0.0
 10
39.966817
 20
181.610090
 30
0.0
 10
39.966817
 20
182.407740
 30
0.0
 10
39.095579
 20
182.910750
 30
0.0
 10
39.095579
 20
183.794150
 30
0.0
 10
38.538026
 20
183.943540
 30
0.0
 10
38.538026
 20
184.363900
 30
0.0
 10
38.789325
 20
184.363900
 30
0.0
 10
38.789325
 20
184.572800
 30
0.0
 10
37.953680
 20
184.572800
 30
0.0
 10
35.750626
 20
186.452990
 30
0.0
 10
35.769606
 20
187.250660
 30
0.0
 10
35.579690
 20
187.231760
 30
0.0
 10
35.541730
 20
189.282880
 30
0.0
 10
35.294836
 20
189.643720
 30
0.0
 10
35.294836
 20
190.707270
 30
0.0
 10
35.009957
 20
191.580900
 30
0.0
 10
35.009957
 20
193.461080
 30
0.0
 10
34.687085
 20
195.360190
 30
0.0
 10
34.421193
 20
193.460990
 30
0.0
 10
34.421193
 20
191.580800
 30
0.0
 10
34.136313
 20
190.707180
 30
0.0
 10
34.136313
 20
189.643640
 30
0.0
 10
33.889420
 20
189.282780
 30
0.0
 10
33.851460
 20
187.231670
 30
0.0
 10
33.661544
 20
187.250670
 30
0.0
 10
33.680524
 20
186.453010
 30
0.0
 10
31.477471
 20
184.572820
 30
0.0
 10
30.641826
 20
184.572820
 30
0.0
 10
30.641826
 20
184.363910
 30
0.0
 10
30.893125
 20
184.363910
 30
0.0
 10
30.893125
 20
183.943540
 30
0.0
 10
30.335572
 20
183.794160
 30
0.0
 10
30.335572
 20
182.910760
 30
0.0
 10
29.464334
 20
182.407750
 30
0.0
 10
29.464334
 20
181.610090
 30
0.0
 10
29.293405
 20
181.439170
 30
0.0
 10
29.293405
 20
177.317940
 30
0.0
  0
LWPOLYLINE
  5
125
100
AcDbEntity
  8
outline
 62
7
100
AcDbPolyline
 90
4
 70
1
 10
35.921555
 20
177.773730
 30
0.0
 10
36.985096
 20
177.773730
 30
0.0
 10
36.985096
 20
181.837980
 30
0.0
 10
35.826596
 20
182.597660
 30
0.0
  0
LWPOLYLINE
  5
126
100
AcDbEntity
  8
outline
 62
7
100
AcDbPolyline
 90
4
 70
1
 10
33.414629
 20
177.773730
 30
0.0
 10
32.351088
 20
177.773730
 30
0.0
 10
32.351088
 20
181.837980
 30
0.0
 10
33.509588
 20
182.597660
 30
0.0
  0
LWPOLYLINE
  5
127
100
AcDbEntity
  8
outline
 62
7
100
AcDbPolyline
 90
30
 70
0
 10
28.399027
 20
177.338700
 30
0.0
 10
28.399027
 20
194.362160
 30
0.0
 10
28.120788
 20
194.362160
 30
0.0
 10
28.120788
 20
204.170615
 30
0.0
 10
27.404345
 20
204.170615
 30
0.0
 10
27.404345
 20
203.692982
 30
0.0
 10
26.943775
 20
203.692982
 30
0.0
 10
26.943775
 20
204.187674
 30
0.0
 10
26.295565
 20
204.187674
 30
0.0
 10
26.295565
 20
203.692982
 30
0.0
 10
25.783819
 20
203.692982
 30
0.0
 10
25.783819
 20
204.170615
 30
0.0
 10
24.982081
 20
204.170615
 30
0.0
 10
24.982081
 20
201.253663
 30
0.0
 10
24.555626
 20
201.253663
 30
0.0
 10
22.201599
 20
202.703614
 30
0.0
 10
19.711103
 20
201.270723
 30
0.0
 10
19.114067
 20
201.270723
 30
0.0
 10
18.738784
 20
201.458370
 30
0.0
 10
18.499973
 20
201.407170
 30
0.0
 10
18.517033
 20
201.236582
 30
0.0
 10
18.858194
 20
201.117186
 30
0.0
 10
18.875254
 20
199.974291
 30
0.0
 10
18.380572
 20
199.974291
 30
0.0
 10
18.380572
 20
197.279101
 30
0.0
 10
17.971161
 20
197.279101
 30
0.0
 10
17.971161
 20
194.532730
 30
0.0
 10
17.374125
 20
194.532730
 30
0.0
 10
17.374125
 20
184.502510
 30
0.0
 10
14.832455
 20
184.502510
 30
0.0
  0
LWPOLYLINE
  5
128
100
AcDbEntity
  8
outline
 62
7
100
AcDbPolyline
 90
11
 70
0
 10
-0.440204
 20
184.535900
 30
0.0
 10
-0.513044
 20
197.927871
 30
0.0
 10
0.522611
 20
197.927871
 30
0.0
 10
0.522611
 20
200.911174
 30
0.0
 10
1.728295
 20
200.911174
 30
0.0
 10
1.728295
 20
201.622223
 30
0.0
 10
1.975617
 20
201.622223
 30
0.0
 10
1.975617
 20
203.276170
 30
0.0
 10
2.253855
 20
203.554407
 30
0.0
 10
3.073103
 20
203.554407
 30
0.0
 10
7.221461
 20
207.702769
 30
0.0
  0
LWPOLYLINE
  5
129
100
AcDbEntity
  8
outline
 62
7
100
AcDbPolyline
 90
11
 70
0
 10
14.832463
 20
184.502520
 30
0.0
 10
14.905303
 20
197.894501
 30
0.0
 10
13.869647
 20
197.894501
 30
0.0
 10
13.869647
 20
200.877801
 30
0.0
 10
12.663962
 20
200.877801
 30
0.0
 10
12.663962
 20
201.588850
 30
0.0
 10
12.416642
 20
201.588850
 30
0.0
 10
12.416642
 20
203.242798
 30
0.0
 10
12.138404
 20
203.521034
 30
0.0
 10
11.319157
 20
203.521034
 30
0.0
 10
7.170798
 20
207.669398
 30
0.0
  0
LWPOLYLINE
  5
12a
100
AcDbEntity
  8
outline
 62
7
100
AcDbPolyline
 90
14
 70
0
 10
-45.453065
 20
174.795200
 30
0.0
 10
-45.453065
 20
181.111480
 30
0.0
 10
-45.876282
 20
181.111480
 30
0.0
 10
-45.741420
 20
181.614780
 30
0.0
 10
-45.360012
 20
181.716930
 30
0.0
 10
-45.397202
 20
182.269280
 30
0.0
 10
-45.804447
 20
182.373140
 30
0.0
 10
-45.804447
 20
182.604730
 30
0.0
 10
-45.477051
 20
182.772420
 30
0.0
 10
-45.477051
 20
183.786530
 30
0.0
 10
-46.171765
 20
183.834530
 30
0.0
 10
-46.427292
 20
184.153940
 30
0.0
 10
-46.555056
 20
184.353560
 30
0.0
 10
-37.571732
 20
186.693220
 30
0.0
  0
LWPOLYLINE
  5
12b
100
AcDbEntity
  8
outline
 62
7
100
AcDbPolyline
 90
9
 70
1
 10
-44.184781
 20
174.729640
 30
0.0
 10
-44.087871
 20
180.912880
 30
0.0
 10
-43.952187
 20
181.552530
 30
0.0
 10
-44.223550
 20
181.862650
 30
0.0
 10
-44.746899
 20
181.843250
 30
0.0
 10
-44.456153
 20
181.513720
 30
0.0
 10
-44.397993
 20
181.203600
 30
0.0
 10
-44.746892
 20
181.126000
 30
0.0
 10
-44.630593
 20
174.884630
 30
0.0
  0
LWPOLYLINE
  5
12c
100
AcDbEntity
  8
outline
 62
7
100
AcDbPolyline
 90
6
 70
0
 10
-47.667024
 20
180.673000
 30
0.0
 10
-47.718954
 20
204.920945
 30
0.0
 10
-48.100486
 20
205.288384
 30
0.0
 10
-48.100486
 20
207.502623
 30
0.0
 10
-49.481127
 20
207.502623
 30
0.0
 10
-49.507177
 20
211.201696
 30
0.0
  0
LWPOLYLINE
  5
12d
100
AcDbEntity
  8
outline
 62
7
100
AcDbPolyline
 90
6
 70
0
 10
-60.769016
 20
180.619890
 30
0.0
 10
-60.717086
 20
204.867831
 30
0.0
 10
-60.335553
 20
205.235270
 30
0.0
 10
-60.335553
 20
207.449510
 30
0.0
 10
-58.954914
 20
207.449510
 30
0.0
 10
-58.928864
 20
211.148582
 30
0.0
  0
LWPOLYLINE
  5
12e
100
AcDbEntity
  8
outline
 62
7
100
AcDbPolyline
 90
6
 70
0
 10
-49.507170
 20
211.201696
 30
0.0
 10
-54.326385
 20
213.806675
 30
0.0
 10
-55.498626
 20
213.103332
 30
0.0
 10
-58.338056
 20
213.155422
 30
0.0
 10
-58.364106
 20
211.175636
 30
0.0
 10
-58.928873
 20
211.148596
 30
0.0
  0
LWPOLYLINE
  5
12f
100
AcDbEntity
  8
outline
 62
7
100
AcDbPolyline
 90
45
 70
0
 10
-60.769016
 20
180.619890
 30
0.0
 10
-62.089230
 20
180.645290
 30
0.0
 10
-62.037140
 20
197.108761
 30
0.0
 10
-61.437994
 20
197.108761
 30
0.0
 10
-61.464044
 20
198.046551
 30
0.0
 10
-68.236995
 20
198.020451
 30
0.0
 10
-68.132793
 20
204.064020
 30
0.0
 10
-67.846244
 20
204.298468
 30
0.0
 10
-68.236992
 20
204.715267
 30
0.0
 10
-68.289082
 20
205.106014
 30
0.0
 10
-68.106732
 20
205.288358
 30
0.0
 10
-68.236981
 20
205.574907
 30
0.0
 10
-68.263031
 20
205.913556
 30
0.0
 10
-67.950434
 20
206.121954
 30
0.0
 10
-67.888334
 20
206.353726
 30
0.0
 10
-68.653781
 20
206.408506
 30
0.0
 10
-70.946165
 20
209.508431
 30
0.0
 10
-71.024315
 20
210.315977
 30
0.0
 10
-71.545312
 20
210.315977
 30
0.0
 10
-71.545312
 20
209.534481
 30
0.0
 10
-72.899903
 20
207.450501
 30
0.0
 10
-73.212501
 20
207.450501
 30
0.0
 10
-73.941895
 20
208.336190
 30
0.0
 10
-74.749439
 20
207.216052
 30
0.0
 10
-74.931788
 20
206.616904
 30
0.0
 10
-74.960478
 20
204.604860
 30
0.0
 10
-75.663051
 20
204.587280
 30
0.0
 10
-75.663051
 20
204.288686
 30
0.0
 10
-75.030734
 20
204.095478
 30
0.0
 10
-75.048304
 20
200.319141
 30
0.0
 10
-75.517118
 20
200.193521
 30
0.0
 10
-75.557668
 20
199.019381
 30
0.0
 10
-77.366794
 20
198.949181
 30
0.0
 10
-77.454614
 20
187.567510
 30
0.0
 10
-77.050633
 20
187.005450
 30
0.0
 10
-77.050633
 20
175.535960
 30
0.0
 10
-79.105659
 20
175.535960
 30
0.0
 10
-79.105654
 20
207.296581
 30
0.0
 10
-78.218826
 20
208.031776
 30
0.0
 10
-79.164079
 20
208.872003
 30
0.0
 10
-81.404682
 20
208.906993
 30
0.0
 10
-81.404682
 20
211.357653
 30
0.0
 10
-81.894812
 20
211.357653
 30
0.0
 10
-81.894812
 20
210.202342
 30
0.0
 10
-84.345470
 20
210.202342
 30
0.0
  0
LWPOLYLINE
  5
130
100
AcDbEntity
  8
outline
 62
7
100
AcDbPolyline
 90
9
 70
0
 10
-89.585286
 20
175.535920
 30
0.0
 10
-89.585286
 20
207.296586
 30
0.0
 10
-90.472115
 20
208.031776
 30
0.0
 10
-89.526861
 20
208.872003
 30
0.0
 10
-87.286259
 20
208.906993
 30
0.0
 10
-87.286259
 20
211.357653
 30
0.0
 10
-86.796129
 20
211.357653
 30
0.0
 10
-86.796129
 20
210.202342
 30
0.0
 10
-84.345470
 20
210.202342
 30
0.0
  0
LWPOLYLINE
  5
131
100
AcDbEntity
  8
outline
 62
7
100
AcDbPolyline
 90
3
 70
0
 10
-89.585286
 20
175.535920
 30
0.0
 10
-89.565556
 20
173.584220
 30
0.0
 10
-90.472858
 20
173.652020
 30
0.0
  0
LWPOLYLINE
  5
132
100
AcDbEntity
  8
outline
 62
7
100
AcDbPolyline
 90
3
 70
0
 10
-113.947720
 20
171.949170
 30
0.0
 10
-113.878620
 20
157.573990
 30
0.0
 10
-113.878620
 20
7.433200
 30
0.0
  0
LWPOLYLINE
  5
133
100
AcDbEntity
  8
outline
 62
7
100
AcDbPolyline
 90
3
 70
0
 10
-14.196148
 20
6.726978
 30
0.0
 10
-113.824130
 20
6.726952
 30
0.0
 10
-113.878628
 20
7.433204
 30
0.0
  0
LWPOLYLINE
  5
134
100
AcDbEntity
  8
outline
 62
7
100
AcDbPolyline
 90
3
 70
0
 10
89.138074
 20
164.130361
 30
0.0
 10
89.138074
 20
6.726952
 30
0.0
 10
-10.894544
 20
6.726952
 30
0.0
  0
SPLINE
  5
135
100
AcDbEntity
  8
outline
 62
7
100
AcDbSpline
 70
8
 71
3
 72
8
 73
4
 74
0
 40
0
 40
0
 40
0
 40
0
 40
1
 40
1
 40
1
 40
1
 10
-56.642082
 20
136.586955
 30
0.0
 10
-56.064777
 20
136.927980
 30
0.0
 10
-55.498517
 20
137.581177
 30
0.0
 10
-55.383737
 20
138.038499
 30
0.0
  0
SPLINE
  5
136
100
AcDbEntity
  8
outline
 62
7
100
AcDbSpline
 70
8
 71
3
 72
8
 73
4
 74
0
 40
0
 40
0
 40
0
 40
0
 40
1
 40
1
 40
1
 40
1
 10
-55.383737
 20
138.038499
 30
0.0
 10
-55.268956
 20
138.495824
 30
0.0
 10
-55.325338
 20
139.020294
 30
0.0
 10
-55.509032
 20
139.203988
 30
0.0
  0
SPLINE
  5
137
100
AcDbEntity
  8
outline
 62
7
100
AcDbSpline
 70
8
 71
3
 72
8
 73
4
 74
0
 40
0
 40
0
 40
0
 40
0
 40
1
 40
1
 40
1
 40
1
 10
-55.509032
 20
139.203988
 30
0.0
 10
-55.709656
 20
139.404616
 30
0.0
 10
-62.235885
 20
139.500919
 30
0.0
 10
-71.853030
 20
139.445168
 30
0.0
  0
LWPOLYLINE
  5
138
100
AcDbEntity
  8
outline
 62
7
100
AcDbPolyline
 90
8
 70
1
 10
-51.701768
 20
143.450513
 30
0.0
 10
-51.701768
 20
145.945063
 30
0.0
 10
-71.658135
 20
145.945063
 30
0.0
 10
-91.614506
 20
145.945063
 30
0.0
 10
-91.614506
 20
143.450513
 30
0.0
 10
-91.614506
 20
140.955968
 30
0.0
 10
-71.658135
 20
140.955968
 30
0.0
 10
-51.701768
 20
140.955968
 30
0.0
  0
SPLINE
  5
139
100
AcDbEntity
  8
outline
 62
7
100
AcDbSpline
 70
8
 71
3
 72
8
 73
4
 74
0
 40
0
 40
0
 40
0
 40
0
 40
1
 40
1
 40
1
 40
1
 10
-87.988192
 20
138.702211
 30
0.0
 10
-88.057022
 20
138.344627
 30
0.0
 10
-87.818648
 20
137.724336
 30
0.0
 10
-87.458466
 20
137.323788
 30
0.0
  0
SPLINE
  5
13a
100
AcDbEntity
  8
outline
 62
7
100
AcDbSpline
 70
8
 71
3
 72
8
 73
4
 74
0
 40
0
 40
0
 40
0
 40
0
 40
1
 40
1
 40
1
 40
1
 10
-87.458466
 20
137.323788
 30
0.0
 10
-87.098286
 20
136.923236
 30
0.0
 10
-86.482865
 20
136.464240
 30
0.0
 10
-86.090866
 20
136.303800
 30
0.0
  0
SPLINE
  5
13b
100
AcDbEntity
  8
outline
 62
7
100
AcDbSpline
 70
8
 71
3
 72
8
 73
4
 74
0
 40
0
 40
0
 40
0
 40
0
 40
1
 40
1
 40
1
 40
1
 10
-86.090866
 20
136.303800
 30
0.0
 10
-85.698866
 20
136.143355
 30
0.0
 10
-79.148701
 20
136.001921
 30
0.0
 10
-71.534939
 20
135.989494
 30
0.0
  0
LWPOLYLINE
  5
13c
100
AcDbEntity
  8
outline
 62
7
100
AcDbPolyline
 90
3
 70
0
 10
-71.853030
 20
139.445168
 30
0.0
 10
-87.863045
 20
139.352362
 30
0.0
 10
-87.988192
 20
138.702211
 30
0.0
  0
SPLINE
  5
13d
100
AcDbEntity
  8
outline
 62
7
100
AcDbSpline
 70
8
 71
3
 72
8
 73
4
 74
0
 40
0
 40
0
 40
0
 40
0
 40
1
 40
1
 40
1
 40
1
 10
-52.273916
 20
116.099633
 30
0.0
 10
-50.210521
 20
118.696632
 30
0.0
 10
-48.028180
 20
121.817055
 30
0.0
 10
-47.424266
 20
123.033902
 30
0.0
  0
SPLINE
  5
13e
100
AcDbEntity
  8
outline
 62
7
100
AcDbSpline
 70
8
 71
3
 72
8
 73
4
 74
0
 40
0
 40
0
 40
0
 40
0
 40
1
 40
1
 40
1
 40
1
 10
-47.424266
 20
123.033902
 30
0.0
 10
-46.820351
 20
124.250757
 30
0.0
 10
-46.230617
 20
126.053744
 30
0.0
 10
-46.113748
 20
127.040552
 30
0.0
  0
SPLINE
  5
13f
100
AcDbEntity
  8
outline
 62
7
100
AcDbSpline
 70
8
 71
3
 72
8
 73
4
 74
0
 40
0
 40
0
 40
0
 40
0
 40
1
 40
1
 40
1
 40
1
 10
-46.113748
 20
127.040552
 30
0.0
 10
-45.965065
 20
128.295956
 30
0.0
 10
-46.080430
 20
129.303937
 30
0.0
 10
-46.497955
 20
130.397184
 30
0.0
  0
SPLINE
  5
140
100
AcDbEntity
  8
outline
 62
7
100
AcDbSpline
 70
8
 71
3
 72
8
 73
4
 74
0
 40
0
 40
0
 40
0
 40
0
 40
1
 40
1
 40
1
 40
1
 10
-46.497955
 20
130.397184
 30
0.0
 10
-46.826142
 20
131.256527
 30
0.0
 10
-47.419410
 20
132.253525
 30
0.0
 10
-47.816332
 20
132.612731
 30
0.0
  0
LWPOLYLINE
  5
141
100
AcDbEntity
  8
outline
 62
7
100
AcDbPolyline
 90
3
 70
0
 10
-71.534939
 20
135.989494
 30
0.0
 10
-57.691735
 20
135.966913
 30
0.0
 10
-56.642082
 20
136.586955
 30
0.0
  0
SPLINE
  5
142
100
AcDbEntity
  8
outline
 62
7
100
AcDbSpline
 70
8
 71
3
 72
8
 73
4
 74
0
 40
0
 40
0
 40
0
 40
0
 40
1
 40
1
 40
1
 40
1
 10
-48.867164
 20
132.745463
 30
0.0
 10
-49.048189
 20
132.459256
 30
0.0
 10
-49.198763
 20
131.813196
 30
0.0
 10
-49.201767
 20
131.309771
 30
0.0
  0
SPLINE
  5
143
100
AcDbEntity
  8
outline
 62
7
100
AcDbSpline
 70
8
 71
3
 72
8
 73
4
 74
0
 40
0
 40
0
 40
0
 40
0
 40
1
 40
1
 40
1
 40
1
 10
-49.201767
 20
131.309771
 30
0.0
 10
-49.204438
 20
130.806342
 30
0.0
 10
-49.446208
 20
129.589700
 30
0.0
 10
-49.738300
 20
128.606108
 30
0.0
  0
SPLINE
  5
144
100
AcDbEntity
  8
outline
 62
7
100
AcDbSpline
 70
8
 71
3
 72
8
 73
4
 74
0
 40
0
 40
0
 40
0
 40
0
 40
1
 40
1
 40
1
 40
1
 10
-49.738300
 20
128.606108
 30
0.0
 10
-50.030399
 20
127.622520
 30
0.0
 10
-52.052238
 20
123.712735
 30
0.0
 10
-54.231280
 20
119.917688
 30
0.0
  0
SPLINE
  5
145
100
AcDbEntity
  8
outline
 62
7
100
AcDbSpline
 70
8
 71
3
 72
8
 73
4
 74
0
 40
0
 40
0
 40
0
 40
0
 40
1
 40
1
 40
1
 40
1
 10
-54.231280
 20
119.917688
 30
0.0
 10
-56.410326
 20
116.122646
 30
0.0
 10
-58.272830
 20
112.810050
 30
0.0
 10
-58.370176
 20
112.556370
 30
0.0
  0
SPLINE
  5
146
100
AcDbEntity
  8
outline
 62
7
100
AcDbSpline
 70
8
 71
3
 72
8
 73
4
 74
0
 40
0
 40
0
 40
0
 40
0
 40
1
 40
1
 40
1
 40
1
 10
-58.370176
 20
112.556370
 30
0.0
 10
-58.468729
 20
112.299543
 30
0.0
 10
-58.175303
 20
111.946187
 30
0.0
 10
-57.708107
 20
111.759059
 30
0.0
  0
SPLINE
  5
147
100
AcDbEntity
  8
outline
 62
7
100
AcDbSpline
 70
8
 71
3
 72
8
 73
4
 74
0
 40
0
 40
0
 40
0
 40
0
 40
1
 40
1
 40
1
 40
1
 10
-57.708107
 20
111.759059
 30
0.0
 10
-57.246621
 20
111.574219
 30
0.0
 10
-56.679256
 20
111.412822
 30
0.0
 10
-56.447295
 20
111.400400
 30
0.0
  0
SPLINE
  5
148
100
AcDbEntity
  8
outline
 62
7
100
AcDbSpline
 70
8
 71
3
 72
8
 73
4
 74
0
 40
0
 40
0
 40
0
 40
0
 40
1
 40
1
 40
1
 40
1
 10
-56.447295
 20
111.400400
 30
0.0
 10
-56.215334
 20
111.387969
 30
0.0
 10
-54.337311
 20
113.502628
 30
0.0
 10
-52.273916
 20
116.099633
 30
0.0
  0
LWPOLYLINE
  5
149
100
AcDbEntity
  8
outline
 62
7
100
AcDbPolyline
 90
3
 70
0
 10
-47.816332
 20
132.612731
 30
0.0
 10
-48.538008
 20
133.265839
 30
0.0
 10
-48.867164
 20
132.745463
 30
0.0
  0
LWPOLYLINE
  5
14a
100
AcDbEntity
  8
outline
 62
7
100
AcDbPolyline
 90
1
 70
1
 10
-52.273916
 20
116.099633
 30
0.0
  0
SPLINE
  5
14b
100
AcDbEntity
  8
outline
 62
7
100
AcDbSpline
 70
8
 71
3
 72
8
 73
4
 74
0
 40
0
 40
0
 40
0
 40
0
 40
1
 40
1
 40
1
 40
1
 10
-86.086643
 20
114.801648
 30
0.0
 10
-86.835253
 20
116.152541
 30
0.0
 10
-88.568283
 20
119.161142
 30
0.0
 10
-89.937820
 20
121.487431
 30
0.0
  0
SPLINE
  5
14c
100
AcDbEntity
  8
outline
 62
7
100
AcDbSpline
 70
8
 71
3
 72
8
 73
4
 74
0
 40
0
 40
0
 40
0
 40
0
 40
1
 40
1
 40
1
 40
1
 10
-89.937820
 20
121.487431
 30
0.0
 10
-91.307353
 20
123.813720
 30
0.0
 10
-92.728485
 20
126.508170
 30
0.0
 10
-93.095891
 20
127.475092
 30
0.0
  0
SPLINE
  5
14d
100
AcDbEntity
  8
outline
 62
7
100
AcDbSpline
 70
8
 71
3
 72
8
 73
4
 74
0
 40
0
 40
0
 40
0
 40
0
 40
1
 40
1
 40
1
 40
1
 10
-93.095891
 20
127.475092
 30
0.0
 10
-93.463292
 20
128.442015
 30
0.0
 10
-93.881943
 20
130.053425
 30
0.0
 10
-94.026229
 20
131.056003
 30
0.0
  0
SPLINE
  5
14e
100
AcDbEntity
  8
outline
 62
7
100
AcDbSpline
 70
8
 71
3
 72
8
 73
4
 74
0
 40
0
 40
0
 40
0
 40
0
 40
1
 40
1
 40
1
 40
1
 10
-94.026229
 20
131.056003
 30
0.0
 10
-94.170515
 20
132.058574
 30
0.0
 10
-94.479610
 20
132.942549
 30
0.0
 10
-94.713107
 20
133.020382
 30
0.0
  0
SPLINE
  5
14f
100
AcDbEntity
  8
outline
 62
7
100
AcDbSpline
 70
8
 71
3
 72
8
 73
4
 74
0
 40
0
 40
0
 40
0
 40
0
 40
1
 40
1
 40
1
 40
1
 10
-94.713107
 20
133.020382
 30
0.0
 10
-94.946611
 20
133.098214
 30
0.0
 10
-95.587764
 20
132.481686
 30
0.0
 10
-96.137896
 20
131.650318
 30
0.0
  0
LWPOLYLINE
  5
150
100
AcDbEntity
  8
outline
 62
7
100
AcDbPolyline
 90
3
 70
0
 10
-85.387225
 20
111.861646
 30
0.0
 10
-84.725536
 20
112.345486
 30
0.0
 10
-86.086643
 20
114.801648
 30
0.0
  0
SPLINE
  5
151
100
AcDbEntity
  8
outline
 62
7
100
AcDbSpline
 70
8
 71
3
 72
8
 73
4
 74
0
 40
0
 40
0
 40
0
 40
0
 40
1
 40
1
 40
1
 40
1
 10
-95.782204
 20
123.067342
 30
0.0
 10
-95.064706
 20
121.636099
 30
0.0
 10
-92.831178
 20
118.420885
 30
0.0
 10
-90.818808
 20
115.922411
 30
0.0
  0
SPLINE
  5
152
100
AcDbEntity
  8
outline
 62
7
100
AcDbSpline
 70
8
 71
3
 72
8
 73
4
 74
0
 40
0
 40
0
 40
0
 40
0
 40
1
 40
1
 40
1
 40
1
 10
-90.818808
 20
115.922411
 30
0.0
 10
-88.806438
 20
113.423937
 30
0.0
 10
-86.909962
 20
111.379302
 30
0.0
 10
-86.604427
 20
111.378772
 30
0.0
  0
SPLINE
  5
153
100
AcDbEntity
  8
outline
 62
7
100
AcDbSpline
 70
8
 71
3
 72
8
 73
4
 74
0
 40
0
 40
0
 40
0
 40
0
 40
1
 40
1
 40
1
 40
1
 10
-86.604427
 20
111.378772
 30
0.0
 10
-86.298887
 20
111.378341
 30
0.0
 10
-85.751142
 20
111.595541
 30
0.0
 10
-85.387214
 20
111.861646
 30
0.0
  0
LWPOLYLINE
  5
154
100
AcDbEntity
  8
outline
 62
7
100
AcDbPolyline
 90
5
 70
0
 10
-96.137896
 20
131.650318
 30
0.0
 10
-97.138140
 20
130.138741
 30
0.0
 10
-97.112440
 20
127.904167
 30
0.0
 10
-97.086741
 20
125.669595
 30
0.0
 10
-95.782204
 20
123.067342
 30
0.0
  0
SPLINE
  5
155
100
AcDbEntity
  8
outline
 62
7
100
AcDbSpline
 70
8
 71
3
 72
8
 73
4
 74
0
 40
0
 40
0
 40
0
 40
0
 40
1
 40
1
 40
1
 40
1
 10
-65.579881
 20
111.823253
 30
0.0
 10
-65.280316
 20
112.802923
 30
0.0
 10
-65.044763
 20
116.547048
 30
0.0
 10
-64.912899
 20
122.425075
 30
0.0
  0
LWPOLYLINE
  5
156
100
AcDbEntity
  8
outline
 62
7
100
AcDbPolyline
 90
1
 70
1
 10
-85.387214
 20
111.861646
 30
0.0
  0
SPLINE
  5
157
100
AcDbEntity
  8
outline
 62
7
100
AcDbSpline
 70
8
 71
3
 72
8
 73
4
 74
0
 40
0
 40
0
 40
0
 40
0
 40
1
 40
1
 40
1
 40
1
 10
-63.461771
 20
125.839561
 30
0.0
 10
-63.346753
 20
122.177672
 30
0.0
 10
-63.144587
 20
120.120677
 30
0.0
 10
-62.891453
 20
120.036729
 30
0.0
  0
SPLINE
  5
158
100
AcDbEntity
  8
outline
 62
7
100
AcDbSpline
 70
8
 71
3
 72
8
 73
4
 74
0
 40
0
 40
0
 40
0
 40
0
 40
1
 40
1
 40
1
 40
1
 10
-62.891453
 20
120.036729
 30
0.0
 10
-62.675779
 20
119.965199
 30
0.0
 10
-61.989160
 20
121.076746
 30
0.0
 10
-61.365630
 20
122.506832
 30
0.0
  0
LWPOLYLINE
  5
159
100
AcDbEntity
  8
outline
 62
7
100
AcDbPolyline
 90
5
 70
0
 10
-64.912899
 20
122.425075
 30
0.0
 10
-64.709042
 20
131.512350
 30
0.0
 10
-64.174500
 20
131.512350
 30
0.0
 10
-63.639954
 20
131.512350
 30
0.0
 10
-63.461771
 20
125.839561
 30
0.0
  0
SPLINE
  5
15a
100
AcDbEntity
  8
outline
 62
7
100
AcDbSpline
 70
8
 71
3
 72
8
 73
4
 74
0
 40
0
 40
0
 40
0
 40
0
 40
1
 40
1
 40
1
 40
1
 10
-81.902876
 20
122.470188
 30
0.0
 10
-81.266269
 20
121.025006
 30
0.0
 10
-80.585048
 20
119.861743
 30
0.0
 10
-80.389048
 20
119.885161
 30
0.0
  0
SPLINE
  5
15b
100
AcDbEntity
  8
outline
 62
7
100
AcDbSpline
 70
8
 71
3
 72
8
 73
4
 74
0
 40
0
 40
0
 40
0
 40
0
 40
1
 40
1
 40
1
 40
1
 10
-80.389048
 20
119.885161
 30
0.0
 10
-80.176104
 20
119.910594
 30
0.0
 10
-79.960971
 20
122.258933
 30
0.0
 10
-79.854503
 20
125.720049
 30
0.0
  0
LWPOLYLINE
  5
15c
100
AcDbEntity
  8
outline
 62
7
100
AcDbPolyline
 90
9
 70
0
 10
-61.365630
 20
122.506832
 30
0.0
 10
-60.231942
 20
125.106991
 30
0.0
 10
-60.332311
 20
129.735123
 30
0.0
 10
-60.432682
 20
134.363259
 30
0.0
 10
-71.658135
 20
134.363259
 30
0.0
 10
-82.883593
 20
134.363259
 30
0.0
 10
-82.971968
 20
129.730528
 30
0.0
 10
-83.060343
 20
125.097803
 30
0.0
 10
-81.902876
 20
122.470188
 30
0.0
  0
SPLINE
  5
15d
100
AcDbEntity
  8
outline
 62
7
100
AcDbSpline
 70
8
 71
3
 72
8
 73
4
 74
0
 40
0
 40
0
 40
0
 40
0
 40
1
 40
1
 40
1
 40
1
 10
-77.027881
 20
120.564307
 30
0.0
 10
-76.355244
 20
120.618886
 30
0.0
 10
-75.597819
 20
120.835405
 30
0.0
 10
-75.344723
 20
121.045458
 30
0.0
  0
SPLINE
  5
15e
100
AcDbEntity
  8
outline
 62
7
100
AcDbSpline
 70
8
 71
3
 72
8
 73
4
 74
0
 40
0
 40
0
 40
0
 40
0
 40
1
 40
1
 40
1
 40
1
 10
-75.344723
 20
121.045458
 30
0.0
 10
-75.017702
 20
121.316859
 30
0.0
 10
-74.855993
 20
122.886485
 30
0.0
 10
-74.785889
 20
126.469861
 30
0.0
  0
LWPOLYLINE
  5
15f
100
AcDbEntity
  8
outline
 62
7
100
AcDbPolyline
 90
7
 70
0
 10
-79.854503
 20
125.720049
 30
0.0
 10
-79.676320
 20
131.512350
 30
0.0
 10
-79.141775
 20
131.512350
 30
0.0
 10
-78.607226
 20
131.512350
 30
0.0
 10
-78.429047
 20
125.988710
 30
0.0
 10
-78.250866
 20
120.465074
 30
0.0
 10
-77.027881
 20
120.564307
 30
0.0
  0
SPLINE
  5
160
100
AcDbEntity
  8
outline
 62
7
100
AcDbSpline
 70
8
 71
3
 72
8
 73
4
 74
0
 40
0
 40
0
 40
0
 40
0
 40
1
 40
1
 40
1
 40
1
 10
-73.519672
 20
125.835746
 30
0.0
 10
-73.457598
 20
122.257033
 30
0.0
 10
-73.271321
 20
119.978543
 30
0.0
 10
-73.015629
 20
119.670455
 30
0.0
  0
SPLINE
  5
161
100
AcDbEntity
  8
outline
 62
7
100
AcDbSpline
 70
8
 71
3
 72
8
 73
4
 74
0
 40
0
 40
0
 40
0
 40
0
 40
1
 40
1
 40
1
 40
1
 10
-73.015629
 20
119.670455
 30
0.0
 10
-72.772769
 20
119.377822
 30
0.0
 10
-72.097413
 20
119.224735
 30
0.0
 10
-71.332275
 20
119.288872
 30
0.0
  0
LWPOLYLINE
  5
162
100
AcDbEntity
  8
outline
 62
7
100
AcDbPolyline
 90
5
 70
0
 10
-74.785889
 20
126.469861
 30
0.0
 10
-74.687229
 20
131.512350
 30
0.0
 10
-74.152684
 20
131.512350
 30
0.0
 10
-73.618137
 20
131.512350
 30
0.0
 10
-73.519672
 20
125.835746
 30
0.0
  0
SPLINE
  5
163
100
AcDbEntity
  8
outline
 62
7
100
AcDbSpline
 70
8
 71
3
 72
8
 73
4
 74
0
 40
0
 40
0
 40
0
 40
0
 40
1
 40
1
 40
1
 40
1
 10
-67.465494
 20
115.151264
 30
0.0
 10
-66.896614
 20
113.917811
 30
0.0
 10
-66.722923
 20
113.056633
 30
0.0
 10
-66.877177
 20
112.234386
 30
0.0
  0
SPLINE
  5
164
100
AcDbEntity
  8
outline
 62
7
100
AcDbSpline
 70
8
 71
3
 72
8
 73
4
 74
0
 40
0
 40
0
 40
0
 40
0
 40
1
 40
1
 40
1
 40
1
 10
-66.877177
 20
112.234386
 30
0.0
 10
-66.997558
 20
111.592699
 30
0.0
 10
-66.990511
 20
110.896908
 30
0.0
 10
-66.861537
 20
110.688193
 30
0.0
  0
SPLINE
  5
165
100
AcDbEntity
  8
outline
 62
7
100
AcDbSpline
 70
8
 71
3
 72
8
 73
4
 74
0
 40
0
 40
0
 40
0
 40
0
 40
1
 40
1
 40
1
 40
1
 10
-66.861537
 20
110.688193
 30
0.0
 10
-66.732540
 20
110.479476
 30
0.0
 10
-66.495609
 20
110.308708
 30
0.0
 10
-66.335014
 20
110.308708
 30
0.0
  0
SPLINE
  5
166
100
AcDbEntity
  8
outline
 62
7
100
AcDbSpline
 70
8
 71
3
 72
8
 73
4
 74
0
 40
0
 40
0
 40
0
 40
0
 40
1
 40
1
 40
1
 40
1
 10
-66.335014
 20
110.308708
 30
0.0
 10
-66.174422
 20
110.308708
 30
0.0
 10
-65.834623
 20
110.990254
 30
0.0
 10
-65.579901
 20
111.823253
 30
0.0
  0
LWPOLYLINE
  5
167
100
AcDbEntity
  8
outline
 62
7
100
AcDbPolyline
 90
9
 70
0
 10
-71.332275
 20
119.288872
 30
0.0
 10
-70.054498
 20
119.395981
 30
0.0
 10
-69.876319
 20
125.454167
 30
0.0
 10
-69.698138
 20
131.512350
 30
0.0
 10
-69.163591
 20
131.512350
 30
0.0
 10
-68.629046
 20
131.512350
 30
0.0
 10
-68.450860
 20
124.206891
 30
0.0
 10
-68.272681
 20
116.901435
 30
0.0
 10
-67.465494
 20
115.151264
 30
0.0
  0
SPLINE
  5
168
100
AcDbEntity
  8
outline
 62
7
100
AcDbSpline
 70
8
 71
3
 72
8
 73
4
 74
0
 40
0
 40
0
 40
0
 40
0
 40
1
 40
1
 40
1
 40
1
 10
-76.238448
 20
110.815981
 30
0.0
 10
-76.019866
 20
111.295718
 30
0.0
 10
-75.949111
 20
112.234869
 30
0.0
 10
-76.079286
 20
112.928735
 30
0.0
  0
SPLINE
  5
169
100
AcDbEntity
  8
outline
 62
7
100
AcDbSpline
 70
8
 71
3
 72
8
 73
4
 74
0
 40
0
 40
0
 40
0
 40
0
 40
1
 40
1
 40
1
 40
1
 10
-76.079286
 20
112.928735
 30
0.0
 10
-76.208164
 20
113.615746
 30
0.0
 10
-76.617843
 20
114.550112
 30
0.0
 10
-76.989671
 20
115.005100
 30
0.0
  0
SPLINE
  5
16a
100
AcDbEntity
  8
outline
 62
7
100
AcDbSpline
 70
8
 71
3
 72
8
 73
4
 74
0
 40
0
 40
0
 40
0
 40
0
 40
1
 40
1
 40
1
 40
1
 10
-76.989671
 20
115.005100
 30
0.0
 10
-77.503127
 20
115.633376
 30
0.0
 10
-77.766609
 20
115.733264
 30
0.0
 10
-78.085152
 20
115.420397
 30
0.0
  0
SPLINE
  5
16b
100
AcDbEntity
  8
outline
 62
7
100
AcDbSpline
 70
8
 71
3
 72
8
 73
4
 74
0
 40
0
 40
0
 40
0
 40
0
 40
1
 40
1
 40
1
 40
1
 10
-78.085152
 20
115.420397
 30
0.0
 10
-78.406501
 20
115.104779
 30
0.0
 10
-78.352292
 20
114.417294
 30
0.0
 10
-77.853338
 20
112.480396
 30
0.0
  0
SPLINE
  5
16c
100
AcDbEntity
  8
outline
 62
7
100
AcDbSpline
 70
8
 71
3
 72
8
 73
4
 74
0
 40
0
 40
0
 40
0
 40
0
 40
1
 40
1
 40
1
 40
1
 10
-77.853338
 20
112.480396
 30
0.0
 10
-77.495153
 20
111.089965
 30
0.0
 10
-77.073815
 20
109.952344
 30
0.0
 10
-76.917018
 20
109.952344
 30
0.0
  0
SPLINE
  5
16d
100
AcDbEntity
  8
outline
 62
7
100
AcDbSpline
 70
8
 71
3
 72
8
 73
4
 74
0
 40
0
 40
0
 40
0
 40
0
 40
1
 40
1
 40
1
 40
1
 10
-76.917018
 20
109.952344
 30
0.0
 10
-76.760230
 20
109.952344
 30
0.0
 10
-76.454874
 20
110.340977
 30
0.0
 10
-76.238448
 20
110.815981
 30
0.0
  0
LWPOLYLINE
  5
16e
100
AcDbEntity
  8
outline
 62
7
100
AcDbPolyline
 90
1
 70
1
 10
-65.579901
 20
111.823253
 30
0.0
  0
SPLINE
  5
16f
100
AcDbEntity
  8
outline
 62
7
100
AcDbSpline
 70
8
 71
3
 72
8
 73
4
 74
0
 40
0
 40
0
 40
0
 40
0
 40
1
 40
1
 40
1
 40
1
 10
-50.251013
 20
110.326376
 30
0.0
 10
-48.598925
 20
111.708097
 30
0.0
 10
-46.872416
 20
113.271643
 30
0.0
 10
-46.414322
 20
113.800927
 30
0.0
  0
SPLINE
  5
170
100
AcDbEntity
  8
outline
 62
7
100
AcDbSpline
 70
8
 71
3
 72
8
 73
4
 74
0
 40
0
 40
0
 40
0
 40
0
 40
1
 40
1
 40
1
 40
1
 10
-46.414322
 20
113.800927
 30
0.0
 10
-45.956230
 20
114.330203
 30
0.0
 10
-45.278207
 20
115.404707
 30
0.0
 10
-44.907606
 20
116.188706
 30
0.0
  0
SPLINE
  5
171
100
AcDbEntity
  8
outline
 62
7
100
AcDbSpline
 70
8
 71
3
 72
8
 73
4
 74
0
 40
0
 40
0
 40
0
 40
0
 40
1
 40
1
 40
1
 40
1
 10
-44.907606
 20
116.188706
 30
0.0
 10
-44.481377
 20
117.090390
 30
0.0
 10
-44.232912
 20
118.399826
 30
0.0
 10
-44.231414
 20
119.752345
 30
0.0
  0
SPLINE
  5
172
100
AcDbEntity
  8
outline
 62
7
100
AcDbSpline
 70
8
 71
3
 72
8
 73
4
 74
0
 40
0
 40
0
 40
0
 40
0
 40
1
 40
1
 40
1
 40
1
 10
-44.231414
 20
119.752345
 30
0.0
 10
-44.230122
 20
120.928345
 30
0.0
 10
-44.378232
 20
122.126429
 30
0.0
 10
-44.560575
 20
122.414756
 30
0.0
  0
SPLINE
  5
173
100
AcDbEntity
  8
outline
 62
7
100
AcDbSpline
 70
8
 71
3
 72
8
 73
4
 74
0
 40
0
 40
0
 40
0
 40
0
 40
1
 40
1
 40
1
 40
1
 10
-44.560575
 20
122.414756
 30
0.0
 10
-44.742916
 20
122.703076
 30
0.0
 10
-44.964226
 20
122.863440
 30
0.0
 10
-45.052373
 20
122.771115
 30
0.0
  0
SPLINE
  5
174
100
AcDbEntity
  8
outline
 62
7
100
AcDbSpline
 70
8
 71
3
 72
8
 73
4
 74
0
 40
0
 40
0
 40
0
 40
0
 40
1
 40
1
 40
1
 40
1
 10
-45.052373
 20
122.771115
 30
0.0
 10
-45.140515
 20
122.678793
 30
0.0
 10
-46.220341
 20
121.240165
 30
0.0
 10
-47.451973
 20
119.574164
 30
0.0
  0
SPLINE
  5
175
100
AcDbEntity
  8
outline
 62
7
100
AcDbSpline
 70
8
 71
3
 72
8
 73
4
 74
0
 40
0
 40
0
 40
0
 40
0
 40
1
 40
1
 40
1
 40
1
 10
-47.451973
 20
119.574164
 30
0.0
 10
-48.683606
 20
117.908164
 30
0.0
 10
-51.105847
 20
114.835590
 30
0.0
 10
-52.834721
 20
112.746226
 30
0.0
  0
SPLINE
  5
176
100
AcDbEntity
  8
outline
 62
7
100
AcDbSpline
 70
8
 71
3
 72
8
 73
4
 74
0
 40
0
 40
0
 40
0
 40
0
 40
1
 40
1
 40
1
 40
1
 10
-52.834721
 20
112.746226
 30
0.0
 10
-54.563597
 20
110.656860
 30
0.0
 10
-55.978134
 20
108.847601
 30
0.0
 10
-55.978134
 20
108.725647
 30
0.0
  0
SPLINE
  5
177
100
AcDbEntity
  8
outline
 62
7
100
AcDbSpline
 70
8
 71
3
 72
8
 73
4
 74
0
 40
0
 40
0
 40
0
 40
0
 40
1
 40
1
 40
1
 40
1
 10
-55.978134
 20
108.725647
 30
0.0
 10
-55.978134
 20
108.603700
 30
0.0
 10
-55.617316
 20
108.358893
 30
0.0
 10
-55.176313
 20
108.181632
 30
0.0
  0
SPLINE
  5
178
100
AcDbEntity
  8
outline
 62
7
100
AcDbSpline
 70
8
 71
3
 72
8
 73
4
 74
0
 40
0
 40
0
 40
0
 40
0
 40
1
 40
1
 40
1
 40
1
 10
-55.176313
 20
108.181632
 30
0.0
 10
-54.735315
 20
108.004368
 30
0.0
 10
-54.122563
 20
107.849175
 30
0.0
 10
-53.814649
 20
107.836748
 30
0.0
  0
SPLINE
  5
179
100
AcDbEntity
  8
outline
 62
7
100
AcDbSpline
 70
8
 71
3
 72
8
 73
4
 74
0
 40
0
 40
0
 40
0
 40
0
 40
1
 40
1
 40
1
 40
1
 10
-53.814649
 20
107.836748
 30
0.0
 10
-53.506735
 20
107.824317
 30
0.0
 10
-51.903098
 20
108.944658
 30
0.0
 10
-50.251013
 20
110.326376
 30
0.0
  0
LWPOLYLINE
  5
17a
100
AcDbEntity
  8
outline
 62
7
100
AcDbPolyline
 90
1
 70
1
 10
-76.238448
 20
110.815981
 30
0.0
  0
SPLINE
  5
17b
100
AcDbEntity
  8
outline
 62
7
100
AcDbSpline
 70
8
 71
3
 72
8
 73
4
 74
0
 40
0
 40
0
 40
0
 40
0
 40
1
 40
1
 40
1
 40
1
 10
-87.865157
 20
108.310145
 30
0.0
 10
-87.360588
 20
108.679095
 30
0.0
 10
-87.283738
 20
108.930093
 30
0.0
 10
-87.565112
 20
109.290145
 30
0.0
  0
SPLINE
  5
17c
100
AcDbEntity
  8
outline
 62
7
100
AcDbSpline
 70
8
 71
3
 72
8
 73
4
 74
0
 40
0
 40
0
 40
0
 40
0
 40
1
 40
1
 40
1
 40
1
 10
-87.565112
 20
109.290145
 30
0.0
 10
-87.773151
 20
109.556352
 30
0.0
 10
-89.485531
 20
111.662118
 30
0.0
 10
-91.370407
 20
113.969620
 30
0.0
  0
SPLINE
  5
17d
100
AcDbEntity
  8
outline
 62
7
100
AcDbSpline
 70
8
 71
3
 72
8
 73
4
 74
0
 40
0
 40
0
 40
0
 40
0
 40
1
 40
1
 40
1
 40
1
 10
-91.370407
 20
113.969620
 30
0.0
 10
-93.255279
 20
116.277123
 30
0.0
 10
-95.538637
 20
119.203762
 30
0.0
 10
-96.444532
 20
120.473260
 30
0.0
  0
SPLINE
  5
17e
100
AcDbEntity
  8
outline
 62
7
100
AcDbSpline
 70
8
 71
3
 72
8
 73
4
 74
0
 40
0
 40
0
 40
0
 40
0
 40
1
 40
1
 40
1
 40
1
 10
-96.444532
 20
120.473260
 30
0.0
 10
-97.350423
 20
121.742758
 30
0.0
 10
-98.220741
 20
122.781439
 30
0.0
 10
-98.378567
 20
122.781439
 30
0.0
  0
SPLINE
  5
17f
100
AcDbEntity
  8
outline
 62
7
100
AcDbSpline
 70
8
 71
3
 72
8
 73
4
 74
0
 40
0
 40
0
 40
0
 40
0
 40
1
 40
1
 40
1
 40
1
 10
-98.378567
 20
122.781439
 30
0.0
 10
-98.536393
 20
122.781439
 30
0.0
 10
-98.762863
 20
122.527777
 30
0.0
 10
-98.881830
 20
122.217745
 30
0.0
  0
SPLINE
  5
180
100
AcDbEntity
  8
outline
 62
7
100
AcDbSpline
 70
8
 71
3
 72
8
 73
4
 74
0
 40
0
 40
0
 40
0
 40
0
 40
1
 40
1
 40
1
 40
1
 10
-98.881830
 20
122.217745
 30
0.0
 10
-99.000800
 20
121.907714
 30
0.0
 10
-99.096573
 20
120.825260
 30
0.0
 10
-99.094658
 20
119.812291
 30
0.0
  0
SPLINE
  5
181
100
AcDbEntity
  8
outline
 62
7
100
AcDbSpline
 70
8
 71
3
 72
8
 73
4
 74
0
 40
0
 40
0
 40
0
 40
0
 40
1
 40
1
 40
1
 40
1
 10
-99.094658
 20
119.812291
 30
0.0
 10
-99.092439
 20
118.616844
 30
0.0
 10
-98.794030
 20
117.345243
 30
0.0
 10
-98.244424
 20
116.188706
 30
0.0
  0
SPLINE
  5
182
100
AcDbEntity
  8
outline
 62
7
100
AcDbSpline
 70
8
 71
3
 72
8
 73
4
 74
0
 40
0
 40
0
 40
0
 40
0
 40
1
 40
1
 40
1
 40
1
 10
-98.244424
 20
116.188706
 30
0.0
 10
-97.778705
 20
115.208707
 30
0.0
 10
-96.537455
 20
113.592221
 30
0.0
 10
-95.486085
 20
112.596515
 30
0.0
  0
SPLINE
  5
183
100
AcDbEntity
  8
outline
 62
7
100
AcDbSpline
 70
8
 71
3
 72
8
 73
4
 74
0
 40
0
 40
0
 40
0
 40
0
 40
1
 40
1
 40
1
 40
1
 10
-95.486085
 20
112.596515
 30
0.0
 10
-94.434715
 20
111.600814
 30
0.0
 10
-92.772685
 20
110.118484
 30
0.0
 10
-91.792685
 20
109.302451
 30
0.0
  0
SPLINE
  5
184
100
AcDbEntity
  8
outline
 62
7
100
AcDbSpline
 70
8
 71
3
 72
8
 73
4
 74
0
 40
0
 40
0
 40
0
 40
0
 40
1
 40
1
 40
1
 40
1
 10
-91.792685
 20
109.302451
 30
0.0
 10
-90.812685
 20
108.486422
 30
0.0
 10
-89.680698
 20
107.817725
 30
0.0
 10
-89.277161
 20
107.816460
 30
0.0
  0
SPLINE
  5
185
100
AcDbEntity
  8
outline
 62
7
100
AcDbSpline
 70
8
 71
3
 72
8
 73
4
 74
0
 40
0
 40
0
 40
0
 40
0
 40
1
 40
1
 40
1
 40
1
 10
-89.277161
 20
107.816460
 30
0.0
 10
-88.873622
 20
107.815168
 30
0.0
 10
-88.238221
 20
108.037350
 30
0.0
 10
-87.865157
 20
108.310145
 30
0.0
  0
LWPOLYLINE
  5
186
100
AcDbEntity
  8
outline
 62
7
100
AcDbPolyline
 90
1
 70
1
 10
-50.251013
 20
110.326376
 30
0.0
  0
SPLINE
  5
187
100
AcDbEntity
  8
outline
 62
7
100
AcDbSpline
 70
8
 71
3
 72
8
 73
4
 74
0
 40
0
 40
0
 40
0
 40
0
 40
1
 40
1
 40
1
 40
1
 10
-72.388019
 20
106.460694
 30
0.0
 10
-71.844421
 20
106.800179
 30
0.0
 10
-71.508162
 20
106.785240
 30
0.0
 10
-70.767226
 20
106.388705
 30
0.0
  0
SPLINE
  5
188
100
AcDbEntity
  8
outline
 62
7
100
AcDbSpline
 70
8
 71
3
 72
8
 73
4
 74
0
 40
0
 40
0
 40
0
 40
0
 40
1
 40
1
 40
1
 40
1
 10
-70.767226
 20
106.388705
 30
0.0
 10
-70.026295
 20
105.992166
 30
0.0
 10
-69.690031
 20
105.977234
 30
0.0
 10
-69.146433
 20
106.316716
 30
0.0
  0
SPLINE
  5
189
100
AcDbEntity
  8
outline
 62
7
100
AcDbSpline
 70
8
 71
3
 72
8
 73
4
 74
0
 40
0
 40
0
 40
0
 40
0
 40
1
 40
1
 40
1
 40
1
 10
-69.146433
 20
106.316716
 30
0.0
 10
-68.769189
 20
106.552312
 30
0.0
 10
-68.137629
 20
106.745069
 30
0.0
 10
-67.742969
 20
106.745069
 30
0.0
  0
SPLINE
  5
18a
100
AcDbEntity
  8
outline
 62
7
100
AcDbSpline
 70
8
 71
3
 72
8
 73
4
 74
0
 40
0
 40
0
 40
0
 40
0
 40
1
 40
1
 40
1
 40
1
 10
-67.742969
 20
106.745069
 30
0.0
 10
-67.348315
 20
106.745069
 30
0.0
 10
-67.025408
 20
106.966235
 30
0.0
 10
-67.025408
 20
107.236552
 30
0.0
  0
SPLINE
  5
18b
100
AcDbEntity
  8
outline
 62
7
100
AcDbSpline
 70
8
 71
3
 72
8
 73
4
 74
0
 40
0
 40
0
 40
0
 40
0
 40
1
 40
1
 40
1
 40
1
 10
-67.025408
 20
107.236552
 30
0.0
 10
-67.025408
 20
107.506864
 30
0.0
 10
-67.450898
 20
108.657427
 30
0.0
 10
-67.970944
 20
109.793361
 30
0.0
  0
LWPOLYLINE
  5
18c
100
AcDbEntity
  8
outline
 62
7
100
AcDbPolyline
 90
1
 70
1
 10
-87.865157
 20
108.310145
 30
0.0
  0
SPLINE
  5
18d
100
AcDbEntity
  8
outline
 62
7
100
AcDbSpline
 70
8
 71
3
 72
8
 73
4
 74
0
 40
0
 40
0
 40
0
 40
0
 40
1
 40
1
 40
1
 40
1
 10
-69.028493
 20
115.670125
 30
0.0
 10
-69.532103
 20
116.595423
 30
0.0
 10
-70.313794
 20
117.520904
 30
0.0
 10
-70.765589
 20
117.726756
 30
0.0
  0
SPLINE
  5
18e
100
AcDbEntity
  8
outline
 62
7
100
AcDbSpline
 70
8
 71
3
 72
8
 73
4
 74
0
 40
0
 40
0
 40
0
 40
0
 40
1
 40
1
 40
1
 40
1
 10
-70.765589
 20
117.726756
 30
0.0
 10
-71.217377
 20
117.932608
 30
0.0
 10
-71.683210
 20
118.004851
 30
0.0
 10
-71.800764
 20
117.887292
 30
0.0
  0
SPLINE
  5
18f
100
AcDbEntity
  8
outline
 62
7
100
AcDbSpline
 70
8
 71
3
 72
8
 73
4
 74
0
 40
0
 40
0
 40
0
 40
0
 40
1
 40
1
 40
1
 40
1
 10
-71.800764
 20
117.887292
 30
0.0
 10
-71.918317
 20
117.769740
 30
0.0
 10
-72.014499
 20
117.352874
 30
0.0
 10
-72.014499
 20
116.960926
 30
0.0
  0
LWPOLYLINE
  5
190
100
AcDbEntity
  8
outline
 62
7
100
AcDbPolyline
 90
5
 70
0
 10
-67.970944
 20
109.793361
 30
0.0
 10
-68.916480
 20
111.858684
 30
0.0
 10
-68.514665
 20
112.923224
 30
0.0
 10
-68.112843
 20
113.987775
 30
0.0
 10
-69.028493
 20
115.670125
 30
0.0
  0
SPLINE
  5
191
100
AcDbEntity
  8
outline
 62
7
100
AcDbSpline
 70
8
 71
3
 72
8
 73
4
 74
0
 40
0
 40
0
 40
0
 40
0
 40
1
 40
1
 40
1
 40
1
 10
-73.385213
 20
117.733049
 30
0.0
 10
-74.310163
 20
118.734950
 30
0.0
 10
-75.053979
 20
119.217800
 30
0.0
 10
-75.672432
 20
119.217800
 30
0.0
  0
SPLINE
  5
192
100
AcDbEntity
  8
outline
 62
7
100
AcDbSpline
 70
8
 71
3
 72
8
 73
4
 74
0
 40
0
 40
0
 40
0
 40
0
 40
1
 40
1
 40
1
 40
1
 10
-75.672432
 20
119.217800
 30
0.0
 10
-76.176507
 20
119.217800
 30
0.0
 10
-76.847052
 20
119.118750
 30
0.0
 10
-77.162528
 20
118.997691
 30
0.0
  0
SPLINE
  5
193
100
AcDbEntity
  8
outline
 62
7
100
AcDbSpline
 70
8
 71
3
 72
8
 73
4
 74
0
 40
0
 40
0
 40
0
 40
0
 40
1
 40
1
 40
1
 40
1
 10
-77.162528
 20
118.997691
 30
0.0
 10
-77.478002
 20
118.876633
 30
0.0
 10
-77.889870
 20
118.490295
 30
0.0
 10
-78.077795
 20
118.139160
 30
0.0
  0
LWPOLYLINE
  5
194
100
AcDbEntity
  8
outline
 62
7
100
AcDbPolyline
 90
3
 70
0
 10
-72.014499
 20
116.960926
 30
0.0
 10
-72.014499
 20
116.248301
 30
0.0
 10
-73.385213
 20
117.733049
 30
0.0
  0
SPLINE
  5
195
100
AcDbEntity
  8
outline
 62
7
100
AcDbSpline
 70
8
 71
3
 72
8
 73
4
 74
0
 40
0
 40
0
 40
0
 40
0
 40
1
 40
1
 40
1
 40
1
 10
-77.157063
 20
116.755895
 30
0.0
 10
-76.340073
 20
116.273857
 30
0.0
 10
-75.644461
 20
115.445446
 30
0.0
 10
-75.185544
 20
114.407991
 30
0.0
  0
SPLINE
  5
196
100
AcDbEntity
  8
outline
 62
7
100
AcDbSpline
 70
8
 71
3
 72
8
 73
4
 74
0
 40
0
 40
0
 40
0
 40
0
 40
1
 40
1
 40
1
 40
1
 10
-75.185544
 20
114.407991
 30
0.0
 10
-74.665677
 20
113.232733
 30
0.0
 10
-74.542693
 20
112.448074
 30
0.0
 10
-74.724722
 20
111.467725
 30
0.0
  0
SPLINE
  5
197
100
AcDbEntity
  8
outline
 62
7
100
AcDbSpline
 70
8
 71
3
 72
8
 73
4
 74
0
 40
0
 40
0
 40
0
 40
0
 40
1
 40
1
 40
1
 40
1
 10
-74.724722
 20
111.467725
 30
0.0
 10
-74.861276
 20
110.732264
 30
0.0
 10
-75.266482
 20
109.442777
 30
0.0
 10
-75.625175
 20
108.602203
 30
0.0
  0
LWPOLYLINE
  5
198
100
AcDbEntity
  8
outline
 62
7
100
AcDbPolyline
 90
3
 70
0
 10
-78.077795
 20
118.139160
 30
0.0
 10
-78.419471
 20
117.500730
 30
0.0
 10
-77.157063
 20
116.755895
 30
0.0
  0
SPLINE
  5
199
100
AcDbEntity
  8
outline
 62
7
100
AcDbSpline
 70
8
 71
3
 72
8
 73
4
 74
0
 40
0
 40
0
 40
0
 40
0
 40
1
 40
1
 40
1
 40
1
 10
-75.660473
 20
106.879708
 30
0.0
 10
-75.321188
 20
106.772913
 30
0.0
 10
-74.722865
 20
106.549423
 30
0.0
 10
-74.330865
 20
106.383059
 30
0.0
  0
SPLINE
  5
19a
100
AcDbEntity
  8
outline
 62
7
100
AcDbSpline
 70
8
 71
3
 72
8
 73
4
 74
0
 40
0
 40
0
 40
0
 40
0
 40
1
 40
1
 40
1
 40
1
 10
-74.330865
 20
106.383059
 30
0.0
 10
-73.938865
 20
106.216694
 30
0.0
 10
-73.495688
 20
106.069724
 30
0.0
 10
-73.346026
 20
106.056459
 30
0.0
  0
SPLINE
  5
19b
100
AcDbEntity
  8
outline
 62
7
100
AcDbSpline
 70
8
 71
3
 72
8
 73
4
 74
0
 40
0
 40
0
 40
0
 40
0
 40
1
 40
1
 40
1
 40
1
 10
-73.346026
 20
106.056459
 30
0.0
 10
-73.196370
 20
106.043188
 30
0.0
 10
-72.765263
 20
106.225099
 30
0.0
 10
-72.388019
 20
106.460694
 30
0.0
  0
LWPOLYLINE
  5
19c
100
AcDbEntity
  8
outline
 62
7
100
AcDbPolyline
 90
3
 70
0
 10
-75.625175
 20
108.602203
 30
0.0
 10
-76.277348
 20
107.073879
 30
0.0
 10
-75.660473
 20
106.879708
 30
0.0
  0
SPLINE
  5
19d
100
AcDbEntity
  8
outline
 62
7
100
AcDbSpline
 70
8
 71
3
 72
8
 73
4
 74
0
 40
0
 40
0
 40
0
 40
0
 40
1
 40
1
 40
1
 40
1
 10
-62.749967
 20
107.457798
 30
0.0
 10
-62.327593
 20
108.731798
 30
0.0
 10
-61.618984
 20
110.415616
 30
0.0
 10
-61.175291
 20
111.199617
 30
0.0
  0
SPLINE
  5
19e
100
AcDbEntity
  8
outline
 62
7
100
AcDbSpline
 70
8
 71
3
 72
8
 73
4
 74
0
 40
0
 40
0
 40
0
 40
0
 40
1
 40
1
 40
1
 40
1
 10
-61.175291
 20
111.199617
 30
0.0
 10
-60.731603
 20
111.983617
 30
0.0
 10
-59.109255
 20
114.781939
 30
0.0
 10
-57.570079
 20
117.418116
 30
0.0
  0
SPLINE
  5
19f
100
AcDbEntity
  8
outline
 62
7
100
AcDbSpline
 70
8
 71
3
 72
8
 73
4
 74
0
 40
0
 40
0
 40
0
 40
0
 40
1
 40
1
 40
1
 40
1
 10
-57.570079
 20
117.418116
 30
0.0
 10
-56.030910
 20
120.054287
 30
0.0
 10
-54.405407
 20
123.101196
 30
0.0
 10
-53.957863
 20
124.189029
 30
0.0
  0
SPLINE
  5
1a0
100
AcDbEntity
  8
outline
 62
7
100
AcDbSpline
 70
8
 71
3
 72
8
 73
4
 74
0
 40
0
 40
0
 40
0
 40
0
 40
1
 40
1
 40
1
 40
1
 10
-53.957863
 20
124.189029
 30
0.0
 10
-53.397801
 20
125.550322
 30
0.0
 10
-53.141504
 20
126.900323
 30
0.0
 10
-53.135683
 20
128.519648
 30
0.0
  0
SPLINE
  5
1a1
100
AcDbEntity
  8
outline
 62
7
100
AcDbSpline
 70
8
 71
3
 72
8
 73
4
 74
0
 40
0
 40
0
 40
0
 40
0
 40
1
 40
1
 40
1
 40
1
 10
-53.135683
 20
128.519648
 30
0.0
 10
-53.128961
 20
130.390771
 30
0.0
 10
-53.294269
 20
131.120282
 30
0.0
 10
-53.943234
 20
132.083285
 30
0.0
  0
SPLINE
  5
1a2
100
AcDbEntity
  8
outline
 62
7
100
AcDbSpline
 70
8
 71
3
 72
8
 73
4
 74
0
 40
0
 40
0
 40
0
 40
0
 40
1
 40
1
 40
1
 40
1
 10
-53.943234
 20
132.083285
 30
0.0
 10
-54.392041
 20
132.749270
 30
0.0
 10
-54.971544
 20
133.294164
 30
0.0
 10
-55.231021
 20
133.294164
 30
0.0
  0
SPLINE
  5
1a3
100
AcDbEntity
  8
outline
 62
7
100
AcDbSpline
 70
8
 71
3
 72
8
 73
4
 74
0
 40
0
 40
0
 40
0
 40
0
 40
1
 40
1
 40
1
 40
1
 10
-55.231021
 20
133.294164
 30
0.0
 10
-55.517570
 20
133.294164
 30
0.0
 10
-55.953552
 20
132.306736
 30
0.0
 10
-56.341508
 20
130.779039
 30
0.0
  0
SPLINE
  5
1a4
100
AcDbEntity
  8
outline
 62
7
100
AcDbSpline
 70
8
 71
3
 72
8
 73
4
 74
0
 40
0
 40
0
 40
0
 40
0
 40
1
 40
1
 40
1
 40
1
 10
-56.341508
 20
130.779039
 30
0.0
 10
-56.692809
 20
129.395720
 30
0.0
 10
-58.361563
 20
125.172717
 30
0.0
 10
-60.049860
 20
121.394579
 30
0.0
  0
SPLINE
  5
1a5
100
AcDbEntity
  8
outline
 62
7
100
AcDbSpline
 70
8
 71
3
 72
8
 73
4
 74
0
 40
0
 40
0
 40
0
 40
0
 40
1
 40
1
 40
1
 40
1
 10
-60.049860
 20
121.394579
 30
0.0
 10
-61.738154
 20
117.616449
 30
0.0
 10
-63.437045
 20
113.379296
 30
0.0
 10
-63.825172
 20
111.978682
 30
0.0
  0
SPLINE
  5
1a6
100
AcDbEntity
  8
outline
 62
7
100
AcDbSpline
 70
8
 71
3
 72
8
 73
4
 74
0
 40
0
 40
0
 40
0
 40
0
 40
1
 40
1
 40
1
 40
1
 10
-63.825172
 20
111.978682
 30
0.0
 10
-64.213302
 20
110.578074
 30
0.0
 10
-64.530864
 20
108.453352
 30
0.0
 10
-64.530864
 20
107.257082
 30
0.0
  0
SPLINE
  5
1a7
100
AcDbEntity
  8
outline
 62
7
100
AcDbSpline
 70
8
 71
3
 72
8
 73
4
 74
0
 40
0
 40
0
 40
0
 40
0
 40
1
 40
1
 40
1
 40
1
 10
-64.530864
 20
107.257082
 30
0.0
 10
-64.530864
 20
106.060807
 30
0.0
 10
-64.421278
 20
104.972454
 30
0.0
 10
-64.287349
 20
104.838525
 30
0.0
  0
SPLINE
  5
1a8
100
AcDbEntity
  8
outline
 62
7
100
AcDbSpline
 70
8
 71
3
 72
8
 73
4
 74
0
 40
0
 40
0
 40
0
 40
0
 40
1
 40
1
 40
1
 40
1
 10
-64.287349
 20
104.838525
 30
0.0
 10
-64.153415
 20
104.704591
 30
0.0
 10
-63.925506
 20
104.717956
 30
0.0
 10
-63.780882
 20
104.868188
 30
0.0
  0
SPLINE
  5
1a9
100
AcDbEntity
  8
outline
 62
7
100
AcDbSpline
 70
8
 71
3
 72
8
 73
4
 74
0
 40
0
 40
0
 40
0
 40
0
 40
1
 40
1
 40
1
 40
1
 10
-63.780882
 20
104.868188
 30
0.0
 10
-63.636262
 20
105.018455
 30
0.0
 10
-63.172353
 20
106.183762
 30
0.0
 10
-62.749967
 20
107.457763
 30
0.0
  0
LWPOLYLINE
  5
1aa
100
AcDbEntity
  8
outline
 62
7
100
AcDbPolyline
 90
1
 70
1
 10
-72.388019
 20
106.460694
 30
0.0
  0
SPLINE
  5
1ab
100
AcDbEntity
  8
outline
 62
7
100
AcDbSpline
 70
8
 71
3
 72
8
 73
4
 74
0
 40
0
 40
0
 40
0
 40
0
 40
1
 40
1
 40
1
 40
1
 10
-78.785411
 20
107.139088
 30
0.0
 10
-78.785411
 20
108.531795
 30
0.0
 10
-79.026649
 20
110.602250
 30
0.0
 10
-79.321496
 20
111.740102
 30
0.0
  0
SPLINE
  5
1ac
100
AcDbEntity
  8
outline
 62
7
100
AcDbSpline
 70
8
 71
3
 72
8
 73
4
 74
0
 40
0
 40
0
 40
0
 40
0
 40
1
 40
1
 40
1
 40
1
 10
-79.321496
 20
111.740102
 30
0.0
 10
-79.616342
 20
112.877950
 30
0.0
 10
-81.300422
 20
117.109523
 30
0.0
 10
-83.063898
 20
121.143597
 30
0.0
  0
SPLINE
  5
1ad
100
AcDbEntity
  8
outline
 62
7
100
AcDbSpline
 70
8
 71
3
 72
8
 73
4
 74
0
 40
0
 40
0
 40
0
 40
0
 40
1
 40
1
 40
1
 40
1
 10
-83.063898
 20
121.143597
 30
0.0
 10
-84.827368
 20
125.177673
 30
0.0
 10
-86.567042
 20
129.561852
 30
0.0
 10
-86.929832
 20
130.886224
 30
0.0
  0
SPLINE
  5
1ae
100
AcDbEntity
  8
outline
 62
7
100
AcDbSpline
 70
8
 71
3
 72
8
 73
4
 74
0
 40
0
 40
0
 40
0
 40
0
 40
1
 40
1
 40
1
 40
1
 10
-86.929832
 20
130.886224
 30
0.0
 10
-87.309798
 20
132.273272
 30
0.0
 10
-87.784281
 20
133.294164
 30
0.0
 10
-88.048976
 20
133.294164
 30
0.0
  0
SPLINE
  5
1af
100
AcDbEntity
  8
outline
 62
7
100
AcDbSpline
 70
8
 71
3
 72
8
 73
4
 74
0
 40
0
 40
0
 40
0
 40
0
 40
1
 40
1
 40
1
 40
1
 10
-88.048976
 20
133.294164
 30
0.0
 10
-88.301714
 20
133.294164
 30
0.0
 10
-88.836138
 20
132.855324
 30
0.0
 10
-89.236596
 20
132.318956
 30
0.0
  0
SPLINE
  5
1b0
100
AcDbEntity
  8
outline
 62
7
100
AcDbSpline
 70
8
 71
3
 72
8
 73
4
 74
0
 40
0
 40
0
 40
0
 40
0
 40
1
 40
1
 40
1
 40
1
 10
-89.236596
 20
132.318956
 30
0.0
 10
-89.707742
 20
131.687899
 30
0.0
 10
-90.016690
 20
130.618921
 30
0.0
 10
-90.112030
 20
129.289864
 30
0.0
  0
SPLINE
  5
1b1
100
AcDbEntity
  8
outline
 62
7
100
AcDbSpline
 70
8
 71
3
 72
8
 73
4
 74
0
 40
0
 40
0
 40
0
 40
0
 40
1
 40
1
 40
1
 40
1
 10
-90.112030
 20
129.289864
 30
0.0
 10
-90.215891
 20
127.842041
 30
0.0
 10
-90.045011
 20
126.600871
 30
0.0
 10
-89.532939
 20
125.083646
 30
0.0
  0
SPLINE
  5
1b2
100
AcDbEntity
  8
outline
 62
7
100
AcDbSpline
 70
8
 71
3
 72
8
 73
4
 74
0
 40
0
 40
0
 40
0
 40
0
 40
1
 40
1
 40
1
 40
1
 10
-89.532939
 20
125.083646
 30
0.0
 10
-89.133403
 20
123.899859
 30
0.0
 10
-87.118764
 20
119.988975
 30
0.0
 10
-85.055966
 20
116.392792
 30
0.0
  0
SPLINE
  5
1b3
100
AcDbEntity
  8
outline
 62
7
100
AcDbSpline
 70
8
 71
3
 72
8
 73
4
 74
0
 40
0
 40
0
 40
0
 40
0
 40
1
 40
1
 40
1
 40
1
 10
-85.055966
 20
116.392792
 30
0.0
 10
-82.993174
 20
112.796604
 30
0.0
 10
-80.957504
 20
108.793883
 30
0.0
 10
-80.532259
 20
107.497852
 30
0.0
  0
SPLINE
  5
1b4
100
AcDbEntity
  8
outline
 62
7
100
AcDbSpline
 70
8
 71
3
 72
8
 73
4
 74
0
 40
0
 40
0
 40
0
 40
0
 40
1
 40
1
 40
1
 40
1
 10
-80.532259
 20
107.497852
 30
0.0
 10
-80.107011
 20
106.201823
 30
0.0
 10
-79.690910
 20
105.021159
 30
0.0
 10
-79.607582
 20
104.874160
 30
0.0
  0
SPLINE
  5
1b5
100
AcDbEntity
  8
outline
 62
7
100
AcDbSpline
 70
8
 71
3
 72
8
 73
4
 74
0
 40
0
 40
0
 40
0
 40
0
 40
1
 40
1
 40
1
 40
1
 10
-79.607582
 20
104.874160
 30
0.0
 10
-79.524253
 20
104.727158
 30
0.0
 10
-79.305177
 20
104.606889
 30
0.0
 10
-79.120744
 20
104.606889
 30
0.0
  0
SPLINE
  5
1b6
100
AcDbEntity
  8
outline
 62
7
100
AcDbSpline
 70
8
 71
3
 72
8
 73
4
 74
0
 40
0
 40
0
 40
0
 40
0
 40
1
 40
1
 40
1
 40
1
 10
-79.120744
 20
104.606889
 30
0.0
 10
-78.936311
 20
104.606889
 30
0.0
 10
-78.785411
 20
105.746376
 30
0.0
 10
-78.785411
 20
107.139088
 30
0.0
  0
LWPOLYLINE
  5
1b7
100
AcDbEntity
  8
outline
 62
7
100
AcDbPolyline
 90
1
 70
1
 10
-62.749967
 20
107.457763
 30
0.0
  0
SPLINE
  5
1b8
100
AcDbEntity
  8
outline
 62
7
100
AcDbSpline
 70
8
 71
3
 72
8
 73
4
 74
0
 40
0
 40
0
 40
0
 40
0
 40
1
 40
1
 40
1
 40
1
 10
-49.275755
 20
104.838686
 30
0.0
 10
-48.039449
 20
105.527025
 30
0.0
 10
-46.450729
 20
106.596998
 30
0.0
 10
-45.745268
 20
107.216405
 30
0.0
  0
SPLINE
  5
1b9
100
AcDbEntity
  8
outline
 62
7
100
AcDbSpline
 70
8
 71
3
 72
8
 73
4
 74
0
 40
0
 40
0
 40
0
 40
0
 40
1
 40
1
 40
1
 40
1
 10
-45.745268
 20
107.216405
 30
0.0
 10
-45.039804
 20
107.835809
 30
0.0
 10
-44.170576
 20
108.985419
 30
0.0
 10
-43.813654
 20
109.771104
 30
0.0
  0
SPLINE
  5
1ba
100
AcDbEntity
  8
outline
 62
7
100
AcDbSpline
 70
8
 71
3
 72
8
 73
4
 74
0
 40
0
 40
0
 40
0
 40
0
 40
1
 40
1
 40
1
 40
1
 10
-43.813654
 20
109.771104
 30
0.0
 10
-43.456722
 20
110.556784
 30
0.0
 10
-43.163625
 20
111.520344
 30
0.0
 10
-43.162320
 20
111.912346
 30
0.0
  0
SPLINE
  5
1bb
100
AcDbEntity
  8
outline
 62
7
100
AcDbSpline
 70
8
 71
3
 72
8
 73
4
 74
0
 40
0
 40
0
 40
0
 40
0
 40
1
 40
1
 40
1
 40
1
 10
-43.162320
 20
111.912346
 30
0.0
 10
-43.161027
 20
112.304346
 30
0.0
 10
-43.306392
 20
112.856522
 30
0.0
 10
-43.485377
 20
113.139407
 30
0.0
  0
LWPOLYLINE
  5
1bc
100
AcDbEntity
  8
outline
 62
7
100
AcDbPolyline
 90
1
 70
1
 10
-78.785411
 20
107.139088
 30
0.0
  0
SPLINE
  5
1bd
100
AcDbEntity
  8
outline
 62
7
100
AcDbSpline
 70
8
 71
3
 72
8
 73
4
 74
0
 40
0
 40
0
 40
0
 40
0
 40
1
 40
1
 40
1
 40
1
 10
-45.350827
 20
112.248185
 30
0.0
 10
-46.197842
 20
111.475127
 30
0.0
 10
-48.612162
 20
109.500232
 30
0.0
 10
-50.715971
 20
107.859535
 30
0.0
  0
SPLINE
  5
1be
100
AcDbEntity
  8
outline
 62
7
100
AcDbSpline
 70
8
 71
3
 72
8
 73
4
 74
0
 40
0
 40
0
 40
0
 40
0
 40
1
 40
1
 40
1
 40
1
 10
-50.715971
 20
107.859535
 30
0.0
 10
-52.954856
 20
106.113493
 30
0.0
 10
-54.446592
 20
104.709714
 30
0.0
 10
-54.313214
 20
104.474394
 30
0.0
  0
SPLINE
  5
1bf
100
AcDbEntity
  8
outline
 62
7
100
AcDbSpline
 70
8
 71
3
 72
8
 73
4
 74
0
 40
0
 40
0
 40
0
 40
0
 40
1
 40
1
 40
1
 40
1
 10
-54.313214
 20
104.474394
 30
0.0
 10
-54.187885
 20
104.253263
 30
0.0
 10
-53.921757
 20
103.861576
 30
0.0
 10
-53.721817
 20
103.603977
 30
0.0
  0
SPLINE
  5
1c0
100
AcDbEntity
  8
outline
 62
7
100
AcDbSpline
 70
8
 71
3
 72
8
 73
4
 74
0
 40
0
 40
0
 40
0
 40
0
 40
1
 40
1
 40
1
 40
1
 10
-53.721817
 20
103.603977
 30
0.0
 10
-53.494233
 20
103.310765
 30
0.0
 10
-53.015239
 20
103.220039
 30
0.0
 10
-52.440939
 20
103.361380
 30
0.0
  0
SPLINE
  5
1c1
100
AcDbEntity
  8
outline
 62
7
100
AcDbSpline
 70
8
 71
3
 72
8
 73
4
 74
0
 40
0
 40
0
 40
0
 40
0
 40
1
 40
1
 40
1
 40
1
 10
-52.440939
 20
103.361380
 30
0.0
 10
-51.936396
 20
103.485550
 30
0.0
 10
-50.512062
 20
104.150337
 30
0.0
 10
-49.275755
 20
104.838686
 30
0.0
  0
LWPOLYLINE
  5
1c2
100
AcDbEntity
  8
outline
 62
7
100
AcDbPolyline
 90
3
 70
0
 10
-43.485377
 20
113.139407
 30
0.0
 10
-43.810787
 20
113.653741
 30
0.0
 10
-45.350827
 20
112.248185
 30
0.0
  0
SPLINE
  5
1c3
100
AcDbEntity
  8
outline
 62
7
100
AcDbSpline
 70
8
 71
3
 72
8
 73
4
 74
0
 40
0
 40
0
 40
0
 40
0
 40
1
 40
1
 40
1
 40
1
 10
-89.318463
 20
103.871703
 30
0.0
 10
-88.974883
 20
104.251354
 30
0.0
 10
-88.793330
 20
104.723056
 30
0.0
 10
-88.915008
 20
104.919939
 30
0.0
  0
SPLINE
  5
1c4
100
AcDbEntity
  8
outline
 62
7
100
AcDbSpline
 70
8
 71
3
 72
8
 73
4
 74
0
 40
0
 40
0
 40
0
 40
0
 40
1
 40
1
 40
1
 40
1
 10
-88.915008
 20
104.919939
 30
0.0
 10
-89.036684
 20
105.116820
 30
0.0
 10
-90.776304
 20
106.551528
 30
0.0
 10
-92.780828
 20
108.108184
 30
0.0
  0
SPLINE
  5
1c5
100
AcDbEntity
  8
outline
 62
7
100
AcDbSpline
 70
8
 71
3
 72
8
 73
4
 74
0
 40
0
 40
0
 40
0
 40
0
 40
1
 40
1
 40
1
 40
1
 10
-92.780828
 20
108.108184
 30
0.0
 10
-94.785350
 20
109.664837
 30
0.0
 10
-96.978052
 20
111.518407
 30
0.0
 10
-97.653500
 20
112.227221
 30
0.0
  0
SPLINE
  5
1c6
100
AcDbEntity
  8
outline
 62
7
100
AcDbSpline
 70
8
 71
3
 72
8
 73
4
 74
0
 40
0
 40
0
 40
0
 40
0
 40
1
 40
1
 40
1
 40
1
 10
-97.653500
 20
112.227221
 30
0.0
 10
-98.328951
 20
112.936043
 30
0.0
 10
-99.090681
 20
113.515981
 30
0.0
 10
-99.346230
 20
113.515981
 30
0.0
  0
SPLINE
  5
1c7
100
AcDbEntity
  8
outline
 62
7
100
AcDbSpline
 70
8
 71
3
 72
8
 73
4
 74
0
 40
0
 40
0
 40
0
 40
0
 40
1
 40
1
 40
1
 40
1
 10
-99.346230
 20
113.515981
 30
0.0
 10
-99.663146
 20
113.515981
 30
0.0
 10
-99.810448
 20
112.977812
 30
0.0
 10
-99.809539
 20
111.823253
 30
0.0
  0
SPLINE
  5
1c8
100
AcDbEntity
  8
outline
 62
7
100
AcDbSpline
 70
8
 71
3
 72
8
 73
4
 74
0
 40
0
 40
0
 40
0
 40
0
 40
1
 40
1
 40
1
 40
1
 10
-99.809539
 20
111.823253
 30
0.0
 10
-99.808677
 20
110.784077
 30
0.0
 10
-99.544396
 20
109.697885
 30
0.0
 10
-99.124932
 20
109.009975
 30
0.0
  0
SPLINE
  5
1c9
100
AcDbEntity
  8
outline
 62
7
100
AcDbSpline
 70
8
 71
3
 72
8
 73
4
 74
0
 40
0
 40
0
 40
0
 40
0
 40
1
 40
1
 40
1
 40
1
 10
-99.124932
 20
109.009975
 30
0.0
 10
-98.749135
 20
108.393673
 30
0.0
 10
-97.869459
 20
107.431495
 30
0.0
 10
-97.170101
 20
106.871793
 30
0.0
  0
SPLINE
  5
1ca
100
AcDbEntity
  8
outline
 62
7
100
AcDbSpline
 70
8
 71
3
 72
8
 73
4
 74
0
 40
0
 40
0
 40
0
 40
0
 40
1
 40
1
 40
1
 40
1
 10
-97.170101
 20
106.871793
 30
0.0
 10
-96.470738
 20
106.312093
 30
0.0
 10
-94.734175
 20
105.253187
 30
0.0
 10
-93.311065
 20
104.518656
 30
0.0
  0
SPLINE
  5
1cb
100
AcDbEntity
  8
outline
 62
7
100
AcDbSpline
 70
8
 71
3
 72
8
 73
4
 74
0
 40
0
 40
0
 40
0
 40
0
 40
1
 40
1
 40
1
 40
1
 10
-93.311065
 20
104.518656
 30
0.0
 10
-91.887954
 20
103.784130
 30
0.0
 10
-90.547995
 20
103.182764
 30
0.0
 10
-90.333374
 20
103.182292
 30
0.0
  0
SPLINE
  5
1cc
100
AcDbEntity
  8
outline
 62
7
100
AcDbSpline
 70
8
 71
3
 72
8
 73
4
 74
0
 40
0
 40
0
 40
0
 40
0
 40
1
 40
1
 40
1
 40
1
 10
-90.333374
 20
103.182292
 30
0.0
 10
-90.118748
 20
103.181861
 30
0.0
 10
-89.662041
 20
103.492055
 30
0.0
 10
-89.318463
 20
103.871703
 30
0.0
  0
LWPOLYLINE
  5
1cd
100
AcDbEntity
  8
outline
 62
7
100
AcDbPolyline
 90
1
 70
1
 10
-49.275755
 20
104.838686
 30
0.0
  0
SPLINE
  5
1ce
100
AcDbEntity
  8
outline
 62
7
100
AcDbSpline
 70
8
 71
3
 72
8
 73
4
 74
0
 40
0
 40
0
 40
0
 40
0
 40
1
 40
1
 40
1
 40
1
 10
-47.170950
 20
99.922168
 30
0.0
 10
-46.363911
 20
100.333889
 30
0.0
 10
-45.359543
 20
101.153949
 30
0.0
 10
-44.939013
 20
101.744523
 30
0.0
  0
SPLINE
  5
1cf
100
AcDbEntity
  8
outline
 62
7
100
AcDbSpline
 70
8
 71
3
 72
8
 73
4
 74
0
 40
0
 40
0
 40
0
 40
0
 40
1
 40
1
 40
1
 40
1
 10
-44.939013
 20
101.744523
 30
0.0
 10
-44.518485
 20
102.335098
 30
0.0
 10
-44.083089
 20
103.381093
 30
0.0
 10
-43.971470
 20
104.068955
 30
0.0
  0
SPLINE
  5
1d0
100
AcDbEntity
  8
outline
 62
7
100
AcDbSpline
 70
8
 71
3
 72
8
 73
4
 74
0
 40
0
 40
0
 40
0
 40
0
 40
1
 40
1
 40
1
 40
1
 10
-43.971470
 20
104.068955
 30
0.0
 10
-43.832893
 20
104.922906
 30
0.0
 10
-43.905580
 20
105.319613
 30
0.0
 10
-44.200626
 20
105.319613
 30
0.0
  0
SPLINE
  5
1d1
100
AcDbEntity
  8
outline
 62
7
100
AcDbSpline
 70
8
 71
3
 72
8
 73
4
 74
0
 40
0
 40
0
 40
0
 40
0
 40
1
 40
1
 40
1
 40
1
 10
-44.200626
 20
105.319613
 30
0.0
 10
-44.438294
 20
105.319613
 30
0.0
 10
-45.580795
 20
104.763978
 30
0.0
 10
-46.739510
 20
104.084869
 30
0.0
  0
SPLINE
  5
1d2
100
AcDbEntity
  8
outline
 62
7
100
AcDbSpline
 70
8
 71
3
 72
8
 73
4
 74
0
 40
0
 40
0
 40
0
 40
0
 40
1
 40
1
 40
1
 40
1
 10
-46.739510
 20
104.084869
 30
0.0
 10
-47.898238
 20
103.405769
 30
0.0
 10
-50.045738
 20
102.424315
 30
0.0
 10
-51.511744
 20
101.903873
 30
0.0
  0
SPLINE
  5
1d3
100
AcDbEntity
  8
outline
 62
7
100
AcDbSpline
 70
8
 71
3
 72
8
 73
4
 74
0
 40
0
 40
0
 40
0
 40
0
 40
1
 40
1
 40
1
 40
1
 10
-51.511744
 20
101.903873
 30
0.0
 10
-52.977744
 20
101.383430
 30
0.0
 10
-54.456089
 20
100.753691
 30
0.0
 10
-54.796944
 20
100.504450
 30
0.0
  0
LWPOLYLINE
  5
1d4
100
AcDbEntity
  8
outline
 62
7
100
AcDbPolyline
 90
1
 70
1
 10
-89.318463
 20
103.871703
 30
0.0
  0
SPLINE
  5
1d5
100
AcDbEntity
  8
outline
 62
7
100
AcDbSpline
 70
8
 71
3
 72
8
 73
4
 74
0
 40
0
 40
0
 40
0
 40
0
 40
1
 40
1
 40
1
 40
1
 10
-51.514353
 20
98.994158
 30
0.0
 10
-49.585672
 20
99.114485
 30
0.0
 10
-48.154940
 20
99.420173
 30
0.0
 10
-47.170950
 20
99.922168
 30
0.0
  0
LWPOLYLINE
  5
1d6
100
AcDbEntity
  8
outline
 62
7
100
AcDbPolyline
 90
5
 70
0
 10
-54.796944
 20
100.504450
 30
0.0
 10
-55.416684
 20
100.051287
 30
0.0
 10
-54.903558
 20
99.433005
 30
0.0
 10
-54.390434
 20
98.814725
 30
0.0
 10
-51.514353
 20
98.994158
 30
0.0
  0
SPLINE
  5
1d7
100
AcDbEntity
  8
outline
 62
7
100
AcDbSpline
 70
8
 71
3
 72
8
 73
4
 74
0
 40
0
 40
0
 40
0
 40
0
 40
1
 40
1
 40
1
 40
1
 10
-88.407231
 20
99.256744
 30
0.0
 10
-88.018971
 20
99.504251
 30
0.0
 10
-87.970211
 20
99.753647
 30
0.0
 10
-88.229048
 20
100.168053
 30
0.0
  0
SPLINE
  5
1d8
100
AcDbEntity
  8
outline
 62
7
100
AcDbSpline
 70
8
 71
3
 72
8
 73
4
 74
0
 40
0
 40
0
 40
0
 40
0
 40
1
 40
1
 40
1
 40
1
 10
-88.229048
 20
100.168053
 30
0.0
 10
-88.425048
 20
100.481855
 30
0.0
 10
-89.996380
 20
101.269105
 30
0.0
 10
-91.720892
 20
101.917501
 30
0.0
  0
SPLINE
  5
1d9
100
AcDbEntity
  8
outline
 62
7
100
AcDbSpline
 70
8
 71
3
 72
8
 73
4
 74
0
 40
0
 40
0
 40
0
 40
0
 40
1
 40
1
 40
1
 40
1
 10
-91.720892
 20
101.917501
 30
0.0
 10
-93.445404
 20
102.565897
 30
0.0
 10
-95.661062
 20
103.596624
 30
0.0
 10
-96.644572
 20
104.208008
 30
0.0
  0
SPLINE
  5
1da
100
AcDbEntity
  8
outline
 62
7
100
AcDbSpline
 70
8
 71
3
 72
8
 73
4
 74
0
 40
0
 40
0
 40
0
 40
0
 40
1
 40
1
 40
1
 40
1
 10
-96.644572
 20
104.208008
 30
0.0
 10
-97.628083
 20
104.819392
 30
0.0
 10
-98.662662
 20
105.319613
 30
0.0
 10
-98.943637
 20
105.319613
 30
0.0
  0
SPLINE
  5
1db
100
AcDbEntity
  8
outline
 62
7
100
AcDbSpline
 70
8
 71
3
 72
8
 73
4
 74
0
 40
0
 40
0
 40
0
 40
0
 40
1
 40
1
 40
1
 40
1
 10
-98.943637
 20
105.319613
 30
0.0
 10
-99.224615
 20
105.319613
 30
0.0
 10
-99.454506
 20
105.082315
 30
0.0
 10
-99.454506
 20
104.792281
 30
0.0
  0
SPLINE
  5
1dc
100
AcDbEntity
  8
outline
 62
7
100
AcDbSpline
 70
8
 71
3
 72
8
 73
4
 74
0
 40
0
 40
0
 40
0
 40
0
 40
1
 40
1
 40
1
 40
1
 10
-99.454506
 20
104.792281
 30
0.0
 10
-99.454506
 20
104.502248
 30
0.0
 10
-99.195718
 20
103.618177
 30
0.0
 10
-98.879426
 20
102.827682
 30
0.0
  0
SPLINE
  5
1dd
100
AcDbEntity
  8
outline
 62
7
100
AcDbSpline
 70
8
 71
3
 72
8
 73
4
 74
0
 40
0
 40
0
 40
0
 40
0
 40
1
 40
1
 40
1
 40
1
 10
-98.879426
 20
102.827682
 30
0.0
 10
-98.563133
 20
102.037193
 30
0.0
 10
-97.827108
 20
101.050596
 30
0.0
 10
-97.243811
 20
100.635247
 30
0.0
  0
SPLINE
  5
1de
100
AcDbEntity
  8
outline
 62
7
100
AcDbSpline
 70
8
 71
3
 72
8
 73
4
 74
0
 40
0
 40
0
 40
0
 40
0
 40
1
 40
1
 40
1
 40
1
 10
-97.243811
 20
100.635247
 30
0.0
 10
-96.660508
 20
100.219909
 30
0.0
 10
-95.516113
 20
99.671429
 30
0.0
 10
-94.700702
 20
99.416414
 30
0.0
  0
SPLINE
  5
1df
100
AcDbEntity
  8
outline
 62
7
100
AcDbSpline
 70
8
 71
3
 72
8
 73
4
 74
0
 40
0
 40
0
 40
0
 40
0
 40
1
 40
1
 40
1
 40
1
 10
-94.700702
 20
99.416414
 30
0.0
 10
-93.885293
 20
99.161395
 30
0.0
 10
-92.255956
 20
98.944473
 30
0.0
 10
-91.079957
 20
98.934363
 30
0.0
  0
SPLINE
  5
1e0
100
AcDbEntity
  8
outline
 62
7
100
AcDbSpline
 70
8
 71
3
 72
8
 73
4
 74
0
 40
0
 40
0
 40
0
 40
0
 40
1
 40
1
 40
1
 40
1
 10
-91.079957
 20
98.934363
 30
0.0
 10
-89.903957
 20
98.924259
 30
0.0
 10
-88.701232
 20
99.069322
 30
0.0
 10
-88.407231
 20
99.256744
 30
0.0
  0
LWPOLYLINE
  5
1e1
100
AcDbEntity
  8
outline
 62
7
100
AcDbPolyline
 90
1
 70
1
 10
-47.170950
 20
99.922168
 30
0.0
  0
SPLINE
  5
1e2
100
AcDbEntity
  8
outline
 62
7
100
AcDbSpline
 70
8
 71
3
 72
8
 73
4
 74
0
 40
0
 40
0
 40
0
 40
0
 40
1
 40
1
 40
1
 40
1
 10
-60.669755
 20
94.812196
 30
0.0
 10
-60.006291
 20
95.003622
 30
0.0
 10
-59.880869
 20
95.224115
 30
0.0
 10
-60.050648
 20
95.900575
 30
0.0
  0
LWPOLYLINE
  5
1e3
100
AcDbEntity
  8
outline
 62
7
100
AcDbPolyline
 90
1
 70
1
 10
-88.407231
 20
99.256744
 30
0.0
  0
SPLINE
  5
1e4
100
AcDbEntity
  8
outline
 62
7
100
AcDbSpline
 70
8
 71
3
 72
8
 73
4
 74
0
 40
0
 40
0
 40
0
 40
0
 40
1
 40
1
 40
1
 40
1
 10
-56.978574
 20
99.394887
 30
0.0
 10
-57.046108
 20
100.026443
 30
0.0
 10
-56.827295
 20
100.709709
 30
0.0
 10
-56.407952
 20
101.176704
 30
0.0
  0
SPLINE
  5
1e5
100
AcDbEntity
  8
outline
 62
7
100
AcDbSpline
 70
8
 71
3
 72
8
 73
4
 74
0
 40
0
 40
0
 40
0
 40
0
 40
1
 40
1
 40
1
 40
1
 10
-56.407952
 20
101.176704
 30
0.0
 10
-56.033865
 20
101.593305
 30
0.0
 10
-55.608052
 20
102.144718
 30
0.0
 10
-55.461690
 20
102.402069
 30
0.0
  0
SPLINE
  5
1e6
100
AcDbEntity
  8
outline
 62
7
100
AcDbSpline
 70
8
 71
3
 72
8
 73
4
 74
0
 40
0
 40
0
 40
0
 40
0
 40
1
 40
1
 40
1
 40
1
 10
-55.461690
 20
102.402069
 30
0.0
 10
-55.307588
 20
102.673042
 30
0.0
 10
-55.466149
 20
103.168903
 30
0.0
 10
-55.838311
 20
103.580184
 30
0.0
  0
LWPOLYLINE
  5
1e7
100
AcDbEntity
  8
outline
 62
7
100
AcDbPolyline
 90
5
 70
0
 10
-60.050648
 20
95.900575
 30
0.0
 10
-60.263564
 20
96.748900
 30
0.0
 10
-58.566301
 20
97.559705
 30
0.0
 10
-56.869043
 20
98.370522
 30
0.0
 10
-56.978574
 20
99.394887
 30
0.0
  0
SPLINE
  5
1e8
100
AcDbEntity
  8
outline
 62
7
100
AcDbSpline
 70
8
 71
3
 72
8
 73
4
 74
0
 40
0
 40
0
 40
0
 40
0
 40
1
 40
1
 40
1
 40
1
 10
-56.051407
 20
104.978353
 30
0.0
 10
-55.815107
 20
105.356729
 30
0.0
 10
-55.621769
 20
105.912999
 30
0.0
 10
-55.621769
 20
106.214508
 30
0.0
  0
SPLINE
  5
1e9
100
AcDbEntity
  8
outline
 62
7
100
AcDbSpline
 70
8
 71
3
 72
8
 73
4
 74
0
 40
0
 40
0
 40
0
 40
0
 40
1
 40
1
 40
1
 40
1
 10
-55.621769
 20
106.214508
 30
0.0
 10
-55.621769
 20
106.516021
 30
0.0
 10
-56.022678
 20
106.915135
 30
0.0
 10
-56.512679
 20
107.101433
 30
0.0
  0
SPLINE
  5
1ea
100
AcDbEntity
  8
outline
 62
7
100
AcDbSpline
 70
8
 71
3
 72
8
 73
4
 74
0
 40
0
 40
0
 40
0
 40
0
 40
1
 40
1
 40
1
 40
1
 10
-56.512679
 20
107.101433
 30
0.0
 10
-57.015916
 20
107.292763
 30
0.0
 10
-57.403586
 20
107.724496
 30
0.0
 10
-57.403586
 20
108.093595
 30
0.0
  0
SPLINE
  5
1eb
100
AcDbEntity
  8
outline
 62
7
100
AcDbSpline
 70
8
 71
3
 72
8
 73
4
 74
0
 40
0
 40
0
 40
0
 40
0
 40
1
 40
1
 40
1
 40
1
 10
-57.403586
 20
108.093595
 30
0.0
 10
-57.403586
 20
108.452984
 30
0.0
 10
-57.631210
 20
109.058318
 30
0.0
 10
-57.909413
 20
109.438779
 30
0.0
  0
LWPOLYLINE
  5
1ec
100
AcDbEntity
  8
outline
 62
7
100
AcDbPolyline
 90
3
 70
0
 10
-55.838311
 20
103.580184
 30
0.0
 10
-56.481041
 20
104.290392
 30
0.0
 10
-56.051407
 20
104.978353
 30
0.0
  0
SPLINE
  5
1ed
100
AcDbEntity
  8
outline
 62
7
100
AcDbSpline
 70
8
 71
3
 72
8
 73
4
 74
0
 40
0
 40
0
 40
0
 40
0
 40
1
 40
1
 40
1
 40
1
 10
-59.369553
 20
109.239616
 30
0.0
 10
-59.894422
 20
108.749615
 30
0.0
 10
-60.644738
 20
107.722848
 30
0.0
 10
-61.036921
 20
106.957906
 30
0.0
  0
SPLINE
  5
1ee
100
AcDbEntity
  8
outline
 62
7
100
AcDbSpline
 70
8
 71
3
 72
8
 73
4
 74
0
 40
0
 40
0
 40
0
 40
0
 40
1
 40
1
 40
1
 40
1
 10
-61.036921
 20
106.957906
 30
0.0
 10
-61.429104
 20
106.192964
 30
0.0
 10
-61.982621
 20
104.910055
 30
0.0
 10
-62.266962
 20
104.106997
 30
0.0
  0
SPLINE
  5
1ef
100
AcDbEntity
  8
outline
 62
7
100
AcDbSpline
 70
8
 71
3
 72
8
 73
4
 74
0
 40
0
 40
0
 40
0
 40
0
 40
1
 40
1
 40
1
 40
1
 10
-62.266962
 20
104.106997
 30
0.0
 10
-62.551296
 20
103.303938
 30
0.0
 10
-62.947839
 20
100.899384
 30
0.0
 10
-63.148155
 20
98.763554
 30
0.0
  0
LWPOLYLINE
  5
1f0
100
AcDbEntity
  8
outline
 62
7
100
AcDbPolyline
 90
3
 70
0
 10
-57.909413
 20
109.438779
 30
0.0
 10
-58.415242
 20
110.130523
 30
0.0
 10
-59.369553
 20
109.239616
 30
0.0
  0
SPLINE
  5
1f1
100
AcDbEntity
  8
outline
 62
7
100
AcDbSpline
 70
8
 71
3
 72
8
 73
4
 74
0
 40
0
 40
0
 40
0
 40
0
 40
1
 40
1
 40
1
 40
1
 10
-63.041618
 20
94.584412
 30
0.0
 10
-62.782701
 20
94.421724
 30
0.0
 10
-62.330318
 20
94.352408
 30
0.0
 10
-62.036317
 20
94.430378
 30
0.0
  0
SPLINE
  5
1f2
100
AcDbEntity
  8
outline
 62
7
100
AcDbSpline
 70
8
 71
3
 72
8
 73
4
 74
0
 40
0
 40
0
 40
0
 40
0
 40
1
 40
1
 40
1
 40
1
 10
-62.036317
 20
94.430378
 30
0.0
 10
-61.742318
 20
94.508354
 30
0.0
 10
-61.127363
 20
94.680177
 30
0.0
 10
-60.669755
 20
94.812211
 30
0.0
  0
LWPOLYLINE
  5
1f3
100
AcDbEntity
  8
outline
 62
7
100
AcDbPolyline
 90
3
 70
0
 10
-63.148155
 20
98.763554
 30
0.0
 10
-63.512376
 20
94.880221
 30
0.0
 10
-63.041618
 20
94.584412
 30
0.0
  0
SPLINE
  5
1f4
100
AcDbEntity
  8
outline
 62
7
100
AcDbSpline
 70
8
 71
3
 72
8
 73
4
 74
0
 40
0
 40
0
 40
0
 40
0
 40
1
 40
1
 40
1
 40
1
 10
-80.263294
 20
94.588747
 30
0.0
 10
-79.881618
 20
94.830610
 30
0.0
 10
-79.835017
 20
95.627562
 30
0.0
 10
-80.039604
 20
98.414200
 30
0.0
  0
SPLINE
  5
1f5
100
AcDbEntity
  8
outline
 62
7
100
AcDbSpline
 70
8
 71
3
 72
8
 73
4
 74
0
 40
0
 40
0
 40
0
 40
0
 40
1
 40
1
 40
1
 40
1
 10
-80.039604
 20
98.414200
 30
0.0
 10
-80.181738
 20
100.350174
 30
0.0
 10
-80.580546
 20
102.850499
 30
0.0
 10
-80.925836
 20
103.970484
 30
0.0
  0
SPLINE
  5
1f6
100
AcDbEntity
  8
outline
 62
7
100
AcDbSpline
 70
8
 71
3
 72
8
 73
4
 74
0
 40
0
 40
0
 40
0
 40
0
 40
1
 40
1
 40
1
 40
1
 10
-80.925836
 20
103.970484
 30
0.0
 10
-81.271129
 20
105.090463
 30
0.0
 10
-81.978182
 20
106.731240
 30
0.0
 10
-82.497072
 20
107.616654
 30
0.0
  0
SPLINE
  5
1f7
100
AcDbEntity
  8
outline
 62
7
100
AcDbSpline
 70
8
 71
3
 72
8
 73
4
 74
0
 40
0
 40
0
 40
0
 40
0
 40
1
 40
1
 40
1
 40
1
 10
-82.497072
 20
107.616654
 30
0.0
 10
-83.015959
 20
108.502069
 30
0.0
 10
-83.783591
 20
109.410112
 30
0.0
 10
-84.202926
 20
109.634533
 30
0.0
  0
LWPOLYLINE
  5
1f8
100
AcDbEntity
  8
outline
 62
7
100
AcDbPolyline
 90
1
 70
1
 10
-60.669755
 20
94.812211
 30
0.0
  0
SPLINE
  5
1f9
100
AcDbEntity
  8
outline
 62
7
100
AcDbSpline
 70
8
 71
3
 72
8
 73
4
 74
0
 40
0
 40
0
 40
0
 40
0
 40
1
 40
1
 40
1
 40
1
 10
-85.439018
 20
109.394794
 30
0.0
 10
-85.699534
 20
109.038529
 30
0.0
 10
-85.912687
 20
108.452984
 30
0.0
 10
-85.912687
 20
108.093595
 30
0.0
  0
SPLINE
  5
1fa
100
AcDbEntity
  8
outline
 62
7
100
AcDbSpline
 70
8
 71
3
 72
8
 73
4
 74
0
 40
0
 40
0
 40
0
 40
0
 40
1
 40
1
 40
1
 40
1
 10
-85.912687
 20
108.093595
 30
0.0
 10
-85.912687
 20
107.724496
 30
0.0
 10
-86.300358
 20
107.292763
 30
0.0
 10
-86.803594
 20
107.101433
 30
0.0
  0
SPLINE
  5
1fb
100
AcDbEntity
  8
outline
 62
7
100
AcDbSpline
 70
8
 71
3
 72
8
 73
4
 74
0
 40
0
 40
0
 40
0
 40
0
 40
1
 40
1
 40
1
 40
1
 10
-86.803594
 20
107.101433
 30
0.0
 10
-87.293595
 20
106.915135
 30
0.0
 10
-87.694503
 20
106.553876
 30
0.0
 10
-87.694503
 20
106.298639
 30
0.0
  0
SPLINE
  5
1fc
100
AcDbEntity
  8
outline
 62
7
100
AcDbSpline
 70
8
 71
3
 72
8
 73
4
 74
0
 40
0
 40
0
 40
0
 40
0
 40
1
 40
1
 40
1
 40
1
 10
-87.694503
 20
106.298639
 30
0.0
 10
-87.694503
 20
106.043395
 30
0.0
 10
-87.459045
 20
105.498404
 30
0.0
 10
-87.171266
 20
105.087540
 30
0.0
  0
LWPOLYLINE
  5
1fd
100
AcDbEntity
  8
outline
 62
7
100
AcDbPolyline
 90
3
 70
0
 10
-84.202926
 20
109.634533
 30
0.0
 10
-84.965350
 20
110.042572
 30
0.0
 10
-85.439018
 20
109.394794
 30
0.0
  0
SPLINE
  5
1fe
100
AcDbEntity
  8
outline
 62
7
100
AcDbSpline
 70
8
 71
3
 72
8
 73
4
 74
0
 40
0
 40
0
 40
0
 40
0
 40
1
 40
1
 40
1
 40
1
 10
-87.637244
 20
102.334759
 30
0.0
 10
-87.422363
 20
101.918428
 30
0.0
 10
-86.996134
 20
101.290938
 30
0.0
 10
-86.690064
 20
100.940339
 30
0.0
  0
SPLINE
  5
1ff
100
AcDbEntity
  8
outline
 62
7
100
AcDbSpline
 70
8
 71
3
 72
8
 73
4
 74
0
 40
0
 40
0
 40
0
 40
0
 40
1
 40
1
 40
1
 40
1
 10
-86.690064
 20
100.940339
 30
0.0
 10
-86.383990
 20
100.589738
 30
0.0
 10
-86.123959
 20
99.787943
 30
0.0
 10
-86.112218
 20
99.158579
 30
0.0
  0
LWPOLYLINE
  5
200
100
AcDbEntity
  8
outline
 62
7
100
AcDbPolyline
 90
5
 70
0
 10
-87.171266
 20
105.087540
 30
0.0
 10
-86.648032
 20
104.340516
 30
0.0
 10
-87.337982
 20
103.716120
 30
0.0
 10
-88.027934
 20
103.091726
 30
0.0
 10
-87.637244
 20
102.334759
 30
0.0
  0
SPLINE
  5
201
100
AcDbEntity
  8
outline
 62
7
100
AcDbSpline
 70
8
 71
3
 72
8
 73
4
 74
0
 40
0
 40
0
 40
0
 40
0
 40
1
 40
1
 40
1
 40
1
 10
-83.219021
 20
96.188976
 30
0.0
 10
-83.324758
 20
95.767679
 30
0.0
 10
-83.212385
 20
95.261529
 30
0.0
 10
-82.969262
 20
95.064193
 30
0.0
  0
SPLINE
  5
202
100
AcDbEntity
  8
outline
 62
7
100
AcDbSpline
 70
8
 71
3
 72
8
 73
4
 74
0
 40
0
 40
0
 40
0
 40
0
 40
1
 40
1
 40
1
 40
1
 10
-82.969262
 20
95.064193
 30
0.0
 10
-82.726156
 20
94.866855
 30
0.0
 10
-82.206524
 20
94.626561
 30
0.0
 10
-81.814524
 20
94.530208
 30
0.0
  0
SPLINE
  5
203
100
AcDbEntity
  8
outline
 62
7
100
AcDbSpline
 70
8
 71
3
 72
8
 73
4
 74
0
 40
0
 40
0
 40
0
 40
0
 40
1
 40
1
 40
1
 40
1
 10
-81.814524
 20
94.530208
 30
0.0
 10
-81.422524
 20
94.433853
 30
0.0
 10
-81.021616
 20
94.338868
 30
0.0
 10
-80.923615
 20
94.319132
 30
0.0
  0
SPLINE
  5
204
100
AcDbEntity
  8
outline
 62
7
100
AcDbSpline
 70
8
 71
3
 72
8
 73
4
 74
0
 40
0
 40
0
 40
0
 40
0
 40
1
 40
1
 40
1
 40
1
 10
-80.923615
 20
94.319132
 30
0.0
 10
-80.825616
 20
94.299397
 30
0.0
 10
-80.528485
 20
94.420731
 30
0.0
 10
-80.263318
 20
94.588756
 30
0.0
  0
LWPOLYLINE
  5
205
100
AcDbEntity
  8
outline
 62
7
100
AcDbPolyline
 90
5
 70
0
 10
-86.112218
 20
99.158579
 30
0.0
 10
-86.090889
 20
98.014277
 30
0.0
 10
-84.558827
 20
97.484624
 30
0.0
 10
-83.026765
 20
96.954974
 30
0.0
 10
-83.219021
 20
96.188976
 30
0.0
  0
SPLINE
  5
206
100
AcDbEntity
  8
outline
 62
7
100
AcDbSpline
 70
8
 71
3
 72
8
 73
4
 74
0
 40
0
 40
0
 40
0
 40
0
 40
1
 40
1
 40
1
 40
1
 10
-48.886079
 20
94.432297
 30
0.0
 10
-48.336923
 20
94.716280
 30
0.0
 10
-47.623247
 20
95.352091
 30
0.0
 10
-47.300145
 20
95.845213
 30
0.0
  0
SPLINE
  5
207
100
AcDbEntity
  8
outline
 62
7
100
AcDbSpline
 70
8
 71
3
 72
8
 73
4
 74
0
 40
0
 40
0
 40
0
 40
0
 40
1
 40
1
 40
1
 40
1
 10
-47.300145
 20
95.845213
 30
0.0
 10
-46.977036
 20
96.338336
 30
0.0
 10
-46.712681
 20
96.891848
 30
0.0
 10
-46.712681
 20
97.075241
 30
0.0
  0
SPLINE
  5
208
100
AcDbEntity
  8
outline
 62
7
100
AcDbSpline
 70
8
 71
3
 72
8
 73
4
 74
0
 40
0
 40
0
 40
0
 40
0
 40
1
 40
1
 40
1
 40
1
 10
-46.712681
 20
97.075241
 30
0.0
 10
-46.712681
 20
97.268524
 30
0.0
 10
-48.472702
 20
97.370198
 30
0.0
 10
-50.899952
 20
97.317129
 30
0.0
  0
SPLINE
  5
209
100
AcDbEntity
  8
outline
 62
7
100
AcDbSpline
 70
8
 71
3
 72
8
 73
4
 74
0
 40
0
 40
0
 40
0
 40
0
 40
1
 40
1
 40
1
 40
1
 10
-50.899952
 20
97.317129
 30
0.0
 10
-53.446096
 20
97.261460
 30
0.0
 10
-55.476762
 20
97.040953
 30
0.0
 10
-56.081118
 20
96.754512
 30
0.0
  0
SPLINE
  5
20a
100
AcDbEntity
  8
outline
 62
7
100
AcDbSpline
 70
8
 71
3
 72
8
 73
4
 74
0
 40
0
 40
0
 40
0
 40
0
 40
1
 40
1
 40
1
 40
1
 10
-56.081118
 20
96.754512
 30
0.0
 10
-56.648795
 20
96.485457
 30
0.0
 10
-57.029737
 20
96.048344
 30
0.0
 10
-56.969435
 20
95.735214
 30
0.0
  0
SPLINE
  5
20b
100
AcDbEntity
  8
outline
 62
7
100
AcDbSpline
 70
8
 71
3
 72
8
 73
4
 74
0
 40
0
 40
0
 40
0
 40
0
 40
1
 40
1
 40
1
 40
1
 10
-56.969435
 20
95.735214
 30
0.0
 10
-56.908884
 20
95.420809
 30
0.0
 10
-56.028984
 20
94.925207
 30
0.0
 10
-54.906449
 20
94.573244
 30
0.0
  0
SPLINE
  5
20c
100
AcDbEntity
  8
outline
 62
7
100
AcDbSpline
 70
8
 71
3
 72
8
 73
4
 74
0
 40
0
 40
0
 40
0
 40
0
 40
1
 40
1
 40
1
 40
1
 10
-54.906449
 20
94.573244
 30
0.0
 10
-53.829872
 20
94.235688
 30
0.0
 10
-52.259529
 20
93.949710
 30
0.0
 10
-51.416800
 20
93.937738
 30
0.0
  0
SPLINE
  5
20d
100
AcDbEntity
  8
outline
 62
7
100
AcDbSpline
 70
8
 71
3
 72
8
 73
4
 74
0
 40
0
 40
0
 40
0
 40
0
 40
1
 40
1
 40
1
 40
1
 10
-51.416800
 20
93.937738
 30
0.0
 10
-50.574066
 20
93.925759
 30
0.0
 10
-49.435242
 20
94.148314
 30
0.0
 10
-48.886079
 20
94.432297
 30
0.0
  0
LWPOLYLINE
  5
20e
100
AcDbEntity
  8
outline
 62
7
100
AcDbPolyline
 90
1
 70
1
 10
-80.263318
 20
94.588756
 30
0.0
  0
SPLINE
  5
20f
100
AcDbEntity
  8
outline
 62
7
100
AcDbSpline
 70
8
 71
3
 72
8
 73
4
 74
0
 40
0
 40
0
 40
0
 40
0
 40
1
 40
1
 40
1
 40
1
 10
-88.514610
 20
94.451629
 30
0.0
 10
-87.522522
 20
94.746248
 30
0.0
 10
-86.525432
 20
95.210668
 30
0.0
 10
-86.298853
 20
95.483683
 30
0.0
  0
SPLINE
  5
210
100
AcDbEntity
  8
outline
 62
7
100
AcDbSpline
 70
8
 71
3
 72
8
 73
4
 74
0
 40
0
 40
0
 40
0
 40
0
 40
1
 40
1
 40
1
 40
1
 10
-86.298853
 20
95.483683
 30
0.0
 10
-85.969420
 20
95.880627
 30
0.0
 10
-86.132275
 20
96.131725
 30
0.0
 10
-87.111777
 20
96.737088
 30
0.0
  0
LWPOLYLINE
  5
211
100
AcDbEntity
  8
outline
 62
7
100
AcDbPolyline
 90
1
 70
1
 10
-48.886079
 20
94.432297
 30
0.0
  0
SPLINE
  5
212
100
AcDbEntity
  8
outline
 62
7
100
AcDbSpline
 70
8
 71
3
 72
8
 73
4
 74
0
 40
0
 40
0
 40
0
 40
0
 40
1
 40
1
 40
1
 40
1
 10
-90.242856
 20
97.273177
 30
0.0
 10
-91.291266
 20
97.151665
 30
0.0
 10
-92.980038
 20
97.204702
 30
0.0
 10
-93.995689
 20
97.391042
 30
0.0
  0
SPLINE
  5
213
100
AcDbEntity
  8
outline
 62
7
100
AcDbSpline
 70
8
 71
3
 72
8
 73
4
 74
0
 40
0
 40
0
 40
0
 40
0
 40
1
 40
1
 40
1
 40
1
 10
-93.995689
 20
97.391042
 30
0.0
 10
-95.011344
 20
97.577382
 30
0.0
 10
-96.033509
 20
97.611686
 30
0.0
 10
-96.267172
 20
97.467271
 30
0.0
  0
SPLINE
  5
214
100
AcDbEntity
  8
outline
 62
7
100
AcDbSpline
 70
8
 71
3
 72
8
 73
4
 74
0
 40
0
 40
0
 40
0
 40
0
 40
1
 40
1
 40
1
 40
1
 10
-96.267172
 20
97.467271
 30
0.0
 10
-96.583585
 20
97.271717
 30
0.0
 10
-96.533134
 20
96.935737
 30
0.0
 10
-96.069498
 20
96.150861
 30
0.0
  0
SPLINE
  5
215
100
AcDbEntity
  8
outline
 62
7
100
AcDbSpline
 70
8
 71
3
 72
8
 73
4
 74
0
 40
0
 40
0
 40
0
 40
0
 40
1
 40
1
 40
1
 40
1
 10
-96.069498
 20
96.150861
 30
0.0
 10
-95.727114
 20
95.571250
 30
0.0
 10
-95.025670
 20
94.835550
 30
0.0
 10
-94.510743
 20
94.515970
 30
0.0
  0
SPLINE
  5
216
100
AcDbEntity
  8
outline
 62
7
100
AcDbSpline
 70
8
 71
3
 72
8
 73
4
 74
0
 40
0
 40
0
 40
0
 40
0
 40
1
 40
1
 40
1
 40
1
 10
-94.510743
 20
94.515970
 30
0.0
 10
-93.995809
 20
94.196396
 30
0.0
 10
-92.841881
 20
93.930654
 30
0.0
 10
-91.946457
 20
93.925441
 30
0.0
  0
SPLINE
  5
217
100
AcDbEntity
  8
outline
 62
7
100
AcDbSpline
 70
8
 71
3
 72
8
 73
4
 74
0
 40
0
 40
0
 40
0
 40
0
 40
1
 40
1
 40
1
 40
1
 10
-91.946457
 20
93.925441
 30
0.0
 10
-91.051032
 20
93.920227
 30
0.0
 10
-89.506700
 20
94.157009
 30
0.0
 10
-88.514610
 20
94.451629
 30
0.0
  0
LWPOLYLINE
  5
218
100
AcDbEntity
  8
outline
 62
7
100
AcDbPolyline
 90
3
 70
0
 10
-87.111777
 20
96.737088
 30
0.0
 10
-88.336668
 20
97.494114
 30
0.0
 10
-90.242856
 20
97.273177
 30
0.0
  0
SPLINE
  5
219
100
AcDbEntity
  8
outline
 62
7
100
AcDbSpline
 70
8
 71
3
 72
8
 73
4
 74
0
 40
0
 40
0
 40
0
 40
0
 40
1
 40
1
 40
1
 40
1
 10
-38.879890
 20
91.281924
 30
0.0
 10
-37.967877
 20
91.646835
 30
0.0
 10
-37.447223
 20
92.082853
 30
0.0
 10
-37.447223
 20
92.481680
 30
0.0
  0
SPLINE
  5
21a
100
AcDbEntity
  8
outline
 62
7
100
AcDbSpline
 70
8
 71
3
 72
8
 73
4
 74
0
 40
0
 40
0
 40
0
 40
0
 40
1
 40
1
 40
1
 40
1
 10
-37.447223
 20
92.481680
 30
0.0
 10
-37.447223
 20
92.899371
 30
0.0
 10
-38.056980
 20
93.361611
 30
0.0
 10
-39.276563
 20
93.868442
 30
0.0
  0
SPLINE
  5
21b
100
AcDbEntity
  8
outline
 62
7
100
AcDbSpline
 70
8
 71
3
 72
8
 73
4
 74
0
 40
0
 40
0
 40
0
 40
0
 40
1
 40
1
 40
1
 40
1
 10
-39.276563
 20
93.868442
 30
0.0
 10
-40.282704
 20
94.286574
 30
0.0
 10
-41.864709
 20
94.628685
 30
0.0
 10
-42.792135
 20
94.628685
 30
0.0
  0
SPLINE
  5
21c
100
AcDbEntity
  8
outline
 62
7
100
AcDbSpline
 70
8
 71
3
 72
8
 73
4
 74
0
 40
0
 40
0
 40
0
 40
0
 40
1
 40
1
 40
1
 40
1
 10
-42.792135
 20
94.628685
 30
0.0
 10
-43.958455
 20
94.628685
 30
0.0
 10
-44.767890
 20
94.400955
 30
0.0
 10
-45.417348
 20
93.890093
 30
0.0
  0
SPLINE
  5
21d
100
AcDbEntity
  8
outline
 62
7
100
AcDbSpline
 70
8
 71
3
 72
8
 73
4
 74
0
 40
0
 40
0
 40
0
 40
0
 40
1
 40
1
 40
1
 40
1
 10
-45.417348
 20
93.890093
 30
0.0
 10
-45.933777
 20
93.483866
 30
0.0
 10
-46.356313
 20
92.934234
 30
0.0
 10
-46.356313
 20
92.668684
 30
0.0
  0
SPLINE
  5
21e
100
AcDbEntity
  8
outline
 62
7
100
AcDbSpline
 70
8
 71
3
 72
8
 73
4
 74
0
 40
0
 40
0
 40
0
 40
0
 40
1
 40
1
 40
1
 40
1
 10
-46.356313
 20
92.668684
 30
0.0
 10
-46.356313
 20
92.403136
 30
0.0
 10
-45.933777
 20
91.853501
 30
0.0
 10
-45.417348
 20
91.447276
 30
0.0
  0
SPLINE
  5
21f
100
AcDbEntity
  8
outline
 62
7
100
AcDbSpline
 70
8
 71
3
 72
8
 73
4
 74
0
 40
0
 40
0
 40
0
 40
0
 40
1
 40
1
 40
1
 40
1
 10
-45.417348
 20
91.447276
 30
0.0
 10
-44.710665
 20
90.891402
 30
0.0
 10
-43.963085
 20
90.708684
 30
0.0
 10
-42.395460
 20
90.708684
 30
0.0
  0
SPLINE
  5
220
100
AcDbEntity
  8
outline
 62
7
100
AcDbSpline
 70
8
 71
3
 72
8
 73
4
 74
0
 40
0
 40
0
 40
0
 40
0
 40
1
 40
1
 40
1
 40
1
 10
-42.395460
 20
90.708684
 30
0.0
 10
-41.249861
 20
90.708684
 30
0.0
 10
-39.667850
 20
90.966642
 30
0.0
 10
-38.879890
 20
91.281924
 30
0.0
  0
LWPOLYLINE
  5
221
100
AcDbEntity
  8
outline
 62
7
100
AcDbPolyline
 90
1
 70
1
 10
-88.514610
 20
94.451629
 30
0.0
  0
SPLINE
  5
222
100
AcDbEntity
  8
outline
 62
7
100
AcDbSpline
 70
8
 71
3
 72
8
 73
4
 74
0
 40
0
 40
0
 40
0
 40
0
 40
1
 40
1
 40
1
 40
1
 10
-97.825076
 20
91.531379
 30
0.0
 10
-97.134021
 20
92.125807
 30
0.0
 10
-96.932644
 20
92.555763
 30
0.0
 10
-97.099329
 20
93.080941
 30
0.0
  0
SPLINE
  5
223
100
AcDbEntity
  8
outline
 62
7
100
AcDbSpline
 70
8
 71
3
 72
8
 73
4
 74
0
 40
0
 40
0
 40
0
 40
0
 40
1
 40
1
 40
1
 40
1
 10
-97.099329
 20
93.080941
 30
0.0
 10
-97.226207
 20
93.480710
 30
0.0
 10
-97.735395
 20
93.992498
 30
0.0
 10
-98.230851
 20
94.218242
 30
0.0
  0
SPLINE
  5
224
100
AcDbEntity
  8
outline
 62
7
100
AcDbSpline
 70
8
 71
3
 72
8
 73
4
 74
0
 40
0
 40
0
 40
0
 40
0
 40
1
 40
1
 40
1
 40
1
 10
-98.230851
 20
94.218242
 30
0.0
 10
-98.726305
 20
94.443985
 30
0.0
 10
-99.885860
 20
94.622075
 30
0.0
 10
-100.807635
 20
94.613997
 30
0.0
  0
SPLINE
  5
225
100
AcDbEntity
  8
outline
 62
7
100
AcDbSpline
 70
8
 71
3
 72
8
 73
4
 74
0
 40
0
 40
0
 40
0
 40
0
 40
1
 40
1
 40
1
 40
1
 10
-100.807635
 20
94.613997
 30
0.0
 10
-101.787979
 20
94.605401
 30
0.0
 10
-103.149196
 20
94.272601
 30
0.0
 10
-104.087231
 20
93.812176
 30
0.0
  0
SPLINE
  5
226
100
AcDbEntity
  8
outline
 62
7
100
AcDbSpline
 70
8
 71
3
 72
8
 73
4
 74
0
 40
0
 40
0
 40
0
 40
0
 40
1
 40
1
 40
1
 40
1
 10
-104.087231
 20
93.812176
 30
0.0
 10
-104.969231
 20
93.379257
 30
0.0
 10
-105.690868
 20
92.784506
 30
0.0
 10
-105.690868
 20
92.490505
 30
0.0
  0
SPLINE
  5
227
100
AcDbEntity
  8
outline
 62
7
100
AcDbSpline
 70
8
 71
3
 72
8
 73
4
 74
0
 40
0
 40
0
 40
0
 40
0
 40
1
 40
1
 40
1
 40
1
 10
-105.690868
 20
92.490505
 30
0.0
 10
-105.690868
 20
92.196504
 30
0.0
 10
-105.129596
 20
91.675572
 30
0.0
 10
-104.443595
 20
91.332871
 30
0.0
  0
SPLINE
  5
228
100
AcDbEntity
  8
outline
 62
7
100
AcDbSpline
 70
8
 71
3
 72
8
 73
4
 74
0
 40
0
 40
0
 40
0
 40
0
 40
1
 40
1
 40
1
 40
1
 10
-104.443595
 20
91.332871
 30
0.0
 10
-103.659662
 20
90.941255
 30
0.0
 10
-102.376322
 20
90.709587
 30
0.0
 10
-100.988923
 20
90.709236
 30
0.0
  0
LWPOLYLINE
  5
229
100
AcDbEntity
  8
outline
 62
7
100
AcDbPolyline
 90
1
 70
1
 10
-38.879890
 20
91.281924
 30
0.0
  0
SPLINE
  5
22a
100
AcDbEntity
  8
outline
 62
7
100
AcDbSpline
 70
8
 71
3
 72
8
 73
4
 74
0
 40
0
 40
0
 40
0
 40
0
 40
1
 40
1
 40
1
 40
1
 10
-84.550337
 20
90.692382
 30
0.0
 10
-83.569848
 20
91.467417
 30
0.0
 10
-82.664896
 20
92.267754
 30
0.0
 10
-82.539339
 20
92.470906
 30
0.0
  0
SPLINE
  5
22b
100
AcDbEntity
  8
outline
 62
7
100
AcDbSpline
 70
8
 71
3
 72
8
 73
4
 74
0
 40
0
 40
0
 40
0
 40
0
 40
1
 40
1
 40
1
 40
1
 10
-82.539339
 20
92.470906
 30
0.0
 10
-82.413783
 20
92.674061
 30
0.0
 10
-82.886643
 20
93.114761
 30
0.0
 10
-83.590144
 20
93.450236
 30
0.0
  0
LWPOLYLINE
  5
22c
100
AcDbEntity
  8
outline
 62
7
100
AcDbPolyline
 90
4
 70
0
 10
-100.988923
 20
90.709236
 30
0.0
 10
-98.781524
 20
90.708374
 30
0.0
 10
-97.825076
 20
91.531071
 30
0.0
 10
-97.825076
 20
91.531379
 30
0.0
  0
SPLINE
  5
22d
100
AcDbEntity
  8
outline
 62
7
100
AcDbSpline
 70
8
 71
3
 72
8
 73
4
 74
0
 40
0
 40
0
 40
0
 40
0
 40
1
 40
1
 40
1
 40
1
 10
-86.549141
 20
93.414292
 30
0.0
 10
-87.473090
 20
93.059050
 30
0.0
 10
-89.151138
 20
92.511456
 30
0.0
 10
-90.278140
 20
92.197426
 30
0.0
  0
SPLINE
  5
22e
100
AcDbEntity
  8
outline
 62
7
100
AcDbSpline
 70
8
 71
3
 72
8
 73
4
 74
0
 40
0
 40
0
 40
0
 40
0
 40
1
 40
1
 40
1
 40
1
 10
-90.278140
 20
92.197426
 30
0.0
 10
-91.777845
 20
91.779545
 30
0.0
 10
-92.327230
 20
91.458705
 30
0.0
 10
-92.327230
 20
91.000768
 30
0.0
  0
SPLINE
  5
22f
100
AcDbEntity
  8
outline
 62
7
100
AcDbSpline
 70
8
 71
3
 72
8
 73
4
 74
0
 40
0
 40
0
 40
0
 40
0
 40
1
 40
1
 40
1
 40
1
 10
-92.327230
 20
91.000768
 30
0.0
 10
-92.327230
 20
90.656643
 30
0.0
 10
-91.886231
 20
90.135836
 30
0.0
 10
-91.347228
 20
89.843421
 30
0.0
  0
SPLINE
  5
230
100
AcDbEntity
  8
outline
 62
7
100
AcDbSpline
 70
8
 71
3
 72
8
 73
4
 74
0
 40
0
 40
0
 40
0
 40
0
 40
1
 40
1
 40
1
 40
1
 10
-91.347228
 20
89.843421
 30
0.0
 10
-90.808230
 20
89.551010
 30
0.0
 10
-89.459541
 20
89.305345
 30
0.0
 10
-88.350140
 20
89.297496
 30
0.0
  0
LWPOLYLINE
  5
231
100
AcDbEntity
  8
outline
 62
7
100
AcDbPolyline
 90
3
 70
0
 10
-83.590144
 20
93.450236
 30
0.0
 10
-84.869229
 20
94.060189
 30
0.0
 10
-86.549141
 20
93.414292
 30
0.0
  0
SPLINE
  5
232
100
AcDbEntity
  8
outline
 62
7
100
AcDbSpline
 70
8
 71
3
 72
8
 73
4
 74
0
 40
0
 40
0
 40
0
 40
0
 40
1
 40
1
 40
1
 40
1
 10
-51.231818
 20
90.307526
 30
0.0
 10
-50.772911
 20
90.766428
 30
0.0
 10
-50.615038
 20
91.171885
 30
0.0
 10
-50.824720
 20
91.353034
 30
0.0
  0
SPLINE
  5
233
100
AcDbEntity
  8
outline
 62
7
100
AcDbSpline
 70
8
 71
3
 72
8
 73
4
 74
0
 40
0
 40
0
 40
0
 40
0
 40
1
 40
1
 40
1
 40
1
 10
-50.824720
 20
91.353034
 30
0.0
 10
-51.013094
 20
91.515781
 30
0.0
 10
-52.800529
 20
92.182791
 30
0.0
 10
-54.796793
 20
92.835276
 30
0.0
  0
LWPOLYLINE
  5
234
100
AcDbEntity
  8
outline
 62
7
100
AcDbPolyline
 90
4
 70
0
 10
-88.350140
 20
89.297496
 30
0.0
 10
-86.333049
 20
89.283256
 30
0.0
 10
-84.550337
 20
90.692410
 30
0.0
 10
-84.550337
 20
90.692382
 30
0.0
  0
SPLINE
  5
235
100
AcDbEntity
  8
outline
 62
7
100
AcDbSpline
 70
8
 71
3
 72
8
 73
4
 74
0
 40
0
 40
0
 40
0
 40
0
 40
1
 40
1
 40
1
 40
1
 10
-59.518613
 20
93.569186
 30
0.0
 10
-60.119352
 20
93.320354
 30
0.0
 10
-60.610861
 20
92.923623
 30
0.0
 10
-60.610861
 20
92.687569
 30
0.0
  0
SPLINE
  5
236
100
AcDbEntity
  8
outline
 62
7
100
AcDbSpline
 70
8
 71
3
 72
8
 73
4
 74
0
 40
0
 40
0
 40
0
 40
0
 40
1
 40
1
 40
1
 40
1
 10
-60.610861
 20
92.687569
 30
0.0
 10
-60.610861
 20
92.451515
 30
0.0
 10
-60.250043
 20
91.930921
 30
0.0
 10
-59.809044
 20
91.530694
 30
0.0
  0
SPLINE
  5
237
100
AcDbEntity
  8
outline
 62
7
100
AcDbSpline
 70
8
 71
3
 72
8
 73
4
 74
0
 40
0
 40
0
 40
0
 40
0
 40
1
 40
1
 40
1
 40
1
 10
-59.809044
 20
91.530694
 30
0.0
 10
-59.368043
 20
91.130466
 30
0.0
 10
-58.562208
 20
90.520166
 30
0.0
 10
-58.018298
 20
90.174464
 30
0.0
  0
SPLINE
  5
238
100
AcDbEntity
  8
outline
 62
7
100
AcDbSpline
 70
8
 71
3
 72
8
 73
4
 74
0
 40
0
 40
0
 40
0
 40
0
 40
1
 40
1
 40
1
 40
1
 10
-58.018298
 20
90.174464
 30
0.0
 10
-57.474385
 20
89.828767
 30
0.0
 10
-56.512207
 20
89.437818
 30
0.0
 10
-55.880115
 20
89.305687
 30
0.0
  0
SPLINE
  5
239
100
AcDbEntity
  8
outline
 62
7
100
AcDbSpline
 70
8
 71
3
 72
8
 73
4
 74
0
 40
0
 40
0
 40
0
 40
0
 40
1
 40
1
 40
1
 40
1
 10
-55.880115
 20
89.305687
 30
0.0
 10
-55.248026
 20
89.173552
 30
0.0
 10
-54.112235
 20
89.176252
 30
0.0
 10
-53.356139
 20
89.311655
 30
0.0
  0
SPLINE
  5
23a
100
AcDbEntity
  8
outline
 62
7
100
AcDbSpline
 70
8
 71
3
 72
8
 73
4
 74
0
 40
0
 40
0
 40
0
 40
0
 40
1
 40
1
 40
1
 40
1
 10
-53.356139
 20
89.311655
 30
0.0
 10
-52.600043
 20
89.447086
 30
0.0
 10
-51.644097
 20
89.895210
 30
0.0
 10
-51.231818
 20
90.307500
 30
0.0
  0
LWPOLYLINE
  5
23b
100
AcDbEntity
  8
outline
 62
7
100
AcDbPolyline
 90
3
 70
0
 10
-54.796793
 20
92.835276
 30
0.0
 10
-58.426363
 20
94.021608
 30
0.0
 10
-59.518613
 20
93.569186
 30
0.0
  0
SPLINE
  5
23c
100
AcDbEntity
  8
outline
 62
7
100
AcDbSpline
 70
8
 71
3
 72
8
 73
4
 74
0
 40
0
 40
0
 40
0
 40
0
 40
1
 40
1
 40
1
 40
1
 10
-68.743151
 20
86.668522
 30
0.0
 10
-68.385936
 20
86.759412
 30
0.0
 10
-67.750225
 20
87.852696
 30
0.0
 10
-67.166807
 20
89.379486
 30
0.0
  0
SPLINE
  5
23d
100
AcDbEntity
  8
outline
 62
7
100
AcDbSpline
 70
8
 71
3
 72
8
 73
4
 74
0
 40
0
 40
0
 40
0
 40
0
 40
1
 40
1
 40
1
 40
1
 10
-67.166807
 20
89.379486
 30
0.0
 10
-66.629065
 20
90.786744
 30
0.0
 10
-65.896174
 20
93.053848
 30
0.0
 10
-65.538162
 20
94.417492
 30
0.0
  0
SPLINE
  5
23e
100
AcDbEntity
  8
outline
 62
7
100
AcDbSpline
 70
8
 71
3
 72
8
 73
4
 74
0
 40
0
 40
0
 40
0
 40
0
 40
1
 40
1
 40
1
 40
1
 10
-65.538162
 20
94.417492
 30
0.0
 10
-65.180145
 20
95.781137
 30
0.0
 10
-64.887228
 20
98.032744
 30
0.0
 10
-64.887228
 20
99.421055
 30
0.0
  0
SPLINE
  5
23f
100
AcDbEntity
  8
outline
 62
7
100
AcDbSpline
 70
8
 71
3
 72
8
 73
4
 74
0
 40
0
 40
0
 40
0
 40
0
 40
1
 40
1
 40
1
 40
1
 10
-64.887228
 20
99.421055
 30
0.0
 10
-64.887228
 20
101.196987
 30
0.0
 10
-65.083383
 20
102.313356
 30
0.0
 10
-65.548927
 20
103.186974
 30
0.0
  0
SPLINE
  5
240
100
AcDbEntity
  8
outline
 62
7
100
AcDbSpline
 70
8
 71
3
 72
8
 73
4
 74
0
 40
0
 40
0
 40
0
 40
0
 40
1
 40
1
 40
1
 40
1
 10
-65.548927
 20
103.186974
 30
0.0
 10
-65.912868
 20
103.869917
 30
0.0
 10
-66.621900
 20
104.662991
 30
0.0
 10
-67.124549
 20
104.949357
 30
0.0
  0
LWPOLYLINE
  5
241
100
AcDbEntity
  8
outline
 62
7
100
AcDbPolyline
 90
1
 70
1
 10
-51.231818
 20
90.307500
 30
0.0
  0
SPLINE
  5
242
100
AcDbEntity
  8
outline
 62
7
100
AcDbSpline
 70
8
 71
3
 72
8
 73
4
 74
0
 40
0
 40
0
 40
0
 40
0
 40
1
 40
1
 40
1
 40
1
 10
-74.327823
 20
104.961605
 30
0.0
 10
-74.995895
 20
105.319150
 30
0.0
 10
-75.425711
 20
105.341081
 30
0.0
 10
-76.064106
 20
105.050209
 30
0.0
  0
SPLINE
  5
243
100
AcDbEntity
  8
outline
 62
7
100
AcDbSpline
 70
8
 71
3
 72
8
 73
4
 74
0
 40
0
 40
0
 40
0
 40
0
 40
1
 40
1
 40
1
 40
1
 10
-76.064106
 20
105.050209
 30
0.0
 10
-76.530743
 20
104.837594
 30
0.0
 10
-77.253745
 20
103.958784
 30
0.0
 10
-77.670786
 20
103.097288
 30
0.0
  0
SPLINE
  5
244
100
AcDbEntity
  8
outline
 62
7
100
AcDbSpline
 70
8
 71
3
 72
8
 73
4
 74
0
 40
0
 40
0
 40
0
 40
0
 40
1
 40
1
 40
1
 40
1
 10
-77.670786
 20
103.097288
 30
0.0
 10
-78.141472
 20
102.124980
 30
0.0
 10
-78.429047
 20
100.839104
 30
0.0
 10
-78.429047
 20
99.706744
 30
0.0
  0
SPLINE
  5
245
100
AcDbEntity
  8
outline
 62
7
100
AcDbSpline
 70
8
 71
3
 72
8
 73
4
 74
0
 40
0
 40
0
 40
0
 40
0
 40
1
 40
1
 40
1
 40
1
 10
-78.429047
 20
99.706744
 30
0.0
 10
-78.429047
 20
98.703440
 30
0.0
 10
-78.195972
 20
96.789614
 30
0.0
 10
-77.911101
 20
95.453801
 30
0.0
  0
SPLINE
  5
246
100
AcDbEntity
  8
outline
 62
7
100
AcDbSpline
 70
8
 71
3
 72
8
 73
4
 74
0
 40
0
 40
0
 40
0
 40
0
 40
1
 40
1
 40
1
 40
1
 10
-77.911101
 20
95.453801
 30
0.0
 10
-77.626228
 20
94.117987
 30
0.0
 10
-77.001149
 20
91.882467
 30
0.0
 10
-76.522030
 20
90.485968
 30
0.0
  0
SPLINE
  5
247
100
AcDbEntity
  8
outline
 62
7
100
AcDbSpline
 70
8
 71
3
 72
8
 73
4
 74
0
 40
0
 40
0
 40
0
 40
0
 40
1
 40
1
 40
1
 40
1
 10
-76.522030
 20
90.485968
 30
0.0
 10
-76.042911
 20
89.089475
 30
0.0
 10
-75.474154
 20
87.616628
 30
0.0
 10
-75.258127
 20
87.212967
 30
0.0
  0
LWPOLYLINE
  5
248
100
AcDbEntity
  8
outline
 62
7
100
AcDbPolyline
 90
9
 70
0
 10
-67.124549
 20
104.949357
 30
0.0
 10
-68.038460
 20
105.470028
 30
0.0
 10
-68.957390
 20
104.978228
 30
0.0
 10
-69.876319
 20
104.486433
 30
0.0
 10
-70.767226
 20
104.963232
 30
0.0
 10
-71.658135
 20
105.440035
 30
0.0
 10
-72.549049
 20
104.963232
 30
0.0
 10
-73.439956
 20
104.486433
 30
0.0
 10
-74.327823
 20
104.961605
 30
0.0
  0
SPLINE
  5
249
100
AcDbEntity
  8
outline
 62
7
100
AcDbSpline
 70
8
 71
3
 72
8
 73
4
 74
0
 40
0
 40
0
 40
0
 40
0
 40
1
 40
1
 40
1
 40
1
 10
-72.103560
 20
86.497619
 30
0.0
 10
-70.584575
 20
86.507874
 30
0.0
 10
-69.072391
 20
86.584740
 30
0.0
 10
-68.743151
 20
86.668509
 30
0.0
  0
LWPOLYLINE
  5
24a
100
AcDbEntity
  8
outline
 62
7
100
AcDbPolyline
 90
3
 70
0
 10
-75.258127
 20
87.212967
 30
0.0
 10
-74.865343
 20
86.479048
 30
0.0
 10
-72.103560
 20
86.497619
 30
0.0
  0
SPLINE
  5
24b
100
AcDbEntity
  8
outline
 62
7
100
AcDbSpline
 70
8
 71
3
 72
8
 73
4
 74
0
 40
0
 40
0
 40
0
 40
0
 40
1
 40
1
 40
1
 40
1
 10
-57.570325
 20
85.523225
 30
0.0
 10
-56.890621
 20
85.807223
 30
0.0
 10
-56.334498
 20
86.284194
 30
0.0
 10
-56.334498
 20
86.583163
 30
0.0
  0
SPLINE
  5
24c
100
AcDbEntity
  8
outline
 62
7
100
AcDbSpline
 70
8
 71
3
 72
8
 73
4
 74
0
 40
0
 40
0
 40
0
 40
0
 40
1
 40
1
 40
1
 40
1
 10
-56.334498
 20
86.583163
 30
0.0
 10
-56.334498
 20
86.882136
 30
0.0
 10
-56.775497
 20
87.355527
 30
0.0
 10
-57.314495
 20
87.635154
 30
0.0
  0
SPLINE
  5
24d
100
AcDbEntity
  8
outline
 62
7
100
AcDbSpline
 70
8
 71
3
 72
8
 73
4
 74
0
 40
0
 40
0
 40
0
 40
0
 40
1
 40
1
 40
1
 40
1
 10
-57.314495
 20
87.635154
 30
0.0
 10
-57.853498
 20
87.914776
 30
0.0
 10
-59.417044
 20
89.040547
 30
0.0
 10
-60.789046
 20
90.136864
 30
0.0
  0
SPLINE
  5
24e
100
AcDbEntity
  8
outline
 62
7
100
AcDbSpline
 70
8
 71
3
 72
8
 73
4
 74
0
 40
0
 40
0
 40
0
 40
0
 40
1
 40
1
 40
1
 40
1
 10
-60.789046
 20
90.136864
 30
0.0
 10
-62.161041
 20
91.233179
 30
0.0
 10
-63.478401
 20
92.131058
 30
0.0
 10
-63.716509
 20
92.132154
 30
0.0
  0
SPLINE
  5
24f
100
AcDbEntity
  8
outline
 62
7
100
AcDbSpline
 70
8
 71
3
 72
8
 73
4
 74
0
 40
0
 40
0
 40
0
 40
0
 40
1
 40
1
 40
1
 40
1
 10
-63.716509
 20
92.132154
 30
0.0
 10
-63.954612
 20
92.133016
 30
0.0
 10
-64.316521
 20
91.821909
 30
0.0
 10
-64.520753
 20
91.440300
 30
0.0
  0
SPLINE
  5
250
100
AcDbEntity
  8
outline
 62
7
100
AcDbSpline
 70
8
 71
3
 72
8
 73
4
 74
0
 40
0
 40
0
 40
0
 40
0
 40
1
 40
1
 40
1
 40
1
 10
-64.520753
 20
91.440300
 30
0.0
 10
-64.724983
 20
91.058693
 30
0.0
 10
-64.923428
 20
90.367715
 30
0.0
 10
-64.961742
 20
89.904802
 30
0.0
  0
SPLINE
  5
251
100
AcDbEntity
  8
outline
 62
7
100
AcDbSpline
 70
8
 71
3
 72
8
 73
4
 74
0
 40
0
 40
0
 40
0
 40
0
 40
1
 40
1
 40
1
 40
1
 10
-64.961742
 20
89.904802
 30
0.0
 10
-65.000047
 20
89.441879
 30
0.0
 10
-64.557962
 20
88.404043
 30
0.0
 10
-63.979310
 20
87.598490
 30
0.0
  0
SPLINE
  5
252
100
AcDbEntity
  8
outline
 62
7
100
AcDbSpline
 70
8
 71
3
 72
8
 73
4
 74
0
 40
0
 40
0
 40
0
 40
0
 40
1
 40
1
 40
1
 40
1
 10
-63.979310
 20
87.598490
 30
0.0
 10
-63.400666
 20
86.792940
 30
0.0
 10
-62.526318
 20
85.884546
 30
0.0
 10
-62.036317
 20
85.579844
 30
0.0
  0
SPLINE
  5
253
100
AcDbEntity
  8
outline
 62
7
100
AcDbSpline
 70
8
 71
3
 72
8
 73
4
 74
0
 40
0
 40
0
 40
0
 40
0
 40
1
 40
1
 40
1
 40
1
 10
-62.036317
 20
85.579844
 30
0.0
 10
-61.546318
 20
85.275136
 30
0.0
 10
-60.619073
 20
85.021564
 30
0.0
 10
-59.975779
 20
85.016348
 30
0.0
  0
SPLINE
  5
254
100
AcDbEntity
  8
outline
 62
7
100
AcDbSpline
 70
8
 71
3
 72
8
 73
4
 74
0
 40
0
 40
0
 40
0
 40
0
 40
1
 40
1
 40
1
 40
1
 10
-59.975779
 20
85.016348
 30
0.0
 10
-59.332486
 20
85.011156
 30
0.0
 10
-58.250030
 20
85.239224
 30
0.0
 10
-57.570325
 20
85.523225
 30
0.0
  0
LWPOLYLINE
  5
255
100
AcDbEntity
  8
outline
 62
7
100
AcDbPolyline
 90
1
 70
1
 10
-68.743151
 20
86.668509
 30
0.0
  0
SPLINE
  5
256
100
AcDbEntity
  8
outline
 62
7
100
AcDbSpline
 70
8
 71
3
 72
8
 73
4
 74
0
 40
0
 40
0
 40
0
 40
0
 40
1
 40
1
 40
1
 40
1
 10
-81.040792
 20
85.698594
 30
0.0
 10
-80.419255
 20
86.077575
 30
0.0
 10
-79.489565
 20
87.106305
 30
0.0
 10
-78.974814
 20
87.984654
 30
0.0
  0
LWPOLYLINE
  5
257
100
AcDbEntity
  8
outline
 62
7
100
AcDbPolyline
 90
1
 70
1
 10
-57.570325
 20
85.523225
 30
0.0
  0
SPLINE
  5
258
100
AcDbEntity
  8
outline
 62
7
100
AcDbSpline
 70
8
 71
3
 72
8
 73
4
 74
0
 40
0
 40
0
 40
0
 40
0
 40
1
 40
1
 40
1
 40
1
 10
-78.572161
 20
90.857899
 30
0.0
 10
-78.865442
 20
91.559832
 30
0.0
 10
-79.314044
 20
92.133244
 30
0.0
 10
-79.569047
 20
92.132154
 30
0.0
  0
SPLINE
  5
259
100
AcDbEntity
  8
outline
 62
7
100
AcDbSpline
 70
8
 71
3
 72
8
 73
4
 74
0
 40
0
 40
0
 40
0
 40
0
 40
1
 40
1
 40
1
 40
1
 10
-79.569047
 20
92.132154
 30
0.0
 10
-79.824047
 20
92.131293
 30
0.0
 10
-81.153682
 20
91.235357
 30
0.0
 10
-82.523795
 20
90.141700
 30
0.0
  0
SPLINE
  5
25a
100
AcDbEntity
  8
outline
 62
7
100
AcDbSpline
 70
8
 71
3
 72
8
 73
4
 74
0
 40
0
 40
0
 40
0
 40
0
 40
1
 40
1
 40
1
 40
1
 10
-82.523795
 20
90.141700
 30
0.0
 10
-83.893907
 20
89.048046
 30
0.0
 10
-85.457453
 20
87.891821
 30
0.0
 10
-85.998339
 20
87.572310
 30
0.0
  0
SPLINE
  5
25b
100
AcDbEntity
  8
outline
 62
7
100
AcDbSpline
 70
8
 71
3
 72
8
 73
4
 74
0
 40
0
 40
0
 40
0
 40
0
 40
1
 40
1
 40
1
 40
1
 10
-85.998339
 20
87.572310
 30
0.0
 10
-86.539231
 20
87.252795
 30
0.0
 10
-86.981775
 20
86.777668
 30
0.0
 10
-86.981775
 20
86.516465
 30
0.0
  0
SPLINE
  5
25c
100
AcDbEntity
  8
outline
 62
7
100
AcDbSpline
 70
8
 71
3
 72
8
 73
4
 74
0
 40
0
 40
0
 40
0
 40
0
 40
1
 40
1
 40
1
 40
1
 10
-86.981775
 20
86.516465
 30
0.0
 10
-86.981775
 20
86.255261
 30
0.0
 10
-86.460591
 20
85.815026
 30
0.0
 10
-85.823594
 20
85.538159
 30
0.0
  0
SPLINE
  5
25d
100
AcDbEntity
  8
outline
 62
7
100
AcDbSpline
 70
8
 71
3
 72
8
 73
4
 74
0
 40
0
 40
0
 40
0
 40
0
 40
1
 40
1
 40
1
 40
1
 10
-85.823594
 20
85.538159
 30
0.0
 10
-85.186591
 20
85.261290
 30
0.0
 10
-84.104137
 20
85.029083
 30
0.0
 10
-83.418138
 20
85.022146
 30
0.0
  0
SPLINE
  5
25e
100
AcDbEntity
  8
outline
 62
7
100
AcDbSpline
 70
8
 71
3
 72
8
 73
4
 74
0
 40
0
 40
0
 40
0
 40
0
 40
1
 40
1
 40
1
 40
1
 10
-83.418138
 20
85.022146
 30
0.0
 10
-82.732137
 20
85.015187
 30
0.0
 10
-81.662332
 20
85.319609
 30
0.0
 10
-81.040792
 20
85.698594
 30
0.0
  0
LWPOLYLINE
  5
25f
100
AcDbEntity
  8
outline
 62
7
100
AcDbPolyline
 90
3
 70
0
 10
-78.974814
 20
87.984654
 30
0.0
 10
-78.038913
 20
89.581654
 30
0.0
 10
-78.572161
 20
90.857899
 30
0.0
  0
SPLINE
  5
260
100
AcDbEntity
  8
outline
 62
7
100
AcDbSpline
 70
8
 71
3
 72
8
 73
4
 74
0
 40
0
 40
0
 40
0
 40
0
 40
1
 40
1
 40
1
 40
1
 10
-41.219359
 20
85.222724
 30
0.0
 10
-40.908684
 20
85.341941
 30
0.0
 10
-40.654496
 20
85.634913
 30
0.0
 10
-40.654496
 20
85.873778
 30
0.0
  0
SPLINE
  5
261
100
AcDbEntity
  8
outline
 62
7
100
AcDbSpline
 70
8
 71
3
 72
8
 73
4
 74
0
 40
0
 40
0
 40
0
 40
0
 40
1
 40
1
 40
1
 40
1
 10
-40.654496
 20
85.873778
 30
0.0
 10
-40.654496
 20
86.112649
 30
0.0
 10
-41.015311
 20
86.638664
 30
0.0
 10
-41.456310
 20
87.042714
 30
0.0
  0
SPLINE
  5
262
100
AcDbEntity
  8
outline
 62
7
100
AcDbSpline
 70
8
 71
3
 72
8
 73
4
 74
0
 40
0
 40
0
 40
0
 40
0
 40
1
 40
1
 40
1
 40
1
 10
-41.456310
 20
87.042714
 30
0.0
 10
-41.897314
 20
87.446759
 30
0.0
 10
-42.933289
 20
88.116162
 30
0.0
 10
-43.758476
 20
88.530290
 30
0.0
  0
SPLINE
  5
263
100
AcDbEntity
  8
outline
 62
7
100
AcDbSpline
 70
8
 71
3
 72
8
 73
4
 74
0
 40
0
 40
0
 40
0
 40
0
 40
1
 40
1
 40
1
 40
1
 10
-43.758476
 20
88.530290
 30
0.0
 10
-44.626195
 20
88.965742
 30
0.0
 10
-45.940998
 20
89.283230
 30
0.0
 10
-46.876663
 20
89.283230
 30
0.0
  0
SPLINE
  5
264
100
AcDbEntity
  8
outline
 62
7
100
AcDbSpline
 70
8
 71
3
 72
8
 73
4
 74
0
 40
0
 40
0
 40
0
 40
0
 40
1
 40
1
 40
1
 40
1
 10
-46.876663
 20
89.283230
 30
0.0
 10
-48.025455
 20
89.283230
 30
0.0
 10
-48.703495
 20
89.074233
 30
0.0
 10
-49.215391
 20
88.562337
 30
0.0
  0
SPLINE
  5
265
100
AcDbEntity
  8
outline
 62
7
100
AcDbSpline
 70
8
 71
3
 72
8
 73
4
 74
0
 40
0
 40
0
 40
0
 40
0
 40
1
 40
1
 40
1
 40
1
 10
-49.215391
 20
88.562337
 30
0.0
 10
-49.758605
 20
88.019118
 30
0.0
 10
-49.851231
 20
87.682522
 30
0.0
 10
-49.591209
 20
87.196664
 30
0.0
  0
SPLINE
  5
266
100
AcDbEntity
  8
outline
 62
7
100
AcDbSpline
 70
8
 71
3
 72
8
 73
4
 74
0
 40
0
 40
0
 40
0
 40
0
 40
1
 40
1
 40
1
 40
1
 10
-49.591209
 20
87.196664
 30
0.0
 10
-49.401418
 20
86.842035
 30
0.0
 10
-48.998353
 20
86.346247
 30
0.0
 10
-48.695509
 20
86.094909
 30
0.0
  0
SPLINE
  5
267
100
AcDbEntity
  8
outline
 62
7
100
AcDbSpline
 70
8
 71
3
 72
8
 73
4
 74
0
 40
0
 40
0
 40
0
 40
0
 40
1
 40
1
 40
1
 40
1
 10
-48.695509
 20
86.094909
 30
0.0
 10
-48.392670
 20
85.843567
 30
0.0
 10
-47.542001
 20
85.413741
 30
0.0
 10
-46.805148
 20
85.139728
 30
0.0
  0
SPLINE
  5
268
100
AcDbEntity
  8
outline
 62
7
100
AcDbSpline
 70
8
 71
3
 72
8
 73
4
 74
0
 40
0
 40
0
 40
0
 40
0
 40
1
 40
1
 40
1
 40
1
 10
-46.805148
 20
85.139728
 30
0.0
 10
-45.977257
 20
84.831864
 30
0.0
 10
-44.762200
 20
84.711145
 30
0.0
 10
-43.624813
 20
84.823746
 30
0.0
  0
SPLINE
  5
269
100
AcDbEntity
  8
outline
 62
7
100
AcDbSpline
 70
8
 71
3
 72
8
 73
4
 74
0
 40
0
 40
0
 40
0
 40
0
 40
1
 40
1
 40
1
 40
1
 10
-43.624813
 20
84.823746
 30
0.0
 10
-42.612496
 20
84.923966
 30
0.0
 10
-41.530035
 20
85.103504
 30
0.0
 10
-41.219359
 20
85.222724
 30
0.0
  0
LWPOLYLINE
  5
26a
100
AcDbEntity
  8
outline
 62
7
100
AcDbPolyline
 90
1
 70
1
 10
-81.040792
 20
85.698594
 30
0.0
  0
SPLINE
  5
26b
100
AcDbEntity
  8
outline
 62
7
100
AcDbSpline
 70
8
 71
3
 72
8
 73
4
 74
0
 40
0
 40
0
 40
0
 40
0
 40
1
 40
1
 40
1
 40
1
 10
-96.567684
 20
85.055349
 30
0.0
 10
-95.901432
 20
85.278021
 30
0.0
 10
-94.915320
 20
85.869297
 30
0.0
 10
-94.376322
 20
86.369299
 30
0.0
  0
SPLINE
  5
26c
100
AcDbEntity
  8
outline
 62
7
100
AcDbSpline
 70
8
 71
3
 72
8
 73
4
 74
0
 40
0
 40
0
 40
0
 40
0
 40
1
 40
1
 40
1
 40
1
 10
-94.376322
 20
86.369299
 30
0.0
 10
-93.837320
 20
86.869305
 30
0.0
 10
-93.396322
 20
87.436220
 30
0.0
 10
-93.396322
 20
87.629113
 30
0.0
  0
SPLINE
  5
26d
100
AcDbEntity
  8
outline
 62
7
100
AcDbSpline
 70
8
 71
3
 72
8
 73
4
 74
0
 40
0
 40
0
 40
0
 40
0
 40
1
 40
1
 40
1
 40
1
 10
-93.396322
 20
87.629113
 30
0.0
 10
-93.396322
 20
87.822011
 30
0.0
 10
-93.661724
 20
88.273099
 30
0.0
 10
-93.986100
 20
88.631536
 30
0.0
  0
SPLINE
  5
26e
100
AcDbEntity
  8
outline
 62
7
100
AcDbSpline
 70
8
 71
3
 72
8
 73
4
 74
0
 40
0
 40
0
 40
0
 40
0
 40
1
 40
1
 40
1
 40
1
 10
-93.986100
 20
88.631536
 30
0.0
 10
-94.404441
 20
89.093790
 30
0.0
 10
-95.082906
 20
89.283230
 30
0.0
 10
-96.320161
 20
89.283230
 30
0.0
  0
SPLINE
  5
26f
100
AcDbEntity
  8
outline
 62
7
100
AcDbSpline
 70
8
 71
3
 72
8
 73
4
 74
0
 40
0
 40
0
 40
0
 40
0
 40
1
 40
1
 40
1
 40
1
 10
-96.320161
 20
89.283230
 30
0.0
 10
-97.279518
 20
89.283230
 30
0.0
 10
-98.577663
 20
89.023753
 30
0.0
 10
-99.204928
 20
88.706614
 30
0.0
  0
SPLINE
  5
270
100
AcDbEntity
  8
outline
 62
7
100
AcDbSpline
 70
8
 71
3
 72
8
 73
4
 74
0
 40
0
 40
0
 40
0
 40
0
 40
1
 40
1
 40
1
 40
1
 10
-99.204928
 20
88.706614
 30
0.0
 10
-99.832196
 20
88.389479
 30
0.0
 10
-100.866596
 20
87.739855
 30
0.0
 10
-101.503594
 20
87.263020
 30
0.0
  0
SPLINE
  5
271
100
AcDbEntity
  8
outline
 62
7
100
AcDbSpline
 70
8
 71
3
 72
8
 73
4
 74
0
 40
0
 40
0
 40
0
 40
0
 40
1
 40
1
 40
1
 40
1
 10
-101.503594
 20
87.263020
 30
0.0
 10
-102.140597
 20
86.786184
 30
0.0
 10
-102.661779
 20
86.179592
 30
0.0
 10
-102.661779
 20
85.915042
 30
0.0
  0
SPLINE
  5
272
100
AcDbEntity
  8
outline
 62
7
100
AcDbSpline
 70
8
 71
3
 72
8
 73
4
 74
0
 40
0
 40
0
 40
0
 40
0
 40
1
 40
1
 40
1
 40
1
 10
-102.661779
 20
85.915042
 30
0.0
 10
-102.661779
 20
85.650480
 30
0.0
 10
-102.060413
 20
85.274309
 30
0.0
 10
-101.325415
 20
85.079095
 30
0.0
  0
SPLINE
  5
273
100
AcDbEntity
  8
outline
 62
7
100
AcDbSpline
 70
8
 71
3
 72
8
 73
4
 74
0
 40
0
 40
0
 40
0
 40
0
 40
1
 40
1
 40
1
 40
1
 10
-101.325415
 20
85.079095
 30
0.0
 10
-100.590417
 20
84.883884
 30
0.0
 10
-99.491798
 20
84.707588
 30
0.0
 10
-98.884045
 20
84.687330
 30
0.0
  0
SPLINE
  5
274
100
AcDbEntity
  8
outline
 62
7
100
AcDbSpline
 70
8
 71
3
 72
8
 73
4
 74
0
 40
0
 40
0
 40
0
 40
0
 40
1
 40
1
 40
1
 40
1
 10
-98.884045
 20
84.687330
 30
0.0
 10
-98.276296
 20
84.667100
 30
0.0
 10
-97.233931
 20
84.832685
 30
0.0
 10
-96.567684
 20
85.055349
 30
0.0
  0
LWPOLYLINE
  5
275
100
AcDbEntity
  8
outline
 62
7
100
AcDbPolyline
 90
1
 70
1
 10
-41.219359
 20
85.222724
 30
0.0
  0
LWPOLYLINE
  5
276
100
AcDbEntity
  8
outline
 62
7
100
AcDbPolyline
 90
1
 70
1
 10
-96.567684
 20
85.055349
 30
0.0
  0
SPLINE
  5
277
100
AcDbEntity
  8
outline
 62
7
100
AcDbSpline
 70
8
 71
3
 72
8
 73
4
 74
0
 40
0
 40
0
 40
0
 40
0
 40
1
 40
1
 40
1
 40
1
 10
-69.600740
 20
85.240377
 30
0.0
 10
-69.910690
 20
85.550327
 30
0.0
 10
-70.340041
 20
85.695307
 30
0.0
 10
-70.554848
 20
85.562549
 30
0.0
  0
SPLINE
  5
278
100
AcDbEntity
  8
outline
 62
7
100
AcDbSpline
 70
8
 71
3
 72
8
 73
4
 74
0
 40
0
 40
0
 40
0
 40
0
 40
1
 40
1
 40
1
 40
1
 10
-70.554848
 20
85.562549
 30
0.0
 10
-70.769658
 20
85.429787
 30
0.0
 10
-70.945411
 20
84.769356
 30
0.0
 10
-70.945411
 20
84.094925
 30
0.0
  0
SPLINE
  5
279
100
AcDbEntity
  8
outline
 62
7
100
AcDbSpline
 70
8
 71
3
 72
8
 73
4
 74
0
 40
0
 40
0
 40
0
 40
0
 40
1
 40
1
 40
1
 40
1
 10
-70.945411
 20
84.094925
 30
0.0
 10
-70.945411
 20
83.234827
 30
0.0
 10
-70.783515
 20
82.868684
 30
0.0
 10
-70.403225
 20
82.868684
 30
0.0
  0
SPLINE
  5
27a
100
AcDbEntity
  8
outline
 62
7
100
AcDbSpline
 70
8
 71
3
 72
8
 73
4
 74
0
 40
0
 40
0
 40
0
 40
0
 40
1
 40
1
 40
1
 40
1
 10
-70.403225
 20
82.868684
 30
0.0
 10
-70.105025
 20
82.868684
 30
0.0
 10
-69.675672
 20
83.275515
 30
0.0
 10
-69.449118
 20
83.772757
 30
0.0
  0
LWPOLYLINE
  5
27b
100
AcDbEntity
  8
outline
 62
7
100
AcDbPolyline
 90
3
 70
0
 10
-69.449118
 20
83.772757
 30
0.0
 10
-69.037190
 20
84.676830
 30
0.0
 10
-69.600740
 20
85.240377
 30
0.0
  0
SPLINE
  5
27c
100
AcDbEntity
  8
outline
 62
7
100
AcDbSpline
 70
8
 71
3
 72
8
 73
4
 74
0
 40
0
 40
0
 40
0
 40
0
 40
1
 40
1
 40
1
 40
1
 10
-72.210566
 20
83.815205
 30
0.0
 10
-72.052024
 20
84.446885
 30
0.0
 10
-72.151766
 20
84.940497
 30
0.0
 10
-72.510414
 20
85.299140
 30
0.0
  0
LWPOLYLINE
  5
27d
100
AcDbEntity
  8
outline
 62
7
100
AcDbPolyline
 90
1
 70
1
 10
-69.449118
 20
83.772757
 30
0.0
  0
SPLINE
  5
27e
100
AcDbEntity
  8
outline
 62
7
100
AcDbSpline
 70
8
 71
3
 72
8
 73
4
 74
0
 40
0
 40
0
 40
0
 40
0
 40
1
 40
1
 40
1
 40
1
 10
-73.600249
 20
85.378068
 30
0.0
 10
-73.904093
 20
85.125912
 30
0.0
 10
-74.152684
 20
84.751399
 30
0.0
 10
-74.152684
 20
84.545834
 30
0.0
  0
SPLINE
  5
27f
100
AcDbEntity
  8
outline
 62
7
100
AcDbSpline
 70
8
 71
3
 72
8
 73
4
 74
0
 40
0
 40
0
 40
0
 40
0
 40
1
 40
1
 40
1
 40
1
 10
-74.152684
 20
84.545834
 30
0.0
 10
-74.152684
 20
84.340271
 30
0.0
 10
-73.887282
 20
83.878813
 30
0.0
 10
-73.562902
 20
83.520377
 30
0.0
  0
SPLINE
  5
280
100
AcDbEntity
  8
outline
 62
7
100
AcDbSpline
 70
8
 71
3
 72
8
 73
4
 74
0
 40
0
 40
0
 40
0
 40
0
 40
1
 40
1
 40
1
 40
1
 10
-73.562902
 20
83.520377
 30
0.0
 10
-73.238527
 20
83.161944
 30
0.0
 10
-72.855002
 20
82.868684
 30
0.0
 10
-72.710628
 20
82.868684
 30
0.0
  0
SPLINE
  5
281
100
AcDbEntity
  8
outline
 62
7
100
AcDbSpline
 70
8
 71
3
 72
8
 73
4
 74
0
 40
0
 40
0
 40
0
 40
0
 40
1
 40
1
 40
1
 40
1
 10
-72.710628
 20
82.868684
 30
0.0
 10
-72.566254
 20
82.868684
 30
0.0
 10
-72.341228
 20
83.294616
 30
0.0
 10
-72.210566
 20
83.815205
 30
0.0
  0
LWPOLYLINE
  5
282
100
AcDbEntity
  8
outline
 62
7
100
AcDbPolyline
 90
3
 70
0
 10
-72.510414
 20
85.299140
 30
0.0
 10
-73.047818
 20
85.836551
 30
0.0
 10
-73.600249
 20
85.378068
 30
0.0
  0
SPLINE
  5
283
100
AcDbEntity
  8
outline
 62
7
100
AcDbSpline
 70
8
 71
3
 72
8
 73
4
 74
0
 40
0
 40
0
 40
0
 40
0
 40
1
 40
1
 40
1
 40
1
 10
-66.736513
 20
84.050975
 30
0.0
 10
-66.807860
 20
84.552157
 30
0.0
 10
-67.098912
 20
84.828682
 30
0.0
 10
-67.555071
 20
84.828682
 30
0.0
  0
SPLINE
  5
284
100
AcDbEntity
  8
outline
 62
7
100
AcDbSpline
 70
8
 71
3
 72
8
 73
4
 74
0
 40
0
 40
0
 40
0
 40
0
 40
1
 40
1
 40
1
 40
1
 10
-67.555071
 20
84.828682
 30
0.0
 10
-67.954594
 20
84.828682
 30
0.0
 10
-68.316980
 20
84.547973
 30
0.0
 10
-68.387032
 20
84.184228
 30
0.0
  0
SPLINE
  5
285
100
AcDbEntity
  8
outline
 62
7
100
AcDbSpline
 70
8
 71
3
 72
8
 73
4
 74
0
 40
0
 40
0
 40
0
 40
0
 40
1
 40
1
 40
1
 40
1
 10
-68.387032
 20
84.184228
 30
0.0
 10
-68.455292
 20
83.829782
 30
0.0
 10
-68.419768
 20
83.301685
 30
0.0
 10
-68.308108
 20
83.010680
 30
0.0
  0
SPLINE
  5
286
100
AcDbEntity
  8
outline
 62
7
100
AcDbSpline
 70
8
 71
3
 72
8
 73
4
 74
0
 40
0
 40
0
 40
0
 40
0
 40
1
 40
1
 40
1
 40
1
 10
-68.308108
 20
83.010680
 30
0.0
 10
-68.147414
 20
82.591929
 30
0.0
 10
-67.950818
 20
82.564136
 30
0.0
 10
-67.365431
 20
82.877427
 30
0.0
  0
SPLINE
  5
287
100
AcDbEntity
  8
outline
 62
7
100
AcDbSpline
 70
8
 71
3
 72
8
 73
4
 74
0
 40
0
 40
0
 40
0
 40
0
 40
1
 40
1
 40
1
 40
1
 10
-67.365431
 20
82.877427
 30
0.0
 10
-66.890886
 20
83.131397
 30
0.0
 10
-66.665472
 20
83.552012
 30
0.0
 10
-66.736513
 20
84.050975
 30
0.0
  0
LWPOLYLINE
  5
288
100
AcDbEntity
  8
outline
 62
7
100
AcDbPolyline
 90
1
 70
1
 10
-72.210566
 20
83.815205
 30
0.0
  0
LWPOLYLINE
  5
289
100
AcDbEntity
  8
outline
 62
7
100
AcDbPolyline
 90
1
 70
1
 10
-66.736513
 20
84.050975
 30
0.0
  0
SPLINE
  5
28a
100
AcDbEntity
  8
outline
 62
7
100
AcDbSpline
 70
8
 71
3
 72
8
 73
4
 74
0
 40
0
 40
0
 40
0
 40
0
 40
1
 40
1
 40
1
 40
1
 10
-75.663586
 20
84.942561
 30
0.0
 10
-76.102588
 20
84.879926
 30
0.0
 10
-76.511504
 20
84.567507
 30
0.0
 10
-76.572297
 20
84.248298
 30
0.0
  0
SPLINE
  5
28b
100
AcDbEntity
  8
outline
 62
7
100
AcDbSpline
 70
8
 71
3
 72
8
 73
4
 74
0
 40
0
 40
0
 40
0
 40
0
 40
1
 40
1
 40
1
 40
1
 10
-76.572297
 20
84.248298
 30
0.0
 10
-76.633089
 20
83.929090
 30
0.0
 10
-76.421345
 20
83.406435
 30
0.0
 10
-76.101752
 20
83.086847
 30
0.0
  0
SPLINE
  5
28c
100
AcDbEntity
  8
outline
 62
7
100
AcDbSpline
 70
8
 71
3
 72
8
 73
4
 74
0
 40
0
 40
0
 40
0
 40
0
 40
1
 40
1
 40
1
 40
1
 10
-76.101752
 20
83.086847
 30
0.0
 10
-75.782163
 20
82.767249
 30
0.0
 10
-75.373243
 20
82.596889
 30
0.0
 10
-75.193045
 20
82.708258
 30
0.0
  0
SPLINE
  5
28d
100
AcDbEntity
  8
outline
 62
7
100
AcDbSpline
 70
8
 71
3
 72
8
 73
4
 74
0
 40
0
 40
0
 40
0
 40
0
 40
1
 40
1
 40
1
 40
1
 10
-75.193045
 20
82.708258
 30
0.0
 10
-75.012844
 20
82.819623
 30
0.0
 10
-74.865408
 20
83.393520
 30
0.0
 10
-74.865408
 20
83.983588
 30
0.0
  0
LWPOLYLINE
  5
28e
100
AcDbEntity
  8
outline
 62
7
100
AcDbPolyline
 90
3
 70
0
 10
-74.865408
 20
83.983588
 30
0.0
 10
-74.865408
 20
85.056437
 30
0.0
 10
-75.663586
 20
84.942561
 30
0.0
  0
SPLINE
  5
28f
100
AcDbEntity
  8
outline
 62
7
100
AcDbSpline
 70
8
 71
3
 72
8
 73
4
 74
0
 40
0
 40
0
 40
0
 40
0
 40
1
 40
1
 40
1
 40
1
 10
-64.413204
 20
83.017639
 30
0.0
 10
-64.318182
 20
83.265260
 30
0.0
 10
-64.369778
 20
83.677143
 30
0.0
 10
-64.527871
 20
83.932925
 30
0.0
  0
SPLINE
  5
290
100
AcDbEntity
  8
outline
 62
7
100
AcDbSpline
 70
8
 71
3
 72
8
 73
4
 74
0
 40
0
 40
0
 40
0
 40
0
 40
1
 40
1
 40
1
 40
1
 10
-64.527871
 20
83.932925
 30
0.0
 10
-64.685954
 20
84.188714
 30
0.0
 10
-65.072025
 20
84.299475
 30
0.0
 10
-65.385805
 20
84.179071
 30
0.0
  0
SPLINE
  5
291
100
AcDbEntity
  8
outline
 62
7
100
AcDbSpline
 70
8
 71
3
 72
8
 73
4
 74
0
 40
0
 40
0
 40
0
 40
0
 40
1
 40
1
 40
1
 40
1
 10
-65.385805
 20
84.179071
 30
0.0
 10
-65.699586
 20
84.058660
 30
0.0
 10
-65.956316
 20
83.661108
 30
0.0
 10
-65.956316
 20
83.295624
 30
0.0
  0
SPLINE
  5
292
100
AcDbEntity
  8
outline
 62
7
100
AcDbSpline
 70
8
 71
3
 72
8
 73
4
 74
0
 40
0
 40
0
 40
0
 40
0
 40
1
 40
1
 40
1
 40
1
 10
-65.956316
 20
83.295624
 30
0.0
 10
-65.956316
 20
82.930136
 30
0.0
 10
-65.860458
 20
82.535247
 30
0.0
 10
-65.743292
 20
82.418085
 30
0.0
  0
SPLINE
  5
293
100
AcDbEntity
  8
outline
 62
7
100
AcDbSpline
 70
8
 71
3
 72
8
 73
4
 74
0
 40
0
 40
0
 40
0
 40
0
 40
1
 40
1
 40
1
 40
1
 10
-65.743292
 20
82.418085
 30
0.0
 10
-65.626132
 20
82.300919
 30
0.0
 10
-65.317808
 20
82.286594
 30
0.0
 10
-65.058120
 20
82.386284
 30
0.0
  0
SPLINE
  5
294
100
AcDbEntity
  8
outline
 62
7
100
AcDbSpline
 70
8
 71
3
 72
8
 73
4
 74
0
 40
0
 40
0
 40
0
 40
0
 40
1
 40
1
 40
1
 40
1
 10
-65.058120
 20
82.386284
 30
0.0
 10
-64.798439
 20
82.485936
 30
0.0
 10
-64.508223
 20
82.770065
 30
0.0
 10
-64.413204
 20
83.017680
 30
0.0
  0
LWPOLYLINE
  5
295
100
AcDbEntity
  8
outline
 62
7
100
AcDbPolyline
 90
1
 70
1
 10
-74.865408
 20
83.983588
 30
0.0
  0
SPLINE
  5
296
100
AcDbEntity
  8
outline
 62
7
100
AcDbSpline
 70
8
 71
3
 72
8
 73
4
 74
0
 40
0
 40
0
 40
0
 40
0
 40
1
 40
1
 40
1
 40
1
 10
-77.415628
 20
83.424933
 30
0.0
 10
-77.483007
 20
83.772511
 30
0.0
 10
-77.738507
 20
84.123608
 30
0.0
 10
-77.983403
 20
84.205147
 30
0.0
  0
SPLINE
  5
297
100
AcDbEntity
  8
outline
 62
7
100
AcDbSpline
 70
8
 71
3
 72
8
 73
4
 74
0
 40
0
 40
0
 40
0
 40
0
 40
1
 40
1
 40
1
 40
1
 10
-77.983403
 20
84.205147
 30
0.0
 10
-78.228299
 20
84.286695
 30
0.0
 10
-78.526878
 20
84.097484
 30
0.0
 10
-78.646912
 20
83.784688
 30
0.0
  0
SPLINE
  5
298
100
AcDbEntity
  8
outline
 62
7
100
AcDbSpline
 70
8
 71
3
 72
8
 73
4
 74
0
 40
0
 40
0
 40
0
 40
0
 40
1
 40
1
 40
1
 40
1
 10
-78.646912
 20
83.784688
 30
0.0
 10
-78.766939
 20
83.471896
 30
0.0
 10
-78.661562
 20
82.970671
 30
0.0
 10
-78.412745
 20
82.670860
 30
0.0
  0
SPLINE
  5
299
100
AcDbEntity
  8
outline
 62
7
100
AcDbSpline
 70
8
 71
3
 72
8
 73
4
 74
0
 40
0
 40
0
 40
0
 40
0
 40
1
 40
1
 40
1
 40
1
 10
-78.412745
 20
82.670860
 30
0.0
 10
-78.131711
 20
82.332231
 30
0.0
 10
-77.833974
 20
82.252120
 30
0.0
 10
-77.626730
 20
82.459361
 30
0.0
  0
SPLINE
  5
29a
100
AcDbEntity
  8
outline
 62
7
100
AcDbSpline
 70
8
 71
3
 72
8
 73
4
 74
0
 40
0
 40
0
 40
0
 40
0
 40
1
 40
1
 40
1
 40
1
 10
-77.626730
 20
82.459361
 30
0.0
 10
-77.443243
 20
82.642848
 30
0.0
 10
-77.348245
 20
83.077361
 30
0.0
 10
-77.415628
 20
83.424933
 30
0.0
  0
LWPOLYLINE
  5
29b
100
AcDbEntity
  8
outline
 62
7
100
AcDbPolyline
 90
1
 70
1
 10
-64.413204
 20
83.017680
 30
0.0
  0
SPLINE
  5
29c
100
AcDbEntity
  8
outline
 62
7
100
AcDbSpline
 70
8
 71
3
 72
8
 73
4
 74
0
 40
0
 40
0
 40
0
 40
0
 40
1
 40
1
 40
1
 40
1
 10
-45.378679
 20
80.272890
 30
0.0
 10
-45.300164
 20
80.511213
 30
0.0
 10
-46.009195
 20
81.536459
 30
0.0
 10
-46.954305
 20
82.551224
 30
0.0
  0
SPLINE
  5
29d
100
AcDbEntity
  8
outline
 62
7
100
AcDbSpline
 70
8
 71
3
 72
8
 73
4
 74
0
 40
0
 40
0
 40
0
 40
0
 40
1
 40
1
 40
1
 40
1
 10
-46.954305
 20
82.551224
 30
0.0
 10
-47.899408
 20
83.565989
 30
0.0
 10
-49.188707
 20
84.613820
 30
0.0
 10
-49.819411
 20
84.879739
 30
0.0
  0
SPLINE
  5
29e
100
AcDbEntity
  8
outline
 62
7
100
AcDbSpline
 70
8
 71
3
 72
8
 73
4
 74
0
 40
0
 40
0
 40
0
 40
0
 40
1
 40
1
 40
1
 40
1
 10
-49.819411
 20
84.879739
 30
0.0
 10
-50.450121
 20
85.145657
 30
0.0
 10
-51.462932
 20
85.363231
 30
0.0
 10
-52.070113
 20
85.363231
 30
0.0
  0
SPLINE
  5
29f
100
AcDbEntity
  8
outline
 62
7
100
AcDbSpline
 70
8
 71
3
 72
8
 73
4
 74
0
 40
0
 40
0
 40
0
 40
0
 40
1
 40
1
 40
1
 40
1
 10
-52.070113
 20
85.363231
 30
0.0
 10
-52.677295
 20
85.363231
 30
0.0
 10
-53.484265
 20
85.197220
 30
0.0
 10
-53.863375
 20
84.994328
 30
0.0
  0
SPLINE
  5
2a0
100
AcDbEntity
  8
outline
 62
7
100
AcDbSpline
 70
8
 71
3
 72
8
 73
4
 74
0
 40
0
 40
0
 40
0
 40
0
 40
1
 40
1
 40
1
 40
1
 10
-53.863375
 20
84.994328
 30
0.0
 10
-54.242490
 20
84.791432
 30
0.0
 10
-54.552677
 20
84.285508
 30
0.0
 10
-54.552677
 20
83.870058
 30
0.0
  0
SPLINE
  5
2a1
100
AcDbEntity
  8
outline
 62
7
100
AcDbSpline
 70
8
 71
3
 72
8
 73
4
 74
0
 40
0
 40
0
 40
0
 40
0
 40
1
 40
1
 40
1
 40
1
 10
-54.552677
 20
83.870058
 30
0.0
 10
-54.552677
 20
83.454603
 30
0.0
 10
-53.924523
 20
82.517138
 30
0.0
 10
-53.156781
 20
81.786806
 30
0.0
  0
SPLINE
  5
2a2
100
AcDbEntity
  8
outline
 62
7
100
AcDbSpline
 70
8
 71
3
 72
8
 73
4
 74
0
 40
0
 40
0
 40
0
 40
0
 40
1
 40
1
 40
1
 40
1
 10
-53.156781
 20
81.786806
 30
0.0
 10
-52.389038
 20
81.056461
 30
0.0
 10
-51.146218
 20
80.292476
 30
0.0
 10
-50.394958
 20
80.089047
 30
0.0
  0
SPLINE
  5
2a3
100
AcDbEntity
  8
outline
 62
7
100
AcDbSpline
 70
8
 71
3
 72
8
 73
4
 74
0
 40
0
 40
0
 40
0
 40
0
 40
1
 40
1
 40
1
 40
1
 10
-50.394958
 20
80.089047
 30
0.0
 10
-49.643703
 20
79.885615
 30
0.0
 10
-48.239827
 20
79.746262
 30
0.0
 10
-47.275233
 20
79.779382
 30
0.0
  0
SPLINE
  5
2a4
100
AcDbEntity
  8
outline
 62
7
100
AcDbSpline
 70
8
 71
3
 72
8
 73
4
 74
0
 40
0
 40
0
 40
0
 40
0
 40
1
 40
1
 40
1
 40
1
 10
-47.275233
 20
79.779382
 30
0.0
 10
-46.262265
 20
79.814169
 30
0.0
 10
-45.461131
 20
80.022623
 30
0.0
 10
-45.378679
 20
80.272890
 30
0.0
  0
LWPOLYLINE
  5
2a5
100
AcDbEntity
  8
outline
 62
7
100
AcDbPolyline
 90
1
 70
1
 10
-77.415628
 20
83.424933
 30
0.0
  0
SPLINE
  5
2a6
100
AcDbEntity
  8
outline
 62
7
100
AcDbSpline
 70
8
 71
3
 72
8
 73
4
 74
0
 40
0
 40
0
 40
0
 40
0
 40
1
 40
1
 40
1
 40
1
 10
-91.683684
 20
80.516543
 30
0.0
 10
-91.104329
 20
80.816143
 30
0.0
 10
-90.210298
 20
81.560418
 30
0.0
 10
-89.696950
 20
82.170494
 30
0.0
  0
SPLINE
  5
2a7
100
AcDbEntity
  8
outline
 62
7
100
AcDbSpline
 70
8
 71
3
 72
8
 73
4
 74
0
 40
0
 40
0
 40
0
 40
0
 40
1
 40
1
 40
1
 40
1
 10
-89.696950
 20
82.170494
 30
0.0
 10
-89.183607
 20
82.780576
 30
0.0
 10
-88.763595
 20
83.556077
 30
0.0
 10
-88.763595
 20
83.893845
 30
0.0
  0
SPLINE
  5
2a8
100
AcDbEntity
  8
outline
 62
7
100
AcDbSpline
 70
8
 71
3
 72
8
 73
4
 74
0
 40
0
 40
0
 40
0
 40
0
 40
1
 40
1
 40
1
 40
1
 10
-88.763595
 20
83.893845
 30
0.0
 10
-88.763595
 20
84.231608
 30
0.0
 10
-88.956028
 20
84.700394
 30
0.0
 10
-89.191231
 20
84.935595
 30
0.0
  0
SPLINE
  5
2a9
100
AcDbEntity
  8
outline
 62
7
100
AcDbSpline
 70
8
 71
3
 72
8
 73
4
 74
0
 40
0
 40
0
 40
0
 40
0
 40
1
 40
1
 40
1
 40
1
 10
-89.191231
 20
84.935595
 30
0.0
 10
-89.426432
 20
85.170795
 30
0.0
 10
-90.236211
 20
85.363231
 30
0.0
 10
-90.990743
 20
85.363231
 30
0.0
  0
SPLINE
  5
2aa
100
AcDbEntity
  8
outline
 62
7
100
AcDbSpline
 70
8
 71
3
 72
8
 73
4
 74
0
 40
0
 40
0
 40
0
 40
0
 40
1
 40
1
 40
1
 40
1
 10
-90.990743
 20
85.363231
 30
0.0
 10
-91.745278
 20
85.363231
 30
0.0
 10
-92.875843
 20
85.104730
 30
0.0
 10
-93.503109
 20
84.788787
 30
0.0
  0
SPLINE
  5
2ab
100
AcDbEntity
  8
outline
 62
7
100
AcDbSpline
 70
8
 71
3
 72
8
 73
4
 74
0
 40
0
 40
0
 40
0
 40
0
 40
1
 40
1
 40
1
 40
1
 10
-93.503109
 20
84.788787
 30
0.0
 10
-94.130377
 20
84.472839
 30
0.0
 10
-95.178460
 20
83.711116
 30
0.0
 10
-95.832183
 20
83.096063
 30
0.0
  0
SPLINE
  5
2ac
100
AcDbEntity
  8
outline
 62
7
100
AcDbSpline
 70
8
 71
3
 72
8
 73
4
 74
0
 40
0
 40
0
 40
0
 40
0
 40
1
 40
1
 40
1
 40
1
 10
-95.832183
 20
83.096063
 30
0.0
 10
-96.485905
 20
82.481004
 30
0.0
 10
-97.241236
 20
81.557107
 30
0.0
 10
-97.510699
 20
81.042951
 30
0.0
  0
SPLINE
  5
2ad
100
AcDbEntity
  8
outline
 62
7
100
AcDbSpline
 70
8
 71
3
 72
8
 73
4
 74
0
 40
0
 40
0
 40
0
 40
0
 40
1
 40
1
 40
1
 40
1
 10
-97.510699
 20
81.042951
 30
0.0
 10
-97.780157
 20
80.528808
 30
0.0
 10
-97.886750
 20
79.989911
 30
0.0
 10
-97.747563
 20
79.845418
 30
0.0
  0
SPLINE
  5
2ae
100
AcDbEntity
  8
outline
 62
7
100
AcDbSpline
 70
8
 71
3
 72
8
 73
4
 74
0
 40
0
 40
0
 40
0
 40
0
 40
1
 40
1
 40
1
 40
1
 10
-97.747563
 20
79.845418
 30
0.0
 10
-97.608383
 20
79.700923
 30
0.0
 10
-96.424081
 20
79.670258
 30
0.0
 10
-95.115784
 20
79.777260
 30
0.0
  0
SPLINE
  5
2af
100
AcDbEntity
  8
outline
 62
7
100
AcDbSpline
 70
8
 71
3
 72
8
 73
4
 74
0
 40
0
 40
0
 40
0
 40
0
 40
1
 40
1
 40
1
 40
1
 10
-95.115784
 20
79.777260
 30
0.0
 10
-93.807483
 20
79.884264
 30
0.0
 10
-92.263040
 20
80.216947
 30
0.0
 10
-91.683684
 20
80.516543
 30
0.0
  0
LWPOLYLINE
  5
2b0
100
AcDbEntity
  8
outline
 62
7
100
AcDbPolyline
 90
1
 70
1
 10
-45.378679
 20
80.272890
 30
0.0
  0
SPLINE
  5
2b1
100
AcDbEntity
  8
outline
 62
7
100
AcDbSpline
 70
8
 71
3
 72
8
 73
4
 74
0
 40
0
 40
0
 40
0
 40
0
 40
1
 40
1
 40
1
 40
1
 10
-61.062968
 20
77.523229
 30
0.0
 10
-61.014365
 20
77.817222
 30
0.0
 10
-61.529798
 20
78.811272
 30
0.0
 10
-62.208373
 20
79.732212
 30
0.0
  0
LWPOLYLINE
  5
2b2
100
AcDbEntity
  8
outline
 62
7
100
AcDbPolyline
 90
1
 70
1
 10
-91.683684
 20
80.516543
 30
0.0
  0
SPLINE
  5
2b3
100
AcDbEntity
  8
outline
 62
7
100
AcDbSpline
 70
8
 71
3
 72
8
 73
4
 74
0
 40
0
 40
0
 40
0
 40
0
 40
1
 40
1
 40
1
 40
1
 10
-65.055596
 20
80.856898
 30
0.0
 10
-65.942995
 20
80.554527
 30
0.0
 10
-66.669044
 20
80.103292
 30
0.0
 10
-66.669044
 20
79.854150
 30
0.0
  0
SPLINE
  5
2b4
100
AcDbEntity
  8
outline
 62
7
100
AcDbSpline
 70
8
 71
3
 72
8
 73
4
 74
0
 40
0
 40
0
 40
0
 40
0
 40
1
 40
1
 40
1
 40
1
 10
-66.669044
 20
79.854150
 30
0.0
 10
-66.669044
 20
79.605008
 30
0.0
 10
-66.326171
 20
78.965268
 30
0.0
 10
-65.907094
 20
78.432502
 30
0.0
  0
SPLINE
  5
2b5
100
AcDbEntity
  8
outline
 62
7
100
AcDbSpline
 70
8
 71
3
 72
8
 73
4
 74
0
 40
0
 40
0
 40
0
 40
0
 40
1
 40
1
 40
1
 40
1
 10
-65.907094
 20
78.432502
 30
0.0
 10
-65.488029
 20
77.899737
 30
0.0
 10
-64.806481
 20
77.323155
 30
0.0
 10
-64.392550
 20
77.151198
 30
0.0
  0
SPLINE
  5
2b6
100
AcDbEntity
  8
outline
 62
7
100
AcDbSpline
 70
8
 71
3
 72
8
 73
4
 74
0
 40
0
 40
0
 40
0
 40
0
 40
1
 40
1
 40
1
 40
1
 10
-64.392550
 20
77.151198
 30
0.0
 10
-63.978622
 20
76.979248
 30
0.0
 10
-63.080013
 20
76.872330
 30
0.0
 10
-62.395643
 20
76.913617
 30
0.0
  0
SPLINE
  5
2b7
100
AcDbEntity
  8
outline
 62
7
100
AcDbSpline
 70
8
 71
3
 72
8
 73
4
 74
0
 40
0
 40
0
 40
0
 40
0
 40
1
 40
1
 40
1
 40
1
 10
-62.395643
 20
76.913617
 30
0.0
 10
-61.608500
 20
76.961104
 30
0.0
 10
-61.118868
 20
77.185074
 30
0.0
 10
-61.062968
 20
77.523229
 30
0.0
  0
LWPOLYLINE
  5
2b8
100
AcDbEntity
  8
outline
 62
7
100
AcDbPolyline
 90
3
 70
0
 10
-62.208373
 20
79.732212
 30
0.0
 10
-63.442156
 20
81.406651
 30
0.0
 10
-65.055596
 20
80.856898
 30
0.0
  0
SPLINE
  5
2b9
100
AcDbEntity
  8
outline
 62
7
100
AcDbSpline
 70
8
 71
3
 72
8
 73
4
 74
0
 40
0
 40
0
 40
0
 40
0
 40
1
 40
1
 40
1
 40
1
 10
-78.862103
 20
77.193528
 30
0.0
 10
-78.257788
 20
77.404195
 30
0.0
 10
-77.512220
 20
77.959823
 30
0.0
 10
-77.205287
 20
78.428260
 30
0.0
  0
SPLINE
  5
2ba
100
AcDbEntity
  8
outline
 62
7
100
AcDbSpline
 70
8
 71
3
 72
8
 73
4
 74
0
 40
0
 40
0
 40
0
 40
0
 40
1
 40
1
 40
1
 40
1
 10
-77.205287
 20
78.428260
 30
0.0
 10
-76.898357
 20
78.896707
 30
0.0
 10
-76.647231
 20
79.510464
 30
0.0
 10
-76.647231
 20
79.792190
 30
0.0
  0
SPLINE
  5
2bb
100
AcDbEntity
  8
outline
 62
7
100
AcDbSpline
 70
8
 71
3
 72
8
 73
4
 74
0
 40
0
 40
0
 40
0
 40
0
 40
1
 40
1
 40
1
 40
1
 10
-76.647231
 20
79.792190
 30
0.0
 10
-76.647231
 20
80.073913
 30
0.0
 10
-77.152250
 20
80.480466
 30
0.0
 10
-77.769498
 20
80.695635
 30
0.0
  0
SPLINE
  5
2bc
100
AcDbEntity
  8
outline
 62
7
100
AcDbSpline
 70
8
 71
3
 72
8
 73
4
 74
0
 40
0
 40
0
 40
0
 40
0
 40
1
 40
1
 40
1
 40
1
 10
-77.769498
 20
80.695635
 30
0.0
 10
-78.386748
 20
80.910811
 30
0.0
 10
-79.188269
 20
81.086860
 30
0.0
 10
-79.550661
 20
81.086860
 30
0.0
  0
SPLINE
  5
2bd
100
AcDbEntity
  8
outline
 62
7
100
AcDbSpline
 70
8
 71
3
 72
8
 73
4
 74
0
 40
0
 40
0
 40
0
 40
0
 40
1
 40
1
 40
1
 40
1
 10
-79.550661
 20
81.086860
 30
0.0
 10
-79.950731
 20
81.086860
 30
0.0
 10
-80.621044
 20
80.425751
 30
0.0
 10
-81.257076
 20
79.403872
 30
0.0
  0
SPLINE
  5
2be
100
AcDbEntity
  8
outline
 62
7
100
AcDbSpline
 70
8
 71
3
 72
8
 73
4
 74
0
 40
0
 40
0
 40
0
 40
0
 40
1
 40
1
 40
1
 40
1
 10
-81.257076
 20
79.403872
 30
0.0
 10
-82.025702
 20
78.168967
 30
0.0
 10
-82.204019
 20
77.599686
 30
0.0
 10
-81.926824
 20
77.265691
 30
0.0
  0
SPLINE
  5
2bf
100
AcDbEntity
  8
outline
 62
7
100
AcDbSpline
 70
8
 71
3
 72
8
 73
4
 74
0
 40
0
 40
0
 40
0
 40
0
 40
1
 40
1
 40
1
 40
1
 10
-81.926824
 20
77.265691
 30
0.0
 10
-81.719048
 20
77.015334
 30
0.0
 10
-81.191705
 20
76.810499
 30
0.0
 10
-80.754952
 20
76.810499
 30
0.0
  0
SPLINE
  5
2c0
100
AcDbEntity
  8
outline
 62
7
100
AcDbSpline
 70
8
 71
3
 72
8
 73
4
 74
0
 40
0
 40
0
 40
0
 40
0
 40
1
 40
1
 40
1
 40
1
 10
-80.754952
 20
76.810499
 30
0.0
 10
-80.318199
 20
76.810499
 30
0.0
 10
-79.466418
 20
76.982861
 30
0.0
 10
-78.862103
 20
77.193528
 30
0.0
  0
LWPOLYLINE
  5
2c1
100
AcDbEntity
  8
outline
 62
7
100
AcDbPolyline
 90
1
 70
1
 10
-61.062968
 20
77.523229
 30
0.0
  0
SPLINE
  5
2c2
100
AcDbEntity
  8
outline
 62
7
100
AcDbSpline
 70
8
 71
3
 72
8
 73
4
 74
0
 40
0
 40
0
 40
0
 40
0
 40
1
 40
1
 40
1
 40
1
 10
-52.199633
 20
76.599401
 30
0.0
 10
-52.093764
 20
76.875299
 30
0.0
 10
-52.602501
 20
77.997712
 30
0.0
 10
-53.330168
 20
79.093652
 30
0.0
  0
SPLINE
  5
2c3
100
AcDbEntity
  8
outline
 62
7
100
AcDbSpline
 70
8
 71
3
 72
8
 73
4
 74
0
 40
0
 40
0
 40
0
 40
0
 40
1
 40
1
 40
1
 40
1
 10
-53.330168
 20
79.093652
 30
0.0
 10
-54.057835
 20
80.189604
 30
0.0
 10
-55.379711
 20
81.567498
 30
0.0
 10
-56.267671
 20
82.155663
 30
0.0
  0
SPLINE
  5
2c4
100
AcDbEntity
  8
outline
 62
7
100
AcDbSpline
 70
8
 71
3
 72
8
 73
4
 74
0
 40
0
 40
0
 40
0
 40
0
 40
1
 40
1
 40
1
 40
1
 10
-56.267671
 20
82.155663
 30
0.0
 10
-57.155630
 20
82.743823
 30
0.0
 10
-58.242443
 20
83.225051
 30
0.0
 10
-58.682811
 20
83.225051
 30
0.0
  0
SPLINE
  5
2c5
100
AcDbEntity
  8
outline
 62
7
100
AcDbSpline
 70
8
 71
3
 72
8
 73
4
 74
0
 40
0
 40
0
 40
0
 40
0
 40
1
 40
1
 40
1
 40
1
 10
-58.682811
 20
83.225051
 30
0.0
 10
-59.123179
 20
83.225051
 30
0.0
 10
-59.737139
 20
83.127711
 30
0.0
 10
-60.047171
 20
83.008737
 30
0.0
  0
SPLINE
  5
2c6
100
AcDbEntity
  8
outline
 62
7
100
AcDbSpline
 70
8
 71
3
 72
8
 73
4
 74
0
 40
0
 40
0
 40
0
 40
0
 40
1
 40
1
 40
1
 40
1
 10
-60.047171
 20
83.008737
 30
0.0
 10
-60.404380
 20
82.871664
 30
0.0
 10
-60.610861
 20
82.359533
 30
0.0
 10
-60.610861
 20
81.610631
 30
0.0
  0
SPLINE
  5
2c7
100
AcDbEntity
  8
outline
 62
7
100
AcDbSpline
 70
8
 71
3
 72
8
 73
4
 74
0
 40
0
 40
0
 40
0
 40
0
 40
1
 40
1
 40
1
 40
1
 10
-60.610861
 20
81.610631
 30
0.0
 10
-60.610861
 20
80.854853
 30
0.0
 10
-60.273533
 20
80.027930
 30
0.0
 10
-59.675123
 20
79.316761
 30
0.0
  0
SPLINE
  5
2c8
100
AcDbEntity
  8
outline
 62
7
100
AcDbSpline
 70
8
 71
3
 72
8
 73
4
 74
0
 40
0
 40
0
 40
0
 40
0
 40
1
 40
1
 40
1
 40
1
 10
-59.675123
 20
79.316761
 30
0.0
 10
-59.160467
 20
78.705123
 30
0.0
 10
-58.120595
 20
77.889015
 30
0.0
 10
-57.364294
 20
77.503183
 30
0.0
  0
SPLINE
  5
2c9
100
AcDbEntity
  8
outline
 62
7
100
AcDbSpline
 70
8
 71
3
 72
8
 73
4
 74
0
 40
0
 40
0
 40
0
 40
0
 40
1
 40
1
 40
1
 40
1
 10
-57.364294
 20
77.503183
 30
0.0
 10
-56.607997
 20
77.117344
 30
0.0
 10
-55.385351
 20
76.659394
 30
0.0
 10
-54.647300
 20
76.485511
 30
0.0
  0
SPLINE
  5
2ca
100
AcDbEntity
  8
outline
 62
7
100
AcDbSpline
 70
8
 71
3
 72
8
 73
4
 74
0
 40
0
 40
0
 40
0
 40
0
 40
1
 40
1
 40
1
 40
1
 10
-54.647300
 20
76.485511
 30
0.0
 10
-53.909259
 20
76.311633
 30
0.0
 10
-53.099918
 20
76.153261
 30
0.0
 10
-52.848767
 20
76.133566
 30
0.0
  0
SPLINE
  5
2cb
100
AcDbEntity
  8
outline
 62
7
100
AcDbSpline
 70
8
 71
3
 72
8
 73
4
 74
0
 40
0
 40
0
 40
0
 40
0
 40
1
 40
1
 40
1
 40
1
 10
-52.848767
 20
76.133566
 30
0.0
 10
-52.597615
 20
76.113832
 30
0.0
 10
-52.305504
 20
76.323501
 30
0.0
 10
-52.199633
 20
76.599401
 30
0.0
  0
LWPOLYLINE
  5
2cc
100
AcDbEntity
  8
outline
 62
7
100
AcDbPolyline
 90
1
 70
1
 10
-78.862103
 20
77.193528
 30
0.0
  0
SPLINE
  5
2cd
100
AcDbEntity
  8
outline
 62
7
100
AcDbSpline
 70
8
 71
3
 72
8
 73
4
 74
0
 40
0
 40
0
 40
0
 40
0
 40
1
 40
1
 40
1
 40
1
 10
-86.629851
 20
77.225032
 30
0.0
 10
-85.750291
 20
77.604189
 30
0.0
 10
-84.652599
 20
78.267386
 30
0.0
 10
-84.190534
 20
78.698813
 30
0.0
  0
SPLINE
  5
2ce
100
AcDbEntity
  8
outline
 62
7
100
AcDbSpline
 70
8
 71
3
 72
8
 73
4
 74
0
 40
0
 40
0
 40
0
 40
0
 40
1
 40
1
 40
1
 40
1
 10
-84.190534
 20
78.698813
 30
0.0
 10
-83.728474
 20
79.130240
 30
0.0
 10
-83.116851
 20
79.932242
 30
0.0
 10
-82.831370
 20
80.481037
 30
0.0
  0
SPLINE
  5
2cf
100
AcDbEntity
  8
outline
 62
7
100
AcDbSpline
 70
8
 71
3
 72
8
 73
4
 74
0
 40
0
 40
0
 40
0
 40
0
 40
1
 40
1
 40
1
 40
1
 10
-82.831370
 20
80.481037
 30
0.0
 10
-82.545894
 20
81.029835
 30
0.0
 10
-82.411458
 20
81.791188
 30
0.0
 10
-82.532619
 20
82.172939
 30
0.0
  0
SPLINE
  5
2d0
100
AcDbEntity
  8
outline
 62
7
100
AcDbSpline
 70
8
 71
3
 72
8
 73
4
 74
0
 40
0
 40
0
 40
0
 40
0
 40
1
 40
1
 40
1
 40
1
 10
-82.532619
 20
82.172939
 30
0.0
 10
-82.653782
 20
82.554684
 30
0.0
 10
-83.134616
 20
82.962827
 30
0.0
 10
-83.601145
 20
83.079920
 30
0.0
  0
SPLINE
  5
2d1
100
AcDbEntity
  8
outline
 62
7
100
AcDbSpline
 70
8
 71
3
 72
8
 73
4
 74
0
 40
0
 40
0
 40
0
 40
0
 40
1
 40
1
 40
1
 40
1
 10
-83.601145
 20
83.079920
 30
0.0
 10
-84.067674
 20
83.197007
 30
0.0
 10
-85.004252
 20
83.109675
 30
0.0
 10
-85.682430
 20
82.885864
 30
0.0
  0
SPLINE
  5
2d2
100
AcDbEntity
  8
outline
 62
7
100
AcDbSpline
 70
8
 71
3
 72
8
 73
4
 74
0
 40
0
 40
0
 40
0
 40
0
 40
1
 40
1
 40
1
 40
1
 10
-85.682430
 20
82.885864
 30
0.0
 10
-86.360606
 20
82.662046
 30
0.0
 10
-87.634878
 20
81.709830
 30
0.0
 10
-88.514143
 20
80.769828
 30
0.0
  0
SPLINE
  5
2d3
100
AcDbEntity
  8
outline
 62
7
100
AcDbSpline
 70
8
 71
3
 72
8
 73
4
 74
0
 40
0
 40
0
 40
0
 40
0
 40
1
 40
1
 40
1
 40
1
 10
-88.514143
 20
80.769828
 30
0.0
 10
-89.393410
 20
79.829816
 30
0.0
 10
-90.377059
 20
78.549714
 30
0.0
 10
-90.700036
 20
77.925148
 30
0.0
  0
SPLINE
  5
2d4
100
AcDbEntity
  8
outline
 62
7
100
AcDbSpline
 70
8
 71
3
 72
8
 73
4
 74
0
 40
0
 40
0
 40
0
 40
0
 40
1
 40
1
 40
1
 40
1
 10
-90.700036
 20
77.925148
 30
0.0
 10
-91.023014
 20
77.300577
 30
0.0
 10
-91.188027
 20
76.628996
 30
0.0
 10
-91.066733
 20
76.432733
 30
0.0
  0
SPLINE
  5
2d5
100
AcDbEntity
  8
outline
 62
7
100
AcDbSpline
 70
8
 71
3
 72
8
 73
4
 74
0
 40
0
 40
0
 40
0
 40
0
 40
1
 40
1
 40
1
 40
1
 10
-91.066733
 20
76.432733
 30
0.0
 10
-90.940307
 20
76.228172
 30
0.0
 10
-90.287783
 20
76.174004
 30
0.0
 10
-89.537625
 20
76.305779
 30
0.0
  0
SPLINE
  5
2d6
100
AcDbEntity
  8
outline
 62
7
100
AcDbSpline
 70
8
 71
3
 72
8
 73
4
 74
0
 40
0
 40
0
 40
0
 40
0
 40
1
 40
1
 40
1
 40
1
 10
-89.537625
 20
76.305779
 30
0.0
 10
-88.817908
 20
76.432214
 30
0.0
 10
-87.509411
 20
76.845880
 30
0.0
 10
-86.629851
 20
77.225032
 30
0.0
  0
LWPOLYLINE
  5
2d7
100
AcDbEntity
  8
outline
 62
7
100
AcDbPolyline
 90
1
 70
1
 10
-52.199633
 20
76.599401
 30
0.0
  0
SPLINE
  5
2d8
100
AcDbEntity
  8
outline
 62
7
100
AcDbSpline
 70
8
 71
3
 72
8
 73
4
 74
0
 40
0
 40
0
 40
0
 40
0
 40
1
 40
1
 40
1
 40
1
 10
-69.662231
 20
76.152063
 30
0.0
 10
-68.764757
 20
76.573932
 30
0.0
 10
-67.941000
 20
77.152217
 30
0.0
 10
-67.831661
 20
77.437157
 30
0.0
  0
SPLINE
  5
2d9
100
AcDbEntity
  8
outline
 62
7
100
AcDbSpline
 70
8
 71
3
 72
8
 73
4
 74
0
 40
0
 40
0
 40
0
 40
0
 40
1
 40
1
 40
1
 40
1
 10
-67.831661
 20
77.437157
 30
0.0
 10
-67.722321
 20
77.722092
 30
0.0
 10
-67.968014
 20
78.645068
 30
0.0
 10
-68.377643
 20
79.488212
 30
0.0
  0
SPLINE
  5
2da
100
AcDbEntity
  8
outline
 62
7
100
AcDbSpline
 70
8
 71
3
 72
8
 73
4
 74
0
 40
0
 40
0
 40
0
 40
0
 40
1
 40
1
 40
1
 40
1
 10
-68.377643
 20
79.488212
 30
0.0
 10
-68.944905
 20
80.655809
 30
0.0
 10
-69.383989
 20
81.078641
 30
0.0
 10
-70.219839
 20
81.262225
 30
0.0
  0
SPLINE
  5
2db
100
AcDbEntity
  8
outline
 62
7
100
AcDbSpline
 70
8
 71
3
 72
8
 73
4
 74
0
 40
0
 40
0
 40
0
 40
0
 40
1
 40
1
 40
1
 40
1
 10
-70.219839
 20
81.262225
 30
0.0
 10
-70.823417
 20
81.394793
 30
0.0
 10
-71.971711
 20
81.392690
 30
0.0
 10
-72.771601
 20
81.257550
 30
0.0
  0
LWPOLYLINE
  5
2dc
100
AcDbEntity
  8
outline
 62
7
100
AcDbPolyline
 90
1
 70
1
 10
-86.629851
 20
77.225032
 30
0.0
  0
SPLINE
  5
2dd
100
AcDbEntity
  8
outline
 62
7
100
AcDbSpline
 70
8
 71
3
 72
8
 73
4
 74
0
 40
0
 40
0
 40
0
 40
0
 40
1
 40
1
 40
1
 40
1
 10
-75.184137
 20
77.299696
 30
0.0
 10
-74.938789
 20
77.004064
 30
0.0
 10
-74.165335
 20
76.459413
 30
0.0
 10
-73.465362
 20
76.089364
 30
0.0
  0
SPLINE
  5
2de
100
AcDbEntity
  8
outline
 62
7
100
AcDbSpline
 70
8
 71
3
 72
8
 73
4
 74
0
 40
0
 40
0
 40
0
 40
0
 40
1
 40
1
 40
1
 40
1
 10
-73.465362
 20
76.089364
 30
0.0
 10
-72.765388
 20
75.719318
 30
0.0
 10
-71.990484
 20
75.409456
 30
0.0
 10
-71.743343
 20
75.400797
 30
0.0
  0
SPLINE
  5
2df
100
AcDbEntity
  8
outline
 62
7
100
AcDbSpline
 70
8
 71
3
 72
8
 73
4
 74
0
 40
0
 40
0
 40
0
 40
0
 40
1
 40
1
 40
1
 40
1
 10
-71.743343
 20
75.400797
 30
0.0
 10
-71.496207
 20
75.392158
 30
0.0
 10
-70.559704
 20
75.730204
 30
0.0
 10
-69.662231
 20
76.152072
 30
0.0
  0
LWPOLYLINE
  5
2e0
100
AcDbEntity
  8
outline
 62
7
100
AcDbPolyline
 90
5
 70
0
 10
-72.771601
 20
81.257550
 30
0.0
 10
-74.225948
 20
81.011837
 30
0.0
 10
-74.928090
 20
79.424526
 30
0.0
 10
-75.630236
 20
77.837217
 30
0.0
 10
-75.184137
 20
77.299696
 30
0.0
  0
LWPOLYLINE
  5
2e1
100
AcDbEntity
  8
outline
 62
7
100
AcDbPolyline
 90
1
 70
1
 10
-69.662231
 20
76.152072
 30
0.0
  0
SPLINE
  5
2e2
100
AcDbEntity
  8
outline
 62
7
100
AcDbSpline
 70
8
 71
3
 72
8
 73
4
 74
0
 40
0
 40
0
 40
0
 40
0
 40
1
 40
1
 40
1
 40
1
 10
-61.769041
 20
74.741052
 30
0.0
 10
-67.306048
 20
74.801246
 30
0.0
 10
-76.246318
 20
74.770317
 30
0.0
 10
-81.636320
 20
74.672314
 30
0.0
  0
LWPOLYLINE
  5
2e3
100
AcDbEntity
  8
outline
 62
7
100
AcDbPolyline
 90
3
 70
0
 10
-51.701768
 20
72.157417
 30
0.0
 10
-51.701768
 20
74.631603
 30
0.0
 10
-61.769041
 20
74.741052
 30
0.0
  0
LWPOLYLINE
  5
2e4
100
AcDbEntity
  8
outline
 62
7
100
AcDbPolyline
 90
7
 70
0
 10
-81.636320
 20
74.672314
 30
0.0
 10
-91.436321
 20
74.494138
 30
0.0
 10
-91.541696
 20
72.088684
 30
0.0
 10
-91.647068
 20
69.683223
 30
0.0
 10
-71.674418
 20
69.683223
 30
0.0
 10
-51.701768
 20
69.683223
 30
0.0
 10
-51.701768
 20
72.157417
 30
0.0
  0
LWPOLYLINE
  5
2e5
100
AcDbEntity
  8
outline
 62
7
100
AcDbPolyline
 90
6
 70
0
 10
8.062517
 20
135.419560
 30
0.0
 10
6.126363
 20
135.419560
 30
0.0
 10
10.043215
 20
144.381310
 30
0.0
 10
13.866060
 20
135.419560
 30
0.0
 10
13.866060
 20
135.419560
 30
0.0
 10
10.756901
 20
135.419560
 30
0.0
  0
LWPOLYLINE
  5
2e6
100
AcDbEntity
  8
outline
 62
7
100
AcDbPolyline
 90
9
 70
0
 10
11.092430
 20
133.382790
 30
0.0
 10
14.712100
 20
133.382780
 30
0.0
 10
17.156212
 20
127.617180
 30
0.0
 10
19.537662
 20
127.617180
 30
0.0
 10
10.105884
 20
149.332200
 30
0.0
 10
0.360761
 20
127.617180
 30
0.0
 10
2.742205
 20
127.617180
 30
0.0
 10
5.248990
 20
133.382780
 30
0.0
 10
7.553906
 20
133.382790
 30
0.0
  0
LWPOLYLINE
  5
2e7
100
AcDbEntity
  8
outline
 62
7
100
AcDbPolyline
 90
4
 70
1
 10
23.861857
 20
127.617170
 30
0.0
 10
23.861857
 20
148.548820
 30
0.0
 10
21.637086
 20
148.548820
 30
0.0
 10
21.637086
 20
127.617170
 30
0.0
  0
SPLINE
  5
2e8
100
AcDbEntity
  8
outline
 62
7
100
AcDbSpline
 70
8
 71
3
 72
8
 73
4
 74
0
 40
0
 40
0
 40
0
 40
0
 40
1
 40
1
 40
1
 40
1
 10
6.063694
 20
107.343640
 30
0.0
 10
9.479188
 20
107.343640
 30
0.0
 10
11.139932
 20
106.936280
 30
0.0
 10
12.832013
 20
105.588890
 30
0.0
  0
SPLINE
  5
2e9
100
AcDbEntity
  8
outline
 62
7
100
AcDbSpline
 70
8
 71
3
 72
8
 73
4
 74
0
 40
0
 40
0
 40
0
 40
0
 40
1
 40
1
 40
1
 40
1
 10
12.832013
 20
105.588890
 30
0.0
 10
14.774771
 20
104.053490
 30
0.0
 10
15.808817
 20
101.703370
 30
0.0
 10
15.808817
 20
98.914580
 30
0.0
  0
LWPOLYLINE
  5
2ea
100
AcDbEntity
  8
outline
 62
7
100
AcDbPolyline
 90
4
 70
0
 10
6.254019
 20
90.454170
 30
0.0
 10
4.590959
 20
90.454180
 30
0.0
 10
4.590959
 20
107.343640
 30
0.0
 10
6.063694
 20
107.343640
 30
0.0
  0
SPLINE
  5
2eb
100
AcDbEntity
  8
outline
 62
7
100
AcDbSpline
 70
8
 71
3
 72
8
 73
4
 74
0
 40
0
 40
0
 40
0
 40
0
 40
1
 40
1
 40
1
 40
1
 10
15.808817
 20
98.914580
 30
0.0
 10
15.808817
 20
94.302520
 30
0.0
 10
13.066072
 20
91.186520
 30
0.0
 10
8.603715
 20
90.567450
 30
0.0
  0
SPLINE
  5
2ec
100
AcDbEntity
  8
outline
 62
7
100
AcDbSpline
 70
8
 71
3
 72
8
 73
4
 74
0
 40
0
 40
0
 40
0
 40
0
 40
1
 40
1
 40
1
 40
1
 10
8.261890
 20
88.504990
 30
0.0
 10
11.024365
 20
88.669280
 30
0.0
 10
12.450299
 20
89.228880
 30
0.0
 10
14.242079
 20
90.642110
 30
0.0
  0
SPLINE
  5
2ed
100
AcDbEntity
  8
outline
 62
7
100
AcDbSpline
 70
8
 71
3
 72
8
 73
4
 74
0
 40
0
 40
0
 40
0
 40
0
 40
1
 40
1
 40
1
 40
1
 10
14.242079
 20
90.642110
 30
0.0
 10
16.717528
 20
92.647530
 30
0.0
 10
18.064923
 20
95.530330
 30
0.0
 10
18.064923
 20
98.945820
 30
0.0
  0
SPLINE
  5
2ee
100
AcDbEntity
  8
outline
 62
7
100
AcDbSpline
 70
8
 71
3
 72
8
 73
4
 74
0
 40
0
 40
0
 40
0
 40
0
 40
1
 40
1
 40
1
 40
1
 10
18.064923
 20
98.945820
 30
0.0
 10
18.064923
 20
102.361310
 30
0.0
 10
16.748864
 20
105.181460
 30
0.0
 10
14.304747
 20
107.155550
 30
0.0
  0
SPLINE
  5
2ef
100
AcDbEntity
  8
outline
 62
7
100
AcDbSpline
 70
8
 71
3
 72
8
 73
4
 74
0
 40
0
 40
0
 40
0
 40
0
 40
1
 40
1
 40
1
 40
1
 10
14.304747
 20
107.155550
 30
0.0
 10
12.267986
 20
108.784960
 30
0.0
 10
10.231224
 20
109.380320
 30
0.0
 10
6.878400
 20
109.380320
 30
0.0
  0
LWPOLYLINE
  5
2f0
100
AcDbEntity
  8
outline
 62
7
100
AcDbPolyline
 90
1
 70
1
 10
15.808817
 20
98.914580
 30
0.0
  0
SPLINE
  5
2f1
100
AcDbEntity
  8
outline
 62
7
100
AcDbSpline
 70
8
 71
3
 72
8
 73
4
 74
0
 40
0
 40
0
 40
0
 40
0
 40
1
 40
1
 40
1
 40
1
 10
24.616441
 20
90.224480
 30
0.0
 10
22.953297
 20
90.927210
 30
0.0
 10
21.856414
 20
92.677760
 30
0.0
 10
21.856414
 20
94.903640
 30
0.0
  0
SPLINE
  5
2f2
100
AcDbEntity
  8
outline
 62
7
100
AcDbSpline
 70
8
 71
3
 72
8
 73
4
 74
0
 40
0
 40
0
 40
0
 40
0
 40
1
 40
1
 40
1
 40
1
 10
21.856414
 20
94.903640
 30
0.0
 10
21.856414
 20
97.755100
 30
0.0
 10
23.736503
 20
99.854540
 30
0.0
 10
26.274620
 20
99.854540
 30
0.0
  0
SPLINE
  5
2f3
100
AcDbEntity
  8
outline
 62
7
100
AcDbSpline
 70
8
 71
3
 72
8
 73
4
 74
0
 40
0
 40
0
 40
0
 40
0
 40
1
 40
1
 40
1
 40
1
 10
26.274620
 20
99.854540
 30
0.0
 10
28.906746
 20
99.854540
 30
0.0
 10
30.755498
 20
97.817770
 30
0.0
 10
30.755498
 20
94.934980
 30
0.0
  0
LWPOLYLINE
  5
2f4
100
AcDbEntity
  8
outline
 62
7
100
AcDbPolyline
 90
4
 70
0
 10
6.878400
 20
109.380320
 30
0.0
 10
2.366188
 20
109.380320
 30
0.0
 10
2.366188
 20
88.448670
 30
0.0
 10
5.778919
 20
88.448670
 30
0.0
  0
SPLINE
  5
2f5
100
AcDbEntity
  8
outline
 62
7
100
AcDbSpline
 70
8
 71
3
 72
8
 73
4
 74
0
 40
0
 40
0
 40
0
 40
0
 40
1
 40
1
 40
1
 40
1
 10
30.755498
 20
94.934980
 30
0.0
 10
30.755498
 20
91.958170
 30
0.0
 10
28.938078
 20
89.890080
 30
0.0
 10
26.305957
 20
89.890080
 30
0.0
  0
SPLINE
  5
2f6
100
AcDbEntity
  8
outline
 62
7
100
AcDbSpline
 70
8
 71
3
 72
8
 73
4
 74
0
 40
0
 40
0
 40
0
 40
0
 40
1
 40
1
 40
1
 40
1
 10
26.305957
 20
89.890080
 30
0.0
 10
26.242887
 20
89.890080
 30
0.0
 10
26.180242
 20
89.891080
 30
0.0
 10
26.118019
 20
89.894080
 30
0.0
  0
SPLINE
  5
2f7
100
AcDbEntity
  8
outline
 62
7
100
AcDbSpline
 70
8
 71
3
 72
8
 73
4
 74
0
 40
0
 40
0
 40
0
 40
0
 40
1
 40
1
 40
1
 40
1
 10
26.388878
 20
88.058570
 30
0.0
 10
28.065715
 20
88.179200
 30
0.0
 10
29.397540
 20
88.935460
 30
0.0
 10
30.598826
 20
90.422760
 30
0.0
  0
LWPOLYLINE
  5
2f8
100
AcDbEntity
  8
outline
 62
7
100
AcDbPolyline
 90
1
 70
1
 10
30.755498
 20
94.934980
 30
0.0
  0
SPLINE
  5
2f9
100
AcDbEntity
  8
outline
 62
7
100
AcDbSpline
 70
8
 71
3
 72
8
 73
4
 74
0
 40
0
 40
0
 40
0
 40
0
 40
1
 40
1
 40
1
 40
1
 10
30.598826
 20
99.353180
 30
0.0
 10
29.251427
 20
100.982590
 30
0.0
 10
27.778691
 20
101.703300
 30
0.0
 10
25.867267
 20
101.703300
 30
0.0
  0
SPLINE
  5
2fa
100
AcDbEntity
  8
outline
 62
7
100
AcDbSpline
 70
8
 71
3
 72
8
 73
4
 74
0
 40
0
 40
0
 40
0
 40
0
 40
1
 40
1
 40
1
 40
1
 10
25.867267
 20
101.703300
 30
0.0
 10
22.326435
 20
101.703300
 30
0.0
 10
19.725646
 20
98.820490
 30
0.0
 10
19.725646
 20
94.934980
 30
0.0
  0
SPLINE
  5
2fb
100
AcDbEntity
  8
outline
 62
7
100
AcDbSpline
 70
8
 71
3
 72
8
 73
4
 74
0
 40
0
 40
0
 40
0
 40
0
 40
1
 40
1
 40
1
 40
1
 10
19.725646
 20
94.934980
 30
0.0
 10
19.725646
 20
91.636650
 30
0.0
 10
21.512267
 20
89.070190
 30
0.0
 10
24.157780
 20
88.288220
 30
0.0
  0
LWPOLYLINE
  5
2fc
100
AcDbEntity
  8
outline
 62
7
100
AcDbPolyline
 90
6
 70
0
 10
30.598826
 20
90.422760
 30
0.0
 10
30.598826
 20
88.448670
 30
0.0
 10
32.698255
 20
88.448670
 30
0.0
 10
32.698255
 20
101.358620
 30
0.0
 10
30.598826
 20
101.358620
 30
0.0
 10
30.598826
 20
99.353180
 30
0.0
  0
LWPOLYLINE
  5
2fd
100
AcDbEntity
  8
outline
 62
7
100
AcDbPolyline
 90
8
 70
1
 10
48.208967
 20
101.358620
 30
0.0
 10
45.858857
 20
101.358620
 30
0.0
 10
41.628658
 20
92.271510
 30
0.0
 10
37.053777
 20
101.358620
 30
0.0
 10
34.452989
 20
101.358620
 30
0.0
 10
40.437937
 20
89.890070
 30
0.0
 10
35.925724
 20
80.990980
 30
0.0
 10
38.307169
 20
80.990980
 30
0.0
  0
SPLINE
  5
2fe
100
AcDbEntity
  8
outline
 62
7
100
AcDbSpline
 70
8
 71
3
 72
8
 73
4
 74
0
 40
0
 40
0
 40
0
 40
0
 40
1
 40
1
 40
1
 40
1
 10
60.308019
 20
90.395080
 30
0.0
 10
58.639112
 20
91.109970
 30
0.0
 10
57.546666
 20
92.774370
 30
0.0
 10
57.546666
 20
94.872280
 30
0.0
  0
SPLINE
  5
2ff
100
AcDbEntity
  8
outline
 62
7
100
AcDbSpline
 70
8
 71
3
 72
8
 73
4
 74
0
 40
0
 40
0
 40
0
 40
0
 40
1
 40
1
 40
1
 40
1
 10
57.546666
 20
94.872280
 30
0.0
 10
57.546666
 20
97.692400
 30
0.0
 10
59.520758
 20
99.729160
 30
0.0
 10
62.215552
 20
99.729160
 30
0.0
  0
SPLINE
  5
300
100
AcDbEntity
  8
outline
 62
7
100
AcDbSpline
 70
8
 71
3
 72
8
 73
4
 74
0
 40
0
 40
0
 40
0
 40
0
 40
1
 40
1
 40
1
 40
1
 10
62.215552
 20
99.729160
 30
0.0
 10
64.910346
 20
99.729160
 30
0.0
 10
66.884439
 20
97.723740
 30
0.0
 10
66.884439
 20
94.997610
 30
0.0
  0
LWPOLYLINE
  5
301
100
AcDbEntity
  8
outline
 62
7
100
AcDbPolyline
 90
12
 70
1
 10
54.538566
 20
99.447180
 30
0.0
 10
54.538566
 20
101.358620
 30
0.0
 10
52.157121
 20
101.358620
 30
0.0
 10
52.157121
 20
106.215490
 30
0.0
 10
50.057688
 20
106.215490
 30
0.0
 10
50.057688
 20
101.358620
 30
0.0
 10
48.835632
 20
101.358620
 30
0.0
 10
48.835632
 20
99.447180
 30
0.0
 10
50.057688
 20
99.447180
 30
0.0
 10
50.057688
 20
88.448670
 30
0.0
 10
52.157121
 20
88.448670
 30
0.0
 10
52.157121
 20
99.447180
 30
0.0
  0
SPLINE
  5
302
100
AcDbEntity
  8
outline
 62
7
100
AcDbSpline
 70
8
 71
3
 72
8
 73
4
 74
0
 40
0
 40
0
 40
0
 40
0
 40
1
 40
1
 40
1
 40
1
 10
66.884439
 20
94.997610
 30
0.0
 10
66.884439
 20
92.448270
 30
0.0
 10
65.306503
 20
90.474990
 30
0.0
 10
63.046343
 20
90.085470
 30
0.0
  0
SPLINE
  5
303
100
AcDbEntity
  8
outline
 62
7
100
AcDbSpline
 70
8
 71
3
 72
8
 73
4
 74
0
 40
0
 40
0
 40
0
 40
0
 40
1
 40
1
 40
1
 40
1
 10
62.781277
 20
88.063160
 30
0.0
 10
66.360096
 20
88.341060
 30
0.0
 10
69.077872
 20
91.238640
 30
0.0
 10
69.077872
 20
94.872320
 30
0.0
  0
SPLINE
  5
304
100
AcDbEntity
  8
outline
 62
7
100
AcDbSpline
 70
8
 71
3
 72
8
 73
4
 74
0
 40
0
 40
0
 40
0
 40
0
 40
1
 40
1
 40
1
 40
1
 10
69.077872
 20
94.872320
 30
0.0
 10
69.077872
 20
98.726480
 30
0.0
 10
66.069733
 20
101.734620
 30
0.0
 10
62.215552
 20
101.734620
 30
0.0
  0
SPLINE
  5
305
100
AcDbEntity
  8
outline
 62
7
100
AcDbSpline
 70
8
 71
3
 72
8
 73
4
 74
0
 40
0
 40
0
 40
0
 40
0
 40
1
 40
1
 40
1
 40
1
 10
62.215552
 20
101.734620
 30
0.0
 10
58.392708
 20
101.734620
 30
0.0
 10
55.353229
 20
98.726480
 30
0.0
 10
55.353229
 20
94.872320
 30
0.0
  0
SPLINE
  5
306
100
AcDbEntity
  8
outline
 62
7
100
AcDbSpline
 70
8
 71
3
 72
8
 73
4
 74
0
 40
0
 40
0
 40
0
 40
0
 40
1
 40
1
 40
1
 40
1
 10
55.353229
 20
94.872320
 30
0.0
 10
55.353229
 20
91.883380
 30
0.0
 10
57.211259
 20
89.392510
 30
0.0
 10
59.849017
 20
88.448000
 30
0.0
  0
LWPOLYLINE
  5
307
100
AcDbEntity
  8
outline
 62
7
100
AcDbPolyline
 90
1
 70
1
 10
66.884439
 20
94.997610
 30
0.0
  0
SPLINE
  5
308
100
AcDbEntity
  8
outline
 62
7
100
AcDbSpline
 70
8
 71
3
 72
8
 73
4
 74
0
 40
0
 40
0
 40
0
 40
0
 40
1
 40
1
 40
1
 40
1
 10
82.363807
 20
96.470370
 30
0.0
 10
82.363807
 20
98.225130
 30
0.0
 10
82.144462
 20
99.165170
 30
0.0
 10
81.580436
 20
99.948540
 30
0.0
  0
SPLINE
  5
309
100
AcDbEntity
  8
outline
 62
7
100
AcDbSpline
 70
8
 71
3
 72
8
 73
4
 74
0
 40
0
 40
0
 40
0
 40
0
 40
1
 40
1
 40
1
 40
1
 10
81.580436
 20
99.948540
 30
0.0
 10
80.859735
 20
100.982590
 30
0.0
 10
79.387001
 20
101.671950
 30
0.0
 10
77.914263
 20
101.671950
 30
0.0
  0
SPLINE
  5
30a
100
AcDbEntity
  8
outline
 62
7
100
AcDbSpline
 70
8
 71
3
 72
8
 73
4
 74
0
 40
0
 40
0
 40
0
 40
0
 40
1
 40
1
 40
1
 40
1
 10
77.914263
 20
101.671950
 30
0.0
 10
76.316189
 20
101.671950
 30
0.0
 10
74.874788
 20
100.919930
 30
0.0
 10
73.934743
 20
99.666530
 30
0.0
  0
LWPOLYLINE
  5
30b
100
AcDbEntity
  8
outline
 62
7
100
AcDbPolyline
 90
2
 70
0
 10
82.363807
 20
88.448670
 30
0.0
 10
82.363807
 20
96.470370
 30
0.0
  0
SPLINE
  5
30c
100
AcDbEntity
  8
outline
 62
7
100
AcDbSpline
 70
8
 71
3
 72
8
 73
4
 74
0
 40
0
 40
0
 40
0
 40
0
 40
1
 40
1
 40
1
 40
1
 10
73.934743
 20
94.809630
 30
0.0
 10
73.934743
 20
98.350460
 30
0.0
 10
74.937457
 20
99.854540
 30
0.0
 10
77.318903
 20
99.854540
 30
0.0
  0
SPLINE
  5
30d
100
AcDbEntity
  8
outline
 62
7
100
AcDbSpline
 70
8
 71
3
 72
8
 73
4
 74
0
 40
0
 40
0
 40
0
 40
0
 40
1
 40
1
 40
1
 40
1
 10
77.318903
 20
99.854540
 30
0.0
 10
78.415620
 20
99.854540
 30
0.0
 10
79.418334
 20
99.415850
 30
0.0
 10
79.825687
 20
98.695150
 30
0.0
  0
SPLINE
  5
30e
100
AcDbEntity
  8
outline
 62
7
100
AcDbSpline
 70
8
 71
3
 72
8
 73
4
 74
0
 40
0
 40
0
 40
0
 40
0
 40
1
 40
1
 40
1
 40
1
 10
79.825687
 20
98.695150
 30
0.0
 10
80.139035
 20
98.162450
 30
0.0
 10
80.264373
 20
97.410420
 30
0.0
 10
80.264373
 20
96.282370
 30
0.0
  0
LWPOLYLINE
  5
30f
100
AcDbEntity
  8
outline
 62
7
100
AcDbPolyline
 90
6
 70
0
 10
73.934743
 20
99.666530
 30
0.0
 10
73.934743
 20
101.358620
 30
0.0
 10
71.835312
 20
101.358620
 30
0.0
 10
71.835312
 20
88.448670
 30
0.0
 10
73.934743
 20
88.448670
 30
0.0
 10
73.934743
 20
94.809630
 30
0.0
  0
LWPOLYLINE
  5
310
100
AcDbEntity
  8
outline
 62
7
100
AcDbPolyline
 90
3
 70
0
 10
80.264373
 20
96.282370
 30
0.0
 10
80.264373
 20
88.448670
 30
0.0
 10
82.363807
 20
88.448670
 30
0.0
  0
LWPOLYLINE
  5
311
100
AcDbEntity
  8
outline
 62
7
100
AcDbPolyline
 90
9
 70
0
 10
36.724267
 20
133.382790
 30
0.0
 10
40.343937
 20
133.382780
 30
0.0
 10
42.788050
 20
127.617170
 30
0.0
 10
45.169501
 20
127.617170
 30
0.0
 10
35.737721
 20
149.332190
 30
0.0
 10
25.992598
 20
127.617170
 30
0.0
 10
28.374042
 20
127.617170
 30
0.0
 10
30.880827
 20
133.382780
 30
0.0
 10
33.185744
 20
133.382790
 30
0.0
  0
LWPOLYLINE
  5
312
100
AcDbEntity
  8
outline
 62
7
100
AcDbPolyline
 90
6
 70
0
 10
33.694353
 20
135.419550
 30
0.0
 10
31.758198
 20
135.419550
 30
0.0
 10
35.675050
 20
144.381300
 30
0.0
 10
39.497895
 20
135.419550
 30
0.0
 10
39.497895
 20
135.419550
 30
0.0
 10
36.388736
 20
135.419550
 30
0.0
  0
LWPOLYLINE
  5
313
100
AcDbEntity
  8
outline
 62
7
100
AcDbPolyline
 90
3
 70
0
 10
8.062517
 20
135.419560
 30
0.0
 10
8.442448
 20
133.333380
 30
0.0
 10
7.553907
 20
133.382680
 30
0.0
  0
LWPOLYLINE
  5
314
100
AcDbEntity
  8
outline
 62
7
100
AcDbPolyline
 90
3
 70
0
 10
10.756900
 20
135.419560
 30
0.0
 10
9.868575
 20
133.290160
 30
0.0
 10
11.092429
 20
133.382860
 30
0.0
  0
LWPOLYLINE
  5
315
100
AcDbEntity
  8
outline
 62
7
100
AcDbPolyline
 90
3
 70
0
 10
36.388739
 20
135.419560
 30
0.0
 10
35.500413
 20
133.290160
 30
0.0
 10
36.724267
 20
133.382860
 30
0.0
  0
LWPOLYLINE
  5
316
100
AcDbEntity
  8
outline
 62
7
100
AcDbPolyline
 90
3
 70
0
 10
33.694353
 20
135.419550
 30
0.0
 10
34.074283
 20
133.333370
 30
0.0
 10
33.185741
 20
133.382670
 30
0.0
  0
LWPOLYLINE
  5
317
100
AcDbEntity
  8
outline
 62
7
100
AcDbPolyline
 90
2
 70
0
 10
6.254019
 20
90.454180
 30
0.0
 10
5.778920
 20
88.448670
 30
0.0
  0
LWPOLYLINE
  5
318
100
AcDbEntity
  8
outline
 62
7
100
AcDbPolyline
 90
2
 70
0
 10
8.603713
 20
90.567450
 30
0.0
 10
8.261890
 20
88.504990
 30
0.0
  0
LWPOLYLINE
  5
319
100
AcDbEntity
  8
outline
 62
7
100
AcDbPolyline
 90
2
 70
0
 10
24.157779
 20
88.288220
 30
0.0
 10
24.616440
 20
90.224480
 30
0.0
  0
LWPOLYLINE
  5
31a
100
AcDbEntity
  8
outline
 62
7
100
AcDbPolyline
 90
2
 70
0
 10
26.118019
 20
89.893870
 30
0.0
 10
26.388878
 20
88.058570
 30
0.0
  0
LWPOLYLINE
  5
31b
100
AcDbEntity
  8
outline
 62
7
100
AcDbPolyline
 90
2
 70
0
 10
59.849018
 20
88.448000
 30
0.0
 10
60.308019
 20
90.395080
 30
0.0
  0
LWPOLYLINE
  5
31c
100
AcDbEntity
  8
outline
 62
7
100
AcDbPolyline
 90
2
 70
0
 10
62.781277
 20
88.063160
 30
0.0
 10
63.046343
 20
90.085470
 30
0.0
  0
LWPOLYLINE
  5
31d
100
AcDbEntity
  8
outline
 62
7
100
AcDbPolyline
 90
4
 70
0
 10
-47.667023
 20
180.673000
 30
0.0
 10
-47.842643
 20
174.195120
 30
0.0
 10
-45.389175
 20
174.195120
 30
0.0
 10
-45.453065
 20
174.795200
 30
0.0
  0
LWPOLYLINE
  5
31e
100
AcDbEntity
  8
outline
 62
7
100
AcDbPolyline
 90
2
 70
0
 10
28.399028
 20
177.338700
 30
0.0
 10
29.293404
 20
177.317900
 30
0.0
  0
LWPOLYLINE
  5
31f
100
AcDbEntity
  8
outline
 62
7
100
AcDbPolyline
 90
2
 70
0
 10
40.137744
 20
177.317930
 30
0.0
 10
41.416615
 20
176.992400
 30
0.0
  0
LWPOLYLINE
  5
320
100
AcDbEntity
  8
outline
 62
7
100
AcDbPolyline
 90
5
 70
1
 10
-3.929184
 20
214.699998
 30
0.0
 10
-3.556714
 20
214.699998
 30
0.0
 10
-3.556714
 20
212.079406
 30
0.0
 10
-3.929184
 20
212.079406
 30
0.0
 10
-3.929184
 20
214.699998
 30
0.0
  0
LWPOLYLINE
  5
321
100
AcDbEntity
  8
outline
 62
7
100
AcDbPolyline
 90
5
 70
1
 10
-3.321879
 20
214.699998
 30
0.0
 10
-2.949409
 20
214.699998
 30
0.0
 10
-2.949409
 20
212.079406
 30
0.0
 10
-3.321879
 20
212.079406
 30
0.0
 10
-3.321879
 20
214.699998
 30
0.0
  0
LWPOLYLINE
  5
322
100
AcDbEntity
  8
outline
 62
7
100
AcDbPolyline
 90
5
 70
0
 10
-1.084061
 20
177.735693
 30
0.0
 10
-1.084061
 20
216.844255
 30
0.0
 10
-1.419016
 20
216.844255
 30
0.0
 10
-1.419016
 20
220.500146
 30
0.0
 10
-6.672502
 20
220.497347
 30
0.0
  0
LWPOLYLINE
  5
323
100
AcDbEntity
  8
outline
 62
7
100
AcDbPolyline
 90
5
 70
1
 10
-5.789281
 20
214.713137
 30
0.0
 10
-5.416811
 20
214.713137
 30
0.0
 10
-5.416811
 20
212.092545
 30
0.0
 10
-5.789281
 20
212.092545
 30
0.0
 10
-5.789281
 20
214.713137
 30
0.0
  0
LWPOLYLINE
  5
324
100
AcDbEntity
  8
outline
 62
7
100
AcDbPolyline
 90
5
 70
1
 10
-5.181978
 20
214.713137
 30
0.0
 10
-4.809508
 20
214.713137
 30
0.0
 10
-4.809508
 20
212.092545
 30
0.0
 10
-5.181978
 20
212.092545
 30
0.0
 10
-5.181978
 20
214.713137
 30
0.0
  0
LWPOLYLINE
  5
325
100
AcDbEntity
  8
outline
 62
7
100
AcDbPolyline
 90
5
 70
1
 10
-9.415819
 20
214.699998
 30
0.0
 10
-9.788289
 20
214.699998
 30
0.0
 10
-9.788289
 20
212.079406
 30
0.0
 10
-9.415819
 20
212.079406
 30
0.0
 10
-9.415819
 20
214.699998
 30
0.0
  0
LWPOLYLINE
  5
326
100
AcDbEntity
  8
outline
 62
7
100
AcDbPolyline
 90
5
 70
1
 10
-10.023125
 20
214.699998
 30
0.0
 10
-10.395595
 20
214.699998
 30
0.0
 10
-10.395595
 20
212.079406
 30
0.0
 10
-10.023125
 20
212.079406
 30
0.0
 10
-10.023125
 20
214.699998
 30
0.0
  0
LWPOLYLINE
  5
327
100
AcDbEntity
  8
outline
 62
7
100
AcDbPolyline
 90
2
 70
0
 10
-11.034042
 20
220.499670
 30
0.0
 10
-6.672502
 20
220.497347
 30
0.0
  0
LWPOLYLINE
  5
328
100
AcDbEntity
  8
outline
 62
7
100
AcDbPolyline
 90
5
 70
1
 10
-7.555721
 20
214.713137
 30
0.0
 10
-7.928191
 20
214.713137
 30
0.0
 10
-7.928191
 20
212.092545
 30
0.0
 10
-7.555721
 20
212.092545
 30
0.0
 10
-7.555721
 20
214.713137
 30
0.0
  0
LWPOLYLINE
  5
329
100
AcDbEntity
  8
outline
 62
7
100
AcDbPolyline
 90
5
 70
1
 10
-8.163025
 20
214.713137
 30
0.0
 10
-8.535495
 20
214.713137
 30
0.0
 10
-8.535495
 20
212.092545
 30
0.0
 10
-8.163025
 20
212.092545
 30
0.0
 10
-8.163025
 20
214.713137
 30
0.0
  0
LWPOLYLINE
  5
32a
100
AcDbEntity
  8
outline
 62
7
100
AcDbPolyline
 90
3
 70
0
 10
-0.440204
 20
184.535900
 30
0.0
 10
-0.440204
 20
177.819312
 30
0.0
 10
-1.084061
 20
177.735611
 30
0.0
  0
LWPOLYLINE
  5
32b
100
AcDbEntity
  8
outline
 62
7
100
AcDbPolyline
 90
4
 70
0
 10
-14.200123
 20
215.085718
 30
0.0
 10
-15.069082
 20
215.085718
 30
0.0
 10
-15.069082
 20
217.333581
 30
0.0
 10
-19.418200
 20
217.333581
 30
0.0
  0
LWPOLYLINE
  5
32c
100
AcDbEntity
  8
outline
 62
7
100
AcDbPolyline
 90
8
 70
0
 10
-25.770470
 20
174.151153
 30
0.0
 10
-25.770470
 20
215.469970
 30
0.0
 10
-25.195271
 20
215.469970
 30
0.0
 10
-25.195271
 20
215.085718
 30
0.0
 10
-24.042519
 20
215.085718
 30
0.0
 10
-24.042519
 20
217.333581
 30
0.0
 10
-19.693401
 20
217.333581
 30
0.0
 10
-19.418200
 20
217.333581
 30
0.0
  0
SPLINE
  5
32d
100
AcDbEntity
  8
outline
 62
7
100
AcDbSpline
 70
8
 71
3
 72
8
 73
4
 74
0
 40
0
 40
0
 40
0
 40
0
 40
1
 40
1
 40
1
 40
1
 10
-26.903341
 20
178.378961
 30
0.0
 10
-26.924561
 20
178.484951
 30
0.0
 10
-26.945733
 20
179.311843
 30
0.0
 10
-26.945733
 20
179.311843
 30
0.0
  0
LWPOLYLINE
  5
32e
100
AcDbEntity
  8
outline
 62
7
100
AcDbPolyline
 90
8
 70
0
 10
-25.770470
 20
174.151153
 30
0.0
 10
-26.203656
 20
174.138551
 30
0.0
 10
-26.118846
 20
174.732212
 30
0.0
 10
-26.860918
 20
175.304662
 30
0.0
 10
-26.818526
 20
177.043220
 30
0.0
 10
-26.500500
 20
177.043220
 30
0.0
 10
-26.585309
 20
177.997311
 30
0.0
 10
-26.903341
 20
178.378961
 30
0.0
  0
LWPOLYLINE
  5
32f
100
AcDbEntity
  8
outline
 62
7
100
AcDbPolyline
 90
28
 70
0
 10
-26.945733
 20
179.311843
 30
0.0
 10
-26.648907
 20
179.566261
 30
0.0
 10
-26.627687
 20
180.711171
 30
0.0
 10
-26.924513
 20
181.114020
 30
0.0
 10
-27.412159
 20
181.304832
 30
0.0
 10
-27.390939
 20
181.495653
 30
0.0
 10
-27.094108
 20
181.771272
 30
0.0
 10
-27.412135
 20
182.004502
 30
0.0
 10
-27.560550
 20
182.195311
 30
0.0
 10
-27.984593
 20
182.258912
 30
0.0
 10
-28.048204
 20
181.940883
 30
0.0
 10
-28.260227
 20
181.877282
 30
0.0
 10
-28.302616
 20
181.665261
 30
0.0
 10
-28.048193
 20
181.559272
 30
0.0
 10
-28.005802
 20
181.071621
 30
0.0
 10
-28.387437
 20
180.647592
 30
0.0
 10
-28.429825
 20
179.693501
 30
0.0
 10
-28.620646
 20
178.781811
 30
0.0
 10
-28.281410
 20
178.569792
 30
0.0
 10
-28.281410
 20
178.357771
 30
0.0
 10
-28.620646
 20
177.891332
 30
0.0
 10
-28.981079
 20
177.382472
 30
0.0
 10
-28.981079
 20
177.106853
 30
0.0
 10
-28.451029
 20
176.894832
 30
0.0
 10
-28.387418
 20
175.304680
 30
0.0
 10
-29.044683
 20
175.113860
 30
0.0
 10
-29.341513
 20
174.711032
 30
0.0
 10
-29.489924
 20
174.711032
 30
0.0
  0
LWPOLYLINE
  5
330
100
AcDbEntity
  8
outline
 62
7
100
AcDbPolyline
 90
14
 70
0
 10
-29.690388
 20
174.795241
 30
0.0
 10
-29.690388
 20
181.111523
 30
0.0
 10
-29.267171
 20
181.111523
 30
0.0
 10
-29.402034
 20
181.614821
 30
0.0
 10
-29.783442
 20
181.716971
 30
0.0
 10
-29.746252
 20
182.269321
 30
0.0
 10
-29.339008
 20
182.373180
 30
0.0
 10
-29.339008
 20
182.604773
 30
0.0
 10
-29.666406
 20
182.772460
 30
0.0
 10
-29.666406
 20
183.786571
 30
0.0
 10
-28.971692
 20
183.834572
 30
0.0
 10
-28.716165
 20
184.153982
 30
0.0
 10
-28.588403
 20
184.353602
 30
0.0
 10
-37.571725
 20
186.693262
 30
0.0
  0
LWPOLYLINE
  5
331
100
AcDbEntity
  8
outline
 62
7
100
AcDbPolyline
 90
10
 70
1
 10
-30.958671
 20
174.729640
 30
0.0
 10
-31.055590
 20
180.912881
 30
0.0
 10
-31.191274
 20
181.552533
 30
0.0
 10
-30.919912
 20
181.862651
 30
0.0
 10
-30.396563
 20
181.843252
 30
0.0
 10
-30.687309
 20
181.513721
 30
0.0
 10
-30.745469
 20
181.203600
 30
0.0
 10
-30.396569
 20
181.126001
 30
0.0
 10
-30.512869
 20
174.884631
 30
0.0
 10
-30.958671
 20
174.729640
 30
0.0
  0
LWPOLYLINE
  5
332
100
AcDbEntity
  8
outline
 62
7
100
AcDbPolyline
 90
2
 70
0
 10
-29.690388
 20
174.795201
 30
0.0
 10
-29.489924
 20
174.711000
 30
0.0
  0
LWPOLYLINE
  5
333
100
AcDbEntity
  8
outline
 62
7
100
AcDbPolyline
 90
2
 70
0
 10
-113.993130
 20
173.656370
 30
0.0
 10
-113.947730
 20
171.949170
 30
0.0
  0
LWPOLYLINE
  5
334
100
AcDbEntity
  8
outline
 62
7
100
AcDbPolyline
 90
4
 70
1
 10
-14.200295
 20
225.528107
 30
0.0
 10
-11.033998
 20
225.528107
 30
0.0
 10
-11.033998
 20
94.126667
 30
0.0
 10
-14.200295
 20
94.126667
 30
0.0
  0
LWPOLYLINE
  5
335
100
AcDbEntity
  8
outline
 62
7
100
AcDbPolyline
 90
2
 70
0
 10
-14.196148
 20
6.726980
 30
0.0
 10
-10.894543
 20
6.726950
 30
0.0
  0
ENDSEC
  0
SECTION
  2
OBJECTS
  0
DICTIONARY
  5
C
330
0
100
AcDbDictionary
  3
ACAD_GROUP
350
D
  3
ACAD_MLINESTYLE
350
17
  0
DICTIONARY
  5
D
330
C
100
AcDbDictionary
  0
DICTIONARY
  5
1A
330
C
100
AcDbDictionary
  0
DICTIONARY
  5
17
330
C
100
AcDbDictionary
  3
STANDARD
350
18
  0
DICTIONARY
  5
19
330
C
100
AcDbDictionary
  0
ENDSEC
  0
EOF
